<svg xmlns="http://www.w3.org/2000/svg" width="60" height="60" viewBox="0 0 60 60">
    <g fill="none" fill-rule="evenodd">
        <g>
            <circle cx="30" cy="30" r="30" fill="#1EA1F2"/>
            <path fill="#FFF" d="M19.565 21.052c2.01 2.574 5.607 5.002 10.435 5.263-.266-1.117-.292-4.15 1.813-5.41.942-.565 1.833-.905 2.883-.905 1.32 0 2.402.456 3.554 1.566.938-.138 2.689-.897 3.104-1.195-.27 1.046-1.353 2.39-2.135 2.71.719-.003 2.297-.436 2.781-.691-.671 1.088-1.843 2.13-2.484 2.563.742 6.704-5.182 15.039-13.69 15.047-2.43.002-5.07-.518-7.826-2.105 2.719.32 5.632-.568 7.304-2.106-2.109-.048-4.245-1.482-5.217-3.684 1.057.332 2.031.5 2.609 0-.985-.111-4.174-1.874-4.174-5.286.733.611 1.788 1.244 2.608 1.075-1.342-.801-3.293-3.855-1.565-6.842z"/>
        </g>
        <path fill="#FFF" d="M19.565 21.052c2.01 2.574 5.607 5.002 10.435 5.263-.266-1.117-.292-4.15 1.813-5.41.942-.565 1.833-.905 2.883-.905 1.32 0 2.402.456 3.554 1.566.938-.138 2.689-.897 3.104-1.195-.27 1.046-1.353 2.39-2.135 2.71.719-.003 2.297-.436 2.781-.691-.671 1.088-1.843 2.13-2.484 2.563.742 6.704-5.182 15.039-13.69 15.047-2.43.002-5.07-.518-7.826-2.105 2.719.32 5.632-.568 7.304-2.106-2.109-.048-4.245-1.482-5.217-3.684 1.057.332 2.031.5 2.609 0-.985-.111-4.174-1.874-4.174-5.286.733.611 1.788 1.244 2.608 1.075-1.342-.801-3.293-3.855-1.565-6.842z"/>
        <path fill="#FFF" d="M30.043 26.57c-.017-.07-.029-.17-.043-.255-4.806-.273-8.432-2.697-10.435-5.263a4.881 4.881 0 0 0-.673 2.466c.04-.719.241-1.47.673-2.216 2.01 2.574 5.65 5.007 10.478 5.268zM31.813 21.154c.942-.564 1.833-.904 2.883-.904 1.32 0 2.402.456 3.554 1.566.879-.129 2.458-.8 2.997-1.13.04-.106.08-.213.107-.315-.415.298-2.167 1.057-3.104 1.195C37.098 20.456 36.015 20 34.696 20c-1.05 0-1.941.34-2.883.904-1.616.968-1.973 2.975-1.932 4.363.009-1.37.41-3.202 1.932-4.113z" opacity=".2"/>
        <path fill="#010101" d="M39.504 24.711c.009.08.005.162.012.242.643-.437 1.817-1.481 2.484-2.563-.063.033-.146.07-.241.107-.684.953-1.685 1.83-2.255 2.214zM18.537 26.84l-.015-.013c0 3.124 2.69 4.931 4.174 5.278.107-.047.21-.104.3-.182-.96-.108-4.299-1.846-4.459-5.083zM25.826 39.75c-2.272.002-4.73-.465-7.292-1.822-.178-.01-.357-.013-.534-.033 2.756 1.587 5.396 2.107 7.826 2.105 8.037-.008 13.76-7.444 13.745-13.92-.13 6.416-5.811 13.662-13.745 13.67z" opacity=".1"/>
        <path fill="#010101" d="M20.243 32.16l-.156-.046c.929 2.105 2.942 3.58 5.217 3.675.091-.074.193-.143.277-.221-2.01-.046-4.31-1.38-5.338-3.408z" opacity=".1"/>
    </g>
</svg>
