<svg width="38" height="38" viewBox="0 0 38 38" fill="none" xmlns="http://www.w3.org/2000/svg">
    <path opacity="0.2" d="M17.207 3.63397C17.94 2.14748 20.06 2.14748 20.793 3.63397L24.119 10.3715C24.41 10.9617 24.973 11.3709 25.624 11.4655L33.06 12.5459C34.7 12.7843 35.355 14.8003 34.168 15.9573L28.788 21.2017C28.317 21.6612 28.102 22.3232 28.213 22.972L29.483 30.3772C29.763 32.011 28.048 33.2569 26.581 32.4856L19.931 28.9893C19.348 28.683 18.652 28.683 18.069 28.9893L11.419 32.4856C9.95201 33.2569 8.237 32.011 8.517 30.3772L9.78701 22.972C9.89801 22.3232 9.68301 21.6612 9.21201 21.2017L3.83201 15.9573C2.64501 14.8003 3.30001 12.7843 4.94001 12.5459L12.376 11.4655C13.027 11.3709 13.59 10.9617 13.881 10.3715L17.207 3.63397Z" fill="#1B2653"/>
</svg>
