<svg xmlns="http://www.w3.org/2000/svg" width="380" height="216" fill="none" viewBox="0 0 380 216">
    <path fill="#1B2653" d="M0 0h380v216H0z"/>
    <mask id="a" width="11" height="11" x="86" y="124" maskUnits="userSpaceOnUse">
        <path fill="#fff" d="M91.071 124l5.094 5.218-5.071 4.97L86 128.97l5.071-4.97z"/>
    </mask>
    <g mask="url(#a)">
        <path fill="#fff" fill-rule="evenodd" d="M83.01 137.185h16.145v-16.182H83.01v16.182z" clip-rule="evenodd"/>
    </g>
    <mask id="b" width="11" height="11" x="100" y="61" maskUnits="userSpaceOnUse">
        <path fill="#fff" d="M105.607 61.199l5.094 5.218-5.071 4.97-5.094-5.218 5.071-4.97z"/>
    </mask>
    <g mask="url(#b)">
        <path fill="#B1D8FF" fill-rule="evenodd" d="M97.546 74.384h16.145V58.202H97.546v16.182z" clip-rule="evenodd"/>
    </g>
    <mask id="c" width="9" height="9" x="273" y="121" maskUnits="userSpaceOnUse">
        <path fill="#fff" d="M277.507 121.884l3.895 3.99-3.878 3.801-3.895-3.99 3.878-3.801z"/>
    </mask>
    <g mask="url(#c)">
        <path fill="#FF8100" fill-rule="evenodd" d="M270.639 132.672h13.753v-13.785h-13.753v13.785z" clip-rule="evenodd"/>
    </g>
    <mask id="d" width="12" height="11" x="244" y="46" maskUnits="userSpaceOnUse">
        <path fill="#fff" d="M249.999 46.524l5.094 5.218-5.071 4.97-5.094-5.218 5.071-4.97z"/>
    </mask>
    <g mask="url(#d)">
        <path fill="#FFAC00" d="M249.999 46.524l5.094 5.218-5.071 4.97-5.094-5.218 5.071-4.97z"/>
        <path fill="#FFC100" fill-rule="evenodd" d="M241.938 59.709h16.145V43.527h-16.145v16.182z" clip-rule="evenodd"/>
    </g>
    <mask id="e" width="114" height="42" x="131" y="100" maskUnits="userSpaceOnUse">
        <path fill="#fff" d="M131.571 102.717l5.67-1.429c56.134-.708 61.232-1.299 75.054-.983 5.495.126 17.885 5.527 23.379 5.752 2.163.089 4.327.184 6.486.355.91.072 1.883.127 2.778.34-4.106 1.983-24.653 15.768-28.695 17.89-6.241 3.274-27.989 17.624-30.262 16.593-8.235-3.735-42.386-29.158-54.41-38.518z"/>
    </mask>
    <g mask="url(#e)">
        <path fill="url(#paint0_linear)" fill-rule="evenodd" d="M-52.501 255.869h748.723v-536.062H-52.501v536.062z" clip-rule="evenodd"/>
    </g>
    <mask id="f" width="114" height="42" x="131" y="100" maskUnits="userSpaceOnUse">
        <path fill="#fff" d="M131.571 102.717l5.67-1.429c56.134-.708 61.232-1.299 75.054-.983 5.495.126 17.885 5.527 23.379 5.752 2.163.089 4.327.184 6.486.355.91.072 1.883.127 2.778.34-4.106 1.983-24.653 15.768-28.695 17.89-6.241 3.274-27.989 17.624-30.262 16.593-8.235-3.735-42.386-29.158-54.41-38.518z"/>
    </mask>
    <g mask="url(#f)">
        <path fill="url(#paint1_linear)" fill-rule="evenodd" d="M-52.501 255.869h748.723v-536.062H-52.501v536.062z" clip-rule="evenodd"/>
    </g>
    <mask id="g" width="117" height="72" x="131" y="36" maskUnits="userSpaceOnUse">
        <path fill="#fff" d="M151.077 71.11c4.921-7.92 26.338-30.693 33.161-35.036 2.387-1.521 27.238 21.126 33.832 29.504 29.237 37.145 29.75 39.649 29.536 39.806-7.48 5.463-44.414-3.06-47.512-3.313-20.466-1.665-30.873 1.426-51.308-.117-7.452-.563-16.92.566-17.215.093.211-6.672 13.47-21.22 19.506-30.936v-.001z"/>
    </mask>
    <g mask="url(#g)">
        <path fill="#99CBFE" fill-rule="evenodd" d="M128.972 109.826H250.23V33.383H128.972v76.443z" clip-rule="evenodd"/>
    </g>
    <mask id="h" width="69" height="87" x="148" y="71" maskUnits="userSpaceOnUse">
        <path fill="#fff" d="M173.233 72.286l38.903 12.165c2.56.8 4.657 1.515 4.006 3.764l-19.284 66.472c-.652 2.249-3.255 3.423-5.815 2.622l-38.901-12.165c-2.56-.8-4.108-3.273-3.457-5.522l19.858-66.202c.651-2.249 2.13-1.934 4.69-1.134z"/>
    </mask>
    <g mask="url(#h)">
        <path fill="#fff" fill-rule="evenodd" d="M145.936 160.178h72.925V69.071h-72.925v91.107z" clip-rule="evenodd"/>
    </g>
    <mask id="i" width="120" height="80" x="130" y="100" maskUnits="userSpaceOnUse">
        <path fill="#fff" d="M132.237 101.057s.503-.29 1.283.157c.896.474 24.79 19.234 38.047 28.379 5.098 3.517 10.255 7.387 15.88 10.014 2.294 1.032 24.66-12.64 30.553-16.608 28.998-19.53 29.34-17.87 29.666-17.705-1.023 57.814 3.821 68.03.516 71.964-3.105 3.7-116.481 3.016-117.507 1.156-.956-1.735-.357-59.167.8-76.5l.762-.856v-.001z"/>
    </mask>
    <g mask="url(#i)">
        <path fill="url(#paint2_linear)" fill-rule="evenodd" d="M-52.501 255.869H696.22v-536.062H-52.5l-.001 536.062z" clip-rule="evenodd"/>
    </g>
    <mask id="j" width="120" height="80" x="130" y="100" maskUnits="userSpaceOnUse">
        <path fill="#fff" d="M132.237 101.057s.503-.29 1.283.157c.896.474 24.79 19.234 38.047 28.379 5.098 3.517 10.255 7.387 15.88 10.014 2.294 1.032 24.66-12.64 30.553-16.608 28.998-19.53 29.34-17.87 29.666-17.705-1.023 57.814 3.821 68.03.516 71.964-3.105 3.7-116.481 3.016-117.507 1.156-.956-1.735-.357-59.167.8-76.5l.762-.856v-.001z"/>
    </mask>
    <g mask="url(#j)">
        <path fill="url(#paint3_linear)" fill-rule="evenodd" d="M-52.501 255.869H696.22v-536.062H-52.5l-.001 536.062z" clip-rule="evenodd"/>
    </g>
    <path stroke="#8EC1F5" stroke-linecap="round" stroke-linejoin="round" stroke-width=".882" d="M182.365 142.78c-11.514 7.55-24.177 13.323-35.345 21.491-4.66 3.41-9.626 7.274-14.713 9.872M191.2 142.78c12.486 8.915 25.739 16.912 39.057 24.501 5.264 3 10.996 5.183 16.153 8.355L191.2 142.78z"/>
    <path stroke="#B1D8FF" stroke-linecap="round" stroke-linejoin="round" stroke-width=".882" d="M139.669 97.101c6.493-9.15 19.494-27.264 32.543-42.41 3.954-4.588 11.556-13.881 13.92-13.45 2.137.391 9.723 7.301 12.137 9.814 14.093 14.67 28.261 32.153 41.516 49.91"/>
    <defs>
        <linearGradient id="paint0_linear" x1="131.573" x2="131.573" y1="100.218" y2="636.28" gradientUnits="userSpaceOnUse">
            <stop stop-color="#338EE6"/>
            <stop offset="1" stop-color="#8DC1F4"/>
        </linearGradient>
        <linearGradient id="paint1_linear" x1="207.987" x2="210.12" y1="66.5" y2="50.03" gradientUnits="userSpaceOnUse">
            <stop stop-color="#338EE6"/>
            <stop offset="1" stop-color="#8DC1F4"/>
        </linearGradient>
        <linearGradient id="paint2_linear" x1="130.202" x2="130.202" y1="100.963" y2="637.025" gradientUnits="userSpaceOnUse">
            <stop stop-color="#8DC1F5"/>
            <stop offset="1" stop-color="#B1D8FF"/>
        </linearGradient>
        <linearGradient id="paint3_linear" x1="213.01" x2="213.01" y1="193.16" y2="156.547" gradientUnits="userSpaceOnUse">
            <stop stop-color="#8DC1F5"/>
            <stop offset="1" stop-color="#B1D8FF"/>
        </linearGradient>
    </defs>
</svg>
