<svg width="16" height="16" viewBox="0 0 16 16" fill="none" xmlns="http://www.w3.org/2000/svg">
    <path d="M12.5 8C12.5 7.60218 12.658 7.22064 12.9393 6.93934C13.2206 6.65804 13.6022 6.5 14 6.5C14.3978 6.5 14.7794 6.65804 15.0607 6.93934C15.342 7.22064 15.5 7.60218 15.5 8C15.5 8.39782 15.342 8.77936 15.0607 9.06066C14.7794 9.34196 14.3978 9.5 14 9.5C13.6022 9.5 13.2206 9.34196 12.9393 9.06066C12.658 8.77936 12.5 8.39782 12.5 8V8ZM6.5 8C6.5 7.60218 6.65804 7.22064 6.93934 6.93934C7.22064 6.65804 7.60218 6.5 8 6.5C8.39782 6.5 8.77936 6.65804 9.06066 6.93934C9.34196 7.22064 9.5 7.60218 9.5 8C9.5 8.39782 9.34196 8.77936 9.06066 9.06066C8.77936 9.34196 8.39782 9.5 8 9.5C7.60218 9.5 7.22064 9.34196 6.93934 9.06066C6.65804 8.77936 6.5 8.39782 6.5 8V8ZM0.5 8C0.5 7.60218 0.658035 7.22064 0.93934 6.93934C1.22064 6.65804 1.60218 6.5 2 6.5C2.39782 6.5 2.77936 6.65804 3.06066 6.93934C3.34196 7.22064 3.5 7.60218 3.5 8C3.5 8.39782 3.34196 8.77936 3.06066 9.06066C2.77936 9.34196 2.39782 9.5 2 9.5C1.60218 9.5 1.22064 9.34196 0.93934 9.06066C0.658035 8.77936 0.5 8.39782 0.5 8H0.5Z" fill="white"/>
</svg>
