<svg xmlns="http://www.w3.org/2000/svg" width="133" height="96" fill="none" viewBox="0 0 133 96">
  <g opacity=".6">
    <mask id="a" width="133" height="96" x="0" y="0" maskUnits="userSpaceOnUse" style="mask-type:alpha">
      <path fill="#C4C4C4" d="M.076 0h132.848v96H.076z"/>
    </mask>
    <g mask="url(#a)">
      <path fill="#195AFE" d="M14.349 28.288c.009-.148-.194-.281-.453-.296-.258-.015-.475.093-.483.242-.009.149.194.281.452.296.259.015.475-.093.484-.242ZM37.813 41.836c.008-.149-.194-.282-.453-.297-.258-.015-.475.094-.484.242-.008.149.194.282.453.297.258.015.475-.094.484-.242ZM31.958 18.121c.009-.149-.194-.281-.452-.296-.259-.015-.476.093-.484.242-.009.148.194.281.452.296.259.015.476-.093.484-.242ZM3.775 1.849c.009-.15-.194-.282-.453-.297-.258-.015-.475.093-.483.242-.009.149.194.282.452.297.259.015.475-.094.484-.242ZM55.422 31.67c.009-.15-.194-.282-.452-.297-.259-.015-.475.093-.484.242-.009.149.194.281.452.296.259.015.476-.093.484-.242ZM49.567 7.955c.009-.15-.194-.282-.453-.297-.258-.015-.475.094-.483.242-.009.149.194.282.452.297.259.015.475-.094.484-.242ZM73.031 21.502c.009-.149-.194-.281-.452-.296-.259-.015-.475.093-.484.242-.009.148.194.281.453.296.258.015.475-.093.483-.242ZM1.116 35.929c.008-.149-.194-.282-.453-.297-.259-.015-.475.094-.484.242-.008.15.194.282.453.297.258.015.475-.093.484-.242Z" opacity=".4"/>
      <path fill="#195AFE" d="M24.58 49.476c.008-.149-.194-.281-.453-.296-.258-.015-.475.093-.484.242-.008.148.194.281.453.296.259.015.475-.093.484-.242Z"/>
      <path fill="#195AFE" d="M95.052 8.789c.008-.149-.194-.281-.453-.296-.258-.015-.475.093-.484.242-.008.148.195.281.453.296.259.015.475-.093.484-.242ZM4.911 22.839c.009-.15-.194-.282-.452-.297-.259-.015-.475.093-.484.242-.009.149.194.282.452.297.259.015.476-.094.484-.242Z" opacity=".4"/>
      <path fill="#195AFE" d="M23.694 33.684c.008-.149-.194-.281-.453-.296-.258-.016-.475.093-.484.242-.008.148.194.281.453.296.258.015.475-.093.484-.242Z"/>
      <path fill="#195AFE" d="M22.52 12.672c.009-.15-.194-.282-.452-.297-.259-.015-.476.094-.484.242-.009.149.194.282.452.297.259.015.476-.094.484-.242ZM40.13 2.505c.008-.149-.194-.281-.453-.296-.258-.015-.475.093-.484.242-.008.148.194.281.453.296.258.015.475-.093.484-.242ZM41.303 23.517c.009-.149-.194-.282-.452-.297-.259-.015-.475.094-.484.242-.009.149.194.282.453.297.258.015.475-.094.483-.242ZM13.12 7.244c.009-.148-.194-.281-.452-.296-.259-.015-.475.093-.484.242-.009.149.194.281.452.296.259.015.476-.093.484-.242ZM58.913 13.35c.008-.148-.194-.281-.453-.296-.259-.015-.475.093-.484.242-.008.149.194.282.453.296.258.015.475-.093.483-.242Z" opacity=".4"/>
      <path fill="#195AFE" d="M10.46 41.324c.009-.148-.194-.281-.452-.296-.259-.015-.475.093-.484.242-.009.149.194.281.453.296.258.015.475-.093.483-.242Z"/>
      <path fill="#195AFE" d="M80.933.637c.009-.148-.194-.281-.453-.296-.258-.015-.475.093-.483.242-.009.149.194.281.452.296.259.015.475-.093.484-.242ZM23.171 23.195c.009-.15-.194-.282-.453-.297-.258-.015-.475.093-.483.242-.009.149.194.282.452.296.259.016.475-.093.484-.241ZM46.635 36.742c.009-.149-.194-.281-.452-.296-.259-.015-.475.093-.484.242-.009.148.194.281.453.296.258.015.475-.093.483-.242ZM40.78 13.027c.01-.148-.193-.281-.452-.296-.259-.015-.475.093-.484.242-.008.149.194.281.453.296.258.015.475-.093.484-.242ZM64.245 26.576c.009-.149-.194-.282-.453-.297-.258-.015-.475.094-.483.242-.009.149.194.282.452.297.259.015.475-.094.484-.242ZM6.776 59.755c.008-.149-.194-.282-.453-.297-.259-.015-.475.094-.484.242-.009.15.194.282.453.297.258.015.475-.093.484-.242ZM15.793 54.55c.009-.15-.194-.282-.453-.297-.258-.015-.475.093-.483.242-.01.148.193.281.452.296.259.015.475-.093.484-.242ZM62.801.314c.009-.148-.194-.281-.452-.296-.259-.015-.476.093-.484.242-.009.149.194.281.452.296.259.015.475-.093.484-.242ZM86.265 13.862c.008-.15-.194-.282-.453-.297-.258-.015-.475.094-.484.242-.008.149.194.282.453.297.258.015.475-.094.484-.242ZM108.286 1.148c.008-.148-.194-.281-.453-.296-.259-.015-.475.093-.484.242-.009.149.194.281.453.296.258.015.475-.093.484-.242ZM58.39 2.861c.009-.149-.194-.281-.452-.296-.259-.015-.476.093-.484.242-.009.148.194.281.452.296.259.015.476-.093.484-.242ZM81.854 16.409c.008-.15-.194-.282-.453-.297-.258-.015-.475.094-.483.242-.01.149.194.282.452.297.259.015.475-.094.484-.242ZM9.938 30.834c.009-.148-.194-.281-.452-.296-.259-.015-.476.093-.484.242-.009.149.194.281.452.296.259.015.475-.093.484-.242Z" opacity=".4"/>
      <path fill="#195AFE" d="M33.402 44.383c.009-.149-.194-.282-.452-.297-.259-.015-.476.094-.484.242-.009.149.194.282.452.297.259.015.476-.094.484-.242Z"/>
      <path fill="#195AFE" d="M103.874 3.695c.009-.148-.194-.281-.452-.296-.259-.015-.475.093-.484.242-.009.149.194.281.453.296.258.015.475-.093.483-.242Z" opacity=".4"/>
      <path fill="#195AFE" d="M13.733 17.745c.009-.149-.194-.281-.452-.296-.259-.015-.476.093-.484.242-.009.148.194.281.452.296.259.015.476-.093.484-.242Z"/>
      <path fill="#195AFE" d="M32.516 28.59c.008-.149-.194-.281-.453-.296-.258-.015-.475.093-.484.242-.008.148.194.281.453.296.259.015.475-.093.484-.242ZM4.333 12.318c.009-.149-.194-.282-.452-.297-.259-.015-.475.094-.484.242-.009.149.194.282.453.297.258.015.475-.094.483-.242ZM31.343 7.579c.009-.149-.194-.282-.453-.297-.258-.015-.475.094-.483.242-.01.149.194.282.452.297.259.015.475-.094.484-.242ZM.5 25.386c.008-.15-.194-.282-.453-.297-.258-.015-.475.094-.484.242-.008.149.194.282.453.297.258.015.475-.094.484-.242Z" opacity=".4"/>
      <path fill="#195AFE" d="M50.125 18.423c.009-.149-.194-.281-.452-.296-.259-.015-.475.093-.484.242-.009.148.194.281.453.296.258.015.475-.093.483-.242ZM21.942 2.151c.009-.148-.194-.281-.452-.296-.259-.015-.475.093-.484.242-.009.149.194.281.452.296.259.015.476-.093.484-.242ZM1.674 46.396c.009-.149-.194-.281-.453-.296-.258-.015-.475.093-.483.242-.01.148.194.281.452.296.259.015.475-.093.484-.242ZM72.146 5.71c.008-.149-.194-.281-.453-.297-.258-.015-.475.094-.483.243-.01.148.194.281.452.296.259.015.475-.093.484-.242Z"/>
      <path fill="#195AFE" d="M67.736 8.257c.008-.149-.195-.282-.453-.297-.259-.015-.475.094-.484.243-.009.148.194.281.453.296.258.015.475-.093.484-.242ZM19.283 36.23c.008-.149-.194-.281-.453-.296-.258-.015-.475.093-.483.242-.01.148.193.281.452.296.259.015.475-.093.484-.242ZM9.63 25.563c.008-.149-.194-.281-.453-.296-.259-.015-.475.093-.484.242-.009.148.194.281.453.296.258.015.475-.093.484-.242ZM33.094 39.111c.008-.148-.194-.281-.453-.296-.258-.015-.475.093-.483.242-.01.148.194.281.452.296.259.015.475-.093.484-.242ZM27.24 15.397c.008-.149-.194-.282-.453-.297-.258-.015-.475.094-.484.242-.008.15.194.282.453.297.258.015.475-.093.484-.242ZM50.703 28.944c.008-.149-.194-.281-.453-.296-.258-.015-.475.093-.484.242-.008.148.194.281.453.296.258.015.475-.093.484-.242Z" opacity=".4"/>
      <path fill="#195AFE" d="M44.848 5.23c.009-.148-.194-.281-.453-.296-.258-.015-.475.093-.483.242-.009.149.194.281.452.296.259.015.475-.093.484-.242Z"/>
      <path fill="#195AFE" d="M68.312 18.778c.009-.15-.194-.282-.452-.297-.259-.015-.475.093-.484.242-.009.149.194.282.453.297.258.015.475-.094.483-.242ZM19.86 46.752c.009-.149-.194-.282-.452-.297-.259-.015-.476.094-.484.242-.009.149.194.282.452.297.259.015.476-.094.484-.242ZM90.333 6.064c.008-.148-.194-.281-.453-.296-.258-.015-.475.093-.483.242-.01.149.194.282.452.297.259.015.475-.094.484-.243ZM28.392 36.37c.002-.144-.2-.264-.452-.266-.25-.002-.455.114-.457.258-.001.145.201.265.453.267.25.002.455-.113.456-.258ZM.207 20.099c.001-.145-.201-.265-.452-.267-.251-.002-.456.114-.457.259-.002.145.2.264.452.266.251.002.456-.113.457-.258ZM18.975 30.959c.009-.149-.194-.282-.453-.297-.258-.015-.475.094-.483.242-.009.15.194.282.452.297.259.015.475-.093.484-.242Z" opacity=".4"/>
      <path fill="#195AFE" d="M46.003 26.202c0-.145-.202-.265-.453-.267-.25-.002-.455.114-.457.259 0 .145.202.264.453.266.25.002.455-.113.457-.258ZM17.817 9.93c.001-.145-.201-.264-.452-.266-.251-.003-.456.113-.457.258-.001.145.201.264.452.267.251.002.456-.114.457-.259Z"/>
      <path fill="#195AFE" d="M63.612 16.034c.001-.145-.202-.264-.453-.267-.25-.002-.455.114-.456.259-.002.145.2.264.452.266.25.003.455-.113.457-.258ZM35.426-.238c.001-.145-.201-.264-.452-.266-.251-.003-.456.113-.457.258-.001.145.201.264.452.267.251.002.456-.114.457-.259ZM15.158 44.012c.002-.145-.2-.264-.452-.267-.251-.002-.455.114-.457.259-.001.145.201.264.452.266.252.003.456-.113.457-.258ZM85.632 3.319c.001-.145-.201-.264-.452-.267-.251-.002-.456.114-.457.259-.001.145.201.264.452.266.251.003.456-.113.457-.258ZM36.584 20.793c.009-.149-.194-.282-.452-.297-.259-.015-.475.094-.484.242-.009.149.194.282.452.297.26.015.476-.094.484-.242ZM8.4 4.52c.01-.149-.193-.281-.452-.296-.258-.015-.475.093-.484.242-.008.148.194.281.453.296.259.015.475-.093.484-.242ZM54.194 10.625c.008-.148-.195-.281-.453-.296-.259-.015-.475.093-.484.242-.008.149.194.281.453.296.258.015.475-.093.483-.242Z" opacity=".4"/>
      <path fill="#195AFE" d="M5.741 38.6c.009-.15-.194-.282-.452-.297-.259-.015-.475.093-.484.242-.009.149.194.281.453.296.258.015.475-.093.483-.242Z"/>
      <path fill="#195AFE" d="M18.452 20.47c.009-.15-.194-.282-.452-.297-.259-.015-.476.093-.484.242-.009.149.194.281.452.296.259.015.476-.093.484-.242ZM41.916 34.018c.008-.15-.194-.282-.453-.297-.258-.015-.475.093-.484.242-.008.149.194.282.453.297.258.015.475-.094.484-.242ZM36.061 10.303c.009-.149-.194-.282-.452-.296-.259-.016-.476.093-.484.242-.009.148.194.281.452.296.259.015.476-.093.484-.242ZM59.526 23.851c.009-.148-.194-.281-.453-.296-.258-.015-.475.093-.483.242-.009.148.194.281.452.296.259.015.475-.093.484-.242ZM2.056 57.03c.009-.148-.194-.281-.453-.296-.258-.015-.475.093-.483.242-.009.148.194.281.452.296.259.015.475-.093.484-.242ZM11.074 51.824c.008-.148-.194-.281-.453-.296-.258-.015-.475.093-.484.242-.008.149.194.281.453.296.259.015.475-.093.484-.242ZM81.546 11.137c.009-.149-.194-.281-.453-.296-.258-.015-.475.093-.483.242-.009.149.194.281.452.296.259.015.475-.093.484-.242ZM53.67.137c.01-.149-.193-.282-.452-.297-.258-.015-.475.094-.484.242-.008.149.194.282.453.297.259.015.475-.094.484-.242ZM77.135 13.684c.008-.149-.194-.281-.453-.296-.258-.015-.475.093-.484.242-.008.148.195.281.453.296.259.015.475-.093.484-.242Z" opacity=".4"/>
      <path fill="#195AFE" d="M5.218 28.11c.009-.149-.194-.282-.453-.296-.258-.015-.475.093-.483.242-.01.148.193.281.452.296.259.015.475-.093.484-.242Z"/>
      <path fill="#195AFE" d="M28.683 41.657c.008-.148-.194-.281-.453-.296-.258-.015-.475.093-.484.242-.008.149.194.281.453.296.258.015.475-.093.484-.242ZM99.155.97c.008-.148-.194-.28-.453-.296-.258-.015-.475.094-.483.242-.01.15.194.282.452.297.259.015.475-.093.484-.242ZM37.215 31.276c.001-.145-.201-.264-.452-.267-.251-.002-.456.114-.457.259-.002.145.201.264.452.266.251.003.456-.113.457-.258ZM9.03 15.004c.001-.145-.201-.264-.452-.266-.251-.002-.456.113-.457.258-.001.145.201.264.452.267.251.002.456-.114.457-.259ZM27.797 25.865c.01-.148-.194-.281-.452-.296-.259-.015-.475.093-.484.242-.009.148.194.281.453.296.258.015.475-.093.483-.242ZM54.825 21.107c0-.145-.202-.264-.453-.266-.25-.002-.455.113-.457.258 0 .145.202.265.453.267.25.002.455-.114.457-.259ZM26.64 4.836c0-.145-.202-.264-.453-.266-.251-.002-.456.113-.457.258-.001.145.201.265.452.267.251.002.456-.114.457-.259Z" opacity=".4"/>
      <path fill="#195AFE" d="M6.336 49.12c.008-.14-.183-.265-.427-.28-.244-.014-.448.088-.456.229-.009.14.183.265.427.28.244.014.448-.088.456-.229Z"/>
      <path fill="#195AFE" d="M76.845 8.392c.001-.145-.201-.264-.452-.266-.251-.002-.456.113-.457.258-.001.145.201.265.452.267.251.002.456-.114.457-.259ZM72.434 10.94c.002-.145-.201-.265-.452-.267-.251-.002-.456.114-.457.259-.001.145.201.264.452.266.251.002.456-.113.457-.258Z" opacity=".4"/>
      <path fill="#195AFE" d="M23.98 38.917c.002-.145-.2-.264-.451-.267-.251-.002-.456.114-.457.259-.002.145.2.264.452.266.251.003.456-.113.457-.258Z"/>
      <path fill="#195AFE" d="M45.407 15.699c.009-.149-.194-.281-.452-.296-.259-.016-.476.093-.484.242-.009.148.194.281.452.296.259.015.475-.093.484-.242ZM67.427 2.986c.009-.15-.194-.282-.452-.297-.259-.015-.476.093-.484.242-.009.149.194.282.452.297.259.015.475-.094.484-.242Z" opacity=".4"/>
      <path fill="#195AFE" d="M63.016 5.532c.009-.149-.194-.282-.453-.297-.258-.015-.475.094-.483.243-.009.148.194.281.452.296.259.015.475-.093.484-.242Z"/>
      <path fill="#195AFE" d="M14.564 33.506c.008-.15-.194-.282-.453-.297-.258-.015-.475.093-.484.242-.008.149.194.282.453.297.259.015.475-.094.484-.242ZM18.76 25.741c.009-.148-.194-.281-.452-.296-.259-.015-.476.093-.484.242-.009.149.194.281.452.296.259.015.476-.093.484-.242ZM42.224 39.289c.008-.149-.194-.282-.453-.297-.258-.015-.475.094-.484.242-.008.15.194.282.453.297.258.015.475-.093.484-.242ZM36.37 15.574c.008-.149-.194-.281-.453-.296-.258-.015-.475.093-.484.242-.008.149.194.281.453.296.258.015.475-.093.484-.242ZM59.833 29.122c.009-.149-.194-.282-.452-.297-.259-.015-.475.094-.484.242-.009.15.194.282.453.297.258.015.475-.094.483-.242ZM2.365 62.302c.008-.15-.194-.282-.453-.297-.258-.015-.475.093-.484.242-.008.149.194.282.453.297.258.015.475-.094.484-.242ZM53.979 5.408c.008-.149-.194-.282-.453-.297-.259-.015-.475.094-.484.243-.008.148.194.281.453.296.258.015.475-.093.484-.242ZM77.443 18.955c.008-.148-.194-.281-.453-.296-.258-.015-.475.093-.484.242-.008.149.194.281.453.296.258.015.475-.093.484-.242ZM5.527 33.381c.008-.148-.194-.281-.453-.296-.259-.015-.475.093-.484.242-.009.149.194.281.453.296.258.015.475-.093.484-.242ZM28.991 46.929c.009-.149-.194-.282-.452-.297-.259-.015-.475.094-.484.242-.009.15.194.282.453.297.258.015.475-.093.483-.242ZM99.463 6.242c.01-.149-.194-.281-.452-.296-.259-.015-.475.093-.484.242-.008.149.194.281.453.296.258.015.475-.093.483-.242ZM9.322 20.292c.009-.149-.194-.282-.452-.297-.259-.015-.476.094-.484.242-.009.15.194.282.452.297.259.015.476-.093.484-.242ZM28.105 31.137c.008-.149-.194-.282-.453-.297-.258-.014-.475.094-.483.243-.01.148.193.281.452.296.259.015.475-.093.484-.242ZM26.932 10.125c.008-.149-.194-.282-.453-.297-.258-.015-.475.094-.484.242-.008.15.194.282.453.297.258.015.475-.094.484-.242ZM44.54-.042c.009-.148-.194-.281-.452-.296-.259-.015-.476.093-.484.242-.009.149.194.281.452.296.259.015.476-.093.484-.242ZM45.714 20.97c.008-.149-.194-.282-.453-.297-.258-.015-.475.094-.484.242-.008.15.194.282.453.297.259.015.475-.093.484-.242ZM17.531 4.698c.009-.15-.194-.282-.452-.297-.259-.015-.475.093-.484.242-.009.149.194.282.453.297.258.015.475-.094.483-.242ZM63.323 10.804c.009-.149-.194-.282-.452-.297-.259-.015-.475.094-.484.242-.009.149.194.282.453.297.258.015.475-.093.483-.242Z" opacity=".4"/>
      <path fill="#195AFE" d="M14.872 38.777c.009-.149-.194-.281-.453-.297-.258-.014-.475.094-.483.243-.01.148.194.281.452.296.259.015.475-.093.484-.242Z"/>
      <path fill="#195AFE" d="M27.564 20.684c.016-.143-.176-.281-.428-.308-.252-.027-.468.068-.484.211-.015.144.177.282.429.308.252.027.468-.067.483-.21ZM51.03 34.233c.015-.144-.177-.282-.429-.308-.252-.027-.468.067-.483.21-.016.144.176.282.428.309.252.026.468-.068.484-.212ZM45.174 10.517c.016-.143-.176-.281-.428-.308-.252-.027-.468.068-.484.211-.015.143.177.281.429.308.252.027.468-.068.483-.211Z" opacity=".4"/>
      <path fill="#195AFE" d="M68.641 24.066c.015-.144-.177-.282-.428-.308-.252-.027-.469.067-.484.21-.015.144.177.282.428.309.252.026.469-.068.484-.212ZM11.167 57.248c.015-.144-.177-.282-.429-.308-.251-.027-.468.067-.483.21-.015.144.176.282.428.309.252.026.469-.068.484-.211Z"/>
      <path fill="#195AFE" d="M20.185 52.04c.016-.142-.176-.28-.428-.307-.252-.027-.468.068-.484.21-.015.144.177.282.429.309.252.027.468-.068.483-.211ZM90.663 11.351c.015-.143-.177-.281-.429-.308-.252-.026-.468.068-.483.211-.016.144.176.281.428.308.252.027.468-.067.484-.21ZM18.126 15.234c.015-.143-.177-.28-.429-.308-.251-.026-.468.068-.483.211-.015.144.176.281.428.308.252.027.469-.068.484-.21ZM36.91 26.08c.015-.143-.177-.281-.429-.308-.252-.027-.468.068-.483.211-.016.143.176.281.428.308.252.027.468-.068.484-.211ZM8.725 9.806c.015-.143-.177-.28-.429-.308-.252-.026-.468.068-.483.212-.016.143.176.28.428.307.252.027.469-.067.484-.21ZM35.736 5.067c.015-.143-.177-.281-.428-.308-.252-.027-.469.068-.484.211-.015.143.177.281.428.308.252.027.469-.068.484-.211ZM54.521 15.912c.015-.143-.176-.28-.428-.308-.252-.026-.469.068-.484.211-.015.144.177.282.429.308.251.027.468-.067.483-.21Z" opacity=".4"/>
      <path fill="#195AFE" d="M6.065 43.888c.015-.143-.177-.28-.429-.307-.251-.027-.468.067-.483.21-.015.144.176.282.428.308.252.027.469-.067.484-.21Z"/>
      <path fill="#195AFE" d="M76.543 3.198c.015-.143-.177-.281-.429-.308-.251-.027-.468.068-.483.211-.015.143.177.281.428.308.252.027.469-.068.484-.211Z" opacity=".4"/>
      <path fill="#195AFE" d="M14.041 23.016c.009-.148-.194-.281-.452-.296-.259-.015-.476.093-.484.242-.009.148.194.281.452.296.259.015.476-.093.484-.242ZM37.505 36.564c.009-.148-.194-.281-.452-.296-.259-.015-.475.093-.484.242-.009.149.194.281.452.296.259.016.476-.093.484-.242ZM31.65 12.85c.009-.149-.194-.281-.452-.297-.26-.015-.476.094-.484.242-.009.15.194.282.452.297.259.015.475-.093.484-.242ZM55.115 26.397c.008-.148-.194-.281-.453-.296-.258-.015-.475.093-.483.242-.01.148.194.281.452.296.259.015.475-.093.484-.242Z"/>
      <path fill="#195AFE" d="M49.26 2.684c.008-.15-.194-.282-.453-.297-.259-.015-.475.093-.484.242-.008.149.194.282.453.297.258.015.475-.094.484-.242ZM72.723 16.23c.009-.148-.194-.28-.452-.296-.259-.015-.475.094-.484.242-.009.15.194.282.452.297.259.015.476-.093.484-.242ZM.808 30.657c.009-.149-.194-.282-.452-.297-.259-.015-.476.094-.484.242-.009.15.194.282.452.297.259.015.476-.094.484-.242ZM24.272 44.204c.009-.148-.194-.281-.453-.296-.258-.015-.475.093-.483.242-.01.149.193.281.452.296.259.015.475-.093.484-.242ZM94.744 3.518c.008-.149-.194-.282-.453-.297-.258-.015-.475.094-.484.242-.008.149.194.282.453.297.258.015.475-.094.484-.242ZM32.804 33.823c.001-.145-.201-.264-.452-.266-.251-.003-.456.113-.457.258-.001.145.201.264.452.267.251.002.456-.114.457-.259ZM4.619 17.551c0-.145-.202-.264-.453-.266-.25-.003-.455.113-.457.258 0 .145.202.265.453.267.25.002.455-.114.457-.259ZM23.387 28.412c.008-.149-.194-.281-.453-.296-.259-.015-.475.093-.484.242-.008.148.194.281.453.296.258.015.475-.093.484-.242ZM50.414 23.654c.001-.144-.202-.264-.453-.266-.25-.002-.455.113-.456.258-.002.145.2.265.452.267.25.002.455-.114.457-.259ZM22.228 7.383c.002-.145-.201-.264-.452-.267-.251-.002-.456.114-.457.259-.001.145.201.264.452.266.251.003.456-.113.457-.258ZM68.023 13.487c.001-.145-.201-.264-.452-.267-.251-.002-.456.114-.457.259-.001.145.201.264.452.266.251.003.456-.113.457-.258Z" opacity=".4"/>
      <path fill="#195AFE" d="M19.57 41.464c.002-.145-.2-.264-.452-.266-.25-.003-.455.113-.457.258-.001.145.201.264.452.267.252.002.456-.114.457-.259Z"/>
      <path fill="#195AFE" d="M90.044.772c.001-.145-.201-.265-.452-.267-.251-.002-.456.114-.457.259-.002.145.2.264.452.266.251.003.456-.113.457-.258Z" opacity=".4"/>
      <path fill="#195AFE" d="M40.995 18.245c.01-.149-.194-.281-.452-.296-.259-.016-.475.093-.484.242-.008.148.194.281.453.296.258.015.475-.093.483-.242Z"/>
      <path fill="#195AFE" d="M58.605 8.079c.009-.149-.194-.282-.452-.297-.259-.015-.476.094-.484.242-.009.15.194.282.452.297.259.015.475-.094.484-.242ZM10.152 36.053c.009-.15-.194-.282-.452-.297-.259-.015-.476.093-.484.242-.009.149.194.282.452.297.259.015.476-.094.484-.242ZM22.845 17.96c.015-.144-.177-.282-.429-.308-.251-.027-.468.067-.483.21-.015.144.176.282.428.309.252.026.469-.068.484-.212ZM46.31 31.508c.016-.143-.176-.281-.428-.308-.252-.027-.468.068-.483.21-.016.144.176.282.428.309.252.026.468-.068.484-.211ZM40.455 7.791c.015-.143-.177-.28-.428-.308-.252-.026-.469.068-.484.211-.015.144.176.282.428.308.252.027.469-.067.484-.21ZM63.921 21.34c.015-.143-.177-.28-.428-.307-.252-.027-.469.067-.484.21-.015.144.177.282.428.309.252.026.469-.068.484-.211ZM6.447 54.523c.016-.143-.176-.281-.428-.308-.252-.027-.468.068-.484.211-.015.143.177.281.429.308.252.027.468-.068.483-.211Z" opacity=".4"/>
      <path fill="#195AFE" d="M15.465 49.316c.015-.143-.176-.281-.428-.308-.252-.027-.469.068-.484.211-.015.144.177.281.429.308.252.027.468-.068.483-.21Z"/>
      <path fill="#195AFE" d="M85.943 8.626c.016-.144-.176-.282-.428-.308-.252-.027-.469.067-.484.21-.015.144.177.282.429.309.252.026.468-.068.483-.211ZM41.583 28.766c.008-.14-.183-.266-.427-.28-.244-.014-.448.088-.456.228-.009.14.183.266.427.28.244.014.448-.088.456-.228ZM13.4 12.493c.008-.14-.183-.265-.427-.28-.244-.014-.448.089-.457.229-.008.14.184.265.428.28.244.014.448-.088.456-.229Z" opacity=".4"/>
      <path fill="#195AFE" d="M32.19 23.355c.016-.143-.176-.281-.428-.308-.252-.027-.468.068-.483.211-.015.143.176.281.428.308.252.027.469-.068.484-.211ZM4.005 7.082c.015-.143-.176-.281-.428-.308-.252-.027-.469.068-.484.211-.015.143.177.281.429.308.252.027.468-.068.483-.211Z"/>
      <path fill="#195AFE" d="M59.192 18.6c.008-.141-.183-.266-.427-.28-.244-.015-.448.088-.456.228-.008.14.183.266.427.28.244.014.448-.088.456-.229ZM1.723 51.779c.008-.14-.183-.266-.427-.28-.244-.014-.449.088-.457.229-.008.14.183.265.427.28.244.014.449-.089.457-.229ZM31.009 2.327c.008-.14-.183-.266-.427-.28-.244-.014-.448.088-.457.228-.008.14.183.266.427.28.245.014.449-.088.457-.228Z" opacity=".4"/>
      <path fill="#195AFE" d="M10.74 46.573c.009-.14-.182-.266-.426-.28-.244-.014-.449.088-.457.228-.008.14.183.266.427.28.244.014.449-.088.457-.228Z"/>
      <path fill="#195AFE" d="M81.213 5.885c.009-.14-.183-.265-.427-.28-.244-.014-.448.089-.456.229-.008.14.183.266.427.28.244.014.448-.088.456-.229ZM49.801 13.188c.016-.143-.176-.281-.428-.308-.252-.027-.468.068-.484.211-.015.143.177.281.429.308.252.027.468-.068.483-.211ZM1.345 41.164c.015-.143-.176-.281-.428-.308-.252-.027-.469.068-.484.211-.015.143.177.281.429.308.251.027.468-.068.483-.211ZM71.823.473c.015-.143-.177-.28-.429-.307-.252-.027-.468.067-.483.21-.016.144.176.282.428.309.252.026.468-.068.484-.212Z" opacity=".4"/>
      <path fill="#195AFE" d="M12.813 1.973c.008-.148-.194-.281-.453-.296-.258-.015-.475.093-.483.242-.01.149.193.281.452.296.259.015.475-.093.484-.242Z"/>
      <path fill="#195AFE" d="M42.543 44.566c.008-.148-.194-.28-.453-.296-.258-.015-.475.093-.484.242-.008.149.194.282.453.297.259.015.475-.094.484-.242ZM94.19 74.387c.01-.149-.193-.281-.452-.296-.258-.015-.475.093-.484.242-.008.148.194.281.453.296.259.015.475-.093.484-.242ZM66.007 58.114c.009-.148-.194-.281-.452-.296-.259-.015-.476.093-.484.242-.009.149.194.281.452.296.259.015.476-.093.484-.242ZM8.538 91.294c.008-.148-.194-.281-.453-.296-.258-.015-.475.093-.484.242-.008.148.194.281.453.296.258.015.475-.093.484-.242ZM117.654 87.935c.009-.149-.194-.282-.452-.297-.259-.015-.475.094-.484.242-.009.15.194.282.453.297.258.015.475-.094.483-.242ZM60.153 34.4c.008-.148-.194-.281-.453-.296-.259-.015-.475.093-.484.242-.009.149.194.281.453.296.258.015.475-.093.484-.242ZM2.683 67.58c.008-.149-.194-.281-.453-.296-.259-.016-.475.093-.484.241-.009.15.194.282.453.297.258.015.475-.093.484-.242ZM111.8 64.22c.009-.148-.194-.28-.453-.296-.258-.015-.475.093-.483.242-.009.149.194.282.452.297.259.015.475-.094.484-.242ZM83.617 47.948c.008-.149-.194-.281-.453-.296-.258-.016-.475.093-.484.242-.008.148.194.281.453.296.259.015.475-.093.484-.242ZM26.146 81.128c.009-.149-.194-.282-.452-.297-.259-.015-.476.094-.484.242-.009.149.194.282.452.297.259.015.476-.094.484-.242ZM77.762 24.234c.009-.149-.194-.282-.452-.297-.259-.015-.476.094-.484.242-.009.15.194.282.452.297.259.015.475-.093.484-.242ZM129.41 54.054c.008-.15-.194-.282-.453-.297-.259-.015-.475.093-.484.242-.008.149.194.282.453.297.258.015.475-.094.484-.242ZM101.225 37.78c.009-.148-.194-.28-.453-.296-.258-.015-.475.094-.483.242-.009.15.194.282.452.297.259.015.475-.094.484-.242ZM29.31 52.207c.008-.149-.194-.281-.453-.296-.259-.016-.475.093-.484.242-.009.148.194.281.453.296.258.015.475-.093.483-.242ZM80.957 82.028c.008-.15-.194-.282-.453-.297-.258-.015-.475.093-.484.242-.008.149.194.281.453.297.258.015.475-.094.484-.242Z" opacity=".4"/>
      <path fill="#195AFE" d="M52.774 65.755c.008-.149-.194-.282-.453-.297-.259-.015-.475.094-.484.243-.009.148.194.28.453.296.258.015.475-.093.484-.242ZM104.422 95.575c.008-.148-.194-.281-.453-.296-.259-.015-.475.093-.484.242-.009.149.194.281.453.296.258.015.475-.093.484-.242Z"/>
      <path fill="#195AFE" d="M99.783 11.52c.008-.149-.194-.281-.453-.296-.258-.015-.475.093-.484.242-.008.148.194.281.453.296.258.015.475-.093.484-.242ZM123.246 25.068c.009-.149-.194-.282-.452-.297-.259-.015-.476.094-.484.242-.009.149.194.282.452.297.259.015.476-.094.484-.242ZM84.752 68.938c.009-.149-.194-.282-.452-.297-.259-.015-.475.094-.484.242-.009.15.194.282.453.297.258.015.475-.093.483-.242Z" opacity=".4"/>
      <path fill="#195AFE" d="M51.888 49.963c.008-.15-.194-.282-.453-.297-.259-.015-.475.094-.484.242-.008.149.194.282.453.297.258.015.475-.094.484-.242ZM103.535 79.782c.009-.148-.194-.281-.453-.296-.258-.015-.475.093-.483.242-.009.148.194.281.452.296.259.015.475-.093.484-.242Z"/>
      <path fill="#195AFE" d="M75.352 63.51c.009-.148-.194-.28-.453-.296-.258-.015-.475.093-.484.242-.008.149.194.282.453.297.259.015.475-.094.484-.242ZM102.361 58.77c.009-.148-.194-.28-.452-.296-.259-.015-.475.094-.484.242-.009.15.194.282.453.297.258.015.475-.093.483-.242ZM44.892 91.951c.009-.148-.194-.281-.453-.296-.258-.015-.475.093-.483.242-.01.149.194.281.452.296.259.015.475-.093.484-.242ZM119.971 48.604c.009-.148-.194-.281-.452-.296-.259-.015-.476.093-.484.242-.009.149.194.282.452.297.259.014.475-.094.484-.243Z" opacity=".4"/>
      <path fill="#195AFE" d="M71.519 76.578c.009-.148-.194-.281-.453-.296-.258-.015-.475.093-.484.242-.008.149.195.281.453.296.259.016.475-.093.484-.242Z"/>
      <path fill="#195AFE" d="M69.497 39.795c.009-.148-.194-.28-.452-.296-.259-.015-.476.093-.484.242-.009.149.194.282.452.297.259.015.476-.094.484-.242ZM12.027 72.976c.009-.149-.194-.281-.452-.297-.259-.015-.475.094-.484.242-.009.15.194.282.452.297.259.015.476-.093.484-.242ZM121.145 69.616c.008-.149-.194-.282-.453-.297-.258-.015-.475.094-.484.242-.008.15.194.282.453.297.258.015.475-.093.484-.242ZM92.962 53.343c.009-.148-.194-.28-.453-.296-.258-.015-.475.093-.483.242-.009.149.194.282.452.297.259.015.475-.094.484-.242ZM35.492 86.523c.008-.149-.194-.281-.453-.296-.258-.015-.475.093-.484.242-.008.148.194.281.453.296.258.015.475-.093.484-.242ZM87.107 29.63c.009-.15-.194-.282-.452-.297-.259-.015-.475.093-.484.242-.009.149.194.281.453.296.258.015.475-.093.483-.242ZM110.571 43.177c.009-.149-.194-.281-.453-.297-.258-.015-.475.094-.483.243-.009.148.194.281.452.296.259.015.475-.093.484-.242Z" opacity=".4"/>
      <path fill="#195AFE" d="M38.655 57.603c.008-.149-.194-.282-.453-.297-.258-.015-.475.094-.484.242-.008.15.194.282.453.297.258.015.475-.093.484-.242ZM90.302 87.423c.009-.148-.194-.281-.452-.296-.259-.015-.476.093-.484.242-.009.149.194.281.452.296.259.015.475-.093.484-.242Z"/>
      <path fill="#195AFE" d="M62.119 71.151c.008-.149-.194-.281-.453-.296-.258-.015-.475.093-.484.242-.008.148.194.281.453.296.259.015.475-.093.484-.242ZM109.128 16.916c.009-.149-.194-.281-.452-.296-.259-.015-.476.093-.484.242-.009.148.194.281.452.296.259.015.475-.093.484-.242ZM132.591 30.464c.009-.149-.194-.281-.453-.296-.258-.015-.475.093-.483.242-.009.148.194.281.452.296.259.015.475-.093.484-.242ZM51.366 39.474c.008-.15-.194-.282-.453-.297-.258-.015-.475.093-.484.242-.008.149.194.282.453.297.258.015.475-.094.484-.242ZM103.013 69.293c.008-.148-.194-.281-.453-.296-.258-.015-.475.093-.484.242-.008.149.194.281.453.296.259.016.475-.093.484-.242ZM74.83 53.02c.008-.148-.194-.28-.453-.296-.258-.015-.475.094-.484.242-.008.15.194.282.453.297.258.015.475-.093.484-.242ZM17.36 86.201c.008-.149-.194-.281-.453-.296-.258-.015-.475.093-.484.242-.008.148.194.281.453.296.258.015.475-.093.484-.242ZM126.477 82.841c.009-.149-.194-.281-.452-.296-.259-.015-.476.093-.484.242-.009.148.194.281.452.296.259.015.476-.093.484-.242ZM68.975 29.307c.009-.15-.194-.282-.453-.297-.258-.015-.475.093-.483.242-.009.149.194.282.452.297.259.015.475-.094.484-.242ZM11.506 62.486c.008-.148-.194-.281-.453-.296-.258-.015-.475.093-.484.242-.008.149.194.281.453.296.258.015.475-.093.484-.242ZM120.622 59.127c.009-.149-.193-.282-.452-.297-.259-.014-.475.094-.484.243-.009.148.194.281.453.296.258.015.475-.093.483-.242ZM63.153 92.307c.009-.149-.194-.282-.452-.297-.259-.015-.476.094-.484.242-.009.15.194.282.452.297.259.015.476-.094.484-.242ZM92.438 42.854c.009-.148-.194-.281-.452-.296-.259-.015-.476.093-.484.242-.009.149.194.281.452.296.259.015.476-.093.484-.242ZM34.97 76.034c.008-.149-.195-.281-.453-.296-.259-.015-.475.093-.484.242-.009.148.194.281.453.296.258.015.475-.093.483-.242ZM20.524 57.28c.008-.149-.194-.282-.453-.297-.259-.015-.475.094-.484.242-.009.15.194.282.453.297.258.015.475-.093.484-.242ZM72.171 87.1c.009-.148-.194-.281-.453-.296-.258-.015-.475.093-.483.242-.009.149.194.281.452.296.259.016.475-.093.484-.242ZM43.987 70.828c.008-.15-.194-.282-.453-.297-.258-.015-.475.093-.484.242-.008.149.194.282.453.297.258.015.475-.094.484-.242ZM90.996 16.593c.008-.148-.194-.281-.453-.296-.258-.015-.475.093-.484.242-.008.149.194.281.453.296.258.015.475-.093.484-.242ZM114.459 30.141c.008-.148-.194-.281-.453-.296-.258-.015-.475.093-.484.242-.008.148.194.281.453.296.258.015.475-.093.484-.242ZM113.016 3.88c.008-.149-.194-.281-.453-.296-.258-.015-.475.093-.484.242-.008.148.194.281.453.296.259.015.475-.093.484-.242ZM86.584 19.14c.009-.149-.194-.281-.452-.296-.259-.015-.476.093-.484.242-.009.149.194.281.452.296.259.015.476-.093.484-.242ZM110.048 32.687c.008-.148-.194-.281-.453-.296-.258-.015-.475.093-.484.242-.008.149.194.281.453.296.259.015.475-.093.484-.242ZM38.132 47.113c.009-.148-.194-.281-.453-.296-.258-.015-.475.093-.483.242-.01.149.194.281.452.296.259.015.475-.093.484-.242ZM89.78 76.934c.008-.149-.195-.282-.453-.297-.259-.015-.476.094-.484.242-.009.15.194.282.452.297.259.015.476-.093.484-.242Z" opacity=".4"/>
      <path fill="#195AFE" d="M61.596 60.661c.009-.148-.194-.281-.452-.296-.259-.015-.476.093-.484.242-.009.149.194.281.452.297.259.014.475-.094.484-.243ZM4.126 93.841c.009-.149-.194-.281-.452-.296-.259-.016-.476.093-.484.242-.009.148.194.281.452.296.259.015.475-.093.484-.242ZM113.244 90.482c.009-.149-.194-.282-.453-.297-.258-.015-.475.094-.483.242-.009.15.194.282.452.297.259.015.475-.094.484-.242Z"/>
      <path fill="#195AFE" d="M108.605 6.427c.008-.149-.194-.281-.453-.296-.259-.015-.475.093-.484.242-.008.148.194.281.453.296.258.015.475-.093.484-.242ZM132.069 19.974c.008-.149-.194-.281-.453-.296-.258-.015-.475.093-.484.242-.008.148.194.281.453.296.259.015.475-.093.484-.242Z" opacity=".4"/>
      <path fill="#195AFE" d="M93.574 63.844c.009-.148-.194-.281-.452-.296-.259-.015-.475.093-.484.242-.009.149.194.281.453.296.258.015.475-.093.483-.242Z"/>
      <path fill="#195AFE" d="M60.71 44.869c.009-.149-.194-.282-.452-.297-.259-.015-.475.094-.484.242-.009.15.194.282.453.297.258.015.475-.093.483-.242ZM3.24 78.049c.01-.15-.193-.282-.452-.297-.258-.015-.475.093-.484.242-.008.149.194.281.453.296.259.015.475-.093.484-.242ZM112.358 74.69c.008-.15-.194-.282-.453-.297-.259-.015-.475.093-.484.242-.008.149.194.281.453.296.258.015.475-.093.484-.242ZM84.175 58.417c.009-.149-.194-.282-.452-.297-.259-.015-.476.094-.484.242-.009.15.194.282.452.297.259.015.475-.093.484-.242ZM26.705 91.597c.009-.15-.194-.282-.452-.297-.259-.015-.476.093-.484.242-.009.149.194.281.452.297.259.015.476-.094.484-.242ZM111.184 53.678c.009-.149-.194-.281-.452-.296-.259-.016-.475.093-.484.242-.009.148.194.28.453.296.258.015.475-.093.483-.242ZM53.715 86.857c.008-.149-.194-.281-.453-.296-.258-.016-.475.093-.484.241-.008.15.194.282.453.297.258.015.475-.093.484-.242ZM62.732 81.65c.009-.148-.194-.28-.452-.296-.259-.015-.475.094-.484.242-.009.149.194.282.453.297.258.015.475-.094.483-.242ZM133.205 40.964c.009-.149-.194-.282-.452-.297-.259-.015-.476.094-.484.242-.009.15.194.282.452.297.259.015.476-.093.484-.242ZM128.794 43.51c.008-.148-.194-.28-.453-.296-.259-.015-.475.094-.484.242-.008.15.194.282.453.297.258.015.475-.093.484-.242ZM80.341 71.484c.01-.149-.194-.281-.452-.296-.259-.015-.475.093-.484.242-.009.148.194.281.453.296.258.015.475-.093.483-.242Z" opacity=".4"/>
      <path fill="#195AFE" d="M78.32 34.703c.008-.15-.195-.282-.453-.297-.259-.015-.476.093-.484.242-.009.149.194.282.452.297.259.015.476-.094.484-.242ZM20.85 67.882c.01-.15-.194-.282-.452-.297-.259-.015-.475.093-.484.242-.009.149.194.282.453.297.258.015.475-.094.483-.242ZM129.967 64.522c.009-.148-.194-.281-.452-.296-.259-.015-.476.093-.484.242-.009.148.194.281.452.296.259.015.476-.093.484-.242ZM101.784 48.25c.009-.149-.194-.282-.452-.297-.259-.015-.476.094-.484.242-.009.15.194.282.452.297.259.015.475-.093.484-.242ZM44.315 81.43c.009-.149-.194-.282-.452-.297-.259-.015-.475.094-.484.242-.009.149.194.282.453.297.258.015.475-.094.483-.242ZM29.868 62.676c.008-.149-.194-.282-.453-.297-.258-.015-.475.094-.484.242-.008.15.194.282.453.297.258.015.475-.093.484-.242ZM81.516 92.496c.008-.15-.194-.282-.453-.297-.258-.015-.475.093-.484.242-.008.149.194.281.453.296.258.016.475-.093.484-.241ZM53.332 76.223c.009-.149-.194-.281-.453-.296-.258-.015-.475.093-.483.242-.01.148.194.281.452.296.259.015.475-.093.484-.242ZM100.341 21.989c.009-.149-.194-.282-.453-.297-.258-.015-.475.094-.483.242-.01.15.194.282.452.297.259.015.475-.094.484-.242ZM123.804 35.536c.009-.148-.194-.28-.452-.296-.259-.015-.476.093-.484.242-.009.149.194.282.452.297.259.015.475-.094.484-.243ZM122.361 9.275c.009-.148-.194-.281-.453-.296-.258-.015-.475.093-.483.242-.009.149.194.281.452.296.259.016.475-.093.484-.242Z"/>
      <path fill="#195AFE" d="M95.93 24.536c.009-.15-.194-.282-.453-.297-.258-.015-.475.093-.483.242-.009.149.194.282.452.297.259.015.475-.094.484-.242ZM119.393 38.084c.009-.15-.194-.282-.453-.297-.258-.015-.475.093-.483.242-.009.149.194.281.452.297.259.015.475-.094.484-.242ZM47.477 52.509c.009-.149-.194-.282-.452-.297-.259-.015-.476.094-.484.242-.009.149.194.282.452.297.259.015.475-.094.484-.242ZM99.125 82.33c.008-.15-.194-.282-.453-.297-.258-.015-.475.093-.484.242-.008.148.194.281.453.296.258.015.475-.093.484-.242ZM70.942 66.057c.008-.149-.194-.282-.453-.297-.259-.015-.475.094-.484.242-.008.15.194.282.453.297.258.015.475-.094.484-.242ZM117.95 11.822c.009-.148-.194-.281-.452-.296-.259-.015-.476.093-.484.242-.009.149.194.281.452.296.259.015.475-.093.484-.242ZM89.471 71.662c.009-.148-.194-.28-.452-.296-.259-.015-.475.093-.484.242-.009.149.194.282.453.297.258.015.475-.094.483-.243ZM61.288 55.39c.009-.149-.194-.282-.452-.297-.259-.015-.475.094-.484.242-.009.15.194.282.452.297.259.015.476-.093.484-.242ZM3.818 88.57c.009-.149-.194-.282-.452-.297-.259-.015-.476.094-.484.242-.009.149.194.282.452.297.259.015.476-.094.484-.242ZM112.935 85.21c.009-.148-.194-.281-.452-.296-.259-.015-.475.093-.484.242-.009.149.194.281.453.296.258.016.475-.093.483-.242ZM107.081 61.496c.009-.149-.194-.281-.453-.296-.258-.015-.475.093-.483.242-.009.148.194.281.452.296.259.015.475-.093.484-.242ZM49.611 94.676c.009-.149-.194-.282-.453-.297-.258-.015-.475.094-.483.242-.01.149.194.282.452.297.259.015.475-.094.484-.242ZM78.897 45.223c.009-.15-.194-.282-.452-.297-.259-.015-.476.093-.484.242-.009.149.194.282.452.297.259.015.475-.094.484-.242ZM21.428 78.403c.008-.148-.194-.281-.453-.296-.258-.015-.475.093-.484.242-.008.149.194.281.453.296.259.015.475-.093.484-.242ZM130.545 75.043c.008-.149-.194-.281-.453-.296-.259-.015-.475.093-.484.242-.008.148.194.281.453.296.258.015.475-.093.484-.242Z" opacity=".4"/>
      <path fill="#195AFE" d="M124.69 51.329c.008-.149-.194-.282-.453-.297-.258-.014-.475.094-.484.243-.008.148.194.281.453.296.259.015.475-.093.484-.242Z"/>
      <path fill="#195AFE" d="M96.507 35.056c.008-.148-.194-.281-.453-.296-.258-.015-.475.093-.484.242-.008.149.194.281.453.296.258.015.475-.093.484-.242ZM76.238 79.303c.009-.149-.194-.281-.452-.296-.259-.016-.475.093-.484.242-.009.148.194.281.453.296.258.015.475-.093.483-.242ZM48.054 63.03c.009-.148-.194-.281-.453-.296-.258-.015-.475.093-.483.242-.009.149.194.281.452.296.259.015.475-.093.484-.242ZM99.701 92.85c.009-.148-.194-.28-.452-.296-.259-.015-.475.094-.484.242-.009.149.194.282.453.297.258.015.475-.094.483-.242ZM118.527 22.343c.009-.149-.194-.281-.452-.296-.259-.015-.476.093-.484.242-.009.148.194.281.452.296.259.015.476-.093.484-.242ZM56.589 52.648c.001-.145-.201-.264-.453-.267-.25-.002-.455.114-.456.259-.002.145.2.264.452.266.25.003.456-.113.457-.258ZM108.24 82.467c.001-.145-.201-.264-.452-.267-.251-.002-.456.114-.457.259-.001.145.201.264.452.266.251.003.456-.113.457-.258ZM80.055 66.195c.002-.144-.2-.264-.452-.266-.251-.002-.456.113-.457.258-.001.145.201.265.452.267.252.002.456-.113.457-.258ZM47.169 47.238c.009-.148-.194-.281-.453-.296-.258-.015-.475.093-.484.242-.008.149.194.281.453.296.259.015.475-.093.484-.242ZM98.816 77.058c.009-.15-.194-.282-.453-.297-.258-.015-.475.093-.483.242-.009.149.194.282.452.297.259.015.475-.094.484-.242Z" opacity=".4"/>
      <path fill="#195AFE" d="M70.633 60.785c.01-.148-.194-.281-.452-.296-.259-.015-.475.093-.484.242-.009.149.194.281.453.296.258.015.475-.093.483-.242ZM13.164 93.965c.008-.149-.194-.282-.453-.297-.258-.015-.475.094-.484.242-.008.15.194.282.453.297.258.015.475-.093.484-.242ZM74.199 42.48c.001-.145-.201-.264-.452-.266-.251-.003-.456.113-.457.258-.002.145.2.264.452.267.251.002.456-.114.457-.259ZM16.728 75.665c.001-.145-.202-.265-.453-.267-.25-.002-.455.113-.456.258-.002.145.2.265.452.267.25.002.455-.114.457-.258ZM125.849 72.3c.002-.146-.201-.265-.452-.267-.251-.003-.456.113-.457.258-.001.145.201.264.452.267.251.002.456-.114.457-.259ZM97.665 56.028c.002-.145-.2-.264-.452-.267-.25-.002-.456.114-.457.259-.001.145.201.264.453.266.25.002.455-.113.456-.258ZM40.194 89.212c.002-.145-.201-.264-.452-.267-.251-.002-.456.114-.457.259-.001.145.201.264.452.267.251.002.456-.114.457-.259Z"/>
      <path fill="#195AFE" d="M91.808 32.312c.001-.145-.201-.264-.453-.266-.25-.002-.455.113-.456.258-.002.145.2.264.452.267.25.002.456-.114.457-.259ZM115.274 45.86c.002-.145-.201-.264-.452-.267-.251-.002-.456.114-.457.259-.001.145.201.264.452.266.251.003.456-.113.457-.258ZM43.355 60.29c.001-.145-.201-.265-.452-.267-.251-.002-.456.113-.457.258-.001.145.201.265.452.267.251.002.456-.114.457-.259ZM95.006 90.108c.001-.145-.201-.264-.452-.266-.251-.002-.456.113-.457.258-.001.145.201.265.452.267.251.002.456-.114.457-.259ZM66.822 73.837c.001-.145-.201-.264-.453-.267-.25-.002-.455.114-.457.259 0 .145.202.264.453.267.25.002.455-.114.457-.259ZM113.829 19.597c.001-.145-.201-.265-.452-.267-.251-.002-.456.114-.457.259-.001.145.201.264.452.266.251.002.456-.113.457-.258ZM64.779 37.07c.009-.148-.194-.28-.453-.295-.258-.015-.475.093-.483.242-.01.148.194.281.452.296.259.015.475-.093.484-.242ZM7.309 70.25c.009-.148-.194-.28-.453-.296-.258-.015-.475.094-.483.242-.01.149.194.282.452.297.259.015.475-.094.484-.242ZM116.426 66.891c.008-.148-.194-.281-.453-.296-.258-.015-.475.093-.484.242-.008.148.194.281.453.296.258.015.475-.093.484-.242ZM88.243 50.619c.008-.149-.194-.282-.453-.297-.259-.015-.475.094-.484.243-.008.148.194.281.453.296.258.015.475-.093.484-.242ZM30.773 83.799c.008-.15-.194-.282-.453-.297-.259-.015-.475.094-.484.242-.008.149.194.282.453.297.258.015.475-.094.484-.242ZM82.388 26.905c.008-.149-.194-.282-.453-.297-.258-.015-.475.094-.484.242-.008.149.194.282.453.297.259.015.475-.094.484-.242ZM105.852 40.453c.009-.15-.194-.282-.452-.297-.259-.015-.476.093-.484.242-.009.149.194.281.452.296.259.016.476-.093.484-.242Z" opacity=".4"/>
      <path fill="#195AFE" d="M33.936 54.879c.008-.149-.194-.282-.453-.297-.258-.015-.475.094-.484.242-.008.15.194.282.453.297.258.015.475-.093.484-.242ZM85.582 84.698c.009-.149-.194-.281-.452-.296-.259-.015-.475.093-.484.242-.009.148.194.281.453.296.258.015.475-.093.483-.242Z"/>
      <path fill="#195AFE" d="M57.4 68.426c.008-.149-.195-.282-.453-.297-.259-.015-.476.094-.484.242-.009.149.194.282.453.297.258.015.475-.094.483-.242ZM104.408 14.191c.008-.148-.194-.28-.453-.296-.258-.015-.475.093-.484.242-.008.149.194.281.453.297.259.015.475-.094.484-.242ZM127.873 27.738c.008-.148-.194-.28-.453-.296-.258-.015-.475.093-.484.242-.008.149.194.282.453.297.258.015.475-.094.484-.243ZM98.294 66.569c.008-.149-.194-.282-.453-.297-.258-.015-.475.094-.484.242-.008.15.194.282.453.297.259.015.475-.094.484-.242ZM70.11 50.296c.009-.148-.194-.281-.452-.296-.259-.015-.475.093-.484.242-.009.149.194.281.452.296.259.015.475-.093.484-.242ZM12.64 83.476c.01-.149-.193-.282-.452-.297-.258-.015-.475.094-.484.242-.008.149.194.282.453.297.258.015.475-.094.484-.242ZM121.757 80.117c.009-.15-.194-.282-.452-.297-.259-.015-.475.094-.484.242-.009.149.194.282.453.297.258.015.475-.094.483-.242ZM115.903 56.402c.009-.148-.194-.281-.453-.296-.258-.015-.475.093-.483.242-.009.149.194.282.452.297.259.014.475-.094.484-.243ZM58.434 89.582c.009-.15-.194-.282-.452-.297-.259-.015-.475.094-.484.242-.009.149.194.282.452.297.259.015.476-.094.484-.242ZM87.72 40.13c.008-.149-.194-.282-.453-.297-.258-.015-.475.094-.483.242-.01.15.193.282.452.297.259.015.475-.093.484-.242ZM30.25 73.309c.009-.149-.194-.281-.452-.297-.259-.015-.475.094-.484.242-.009.15.194.282.453.297.258.015.475-.093.483-.242ZM67.451 84.376c.009-.149-.194-.282-.452-.297-.259-.015-.475.094-.484.242-.009.149.194.282.453.297.258.015.475-.094.483-.242ZM39.268 68.103c.009-.149-.194-.281-.452-.296-.259-.015-.476.093-.484.242-.009.148.194.281.452.296.259.015.476-.093.484-.242ZM109.74 27.416c.009-.149-.194-.282-.452-.297-.259-.015-.475.094-.484.242-.009.15.194.282.453.297.258.015.475-.093.483-.242ZM131.76 14.703c.009-.15-.194-.282-.452-.297-.259-.015-.475.093-.484.242-.009.149.194.282.453.297.258.015.475-.094.483-.242ZM133.513 46.236c.008-.15-.194-.282-.453-.297-.259-.015-.475.093-.484.242-.008.149.194.282.453.297.258.015.475-.094.484-.242ZM105.329 29.963c.009-.149-.194-.282-.452-.297-.259-.015-.476.094-.484.242-.009.149.194.282.452.297.259.015.476-.094.484-.242Z" opacity=".4"/>
      <path fill="#195AFE" d="M85.06 74.21c.01-.15-.193-.282-.452-.297-.258-.015-.475.093-.484.242-.008.149.195.281.453.296.259.016.475-.093.484-.242Z"/>
      <path fill="#195AFE" d="M56.877 57.937c.008-.149-.194-.282-.453-.297-.258-.015-.475.094-.484.242-.008.15.194.282.453.297.258.015.475-.093.484-.242ZM108.525 87.757c.008-.15-.194-.282-.453-.297-.259-.015-.475.093-.484.242-.008.149.194.282.453.297.258.015.475-.094.484-.242ZM127.349 17.25c.009-.15-.194-.282-.452-.297-.259-.015-.475.093-.484.242-.009.149.194.282.452.297.259.015.476-.094.484-.242ZM65.412 47.554c.001-.145-.201-.264-.453-.266-.25-.003-.455.113-.456.258-.002.145.2.264.452.267.25.002.456-.114.457-.259ZM7.941 80.739c.002-.145-.2-.264-.452-.267-.251-.002-.456.114-.457.259-.001.145.201.264.452.266.251.002.456-.113.457-.258ZM117.062 77.372c.001-.145-.201-.264-.452-.266-.251-.003-.456.113-.457.258-.001.145.201.264.452.267.251.002.456-.114.457-.259ZM88.878 61.101c.002-.145-.2-.264-.452-.266-.251-.003-.456.113-.457.258-.001.145.201.264.452.267.251.002.456-.114.457-.259ZM31.408 94.286c.001-.145-.201-.264-.452-.266-.251-.003-.456.113-.457.258-.002.145.2.264.452.267.251.002.456-.114.457-.259ZM55.992 42.145c.009-.15-.194-.282-.453-.297-.258-.015-.475.093-.484.242-.008.149.194.282.453.297.259.015.475-.094.484-.242ZM107.638 71.964c.009-.149-.194-.281-.452-.297-.259-.015-.476.094-.484.242-.009.15.194.282.452.297.259.015.475-.093.484-.242ZM79.455 55.692c.01-.148-.194-.281-.452-.296-.259-.015-.475.093-.484.242-.009.149.194.281.453.296.258.015.475-.093.483-.242ZM21.986 88.872c.009-.149-.194-.281-.452-.296-.259-.015-.476.093-.484.242-.009.148.194.281.452.296.259.015.476-.093.484-.242ZM83.02 37.386c.002-.145-.2-.265-.451-.267-.251-.002-.456.114-.457.259-.002.145.2.264.452.266.251.003.456-.113.457-.258ZM25.551 70.57c.002-.145-.2-.264-.452-.266-.25-.002-.456.113-.457.258-.001.145.201.264.453.267.25.002.455-.114.456-.259ZM106.487 50.933c.002-.145-.201-.264-.452-.266-.251-.003-.455.113-.457.258-.001.145.201.264.453.267.251.002.455-.114.456-.259ZM49.017 84.118c.002-.145-.2-.264-.452-.267-.25-.002-.455.114-.457.259-.001.145.202.264.453.266.25.002.455-.113.456-.258Z" opacity=".4"/>
      <path fill="#195AFE" d="M34.533 65.399c.008-.14-.183-.266-.427-.28-.244-.014-.449.088-.457.228-.008.14.183.266.427.28.244.014.448-.088.457-.228ZM86.182 95.219c.008-.14-.183-.266-.427-.28-.244-.014-.449.088-.457.228-.008.14.183.266.427.28.244.014.449-.088.457-.228Z"/>
      <path fill="#195AFE" d="M58.035 78.91c0-.144-.202-.264-.453-.266-.25-.002-.455.114-.457.259 0 .144.202.264.453.266.25.002.455-.113.457-.258ZM105.042 24.67c.001-.144-.201-.264-.452-.266-.251-.002-.456.114-.457.259-.002.145.201.264.452.266.251.003.456-.113.457-.258ZM128.509 38.218c.001-.145-.201-.264-.453-.266-.251-.002-.455.113-.456.258-.002.145.201.264.452.267.251.002.455-.114.457-.259ZM127.063 11.956c.001-.145-.202-.265-.453-.267-.251-.002-.455.114-.457.258-.001.146.202.265.453.267.251.002.455-.113.457-.258ZM100.631 27.218c.001-.145-.202-.264-.453-.267-.25-.002-.455.114-.457.259-.001.145.201.264.453.267.251.002.455-.114.457-.259ZM124.097 40.765c.001-.145-.201-.265-.452-.267-.251-.002-.456.114-.457.259-.001.145.201.264.452.266.251.002.456-.113.457-.258Z" opacity=".4"/>
      <path fill="#195AFE" d="M52.178 55.195c.002-.145-.2-.264-.452-.266-.25-.003-.456.113-.457.258-.001.145.201.264.453.267.25.002.455-.114.456-.259ZM103.828 85.014c.002-.145-.201-.264-.452-.266-.251-.003-.455.113-.457.258-.001.145.202.264.453.266.251.003.455-.113.456-.258Z"/>
      <path fill="#195AFE" d="M75.645 68.743c.001-.145-.201-.264-.452-.267-.251-.002-.456.114-.457.259-.002.145.2.264.452.266.251.002.456-.113.457-.258ZM122.652 14.503c.002-.145-.201-.264-.452-.267-.251-.002-.456.114-.457.259-.001.145.201.264.452.267.251.002.456-.114.457-.259ZM73.6 31.977c.01-.148-.193-.281-.452-.296-.258-.015-.475.093-.483.242-.01.149.194.282.452.296.259.015.475-.093.484-.242ZM16.132 65.157c.009-.148-.194-.281-.452-.296-.259-.015-.476.093-.484.242-.009.149.194.281.452.296.259.016.476-.093.484-.242ZM125.248 61.798c.009-.149-.194-.282-.452-.297-.259-.015-.476.094-.484.242-.009.149.194.282.452.297.259.015.476-.094.484-.242ZM67.779 94.977c.009-.148-.194-.281-.453-.296-.258-.015-.475.093-.483.242-.01.149.194.281.452.296.259.016.475-.093.484-.242ZM97.065 45.525c.009-.148-.194-.281-.453-.296-.258-.015-.475.093-.483.242-.009.149.194.281.452.296.259.015.475-.093.484-.242ZM39.596 78.705c.009-.149-.194-.281-.453-.296-.258-.015-.475.093-.484.242-.008.148.194.281.453.296.259.015.475-.093.484-.242ZM25.15 59.95c.008-.148-.195-.28-.453-.296-.259-.015-.476.094-.484.242-.009.149.194.282.453.297.258.015.475-.094.483-.242ZM76.797 89.77c.008-.148-.194-.28-.453-.295-.258-.016-.475.093-.484.242-.008.148.194.281.453.296.258.015.475-.093.484-.242Z" opacity=".4"/>
      <path fill="#195AFE" d="M48.614 73.499c.008-.149-.194-.282-.453-.297-.258-.015-.475.094-.484.242-.008.15.194.282.453.297.258.015.475-.094.484-.242Z"/>
      <path fill="#195AFE" d="M95.621 19.264c.01-.148-.194-.281-.452-.296-.259-.015-.475.093-.484.242-.009.148.194.281.453.296.258.015.475-.093.483-.242ZM119.086 32.812c.008-.149-.194-.281-.453-.296-.259-.015-.475.093-.484.242-.008.148.194.281.453.296.258.015.475-.093.484-.242ZM117.641 6.551c.009-.149-.193-.281-.452-.296-.259-.015-.475.093-.484.242-.009.148.194.281.453.296.258.015.475-.093.483-.242Z" opacity=".4"/>
      <path fill="#195AFE" d="M91.21 21.811c.009-.149-.194-.281-.453-.296-.258-.015-.475.093-.484.242-.008.148.194.281.453.296.259.015.475-.093.484-.242ZM114.674 35.359c.009-.149-.194-.282-.452-.297-.259-.015-.476.094-.484.242-.009.15.194.282.452.297.259.015.476-.093.484-.242Z"/>
      <path fill="#195AFE" d="M42.759 49.784c.009-.148-.194-.281-.453-.296-.258-.015-.475.093-.483.242-.01.149.194.281.452.296.259.015.475-.093.484-.242ZM94.405 79.605c.009-.15-.194-.282-.452-.297-.259-.015-.476.093-.484.242-.009.149.194.282.452.297.259.015.475-.094.484-.242ZM66.223 63.332c.008-.149-.194-.281-.453-.296-.259-.015-.475.093-.484.242-.008.148.194.281.453.296.258.015.475-.093.484-.242ZM113.231 9.098c.009-.149-.194-.282-.452-.297-.259-.015-.476.094-.484.242-.009.15.194.282.452.297.259.015.475-.093.484-.242ZM46.955 42.02c.008-.148-.194-.28-.453-.296-.259-.015-.475.093-.484.242-.009.149.194.282.453.297.258.015.475-.094.484-.242ZM98.602 71.84c.009-.148-.194-.281-.453-.296-.258-.015-.475.093-.484.242-.008.148.194.281.453.296.259.015.475-.093.484-.242ZM70.418 55.567c.009-.148-.194-.281-.453-.296-.258-.015-.475.093-.483.242-.009.149.194.281.452.296.259.015.475-.093.484-.242ZM12.949 88.747c.008-.148-.194-.281-.453-.296-.258-.015-.475.093-.484.242-.008.149.194.281.453.296.259.015.475-.093.484-.242ZM122.066 85.388c.008-.149-.194-.282-.453-.297-.259-.015-.475.094-.484.243-.008.148.194.28.453.296.258.015.475-.093.484-.242ZM64.564 31.853c.009-.148-.194-.281-.452-.296-.259-.015-.476.093-.484.242-.009.149.194.282.452.297.259.015.475-.094.484-.243ZM7.094 65.033c.009-.148-.194-.281-.452-.296-.259-.015-.476.093-.484.242-.009.148.194.281.452.296.259.015.475-.093.484-.242ZM116.212 61.674c.008-.149-.194-.282-.453-.297-.259-.015-.475.094-.484.243-.008.148.194.281.453.296.258.015.475-.093.484-.242ZM58.742 94.853c.009-.149-.194-.282-.453-.297-.258-.015-.475.094-.483.242-.009.15.194.282.452.297.259.015.475-.094.484-.242ZM88.027 45.401c.009-.149-.194-.281-.452-.296-.259-.015-.475.093-.484.242-.009.148.194.281.452.296.259.015.476-.093.484-.242ZM30.559 78.58c.009-.148-.194-.281-.453-.296-.258-.015-.475.093-.483.242-.01.149.194.281.452.296.259.015.475-.093.484-.242ZM82.173 21.687c.009-.149-.194-.282-.453-.297-.258-.015-.475.094-.483.242-.009.15.194.282.452.297.259.015.475-.093.484-.242ZM133.82 51.507c.009-.148-.194-.281-.452-.296-.259-.015-.475.093-.484.242-.009.149.194.281.453.296.258.015.475-.093.483-.242ZM105.637 35.234c.009-.149-.194-.281-.452-.296-.259-.015-.475.093-.484.242-.009.148.194.281.453.296.258.015.475-.093.483-.242ZM33.721 49.66c.009-.148-.194-.281-.452-.296-.26-.015-.476.093-.484.242-.009.149.194.281.452.296.259.015.475-.093.484-.242ZM85.368 79.481c.009-.149-.194-.281-.452-.296-.259-.016-.475.093-.484.242-.009.148.194.281.453.296.258.015.475-.093.483-.242ZM57.185 63.207c.009-.148-.194-.281-.452-.296-.259-.015-.476.093-.484.242-.009.149.194.281.452.296.259.015.475-.093.484-.242ZM108.832 93.028c.009-.149-.194-.282-.452-.297-.259-.014-.475.094-.484.243-.009.148.194.281.453.296.258.015.475-.093.483-.242ZM104.193 8.973c.009-.149-.194-.281-.453-.297-.258-.015-.475.094-.483.243-.009.148.194.281.452.296.259.015.475-.093.484-.242ZM127.657 22.521c.009-.149-.194-.281-.452-.296-.259-.016-.475.093-.484.242-.009.148.194.281.453.296.258.015.475-.093.483-.242ZM89.163 66.391c.01-.149-.194-.281-.452-.296-.259-.015-.475.093-.484.242-.009.148.194.281.453.296.258.015.475-.093.483-.242ZM56.299 47.416c.008-.15-.194-.282-.453-.297-.258-.015-.475.093-.484.242-.008.149.194.282.453.297.259.015.475-.094.484-.242ZM107.947 77.236c.008-.149-.194-.281-.453-.297-.258-.014-.475.094-.484.243-.008.148.194.281.453.296.258.015.475-.093.484-.242ZM79.764 60.964c.008-.149-.194-.282-.453-.297-.259-.015-.475.094-.484.242-.008.15.194.282.453.297.258.015.475-.093.484-.242ZM22.294 94.144c.009-.15-.194-.282-.453-.297-.258-.015-.475.093-.483.242-.009.149.194.282.452.296.259.015.475-.093.484-.242ZM106.773 56.224c.009-.149-.194-.281-.452-.296-.259-.015-.476.093-.484.242-.009.148.194.281.452.296.259.015.475-.093.484-.242ZM49.304 89.404c.008-.149-.194-.282-.453-.297-.258-.015-.475.094-.484.242-.008.15.194.282.453.297.258.015.475-.094.484-.242ZM124.382 46.058c.009-.15-.194-.282-.453-.297-.258-.015-.475.093-.483.242-.009.149.194.282.452.297.259.015.475-.094.484-.242ZM75.93 74.03c.008-.148-.194-.28-.453-.296-.258-.015-.475.094-.484.242-.008.15.194.282.453.297.258.015.475-.093.484-.242ZM73.908 37.248c.009-.148-.194-.28-.452-.296-.259-.015-.475.093-.484.242-.009.149.194.282.453.297.258.015.475-.094.483-.242ZM16.44 70.428c.008-.148-.194-.281-.453-.296-.258-.015-.475.093-.484.242-.008.149.194.282.453.297.258.014.475-.094.484-.243ZM125.556 67.069c.008-.149-.194-.281-.453-.296-.259-.016-.475.093-.484.242-.008.148.194.281.453.296.258.015.475-.093.484-.242ZM97.373 50.797c.008-.15-.194-.282-.453-.297-.258-.015-.475.093-.484.242-.008.149.194.282.453.297.259.015.475-.094.484-.242ZM39.904 83.977c.008-.15-.194-.282-.453-.297-.258-.015-.475.093-.484.242-.008.149.194.282.453.297.258.015.475-.094.484-.242ZM91.518 27.082c.009-.148-.194-.281-.453-.296-.258-.015-.475.093-.483.242-.01.149.194.281.452.297.259.015.475-.094.484-.243ZM114.982 40.63c.009-.148-.194-.281-.452-.296-.259-.015-.476.093-.484.242-.009.149.194.281.452.296.259.015.475-.093.484-.242Z" opacity=".4"/>
      <path fill="#195AFE" d="M43.066 55.056c.009-.15-.194-.282-.452-.297-.259-.015-.475.093-.484.242-.009.149.194.282.452.297.259.015.476-.094.484-.242ZM94.714 84.876c.008-.149-.194-.282-.453-.297-.258-.014-.475.094-.484.243-.008.148.194.281.453.296.258.015.475-.093.484-.242Z"/>
      <path fill="#195AFE" d="M66.53 68.604c.009-.15-.194-.282-.452-.297-.259-.015-.475.093-.484.242-.009.149.194.282.453.297.258.015.475-.094.483-.242ZM113.538 14.37c.009-.15-.193-.282-.452-.297-.259-.015-.475.093-.484.242-.009.149.194.281.453.296.258.015.475-.093.483-.242ZM55.761 36.965c.015-.144-.177-.282-.428-.308-.252-.027-.469.067-.484.21-.015.144.177.282.429.309.251.026.468-.068.483-.212ZM107.413 66.786c.015-.143-.177-.28-.429-.308-.252-.026-.468.068-.483.211-.016.144.176.282.428.308.252.027.469-.067.484-.21ZM79.226 50.512c.015-.143-.177-.281-.428-.308-.252-.026-.469.068-.484.211-.015.144.177.281.428.308.252.027.469-.068.484-.21ZM21.753 83.695c.015-.144-.177-.281-.428-.308-.252-.027-.469.068-.484.21-.015.144.177.282.428.309.252.026.469-.068.484-.211ZM130.877 80.335c.016-.143-.176-.281-.428-.308-.252-.027-.468.068-.484.211-.015.143.177.281.429.308.252.027.468-.068.483-.211ZM73.371 26.796c.016-.143-.176-.28-.428-.308-.252-.026-.469.068-.484.212-.015.143.177.28.429.307.251.027.468-.067.483-.21ZM15.898 59.979c.015-.144-.177-.282-.429-.308-.252-.027-.468.068-.483.21-.015.144.176.282.428.309.252.026.469-.068.484-.211ZM125.023 56.619c.015-.143-.177-.281-.429-.308-.251-.027-.468.068-.483.211-.015.144.176.281.428.308.252.027.469-.068.484-.211ZM67.55 89.801c.014-.143-.177-.28-.43-.308-.251-.026-.468.068-.483.212-.015.143.177.28.429.307.251.027.468-.067.483-.21Z" opacity=".4"/>
      <path fill="#195AFE" d="M96.837 40.345c.016-.143-.176-.28-.428-.308-.252-.026-.469.068-.484.211-.015.144.177.282.429.308.252.027.468-.067.483-.21ZM39.363 73.528c.015-.144-.176-.282-.428-.308-.252-.027-.469.067-.484.21-.015.144.177.282.429.309.252.026.468-.068.483-.211ZM24.916 54.773c.015-.144-.177-.282-.429-.308-.252-.027-.468.067-.483.21-.016.144.176.282.428.309.252.026.469-.068.484-.212ZM76.567 84.595c.015-.143-.177-.28-.428-.308-.252-.026-.469.068-.484.211-.015.144.177.282.428.308.252.027.469-.067.484-.21Z"/>
      <path fill="#195AFE" d="M48.382 68.32c.015-.143-.177-.28-.429-.307-.252-.027-.468.067-.484.21-.015.144.177.282.429.308.252.027.468-.067.483-.21ZM95.394 14.082c.015-.143-.177-.281-.429-.308-.252-.027-.468.068-.483.211-.016.144.176.281.428.308.252.027.469-.068.484-.21ZM118.86 27.631c.015-.143-.177-.281-.429-.308-.252-.027-.468.068-.484.211-.015.143.177.281.429.308.252.027.468-.068.484-.211ZM117.415 1.368c.016-.143-.176-.281-.428-.308-.252-.027-.468.068-.484.211-.015.144.177.281.429.308.252.027.468-.068.483-.21ZM97.974 61.337c.015-.144-.177-.282-.429-.308-.252-.027-.468.067-.484.21-.015.144.177.282.429.309.252.026.468-.068.484-.211ZM40.5 94.52c.015-.144-.177-.282-.429-.309-.252-.026-.468.068-.484.211-.015.144.177.281.429.308.252.027.468-.068.483-.21ZM65.106 42.36c.015-.143-.177-.281-.429-.308-.252-.027-.468.068-.483.211-.015.143.176.281.428.308.252.027.469-.068.484-.211ZM7.633 75.542c.015-.143-.177-.281-.429-.308-.251-.026-.468.068-.483.211-.015.144.177.282.428.308.252.027.469-.067.484-.21ZM116.757 72.183c.016-.144-.176-.282-.428-.308-.252-.027-.468.067-.484.21-.015.144.177.282.429.309.252.026.468-.068.483-.212ZM88.572 55.909c.016-.143-.176-.281-.428-.308-.252-.027-.468.068-.484.211-.015.143.177.281.429.308.252.027.468-.068.483-.211ZM31.099 89.091c.015-.143-.177-.28-.428-.308-.252-.026-.469.068-.484.211-.015.144.177.282.428.308.252.027.469-.067.484-.21ZM115.584 51.17c.015-.144-.177-.282-.429-.308-.252-.027-.468.067-.483.21-.016.144.176.282.428.308.252.027.468-.067.484-.21ZM58.11 84.352c.016-.144-.176-.281-.428-.308-.252-.027-.469.068-.484.21-.015.144.177.282.429.309.252.026.468-.068.483-.211ZM67.128 79.145c.015-.143-.177-.281-.428-.308-.252-.027-.469.068-.484.211-.015.143.177.281.428.308.252.027.469-.068.484-.211ZM82.717 32.193c.015-.143-.176-.281-.428-.308-.252-.027-.469.068-.484.211-.015.144.177.281.429.308.252.027.468-.068.483-.211ZM25.244 65.375c.015-.143-.177-.28-.429-.308-.252-.026-.468.068-.483.212-.015.143.176.28.428.307.252.027.469-.067.484-.21ZM76.894 95.198c.015-.144-.177-.281-.428-.308-.252-.027-.469.067-.484.21-.015.144.177.282.428.309.252.026.469-.068.484-.211ZM106.183 45.742c.015-.143-.176-.281-.428-.308-.252-.027-.469.068-.484.211-.015.143.177.281.429.308.252.027.468-.068.483-.211ZM48.71 78.924c.014-.143-.178-.281-.43-.308-.251-.027-.468.068-.483.211-.015.143.177.281.428.308.252.027.469-.068.484-.211Z" opacity=".4"/>
      <path fill="#195AFE" d="M34.26 60.168c.016-.143-.176-.28-.428-.308-.251-.026-.468.068-.483.211-.015.144.177.282.428.308.252.027.469-.067.484-.21ZM85.912 89.99c.016-.143-.176-.28-.428-.307-.252-.027-.468.067-.483.21-.016.144.176.282.428.309.252.026.468-.068.483-.211Z"/>
      <path fill="#195AFE" d="M57.727 73.717c.016-.143-.176-.28-.428-.308-.252-.026-.468.068-.484.212-.015.143.177.28.429.307.252.027.468-.067.483-.21ZM104.739 19.479c.015-.143-.177-.281-.429-.308-.251-.027-.468.068-.483.211-.015.143.176.281.428.308.252.027.469-.068.484-.211ZM128.205 33.027c.016-.143-.176-.281-.428-.308-.252-.027-.468.068-.484.211-.015.143.177.281.429.308.252.027.468-.068.483-.211ZM126.761 6.764c.016-.144-.176-.281-.428-.308-.252-.027-.468.068-.484.21-.015.144.177.282.429.309.252.026.468-.068.483-.211Z" opacity=".4"/>
      <path fill="#195AFE" d="M93.882 69.116c.01-.149-.194-.282-.452-.297-.259-.015-.475.093-.484.242-.009.149.194.282.453.297.258.015.475-.094.483-.242ZM65.7 52.843c.008-.149-.195-.282-.454-.297-.258-.015-.475.094-.483.242-.009.15.194.282.452.297.259.015.475-.093.484-.242ZM8.23 86.023c.008-.149-.195-.282-.453-.297-.259-.015-.475.094-.484.242-.009.149.194.282.453.297.258.015.475-.094.483-.242ZM117.347 82.663c.008-.148-.194-.281-.453-.296-.259-.015-.475.093-.484.242-.008.149.194.282.453.297.258.014.475-.094.484-.243ZM111.492 58.949c.008-.15-.194-.282-.453-.297-.258-.015-.475.093-.484.242-.008.149.194.282.453.297.259.015.475-.094.484-.242ZM54.023 92.129c.009-.15-.194-.282-.453-.297-.258-.015-.475.093-.483.242-.009.149.194.282.452.297.259.014.475-.094.484-.242ZM83.309 42.676c.008-.149-.194-.281-.453-.296-.258-.015-.475.093-.484.242-.008.148.194.281.453.296.258.015.475-.093.484-.242ZM25.839 75.856c.008-.149-.194-.282-.453-.297-.258-.015-.475.094-.484.242-.008.149.194.282.453.297.258.015.475-.094.484-.242Z"/>
      <path fill="#195AFE" d="M129.101 48.782c.009-.149-.194-.281-.452-.296-.259-.015-.475.093-.484.242-.009.148.194.281.453.296.258.015.475-.093.483-.242ZM100.918 32.51c.008-.15-.194-.282-.453-.297-.258-.015-.475.093-.484.242-.008.149.194.282.453.297.259.015.475-.094.484-.242ZM80.65 76.755c.009-.148-.194-.28-.453-.296-.258-.015-.475.093-.483.242-.009.149.194.282.452.297.259.015.475-.094.484-.243ZM52.466 60.483c.008-.149-.194-.282-.453-.297-.258-.015-.475.094-.484.242-.008.15.194.282.453.297.258.015.475-.093.484-.242ZM104.113 90.303c.009-.148-.194-.281-.453-.296-.258-.015-.475.093-.483.242-.009.149.194.282.452.297.259.014.475-.094.484-.243ZM122.938 19.796c.008-.148-.194-.281-.453-.296-.258-.015-.475.093-.484.242-.008.149.194.281.453.296.258.015.475-.093.484-.242ZM61 50.101c.001-.145-.201-.264-.452-.266-.251-.002-.456.113-.457.258-.001.145.201.265.452.267.251.002.456-.114.457-.259ZM3.53 83.286c.001-.145-.201-.264-.453-.267-.25-.002-.455.114-.456.259-.002.145.2.264.452.266.25.002.455-.113.457-.258ZM112.651 79.92c.002-.145-.201-.265-.452-.267-.251-.002-.456.113-.457.258-.001.145.201.265.452.267.251.002.456-.114.457-.258ZM84.467 63.648c.001-.145-.201-.264-.452-.266-.251-.003-.456.113-.457.258-.002.145.2.264.452.267.251.002.456-.114.457-.259ZM51.58 44.691c.01-.148-.194-.281-.452-.296-.259-.015-.475.093-.484.242-.009.149.194.281.453.296.258.015.475-.093.483-.242ZM103.228 74.51c.008-.148-.194-.28-.453-.296-.258-.015-.475.094-.484.243-.008.148.194.28.453.296.258.015.475-.093.484-.242ZM75.044 58.24c.01-.15-.193-.282-.452-.297-.259-.015-.475.093-.484.242-.008.148.194.281.453.296.258.015.475-.093.483-.242ZM17.575 91.419c.008-.149-.194-.281-.453-.296-.259-.016-.475.093-.484.242-.008.148.194.281.453.296.258.015.475-.093.484-.242ZM78.61 39.933c.001-.145-.201-.264-.453-.267-.25-.002-.455.114-.456.259-.002.145.2.264.452.267.25.002.456-.114.457-.259ZM21.14 73.118c.001-.145-.201-.265-.452-.267-.252-.002-.456.114-.457.258-.002.145.2.265.452.267.25.002.456-.113.457-.258ZM130.261 69.751c.002-.145-.201-.264-.452-.266-.251-.003-.456.113-.457.258-.001.145.201.264.452.267.252.002.456-.114.457-.259ZM102.076 53.48c.002-.145-.201-.264-.452-.266-.251-.002-.456.113-.457.258-.001.145.201.265.452.267.251.002.456-.114.457-.259ZM44.606 86.664c.002-.145-.2-.264-.452-.266-.251-.002-.456.113-.457.258-.001.145.201.264.452.267.252.002.456-.114.457-.259ZM96.22 29.765c0-.145-.202-.264-.453-.266-.25-.003-.456.113-.457.258-.001.145.201.264.453.267.25.002.455-.114.456-.259ZM119.686 43.313c.001-.145-.201-.265-.452-.267-.251-.002-.456.114-.457.258-.002.145.201.265.452.267.251.002.456-.113.457-.258Z" opacity=".4"/>
      <path fill="#195AFE" d="M47.767 57.743c.001-.145-.201-.265-.453-.267-.25-.002-.455.114-.456.258-.002.145.2.265.452.267.25.002.456-.113.457-.258ZM99.418 87.56c0-.144-.202-.264-.453-.266-.25-.002-.455.114-.457.258 0 .145.202.265.453.267.25.002.455-.113.457-.258Z"/>
      <path fill="#195AFE" d="M71.233 71.29c.002-.145-.2-.264-.452-.267-.251-.002-.456.114-.457.259-.001.145.201.264.452.267.251.002.456-.114.457-.259ZM118.241 17.05c.001-.146-.202-.265-.453-.267-.251-.003-.455.113-.457.258-.001.145.202.264.453.267.251.002.455-.114.457-.259Z" opacity=".4"/>
      <path fill="#195AFE" d="M69.19 34.524c.008-.148-.194-.281-.453-.296-.258-.015-.475.093-.484.242-.008.149.194.282.453.297.259.014.475-.094.484-.243ZM11.72 67.704c.01-.148-.193-.281-.452-.296-.259-.015-.475.093-.484.242-.008.148.194.281.453.296.258.015.475-.093.484-.242ZM120.837 64.345c.008-.15-.194-.282-.453-.297-.259-.015-.475.093-.484.242-.008.149.194.282.453.297.258.015.475-.094.484-.242Z"/>
      <path fill="#195AFE" d="M86.8 24.358c.008-.149-.194-.282-.453-.297-.259-.015-.475.094-.484.242-.009.15.194.282.453.297.258.015.475-.093.483-.242ZM110.263 37.906c.008-.149-.194-.282-.453-.297-.259-.015-.475.094-.484.242-.008.15.194.282.453.297.258.015.475-.094.484-.242ZM38.347 52.331c.009-.148-.194-.281-.452-.296-.259-.015-.476.093-.484.242-.009.149.194.281.453.296.258.015.475-.093.483-.242ZM89.994 82.151c.009-.148-.194-.281-.453-.296-.258-.015-.475.093-.483.242-.009.149.194.281.452.296.259.015.475-.093.484-.242ZM108.819 11.645c.009-.149-.194-.282-.452-.297-.259-.015-.475.094-.484.242-.009.15.194.282.453.297.258.015.475-.094.483-.242ZM132.283 25.192c.009-.149-.194-.282-.452-.297-.259-.015-.476.094-.484.242-.009.149.194.282.452.297.259.015.475-.094.484-.242ZM102.693 64.061c.015-.143-.177-.28-.429-.308-.252-.026-.468.068-.484.211-.015.144.177.282.429.308.252.027.468-.068.484-.21ZM74.507 47.788c.015-.144-.177-.282-.428-.308-.252-.027-.469.067-.484.21-.015.144.177.282.428.309.252.026.469-.068.484-.211ZM17.033 80.97c.015-.143-.177-.281-.429-.308-.252-.027-.468.068-.483.211-.015.143.176.281.428.308.252.027.469-.068.484-.211ZM126.159 77.61c.015-.143-.177-.28-.429-.308-.252-.026-.468.068-.483.211-.016.144.176.282.428.308.252.027.468-.067.484-.21ZM120.304 53.894c.015-.143-.177-.28-.429-.308-.251-.026-.468.068-.483.211-.015.144.176.282.428.308.252.027.469-.067.484-.21ZM62.83 87.076c.014-.143-.177-.28-.43-.307-.251-.027-.468.067-.483.21-.015.144.177.282.429.309.252.026.468-.068.483-.212ZM92.118 37.62c.015-.143-.177-.28-.429-.308-.251-.026-.468.068-.483.211-.015.144.176.282.428.308.252.027.469-.067.484-.21ZM34.644 70.803c.015-.144-.177-.281-.429-.308-.252-.027-.468.068-.483.21-.016.144.176.282.428.309.252.026.469-.068.484-.211ZM71.848 81.87c.015-.144-.177-.282-.429-.308-.252-.027-.468.067-.483.21-.016.144.176.282.428.309.252.026.468-.068.484-.211Z" opacity=".4"/>
      <path fill="#195AFE" d="M43.662 65.596c.015-.143-.177-.281-.428-.308-.252-.027-.469.068-.484.211-.015.143.177.281.428.308.252.027.469-.068.484-.211ZM95.313 95.418c.015-.143-.177-.28-.429-.307-.251-.027-.468.067-.483.21-.015.144.177.282.428.308.252.027.469-.067.484-.21Z"/>
      <path fill="#195AFE" d="M114.14 24.906c.015-.143-.177-.28-.429-.308-.252-.026-.468.068-.483.211-.016.144.176.281.428.308.252.027.468-.068.484-.21ZM69.778 45.045c.008-.14-.183-.266-.427-.28-.244-.014-.449.088-.457.228-.008.14.183.266.427.28.244.014.449-.088.457-.228ZM12.308 78.225c.008-.14-.183-.266-.427-.28-.244-.014-.448.088-.456.228-.009.14.183.266.427.28.244.014.448-.088.456-.228ZM121.425 74.864c.008-.14-.183-.265-.427-.28-.244-.014-.448.088-.457.229-.008.14.183.265.427.28.244.014.449-.089.457-.229ZM93.242 58.592c.008-.14-.183-.266-.427-.28-.244-.014-.449.088-.457.229-.008.14.183.265.427.28.244.014.449-.089.457-.23ZM35.773 91.772c.008-.14-.183-.266-.427-.28-.244-.014-.448.088-.456.229-.009.14.183.265.427.28.244.014.448-.089.456-.23Z" opacity=".4"/>
      <path fill="#195AFE" d="M60.387 39.635c.015-.143-.177-.28-.429-.307-.252-.027-.468.067-.483.21-.015.144.176.282.428.308.252.027.469-.067.484-.21ZM2.914 72.818c.015-.144-.177-.281-.429-.308-.251-.027-.468.068-.483.21-.015.144.177.282.428.309.252.027.469-.068.484-.211ZM112.038 69.458c.016-.144-.176-.281-.428-.308-.252-.027-.468.067-.484.21-.015.144.177.282.429.309.252.026.468-.068.483-.211ZM83.853 53.184c.015-.143-.177-.281-.429-.308-.251-.026-.468.068-.483.211-.015.144.177.281.428.308.252.027.469-.068.484-.21ZM26.379 86.367c.015-.144-.177-.282-.429-.308-.252-.027-.468.067-.483.21-.015.144.176.282.428.309.252.026.469-.068.484-.211Z"/>
      <path fill="#195AFE" d="M87.387 34.878c.008-.14-.183-.266-.427-.28-.244-.014-.448.088-.456.228-.009.14.183.266.427.28.244.014.448-.088.456-.228ZM29.918 68.057c.008-.14-.184-.265-.428-.28-.244-.014-.448.089-.456.229-.008.14.183.266.427.28.244.014.448-.088.457-.229ZM110.852 48.426c.008-.14-.183-.266-.427-.28-.244-.014-.448.088-.457.228-.008.14.183.266.427.28.244.014.449-.088.457-.228ZM53.382 81.606c.008-.14-.183-.266-.427-.28-.244-.014-.449.088-.457.228-.008.14.183.266.427.28.244.014.448-.088.457-.228Z" opacity=".4"/>
      <path fill="#195AFE" d="M38.935 62.852c.008-.14-.183-.266-.427-.28-.244-.014-.449.088-.457.228-.008.14.183.266.427.28.244.014.449-.088.457-.228ZM90.581 92.671c.008-.14-.183-.266-.427-.28-.244-.014-.448.088-.456.229-.008.14.183.265.427.28.244.014.448-.089.456-.229Z"/>
      <path fill="#195AFE" d="M62.4 76.4c.008-.14-.184-.266-.428-.28-.244-.014-.448.088-.456.228-.008.14.183.266.427.28.244.014.448-.088.456-.228ZM109.408 22.165c.008-.14-.183-.266-.427-.28-.244-.014-.449.088-.457.228-.008.14.183.266.427.28.244.014.449-.088.457-.229ZM132.872 35.713c.008-.14-.183-.266-.427-.28-.244-.014-.448.088-.457.228-.008.14.183.266.427.28.244.014.449-.088.457-.228ZM131.428 9.451c.008-.14-.183-.265-.427-.28-.244-.014-.449.089-.457.229-.008.14.183.266.427.28.244.014.449-.088.457-.229ZM77.998 29.468c.015-.143-.176-.28-.428-.308-.252-.026-.469.068-.484.211-.015.144.177.282.429.308.251.027.468-.067.483-.21ZM20.524 62.65c.015-.143-.177-.28-.428-.307-.252-.027-.469.067-.484.21-.015.144.177.282.429.309.251.026.468-.068.483-.212ZM129.649 59.29c.015-.143-.177-.281-.429-.308-.252-.027-.468.068-.483.211-.016.143.176.281.428.308.252.027.468-.068.484-.211ZM72.175 92.472c.015-.143-.176-.281-.428-.308-.252-.026-.469.068-.484.211-.015.144.177.281.429.308.252.027.468-.068.483-.21ZM101.464 43.016c.015-.143-.177-.28-.429-.308-.252-.026-.468.068-.483.211-.015.144.176.282.428.308.252.027.469-.067.484-.21ZM43.99 76.199c.015-.144-.176-.282-.428-.308-.252-.027-.469.067-.484.21-.015.144.177.282.429.309.251.026.468-.068.483-.211ZM29.542 57.444c.015-.144-.177-.282-.429-.308-.251-.027-.468.067-.483.21-.015.144.177.282.428.309.252.026.469-.068.484-.212ZM81.193 87.266c.015-.143-.177-.281-.428-.308-.252-.027-.469.068-.484.211-.015.143.177.281.428.308.252.027.469-.068.484-.211Z" opacity=".4"/>
      <path fill="#195AFE" d="M53.008 70.993c.015-.144-.177-.282-.429-.308-.252-.027-.468.067-.484.21-.015.144.177.282.429.309.252.026.468-.068.483-.211Z"/>
      <path fill="#195AFE" d="M100.021 16.753c.015-.143-.177-.28-.429-.308-.252-.026-.468.068-.483.211-.016.144.176.282.428.308.252.027.468-.067.484-.21ZM123.485 30.302c.016-.143-.176-.281-.428-.308-.252-.027-.468.068-.484.211-.015.144.177.281.429.308.252.027.468-.068.483-.211ZM122.042 4.039c.016-.143-.176-.281-.428-.308-.252-.027-.468.068-.484.211-.015.143.177.281.429.308.252.027.468-.068.483-.211Z" opacity=".4"/>
      <path fill="#195AFE" d="M92.654 48.072c.009-.149-.194-.281-.452-.296-.259-.015-.476.093-.484.242-.009.148.194.281.452.296.259.015.476-.093.484-.242ZM35.184 81.252c.009-.149-.194-.281-.452-.296-.259-.016-.475.093-.484.242-.009.148.194.281.452.296.259.015.476-.093.484-.242ZM61.81 65.879c.01-.149-.193-.281-.452-.296-.258-.016-.475.093-.483.242-.01.148.194.281.452.296.259.015.475-.093.484-.242Z"/>
      <path fill="url(#b)" d="m83.284 65.648 14.834 8.685c.355.208.642.764.642 1.243v11.607c0 .479-.287.699-.642.492L83.284 78.99c-.355-.208-.642-.764-.642-1.243V66.14c0-.48.287-.7.642-.492Z"/>
      <path fill="url(#c)" d="m89.69 62.237 14.834 8.685c.354.208.642.764.642 1.243v11.607c0 .479-.288.698-.642.492L89.69 75.578c-.355-.207-.642-.764-.642-1.243V62.73c0-.48.287-.7.642-.492Z" opacity=".5"/>
      <path fill="url(#d)" d="m95.96 58.523 14.834 8.685c.354.208.642.764.642 1.243v11.607c0 .479-.288.698-.642.492L95.96 71.864c-.355-.208-.642-.763-.642-1.243V59.015c0-.48.287-.7.642-.492Z" opacity=".3"/>
      <path fill="url(#e)" d="M102.609 49.545c-.722.422-1.889.424-2.605.005-.717-.42-.712-1.1.009-1.521l22.013-12.879c.722-.422 1.889-.424 2.605-.005.717.42.712 1.102-.009 1.524l-22.013 12.876Z" opacity=".4"/>
      <path fill="url(#f)" d="M35.783 37.51c.708.409 1.852.411 2.556.005.703-.405.698-1.063-.01-1.471L16.731 23.58c-.708-.408-1.852-.41-2.555-.004-.704.405-.699 1.066.01 1.474l21.597 12.46Z" opacity=".4"/>
      <path fill="url(#g)" d="M60.936 75.867c.721-.408 1.888-.41 2.605-.005.717.406.712 1.064-.01 1.472L41.518 89.798c-.722.408-1.888.41-2.605.004-.717-.405-.712-1.066.01-1.474l22.013-12.46Z" opacity=".4"/>
      <g filter="url(#h)">
        <path fill="url(#i)" d="M88.037 15.855s-3.76-2.184-5.033-2.874c-3.298-1.79-7.85-1.346-12.82 1.527-10.27 5.94-18.595 20.32-18.595 32.117 0 5.835 2.037 9.947 5.338 11.892l4.511 2.583s5.746-2.133 8.746-3.87c10.27-5.939 18.595-20.319 18.595-32.116.002-3.867-.742-9.259-.742-9.259Z"/>
        <path fill="url(#j)" d="M87.763 46.116c7.312-12.514 7.394-26.086.182-30.315-7.211-4.23-18.985 2.486-26.297 15-7.312 12.512-7.393 26.085-.182 30.314 7.211 4.23 18.985-2.486 26.297-15Z"/>
        <path fill="url(#k)" d="M90.609 29.262c0 10.088-7.12 22.385-15.903 27.465-8.783 5.08-15.903 1.02-15.903-9.07 0-10.088 7.12-22.385 15.903-27.465 8.784-5.08 15.903-1.02 15.903 9.07Z"/>
        <path fill="url(#l)" d="M40.288 61.867s12.346-7.184 14.96-8.688c.271-.155.443-.486.443-.963 0-.948-.67-2.104-1.495-2.581-.426-.247-.805-.254-1.082-.092-2.712 1.596-13.418 7.674-13.418 7.674"/>
        <path fill="url(#m)" d="M42.85 60.302c0-1.309-.924-2.904-2.064-3.564-.53-.307-1.014-.358-1.38-.19-5.186 2.4-20.697 9.713-20.697 9.713l5.013 8.356s13.799-9.862 18.512-12.983c.394-.26.616-.67.616-1.332Z"/>
        <path fill="url(#n)" d="M23.592 74.703c1.34-.786 1.325-3.308-.034-5.634-1.358-2.325-3.546-3.573-4.886-2.787-1.34.786-1.325 3.308.033 5.633 1.36 2.326 3.547 3.574 4.887 2.788Z"/>
        <path fill="url(#o)" d="m77.02 19.047-17.802 32.53c.207.898.486 1.721.833 2.464l19.595-35.806c-.846.172-1.724.441-2.626.812Z" opacity=".5"/>
        <path fill="url(#p)" d="M85.48 18.793 63.95 58.135c1.76.84 3.884 1.017 6.235.457l19.34-35.342c-.887-2.099-2.282-3.61-4.045-4.457Z" opacity=".5"/>
        <path fill="url(#q)" d="M85.339 18.727c2.446 1.798 3.93 5.145 3.93 9.75 0 10.088-7.12 22.385-15.903 27.465-4.089 2.364-7.815 2.748-10.633 1.464 2.916 2.142 7.198 2.083 11.973-.68 8.782-5.08 15.903-17.376 15.903-27.465 0-5.392-2.035-9.061-5.27-10.534Z"/>
      </g>
    </g>
  </g>
  <defs>
    <linearGradient id="b" x1="82.83" x2="100.413" y1="66.588" y2="89.155" gradientUnits="userSpaceOnUse">
      <stop stop-color="#195AFE"/>
      <stop offset="1" stop-color="#fff" stop-opacity="0"/>
    </linearGradient>
    <linearGradient id="c" x1="89.236" x2="106.818" y1="63.176" y2="85.744" gradientUnits="userSpaceOnUse">
      <stop stop-color="#195AFE"/>
      <stop offset="1" stop-color="#fff" stop-opacity="0"/>
    </linearGradient>
    <linearGradient id="d" x1="95.505" x2="113.089" y1="58.378" y2="80.946" gradientUnits="userSpaceOnUse">
      <stop stop-color="#195AFE"/>
      <stop offset="1" stop-color="#fff" stop-opacity="0"/>
    </linearGradient>
    <linearGradient id="e" x1="99.256" x2="111.816" y1="49.984" y2="28.517" gradientUnits="userSpaceOnUse">
      <stop stop-color="#195AFE"/>
      <stop offset="1" stop-color="#fff" stop-opacity="0"/>
    </linearGradient>
    <linearGradient id="f" x1="39.072" x2="27" y1="37.936" y2="17.016" gradientUnits="userSpaceOnUse">
      <stop stop-color="#195AFE"/>
      <stop offset="1" stop-color="#fff" stop-opacity="0"/>
    </linearGradient>
    <linearGradient id="g" x1="64.289" x2="52.332" y1="75.442" y2="96.559" gradientUnits="userSpaceOnUse">
      <stop stop-color="#195AFE"/>
      <stop offset="1" stop-color="#fff" stop-opacity="0"/>
    </linearGradient>
    <linearGradient id="i" x1="63.208" x2="65.252" y1="61.1" y2="6.23" gradientUnits="userSpaceOnUse">
      <stop stop-color="#195AFE"/>
      <stop offset="1" stop-color="#fff"/>
    </linearGradient>
    <linearGradient id="j" x1="61.648" x2="97.143" y1="30.8" y2="50.376" gradientUnits="userSpaceOnUse">
      <stop stop-color="#195AFE"/>
      <stop offset="1" stop-color="#fff"/>
    </linearGradient>
    <linearGradient id="k" x1="82.539" x2="63.994" y1="50.637" y2="21.911" gradientUnits="userSpaceOnUse">
      <stop stop-color="#fff"/>
      <stop offset="1" stop-color="#195AFE"/>
    </linearGradient>
    <linearGradient id="l" x1="51.244" x2="47.693" y1="57.587" y2="51.434" gradientUnits="userSpaceOnUse">
      <stop stop-color="#195AFE"/>
      <stop offset="1" stop-color="#fff"/>
    </linearGradient>
    <linearGradient id="m" x1="30.779" x2="30.779" y1="56.454" y2="74.617" gradientUnits="userSpaceOnUse">
      <stop stop-color="#195AFE"/>
      <stop offset="1" stop-color="#fff"/>
    </linearGradient>
    <linearGradient id="n" x1="18.672" x2="23.605" y1="66.282" y2="74.695" gradientUnits="userSpaceOnUse">
      <stop stop-color="#195AFE"/>
      <stop offset="1" stop-color="#fff"/>
    </linearGradient>
    <linearGradient id="o" x1="69.432" x2="69.432" y1="18.235" y2="43.674" gradientUnits="userSpaceOnUse">
      <stop stop-color="#fff"/>
      <stop offset="1" stop-color="#fff" stop-opacity="0"/>
    </linearGradient>
    <linearGradient id="p" x1="89.526" x2="81.461" y1="5.381" y2="46.919" gradientUnits="userSpaceOnUse">
      <stop offset=".642" stop-color="#fff"/>
      <stop offset="1" stop-color="#fff" stop-opacity="0"/>
    </linearGradient>
    <linearGradient id="q" x1="90.609" x2="44.543" y1="35.36" y2="58.916" gradientUnits="userSpaceOnUse">
      <stop stop-color="#195AFE"/>
      <stop offset="1" stop-color="#fff"/>
    </linearGradient>
    <filter id="h" width="139.625" height="127.021" x="-14.324" y="-4.083" color-interpolation-filters="sRGB" filterUnits="userSpaceOnUse">
      <feFlood flood-opacity="0" result="BackgroundImageFix"/>
      <feColorMatrix in="SourceAlpha" result="hardAlpha" values="0 0 0 0 0 0 0 0 0 0 0 0 0 0 0 0 0 0 127 0"/>
      <feOffset dy="16"/>
      <feGaussianBlur stdDeviation="16"/>
      <feColorMatrix values="0 0 0 0 0.0352941 0 0 0 0 0.145098 0 0 0 0 0.25098 0 0 0 0.08 0"/>
      <feBlend in2="BackgroundImageFix" result="effect1_dropShadow_1132_27260"/>
      <feColorMatrix in="SourceAlpha" result="hardAlpha" values="0 0 0 0 0 0 0 0 0 0 0 0 0 0 0 0 0 0 127 0"/>
      <feOffset dy="8"/>
      <feGaussianBlur stdDeviation="12"/>
      <feColorMatrix values="0 0 0 0 0.0352941 0 0 0 0 0.145098 0 0 0 0 0.25098 0 0 0 0.08 0"/>
      <feBlend in2="effect1_dropShadow_1132_27260" result="effect2_dropShadow_1132_27260"/>
      <feBlend in="SourceGraphic" in2="effect2_dropShadow_1132_27260" result="shape"/>
    </filter>
  </defs>
</svg>
