<svg xmlns="http://www.w3.org/2000/svg" width="400" height="231" fill="none" viewBox="0 0 400 231">
    <path fill="#4E8CF9" d="M0 0h400v231H0z"/>
    <path fill="#1EC794" fill-rule="evenodd" d="M82.833 196.401c2.788-2.773 3.972-4.708 4.088-4.639 2.6 3.072 4.283 3.687 4.005 3.981-1.712 1.807-1.897 2.364-4.016 4.705l-4.077-4.047z" clip-rule="evenodd"/>
    <path fill="#FF8100" fill-rule="evenodd" d="M114.833 91.401c2.788-2.773 3.972-4.708 4.088-4.639 2.599 3.072 4.283 3.687 4.005 3.98-1.712 1.808-1.896 2.365-4.016 4.706l-4.077-4.047z" clip-rule="evenodd"/>
    <path stroke="#B1D8FF" stroke-linecap="round" stroke-linejoin="round" stroke-width="1.98" d="M78 137.731c3.525 3.925 7.28 7.561 11 11.269M87.357 137c-2.391 3.973-5.826 6.937-8.643 10.464M301.969 180.517c-.282 5.268-.198 10.495-.191 15.747M309.102 186.616c-4.5 1.119-9.024.786-13.511 1.288"/>
    <path fill="#FF8100" fill-rule="evenodd" d="M319.308 37.432c-1.531-1.13-4.562-2.032-6.974-.935-7.157 3.256-4.987 13.675 3.113 13.5 2.918-.062 5.859-3.264 6.463-6.02.484-2.21-1.072-5.415-2.602-6.545z" clip-rule="evenodd"/>
    <path fill="#FFC100" fill-rule="evenodd" d="M62.965 66.197c-2.038-.496-3.964-.072-5.38 1.455-4.203 4.53.642 11.374 6.498 8.777 2.11-.936 3.252-4.14 2.83-6.31-.338-1.74-2.065-3.929-3.946-3.866M309.433 135.126c-1.297-.316-2.523-.046-3.425.925-2.674 2.883.41 7.238 4.136 5.585 1.342-.595 2.069-2.634 1.801-4.015-.216-1.107-1.314-2.5-2.511-2.46" clip-rule="evenodd"/>
    <path fill="#1B2653" fill-rule="evenodd" d="M351 113.679c1.543-2.235 8.74-8.762 8.825-8.678.474.469 8.046 7.77 9.175 8.999l-18-.321z" clip-rule="evenodd"/>
    <path fill="#fff" fill-rule="evenodd" d="M341 151.901c3.953 3.618 5.581 6.2 5.759 6.096 4.056-4.441 6.594-5.42 6.201-5.803-2.421-2.367-2.658-3.122-5.648-6.194L341 151.901z" clip-rule="evenodd"/>
    <path fill="#3063BB" fill-rule="evenodd" d="M169 32.9c3.953 3.619 5.581 6.201 5.759 6.097 4.056-4.44 6.594-5.42 6.201-5.803-2.421-2.367-2.658-3.122-5.648-6.194L169 32.9z" clip-rule="evenodd"/>
    <path stroke="#B1D8FF" stroke-linecap="round" stroke-linejoin="round" stroke-width="1.98" d="M101.266 46.54c-.527 1.568-1.045 3.09-1.208 4.723-1.26 12.671 18.388 3.477 11.538-2.429-3.679-3.17-6.167 6.713 3.085 9.04 4.911 1.234 10.376-6.925 5.098-9.58-3.75-1.886-3.753 6.923 1.476 8.5 12.49 3.769 14.741-13.108 8.317-10.523-4.77 1.918-.562 11.554 5.903 10.254 2.929-.59 9.642-8.943 4.427-10.255-2.301-.578-2.683 2.692-2.683 4.318 0 4.447 4.69 4.239 7.781 5.127"/>
    <path fill="#fff" fill-rule="evenodd" d="M224.833 41.401c2.788-2.773 3.972-4.708 4.088-4.639 2.599 3.072 4.283 3.687 4.005 3.98-1.712 1.808-1.896 2.365-4.016 4.706l-4.077-4.047z" clip-rule="evenodd"/>
    <path fill="#FFC100" fill-rule="evenodd" d="M147.467 185.993c-4.367 1.882-8.789-2.541-6.907-6.908l31.605-73.358 48.661 48.661-73.359 31.605z" clip-rule="evenodd"/>
    <path fill="#F68000" d="M202.578 123.974c-13.438-13.437-26.903-21.758-30.076-18.586-3.172 3.173 5.149 16.638 18.586 30.076 13.438 13.437 26.903 21.758 30.076 18.586 3.172-3.173-5.149-16.638-18.586-30.076z"/>
    <path stroke="#B1D8FF" stroke-linecap="round" stroke-width="8" d="M197.003 101.349c12.506-8.121 16.06-24.843 7.939-37.349"/>
    <path stroke="#E4F1FF" stroke-linecap="round" stroke-width="8" d="M269.335 136.216c-12.497-12.496-32.758-12.496-45.255 0"/>
    <path stroke="#3B63BF" stroke-linecap="round" stroke-linejoin="round" stroke-width="8" d="M212.536 112.154c4.649-3.378 8.175 1.476 12.825-1.902 4.651-3.379 1.124-8.233 5.774-11.612 4.653-3.38 8.18 1.474 12.832-1.906 4.651-3.379 1.124-8.233 5.775-11.612 4.654-3.382 8.181 1.473 12.835-1.909 4.654-3.381 1.127-8.235 5.781-11.616"/>
    <path fill="#E4F1FF" fill-rule="evenodd" d="M266.707 160.485c-3.089-6.374-3.784-10.3-4.063-10.268-7.485 3.17-11.215 3.011-10.921 3.673 1.812 4.083 1.713 5.106 3.872 10.326l11.112-3.731zM283 106.999c-3.089-6.374-3.784-10.3-4.063-10.268-7.485 3.17-11.215 3.011-10.921 3.673 1.812 4.083 1.713 5.106 3.871 10.327L283 106.999zM182.707 74.485c-3.089-6.374-3.784-10.3-4.063-10.268-7.485 3.17-11.215 3.01-10.921 3.673 1.812 4.083 1.713 5.106 3.872 10.326l11.112-3.731z" clip-rule="evenodd"/>
</svg>
