<svg viewBox="0 0 181 23" width="181" height="23" fill="none" xmlns="http://www.w3.org/2000/svg">
  <path fill-rule="evenodd" clip-rule="evenodd" d="M46.746 2.521c.408.39.922.586 1.543.586.62 0 1.128-.196 1.518-.586.408-.393.614-.886.614-1.482s-.206-1.082-.614-1.454C49.417-.805 48.91-1 48.29-1c-.62 0-1.135.195-1.543.585-.39.372-.585.858-.585 1.454s.195 1.092.585 1.482zm-.344 2.497v14.628h3.774V5.018h-3.774zm7.253 0v14.631h3.774V12.1c0-1.336.305-2.379.915-3.127.627-.748 1.443-1.12 2.447-1.12 1.021 0 1.777.333 2.27 1.003.493.666.737 1.631.737 2.89v7.904h3.774V12.1c0-1.336.305-2.379.915-3.127.628-.748 1.454-1.12 2.476-1.12 1.003 0 1.74.333 2.213 1.003.492.666.737 1.631.737 2.89v7.897h3.774v-8.259c0-2.202-.51-3.872-1.532-5.014-1.022-1.138-2.487-1.71-4.395-1.71-1.06 0-2.042.238-2.947.71a5.72 5.72 0 00-2.124 1.918c-.943-1.748-2.547-2.624-4.806-2.624-1.021 0-1.926.217-2.713.65a5.081 5.081 0 00-1.858 1.68l-.323-1.975h-3.334zm29.192-1.911c-.62 0-1.135-.196-1.542-.586-.39-.39-.586-.886-.586-1.482s.195-1.082.586-1.454c.407-.39.922-.585 1.542-.585s1.128.195 1.518.585c.408.372.614.858.614 1.454s-.206 1.089-.614 1.482c-.39.39-.897.586-1.518.586zm-1.886 16.539V5.018h3.773v14.628h-3.773zM88.216-.876V19.65h3.774V-.876h-3.774zm13.488 20.877c-1.376 0-2.606-.334-3.685-1.004a7.177 7.177 0 01-2.564-2.741c-.628-1.16-.943-2.479-.943-3.95 0-1.472.315-2.784.943-3.923.628-1.16 1.486-2.064 2.564-2.713 1.082-.67 2.309-1.003 3.685-1.003 1.1 0 2.064.205 2.891.62A5.183 5.183 0 01106.6 7.03V5.02h3.773V19.65h-3.362l-.411-2.095c-.472.649-1.1 1.22-1.887 1.709-.77.493-1.77.737-3.008.737zm.795-3.302c1.22 0 2.213-.404 2.979-1.21.787-.825 1.181-1.879 1.181-3.155 0-1.277-.394-2.32-1.181-3.128-.766-.826-1.759-1.238-2.979-1.238-1.199 0-2.192.405-2.98 1.21-.787.805-1.18 1.847-1.18 3.127 0 1.277.393 2.33 1.18 3.156.788.823 1.781 1.238 2.98 1.238zm11.256-11.681v14.628h3.774v-6.667c0-1.12.173-1.996.528-2.624.376-.628.887-1.071 1.536-1.326.649-.256 1.386-.383 2.213-.383h1.06l-1.06-3.628c-.77 0-1.582.135-2.181.5a6.014 6.014 0 00-2.153 2.241l-.355-2.741h-3.362zm14.842 14.631l-4.277-14.628h3.745l2.536 10.53 2.947-10.53h4.189l2.947 10.53 2.568-10.53h3.745l-4.305 14.628h-3.923l-3.125-10.943-3.128 10.944h-3.919zm22.621-.592c1.142.628 2.447.944 3.922.944 1.178 0 2.231-.217 3.157-.65.943-.432 1.73-1.02 2.358-1.769a6.924 6.924 0 001.387-2.536h-3.834a3.302 3.302 0 01-1.181 1.359c-.514.333-1.153.5-1.919.5-1.021 0-1.897-.323-2.624-.972-.706-.649-1.1-1.543-1.178-2.684h11.115c.018-.256.029-.5.029-.738.021-.234.032-.461.032-.677 0-1.337-.316-2.547-.944-3.628a6.62 6.62 0 00-2.568-2.596c-1.099-.628-2.365-.943-3.802-.943-1.535 0-2.869.333-4.011 1.003-1.12.65-2.004 1.56-2.653 2.742-.627 1.177-.943 2.524-.943 4.039 0 1.493.323 2.808.972 3.95a6.829 6.829 0 002.685 2.656zm1.503-10.528c.706-.532 1.522-.798 2.447-.798.965 0 1.77.287 2.419.854.649.571 1 1.337 1.061 2.302h-7.285c.199-1.06.649-1.848 1.358-2.358zM173.329 20c-1.103 0-2.065-.206-2.891-.62a5.182 5.182 0 01-2.004-1.742l-.415 2.007h-3.362V-.876h3.774v7.99c.471-.649 1.092-1.22 1.858-1.71.787-.492 1.798-.737 3.036-.737 1.376 0 2.603.333 3.685 1.004a7.177 7.177 0 012.564 2.74c.628 1.16.944 2.48.944 3.951 0 1.472-.316 2.791-.944 3.95a7.2 7.2 0 01-2.564 2.714c-1.075.652-2.305.975-3.681.975zm-.795-3.302c1.199 0 2.192-.404 2.979-1.209.788-.805 1.181-1.848 1.181-3.128 0-1.276-.393-2.33-1.181-3.156-.787-.826-1.777-1.237-2.979-1.237-1.22 0-2.22.41-3.007 1.237-.766.805-1.149 1.848-1.149 3.128 0 1.277.383 2.33 1.149 3.156.783.805 1.787 1.21 3.007 1.21zM41.25 11.564c.865.277 1.553.699 2.064 1.27.51.553.766 1.347.77 2.39a4.11 4.11 0 01-.71 2.447c-.493.727-1.199 1.298-2.124 1.709-.926.415-2.015.62-3.274.62-1.298 0-2.44-.209-3.422-.62-.983-.433-1.77-1.021-2.359-1.77a5.021 5.021 0 01-.965-2.046l3.416-.525c.124.273.6.972 1.106 1.334.037.034.074.065.113.098l.019.015c.532.394 1.209.589 2.035.589.827 0 1.426-.167 1.799-.5.393-.333.588-.716.588-1.15 0-.63-.276-1.052-.826-1.269-.553-.234-1.32-.46-2.302-.677a24.653 24.653 0 01-1.915-.5 9.98 9.98 0 01-1.798-.738 4.167 4.167 0 01-1.298-1.18c-.334-.49-.5-1.09-.5-1.798 0-1.298.51-2.387 1.532-3.274 1.043-.883 2.497-1.326 4.366-1.326 1.73 0 3.107.404 4.128 1.21a4.713 4.713 0 011.663 2.44l-3.153.78-.003-.015s-.415-.798-1.089-1.149c-.397-.23-.922-.347-1.575-.347-.709 0-1.259.134-1.652.411-.373.277-.56.62-.56 1.032 0 .433.287.777.854 1.032.568.255 1.326.493 2.27.71 1.021.237 1.958.503 2.802.797zM22.488 5.536c-1.305-1.996-3.195-3.663-5.363-4.51l-.641-.213a7.702 7.702 0 00-2.189-.33 4.267 4.267 0 00-3.365 6.862l-.266-.34c.127.184.266.368.425.552.674.802 1.632 1.632 2.873 2.575 3.05 2.316 5.03 4.369 5.192 6.915.04.344.064.695.064 1.05 0 1.294-.287 2.663-.777 3.627h.004s-.21.376-.078.486c.067.057.213.1.468-.053a12.207 12.207 0 003.462-3.323 11.923 11.923 0 002.124-6.62 11.898 11.898 0 00-1.933-6.678zM11.32 12.688l1.912 1.546a4.813 4.813 0 011.922 3.862 4.835 4.835 0 01-3.014 4.483h-.004s-3.621 1.602-7.842-1.444h.004a9.466 9.466 0 01-2.192-2.163 11.91 11.91 0 01.784-14.54 12.132 12.132 0 013.529-2.819c.617-.287.333.295.333.295v.003c-.145.33-.273.667-.376 1.015-1.142 3.808.94 6.897 4.944 9.762z" fill="#fff"/>
</svg>
