<svg xmlns="http://www.w3.org/2000/svg" width="221" height="139" viewBox="0 0 221 139">
    <g fill="none" fill-rule="evenodd">
        <path fill="#5E63E8" d="M0 138c5.93-9.327 12.005-14.226 22.644-14.514 13.172-.355 10.66-22.021 20.01-23.453 11.543-1.767 13.33 2.113 19.754 4.185 12.576 4.058 23.487.966 35.699-8.079 6.045-4.476 20.778-9.683 28.255-7.709 14.034 3.706 14.574 15.342 31.724 17.775 8.827 1.253 18.21-3.767 27.991-.74 11.38 3.521 3.671 17.182 17.861 18.021C216.468 124.226 221 133.991 221 138H0z"/>
        <path fill="#FFF" d="M56.185 58.764c-8.18 1.63-9.369 1.9-9.514 2.2-.845 1.744 1.823 9.745 4.89 8.608 3.183-1.18 8.22-3.138 8.536-3.944.418-1.07-2.979-5.575-3.69-6.788l-.222-.076z"/>
        <path stroke="#5E63E8" stroke-linecap="round" stroke-linejoin="round" stroke-width="1.92" d="M56.185 58.764c-8.18 1.63-9.369 1.9-9.514 2.2-.845 1.744 1.823 9.745 4.89 8.608 3.183-1.18 8.22-3.138 8.536-3.944.418-1.07-2.979-5.575-3.69-6.788l-.222-.076z"/>
        <path fill="#CAE4FE" d="M72.836 50.938c-4.96 1.998-15.047 4.166-16.171 5.32-3.119 3.203 2.813 11.99 6.122 11.036 13.258-3.828 14.52-5.303 16.017-4.905l-5.968-11.45z"/>
        <path stroke="#5E63E8" stroke-linecap="round" stroke-linejoin="round" stroke-width="1.92" d="M72.836 50.938c-4.96 1.998-15.047 4.166-16.171 5.32-3.119 3.203 2.813 11.99 6.122 11.036 13.258-3.828 14.52-5.303 16.017-4.905l-5.968-11.45z"/>
        <path fill="#FFF" d="M98.607 72.46c-11.939 17.093-39.495 60.39-41.893 64.733-.058.104 4.037.124 7.644.04.147-.003 28.296-46.182 39.08-62.718l-4.83-2.056z"/>
        <path stroke="#5E63E8" stroke-linecap="round" stroke-linejoin="round" stroke-width="1.92" d="M98.607 72.46c-11.939 17.093-39.495 60.39-41.893 64.733-.058.104 4.037.124 7.644.04.147-.003 28.296-46.182 39.08-62.718l-4.83-2.056z"/>
        <path fill="#FFF" d="M70.624 48.84c3.227-2.834 42.055-16.728 50.037-19.451 2.929-1 20.432-9.258 22.208-8.753.793.225 9.571 21.867 8.883 22.601-23.173 7.968-34.338 10.514-44.875 14.11-4.641 1.583-24.826 7.741-29.223 7.741l-7.03-16.248z"/>
        <path stroke="#5E63E8" stroke-linecap="round" stroke-linejoin="round" stroke-width="1.92" d="M70.624 48.84c3.227-2.834 42.055-16.728 50.037-19.451 2.929-1 20.432-9.258 22.208-8.753.793.225 9.571 21.867 8.883 22.601-23.173 7.968-34.338 10.514-44.875 14.11-4.641 1.583-24.826 7.741-29.223 7.741l-7.03-16.248z"/>
        <path fill="#FFF" d="M140.175 19.436c17-8.36 30.465-18.138 33.083-18.386 2.08-.197 16.598 32.157 15.545 33.953-1.28 2.184-35.693 11.7-36.888 10.936l-11.74-26.503z"/>
        <path stroke="#5E63E8" stroke-linecap="round" stroke-linejoin="round" stroke-width="1.92" d="M140.175 19.436c17-8.36 30.465-18.138 33.083-18.386 2.08-.197 16.598 32.157 15.545 33.953-1.28 2.184-35.693 11.7-36.888 10.936l-11.74-26.503z"/>
        <path fill="#FFF" d="M103.02 26.473c1.293 2.04 2.617 4.065 3.468 6.244 1.338 3.424 1.449 5.017 5.49 3.45.705-.273 2.243-.487 2.697-1.068.182-.232-.4-1.104-.482-1.314-1.165-2.982-1.74-7.525-3.756-10.106-.625-.8-7.303 2.294-8.283 2.712l.867.082z"/>
        <path stroke="#5E63E8" stroke-linecap="round" stroke-linejoin="round" stroke-width="1.92" d="M103.02 26.473c1.293 2.04 2.617 4.065 3.468 6.244 1.338 3.424 1.449 5.017 5.49 3.45.705-.273 2.243-.487 2.697-1.068.182-.232-.4-1.104-.482-1.314-1.165-2.982-1.74-7.525-3.756-10.106-.625-.8-7.303 2.294-8.283 2.712l.867.082z"/>
        <path fill="#CAE4FE" d="M121.165 29.417c3.843 6.575 6.976 14.262 8.295 21.505-7.622 2.11-15.23 4.244-22.713 6.694l-.17.058c-.852-3.804-2.192-7.488-3.838-11.086-1.506-3.15-3.332-5.603-5.222-8.6 7.537-2.7 15.42-5.754 23.014-8.33.424-.153.213-.073.634-.24z"/>
        <path stroke="#5E63E8" stroke-linecap="round" stroke-linejoin="round" stroke-width="1.92" d="M121.165 29.417c3.843 6.575 6.976 14.262 8.295 21.505-7.622 2.11-15.23 4.244-22.713 6.694l-.17.058c-.852-3.804-2.192-7.488-3.838-11.086-1.506-3.15-3.332-5.603-5.222-8.6 7.537-2.7 15.42-5.754 23.014-8.33.424-.153.213-.073.634-.24z"/>
        <path fill="#FFF" d="M89.647 23.991c-2.738 1.727-1.38 6.564 3.296 5.132 8.044-2.464 18.46-5.235 26.054-8.474 4.527-1.931 2.811-6.546-1.776-5.83-5.599.873-27.574 9.172-27.574 9.172z"/>
        <path stroke="#5E63E8" stroke-linecap="round" stroke-linejoin="round" stroke-width="1.92" d="M89.647 23.991c-2.738 1.727-1.38 6.564 3.296 5.132 8.044-2.464 18.46-5.235 26.054-8.474 4.527-1.931 2.811-6.546-1.776-5.83-5.599.873-27.574 9.172-27.574 9.172z"/>
        <path fill="#FFF" d="M101.748 68.912c-.703-7.46-2.452-23.015 9.343-24.692 13.04-1.854 14.703 16.73 14.703 23.647l-24.046 1.045z"/>
        <path stroke="#5E63E8" stroke-linecap="round" stroke-linejoin="round" stroke-width="1.92" d="M101.748 68.912c-.703-7.46-2.452-23.015 9.343-24.692 13.04-1.854 14.703 16.73 14.703 23.647l-24.046 1.045z"/>
        <path fill="#CAE4FE" d="M112.496 50.03c-7.88.39-5.238 12.29 2.297 9.536 5.612-2.051 3.543-8.9-1.418-9.606l-.88.07z"/>
        <path stroke="#5E63E8" stroke-linecap="round" stroke-linejoin="round" stroke-width="1.92" d="M112.496 50.03c-7.88.39-5.238 12.29 2.297 9.536 5.612-2.051 3.543-8.9-1.418-9.606l-.88.07z"/>
        <path fill="#FFF" d="M109.313 76.544c-.67 16.758-2.848 55.904-2.481 59.94.009.097 3.727.312 8.34-.273-.352-30.452-.637-43.895-.637-59.839l-5.222.172z"/>
        <path stroke="#5E63E8" stroke-linecap="round" stroke-linejoin="round" stroke-width="1.92" d="M109.313 76.544c-.67 16.758-2.848 55.904-2.481 59.94.009.097 3.727.312 8.34-.273-.352-30.452-.637-43.895-.637-59.839l-5.222.172z"/>
        <path fill="#FFF" d="M124.59 72.46c11.395 16.138 35.44 58.75 37.708 62.865.054.099-3.503-.317-8.135.311-1.28.174-24.122-45.467-34.39-61.096l4.817-2.08z"/>
        <path stroke="#5E63E8" stroke-linecap="round" stroke-linejoin="round" stroke-width="1.92" d="M124.59 73.46c11.395 16.138 35.44 58.75 37.708 62.865.054.099-3.503-.317-8.135.311-1.28.174-24.122-45.467-34.39-61.096l4.817-2.08z"/>
        <path fill="#FFF" d="M104.672 67.928c15.73-.716 26.17-1.888 28.64-1.045.766 4.749.74 8.846.303 9.218-1.203 1.027-38.773 1.09-40.89.188-1.49-.636-.365-6.805-.365-8.02l12.312-.341z"/>
        <path stroke="#5E63E8" stroke-linecap="round" stroke-linejoin="round" stroke-width="1.92" d="M104.672 67.928c15.73-.716 26.17-1.888 28.64-1.045.766 4.749.74 8.846.303 9.218-1.203 1.027-38.773 1.09-40.89.188-1.49-.636-.365-6.805-.365-8.02l12.312-.341z"/>
        <path fill="#CAE4FE" d="M145.042 16.7c1.806 3.495 3.244 7.113 5.045 10.609 1.51 2.79 2.558 5.767 3.94 8.598 1.227 2.907 2.343 5.85 3.417 8.8-1.443.345-2.895.677-4.371.908-.244.038-.845.153-1.158.042l-11.74-26.503c3.711-1.849 2.093-1.025 4.867-2.454z"/>
        <path stroke="#5E63E8" stroke-linecap="round" stroke-linejoin="round" stroke-width="1.92" d="M145.042 16.7c1.806 3.495 3.244 7.113 5.045 10.609 1.51 2.79 2.558 5.767 3.94 8.598 1.227 2.907 2.343 5.85 3.417 8.8-1.443.345-2.895.677-4.371.908-.244.038-.845.153-1.158.042l-11.74-26.503c3.711-1.849 2.093-1.025 4.867-2.454z"/>
        <path fill="#CAE4FE" d="M172.883 1.05c2.08-.197 16.597 32.157 15.545 33.953-1.984 1.558-5.363 2.506-7.846 3.314-11.35-24.597-13.417-28.457-15.368-32.345 1.961-.848 5.446-4.56 7.669-4.922z"/>
        <path stroke="#5E63E8" stroke-linecap="round" stroke-linejoin="round" stroke-width="1.92" d="M172.883 1.05c2.08-.197 16.597 32.157 15.545 33.953-1.984 1.558-5.363 2.506-7.846 3.314-11.35-24.597-13.417-28.457-15.368-32.345 1.961-.848 5.446-4.56 7.669-4.922z"/>
        <path fill="#CAE4FE" d="M117.787 14.744c.476.06.972.05 1.43.18 1.629.464 2.526 1.974 2.038 3.372-.365 1.044-.829 1.216-1.737 1.957-.673.14-.72.182-1.79-.16-2.472-.788-3.07-3.048-2.24-4.963 1.09-.253.597-.154 1.473-.312l.826-.074z"/>
        <path stroke="#5E63E8" stroke-linecap="round" stroke-linejoin="round" stroke-width="1.92" d="M117.787 14.744c.476.06.972.05 1.43.18 1.629.464 2.526 1.974 2.038 3.372-.365 1.044-.829 1.216-1.737 1.957-.673.14-.72.182-1.79-.16-2.472-.788-3.07-3.048-2.24-4.963 1.09-.253.597-.154 1.473-.312l.826-.074z"/>
        <path fill="#CAE4FE" d="M50.514 59.742c-.036 1.556.394 3.075.95 4.54.656 1.518 1.907 2.754 3.144 3.949-2.198.863-1.181.474-3.047 1.173-3.067 1.138-5.735-6.863-4.89-8.608.71-.536 2.972-.875 3.843-1.054z"/>
        <path stroke="#5E63E8" stroke-linecap="round" stroke-linejoin="round" stroke-width="1.92" d="M50.514 59.742c-.036 1.556.394 3.075.95 4.54.656 1.518 1.907 2.754 3.144 3.949-2.198.863-1.181.474-3.047 1.173-3.067 1.138-5.735-6.863-4.89-8.608.71-.536 2.972-.875 3.843-1.054zM150.376 14.744a239.483 239.483 0 0 1 5.55 10.057M155.013 11.81c.923 2.793 2.537 5.265 3.49 8.015M159.65 9.853c.977 1.692 1.904 3.434 2.493 5.275M76.188 47.025c1.427 2.96 2.628 5.904 3.616 8.991M80.825 46.047c1.6 4.152 3.325 8.292 5.026 12.384M85.462 44.09c.867 1.827 1.346 3.784 2.204 5.599M90.098 42.134c.4.966.754 1.94 1.147 2.884"/>
        <path fill="#CAE4FE" d="M206 95.319c2.235 2.005 3.156 3.436 3.256 3.378 2.295-2.46 3.73-3.003 3.507-3.216-1.369-1.311-1.503-1.73-3.193-3.432l-3.57 3.27zM10.346 33.666c2.235 2.005 3.156 3.436 3.257 3.378 2.294-2.461 3.729-3.003 3.507-3.216-1.37-1.312-1.503-1.73-3.194-3.432l-3.57 3.27zM27.038 92.36c2.236 2.004 3.157 3.435 3.257 3.377 2.294-2.46 3.729-3.003 3.507-3.216-1.37-1.311-1.503-1.73-3.194-3.432l-3.57 3.27z"/>
    </g>
</svg>
