<svg width="340" height="288" fill="#7119B8" xmlns="http://www.w3.org/2000/svg">
<path d="M-17.705 214.891c13.856-25.214 43.797-41.816 75.647-50.445 18.057-4.892 36.943-7.59 55.855-9.294 19.614-1.768 39.504-2.444 59.151-.594 33.388 3.141 67.391 14.731 87.24 37.267 10.661 12.105 15.824 26.576 17.969 41.135a119.051 119.051 0 0 1-.413 38.582c-4.375 24.116-17.66 48.345-44.097 61.978-15.122 7.798-32.977 11.658-50.764 13.066-18.07 1.43-36.782.535-53.923-4.538-15.682-4.642-29.5-13.071-38.09-24.626-8.185-11.009-10.428-24.015-5.429-36.243 4.94-12.08 15.805-22.094 27.937-30.043 13.269-8.693 28.703-15.126 44.425-20.496 34.291-11.713 71.209-17.608 107.974-21.82 39.941-4.575 80.292-8.162 120.656-8.914a738.24 738.24 0 0 1 30.132.051c1.432.033 1.43-1.741 0-1.773-42.812-.978-85.544 2.207-127.981 6.438-38.027 3.792-76.264 8.471-112.594 18.53-17.254 4.777-34.347 10.677-49.816 18.477-13.623 6.868-26.35 15.516-35.18 26.378-8.522 10.485-12.585 23.048-9.385 35.429 3.204 12.399 12.958 23.379 25.406 31.035 14.354 8.83 32.348 13.034 50.226 14.167 18.161 1.15 37.123-.43 54.461-4.954 16.14-4.211 30.771-11.434 41.878-21.749 10.013-9.298 16.955-20.466 21.402-32.154 4.584-12.048 6.619-24.701 6.743-37.274.141-14.415-1.812-29.266-7.788-42.932-5.641-12.92-15.516-24.398-28.597-33.243-12.43-8.44-27.158-14.612-42.679-18.559-19.079-4.852-39.311-6.363-59.258-6.046a411.256 411.256 0 0 0-58.942 5.252c-34.917 5.656-69.654 17.658-91.932 40.714-4.867 5.019-8.95 10.494-12.156 16.303-.57 1.035 1.346 1.939 1.92.895h.002Z" />
<path d="M383.496-28.73c-14.259 11.873-26.768 25.01-37.283 39.152-10.518 14.144-19.008 29.188-25.31 44.847-6.483 16.116-10.896 33.043-12.025 49.967-.608 9.121.047 18.292 2.679 27.197 2.385 7.848 5.977 15.431 10.694 22.575 9.44 14.509 22.617 27.308 36.846 38.98a336.199 336.199 0 0 0 5.415 4.347c1.019.803 2.592-.451 1.572-1.254-14.424-11.357-27.959-23.654-38.234-37.652-5.118-6.87-9.221-14.191-12.226-21.815-3.177-8.367-4.775-17.064-4.742-25.806-.017-9.087 1.314-18.168 3.248-27.113a177.452 177.452 0 0 1 6.861-23.604c5.717-15.576 13.609-30.591 23.525-44.763 9.9-14.178 21.792-27.41 35.445-39.44a235.706 235.706 0 0 1 5.105-4.364c.988-.824-.579-2.08-1.572-1.254h.002ZM-67.363 185.607c15.791-8.02 29.811-18.042 42.592-28.913 12.95-11.014 24.808-22.853 36.28-34.853 11.726-12.268 22.877-24.892 33.123-37.977 10.314-13.08 19.558-26.68 27.673-40.712C80.762 28.53 87.615 13.35 92.787-2.216c.643-1.962 1.256-3.93 1.84-5.903.33-1.11-1.813-1.584-2.143-.473C87.767 7.163 81.287 22.549 73.12 37.379 65.4 51.362 56.53 64.924 46.566 77.971c-9.934 13.1-20.805 25.739-32.28 38.007-11.325 12.109-23.107 24.019-35.782 35.251-12.42 11.005-25.928 21.341-41.218 29.789a182.957 182.957 0 0 1-5.769 3.055c-1.203.611-.09 2.147 1.122 1.531l-.002.003ZM151.862-8.237a152.11 152.11 0 0 0-.254 22.5c.229 3.647.579 7.292 1.086 10.923a58.274 58.274 0 0 0 1.989 9.366c1.877 5.979 5.344 11.662 11.282 15.733 5.56 3.81 12.519 6.063 19.616 7.321 7.689 1.363 15.708 1.715 23.562 1.425 8.435-.264 16.775-1.518 24.752-3.723 7.265-2.033 14.044-5.04 20.043-8.89 5.456-3.552 10.203-7.746 14.078-12.438 3.895-4.691 6.906-9.814 8.936-15.203 2.04-5.379 3.012-10.98 2.883-16.598a39.608 39.608 0 0 0-.325-4.109.835.835 0 0 0-.334-.62 1.3 1.3 0 0 0-.777-.266 1.276 1.276 0 0 0-.784.261.815.815 0 0 0-.328.625 41.052 41.052 0 0 1-1.18 16.256c-1.474 5.319-3.923 10.434-7.268 15.182-3.349 4.774-7.574 9.12-12.534 12.896-5.124 3.883-11.02 7.06-17.447 9.402-7.491 2.679-15.468 4.39-23.633 5.07-7.881.722-15.844.652-23.703-.21-7.029-.797-14.078-2.351-20.133-5.385-2.941-1.46-5.557-3.301-7.741-5.447-2.312-2.356-4.117-5.003-5.34-7.832-2.705-6.013-3.481-12.483-4.086-18.812a151.67 151.67 0 0 1-.137-27.427c.099-1.14-2.124-1.135-2.223 0Z" />
</svg>
