<svg xmlns="http://www.w3.org/2000/svg" width="279" height="71" fill="none">
<path fill="#F55" d="m54.03 59.08 8.49 4.49 3.97-6.53-8.67-3.64-3.79 5.68ZM40.12 39.63l-3.45 2.73 1.46 2.16 3.47-2.75-1.48-2.14Z" />
<path fill="#2BA1E3" d="M25.92-9.6 22.8 2.35l7.72 2.4 3.2-12.04-7.8-2.31Z" />
<path fill="#82EAE7" d="m-13.77 19 5.27 13.58 8.52-2.4-4.56-12.77-9.23 1.6Z" />
<path fill="#2BA1E3" d="m222.25 32.4-6.42 5.42 2.94 4.02 6.43-5.45-2.95-3.99Z" />
<path fill="#F55" d="m41.67 12.36 1.19-3.76-2.17-.86-1.19 3.78 2.17.84ZM73.92 13.73l-1.7-5.53-3.36.77 1.73 5.55 3.33-.8Z" />
<path fill="#82EAE7" d="m207.54 56.4.05-5.8-3.43-.27-.03 5.82 3.41.25Z" />
<path fill="#82EAE7" d="m207.54 56.4.05-5.8-3.43-.27-.03 5.82 3.41.25Z" />
<path fill="#2BA1E3" d="m56.22 30.96 6.97 11.26 6.97-3.64-7.03-11.3-6.91 3.68Z" />
<path fill="#F55" d="m243.15 5.95-12.05 5.5 2.75 7.38 12.1-5.57-2.8-7.3Z" />
<path fill="#2BA1E3" d="m3.97 45 7.27 5.43 3.53-4.07-7.32-5.44L3.97 45Z" />
<path fill="#F55" d="m266.89 43.58-10.32-4.88-3.33 5.9 10.38 4.88 3.27-5.9ZM180.08 11.4l7.43 8.1 5.1-4.05-7.48-8.12-5.05 4.08ZM127.31 11.15l-3.66-5.9L120 7.18l3.7 5.92 3.61-1.94Z" />
<path fill="#82EAE7" d="m169.4 39-6.15 3.23L164.9 46l6.18-3.26L169.4 39Z" />
<path fill="#2BA1E3" d="m139.15 20.9 1.36-6.8-3.97-1.1-1.36 6.85 3.97 1.05Z" />
</svg>
