<svg xmlns="http://www.w3.org/2000/svg" width="279" height="96" fill="none">
<path fill="#F55" d="m54.03 84.08 8.49 4.49 3.97-6.53-8.67-3.64-3.79 5.68ZM40.12 64.63l-3.45 2.73 1.46 2.16 3.47-2.75-1.48-2.14ZM209.9 21.02l5.74 1.33 1.04-3.33-5.78-1.34-1 3.34ZM29.4 1.6l5.84-.12.18-3.46-5.87.13-.14 3.45ZM13.96 17.26 7.48 10.7l-4.16 3.55 6.53 6.57 4.1-3.57Z" />
<path fill="#2BA1E3" d="m186.43 11.26 4.31-11.57-7.44-3.17-4.4 11.65 7.53 3.09ZM25.92 15.4 22.8 27.35l7.73 2.4 3.19-12.04-7.8-2.31Z" />
<path fill="#82EAE7" d="m-13.77 44 5.27 13.58 8.52-2.4-4.56-12.77-9.23 1.6Z" />
<path fill="#2BA1E3" d="m222.25 57.4-6.42 5.42 2.94 4.02 6.43-5.45-2.95-3.99Z" />
<path fill="#F55" d="M162.49-4.23 160.93-.6l2.08 1.07 1.56-3.63-2.08-1.06ZM41.67 37.36l1.19-3.76-2.17-.86-1.19 3.78 2.17.84ZM73.92 38.73l-1.7-5.53-3.36.77 1.73 5.55 3.33-.8Z" />
<path fill="#82EAE7" d="m207.54 81.4.05-5.8-3.43-.27-.03 5.82 3.41.25Z" />
<path fill="#82EAE7" d="m207.54 81.4.05-5.8-3.43-.27-.03 5.82 3.41.25Z" />
<path fill="#2BA1E3" d="m56.22 55.96 6.97 11.26 6.97-3.64-7.03-11.3-6.91 3.68Z" />
<path fill="#F55" d="m84.84 25.87 12.55-4.26-1.98-7.6-12.61 4.3 2.04 7.56ZM243.15 30.95l-12.05 5.5 2.75 7.38 12.1-5.57-2.8-7.3Z" />
<path fill="#82EAE7" d="m146.89 27.32 7.16-12.08-6.86-4.75-7.17 12.16 6.87 4.67ZM46.82 2l4.44 18.02 10.87-1.86-4.5-18.1L46.82 2Z" />
<path fill="#2BA1E3" d="M7.36.69.68-5.45l-3.93 3.69 6.73 6.15L7.36.7ZM3.97 70l7.27 5.43 3.53-4.07-7.31-5.44L3.97 70Z" />
<path fill="#F55" d="m266.89 68.58-10.32-4.88-3.33 5.9 10.38 4.88 3.27-5.9Z" />
</svg>
