<svg xmlns="http://www.w3.org/2000/svg" width="302" height="236" fill="#9154cf">
<path d="M-19.13 176.88c13.63-24.8 43.08-41.13 74.41-49.62 17.77-4.82 36.34-7.47 54.95-9.15 19.3-1.73 38.86-2.4 58.19-.58 32.84 3.09 66.29 14.5 85.82 36.66 10.48 11.9 15.56 26.14 17.67 40.47a117.07 117.07 0 0 1-.4 37.95c-4.3 23.72-17.38 47.56-43.38 60.97-14.88 7.67-32.44 11.47-49.94 12.85-17.78 1.4-36.18.53-53.05-4.46-15.42-4.57-29.01-12.86-37.47-24.23-8.05-10.83-10.25-23.62-5.33-35.65 4.85-11.88 15.54-21.74 27.48-29.55 13.05-8.56 28.23-14.88 43.7-20.17 33.73-11.52 70.05-17.32 106.21-21.46 39.3-4.5 78.99-8.03 118.7-8.77 9.87-.18 19.75-.17 29.63.05 1.41.03 1.41-1.71 0-1.74-42.11-.97-84.15 2.17-125.9 6.33-37.4 3.73-75.01 8.33-110.75 18.23-16.97 4.7-33.79 10.5-49 18.17-13.4 6.76-25.93 15.27-34.61 25.95-8.39 10.32-12.38 22.67-9.24 34.85 3.16 12.2 12.75 23 25 30.53 14.12 8.69 31.82 12.82 49.4 13.94 17.87 1.13 36.52-.42 53.58-4.87 15.88-4.15 30.27-11.25 41.2-21.4a83.17 83.17 0 0 0 21.05-31.63c4.5-11.85 6.51-24.3 6.63-36.67.14-14.18-1.78-28.78-7.66-42.23-5.55-12.7-15.26-24-28.13-32.7-12.23-8.3-26.72-14.37-41.98-18.26-18.77-4.77-38.68-6.26-58.3-5.94a404.42 404.42 0 0 0-57.98 5.16c-34.35 5.57-68.52 17.37-90.43 40.05A75.52 75.52 0 0 0-21.02 176c-.56 1.02 1.32 1.9 1.89.88Z" />
<path d="M375.53-62.77a224.9 224.9 0 0 0-36.67 38.51 197.67 197.67 0 0 0-24.9 44.12c-6.38 15.85-10.72 32.5-11.83 49.15-.6 8.97.05 18 2.64 26.76a85.38 85.38 0 0 0 10.52 22.2c9.28 14.28 22.25 26.87 36.24 38.35 1.76 1.44 3.53 2.86 5.33 4.27 1 .8 2.55-.44 1.54-1.23-14.18-11.17-27.5-23.27-37.6-37.04a93.09 93.09 0 0 1-12.03-21.46 70.56 70.56 0 0 1-4.67-25.38c-.01-8.94 1.3-17.88 3.2-26.67 1.7-7.84 3.95-15.6 6.75-23.22a192.62 192.62 0 0 1 23.14-44.04 218.92 218.92 0 0 1 39.89-43.09c.97-.8-.57-2.04-1.55-1.23ZM-67.98 148.07c15.53-7.89 29.33-17.75 41.9-28.44C-13.34 108.8-1.68 97.15 9.6 85.35a504.3 504.3 0 0 0 32.58-37.36A337.92 337.92 0 0 0 69.41 7.94 240.74 240.74 0 0 0 89.56-36.7c.63-1.93 1.24-3.87 1.81-5.8.33-1.1-1.78-1.57-2.1-.47A231.24 231.24 0 0 1 70.2 2.26 323.5 323.5 0 0 1 44.1 42.19a476.53 476.53 0 0 1-31.75 37.39C1.2 91.49-10.4 103.2-22.86 114.26c-12.22 10.82-25.5 20.99-40.55 29.3a179.94 179.94 0 0 1-5.67 3c-1.19.6-.09 2.12 1.1 1.51ZM147.67-42.61a149.75 149.75 0 0 0 .82 32.88c.4 3.1 1.05 6.18 1.96 9.2 1.84 5.89 5.25 11.48 11.1 15.49 5.46 3.74 12.31 5.96 19.3 7.2a110.28 110.28 0 0 0 23.17 1.4c8.3-.26 16.5-1.5 24.35-3.66 7.15-2 13.81-4.96 19.72-8.75a61.23 61.23 0 0 0 13.84-12.23 52.36 52.36 0 0 0 8.8-14.96c2-5.3 2.96-10.8 2.83-16.33a38.6 38.6 0 0 0-.32-4.04.82.82 0 0 0-.33-.6 1.28 1.28 0 0 0-1.53-.01.8.8 0 0 0-.32.61 40.4 40.4 0 0 1-1.17 16 48.38 48.38 0 0 1-7.15 14.93A57.6 57.6 0 0 1 250.41 7.2a65.6 65.6 0 0 1-17.16 9.25A91.8 91.8 0 0 1 210 21.44c-7.75.7-15.58.64-23.31-.2-6.92-.8-13.85-2.32-19.8-5.3a29.69 29.69 0 0 1-7.62-5.36 25.5 25.5 0 0 1-5.26-7.7c-2.66-5.92-3.42-12.29-4.02-18.51a149.15 149.15 0 0 1-.13-26.98c.1-1.12-2.09-1.12-2.19 0Z" />
</svg>
