<svg width="376" height="84" viewBox="0 0 376 84" fill="none" xmlns="http://www.w3.org/2000/svg">
<rect width="376" height="84" fill="#F4F3FE"/>
<path d="M365 31C365 32.1046 364.105 33 363 33C361.895 33 361 32.1046 361 31C361 29.8954 361.895 29 363 29C364.105 29 365 29.8954 365 31Z" fill="#CFC0FF"/>
<path fill-rule="evenodd" clip-rule="evenodd" d="M364.663 68.4752C364.303 68.1155 363.72 68.1155 363.36 68.4752L362.188 69.6478L361.015 68.4752C360.655 68.1155 360.072 68.1155 359.712 68.4752C359.353 68.8349 359.353 69.418 359.712 69.7777L360.885 70.9504L359.713 72.1224C359.353 72.4821 359.353 73.0652 359.713 73.4249C360.073 73.7846 360.656 73.7846 361.016 73.4249L362.188 72.2529L363.36 73.4249C363.719 73.7846 364.302 73.7846 364.662 73.4249C365.022 73.0652 365.022 72.482 364.662 72.1224L363.49 70.9504L364.663 69.7777C365.022 69.4181 365.022 68.8349 364.663 68.4752Z" fill="#CFC0FF"/>
<path d="M336.507 78.0155C336.507 77.3972 336.006 76.8961 335.388 76.8961L333.373 76.8961V74.8811C333.373 74.2629 332.872 73.7617 332.254 73.7617C331.635 73.7617 331.134 74.2629 331.134 74.8811L331.134 76.8961H329.119C328.501 76.8961 328 77.3972 328 78.0155C328 78.6337 328.501 79.1349 329.119 79.1349H331.134L331.134 81.1498C331.134 81.768 331.635 82.2692 332.254 82.2692C332.872 82.2692 333.373 81.768 333.373 81.1498V79.1349H335.388C336.006 79.1349 336.507 78.6337 336.507 78.0155Z" fill="#CFC0FF"/>
<circle cx="347.238" cy="55" r="5.75" stroke="#CFC0FF" stroke-width="2.5"/>
<circle cx="18" cy="48" r="2" fill="#CFC0FF"/>
<path fill-rule="evenodd" clip-rule="evenodd" d="M33.6717 66C32.8474 66 32.1791 66.6682 32.1791 67.4925V70.1791H29.4925C28.6682 70.1791 28 70.8473 28 71.6716C28 72.4959 28.6682 73.1642 29.4925 73.1642H32.1791V75.8507C32.1791 76.6751 32.8474 77.3433 33.6717 77.3433C34.496 77.3433 35.1642 76.6751 35.1642 75.8507V73.1642H37.8507C38.6751 73.1642 39.3433 72.4959 39.3433 71.6716C39.3433 70.8473 38.6751 70.1791 37.8507 70.1791H35.1642V67.4925C35.1642 66.6682 34.496 66 33.6717 66Z" fill="#CFC0FF"/>
<circle cx="12" cy="78" r="3" stroke="#CFC0FF" stroke-width="2"/>
</svg>
