<svg xmlns="http://www.w3.org/2000/svg" viewBox="0 0 170 75" shape-rendering="geometricPrecision" text-rendering="geometricPrecision" fill="#8529cd">
	<style>
		#rr-svg4 {animation: rr-svg4_c_o 10000ms linear infinite normal forwards}
		@keyframes rr-svg4_c_o {
			30% {opacity: 0}
			40% {opacity: 1}
			70% {opacity: 1}
			80% {opacity: 0}
		}
		#rr-svg7 {animation: rr-svg7_c_o 10000ms linear infinite normal forwards}
		@keyframes rr-svg7_c_o {
			10% {opacity: 0}
			20% {opacity: 1}
			50% {opacity: 1}
			60% {opacity: 0}
		}
		#rr-svg10 {animation: rr-svg10_c_o 10000ms linear infinite normal forwards}
		@keyframes rr-svg10_c_o {
			40% {opacity: 1}
			60% {opacity: 0}
			80% {opacity: 0}
			100% {opacity: 1}
		}
		#rr-svg13 {animation: rr-svg13_c_o 10000ms linear infinite normal forwards}
		@keyframes rr-svg13_c_o {
			10% {opacity: 1}
			25% {opacity: 0}
			70% {opacity: 0}
			85% {opacity: 1}
		}
		#rr-svg14 {animation: rr-svg14_c_o 10000ms linear infinite normal forwards}
		@keyframes rr-svg14_c_o {
			50% {opacity: 0}
			60% {opacity: 1}
			90% {opacity: 1}
			100% {opacity: 0}
		}
		#rr-svg16 { animation: rr-svg16_c_o 10000ms linear infinite normal forwards }
		@keyframes rr-svg16_c_o {
			15% {opacity: 0}
			30% {opacity: 1}
			65% {opacity: 1}
			80% {opacity: 0}
		}</style>
	<g id="rr-svg4" opacity="0" transform="translate(48.5 12)">
		<path id="rr-svg41" d="M71.2,37.1C68.6,37.1,65.1,40.6,65.1,43.2C65.1,40.6,61.6,37.1,59,37.1C61.6,37.1,65.1,33.6,65.1,31C65.1,33.6,68.6,37.1,71.2,37.1Z M72.8,26.9v0.9h-1.9v1.9h-0.9v-1.9h-1.9v-0.9h1.9v-1.9h0.9v1.9h1.9"/>
	</g>
	<g id="rr-svg7" opacity="0" transform="translate(70.4-16)">
		<use href="#rr-svg41"/>
	</g>
	<g id="rr-svg10" transform="translate(-32.3 7.6)">
		<use href="#rr-svg41"/>
	</g>
	<path id="rr-svg13" d="M22.5,48.2C22.5,49.4,21.5,50.4,20.3,50.4C19,50.4,18,49.4,18,48.2C18,47,19,46,20.2,46C21.5,46,22.5,47,22.5,48.2Z" transform="translate(48.5 12)"/>
	<path id="rr-svg14" opacity="0" d="M0,7.1C2.6,7.1,6.1,3.6,6.1,1C6.1,3.6,9.6,7.1,12.2,7.1C9.6,7.1,6.1,10.6,6.1,13.2C6.1,10.6,2.6,7.1,0,7.1Z" transform="translate(48.5 14)"/>
	<path d="M75 28.14a2.56 2.56 0 01-2.57 2.57 2.56 2.56 0 01-2.57-2.57 2.56 2.56 0 012.57-2.57A2.56 2.56 0 0175 28.14zm21.44 11.57c0-.68-.29-1.34-.75-1.82L81.33 23.54a7.08 7.08 0 00-4.4-1.83h-8.36A2.59 2.59 0 0066 24.3v8.35c0 1.43.8 3.38 1.83 4.38l14.36 14.39a2.59 2.59 0 003.64 0l9.86-9.89c.46-.46.75-1.12.75-1.8zm7.71 0c0-.68-.28-1.34-.74-1.82L89.04 23.54a7.08 7.08 0 00-4.4-1.83h-4.5c1.43 0 3.38.8 4.4 1.83L98.91 37.9a2.59 2.59 0 010 3.64l-9.45 9.43c.69.7 1.21 1.19 2.25 1.19.69 0 1.35-.28 1.83-.74l9.87-9.89c.46-.46.74-1.12.74-1.8z" fill="#8529CD"/>
	<path id="rr-svg16" opacity="0" d="M52,3C52,1.4,53.3,0,55,0C56.6,0,58,1.3,58,3C58,4.6,56.7,6,55,6C53.3,5.9,52,4.6,52,3Z" transform="translate(48.5 12)"/>
</svg>