<svg xmlns="http://www.w3.org/2000/svg" viewBox="0 0 170 75" shape-rendering="geometricPrecision" text-rendering="geometricPrecision" fill="#8529cd">
	<style>
		#rr-svg4 {animation: rr-svg4_c_o 10000ms linear infinite normal forwards}
		@keyframes rr-svg4_c_o {
			30% {opacity: 0}
			40% {opacity: 1}
			70% {opacity: 1}
			80% {opacity: 0}
		}
		#rr-svg7 {animation: rr-svg7_c_o 10000ms linear infinite normal forwards}
		@keyframes rr-svg7_c_o {
			10% {opacity: 0}
			20% {opacity: 1}
			50% {opacity: 1}
			60% {opacity: 0}
		}
		#rr-svg10 {animation: rr-svg10_c_o 10000ms linear infinite normal forwards}
		@keyframes rr-svg10_c_o {
			40% {opacity: 1}
			60% {opacity: 0}
			80% {opacity: 0}
			100% {opacity: 1}
		}
		#rr-svg13 {animation: rr-svg13_c_o 10000ms linear infinite normal forwards}
		@keyframes rr-svg13_c_o {
			10% {opacity: 1}
			25% {opacity: 0}
			70% {opacity: 0}
			85% {opacity: 1}
		}
		#rr-svg14 {animation: rr-svg14_c_o 10000ms linear infinite normal forwards}
		@keyframes rr-svg14_c_o {
			50% {opacity: 0}
			60% {opacity: 1}
			90% {opacity: 1}
			100% {opacity: 0}
		}
		#rr-svg16 { animation: rr-svg16_c_o 10000ms linear infinite normal forwards }
		@keyframes rr-svg16_c_o {
			15% {opacity: 0}
			30% {opacity: 1}
			65% {opacity: 1}
			80% {opacity: 0}
		}</style>
	<g id="rr-svg4" opacity="0" transform="translate(48.5 12)">
		<path id="rr-svg41" d="M71.2,37.1C68.6,37.1,65.1,40.6,65.1,43.2C65.1,40.6,61.6,37.1,59,37.1C61.6,37.1,65.1,33.6,65.1,31C65.1,33.6,68.6,37.1,71.2,37.1Z M72.8,26.9v0.9h-1.9v1.9h-0.9v-1.9h-1.9v-0.9h1.9v-1.9h0.9v1.9h1.9"/>
	</g>
	<g id="rr-svg7" opacity="0" transform="translate(70.4-16)">
		<use href="#rr-svg41"/>
	</g>
	<g id="rr-svg10" transform="translate(-32.3 7.6)">
		<use href="#rr-svg41"/>
	</g>
	<path id="rr-svg13" d="M22.5,48.2C22.5,49.4,21.5,50.4,20.3,50.4C19,50.4,18,49.4,18,48.2C18,47,19,46,20.2,46C21.5,46,22.5,47,22.5,48.2Z" transform="translate(48.5 12)"/>
	<path id="rr-svg14" opacity="0" d="M0,7.1C2.6,7.1,6.1,3.6,6.1,1C6.1,3.6,9.6,7.1,12.2,7.1C9.6,7.1,6.1,10.6,6.1,13.2C6.1,10.6,2.6,7.1,0,7.1Z" transform="translate(48.5 14)"/>
	<path d="M32.5,29.92C33.81,31,35.8,31.75,37.3,31.75C39.60,31.75,41.5,30.2,41.5,28.4C41.5,26.5,39.5,25.6,37.3,25C34,24.4,33.1,23.5,33,21.6C33,20,35,18.3,37.3,18.3C38.8,18.3,40.2,19,41,20M37,16L37,34M52.8,25C52.8,33.7,45.7,40.8,37,40.8C28.3,40.7,21.3,33.7,21.3,25C21.3,16.3,28.3,9.3,37,9.3C45.7,9.3,52.8,16.3,52.75,25Z" transform="translate(48.5 12)" fill="none" stroke="#8529cd" stroke-width="2" stroke-linecap="round" stroke-linejoin="round" stroke-miterlimit="10"/>
	<path id="rr-svg16" opacity="0" d="M52,3C52,1.4,53.3,0,55,0C56.6,0,58,1.3,58,3C58,4.6,56.7,6,55,6C53.3,5.9,52,4.6,52,3Z" transform="translate(48.5 12)"/>
</svg>