<svg
	width="155"
	height="215"
	viewBox="0 0 155 215"
	fill="none"
	xmlns="http://www.w3.org/2000/svg"
>
	<style>
		#rr-ghost {
			animation: rr-ghost-a 10000ms linear infinite normal forwards;
		}
		@keyframes rr-ghost-a {
			0% { transform: translate(0, 40px )}
			80% { transform: translate(0, 40px) }
			85% { transform: translate(0, 20px) }
			90% { transform: translate(0, 0) }
			95% { transform: translate(0, 20px) }
			100% { transform: translate(0, 40px) }
		}
		#rr-shadow {
			animation: rr-shadow-a 10000ms linear infinite normal forwards;
		}
		@keyframes rr-shadow-a {
			0% { opacity: 0 }
			80% { opacity: 0 }
			85% { opacity: 1; transform: scale(1) }
			90% { opacity: 1; transform: scale(50%) }
			95% { opacity: 1; transform: scale(1) }
			100% { opacity: 0 }
		}
	</style>
	<defs>
		<radialGradient
			x="50%" cy="50%" r="50%"
			id="gradient-0" 
		>
			<stop offset="0" style="stop-color: #aaa" stop-opacity="1"></stop>
			<stop offset="1" style="stop-color: #E9E9E8" stop-opacity="0"></stop>
		</radialGradient>
	</defs>
	<g id="rr-ghost">
		<path
			fill-rule="evenodd"
			clip-rule="evenodd"
			fill="#E9E9E8"
			d="M53.9821 131.732C50.4222 136.205 49.5035 137.238 47.9341 138.538C44.9484 141.024 42.4603 139.456 36.0678 131.196C33.1586 127.449 31.4744 126.187 29.4456 126.187C27.5207 126.187 25.8191 127.748 22.396 132.667C22.3474 132.737 22.2985 132.808 22.2492 132.879C22.2031 132.945 22.1572 133.011 22.1115 133.077C17.5634 139.602 14.8678 141.157 11.6844 139.226C10.1249 138.282 9.84889 134.457 10.0641 129.615C10.0642 129.612 10.0643 129.609 10.0644 129.606C10.0785 129.29 10.0947 128.969 10.1128 128.645L10.1262 128.409C10.2889 125.609 10.5855 122.537 10.8766 119.523C11.2858 115.286 11.6842 111.161 11.6841 108.062L11.6844 95.6724L11.8375 88.2922L12.0671 84.0095C12.182 81.6387 12.3734 76.8588 12.4882 73.3409C12.7562 64.2018 13.5983 59.4602 16.1629 52.1183C22.5172 34.1843 37.9434 19.2329 56.3936 13.2294C79.0928 5.8111 103.974 11.394 120.931 27.6837C128.97 35.408 134.176 43.5146 137.468 53.4949C140.032 61.1809 140.606 65.4637 141.142 81.1416L141.372 88.2922L141.611 99.0959L142.185 105.788C142.185 105.788 144.511 124.734 144.549 130.202C144.549 135.9 144.013 137.544 141.716 139.073C138.424 141.291 135.822 139.609 130.577 131.961C127.668 127.716 125.793 126.187 123.496 126.187C121.467 126.187 119.668 127.678 116.146 132.229C108.72 141.865 106.845 141.98 100.108 133.07C93.5238 124.275 91.3802 124.046 85.5236 131.502C80.3942 137.964 78.5952 139.571 76.2984 139.571C74.6525 139.571 72.7768 137.926 68.7576 132.879C64.4704 127.525 62.901 126.187 60.9105 126.187C58.9966 126.187 57.3123 127.525 53.9821 131.732ZM123.416 139.173C121.747 141.306 120.016 143.381 118.247 145.018C116.353 146.771 113.041 149.342 108.402 149.59C103.491 149.852 99.8954 147.4 97.8018 145.556C95.7569 143.755 93.8712 141.399 92.1891 139.178C90.1454 141.707 88.2591 143.884 86.4447 145.476C83.8655 147.739 80.5915 149.571 76.2984 149.571C71.82 149.571 68.6171 147.223 66.7895 145.605C64.9102 143.941 62.9778 141.673 60.9426 139.118C60.9325 139.105 60.9224 139.093 60.9124 139.08C58.0447 142.666 56.5805 144.36 54.3219 146.232C52.7211 147.563 50.1666 149.214 46.6907 149.554C43.1062 149.904 40.1278 148.711 38.0049 147.393C35.0873 145.582 32.3805 142.608 29.8471 139.46C27.6225 142.588 24.8937 145.924 21.4491 147.946C19.3324 149.189 16.7121 150.085 13.709 149.993C10.767 149.902 8.33189 148.889 6.4985 147.777C3.47523 145.943 2.05788 143.236 1.40149 141.582C0.709486 139.839 0.398942 138.099 0.235358 136.73C-0.0935376 133.978 -0.026808 130.875 0.128231 128.089C0.133062 128.002 0.138 127.916 0.14304 127.829C0.316824 124.837 0.628772 121.607 0.912969 118.665L0.922922 118.562C1.34985 114.141 1.68415 110.569 1.68414 108.062L1.68435 95.5686L1.84302 87.9207L2.08009 83.5001C2.19182 81.1874 2.37982 76.4946 2.49299 73.031C2.78731 63.0238 3.77656 57.2535 6.72236 48.8205L6.72968 48.7996L6.7371 48.7786C14.1461 27.8678 31.9426 10.6718 53.2928 3.72233C79.4385 -4.82011 108.191 1.57838 127.859 20.4721L127.86 20.4731C136.988 29.2442 143.121 38.7198 146.958 50.3435C149.987 59.4259 150.592 64.8836 151.136 80.8L151.137 80.8103L151.368 88.0212L151.601 98.5574L152.133 104.754L152.138 104.794C152.155 104.938 152.181 105.148 152.213 105.417C152.278 105.954 152.37 106.725 152.481 107.667C152.702 109.549 152.997 112.12 153.295 114.869C153.861 120.102 154.525 126.78 154.549 130.132L154.549 130.167V130.202C154.549 132.984 154.471 136.273 153.517 139.251C152.259 143.181 149.852 145.665 147.282 147.381C145.507 148.574 142.966 149.823 139.763 149.964C136.445 150.109 133.638 149.015 131.488 147.64C128.35 145.631 125.707 142.393 123.416 139.173Z"
		/>
		<path
			fill="#E9E9E8"
			d="M63 65.5C63 73.2 56.8 79.5 49 79.5C41.3 79.5 35 73.2 35 65.5C35 57.7 41.3 51.5 49 51.5C56.8 51.5 63 57.7 63 65.5Z"
		/>
		<path
			fill="#E9E9E8"
			d="M114.6 65.5C114.6 73.2 108.3 79.5 100.6 79.5C92.8 79.5 86.6 73.2 86.6 65.5C86.6 57.7 92.8 51.5 100.6 51.5C108.3 51.5 114.6 57.7 114.6 65.5Z"
		/>
	</g>
	<ellipse id="rr-shadow"
		style="fill-opacity: 1; fill: url(#gradient-0); transform-origin: 77px 190px;"
		cx="77" cy="190" rx="77" ry="16"></ellipse>
</svg>