<svg viewBox="0 0 123 24" fill="#53a318" xmlns="http://www.w3.org/2000/svg">
	<g>
		<path d="M19.63 10.78c.03.43.06.86.06 1.27 0 2.16-.54 4-1.65 5.62a9.96 9.96 0 01-8.18 4.3 9.48 9.48 0 01-7.13-3.06A10 10 0 010 11.78a9.63 9.63 0 012.92-6.94 9.68 9.68 0 017-2.84c4.1 0 7.69 2.51 9.23 6.62H13.8a5.26 5.26 0 00-3.94-1.86c-2.81 0-5.03 2.3-5.03 5.05 0 3.05 2.38 5.4 5.03 5.4 1.78 0 3.37-.92 4.32-2.6H8.7v-3.83h10.93zm10.73 4.21l4.7 6.6h-5.81l-3.67-6.19v6.19h-4.7V2.38h6.37c2.03 0 3.57.13 4.86 1.05 1.7 1.2 2.6 3 2.6 5.38 0 3.1-1.62 5.43-4.35 6.18zm-.4-6.07c0-1.6-1-2.25-3.09-2.25h-1.3v4.57h.93c2.32 0 3.45-.6 3.45-2.32zm88.32-6.54v10.67l-7.05-10.67h-4.24v19.2h4.7V10.9l7.15 10.7h4.14V2.38h-4.7zM103.1 4.87a9.72 9.72 0 012.97 7c0 2.75-.97 5.2-2.78 7.07a9.74 9.74 0 01-7.08 3 9.52 9.52 0 01-7.16-3.03 10 10 0 01-2.73-7.13 9.62 9.62 0 012.92-6.94 9.66 9.66 0 017-2.81c2.56 0 5 1 6.86 2.84zm-1.9 6.97a5 5 0 00-4.94-5.06 5.04 5.04 0 00-5.1 5.06c0 3.02 2.4 5.34 5.05 5.34 2.76 0 5-2.21 5-5.34zm-49-6.97a9.72 9.72 0 012.98 7c0 2.75-.97 5.2-2.78 7.07a9.74 9.74 0 01-7.08 3 9.52 9.52 0 01-7.16-3.03 10 10 0 01-2.72-7.13 9.62 9.62 0 012.91-6.94 9.66 9.66 0 017-2.81c2.56 0 5 1 6.86 2.84zm-1.88 6.97a5 5 0 00-4.95-5.06 5.04 5.04 0 00-5.1 5.06c0 3.02 2.4 5.34 5.05 5.34 2.76 0 5-2.21 5-5.34zm35.38-3a6.45 6.45 0 01-3.05 5.7c-1.21.73-2.73.86-4.73.86h-1.35v6.19h-4.7V2.38h6.38c2.02 0 3.56.13 4.86 1.05 1.7 1.2 2.6 3 2.6 5.4zm-4.75.08c0-1.6-1-2.25-3.08-2.25h-1.24v4.57h.86c2.33 0 3.46-.6 3.46-2.32zm-15.13 5.3c0 2.18-.78 3.26-2.43 3.26-1.6 0-2.27-1.1-2.27-3.27V2.38H56.4V14.4c0 4.81 2.62 7.48 6.97 7.48 4.3 0 7.16-2.78 7.16-7.48V2.38h-4.7V14.2z" />
	</g>
</svg>