<svg xmlns="http://www.w3.org/2000/svg" width="340" height="48" fill="none">
<path fill="#8529CD" d="M0 0h340v48H0z"/>
<path fill="#000" fill-opacity=".3" d="M9.242 139.031c7.203-13.319 17.194-24.827 28.025-35.317a364.836 364.836 0 0 1 34.797-29.561c24.641-18.5 51.644-34.529 80.146-46.323 14.62-6.05 29.919-10.798 45.674-12.668 7.99-.948 16.287-1.415 24.26-.082a41.816 41.816 0 0 1 19.464 8.705c11.545 9.304 17.588 23.26 20.375 37.516 1.413 7.227 2.652 14.999 2.017 22.382-.619 7.202-4.137 13.197-10.818 16.261-6.269 2.875-13.498 3.077-20.271 2.865a135.644 135.644 0 0 1-24.777-3.26c-15.776-3.46-31.123-8.871-46.252-14.456a659.245 659.245 0 0 1-87.088-39.54C61 38.037 47.23 30.201 34.21 21.393c-3.3-2.231-6.526-4.575-9.59-7.122-3.024-2.514-6.236-5.223-8.586-8.4C14.899 4.34 13.969 2.54 14.197.58c.233-1.972 1.568-3.513 3.065-4.718 3.083-2.482 7.026-4.153 10.693-5.548 7.144-2.718 14.678-4.214 22.182-5.54a696.662 696.662 0 0 1 25.138-3.97c16.907-2.379 33.885-4.216 50.889-5.743 33.87-3.044 67.836-4.958 101.77-7.129l103-6.589 24.886-1.592c.818-.052.824-1.333 0-1.28l-107.148 6.854c-35.18 2.253-70.391 4.249-105.537 7.024-17.423 1.376-34.828 3.002-52.177 5.117-16.897 2.06-33.974 4.216-50.604 7.915-7.483 1.664-15.047 3.94-21.647 7.938-2.518 1.526-5.186 3.655-5.733 6.724-.58 3.253 1.481 6.134 3.56 8.408 5.177 5.658 11.454 10.322 17.805 14.57 6.821 4.563 13.88 8.79 20.95 12.952a659.611 659.611 0 0 0 87.738 43.201c15.423 6.225 31.084 12.018 46.994 16.88 15.745 4.814 32.319 8.635 48.89 8.046 6.154-.219 12.725-1.235 17.942-4.73 5.537-3.71 8.018-9.756 8.471-16.234.512-7.328-.702-15-2.105-22.176-1.497-7.651-3.85-15.192-7.572-22.066-6.498-12.005-17.422-21.718-30.977-24.629-7.839-1.683-16.022-1.45-23.959-.682-7.91.79-15.741 2.225-23.417 4.291-15.633 4.15-30.597 10.524-45.057 17.7a390.087 390.087 0 0 0-78.703 51.742c-11.88 10.068-23.475 20.747-33.236 32.922a121.525 121.525 0 0 0-12.16 18.148c-.392.726.714 1.372 1.106.646h-.002Z"/>
<path fill="#000" fill-opacity=".3" d="M58.428-67.135c1.767 16.881 6.507 33.536 14.502 48.54 3.874 7.27 8.525 14.41 14.853 19.788a43.092 43.092 0 0 0 20.203 9.526c16.074 2.905 31.843-3.332 45.238-11.81 13.174-8.34 25.078-18.775 35.607-30.246a219.13 219.13 0 0 0 28.507-39.176 236.219 236.219 0 0 0 2.993-5.382c.391-.726-.714-1.373-1.106-.647a222.211 222.211 0 0 1-27.065 39.539A187.441 187.441 0 0 1 158.633-6.26c-12.968 9.176-28.239 17.186-44.58 16.391a42.775 42.775 0 0 1-20.74-6.446C86.388-.688 81.194-7.117 76.983-14.05 68.367-28.24 63.006-44.4 60.52-60.773c-.321-2.114-.592-4.235-.811-6.363-.086-.81-1.366-.82-1.28 0ZM319.529-75.109c-12.982 14.884-19.943 33.862-23.986 52.95-4.496 21.237-5.81 43.086-4.66 64.74 1.159 21.852 4.797 43.54 10.165 64.74 2.636 10.408 5.648 20.743 9.134 30.897 3.35 9.76 7.259 19.377 12.357 28.364 9.081 16.013 22.513 30.313 40.042 36.908a58.52 58.52 0 0 0 6.446 2c.8.199 1.141-1.036.342-1.235-18.07-4.506-32.643-17.639-42.524-33.016-11.16-17.371-17.384-37.64-22.763-57.413-5.668-20.836-9.713-42.153-11.418-63.692-1.687-21.313-1.075-42.86 2.578-63.947 3.329-19.222 9.024-38.674 20.608-54.646a79.79 79.79 0 0 1 4.585-5.745c.539-.618-.363-1.528-.905-.905h-.001ZM113.55 143.751c-6.309-9.256-14.64-16.85-23.4-23.733-9.127-7.17-18.621-13.901-28.21-20.436a635.05 635.05 0 0 0-60.833-36.65 634.365 634.365 0 0 0-35.876-17.54c-.745-.336-1.397.769-.646 1.106a634.575 634.575 0 0 1 92.546 51.375c9.71 6.505 19.266 13.258 28.577 20.322 8.87 6.731 17.544 13.994 24.344 22.883a72.911 72.911 0 0 1 2.394 3.32c.462.677 1.571.037 1.106-.647h-.002Z"/></svg>
