<svg xmlns="http://www.w3.org/2000/svg" width="81" height="80" viewBox="0 0 81 80" fill="none">
<path d="M2.5 68L32.5 68" stroke="#3C454D" stroke-width="2" stroke-linecap="round"/>
<path d="M44.5 68L78.5 68" stroke="#3C454D" stroke-width="2" stroke-linecap="round"/>
<path d="M36.5 68H40.5" stroke="#3C454D" stroke-width="2" stroke-linecap="round"/>
<rect x="10.5" y="56" width="44" height="60" rx="4" transform="rotate(-90 10.5 56)" fill="#F3F5FF"/>
<path d="M32.5001 46H44.5" stroke="#5B96EE" stroke-width="4" stroke-linecap="round"/>
<rect x="23.5" y="33" width="30" height="8" rx="1" stroke="#DDE8F9" stroke-width="2" stroke-linecap="round"/>
<rect x="23.5" y="33" width="30" height="6" rx="1" stroke="#5B96EE" stroke-width="2"/>
<path d="M14.5002 25L66.5 25" stroke="#DDE8F9" stroke-width="2" stroke-linecap="round"/>
<path d="M46.5 54H14.5C12.2909 54 10.5 52.2091 10.5 50V16C10.5 13.7909 12.2909 12 14.5 12H66.5C68.7091 12 70.5 13.7909 70.5 16V23" stroke="#DDE8F9" stroke-width="2" stroke-linecap="round"/>
<path opacity="0.4" d="M67.4454 12C68.4118 12 68.8161 13.2349 68.0367 13.8064L12.0914 54.833C11.4308 55.3174 10.5 54.8457 10.5 54.0266L10.5 13C10.5 12.4477 10.9477 12 11.5 12L67.4454 12Z" fill="#0B135F"/>
<path d="M14.5002 24L66.5 24" stroke="#3C454D" stroke-width="2" stroke-linecap="round"/>
<rect x="63.5" y="17" width="2" height="2" rx="1" stroke="#3C454D" stroke-width="2" stroke-linecap="round"/>
<path d="M46.5 56H14.5C12.2909 56 10.5 54.2091 10.5 52V16C10.5 13.7909 12.2909 12 14.5 12H66.5C68.7091 12 70.5 13.7909 70.5 16L70.5 27" stroke="#3C454D" stroke-width="2" stroke-linecap="round"/>
<path d="M67.2246 31.7471L67.0825 34.1145" stroke="#5B96EE" stroke-width="2" stroke-linecap="round"/>
<path d="M75.4902 36.5195L73.511 37.8263" stroke="#5B96EE" stroke-width="2" stroke-linecap="round"/>
<path d="M70.5633 35.5115L72.1543 32.7559" stroke="#5B96EE" stroke-width="2" stroke-linecap="round"/>
<path d="M61.625 61.876C68.6666 61.876 74.375 56.1676 74.375 49.126C74.375 42.0843 68.6666 36.376 61.625 36.376C54.5834 36.376 48.875 42.0843 48.875 49.126C48.875 56.1676 54.5834 61.876 61.625 61.876Z" fill="white" stroke="#3C454D" stroke-width="2" stroke-linejoin="round"/>
<path d="M70.75 58.25L75.25 62.75" stroke="#3C454D" stroke-width="2" stroke-linecap="round"/>
<path d="M62 50.9792V49.3125C63.3807 49.3125 64.5 48.1932 64.5 46.8125C64.5 45.4318 63.3807 44.3125 62 44.3125C60.6193 44.3125 59.5 45.4318 59.5 46.8125" stroke="#5B96EE" stroke-width="2" stroke-linecap="round" stroke-linejoin="round"/>
<path d="M61.999 52.8535C62.4591 52.8537 62.832 53.2274 62.832 53.6875C62.8319 54.1475 62.459 54.5203 61.999 54.5205C61.5389 54.5205 61.1652 54.1476 61.165 53.6875C61.165 53.2273 61.5388 52.8535 61.999 52.8535Z" fill="#5B96EE" stroke="#5B96EE" stroke-width="0.416667"/>
</svg>