<svg xmlns="http://www.w3.org/2000/svg" width="40" height="40" viewBox="0 0 40 40" fill="none">
<path d="M6 34L36 34" stroke="#3C454D" stroke-linecap="round"/>
<path d="M2 34H4" stroke="#3C454D" stroke-linecap="round"/>
<rect x="8" y="34" width="22" height="30" rx="2" transform="rotate(-90 8 34)" fill="#F3F5FF"/>
<path d="M20 29H26" stroke="#5B96EE" stroke-width="2" stroke-linecap="round"/>
<rect x="15.5" y="22.5" width="15" height="4" rx="0.5" stroke="#DDE8F9" stroke-linecap="round"/>
<rect x="15.5" y="22.5" width="15" height="3" rx="0.5" stroke="#5B96EE"/>
<path d="M16 18.5L36 18.5" stroke="#DDE8F9" stroke-linecap="round"/>
<path d="M16.0001 18L36 18" stroke="#3C454D" stroke-linecap="round"/>
<rect x="34.5" y="14.5" width="1" height="1" rx="0.5" stroke="#3C454D" stroke-linecap="round"/>
<path d="M38 15L38 17.5M38 28.5V31C38 32.1046 37.1046 33 36 33H10C8.89543 33 8 32.1046 8 31V28" stroke="#DDE8F9" stroke-linecap="round"/>
<rect opacity="0.4" x="8" y="34" width="22" height="30" rx="2" transform="rotate(-90 8 34)" fill="#0B135F"/>
<path d="M8 25V32C8 33.1046 8.89543 34 10 34H36C37.1046 34 38 33.1046 38 32V26.5M38 24V14C38 12.8954 37.1046 12 36 12H16" stroke="#3C454D" stroke-linecap="round"/>
<g clip-path="url(#clip0_2817_15108)">
<path d="M8.00065 22.6668C11.6826 22.6668 14.6673 19.6821 14.6673 16.0002C14.6673 12.3183 11.6826 9.3335 8.00065 9.3335C4.31875 9.3335 1.33398 12.3183 1.33398 16.0002C1.33398 19.6821 4.31875 22.6668 8.00065 22.6668Z" fill="white" stroke="#3C454D" stroke-linecap="round" stroke-linejoin="round"/>
<path d="M4.66732 15.9998C4.66732 17.8408 6.1597 19.3332 8.00065 19.3332C9.8416 19.3332 11.334 17.8408 11.334 15.9998C11.334 14.1589 9.8416 12.6665 8.00065 12.6665C6.1597 12.6665 4.66732 14.1589 4.66732 15.9998Z" stroke="#5B96EE"/>
<path d="M10.2227 13.7778L5.77821 18.2223" stroke="#5B96EE" stroke-linecap="round" stroke-linejoin="round"/>
</g>
<defs>
<clipPath id="clip0_2817_15108">
<rect width="16" height="16" fill="white" transform="translate(0 8)"/>
</clipPath>
</defs>
</svg>