<svg xmlns="http://www.w3.org/2000/svg" viewBox="0 0 512 512"><path fill="#F0F0F0" d="M256 512c141.385 0 256-114.615 256-256S397.385 0 256 0 0 114.615 0 256s114.615 256 256 256Z"/><path fill="#ACABB1" d="M457.179 205.74h-84.22c0-15.368-12.458-27.826-27.826-27.826l-22.261 44.521s23.745 66.783 23.003 66.783H373.7c15.369 0 27.826-12.457 27.826-27.826 15.369 0 27.826-12.457 27.826-27.825h-.927c15.368-.001 28.754-12.459 28.754-27.827ZM55 205.74h84.22c0-15.368 12.458-27.826 27.826-27.826l22.261 44.521s-23.745 66.783-23.003 66.783h-27.826c-15.368 0-27.825-12.457-27.825-27.826-15.369 0-27.826-12.457-27.826-27.825h.927C68.385 233.566 55 221.108 55 205.74Z"/><path fill="#FFDA44" d="M345.133 356v11.13H167.046V356h-44.522v44.522h44.522v11.13h178.087v-11.13h44.522V356h-44.522Z"/><path fill="#0052B4" d="M167.046 177.913v111.303c0 68.159 89.043 89.044 89.043 89.044s89.043-20.885 89.043-89.044V177.913l-89.043-11.13-89.043 11.13Z"/><path fill="#D80027" d="M167.047 222.439h178.086v66.783H167.047v-66.783Z"/><path fill="#FFDA44" d="M300.61 122.261v16.696l-11.13 5.566-11.13-11.132V100h-44.521v33.391l-11.13 11.132-11.132-5.566v-16.696h-44.521v55.652h178.087v-55.652H300.61Z"/></svg>
