<svg xmlns="http://www.w3.org/2000/svg" viewBox="0 0 512 512"><path fill="#078930" fill-rule="evenodd" d="M469.029 398.015 42.975 113.979C88.88 45.259 167.155 0 256 0c141.385 0 256 114.615 256 256 0 52.537-15.826 101.378-42.971 142.015Z" clip-rule="evenodd"/><path fill="#FCDD09" fill-rule="evenodd" d="m42.975 113.979 426.054 284.036C423.124 466.739 344.848 512 256 512 114.615 512 0 397.385 0 256c0-52.54 15.828-101.383 42.975-142.021Z" clip-rule="evenodd"/><path fill="#DA121A" d="m287.14 266.114 50.385-36.605h-62.282L256 170.274l-19.243 59.232h-62.282l50.39 36.604-19.248 59.235L256 288.74l50.386 36.608-19.247-59.234"/></svg>
