<svg xmlns="http://www.w3.org/2000/svg" viewBox="0 0 512 512"><path fill="#FFDA44" d="M256.001.001c141.384 0 256 114.616 256 256 0 141.384-114.616 256-256 256-141.384 0-256-114.616-256-256"/><path fill="#D80027" d="M250.436 113.779H468.88a257.395 257.395 0 0 0-51.987-56.889H250.436v56.889Zm0 113.778h259.985a254.516 254.516 0 0 0-13.006-56.888H250.436v56.888ZM14.588 341.335h482.825a254.603 254.603 0 0 0 13.007-56.89H1.582a254.385 254.385 0 0 0 13.006 56.89Zm80.52 113.777h321.784a257.43 257.43 0 0 0 51.987-56.889H43.123a257.434 257.434 0 0 0 51.985 56.889Z"/><path fill="#4A1F63" d="M256.001.001C114.616.001-.001 114.617 0 256.003c58.426-.002 114.616 0 256 0L256.001.001Z"/><path fill="#F0F0F0" d="M211.479 133.566v22.261h-11.13v-22.261h-22.261v22.261h-11.13v-44.522h-44.522v44.522h-11.131v-22.261h-22.26v22.261H77.914v-22.261H55.652v66.782H233.74v-66.782h-22.261Z"/></svg>
