<svg xmlns="http://www.w3.org/2000/svg" viewBox="0 0 512 512"><path fill="#209ECC" d="M230.612 2.35C104.486 15.67.972 122.348.972 251.99c0 72.424 30.703 137.68 79.772 183.487 112.905-24.708 227.93-28.26 345.898-3.23C473.746 386.64 503.03 322.73 503.03 251.99c0-129.64-103.517-236.32-229.643-249.64-23.998 19.638-16.74 22.025-42.776 0"/><path fill="#FD391F" d="M252 251.99 43.063 391.314C88.093 458.7 164.87 503.02 252 503.02c87.13 0 163.906-44.32 208.937-111.707L252 251.99"/><path fill="#FFEF2D" d="M252 .962c-9.546 0-13.675.512-22.966 1.545L252 253.213 274.966 2.507C265.676 1.474 261.546.962 252 .962zm0 252.25 218.674-124.605a250.74 250.74 0 0 0-18.094-27.582L252 253.213zm0 0 250.45 15.196c.356-5.417.58-10.9.58-16.417 0-5.26-.158-10.453-.48-15.614L252 253.213zm0 0L1.45 236.376c-.322 5.16-.48 10.356-.48 15.616 0 5.517.224 11 .58 16.418L252 253.213zm0 0L51.42 101.026a250.596 250.596 0 0 0-18.094 27.582L252 253.213z"/></svg>
