<svg xmlns="http://www.w3.org/2000/svg" viewBox="0 0 512 512"><path fill="#496E2D" d="M437.027 437.027c96.011-96.011 99.802-249.296 11.413-349.855L256 255.999 87.172 448.44c100.559 88.389 253.843 84.598 349.855-11.413Z"/><path fill="#0052B4" d="M74.974 74.974c96.011-96.011 249.296-99.802 349.855-11.413L256 256.003 63.562 424.829C-24.828 324.27-21.036 170.985 74.974 74.974Z"/><path fill="#FFDA44" d="M424.827 63.56 63.56 424.828a258.413 258.413 0 0 0 11.413 12.198 260.294 260.294 0 0 0 12.201 11.414L448.439 87.172a259.22 259.22 0 0 0-11.414-12.201 259.936 259.936 0 0 0-12.198-11.411Z"/><path fill="#F0F0F0" d="m107.861 89.036 5.527 17.007h17.881l-14.466 10.509 5.525 17.007-14.467-10.511-14.467 10.511 5.527-17.007-14.467-10.509h17.882l5.525-17.007Zm91.339 0 5.527 17.007h17.88l-14.466 10.509 5.526 17.007-14.467-10.511-14.467 10.511 5.527-17.007-14.467-10.509h17.881l5.526-17.007Zm-91.339 89.047 5.527 17.007h17.881l-14.466 10.51 5.525 17.007-14.467-10.511-14.467 10.511 5.527-17.007-14.467-10.51h17.882l5.525-17.007Zm91.339 0 5.527 17.007h17.88l-14.466 10.51 5.526 17.007-14.467-10.511-14.467 10.511 5.527-17.007-14.467-10.51h17.881l5.526-17.007Zm-45.669-44.524 5.527 17.007h17.88l-14.466 10.51 5.526 17.007-14.467-10.511-14.467 10.511 5.526-17.007-14.467-10.51h17.882l5.526-17.007Z"/></svg>
