<svg width="32" height="32" viewBox="0 0 32 32" fill="none" xmlns="http://www.w3.org/2000/svg">
    <g clip-path="url(#clip0_5702_3808)">
        <path fill-rule="evenodd" clip-rule="evenodd"
            d="M-0.0710449 -0.0712891C10.5956 -0.0712891 21.2623 -0.0712891 31.929 -0.0712891C31.929 10.5954 31.929 21.262 31.929 31.9287C21.2623 31.9287 10.5956 31.9287 -0.0710449 31.9287C-0.0710449 21.262 -0.0710449 10.5954 -0.0710449 -0.0712891Z"
            fill="#F9F8F7" />
        <path fill-rule="evenodd" clip-rule="evenodd"
            d="M16.9956 0.782319C16.9956 0.877134 16.9956 0.971948 16.9956 1.06676C15.6584 1.04365 14.331 1.13847 13.0133 1.35121C12.8702 1.28896 12.8702 1.19415 13.0133 1.06676C14.3243 0.814583 15.6517 0.719769 16.9956 0.782319Z"
            fill="#6D5F30" />
        <path fill-rule="evenodd" clip-rule="evenodd"
            d="M16.9956 0.782227C23.0457 1.47095 27.3835 4.55244 30.0089 10.0267C32.4087 16.8511 30.9627 22.7058 25.6712 27.5911C24.7382 28.2697 23.7901 28.9097 22.8267 29.5111C21.4952 30.0814 20.1205 30.5081 18.7023 30.7911C18.3059 30.6522 17.8792 30.6048 17.4223 30.6489C24.5587 29.5578 28.9438 25.4807 30.5778 18.4178C31.3632 11.7169 28.9218 6.57319 23.2534 2.98667C21.2694 1.95353 19.1834 1.31352 16.9956 1.06667C16.9956 0.971856 16.9956 0.877042 16.9956 0.782227Z"
            fill="#776442" />
        <path fill-rule="evenodd" clip-rule="evenodd"
            d="M13.0133 1.06689C12.8702 1.19428 12.8702 1.28909 13.0133 1.35134C7.00639 2.92561 3.1901 6.71821 1.56441 12.7291C0.905623 16.1343 1.30859 19.4055 2.7733 22.5425C2.80705 22.7261 2.75965 22.8683 2.63108 22.9691C-0.294349 16.63 0.487873 10.7989 4.97775 5.47578C7.21011 3.20964 9.88862 1.74002 13.0133 1.06689Z"
            fill="#776641" />
        <path fill-rule="evenodd" clip-rule="evenodd"
            d="M16.9955 1.06687C19.1833 1.31372 21.2693 1.95373 23.2533 2.98687C28.9217 6.57339 31.3631 11.7171 30.5777 18.418C28.9437 25.4809 24.5586 29.558 17.4222 30.6491C16.3792 30.6491 15.3362 30.6491 14.2933 30.6491C9.16202 29.785 5.32202 27.0827 2.77327 22.5424C1.30856 19.4054 0.905594 16.1343 1.56438 12.7291C3.19007 6.71819 7.00636 2.92559 13.0133 1.35132C14.331 1.13858 15.6583 1.04376 16.9955 1.06687Z"
            fill="#F1E9D5" />
        <path fill-rule="evenodd" clip-rule="evenodd"
            d="M21.5466 24.1065C21.1487 24.1918 20.7694 24.3341 20.4089 24.5332C20.3255 24.5035 20.2544 24.456 20.1955 24.391C20.1248 24.0624 20.1012 23.7306 20.1244 23.3954C20.093 22.369 19.9033 21.3734 19.5555 20.4087C19.5183 20.1985 19.5656 20.0089 19.6977 19.8398C20.1223 20.1678 20.3594 20.5945 20.4089 21.1198C20.6398 21.0999 20.8057 21.1948 20.9066 21.4043C21.0262 21.8324 21.1447 22.259 21.2622 22.6843C21.2778 22.9508 21.1831 23.1641 20.9777 23.3243C21.2056 23.5578 21.3952 23.8185 21.5466 24.1065Z"
            fill="#F8F8F4" />
        <path fill-rule="evenodd" clip-rule="evenodd"
            d="M11.8756 13.2977C12.0242 13.6694 12.0953 14.0487 12.0889 14.4355C11.6367 13.8569 11.4945 13.9517 11.6623 14.7199C12.1723 15.5151 12.7886 16.2262 13.5111 16.8533C13.5511 17.1953 13.4563 17.1953 13.2267 16.8533C13.0751 18.7403 13.8573 19.2854 15.5734 18.4888C15.8133 18.2167 15.8844 17.9086 15.7867 17.5644C15.3515 17.1215 14.8537 16.7659 14.2934 16.4977C15.146 16.4856 16.0229 16.4145 16.9245 16.2844C17.222 16.6267 17.5064 16.6267 17.7778 16.2844C17.8656 16.4193 17.842 16.5378 17.7067 16.6399C17.1856 16.7824 16.7352 17.0433 16.3556 17.4222C16.203 17.9342 16.3215 18.3608 16.7111 18.7022C17.328 18.927 17.9205 18.8796 18.4889 18.5599C18.7449 18.0674 18.9108 17.5459 18.9867 16.9955C18.7729 16.9478 18.5834 16.9478 18.4178 16.9955C19.0452 16.3215 19.6615 15.6577 20.2667 15.0044C20.3007 15.2841 20.2533 15.545 20.1245 15.7866C20.209 15.8526 20.3038 15.8763 20.4089 15.8577C20.3229 17.265 20.8918 18.1657 22.1156 18.5599C21.233 17.7783 20.6641 16.8301 20.4089 15.7155C20.5045 15.6064 20.623 15.5115 20.7645 15.431C20.7697 15.0792 20.8882 14.7947 21.12 14.5777C21.0966 15.0069 21.1203 15.4336 21.1911 15.8577C21.6501 16.9181 22.219 17.9137 22.8978 18.8444C22.9639 19.5741 23.1062 20.2852 23.3245 20.9777C23.5995 19.9527 23.718 18.9098 23.68 17.8488C23.8645 17.5827 24.0067 17.2983 24.1067 16.9955C24.2245 18.4746 24.106 19.9443 23.7511 21.4044C23.4722 21.8258 23.1404 22.2049 22.7556 22.5422C22.731 21.7104 22.6599 20.9045 22.5423 20.1244C21.9793 19.3006 21.292 18.5895 20.48 17.991C20.2747 17.6277 20.1087 17.2485 19.9823 16.8533C19.7308 17.7156 19.8494 18.5215 20.3378 19.271C20.9821 19.794 21.4799 20.4102 21.8311 21.1199C21.8311 21.4517 21.8311 21.7837 21.8311 22.1155C21.7303 22.2441 21.5881 22.2914 21.4045 22.2577C21.3203 21.8039 21.1543 21.3772 20.9067 20.9777C20.3024 20.2908 19.8046 19.5323 19.4134 18.7022C19.366 18.9392 19.3185 19.1762 19.2711 19.4133C19.245 19.798 19.3398 20.1298 19.5556 20.4088C19.9033 21.3735 20.093 22.3691 20.1245 23.3955C19.9845 23.7583 19.8423 24.1376 19.6978 24.5333C18.8913 25.1868 18.7253 25.0921 19.2 24.2488C19.5106 22.9006 19.4395 21.5732 18.9867 20.2666C18.7557 20.2467 18.5899 20.3415 18.4889 20.551C18.3184 21.0099 18.2473 21.4839 18.2756 21.9733C18.1958 22.5889 18.0773 23.2052 17.92 23.8222C17.8954 23.0377 17.8243 22.2792 17.7067 21.5466C17.3501 22.4028 16.9472 23.2561 16.4978 24.1066C16.3344 24.518 16.2633 24.9447 16.2845 25.3866C16.1423 25.3866 16 25.3866 15.8578 25.3866C15.7578 24.4304 15.426 23.5771 14.8623 22.8266C14.5297 21.2944 14.3402 21.2471 14.2934 22.6844C14.2264 23.5229 14.416 24.2814 14.8623 24.9599C14.7126 25.2097 14.4755 25.3045 14.1511 25.2444C13.9288 23.93 13.8103 22.6025 13.7956 21.2622C13.6899 20.8339 13.5003 20.4546 13.2267 20.1244C12.6045 21.6846 12.5808 23.249 13.1556 24.8177C12.5396 24.8446 12.184 24.5126 12.0889 23.8222C11.9941 23.1584 11.9941 22.4948 12.0889 21.831C12.5782 20.8389 12.7678 19.7958 12.6578 18.7022C12.3511 19.5293 11.877 20.2404 11.2356 20.8355C10.999 21.2375 10.8331 21.6642 10.7378 22.1155C10.6292 22.6276 10.5817 23.149 10.5956 23.6799C10.05 23.4326 9.86042 23.0533 10.0267 22.5422C10.2063 21.8999 10.3722 21.2361 10.5245 20.551C10.8587 20.1852 11.1668 19.8059 11.4489 19.4133C12.2297 18.7059 12.443 17.8525 12.0889 16.8533C11.9859 17.2016 11.8436 17.5335 11.6623 17.8488C11.0887 18.47 10.4724 19.0389 9.81336 19.5555C9.65379 19.8267 9.53528 20.1111 9.45781 20.4088C9.34393 21.1448 9.32022 21.9033 9.3867 22.6844C8.33519 21.7861 7.83741 20.6483 7.89336 19.271C7.86415 18.3639 7.91155 17.4633 8.03559 16.5688C8.28103 16.2215 8.49437 15.8422 8.67559 15.431C9.29188 14.9095 9.90818 14.3881 10.5245 13.8666C10.6223 13.7483 10.5986 13.6535 10.4534 13.5822C10.3086 13.6806 10.1664 13.7755 10.0267 13.8666C10.2462 13.5213 10.3884 13.1421 10.4534 12.7288C10.5956 12.7288 10.7378 12.7288 10.88 12.7288C10.9508 13.1536 11.0219 13.5803 11.0934 14.0088C11.3346 13.886 11.5006 13.6964 11.5911 13.4399C11.1444 12.8264 11.1444 12.2575 11.5911 11.7333C11.7172 11.5518 11.8594 11.5518 12.0178 11.7333C11.516 12.2268 11.4686 12.7482 11.8756 13.2977Z"
            fill="#7D6038" />
        <path fill-rule="evenodd" clip-rule="evenodd"
            d="M11.4489 19.4133C11.1668 19.8059 10.8586 20.1852 10.5244 20.551C10.3722 21.2361 10.2062 21.8999 10.0267 22.5421C9.88443 22.5421 9.74221 22.5421 9.59999 22.5421C9.54086 21.832 9.49345 21.1209 9.45776 20.4088C9.81355 20.1713 10.098 19.8633 10.3111 19.4844C10.4459 19.4157 10.5881 19.3921 10.7378 19.4133C10.7378 19.271 10.7378 19.1288 10.7378 18.9866C11.0066 19.0155 11.22 18.9207 11.3778 18.7021C11.448 18.9345 11.4717 19.1716 11.4489 19.4133Z"
            fill="#F6F5F3" />
        <path fill-rule="evenodd" clip-rule="evenodd"
            d="M8.03546 16.5689C7.91143 17.4633 7.86403 18.364 7.89324 19.2711C7.89324 19.7926 7.89324 20.314 7.89324 20.8356C7.70362 20.8356 7.51398 20.8356 7.32435 20.8356C7.32435 20.7882 7.32435 20.7407 7.32435 20.6933C7.42005 19.7013 7.37265 18.7058 7.18213 17.7067C7.48811 17.1861 7.63033 16.6172 7.6088 16C7.75102 16 7.89324 16 8.03546 16C8.03546 16.1896 8.03546 16.3793 8.03546 16.5689Z"
            fill="#F4F3EF" />
        <path fill-rule="evenodd" clip-rule="evenodd"
            d="M25.8134 13.582C26.0933 14.0807 26.2355 14.6497 26.2401 15.2887C26.1217 16.2332 26.0744 17.1814 26.0979 18.1331C26.2874 18.1331 26.4772 18.1331 26.6667 18.1331C26.4328 18.5395 26.2195 18.9661 26.0267 19.4131C26.2278 20.3218 25.9198 20.5589 25.1023 20.1243C25.9334 18.0168 26.1705 15.836 25.8134 13.582Z"
            fill="#7D623C" />
        <path fill-rule="evenodd" clip-rule="evenodd"
            d="M28.2311 10.0269C28.3247 10.1546 28.4194 10.2969 28.5156 10.4535C28.7296 10.0794 28.8244 10.1268 28.8 10.5957C28.9896 10.5957 29.1793 10.5957 29.3689 10.5957C29.2681 10.7243 29.1259 10.7717 28.9423 10.738C29.3105 11.3123 29.5476 11.9523 29.6534 12.658C29.6551 12.9389 29.6076 13.2471 29.5111 13.5824C29.7007 13.5824 29.8905 13.5824 30.08 13.5824C30.1036 15.0528 30.08 16.5224 30.0089 17.9913C29.8193 18.0862 29.6771 18.2284 29.5823 18.418C29.5349 18.3706 29.4874 18.3231 29.44 18.2757C29.4156 18.9445 29.3445 19.6081 29.2267 20.2669C29.0232 20.3347 28.8336 20.4294 28.6578 20.5513C28.8531 20.8343 28.9953 21.1425 29.0845 21.4757C28.931 21.6117 28.7652 21.7302 28.5867 21.8313C28.4918 22.2106 28.3971 22.5898 28.3023 22.9691C28.0606 23.0979 27.7998 23.1453 27.52 23.1113C27.2165 23.6287 27.0743 24.1976 27.0934 24.818C26.6695 24.7811 26.4089 24.9707 26.3111 25.3869C26.2638 25.3395 26.2163 25.292 26.1689 25.2446C25.8798 25.7472 25.4769 26.1264 24.96 26.3824C24.7281 26.1607 24.6096 25.8762 24.6045 25.5291C24.3276 25.4423 24.0667 25.3239 23.8223 25.1735C23.9171 25.0313 24.0118 24.8891 24.1067 24.7469C23.7063 24.5194 23.327 24.2587 22.9689 23.9646C22.7956 24.0731 22.6533 24.2154 22.5423 24.3913C22.4 24.3439 22.3052 24.2491 22.2578 24.1069C22.5846 23.6745 23.0113 23.3663 23.5378 23.1824C23.4026 23.0803 23.379 22.9618 23.4667 22.8269C24.0872 22.2823 24.6086 21.666 25.0311 20.978C25.1015 20.6974 25.1253 20.4129 25.1023 20.1246C25.9198 20.5593 26.2278 20.3222 26.0267 19.4135C26.2194 18.9665 26.4327 18.5399 26.6667 18.1335C26.9435 17.4372 27.0383 16.6787 26.9511 15.858C26.8089 15.858 26.6667 15.858 26.5245 15.858C26.3663 15.0988 26.3663 14.3403 26.5245 13.5824C26.6078 13.5526 26.6789 13.5052 26.7378 13.4402C26.7624 14.0402 26.9046 14.6091 27.1645 15.1469C27.2767 13.7944 27.3953 12.4433 27.52 11.0935C27.8309 10.7932 28.068 10.4376 28.2311 10.0269Z"
            fill="#825D30" />
        <path fill-rule="evenodd" clip-rule="evenodd"
            d="M10.7378 14.2935C10.912 14.3862 11.0068 14.5522 11.0222 14.7912C10.9695 15.1974 10.8983 15.6003 10.8089 16.0001C10.3015 17.0294 9.73262 18.0249 9.10224 18.9868C9.05483 19.5083 9.00742 20.0297 8.96001 20.5512C8.91883 20.7708 8.82401 20.9604 8.67557 21.1201C8.06573 19.2958 8.20796 17.5418 9.10224 15.8579C9.6444 15.3177 10.1896 14.7962 10.7378 14.2935Z"
            fill="#F5F2EB" />
        <path fill-rule="evenodd" clip-rule="evenodd"
            d="M27.9467 15.8576C28.7514 15.7408 28.9885 16.049 28.6579 16.782C27.8935 16.8904 27.6565 16.5822 27.9467 15.8576Z"
            fill="#F2ECDA" />
        <path fill-rule="evenodd" clip-rule="evenodd"
            d="M27.9466 9.6001C28.0414 9.74232 28.1362 9.88454 28.231 10.0268C28.0679 10.4375 27.8308 10.7931 27.5199 11.0934C27.3952 12.4432 27.2766 13.7943 27.1644 15.1468C26.9045 14.609 26.7623 14.0401 26.7377 13.4401C26.6788 13.5052 26.6077 13.5526 26.5244 13.5823C26.3662 14.3402 26.3662 15.0987 26.5244 15.8579C26.6666 15.8579 26.8088 15.8579 26.951 15.8579C27.0382 16.6786 26.9434 17.4371 26.6666 18.1334C26.477 18.1334 26.2873 18.1334 26.0977 18.1334C26.0742 17.1817 26.1216 16.2335 26.2399 15.289C26.2354 14.65 26.0931 14.081 25.8133 13.5823C25.8133 13.5349 25.8133 13.4875 25.8133 13.4401C25.7999 12.923 25.705 12.4252 25.5288 11.9468C25.8165 11.1749 26.3618 10.8667 27.1644 11.0223C27.4521 10.6996 27.5706 10.3203 27.5199 9.88454C27.6621 9.78972 27.8044 9.69492 27.9466 9.6001Z"
            fill="#7E5F2F" />
        <path fill-rule="evenodd" clip-rule="evenodd"
            d="M3.05787 9.74219C3.14567 9.75793 3.21679 9.80533 3.2712 9.88441C3.3505 10.3728 3.46903 10.8469 3.62676 11.3066C3.81638 11.3066 4.00602 11.3066 4.19564 11.3066C4.33063 12.0519 4.37804 12.8104 4.33787 13.5822C4.57491 13.5822 4.81194 13.5822 5.04898 13.5822C5.01311 14.296 4.942 15.0071 4.83564 15.7155C4.74082 15.3362 4.64602 15.3362 4.5512 15.7155C4.47739 17.2339 4.38257 18.751 4.26676 20.2666C3.9398 21.0537 3.67906 21.8595 3.48453 22.6844C3.62676 22.6844 3.76898 22.6844 3.9112 22.6844C4.04551 21.9151 4.30625 21.204 4.69342 20.5511C4.72434 19.8324 4.79545 19.1213 4.90676 18.4177C4.83754 18.2832 4.79012 18.141 4.76453 17.9911C4.89154 17.2763 5.03376 16.5652 5.1912 15.8577C5.28841 15.8061 5.38321 15.7588 5.47564 15.7155C5.7583 16.9881 6.06644 18.2681 6.40009 19.5555C6.55895 19.7616 6.65377 19.9987 6.68453 20.2666C6.77994 20.3736 6.89845 20.4211 7.04009 20.4089C7.13491 20.5037 7.22971 20.5984 7.32453 20.6933C7.32453 20.7407 7.32453 20.7882 7.32453 20.8355C7.8511 21.6436 8.41999 22.4022 9.0312 23.1111C9.16253 23.515 9.39957 23.8469 9.74231 24.1066C9.58417 24.2154 9.48935 24.3577 9.45787 24.5333C8.88144 25.3002 8.35995 26.1061 7.89342 26.9511C7.72772 26.8094 7.6329 26.6198 7.60898 26.3822C7.75276 26.1195 7.89499 25.8588 8.03564 25.6C7.90461 25.3502 7.73868 25.3265 7.53787 25.5289C7.31532 25.7354 7.12568 25.9724 6.96898 26.24C6.81441 25.7166 6.50627 25.3137 6.04453 25.0311C6.24431 24.8506 6.48135 24.7795 6.75564 24.8177C6.83041 24.1191 6.7356 23.4555 6.4712 22.8266C5.71132 22.5376 4.95281 22.5139 4.19564 22.7555C3.99542 23.0815 4.01913 23.3897 4.26676 23.68C4.25576 23.5039 4.27947 23.3617 4.33787 23.2533C4.8095 23.3971 5.30728 23.5868 5.8312 23.8222C5.8754 24.1146 5.94651 24.399 6.04453 24.6755C5.52975 24.8014 5.34011 25.0858 5.47564 25.5289C1.81167 21.4587 0.745009 16.7654 2.27564 11.4489C2.52354 10.8698 2.78427 10.3009 3.05787 9.74219Z"
            fill="#815E32" />
        <path fill-rule="evenodd" clip-rule="evenodd"
            d="M3.4844 15.8579C4.34552 15.7785 4.53515 16.0867 4.05328 16.7823C3.3522 16.8431 3.16257 16.5349 3.4844 15.8579Z"
            fill="#F3F1E2" />
        <path fill-rule="evenodd" clip-rule="evenodd"
            d="M5.61771 10.7378C5.61771 10.7852 5.61771 10.8326 5.61771 10.88C5.61771 11.0222 5.61771 11.1645 5.61771 11.3067C5.33326 11.3067 5.04882 11.3067 4.76438 11.3067C4.69673 12.059 4.81525 12.7701 5.11993 13.44C5.47 12.7583 5.73075 12.0472 5.90215 11.3067C6.10567 11.3745 6.2953 11.4693 6.47104 11.5911C6.3369 12.0036 6.09986 12.3354 5.75993 12.5867C5.83758 12.7676 5.88499 12.9572 5.90215 13.1556C5.68622 13.998 5.54399 14.8513 5.47549 15.7156C5.38306 15.7588 5.28825 15.8062 5.19104 15.8578C5.0336 16.5652 4.89138 17.2763 4.76438 17.9911C4.78996 18.141 4.83738 18.2833 4.9066 18.4178C4.79529 19.1214 4.72418 19.8325 4.69326 20.5511C4.30609 21.2041 4.04536 21.9152 3.91104 22.6845C3.76882 22.6845 3.6266 22.6845 3.48438 22.6845C3.67891 21.8596 3.93964 21.0537 4.2666 20.2667C4.38241 18.751 4.47723 17.2339 4.55104 15.7156C4.64586 15.3363 4.74067 15.3363 4.83549 15.7156C4.94184 15.0072 5.01295 14.2961 5.04882 13.5822C4.81178 13.5822 4.57475 13.5822 4.33771 13.5822C4.37789 12.8105 4.33047 12.0519 4.19549 11.3067C4.19549 11.1171 4.19549 10.9274 4.19549 10.7378C4.66956 10.7378 5.14364 10.7378 5.61771 10.7378Z"
            fill="#825E2A" />
        <path fill-rule="evenodd" clip-rule="evenodd"
            d="M4.76453 7.04004C4.60329 7.52338 4.41367 7.99746 4.19564 8.46226C4.52008 8.40214 4.75712 8.49696 4.90675 8.74671C4.05353 8.67588 3.74538 9.05514 3.98231 9.88448C4.32793 10.3478 4.58867 10.3478 4.76453 9.88448C4.34794 9.72113 4.27683 9.48409 4.55119 9.17337C5.1768 9.50722 5.53236 10.0287 5.61786 10.7378C5.14379 10.7378 4.66971 10.7378 4.19564 10.7378C4.19564 10.9274 4.19564 11.1171 4.19564 11.3067C4.00601 11.3067 3.81638 11.3067 3.62675 11.3067C3.46903 10.8469 3.3505 10.3728 3.27119 9.88448C3.21678 9.80541 3.14567 9.75801 3.05786 9.74226C3.52209 8.76431 4.09098 7.86358 4.76453 7.04004Z"
            fill="#7D6139" />
        <path fill-rule="evenodd" clip-rule="evenodd"
            d="M4.90671 8.74664C5.01914 8.87483 5.16136 8.96963 5.33338 9.03108C5.56561 9.58989 5.85006 10.1114 6.18671 10.5955C6.34373 10.3269 6.53335 10.0899 6.7556 9.88442C6.87053 9.92817 6.96534 9.99928 7.04005 10.0978C6.82094 10.5124 6.5839 10.9154 6.32893 11.3066C6.11152 11.127 5.87448 10.9848 5.61782 10.88C5.61782 10.8326 5.61782 10.7852 5.61782 10.7378C5.53232 10.0286 5.17676 9.50716 4.55116 9.17331C4.2768 9.48402 4.34791 9.72106 4.76449 9.88442C4.58863 10.3477 4.3279 10.3477 3.98227 9.88442C3.74534 9.05508 4.05349 8.67581 4.90671 8.74664Z"
            fill="#F4EEDD" />
        <path fill-rule="evenodd" clip-rule="evenodd"
            d="M6.47116 6.75573C6.86772 7.42893 7.17586 8.14004 7.39561 8.88907C7.58621 8.69454 7.77585 8.50491 7.9645 8.32018C8.11508 8.33868 8.23359 8.40979 8.32005 8.53351C7.96151 8.84922 7.65336 9.20477 7.39561 9.60018C6.75541 9.04102 6.42356 8.32991 6.40005 7.46684C6.24655 7.19752 6.05693 7.15012 5.83116 7.32462C5.91576 7.58776 5.98687 7.87221 6.0445 8.17796C5.64377 8.15557 5.35933 7.96593 5.19116 7.60907C5.30884 6.87659 5.7355 6.59215 6.47116 6.75573Z"
            fill="#F3EBD9" />
        <path fill-rule="evenodd" clip-rule="evenodd"
            d="M25.8133 13.4402C25.8133 13.4876 25.8133 13.535 25.8133 13.5824C26.1705 15.8363 25.9334 18.0172 25.1022 20.1246C24.3234 21.8048 23.1381 23.1322 21.5467 24.1068C21.3952 23.8188 21.2056 23.5581 20.9778 23.3246C21.1831 23.1645 21.2779 22.9511 21.2622 22.6846C21.1447 22.2594 21.0263 21.8327 20.9067 21.4046C20.8057 21.1951 20.6399 21.1002 20.4089 21.1202C20.3594 20.5948 20.1223 20.1681 19.6978 19.8402C19.5657 20.0093 19.5183 20.1988 19.5556 20.409C19.3398 20.13 19.2449 19.7982 19.2711 19.4135C19.3185 19.1764 19.366 18.9395 19.4133 18.7024C19.8046 19.5325 20.3024 20.291 20.9067 20.9779C21.1543 21.3774 21.3202 21.8041 21.4044 22.2579C21.381 22.7344 21.4047 23.2084 21.4756 23.6802C21.7452 23.5123 21.9585 23.299 22.1156 23.0402C22.0459 22.7065 21.951 22.3983 21.8311 22.1157C21.8311 21.7839 21.8311 21.452 21.8311 21.1202C21.9189 21.1359 21.99 21.1833 22.0444 21.2624C22.0918 21.5468 22.1393 21.8313 22.1867 22.1157C22.3745 21.4672 22.493 20.8034 22.5422 20.1246C22.6598 20.9047 22.7309 21.7107 22.7556 22.5424C23.1404 22.2052 23.4722 21.826 23.7511 21.4046C24.106 19.9446 24.2244 18.4748 24.1067 16.9957C23.962 16.4904 23.7487 16.0164 23.4667 15.5735C22.7106 14.9834 22.0233 14.3198 21.4044 13.5824C22.0224 13.8405 22.6861 14.125 23.3956 14.4357C23.6764 14.6685 23.9609 14.9056 24.2489 15.1468C24.6002 15.6125 24.8371 16.134 24.96 16.7113C24.9638 17.5731 24.9402 18.4265 24.8889 19.2713C25.0505 18.9523 25.1691 18.6205 25.2444 18.2757C25.4601 17.1047 25.2703 16.0142 24.6756 15.0046C24.5367 14.8176 24.3945 14.628 24.2489 14.4357C24.6851 14.215 25.0406 14.3098 25.3156 14.7202C25.3862 14.3916 25.4098 14.0598 25.3867 13.7246C24.96 13.7246 24.5333 13.7246 24.1067 13.7246C23.2886 13.6588 22.6486 13.2795 22.1867 12.5868C21.6715 11.313 20.842 10.2938 19.6978 9.52905C19.8326 9.46038 19.9748 9.43668 20.1244 9.45794C20.6123 9.63057 21.0864 9.8439 21.5467 10.0979C21.9971 10.7379 22.4474 11.3779 22.8978 12.0179C23.4699 12.7672 24.2047 13.0991 25.1022 13.0135C24.9961 12.8377 24.9488 12.6481 24.96 12.4446C24.4915 12.4789 24.0649 12.3604 23.68 12.089C23.0027 11.2094 22.2916 10.3561 21.5467 9.52905C20.8848 9.14993 20.1737 8.91289 19.4133 8.81794C20.3076 8.35276 21.2085 8.35276 22.1156 8.81794C22.7493 9.68904 23.4367 10.5187 24.1778 11.3068C23.637 10.0034 22.76 8.93678 21.5467 8.10683C20.4117 7.71971 19.4162 7.93305 18.56 8.74683C18.4828 8.73829 18.4354 8.69089 18.4178 8.6046C18.793 8.01211 19.3145 7.58544 19.9822 7.3246C19.5691 6.99559 19.1424 6.97189 18.7022 7.25349C18.2953 7.66508 17.9398 8.11546 17.6356 8.6046C17.5799 7.86168 17.8406 7.24537 18.4178 6.75572C18.0845 6.58145 17.8237 6.67627 17.6356 7.04016C17.2487 7.71883 16.9405 8.42994 16.7111 9.17349C16.3403 8.28058 16.4351 7.42725 16.9956 6.61349C16.806 6.42387 16.6162 6.42387 16.4267 6.61349C16.2324 7.06754 16.1139 7.54161 16.0711 8.03572C15.907 7.52315 15.7885 7.00166 15.7156 6.47127C15.5053 6.43401 15.3158 6.48141 15.1467 6.61349C15.3936 7.21181 15.5831 7.8281 15.7156 8.46238C15.4842 8.59489 15.3657 8.87934 15.36 9.31572C15.1521 8.30723 14.7018 7.43019 14.0089 6.6846C13.8906 6.5868 13.7958 6.61051 13.7244 6.75572C14.1596 7.24672 14.4441 7.81561 14.5778 8.46238C14.1794 8.13836 13.7527 7.7354 13.2978 7.25349C12.8576 6.97189 12.4309 6.99559 12.0178 7.3246C12.5998 7.53249 13.0976 7.86434 13.5111 8.32016C13.6095 8.45339 13.5858 8.5482 13.44 8.6046C12.1166 7.61737 10.884 7.68848 9.74222 8.81794C10.7135 8.34799 11.7091 8.34799 12.7289 8.81794C12.3439 8.87413 11.9647 8.94524 11.5911 9.03127C11.1279 9.16805 10.7013 9.38138 10.3111 9.67127C9.71535 10.5296 9.05165 11.3355 8.32 12.089C7.92011 12.3093 7.49345 12.4279 7.04 12.4446C7.04 12.6816 7.04 12.9187 7.04 13.1557C7.57027 13.1449 8.04436 12.979 8.46222 12.6579C9.2742 11.7989 10.0327 10.8981 10.7378 9.95572C12.461 9.21032 12.6269 9.37625 11.2356 10.4535C10.6482 11.4151 10.0082 12.3396 9.31555 13.2268C8.86003 13.5117 8.38595 13.725 7.89333 13.8668C7.50266 13.8223 7.12341 13.8697 6.75555 14.009C6.61046 14.2838 6.58675 14.5683 6.68444 14.8624C6.92296 14.3574 7.32592 14.1677 7.89333 14.2935C6.62044 15.7365 6.35971 17.3483 7.11111 19.129C6.572 16.6999 7.40164 14.9459 9.6 13.8668C9.74222 13.8668 9.88444 13.8668 10.0267 13.8668C10.1664 13.7757 10.3086 13.6809 10.4533 13.5824C10.5985 13.6537 10.6222 13.7485 10.5244 13.8668C9.90815 14.3884 9.29185 14.9097 8.67555 15.4313C8.49433 15.8424 8.281 16.2217 8.03555 16.569C8.03555 16.3795 8.03555 16.1897 8.03555 16.0002C7.89333 16.0002 7.75111 16.0002 7.60889 16.0002C7.63042 16.6174 7.4882 17.1863 7.18222 17.7068C7.37274 18.7059 7.42014 19.7015 7.32444 20.6935C7.22962 20.5986 7.13482 20.5039 7.04 20.409C5.02009 15.3607 6.11045 11.1177 10.3111 7.68016C14.6763 5.06623 18.8481 5.35067 22.8267 8.53349C24.2422 9.91963 25.2378 11.5552 25.8133 13.4402Z"
            fill="#F4EFE4" />
        <path fill-rule="evenodd" clip-rule="evenodd"
            d="M21.8312 22.1157C21.9511 22.3983 22.0459 22.7065 22.1156 23.0402C21.9586 23.299 21.7453 23.5123 21.4756 23.6802C21.4048 23.2084 21.381 22.7344 21.4045 22.2579C21.5881 22.2917 21.7303 22.2443 21.8312 22.1157Z"
            fill="#7D654E" />
        <path fill-rule="evenodd" clip-rule="evenodd"
            d="M22.5422 20.1246C22.4929 20.8035 22.3745 21.4672 22.1866 22.1157C22.1392 21.8313 22.0917 21.5468 22.0444 21.2624C21.9899 21.1833 21.9188 21.136 21.831 21.1202C21.4798 20.4105 20.982 19.7942 20.3377 19.2713C19.8493 18.5218 19.7307 17.7158 19.9822 16.8535C20.1086 17.2488 20.2746 17.6279 20.4799 17.9913C21.2919 18.5898 21.9792 19.3009 22.5422 20.1246Z"
            fill="#F7F5EE" />
        <path fill-rule="evenodd" clip-rule="evenodd"
            d="M17.1378 19.9822C16.5699 20.607 15.9061 20.7019 15.1467 20.2667C15.0332 20.2017 14.9858 20.1068 15.0044 19.9822C14.9803 19.5569 15.1698 19.2724 15.5733 19.1289C15.9337 19.3121 16.2893 19.3121 16.64 19.1289C16.9891 19.3057 17.1551 19.5901 17.1378 19.9822Z"
            fill="#F5F4F1" />
        <path fill-rule="evenodd" clip-rule="evenodd"
            d="M24.96 16.7109C25.0549 17.2325 25.1496 17.7539 25.2445 18.2754C25.1691 18.6201 25.0505 18.9519 24.8889 19.2709C24.9403 18.4261 24.9639 17.5728 24.96 16.7109Z"
            fill="#B3A795" />
        <path fill-rule="evenodd" clip-rule="evenodd"
            d="M16.711 18.7023C17.0628 18.9497 17.4422 19.1631 17.8488 19.3423C17.5545 19.3883 17.5072 19.507 17.7065 19.6978C17.5946 20.2111 17.405 20.306 17.1377 19.9823C17.155 19.5902 16.989 19.3057 16.6399 19.1289C16.2892 19.3121 15.9336 19.3121 15.5732 19.1289C15.1697 19.2724 14.9801 19.5569 15.0043 19.9823C14.9117 20.0663 14.8169 20.161 14.7199 20.2667C14.5246 19.9837 14.3824 19.6755 14.2932 19.3423C15.0066 18.7968 15.8124 18.5835 16.711 18.7023Z"
            fill="#F4EFDE" />
        <path fill-rule="evenodd" clip-rule="evenodd"
            d="M11.4489 19.4135C11.4717 19.1719 11.448 18.9348 11.3778 18.7024C11.22 18.921 11.0066 19.0157 10.7378 18.9868C10.7378 19.1291 10.7378 19.2713 10.7378 19.4135C10.5881 19.3923 10.4459 19.4159 10.3111 19.4846C10.098 19.8635 9.81355 20.1716 9.45776 20.4091C9.53523 20.1114 9.65375 19.827 9.81332 19.5557C10.4723 19.0392 11.0886 18.4703 11.6622 17.8491C11.8436 17.5338 11.9858 17.2018 12.0889 16.8535C12.443 17.8528 12.2296 18.7061 11.4489 19.4135Z"
            fill="#F5F1E3" />
        <path fill-rule="evenodd" clip-rule="evenodd"
            d="M11.1645 16C11.539 17.4066 11.0176 18.3784 9.6001 18.9156C10.0505 18.3704 10.5008 17.8251 10.9512 17.28C11.0868 16.863 11.1579 16.4363 11.1645 16Z"
            fill="#F0E3C9" />
        <path fill-rule="evenodd" clip-rule="evenodd"
            d="M20.4089 15.7153C20.664 16.8299 21.2329 17.7781 22.1155 18.5598C20.8917 18.1655 20.3228 17.2648 20.4089 15.8576C20.4089 15.8102 20.4089 15.7627 20.4089 15.7153Z"
            fill="#F2E8D1" />
        <path fill-rule="evenodd" clip-rule="evenodd"
            d="M23.6801 17.8489C23.7181 18.9099 23.5996 19.9528 23.3245 20.9778C23.1062 20.2853 22.964 19.5742 22.8979 18.8445C22.219 17.9138 21.6501 16.9182 21.1912 15.8578C21.1204 15.4337 21.0966 15.0071 21.1201 14.5778C21.1043 14.2723 21.1992 14.225 21.4045 14.4356C21.9674 14.9273 22.5127 15.4487 23.0401 16C23.3533 16.584 23.5666 17.2004 23.6801 17.8489Z"
            fill="#F7F5EE" />
        <path fill-rule="evenodd" clip-rule="evenodd"
            d="M20.2668 13.0133C20.2668 12.8237 20.2668 12.634 20.2668 12.4444C20.0634 12.4557 19.8737 12.4083 19.6979 12.3022C19.5109 12.5604 19.2975 12.7975 19.0579 13.0133C18.9701 13.1483 18.9937 13.2668 19.129 13.3689C18.749 13.4875 18.3697 13.606 17.9912 13.7244C17.7341 14.5264 17.6392 15.3324 17.7068 16.1422C17.7901 16.1125 17.8612 16.065 17.9201 16C18.1358 16.4339 18.444 16.5286 18.8445 16.2844C18.809 15.857 18.9986 15.5963 19.4134 15.5022C19.603 15.4073 19.603 15.3126 19.4134 15.2177C19.6437 15.1842 19.7859 15.0657 19.8401 14.8622C19.9581 14.5317 20.1477 14.2472 20.409 14.0089C20.4563 14.08 20.5038 14.1511 20.5512 14.2222C20.4346 14.4782 20.3399 14.739 20.2668 15.0044C19.6616 15.6578 19.0452 16.3215 18.4179 16.9955C18.5834 16.9479 18.773 16.9479 18.9868 16.9955C18.9108 17.5459 18.745 18.0674 18.489 18.56C17.9205 18.8797 17.328 18.927 16.7112 18.7022C16.3215 18.3609 16.203 17.9342 16.3557 17.4222C16.7352 17.0433 17.1857 16.7825 17.7068 16.64C17.842 16.5378 17.8656 16.4194 17.7779 16.2844C17.5065 16.6267 17.2221 16.6267 16.9245 16.2844C16.023 16.4145 15.1461 16.4857 14.2934 16.4977C14.8538 16.766 15.3516 17.1215 15.7868 17.5644C15.8845 17.9086 15.8134 18.2168 15.5734 18.4889C13.8574 19.2854 13.0752 18.7403 13.2268 16.8533C13.4564 17.1953 13.5512 17.1953 13.5112 16.8533C12.7887 16.2262 12.1724 15.5151 11.6623 14.72C11.4946 13.9517 11.6368 13.8569 12.089 14.4355C12.0954 14.0487 12.0242 13.6695 11.8757 13.2977C12.4145 13.5229 12.5568 13.9022 12.3023 14.4355C12.3903 14.9067 12.5325 15.357 12.729 15.7866C13.1139 15.8961 13.4694 16.0621 13.7957 16.2844C14.0051 16.2271 14.1947 16.1322 14.3645 16C15.0616 16.0745 15.7491 16.0981 16.4268 16.0711C16.849 16.0514 17.086 15.8381 17.1379 15.4311C16.9851 14.939 16.8429 14.4412 16.7112 13.9377C16.7806 13.7125 16.9228 13.5465 17.1379 13.44C17.0766 13.3271 17.0291 13.2086 16.9957 13.0844C17.1702 12.716 17.2413 12.3605 17.209 12.0177C17.3721 12.154 17.5143 12.1066 17.6357 11.8755C17.7154 11.9497 17.8103 11.9971 17.9201 12.0177C18.2983 11.9158 18.6538 11.7735 18.9868 11.5911C19.2645 11.6843 19.549 11.7317 19.8401 11.7333C19.8712 11.5662 19.8239 11.424 19.6979 11.3066C19.4013 11.1585 19.1643 10.9452 18.9868 10.6666C18.7424 10.6174 18.5053 10.5463 18.2757 10.4533C17.5705 10.4102 16.8594 10.4577 16.1423 10.5955C16.4609 10.2448 16.8402 9.9604 17.2801 9.74219C17.3275 9.7659 17.375 9.78959 17.4223 9.8133C17.3004 9.9113 17.2057 10.0298 17.1379 10.1689C17.7777 10.2754 18.4177 10.3702 19.0579 10.4533C19.6413 10.7803 20.1865 11.1596 20.6934 11.5911C20.4771 11.6451 20.2402 11.6688 19.9823 11.6622C20.3929 12.0673 20.4878 12.5176 20.2668 13.0133Z"
            fill="#F5F2E7" />
        <path fill-rule="evenodd" clip-rule="evenodd"
            d="M24.6754 15.0047C25.2702 16.0143 25.4599 17.1047 25.2443 18.2758C25.1495 17.7542 25.0548 17.2328 24.9599 16.7113C24.837 16.134 24.6001 15.6125 24.2488 15.1469C24.3496 15.0183 24.4918 14.9709 24.6754 15.0047Z"
            fill="#736136" />
        <path fill-rule="evenodd" clip-rule="evenodd"
            d="M24.1066 13.7246C24.5333 13.7246 24.96 13.7246 25.3866 13.7246C25.4098 14.0598 25.3862 14.3916 25.3155 14.7202C25.0406 14.3099 24.685 14.215 24.2488 14.4357C24.3945 14.628 24.5367 14.8176 24.6755 15.0046C24.4919 14.9709 24.3497 15.0183 24.2488 15.1468C23.9608 14.9056 23.6764 14.6685 23.3955 14.4357C24.0339 14.5235 24.271 14.2864 24.1066 13.7246Z"
            fill="#827052" />
        <path fill-rule="evenodd" clip-rule="evenodd"
            d="M7.89334 13.8668C7.89334 14.009 7.89334 14.1512 7.89334 14.2935C7.32593 14.1677 6.92297 14.3573 6.68445 14.8623C6.58676 14.5682 6.61047 14.2838 6.75556 14.009C7.12342 13.8696 7.50267 13.8222 7.89334 13.8668Z"
            fill="#74613E" />
        <path fill-rule="evenodd" clip-rule="evenodd"
            d="M18.5599 8.74684C19.0053 8.78719 19.432 8.9057 19.8399 9.1024C20.0185 9.16169 20.1134 9.2802 20.1243 9.45795C19.9747 9.43669 19.8325 9.4604 19.6977 9.52906C20.8418 10.2938 21.6714 11.3131 22.1866 12.5868C22.6485 13.2796 23.2885 13.6588 24.1066 13.7246C24.271 14.2864 24.0339 14.5235 23.3954 14.4357C22.686 14.125 22.0223 13.8406 21.4043 13.5824C22.0231 14.3198 22.7105 14.9834 23.4666 15.5735C23.7486 16.0164 23.9619 16.4904 24.1066 16.9957C24.0066 17.2985 23.8644 17.583 23.6799 17.8491C23.5664 17.2005 23.3531 16.5841 23.0399 16.0002C22.5125 15.4488 21.9673 14.9274 21.4043 14.4357C21.199 14.2251 21.1041 14.2725 21.1199 14.578C20.8881 14.795 20.7696 15.0794 20.7643 15.4313C20.6228 15.5118 20.5044 15.6066 20.4088 15.7157C20.4088 15.7631 20.4088 15.8106 20.4088 15.858C20.3037 15.8766 20.2088 15.8528 20.1243 15.7868C20.2532 15.5452 20.3005 15.2844 20.2666 15.0046C20.3397 14.7392 20.4344 14.4784 20.551 14.2224C20.5036 14.1513 20.4561 14.0802 20.4088 14.0091C20.1475 14.2474 19.9579 14.5319 19.8399 14.8624C19.755 14.829 19.7076 14.7579 19.6977 14.6491C19.9092 14.1084 20.0987 13.5633 20.2666 13.0135C20.4876 12.5178 20.3927 12.0675 19.9821 11.6624C20.24 11.669 20.4769 11.6453 20.6932 11.5913C20.1863 11.1598 19.6411 10.7805 19.0577 10.4535C18.4175 10.3704 17.7775 10.2756 17.1377 10.1691C17.2055 10.03 17.3002 9.91151 17.4221 9.81351C17.3748 9.7898 17.3273 9.7661 17.2799 9.7424C16.84 9.96061 16.4607 10.2451 16.1421 10.5957C15.6877 10.3321 15.2374 10.0477 14.791 9.7424C14.725 9.82693 14.7013 9.92175 14.7199 10.0268C14.1963 10.0033 13.6748 10.027 13.1554 10.098C12.7763 10.2488 12.397 10.3673 12.0177 10.4535C11.8223 10.4312 11.6327 10.4549 11.4488 10.5246C10.7697 11.6013 10.0586 12.6443 9.31545 13.6535C9.36325 13.8 9.45807 13.8711 9.59989 13.8668C7.40153 14.9459 6.57189 16.6999 7.111 19.1291C6.3596 17.3483 6.62034 15.7365 7.89322 14.2935C7.89322 14.1513 7.89322 14.0091 7.89322 13.8668C8.38584 13.725 8.85992 13.5117 9.31545 13.2268C10.0081 12.3396 10.6481 11.4151 11.2354 10.4535C12.6268 9.37626 12.4609 9.21033 10.7377 9.95573C10.0326 10.8981 9.27409 11.7989 8.46211 12.658C8.04425 12.979 7.57017 13.1449 7.03989 13.1557C7.03989 12.9187 7.03989 12.6817 7.03989 12.4446C7.49334 12.4279 7.92 12.3094 8.31989 12.0891C9.05154 11.3355 9.71525 10.5296 10.311 9.67128C10.7011 9.38139 11.1278 9.16806 11.591 9.03128C11.8354 9.13425 12.0961 9.22906 12.3732 9.31573C12.7182 9.03805 13.0738 8.80103 13.4399 8.60462C13.5857 8.54821 13.6094 8.45341 13.511 8.32017C13.0975 7.86435 12.5997 7.5325 12.0177 7.32462C12.4308 6.9956 12.8575 6.97191 13.2977 7.25351C13.7526 7.73541 14.1793 8.13837 14.5777 8.4624C14.444 7.81563 14.1595 7.24674 13.7243 6.75573C13.7957 6.61052 13.8905 6.58681 14.0088 6.68462C14.7017 7.4302 15.152 8.30724 15.3599 9.31573C15.3656 8.87935 15.4841 8.5949 15.7154 8.4624C15.583 7.82811 15.3935 7.21182 15.1466 6.61351C15.3157 6.48142 15.5052 6.43402 15.7154 6.47128C15.7884 7.00167 15.9069 7.52316 16.071 8.03573C16.1138 7.54162 16.2323 7.06755 16.4266 6.61351C16.6161 6.42388 16.8059 6.42388 16.9954 6.61351C16.4349 7.42726 16.3402 8.28059 16.711 9.17351C16.9404 8.42995 17.2486 7.71884 17.6354 7.04017C17.8236 6.67628 18.0844 6.58146 18.4177 6.75573C17.8405 7.24539 17.5798 7.86169 17.6354 8.60462C17.9397 8.11547 18.2952 7.6651 18.7021 7.25351C19.1423 6.97191 19.569 6.9956 19.9821 7.32462C19.3144 7.58545 18.7929 8.01212 18.4177 8.60462C18.4353 8.6909 18.4827 8.73831 18.5599 8.74684Z"
            fill="#7E6135" />
        <path fill-rule="evenodd" clip-rule="evenodd"
            d="M14.8623 14.4355C14.7456 14.6687 14.6272 14.9058 14.5067 15.1466C14.6829 14.0741 14.28 13.363 13.2978 13.0133C13.1148 12.6641 12.8541 12.3796 12.5156 12.1599C12.4178 12.0416 12.4415 11.9468 12.5867 11.8755C13.1419 12.0854 13.7108 12.2514 14.2934 12.3733C14.4386 13.0699 14.6282 13.7573 14.8623 14.4355Z"
            fill="#7C6E56" />
        <path fill-rule="evenodd" clip-rule="evenodd"
            d="M19.271 11.8755C19.3483 11.884 19.3956 11.9314 19.4133 12.0177C19.141 12.2598 18.9277 12.5442 18.7733 12.871C18.443 13.1003 18.0875 13.2899 17.7066 13.4399C17.4271 14.0435 17.356 14.6598 17.4933 15.2888C17.2772 14.9964 17.1586 14.6645 17.1377 14.2933C17.3977 13.6552 17.5399 12.9915 17.5644 12.3022C18.1668 12.2298 18.7357 12.0876 19.271 11.8755Z"
            fill="#796A52" />
        <path fill-rule="evenodd" clip-rule="evenodd"
            d="M11.8755 11.1646C12.0004 11.6036 12.2612 11.7459 12.6577 11.5912C13.3132 11.6701 13.9532 11.8123 14.5777 12.0179C14.8741 12.4685 14.9215 12.9425 14.7199 13.4401C15.2093 13.7325 15.2567 14.0643 14.8621 14.4357C14.628 13.7575 14.4385 13.0701 14.2933 12.3734C13.7107 12.2515 13.1418 12.0856 12.5866 11.8757C12.4414 11.947 12.4177 12.0418 12.5155 12.1601C12.854 12.3798 13.1147 12.6643 13.2977 13.0134C12.8569 12.9738 12.5013 12.7842 12.231 12.4446C12.1212 12.4651 12.0264 12.5125 11.9466 12.5868C11.8764 12.8192 11.8527 13.0562 11.8755 13.2979C11.4685 12.7484 11.5159 12.2269 12.0177 11.7334C11.8593 11.552 11.7171 11.552 11.591 11.7334C11.2785 11.7464 11.2311 11.6516 11.4488 11.449C11.591 11.3542 11.7333 11.2594 11.8755 11.1646Z"
            fill="#F5F1E3" />
        <path fill-rule="evenodd" clip-rule="evenodd"
            d="M20.2666 13.0134C20.0988 13.5631 19.9092 14.1083 19.6977 14.6489C19.7077 14.7577 19.755 14.8288 19.84 14.8622C19.7858 15.0658 19.6435 15.1842 19.4133 15.2178C19.6029 15.3127 19.6029 15.4074 19.4133 15.5022C18.9984 15.5964 18.8088 15.8571 18.8444 16.2845C18.4439 16.5287 18.1357 16.4339 17.92 16C17.8611 16.065 17.79 16.1125 17.7066 16.1422C17.6391 15.3324 17.7339 14.5265 17.9911 13.7245C18.3695 13.6061 18.7488 13.4876 19.1288 13.3689C18.9936 13.2669 18.97 13.1483 19.0577 13.0134C19.2974 12.7975 19.5107 12.5605 19.6977 12.3022C19.8735 12.4083 20.0632 12.4557 20.2666 12.4445C20.2666 12.6341 20.2666 12.8237 20.2666 13.0134Z"
            fill="#F8F8F7" />
        <path fill-rule="evenodd" clip-rule="evenodd"
            d="M12.0179 10.4534C12.0802 10.4441 12.1276 10.4678 12.1601 10.5245C11.7844 10.7334 11.5473 11.0415 11.449 11.449C11.2313 11.6516 11.2787 11.7464 11.5912 11.7334C11.1445 12.2577 11.1445 12.8265 11.5912 13.4401C11.5007 13.6965 11.3347 13.8861 11.0935 14.009C11.022 13.5804 10.9509 13.1538 10.8801 12.729C10.7379 12.729 10.5957 12.729 10.4535 12.729C10.3885 13.1422 10.2463 13.5215 10.0268 13.8667C9.88456 13.8667 9.74234 13.8667 9.60012 13.8667C9.45829 13.871 9.36347 13.7999 9.31567 13.6534C10.0588 12.6442 10.7699 11.6012 11.449 10.5245C11.6329 10.4548 11.8226 10.4311 12.0179 10.4534Z"
            fill="#815E2B" />
        <path fill-rule="evenodd" clip-rule="evenodd"
            d="M16.1422 10.5955C16.8593 10.4577 17.5704 10.4102 18.2756 10.4533C18.5053 10.5463 18.7423 10.6174 18.9867 10.6666C19.1642 10.9452 19.4013 11.1585 19.6978 11.3066C19.8238 11.424 19.8712 11.5662 19.84 11.7333C19.5489 11.7317 19.2644 11.6843 18.9867 11.5911C18.6537 11.7735 18.2982 11.9158 17.92 12.0177C17.8102 11.9971 17.7153 11.9497 17.6356 11.8755C17.5142 12.1066 17.372 12.154 17.2089 12.0177C17.2412 12.3605 17.1701 12.716 16.9956 13.0844C17.029 13.2086 17.0765 13.3271 17.1378 13.44C16.9227 13.5465 16.7805 13.7125 16.7111 13.9377C16.8428 14.4412 16.985 14.939 17.1378 15.4311C17.0859 15.8381 16.8489 16.0514 16.4267 16.0711C15.749 16.0981 15.0615 16.0745 14.3645 16C14.1947 16.1322 14.005 16.2271 13.7956 16.2844C13.4693 16.0621 13.1138 15.8961 12.7289 15.7866C12.5324 15.357 12.3902 14.9067 12.3022 14.4355C12.5567 13.9022 12.4145 13.5229 11.8756 13.2977C11.8528 13.0561 11.8765 12.819 11.9467 12.5866C12.0265 12.5124 12.1213 12.465 12.2311 12.4444C12.5014 12.784 12.8569 12.9737 13.2978 13.0133C14.28 13.363 14.6829 14.0741 14.5067 15.1466C14.6271 14.9058 14.7456 14.6688 14.8622 14.4355C15.2568 14.0642 15.2094 13.7323 14.72 13.44C14.9215 12.9424 14.8742 12.4683 14.5778 12.0177C13.9533 11.8121 13.3133 11.6699 12.6578 11.5911C12.2613 11.7457 12.0005 11.6035 11.8756 11.1644C12.1794 10.9593 12.5113 10.7934 12.8711 10.6666C12.7763 10.6192 12.6815 10.5718 12.5867 10.5244C13.3417 10.3903 14.1002 10.2718 14.8622 10.1689C14.8446 10.0826 14.7972 10.0352 14.72 10.0266C14.7014 9.92154 14.7251 9.82672 14.7911 9.74219C15.2376 10.0475 15.6878 10.3319 16.1422 10.5955Z"
            fill="#F8F8F6" />
        <path fill-rule="evenodd" clip-rule="evenodd"
            d="M6.47111 5.3335C6.65988 5.6872 6.89693 6.01905 7.18222 6.32905C7.23325 6.59515 7.37547 6.80848 7.60889 6.96905C7.47859 7.02227 7.36006 7.09338 7.25333 7.18238C7.00208 7.11487 6.74135 6.97265 6.47111 6.75572C5.73545 6.59213 5.30879 6.87658 5.19111 7.60905C5.27088 8.03031 5.41311 8.43327 5.61778 8.81794C5.56998 8.96441 5.47516 9.03553 5.33333 9.03127C5.16132 8.96982 5.01909 8.87501 4.90667 8.74683C4.75704 8.49709 4.51999 8.40227 4.19556 8.46238C4.41358 7.99759 4.60321 7.5235 4.76445 7.04016C5.19414 6.32602 5.76303 5.75713 6.47111 5.3335Z"
            fill="#7E6231" />
        <path fill-rule="evenodd" clip-rule="evenodd"
            d="M17.5645 1.63544C16.2313 1.60254 14.9038 1.67365 13.5823 1.84877C13.9108 1.9194 14.2426 1.9431 14.5779 1.91988C14.5779 2.25173 14.5779 2.58359 14.5779 2.91544C14.7201 2.91544 14.8623 2.91544 15.0045 2.91544C15.0045 2.67839 15.0045 2.44137 15.0045 2.20432C15.1925 2.18015 15.3585 2.22756 15.5023 2.34655C15.5497 2.58359 15.5972 2.82062 15.6445 3.05766C15.699 2.97858 15.7701 2.93118 15.8579 2.91544C15.8343 3.67543 15.858 4.43396 15.929 5.19099C16.028 4.76744 16.0991 4.34077 16.1423 3.91099C16.3794 3.91099 16.6163 3.91099 16.8534 3.91099C16.7958 4.41558 16.8669 4.88965 17.0667 5.33321C17.1616 4.85914 17.1616 4.38506 17.0667 3.91099C16.9956 3.83988 16.9245 3.76877 16.8534 3.69766C17.2498 3.38943 17.3683 2.98646 17.209 2.48877C16.9028 2.11553 16.4997 1.97331 16.0001 2.0621C16.8022 1.84847 17.6082 1.89589 18.4179 2.20432C18.6842 2.20684 18.7316 2.13573 18.5601 1.99099C18.6904 1.9514 18.7851 1.88029 18.8445 1.77766C22.4099 2.60043 25.3255 4.44932 27.5912 7.32432C28.3319 8.33144 28.9245 9.42182 29.369 10.5954C29.1794 10.5954 28.9897 10.5954 28.8001 10.5954C28.8244 10.1265 28.7297 10.0791 28.5156 10.4532C28.4195 10.2965 28.3248 10.1543 28.2312 10.0265C28.1363 9.88432 28.0416 9.7421 27.9467 9.59988C28.0955 8.99465 27.8822 8.61539 27.3067 8.4621C26.5508 8.81628 25.8397 9.24294 25.1734 9.7421C24.9868 10.2716 25.1528 10.6034 25.6712 10.7377C26.1663 10.7041 26.5456 10.4908 26.809 10.0977C26.5784 9.62656 26.5309 9.62656 26.6667 10.0977C26.3904 10.3189 26.0822 10.4848 25.7423 10.5954C25.1819 10.3994 25.1108 10.0913 25.529 9.67099C26.1064 9.28749 26.7226 8.97934 27.3779 8.74655C27.9193 9.1273 27.8718 9.48286 27.2356 9.81321C27.3201 9.87925 27.415 9.90296 27.5201 9.88432C27.5707 10.3201 27.4522 10.6994 27.1645 11.0221C26.362 10.8665 25.8167 11.1747 25.529 11.9465C25.7052 12.425 25.8 12.9228 25.8134 13.4399C25.2378 11.5549 24.2423 9.91935 22.8267 8.53321C18.8482 5.35039 14.6764 5.06595 10.3112 7.67988C6.11053 11.1174 5.02017 15.3605 7.04008 20.4088C6.89844 20.421 6.77993 20.3735 6.68453 20.2665C6.65376 19.9986 6.55894 19.7615 6.40008 19.5554C6.06643 18.268 5.75829 16.988 5.47564 15.7154C5.54415 14.8512 5.68637 13.9978 5.9023 13.1554C5.88514 12.9571 5.83774 12.7675 5.76008 12.5865C6.10001 12.3353 6.33705 12.0034 6.47119 11.591C6.29545 11.4691 6.10582 11.3743 5.9023 11.3065C5.7309 12.0471 5.47015 12.7582 5.12008 13.4399C4.8154 12.7699 4.69689 12.0588 4.76453 11.3065C5.04897 11.3065 5.33342 11.3065 5.61786 11.3065C5.61786 11.1643 5.61786 11.0221 5.61786 10.8799C5.87451 10.9847 6.11156 11.1269 6.32897 11.3065C6.58393 10.9153 6.82098 10.5123 7.04008 10.0977C6.96537 9.99918 6.87057 9.92807 6.75564 9.88432C6.53339 10.0898 6.34376 10.3268 6.18675 10.5954C5.8501 10.1113 5.56565 9.5898 5.33342 9.03099C5.47524 9.03524 5.57006 8.96413 5.61786 8.81766C5.41319 8.43299 5.27097 8.03003 5.19119 7.60877C5.35936 7.96563 5.6438 8.15527 6.04453 8.17766C5.9869 7.87191 5.91579 7.58746 5.83119 7.32432C6.05696 7.14982 6.24658 7.19722 6.40008 7.46655C6.42359 8.32961 6.75544 9.04072 7.39564 9.59988C7.65339 9.20447 7.96154 8.84892 8.32008 8.53321C8.23363 8.40949 8.11511 8.33838 7.96453 8.31988C7.77588 8.50461 7.58624 8.69424 7.39564 8.88877C7.17589 8.13974 6.86775 7.42863 6.47119 6.75544C6.74143 6.97237 7.00217 7.11459 7.25342 7.1821C7.36014 7.0931 7.47867 7.02199 7.60897 6.96877C7.37556 6.8082 7.23333 6.59487 7.18231 6.32877C6.89701 6.01877 6.65997 5.68692 6.47119 5.33321C9.59385 2.36442 13.2916 1.13183 17.5645 1.63544Z"
            fill="#7E6035" />
        <path fill-rule="evenodd" clip-rule="evenodd"
            d="M13.2979 12.4445C13.5288 12.4246 13.6947 12.5194 13.7956 12.7289C13.8908 12.3694 14.0093 12.3694 14.1512 12.7289C13.7331 13.1271 13.4486 13.0322 13.2979 12.4445Z"
            fill="#E7DAB9" />
        <path fill-rule="evenodd" clip-rule="evenodd"
            d="M18.2755 12.4445C18.7601 12.3912 18.8312 12.5334 18.4889 12.8712C18.296 12.9963 18.0827 13.0437 17.8489 13.0134C17.9201 12.6995 18.0624 12.5099 18.2755 12.4445Z"
            fill="#EDE0C9" />
        <path fill-rule="evenodd" clip-rule="evenodd"
            d="M9.3156 9.17334C9.39284 9.18187 9.44024 9.22928 9.45782 9.31556C9.04703 10.0827 8.50183 10.7464 7.82227 11.3067C8.17203 10.5196 8.66981 9.80845 9.3156 9.17334Z"
            fill="#6C623C" />
        <path fill-rule="evenodd" clip-rule="evenodd"
            d="M20.1245 9.45773C20.1136 9.27998 20.0187 9.16146 19.8401 9.10217C19.4322 8.90548 19.0055 8.78696 18.5601 8.74662C19.4162 7.93283 20.4118 7.7195 21.5467 8.10662C22.76 8.93657 23.6371 10.0032 24.1778 11.3066C23.4367 10.5185 22.7494 9.68882 22.1156 8.81773C21.2085 8.35255 20.3077 8.35255 19.4134 8.81773C20.1737 8.91267 20.8848 9.14972 21.5467 9.52884C22.2917 10.3559 23.0028 11.2092 23.6801 12.0888C24.0649 12.3601 24.4916 12.4787 24.9601 12.4444C24.9488 12.6478 24.9962 12.8375 25.1023 13.0133C24.2047 13.0988 23.47 12.767 22.8978 12.0177C22.4474 11.3777 21.9971 10.7377 21.5467 10.0977C21.0865 9.84369 20.6123 9.63036 20.1245 9.45773Z"
            fill="#7C6240" />
        <path fill-rule="evenodd" clip-rule="evenodd"
            d="M14.7201 10.0268C14.7973 10.0354 14.8447 10.0828 14.8623 10.1691C14.1003 10.272 13.3418 10.3905 12.5868 10.5246C12.6816 10.572 12.7764 10.6194 12.8712 10.6668C12.5113 10.7936 12.1795 10.9595 11.8756 11.1646C11.7334 11.2594 11.5912 11.3542 11.449 11.4491C11.5473 11.0416 11.7843 10.7335 12.1601 10.5246C12.1276 10.4679 12.0802 10.4442 12.0179 10.4535C12.3972 10.3673 12.7765 10.2488 13.1556 10.098C13.675 10.027 14.1965 10.0033 14.7201 10.0268Z"
            fill="#87734F" />
        <path fill-rule="evenodd" clip-rule="evenodd"
            d="M27.9468 9.60018C27.8045 9.695 27.6623 9.78981 27.5201 9.88462C27.415 9.90326 27.3201 9.87955 27.2357 9.81351C27.8718 9.48316 27.9193 9.1276 27.3779 8.74685C26.7227 8.97964 26.1064 9.28779 25.529 9.67129C25.1109 10.0916 25.182 10.3997 25.7423 10.5957C26.0822 10.4851 26.3904 10.3192 26.6668 10.098C26.5309 9.62686 26.5784 9.62686 26.809 10.098C26.5456 10.4911 26.1663 10.7044 25.6712 10.738C25.1528 10.6037 24.9868 10.2719 25.1734 9.7424C25.8397 9.24325 26.5509 8.81658 27.3068 8.4624C27.8822 8.61569 28.0955 8.99495 27.9468 9.60018Z"
            fill="#F1E2BD" />
        <path fill-rule="evenodd" clip-rule="evenodd"
            d="M24.391 9.31537C24.2602 8.92543 24.118 8.59356 23.9644 8.31982C24.5244 7.83125 25.0696 7.30977 25.5999 6.75537C25.6237 6.80277 25.6473 6.85019 25.671 6.89759C25.2045 7.68865 24.7779 8.49458 24.391 9.31537Z"
            fill="#7D633E" />
        <path fill-rule="evenodd" clip-rule="evenodd"
            d="M13.44 8.60425C13.0738 8.80066 12.7183 9.03769 12.3733 9.31536C12.0962 9.22869 11.8355 9.13389 11.5911 9.03092C11.9647 8.94489 12.3439 8.87378 12.7289 8.81758C11.709 8.34764 10.7135 8.34764 9.74219 8.81758C10.884 7.68813 12.1165 7.61702 13.44 8.60425Z"
            fill="#785F39" />
        <path fill-rule="evenodd" clip-rule="evenodd"
            d="M24.3912 9.31577C24.778 8.49498 25.2047 7.68904 25.6712 6.89799C25.6474 6.85059 25.6238 6.80317 25.6 6.75577C25.0697 7.31016 24.5246 7.83165 23.9645 8.32021C23.7362 8.52909 23.6651 8.48169 23.7512 8.17799C24.4651 7.53495 25.2 6.91864 25.9556 6.3291C26.1096 6.45212 26.1332 6.59435 26.0267 6.75577C25.6175 7.31299 25.262 7.90559 24.96 8.53355C25.0549 8.62837 25.1496 8.62837 25.2445 8.53355C25.6997 8.03059 26.1975 7.58022 26.7378 7.18243C26.7616 7.22984 26.7852 7.27725 26.8089 7.32466C26.0839 8.09815 25.2779 8.76186 24.3912 9.31577Z"
            fill="#EEDEC0" />
        <path fill-rule="evenodd" clip-rule="evenodd"
            d="M24.9601 5.47559C25.0373 5.48412 25.0847 5.53152 25.1023 5.61781C24.4845 6.49559 23.7734 7.23039 22.969 7.82225C23.6626 7.05815 24.3264 6.27593 24.9601 5.47559Z"
            fill="#EFE1BA" />
        <path fill-rule="evenodd" clip-rule="evenodd"
            d="M22.9688 5.47559C22.7447 5.96287 22.484 6.43694 22.1866 6.89781C22.0845 7.033 21.966 7.0567 21.8311 6.96892C22.1364 6.4044 22.5156 5.90662 22.9688 5.47559Z"
            fill="#EFDDB3" />
        <path fill-rule="evenodd" clip-rule="evenodd"
            d="M7.18213 6.32891C6.87134 5.24151 7.2506 4.83854 8.31991 5.12003C8.65833 5.58333 9.01389 6.03369 9.38658 6.47114C9.82195 7.35857 9.5612 7.80895 8.60436 7.82225C8.14442 7.30025 7.67035 6.80247 7.18213 6.32891Z"
            fill="#F3EDDE" />
        <path fill-rule="evenodd" clip-rule="evenodd"
            d="M7.60877 5.47539C7.71386 5.45676 7.80868 5.48046 7.89322 5.5465C8.31989 6.06798 8.74655 6.58946 9.17322 7.11094C9.06297 7.28581 8.92075 7.33321 8.74655 7.25317C8.31989 6.73168 7.89322 6.21021 7.46655 5.68872C7.54563 5.63431 7.59303 5.5632 7.60877 5.47539Z"
            fill="#7E5F39" />
        <path fill-rule="evenodd" clip-rule="evenodd"
            d="M20.9779 3.05762C21.3707 3.1827 21.75 3.34863 22.1156 3.55539C21.8072 3.61647 21.5227 3.54535 21.2623 3.34206C20.4943 3.9469 20.5417 4.44468 21.4045 4.8354C21.1657 4.89153 20.9288 4.86782 20.6934 4.76428C19.8525 5.43114 19.9473 5.92891 20.9779 6.25762C20.4839 6.29508 20.1046 6.10544 19.8401 5.68873C20.2019 4.79973 20.5812 3.92268 20.9779 3.05762Z"
            fill="#EDDCBA" />
        <path fill-rule="evenodd" clip-rule="evenodd"
            d="M18.4177 2.34671C18.5423 2.32809 18.6371 2.37551 18.7021 2.48893C18.5154 2.90213 18.4443 3.3288 18.4888 3.76893C18.8755 3.28222 19.3259 2.92666 19.8399 2.70227C19.4346 3.08376 19.0554 3.48672 18.7021 3.91115C18.9277 4.46626 19.0462 5.03515 19.0577 5.61782C18.8419 5.11354 18.6524 4.59206 18.4888 4.05338C18.3939 4.1482 18.2992 4.243 18.2044 4.33782C18.1631 4.68654 18.0684 5.01838 17.9199 5.33338C17.9706 4.32317 18.1365 3.32762 18.4177 2.34671Z"
            fill="#EDDEBF" />
        <path fill-rule="evenodd" clip-rule="evenodd"
            d="M13.7246 2.20459C13.8668 2.20459 14.009 2.20459 14.1512 2.20459C14.4254 3.16916 14.7572 4.11729 15.1468 5.04903C15.123 5.09644 15.0994 5.14385 15.0757 5.19126C14.8859 4.67863 14.5304 4.51271 14.009 4.69348C13.7892 4.89822 13.6707 5.15896 13.6534 5.4757C13.6514 4.38692 13.6751 3.29654 13.7246 2.20459Z"
            fill="#F0E1C7" />
        <path fill-rule="evenodd" clip-rule="evenodd"
            d="M22.969 5.47544C23.0347 5.15449 23.1769 4.87005 23.3957 4.62211C23.2871 4.4487 23.1449 4.30648 22.969 4.19544C23.0164 4.14804 23.0639 4.10063 23.1112 4.05322C23.4658 4.34909 23.8449 4.60982 24.249 4.83544C24.05 4.92001 23.8604 4.8963 23.6801 4.76433C23.4746 5.03365 23.2375 5.27069 22.969 5.47544Z"
            fill="#ECDBBA" />
        <path fill-rule="evenodd" clip-rule="evenodd"
            d="M13.8667 2.63135C13.9545 2.64709 14.0256 2.69449 14.08 2.77357C14.2911 3.33489 14.4569 3.90378 14.5778 4.48024C14.3407 4.48024 14.1037 4.48024 13.8667 4.48024C13.8667 3.86395 13.8667 3.24764 13.8667 2.63135Z"
            fill="#7B633D" />
        <path fill-rule="evenodd" clip-rule="evenodd"
            d="M11.4489 5.04895C11.1714 4.87604 10.9581 4.639 10.8089 4.33784C10.8903 4.98464 11.1037 5.60094 11.4489 6.18673C11.3541 6.37635 11.2593 6.37635 11.1644 6.18673C10.8702 5.42251 10.562 4.66398 10.24 3.91117C10.129 3.70585 10.1527 3.51622 10.3111 3.34229C10.762 3.86514 11.1412 4.43403 11.4489 5.04895Z"
            fill="#E6D6B8" />
        <path fill-rule="evenodd" clip-rule="evenodd"
            d="M11.449 5.04899C11.5853 5.11339 11.7038 5.20821 11.8045 5.33344C11.8103 4.59636 11.7392 3.86154 11.5912 3.12899C11.6386 3.01048 11.686 2.89195 11.7334 2.77344C12.1986 3.66701 12.6253 4.59145 13.0134 5.54677C12.8951 5.64458 12.8003 5.62087 12.729 5.47566C12.4288 4.82787 12.1681 4.16416 11.9468 3.48455C11.9621 4.12382 12.0332 4.76382 12.1601 5.40455C12.1127 5.57048 12.0653 5.7364 12.0179 5.90233C11.7566 5.66391 11.567 5.37946 11.449 5.04899Z"
            fill="#ECDBBF" />
        <path fill-rule="evenodd" clip-rule="evenodd"
            d="M16 2.06222C16.4996 1.97343 16.9027 2.11565 17.2089 2.48888C17.3682 2.98657 17.2497 3.38955 16.8533 3.69777C16.9244 3.76888 16.9956 3.83999 17.0667 3.9111C17.1615 4.38517 17.1615 4.85926 17.0667 5.33333C16.8668 4.88976 16.7957 4.41569 16.8533 3.9111C16.6163 3.9111 16.3793 3.9111 16.1422 3.9111C16.099 4.34089 16.0279 4.76755 15.9289 5.1911C15.8579 4.43407 15.8342 3.67554 15.8578 2.91555C15.8158 2.59763 15.8633 2.31318 16 2.06222Z"
            fill="#E2D2B3" />
        <path fill-rule="evenodd" clip-rule="evenodd"
            d="M16.1423 2.34675C16.384 2.32397 16.6211 2.34768 16.8534 2.41786C17.199 3.18359 16.962 3.58655 16.1423 3.62675C16.1423 3.20009 16.1423 2.77342 16.1423 2.34675Z"
            fill="#7A5F35" />
        <path fill-rule="evenodd" clip-rule="evenodd"
            d="M17.5645 1.63573C17.9976 1.63686 18.4242 1.68427 18.8445 1.77796C18.785 1.88058 18.6903 1.95169 18.5601 1.99129C18.7316 2.13603 18.6842 2.20714 18.4178 2.20462C17.6082 1.89618 16.8022 1.84877 16.0001 2.0624C15.8634 2.31337 15.8159 2.59781 15.8578 2.91573C15.7701 2.93148 15.699 2.97888 15.6445 3.05796C15.5971 2.82091 15.5496 2.58389 15.5023 2.34684C15.3585 2.22786 15.1925 2.18044 15.0045 2.20462C15.0045 2.44166 15.0045 2.67869 15.0045 2.91573C14.8623 2.91573 14.7201 2.91573 14.5778 2.91573C14.5778 2.58389 14.5778 2.25202 14.5778 1.92018C14.2426 1.9434 13.9108 1.91969 13.5823 1.84907C14.9038 1.67395 16.2313 1.60284 17.5645 1.63573Z"
            fill="#7D5E26" />
        <path fill-rule="evenodd" clip-rule="evenodd"
            d="M7.89333 26.9509C7.94073 26.9509 7.98814 26.9509 8.03555 26.9509C8.08817 27.4751 7.89854 27.6174 7.46666 27.3776C6.71368 26.8617 6.04998 26.2455 5.47555 25.5287C5.34001 25.0857 5.52965 24.8012 6.04444 24.6754C5.94642 24.3989 5.87531 24.1144 5.8311 23.822C5.30718 23.5866 4.80941 23.3969 4.33777 23.2531C4.27937 23.3615 4.25566 23.5037 4.26666 23.6798C4.01904 23.3895 3.99533 23.0813 4.19555 22.7554C4.95271 22.5137 5.71122 22.5375 6.4711 22.8265C6.73551 23.4554 6.83031 24.119 6.75555 24.8176C6.48126 24.7793 6.24422 24.8504 6.04444 25.0309C6.50617 25.3135 6.81431 25.7164 6.96888 26.2398C7.12558 25.9723 7.31522 25.7352 7.53777 25.5287C7.73859 25.3263 7.90452 25.3501 8.03555 25.5998C7.89489 25.8586 7.75267 26.1193 7.60888 26.382C7.6328 26.6197 7.72762 26.8093 7.89333 26.9509Z"
            fill="#7E602C" />
        <path fill-rule="evenodd" clip-rule="evenodd"
            d="M7.89335 19.271C7.8374 20.6483 8.33518 21.7861 9.38669 22.6843C9.32021 21.9032 9.34392 21.1448 9.4578 20.4088C9.49348 21.1209 9.5409 21.832 9.60002 22.5421C9.74224 22.5421 9.88446 22.5421 10.0267 22.5421C9.86041 23.0533 10.05 23.4326 10.5956 23.6799C10.5817 23.149 10.6292 22.6276 10.7378 22.1154C10.7576 22.5787 10.8524 23.0291 11.0222 23.4666C10.6922 24.1114 10.8818 24.4196 11.5911 24.391C11.5911 24.5332 11.5911 24.6754 11.5911 24.8177C10.644 24.3914 9.79068 23.8225 9.03113 23.111C8.41992 22.4022 7.85103 21.6435 7.32446 20.8354C7.51409 20.8354 7.70373 20.8354 7.89335 20.8354C7.89335 20.3139 7.89335 19.7925 7.89335 19.271Z"
            fill="#F3EDDD" />
        <path fill-rule="evenodd" clip-rule="evenodd"
            d="M14.8622 24.9599C14.8135 24.4566 14.7186 23.9588 14.5778 23.4666C14.5876 23.1841 14.6823 22.9708 14.8622 22.8266C15.426 23.5771 15.7578 24.4304 15.8578 25.3866C16 25.3866 16.1422 25.3866 16.2845 25.3866C16.2633 24.9447 16.3344 24.518 16.4978 24.1066C16.9472 23.2561 17.3501 22.4028 17.7067 21.5466C17.7481 22.4601 17.7007 23.3608 17.5645 24.2488C17.3598 24.5458 17.2649 24.8776 17.28 25.2444C17.7993 25.2924 18.0362 25.0555 17.9911 24.5333C18.1004 24.4247 18.1715 24.2825 18.2045 24.1066C18.2754 23.397 18.2992 22.6859 18.2756 21.9733C18.2473 21.4839 18.3184 21.0098 18.4889 20.551C18.5899 20.3415 18.7557 20.2467 18.9867 20.2666C19.4395 21.5732 19.5106 22.9005 19.2 24.2488C18.7253 25.0921 18.8913 25.1868 19.6978 24.5333C19.8423 24.1376 19.9845 23.7583 20.1245 23.3955C20.1013 23.7307 20.1249 24.0625 20.1956 24.391C20.2544 24.456 20.3256 24.5035 20.4089 24.5333C20.7694 24.3341 21.1487 24.1919 21.5467 24.1066C20.3812 24.9942 19.0538 25.5395 17.5645 25.7421C15.4509 26.0714 13.4597 25.7633 11.5911 24.8177C11.5911 24.6755 11.5911 24.5333 11.5911 24.391C10.8818 24.4196 10.6922 24.1114 11.0222 23.4666C10.8524 23.0291 10.7576 22.5787 10.7378 22.1155C10.833 21.6642 10.999 21.2375 11.2356 20.8355C11.877 20.2404 12.3511 19.5293 12.6578 18.7021C12.7678 19.7958 12.5782 20.8389 12.0889 21.831C11.9941 22.4948 11.9941 23.1584 12.0889 23.8221C12.184 24.5126 12.5395 24.8446 13.1556 24.8177C12.5808 23.249 12.6045 21.6845 13.2267 20.1244C13.5002 20.4546 13.6899 20.8339 13.7956 21.2621C13.8103 22.6025 13.9288 23.93 14.1511 25.2444C14.4755 25.3045 14.7126 25.2097 14.8622 24.9599Z"
            fill="#F6F3EC" />
        <path fill-rule="evenodd" clip-rule="evenodd"
            d="M17.7067 21.5469C17.8243 22.2795 17.8954 23.0379 17.92 23.8224C18.0773 23.2055 18.1958 22.5892 18.2756 21.9735C18.2992 22.6862 18.2754 23.3973 18.2045 24.1069C18.1715 24.2828 18.1003 24.425 17.9911 24.5335C17.9238 24.3336 17.7816 24.2387 17.5645 24.2491C17.7007 23.3611 17.7481 22.4604 17.7067 21.5469Z"
            fill="#8D795D" />
        <path fill-rule="evenodd" clip-rule="evenodd"
            d="M14.8623 22.8269C14.6824 22.9711 14.5876 23.1845 14.5778 23.4669C14.7186 23.9591 14.8135 24.4569 14.8623 24.9602C14.416 24.2817 14.2264 23.5232 14.2934 22.6847C14.3402 21.2474 14.5298 21.2947 14.8623 22.8269Z"
            fill="#F3EADC" />
        <path fill-rule="evenodd" clip-rule="evenodd"
            d="M17.1377 20.9778C17.2428 20.9592 17.3377 20.9829 17.4222 21.0489C17.0557 21.8772 16.7001 22.707 16.3555 23.5378C16.2018 22.5534 16.4626 21.7 17.1377 20.9778Z"
            fill="#F2E6D4" />
        <path fill-rule="evenodd" clip-rule="evenodd"
            d="M14.72 20.9775C15.6177 21.6545 15.9732 22.5552 15.7866 23.6798C15.3601 22.8023 15.0046 21.9014 14.72 20.9775Z"
            fill="#F1E7D8" />
        <path fill-rule="evenodd" clip-rule="evenodd"
            d="M10.0266 25.3865C9.92579 25.5151 9.78357 25.5624 9.59996 25.5287C9.59996 25.6709 9.59996 25.8132 9.59996 25.9554C9.07714 25.6977 9.10085 25.4132 9.67107 25.1021C9.81254 25.1825 9.93106 25.2774 10.0266 25.3865Z"
            fill="#786956" />
        <path fill-rule="evenodd" clip-rule="evenodd"
            d="M9.45776 24.5332C9.7936 24.6662 10.1018 24.8558 10.3822 25.1021C10.4346 25.4544 10.3161 25.5492 10.0266 25.3865C9.93107 25.2775 9.81256 25.1826 9.67109 25.1021C9.10086 25.4133 9.07715 25.6977 9.59998 25.9554C9.54317 26.4491 9.32984 26.4964 8.95998 26.0976C8.80587 26.2633 8.68735 26.4529 8.60442 26.6665C8.74664 26.8561 8.88887 27.0458 9.03109 27.2354C8.98734 27.3503 8.91623 27.4452 8.81776 27.5199C8.56542 27.3115 8.30469 27.1219 8.03553 26.951C7.98813 26.951 7.94071 26.951 7.89331 26.951C8.35984 26.106 8.88133 25.3001 9.45776 24.5332Z"
            fill="#F4ECD9" />
        <path fill-rule="evenodd" clip-rule="evenodd"
            d="M2.77333 22.542C5.32208 27.0823 9.16208 29.7845 14.2933 30.6487C13.9754 30.6067 13.691 30.6542 13.44 30.7909C8.63456 29.8228 5.03159 27.2154 2.6311 22.9687C2.75967 22.8678 2.80708 22.7256 2.77333 22.542Z"
            fill="#796548" />
        <path fill-rule="evenodd" clip-rule="evenodd"
            d="M29.3688 10.5957C31.5788 17.092 30.109 22.6149 24.9599 27.1646C19.166 31.3287 13.3349 31.3998 7.46655 27.3779C7.89844 27.6177 8.08806 27.4755 8.03544 26.9513C8.3046 27.1222 8.56533 27.3118 8.81766 27.5201C8.91614 27.4455 8.98725 27.3506 9.031 27.2357C8.88877 27.0461 8.74655 26.8564 8.60433 26.6668C8.68726 26.4532 8.80577 26.2636 8.95989 26.0979C9.32975 26.4967 9.54308 26.4494 9.59989 25.9557C9.59989 25.8135 9.59989 25.6713 9.59989 25.529C9.7835 25.5627 9.92572 25.5154 10.0266 25.3868C10.316 25.5495 10.4345 25.4547 10.3821 25.1024C10.1017 24.856 9.79351 24.6665 9.45766 24.5335C9.48915 24.3578 9.58397 24.2156 9.74211 24.1068C9.39937 23.8471 9.16233 23.5152 9.031 23.1113C9.79055 23.8228 10.6439 24.3917 11.591 24.8179C13.4596 25.7636 15.4508 26.0716 17.5643 25.7424C19.0537 25.5397 20.381 24.9944 21.5466 24.1068C23.138 23.1322 24.3233 21.8048 25.1021 20.1246C25.1251 20.4129 25.1014 20.6973 25.031 20.9779C24.6085 21.666 24.0871 22.2822 23.4666 22.8268C23.3788 22.9618 23.4024 23.0803 23.5377 23.1824C23.0112 23.3663 22.5845 23.6745 22.2577 24.1068C22.305 24.249 22.3999 24.3439 22.5421 24.3913C22.6532 24.2153 22.7954 24.0731 22.9688 23.9646C23.3269 24.2587 23.7062 24.5194 24.1066 24.7468C24.0117 24.889 23.917 25.0313 23.8221 25.1735C24.0666 25.3238 24.3274 25.4423 24.6043 25.529C24.6095 25.8762 24.7279 26.1606 24.9599 26.3824C25.4767 26.1264 25.8796 25.7472 26.1688 25.2446C26.2161 25.292 26.2636 25.3395 26.311 25.3868C26.4087 24.9707 26.6694 24.7811 27.0932 24.8179C27.0742 24.1976 27.2164 23.6287 27.5199 23.1113C27.7996 23.1452 28.0605 23.0979 28.3021 22.969C28.397 22.5897 28.4917 22.2106 28.5866 21.8313C28.765 21.7301 28.9309 21.6117 29.0843 21.4757C28.9952 21.1425 28.8529 20.8343 28.6577 20.5513C28.8335 20.4294 29.023 20.3347 29.2266 20.2668C29.3443 19.608 29.4154 18.9444 29.4399 18.2757C29.4872 18.3231 29.5347 18.3706 29.5821 18.4179C29.677 18.2283 29.8192 18.0861 30.0088 17.9913C30.0799 16.5224 30.1035 15.0528 30.0799 13.5824C29.8903 13.5824 29.7006 13.5824 29.511 13.5824C29.6074 13.247 29.6549 12.9389 29.6532 12.6579C29.5474 11.9522 29.3103 11.3122 28.9421 10.7379C29.1257 10.7717 29.2679 10.7243 29.3688 10.5957Z"
            fill="#7F6135" />
        <path fill-rule="evenodd" clip-rule="evenodd"
            d="M10.8801 25.6711C11.7098 25.5057 12.089 25.8377 12.0179 26.6667C11.8757 26.6667 11.7334 26.6667 11.5912 26.6667C11.5912 26.4771 11.5912 26.2874 11.5912 26.0978C11.449 26.0978 11.3068 26.0978 11.1645 26.0978C11.2003 26.6825 11.2714 27.2514 11.3779 27.8045C11.186 28.296 10.8304 28.462 10.3112 28.3023C9.95813 27.974 9.93442 27.6184 10.2401 27.2356C10.4206 27.4354 10.4917 27.6723 10.4534 27.9467C10.5957 27.9467 10.7379 27.9467 10.8801 27.9467C10.8537 27.4142 10.7589 26.8927 10.5957 26.3823C10.6934 26.1437 10.7882 25.9067 10.8801 25.6711Z"
            fill="#EFE8D5" />
        <path fill-rule="evenodd" clip-rule="evenodd"
            d="M20.409 25.671C20.7349 25.6346 21.0431 25.682 21.3334 25.8133C21.7751 26.5214 22.0122 27.2799 22.0445 28.0888C21.7006 28.3989 21.3215 28.4462 20.9067 28.231C20.6177 27.6006 20.3569 26.9606 20.1245 26.311C20.1272 26.0504 20.2219 25.837 20.409 25.671Z"
            fill="#F3EED9" />
        <path fill-rule="evenodd" clip-rule="evenodd"
            d="M22.2579 24.5334C22.6456 24.4998 22.9774 24.6183 23.2534 24.8889C23.1787 24.9874 23.0839 25.0585 22.969 25.1023C22.7932 24.9962 22.6035 24.9488 22.4001 24.9601C22.4006 25.2931 22.5191 25.5776 22.7556 25.8134C22.8906 25.4294 23.1514 25.3109 23.5379 25.4578C23.9709 25.8253 24.1843 26.2756 24.1779 26.8089C23.8847 27.1827 23.5292 27.2776 23.1112 27.0934C22.7829 26.5992 22.4274 26.1251 22.0445 25.6712C21.9178 25.2448 21.9889 24.8656 22.2579 24.5334Z"
            fill="#F5EEDF" />
        <path fill-rule="evenodd" clip-rule="evenodd"
            d="M22.969 25.8135C23.5274 25.9433 23.7169 26.2751 23.5379 26.809C23.2254 26.5448 23.0357 26.2128 22.969 25.8135Z"
            fill="#706849" />
        <path fill-rule="evenodd" clip-rule="evenodd"
            d="M17.5646 24.2488C17.7817 24.2384 17.924 24.3333 17.9912 24.5333C18.0363 25.0555 17.7994 25.2924 17.2801 25.2444C17.265 24.8776 17.3599 24.5458 17.5646 24.2488Z"
            fill="#756237" />
        <path fill-rule="evenodd" clip-rule="evenodd"
            d="M20.551 26.0976C20.7181 26.0665 20.8604 26.1139 20.9777 26.2399C21.296 26.7807 21.5329 27.3496 21.6888 27.9465C21.5217 27.9777 21.3795 27.9303 21.2621 27.8043C20.9438 27.2634 20.7069 26.6946 20.551 26.0976Z"
            fill="#706145" />
        <path fill-rule="evenodd" clip-rule="evenodd"
            d="M12.5866 26.0977C13.1136 26.1581 13.5877 26.3478 14.0088 26.6665C13.7534 26.7577 13.5401 26.8999 13.3688 27.0932C13.2043 27.7506 13.0858 28.4143 13.0132 29.0843C12.8236 29.0843 12.634 29.0843 12.4443 29.0843C12.6045 28.3192 12.7942 27.5606 13.0132 26.8088C12.8959 26.6828 12.7537 26.6354 12.5866 26.6665C12.5866 26.477 12.5866 26.2872 12.5866 26.0977Z"
            fill="#F4EBD7" />
        <path fill-rule="evenodd" clip-rule="evenodd"
            d="M18.2757 26.3823C18.8431 26.2566 19.246 26.4462 19.4845 26.9512C19.574 27.4564 19.6925 27.9542 19.8401 28.4445C19.7067 29.1632 19.3036 29.3765 18.6312 29.0845C18.3823 28.4094 18.169 27.7221 17.9912 27.0223C18.0686 26.7969 18.1634 26.5836 18.2757 26.3823Z"
            fill="#F2EADB" />
        <path fill-rule="evenodd" clip-rule="evenodd"
            d="M18.5601 26.8091C18.7023 26.8091 18.8445 26.8091 18.9867 26.8091C19.0923 27.303 19.1871 27.8008 19.2712 28.3024C19.2238 28.4684 19.1763 28.6342 19.1289 28.8002C18.8078 28.1801 18.6182 27.5164 18.5601 26.8091Z"
            fill="#72633C" />
        <path fill-rule="evenodd" clip-rule="evenodd"
            d="M13.8667 28.9424C14.0089 28.9424 14.1511 28.9424 14.2934 28.9424C14.2934 29.0846 14.2934 29.2268 14.2934 29.369C14.1511 29.369 14.0089 29.369 13.8667 29.369C13.8667 29.2268 13.8667 29.0846 13.8667 28.9424Z"
            fill="#F6EBC1" />
        <path fill-rule="evenodd" clip-rule="evenodd"
            d="M16.2845 26.6665C17.1372 26.5005 17.4928 26.8323 17.3511 27.6621C17.1186 28.1075 16.8579 28.5342 16.5689 28.9421C16.8386 29.0794 17.123 29.1268 17.4223 29.0843C17.4223 29.2265 17.4223 29.3687 17.4223 29.5109C16.9956 29.5109 16.5689 29.5109 16.1423 29.5109C16.1194 28.8931 16.3327 28.3716 16.7823 27.9465C16.8527 27.6659 16.8764 27.3815 16.8534 27.0932C16.7111 27.0932 16.5689 27.0932 16.4267 27.0932C16.4267 27.2828 16.4267 27.4725 16.4267 27.6621C16.2845 27.6621 16.1423 27.6621 16 27.6621C15.9552 27.2765 16.0501 26.9447 16.2845 26.6665Z"
            fill="#F6EEDE" />
        <path fill-rule="evenodd" clip-rule="evenodd"
            d="M22.8266 29.5112C22.4763 29.8527 22.097 30.1608 21.6889 30.4357C20.5306 30.7982 19.3455 30.964 18.1333 30.9335C18.2852 30.8006 18.4748 30.7531 18.7022 30.7912C20.1204 30.5082 21.4951 30.0815 22.8266 29.5112Z"
            fill="#F3F0DE" />
        <path fill-rule="evenodd" clip-rule="evenodd"
            d="M13.4399 30.791C13.6909 30.6543 13.9754 30.6068 14.2933 30.6488C15.3362 30.6488 16.3792 30.6488 17.4222 30.6488C17.8791 30.6047 18.3058 30.652 18.7022 30.791C18.4748 30.7529 18.2852 30.8004 18.1333 30.9332C16.555 31.1397 14.9906 31.0923 13.4399 30.791Z"
            fill="#7E6039" />
    </g>
    <defs>
        <clipPath id="clip0_5702_3808">
            <rect width="32" height="32" fill="white" />
        </clipPath>
    </defs>
</svg>