<svg width="32" height="32" viewBox="0 0 32 32" fill="none" xmlns="http://www.w3.org/2000/svg">
    <path fill-rule="evenodd" clip-rule="evenodd"
        d="M17.9427 5.19434C18.4737 5.19434 19.0048 5.19434 19.5359 5.19434C22.7505 5.5458 25.2351 7.07503 26.9899 9.78201C27.4946 10.6394 27.874 11.5494 28.1279 12.5119C30.9743 14.3474 32.2514 16.9635 31.9592 20.3602C31.5465 22.9761 30.1999 24.9413 27.9193 26.2559C27.5157 26.4515 27.1111 26.6347 26.7054 26.8057C19.2324 26.8057 11.7595 26.8057 4.28652 26.8057C3.17835 26.324 2.22368 25.629 1.42252 24.7204C0.621871 23.6889 0.147697 22.5262 0 21.2322C0 20.7773 0 20.3223 0 19.8673C0.345326 17.3133 1.68565 15.4871 4.02098 14.3886C4.17852 14.3098 4.34289 14.253 4.51412 14.218C5.24506 12.1921 6.66128 10.9347 8.7627 10.4455C9.24127 10.3818 9.72174 10.3376 10.2042 10.3128C11.9002 7.27842 14.4797 5.57226 17.9427 5.19434ZM18.2461 7.27964C20.7592 7.21849 22.8519 8.1158 24.5242 9.97159C25.4395 11.1447 26.0022 12.4717 26.2122 13.9526C28.0286 14.6878 29.1982 16.0021 29.7211 17.8958C30.2062 20.2324 29.5677 22.1977 27.8055 23.7915C26.8207 24.5803 25.6953 25.0226 24.4293 25.1185C18.4232 25.1438 12.417 25.1438 6.41081 25.1185C4.42623 24.8918 3.06695 23.8492 2.33293 21.9905C1.74908 19.8866 2.31176 18.1615 4.02098 16.8152C4.72632 16.3358 5.50396 16.0515 6.35391 15.9621C6.44521 14.2787 7.28609 13.1602 8.8765 12.6067C9.45492 12.4465 10.0366 12.4339 10.6215 12.5687C10.9137 12.6645 11.2045 12.7593 11.4939 12.8531C12.1514 10.4972 13.6055 8.83523 15.8563 7.86732C16.6274 7.54783 17.424 7.35193 18.2461 7.27964Z"
        fill="#754489" />
</svg>