<svg width="32" height="32" viewBox="0 0 32 32" fill="none" xmlns="http://www.w3.org/2000/svg">
    <path
        d="M16.8625 0.329584C18.3758 1.43645 19.1567 3.36581 20.0506 4.99202C20.4328 5.68723 20.8207 6.37893 21.2117 7.06893C21.2999 7.22455 21.2999 7.22455 21.3899 7.38333C21.5079 7.59161 21.626 7.79987 21.7442 8.00812C22.0448 8.53824 22.3445 9.06891 22.6443 9.59951C22.7647 9.81262 22.8852 10.0257 23.0056 10.2388C23.7284 11.5174 24.4511 12.796 25.1738 14.0746C25.2632 14.2329 25.2632 14.2329 25.3545 14.3942C25.475 14.6075 25.5956 14.8208 25.7161 15.0341C26.0157 15.5643 26.3155 16.0944 26.6156 16.6244C27.3047 17.8416 27.9902 19.0609 28.6717 20.2828C29.056 20.9713 29.4433 21.6579 29.8331 22.3431C32.2224 26.5483 32.2224 26.5483 31.7618 28.8095C31.3754 29.9941 30.6286 31.0661 29.5424 31.6422C28.1698 32.3159 26.7583 31.9206 25.3876 31.4196C23.3233 30.5708 21.5726 29.1549 19.9599 27.6066C17.6679 25.3954 17.6679 25.3954 14.81 24.2804C14.3656 24.3274 14.1047 24.6838 13.8103 25.0028C13.6657 25.151 13.521 25.2992 13.3763 25.4473C13.3037 25.5232 13.2311 25.5991 13.1563 25.6772C12.8235 26.0213 12.4783 26.3509 12.1325 26.6809C12.0044 26.8041 11.8762 26.9273 11.7481 27.0505C11.6289 27.1649 11.5097 27.2792 11.3904 27.3935C11.3379 27.4439 11.2853 27.4943 11.2312 27.5463C10.5484 28.1995 9.84433 28.816 9.11899 29.418C8.99482 29.5239 8.87074 29.6299 8.74674 29.736C7.34817 30.9246 6.05149 31.829 4.18252 31.8154C4.08328 31.8147 3.98403 31.814 3.88178 31.8133C2.73389 31.783 1.80106 31.4728 0.956473 30.6317C0.00210052 29.4188 -0.0647942 28.1372 0.0333052 26.6477C0.34379 24.6251 1.6452 22.7456 2.61447 21.0005C2.85273 20.5708 3.09091 20.1411 3.32906 19.7114C3.39911 19.585 3.46917 19.4586 3.53926 19.3323C4.03583 18.437 4.52761 17.5392 5.01494 16.6385C5.65279 15.4598 6.30002 14.2869 6.95082 13.1157C7.22202 12.6274 7.49307 12.1391 7.76388 11.6506C7.79886 11.5875 7.83384 11.5244 7.86988 11.4594C8.42942 10.4497 8.98203 9.43616 9.53157 8.42061C10.0009 7.55396 10.4761 6.69099 10.9548 5.82986C11.1708 5.44138 11.3856 5.05229 11.5996 4.6627C11.7471 4.39431 11.8949 4.12608 12.0426 3.85785C12.1143 3.72756 12.1859 3.59719 12.2573 3.46676C12.6658 2.72111 13.0863 1.99307 13.5586 1.28854C13.6203 1.19404 13.6821 1.09955 13.7457 1.00219C14.6028 0.0670955 15.7091 -0.336477 16.8625 0.329584Z"
        fill="#3B6DE4" />
</svg>