<svg width="32" height="32" viewBox="0 0 32 32" fill="none" xmlns="http://www.w3.org/2000/svg">
    <g clip-path="url(#clip0_5737_1018)">
        <rect width="32" height="32" fill="#FAFAFA" />
        <path
            d="M25.351 2.86842C28.8977 5.5941 30.9282 8.80087 31.8982 13.1727C32.3738 18.5754 31.1964 22.5471 28.079 26.9702C25.1135 30.0077 21.3028 31.9156 17.0688 31.9992C11.7986 32.0339 7.85461 30.8883 4.02987 27.1142C0.394084 22.8555 -0.294227 18.2507 0.0973899 12.8604C0.799174 8.96506 3.19239 5.25575 6.43028 2.98795C12.4625 -0.806853 19.3189 -1.13875 25.351 2.86842ZM14.1467 7.27895C13.4183 8.12229 13.4183 8.12229 13.4647 9.13294C13.905 10.2846 14.2993 10.701 15.3743 11.2992C16.6124 11.3245 17.082 11.1333 18.0048 10.3039C18.5708 9.45095 18.5708 9.45095 18.492 8.44989C18.13 7.40762 17.9191 7.09583 16.9331 6.61542C15.6489 6.39649 15.2119 6.50718 14.1467 7.27895ZM7.89171 12.2359C7.43459 13.6646 7.43459 13.6646 7.87223 14.3436C9.24018 15.1739 10.9407 15.0595 12.4977 15.0523C12.8698 15.051 12.8698 15.051 13.2495 15.0496C13.4363 15.0485 13.623 15.0473 13.8154 15.0462C13.5709 16.2631 13.3232 17.4794 13.0749 18.6956C12.9712 19.2121 12.9712 19.2121 12.8655 19.7391C12.7971 20.0722 12.7288 20.4052 12.6584 20.7484C12.5964 21.0542 12.5343 21.36 12.4704 21.675C12.2602 22.5254 11.9607 23.2909 11.633 24.1014C11.5288 24.9215 11.5288 24.9215 11.633 25.6627C11.8388 25.8688 12.0445 26.0748 12.2565 26.2872C13.0495 26.2999 13.0495 26.2999 13.8154 25.9749C14.2536 25.3367 14.2536 25.3367 14.4974 24.5308C14.6463 24.1075 14.6463 24.1075 14.7982 23.6757C14.8854 23.404 14.9726 23.1324 15.0625 22.8524C15.1336 22.6419 15.2048 22.4314 15.278 22.2145C15.6118 21.1558 15.7531 20.2134 15.686 19.1054C15.8918 19.1054 16.0976 19.1054 16.3096 19.1054C16.3482 19.685 16.3482 19.685 16.3875 20.2764C16.6049 22.2612 17.0485 24.8415 18.492 26.2872C19.3035 26.1871 19.3035 26.1871 20.0509 25.9749C20.5795 24.3897 20.0895 23.1057 19.6417 21.5644C19.0414 19.4044 18.514 17.2664 18.1802 15.0462C18.5789 15.0591 18.9776 15.0719 19.3883 15.0852C21.0138 15.0904 22.5264 14.7911 24.1039 14.4217C24.4164 13.3028 24.4164 13.3028 24.1039 12.2359C18.7539 12.2359 13.4039 12.2359 7.89171 12.2359Z"
            fill="black" />
    </g>
    <defs>
        <clipPath id="clip0_5737_1018">
            <rect width="32" height="32" fill="white" />
        </clipPath>
    </defs>
</svg>