<svg width="32" height="32" viewBox="0 0 32 32" fill="none" xmlns="http://www.w3.org/2000/svg">
    <path fill-rule="evenodd" clip-rule="evenodd"
        d="M9.00371 10.9102C7.67124 10.9102 6.6416 11.9463 6.6416 13.2873V31.9995C8.15577 31.9995 9.36711 30.7805 9.36711 29.2567V10.9102H9.00371Z"
        fill="#8CD4DF" />
    <path fill-rule="evenodd" clip-rule="evenodd"
        d="M14.5757 5.4248C13.2433 5.4248 12.2136 6.46099 12.2136 7.80193V26.5142C13.7278 26.5142 14.9391 25.2951 14.9391 23.7713V5.4248H14.5757Z"
        fill="#64AEE0" />
    <path fill-rule="evenodd" clip-rule="evenodd"
        d="M20.0874 0C18.755 0 17.7253 1.03618 17.7253 2.37713V21.0894C19.2395 21.0894 20.4508 19.8703 20.4508 18.3465V0H20.0874Z"
        fill="#5070B6" />
    <path fill-rule="evenodd" clip-rule="evenodd"
        d="M25.5989 5.4248C24.2665 5.4248 23.2368 6.46099 23.2368 7.80193V26.5142C24.751 26.5142 25.9623 25.2951 25.9623 23.7713V5.4248H25.5989Z"
        fill="#7056A4" />
</svg>