<svg width="32" height="32" viewBox="0 0 32 32" fill="none" xmlns="http://www.w3.org/2000/svg">
    <path fill-rule="evenodd" clip-rule="evenodd"
        d="M30.8966 26.7238C28.6897 26.7238 26.4828 26.7238 24.2759 26.7238C24.2324 25.6104 23.8645 24.5826 23.1724 23.6403C18.3908 22.2699 13.6092 22.2699 8.82759 23.6403C8.1355 24.5826 7.76761 25.6104 7.72414 26.7238C5.51724 26.7238 3.31034 26.7238 1.10345 26.7238C0.504177 26.6621 0.136364 26.3195 0 25.696C4.04598 17.4733 8.09192 9.25054 12.1379 1.02784C14.7126 -0.342613 17.2874 -0.342613 19.8621 1.02784C24.0501 9.34533 28.0961 17.7394 32 26.2099C31.748 26.6198 31.3801 26.791 30.8966 26.7238ZM15.4483 9.25055C18.0056 10.9827 19.1091 13.3809 18.7586 16.4454C16.5216 16.612 14.3147 16.4408 12.1379 15.9315C13.1375 13.6484 14.241 11.4214 15.4483 9.25055Z"
        fill="#EF5002" />
    <path fill-rule="evenodd" clip-rule="evenodd"
        d="M1.10319 26.7238C3.31009 26.7238 5.51699 26.7238 7.72388 26.7238C7.56962 32.1171 5.17889 33.145 0.551469 29.8073C0.0333114 28.7005 0.217212 27.6727 1.10319 26.7238Z"
        fill="#6FC1BF" />
    <path fill-rule="evenodd" clip-rule="evenodd"
        d="M24.2757 26.7238C26.4826 26.7238 28.6895 26.7238 30.8964 26.7238C31.1072 31.894 29.0842 33.2644 24.8275 30.8351C24.2868 29.5059 24.1028 28.1354 24.2757 26.7238Z"
        fill="#6DBFBD" />
</svg>