<svg xmlns="http://www.w3.org/2000/svg" viewBox="0 0 120.1 120.1">
  <defs>
    <linearGradient id="airwallex-gradient" x1="0" y1="59.95" x2="120.102" y2="59.95" gradientUnits="userSpaceOnUse">
      <stop offset="0" stop-color="#EF4749"/>
      <stop offset="1" stop-color="#F68D41"/>
    </linearGradient>
  </defs>
  <g transform="translate(0 20.15)">
    <path fill="url(#airwallex-gradient)" d="M115.5 31.4c-4.3-4.2-10.3-5.4-15.8-3.1L74.9 38.4l-27-32.3C44 1.4 38-.8 32 .2c-6 1.1-10.9 5.1-13 10.9L.9 59.9c-2.4 6.4-.1 13.7 5.7 17.5 4.1 2.7 9.3 3 13.8 1.2l24.5-10c4.1-1.7 6.4-6.3 5-10.5-1.5-4.6-6.6-7-11-5.2l-18.6 7.7c-.8.3-1.7-.5-1.4-1.3L34.2 18c.3-.7 1.3-.9 1.8-.3l47 56.2c3.2 3.8 7.8 5.9 12.6 5.9 1.1 0 2.1-.1 3.2-.3 5.8-1.1 10.5-5.4 12.5-11l7.8-21.3c2.1-5.6.7-11.7-3.6-15.8zm-14.3 16.2-5.1 13.8c-.3.8-1.3.9-1.8.3l-8.2-9.8 13.7-5.6c.9-.4 1.8.4 1.4 1.3z"/>
  </g>
</svg>
