<svg width="32" height="32" viewBox="0 0 32 32" fill="none" xmlns="http://www.w3.org/2000/svg">
    <path fill-rule="evenodd" clip-rule="evenodd"
        d="M6.10908 0.0179997C12.7037 -0.030002 19.2977 0.0179997 25.8909 0.162062C28.9876 0.732378 30.9753 2.50913 31.8545 5.49238C32.0485 12.5034 32.0485 19.5145 31.8545 26.5255C30.9753 29.5088 28.9876 31.2857 25.8909 31.8559C19.394 32.048 12.8968 32.048 6.39999 31.8559C3.14531 31.4171 1.06066 29.6405 0.145461 26.5255C-0.0484871 19.5145 -0.0484871 12.5034 0.145461 5.49238C1.0752 2.50556 3.06327 0.680746 6.10908 0.0179997Z"
        fill="#F8F8F8" />
    <path fill-rule="evenodd" clip-rule="evenodd"
        d="M5.52734 10.3901C7.32428 7.23729 10.0396 5.26844 13.6728 4.4835C18.3261 3.71553 22.3503 4.91603 25.7455 8.08507C28.8402 12.8045 28.5492 17.3185 24.8727 21.627C25.015 24.4621 23.7059 26.239 20.9455 26.9573C16.3005 28.3622 11.9369 27.7859 7.8546 25.2285C4.6901 21.9661 3.47818 18.0763 4.21825 13.5594C4.34974 12.3439 4.7861 11.2874 5.52734 10.3901Z"
        fill="#181414" />
    <path fill-rule="evenodd" clip-rule="evenodd"
        d="M22.4003 22.78C22.7063 22.737 22.9973 22.7849 23.273 22.924C21.3056 25.3143 18.736 26.5146 15.564 26.5256C14.7355 26.4397 13.9113 26.3438 13.0912 26.2375C13.0912 26.0453 12.9944 25.9493 12.8003 25.9493C9.61023 24.7358 7.71933 22.4307 7.12762 19.0343C6.74246 15.426 8.14871 12.7849 11.3458 11.1109C12.0245 10.9188 12.7035 10.9188 13.3822 11.1109C11.4322 11.8552 10.0262 13.1518 9.16398 15.0006C8.66769 16.6157 9.24951 17.4801 10.9094 17.5937C13.6003 17.0829 15.1035 15.4501 15.4185 12.6956C15.4505 12.1556 15.2568 11.7234 14.8367 11.399C16.3901 11.1141 17.1174 11.7384 17.0185 13.2718C15.8723 15.2703 14.6118 17.1912 13.2367 19.0343C12.3552 20.1543 12.0643 21.4029 12.364 22.78C12.579 23.0894 12.8699 23.2816 13.2367 23.3562C14.9149 22.8474 16.2726 21.8868 17.3094 20.475C17.3301 20.9386 17.2815 21.4188 17.164 21.9156C17.1174 22.4501 17.3115 22.8341 17.7458 23.0681C17.8328 22.0294 18.172 21.0688 18.764 20.1868C20.7034 17.3056 22.6426 14.4243 24.5821 11.5431C24.7078 11.2261 24.5623 11.034 24.1458 10.9668C23.598 11.0751 23.1616 11.3632 22.8367 11.8312C20.8253 15.4781 18.3526 18.7916 15.4185 21.7715C14.6703 22.4305 13.7976 22.7664 12.8003 22.78C12.8745 22.055 13.1171 21.3827 13.5276 20.7631C15.1148 18.8044 16.4725 16.6915 17.6003 14.4243C17.838 13.4262 17.7408 12.4658 17.3094 11.5431C10.4303 9.12206 6.59991 11.5711 5.81853 18.8903C5.94944 19.9266 6.0949 20.935 6.2549 21.9156C4.09694 18.1914 3.85461 14.3498 5.52763 10.3906C10.5746 4.37228 16.5868 3.26781 23.5639 7.07712C28.0663 11.2393 28.5513 15.8493 25.0185 20.9071C24.8244 21.0992 24.6307 21.0992 24.4367 20.9071C22.8486 18.478 22.4605 18.526 23.273 21.0512C23.3973 21.8741 23.1063 22.4503 22.4003 22.78Z"
        fill="#F3F3F3" />
    <path fill-rule="evenodd" clip-rule="evenodd"
        d="M13.9633 11.2549C14.6073 11.5117 14.8982 11.992 14.836 12.6955C14.3283 15.3096 12.7769 16.7983 10.1814 17.1615C9.45622 16.2082 9.40792 15.1998 10.036 14.1361C11.0772 12.762 12.3862 11.8016 13.9633 11.2549Z"
        fill="#F2F1F1" />
    <path fill-rule="evenodd" clip-rule="evenodd"
        d="M22.3996 22.7803C22.3673 22.958 22.2705 23.1021 22.1087 23.2125C19.8996 23.2911 19.9964 23.1471 22.3996 22.7803Z"
        fill="#484747" />
    <path fill-rule="evenodd" clip-rule="evenodd"
        d="M17.7451 23.0684C18.5093 23.2427 19.2849 23.3867 20.0724 23.5005C19.3937 23.6927 18.7147 23.6927 18.036 23.5005C17.8743 23.3902 17.7774 23.2461 17.7451 23.0684Z"
        fill="#232020" />
    <path fill-rule="evenodd" clip-rule="evenodd"
        d="M12.7998 25.9492C12.9939 25.9492 13.0907 26.0452 13.0907 26.2373C14.0941 26.6609 15.1608 26.9968 16.2907 27.2458C14.0996 27.4478 12.0632 26.9675 10.1816 25.8052C10.8813 25.7625 11.5603 25.9066 12.218 26.2373C12.4845 26.225 12.6785 26.129 12.7998 25.9492Z"
        fill="#B7B6B6" />
</svg>