<svg width="32" height="32" viewBox="0 0 32 32" fill="none" xmlns="http://www.w3.org/2000/svg">
    <mask id="mask0_5791_82" style="mask-type:luminance" maskUnits="userSpaceOnUse" x="0" y="0"
        width="32" height="32">
        <path
            d="M30.5455 0H1.45454C0.651222 0 0 0.651222 0 1.45454V30.5455C0 31.3488 0.651222 32 1.45454 32H30.5455C31.3488 32 32 31.3488 32 30.5455V1.45454C32 0.651222 31.3488 0 30.5455 0Z"
            fill="white" />
    </mask>
    <g mask="url(#mask0_5791_82)">
        <path
            d="M30.5455 0H1.45454C0.651222 0 0 0.651222 0 1.45454V30.5455C0 31.3488 0.651222 32 1.45454 32H30.5455C31.3488 32 32 31.3488 32 30.5455V1.45454C32 0.651222 31.3488 0 30.5455 0Z"
            fill="white" />
        <path
            d="M22.7871 18.9119C22.7871 14.6275 26.2603 11.1543 30.5448 11.1543C31.3481 11.1543 31.9993 11.8055 31.9993 12.6088V30.5483C31.9993 31.3515 31.3481 32.0028 30.5448 32.0028H24.2417C23.4384 32.0028 22.7871 31.3515 22.7871 30.5483V18.9119Z"
            fill="#8F00FF" />
        <path
            d="M0 12.6088C0 11.8055 0.651221 11.1543 1.45454 11.1543H13.0909C17.3753 11.1543 20.8485 14.6275 20.8485 18.9119V30.5483C20.8485 31.3515 20.1973 32.0028 19.3939 32.0028H1.45454C0.651221 32.0028 0 31.3515 0 30.5483V12.6088Z"
            fill="#FF6900" />
        <path
            d="M22.7871 1.45454C22.7871 0.651223 23.4384 0 24.2417 0H30.5448C31.3481 0 31.9993 0.651221 31.9993 1.45454V7.75757C31.9993 8.56089 31.3481 9.21212 30.5448 9.21212C26.2603 9.21212 22.7871 5.73894 22.7871 1.45454Z"
            fill="#FF71FF" />
        <path
            d="M0 1.45454C0 0.651221 0.651221 0 1.45454 0H19.3939C20.1973 0 20.8485 0.651221 20.8485 1.45454C20.8485 5.73894 17.3753 9.21212 13.0909 9.21212H1.45454C0.651221 9.21212 0 8.56089 0 7.75757V1.45454Z"
            fill="#FFC700" />
    </g>
</svg>