<svg width="32" height="32" viewBox="0 0 32 32" fill="none" xmlns="http://www.w3.org/2000/svg">
    <path fill-rule="evenodd" clip-rule="evenodd"
        d="M16.3372 0.0216949C21.0892 -0.0361742 25.8395 0.0217297 30.5888 0.195372C31.0862 0.356961 31.4915 0.646445 31.8054 1.06376C32.0372 1.99004 32.0372 2.9163 31.8054 3.84258C29.6245 7.85768 27.3651 11.7943 25.0272 15.6526C21.994 10.5325 19.0971 5.32221 16.3372 0.0216949Z"
        fill="#09D2C7" />
    <path fill-rule="evenodd" clip-rule="evenodd"
        d="M15.642 0.716797C15.9889 11.0779 16.1047 21.4986 15.9896 31.9786C11.2377 32.0366 6.48712 31.9786 1.738 31.8049C0.818703 31.2429 0.239358 30.4322 0 29.3735C5.16457 19.805 10.3786 10.2528 15.642 0.716797Z"
        fill="#5D57F9" />
    <path fill-rule="evenodd" clip-rule="evenodd"
        d="M16.3372 0.0214844C19.0971 5.322 21.994 10.5323 25.0272 15.6524C25.0272 15.884 25.0272 16.1155 25.0272 16.3471C21.8671 21.3869 18.9706 26.5972 16.3372 31.978C16.2214 31.978 16.1053 31.978 15.9896 31.978C16.1046 21.498 15.9889 11.0773 15.642 0.716192C15.7577 0.368838 15.9896 0.137257 16.3372 0.0214844Z"
        fill="#3939B1" />
    <path fill-rule="evenodd" clip-rule="evenodd"
        d="M25.0272 16.3477C27.37 20.2171 29.6294 24.1537 31.8054 28.1577C32.2844 29.7163 31.8791 30.932 30.5888 31.8049C25.8395 31.9786 21.0892 32.0366 16.3372 31.9786C18.9706 26.5977 21.8671 21.3874 25.0272 16.3477Z"
        fill="#08D2C7" />
</svg>