<svg width="32" height="32" viewBox="0 0 32 32" fill="none" xmlns="http://www.w3.org/2000/svg">
    <g clip-path="url(#clip0_5688_128)">
        <path fill-rule="evenodd" clip-rule="evenodd"
            d="M9.07478 2.14941C14.7265 2.14941 20.3783 2.14941 26.03 2.14941C28.0493 6.94555 30.0396 11.7615 32.0002 16.5972C31.8755 17.5663 31.3979 18.2828 30.5673 18.7464C24.8343 18.9454 19.103 18.9056 13.3733 18.627C11.5026 14.0897 9.63198 9.5524 7.76135 5.01509C7.62114 3.78369 8.05895 2.82847 9.07478 2.14941Z"
            fill="#0050C8" />
        <path fill-rule="evenodd" clip-rule="evenodd"
            d="M5.73125 5.97021C7.90322 10.9137 10.0525 15.8888 12.179 20.8956C17.99 20.9752 23.8009 21.0548 29.6119 21.1344C29.0655 21.7895 28.548 22.4661 28.0596 23.1642C27.6462 23.6697 27.1287 24.0279 26.5074 24.2389C20.9352 24.3981 15.3631 24.3981 9.79096 24.2389C7.7441 19.7068 5.79385 15.1297 3.94021 10.5075C3.781 9.8707 3.781 9.2339 3.94021 8.59708C4.49665 7.68446 5.09367 6.80883 5.73125 5.97021Z"
            fill="#0050C8" />
        <path fill-rule="evenodd" clip-rule="evenodd"
            d="M22.209 29.8505C17.0348 29.8505 11.8607 29.8505 6.68657 29.8505C6.224 29.5088 5.7862 29.1107 5.37313 28.6565C3.69249 24.3647 1.90144 20.1458 0 15.9998C0 15.2037 0 14.4077 0 13.6117C0.540437 12.7513 1.17725 11.9553 1.91045 11.2236C4.08337 16.1907 6.23262 21.1658 8.35821 26.149C14.0116 26.1889 19.6634 26.3083 25.3134 26.5072C24.5973 27.9391 23.5624 29.0534 22.209 29.8505Z"
            fill="#0050C8" />
    </g>
    <defs>
        <clipPath id="clip0_5688_128">
            <rect width="32" height="32" fill="white" />
        </clipPath>
    </defs>
</svg>