<svg width="32" height="32" viewBox="0 0 32 32" fill="none" xmlns="http://www.w3.org/2000/svg">
    <path fill-rule="evenodd" clip-rule="evenodd"
        d="M14.5267 1.24193C18.6346 0.939915 22.3314 2.00851 25.617 4.4477C29.5779 7.78009 31.3588 12.0449 30.9599 17.2419C30.2892 22.878 27.3915 26.8924 22.2668 29.2852C18.7206 30.7035 15.1008 30.9153 11.4076 29.9206C7.05358 28.5862 3.94406 25.8425 2.07908 21.6896C0.816672 18.4673 0.604877 15.1749 1.4437 11.8123C2.96377 6.81917 6.20806 3.51714 11.1766 1.90619C12.2829 1.59055 13.3997 1.36913 14.5267 1.24193Z"
        fill="#0076C1" />
    <path fill-rule="evenodd" clip-rule="evenodd"
        d="M16.2028 5.86287C18.2978 5.69906 20.2039 6.20926 21.9212 7.39355C23.1663 8.48767 23.8691 9.86431 24.0295 11.5235C24.068 13.7762 24.068 16.0289 24.0295 18.2816C23.7257 21.9359 21.8292 24.333 18.34 25.473C15.6495 26.2301 13.0887 25.922 10.6577 24.5488C9.62171 23.9365 8.8227 23.0989 8.26056 22.0362C7.4047 19.1545 8.28078 16.9692 10.8887 15.4802C11.7009 15.074 12.5481 14.766 13.4302 14.556C15.359 14.2914 17.2844 14.0026 19.2064 13.6896C19.7986 13.5825 20.3088 13.3226 20.7371 12.9098C21.2947 11.4831 20.9 10.3953 19.553 9.64626C18.021 9.12594 16.4615 9.02965 14.8743 9.35745C13.6329 9.67468 12.7954 10.4352 12.3616 11.639C12.2581 12.138 12.1041 12.6194 11.8995 13.0831C11.4089 13.6888 10.7831 13.891 10.0223 13.6896C9.43503 13.4874 9.04034 13.0927 8.83818 12.5055C8.8819 9.86223 10.0853 7.9465 12.4483 6.75817C13.6526 6.23081 14.9041 5.93235 16.2028 5.86287Z"
        fill="#F9F9F9" />
    <path fill-rule="evenodd" clip-rule="evenodd"
        d="M20.7083 15.8556C20.7851 16.2097 20.8236 16.5852 20.8238 16.9819C20.9451 20.0378 19.5011 21.8476 16.4916 22.4115C14.817 22.727 13.3249 22.3515 12.0151 21.2852C11.3617 20.6138 11.1691 19.8243 11.4375 18.917C11.8107 18.1759 12.3979 17.685 13.1992 17.444C13.6729 17.2823 14.1542 17.1475 14.6433 17.0397C16.3392 16.7583 18.0335 16.4695 19.7263 16.1733C20.0796 16.1281 20.4069 16.0222 20.7083 15.8556Z"
        fill="#0376C1" />
</svg>