<svg width="32" height="32" viewBox="0 0 32 32" fill="none" xmlns="http://www.w3.org/2000/svg">
    <g clip-path="url(#clip0_5877_483)">
        <path fill-rule="evenodd" clip-rule="evenodd"
            d="M10.3939 0H21.6667C27.3939 0 32.0303 4.6276 32.0303 10.344V21.656C32.0303 27.3724 27.3939 32 21.6667 32H10.3939C4.66667 32.0302 0 27.4026 0 21.6862V10.344C0 4.6276 4.63636 0 10.3939 0Z"
            fill="url(#paint0_linear_5877_483)" />
        <path fill-rule="evenodd" clip-rule="evenodd"
            d="M2.87891 29.7621L8.18194 22.6846L11.5153 25.195L6.21224 32.3027L2.87891 29.7621Z"
            fill="url(#paint1_linear_5877_483)" />
        <path fill-rule="evenodd" clip-rule="evenodd"
            d="M11.4852 25.2249L8.21251 22.775L8.36402 20.9602C8.36402 20.9602 6.60645 19.3874 4.60645 19.9016C5.39432 19.0245 7.00038 15.6975 10.9701 15.4252C15.2428 10.7069 17.6974 8.16626 24.5761 7.13791C25.6974 6.95643 25.4549 7.68233 25.0913 8.13602C21.6974 12.3704 11.4852 25.2249 11.4852 25.2249Z"
            fill="white" />
    </g>
    <defs>
        <linearGradient id="paint0_linear_5877_483" x1="5.54591" y1="28.5277" x2="26.0032"
            y2="3.96032" gradientUnits="userSpaceOnUse">
            <stop stop-color="#067AEC" />
            <stop offset="1" stop-color="#00BAFF" />
        </linearGradient>
        <linearGradient id="paint1_linear_5877_483" x1="3.90618" y1="30.7602" x2="10.5118"
            y2="24.139" gradientUnits="userSpaceOnUse">
            <stop stop-color="white" />
            <stop offset="0.05" stop-color="white" stop-opacity="0.94" />
            <stop offset="0.31" stop-color="white" stop-opacity="0.68" />
            <stop offset="0.54" stop-color="white" stop-opacity="0.47" />
            <stop offset="0.74" stop-color="white" stop-opacity="0.32" />
            <stop offset="0.9" stop-color="white" stop-opacity="0.23" />
            <stop offset="1" stop-color="white" stop-opacity="0.2" />
        </linearGradient>
        <clipPath id="clip0_5877_483">
            <rect width="32" height="32" fill="white" />
        </clipPath>
    </defs>
</svg>