<svg width="32" height="32" viewBox="0 0 32 32" fill="none" xmlns="http://www.w3.org/2000/svg">
    <g clip-path="url(#clip0_5850_117)">
        <path
            d="M0 0C10.56 0 21.12 0 32 0C32 10.56 32 21.12 32 32C21.44 32 10.88 32 0 32C0 21.44 0 10.88 0 0Z"
            fill="#5130E9" />
        <path
            d="M11.3474 6.49599C11.3757 6.49585 11.404 6.4957 11.4331 6.49556C11.5279 6.49517 11.6226 6.49536 11.7174 6.49555C11.7853 6.4954 11.8533 6.49522 11.9212 6.495C12.0866 6.49457 12.252 6.49452 12.4174 6.49466C12.5519 6.49477 12.6864 6.49473 12.8209 6.49459C12.84 6.49457 12.8592 6.49455 12.8789 6.49453C12.9178 6.49448 12.9567 6.49444 12.9956 6.4944C13.3605 6.49404 13.7253 6.49418 14.0901 6.49449C14.4236 6.49475 14.7571 6.49441 15.0906 6.49377C15.4332 6.49312 15.7759 6.49286 16.1186 6.49304C16.3108 6.49313 16.5031 6.49307 16.6954 6.49261C16.8763 6.49217 17.0571 6.4923 17.238 6.4928C17.3043 6.4929 17.3707 6.49282 17.437 6.49254C17.5276 6.49219 17.6183 6.49249 17.7089 6.49296C17.7482 6.49258 17.7482 6.49258 17.7882 6.49219C17.9844 6.49428 18.1393 6.54138 18.2999 6.65563C18.4143 6.77391 18.4838 6.89463 18.5499 7.04466C18.5666 7.08095 18.5666 7.08095 18.5836 7.11798C18.6077 7.17069 18.6317 7.22347 18.6555 7.27633C18.7075 7.39118 18.7608 7.50543 18.814 7.61971C18.8427 7.6814 18.8713 7.74313 18.8999 7.80488C18.9824 7.98313 19.0655 8.16109 19.1494 8.33873C19.1587 8.35834 19.1679 8.37795 19.1775 8.39815C19.2148 8.47721 19.2521 8.55626 19.2894 8.63531C19.4064 8.88321 19.5217 9.13157 19.63 9.38341C19.6725 9.47944 19.7198 9.57275 19.7671 9.66643C19.8607 9.85175 19.9468 10.0399 20.0318 10.2293C20.1638 10.5237 20.2987 10.8163 20.4399 11.1063C20.5778 11.3896 20.7091 11.6754 20.8386 11.9626C20.9681 12.2495 21.1021 12.5337 21.2398 12.8168C21.3366 13.0165 21.4291 13.2177 21.5191 13.4205C21.5742 13.5441 21.6319 13.6657 21.6933 13.7863C21.7769 13.9509 21.853 14.1181 21.9281 14.2867C22.0533 14.5671 22.1825 14.8456 22.3116 15.1242C22.3402 15.1859 22.3687 15.2475 22.3972 15.3092C22.4642 15.4537 22.5322 15.5977 22.6016 15.741C22.7768 16.1032 22.9462 16.4674 23.1109 16.8344C23.2013 17.0355 23.2958 17.2336 23.3953 17.4304C23.4655 17.5709 23.5312 17.7135 23.5966 17.8563C23.6103 17.8861 23.624 17.916 23.6382 17.9467C23.7221 18.1294 23.8047 18.3127 23.8866 18.4963C23.9554 18.6505 24.0267 18.8026 24.1033 18.953C24.2826 19.3054 24.4419 19.6678 24.6031 20.0288C24.6774 20.1952 24.7523 20.3605 24.8349 20.523C24.9363 20.7224 25.0292 20.9256 25.1225 21.1289C25.2211 21.3435 25.3207 21.5577 25.4209 21.7716C25.5452 22.0371 25.6678 22.3031 25.787 22.5709C25.8564 22.7259 25.9314 22.8771 26.0085 23.0284C26.0664 23.1464 26.1181 23.2667 26.17 23.3875C26.2202 23.5036 26.2742 23.6169 26.3316 23.7297C26.3634 23.7929 26.3951 23.8563 26.4266 23.9197C26.4361 23.9387 26.4457 23.9578 26.4555 23.9774C26.7079 24.4869 26.7079 24.4869 26.62 24.7878C26.537 24.9979 26.3839 25.1244 26.1866 25.2263C26.1099 25.2494 26.0413 25.2564 25.9613 25.2566C25.9376 25.2567 25.9139 25.2568 25.8894 25.2569C25.8635 25.2569 25.8375 25.2569 25.8107 25.2569C25.7831 25.257 25.7554 25.2571 25.7269 25.2572C25.6339 25.2575 25.5408 25.2576 25.4478 25.2577C25.3813 25.2579 25.3147 25.2581 25.2481 25.2582C25.0481 25.2588 24.8481 25.259 24.6481 25.2593C24.5538 25.2594 24.4596 25.2595 24.3653 25.2597C24.0519 25.2601 23.7385 25.2605 23.4251 25.2607C23.3438 25.2608 23.2626 25.2608 23.1813 25.2609C23.1509 25.2609 23.1509 25.2609 23.12 25.2609C22.7928 25.2611 22.4656 25.2618 22.1384 25.2627C21.8023 25.2636 21.4662 25.264 21.1301 25.2641C20.9415 25.2642 20.7528 25.2644 20.5642 25.2651C20.3867 25.2657 20.2092 25.2658 20.0317 25.2655C19.9666 25.2655 19.9015 25.2657 19.8364 25.2661C19.7474 25.2665 19.6584 25.2664 19.5694 25.266C19.531 25.2664 19.531 25.2664 19.4918 25.2669C19.2445 25.2645 19.0282 25.1911 18.8533 25.013C18.7994 24.9312 18.7994 24.9312 18.7516 24.838C18.7428 24.8209 18.734 24.8038 18.7249 24.7862C18.6177 24.575 18.5232 24.3577 18.4274 24.1412C18.3761 24.0261 18.3223 23.9122 18.2687 23.7981C18.2224 23.6996 18.1768 23.6008 18.1312 23.5021C17.9981 23.2139 17.8651 22.9262 17.721 22.6433C17.6645 22.5282 17.6137 22.4108 17.5629 22.2931C17.445 22.0207 17.3166 21.7535 17.1875 21.4862C17.0232 21.1461 16.8623 20.8046 16.7038 20.4617C16.4904 20.0005 16.2743 19.5405 16.0566 19.0813C16.0456 19.0581 16.0347 19.0349 16.0234 19.011C15.9818 18.912 15.9818 18.912 15.9199 18.8263C15.9041 18.8679 15.9041 18.8679 15.8879 18.9104C15.6568 19.5155 15.4212 20.1179 15.1727 20.716C15.0949 20.9037 15.0197 21.0917 14.9494 21.2824C14.8796 21.47 14.8046 21.6556 14.7299 21.8413C14.6002 22.1637 14.4736 22.4871 14.3492 22.8115C14.2822 22.9858 14.2132 23.1588 14.1408 23.3308C14.0824 23.471 14.0266 23.6121 13.9704 23.7532C13.8683 24.0097 13.7659 24.266 13.6595 24.5208C13.6134 24.6317 13.5712 24.7436 13.5299 24.8563C13.4528 25.0575 13.3681 25.199 13.1733 25.3063C13.0251 25.3702 12.8858 25.3674 12.7274 25.3672C12.6841 25.3674 12.6841 25.3674 12.64 25.3676C12.5434 25.3681 12.4468 25.3682 12.3502 25.3683C12.2809 25.3685 12.2117 25.3688 12.1424 25.3691C11.9543 25.3698 11.7661 25.3701 11.578 25.3703C11.4604 25.3705 11.3429 25.3707 11.2253 25.371C10.8997 25.3716 10.5741 25.3722 10.2484 25.3723C10.2172 25.3724 10.2172 25.3724 10.1853 25.3724C10.154 25.3724 10.154 25.3724 10.1221 25.3724C10.0798 25.3724 10.0375 25.3725 9.99517 25.3725C9.9637 25.3725 9.96369 25.3725 9.93159 25.3725C9.59162 25.3727 9.25166 25.3737 8.91169 25.3749C8.5624 25.3762 8.21312 25.3768 7.86383 25.3769C7.66782 25.3769 7.47181 25.3772 7.27579 25.3782C7.09143 25.3791 6.90708 25.3792 6.72271 25.3787C6.65509 25.3787 6.58746 25.3789 6.51983 25.3795C6.42742 25.3801 6.33506 25.3798 6.24265 25.3793C6.21597 25.3797 6.18928 25.3801 6.16178 25.3806C5.94589 25.3775 5.80958 25.3001 5.65641 25.1507C5.50978 24.9938 5.47701 24.8358 5.4819 24.6241C5.50476 24.4407 5.5823 24.2754 5.65326 24.1063C5.6858 24.027 5.71815 23.9476 5.7505 23.8682C5.77486 23.8084 5.79928 23.7487 5.82377 23.6891C5.95 23.3807 6.07045 23.0702 6.19034 22.7593C6.26385 22.5689 6.33876 22.3795 6.41798 22.1914C6.49567 22.0041 6.56902 21.815 6.64326 21.6263C6.6611 21.5811 6.67894 21.5358 6.69678 21.4905C6.78799 21.2591 6.87895 21.0276 6.96976 20.796C7.08769 20.4953 7.20685 20.195 7.3271 19.8952C7.41902 19.6659 7.50997 19.4364 7.59992 19.2063C7.74264 18.8418 7.8879 18.4782 8.03326 18.1147C8.04473 18.086 8.05619 18.0573 8.06801 18.0277C8.12287 17.8904 8.17784 17.7532 8.2331 17.6161C8.27137 17.5211 8.30911 17.426 8.34633 17.3306C8.36238 17.2901 8.37844 17.2496 8.39451 17.2091C8.4013 17.1913 8.40808 17.1736 8.41508 17.1552C8.4814 16.9898 8.57428 16.8615 8.73492 16.778C8.75476 16.7674 8.77459 16.7568 8.79503 16.7458C8.92742 16.6864 9.05639 16.6889 9.19952 16.6888C9.23625 16.6886 9.23625 16.6886 9.27371 16.6884C9.35593 16.688 9.43815 16.6877 9.52037 16.6875C9.57923 16.6873 9.6381 16.687 9.69696 16.6867C9.85695 16.686 10.0169 16.6854 10.1769 16.6849C10.3441 16.6843 10.5112 16.6836 10.6783 16.6829C10.9589 16.6817 11.2395 16.6806 11.5201 16.6796C11.809 16.6785 12.098 16.6774 12.387 16.6763C12.4048 16.6762 12.4227 16.6761 12.441 16.676C12.5304 16.6757 12.6198 16.6753 12.7091 16.6749C13.4505 16.6719 14.1919 16.6691 14.9333 16.6663C14.8906 16.572 14.8479 16.4777 14.8051 16.3834C14.7931 16.3568 14.7811 16.3302 14.7687 16.3029C14.7092 16.1716 14.649 16.0412 14.5833 15.913C14.5074 15.7647 14.441 15.6129 14.3741 15.4604C14.3051 15.3039 14.2299 15.1519 14.1523 14.9995C14.1028 14.8985 14.0576 14.7963 14.0133 14.693C13.9569 14.562 13.8981 14.4335 13.8333 14.3063C13.7329 14.109 13.6414 13.908 13.5496 13.7066C13.4795 13.5527 13.4089 13.3992 13.3366 13.2463C13.243 13.0484 13.1505 12.8499 13.0583 12.6513C13.0508 12.6354 13.0434 12.6194 13.0358 12.603C12.9433 12.4039 12.8516 12.2046 12.7606 12.0049C12.6318 11.722 12.6318 11.722 12.4949 11.443C12.2892 11.0385 12.1071 10.6216 11.9222 10.2072C11.8518 10.0504 11.776 9.89733 11.698 9.74414C11.649 9.64436 11.604 9.54337 11.5599 9.44133C11.4452 9.17589 11.323 8.91452 11.1964 8.65456C11.1072 8.47137 11.0187 8.28783 10.9309 8.10393C10.9068 8.05346 10.8826 8.00304 10.8583 7.95262C10.8125 7.85701 10.7678 7.76088 10.7233 7.66466C10.7094 7.63602 10.6956 7.60738 10.6814 7.57787C10.5855 7.36723 10.5363 7.16189 10.6125 6.93612C10.754 6.61259 11.0087 6.49393 11.3474 6.49599Z"
            fill="#FCF9D5" />
        <path
            d="M11.181 6.50309C11.2051 6.50304 11.2292 6.50298 11.254 6.50293C11.2939 6.50305 11.2939 6.50305 11.3346 6.50317C11.3768 6.50313 11.3768 6.50313 11.4199 6.5031C11.5148 6.50305 11.6097 6.5032 11.7046 6.50334C11.7724 6.50335 11.8402 6.50335 11.908 6.50333C12.0543 6.50333 12.2005 6.5034 12.3468 6.50355C12.5583 6.50377 12.7697 6.50384 12.9812 6.50387C13.3243 6.50393 13.6674 6.50411 14.0105 6.50436C14.3438 6.5046 14.6771 6.50479 15.0105 6.50491C15.031 6.50491 15.0516 6.50492 15.0727 6.50493C15.1757 6.50496 15.2788 6.505 15.3818 6.50503C16.2369 6.50531 17.0919 6.50578 17.947 6.50637C17.947 6.51517 17.947 6.52397 17.947 6.53304C17.9119 6.53315 17.8767 6.53326 17.8405 6.53338C17.0073 6.53606 16.174 6.53888 15.3407 6.54187C15.2382 6.54224 15.1357 6.5426 15.0333 6.54297C15.0027 6.54308 15.0027 6.54308 14.9714 6.54319C14.6407 6.54436 14.31 6.54545 13.9793 6.5465C13.6402 6.54757 13.3011 6.54875 12.962 6.55002C12.7526 6.5508 12.5432 6.55151 12.3338 6.55211C12.1734 6.55258 12.0131 6.55319 11.8527 6.55385C11.7868 6.5541 11.7209 6.55431 11.6549 6.55446C11.5652 6.55468 11.4756 6.55506 11.3859 6.55549C11.3595 6.55551 11.3331 6.55554 11.3059 6.55557C11.282 6.55571 11.2581 6.55586 11.2335 6.55601C11.2128 6.55608 11.1921 6.55615 11.1707 6.55622C11.118 6.55663 11.118 6.55663 11.067 6.58637C11.0494 6.56877 11.0318 6.55117 11.0137 6.53304C11.0759 6.50193 11.1117 6.50306 11.181 6.50309Z"
            fill="#FCF4EE" />
        <path
            d="M14.9068 16.6133C14.9332 16.6529 14.9332 16.6529 14.9601 16.6933C14.914 16.6934 14.914 16.6934 14.8669 16.6935C14.1368 16.6957 13.4067 16.698 12.6765 16.7007C12.5867 16.7011 12.4968 16.7014 12.4069 16.7017C12.38 16.7018 12.38 16.7018 12.3527 16.7019C12.063 16.703 11.7733 16.7039 11.4837 16.7047C11.1864 16.7055 10.8891 16.7065 10.5919 16.7078C10.4249 16.7084 10.258 16.709 10.091 16.7094C9.93388 16.7097 9.77676 16.7103 9.61963 16.7111C9.56195 16.7113 9.50428 16.7115 9.44661 16.7115C9.36785 16.7116 9.28909 16.712 9.21033 16.7125C9.18753 16.7125 9.16473 16.7124 9.14124 16.7124C9.00872 16.7136 8.89917 16.7309 8.77344 16.7733C8.79104 16.7293 8.80864 16.6853 8.82677 16.6399C10.8332 16.6487 12.8396 16.6575 14.9068 16.6666C14.9068 16.649 14.9068 16.6314 14.9068 16.6133Z"
            fill="#5A41D9" />
        <path
            d="M15.9204 18.7998C15.9737 18.8531 15.9737 18.8531 15.977 18.9498C15.9759 18.9795 15.9748 19.0092 15.9737 19.0398C15.9561 19.0398 15.9385 19.0398 15.9204 19.0398C15.9204 19.0574 15.9204 19.075 15.9204 19.0931C15.894 19.0931 15.8676 19.0931 15.8404 19.0931C15.8332 19.1223 15.8261 19.1514 15.8187 19.1815C15.7889 19.2741 15.7754 19.299 15.707 19.3598C15.7595 19.1633 15.8323 18.983 15.9204 18.7998Z"
            fill="#6445DC" />
        <path
            d="M6.34622 22.4004C6.37262 22.4092 6.39902 22.418 6.42622 22.4271C6.41742 22.4711 6.40862 22.5151 6.39956 22.5604C6.38196 22.5604 6.36436 22.5604 6.34622 22.5604C6.30852 22.6308 6.28296 22.6956 6.26622 22.7737C6.24862 22.7737 6.23102 22.7737 6.21289 22.7737C6.23034 22.6385 6.28901 22.5225 6.34622 22.4004Z"
            fill="#F1EDDF" />
        <path
            d="M7.06663 20.5332C7.11996 20.6132 7.11996 20.6132 7.11829 20.6765C7.08553 20.7683 7.03164 20.8155 6.95996 20.8799C6.97272 20.8371 6.9855 20.7943 6.99829 20.7515C7.00541 20.7277 7.01253 20.7039 7.01986 20.6793C7.03473 20.6304 7.05045 20.5817 7.06663 20.5332Z"
            fill="#ECE6E4" />
        <path
            d="M7.94681 18.3467C8.00014 18.4467 8.00014 18.4467 8.00014 18.5067C7.97374 18.5067 7.94734 18.5067 7.92014 18.5067C7.91629 18.527 7.91244 18.5474 7.90848 18.5683C7.89348 18.64 7.89348 18.64 7.86681 18.72C7.84921 18.72 7.83161 18.72 7.81348 18.72C7.85462 18.5941 7.89556 18.4689 7.94681 18.3467Z"
            fill="#EFE8EB" />
        <path
            d="M11.2005 6.50424C11.2268 6.50432 11.2531 6.50441 11.2802 6.5045C11.3078 6.50472 11.3353 6.50494 11.3637 6.50517C11.4053 6.50535 11.4053 6.50535 11.4477 6.50554C11.5164 6.50585 11.585 6.50629 11.6537 6.50684C11.6537 6.51564 11.6537 6.52444 11.6537 6.53351C11.6378 6.53417 11.6219 6.53484 11.6056 6.53553C11.5338 6.53862 11.4621 6.54189 11.3903 6.54517C11.3653 6.54622 11.3404 6.54727 11.3146 6.54835C11.2788 6.55003 11.2788 6.55003 11.2422 6.55174C11.2091 6.5532 11.2091 6.5532 11.1754 6.5547C11.1187 6.55704 11.1187 6.55704 11.067 6.58684C11.0494 6.56924 11.0318 6.55164 11.0137 6.53351C11.0805 6.50011 11.1259 6.50381 11.2005 6.50424Z"
            fill="#F1E9EC" />
        <path
            d="M18.8271 7.4668C18.8359 7.5372 18.8447 7.6076 18.8537 7.68013C18.8713 7.68013 18.8889 7.68013 18.9071 7.68013C18.9071 7.72413 18.9071 7.76813 18.9071 7.81346C18.8338 7.72274 18.7471 7.61387 18.7471 7.49346C18.8004 7.4668 18.8004 7.4668 18.8271 7.4668Z"
            fill="#6143D8" />
        <path
            d="M23.4404 17.5469C23.458 17.5469 23.4756 17.5469 23.4938 17.5469C23.4938 17.5645 23.4938 17.5821 23.4938 17.6002C23.5114 17.6002 23.529 17.6002 23.5471 17.6002C23.5866 17.7026 23.6064 17.7619 23.5738 17.8669C23.5514 17.8236 23.5292 17.7803 23.5071 17.7369C23.4947 17.7127 23.4823 17.6886 23.4696 17.6637C23.4404 17.6002 23.4404 17.6002 23.4404 17.5469Z"
            fill="#6348D6" />
        <path
            d="M17.9463 6.50684C18.0343 6.53324 18.1223 6.55964 18.213 6.58684C18.213 6.59564 18.213 6.60444 18.213 6.6135C18.1338 6.6135 18.0546 6.6135 17.973 6.6135C17.9642 6.5783 17.9554 6.5431 17.9463 6.50684Z"
            fill="#EDEADC" />
        <path
            d="M12.2402 10.8535C12.2666 10.8535 12.293 10.8535 12.3202 10.8535C12.3344 10.8917 12.3482 10.9301 12.3619 10.9685C12.3696 10.9899 12.3774 11.0112 12.3853 11.0332C12.4002 11.0935 12.4002 11.0935 12.3736 11.1735C12.3512 11.1302 12.329 11.0869 12.3069 11.0435C12.2945 11.0194 12.2822 10.9953 12.2694 10.9704C12.2402 10.9068 12.2402 10.9068 12.2402 10.8535Z"
            fill="#EEE9E6" />
        <path
            d="M6.63957 21.4932C6.65717 21.4932 6.67477 21.4932 6.6929 21.4932C6.67664 21.588 6.65081 21.6714 6.6129 21.7598C6.6041 21.7598 6.5953 21.7598 6.58624 21.7598C6.57744 21.707 6.56864 21.6542 6.55957 21.5998C6.57717 21.591 6.59477 21.5822 6.6129 21.5732C6.6217 21.5468 6.6305 21.5204 6.63957 21.4932Z"
            fill="#6245DB" />
        <path
            d="M8.40031 17.0664C8.41791 17.0664 8.43551 17.0664 8.45365 17.0664C8.42725 17.1544 8.40085 17.2424 8.37365 17.3331C8.36485 17.3331 8.35605 17.3331 8.34698 17.3331C8.33818 17.2803 8.32938 17.2275 8.32031 17.1731C8.34671 17.1643 8.37311 17.1555 8.40031 17.1464C8.40031 17.12 8.40031 17.0936 8.40031 17.0664Z"
            fill="#5C3FDA" />
        <path
            d="M13.7864 14.2129C13.8532 14.2912 13.8789 14.351 13.8931 14.4529C13.8755 14.4529 13.8579 14.4529 13.8398 14.4529C13.831 14.4265 13.8222 14.4001 13.8131 14.3729C13.7955 14.3729 13.7779 14.3729 13.7598 14.3729C13.7686 14.3201 13.7774 14.2673 13.7864 14.2129Z"
            fill="#6245D7" />
        <path
            d="M10.9067 6.58691C10.9243 6.59571 10.9419 6.60451 10.96 6.61358C10.8767 6.70409 10.8116 6.76308 10.6934 6.80025C10.7188 6.7696 10.7444 6.73907 10.77 6.70858C10.7843 6.69157 10.7985 6.67455 10.8132 6.65702C10.8534 6.61358 10.8534 6.61358 10.9067 6.58691Z"
            fill="#ECE4EC" />
        <path
            d="M6.50676 21.9736C6.51556 21.9736 6.52436 21.9736 6.53342 21.9736C6.54009 22.1236 6.54009 22.1236 6.48009 22.2136C6.46249 22.2136 6.44489 22.2136 6.42676 22.2136C6.45316 22.1344 6.47956 22.0552 6.50676 21.9736Z"
            fill="#EFE8E5" />
        <path
            d="M13.04 12.5596C13.0576 12.5596 13.0752 12.5596 13.0934 12.5596C13.1022 12.5772 13.111 12.5948 13.12 12.6129C13.1376 12.6041 13.1552 12.5953 13.1734 12.5862C13.1646 12.6478 13.1558 12.7094 13.1467 12.7729C13.0893 12.703 13.056 12.6491 13.04 12.5596Z"
            fill="#F5EFE8" />
        <path
            d="M5.75999 23.7871C5.78665 23.8404 5.78665 23.8404 5.77176 23.8923C5.76402 23.9115 5.75629 23.9307 5.74832 23.9504C5.74065 23.9698 5.73299 23.9891 5.72509 24.009C5.71901 24.0238 5.71292 24.0385 5.70665 24.0538C5.69785 24.0538 5.68905 24.0538 5.67999 24.0538C5.65999 23.9804 5.65999 23.9804 5.65332 23.8938C5.70499 23.8304 5.70499 23.8304 5.75999 23.7871Z"
            fill="#6041D3" />
        <path
            d="M7.89378 18.4268C7.90258 18.4444 7.91138 18.462 7.92044 18.4801C7.89549 18.543 7.86888 18.6053 7.84044 18.6668C7.82284 18.6316 7.80524 18.5964 7.78711 18.5601C7.84044 18.4801 7.84044 18.4801 7.89378 18.4268Z"
            fill="#6044D3" />
        <path
            d="M21.9463 14.3467C21.9727 14.3467 21.9991 14.3467 22.0263 14.3467C22.0351 14.4171 22.0439 14.4875 22.053 14.56C21.9955 14.4901 21.9623 14.4362 21.9463 14.3467Z"
            fill="#6346DC" />
        <path
            d="M20.4798 11.2529C20.5372 11.3228 20.5705 11.3768 20.5865 11.4663C20.5601 11.4663 20.5337 11.4663 20.5065 11.4663C20.487 11.4135 20.4693 11.3601 20.4531 11.3063C20.4619 11.2887 20.4707 11.2711 20.4798 11.2529Z"
            fill="#EFE9E4" />
        <path
            d="M18.96 7.94629C18.9864 7.94629 19.0128 7.94629 19.04 7.94629C19.0661 8.02769 19.0661 8.07822 19.04 8.15962C18.96 8.00629 18.96 8.00629 18.96 7.94629Z"
            fill="#5E42D9" />
    </g>
    <defs>
        <clipPath id="clip0_5850_117">
            <rect width="32" height="32" fill="white" />
        </clipPath>
    </defs>
</svg>