<svg width="32" height="32" viewBox="0 0 32 32" fill="none" xmlns="http://www.w3.org/2000/svg">
    <g clip-path="url(#clip0_5773_138)">
        <path fill-rule="evenodd" clip-rule="evenodd"
            d="M15.417 -0.0834961C15.4725 -0.0834961 15.5281 -0.0834961 15.5837 -0.0834961C15.5281 7.9165 15.4725 7.9165 15.417 -0.0834961Z"
            fill="#4F50FA" />
        <path fill-rule="evenodd" clip-rule="evenodd"
            d="M15.7497 -0.0834961C15.8608 -0.0834961 15.9719 -0.0834961 16.083 -0.0834961C16.7497 0.694282 17.4718 1.4165 18.2497 2.08317C18.2497 2.19429 18.3052 2.24984 18.4163 2.24984C18.4163 2.36095 18.4718 2.4165 18.583 2.4165C20.4675 4.24525 22.3563 6.07859 24.2497 7.9165C24.2497 8.02762 24.3052 8.08317 24.4163 8.08317C25.4217 9.03282 26.3662 10.0328 27.2497 11.0832C27.3897 11.4753 27.612 11.8086 27.9163 12.0832C27.8877 12.2484 27.9433 12.3596 28.083 12.4165C28.2763 13.1077 28.4985 13.7744 28.7497 14.4165C28.7497 15.6387 28.7497 16.861 28.7497 18.0832C28.594 18.2612 28.5383 18.4833 28.583 18.7498C28.4433 18.8068 28.3877 18.9178 28.4163 19.0832C28.2657 19.2013 28.2102 19.368 28.2497 19.5832C28.11 19.6402 28.0543 19.7512 28.083 19.9165C27.9718 19.9165 27.9163 19.972 27.9163 20.0832C27.7767 20.1402 27.721 20.2512 27.7497 20.4165C27.5153 20.4953 27.4042 20.662 27.4163 20.9165C27.3052 20.9165 27.2497 20.972 27.2497 21.0832C26.9092 21.263 26.687 21.5408 26.583 21.9165C26.4718 21.9165 26.4163 21.972 26.4163 22.0832C26.3052 22.0832 26.2497 22.1387 26.2497 22.2498C26.1385 22.2498 26.083 22.3053 26.083 22.4165C25.9718 22.4165 25.9163 22.472 25.9163 22.5832C25.8052 22.5832 25.7497 22.6387 25.7497 22.7498C25.6385 22.7498 25.583 22.8053 25.583 22.9165C25.4718 22.9165 25.4163 22.972 25.4163 23.0832C25.3052 23.0832 25.2497 23.1387 25.2497 23.2498C25.1385 23.2498 25.083 23.3053 25.083 23.4165C24.4797 23.742 23.9797 24.1863 23.583 24.7498C23.4718 24.7498 23.4163 24.8053 23.4163 24.9165C23.3052 24.9165 23.2497 24.972 23.2497 25.0832C23.1385 25.0832 23.083 25.1387 23.083 25.2498C22.9718 25.2498 22.9163 25.3053 22.9163 25.4165C22.8052 25.4165 22.7497 25.472 22.7497 25.5832C22.6385 25.5832 22.583 25.6387 22.583 25.7498C22.4718 25.7498 22.4163 25.8053 22.4163 25.9165C22.3052 25.9165 22.2497 25.972 22.2497 26.0832C22.1385 26.0832 22.083 26.1387 22.083 26.2498C21.9718 26.2498 21.9163 26.3053 21.9163 26.4165C21.8052 26.4165 21.7497 26.472 21.7497 26.5832C21.6385 26.5832 21.583 26.6387 21.583 26.7498C21.4718 26.7498 21.4163 26.8053 21.4163 26.9165C21.3052 26.9165 21.2497 26.972 21.2497 27.0832C21.1385 27.0832 21.083 27.1387 21.083 27.2498C20.5918 27.4633 20.2028 27.7967 19.9163 28.2498C19.8052 28.2498 19.7497 28.3053 19.7497 28.4165C19.6385 28.4165 19.583 28.472 19.583 28.5832C19.4718 28.5832 19.4163 28.6387 19.4163 28.7498C19.3052 28.7498 19.2497 28.8053 19.2497 28.9165C19.1385 28.9165 19.083 28.972 19.083 29.0832C18.9718 29.0832 18.9163 29.1387 18.9163 29.2498C18.8052 29.2498 18.7497 29.3053 18.7497 29.4165C18.6385 29.4165 18.583 29.472 18.583 29.5832C18.4718 29.5832 18.4163 29.6387 18.4163 29.7498C18.3052 29.7498 18.2497 29.8053 18.2497 29.9165C18.1385 29.9165 18.083 29.972 18.083 30.0832C17.9718 30.0832 17.9163 30.1387 17.9163 30.2498C17.4815 30.407 17.1482 30.6848 16.9163 31.0832C16.8052 31.0832 16.7497 31.1387 16.7497 31.2498C16.6386 31.2498 16.583 31.3053 16.583 31.4165C16.4719 31.4165 16.4163 31.472 16.4163 31.5832C16.3052 31.5832 16.2497 31.6387 16.2497 31.7498C16.1386 31.7498 16.083 31.8053 16.083 31.9165C15.9163 31.9165 15.7497 31.9165 15.583 31.9165C15.583 31.8053 15.5275 31.7498 15.4163 31.7498C14.4719 30.6943 13.4719 29.6943 12.4163 28.7498C12.4163 28.6387 12.3608 28.5832 12.2497 28.5832C12.2497 28.472 12.1941 28.4165 12.083 28.4165C10.3097 26.6988 8.53189 24.9767 6.74967 23.2498C6.74967 23.1387 6.69412 23.0832 6.583 23.0832C6.583 22.972 6.52745 22.9165 6.41634 22.9165C5.68944 22.1343 4.9672 21.3567 4.24967 20.5832C4.26184 20.3287 4.15072 20.162 3.91634 20.0832C3.94494 19.9178 3.88937 19.8068 3.74967 19.7498C3.77827 19.5845 3.7227 19.4735 3.583 19.4165C3.62255 19.2013 3.567 19.0347 3.41634 18.9165C3.45589 18.7013 3.40034 18.5347 3.24967 18.4165C3.02745 17.0277 3.02745 15.6387 3.24967 14.2498C3.92877 12.3483 5.15099 10.9039 6.91634 9.9165C7.1315 9.95605 7.29817 9.9005 7.41634 9.74984C7.79729 9.734 8.13062 9.6229 8.41634 9.4165C9.98312 9.25079 11.5387 9.3619 13.083 9.74984C13.14 9.88954 13.2511 9.9451 13.4163 9.9165C13.5853 10.1121 13.8075 10.2232 14.083 10.2498C14.14 10.3895 14.2511 10.4451 14.4163 10.4165C14.4733 10.5562 14.5844 10.6118 14.7497 10.5832C14.9057 10.8289 15.128 10.9956 15.4163 11.0832C15.4733 11.2229 15.5844 11.2784 15.7497 11.2498C15.8576 13.2662 15.9688 15.2662 16.083 17.2498C16.0261 17.3895 15.9149 17.4452 15.7497 17.4165C14.9163 16.4721 14.0275 15.5832 13.083 14.7498C13.0042 14.5155 12.8375 14.4043 12.583 14.4165C12.2365 14.021 11.792 13.7988 11.2497 13.7498C10.583 13.5276 9.91634 13.5276 9.24967 13.7498C8.93639 13.7047 8.71417 13.8158 8.583 14.0832C8.24967 14.0832 8.083 14.2498 8.083 14.5832C7.97189 14.5832 7.91634 14.6387 7.91634 14.7498C7.77664 14.8068 7.72107 14.9179 7.74967 15.0832C7.59392 15.2611 7.53837 15.4833 7.583 15.7498C7.36079 16.0276 7.36079 16.3054 7.583 16.5832C7.52174 17.1738 7.6884 17.6738 8.083 18.0832C8.07084 18.3377 8.18195 18.5043 8.41634 18.5832C9.02745 19.3053 9.69412 19.972 10.4163 20.5832C10.4163 20.6943 10.4719 20.7498 10.583 20.7498C10.583 20.861 10.6386 20.9165 10.7497 20.9165C11.0945 21.4287 11.539 21.8175 12.083 22.0832C13.2993 23.3828 14.5493 24.6607 15.833 25.9165C16.3948 25.3827 16.9227 24.8272 17.4163 24.2498C17.9603 23.9842 18.4048 23.5953 18.7497 23.0832C18.8608 23.0832 18.9163 23.0277 18.9163 22.9165C19.0275 22.9165 19.083 22.861 19.083 22.7498C20.3608 21.5832 21.583 20.361 22.7497 19.0832C23.1385 19.0277 23.3608 18.8053 23.4163 18.4165C23.5275 18.4165 23.583 18.361 23.583 18.2498C23.8173 18.171 23.9285 18.0043 23.9163 17.7498C24.067 17.6317 24.1225 17.465 24.083 17.2498C24.4278 16.6592 24.4833 16.0481 24.2497 15.4165C24.2943 15.15 24.2387 14.9278 24.083 14.7498C24.1225 14.5347 24.067 14.368 23.9163 14.2498C23.945 14.0846 23.8893 13.9735 23.7497 13.9165C23.7497 13.8054 23.6942 13.7498 23.583 13.7498C23.5952 13.4954 23.484 13.3287 23.2497 13.2498C21.6385 11.5276 19.9718 9.86095 18.2497 8.24984C18.2497 8.13872 18.1942 8.08317 18.083 8.08317C18.083 7.97205 18.0275 7.9165 17.9163 7.9165C17.3057 7.16695 16.6111 6.50029 15.833 5.9165C15.7497 3.91727 15.7219 1.91727 15.7497 -0.0834961ZM13.4163 9.9165C13.2511 9.9451 13.14 9.88954 13.083 9.74984C13.2865 9.58907 13.5087 9.61684 13.7497 9.83317C13.6506 9.91055 13.5395 9.93834 13.4163 9.9165ZM14.083 10.0832C14.3585 10.1098 14.5807 10.2209 14.7497 10.4165C14.6386 10.4165 14.5275 10.4165 14.4163 10.4165C14.2511 10.4451 14.14 10.3895 14.083 10.2498C14.083 10.1943 14.083 10.1387 14.083 10.0832ZM15.7497 11.2498C15.5844 11.2784 15.4733 11.2229 15.4163 11.0832C15.5825 10.8811 15.7492 10.9089 15.9163 11.1665C15.8783 11.233 15.8227 11.2607 15.7497 11.2498ZM23.2497 13.2498C23.484 13.3287 23.5952 13.4954 23.583 13.7498C23.583 13.8054 23.583 13.861 23.583 13.9165C23.1987 13.7707 23.0875 13.5484 23.2497 13.2498ZM23.583 13.9165C23.6385 13.9165 23.6942 13.9165 23.7497 13.9165C23.8893 13.9735 23.945 14.0846 23.9163 14.2498C23.9382 14.373 23.9103 14.4841 23.833 14.5832C23.7012 14.3757 23.6178 14.1535 23.583 13.9165ZM8.583 14.0832C8.60429 14.3547 8.43762 14.5769 8.083 14.7498C8.083 14.6943 8.083 14.6387 8.083 14.5832C8.083 14.2498 8.24967 14.0832 8.583 14.0832ZM12.583 14.4165C12.8375 14.4043 13.0042 14.5155 13.083 14.7498C12.8214 14.9264 12.5991 14.8431 12.4163 14.4998C12.4544 14.4334 12.51 14.4056 12.583 14.4165ZM8.41634 18.5832C8.18195 18.5043 8.07084 18.3377 8.083 18.0832C8.06117 17.96 8.08895 17.8488 8.16634 17.7498C8.27225 17.9942 8.41114 18.2165 8.583 18.4165C8.5624 18.5177 8.50685 18.5732 8.41634 18.5832ZM23.583 18.2498C23.583 18.361 23.5275 18.4165 23.4163 18.4165C23.3608 18.4165 23.3052 18.4165 23.2497 18.4165C23.334 18.149 23.4452 18.0933 23.583 18.2498ZM23.2497 18.4165C23.3052 18.4165 23.3608 18.4165 23.4163 18.4165C23.3608 18.8053 23.1385 19.0277 22.7497 19.0832C22.7283 18.8117 22.895 18.5895 23.2497 18.4165ZM10.7497 20.9165C10.8608 20.9165 10.9719 20.9165 11.083 20.9165C11.5934 21.2515 11.9267 21.6403 12.083 22.0832C11.539 21.8175 11.0945 21.4287 10.7497 20.9165ZM18.4163 23.0832C18.5275 23.0832 18.6385 23.0832 18.7497 23.0832C18.4048 23.5953 17.9603 23.9842 17.4163 24.2498C17.5727 23.807 17.906 23.4182 18.4163 23.0832Z"
            fill="#2B69ED" />
        <path fill-rule="evenodd" clip-rule="evenodd"
            d="M18.25 2.08312C18.5117 1.90657 18.7338 1.9899 18.9167 2.33312C18.8177 2.4105 18.7065 2.43828 18.5833 2.41645C18.4722 2.41645 18.4167 2.3609 18.4167 2.24978C18.3055 2.24978 18.25 2.19423 18.25 2.08312Z"
            fill="#1224FA" />
        <path fill-rule="evenodd" clip-rule="evenodd"
            d="M24.25 7.91645C24.4162 7.71436 24.5828 7.74215 24.75 7.99978C24.651 8.07716 24.5398 8.10495 24.4167 8.08311C24.3055 8.08311 24.25 8.02756 24.25 7.91645Z"
            fill="#162DFA" />
        <path fill-rule="evenodd" clip-rule="evenodd"
            d="M17.9163 7.91687C18.0275 7.91687 18.083 7.97242 18.083 8.08354C18.1942 8.08354 18.2497 8.13909 18.2497 8.25021C17.988 8.42676 17.7658 8.34342 17.583 8.00021C17.682 7.92282 17.7932 7.89504 17.9163 7.91687Z"
            fill="#1224FA" />
        <path fill-rule="evenodd" clip-rule="evenodd"
            d="M8.58301 9.25022C8.88107 9.06314 9.21441 9.03537 9.58301 9.16689C9.25422 9.24947 8.92089 9.27724 8.58301 9.25022Z"
            fill="#4053FA" />
        <path fill-rule="evenodd" clip-rule="evenodd"
            d="M10.75 9.25022C11.0481 9.06314 11.3814 9.03537 11.75 9.16689C11.4212 9.24947 11.0879 9.27724 10.75 9.25022Z"
            fill="#2F5DFA" />
        <path fill-rule="evenodd" clip-rule="evenodd"
            d="M8.41699 9.41666C8.24166 9.44157 8.07499 9.41379 7.91699 9.33332C8.12523 9.20997 8.29189 9.23774 8.41699 9.41666Z"
            fill="#475DFA" />
        <path fill-rule="evenodd" clip-rule="evenodd"
            d="M11.917 9.41666C12.0421 9.23774 12.2088 9.20997 12.417 9.33332C12.259 9.41379 12.0923 9.44157 11.917 9.41666Z"
            fill="#475DFA" />
        <path fill-rule="evenodd" clip-rule="evenodd"
            d="M7.41699 9.58318C7.48309 9.41235 7.59419 9.38457 7.75033 9.49985C7.65126 9.57723 7.54014 9.60502 7.41699 9.58318Z"
            fill="#4460FA" />
        <path fill-rule="evenodd" clip-rule="evenodd"
            d="M12.583 9.58318C12.6491 9.41235 12.7602 9.38457 12.9163 9.49985C12.8173 9.57723 12.7062 9.60502 12.583 9.58318Z"
            fill="#306FFA" />
        <path fill-rule="evenodd" clip-rule="evenodd"
            d="M7.41635 9.5835C7.41635 9.63905 7.41635 9.69461 7.41635 9.75016C6.9719 9.69461 6.9719 9.63905 7.41635 9.5835Z"
            fill="#2F27FA" />
        <path fill-rule="evenodd" clip-rule="evenodd"
            d="M6.91635 9.91666C6.80523 9.69445 6.80523 9.69445 6.91635 9.91666Z" fill="#5150FA" />
        <path fill-rule="evenodd" clip-rule="evenodd"
            d="M14.0833 10.0832C13.9722 9.86095 13.9722 9.86095 14.0833 10.0832Z" fill="#5150FA" />
        <path fill-rule="evenodd" clip-rule="evenodd"
            d="M14.75 10.4165C14.9722 10.5276 14.9722 10.5276 14.75 10.4165Z" fill="#3E7CFA" />
        <path fill-rule="evenodd" clip-rule="evenodd"
            d="M15.083 10.5835C15.3052 10.6946 15.3052 10.6946 15.083 10.5835Z" fill="#5150FA" />
        <path fill-rule="evenodd" clip-rule="evenodd"
            d="M27.4164 11.0832C27.3052 10.8609 27.3052 10.8609 27.4164 11.0832Z" fill="#3E7CFA" />
        <path fill-rule="evenodd" clip-rule="evenodd"
            d="M27.417 11.0835C27.6392 11.1946 27.6392 11.1946 27.417 11.0835Z" fill="#007CFA" />
        <path fill-rule="evenodd" clip-rule="evenodd"
            d="M16.0836 17.2498C16.0559 15.3046 16.0837 13.3602 16.167 11.4165C16.3047 13.39 16.2769 15.3344 16.0836 17.2498Z"
            fill="#4E4DFA" />
        <path fill-rule="evenodd" clip-rule="evenodd"
            d="M27.917 11.9165C28.1392 12.0276 28.1392 12.0276 27.917 11.9165Z" fill="#5150FA" />
        <path fill-rule="evenodd" clip-rule="evenodd"
            d="M28.083 12.25C28.3052 12.3611 28.3052 12.3611 28.083 12.25Z" fill="#5150FA" />
        <path fill-rule="evenodd" clip-rule="evenodd"
            d="M28.25 12.5835C28.4722 12.6946 28.4722 12.6946 28.25 12.5835Z" fill="#5150FA" />
        <path fill-rule="evenodd" clip-rule="evenodd"
            d="M3.58301 12.75C3.80522 12.8611 3.80522 12.8611 3.58301 12.75Z" fill="#5150FA" />
        <path fill-rule="evenodd" clip-rule="evenodd"
            d="M3.41699 13.0835C3.63921 13.1946 3.63921 13.1946 3.41699 13.0835Z" fill="#5150FA" />
        <path fill-rule="evenodd" clip-rule="evenodd"
            d="M9.25 13.9167C9.25 13.8611 9.25 13.8056 9.25 13.75C10.3611 13.8056 10.3611 13.8611 9.25 13.9167Z"
            fill="#2937FA" />
        <path fill-rule="evenodd" clip-rule="evenodd"
            d="M11.25 13.7502C10.9519 13.9373 10.6186 13.9651 10.25 13.8336C10.5788 13.751 10.9121 13.7232 11.25 13.7502Z"
            fill="#3C47FA" />
        <path fill-rule="evenodd" clip-rule="evenodd"
            d="M3.24967 14.25C3.19412 14.25 3.13856 14.25 3.08301 14.25C3.13856 13.5833 3.19412 13.5833 3.24967 14.25Z"
            fill="#3A33FA" />
        <path fill-rule="evenodd" clip-rule="evenodd"
            d="M9.25033 13.9169C9.18423 14.0877 9.07313 14.1155 8.91699 14.0002C9.01606 13.9228 9.12718 13.895 9.25033 13.9169Z"
            fill="#2D3CFA" />
        <path fill-rule="evenodd" clip-rule="evenodd"
            d="M28.7497 14.4167C28.7236 14.1878 28.7514 13.9655 28.8331 13.75C28.9606 14.011 28.9327 14.2332 28.7497 14.4167Z"
            fill="#2273FA" />
        <path fill-rule="evenodd" clip-rule="evenodd"
            d="M3.08365 14.25C3.10857 14.4253 3.08078 14.592 3.00032 14.75C2.87697 14.5418 2.90473 14.3751 3.08365 14.25Z"
            fill="#4743FA" />
        <path fill-rule="evenodd" clip-rule="evenodd"
            d="M24.0836 14.75C24.1085 14.9253 24.0808 15.092 24.0003 15.25C23.877 15.0418 23.9048 14.8751 24.0836 14.75Z"
            fill="#4743FA" />
        <path fill-rule="evenodd" clip-rule="evenodd"
            d="M7.91699 14.75C7.97254 14.75 8.02811 14.75 8.08366 14.75C8.11226 14.9153 8.05669 15.0264 7.91699 15.0833C7.91699 14.9722 7.91699 14.8611 7.91699 14.75Z"
            fill="#217DFA" />
        <path fill-rule="evenodd" clip-rule="evenodd"
            d="M28.9164 14.5835C29.1054 14.9946 29.1332 15.439 28.9997 15.9168C28.9169 15.4758 28.8891 15.0314 28.9164 14.5835Z"
            fill="#3E59FA" />
        <path fill-rule="evenodd" clip-rule="evenodd"
            d="M7.75 15.0835C7.80555 15.0835 7.86112 15.0835 7.91667 15.0835C7.86112 15.7502 7.80555 15.7502 7.75 15.0835Z"
            fill="#3D50FA" />
        <path fill-rule="evenodd" clip-rule="evenodd"
            d="M24.2496 15.4165C24.2767 15.8093 24.2491 16.1982 24.1662 16.5832C24.0336 16.1601 24.0614 15.7712 24.2496 15.4165Z"
            fill="#3A61FA" />
        <path fill-rule="evenodd" clip-rule="evenodd"
            d="M2.74962 14.9165C2.94157 15.8306 2.96935 16.775 2.83295 17.7498C2.74972 16.807 2.72194 15.8626 2.74962 14.9165Z"
            fill="#3568FA" />
        <path fill-rule="evenodd" clip-rule="evenodd"
            d="M7.58301 15.75C7.80522 16.0278 7.80522 16.3055 7.58301 16.5833C7.58301 16.3055 7.58301 16.0278 7.58301 15.75Z"
            fill="#4460FA" />
        <path fill-rule="evenodd" clip-rule="evenodd"
            d="M7.75005 16.75C7.92896 16.8752 7.95673 17.0418 7.83338 17.25C7.75291 17.092 7.72513 16.9253 7.75005 16.75Z"
            fill="#2966FA" />
        <path fill-rule="evenodd" clip-rule="evenodd"
            d="M24.0836 17.25C23.9048 17.1248 23.877 16.9582 24.0003 16.75C24.0808 16.908 24.1085 17.0747 24.0836 17.25Z"
            fill="#4743FA" />
        <path fill-rule="evenodd" clip-rule="evenodd"
            d="M28.9163 16.75C29.1045 17.1047 29.1323 17.4935 28.9997 17.9167C28.9168 17.5317 28.8892 17.1428 28.9163 16.75Z"
            fill="#434DFA" />
        <path fill-rule="evenodd" clip-rule="evenodd"
            d="M15.7503 17.4165C15.6392 17.5277 15.6392 17.5277 15.7503 17.4165Z" fill="#0000FA" />
        <path fill-rule="evenodd" clip-rule="evenodd"
            d="M23.9167 17.7499C23.8612 17.7499 23.8055 17.7499 23.75 17.7499C23.8055 17.3054 23.8612 17.3054 23.9167 17.7499Z"
            fill="#306FFA" />
        <path fill-rule="evenodd" clip-rule="evenodd"
            d="M23.7504 17.75C23.6392 17.8612 23.6392 17.8612 23.7504 17.75Z" fill="#5150FA" />
        <path fill-rule="evenodd" clip-rule="evenodd"
            d="M3.08365 18.4165C2.90473 18.2913 2.87697 18.1247 3.00032 17.9165C3.08078 18.0745 3.10857 18.2412 3.08365 18.4165Z"
            fill="#4743FA" />
        <path fill-rule="evenodd" clip-rule="evenodd"
            d="M28.75 18.0835C28.9288 18.2087 28.9567 18.3753 28.8333 18.5835C28.7528 18.4255 28.7252 18.2588 28.75 18.0835Z"
            fill="#3B68FA" />
        <path fill-rule="evenodd" clip-rule="evenodd"
            d="M3.08362 18.4165C3.13917 18.4165 3.19474 18.4165 3.25029 18.4165C3.25029 18.5832 3.25029 18.7498 3.25029 18.9165C3.09962 18.7983 3.04407 18.6317 3.08362 18.4165Z"
            fill="#3A33FA" />
        <path fill-rule="evenodd" clip-rule="evenodd"
            d="M28.583 18.75C28.8052 18.8612 28.8052 18.9722 28.583 19.0833C28.583 18.9722 28.583 18.8612 28.583 18.75Z"
            fill="#306FFA" />
        <path fill-rule="evenodd" clip-rule="evenodd"
            d="M3.25 18.9165C3.30555 18.9165 3.36112 18.9165 3.41667 18.9165C3.36112 19.361 3.30555 19.361 3.25 18.9165Z"
            fill="#433EFA" />
        <path fill-rule="evenodd" clip-rule="evenodd"
            d="M28.417 19.0835C28.4725 19.0835 28.5282 19.0835 28.5837 19.0835C28.5282 19.528 28.4725 19.528 28.417 19.0835Z"
            fill="#433EFA" />
        <path fill-rule="evenodd" clip-rule="evenodd"
            d="M3.58365 19.4165C3.58365 19.5277 3.58365 19.6387 3.58365 19.7498C3.36144 19.6387 3.36144 19.5277 3.58365 19.4165Z"
            fill="#2F27FA" />
        <path fill-rule="evenodd" clip-rule="evenodd"
            d="M28.25 19.5835C28.4722 19.6947 28.4722 19.6947 28.25 19.5835Z" fill="#5150FA" />
        <path fill-rule="evenodd" clip-rule="evenodd"
            d="M3.58346 19.75C3.63901 19.75 3.69458 19.75 3.75013 19.75C3.75013 19.8612 3.75013 19.9722 3.75013 20.0833C3.61043 20.0263 3.55486 19.9153 3.58346 19.75Z"
            fill="#2F27FA" />
        <path fill-rule="evenodd" clip-rule="evenodd"
            d="M28.083 19.9165C28.3052 20.0277 28.3052 20.0277 28.083 19.9165Z" fill="#5150FA" />
        <path fill-rule="evenodd" clip-rule="evenodd"
            d="M3.75 20.0835C3.80555 20.0835 3.86112 20.0835 3.91667 20.0835C3.88578 20.1952 3.83022 20.1952 3.75 20.0835Z"
            fill="#3E7CFA" />
        <path fill-rule="evenodd" clip-rule="evenodd"
            d="M27.917 20.0835C27.9725 20.0835 28.0282 20.0835 28.0837 20.0835C28.1123 20.2488 28.0567 20.3598 27.917 20.4168C27.917 20.3057 27.917 20.1947 27.917 20.0835Z"
            fill="#1D5FFA" />
        <path fill-rule="evenodd" clip-rule="evenodd"
            d="M4.08334 20.5831C3.97222 20.361 3.97222 20.361 4.08334 20.5831Z" fill="#007CFA" />
        <path fill-rule="evenodd" clip-rule="evenodd"
            d="M10.417 20.5834C10.7156 20.4212 10.9378 20.5324 11.0837 20.9167C10.9725 20.9167 10.8614 20.9167 10.7503 20.9167C10.6392 20.9167 10.5837 20.8612 10.5837 20.7501C10.4725 20.7501 10.417 20.6946 10.417 20.5834Z"
            fill="#1224FA" />
        <path fill-rule="evenodd" clip-rule="evenodd"
            d="M27.75 20.4165C27.8055 20.4165 27.8612 20.4165 27.9167 20.4165C27.8858 20.5282 27.8302 20.5282 27.75 20.4165Z"
            fill="#3E7CFA" />
        <path fill-rule="evenodd" clip-rule="evenodd"
            d="M4.08301 20.5835C4.13856 20.5835 4.19412 20.5835 4.24967 20.5835C4.21879 20.6952 4.16322 20.6952 4.08301 20.5835Z"
            fill="#3E7CFA" />
        <path fill-rule="evenodd" clip-rule="evenodd"
            d="M27.583 20.75C27.8052 20.8612 27.8052 20.8612 27.583 20.75Z" fill="#007CFA" />
        <path fill-rule="evenodd" clip-rule="evenodd"
            d="M4.25 20.9165C4.47222 21.0277 4.47222 21.0277 4.25 20.9165Z" fill="#007CFA" />
        <path fill-rule="evenodd" clip-rule="evenodd"
            d="M27.417 20.9165C27.4725 20.9165 27.5282 20.9165 27.5837 20.9165C27.5528 21.0282 27.4972 21.0282 27.417 20.9165Z"
            fill="#3E7CFA" />
        <path fill-rule="evenodd" clip-rule="evenodd"
            d="M27.25 21.0835C27.3055 21.0835 27.3612 21.0835 27.4167 21.0835C27.3858 21.1952 27.3302 21.1952 27.25 21.0835Z"
            fill="#5150FA" />
        <path fill-rule="evenodd" clip-rule="evenodd"
            d="M26.583 21.9165C26.8052 22.0277 26.8052 22.0277 26.583 21.9165Z" fill="#3E7CFA" />
        <path fill-rule="evenodd" clip-rule="evenodd"
            d="M26.417 22.0835C26.4725 22.0835 26.5282 22.0835 26.5837 22.0835C26.5528 22.1952 26.4972 22.1952 26.417 22.0835Z"
            fill="#3E7CFA" />
        <path fill-rule="evenodd" clip-rule="evenodd"
            d="M26.25 22.25C26.3055 22.25 26.3612 22.25 26.4167 22.25C26.3858 22.3617 26.3302 22.3617 26.25 22.25Z"
            fill="#3E7CFA" />
        <path fill-rule="evenodd" clip-rule="evenodd"
            d="M26.083 22.4165C26.1385 22.4165 26.1942 22.4165 26.2497 22.4165C26.2188 22.5282 26.1632 22.5282 26.083 22.4165Z"
            fill="#3E7CFA" />
        <path fill-rule="evenodd" clip-rule="evenodd"
            d="M19.0837 22.7499C18.9725 22.7499 18.917 22.8054 18.917 22.9166C18.8058 22.9166 18.7503 22.9721 18.7503 23.0832C18.6392 23.0832 18.5282 23.0832 18.417 23.0832C18.5628 22.6989 18.785 22.5877 19.0837 22.7499Z"
            fill="#1224FA" />
        <path fill-rule="evenodd" clip-rule="evenodd"
            d="M25.917 22.5835C25.9725 22.5835 26.0282 22.5835 26.0837 22.5835C26.0528 22.6952 25.9972 22.6952 25.917 22.5835Z"
            fill="#3E7CFA" />
        <path fill-rule="evenodd" clip-rule="evenodd"
            d="M25.75 22.75C25.8055 22.75 25.8612 22.75 25.9167 22.75C25.8858 22.8617 25.8302 22.8617 25.75 22.75Z"
            fill="#3E7CFA" />
        <path fill-rule="evenodd" clip-rule="evenodd"
            d="M6.41634 22.9169C6.52746 22.9169 6.58301 22.9724 6.58301 23.0835C6.69412 23.0835 6.74967 23.139 6.74967 23.2502C6.48802 23.4267 6.26581 23.3434 6.08301 23.0002C6.18207 22.9229 6.29319 22.895 6.41634 22.9169Z"
            fill="#1224FA" />
        <path fill-rule="evenodd" clip-rule="evenodd"
            d="M25.583 22.9165C25.6385 22.9165 25.6942 22.9165 25.7497 22.9165C25.7188 23.0282 25.6632 23.0282 25.583 22.9165Z"
            fill="#5150FA" />
        <path fill-rule="evenodd" clip-rule="evenodd"
            d="M25.417 23.0835C25.4725 23.0835 25.5282 23.0835 25.5837 23.0835C25.5528 23.1952 25.4972 23.1952 25.417 23.0835Z"
            fill="#5150FA" />
        <path fill-rule="evenodd" clip-rule="evenodd"
            d="M25.25 23.25C25.3055 23.25 25.3612 23.25 25.4167 23.25C25.3858 23.3617 25.3302 23.3617 25.25 23.25Z"
            fill="#5150FA" />
        <path fill-rule="evenodd" clip-rule="evenodd"
            d="M25.083 23.4165C25.1385 23.4165 25.1942 23.4165 25.2497 23.4165C25.2188 23.5282 25.1632 23.5282 25.083 23.4165Z"
            fill="#5150FA" />
        <path fill-rule="evenodd" clip-rule="evenodd"
            d="M23.5837 24.75C23.9658 24.8835 23.9103 24.9947 23.417 25.0833C23.417 25.0278 23.417 24.9722 23.417 24.9167C23.5282 24.9167 23.5837 24.8612 23.5837 24.75Z"
            fill="#0000FA" />
        <path fill-rule="evenodd" clip-rule="evenodd"
            d="M23.25 25.0835C23.3055 25.0835 23.3612 25.0835 23.4167 25.0835C23.3858 25.1952 23.3302 25.1952 23.25 25.0835Z"
            fill="#007CFA" />
        <path fill-rule="evenodd" clip-rule="evenodd"
            d="M23.083 25.25C23.1385 25.25 23.1942 25.25 23.2497 25.25C23.2188 25.3617 23.1632 25.3617 23.083 25.25Z"
            fill="#007CFA" />
        <path fill-rule="evenodd" clip-rule="evenodd"
            d="M22.917 25.4165C22.9725 25.4165 23.0282 25.4165 23.0837 25.4165C23.0528 25.5282 22.9972 25.5282 22.917 25.4165Z"
            fill="#5150FA" />
        <path fill-rule="evenodd" clip-rule="evenodd"
            d="M22.75 25.5835C22.8055 25.5835 22.8612 25.5835 22.9167 25.5835C22.8858 25.6952 22.8302 25.6952 22.75 25.5835Z"
            fill="#5150FA" />
        <path fill-rule="evenodd" clip-rule="evenodd"
            d="M22.583 25.75C22.6385 25.75 22.6942 25.75 22.7497 25.75C22.7188 25.8617 22.6632 25.8617 22.583 25.75Z"
            fill="#3E7CFA" />
        <path fill-rule="evenodd" clip-rule="evenodd"
            d="M22.417 25.9165C22.4725 25.9165 22.5282 25.9165 22.5837 25.9165C22.5528 26.0282 22.4972 26.0282 22.417 25.9165Z"
            fill="#3E7CFA" />
        <path fill-rule="evenodd" clip-rule="evenodd"
            d="M22.25 26.0835C22.3055 26.0835 22.3612 26.0835 22.4167 26.0835C22.3858 26.1952 22.3302 26.1952 22.25 26.0835Z"
            fill="#3E7CFA" />
        <path fill-rule="evenodd" clip-rule="evenodd"
            d="M22.083 26.25C22.1385 26.25 22.1942 26.25 22.2497 26.25C22.2188 26.3617 22.1632 26.3617 22.083 26.25Z"
            fill="#3E7CFA" />
        <path fill-rule="evenodd" clip-rule="evenodd"
            d="M21.917 26.4165C21.9725 26.4165 22.0282 26.4165 22.0837 26.4165C22.0528 26.5282 21.9972 26.5282 21.917 26.4165Z"
            fill="#3E7CFA" />
        <path fill-rule="evenodd" clip-rule="evenodd"
            d="M21.75 26.5835C21.8055 26.5835 21.8612 26.5835 21.9167 26.5835C21.8858 26.6952 21.8302 26.6952 21.75 26.5835Z"
            fill="#3E7CFA" />
        <path fill-rule="evenodd" clip-rule="evenodd"
            d="M21.583 26.75C21.6385 26.75 21.6942 26.75 21.7497 26.75C21.7188 26.8617 21.6632 26.8617 21.583 26.75Z"
            fill="#3E7CFA" />
        <path fill-rule="evenodd" clip-rule="evenodd"
            d="M21.417 26.9165C21.4725 26.9165 21.5282 26.9165 21.5837 26.9165C21.5528 27.0282 21.4972 27.0282 21.417 26.9165Z"
            fill="#3E7CFA" />
        <path fill-rule="evenodd" clip-rule="evenodd"
            d="M21.25 27.0835C21.3055 27.0835 21.3612 27.0835 21.4167 27.0835C21.3858 27.1952 21.3302 27.1952 21.25 27.0835Z"
            fill="#3E7CFA" />
        <path fill-rule="evenodd" clip-rule="evenodd"
            d="M21.083 27.25C21.1385 27.25 21.1942 27.25 21.2497 27.25C21.2188 27.3617 21.1632 27.3617 21.083 27.25Z"
            fill="#5150FA" />
        <path fill-rule="evenodd" clip-rule="evenodd"
            d="M19.9167 28.25C20.2988 28.3835 20.2433 28.4947 19.75 28.5833C19.75 28.5278 19.75 28.4722 19.75 28.4167C19.8612 28.4167 19.9167 28.3612 19.9167 28.25Z"
            fill="#162DFA" />
        <path fill-rule="evenodd" clip-rule="evenodd"
            d="M12.0833 28.4169C12.1945 28.4169 12.25 28.4724 12.25 28.5835C12.3611 28.5835 12.4167 28.639 12.4167 28.7502C12.155 28.9267 11.9328 28.8434 11.75 28.5002C11.8491 28.4229 11.9602 28.395 12.0833 28.4169Z"
            fill="#1224FA" />
        <path fill-rule="evenodd" clip-rule="evenodd"
            d="M19.583 28.5835C19.6385 28.5835 19.6942 28.5835 19.7497 28.5835C19.7188 28.6952 19.6632 28.6952 19.583 28.5835Z"
            fill="#5150FA" />
        <path fill-rule="evenodd" clip-rule="evenodd"
            d="M19.417 28.75C19.4725 28.75 19.5282 28.75 19.5837 28.75C19.5528 28.8617 19.4972 28.8617 19.417 28.75Z"
            fill="#5150FA" />
        <path fill-rule="evenodd" clip-rule="evenodd"
            d="M19.25 28.9165C19.3055 28.9165 19.3612 28.9165 19.4167 28.9165C19.3858 29.0282 19.3302 29.0282 19.25 28.9165Z"
            fill="#3E7CFA" />
        <path fill-rule="evenodd" clip-rule="evenodd"
            d="M19.083 29.0835C19.1385 29.0835 19.1942 29.0835 19.2497 29.0835C19.2188 29.1952 19.1632 29.1952 19.083 29.0835Z"
            fill="#3E7CFA" />
        <path fill-rule="evenodd" clip-rule="evenodd"
            d="M18.917 29.25C18.9725 29.25 19.0282 29.25 19.0837 29.25C19.0528 29.3617 18.9972 29.3617 18.917 29.25Z"
            fill="#3E7CFA" />
        <path fill-rule="evenodd" clip-rule="evenodd"
            d="M18.75 29.4165C18.8055 29.4165 18.8612 29.4165 18.9167 29.4165C18.8858 29.5282 18.8302 29.5282 18.75 29.4165Z"
            fill="#3E7CFA" />
        <path fill-rule="evenodd" clip-rule="evenodd"
            d="M18.583 29.5835C18.6385 29.5835 18.6942 29.5835 18.7497 29.5835C18.7188 29.6952 18.6632 29.6952 18.583 29.5835Z"
            fill="#3E7CFA" />
        <path fill-rule="evenodd" clip-rule="evenodd"
            d="M18.417 29.75C18.4725 29.75 18.5282 29.75 18.5837 29.75C18.5528 29.8617 18.4972 29.8617 18.417 29.75Z"
            fill="#3E7CFA" />
        <path fill-rule="evenodd" clip-rule="evenodd"
            d="M18.25 29.9165C18.3055 29.9165 18.3612 29.9165 18.4167 29.9165C18.3858 30.0282 18.3302 30.0282 18.25 29.9165Z"
            fill="#3E7CFA" />
        <path fill-rule="evenodd" clip-rule="evenodd"
            d="M18.083 30.0835C18.1385 30.0835 18.1942 30.0835 18.2497 30.0835C18.2188 30.1952 18.1632 30.1952 18.083 30.0835Z"
            fill="#5150FA" />
        <path fill-rule="evenodd" clip-rule="evenodd"
            d="M17.917 30.25C17.9725 30.25 18.0282 30.25 18.0837 30.25C18.0528 30.3617 17.9972 30.3617 17.917 30.25Z"
            fill="#5150FA" />
        <path fill-rule="evenodd" clip-rule="evenodd"
            d="M16.9167 31.0835C17.2988 31.217 17.2433 31.3282 16.75 31.4168C16.75 31.3613 16.75 31.3057 16.75 31.2502C16.8612 31.2502 16.9167 31.1947 16.9167 31.0835Z"
            fill="#162DFA" />
        <path fill-rule="evenodd" clip-rule="evenodd"
            d="M16.583 31.4165C16.6386 31.4165 16.6942 31.4165 16.7497 31.4165C16.7188 31.5282 16.6632 31.5282 16.583 31.4165Z"
            fill="#5150FA" />
        <path fill-rule="evenodd" clip-rule="evenodd"
            d="M16.417 31.5835C16.4725 31.5835 16.5281 31.5835 16.5837 31.5835C16.5528 31.6952 16.4972 31.6952 16.417 31.5835Z"
            fill="#5150FA" />
        <path fill-rule="evenodd" clip-rule="evenodd"
            d="M15.4168 31.75C15.4168 31.8055 15.4168 31.8612 15.4168 31.9167C15.3051 31.8365 15.3051 31.7808 15.4168 31.75Z"
            fill="#3E7CFA" />
        <path fill-rule="evenodd" clip-rule="evenodd"
            d="M16.25 31.75C16.3056 31.75 16.3611 31.75 16.4167 31.75C16.4167 31.8055 16.4167 31.8612 16.4167 31.9167C16.3611 31.8612 16.3056 31.8055 16.25 31.75Z"
            fill="#3E7CFA" />
    </g>
    <defs>
        <clipPath id="clip0_5773_138">
            <rect width="32" height="32" fill="white" />
        </clipPath>
    </defs>
</svg>