<svg width="32" height="32" viewBox="0 0 32 32" fill="none" xmlns="http://www.w3.org/2000/svg">
    <g clip-path="url(#clip0_5556_362)">
        <path fill-rule="evenodd" clip-rule="evenodd"
            d="M-0.071167 -0.0712891C10.5955 -0.0712891 21.2622 -0.0712891 31.9288 -0.0712891C31.9288 10.5954 31.9288 21.262 31.9288 31.9287C21.2622 31.9287 10.5955 31.9287 -0.071167 31.9287C-0.071167 21.262 -0.071167 10.5954 -0.071167 -0.0712891Z"
            fill="#F9F9F9" />
        <path fill-rule="evenodd" clip-rule="evenodd"
            d="M20.8356 16.1422C19.8025 16.5498 18.7596 16.9289 17.7067 17.2799C17.154 16.1274 16.5614 14.9896 15.9289 13.8666C14.9392 15.5141 14.0622 17.2208 13.2978 18.9866C12.3857 20.4787 11.5797 22.0431 10.88 23.6799C9.6085 23.8653 8.3285 23.8653 7.04004 23.6799C9.96673 17.9687 12.9297 12.2798 15.9289 6.61328C17.6409 9.75261 19.2764 12.9289 20.8356 16.1422Z"
            fill="#021951" />
        <path fill-rule="evenodd" clip-rule="evenodd"
            d="M17.7066 17.2795C16.2925 17.9569 14.8228 18.5258 13.2977 18.9862C14.0621 17.2204 14.9391 15.5137 15.9288 13.8662C16.5613 14.9892 17.1539 16.127 17.7066 17.2795Z"
            fill="#F3F4F6" />
        <path fill-rule="evenodd" clip-rule="evenodd"
            d="M10.88 23.6798C11.5797 22.043 12.3856 20.4785 13.2978 18.9865C14.8228 18.5261 16.2926 17.9572 17.7067 17.2798C18.7595 16.9288 19.8025 16.5496 20.8356 16.142C21.7604 15.8257 22.6849 15.4939 23.6089 15.1465C23.8538 15.1623 23.8774 15.2334 23.68 15.3598C19.3917 18.1088 15.1251 20.8822 10.88 23.6798Z"
            fill="#6A58F1" />
        <path fill-rule="evenodd" clip-rule="evenodd"
            d="M22.2578 19.2714C22.3994 19.2592 22.5179 19.3067 22.6133 19.4136C23.3845 20.8135 24.1193 22.2357 24.8178 23.6803C23.5851 23.8699 22.3526 23.8699 21.12 23.6803C20.533 22.6249 19.9642 21.5582 19.4133 20.4803C20.3651 20.0612 21.3133 19.6581 22.2578 19.2714Z"
            fill="#061A52" />
    </g>
    <defs>
        <clipPath id="clip0_5556_362">
            <rect width="32" height="32" fill="white" />
        </clipPath>
    </defs>
</svg>