<svg width="32" height="32" viewBox="0 0 32 32" fill="none" xmlns="http://www.w3.org/2000/svg">
    <g clip-path="url(#clip0_5889_1659)">
        <rect width="32" height="32" fill="#FAFAFA" />
        <path fill-rule="evenodd" clip-rule="evenodd"
            d="M6.70544 -0.128906C7.96034 -0.128906 9.21525 -0.128906 10.4701 -0.128906C15.3797 2.30029 16.7523 6.25729 14.5878 11.7421C11.3548 15.935 7.70777 16.4081 3.64662 13.1614C0.600287 8.8089 0.914014 4.76591 4.5878 1.03238C5.3153 0.633432 6.02118 0.246335 6.70544 -0.128906Z"
            fill="black" />
        <path fill-rule="evenodd" clip-rule="evenodd"
            d="M17.7646 -0.128906C18.6274 -0.128906 19.4901 -0.128906 20.3529 -0.128906C26.3886 1.45894 30.1143 5.58797 31.5294 12.2582C31.647 18.7952 31.6863 25.3329 31.647 31.8711C27.0195 31.8711 22.3921 31.8711 17.7646 31.8711C17.7646 21.2044 17.7646 10.5378 17.7646 -0.128906Z"
            fill="black" />
        <path fill-rule="evenodd" clip-rule="evenodd"
            d="M15.6475 31.8713C10.3926 31.8713 5.13771 31.8713 -0.117188 31.8713C-0.117188 30.925 -0.117188 29.9789 -0.117188 29.0326C2.16454 20.4343 7.41945 16.4773 15.6475 17.1616C15.6475 22.0648 15.6475 26.968 15.6475 31.8713Z"
            fill="black" />
    </g>
    <defs>
        <clipPath id="clip0_5889_1659">
            <rect width="32" height="32" fill="white" />
        </clipPath>
    </defs>
</svg>