<svg width="32" height="32" viewBox="0 0 32 32" fill="none" xmlns="http://www.w3.org/2000/svg">
    <g clip-path="url(#clip0_5743_1177)">
        <path fill-rule="evenodd" clip-rule="evenodd"
            d="M-0.0800018 -0.0800781C10.5867 -0.0800781 21.2533 -0.0800781 31.92 -0.0800781C31.92 0.666589 31.92 1.41325 31.92 2.15992C21.2702 2.17637 10.6036 2.2297 -0.0800018 2.31992C-0.0800018 1.51992 -0.0800018 0.719922 -0.0800018 -0.0800781Z"
            fill="#755737" />
        <path fill-rule="evenodd" clip-rule="evenodd"
            d="M31.92 2.16016C31.92 2.69348 31.92 3.22683 31.92 3.76016C31.4933 3.76016 31.0667 3.76016 30.64 3.76016C30.64 3.44016 30.64 3.12016 30.64 2.80016C29.7867 2.80016 28.9333 2.80016 28.08 2.80016C28.08 3.01348 28.08 3.22683 28.08 3.44016C27.2275 3.38697 26.3741 3.33364 25.52 3.28016C24.8707 3.33462 24.2307 3.44129 23.6 3.60016C22.3114 3.22718 21.0314 3.28051 19.76 3.76016C19.1349 3.55036 18.4949 3.44371 17.84 3.44016C17.7475 3.27264 17.641 3.29931 17.52 3.52016C15.9617 3.84168 14.415 3.81502 12.88 3.44016C12.7164 3.49704 12.6098 3.60371 12.56 3.76016C11.1322 3.42851 9.69217 3.37516 8.24 3.60016C6.53829 3.2262 4.83161 3.2262 3.12 3.60016C2.69333 3.49348 2.26667 3.38683 1.84 3.28016C1.20385 3.38636 0.563846 3.43969 -0.0800018 3.44016C-0.0800018 3.06683 -0.0800018 2.69348 -0.0800018 2.32016C10.6036 2.22993 21.2702 2.1766 31.92 2.16016Z"
            fill="#7C5738" />
        <path fill-rule="evenodd" clip-rule="evenodd"
            d="M12.56 3.75979C12.7284 4.1046 12.6217 4.15793 12.24 3.91979C11.9843 4.31553 11.7443 4.31553 11.52 3.91979C11.4483 4.22521 11.5817 4.41188 11.92 4.47979C11.7867 4.61311 11.6533 4.74646 11.52 4.87979C7.68995 4.56228 3.82329 4.45563 -0.0800018 4.55979C-0.0800018 4.18646 -0.0800018 3.81311 -0.0800018 3.43979C0.563846 3.43932 1.20385 3.38599 1.84 3.27979C2.26667 3.38646 2.69333 3.49311 3.12 3.59979C4.83161 3.22583 6.53829 3.22583 8.24 3.59979C9.69217 3.37479 11.1322 3.42814 12.56 3.75979Z"
            fill="#7C5D38" />
        <path fill-rule="evenodd" clip-rule="evenodd"
            d="M31.92 3.7598C31.92 4.02648 31.92 4.29313 31.92 4.5598C28.0786 4.50651 24.2386 4.55985 20.4 4.7198C20.7216 4.81025 20.9882 4.97025 21.2 5.1998C20.5752 5.49766 20.0952 5.36433 19.76 4.7998C19.8667 4.74648 19.9733 4.69313 20.08 4.6398C19.6974 4.59392 19.3242 4.51392 18.96 4.3998C18.8182 4.2678 18.765 4.1078 18.8 3.9198C18.537 3.88564 18.297 3.93897 18.08 4.0798C17.9534 3.8806 17.8734 3.66728 17.84 3.4398C18.4949 3.44336 19.1349 3.55001 19.76 3.7598C21.0314 3.28016 22.3114 3.22683 23.6 3.5998C24.2307 3.44094 24.8707 3.33427 25.52 3.2798C26.3741 3.33329 27.2275 3.38662 28.08 3.4398C28.08 3.22648 28.08 3.01313 28.08 2.7998C28.9333 2.7998 29.7867 2.7998 30.64 2.7998C30.64 3.1198 30.64 3.4398 30.64 3.7598C31.0667 3.7598 31.4933 3.7598 31.92 3.7598Z"
            fill="#7C5D38" />
        <path fill-rule="evenodd" clip-rule="evenodd"
            d="M17.84 3.43993C17.8734 3.6674 17.9534 3.88073 18.08 4.07993C18.297 3.9391 18.537 3.88577 18.8 3.91993C18.765 4.10793 18.8182 4.26793 18.96 4.39993C19.3242 4.51404 19.6974 4.59404 20.08 4.63993C19.9733 4.69326 19.8667 4.7466 19.76 4.79993C20.0952 5.36446 20.5752 5.49778 21.2 5.19993C20.9882 4.97038 20.7216 4.81038 20.4 4.71993C24.2386 4.55998 28.0786 4.50663 31.92 4.55993C31.92 5.03993 31.92 5.51993 31.92 5.99993C29.0381 5.94666 26.1581 6.00001 23.28 6.15993C23.364 6.27071 23.4707 6.35071 23.6 6.39993C23.3891 6.511 23.2558 6.64433 23.2 6.79993C23.12 6.77326 23.04 6.7466 22.96 6.71993C23.1397 6.41986 23.1397 6.07319 22.96 5.67993C22.7917 5.65601 22.6317 5.68268 22.48 5.75993C22.5333 5.81326 22.5867 5.8666 22.64 5.91993C22.4602 5.9598 22.3002 6.0398 22.16 6.15993C22.4304 6.48302 22.697 6.80302 22.96 7.11993C19.549 4.75807 15.8156 4.0914 11.76 5.11993C10.8116 5.43434 9.90489 5.83434 9.04 6.31993C8.67483 6.05143 8.24816 5.8381 7.76 5.67993C7.46038 5.6771 7.40705 5.7571 7.6 5.91993C5.04056 5.99991 2.48056 6.02658 -0.0800018 5.99993C-0.0800018 5.51993 -0.0800018 5.03993 -0.0800018 4.55993C3.82329 4.45577 7.68995 4.56242 11.52 4.87993C11.6533 4.7466 11.7867 4.61326 11.92 4.47993C11.5817 4.41202 11.4483 4.22535 11.52 3.91993C11.7443 4.31567 11.9843 4.31567 12.24 3.91993C12.6217 4.15807 12.7284 4.10474 12.56 3.75993C12.6098 3.60348 12.7164 3.49681 12.88 3.43993C14.415 3.81479 15.9617 3.84145 17.52 3.51993C17.641 3.29908 17.7475 3.27241 17.84 3.43993Z"
            fill="#7D5D3E" />
        <path fill-rule="evenodd" clip-rule="evenodd"
            d="M22.96 7.11988C22.96 7.22656 23.0133 7.27988 23.12 7.27988C23.6474 7.8875 24.2074 8.47417 24.8 9.03988C25.1451 9.41062 25.3851 9.83729 25.52 10.3199C26.105 11.8186 26.505 13.4186 26.72 15.1199C26.8267 18.6932 26.8267 22.2666 26.72 25.8399C26.3789 26.0447 26.0323 26.0447 25.68 25.8399C25.5507 25.8892 25.444 25.9692 25.36 26.0799C23.92 26.1866 22.48 26.1866 21.04 26.0799C20.9867 26.0266 20.9333 25.9732 20.88 25.9199C21.3946 25.201 21.2611 24.801 20.48 24.7199C19.5971 25.2493 18.7171 25.7293 17.84 26.1599C15.6824 26.4464 13.5491 26.3397 11.44 25.8399C9.449 25.0298 7.689 23.8565 6.16 22.3199C5.84181 21.7909 5.52181 21.2576 5.2 20.7199C4.90599 19.6768 4.58599 18.6368 4.24 17.5999C4.31111 17.318 4.39111 17.3447 4.48 17.6799C4.50668 17.5999 4.53333 17.5199 4.56 17.4399C4.09202 16.8893 3.87869 16.2493 3.92 15.5199C4.05637 14.0656 4.32304 12.6523 4.72 11.2799C5.21149 9.98865 5.95816 8.86865 6.96 7.91988C7.62448 7.3478 8.31781 6.81448 9.04 6.31988C9.9049 5.8343 10.8116 5.4343 11.76 5.11988C15.8156 4.09136 19.549 4.75803 22.96 7.11988Z"
            fill="#F9F9F8" />
        <path fill-rule="evenodd" clip-rule="evenodd"
            d="M9.04 6.31976C8.31781 6.81435 7.62448 7.34768 6.96 7.91976C6.8543 7.1729 7.1743 6.8529 7.92 6.95976C7.92 6.79976 7.92 6.63976 7.92 6.47976C8.51541 6.43294 8.48873 6.32627 7.84 6.15976C7.33011 6.2469 6.82344 6.35357 6.32 6.47976C6.37333 6.58643 6.42667 6.69309 6.48 6.79976C4.29593 6.95963 2.10926 7.01296 -0.0800018 6.95976C-0.0800018 6.63976 -0.0800018 6.31976 -0.0800018 5.99976C2.48056 6.02642 5.04056 5.99974 7.6 5.91976C7.40705 5.75693 7.46038 5.67693 7.76 5.67976C8.24816 5.83794 8.67483 6.05126 9.04 6.31976Z"
            fill="#7D643E" />
        <path fill-rule="evenodd" clip-rule="evenodd"
            d="M31.92 5.99987C31.92 7.06654 31.92 8.1332 31.92 9.19987C29.6794 9.22653 27.4394 9.19985 25.2 9.11987C24.6654 8.28982 23.972 7.67649 23.12 7.27987C23.0133 7.27987 22.96 7.22654 22.96 7.11987C22.697 6.80296 22.4304 6.48296 22.16 6.15987C22.3002 6.03974 22.4602 5.95974 22.64 5.91987C22.5867 5.86654 22.5333 5.8132 22.48 5.75987C22.6317 5.68262 22.7917 5.65595 22.96 5.67987C23.1397 6.07313 23.1397 6.41981 22.96 6.71987C23.04 6.74654 23.12 6.7732 23.2 6.79987C23.2558 6.64427 23.3891 6.51094 23.6 6.39987C23.4707 6.35065 23.364 6.27065 23.28 6.15987C26.1581 5.99995 29.0381 5.94661 31.92 5.99987Z"
            fill="#82633E" />
        <path fill-rule="evenodd" clip-rule="evenodd"
            d="M6.96 7.92016C6.64131 7.89272 6.37464 7.99937 6.16 8.24016C5.74883 7.81448 5.50883 7.92115 5.44 8.56016C5.39078 8.43086 5.31078 8.3242 5.2 8.24016C5.15985 8.638 5.07985 9.01134 4.96 9.36016C3.29313 9.2023 1.61313 9.14897 -0.0800018 9.20016C-0.0800018 8.45348 -0.0800018 7.70683 -0.0800018 6.96016C2.10926 7.01336 4.29593 6.96003 6.48 6.80016C6.42667 6.69348 6.37333 6.58683 6.32 6.48016C6.82344 6.35396 7.33011 6.24729 7.84 6.16016C8.48873 6.32667 8.51541 6.43334 7.92 6.48016C7.92 6.64016 7.92 6.80016 7.92 6.96016C7.1743 6.85329 6.8543 7.17329 6.96 7.92016Z"
            fill="#83633E" />
        <path fill-rule="evenodd" clip-rule="evenodd"
            d="M6.96 7.92023C5.95816 8.86899 5.21149 9.98899 4.72 11.2802C3.84787 12.9727 3.52787 14.786 3.76 16.7202C3.44731 15.7388 3.39398 14.7255 3.6 13.6802C3.33333 13.6802 3.06667 13.6802 2.8 13.6802C2.84782 13.3436 2.79449 13.0236 2.64 12.7202C2.49365 12.8527 2.38697 13.0127 2.32 13.2002C1.52703 13.3593 0.727032 13.4126 -0.0800018 13.3602C-0.0800018 11.9736 -0.0800018 10.5869 -0.0800018 9.20023C1.61313 9.14904 3.29313 9.20237 4.96 9.36023C5.07985 9.01141 5.15985 8.63807 5.2 8.24023C5.31078 8.32427 5.39078 8.43093 5.44 8.56023C5.50883 7.92122 5.74883 7.81455 6.16 8.24023C6.37464 7.99944 6.64131 7.89279 6.96 7.92023Z"
            fill="#8B6C46" />
        <path fill-rule="evenodd" clip-rule="evenodd"
            d="M23.12 7.27979C23.972 7.67641 24.6654 8.28974 25.2 9.11979C27.4394 9.19977 29.6794 9.22644 31.92 9.19979C31.92 10.5865 31.92 11.9731 31.92 13.3598C30.5698 13.2612 29.263 13.3679 28 13.6798C27.7165 13.4414 27.6898 13.1747 27.92 12.8798C27.673 12.7002 27.4597 12.7535 27.28 13.0398C27.1226 13.5083 27.0693 13.9883 27.12 14.4798C27.0667 14.4798 27.0133 14.4798 26.96 14.4798C26.8574 12.9446 26.3774 11.5579 25.52 10.3198C25.3851 9.83719 25.1451 9.41052 24.8 9.03979C24.2074 8.47407 23.6474 7.8874 23.12 7.27979Z"
            fill="#8B6C46" />
        <path fill-rule="evenodd" clip-rule="evenodd"
            d="M15.28 11.6C14.7377 12.8005 14.951 13.8672 15.92 14.8C15.3129 14.8866 14.9929 14.62 14.96 14C14.7642 13.7974 14.5509 13.6107 14.32 13.44C14.5248 13.0989 14.5248 12.7522 14.32 12.4C14.48 12.1867 14.64 11.9733 14.8 11.76C14.7665 11.6662 14.7132 11.5862 14.64 11.52C15.1406 11.5013 15.3273 11.2613 15.2 10.8C15.1102 10.7165 15.0035 10.6632 14.88 10.64C14.2559 10.9815 13.5892 11.1415 12.88 11.12C13.1988 10.8539 13.5722 10.6672 14 10.56C14.8 10.4533 15.6 10.4533 16.4 10.56C15.8946 10.7723 15.5213 11.119 15.28 11.6Z"
            fill="#8A7457" />
        <path fill-rule="evenodd" clip-rule="evenodd"
            d="M4.71999 11.2798C4.32303 12.6522 4.05636 14.0655 3.91999 15.5198C3.87868 16.2492 4.09201 16.8892 4.55999 17.4398C4.53332 17.5198 4.50666 17.5998 4.47999 17.6798C4.3911 17.3446 4.3111 17.3179 4.23999 17.5998C4.58598 18.6367 4.90598 19.6767 5.19999 20.7198C5.09332 20.6131 4.98666 20.5065 4.87999 20.3998C4.40863 19.1993 4.0353 17.9727 3.75999 16.7198C3.52786 14.7856 3.84786 12.9722 4.71999 11.2798Z"
            fill="#F4F0E3" />
        <path fill-rule="evenodd" clip-rule="evenodd"
            d="M15.92 14.8001C15.92 15.0135 15.92 15.2268 15.92 15.4401C16.6667 15.4401 17.4133 15.4401 18.16 15.4401C15.8825 15.4964 13.6158 15.6564 11.36 15.9201C11.2828 15.7685 11.2561 15.6085 11.28 15.4401C11.3468 15.3247 11.4535 15.2447 11.6 15.2001C11.3339 14.8545 11.0673 14.5078 10.8 14.1601C10.9402 14.04 11.1002 13.96 11.28 13.9201C11.0247 13.3191 11.1314 12.7858 11.6 12.3201C11.9787 12.2603 12.2721 12.0736 12.48 11.7601C13.0106 12.1243 13.1706 12.6043 12.96 13.2001C13.0133 13.2535 13.0667 13.3068 13.12 13.3601C13.1733 13.2001 13.2267 13.0401 13.28 12.8801C13.3867 13.0935 13.4933 13.0935 13.6 12.8801C13.6533 12.9868 13.7067 13.0935 13.76 13.2001C13.9859 12.7467 14.0393 12.32 13.92 11.9201C13.6338 11.6435 13.2871 11.5368 12.88 11.6001C12.88 11.4401 12.88 11.2801 12.88 11.1201C13.5892 11.1416 14.2559 10.9816 14.88 10.6401C15.0035 10.6633 15.1102 10.7166 15.2 10.8001C15.3273 11.2614 15.1406 11.5014 14.64 11.5201C14.7132 11.5864 14.7665 11.6664 14.8 11.7601C14.64 11.9735 14.48 12.1868 14.32 12.4001C14.5248 12.7524 14.5248 13.0991 14.32 13.4401C14.5509 13.6109 14.7642 13.7975 14.96 14.0001C14.9929 14.6201 15.3129 14.8868 15.92 14.8001Z"
            fill="#927349" />
        <path fill-rule="evenodd" clip-rule="evenodd"
            d="M31.92 13.3602C31.92 14.1069 31.92 14.8535 31.92 15.6002C30.5168 15.6991 29.1568 15.5925 27.84 15.2802C27.7867 15.5469 27.7333 15.8135 27.68 16.0802C27.4014 15.7536 27.3747 15.4069 27.6 15.0402C27.3898 14.8826 27.2298 14.696 27.12 14.4802C27.0693 13.9887 27.1226 13.5087 27.28 13.0402C27.4597 12.754 27.673 12.7006 27.92 12.8802C27.6898 13.1751 27.7165 13.4418 28 13.6802C29.263 13.3683 30.5698 13.2617 31.92 13.3602Z"
            fill="#94754B" />
        <path fill-rule="evenodd" clip-rule="evenodd"
            d="M12.88 11.1201C12.88 11.2801 12.88 11.4401 12.88 11.6001C13.2871 11.5368 13.6338 11.6435 13.92 11.9201C14.0393 12.32 13.9859 12.7467 13.76 13.2001C13.7067 13.0934 13.6533 12.9868 13.6 12.8801C13.4933 13.0934 13.3867 13.0934 13.28 12.8801C13.2267 13.0401 13.1733 13.2001 13.12 13.3601C13.0667 13.3068 13.0133 13.2534 12.96 13.2001C13.1706 12.6042 13.0106 12.1242 12.48 11.7601C12.2721 12.0736 11.9787 12.2603 11.6 12.3201C11.1314 12.7857 11.0247 13.3191 11.28 13.9201C11.1002 13.96 10.9402 14.04 10.8 14.1601C11.0673 14.5078 11.3339 14.8545 11.6 15.2001C11.4535 15.2447 11.3468 15.3247 11.28 15.4401C11.0329 15.4076 10.8196 15.3009 10.64 15.1201C10.5867 15.1734 10.5333 15.2268 10.48 15.2801C10.9167 15.5789 10.8633 15.7389 10.32 15.7601C10.3186 16.0494 10.3986 16.3161 10.56 16.5601C10.6133 16.5068 10.6667 16.4534 10.72 16.4001C10.8035 17.0536 10.9368 17.6936 11.12 18.3201C10.6621 17.831 10.3688 17.2443 10.24 16.5601C9.81512 14.087 10.6951 12.2737 12.88 11.1201Z"
            fill="#907552" />
        <path fill-rule="evenodd" clip-rule="evenodd"
            d="M15.28 11.6001C15.2279 12.4159 15.3079 13.2159 15.52 14.0001C15.6927 14.3031 15.906 14.3564 16.16 14.1601C16.4267 14.4268 16.6933 14.6934 16.96 14.9601C17.0262 14.8869 17.1062 14.8336 17.2 14.8001C17.3795 14.9809 17.593 15.0876 17.84 15.1201C17.1742 15.3289 16.5342 15.2222 15.92 14.8001C14.951 13.8673 14.7377 12.8006 15.28 11.6001Z"
            fill="#F5F2E5" />
        <path fill-rule="evenodd" clip-rule="evenodd"
            d="M20.56 16.08C20.6246 15.3105 20.3846 15.1505 19.84 15.6C19.5226 15.5614 19.2293 15.4548 18.96 15.28C18.8533 15.3867 18.7467 15.4934 18.64 15.6C18.4933 15.4997 18.3333 15.4463 18.16 15.44C17.4133 15.44 16.6667 15.44 15.92 15.44C15.92 15.2267 15.92 15.0134 15.92 14.8C16.5342 15.2222 17.1742 15.3288 17.84 15.12C18.9941 14.8996 19.7141 14.2063 20 13.04C20.627 13.9961 20.8138 15.0094 20.56 16.08Z"
            fill="#947A54" />
        <path fill-rule="evenodd" clip-rule="evenodd"
            d="M25.52 10.3198C26.3774 11.558 26.8574 12.9446 26.96 14.4798C26.96 18.4265 26.96 22.3731 26.96 26.3198C24.88 26.3198 22.8 26.3198 20.72 26.3198C20.7693 25.932 20.7158 25.5587 20.56 25.1998C19.7867 25.6389 18.9867 25.9589 18.16 26.1598C18.0533 26.1598 17.9467 26.1598 17.84 26.1598C18.7171 25.7293 19.5971 25.2493 20.48 24.7198C21.2611 24.8009 21.3946 25.2009 20.88 25.9198C20.9333 25.9731 20.9867 26.0265 21.04 26.0798C22.48 26.1865 23.92 26.1865 25.36 26.0798C25.444 25.9691 25.5507 25.8891 25.68 25.8398C26.0323 26.0446 26.3789 26.0446 26.72 25.8398C26.8267 22.2665 26.8267 18.6931 26.72 15.1198C26.505 13.4186 26.105 11.8186 25.52 10.3198Z"
            fill="#F9F6EC" />
        <path fill-rule="evenodd" clip-rule="evenodd"
            d="M27.12 14.48C27.2298 14.6957 27.3898 14.8824 27.6 15.04C27.3747 15.4067 27.4014 15.7534 27.68 16.08C27.7333 15.8133 27.7867 15.5467 27.84 15.28C29.1568 15.5922 30.5168 15.6989 31.92 15.6C31.92 17.04 31.92 18.48 31.92 19.92C30.64 19.92 29.36 19.92 28.08 19.92C28.1038 19.7517 28.0773 19.5917 28 19.44C27.9467 19.8133 27.8933 20.1867 27.84 20.56C27.7867 20.5067 27.7333 20.4533 27.68 20.4C27.6267 20.56 27.5733 20.72 27.52 20.88C27.4667 20.4533 27.4133 20.0267 27.36 19.6C27.333 21.8142 27.253 24.0009 27.12 26.16C27.12 22.2667 27.12 18.3733 27.12 14.48Z"
            fill="#9C7F52" />
        <path fill-rule="evenodd" clip-rule="evenodd"
            d="M11.28 15.4401C11.2561 15.6084 11.2827 15.7684 11.36 15.9201C13.6158 15.6564 15.8824 15.4964 18.16 15.4401C18.3333 15.4464 18.4933 15.4998 18.64 15.6001C18.7467 15.4934 18.8533 15.3868 18.96 15.2801C19.2293 15.4549 19.5226 15.5615 19.84 15.6001C20.3846 15.1505 20.6246 15.3105 20.56 16.0801C20.56 16.1868 20.56 16.2934 20.56 16.4001C19.9661 17.3308 19.3261 18.2641 18.64 19.2001C18.14 19.652 17.58 19.7854 16.96 19.6001C16.7427 20.0585 16.4494 20.1385 16.08 19.8401C16.2933 19.7334 16.5067 19.6268 16.72 19.5201C16.9333 19.4134 16.9333 19.3068 16.72 19.2001C17.2 19.0668 17.68 18.9334 18.16 18.8001C18.3571 18.535 18.4906 18.2683 18.56 18.0001C18.3864 18.127 18.1997 18.2337 18 18.3201C17.7443 18.1625 17.4776 18.136 17.2 18.2401C16.5568 18.602 15.8901 18.8955 15.2 19.1201C14.7465 19.0465 14.3999 18.8065 14.16 18.4001C13.68 18.2934 13.2 18.2934 12.72 18.4001C13.0473 18.7747 13.3673 19.148 13.68 19.5201C13.6 19.5468 13.52 19.5734 13.44 19.6001C13.1314 19.5832 12.8114 19.5299 12.48 19.4401C12.0935 18.9726 11.6402 18.5992 11.12 18.3201C10.9368 17.6936 10.8035 17.0536 10.72 16.4001C10.6667 16.4534 10.6133 16.5068 10.56 16.5601C10.3986 16.3161 10.3186 16.0494 10.32 15.7601C10.8633 15.7389 10.9167 15.5789 10.48 15.2801C10.5333 15.2268 10.5867 15.1734 10.64 15.1201C10.8196 15.3009 11.0329 15.4076 11.28 15.4401Z"
            fill="#9C7E50" />
        <path fill-rule="evenodd" clip-rule="evenodd"
            d="M3.76 16.7202C4.03531 17.9732 4.40864 19.1997 4.88 20.4002C4.76454 20.4671 4.68454 20.5737 4.64 20.7202C4.47819 20.5863 4.29153 20.533 4.08 20.5602C4.17707 19.8557 3.9104 19.6425 3.28 19.9202C3.13829 20.0522 3.08496 20.2122 3.12 20.4002C2.90667 20.4002 2.69333 20.4002 2.48 20.4002C2.48 20.2402 2.48 20.0802 2.48 19.9202C1.62667 19.9202 0.773331 19.9202 -0.0800018 19.9202C-0.0800018 17.7335 -0.0800018 15.5469 -0.0800018 13.3602C0.727032 13.4126 1.52703 13.3593 2.32 13.2002C2.38697 13.0127 2.49365 12.8527 2.64 12.7202C2.79449 13.0236 2.84782 13.3436 2.8 13.6802C3.06667 13.6802 3.33333 13.6802 3.6 13.6802C3.39398 14.7255 3.44731 15.7388 3.76 16.7202Z"
            fill="#9B7D51" />
        <path fill-rule="evenodd" clip-rule="evenodd"
            d="M20.56 16.3999C19.4686 19.9066 17.1219 21.2132 13.52 20.3199C12.4541 19.9503 11.6541 19.2837 11.12 18.3199C11.6402 18.5989 12.0935 18.9724 12.48 19.4399C12.8114 19.5297 13.1314 19.5829 13.44 19.5999C13.52 19.5732 13.6 19.5466 13.68 19.5199C13.3673 19.1477 13.0473 18.7745 12.72 18.3999C13.2 18.2932 13.68 18.2932 14.16 18.3999C14.3999 18.8063 14.7465 19.0463 15.2 19.1199C15.8901 18.8953 16.5568 18.6018 17.2 18.2399C17.4776 18.1357 17.7443 18.1623 18 18.3199C18.1997 18.2335 18.3864 18.1268 18.56 17.9999C18.4906 18.2681 18.3571 18.5348 18.16 18.7999C17.68 18.9332 17.2 19.0666 16.72 19.1999C16.9333 19.3066 16.9333 19.4132 16.72 19.5199C16.5067 19.6266 16.2933 19.7332 16.08 19.8399C16.4494 20.1383 16.7427 20.0583 16.96 19.5999C17.58 19.7852 18.14 19.6517 18.64 19.1999C19.3261 18.2639 19.9661 17.3306 20.56 16.3999Z"
            fill="#A0845A" />
        <path fill-rule="evenodd" clip-rule="evenodd"
            d="M4.88 20.4001C4.98667 20.5068 5.09333 20.6134 5.2 20.7201C5.52181 21.2578 5.84181 21.7911 6.16 22.3201C5.91291 22.2876 5.69957 22.1809 5.52 22.0001C5.37894 22.2017 5.21894 22.3882 5.04 22.5601C5.54806 22.8124 5.60141 23.1057 5.2 23.4401C5.07411 23.3214 4.96744 23.1881 4.88 23.0401C3.22752 22.9601 1.57419 22.9335 -0.0800018 22.9601C-0.0800018 21.9468 -0.0800018 20.9334 -0.0800018 19.9201C0.773331 19.9201 1.62667 19.9201 2.48 19.9201C2.48 20.0801 2.48 20.2401 2.48 20.4001C2.69333 20.4001 2.90667 20.4001 3.12 20.4001C3.08496 20.2121 3.13829 20.0521 3.28 19.9201C3.9104 19.6423 4.17707 19.8556 4.08 20.5601C4.29153 20.5329 4.47819 20.5862 4.64 20.7201C4.68454 20.5735 4.76454 20.467 4.88 20.4001Z"
            fill="#A58A59" />
        <path fill-rule="evenodd" clip-rule="evenodd"
            d="M31.92 19.9199C31.92 20.9332 31.92 21.9467 31.92 22.9599C31.6 22.9599 31.28 22.9599 30.96 22.9599C31.0019 23.1964 30.9486 23.4097 30.8 23.5999C30.48 23.5999 30.16 23.5999 29.84 23.5999C28.9555 23.9271 28.5022 24.5671 28.48 25.5199C28.3637 25.1275 28.2037 24.7542 28 24.3999C27.8594 25.1468 27.6194 25.7868 27.28 26.3199C27.1829 26.3001 27.1296 26.2468 27.12 26.1599C27.253 24.0009 27.333 21.8142 27.36 19.5999C27.4133 20.0267 27.4667 20.4532 27.52 20.8799C27.5733 20.7199 27.6267 20.5599 27.68 20.3999C27.7333 20.4532 27.7867 20.5067 27.84 20.5599C27.8933 20.1867 27.9467 19.8132 28 19.4399C28.0773 19.5916 28.1038 19.7516 28.08 19.9199C29.36 19.9199 30.64 19.9199 31.92 19.9199Z"
            fill="#AA8D5B" />
        <path fill-rule="evenodd" clip-rule="evenodd"
            d="M6.16 22.32C6.1663 22.4933 6.21965 22.6533 6.32 22.8C6.67477 23.2152 7.04809 23.6152 7.44 24C7.12825 24.1573 6.83493 24.344 6.56 24.56C6.24499 24.1402 5.95165 24.1402 5.68 24.56C5.44243 24.3304 5.2291 24.3571 5.04 24.64C3.33416 24.72 1.6275 24.7467 -0.0800018 24.72C-0.0800018 24.1333 -0.0800018 23.5467 -0.0800018 22.96C1.57419 22.9334 3.22752 22.96 4.88 23.04C4.96744 23.188 5.07411 23.3213 5.2 23.44C5.60141 23.1056 5.54806 22.8123 5.04 22.56C5.21894 22.3882 5.37894 22.2016 5.52 22C5.69957 22.1808 5.91291 22.2875 6.16 22.32Z"
            fill="#AE8F5C" />
        <path fill-rule="evenodd" clip-rule="evenodd"
            d="M5.68 24.56C5.9932 24.8701 6.44653 25.1367 7.04 25.36C7.28195 25.2389 7.49528 25.0789 7.68 24.88C7.95731 25.2187 8.30398 25.4587 8.72 25.6C7.83571 25.5632 6.95571 25.5899 6.08 25.68C5.60561 25.6899 5.47229 25.5032 5.68 25.12C5.41854 25.041 5.15187 25.0144 4.88 25.04C4.8528 25.2515 4.90614 25.4383 5.04 25.6C4.50227 25.6539 3.96893 25.7339 3.44 25.84C3.18331 25.7698 2.94331 25.6631 2.72 25.52C1.79441 25.6695 0.861083 25.7229 -0.0800018 25.68C-0.0800018 25.36 -0.0800018 25.04 -0.0800018 24.72C1.6275 24.7467 3.33416 24.72 5.04 24.64C5.2291 24.3571 5.44243 24.3304 5.68 24.56Z"
            fill="#AF955D" />
        <path fill-rule="evenodd" clip-rule="evenodd"
            d="M26.96 14.48C27.0133 14.48 27.0667 14.48 27.12 14.48C27.12 18.3733 27.12 22.2667 27.12 26.16C27.1296 26.2469 27.1829 26.3001 27.28 26.32C27.6194 25.7869 27.8594 25.1469 28 24.4C28.2037 24.7542 28.3637 25.1275 28.48 25.52C28.5022 24.5672 28.9555 23.9272 29.84 23.6C30.16 23.6 30.48 23.6 30.8 23.6C30.9486 23.4097 31.0019 23.1965 30.96 22.96C31.28 22.96 31.6 22.96 31.92 22.96C31.92 24.5067 31.92 26.0533 31.92 27.6C31.713 27.7264 31.5262 27.8864 31.36 28.08C30.7912 27.8177 30.2046 27.6045 29.6 27.44C29.5733 27.4933 29.5467 27.5467 29.52 27.6C29.7453 27.7189 29.9586 27.8523 30.16 28C29.4114 28.1197 28.7446 27.9331 28.16 27.44C27.6928 27.5053 27.3194 27.7185 27.04 28.08C26.853 27.9985 26.7197 27.8653 26.64 27.68C25.4146 27.6 24.1878 27.5734 22.96 27.6C22.995 27.788 22.9418 27.948 22.8 28.08C22.7194 27.6253 22.4526 27.412 22 27.44C22 27.6533 22 27.8667 22 28.08C21.7867 28.08 21.5733 28.08 21.36 28.08C21.36 27.92 21.36 27.76 21.36 27.6C21.0933 27.6 20.8267 27.6 20.56 27.6C20.5838 27.7683 20.5573 27.9283 20.48 28.08C20.4291 27.8302 20.2958 27.6435 20.08 27.52C19.6642 27.3969 19.2642 27.4237 18.88 27.6C18.4078 27.1688 17.9811 27.2221 17.6 27.76C17.44 27.7067 17.28 27.6533 17.12 27.6C16.2195 28.0014 15.2861 28.108 14.32 27.92C14.6277 27.7907 14.9477 27.7107 15.28 27.68C15.0238 27.6363 14.7838 27.5563 14.56 27.44C13.32 27.5201 12.12 27.5201 10.96 27.44C10.7962 27.2235 10.5829 27.1168 10.32 27.12C10.32 27.28 10.32 27.44 10.32 27.6C6.85333 27.6 3.38667 27.6 -0.0800018 27.6C-0.0800018 26.96 -0.0800018 26.32 -0.0800018 25.68C0.861083 25.7229 1.79441 25.6694 2.72 25.52C2.94331 25.663 3.18331 25.7697 3.44 25.84C3.96893 25.7339 4.50227 25.6539 5.04 25.6C4.90614 25.4382 4.8528 25.2515 4.88 25.04C5.15187 25.0144 5.41854 25.0409 5.68 25.12C5.47229 25.5032 5.60561 25.6899 6.08 25.68C6.95571 25.5899 7.83571 25.5632 8.72 25.6C8.30398 25.4587 7.95731 25.2187 7.68 24.88C7.49528 25.0789 7.28195 25.2389 7.04 25.36C6.44653 25.1366 5.9932 24.8701 5.68 24.56C5.95165 24.1401 6.24499 24.1401 6.56 24.56C6.83493 24.344 7.12825 24.1573 7.44 24C7.04809 23.6152 6.67477 23.2152 6.32 22.8C6.21965 22.6533 6.1663 22.4933 6.16 22.32C7.68899 23.8566 9.44899 25.0299 11.44 25.84C12.4902 26.4422 13.6369 26.7089 14.88 26.64C15.8187 26.6214 16.752 26.5414 17.68 26.4C17.769 26.3387 17.8222 26.2587 17.84 26.16C17.9467 26.16 18.0533 26.16 18.16 26.16C18.9322 26.2134 19.6522 26.0534 20.32 25.68C20.352 25.9712 20.4854 26.1845 20.72 26.32C22.8 26.32 24.88 26.32 26.96 26.32C26.96 22.3733 26.96 18.4267 26.96 14.48Z"
            fill="#B39665" />
        <path fill-rule="evenodd" clip-rule="evenodd"
            d="M20.72 26.3202C20.4854 26.1847 20.352 25.9714 20.32 25.6802C19.6522 26.0536 18.9322 26.2136 18.16 26.1602C18.9867 25.9592 19.7867 25.6392 20.56 25.2002C20.7158 25.5591 20.7693 25.9324 20.72 26.3202Z"
            fill="#AF9B77" />
        <path fill-rule="evenodd" clip-rule="evenodd"
            d="M29.52 24.08C30.7357 24.0534 31.189 24.6401 30.88 25.84C30.0584 26.5531 29.3651 26.4464 28.8 25.52C28.7003 24.8659 28.9403 24.3859 29.52 24.08Z"
            fill="#F2EBD2" />
        <path fill-rule="evenodd" clip-rule="evenodd"
            d="M29.52 24.4C30.3736 24.3208 30.7736 24.6941 30.72 25.52C30.6538 25.5932 30.5738 25.6466 30.48 25.68C30.3254 25.3767 30.2722 25.0567 30.32 24.72C30.0533 24.72 29.7867 24.72 29.52 24.72C29.4707 25.1079 29.5242 25.4812 29.68 25.84C29.7907 25.756 29.8707 25.6493 29.92 25.52C30 25.7068 30.1333 25.84 30.32 25.92C29.5891 26.184 29.1626 25.944 29.04 25.2C29.1347 24.8924 29.2947 24.6258 29.52 24.4Z"
            fill="#B0A485" />
        <path fill-rule="evenodd" clip-rule="evenodd"
            d="M11.44 25.8398C13.5491 26.3397 15.6824 26.4464 17.84 26.1598C17.8222 26.2586 17.769 26.3386 17.68 26.3998C16.752 26.5413 15.8187 26.6213 14.88 26.6398C13.6369 26.7088 12.4902 26.4421 11.44 25.8398Z"
            fill="#B19D75" />
        <path fill-rule="evenodd" clip-rule="evenodd"
            d="M31.92 27.6002C31.92 28.4002 31.92 29.2002 31.92 30.0002C21.2533 30.0002 10.5867 30.0002 -0.0800018 30.0002C-0.0800018 29.2002 -0.0800018 28.4002 -0.0800018 27.6002C3.38667 27.6002 6.85333 27.6002 10.32 27.6002C10.32 27.4402 10.32 27.2802 10.32 27.1202C10.5829 27.117 10.7962 27.2237 10.96 27.4402C12.12 27.5203 13.32 27.5203 14.56 27.4402C14.7838 27.5565 15.0238 27.6365 15.28 27.6802C14.9477 27.7109 14.6277 27.7909 14.32 27.9202C15.2861 28.1082 16.2195 28.0016 17.12 27.6002C17.28 27.6535 17.44 27.7069 17.6 27.7602C17.9811 27.2223 18.4078 27.169 18.88 27.6002C19.2642 27.4239 19.6642 27.3971 20.08 27.5202C20.2958 27.6437 20.4291 27.8304 20.48 28.0802C20.5573 27.9285 20.5838 27.7685 20.56 27.6002C20.8267 27.6002 21.0933 27.6002 21.36 27.6002C21.36 27.7602 21.36 27.9202 21.36 28.0802C21.5733 28.0802 21.7867 28.0802 22 28.0802C22 27.8669 22 27.6535 22 27.4402C22.4526 27.4122 22.7194 27.6255 22.8 28.0802C22.9418 27.9482 22.995 27.7882 22.96 27.6002C24.1878 27.5736 25.4146 27.6002 26.64 27.6802C26.7197 27.8655 26.853 27.9987 27.04 28.0802C27.3194 27.7187 27.6928 27.5055 28.16 27.4402C28.7446 27.9333 29.4114 28.1199 30.16 28.0002C29.9586 27.8525 29.7453 27.7191 29.52 27.6002C29.5467 27.5469 29.5733 27.4935 29.6 27.4402C30.2046 27.6047 30.7912 27.8179 31.36 28.0802C31.5262 27.8866 31.713 27.7266 31.92 27.6002Z"
            fill="#B49B63" />
        <path fill-rule="evenodd" clip-rule="evenodd"
            d="M-0.0800018 30C10.5867 30 21.2533 30 31.92 30C31.92 30.4267 31.92 30.8533 31.92 31.28C27.2267 31.28 22.5333 31.28 17.84 31.28C17.84 31.4933 17.84 31.7067 17.84 31.92C16.1333 31.92 14.4267 31.92 12.72 31.92C12.72 31.7067 12.72 31.4933 12.72 31.28C11.8667 31.28 11.0133 31.28 10.16 31.28C10.16 31.0667 10.16 30.8533 10.16 30.64C9.30667 30.64 8.45333 30.64 7.6 30.64C7.6 30.8533 7.6 31.0667 7.6 31.28C7.17333 31.28 6.74667 31.28 6.32 31.28C6.32 31.0667 6.32 30.8533 6.32 30.64C5.89333 30.64 5.46667 30.64 5.04 30.64C5.04 30.8533 5.04 31.0667 5.04 31.28C3.33333 31.28 1.62667 31.28 -0.0800018 31.28C-0.0800018 30.8533 -0.0800018 30.4267 -0.0800018 30Z"
            fill="#BB9B64" />
        <path fill-rule="evenodd" clip-rule="evenodd"
            d="M12.72 31.9201C8.45333 31.9201 4.18667 31.9201 -0.0800018 31.9201C-0.0800018 31.7069 -0.0800018 31.4934 -0.0800018 31.2801C1.62667 31.2801 3.33333 31.2801 5.04 31.2801C5.04 31.0669 5.04 30.8534 5.04 30.6401C5.46667 30.6401 5.89333 30.6401 6.32 30.6401C6.32 30.8534 6.32 31.0669 6.32 31.2801C6.74667 31.2801 7.17333 31.2801 7.6 31.2801C7.6 31.0669 7.6 30.8534 7.6 30.6401C8.45333 30.6401 9.30667 30.6401 10.16 30.6401C10.16 30.8534 10.16 31.0669 10.16 31.2801C11.0133 31.2801 11.8667 31.2801 12.72 31.2801C12.72 31.4934 12.72 31.7069 12.72 31.9201Z"
            fill="#BBA168" />
        <path fill-rule="evenodd" clip-rule="evenodd"
            d="M31.92 31.2798C31.92 31.4931 31.92 31.7065 31.92 31.9198C27.2267 31.9198 22.5333 31.9198 17.84 31.9198C17.84 31.7065 17.84 31.4931 17.84 31.2798C22.5333 31.2798 27.2267 31.2798 31.92 31.2798Z"
            fill="#BAA269" />
    </g>
    <defs>
        <clipPath id="clip0_5743_1177">
            <rect width="32" height="32" fill="white" />
        </clipPath>
    </defs>
</svg>