<?xml version="1.0" encoding="UTF-8"?>
<svg id="Layer_1" xmlns="http://www.w3.org/2000/svg" version="1.1" viewBox="0 0 512 512">
  <!-- Generator: Adobe Illustrator 29.8.3, SVG Export Plug-In . SVG Version: 2.1.1 Build 3)  -->
  <rect x="-40.08" y="-40.08" width="592.17" height="592.17" fill="#0723f9"/>
  <path d="M267.38,168.57c-39.79,0-75.76,17.44-100.29,44.69V68.92c0-7.69-4.53-14.95-11.78-17.53-12.31-4.39-24.19,5.06-24.19,16.89v237.08c0,7.81.76,15.43,2.05,22.88l34.76-10.59c-.51-4.03-.83-8.12-.83-12.28,0-55.59,44.69-101.37,100.29-101.37s103.29,48.88,100.13,106.97c-2.83,51.98-46.37,93.78-98.41,94.67-9.84.17-19.33-1.13-28.32-3.63l-9.72,31.83c-.22.71-.54,1.35-.81,2.03,18.49,5.24,38.53,6.76,59.33,3.44,57.84-9.23,103.81-55.66,112.06-113.64,12.08-84.85-53.03-157.09-134.26-157.09" fill="#fff"/>
  <path d="M244.13,336.83l-28.21,92.38c-4.11,13.45-22.79,14.4-28.25,1.46l-9.26-22.03c-4.94-11.71-14.28-20.97-25.95-25.91l-22-9.26c-12.98-5.5-12.03-24.17,1.42-28.29l92.42-28.17c12.19-3.72,23.58,7.68,19.82,19.82" fill="#ffb600"/>
</svg>