<svg width="32" height="32" viewBox="0 0 32 32" fill="none" xmlns="http://www.w3.org/2000/svg">
    <path fill-rule="evenodd" clip-rule="evenodd"
        d="M3.67468 21.0683C3.58448 20.342 3.51631 19.6132 3.4706 18.882C3.26651 18.882 3.06243 18.882 2.85835 18.882C2.81324 18.4518 2.60916 18.1207 2.24609 17.8882C0.80955 14.2342 0.061176 10.4247 0.00117539 6.45962C-0.0288249 5.19079 0.515466 4.26327 1.63384 3.67701C4.52387 3.31832 7.38104 2.78831 10.2054 2.08695C11.7009 1.64551 13.1295 1.04924 14.4911 0.298136C15.6477 -0.0993787 16.804 -0.0993787 17.9605 0.298136C19.3222 1.04924 20.7508 1.64551 22.2463 2.08695C25.0051 2.76664 27.7941 3.29665 30.6137 3.67701C31.328 3.84264 31.7703 4.27329 31.9403 4.96894C32.3919 12.688 30.2829 19.6446 25.6137 25.8385C23.3083 28.4654 20.5532 30.4862 17.3483 31.9006C16.5999 32.0331 15.8517 32.0331 15.1034 31.9006C9.91331 29.6616 6.10368 26.0507 3.67468 21.0683ZM20.0014 4.57142C20.7775 4.89438 21.5938 5.15939 22.4504 5.36645C24.5859 5.82884 26.7288 6.22636 28.879 6.559C28.9239 12.7877 27.0871 18.4191 23.3687 23.4534C21.3763 25.7818 18.9952 27.6368 16.2258 29.0186C10.7478 26.3328 7.00614 22.1589 5.00122 16.4969C3.78366 13.2235 3.20549 9.87771 3.26651 6.45962C4.7404 6.32619 6.16899 6.09432 7.55227 5.76397C9.42678 5.59906 11.1954 5.1353 12.8584 4.37266C12.9264 4.37266 12.9946 4.37266 13.0625 4.37266C13.9438 4.07608 14.7601 3.67856 15.5115 3.18012C15.7554 3.14484 15.9936 3.07857 16.2258 2.98136C17.453 3.59588 18.7116 4.12589 20.0014 4.57142Z"
        fill="#45B8AC" />
    <path fill-rule="evenodd" clip-rule="evenodd"
        d="M15.5115 3.1802C14.7601 3.67865 13.9437 4.07616 13.0625 4.37275C13.4256 4.14026 13.6296 3.80899 13.6748 3.37896C14.2143 3.44652 14.6905 3.31403 15.1033 2.98145C15.2427 3.05353 15.3788 3.1198 15.5115 3.1802Z"
        fill="#45B8AC" />
    <path fill-rule="evenodd" clip-rule="evenodd"
        d="M20.0015 4.57129C20.5558 4.60677 21.1 4.70615 21.6341 4.86943C22.0056 4.90926 22.2776 5.07488 22.4505 5.36632C21.5939 5.15925 20.7776 4.89425 20.0015 4.57129Z"
        fill="#45B8AC" />
    <path fill-rule="evenodd" clip-rule="evenodd"
        d="M12.8584 4.3727C11.1953 5.13533 9.42675 5.59909 7.55225 5.764C7.81776 5.53741 8.05592 5.27241 8.26654 4.96897C8.73532 4.97674 9.21145 5.04298 9.69512 5.16772C10.0461 4.5483 10.5564 4.41579 11.2258 4.77021C11.6578 4.16062 12.2021 4.02811 12.8584 4.3727Z"
        fill="#45B8AC" />
    <path fill-rule="evenodd" clip-rule="evenodd"
        d="M14.491 7.75148C17.8755 7.31395 20.5286 8.44025 22.4503 11.1304C21.6284 11.7651 20.778 12.3614 19.8992 12.9192C18.38 10.7479 16.3731 10.1848 13.8788 11.2297C11.1602 13.6931 11.1602 16.1444 13.8788 18.5838C16.0135 19.599 17.8841 19.2347 19.4911 17.4906C19.8464 16.9322 20.0845 16.3359 20.2053 15.7018C21.2937 15.7018 22.3823 15.7018 23.4707 15.7018C22.7023 19.7292 20.2194 21.9155 16.0216 22.2608C10.2767 21.3654 7.9636 18.1191 9.08279 12.5217C10.0918 10.0471 11.8945 8.457 14.491 7.75148Z"
        fill="#4AC0B4" />
    <path fill-rule="evenodd" clip-rule="evenodd"
        d="M2.24609 17.8882C2.60916 18.1207 2.81324 18.4519 2.85834 18.882C3.06243 18.882 3.26651 18.882 3.4706 18.882C3.51631 19.6132 3.58447 20.342 3.67468 21.0683C3.04284 20.087 2.56671 19.0271 2.24609 17.8882Z"
        fill="#45B8AC" />
</svg>