<svg width="32" height="32" viewBox="0 0 32 32" fill="none" xmlns="http://www.w3.org/2000/svg">
    <g clip-path="url(#clip0_5706_68)">
        <path fill-rule="evenodd" clip-rule="evenodd"
            d="M4.47266 0C10.1501 0 15.8275 0 21.5049 0C21.5049 3.4982 21.5049 6.99642 21.5049 10.4946C23.5121 10.4946 25.5192 10.4946 27.5264 10.4946C27.5264 15.4265 27.5264 20.3584 27.5264 25.2903C19.8418 25.2903 12.1572 25.2903 4.47266 25.2903C4.47266 16.8602 4.47266 8.43011 4.47266 0ZM6.53717 2.06452C10.7809 2.06452 15.0246 2.06452 19.2684 2.06452C19.2684 4.87455 19.2684 7.68459 19.2684 10.4946C15.0246 10.4946 10.7809 10.4946 6.53717 10.4946C6.53717 7.68459 6.53717 4.87455 6.53717 2.06452ZM6.53717 12.7312C12.7881 12.7312 19.039 12.7312 25.2899 12.7312C25.2899 16.172 25.2899 19.6129 25.2899 23.0538C19.039 23.0538 12.7881 23.0538 6.53717 23.0538C6.53717 19.6129 6.53717 16.172 6.53717 12.7312Z"
            fill="#191E83" />
        <path fill-rule="evenodd" clip-rule="evenodd"
            d="M8.08625 32.0001C7.51278 32.0001 6.93929 32.0001 6.36582 32.0001C5.37363 31.1039 5.25894 30.1004 6.02174 28.9893C7.16761 28.2958 8.11385 28.4966 8.86045 29.5915C9.1511 30.597 8.89303 31.4 8.08625 32.0001Z"
            fill="#009BE7" />
        <path fill-rule="evenodd" clip-rule="evenodd"
            d="M25.4627 31.9999C24.9465 31.9999 24.4304 31.9999 23.9143 31.9999C22.6381 31.0082 22.5808 29.9474 23.7422 28.8171C24.935 28.281 25.8238 28.5964 26.4089 29.7633C26.6083 30.7457 26.2929 31.4913 25.4627 31.9999Z"
            fill="#009BE7" />
    </g>
    <defs>
        <clipPath id="clip0_5706_68">
            <rect width="32" height="32" fill="white" />
        </clipPath>
    </defs>
</svg>