<svg width="32" height="32" viewBox="0 0 32 32" fill="none" xmlns="http://www.w3.org/2000/svg">
<path fill-rule="evenodd" clip-rule="evenodd" d="M13.0168 10.0342C15.0056 10.0342 16.9942 10.0342 18.9829 10.0342C18.9829 10.0794 18.9829 10.1246 18.9829 10.1698C20.817 10.4968 22.67 10.8132 24.5423 11.1189C24.5573 11.2026 24.6025 11.2704 24.6779 11.3223C24.4227 11.3492 24.1968 11.417 23.9999 11.5257C23.6437 11.4455 23.2821 11.4003 22.9152 11.3901C22.0884 11.1572 21.2297 10.999 20.3389 10.9155C17.7652 10.7219 15.1889 10.6767 12.6101 10.7799C11.2716 10.9279 9.96085 11.1313 8.67786 11.3901C7.60924 11.5585 6.5697 11.8297 5.55922 12.2037C5.40891 12.0966 5.22811 12.0288 5.01685 12.0003C5.18464 11.9688 5.32024 11.901 5.42363 11.7969C5.97397 11.5304 6.56154 11.327 7.18634 11.1867C8.6503 10.8851 10.0966 10.5913 11.5253 10.3054C11.5253 10.215 11.5705 10.1698 11.6609 10.1698C11.774 10.339 11.9548 10.4294 12.2033 10.441C12.5263 10.4598 12.7975 10.3694 13.0168 10.1698C13.0168 10.1246 13.0168 10.0794 13.0168 10.0342Z" fill="#FAE599"/>
<path fill-rule="evenodd" clip-rule="evenodd" d="M22.9153 11.3896C18.1695 11.3896 13.4237 11.3896 8.67798 11.3896C9.96096 11.1308 11.2717 10.9274 12.6102 10.7794C15.189 10.6762 17.7653 10.7214 20.339 10.915C21.2298 10.9986 22.0886 11.1567 22.9153 11.3896Z" fill="#E29BB8"/>
<path fill-rule="evenodd" clip-rule="evenodd" d="M8.6779 11.3896C13.4237 11.3896 18.1694 11.3896 22.9152 11.3896C23.2821 11.3998 23.6437 11.445 23.9999 11.5252C24.8897 11.7357 25.7485 12.0069 26.5762 12.3388C25.4665 12.2946 24.3818 12.3398 23.322 12.4744C22.649 12.3489 21.9711 12.2585 21.2881 12.2032C19.4921 11.8775 17.6616 11.7419 15.7965 11.7964C13.9759 11.7399 12.1906 11.8755 10.4406 12.2032C10.0638 12.1732 9.70224 12.2184 9.35587 12.3388C8.95883 12.3476 8.59725 12.438 8.27112 12.61C7.99994 12.6552 7.72875 12.7004 7.45757 12.7456C6.53371 12.6112 5.58456 12.566 4.61011 12.61C4.9015 12.4424 5.21788 12.3068 5.55926 12.2032C6.56974 11.8292 7.60928 11.558 8.6779 11.3896Z" fill="#DC80A8"/>
<path fill-rule="evenodd" clip-rule="evenodd" d="M24.5424 11.1182C25.7679 11.3987 26.9429 11.8281 28.0678 12.4063C27.8565 12.4348 27.6758 12.5026 27.5254 12.6097C27.2209 12.4802 26.9045 12.3898 26.5763 12.3385C25.7486 12.0066 24.8898 11.7354 24 11.5249C24.1969 11.4162 24.4228 11.3484 24.678 11.3216C24.6026 11.2697 24.5574 11.2019 24.5424 11.1182Z" fill="#F9DC7E"/>
<path fill-rule="evenodd" clip-rule="evenodd" d="M21.2881 12.2034C17.6723 12.2034 14.0565 12.2034 10.4407 12.2034C12.1907 11.8757 13.976 11.7401 15.7966 11.7967C17.6617 11.7421 19.4922 11.8777 21.2881 12.2034Z" fill="#F8DB7B"/>
<path fill-rule="evenodd" clip-rule="evenodd" d="M10.4407 12.2033C14.0566 12.2033 17.6723 12.2033 21.2882 12.2033C21.9711 12.2586 22.6491 12.349 23.3221 12.4745C23.4971 12.4423 23.6327 12.4875 23.7288 12.6101C22.5077 12.5875 21.2873 12.6101 20.0678 12.6779C20.6073 12.8797 21.1497 13.0379 21.6949 13.1525C21.3919 13.1125 21.1207 13.1577 20.8814 13.2881C20.7252 13.1355 20.5896 13.1355 20.4746 13.2881C19.8539 12.8736 19.1759 12.7832 18.4407 13.0169C18.4899 13.1096 18.5351 13.1999 18.5763 13.2881C18.9001 13.7 19.3069 14.0164 19.7966 14.2372C20.4288 14.3593 21.0164 14.5853 21.5593 14.9152C21.9654 14.7493 22.3722 14.7493 22.7797 14.9152C22.8758 15.0378 23.0114 15.083 23.1865 15.0508C23.1797 15.3342 23.3153 15.515 23.5932 15.5932C23.8387 15.3177 24.1099 15.0918 24.4068 14.9152C24.2556 15.3561 24.0071 15.7177 23.661 15.9999C23.2743 15.6163 22.845 15.2774 22.3729 14.983C22.0644 14.9281 21.7932 14.9959 21.5593 15.1864C21.3138 15.3656 21.0426 15.4334 20.7458 15.3898C20.6469 15.1107 20.5113 14.8621 20.339 14.644C20.2939 14.644 20.2486 14.644 20.2034 14.644C18.5013 14.7649 16.8289 15.0361 15.1865 15.4576C15.8063 15.0842 16.4842 14.8131 17.2204 14.644C17.9043 14.6884 18.5823 14.6432 19.2543 14.5084C18.8487 14.0797 18.4644 13.6278 18.1017 13.1525C17.9973 13.3014 17.8844 13.3014 17.7627 13.1525C17.7013 13.0225 17.611 12.9095 17.4916 12.8135C17.1328 12.746 16.7711 12.7234 16.4068 12.7457C16.4068 12.8813 16.4068 13.0169 16.4068 13.1525C16.2712 13.1525 16.1356 13.1525 16 13.1525C16 13.0621 15.9549 13.0169 15.8644 13.0169C15.6545 12.8414 15.3833 12.751 15.0509 12.7457C14.7184 12.751 14.4472 12.8414 14.2373 13.0169C14.1469 13.0621 14.0566 13.1073 13.9661 13.1525C13.921 13.1525 13.8757 13.1525 13.8305 13.1525C13.8305 13.1073 13.8305 13.0621 13.8305 13.0169C14.0655 12.9481 14.1107 12.835 13.9661 12.6779C13.6949 12.6327 13.4238 12.5875 13.1526 12.5423C11.8632 12.5192 10.5977 12.4514 9.35596 12.3389C9.70233 12.2185 10.0639 12.1733 10.4407 12.2033Z" fill="#F9DC6C"/>
<path fill-rule="evenodd" clip-rule="evenodd" d="M5.42362 11.7969C5.32023 11.901 5.18464 11.9688 5.01684 12.0003C5.22811 12.0287 5.40891 12.0965 5.55922 12.2037C5.21783 12.3072 4.90145 12.4428 4.61006 12.6104C4.1867 12.7543 3.77992 12.9351 3.38973 13.1528C3.24848 12.9777 3.0903 12.9777 2.91515 13.1528C2.84635 12.9499 2.91415 12.7918 3.11854 12.6782C3.83584 12.236 4.60419 11.9422 5.42362 11.7969Z" fill="#F9D762"/>
<path fill-rule="evenodd" clip-rule="evenodd" d="M4.61017 12.61C5.58462 12.566 6.53377 12.6112 7.45762 12.7456C6.77495 12.8674 6.14218 13.0934 5.55932 13.4236C5.00581 13.5424 4.50863 13.7684 4.06779 14.1016C3.97739 14.1467 3.88701 14.192 3.79661 14.2371C3.78611 14.0677 3.69572 13.9547 3.52542 13.8982C3.16664 13.8307 2.80505 13.8081 2.44067 13.8304C2.7161 13.5561 3.03248 13.3302 3.38983 13.1524C3.78002 12.9347 4.1868 12.7539 4.61017 12.61Z" fill="#CE4E86"/>
<path fill-rule="evenodd" clip-rule="evenodd" d="M23.7289 12.61C25.116 12.8464 26.4268 13.2984 27.6611 13.966C26.7094 14.5846 25.6698 14.901 24.5424 14.9151C24.4973 14.9151 24.452 14.9151 24.4069 14.9151C24.1099 15.0917 23.8387 15.3177 23.5933 15.5931C23.3153 15.5149 23.1797 15.3341 23.1865 15.0507C23.0115 15.0829 22.8759 15.0377 22.7797 14.9151C22.7797 14.7795 22.7797 14.6439 22.7797 14.5083C22.1129 14.3103 21.4801 14.0391 20.8814 13.6948C20.6102 13.6948 20.4747 13.5592 20.4747 13.288C20.5896 13.1354 20.7252 13.1354 20.8814 13.288C21.2003 13.4325 21.5168 13.5907 21.8306 13.7626C23.5491 13.8161 23.5039 13.6127 21.695 13.1524C21.1498 13.0378 20.6074 12.8796 20.0679 12.6778C21.2874 12.61 22.5077 12.5875 23.7289 12.61Z" fill="#F9D041"/>
<path fill-rule="evenodd" clip-rule="evenodd" d="M23.322 12.4742C24.3818 12.3397 25.4666 12.2945 26.5763 12.3386C26.9045 12.3899 27.2209 12.4803 27.5254 12.6098C28.1171 12.8598 28.6595 13.1762 29.1525 13.559C28.7801 13.5165 28.4184 13.5617 28.0678 13.6946C28.3841 13.8752 28.5649 14.1464 28.6102 14.5081C28.2938 14.3273 27.9773 14.1465 27.661 13.9658C26.4267 13.2982 25.1159 12.8462 23.7288 12.6098C23.6327 12.4872 23.4971 12.4421 23.322 12.4742Z" fill="#CF5185"/>
<path fill-rule="evenodd" clip-rule="evenodd" d="M17.7627 13.1524C17.978 13.5058 17.865 13.6866 17.4237 13.6947C16.9941 13.6635 16.6551 13.4827 16.4067 13.1524C16.4067 13.0168 16.4067 12.8812 16.4067 12.7456C16.7711 12.7233 17.1327 12.7459 17.4915 12.8134C17.6109 12.9094 17.7012 13.0224 17.7627 13.1524Z" fill="#F3A769"/>
<path fill-rule="evenodd" clip-rule="evenodd" d="M8.27119 12.61C9.40204 12.5875 10.532 12.6101 11.661 12.6778C11.1479 12.733 10.6507 12.846 10.1695 13.0168C9.20705 13.526 8.19011 13.8876 7.11865 14.1015C6.58464 13.9157 6.06486 13.6897 5.55933 13.4236C6.14219 13.0934 6.77496 12.8674 7.45763 12.7456C7.72882 12.7004 8 12.6552 8.27119 12.61Z" fill="#F9D551"/>
<path fill-rule="evenodd" clip-rule="evenodd" d="M13.8305 13.0174C13.8305 13.0626 13.8305 13.1078 13.8305 13.153C13.5868 13.3198 13.3156 13.4102 13.0169 13.4242C13.0372 13.5669 13.0146 13.7025 12.9491 13.831C12.6945 13.906 12.4911 14.0415 12.339 14.2378C11.7104 14.1498 11.0776 14.082 10.4407 14.0344C11.1132 13.7433 11.746 13.3817 12.339 12.9497C12.8482 12.8472 13.3454 12.8698 13.8305 13.0174Z" fill="#F7BB53"/>
<path fill-rule="evenodd" clip-rule="evenodd" d="M15.8644 13.0173C15.5968 13.8026 15.0544 14.0964 14.2373 13.8986C14.2758 13.6334 14.2758 13.3396 14.2373 13.0173C14.4472 12.8418 14.7184 12.7514 15.0509 12.7461C15.3833 12.7514 15.6545 12.8418 15.8644 13.0173Z" fill="#F4AE5A"/>
<path fill-rule="evenodd" clip-rule="evenodd" d="M20.4746 13.2882C20.4746 13.5594 20.6102 13.695 20.8814 13.695C20.9683 13.8281 21.0586 13.9637 21.1525 14.1017C21.0847 14.1469 21.0169 14.1921 20.9491 14.2373C20.0949 14.0464 19.304 13.73 18.5763 13.2882C18.535 13.2001 18.4899 13.1097 18.4407 13.017C19.1759 12.7833 19.8538 12.8737 20.4746 13.2882Z" fill="#F3A85F"/>
<path fill-rule="evenodd" clip-rule="evenodd" d="M20.8813 13.2883C21.1207 13.158 21.3919 13.1128 21.6949 13.1527C23.5039 13.613 23.549 13.8164 21.8305 13.7629C21.5167 13.5911 21.2003 13.4329 20.8813 13.2883Z" fill="#F3B157"/>
<path fill-rule="evenodd" clip-rule="evenodd" d="M7.59329 14.6445C7.02487 14.9006 6.5729 14.7424 6.23736 14.1699C5.74018 14.0795 5.24302 14.0795 4.74584 14.1699C4.67804 14.2377 4.61024 14.3055 4.54245 14.3733C4.40335 15.481 4.47115 16.5658 4.74584 17.6275C4.65544 17.6275 4.56505 17.6275 4.47465 17.6275C4.17194 16.5253 4.12673 15.3954 4.33906 14.2377C5.02125 13.7611 5.74441 13.7159 6.50855 14.1021C6.76352 14.5008 7.1251 14.6815 7.59329 14.6445Z" fill="#F9DF78"/>
<path fill-rule="evenodd" clip-rule="evenodd" d="M9.35592 12.3389C10.5976 12.4514 11.8632 12.5192 13.1525 12.5423C13.4237 12.5875 13.6949 12.6327 13.9661 12.6779C14.1106 12.835 14.0655 12.948 13.8305 13.0168C13.3454 12.8692 12.8482 12.8466 12.339 12.949C11.746 13.3811 11.1132 13.7427 10.4407 14.0338C11.0776 14.0814 11.7104 14.1492 12.339 14.2372C13.035 14.39 13.5322 14.7968 13.8305 15.4575C13.7401 15.4575 13.6497 15.4575 13.5593 15.4575C13.4619 15.1337 13.2359 14.9303 12.8813 14.8473C12.3598 14.6283 11.8174 14.4927 11.2542 14.4406C10.024 14.4212 8.80364 14.489 7.5932 14.644C7.12501 14.681 6.76343 14.5003 6.50846 14.1016C5.74432 13.7154 5.02116 13.7606 4.33897 14.2372C4.12664 15.3949 4.17185 16.5248 4.47456 17.627C4.3051 17.6165 4.19211 17.5261 4.13558 17.3558C4.06782 16.272 4.04522 15.1873 4.06778 14.1016C4.50862 13.7684 5.0058 13.5424 5.55931 13.4236C6.06484 13.6898 6.58462 13.9158 7.11863 14.1016C8.19008 13.8876 9.20703 13.526 10.1695 13.0168C10.6507 12.8461 11.1479 12.7331 11.661 12.6779C10.532 12.6101 9.40202 12.5875 8.27117 12.6101C8.5973 12.4381 8.95887 12.3477 9.35592 12.3389Z" fill="#F9D25F"/>
<path fill-rule="evenodd" clip-rule="evenodd" d="M14.2372 13.0166C14.2757 13.3389 14.2757 13.6327 14.2372 13.898C15.0543 14.0957 15.5967 13.802 15.8644 13.0166C15.9548 13.0166 16 13.0618 16 13.1522C15.8378 13.5654 15.6344 13.9722 15.3898 14.3725C14.6428 15.1158 13.9422 15.0933 13.2881 14.3047C13.4992 13.9041 13.7252 13.5199 13.9661 13.1522C14.0565 13.107 14.1468 13.0618 14.2372 13.0166Z" fill="#F6B337"/>
<path fill-rule="evenodd" clip-rule="evenodd" d="M16.4067 13.1523C16.6551 13.4827 16.9941 13.6635 17.4236 13.6947C17.865 13.6866 17.9779 13.5058 17.7626 13.1523C17.8843 13.3012 17.9972 13.3012 18.1016 13.1523C18.4643 13.6276 18.8486 14.0796 19.2542 14.5083C18.5822 14.6431 17.9042 14.6883 17.2203 14.6439C17.0875 14.4208 16.9068 14.24 16.6779 14.1015C16.4818 13.8143 16.3914 13.4979 16.4067 13.1523Z" fill="#F4B04A"/>
<path fill-rule="evenodd" clip-rule="evenodd" d="M27.6611 13.9658C27.9775 14.1466 28.2939 14.3274 28.6103 14.5082C28.6103 14.5534 28.6103 14.5986 28.6103 14.6438C28.391 15.1915 28.2781 15.7791 28.2713 16.4065C28.2194 16.4819 28.1516 16.5271 28.0679 16.5421C28.0621 16.0855 28.1072 15.6335 28.2035 15.1862C28.2184 14.9321 28.1281 14.7287 27.9323 14.576C26.8199 14.7868 25.69 14.8998 24.5425 14.915C25.6698 14.9009 26.7094 14.5845 27.6611 13.9658Z" fill="#F9D762"/>
<path fill-rule="evenodd" clip-rule="evenodd" d="M18.5762 13.2881C19.3039 13.7299 20.0948 14.0463 20.9491 14.2372C21.0168 14.192 21.0846 14.1468 21.1524 14.1016C21.0585 13.9636 20.9682 13.828 20.8813 13.6949C21.4799 14.0392 22.1127 14.3104 22.7796 14.5084C22.7796 14.644 22.7796 14.7796 22.7796 14.9152C22.3721 14.7493 21.9653 14.7493 21.5592 14.9152C21.0163 14.5853 20.4286 14.3594 19.7965 14.2372C19.3067 14.0164 18.9 13.7 18.5762 13.2881Z" fill="#F6B850"/>
<path fill-rule="evenodd" clip-rule="evenodd" d="M18.9832 10.1699C23.0002 10.2362 26.7517 11.2531 30.2374 13.2208C30.9068 13.7766 31.4492 14.432 31.8645 15.1869C31.6623 15.5382 31.3459 15.6737 30.9154 15.5937C30.8937 15.3695 30.8034 15.1887 30.6442 15.0513C30.2825 14.4185 29.7855 13.9213 29.1526 13.5598C28.6596 13.177 28.1173 12.8606 27.5255 12.6106C27.6759 12.5035 27.8566 12.4357 28.0679 12.4072C26.943 11.829 25.768 11.3996 24.5425 11.1191C22.6702 10.8133 20.8172 10.497 18.9832 10.1699Z" fill="#F8C828"/>
<path fill-rule="evenodd" clip-rule="evenodd" d="M28.0678 16.5423C28.0045 16.9216 27.7786 17.1024 27.3899 17.0846C26.2493 17.3063 25.0967 17.4871 23.9323 17.627C22.7789 17.5462 21.6264 17.4559 20.4746 17.3558C20.0028 17.3669 19.5508 17.4573 19.1187 17.627C19.2056 17.4938 19.2959 17.3582 19.3899 17.2202C19.1563 16.9114 18.9755 16.5724 18.8475 16.2033C18.9519 15.9626 19.1102 15.7592 19.3221 15.5931C19.4125 15.4575 19.4125 15.3219 19.3221 15.1863C18.8702 15.0056 18.4181 15.0056 17.9662 15.1863C17.7541 15.8145 17.7314 16.4472 17.8984 17.0846C17.9252 16.6392 18.1512 16.4132 18.5763 16.4067C18.6391 16.7756 18.7294 17.1372 18.8475 17.4914C18.4208 17.4341 17.9914 17.3889 17.5594 17.3558C16.7047 17.5801 15.8234 17.6705 14.9153 17.627C15.0765 17.123 15.2799 16.6258 15.5255 16.1355C15.6159 15.9547 15.6159 15.7739 15.5255 15.5931C15.3074 15.9839 15.1267 16.3907 14.9831 16.8135C14.7548 16.5624 14.5062 16.3364 14.2373 16.1355C13.9625 16.2973 13.7591 16.5233 13.6272 16.8135C13.5596 16.3637 13.537 15.9118 13.5594 15.4575C13.6498 15.4575 13.7401 15.4575 13.8306 15.4575C14.2851 15.9826 14.737 15.9826 15.1865 15.4575C16.8289 15.0361 18.5013 14.7649 20.2034 14.644C19.799 15.3385 19.6181 16.1068 19.6611 16.9491C20.113 16.9491 20.5651 16.9491 21.017 16.9491C21.0063 16.7551 21.0514 16.5743 21.1526 16.4067C20.8331 16.299 20.5168 16.3442 20.2034 16.5423C20.1583 16.4067 20.113 16.2711 20.0678 16.1355C20.1804 15.6408 20.2707 15.1436 20.339 14.644C20.5114 14.8621 20.647 15.1107 20.7458 15.3897C21.0426 15.4334 21.3138 15.3656 21.5594 15.1863C21.7933 14.9958 22.0645 14.928 22.3729 14.983C22.8451 15.2773 23.2744 15.6163 23.6611 15.9999C24.0071 15.7177 24.2556 15.3561 24.4068 14.9152C24.452 14.9152 24.4973 14.9152 24.5424 14.9152C25.6899 14.9 26.8198 14.787 27.9323 14.5762C28.1281 14.7288 28.2184 14.9322 28.2034 15.1863C28.1072 15.6337 28.062 16.0857 28.0678 16.5423Z" fill="#F9E3A1"/>
<path fill-rule="evenodd" clip-rule="evenodd" d="M27.5253 14.7793C27.6609 14.7793 27.7965 14.7793 27.9321 14.7793C27.9618 14.9386 27.9166 15.0742 27.7965 15.1861C27.3343 15.301 26.9275 15.5044 26.5762 15.7962C26.6213 15.864 26.6666 15.9318 26.7118 15.9996C26.9378 15.9092 27.1637 15.8188 27.3897 15.7284C27.5282 15.7965 27.5508 15.8869 27.4575 15.9996C26.1075 16.689 26.1302 16.7794 27.5253 16.2708C27.7195 16.3024 27.7873 16.3928 27.7287 16.542C27.1823 16.8072 26.6172 17.0332 26.0338 17.22C25.9886 17.1522 25.9433 17.0844 25.8982 17.0166C26.0395 16.4447 26.1977 15.8797 26.3728 15.3217C26.7753 15.154 27.1596 14.9732 27.5253 14.7793Z" fill="#CF2D6B"/>
<path fill-rule="evenodd" clip-rule="evenodd" d="M2.4408 13.8305C2.80518 13.8083 3.16676 13.8309 3.52554 13.8983C3.69585 13.9549 3.78624 14.0679 3.79673 14.2373C3.38626 14.5574 3.02469 14.919 2.71198 15.3221C2.27461 15.2174 1.77744 15.2174 1.22046 15.3221C1.47425 14.706 1.88103 14.2089 2.4408 13.8305Z" fill="#C01C61"/>
<path fill-rule="evenodd" clip-rule="evenodd" d="M7.59315 14.6439C8.80359 14.489 10.0239 14.4212 11.2542 14.4405C11.8173 14.4927 12.3597 14.6283 12.8813 14.8473C13.2358 14.9303 13.4618 15.1337 13.5593 15.4575C13.4124 15.4628 13.2768 15.508 13.1525 15.5931C13.0178 16.2195 12.9726 16.8523 13.0169 17.4914C12.7697 17.1801 12.5212 16.8638 12.2711 16.5422C11.866 16.7465 11.4818 16.9725 11.1186 17.2202C11.3447 16.9519 11.4351 16.6355 11.3898 16.2711C11.8443 16.2326 12.2511 16.0744 12.6101 15.7965C12.8346 15.6006 12.9249 15.3521 12.8813 15.0507C12.161 14.8547 11.4378 14.8095 10.7118 14.9151C10.8086 15.683 10.899 16.4514 10.983 17.2202C9.90423 17.2577 8.81948 17.2577 7.72874 17.2202C6.75185 17.4544 5.75749 17.59 4.74569 17.627C4.47101 16.5653 4.40321 15.4805 4.5423 14.3728C4.6101 14.305 4.67789 14.2372 4.74569 14.1694C5.24287 14.079 5.74004 14.079 6.23722 14.1694C6.57276 14.7419 7.02473 14.9001 7.59315 14.6439Z" fill="#F9E4A1"/>
<path fill-rule="evenodd" clip-rule="evenodd" d="M10.4406 14.6445C10.6157 14.7858 10.6157 14.944 10.4406 15.1191C10.0225 15.2736 9.61574 15.4544 9.22025 15.6615C9.08234 15.8038 9.05974 15.962 9.15245 16.1361C9.39019 15.9832 9.63877 15.8476 9.89822 15.7293C10.0624 15.8342 10.0624 15.9472 9.89822 16.0683C9.62703 16.2039 9.35584 16.3394 9.08466 16.475C9.53635 16.4756 9.96571 16.3626 10.3728 16.1361C10.4395 16.2783 10.4169 16.4139 10.305 16.5428C9.76394 16.7685 9.22157 16.9945 8.67788 17.2208C8.55712 16.5774 8.62491 15.9446 8.88127 15.3225C9.42924 15.1333 9.94901 14.9074 10.4406 14.6445Z" fill="#CF2D6B"/>
<path fill-rule="evenodd" clip-rule="evenodd" d="M7.4577 16.4064C7.71543 16.4155 7.96402 16.3703 8.20346 16.2708C8.45107 16.34 8.47367 16.453 8.27126 16.6098C7.73414 16.8265 7.19177 17.0299 6.64414 17.22C6.59894 17.1522 6.55374 17.0844 6.50854 17.0166C6.6388 16.501 6.75179 15.9812 6.84753 15.4573C7.3572 15.101 7.92217 14.875 8.54244 14.7793C8.54244 14.9149 8.54244 15.0505 8.54244 15.1861C8.09047 15.3217 7.63848 15.4573 7.18651 15.5929C7.15682 15.7522 7.20201 15.8878 7.3221 15.9996C7.58139 15.7751 7.85257 15.7299 8.13566 15.864C7.93028 16.0786 7.70429 16.2594 7.4577 16.4064Z" fill="#CF306B"/>
<path fill-rule="evenodd" clip-rule="evenodd" d="M4.74585 14.3726C5.20007 14.3502 5.65205 14.3728 6.10178 14.4404C6.45827 14.8186 6.36788 15.0898 5.8306 15.254C6.70967 15.85 6.70967 16.4827 5.8306 17.1523C5.48978 17.3221 5.1282 17.3899 4.74585 17.3557C4.8095 16.3544 4.8095 15.36 4.74585 14.3726Z" fill="#D0316C"/>
<path fill-rule="evenodd" clip-rule="evenodd" d="M5.28824 14.7796C6.12522 14.7448 6.14782 14.9256 5.35604 15.322C5.2896 15.1466 5.26699 14.9658 5.28824 14.7796Z" fill="#F9E9A7"/>
<path fill-rule="evenodd" clip-rule="evenodd" d="M11.1187 17.22C11.0735 17.22 11.0283 17.22 10.9831 17.22C10.8991 16.4511 10.8087 15.6827 10.7119 14.9149C11.438 14.8092 12.1611 14.8544 12.8814 15.0505C12.9251 15.3518 12.8347 15.6004 12.6102 15.7962C12.2512 16.0741 11.8444 16.2323 11.3899 16.2708C11.4352 16.6353 11.3448 16.9517 11.1187 17.22Z" fill="#D0356D"/>
<path fill-rule="evenodd" clip-rule="evenodd" d="M20.2033 14.6445C20.2485 14.6445 20.2938 14.6445 20.3389 14.6445C20.2706 15.1442 20.1803 15.6413 20.0678 16.1361C20.1129 16.2716 20.1582 16.4072 20.2033 16.5428C20.5167 16.3447 20.833 16.2995 21.1525 16.4072C21.0513 16.5749 21.0062 16.7556 21.0169 16.9496C20.565 16.9496 20.1129 16.9496 19.661 16.9496C19.618 16.1074 19.7989 15.339 20.2033 14.6445Z" fill="#CF2F6C"/>
<path fill-rule="evenodd" clip-rule="evenodd" d="M29.1526 13.5594C29.7854 13.921 30.2825 14.4181 30.6441 15.0509C30.2595 15.3089 29.8074 15.3993 29.2882 15.3221C29.0931 15.0699 28.8672 14.8439 28.6102 14.6441C28.6102 14.5989 28.6102 14.5537 28.6102 14.5085C28.565 14.1468 28.3842 13.8756 28.0679 13.695C28.4185 13.5621 28.7801 13.5169 29.1526 13.5594Z" fill="#C01D64"/>
<path fill-rule="evenodd" clip-rule="evenodd" d="M11.5255 10.3047C10.0968 10.5906 8.65045 10.8844 7.18649 11.186C6.56169 11.3263 5.97413 11.5297 5.42378 11.7962C4.60435 11.9415 3.836 12.2353 3.1187 12.6776C2.9143 12.7911 2.84651 12.9493 2.91531 13.1521C3.09045 12.9771 3.24864 12.9771 3.38988 13.1521C3.03254 13.3299 2.71616 13.5559 2.44073 13.8301C1.88096 14.2084 1.47418 14.7056 1.22039 15.3216C1.10673 15.368 1.06153 15.4584 1.0848 15.5928C0.85881 15.5928 0.632823 15.5928 0.406833 15.5928C0.439011 15.4178 0.393812 15.2822 0.27124 15.186C0.533454 14.4473 0.985433 13.8371 1.62717 13.3555C4.66556 11.522 7.96499 10.5051 11.5255 10.3047Z" fill="#F6C519"/>
<path fill-rule="evenodd" clip-rule="evenodd" d="M13.8304 13.1523C13.8755 13.1523 13.9208 13.1523 13.966 13.1523C13.7252 13.5201 13.4991 13.9043 13.288 14.3049C13.9421 15.0934 14.6427 15.116 15.3897 14.3727C15.6343 13.9723 15.8377 13.5656 15.9999 13.1523C16.1355 13.1523 16.2711 13.1523 16.4067 13.1523C16.3913 13.4979 16.4818 13.8143 16.6779 14.1015C16.9067 14.24 17.0875 14.4208 17.2202 14.6439C16.4841 14.8129 15.8061 15.0841 15.1863 15.4574C14.7368 15.9825 14.2849 15.9825 13.8304 15.4574C13.5321 14.7967 13.0349 14.3899 12.3389 14.2371C12.491 14.0408 12.6944 13.9053 12.949 13.8303C13.0145 13.7018 13.0371 13.5662 13.0168 13.4235C13.3155 13.4095 13.5867 13.3191 13.8304 13.1523Z" fill="#FACA3D"/>
<path fill-rule="evenodd" clip-rule="evenodd" d="M11.5255 15.0504C11.8724 15.0355 12.1888 15.1258 12.4746 15.3216C12.1835 15.6149 11.8219 15.7505 11.3899 15.7284C11.4073 15.4957 11.4525 15.2697 11.5255 15.0504Z" fill="#F7D8A3"/>
<path fill-rule="evenodd" clip-rule="evenodd" d="M19.1187 17.627C18.9842 17.6503 18.8939 17.6051 18.8475 17.4915C18.7294 17.1372 18.6391 16.7757 18.5763 16.4067C18.1512 16.4132 17.9252 16.6392 17.8983 17.0847C17.7314 16.4473 17.7541 15.8145 17.9661 15.1864C18.4181 15.0056 18.8701 15.0056 19.3221 15.1864C19.4125 15.322 19.4125 15.4576 19.3221 15.5932C19.1101 15.7593 18.9519 15.9627 18.8475 16.2033C18.9755 16.5725 19.1562 16.9114 19.3899 17.2203C19.2959 17.3583 19.2056 17.4939 19.1187 17.627Z" fill="#CF2F6C"/>
<path fill-rule="evenodd" clip-rule="evenodd" d="M30.6441 15.0508C30.8033 15.1882 30.8936 15.369 30.9153 15.5932C30.9373 16.228 30.7791 16.8156 30.4408 17.3559C29.468 18.3728 28.3155 19.1186 26.9831 19.5932C22.3465 21.0377 17.6008 21.5801 12.7458 21.2203C10.1976 21.0242 7.71167 20.5271 5.28821 19.7287C3.78357 19.2171 2.49544 18.3809 1.4238 17.2203C1.15412 16.7114 1.04113 16.169 1.08482 15.5932C1.06156 15.4587 1.10675 15.3683 1.22041 15.322C1.77739 15.2173 2.27457 15.2173 2.71194 15.322C2.53387 15.8205 2.55646 16.3177 2.77974 16.8135C3.20755 17.3562 3.72733 17.763 4.33906 18.0338C6.19567 19.0186 8.18437 19.6288 10.3052 19.8643C15.0368 20.4502 19.7374 20.2695 24.4069 19.322C25.5232 18.9951 26.6079 18.5884 27.6611 18.1016C28.5742 17.664 29.1617 16.9634 29.4238 15.9999C29.3929 15.7684 29.3476 15.5424 29.2882 15.322C29.8074 15.3991 30.2595 15.3087 30.6441 15.0508Z" fill="#BC0A4F"/>
<path fill-rule="evenodd" clip-rule="evenodd" d="M4.06771 14.1016C4.04515 15.1872 4.06775 16.272 4.13551 17.3558C4.19204 17.5261 4.30503 17.6165 4.47449 17.627C4.4895 17.7107 4.5347 17.7785 4.61009 17.8304C5.42364 17.9208 6.2372 17.9208 7.05076 17.8304C8.53159 17.6552 10.0231 17.4745 11.5253 17.288C11.7258 17.0116 11.997 16.8986 12.3389 16.949C12.3186 17.0917 12.3412 17.2273 12.4067 17.3558C12.6058 17.5577 12.8092 17.7385 13.0169 17.8982C13.375 18.0926 13.6462 18.3864 13.8304 18.7795C13.8209 18.8832 13.7758 18.951 13.6948 18.9829C13.4464 18.8814 13.2204 18.7458 13.0169 18.5761C13.0346 18.4573 12.9894 18.3669 12.8813 18.305C11.7295 17.6339 10.5091 17.4757 9.22025 17.8304C9.81331 17.9396 10.3557 18.1656 10.8474 18.5083C10.7796 18.5309 10.7118 18.5535 10.644 18.5761C8.59018 17.9017 6.48849 17.7209 4.3389 18.0338C3.72717 17.7629 3.20739 17.3561 2.77958 16.8134C2.5563 16.3176 2.53371 15.8204 2.71178 15.3219C3.02449 14.9188 3.38606 14.5572 3.79653 14.2372C3.88693 14.192 3.97731 14.1468 4.06771 14.1016Z" fill="#F5C220"/>
<path fill-rule="evenodd" clip-rule="evenodd" d="M28.6101 14.6445C28.867 14.8443 29.0929 15.0703 29.288 15.3225C29.3474 15.543 29.3927 15.769 29.4236 16.0005C29.1615 16.964 28.574 17.6645 27.6609 18.1022C26.6077 18.5889 25.523 18.9957 24.4067 19.3225C19.7372 20.27 15.0366 20.4508 10.305 19.8649C8.18418 19.6293 6.19548 19.0192 4.33887 18.0344C6.48845 17.7215 8.59015 17.9023 10.644 18.5767C10.7117 18.5541 10.7795 18.5315 10.8473 18.5089C10.3557 18.1662 9.81328 17.9402 9.22022 17.831C10.5091 17.4763 11.7295 17.6345 12.8812 18.3055C12.9894 18.3675 13.0346 18.4579 13.0168 18.5767C12.4169 18.3609 11.8067 18.1801 11.1863 18.0344C11.0196 18.1395 10.9744 18.2751 11.0507 18.4411C11.8314 19.2772 12.7128 19.458 13.6948 18.9835C13.7757 18.9516 13.8209 18.8838 13.8304 18.7801C13.6461 18.387 13.375 18.0932 13.0168 17.8988C13.9425 17.7432 14.8465 17.8336 15.7287 18.17C16.3294 18.0479 16.9169 17.9123 17.4914 17.7632C17.8816 17.7477 18.2431 17.8381 18.5762 18.0344C19.241 17.8851 19.8963 17.7043 20.5423 17.492C20.7966 17.4953 21 17.5857 21.1524 17.7632C20.0121 17.8272 19.1534 18.3243 18.5762 19.2547C19.1776 19.294 19.7653 19.2262 20.3389 19.0513C20.892 18.7307 21.3892 18.3465 21.8304 17.8988C22.1214 17.8475 22.4152 17.8023 22.7117 17.7632C23.0129 17.7487 23.2614 17.8391 23.4575 18.0344C22.7035 18.2309 21.9802 18.5021 21.288 18.8479C22.9979 18.7752 24.625 18.3684 26.1694 17.6276C26.6578 17.6015 27.0646 17.4207 27.3897 17.0852C27.7785 17.1029 28.0044 16.9221 28.0677 16.5428C28.1513 16.5278 28.2191 16.4826 28.2711 16.4072C28.2779 15.7798 28.3908 15.1923 28.6101 14.6445Z" fill="#EAAE0B"/>
<path fill-rule="evenodd" clip-rule="evenodd" d="M0.271186 15.1865C0.393759 15.2827 0.438957 15.4183 0.40678 15.5933C0.632769 15.5933 0.858757 15.5933 1.08475 15.5933C1.04105 16.1692 1.15405 16.7115 1.42373 17.2204C2.49536 18.381 3.7835 19.2172 5.28814 19.7289C7.71159 20.5272 10.1975 21.0244 12.7458 21.2204C17.6007 21.5802 22.3464 21.0378 26.9831 19.5933C28.3154 19.1188 29.4679 18.373 30.4407 17.356C30.779 16.8157 30.9372 16.2282 30.9153 15.5933C31.3458 15.6734 31.6622 15.5378 31.8644 15.1865C31.8323 15.3616 31.8774 15.4972 32 15.5933C32 15.8645 32 16.1357 32 16.4069C31.7877 17.1681 31.3809 17.8234 30.7797 18.373C29.1049 19.5952 27.2518 20.4539 25.2203 20.9492C23.2325 21.4102 21.2438 21.7492 19.2542 21.9662C17.0847 21.9662 14.9153 21.9662 12.7458 21.9662C9.63184 21.709 6.60359 21.0084 3.66102 19.8645C2.27279 19.3195 1.16544 18.4382 0.338983 17.2204C0.244392 16.8809 0.131398 16.5646 0 16.2713C0 16.0905 0 15.9097 0 15.7289C0.0903955 15.5481 0.180791 15.3673 0.271186 15.1865Z" fill="#EBAE02"/>
<path fill-rule="evenodd" clip-rule="evenodd" d="M13.0169 18.5766C13.2205 18.7462 13.4464 18.8818 13.6949 18.9833C12.7129 19.4579 11.8315 19.2771 11.0508 18.441C10.9745 18.2749 11.0197 18.1393 11.1864 18.0342C11.8069 18.1799 12.417 18.3607 13.0169 18.5766Z" fill="#DE9111"/>
<path fill-rule="evenodd" clip-rule="evenodd" d="M26.1694 17.627C24.625 18.3678 22.9979 18.7746 21.2881 18.8473C21.9803 18.5015 22.7035 18.2303 23.4576 18.0337C24.3412 17.7677 25.2452 17.6321 26.1694 17.627Z" fill="#D68128"/>
<path fill-rule="evenodd" clip-rule="evenodd" d="M21.1524 17.7627C21.3448 17.8917 21.5707 17.9369 21.8304 17.8983C21.3892 18.346 20.892 18.7302 20.3389 19.0508C19.7653 19.2257 19.1777 19.2935 18.5762 19.2542C19.1534 18.3239 20.0121 17.8267 21.1524 17.7627Z" fill="#E08122"/>
<path fill-rule="evenodd" clip-rule="evenodd" d="M14.2372 18.3054C14.6973 18.246 15.1041 18.359 15.4576 18.6444C15.5769 18.8283 15.6222 19.0317 15.5932 19.2546C15.1839 19.2769 14.7772 19.2543 14.3728 19.1868C14.0938 18.9416 14.0485 18.6478 14.2372 18.3054Z" fill="#E78D1E"/>
<path fill-rule="evenodd" clip-rule="evenodd" d="M17.2203 17.8981C18.3177 17.7927 18.5663 18.1995 17.9661 19.1184C17.4603 19.2486 16.9406 19.2938 16.4067 19.254C16.4706 18.6738 16.7418 18.2219 17.2203 17.8981Z" fill="#E78A20"/>
<path fill-rule="evenodd" clip-rule="evenodd" d="M13.017 17.4911C13.5401 17.4851 14.0825 17.5303 14.6441 17.6267C14.7345 17.6267 14.8248 17.6267 14.9153 17.6267C15.8234 17.6702 16.7047 17.5798 17.5594 17.3556C17.9914 17.3886 18.4208 17.4338 18.8475 17.4911C18.8939 17.6048 18.9842 17.65 19.1187 17.6267C19.5508 17.457 20.0027 17.3666 20.4746 17.3556C21.6263 17.4556 22.7789 17.546 23.9322 17.6267C25.0967 17.4868 26.2493 17.306 27.3899 17.0844C27.0647 17.4199 26.6579 17.6006 26.1695 17.6267C25.2453 17.6319 24.3413 17.7675 23.4577 18.0335C23.2616 17.8382 23.0131 17.7478 22.7119 17.7623C22.4154 17.8014 22.1215 17.8466 21.8305 17.8979C21.5709 17.9365 21.345 17.8913 21.1526 17.7623C21.0002 17.5849 20.7968 17.4945 20.5424 17.4911C19.8964 17.7035 19.2411 17.8843 18.5763 18.0335C18.2433 17.8372 17.8818 17.7468 17.4916 17.7623C16.9171 17.9114 16.3295 18.047 15.7288 18.1691C14.8467 17.8328 13.9427 17.7424 13.017 17.8979C12.8093 17.7383 12.6059 17.5575 12.4068 17.3556C12.3413 17.227 12.3187 17.0914 12.339 16.9488C11.9971 16.8983 11.7259 17.0113 11.5255 17.2878C10.0232 17.4742 8.53171 17.655 7.05088 17.8301C6.23732 17.9205 5.42376 17.9205 4.6102 17.8301C4.53481 17.7782 4.48962 17.7105 4.47461 17.6267C4.56501 17.6267 4.6554 17.6267 4.7458 17.6267C5.75759 17.5897 6.75195 17.4542 7.72885 17.22C8.81959 17.2575 9.90433 17.2575 10.9831 17.22C11.0283 17.22 11.0735 17.22 11.1187 17.22C11.4819 16.9722 11.8661 16.7462 12.2712 16.542C12.5213 16.8635 12.7699 17.1799 13.017 17.4911Z" fill="#F8D168"/>
<path fill-rule="evenodd" clip-rule="evenodd" d="M14.644 17.6269C14.0823 17.5304 13.5399 17.4852 13.0168 17.4913C13.4117 17.2789 13.7733 17.0077 14.1016 16.6777C14.3863 16.9304 14.5671 17.2468 14.644 17.6269Z" fill="#F9E0A3"/>
<path fill-rule="evenodd" clip-rule="evenodd" d="M23.4575 16.542C23.9884 16.7723 23.9884 17.0435 23.4575 17.3556C23.1187 17.0985 23.1187 16.8273 23.4575 16.542Z" fill="#CF2E6B"/>
<path fill-rule="evenodd" clip-rule="evenodd" d="M7.45774 16.4063C7.36662 16.5104 7.25363 16.6008 7.11876 16.6775C7.09325 16.4658 7.20626 16.3754 7.45774 16.4063Z" fill="#F1B794"/>
<path fill-rule="evenodd" clip-rule="evenodd" d="M13.5593 15.458C13.5369 15.9122 13.5595 16.3642 13.6271 16.8139C13.759 16.5238 13.9624 16.2978 14.2373 16.136C14.5061 16.3369 14.7547 16.5629 14.983 16.8139C15.1266 16.3912 15.3074 15.9844 15.5254 15.5936C15.6158 15.7744 15.6158 15.9552 15.5254 16.136C15.2798 16.6263 15.0765 17.1234 14.9152 17.6275C14.8248 17.6275 14.7345 17.6275 14.644 17.6275C14.5672 17.2474 14.3864 16.9311 14.1017 16.6783C13.7734 17.0083 13.4118 17.2795 13.0169 17.4919C12.9726 16.8528 13.0178 16.22 13.1525 15.5936C13.2768 15.5086 13.4124 15.4634 13.5593 15.458Z" fill="#CE296A"/>
<path fill-rule="evenodd" clip-rule="evenodd" d="M5.15244 15.7285C5.64044 15.6522 5.91163 15.8556 5.966 16.3387C5.8689 16.865 5.55251 17.1136 5.01685 17.0844C5.06204 16.6324 5.10725 16.1805 5.15244 15.7285Z" fill="#F9E7A0"/>
<path fill-rule="evenodd" clip-rule="evenodd" d="M18.1696 15.4573C18.8167 15.4393 18.8392 15.62 18.2374 15.9997C18.171 15.8243 18.1483 15.6435 18.1696 15.4573Z" fill="#F9E6A5"/>
<path fill-rule="evenodd" clip-rule="evenodd" d="M16.8136 15.1865C17.5202 15.4762 17.6784 15.9734 17.2882 16.678C16.9176 17.1682 16.443 17.4167 15.8644 17.4238C15.6357 17.1644 15.5679 16.8706 15.661 16.5425C15.8358 15.8944 16.2201 15.4425 16.8136 15.1865Z" fill="#D1366D"/>
<path fill-rule="evenodd" clip-rule="evenodd" d="M16.5423 15.5928C16.715 15.6863 16.715 15.7993 16.5423 15.9318C16.671 16.0154 16.7839 15.9929 16.8813 15.864C16.9819 16.4752 16.7333 16.882 16.1355 17.0843C15.98 16.7772 15.9573 16.4608 16.0677 16.1351C16.2543 15.9717 16.4124 15.791 16.5423 15.5928Z" fill="#F9E4A0"/>
<path fill-rule="evenodd" clip-rule="evenodd" d="M24.4068 15.1866C25.1603 15.1324 25.6575 15.4488 25.8984 16.1358C25.5568 16.8044 25.0144 17.2111 24.2712 17.3561C24.3653 16.6368 24.4106 15.9136 24.4068 15.1866Z" fill="#D0336C"/>
<path fill-rule="evenodd" clip-rule="evenodd" d="M24.8134 15.458C25.6709 15.771 25.6936 16.1326 24.8812 16.5428C24.8138 16.184 24.7912 15.8224 24.8134 15.458Z" fill="#F8E5A1"/>
<path fill-rule="evenodd" clip-rule="evenodd" d="M21.5594 15.1866C22.3513 15.0618 22.8485 15.3782 23.0509 16.1358C22.7094 16.8044 22.167 17.2112 21.4238 17.3561C21.538 16.6393 21.5833 15.9161 21.5594 15.1866Z" fill="#CF2F6C"/>
<path fill-rule="evenodd" clip-rule="evenodd" d="M21.966 15.458C22.8235 15.771 22.8462 16.1326 22.0338 16.5428C21.9664 16.184 21.9438 15.8224 21.966 15.458Z" fill="#F9E8A2"/>
</svg>