<svg width="32" height="32" viewBox="0 0 32 32" fill="none" xmlns="http://www.w3.org/2000/svg">
    <g clip-path="url(#clip0_5661_4322)">
        <rect width="32" height="32" fill="black" />
        <path
            d="M16.0003 0C11.7569 8.49384e-05 7.68665 1.68585 4.68613 4.68647C1.68561 7.68707 -4.24811e-05 11.7568 8.02956e-10 16.0002C4.24827e-05 20.2436 1.68578 24.3132 4.68635 27.3138C7.68694 30.3143 11.7566 32 16 32C20.2435 32 24.3131 30.3143 27.3137 27.3138C30.3142 24.3132 32 20.2436 32 16.0002C32.0001 11.7568 30.3144 7.68707 27.3139 4.68647C24.3134 1.68585 20.2438 8.49384e-05 16.0003 0ZM11.1689 26.1392C10.2363 26.1472 9.31457 25.9387 8.47621 25.5301C7.63785 25.1216 6.90571 24.524 6.33737 23.7846V25.7863H3.98024V5.53414H6.33737V13.305C6.90571 12.5656 7.63785 11.9681 8.47621 11.5595C9.31457 11.1509 10.2363 10.9424 11.1689 10.9504C15.5289 10.9504 18.2396 14.4829 18.2396 18.7213C18.2396 22.9596 15.1753 26.1392 11.1689 26.1392ZM24.0133 26.1411C22.4118 26.2048 20.8126 25.9659 19.2997 25.4365V22.3755C20.6431 23.0838 22.1412 23.4478 23.6598 23.4349C24.8383 23.4349 26.1348 23.082 26.1348 21.7862C26.1348 20.6089 24.7205 20.1375 23.1883 19.5488C21.3026 18.8443 19.2997 18.018 19.2997 15.4277C19.2997 12.2488 22.1276 10.8358 24.9562 10.8358C26.4121 10.8129 27.8569 11.0937 29.1984 11.6601V14.6065C28.031 14.0057 26.7404 13.6832 25.4276 13.6643C24.1312 13.6643 22.8354 14.0173 22.8354 15.0773C22.8354 16.0195 23.7783 16.4903 25.0772 16.9611C27.1987 17.6657 29.9087 18.3741 29.9087 21.553C29.9055 24.9619 26.8418 26.1411 24.0133 26.1411Z"
            fill="white" />
        <path
            d="M10.8085 12.9523C9.86247 12.908 8.92571 13.1552 8.12479 13.6607C7.32394 14.1661 6.69762 14.9053 6.33057 15.7783V21.4303C7.15556 22.6076 8.09839 24.0206 10.8085 24.0206C13.8721 24.0206 15.5221 21.5482 15.5221 18.4865C15.5221 15.4248 13.7542 12.9523 10.8085 12.9523Z"
            fill="white" />
    </g>
    <defs>
        <clipPath id="clip0_5661_4322">
            <rect width="32" height="32" fill="white" />
        </clipPath>
    </defs>
</svg>