<svg width="32" height="32" viewBox="0 0 32 32" fill="none" xmlns="http://www.w3.org/2000/svg">
<path fill-rule="evenodd" clip-rule="evenodd" d="M2.2839 2.3677C3.23647 2.3677 4.18847 2.3677 5.14104 2.3677C6.52219 10.3833 9.57019 17.6741 14.2839 24.2402C15.417 23.3872 16.4645 22.4279 17.4268 21.3623C17.9525 22.8596 18.3336 24.3944 18.5696 25.967C23.3788 18.8234 26.3308 10.957 27.4268 2.3677C29.2525 2.05728 30.681 2.63288 31.7125 4.09448C32.0936 10.426 32.0936 16.7575 31.7125 23.0891C30.8885 25.2619 29.4599 26.8927 27.4268 27.9816C19.4268 31.2355 11.617 31.0436 3.99819 27.406C2.7359 26.3277 1.68847 25.0806 0.855329 23.6646C-0.0435284 17.3671 -0.233814 11.0356 0.2839 4.67007C0.678186 3.60511 1.34447 2.83761 2.2839 2.3677Z" fill="#25577D"/>
<path fill-rule="evenodd" clip-rule="evenodd" d="M15.9982 2.94241C20.2644 2.73664 23.3119 4.55937 25.141 8.41055C23.6633 7.15167 21.949 6.00048 19.9982 4.95699C17.4942 4.694 15.0176 4.694 12.5696 4.95699C13.6736 4.11749 14.8164 3.44594 15.9982 2.94241Z" fill="#265A7F"/>
<path fill-rule="evenodd" clip-rule="evenodd" d="M12.5698 15.606C16.2475 15.4168 16.8189 16.568 14.284 19.0595C12.8995 18.362 12.328 17.2108 12.5698 15.606Z" fill="#275B80"/>
</svg>