<svg width="32" height="32" viewBox="0 0 32 32" fill="none" xmlns="http://www.w3.org/2000/svg">
    <g clip-path="url(#clip0_5899_181)">
        <path fill-rule="evenodd" clip-rule="evenodd"
            d="M-0.0800781 -0.0800781C10.5866 -0.0800781 21.2532 -0.0800781 31.9199 -0.0800781C31.9199 10.5866 31.9199 21.2532 31.9199 31.9199C21.2532 31.9199 10.5866 31.9199 -0.0800781 31.9199C-0.0800781 21.2532 -0.0800781 10.5866 -0.0800781 -0.0800781Z"
            fill="#3EA2DA" />
        <path fill-rule="evenodd" clip-rule="evenodd"
            d="M9.19968 10.6396C9.5141 11.8013 9.62077 13.028 9.51968 14.3196C11.0195 13.944 12.4062 14.184 13.6797 15.0396C15.0694 16.6473 15.1494 18.3273 13.9197 20.0796C13.0997 20.7977 12.1397 21.171 11.0397 21.1996C9.84277 21.0744 8.64277 21.0209 7.43968 21.0396C7.41303 17.8392 7.43968 14.6392 7.51968 11.4396C8.10023 11.1856 8.66023 10.9189 9.19968 10.6396Z"
            fill="#F6F8F8" />
        <path fill-rule="evenodd" clip-rule="evenodd"
            d="M17.5199 10.7998C17.6795 14.1854 17.7329 17.5987 17.6799 21.0398C16.9867 21.0398 16.2932 21.0398 15.5999 21.0398C15.5486 17.7744 15.6019 14.521 15.7599 11.2798C16.3337 11.073 16.9203 10.913 17.5199 10.7998Z"
            fill="#F8F9F9" />
        <path fill-rule="evenodd" clip-rule="evenodd"
            d="M17.5195 10.7996C17.5291 10.7128 17.5824 10.6594 17.6795 10.6396C17.892 14.1324 17.892 17.599 17.6795 21.0396C17.7325 17.5985 17.6791 14.1853 17.5195 10.7996Z"
            fill="#9CCEEC" />
        <path fill-rule="evenodd" clip-rule="evenodd"
            d="M15.7603 11.2798C15.6023 14.521 15.5489 17.7744 15.6003 21.0398C16.2936 21.0398 16.987 21.0398 17.6803 21.0398C16.9651 21.1976 16.2184 21.2508 15.4403 21.1998C15.4925 17.8544 15.4392 14.521 15.2803 11.1998C15.4526 11.1247 15.6126 11.1513 15.7603 11.2798Z"
            fill="#67B7E6" />
        <path fill-rule="evenodd" clip-rule="evenodd"
            d="M21.0396 16.3995C20.9329 16.3995 20.8264 16.3995 20.7196 16.3995C20.4478 16.4251 20.1811 16.3986 19.9196 16.3195C19.9691 15.8163 20.0224 15.2563 20.0796 14.6395C19.8097 14.4687 19.543 14.4953 19.2796 14.7195C19.0881 15.042 18.8748 15.3353 18.6396 15.5995C18.6396 15.0662 18.6396 14.5329 18.6396 13.9995C19.3254 13.8065 20.0188 13.6465 20.7196 13.5195C20.7196 13.7862 20.7196 14.0529 20.7196 14.3195C21.1968 14.3828 21.6235 14.2762 21.9996 13.9995C22.8308 14.3342 23.5776 14.7875 24.2396 15.3595C24.2164 15.4831 24.1632 15.5897 24.0796 15.6795C23.3936 16.0995 22.6736 16.4461 21.9196 16.7195C21.6641 16.4979 21.3708 16.3914 21.0396 16.3995Z"
            fill="#F1F4F4" />
        <path fill-rule="evenodd" clip-rule="evenodd"
            d="M20.7196 16.4002C20.7196 16.4534 20.7196 16.5069 20.7196 16.5602C19.7086 16.5592 19.0686 17.0392 18.7996 18.0002C18.8272 18.1589 18.7737 18.2654 18.6396 18.3202C18.6396 17.4134 18.6396 16.5069 18.6396 15.6002C18.8748 15.336 19.0881 15.0426 19.2796 14.7202C19.543 14.4959 19.8097 14.4693 20.0796 14.6402C20.0224 15.2569 19.9691 15.8169 19.9196 16.3202C20.1811 16.3992 20.4478 16.4258 20.7196 16.4002Z"
            fill="#CECECD" />
        <path fill-rule="evenodd" clip-rule="evenodd"
            d="M10.3203 16.0803C11.7443 16.0456 12.3576 16.7389 12.1603 18.1603C11.5795 19.4469 10.7795 19.6069 9.76027 18.6403C9.3199 17.6381 9.50658 16.7848 10.3203 16.0803Z"
            fill="#42A5DB" />
        <path fill-rule="evenodd" clip-rule="evenodd"
            d="M20.7198 16.5596C20.7198 16.7729 20.7198 16.9863 20.7198 17.1996C19.9664 17.2033 19.3264 17.47 18.7998 17.9996C19.0688 17.0386 19.7088 16.5586 20.7198 16.5596Z"
            fill="#939393" />
        <path fill-rule="evenodd" clip-rule="evenodd"
            d="M20.7196 17.2002C20.7196 18.4802 20.7196 19.7602 20.7196 21.0402C20.0264 21.0402 19.3329 21.0402 18.6396 21.0402C18.6396 20.1335 18.6396 19.2269 18.6396 18.3202C18.7737 18.2655 18.8272 18.1589 18.7996 18.0002C19.3262 17.4706 19.9662 17.2039 20.7196 17.2002Z"
            fill="#F9F9F8" />
        <path fill-rule="evenodd" clip-rule="evenodd"
            d="M20.7196 16.4004C20.8264 16.4004 20.9329 16.4004 21.0396 16.4004C20.8838 17.9873 20.8305 19.5873 20.8796 21.2004C20.1016 21.2514 19.3548 21.1982 18.6396 21.0404C19.3329 21.0404 20.0264 21.0404 20.7196 21.0404C20.7196 19.7604 20.7196 18.4804 20.7196 17.2004C20.7196 16.9871 20.7196 16.7737 20.7196 16.5604C20.7196 16.5071 20.7196 16.4537 20.7196 16.4004Z"
            fill="#98CAE8" />
    </g>
    <defs>
        <clipPath id="clip0_5899_181">
            <rect width="32" height="32" fill="white" />
        </clipPath>
    </defs>
</svg>