<svg width="32" height="32" viewBox="0 0 32 32" fill="none" xmlns="http://www.w3.org/2000/svg">
    <g clip-path="url(#clip0_5558_382)">
        <path fill-rule="evenodd" clip-rule="evenodd"
            d="M13.152 -0.0332031C15.3493 -0.0332031 17.5467 -0.0332031 19.744 -0.0332031C24.2582 0.728833 27.2342 3.38991 28.672 7.95003C29.076 9.5778 29.236 11.2326 29.152 12.9144C29.2806 15.0347 29.0032 17.092 28.32 19.0863C28.2987 19.0863 28.2773 19.0863 28.256 19.0863C27.1266 16.9218 25.3772 15.759 23.008 15.5978C23.2513 13.5949 22.942 11.6942 22.08 9.89552C20.8476 7.89039 19.0876 7.0294 16.8 7.31271C15.5606 7.53161 14.5686 8.16893 13.824 9.22466C13.8027 7.391 13.7813 5.55729 13.76 3.72361C13.5822 3.21036 13.2302 2.93084 12.704 2.88504C11.9708 2.66824 11.2988 2.79123 10.688 3.25401C10.5651 3.44445 10.4584 3.64571 10.368 3.85778C10.3253 9.33649 10.3253 14.8151 10.368 20.2938C10.655 21.0895 11.2097 21.4249 12.032 21.3001C12.4434 21.3231 12.8381 21.256 13.216 21.0989C13.0732 22.7965 13.0519 24.496 13.152 26.1974C11.6056 25.9403 10.1549 25.4036 8.80002 24.5873C5.91385 25.5078 2.96985 25.8433 -0.0319824 25.5936C-0.0319824 25.5489 -0.0319824 25.5042 -0.0319824 25.4595C2.15278 24.5115 3.94478 23.0356 5.34402 21.0318C4.2848 19.367 3.6768 17.5334 3.52002 15.5307C3.46103 13.6059 3.48236 11.6828 3.58402 9.76135C4.17474 5.99199 6.04141 3.16319 9.18402 1.27497C10.4435 0.599956 11.7662 0.163897 13.152 -0.0332031Z"
            fill="#1FA2BB" />
        <path fill-rule="evenodd" clip-rule="evenodd"
            d="M23.008 15.5978C22.8496 17.5063 22.1029 19.1052 20.768 20.3944C19.2621 21.5309 17.5981 21.8663 15.776 21.4007C14.9419 21.1294 14.2699 20.6263 13.76 19.8913C13.753 20.1969 13.689 20.4876 13.568 20.7634C13.5004 20.9349 13.3831 21.0467 13.216 21.0988C12.838 21.2559 12.4433 21.323 12.032 21.3001C11.2096 21.4249 10.6549 21.0894 10.368 20.2938C10.3253 14.8151 10.3253 9.33645 10.368 3.85774C10.4584 3.64567 10.5651 3.44441 10.688 3.25397C11.2988 2.79119 11.9708 2.6682 12.704 2.88499C13.2301 2.93079 13.5821 3.21032 13.76 3.72357C13.7813 5.55725 13.8026 7.39095 13.824 9.22462C14.5685 8.16888 15.5605 7.53157 16.8 7.31267C19.0876 7.02936 20.8476 7.89034 22.08 9.89548C22.942 11.6941 23.2513 13.5949 23.008 15.5978Z"
            fill="#F9F9F9" />
        <path fill-rule="evenodd" clip-rule="evenodd"
            d="M19.424 15.5973C17.8686 15.6748 16.5032 16.245 15.328 17.308C15.1183 17.4936 14.9477 17.706 14.816 17.9453C14.305 17.4337 13.9743 16.8076 13.824 16.0669C13.4797 14.5 13.6503 13.0018 14.336 11.5722C15.3884 10.1698 16.6577 9.91258 18.144 10.8007C19.1499 11.7599 19.5979 12.9563 19.488 14.3898C19.4819 14.794 19.4606 15.1965 19.424 15.5973Z"
            fill="#21A2BB" />
        <path fill-rule="evenodd" clip-rule="evenodd"
            d="M19.424 15.5977C19.0269 18.0631 17.6829 18.9911 15.392 18.3817C15.1731 18.2677 14.9811 18.1224 14.816 17.9457C14.9477 17.7064 15.1183 17.4939 15.328 17.3083C16.5032 16.2454 17.8686 15.6751 19.424 15.5977Z"
            fill="#1A1A58" />
        <path fill-rule="evenodd" clip-rule="evenodd"
            d="M23.008 15.5977C25.3772 15.7588 27.1266 16.9216 28.256 19.0861C26.677 23.0997 23.8396 25.459 19.744 26.1637C17.5469 26.2835 15.3495 26.2947 13.152 26.1972C13.0519 24.4958 13.0732 22.7963 13.216 21.0987C13.3831 21.0466 13.5005 20.9347 13.568 20.7633C13.689 20.4875 13.753 20.1968 13.76 19.8912C14.2699 20.6262 14.9419 21.1293 15.776 21.4006C17.5981 21.8662 19.2621 21.5307 20.768 20.3943C22.1029 19.105 22.8496 17.5062 23.008 15.5977Z"
            fill="#1A1957" />
        <path fill-rule="evenodd" clip-rule="evenodd"
            d="M28.256 19.0859C28.2773 19.0859 28.2987 19.0859 28.32 19.0859C29.0247 20.6554 29.3021 22.3102 29.152 24.0503C29.1714 25.0838 29.1181 26.1125 28.992 27.1363C28.8687 27.7924 28.6447 28.4074 28.32 28.9811C29.3207 30.2442 30.5367 31.217 31.968 31.8994C31.968 31.9217 31.968 31.9441 31.968 31.9664C31.5627 31.9664 31.1573 31.9664 30.752 31.9664C29.288 31.7983 27.8374 31.5076 26.4 31.0943C25.6694 31.4576 24.9014 31.6924 24.096 31.7987C22.2613 31.8435 20.4267 31.8435 18.592 31.7987C16.2464 31.4634 14.5717 30.1775 13.568 27.9413C13.349 27.3806 13.2103 26.7993 13.152 26.197C15.3495 26.2945 17.5469 26.2833 19.744 26.1635C23.8396 25.4588 26.677 23.0996 28.256 19.0859Z"
            fill="#E62475" />
    </g>
    <defs>
        <clipPath id="clip0_5558_382">
            <rect width="32" height="32" fill="white" />
        </clipPath>
    </defs>
</svg>