<svg width="32" height="32" viewBox="0 0 32 32" fill="none" xmlns="http://www.w3.org/2000/svg">
    <g clip-path="url(#clip0_5844_45)">
        <path fill-rule="evenodd" clip-rule="evenodd"
            d="M-0.0712891 -0.0712891C10.5954 -0.0712891 21.262 -0.0712891 31.9287 -0.0712891C31.9287 10.5954 31.9287 21.262 31.9287 31.9287C21.262 31.9287 10.5954 31.9287 -0.0712891 31.9287C-0.0712891 21.262 -0.0712891 10.5954 -0.0712891 -0.0712891Z"
            fill="#F8F9F9" />
        <path fill-rule="evenodd" clip-rule="evenodd"
            d="M16 0.0712891C20.4342 1.97597 24.8906 3.82486 29.3689 5.61796C29.7027 10.2749 28.9205 14.7311 27.0222 18.9868C26.2874 18.252 25.5526 17.5173 24.8178 16.7824C25.9982 13.9905 26.5435 11.0749 26.4533 8.03573C23.0201 6.44105 19.5356 4.97143 16 3.62684C16 2.44166 16 1.25647 16 0.0712891Z"
            fill="#0676A8" />
        <path fill-rule="evenodd" clip-rule="evenodd"
            d="M15.9999 0.0712891C15.9999 1.25647 15.9999 2.44166 15.9999 3.62684C12.4074 4.9431 8.87555 6.41272 5.40438 8.03573C5.45371 13.5659 7.23149 18.4488 10.7377 22.6846C10.1236 23.37 9.48358 24.0336 8.81771 24.6757C4.17411 19.1941 2.11189 12.8414 2.63104 5.61796C7.08583 3.76996 11.5421 1.92107 15.9999 0.0712891Z"
            fill="#3883C7" />
        <path fill-rule="evenodd" clip-rule="evenodd"
            d="M16 5.90234C15.9528 12.3739 16.0002 18.8212 16.1423 25.2446C16.0858 25.3903 15.9911 25.4141 15.8578 25.3157C13.7088 23.3113 11.8836 21.0595 10.3823 18.5601C8.9722 15.5268 8.11887 12.3505 7.82227 9.03123C10.5119 7.8898 13.2379 6.84683 16 5.90234Z"
            fill="#3883C7" />
        <path fill-rule="evenodd" clip-rule="evenodd"
            d="M16.0001 5.90234C18.7249 6.85028 21.4272 7.86955 24.1068 8.96012C23.9317 14.1212 22.1539 18.6486 18.7734 22.5423C17.9669 23.5147 17.0898 24.4156 16.1423 25.2446C16.0002 18.8212 15.9529 12.3739 16.0001 5.90234Z"
            fill="#0276A8" />
        <path fill-rule="evenodd" clip-rule="evenodd"
            d="M16.2844 31.6442C16.1432 30.4851 16.0958 29.2999 16.1422 28.0886C18.7076 25.2624 21.1965 22.3706 23.6089 19.4131C24.2962 20.1004 24.9837 20.7879 25.6711 21.4753C22.4572 24.8079 19.3283 28.1974 16.2844 31.6442Z"
            fill="#089C7D" />
        <path fill-rule="evenodd" clip-rule="evenodd"
            d="M16.1417 28.0885C16.0954 29.2998 16.1427 30.4849 16.284 31.644C16.1103 31.7813 15.9207 31.7575 15.7151 31.5729C13.9443 30.1105 12.285 28.5223 10.7373 26.8085C11.3514 26.1231 11.9914 25.4595 12.6573 24.8174C13.7573 25.989 14.9188 27.0794 16.1417 28.0885Z"
            fill="#4AAF8E" />
    </g>
    <defs>
        <clipPath id="clip0_5844_45">
            <rect width="32" height="32" fill="white" />
        </clipPath>
    </defs>
</svg>