<svg width="32" height="32" viewBox="0 0 32 32" fill="none" xmlns="http://www.w3.org/2000/svg">
    <path fill-rule="evenodd" clip-rule="evenodd"
        d="M29.1154 7.00181C29.0787 7.32617 29.1177 7.64108 29.2321 7.9465C29.8292 8.73113 30.296 9.59711 30.6326 10.5444C30.6581 11.6203 30.8915 12.6437 31.3329 13.6146C31.4961 15.5082 31.4571 17.3976 31.2162 19.2828C30.7419 20.8678 30.275 22.4421 29.8157 24.0063C27.3474 28.4255 23.6127 31.0629 18.6114 31.9181C8.6277 32.6781 2.442 28.1516 0.0543025 18.3381C-0.51121 9.44114 3.34026 3.49747 11.6087 0.507049C17.378 -0.813748 22.5133 0.445833 27.0146 4.28582C27.8577 5.09128 28.558 5.99661 29.1154 7.00181Z"
        fill="#35A170" />
    <path fill-rule="evenodd" clip-rule="evenodd"
        d="M24.447 10.0723C26.1185 11.0988 26.7798 12.5946 26.431 14.5596C25.9983 15.1963 25.4147 15.5899 24.6804 15.7405C23.6232 15.5979 22.6895 15.2043 21.8793 14.5596C21.362 14.3937 20.9342 14.0788 20.5955 13.6149C20.715 12.6967 20.6762 11.7914 20.4788 10.8989C17.6693 10.1334 14.8682 10.1334 12.0756 10.8989C11.7386 11.1648 11.583 11.5191 11.6087 11.9617C11.7879 12.5885 11.8268 13.2183 11.7254 13.8511C11.535 14.1635 11.2626 14.3209 10.9085 14.3234C11.0574 13.8605 11.0574 13.4275 10.9085 13.0245C11.1848 12.7457 11.3404 12.3915 11.3753 11.9617C11.2948 11.4738 11.2559 11.0014 11.2586 10.5446C11.4337 10.3969 11.6283 10.2788 11.8421 10.1904C14.1056 10.2 16.3231 9.92441 18.4947 9.36378C18.5724 9.4425 18.6504 9.52124 18.7281 9.59996C18.1326 8.61667 17.2379 8.30178 16.0437 8.65526C15.8369 8.85011 15.7592 9.08628 15.8103 9.36378C15.4266 9.41421 15.0764 9.33549 14.7599 9.12761C14.4488 9.28507 14.1374 9.4425 13.8262 9.59996C13.103 9.41045 12.3638 9.25302 11.6087 9.12761C10.9704 9.51142 10.2701 9.66887 9.50792 9.59996C9.50792 9.99359 9.50792 10.3872 9.50792 10.7808C8.95779 10.7423 8.41312 10.7816 7.87396 10.8989C7.52383 11.4106 7.09589 11.8436 6.59014 12.1979C6.45456 13.1864 6.61019 14.1311 7.05698 15.0319C7.52534 15.308 8.0311 15.4654 8.57423 15.5043C8.15677 15.7694 7.68993 15.8087 7.17369 15.6224C5.99379 14.9872 5.56586 14.0031 5.88987 12.6702C6.27777 11.9264 6.70573 11.2179 7.17369 10.5446C11.1099 7.97646 15.3892 7.22859 20.0119 8.30101C21.567 8.73282 23.0452 9.32326 24.447 10.0723Z"
        fill="#E5F6EE" />
    <path fill-rule="evenodd" clip-rule="evenodd"
        d="M10.9085 14.323C10.1966 14.8406 9.41852 15.2342 8.57428 15.5039C8.03115 15.465 7.52539 15.3075 7.05703 15.0315C6.61024 14.1307 6.45461 13.186 6.59019 12.1975C7.09594 11.8432 7.52388 11.4102 7.87401 10.8985C8.41317 10.7812 8.95784 10.7418 9.50797 10.7804C9.50797 10.3868 9.50797 9.99318 9.50797 9.59955C10.2702 9.66846 10.9705 9.51101 11.6088 9.1272C12.3639 9.25261 13.103 9.41004 13.8263 9.59955C14.1374 9.44209 14.4488 9.28466 14.76 9.1272C15.0765 9.33508 15.4266 9.4138 15.8104 9.36338C15.7593 9.08587 15.837 8.8497 16.0438 8.65486C17.238 8.30138 18.1327 8.61627 18.7282 9.59955C18.6504 9.52083 18.5725 9.44209 18.4947 9.36338C16.3232 9.924 14.1057 10.1995 11.8422 10.19C11.6283 10.2784 11.4338 10.3964 11.2586 10.5442C11.2559 11.001 11.2948 11.4734 11.3753 11.9613C11.3405 12.391 11.1849 12.7453 10.9085 13.0241C11.0575 13.4271 11.0575 13.8601 10.9085 14.323Z"
        fill="#F4F3F3" />
    <path fill-rule="evenodd" clip-rule="evenodd"
        d="M21.8793 14.5593C21.0868 13.7322 21.0091 12.8268 21.6459 11.8433C21.2649 10.5132 20.4092 9.6473 19.0782 9.2454C20.5171 8.77306 21.7232 9.12732 22.6963 10.3082C23.2369 10.1033 23.7037 10.2608 24.0968 10.7805C24.1746 10.7018 24.2525 10.6231 24.3303 10.5444C24.6477 10.9235 24.9978 11.2778 25.3807 11.6071C24.806 12.2564 24.8837 12.6894 25.6141 12.9061C26.0807 14.2878 25.5749 14.9963 24.0968 15.0316C23.4974 14.915 22.9526 14.6789 22.4629 14.3231C22.3062 14.5008 22.1118 14.5796 21.8793 14.5593Z"
        fill="#F5F3F5" />
    <path fill-rule="evenodd" clip-rule="evenodd"
        d="M29.1154 7.00195C31.9634 11.0902 32.7024 15.5775 31.3329 20.4638C31.0694 21.7812 30.5635 22.9621 29.8156 24.0064C30.275 22.4422 30.7419 20.8679 31.2162 19.2829C31.4571 17.3977 31.496 15.5084 31.3329 13.6148C30.8915 12.6439 30.6581 11.6205 30.6326 10.5445C30.296 9.59726 29.8292 8.73128 29.2321 7.94665C29.1177 7.64123 29.0787 7.32631 29.1154 7.00195Z"
        fill="#479874" />
    <path fill-rule="evenodd" clip-rule="evenodd"
        d="M11.6087 20.2271C11.0222 19.5942 10.4775 18.9251 9.97473 18.2196C10.375 17.4273 10.9974 16.9156 11.8421 16.6845C11.9199 16.5271 11.9977 16.3696 12.0755 16.2122C15.3901 15.049 18.5801 15.3245 21.6459 17.0388C22.0245 17.3446 22.3356 17.6989 22.5795 18.1016C22.1127 19.0463 21.4124 19.7548 20.4787 20.2271C18.3147 18.7055 15.9805 18.4301 13.4761 19.4005C13.0321 20.2255 12.4097 20.5011 11.6087 20.2271Z"
        fill="#E6F6EF" />
    <path fill-rule="evenodd" clip-rule="evenodd"
        d="M11.8422 16.6845C12.6469 16.5919 13.386 16.7494 14.0597 17.1569C14.3069 17.1261 14.5013 17.0081 14.6432 16.8026C14.3321 16.5664 14.3321 16.3303 14.6432 16.0941C16.2438 15.9082 17.8 16.105 19.3117 16.6845C18.4499 16.8622 17.5942 17.059 16.744 17.275C17.7592 17.9478 18.7706 17.9873 19.7785 17.393C20.033 17.6828 20.3443 17.8796 20.7122 17.9835C20.4011 18.141 20.4011 18.2983 20.7122 18.4558C20.4148 18.7442 20.0647 18.9409 19.6618 19.0463C18.5232 18.5349 17.3173 18.2593 16.0438 18.2196C15.8909 17.8685 15.6574 17.5931 15.3435 17.393C15.0071 17.7154 14.696 18.0697 14.4098 18.4558C13.8652 18.5345 13.3204 18.6133 12.7759 18.692C12.9315 18.7706 13.0871 18.8495 13.2427 18.9282C12.7986 18.9752 12.4485 19.1721 12.1923 19.5186C11.5377 19.2489 11.032 18.816 10.675 18.2196C11.1734 17.8054 11.5625 17.2937 11.8422 16.6845Z"
        fill="#F5F2F3" />
    <path fill-rule="evenodd" clip-rule="evenodd"
        d="M24.4469 10.0723C25.0919 10.1298 25.5975 10.4447 25.9642 11.017C27.3152 12.5435 27.3542 14.118 26.0809 15.7404C24.9791 16.0506 23.8897 16.0112 22.813 15.6223C22.1503 15.1688 21.45 14.7752 20.7122 14.4415C20.3826 14.1077 20.1491 13.714 20.0119 13.2606C20.5621 12.0872 20.2509 11.2999 19.0782 10.8989C16.8187 10.7622 14.5622 10.8016 12.3089 11.017C12.184 12.037 12.0672 13.0604 11.9588 14.0872C11.3792 14.4764 10.9513 14.9882 10.675 15.6223C11.0646 16.0165 11.5314 16.2133 12.0755 16.2128C11.9977 16.3702 11.9199 16.5277 11.8421 16.6851C10.9974 16.9162 10.375 17.4279 9.97472 18.2202C10.4775 18.9257 11.0222 19.5948 11.6087 20.2277C10.8693 19.9056 10.0912 19.7088 9.27446 19.6373C9.53682 19.5785 9.77025 19.4604 9.97472 19.283C9.61213 19.0612 9.3009 18.7856 9.04104 18.4564C9.35758 18.0863 9.5132 17.6534 9.50788 17.1575C9.95806 17.221 10.3471 17.1029 10.675 16.8032C10.5194 16.6457 10.3638 16.4883 10.2081 16.3308C10.4909 16.12 10.4909 15.9232 10.2081 15.7404C9.20688 16.2656 8.11757 16.3837 6.94023 16.0947C5.28114 14.6282 5.0866 12.9356 6.35668 11.017C6.54713 10.7045 6.81946 10.5471 7.17366 10.5446C6.70569 11.2179 6.27773 11.9264 5.88983 12.6702C5.56582 14.0031 5.99375 14.9871 7.17366 15.6223C7.68989 15.8087 8.15674 15.7693 8.57419 15.5042C9.41843 15.2346 10.1965 14.841 10.9084 14.3234C11.2626 14.3209 11.5349 14.1634 11.7254 13.851C11.8267 13.2183 11.7878 12.5885 11.6087 11.9616C11.583 11.5191 11.7386 11.1648 12.0755 10.8989C14.8682 10.1333 17.6693 10.1333 20.4787 10.8989C20.6762 11.7913 20.715 12.6967 20.5954 13.6149C20.9341 14.0787 21.362 14.3936 21.8793 14.5596C22.6895 15.2043 23.6232 15.5979 24.6803 15.7404C25.4147 15.5899 25.9982 15.1963 26.431 14.5596C26.7797 12.5945 26.1184 11.0988 24.4469 10.0723Z"
        fill="#469E75" />
    <path fill-rule="evenodd" clip-rule="evenodd"
        d="M15.1101 21.4086C17.2695 21.0225 18.3199 21.8885 18.2613 24.0065C17.5244 25.1855 16.474 25.6184 15.1101 25.3055C13.8736 24.0068 13.8736 22.7078 15.1101 21.4086Z"
        fill="#EAF5F0" />
</svg>