<svg width="32" height="32" viewBox="0 0 32 32" fill="none" xmlns="http://www.w3.org/2000/svg">
    <g clip-path="url(#clip0_5697_581)">
        <path fill-rule="evenodd" clip-rule="evenodd"
            d="M3.50579 -0.0136719C9.27228 -0.0136719 15.0388 -0.0136719 20.8053 -0.0136719C24.813 0.367117 27.9219 2.22611 30.1318 5.56332C31.2998 7.4462 31.9178 9.49469 31.9863 11.7088C31.9863 17.1775 31.9863 22.6462 31.9863 28.1149C31.8526 29.7496 31.0493 30.9272 29.5769 31.6479C29.1131 31.8388 28.635 31.9517 28.142 31.9863C20.0382 31.9863 11.9344 31.9863 3.83066 31.9863C1.98654 31.8198 0.754734 30.8633 0.135228 29.1166C0.0735601 28.8897 0.0239266 28.6642 -0.0136719 28.4398C-0.0136719 20.1285 -0.0136719 11.8171 -0.0136719 3.50579C0.190147 2.16392 0.87599 1.14869 2.04386 0.460101C2.50706 0.216931 2.99438 0.0590066 3.50579 -0.0136719Z"
            fill="black" />
        <path fill-rule="evenodd" clip-rule="evenodd"
            d="M13.6309 7.32324C13.6264 9.20932 13.6309 11.0954 13.6445 12.9814C13.6639 12.9667 13.6774 12.9487 13.6851 12.9273C14.8996 11.4167 16.4699 10.8256 18.3958 11.154C20.5605 11.6582 21.9547 12.9802 22.5785 15.1202C22.9442 16.649 23.0164 18.1922 22.7951 19.7496C22.6178 20.8867 22.2027 21.9245 21.5497 22.863C20.483 24.1566 19.1068 24.8153 17.4211 24.8393C16.1025 24.8979 15.006 24.4377 14.1318 23.4586C13.9382 23.2337 13.7577 22.9991 13.5903 22.7547C13.5594 23.2957 13.5459 23.8372 13.5497 24.3791C12.4578 24.3791 11.3659 24.3791 10.2739 24.3791C10.2739 18.6938 10.2739 13.0085 10.2739 7.32324C11.3929 7.32324 12.5119 7.32324 13.6309 7.32324Z"
            fill="#F9F9F9" />
        <path fill-rule="evenodd" clip-rule="evenodd"
            d="M13.6311 7.32324C13.6491 9.19126 13.6672 11.0593 13.6852 12.9273C13.6776 12.9487 13.664 12.9667 13.6446 12.9814C13.6311 11.0954 13.6266 9.20932 13.6311 7.32324Z"
            fill="#3E3E3E" />
        <path fill-rule="evenodd" clip-rule="evenodd"
            d="M16.176 14.037C17.5509 13.9106 18.4849 14.4882 18.978 15.7697C19.3143 16.7816 19.4226 17.8194 19.3029 18.8831C19.2197 19.62 18.9761 20.2968 18.5719 20.9135C17.8139 21.8248 16.8619 22.109 15.7157 21.7663C14.9146 21.4796 14.3506 20.9427 14.0237 20.1555C13.5533 18.9065 13.4811 17.6341 13.8071 16.3382C13.9943 15.6246 14.3688 15.0336 14.9306 14.565C15.3073 14.2907 15.7224 14.1147 16.176 14.037Z"
            fill="black" />
    </g>
    <defs>
        <clipPath id="clip0_5697_581">
            <rect width="32" height="32" fill="white" />
        </clipPath>
    </defs>
</svg>