<svg width="32" height="32" viewBox="0 0 32 32" fill="none" xmlns="http://www.w3.org/2000/svg">
    <path fill-rule="evenodd" clip-rule="evenodd"
        d="M17.6708 28.9192C17.5975 28.9436 17.5486 28.9925 17.5242 29.0659C17.4509 29.0903 17.402 29.1392 17.3776 29.2126C17.3162 29.2377 17.2917 29.2865 17.3043 29.3593C17.2066 29.4082 17.1332 29.4816 17.0844 29.5794C17.011 29.6038 16.9621 29.6527 16.9377 29.7261C16.8644 29.7505 16.8155 29.7994 16.7911 29.8728C16.4514 30.2252 16.1215 30.592 15.8014 30.9731C15.4813 30.592 15.1515 30.2252 14.8117 29.8728C14.8117 29.8238 14.7873 29.7994 14.7384 29.7994C14.7384 29.7505 14.714 29.7261 14.6651 29.7261C14.6407 29.6527 14.5918 29.6038 14.5185 29.5794C14.5185 29.5304 14.4941 29.506 14.4452 29.506C14.4505 29.394 14.4016 29.3206 14.2986 29.2859C14.2741 29.2126 14.2252 29.1637 14.1519 29.1392C14.1275 29.0659 14.0786 29.017 14.0053 28.9925C11.8294 26.4232 9.81336 23.7336 7.95721 20.9236C6.71629 18.9538 5.68994 16.8754 4.87818 14.6885C3.7709 10.0179 4.95603 6.04459 8.43373 2.76854C11.8571 0.0345682 15.6692 -0.674543 19.8701 0.641277C24.2571 2.39047 26.7863 5.60579 27.4578 10.2873C27.7118 12.7914 27.223 15.1387 25.9916 17.3293C24.9714 19.2495 23.8229 21.0834 22.546 22.8308C20.961 24.8934 19.3359 26.9229 17.6708 28.9192ZM15.6181 7.57321C17.6207 7.53749 19.0502 8.41774 19.9068 10.214C20.6606 12.7026 19.8908 14.5486 17.5975 15.7522C15.1882 16.4975 13.3677 15.7762 12.1359 13.5882C11.3126 11.2917 11.9113 9.47007 13.932 8.12337C14.4719 7.84132 15.034 7.65794 15.6181 7.57321Z"
        fill="#3E83F2" />
    <path fill-rule="evenodd" clip-rule="evenodd"
        d="M24.5621 18.5032C18.8195 18.5032 13.0768 18.5032 7.33419 18.5032C7.27107 18.3648 7.19776 18.2303 7.11426 18.0997C13.0036 18.0386 18.893 18.0508 24.7821 18.1364C24.7263 18.2728 24.653 18.3951 24.5621 18.5032Z"
        fill="#4489F3" />
    <path fill-rule="evenodd" clip-rule="evenodd"
        d="M7.33398 18.5029C13.0766 18.5029 18.8193 18.5029 24.5619 18.5029C24.3931 18.8657 24.1976 19.2081 23.9754 19.5299C18.6244 19.3834 13.2482 19.3345 7.84716 19.3832C7.6402 19.1165 7.46917 18.823 7.33398 18.5029Z"
        fill="#4889ED" />
    <path fill-rule="evenodd" clip-rule="evenodd"
        d="M7.84717 19.3835C13.2482 19.3348 18.6244 19.3837 23.9754 19.5302C23.7085 19.9919 23.4153 20.4321 23.0957 20.8505C18.3061 20.7528 13.5165 20.7528 8.72689 20.8505C8.397 20.3864 8.10375 19.8974 7.84717 19.3835Z"
        fill="#4B8EED" />
    <path fill-rule="evenodd" clip-rule="evenodd"
        d="M23.0959 20.8507C22.7554 21.3863 22.3889 21.8998 21.9962 22.3911C17.9273 22.3668 13.8708 22.3912 9.82671 22.4645C9.42482 21.9547 9.05827 21.4168 8.72705 20.8507C13.5166 20.7529 18.3063 20.7529 23.0959 20.8507Z"
        fill="#5295ED" />
    <path fill-rule="evenodd" clip-rule="evenodd"
        d="M21.9962 22.391C21.6837 22.9232 21.3172 23.4123 20.8965 23.858C17.5367 23.7847 14.1644 23.7603 10.7797 23.7847C10.4057 23.3859 10.0881 22.9458 9.82666 22.4643C13.8708 22.391 17.9272 22.3666 21.9962 22.391Z"
        fill="#589BED" />
    <path fill-rule="evenodd" clip-rule="evenodd"
        d="M10.7798 23.7845C14.1645 23.7602 17.5368 23.7846 20.8966 23.8579C20.5557 24.3453 20.1892 24.8098 19.797 25.2516C17.1578 25.1538 14.5186 25.1538 11.8794 25.2516C11.457 24.8044 11.0905 24.3154 10.7798 23.7845Z"
        fill="#5EA1ED" />
    <path fill-rule="evenodd" clip-rule="evenodd"
        d="M19.7969 25.2511C19.456 25.7385 19.0895 26.2031 18.6973 26.6448C16.7912 26.547 14.8851 26.547 12.979 26.6448C12.5868 26.2031 12.2203 25.7385 11.8794 25.2511C14.5186 25.1533 17.1577 25.1533 19.7969 25.2511Z"
        fill="#64A7ED" />
    <path fill-rule="evenodd" clip-rule="evenodd"
        d="M18.6972 26.6456C18.2322 27.1865 17.7679 27.7244 17.3043 28.2594C16.3024 28.1616 15.3005 28.1616 14.2986 28.2594C13.8332 27.7446 13.3934 27.2067 12.979 26.6456C14.8851 26.5478 16.7911 26.5478 18.6972 26.6456Z"
        fill="#6BAEED" />
    <path fill-rule="evenodd" clip-rule="evenodd"
        d="M17.3043 28.2589C16.8462 28.8767 16.3453 29.4635 15.8014 30.0194C15.2826 29.4439 14.7816 28.8571 14.2986 28.2589C15.3005 28.1611 16.3024 28.1611 17.3043 28.2589Z"
        fill="#6FB4ED" />
    <path fill-rule="evenodd" clip-rule="evenodd"
        d="M17.6708 28.9189C20.1085 28.9613 22.5277 29.1935 24.9285 29.6158C25.501 29.713 26.0264 29.9209 26.5047 30.2393C26.6479 30.4069 26.6357 30.5659 26.468 30.7161C25.5908 31.1556 24.6622 31.4124 23.6822 31.4863C23.7036 31.402 23.7646 31.3531 23.8655 31.3396C24.5344 31.297 25.1575 31.1136 25.7349 30.7895C25.9246 30.6776 25.9857 30.5186 25.9182 30.3127C25.7792 30.1638 25.6203 30.0415 25.4417 29.9459C24.6535 29.7858 23.8715 29.6024 23.0958 29.3957C22.0248 29.2554 20.9495 29.1698 19.8701 29.139C19.0904 29.0727 18.3084 29.0483 17.5242 29.0657C17.5486 28.9923 17.5975 28.9434 17.6708 28.9189Z"
        fill="#EFEFEF" />
    <path fill-rule="evenodd" clip-rule="evenodd"
        d="M17.5243 29.066C18.3086 29.0486 19.0906 29.073 19.8702 29.1393C21.0651 29.2446 22.2625 29.4035 23.4624 29.6161C24.0706 29.713 24.6571 29.8842 25.2219 30.1296C25.4735 30.3032 25.4979 30.4989 25.2952 30.7164C24.7891 30.9762 24.2515 31.1352 23.6824 31.1932C24.0953 31.0495 24.5107 30.8905 24.9287 30.7164C25.1242 30.5453 25.1242 30.3741 24.9287 30.203C24.357 30.0612 23.7949 29.89 23.2425 29.6895C22.6839 29.5934 22.1219 29.5323 21.5564 29.5061C20.915 29.4633 20.2797 29.3777 19.6503 29.2494C18.8932 29.2127 18.1356 29.2005 17.3777 29.2127C17.4021 29.1393 17.451 29.0904 17.5243 29.066Z"
        fill="#C6C6C6" />
    <path fill-rule="evenodd" clip-rule="evenodd"
        d="M17.3776 29.2126C18.1355 29.2004 18.893 29.2126 19.6502 29.2492C20.2795 29.3776 20.9148 29.4632 21.5562 29.506C21.654 29.5549 21.7518 29.6038 21.8495 29.6527C20.3401 29.4807 18.825 29.3829 17.3042 29.3593C17.2916 29.2865 17.3161 29.2377 17.3776 29.2126Z"
        fill="#A6A6A6" />
    <path fill-rule="evenodd" clip-rule="evenodd"
        d="M14.0054 28.9922C14.0787 29.0166 14.1276 29.0655 14.152 29.1389C12.4749 29.2005 10.8132 29.3228 9.16689 29.5057C8.43694 29.5662 7.72825 29.7251 7.04089 29.9825C6.35669 30.3003 6.35669 30.6182 7.04089 30.9361C8.45857 31.2692 9.87595 31.5503 11.2929 31.7796C9.85711 31.6984 8.4398 31.4905 7.04089 31.1561C6.68174 31.0498 6.33968 30.9031 6.01455 30.716C5.84688 30.5658 5.83464 30.4068 5.97789 30.2392C6.85336 29.7601 7.79415 29.479 8.80034 29.3956C10.5264 29.1437 12.2614 29.0092 14.0054 28.9922Z"
        fill="#ECECEC" />
    <path fill-rule="evenodd" clip-rule="evenodd"
        d="M14.152 29.1396C14.2253 29.1641 14.2742 29.213 14.2986 29.2864C12.5539 29.2963 10.8189 29.4308 9.09354 29.6898C8.60904 29.805 8.14469 29.9761 7.70065 30.2033C7.62191 30.2575 7.57301 30.3308 7.55403 30.4233C7.64259 30.5954 7.74031 30.7544 7.84727 30.9001C7.55659 30.8858 7.30001 30.7879 7.07751 30.6067C7.06622 30.2971 7.21284 30.077 7.51737 29.9465C8.07174 29.7805 8.62157 29.6338 9.16685 29.5064C10.8132 29.3235 12.4748 29.2013 14.152 29.1396Z"
        fill="#C9C9C9" />
    <path fill-rule="evenodd" clip-rule="evenodd"
        d="M14.2986 29.2861C14.4016 29.3208 14.4505 29.3942 14.4452 29.5062C13.8582 29.494 13.2717 29.5062 12.6857 29.5429C12.2498 29.6375 11.81 29.6986 11.3662 29.7263C10.7947 29.7673 10.2326 29.865 9.68001 30.0197C9.43179 30.0951 9.23634 30.2418 9.09353 30.4598C9.18099 30.6085 9.3032 30.7185 9.46008 30.7899C9.95053 30.9486 10.4392 31.0831 10.9263 31.1933C10.0696 31.2296 9.26317 31.0463 8.50705 30.6432C8.42978 30.5414 8.41761 30.4313 8.47039 30.3131C8.91898 29.9778 9.41998 29.77 9.97326 29.6896C11.4244 29.5345 12.8662 29.4001 14.2986 29.2861Z"
        fill="#939393" />
    <path fill-rule="evenodd" clip-rule="evenodd"
        d="M14.2985 29.2861C12.8661 29.4001 11.4243 29.5345 9.9732 29.6896C9.41992 29.77 8.91892 29.9778 8.47033 30.3131C8.41755 30.4313 8.42972 30.5414 8.50699 30.6432C9.26311 31.0463 10.0695 31.2296 10.9262 31.1933C11.5004 31.3422 12.0869 31.4156 12.6857 31.4134C13.8534 31.5871 15.0386 31.6604 16.2412 31.6335C18.7129 31.6401 21.1688 31.4567 23.6089 31.0833C23.9063 30.9103 24.1751 30.7025 24.4153 30.4598C24.2091 30.1482 23.9159 29.9648 23.5356 29.9096C22.9835 29.7581 22.4214 29.6725 21.8495 29.6529C21.7518 29.604 21.654 29.5551 21.5562 29.5062C22.1218 29.5324 22.6837 29.5935 23.2424 29.6896C23.7948 29.8901 24.3568 30.0613 24.9285 30.2031C25.124 30.3742 25.124 30.5454 24.9285 30.7165C24.5106 30.8906 24.0951 31.0496 23.6822 31.1933C23.4387 31.2464 23.1944 31.3075 22.9491 31.3767C18.8211 31.7845 14.6913 31.8089 10.5597 31.4501C9.64829 31.2954 8.74415 31.1121 7.8472 30.8999C7.74024 30.7542 7.64251 30.5952 7.55396 30.4231C7.57294 30.3306 7.62184 30.2573 7.70058 30.2031C8.14462 29.9759 8.60896 29.8047 9.09347 29.6896C10.8188 29.4306 12.5539 29.296 14.2985 29.2861Z"
        fill="#B1B1B1" />
    <path fill-rule="evenodd" clip-rule="evenodd"
        d="M17.3043 29.3594C18.825 29.383 20.3401 29.4808 21.8495 29.6528C22.3579 29.7988 22.8711 29.9577 23.389 30.1296C23.662 30.2219 23.7353 30.3931 23.609 30.6431C23.0244 30.9177 22.4136 31.1133 21.7762 31.2299C19.0332 31.5667 16.2963 31.6278 13.5654 31.4133C16.1371 31.4754 18.7029 31.3898 21.263 31.1565C21.6536 31.0588 22.0447 30.961 22.436 30.8631C22.6725 30.782 22.868 30.6475 23.0225 30.4597C22.935 30.311 22.8128 30.201 22.6559 30.1296C22.2335 29.9505 21.7936 29.8649 21.3363 29.8729C20.3647 29.7228 19.3872 29.625 18.4039 29.5794C17.9641 29.5794 17.5242 29.5794 17.0843 29.5794C17.1332 29.4817 17.2065 29.4083 17.3043 29.3594Z"
        fill="#868686" />
    <path fill-rule="evenodd" clip-rule="evenodd"
        d="M19.8701 29.1396C20.9495 29.1705 22.0247 29.2561 23.0957 29.3964C23.8715 29.603 24.6535 29.7864 25.4416 29.9465C25.6203 30.0421 25.7792 30.1644 25.9182 30.3133C25.9856 30.5193 25.9245 30.6782 25.7349 30.7901C25.1575 31.1143 24.5344 31.2976 23.8655 31.3403C23.7646 31.3538 23.7035 31.4027 23.6822 31.487C23.6578 31.487 23.6333 31.487 23.6089 31.487C19.6344 31.8557 15.6513 31.9535 11.6593 31.7804C11.5371 31.7804 11.415 31.7804 11.2927 31.7804C9.8758 31.5511 8.45842 31.2699 7.04074 30.9368C6.35654 30.619 6.35654 30.3011 7.04074 29.9832C7.7281 29.7259 8.43679 29.5669 9.16674 29.5064C8.62146 29.6338 8.07163 29.7805 7.51726 29.9465C7.21273 30.077 7.06611 30.2971 7.0774 30.6067C7.29989 30.7879 7.55648 30.8858 7.84716 30.9001C8.74411 31.1123 9.64824 31.2957 10.5596 31.4503C14.6913 31.8091 18.8211 31.7847 22.9491 31.3769C23.1943 31.3078 23.4387 31.2466 23.6822 31.1936C24.2513 31.1355 24.7889 30.9766 25.295 30.7168C25.4977 30.4992 25.4733 30.3036 25.2217 30.1299C24.6569 29.8845 24.0704 29.7133 23.4623 29.6164C22.2623 29.4039 21.0649 29.2449 19.8701 29.1396Z"
        fill="#D5D5D5" />
    <path fill-rule="evenodd" clip-rule="evenodd"
        d="M21.3363 29.8726C21.7936 29.8647 22.2335 29.9503 22.6559 30.1293C22.8128 30.2007 22.935 30.3107 23.0224 30.4594C22.868 30.6473 22.6725 30.7817 22.436 30.8629C22.0446 30.9607 21.6536 31.0585 21.263 31.1563C18.7029 31.3895 16.1371 31.4751 13.5654 31.413C13.4677 31.413 13.3699 31.413 13.2722 31.413C13.0171 31.375 12.7728 31.3017 12.5391 31.1929C13.0278 31.2174 13.5165 31.2419 14.0053 31.2663C14.1275 31.2663 14.2496 31.2663 14.3718 31.2663C16.7145 31.4064 19.0604 31.3208 21.4096 31.0096C21.7653 30.9573 22.1075 30.8595 22.436 30.7161C22.7264 30.537 22.7264 30.3659 22.436 30.2027C22.0789 30.0386 21.7124 29.9285 21.3363 29.8726Z"
        fill="#6E6E6E" />
    <path fill-rule="evenodd" clip-rule="evenodd"
        d="M17.0845 29.5791C17.5243 29.5791 17.9642 29.5791 18.404 29.5791C19.4099 29.7434 20.424 29.9146 21.4464 30.0926C21.6607 30.178 21.844 30.3002 21.9963 30.4593C21.9329 30.5838 21.8352 30.6694 21.703 30.7161C21.18 30.9012 20.6424 31.0234 20.0902 31.0829C18.1876 31.2388 16.2816 31.2999 14.372 31.2662C14.2498 31.2662 14.1276 31.2662 14.0054 31.2662C13.8099 31.2173 13.6145 31.1685 13.4189 31.1195C14.8968 31.208 16.363 31.208 17.8176 31.1195C18.549 31.026 19.2821 30.9404 20.0169 30.8628C20.2656 30.8043 20.51 30.7309 20.75 30.6427C20.9528 30.4301 20.9039 30.2834 20.6034 30.2026C19.405 29.8751 18.1832 29.7162 16.9378 29.7258C16.9623 29.6525 17.0112 29.6035 17.0845 29.5791Z"
        fill="#434343" />
    <path fill-rule="evenodd" clip-rule="evenodd"
        d="M14.5185 29.5791C14.5918 29.6035 14.6407 29.6525 14.6651 29.7258C13.7306 29.7482 12.802 29.8338 11.8793 29.9825C11.517 30.0461 11.1871 30.1806 10.8896 30.386C10.8525 30.4957 10.8891 30.5813 10.9996 30.6427C11.1159 30.706 11.2381 30.7549 11.3661 30.7894C12.0481 30.9199 12.7324 31.03 13.4188 31.1195C13.6144 31.1685 13.8098 31.2173 14.0053 31.2662C13.5166 31.2418 13.0279 31.2173 12.5391 31.1929C12.3276 31.2153 12.1321 31.1909 11.9526 31.1195C11.4405 31.0189 10.9273 30.8844 10.4131 30.7161C10.2139 30.6123 10.165 30.4656 10.2665 30.276C10.778 30.0379 11.3156 29.8912 11.8793 29.8358C12.7546 29.6984 13.6344 29.6128 14.5185 29.5791Z"
        fill="#525252" />
    <path fill-rule="evenodd" clip-rule="evenodd"
        d="M11.3661 29.7256C11.3448 29.8099 11.2837 29.8588 11.1829 29.8723C10.7317 29.9331 10.3041 30.0676 9.89992 30.2757C9.79839 30.4654 9.84728 30.6121 10.0465 30.7159C10.6608 30.9488 11.2961 31.0833 11.9526 31.1193C12.1321 31.1907 12.3276 31.2151 12.5391 31.1927C12.7728 31.3014 13.0172 31.3747 13.2722 31.4127C13.0767 31.4127 12.8812 31.4127 12.6857 31.4127C12.0869 31.4149 11.5004 31.3416 10.9263 31.1927C10.4392 31.0824 9.9505 30.9479 9.46006 30.7892C9.30317 30.7178 9.18097 30.6078 9.09351 30.4591C9.23631 30.2411 9.43176 30.0944 9.67999 30.019C10.2326 29.8644 10.7947 29.7666 11.3661 29.7256Z"
        fill="#797979" />
    <path fill-rule="evenodd" clip-rule="evenodd"
        d="M21.8496 29.6523C22.4216 29.6719 22.9836 29.7575 23.5357 29.9091C23.916 29.9642 24.2092 30.1476 24.4154 30.4592C24.1752 30.702 23.9065 30.9098 23.609 31.0827C21.1689 31.4562 18.713 31.6396 16.2413 31.6329C15.0387 31.6599 13.8535 31.5865 12.6858 31.4128C12.8813 31.4128 13.0768 31.4128 13.2723 31.4128C13.37 31.4128 13.4678 31.4128 13.5655 31.4128C16.2964 31.6273 19.0333 31.5662 21.7763 31.2295C22.4136 31.1129 23.0245 30.9173 23.609 30.6426C23.7353 30.3926 23.662 30.2215 23.3891 30.1291C22.8712 29.9573 22.358 29.7983 21.8496 29.6523Z"
        fill="#A1A1A1" />
    <path fill-rule="evenodd" clip-rule="evenodd"
        d="M16.9378 29.726C18.1832 29.7164 19.405 29.8753 20.6034 30.2028C20.9039 30.2836 20.9528 30.4303 20.75 30.6429C20.51 30.7311 20.2656 30.8044 20.0169 30.863C19.2821 30.9406 18.549 31.0262 17.8176 31.1197C16.8153 31.132 15.8135 31.1197 14.8118 31.083C14.3295 31.0772 13.8652 31.016 13.4189 30.8997C15.1038 31.0712 16.79 31.0834 18.4774 30.9363C18.9226 30.8947 19.3625 30.8213 19.7969 30.7163C20.3381 30.5907 20.3626 30.4195 19.8703 30.2028C19.7236 30.1661 19.577 30.1294 19.4304 30.0928C19.2858 30.1619 19.1514 30.1864 19.0272 30.1661C18.8941 30.1053 18.7597 30.0441 18.624 29.9827C18.0146 29.918 17.4036 29.8813 16.7912 29.8727C16.8156 29.7994 16.8645 29.7504 16.9378 29.726Z"
        fill="#212121" />
    <path fill-rule="evenodd" clip-rule="evenodd"
        d="M14.7385 29.7998C14.7874 29.7998 14.8118 29.8242 14.8118 29.8732C13.9517 29.8682 13.1208 30.0271 12.3193 30.35C12.2215 30.4233 12.2215 30.4967 12.3193 30.57C12.6845 30.716 13.051 30.826 13.4189 30.9001C12.774 30.9763 12.1754 30.854 11.6228 30.5333C11.5679 30.4501 11.5801 30.3767 11.6595 30.3133C11.8908 30.1913 12.1352 30.1057 12.3926 30.0565C13.1693 29.9203 13.9513 29.8347 14.7385 29.7998Z"
        fill="#202020" />
    <path fill-rule="evenodd" clip-rule="evenodd"
        d="M14.665 29.7256C14.7139 29.7256 14.7383 29.75 14.7383 29.7989C13.9511 29.8339 13.1691 29.9195 12.3924 30.0557C12.135 30.1048 11.8906 30.1904 11.6593 30.3124C11.5799 30.3759 11.5677 30.4492 11.6226 30.5325C12.1752 30.8531 12.7738 30.9754 13.4187 30.8992C13.865 31.0156 14.3292 31.0768 14.8116 31.0826C15.8133 31.1193 16.8151 31.1316 17.8174 31.1193C16.3628 31.2078 14.8966 31.2078 13.4187 31.1193C12.7323 31.0297 12.048 30.9197 11.366 30.7892C11.238 30.7547 11.1158 30.7057 10.9995 30.6425C10.889 30.5811 10.8524 30.4955 10.8895 30.3858C11.187 30.1804 11.5169 30.0458 11.8792 29.9823C12.8019 29.8336 13.7305 29.748 14.665 29.7256Z"
        fill="#373737" />
    <path fill-rule="evenodd" clip-rule="evenodd"
        d="M14.4453 29.5055C14.4942 29.5055 14.5186 29.53 14.5186 29.5789C13.6345 29.6126 12.7547 29.6982 11.8794 29.8356C11.3157 29.891 10.7781 30.0377 10.2666 30.2758C10.1651 30.4654 10.2139 30.6121 10.4132 30.7159C10.9274 30.8842 11.4406 31.0187 11.9527 31.1193C11.2962 31.0833 10.6609 30.9489 10.0467 30.7159C9.8474 30.6121 9.7985 30.4654 9.90003 30.2758C10.3042 30.0676 10.7318 29.9331 11.183 29.8723C11.2838 29.8588 11.3449 29.8099 11.3662 29.7256C11.8101 29.6979 12.2499 29.6368 12.6858 29.5422C13.2718 29.5055 13.8583 29.4934 14.4453 29.5055Z"
        fill="#696969" />
    <path fill-rule="evenodd" clip-rule="evenodd"
        d="M14.8117 29.8732C15.1514 30.2256 15.4813 30.5924 15.8014 30.9735C16.1215 30.5924 16.4514 30.2256 16.7911 29.8732C17.4034 29.8817 18.0144 29.9184 18.6238 29.9832C18.7595 30.0446 18.8939 30.1058 19.027 30.1666C19.1513 30.1868 19.2857 30.1624 19.4302 30.0932C19.5769 30.1299 19.7235 30.1666 19.8701 30.2033C20.3625 30.4199 20.338 30.5911 19.7968 30.7167C19.3624 30.8218 18.9225 30.8951 18.4772 30.9368C16.7898 31.0839 15.1037 31.0716 13.4188 30.9001C13.0509 30.826 12.6844 30.716 12.3191 30.57C12.2214 30.4967 12.2214 30.4233 12.3191 30.35C13.1206 30.0271 13.9515 29.8682 14.8117 29.8732Z"
        fill="#0E0E0E" />
    <path fill-rule="evenodd" clip-rule="evenodd"
        d="M18.4039 29.5791C19.3872 29.6247 20.3647 29.7225 21.3363 29.8725C21.7124 29.9285 22.0789 30.0385 22.436 30.2026C22.7264 30.3658 22.7264 30.537 22.436 30.7161C22.1075 30.8594 21.7653 30.9572 21.4096 31.0095C19.0604 31.3207 16.7145 31.4063 14.3718 31.2662C16.2814 31.2999 18.1875 31.2388 20.09 31.0829C20.6423 31.0234 21.1799 30.9012 21.7029 30.7161C21.835 30.6694 21.9328 30.5838 21.9961 30.4593C21.8438 30.3002 21.6606 30.178 21.4463 30.0926C20.4239 29.9146 19.4098 29.7434 18.4039 29.5791Z"
        fill="#5D5D5D" />
    <path fill-rule="evenodd" clip-rule="evenodd"
        d="M23.609 31.4863C22.6976 31.6516 21.769 31.7616 20.8232 31.8164C17.7558 32.0726 14.7012 32.0603 11.6594 31.7797C15.6514 31.9529 19.6346 31.8551 23.609 31.4863Z"
        fill="#EDEDED" />
</svg>