<svg width="32" height="32" viewBox="0 0 32 32" fill="none" xmlns="http://www.w3.org/2000/svg">
    <g clip-path="url(#clip0_5596_1033)">
        <path fill-rule="evenodd" clip-rule="evenodd"
            d="M-0.0710449 -0.0712891C10.5956 -0.0712891 21.2623 -0.0712891 31.929 -0.0712891C31.929 10.5954 31.929 21.262 31.929 31.9287C21.2623 31.9287 10.5956 31.9287 -0.0710449 31.9287C-0.0710449 21.262 -0.0710449 10.5954 -0.0710449 -0.0712891Z"
            fill="#F9F9F9" />
        <path fill-rule="evenodd" clip-rule="evenodd"
            d="M10.1688 7.0401C11.5341 6.98327 12.8615 7.1729 14.151 7.60899C13.3601 8.37581 12.6489 9.20544 12.0177 10.0979C7.60201 10.294 5.53979 12.5933 5.83104 16.9957C7.16425 20.6135 9.70054 21.9171 13.4399 20.9068C15.6266 19.8779 16.7644 18.1475 16.8533 15.7157C17.8488 15.7157 18.8444 15.7157 19.8399 15.7157C19.5462 20.4424 17.0811 23.3106 12.4444 24.3201C8.02144 24.6102 4.91624 22.7376 3.12882 18.7023C1.88129 14.4328 3.04278 10.9958 6.61327 8.39121C7.74703 7.75335 8.93221 7.30297 10.1688 7.0401Z"
            fill="#06AF5E" />
        <path fill-rule="evenodd" clip-rule="evenodd"
            d="M19.5556 7.03953C24.4233 6.90985 27.6233 9.138 29.1556 13.724C29.831 18.1326 28.2428 21.4274 24.3912 23.6084C22.1961 24.5249 19.9679 24.6198 17.7067 23.8929C18.5709 23.1242 19.3293 22.2708 19.9823 21.3329C23.795 21.312 25.8809 19.4157 26.24 15.644C26.0695 12.7228 24.5526 10.9214 21.6889 10.2395C18.3963 10.0008 16.2394 11.4467 15.2178 14.5773C15.1471 14.9536 15.1234 15.3329 15.1467 15.7151C14.1038 15.7151 13.0608 15.7151 12.0178 15.7151C12.458 11.009 14.9706 8.11718 19.5556 7.03953Z"
            fill="#D413A2" />
    </g>
    <defs>
        <clipPath id="clip0_5596_1033">
            <rect width="32" height="32" fill="white" />
        </clipPath>
    </defs>
</svg>