<svg width="32" height="32" viewBox="0 0 32 32" fill="none" xmlns="http://www.w3.org/2000/svg">
    <g clip-path="url(#clip0_5642_113)">
        <path fill-rule="evenodd" clip-rule="evenodd"
            d="M16.1627 0.237741C16.1627 2.10796 16.1627 3.97822 16.1627 5.84844C16.1227 5.96032 16.0592 6.05542 15.9724 6.13373C15.9882 4.52484 15.9723 2.92403 15.9248 1.33135C15.9888 0.886766 16.0205 0.442979 16.02 0C16.089 0.0684553 16.1366 0.147704 16.1627 0.237741Z"
            fill="#E15C13" />
        <path fill-rule="evenodd" clip-rule="evenodd"
            d="M16.1631 0.237305C16.4055 0.610735 16.6116 1.00697 16.7815 1.42601C16.7181 2.53546 16.7181 3.64495 16.7815 4.75439C16.6566 5.06755 16.5059 5.36867 16.3296 5.65781C16.2844 5.73355 16.229 5.79694 16.1631 5.848C16.1631 3.97779 16.1631 2.10752 16.1631 0.237305Z"
            fill="#DA5219" />
        <path fill-rule="evenodd" clip-rule="evenodd"
            d="M15.9245 1.33105C15.972 2.92373 15.9879 4.52454 15.9721 6.13343C15.863 6.33589 15.7203 6.5102 15.5439 6.65646C15.5439 5.32511 15.5439 3.99376 15.5439 2.66241C15.6855 2.22344 15.8124 1.77964 15.9245 1.33105Z"
            fill="#E16511" />
        <path fill-rule="evenodd" clip-rule="evenodd"
            d="M16.781 1.42676C17.225 2.53649 17.225 3.64593 16.781 4.75514C16.7175 3.64569 16.7175 2.5362 16.781 1.42676Z"
            fill="#DA421E" />
        <path fill-rule="evenodd" clip-rule="evenodd"
            d="M15.5446 2.66309C15.5446 3.99444 15.5446 5.32579 15.5446 6.65714C15.4517 6.82927 15.3249 6.97191 15.1641 7.08508C15.1641 5.84882 15.1641 4.61257 15.1641 3.37631C15.2796 3.12939 15.4064 2.89165 15.5446 2.66309Z"
            fill="#E1730B" />
        <path fill-rule="evenodd" clip-rule="evenodd"
            d="M18.0183 9.27193C18.0341 7.77397 18.0182 6.28409 17.9707 4.80239C18.1381 4.23319 18.1856 3.65467 18.1134 3.06688C18.1301 3.00711 18.1618 2.99123 18.2086 3.01933C19.6617 5.15976 19.5983 7.24399 18.0183 9.27193Z"
            fill="#DA2C25" />
        <path fill-rule="evenodd" clip-rule="evenodd"
            d="M15.1632 3.37598C15.1632 4.61223 15.1632 5.84849 15.1632 7.08474C15.0364 7.24322 14.8936 7.38587 14.7351 7.51268C14.7508 6.36334 14.735 5.22218 14.6875 4.0892C14.8477 3.85037 15.0062 3.61262 15.1632 3.37598Z"
            fill="#E18007" />
        <path fill-rule="evenodd" clip-rule="evenodd"
            d="M14.6876 4.08887C14.7351 5.22185 14.751 6.36301 14.7352 7.51234C14.5948 7.68442 14.4362 7.8429 14.2595 7.98783C14.2749 6.87482 14.259 5.76532 14.2119 4.65945C14.354 4.45418 14.5126 4.26399 14.6876 4.08887Z"
            fill="#E28C05" />
        <path fill-rule="evenodd" clip-rule="evenodd"
            d="M14.2118 4.66016C14.2588 5.76603 14.2747 6.87553 14.2593 7.98854C14.0829 8.16494 13.8927 8.32342 13.6885 8.46402C13.6885 7.35458 13.6885 6.24508 13.6885 5.13564C13.8629 4.97716 14.0373 4.81863 14.2118 4.66016Z"
            fill="#E79A00" />
        <path fill-rule="evenodd" clip-rule="evenodd"
            d="M13.6885 5.13477C13.6885 6.24421 13.6885 7.3537 13.6885 8.46315C13.4676 8.63603 13.2456 8.81039 13.0225 8.98618C13.0225 7.89257 13.0225 6.79896 13.0225 5.70535C13.2597 5.53156 13.4817 5.34136 13.6885 5.13477Z"
            fill="#E6A200" />
        <path fill-rule="evenodd" clip-rule="evenodd"
            d="M17.9706 4.80273C18.018 6.28443 18.0339 7.77431 18.0181 9.27227C17.8724 9.53151 17.6821 9.75337 17.4473 9.93795C17.4473 8.68586 17.4473 7.43372 17.4473 6.18163C17.6349 5.72726 17.8093 5.26761 17.9706 4.80273Z"
            fill="#DA3D1E" />
        <path fill-rule="evenodd" clip-rule="evenodd"
            d="M13.0225 5.70605C13.0225 6.79967 13.0225 7.89328 13.0225 8.98689C12.9468 9.08831 12.8516 9.16752 12.737 9.22463C12.6896 8.15508 12.6737 7.0773 12.6895 5.99134C12.7993 5.89763 12.9103 5.80253 13.0225 5.70605Z"
            fill="#E69C00" />
        <path fill-rule="evenodd" clip-rule="evenodd"
            d="M12.6902 5.99121C12.6745 7.07717 12.6904 8.15494 12.7378 9.22449C12.628 9.31821 12.517 9.41331 12.4048 9.50978C12.3577 8.43557 12.3419 7.35784 12.3572 6.2765C12.467 6.18278 12.578 6.08769 12.6902 5.99121Z"
            fill="#E69600" />
        <path fill-rule="evenodd" clip-rule="evenodd"
            d="M12.3564 6.27637C12.3411 7.35771 12.3569 8.43544 12.4039 9.50965C12.2603 9.65306 12.1017 9.77987 11.9282 9.89004C11.8812 8.81583 11.8653 7.7381 11.8806 6.65675C12.0243 6.51335 12.1829 6.38654 12.3564 6.27637Z"
            fill="#E28B05" />
        <path fill-rule="evenodd" clip-rule="evenodd"
            d="M17.4469 6.18164C17.4469 7.43373 17.4469 8.68587 17.4469 9.93796C17.3261 10.1164 17.1833 10.2748 17.0188 10.4134C17.0029 10.4134 16.9871 10.4134 16.9712 10.4134C16.9241 9.27585 16.9083 8.13469 16.9236 6.98996C17.0797 6.70748 17.2541 6.43802 17.4469 6.18164Z"
            fill="#DA5019" />
        <path fill-rule="evenodd" clip-rule="evenodd"
            d="M11.8808 6.65723C11.8655 7.73857 11.8813 8.8163 11.9284 9.89051C11.7698 10.0332 11.6112 10.1758 11.4526 10.3184C11.4056 9.2284 11.3897 8.13479 11.4051 7.03761C11.5487 6.89421 11.7073 6.7674 11.8808 6.65723Z"
            fill="#E17E09" />
        <path fill-rule="evenodd" clip-rule="evenodd"
            d="M11.405 7.03711C11.3897 8.13429 11.4055 9.2279 11.4526 10.3179C11.327 10.4275 11.2001 10.5385 11.072 10.6508C11.0245 9.56539 11.0087 8.47178 11.0244 7.36995C11.1219 7.22493 11.2488 7.11399 11.405 7.03711Z"
            fill="#E1710B" />
        <path fill-rule="evenodd" clip-rule="evenodd"
            d="M16.924 6.98926C16.9086 8.13398 16.9244 9.27514 16.9715 10.4127C16.9081 10.4761 16.8447 10.5395 16.7813 10.6029C16.7019 10.6663 16.6227 10.7297 16.5434 10.7931C16.5121 9.71068 16.4804 8.63295 16.4482 7.55984C16.5892 7.35547 16.7478 7.16528 16.924 6.98926Z"
            fill="#E06112" />
        <path fill-rule="evenodd" clip-rule="evenodd"
            d="M11.0251 7.37012C11.0094 8.47195 11.0252 9.56556 11.0727 10.6509C10.9638 10.8391 10.8211 10.9975 10.6445 11.1264C10.6445 9.98527 10.6445 8.84411 10.6445 7.70296C10.7516 7.57006 10.8785 7.45913 11.0251 7.37012Z"
            fill="#E16511" />
        <path fill-rule="evenodd" clip-rule="evenodd"
            d="M16.4477 7.56055C16.4799 8.63366 16.5116 9.71139 16.5428 10.7938C16.4289 10.9536 16.2862 11.0805 16.1147 11.1742C16.0834 10.1077 16.0517 9.04572 16.0195 7.98848C16.1464 7.83 16.2891 7.68736 16.4477 7.56055Z"
            fill="#E06D0E" />
        <path fill-rule="evenodd" clip-rule="evenodd"
            d="M10.6446 7.70312C10.6446 8.84428 10.6446 9.98544 10.6446 11.1266C10.5507 11.2684 10.4555 11.411 10.3591 11.5545C10.3116 10.3899 10.2958 9.21702 10.3116 8.03596C10.4067 7.90915 10.5177 7.79822 10.6446 7.70312Z"
            fill="#DD5817" />
        <path fill-rule="evenodd" clip-rule="evenodd"
            d="M16.02 7.98828C16.0522 9.04552 16.0838 10.1075 16.1151 11.174C15.9895 11.2836 15.8626 11.3945 15.7345 11.5069C15.6563 10.4636 15.6087 9.41749 15.5918 8.36867C15.7333 8.24324 15.876 8.11642 16.02 7.98828Z"
            fill="#E07A0B" />
        <path fill-rule="evenodd" clip-rule="evenodd"
            d="M10.3112 8.03613C10.2955 9.21718 10.3113 10.3901 10.3588 11.5547C10.2304 11.7302 10.1036 11.9045 9.97824 12.0777C9.99399 10.8491 9.97813 9.62876 9.93066 8.41652C10.0417 8.27387 10.1685 8.14706 10.3112 8.03613Z"
            fill="#DA4C19" />
        <path fill-rule="evenodd" clip-rule="evenodd"
            d="M9.93081 8.41602C9.97827 9.62826 9.99413 10.8486 9.97838 12.0772C9.83106 12.4192 9.67248 12.752 9.50265 13.0757C9.51841 11.7046 9.50256 10.3415 9.45508 8.9866C9.59605 8.78223 9.75462 8.59204 9.93081 8.41602Z"
            fill="#DA3E1E" />
        <path fill-rule="evenodd" clip-rule="evenodd"
            d="M15.5919 8.36816C15.6088 9.41698 15.6564 10.463 15.7347 11.5064C15.5275 11.6183 15.3689 11.7768 15.2589 11.9818C15.2062 11.9845 15.1586 12.0004 15.1162 12.0294C15.1158 11.9434 15.1396 11.8642 15.1876 11.7916C15.2114 10.7616 15.2193 9.73133 15.2114 8.701C15.3363 8.59055 15.4632 8.47957 15.5919 8.36816Z"
            fill="#E08605" />
        <path fill-rule="evenodd" clip-rule="evenodd"
            d="M15.2115 8.70117C15.2194 9.7315 15.2115 10.7617 15.1877 11.7918C15.1397 11.8643 15.1159 11.9436 15.1164 12.0296C14.9727 12.173 14.8141 12.2998 14.6406 12.4099C14.6872 11.3185 14.7031 10.2249 14.6882 9.12911C14.8476 8.96991 15.0221 8.82727 15.2115 8.70117Z"
            fill="#E69301" />
        <path fill-rule="evenodd" clip-rule="evenodd"
            d="M9.45534 8.98633C9.50282 10.3412 9.51868 11.7043 9.50292 13.0755C9.27088 13.8375 9.15988 14.6141 9.16991 15.4053C7.69895 13.4472 7.6593 11.4661 9.05097 9.46181C9.17534 9.29111 9.31013 9.13259 9.45534 8.98633Z"
            fill="#DA2B25" />
        <path fill-rule="evenodd" clip-rule="evenodd"
            d="M14.6876 9.12891C14.7025 10.2247 14.6866 11.3183 14.64 12.4097C14.4963 12.5531 14.3377 12.68 14.1643 12.7901C13.976 12.9148 13.8016 13.0574 13.641 13.2181C13.6381 13.1922 13.6223 13.1764 13.5934 13.1705C13.53 13.2181 13.4665 13.2656 13.4031 13.3132C13.3555 12.2835 13.3397 11.2532 13.3555 10.2225C13.7716 9.82235 14.2156 9.45785 14.6876 9.12891Z"
            fill="#E69F00" />
        <path fill-rule="evenodd" clip-rule="evenodd"
            d="M13.3557 10.2227C13.3399 11.2534 13.3557 12.2836 13.4033 13.3133C13.4667 13.2657 13.5302 13.2182 13.5936 13.1707C13.6225 13.1765 13.6383 13.1924 13.6412 13.2182C13.4488 13.4088 13.2585 13.599 13.0703 13.7888C13.069 12.691 13.069 11.5816 13.0703 10.4604C13.1374 10.3456 13.2326 10.2664 13.3557 10.2227Z"
            fill="#E69500" />
        <path fill-rule="evenodd" clip-rule="evenodd"
            d="M16.9717 10.4131C16.9875 10.4131 17.0034 10.4131 17.0193 10.4131C17.0327 10.4739 17.0644 10.5214 17.1144 10.5557C16.6903 11.2334 16.2463 11.8991 15.7824 12.5528C15.719 12.521 15.6714 12.4735 15.6396 12.4101C15.8577 12.0409 16.0876 11.6763 16.3295 11.3165C16.5061 11.0824 16.6884 10.8525 16.8765 10.6271C16.8483 10.605 16.8166 10.5971 16.7814 10.6033C16.8448 10.5399 16.9083 10.4765 16.9717 10.4131Z"
            fill="#98180E" />
        <path fill-rule="evenodd" clip-rule="evenodd"
            d="M13.0702 10.4609C13.0689 11.5821 13.0689 12.6916 13.0702 13.7893C12.9276 13.9399 12.7928 14.0984 12.6658 14.2648C12.6428 14.3099 12.6349 14.3574 12.642 14.4074C12.6103 14.4233 12.5786 14.4392 12.5469 14.455C12.5926 13.2675 12.6085 12.0788 12.5944 10.8889C12.7244 10.7113 12.8829 10.5687 13.0702 10.4609Z"
            fill="#E28A05" />
        <path fill-rule="evenodd" clip-rule="evenodd"
            d="M17.1143 10.5557C17.2423 10.668 17.3692 10.779 17.4948 10.8885C17.0627 11.5781 16.6187 12.2597 16.1628 12.9331C16.0201 12.8221 15.8932 12.6953 15.7822 12.5527C16.2462 11.899 16.6902 11.2334 17.1143 10.5557Z"
            fill="#AE1E16" />
        <path fill-rule="evenodd" clip-rule="evenodd"
            d="M17.4951 10.8887C17.6846 11.0148 17.859 11.1574 18.0184 11.3166C17.7969 11.7277 17.5511 12.1239 17.281 12.5053C17.0709 12.7857 16.8568 13.0552 16.6388 13.3136C16.4663 13.2046 16.3077 13.0778 16.1631 12.9332C16.6189 12.2598 17.063 11.5783 17.4951 10.8887Z"
            fill="#C6261E" />
        <path fill-rule="evenodd" clip-rule="evenodd"
            d="M12.5949 10.8887C12.6089 12.0786 12.5931 13.2673 12.5473 14.4548C12.4204 14.6608 12.2936 14.8669 12.1667 15.0729C12.1193 13.8448 12.1034 12.6086 12.1192 11.3642C12.2619 11.1898 12.4204 11.0313 12.5949 10.8887Z"
            fill="#E17E0A" />
        <path fill-rule="evenodd" clip-rule="evenodd"
            d="M16.7811 10.6036C16.8163 10.5974 16.848 10.6053 16.8763 10.6274C16.6882 10.8529 16.5058 11.0827 16.3292 11.3168C16.0873 11.6767 15.8574 12.0412 15.6394 12.4105C15.4795 12.2966 15.3526 12.1539 15.2588 11.9825C15.3688 11.7775 15.5273 11.619 15.7345 11.507C15.8626 11.3947 15.9895 11.2837 16.1151 11.1742C16.2866 11.0804 16.4293 10.9536 16.5433 10.7938C16.6226 10.7304 16.7018 10.667 16.7811 10.6036Z"
            fill="#861208" />
        <path fill-rule="evenodd" clip-rule="evenodd"
            d="M12.1189 11.3643C12.1031 12.6087 12.119 13.8449 12.1665 15.073C12.0622 15.218 11.9829 15.3765 11.9286 15.5485C11.8448 15.5847 11.7972 15.6482 11.7859 15.7387C11.7384 14.4314 11.7226 13.1158 11.7383 11.7922C11.8312 11.6201 11.958 11.4774 12.1189 11.3643Z"
            fill="#E0710B" />
        <path fill-rule="evenodd" clip-rule="evenodd"
            d="M18.0183 11.3164C18.4623 11.6492 18.9063 11.9821 19.3503 12.3149C19.3452 12.4235 19.3056 12.5186 19.2314 12.6002C18.7849 13.1969 18.3805 13.7992 18.0183 14.407C17.6486 14.1571 17.2839 13.8956 16.9241 13.6225C16.8192 13.5256 16.724 13.4227 16.6387 13.3134C16.8567 13.055 17.0707 12.7855 17.2809 12.5051C17.551 12.1237 17.7968 11.7275 18.0183 11.3164Z"
            fill="#D82B25" />
        <path fill-rule="evenodd" clip-rule="evenodd"
            d="M11.7383 11.792C11.7226 13.1156 11.7384 14.4312 11.7859 15.7385C11.5645 16.1358 11.4376 16.5637 11.4053 17.0223C11.3895 17.0223 11.3736 17.0223 11.3578 17.0223C11.356 15.4424 11.356 13.8575 11.3578 12.2675C11.468 12.0941 11.5949 11.9356 11.7383 11.792Z"
            fill="#E06511" />
        <path fill-rule="evenodd" clip-rule="evenodd"
            d="M19.3496 12.3154C19.4936 12.4436 19.6363 12.5704 19.7778 12.6958C19.335 13.3914 18.8751 14.073 18.3982 14.7404C18.2515 14.6514 18.1247 14.5405 18.0176 14.4076C18.3798 13.7997 18.7842 13.1975 19.2307 12.6007C19.3048 12.5191 19.3445 12.424 19.3496 12.3154Z"
            fill="#CD2920" />
        <path fill-rule="evenodd" clip-rule="evenodd"
            d="M11.3574 12.2676C11.3557 13.8576 11.3557 15.4425 11.3574 17.0224C11.3187 17.3856 11.3029 17.7501 11.3099 18.116C11.3099 18.2111 11.3099 18.3062 11.3099 18.4013C11.1909 18.2589 11.0958 18.1005 11.0244 17.9258C11.0244 16.2141 11.0244 14.5023 11.0244 12.7906C11.0999 12.5917 11.2109 12.4174 11.3574 12.2676Z"
            fill="#DC5817" />
        <path fill-rule="evenodd" clip-rule="evenodd"
            d="M19.778 12.6953C19.9565 12.8161 20.1151 12.9588 20.2538 13.1232C19.808 13.7644 19.364 14.4301 18.9217 15.1203C18.7216 15.0283 18.5472 14.9015 18.3984 14.7399C18.8754 14.0725 19.3352 13.3909 19.778 12.6953Z"
            fill="#B52119" />
        <path fill-rule="evenodd" clip-rule="evenodd"
            d="M11.0251 12.79C11.0251 14.5018 11.0251 16.2135 11.0251 17.9253C10.8621 17.7105 10.7353 17.4728 10.6445 17.212C10.6453 15.9454 10.6453 14.6933 10.6445 13.4557C10.7235 13.2024 10.8503 12.9806 11.0251 12.79Z"
            fill="#DA4D19" />
        <path fill-rule="evenodd" clip-rule="evenodd"
            d="M14.4022 13.0762C14.4994 13.1275 14.5628 13.2067 14.5925 13.3139C14.0516 13.8387 13.5442 14.3934 13.0702 14.9781C12.973 14.9268 12.9096 14.8475 12.8799 14.7404C13.3975 14.1985 13.905 13.6439 14.4022 13.0762Z"
            fill="#98190D" />
        <path fill-rule="evenodd" clip-rule="evenodd"
            d="M20.2539 13.123C20.4478 13.2534 20.6064 13.412 20.7296 13.5985C20.7296 13.6461 20.7296 13.6936 20.7296 13.7412C20.6921 13.6884 20.6683 13.6251 20.6583 13.551C20.6359 13.6922 20.5804 13.8191 20.4918 13.9314C20.0874 14.4459 19.7227 14.9848 19.3976 15.548C19.2371 15.4049 19.0785 15.2622 18.9219 15.1201C19.3641 14.4299 19.8082 13.7642 20.2539 13.123Z"
            fill="#9C190F" />
        <path fill-rule="evenodd" clip-rule="evenodd"
            d="M14.5926 13.3135C14.7207 13.4258 14.8476 13.5368 14.9732 13.6463C14.9125 13.7628 14.8411 13.8737 14.7591 13.9792C14.3002 14.43 13.8482 14.8896 13.4033 15.3581C13.2582 15.2606 13.1472 15.1338 13.0703 14.9777C13.5443 14.3929 14.0517 13.8382 14.5926 13.3135Z"
            fill="#AE1E16" />
        <path fill-rule="evenodd" clip-rule="evenodd"
            d="M10.6437 13.4561C10.6444 14.6936 10.6444 15.9457 10.6437 17.2124C10.0745 15.9596 10.0745 14.7075 10.6437 13.4561Z"
            fill="#DA3E1E" />
        <path fill-rule="evenodd" clip-rule="evenodd"
            d="M20.8728 13.7891C20.9721 13.8764 21.0355 13.9873 21.063 14.1219C21.063 15.7861 21.063 17.4503 21.063 19.1145C21.0226 19.2277 20.9591 19.3228 20.8728 19.3998C20.8093 17.5295 20.8093 15.6593 20.8728 13.7891Z"
            fill="#C13338" />
        <path fill-rule="evenodd" clip-rule="evenodd"
            d="M14.9732 13.6465C15.1172 13.7746 15.2599 13.9014 15.4014 14.0269C14.8941 14.6152 14.3708 15.2175 13.8315 15.8337C13.6549 15.7048 13.5122 15.5463 13.4033 15.3582C13.8482 14.8898 14.3002 14.4301 14.7591 13.9793C14.8411 13.8739 14.9125 13.763 14.9732 13.6465Z"
            fill="#C4251E" />
        <path fill-rule="evenodd" clip-rule="evenodd"
            d="M20.7295 13.741C20.7484 14.1484 20.7167 14.5446 20.6344 14.9297C20.6406 14.8945 20.6326 14.8628 20.6106 14.8346C20.582 14.9837 20.5344 15.1264 20.4678 15.2625C20.2736 15.5114 20.0912 15.7651 19.9208 16.0233C19.7451 15.8634 19.5707 15.705 19.3975 15.5478C19.7225 14.9846 20.0872 14.4457 20.4916 13.9312C20.5802 13.8189 20.6357 13.692 20.6581 13.5508C20.6681 13.6249 20.6919 13.6882 20.7295 13.741Z"
            fill="#851007" />
        <path fill-rule="evenodd" clip-rule="evenodd"
            d="M14.1645 12.79C14.2438 12.8851 14.3231 12.9802 14.4024 13.0753C13.9051 13.643 13.3977 14.1977 12.88 14.7395C12.7838 14.6429 12.7045 14.532 12.6422 14.4067C12.6351 14.3567 12.643 14.3091 12.6659 14.264C12.7929 14.0976 12.9277 13.9391 13.0703 13.7886C13.2586 13.5988 13.4489 13.4086 13.6412 13.218C13.8018 13.0574 13.9762 12.9147 14.1645 12.79Z"
            fill="#861108" />
        <path fill-rule="evenodd" clip-rule="evenodd"
            d="M21.0625 14.1221C21.1809 14.2631 21.276 14.4216 21.3479 14.5976C21.2845 15.9447 21.2845 17.292 21.3479 18.6392C21.276 18.8151 21.1809 18.9736 21.0625 19.1146C21.0625 17.4505 21.0625 15.7863 21.0625 14.1221Z"
            fill="#C83232" />
        <path fill-rule="evenodd" clip-rule="evenodd"
            d="M15.4019 14.0264C16.0511 14.5169 16.6854 15.0241 17.3048 15.5479C16.7524 16.1478 16.1974 16.7501 15.6398 17.3547C14.9942 16.8998 14.3916 16.3926 13.832 15.8332C14.3714 15.217 14.8947 14.6147 15.4019 14.0264Z"
            fill="#D72B24" />
        <path fill-rule="evenodd" clip-rule="evenodd"
            d="M21.3483 14.5977C21.4276 14.7878 21.5069 14.978 21.5862 15.1682C21.5228 16.1509 21.5228 17.1335 21.5862 18.1162C21.5199 18.2962 21.4407 18.4706 21.3483 18.6393C21.2849 17.2921 21.2849 15.9448 21.3483 14.5977Z"
            fill="#CF322B" />
        <path fill-rule="evenodd" clip-rule="evenodd"
            d="M20.7294 13.5986C20.8132 13.6349 20.8607 13.6983 20.8721 13.7888C20.8087 15.659 20.8087 17.5293 20.8721 19.3995C20.8478 19.5504 20.7685 19.6614 20.6342 19.7324C20.6025 18.3217 20.5708 16.9112 20.5391 15.5006C20.5752 15.3115 20.6069 15.1213 20.6342 14.93C20.7166 14.5449 20.7483 14.1487 20.7294 13.7413C20.7294 13.6937 20.7294 13.6462 20.7294 13.5986Z"
            fill="#B8373D" />
        <path fill-rule="evenodd" clip-rule="evenodd"
            d="M21.5856 15.168C21.9028 16.1506 21.9028 17.1333 21.5856 18.116C21.5222 17.1333 21.5222 16.1506 21.5856 15.168Z"
            fill="#D82B25" />
        <path fill-rule="evenodd" clip-rule="evenodd"
            d="M20.6345 14.9301C20.6071 15.1213 20.5755 15.3115 20.5393 15.5006C20.4759 15.675 20.4125 15.8493 20.3491 16.0237C20.3028 16.1488 20.2394 16.2597 20.1588 16.3565C20.0598 16.2579 19.9806 16.147 19.9209 16.0237C20.0914 15.7654 20.2737 15.5118 20.468 15.2629C20.5345 15.1268 20.5821 14.9841 20.6107 14.835C20.6328 14.8632 20.6407 14.8949 20.6345 14.9301Z"
            fill="#6C0901" />
        <path fill-rule="evenodd" clip-rule="evenodd"
            d="M17.3047 15.5479C17.521 15.6527 17.7113 15.7954 17.8756 15.9758C17.3232 16.5756 16.7682 17.1779 16.2105 17.7826C15.9922 17.6751 15.8019 17.5324 15.6396 17.3547C16.1972 16.7501 16.7522 16.1478 17.3047 15.5479Z"
            fill="#C1251C" />
        <path fill-rule="evenodd" clip-rule="evenodd"
            d="M20.5389 15.501C20.5707 16.9116 20.6023 18.3222 20.6341 19.7328C20.5729 19.8572 20.4936 19.9681 20.3962 20.0656C20.412 18.7102 20.3961 17.3631 20.3486 16.024C20.412 15.8496 20.4755 15.6753 20.5389 15.501Z"
            fill="#B03743" />
        <path fill-rule="evenodd" clip-rule="evenodd"
            d="M20.3492 16.0234C20.3967 17.3625 20.4125 18.7097 20.3968 20.065C20.3396 20.1796 20.2604 20.2747 20.1589 20.3503C20.1746 19.0583 20.1588 17.7745 20.1113 16.4989C20.114 16.4462 20.1299 16.3986 20.1589 16.3563C20.2395 16.2595 20.303 16.1486 20.3492 16.0234Z"
            fill="#AC3C4A" />
        <path fill-rule="evenodd" clip-rule="evenodd"
            d="M17.875 15.9766C18.0336 16.1192 18.1922 16.2619 18.3507 16.4045C17.8154 17.0034 17.2762 17.6057 16.7333 18.2113C16.5438 18.0852 16.3694 17.9426 16.21 17.7834C16.7677 17.1786 17.3227 16.5764 17.875 15.9766Z"
            fill="#A81C14" />
        <path fill-rule="evenodd" clip-rule="evenodd"
            d="M21.9665 23.7267C21.9823 22.5139 21.9664 21.3094 21.9189 20.113C22.6017 19.0155 22.9188 17.8268 22.8704 16.5469C24.3524 18.6398 24.3286 20.716 22.799 22.7757C22.5443 23.1171 22.2668 23.4341 21.9665 23.7267Z"
            fill="#D92B25" />
        <path fill-rule="evenodd" clip-rule="evenodd"
            d="M12.5949 16.4043C12.7217 16.4994 12.8327 16.6103 12.9279 16.7371C12.5586 17.4595 12.178 18.1728 11.7861 18.8768C11.6593 18.7817 11.5483 18.6708 11.4531 18.544C11.8538 17.8213 12.2344 17.1081 12.5949 16.4043Z"
            fill="#BA231A" />
        <path fill-rule="evenodd" clip-rule="evenodd"
            d="M20.111 16.499C20.1585 17.7746 20.1744 19.0585 20.1586 20.3504C20.111 20.4297 20.0476 20.4931 19.9683 20.5406C19.9064 19.2955 19.9064 18.0434 19.9683 16.7843C19.9917 16.674 20.0393 16.579 20.111 16.499Z"
            fill="#A33E51" />
        <path fill-rule="evenodd" clip-rule="evenodd"
            d="M12.1189 15.8809C12.1982 15.9284 12.2616 15.9918 12.3092 16.0711C11.989 16.7587 11.656 17.4403 11.3102 18.1156C11.3032 17.7497 11.3191 17.3852 11.3578 17.022C11.3736 17.022 11.3895 17.022 11.4053 17.022C11.3982 17.072 11.4061 17.1196 11.4291 17.1647C11.6589 16.737 11.8889 16.309 12.1189 15.8809Z"
            fill="#861108" />
        <path fill-rule="evenodd" clip-rule="evenodd"
            d="M11.9282 15.5479C11.9903 15.658 12.0537 15.769 12.1184 15.8807C11.8884 16.3089 11.6585 16.7368 11.4286 17.1645C11.4057 17.1194 11.3978 17.0719 11.4049 17.0218C11.4372 16.5633 11.564 16.1354 11.7854 15.738C11.7968 15.6475 11.8443 15.5841 11.9282 15.5479Z"
            fill="#710C01" />
        <path fill-rule="evenodd" clip-rule="evenodd"
            d="M19.9684 16.7842C19.9064 18.0433 19.9064 19.2953 19.9684 20.5405C19.9208 20.6198 19.8574 20.6831 19.7781 20.7307C19.7306 19.5502 19.7147 18.3615 19.7305 17.1646C19.7866 17.02 19.8659 16.8933 19.9684 16.7842Z"
            fill="#9C4257" />
        <path fill-rule="evenodd" clip-rule="evenodd"
            d="M18.8267 16.8799C18.9282 16.9555 19.0075 17.0506 19.0646 17.1652C18.5209 17.7098 17.9976 18.2804 17.4947 18.8769C17.3996 18.8135 17.3203 18.7343 17.2568 18.6392C17.7951 18.0694 18.3184 17.4829 18.8267 16.8799Z"
            fill="#7E0E06" />
        <path fill-rule="evenodd" clip-rule="evenodd"
            d="M12.9279 16.7373C13.5641 17.245 14.1984 17.7522 14.8308 18.2588C14.4162 18.98 14.0197 19.709 13.6415 20.4461C12.977 19.979 12.3585 19.456 11.7861 18.877C12.178 18.1729 12.5586 17.4597 12.9279 16.7373Z"
            fill="#D82A24" />
        <path fill-rule="evenodd" clip-rule="evenodd"
            d="M18.3509 16.4043C18.5253 16.5469 18.6839 16.7054 18.8266 16.8798C18.3182 17.4828 17.7949 18.0692 17.2567 18.6391C17.0716 18.5073 16.8972 18.3647 16.7334 18.2111C17.2763 17.6055 17.8155 17.0032 18.3509 16.4043Z"
            fill="#8F140B" />
        <path fill-rule="evenodd" clip-rule="evenodd"
            d="M12.3096 16.0713C12.4033 16.181 12.4985 16.292 12.595 16.4041C12.2345 17.1079 11.8539 17.8211 11.4533 18.5438C11.3899 18.5121 11.3423 18.4645 11.3105 18.4012C11.3105 18.3061 11.3105 18.211 11.3105 18.1159C11.6564 17.4405 11.9894 16.759 12.3096 16.0713Z"
            fill="#A11B10" />
        <path fill-rule="evenodd" clip-rule="evenodd"
            d="M19.065 17.165C19.1944 17.2468 19.2895 17.3578 19.3505 17.4979C18.9269 17.9771 18.4908 18.4526 18.0422 18.9243C18.0192 18.9694 18.0113 19.0169 18.0184 19.067C17.9867 19.0987 17.955 19.1304 17.9233 19.1621C17.8915 19.1621 17.8599 19.1621 17.8281 19.1621C17.7159 19.0656 17.6049 18.9705 17.4951 18.8768C17.998 18.2803 18.5213 17.7097 19.065 17.165Z"
            fill="#6F0A00" />
        <path fill-rule="evenodd" clip-rule="evenodd"
            d="M19.731 17.165C19.7153 18.3619 19.7311 19.5506 19.7786 20.7312C19.7349 20.8543 19.6556 20.9494 19.5407 21.0165C19.5565 19.8354 19.5406 18.6625 19.4932 17.4979C19.5614 17.3768 19.6406 17.2658 19.731 17.165Z"
            fill="#96445D" />
        <path fill-rule="evenodd" clip-rule="evenodd"
            d="M19.493 17.498C19.5405 18.6627 19.5563 19.8356 19.5406 21.0166C19.4613 21.08 19.382 21.1434 19.3027 21.2068C19.3027 20.0815 19.3027 18.9562 19.3027 17.8309C19.3503 17.7358 19.3979 17.6407 19.4455 17.5456C19.4772 17.5456 19.493 17.5298 19.493 17.498Z"
            fill="#904563" />
        <path fill-rule="evenodd" clip-rule="evenodd"
            d="M19.3502 17.498C19.3819 17.5139 19.4136 17.5298 19.4453 17.5456C19.3977 17.6407 19.3502 17.7358 19.3026 17.8309C19.2075 17.8943 19.1282 17.9735 19.0647 18.0686C18.922 18.2271 18.7793 18.3856 18.6366 18.5441C18.4609 18.704 18.2865 18.8624 18.1133 19.0196C18.0816 19.0354 18.0499 19.0513 18.0181 19.0671C18.0111 19.0171 18.0189 18.9696 18.0419 18.9245C18.4905 18.4527 18.9266 17.9772 19.3502 17.498Z"
            fill="#650907" />
        <path fill-rule="evenodd" clip-rule="evenodd"
            d="M19.3028 17.8311C19.3028 18.9564 19.3028 20.0817 19.3028 21.207C19.2552 21.2862 19.1918 21.3496 19.1125 21.3972C19.066 20.2842 19.0502 19.1747 19.0649 18.0688C19.1283 17.9737 19.2076 17.8944 19.3028 17.8311Z"
            fill="#874A69" />
        <path fill-rule="evenodd" clip-rule="evenodd"
            d="M14.8309 18.2588C14.9563 18.3211 15.0673 18.4004 15.1639 18.4965C14.7879 19.2526 14.3914 19.9976 13.9746 20.7313C13.8624 20.6348 13.7514 20.5397 13.6416 20.446C14.0199 19.709 14.4163 18.9799 14.8309 18.2588Z"
            fill="#CD2920" />
        <path fill-rule="evenodd" clip-rule="evenodd"
            d="M19.0649 18.0684C19.0501 19.1743 19.066 20.2838 19.1124 21.3967C18.9985 21.5565 18.8558 21.6834 18.6843 21.7771C18.6988 20.678 18.683 19.6003 18.6367 18.5438C18.7794 18.3854 18.9222 18.2268 19.0649 18.0684Z"
            fill="#7E4B71" />
        <path fill-rule="evenodd" clip-rule="evenodd"
            d="M15.1639 18.4961C15.2927 18.6075 15.4196 18.7185 15.5445 18.8289C15.161 19.5755 14.7804 20.3205 14.4028 21.0637C14.2464 20.9709 14.1037 20.86 13.9746 20.7309C14.3914 19.9971 14.7879 19.2522 15.1639 18.4961Z"
            fill="#B42119" />
        <path fill-rule="evenodd" clip-rule="evenodd"
            d="M18.6366 18.5439C18.6829 19.6004 18.6987 20.6782 18.6842 21.7772C18.5247 21.9364 18.3503 22.0791 18.1609 22.2052C18.1766 21.135 18.1607 20.0731 18.1133 19.0194C18.2865 18.8623 18.4609 18.7038 18.6366 18.5439Z"
            fill="#6D5180" />
        <path fill-rule="evenodd" clip-rule="evenodd"
            d="M15.5441 18.8291C15.7003 18.906 15.8272 19.0169 15.9247 19.1619C15.5432 19.8928 15.1627 20.6218 14.7829 21.3492C14.656 21.2541 14.5292 21.159 14.4023 21.0639C14.78 20.3206 15.1606 19.5757 15.5441 18.8291Z"
            fill="#9C190F" />
        <path fill-rule="evenodd" clip-rule="evenodd"
            d="M18.1131 19.0195C18.1606 20.0732 18.1765 21.1351 18.1607 22.2053C18.1162 22.2754 18.0527 22.3229 17.9704 22.3479C17.9549 21.2903 17.9707 20.2363 18.018 19.186C17.9897 19.1639 17.958 19.1559 17.9229 19.1622C17.9546 19.1305 17.9863 19.0988 18.018 19.0671C18.0497 19.0512 18.0814 19.0354 18.1131 19.0195Z"
            fill="#645689" />
        <path fill-rule="evenodd" clip-rule="evenodd"
            d="M17.8278 19.1622C17.8595 19.1622 17.8912 19.1622 17.9229 19.1622C17.9581 19.156 17.9898 19.1639 18.0181 19.186C17.9708 20.2364 17.9549 21.2904 17.9705 22.3479C17.8772 22.4267 17.7821 22.5059 17.6851 22.5857C17.638 21.5115 17.6222 20.4337 17.6375 19.3524C17.7155 19.3061 17.7789 19.2428 17.8278 19.1622Z"
            fill="#5B5690" />
        <path fill-rule="evenodd" clip-rule="evenodd"
            d="M16.1154 19.3047C16.2105 19.384 16.3057 19.4632 16.4008 19.5424C16.1328 19.9984 15.9108 20.4581 15.7348 20.9213C15.6409 20.9834 15.5617 21.0627 15.4969 21.1591C15.3512 21.305 15.1926 21.4319 15.0212 21.5395C14.9895 21.5395 14.9736 21.5236 14.9736 21.4919C15.3792 20.7763 15.7598 20.0472 16.1154 19.3047Z"
            fill="#7C0E05" />
        <path fill-rule="evenodd" clip-rule="evenodd"
            d="M17.6377 19.3525C17.6224 20.4339 17.6382 21.5116 17.6853 22.5858C17.5755 22.6795 17.4645 22.7746 17.3523 22.8711C17.3049 21.8016 17.289 20.7238 17.3047 19.6378C17.4145 19.5441 17.5255 19.449 17.6377 19.3525Z"
            fill="#4E5C9A" />
        <path fill-rule="evenodd" clip-rule="evenodd"
            d="M15.9249 19.1621C16.0155 19.1734 16.079 19.221 16.1152 19.3048C15.7596 20.0473 15.3791 20.7764 14.9735 21.492C14.8912 21.467 14.8277 21.4194 14.7832 21.3493C15.1629 20.622 15.5435 19.8929 15.9249 19.1621Z"
            fill="#8A120A" />
        <path fill-rule="evenodd" clip-rule="evenodd"
            d="M16.4004 19.542C16.526 19.6992 16.6687 19.8418 16.8285 19.9699C16.8285 20.0016 16.8285 20.0333 16.8285 20.065C16.5628 20.2215 16.3249 20.4117 16.115 20.6356C15.9746 20.7124 15.8478 20.8075 15.7344 20.9209C15.9103 20.4576 16.1324 19.998 16.4004 19.542Z"
            fill="#690802" />
        <path fill-rule="evenodd" clip-rule="evenodd"
            d="M17.3048 19.6377C17.2891 20.7237 17.305 21.8014 17.3524 22.871C17.1957 22.9973 17.0371 23.124 16.8767 23.2514C16.8924 22.1812 16.8765 21.1193 16.8291 20.0656C16.8291 20.0339 16.8291 20.0022 16.8291 19.9705C16.9877 19.8596 17.1463 19.7486 17.3048 19.6377Z"
            fill="#4161A6" />
        <path fill-rule="evenodd" clip-rule="evenodd"
            d="M16.8288 20.0654C16.8763 21.1191 16.8921 22.181 16.8764 23.2512C16.6808 23.4629 16.4588 23.6373 16.2104 23.7742C16.2183 22.7597 16.2104 21.7454 16.1866 20.7311C16.1734 20.6876 16.1496 20.6559 16.1152 20.636C16.3252 20.4121 16.563 20.2219 16.8288 20.0654Z"
            fill="#3465B3" />
        <path fill-rule="evenodd" clip-rule="evenodd"
            d="M21.9188 20.1133C21.9663 21.3096 21.9822 22.5142 21.9664 23.727C21.903 23.7745 21.8395 23.822 21.7761 23.8696C21.7286 22.7208 21.7128 21.5638 21.7285 20.3986C21.7685 20.2867 21.832 20.1916 21.9188 20.1133Z"
            fill="#CF312B" />
        <path fill-rule="evenodd" clip-rule="evenodd"
            d="M21.7291 20.3984C21.7133 21.5637 21.7292 22.7206 21.7766 23.8695C21.7154 24.0099 21.6203 24.1208 21.4912 24.2023C21.4912 23.0453 21.4912 21.8883 21.4912 20.7313C21.5524 20.6068 21.6317 20.4959 21.7291 20.3984Z"
            fill="#C93232" />
        <path fill-rule="evenodd" clip-rule="evenodd"
            d="M21.4908 20.7314C21.4908 21.8884 21.4908 23.0455 21.4908 24.2025C21.4292 24.2494 21.3658 24.297 21.3005 24.3451C21.3162 23.2116 21.3004 22.0863 21.2529 20.9692C21.3163 20.8741 21.3956 20.7948 21.4908 20.7314Z"
            fill="#C23238" />
        <path fill-rule="evenodd" clip-rule="evenodd"
            d="M16.1155 20.6357C16.1499 20.6556 16.1737 20.6873 16.1869 20.7308C16.2107 21.7451 16.2186 22.7594 16.2107 23.7739C16.0838 23.9324 15.9411 24.0751 15.7825 24.2019C15.7429 23.1798 15.7191 22.1495 15.7111 21.1112C15.6953 21.0954 15.6794 21.0795 15.6636 21.0637C15.6248 21.1266 15.5692 21.1583 15.4971 21.1588C15.5618 21.0624 15.6411 20.9831 15.7349 20.921C15.8483 20.8076 15.9752 20.7125 16.1155 20.6357Z"
            fill="#1E6EC5" />
        <path fill-rule="evenodd" clip-rule="evenodd"
            d="M21.2528 20.9688C21.3003 22.0858 21.3161 23.2112 21.3004 24.3447C21.2528 24.4239 21.1894 24.4873 21.1101 24.5349C21.1254 23.4219 21.1095 22.3124 21.0625 21.2065C21.115 21.1167 21.1784 21.0375 21.2528 20.9688Z"
            fill="#BA373C" />
        <path fill-rule="evenodd" clip-rule="evenodd"
            d="M15.7822 24.2017C15.4638 24.5835 15.1625 24.9797 14.8783 25.3904C14.8466 24.2017 14.8149 23.013 14.7832 21.8242C14.8625 21.7292 14.9418 21.6341 15.0211 21.539C15.1925 21.4314 15.351 21.3045 15.4968 21.1586C15.569 21.1581 15.6245 21.1264 15.6633 21.0635C15.6791 21.0793 15.695 21.0952 15.7109 21.111C15.7189 22.1493 15.7427 23.1796 15.7822 24.2017Z"
            fill="#126FCD" />
        <path fill-rule="evenodd" clip-rule="evenodd"
            d="M21.0624 21.2061C21.1094 22.3119 21.1253 23.4214 21.1099 24.5344C21.0318 24.5964 20.9525 24.6598 20.8721 24.7246C20.8721 23.6152 20.8721 22.5057 20.8721 21.3962C20.9196 21.317 20.9831 21.2536 21.0624 21.2061Z"
            fill="#B33844" />
        <path fill-rule="evenodd" clip-rule="evenodd"
            d="M20.8724 21.3965C20.8724 22.5059 20.8724 23.6154 20.8724 24.7249C20.8248 24.8041 20.7614 24.8675 20.6821 24.9151C20.6351 23.825 20.6192 22.7314 20.6346 21.6342C20.698 21.5391 20.7773 21.4599 20.8724 21.3965Z"
            fill="#AA3D4B" />
        <path fill-rule="evenodd" clip-rule="evenodd"
            d="M20.6343 21.6348C20.619 22.7319 20.6349 23.8256 20.6819 24.9156C20.6026 24.979 20.5234 25.0424 20.4441 25.1058C20.4598 24.0198 20.4439 22.9421 20.3965 21.8725C20.4599 21.7774 20.5392 21.6981 20.6343 21.6348Z"
            fill="#A33E51" />
        <path fill-rule="evenodd" clip-rule="evenodd"
            d="M14.7832 21.8242C14.8149 23.0129 14.8466 24.2016 14.8784 25.3903C14.1523 26.4702 13.8352 27.6589 13.9269 28.9565C13.8655 28.9677 13.8179 28.9519 13.7842 28.9089C13.8317 26.9358 13.8475 24.9547 13.8318 22.9654C14.0954 22.5431 14.4126 22.1627 14.7832 21.8242Z"
            fill="#0C6AC8" />
        <path fill-rule="evenodd" clip-rule="evenodd"
            d="M20.3961 21.8721C20.4436 22.9416 20.4595 24.0194 20.4437 25.1054C20.3803 25.1529 20.3168 25.2005 20.2534 25.248C20.2064 24.1738 20.1905 23.0961 20.2058 22.0147C20.2421 21.9309 20.3056 21.8834 20.3961 21.8721Z"
            fill="#9C4157" />
        <path fill-rule="evenodd" clip-rule="evenodd"
            d="M20.2068 22.0146C20.1914 23.096 20.2073 24.1737 20.2543 25.2479C20.1252 25.377 19.9825 25.488 19.8262 25.5808C19.8262 24.4872 19.8262 23.3935 19.8262 22.2999C19.9512 22.2054 20.0781 22.1103 20.2068 22.0146Z"
            fill="#944462" />
        <path fill-rule="evenodd" clip-rule="evenodd"
            d="M19.8258 22.2998C19.8258 23.3934 19.8258 24.487 19.8258 25.5806C19.7476 25.6426 19.6683 25.706 19.5879 25.7708C19.5879 24.6931 19.5879 23.6153 19.5879 22.5375C19.6513 22.4424 19.7306 22.3632 19.8258 22.2998Z"
            fill="#884B68" />
        <path fill-rule="evenodd" clip-rule="evenodd"
            d="M19.5876 22.5381C19.5876 23.6159 19.5876 24.6936 19.5876 25.7714C19.4778 25.8651 19.3668 25.9602 19.2546 26.0567C19.2699 24.9753 19.2541 23.8976 19.207 22.8234C19.3202 22.7103 19.447 22.6152 19.5876 22.5381Z"
            fill="#7E4B71" />
        <path fill-rule="evenodd" clip-rule="evenodd"
            d="M19.2073 22.8232C19.2544 23.8975 19.2702 24.9752 19.2549 26.0565C19.1574 26.1539 19.0464 26.2331 18.9219 26.2943C18.9219 25.2165 18.9219 24.1388 18.9219 23.061C18.988 22.9473 19.0832 22.8681 19.2073 22.8232Z"
            fill="#74517B" />
        <path fill-rule="evenodd" clip-rule="evenodd"
            d="M13.8311 22.9658C13.8469 24.9551 13.831 26.9362 13.7835 28.9094C13.7004 28.7274 13.6053 28.5531 13.498 28.3863C13.5615 26.738 13.5615 25.0897 13.498 23.4413C13.5862 23.2644 13.6972 23.1059 13.8311 22.9658Z"
            fill="#0C63C8" />
        <path fill-rule="evenodd" clip-rule="evenodd"
            d="M18.9215 23.0605C18.9215 24.1383 18.9215 25.2161 18.9215 26.2938C18.8698 26.3931 18.7906 26.4564 18.6836 26.484C18.6836 25.4062 18.6836 24.3285 18.6836 23.2507C18.7523 23.1764 18.8316 23.113 18.9215 23.0605Z"
            fill="#6B5183" />
        <path fill-rule="evenodd" clip-rule="evenodd"
            d="M18.6843 23.251C18.6843 24.3288 18.6843 25.4065 18.6843 26.4843C18.5733 26.6269 18.4464 26.7537 18.3037 26.8646C18.3037 25.7552 18.3037 24.6457 18.3037 23.5363C18.416 23.4244 18.5429 23.3293 18.6843 23.251Z"
            fill="#5F568D" />
        <path fill-rule="evenodd" clip-rule="evenodd"
            d="M13.4988 23.4414C13.5622 25.0898 13.5622 26.7381 13.4988 28.3864C12.5499 26.7371 12.5499 25.0888 13.4988 23.4414Z"
            fill="#0A64C1" />
        <path fill-rule="evenodd" clip-rule="evenodd"
            d="M18.3032 23.5361C18.3032 24.6456 18.3032 25.7551 18.3032 26.8645C18.1617 26.9899 18.019 27.1168 17.875 27.2449C17.875 26.1355 17.875 25.026 17.875 23.9165C18.0165 23.7911 18.1592 23.6643 18.3032 23.5361Z"
            fill="#505C9A" />
        <path fill-rule="evenodd" clip-rule="evenodd"
            d="M17.8754 23.917C17.8754 25.0264 17.8754 26.1359 17.8754 27.2454C17.7504 27.4338 17.6076 27.6081 17.4473 27.7684C17.4473 26.6114 17.4473 25.4544 17.4473 24.2974C17.5791 24.1599 17.7218 24.0331 17.8754 23.917Z"
            fill="#4161A6" />
        <path fill-rule="evenodd" clip-rule="evenodd"
            d="M17.4467 24.2969C17.4467 25.4539 17.4467 26.6109 17.4467 27.7679C17.3266 27.9769 17.1839 28.1671 17.0186 28.3385C17.0186 27.1339 17.0186 25.9294 17.0186 24.7248C17.1454 24.5663 17.2881 24.4237 17.4467 24.2969Z"
            fill="#3665B1" />
        <path fill-rule="evenodd" clip-rule="evenodd"
            d="M17.0186 24.7256C17.0186 25.9301 17.0186 27.1347 17.0186 28.3393C16.7864 28.7399 16.5803 29.152 16.4001 29.5755C16.3527 28.2206 16.3368 26.8576 16.3526 25.4864C16.5298 25.1967 16.7518 24.9431 17.0186 24.7256Z"
            fill="#1F6DC4" />
        <path fill-rule="evenodd" clip-rule="evenodd"
            d="M16.3531 25.4863C16.3374 26.8575 16.3532 28.2206 16.4007 29.5755C16.1233 30.367 15.9964 31.1753 16.0201 32.0004C15.5786 31.3476 15.2456 30.6423 15.0211 29.8845C15.0369 29.8687 15.0528 29.8528 15.0687 29.837C14.844 28.8674 14.9312 27.9244 15.3303 27.0079C15.5899 26.4401 15.9308 25.9329 16.3531 25.4863Z"
            fill="#116ECC" />
    </g>
    <defs>
        <clipPath id="clip0_5642_113">
            <rect width="32" height="32" fill="white" />
        </clipPath>
    </defs>
</svg>