<svg width="32" height="32" viewBox="0 0 32 32" fill="none" xmlns="http://www.w3.org/2000/svg">
<path fill-rule="evenodd" clip-rule="evenodd" d="M20.8321 0C21.7001 0 22.5681 0 23.4361 0C26.1908 1.61472 28.7513 3.50191 31.1178 5.66154C32.0828 6.96997 32.2565 8.36482 31.6386 9.84615C30.8751 11.3431 29.9637 12.738 28.9044 14.0308C28.8177 14.0308 28.7307 14.0308 28.644 14.0308C29.1909 12.9079 29.2778 11.7592 28.9044 10.5846C29.676 10.2732 30.4572 9.945 31.248 9.6C31.5305 8.79433 31.574 7.97381 31.3782 7.13846C30.1411 5.54149 28.6219 4.22867 26.8213 3.2C25.4274 1.92576 23.7782 1.10525 21.8737 0.738461C20.24 1.04598 18.938 1.8665 17.9678 3.2C17.3644 3.52487 16.8436 3.93511 16.4054 4.43077C16.3665 4.17181 16.4099 3.92566 16.5356 3.69231C17.8629 2.31273 19.2951 1.08196 20.8321 0Z" fill="#C00B3B"/>
<path fill-rule="evenodd" clip-rule="evenodd" d="M26.8208 3.19982C26.4174 3.86544 25.8097 4.31672 24.998 4.55366C24.6407 4.65254 24.2935 4.77562 23.9564 4.92289C23.7592 4.60009 23.4988 4.47701 23.1752 4.55366C22.3258 5.19169 21.6748 5.97119 21.2223 6.89212C20.9706 5.90936 20.58 4.96577 20.0505 4.06136C20.0882 3.87133 20.175 3.70722 20.3109 3.56905C19.5924 3.51928 18.8547 3.56031 18.0975 3.69213C17.9766 3.54581 17.9332 3.3817 17.9673 3.19982C18.9375 1.86632 20.2395 1.0458 21.8733 0.738281C23.7778 1.10507 25.4269 1.92558 26.8208 3.19982Z" fill="#85102C"/>
<path fill-rule="evenodd" clip-rule="evenodd" d="M17.9669 3.2002C17.9328 3.38208 17.9762 3.54619 18.0971 3.6925C18.8542 3.56069 19.592 3.51965 20.3104 3.56943C20.1745 3.70759 20.0877 3.8717 20.05 4.06173C20.5796 4.96615 20.9701 5.90973 21.2218 6.8925C21.6744 5.97157 22.3254 5.19207 23.1748 4.55404C23.4983 4.47739 23.7587 4.60047 23.956 4.92327C24.2931 4.776 24.6403 4.65292 24.9976 4.55404C25.8093 4.31709 26.417 3.86582 26.8203 3.2002C28.621 4.22887 30.1401 5.54168 31.3773 7.13866C31.5731 7.974 31.5296 8.79453 31.2471 9.60019C30.4563 9.9452 29.6751 10.2734 28.9035 10.5848C28.4244 10.1742 27.9036 9.80499 27.3411 9.47712C26.7164 9.3021 26.1088 9.34313 25.5184 9.60019C24.8169 8.77299 24.0357 8.03453 23.1748 7.38481C22.5242 7.10658 21.9167 7.10658 21.352 7.38481C20.6004 6.75352 19.8192 6.13814 19.0085 5.53866C18.1761 5.34063 17.3949 5.38166 16.6649 5.66173C16.4172 5.31251 16.3304 4.90227 16.4045 4.43096C16.8427 3.93531 17.3635 3.52507 17.9669 3.2002Z" fill="#940E2F"/>
<path fill-rule="evenodd" clip-rule="evenodd" d="M13.0196 7.87688C12.2981 7.85736 11.6037 7.98044 10.9364 8.24611C10.444 8.60117 9.92317 8.88835 9.37402 9.10765C9.59768 8.38098 10.1185 7.92971 10.9364 7.75381C11.706 7.2407 12.4004 7.28171 13.0196 7.87688Z" fill="#2A112A"/>
<path fill-rule="evenodd" clip-rule="evenodd" d="M13.0196 7.877C13.161 7.89177 13.2478 7.97382 13.28 8.12316C13.0866 8.29099 12.913 8.4551 12.7592 8.61547C12.0062 9.11535 11.1816 9.52562 10.2854 9.84623C9.94622 9.7285 9.64241 9.56439 9.37402 9.35393C9.37402 9.27188 9.37402 9.18982 9.37402 9.10777C9.92317 8.88847 10.444 8.60129 10.9364 8.24623C11.6037 7.98056 12.2981 7.85748 13.0196 7.877Z" fill="#700223"/>
<path fill-rule="evenodd" clip-rule="evenodd" d="M21.3521 7.8767C22.4044 8.19983 23.446 8.56906 24.4769 8.9844C24.7566 9.16623 24.9302 9.41238 24.9976 9.72286C24.748 10.2447 24.7045 10.778 24.8675 11.3229C24.9399 11.0974 25.0701 10.9333 25.258 10.8305C25.5759 10.9606 25.8797 11.1247 26.1694 11.3229C26.7199 12.4453 27.1972 13.594 27.6016 14.769C27.8068 14.4564 28.0672 14.2102 28.3828 14.0305C28.4695 14.0305 28.5565 14.0305 28.6432 14.0305C28.7299 14.0305 28.8169 14.0305 28.9036 14.0305C27.3907 17.0553 25.7414 20.0091 23.9561 22.8921C24.5094 21.1265 24.9 19.3214 25.1278 17.4767C25.5572 16.7936 25.861 16.0552 26.0392 15.2613C25.9731 14.7894 25.7127 14.4612 25.258 14.2767C24.9488 13.7297 24.6884 13.1554 24.4769 12.5536C23.8667 12.3629 23.2591 12.1988 22.6541 12.0613C22.5673 11.8152 22.3937 11.6511 22.1333 11.569C21.6223 10.788 21.1883 9.96749 20.8313 9.10747C19.5079 9.90302 18.4229 9.65686 17.5764 8.36901C17.2826 7.91478 17.1524 7.42248 17.1858 6.89209C18.1765 6.97032 19.2181 7.17544 20.3105 7.50747C20.6017 7.77174 20.8621 8.05891 21.0917 8.36901C21.2994 8.25654 21.3862 8.09243 21.3521 7.8767Z" fill="#DD1840"/>
<path fill-rule="evenodd" clip-rule="evenodd" d="M16.1445 6.89209C16.9701 8.29138 18.0551 9.52214 19.3995 10.5844C19.5874 11.2639 19.544 11.9203 19.2693 12.5536C18.9805 12.5396 18.7201 12.4576 18.4881 12.3075C17.7994 12.0636 17.1918 11.6944 16.6653 11.1998C15.9763 11.0773 15.2819 11.0363 14.5821 11.0767C14.6715 11.8529 14.5847 12.4273 14.3217 12.7998C14.4075 12.1282 14.2339 11.5539 13.8009 11.0767C13.4366 10.7346 13.0026 10.4885 12.499 10.3382C12.3004 10.1492 12.04 10.0261 11.7178 9.96901C12.5939 9.77147 12.9411 9.3202 12.7594 8.61517C13.5605 8.83016 14.1681 9.28145 14.5821 9.96901C15.0999 10.0134 15.6207 9.97241 16.1445 9.84593C16.1445 8.86132 16.1445 7.8767 16.1445 6.89209Z" fill="#EB1B4D"/>
<path fill-rule="evenodd" clip-rule="evenodd" d="M28.904 10.5845C29.2774 11.759 29.1905 12.9077 28.6436 14.0306C28.5569 14.0306 28.47 14.0306 28.3832 14.0306C28.7723 13.1009 28.946 12.1163 28.904 11.0768C27.6789 10.6812 26.4636 10.2709 25.2585 9.84599C25.2585 10.1742 25.2585 10.5024 25.2585 10.8306C25.0706 10.9334 24.9404 11.0975 24.8679 11.3229C24.705 10.7781 24.7484 10.2447 24.9981 9.72291C24.9306 9.41244 24.757 9.16628 24.4773 8.98445C23.4465 8.56912 22.4049 8.19989 21.3525 7.87676C21.3525 7.71265 21.3525 7.54856 21.3525 7.38445C21.9172 7.10622 22.5248 7.10622 23.1753 7.38445C24.0362 8.03417 24.8174 8.77264 25.5189 9.59984C26.1094 9.34278 26.717 9.30174 27.3417 9.47676C27.9041 9.80464 28.4249 10.1739 28.904 10.5845Z" fill="#BF0825"/>
<path fill-rule="evenodd" clip-rule="evenodd" d="M28.3835 14.0308C28.0679 14.2105 27.8075 14.4566 27.6024 14.7693C27.198 13.5943 26.7207 12.4455 26.1702 11.3231C25.8804 11.125 25.5766 10.9608 25.2588 10.8308C25.2588 10.5026 25.2588 10.1744 25.2588 9.84619C26.4639 10.2711 27.6792 10.6814 28.9043 11.077C28.9463 12.1165 28.7726 13.1011 28.3835 14.0308Z" fill="#D40823"/>
<path fill-rule="evenodd" clip-rule="evenodd" d="M12.4988 10.3383C13.0024 10.4885 13.4364 10.7347 13.8007 11.0768C13.8007 11.2409 13.714 11.3229 13.5403 11.3229C12.3807 10.8862 11.5995 11.2554 11.1968 12.4306C11.2836 12.5537 11.3704 12.6768 11.4572 12.7998C11.6959 12.6455 11.9563 12.5634 12.2384 12.5537C12.3525 12.5376 12.4393 12.5786 12.4988 12.6768C12.1077 12.8203 11.7606 13.0254 11.4572 13.2922C11.5497 13.5438 11.7234 13.7079 11.978 13.7845C11.978 13.8665 11.978 13.9486 11.978 14.0306C11.8912 14.0306 11.8044 14.0306 11.7176 14.0306C10.0135 13.2385 9.75309 12.1308 10.9364 10.7075C11.4169 10.4299 11.9377 10.3068 12.4988 10.3383Z" fill="#E4DCDE"/>
<path fill-rule="evenodd" clip-rule="evenodd" d="M13.5408 11.323C13.0925 11.6922 12.6585 12.1025 12.2389 12.5538C11.9568 12.5635 11.6964 12.6455 11.4577 12.7999C11.3709 12.6769 11.2841 12.5538 11.1973 12.4307C11.6 11.2555 12.3812 10.8863 13.5408 11.323Z" fill="#871716"/>
<path fill-rule="evenodd" clip-rule="evenodd" d="M7.03068 11.077C5.78365 11.3533 4.82885 12.0097 4.16632 13.0463C3.82713 12.4907 4.00071 12.0395 4.68712 11.6924C5.41677 11.09 6.19796 10.8849 7.03068 11.077Z" fill="#360F2B"/>
<path fill-rule="evenodd" clip-rule="evenodd" d="M7.03037 11.0771C7.00043 11.6794 6.74003 12.1717 6.24919 12.5541C5.59663 12.8617 4.90226 13.0258 4.16602 13.0464C4.82854 12.0098 5.78334 11.3534 7.03037 11.0771Z" fill="#770233"/>
<path fill-rule="evenodd" clip-rule="evenodd" d="M12.7595 8.61523C12.9412 9.32027 12.5941 9.77154 11.718 9.96908C12.0402 10.0262 12.3006 10.1493 12.4991 10.3383C11.9381 10.3068 11.4173 10.4299 10.9368 10.7075C9.75347 12.1308 10.0139 13.2385 11.718 14.0306C12.0066 14.2251 12.3538 14.3482 12.7595 14.3998C11.5258 15.2283 10.2239 15.9667 8.8536 16.6152C6.37824 17.2402 3.94786 17.9377 1.5625 18.7075C1.56525 18.334 1.73885 18.0468 2.08329 17.846C3.67187 17.3405 5.32106 16.9302 7.03082 16.6152C7.32614 16.3651 7.23935 16.201 6.77043 16.1229C7.17615 16.0712 7.52336 15.9482 7.81201 15.7537C7.98562 15.7537 8.07241 15.6716 8.07241 15.5075C8.84026 15.0731 9.01384 14.4987 8.5932 13.7845C8.50641 13.5383 8.3328 13.3742 8.07241 13.2922C7.77058 12.8301 7.33658 12.7071 6.77043 12.9229C6.18427 13.1069 5.83706 13.4762 5.72884 14.0306C5.52888 14.2183 5.39868 14.4645 5.33825 14.7691C5.20302 13.875 5.50683 13.1366 6.24963 12.5537C6.74048 12.1714 7.00088 11.6791 7.03082 11.0768C7.44389 11.0292 7.87789 10.9471 8.3328 10.8306C8.58463 10.2669 8.93182 9.77459 9.37439 9.3537C9.64278 9.56416 9.94658 9.72827 10.2858 9.846C11.182 9.52539 12.0066 9.11512 12.7595 8.61523Z" fill="#EF3169"/>
<path fill-rule="evenodd" clip-rule="evenodd" d="M18.4883 12.3078C18.6872 12.9276 18.9475 13.5019 19.2695 14.0309C19.2695 14.195 19.2695 14.3591 19.2695 14.5232C19.312 15.1033 19.2686 15.6777 19.1393 16.2463C19.0303 15.9578 18.8566 15.7116 18.6185 15.5078C18.5146 15.564 18.4712 15.6461 18.4883 15.754C18.3147 15.836 18.1411 15.9181 17.9675 16.0001C18.013 15.4781 17.9262 14.9858 17.7071 14.5232C17.9263 13.4006 17.5791 12.4981 16.6655 11.8155C16.2459 12.0174 16.0724 12.3456 16.1447 12.8001C15.5365 13.1703 15.0591 13.6626 14.7125 14.277C14.6257 13.9488 14.5389 13.6206 14.4521 13.2924C13.6759 14.4345 13.1117 15.4601 12.7595 16.3693C11.8197 16.542 10.9517 16.8291 10.1556 17.2309C9.54578 17.1632 9.54578 16.9581 10.1556 16.6155C9.47915 16.6464 8.87156 16.8926 8.3328 17.354C6.38733 17.6968 4.47777 18.1481 2.60409 18.7078C2.51729 18.954 2.43049 19.2001 2.34369 19.4463C2.65177 20.6937 2.99898 21.9244 3.38527 23.1386C3.4242 23.3975 3.3808 23.6437 3.25508 23.877C2.32893 22.2629 1.76473 20.5398 1.5625 18.7078C3.94786 17.9379 6.37824 17.2405 8.8536 16.6155C10.2239 15.967 11.5258 15.2285 12.7595 14.4001C12.3538 14.3484 12.0066 14.2253 11.718 14.0309C11.8047 14.0309 11.8916 14.0309 11.9784 14.0309C13.0841 14.2129 13.7785 13.8026 14.0615 12.8001C14.1483 12.8001 14.2351 12.8001 14.3219 12.8001C14.5849 12.4276 14.6717 11.8532 14.5823 11.077C15.2821 11.0366 15.9765 11.0777 16.6655 11.2001C17.192 11.6947 17.7996 12.064 18.4883 12.3078Z" fill="#CE204F"/>
<path fill-rule="evenodd" clip-rule="evenodd" d="M21.3525 7.38471C21.3525 7.54882 21.3525 7.71291 21.3525 7.87702C21.3866 8.09275 21.2998 8.25686 21.0921 8.36933C20.8625 8.05922 20.6021 7.77206 20.3109 7.50779C19.2185 7.17575 18.1769 6.97063 17.1862 6.8924C17.1528 7.42279 17.283 7.9151 17.5767 8.36933C18.4233 9.65718 19.5083 9.90333 20.8317 9.10779C21.1887 9.9678 21.6227 10.7883 22.1337 11.5693C21.943 11.8914 21.726 12.2196 21.4827 12.5539C21.1831 15.2463 20.7057 17.8719 20.0505 20.4309C19.7209 18.4384 19.4605 16.4691 19.2693 14.5232C19.2693 14.3591 19.2693 14.195 19.2693 14.0309C19.2693 13.5386 19.2693 13.0462 19.2693 12.5539C19.5441 11.9206 19.5875 11.2642 19.3995 10.5847C18.0551 9.52246 16.9701 8.29169 16.1446 6.8924C16.1163 6.3967 16.2899 5.98644 16.6654 5.66164C17.3954 5.38156 18.1766 5.34053 19.0089 5.53856C19.8197 6.13804 20.6009 6.75343 21.3525 7.38471Z" fill="#B80433"/>
<path fill-rule="evenodd" clip-rule="evenodd" d="M14.0617 12.8C13.7786 13.8025 13.0843 14.2128 11.9785 14.0308C11.9785 13.9487 11.9785 13.8666 11.9785 13.7846C12.8097 13.4895 13.2437 12.9151 13.2805 12.0615C13.5409 12.0615 13.8013 12.0615 14.0617 12.0615C14.0617 12.3077 14.0617 12.5538 14.0617 12.8Z" fill="#3D0F25"/>
<path fill-rule="evenodd" clip-rule="evenodd" d="M22.1335 11.5693C22.3939 11.6514 22.5675 11.8155 22.6543 12.0616C22.1178 15.7989 21.597 19.5733 21.0919 23.3847C21.2412 23.8411 21.328 24.2924 21.3523 24.7386C21.0051 24.7386 20.6579 24.7386 20.3107 24.7386C19.9635 24.9847 19.9635 25.2309 20.3107 25.477C20.1559 25.5912 19.9823 25.6323 19.7899 25.6001C17.874 25.3983 16.3984 26.0547 15.3632 27.5693C15.0875 27.2986 14.8705 26.9702 14.7122 26.5847C14.4997 26.2591 14.1959 26.0951 13.8008 26.0924C14.0612 25.9282 14.3216 25.7643 14.582 25.6001C15.4448 24.8671 16.3127 24.1286 17.1859 23.3847C17.9692 23.5122 18.5768 23.8815 19.0087 24.4924C19.3043 24.6769 19.5647 24.6358 19.7899 24.3693C20.21 23.6028 20.4704 22.7823 20.5711 21.9078C20.5389 21.7585 20.4521 21.6764 20.3107 21.6616C20.3725 21.3439 20.2857 21.0977 20.0503 20.9232C20.0503 20.7591 20.0503 20.595 20.0503 20.4309C20.7054 17.8719 21.1828 15.2463 21.4825 12.554C21.7258 12.2196 21.9428 11.8914 22.1335 11.5693Z" fill="#900026"/>
<path fill-rule="evenodd" clip-rule="evenodd" d="M22.6544 12.0615C23.2594 12.199 23.867 12.3631 24.4772 12.5538C24.6887 13.1556 24.9491 13.7299 25.2584 14.2769C25.3961 15.4643 25.0923 16.5309 24.347 17.4769C23.5954 20.548 22.7708 23.5839 21.8732 26.5846C21.1915 26.2072 20.4971 25.8791 19.79 25.6C19.9824 25.6322 20.1561 25.5911 20.3108 25.4769C19.9636 25.2307 19.9636 24.9846 20.3108 24.7384C20.658 24.7384 21.0052 24.7384 21.3524 24.7384C21.3281 24.2922 21.2413 23.8409 21.092 23.3846C21.5972 19.5732 22.118 15.7988 22.6544 12.0615Z" fill="#7B0023"/>
<path fill-rule="evenodd" clip-rule="evenodd" d="M13.8006 11.0771C14.2336 11.5543 14.4072 12.1287 14.3214 12.8002C14.2346 12.8002 14.1478 12.8002 14.061 12.8002C14.061 12.5541 14.061 12.3079 14.061 12.0618C13.8006 12.0618 13.5402 12.0618 13.2798 12.0618C13.243 12.9154 12.809 13.4897 11.9778 13.7848C11.7232 13.7083 11.5496 13.5442 11.457 13.2925C11.7604 13.0258 12.1076 12.8207 12.4986 12.6771C12.4391 12.579 12.3523 12.538 12.2382 12.5541C12.6579 12.1028 13.0919 11.6925 13.5402 11.3233C13.7138 11.3233 13.8006 11.2413 13.8006 11.0771Z" fill="#600F1C"/>
<path fill-rule="evenodd" clip-rule="evenodd" d="M8.07188 13.2922C7.5396 13.4229 7.10562 13.7101 6.76989 14.1537C7.71664 14.3079 7.71664 14.5951 6.76989 15.0152C6.95022 15.2658 7.12383 15.5119 7.29069 15.7537C6.21309 15.6372 5.6923 15.0629 5.72831 14.0306C5.83653 13.4762 6.18374 13.1069 6.76989 12.9229C7.33605 12.7071 7.77005 12.8302 8.07188 13.2922Z" fill="#ECE0E2"/>
<path fill-rule="evenodd" clip-rule="evenodd" d="M17.7072 14.5231C17.3979 14.8146 17.0941 14.8146 16.7959 14.5231C16.4283 13.9938 16.2113 13.4194 16.1449 12.8C16.0725 12.3455 16.2461 12.0173 16.6657 11.8154C17.5793 12.498 17.9265 13.4006 17.7072 14.5231Z" fill="#CB433F"/>
<path fill-rule="evenodd" clip-rule="evenodd" d="M8.07249 13.2925C8.33289 13.3745 8.50649 13.5386 8.59328 13.7848C8.44394 14.348 8.18355 14.8813 7.81209 15.3848C7.87157 15.483 7.95838 15.524 8.07249 15.5079C8.07249 15.672 7.9857 15.754 7.81209 15.754C7.63849 15.754 7.46491 15.754 7.2913 15.754C7.12444 15.5122 6.95083 15.2661 6.77051 15.0156C7.71726 14.5954 7.71726 14.3082 6.77051 14.154C7.10624 13.7104 7.54021 13.4232 8.07249 13.2925Z" fill="#620E10"/>
<path fill-rule="evenodd" clip-rule="evenodd" d="M8.59271 13.7847C9.01336 14.4989 8.83978 15.0733 8.07192 15.5077C7.95781 15.5238 7.871 15.4828 7.81152 15.3847C8.18298 14.8812 8.44338 14.3478 8.59271 13.7847Z" fill="#300914"/>
<path fill-rule="evenodd" clip-rule="evenodd" d="M6.24957 12.5537C5.50677 13.1366 5.20296 13.875 5.33819 14.7691C5.39862 14.4645 5.52882 14.2183 5.72878 14.0306C5.69277 15.0629 6.21356 15.6372 7.29116 15.7537C7.46476 15.7537 7.63834 15.7537 7.81195 15.7537C7.5233 15.9482 7.17609 16.0712 6.77037 16.1229C7.23929 16.201 7.32608 16.3652 7.03076 16.6152C5.321 16.9303 3.67181 17.3405 2.08323 17.846C1.73879 18.0469 1.56519 18.334 1.56244 18.7076C1.76467 20.5396 2.32887 22.2626 3.25502 23.8768C3.38073 23.6434 3.42414 23.3973 3.38521 23.1383C3.472 23.1383 3.55882 23.1383 3.64561 23.1383C3.58382 23.4561 3.67061 23.7023 3.90601 23.8768C3.72138 24.0993 3.46099 24.1813 3.12482 24.1229C2.21262 22.8918 1.43143 21.5789 0.78125 20.1845C0.905006 18.959 1.339 17.8102 2.08323 16.7383C1.96426 16.542 1.79066 16.4599 1.56244 16.4922C2.26236 16.0574 3.00014 15.6471 3.77581 15.2614C3.87031 14.5121 4.0005 13.7736 4.1664 13.046C4.90265 13.0254 5.59702 12.8613 6.24957 12.5537Z" fill="#F3407B"/>
<path fill-rule="evenodd" clip-rule="evenodd" d="M16.1443 12.7998C16.2108 13.4192 16.4278 13.9936 16.7953 14.5229C17.0936 14.8144 17.3974 14.8144 17.7067 14.5229C17.9258 14.9855 18.0126 15.4778 17.9671 15.9998C17.8349 16.4263 17.6179 16.5084 17.3161 16.246C17.2293 16.4101 17.1425 16.5742 17.0557 16.7383C16.8821 16.4101 16.7085 16.4101 16.5349 16.7383C16.1964 17.4831 16.0662 18.2215 16.1443 18.9536C15.9716 18.5741 15.7979 18.1638 15.6235 17.7229C15.3581 18.2052 15.3581 18.6975 15.6235 19.1998C15.113 18.7537 14.5054 18.5076 13.8008 18.4613C13.8008 19.2818 13.8008 20.1024 13.8008 20.9229C13.714 21.169 13.5404 21.3331 13.28 21.4152C13.075 21.0203 12.7278 20.8562 12.2384 20.9229C12.3471 20.7453 12.5207 20.6222 12.7592 20.5536C12.412 20.3895 12.0648 20.3895 11.7176 20.5536C12.0146 20.7361 12.0146 20.9412 11.7176 21.169C11.3295 21.3521 10.9389 21.5162 10.5458 21.6613C10.4169 20.3923 10.0263 19.2026 9.37402 18.0921C9.59927 17.7576 9.85966 17.4704 10.1552 17.2306C10.9514 16.8288 11.8194 16.5417 12.7592 16.369C13.1113 15.4598 13.6755 14.4341 14.4518 13.2921C14.5385 13.6203 14.6254 13.9485 14.7121 14.2767C15.0587 13.6623 15.5361 13.17 16.1443 12.7998Z" fill="#AB0C36"/>
<path fill-rule="evenodd" clip-rule="evenodd" d="M1.56238 16.4922C1.7906 16.4599 1.9642 16.542 2.08317 16.7383C1.33894 17.8102 0.904945 18.9589 0.781189 20.1845C0.569562 19.751 0.309165 19.3408 0 18.9537C0 18.4614 0 17.9691 0 17.4768C0.449949 17.052 0.970742 16.7238 1.56238 16.4922Z" fill="#F776A3"/>
<path fill-rule="evenodd" clip-rule="evenodd" d="M10.1556 17.2306C9.86009 17.4705 9.59969 17.7577 9.37445 18.0922C10.0268 19.2026 10.4174 20.3924 10.5462 21.6614C10.9393 21.5162 11.3299 21.3521 11.718 21.1691C12.015 20.9413 12.015 20.7361 11.718 20.5537C12.0652 20.3896 12.4124 20.3896 12.7596 20.5537C12.5211 20.6222 12.3475 20.7453 12.2388 20.9229C12.0477 21.2203 11.9609 21.5485 11.9784 21.9075C10.1544 22.4879 8.24482 22.7751 6.24969 22.7691C5.62482 22.9521 5.01724 23.1572 4.42692 23.3845C4.19491 23.2344 3.93451 23.1523 3.64573 23.1383C3.55894 23.1383 3.47213 23.1383 3.38534 23.1383C2.99904 21.9242 2.65184 20.6934 2.34375 19.446C2.43055 19.1998 2.51735 18.9537 2.60415 18.7075C4.47783 18.1479 6.38739 17.6966 8.33286 17.3537C8.87162 16.8923 9.47921 16.6462 10.1556 16.6152C9.54584 16.9579 9.54584 17.163 10.1556 17.2306Z" fill="#B00130"/>
<path fill-rule="evenodd" clip-rule="evenodd" d="M15.6236 19.1999C15.082 19.7102 14.648 20.2846 14.3216 20.923C14.148 20.923 13.9744 20.923 13.8008 20.923C13.8008 20.1025 13.8008 19.2819 13.8008 18.4614C14.5054 18.5077 15.113 18.7538 15.6236 19.1999Z" fill="#D8C7C5"/>
<path fill-rule="evenodd" clip-rule="evenodd" d="M16.145 18.9539C15.9187 19.9075 15.3111 20.5639 14.3223 20.9231C14.6487 20.2848 15.0827 19.7104 15.6242 19.2001C15.3589 18.6978 15.3589 18.2055 15.6242 17.7231C15.7987 18.1641 15.9723 18.5744 16.145 18.9539Z" fill="#6A0D16"/>
<path fill-rule="evenodd" clip-rule="evenodd" d="M19.2698 14.5229C19.461 16.4689 19.7214 18.4381 20.0509 20.4306C19.8773 20.4306 19.7905 20.5127 19.7905 20.6768C19.3545 21.417 19.1809 22.2375 19.2698 23.1383C19.0819 23.2411 18.9517 23.4052 18.8792 23.6306C18.5876 23.1594 18.5442 22.7082 18.749 22.2768C18.7108 21.8517 18.5372 21.8106 18.2282 22.1537C18.1414 21.7435 18.0546 21.3332 17.9678 20.9229C18.108 20.0079 18.325 19.1054 18.6188 18.2153C18.8503 18.557 18.9805 18.5159 19.0094 18.0922C18.8407 17.7378 18.7539 17.3686 18.749 16.9845C18.5405 16.605 18.4537 16.1947 18.4886 15.7537C18.4715 15.6459 18.5149 15.5638 18.6188 15.5076C18.8569 15.7114 19.0306 15.9575 19.1396 16.246C19.2689 15.6775 19.3123 15.1031 19.2698 14.5229Z" fill="#D90F3E"/>
<path fill-rule="evenodd" clip-rule="evenodd" d="M18.7488 16.9844C18.7538 17.3684 18.8406 17.7377 19.0092 18.0921C18.9804 18.5158 18.8502 18.5569 18.6186 18.2151C18.3249 19.1053 18.1079 20.0078 17.9677 20.9228C18.0544 21.3331 18.1413 21.7433 18.228 22.1536C18.5371 21.8105 18.7107 21.8515 18.7488 22.2767C18.5441 22.7081 18.5875 23.1593 18.879 23.6305C18.9515 23.4051 19.0817 23.241 19.2696 23.1382C19.2355 23.3539 19.3224 23.5181 19.53 23.6305C19.6812 22.9151 19.9416 22.2587 20.3112 21.6613C20.4526 21.6761 20.5394 21.7581 20.5716 21.9074C20.471 22.7819 20.2106 23.6024 19.7904 24.369C19.5652 24.6355 19.3048 24.6765 19.0092 24.4921C18.5774 23.8811 17.9698 23.5119 17.1865 23.3844C16.3133 24.1283 15.4453 24.8667 14.5825 25.5998C14.1926 25.4014 13.7586 25.2374 13.2805 25.1074C12.9692 25.1926 12.9692 25.3157 13.2805 25.4767C10.7116 26.0485 8.19443 25.9663 5.72902 25.2305C5.37173 24.9248 5.11134 24.5556 4.94784 24.1228C4.63828 23.8942 4.29106 23.8122 3.90625 23.8767C3.99523 23.6704 4.16883 23.5883 4.42704 23.6305C4.94784 23.5485 5.46863 23.4664 5.98942 23.3844C6.66572 23.4387 6.66572 23.5618 5.98942 23.7536C6.46748 24.1029 6.98827 24.3901 7.5518 24.6151C8.63585 24.2442 9.72085 24.1621 10.8068 24.369C10.9804 23.8767 11.3275 23.5485 11.8483 23.3844C12.7101 23.5169 13.4913 23.9271 14.1919 24.6151C14.6812 24.2428 15.2454 24.0786 15.8845 24.1228C16.2374 22.8779 16.6714 21.6471 17.1865 20.4305C17.132 20.2863 17.0452 20.1632 16.9261 20.0613C17.0431 18.5978 17.6507 17.5721 18.7488 16.9844Z" fill="#C00335"/>
<path fill-rule="evenodd" clip-rule="evenodd" d="M12.2382 20.9231C12.7277 20.8565 13.0748 21.0206 13.2798 21.4154C12.8763 21.647 12.4423 21.8111 11.9778 21.9078C11.9602 21.5487 12.047 21.2205 12.2382 20.9231Z" fill="#DFD0CE"/>
<path fill-rule="evenodd" clip-rule="evenodd" d="M25.2582 14.2769C25.7129 14.4613 25.9733 14.7895 26.0394 15.2615C25.8612 16.0553 25.5574 16.7938 25.128 17.4769C24.9002 19.3215 24.5096 21.1266 23.9562 22.8922C23.583 23.3989 23.4095 23.9732 23.4354 24.6153C23.0882 24.7795 23.0882 24.9434 23.4354 25.1076C23.4354 25.2718 23.4354 25.4357 23.4354 25.5999C23.2784 26.0159 23.018 26.3852 22.6542 26.7076C22.8502 26.8728 22.937 27.0778 22.9146 27.323C22.5674 27.0768 22.2202 26.8307 21.873 26.5845C22.7707 23.5839 23.5953 20.5479 24.3468 17.4769C25.0921 16.5309 25.3959 15.4642 25.2582 14.2769Z" fill="#9A002A"/>
<path fill-rule="evenodd" clip-rule="evenodd" d="M18.4883 15.7539C18.4534 16.1949 18.5402 16.6052 18.7487 16.9847C17.6505 17.5724 17.0429 18.5981 16.9259 20.0616C17.045 20.1635 17.1318 20.2866 17.1863 20.4308C16.6712 21.6474 16.2372 22.8782 15.8843 24.1231C15.2453 24.0789 14.6811 24.2431 14.1917 24.6154C13.4911 23.9274 12.7099 23.5172 11.8482 23.3847C11.3274 23.5488 10.9802 23.877 10.8066 24.3693C9.72068 24.1624 8.63569 24.2445 7.55164 24.6154C6.98811 24.3904 6.46732 24.1032 5.98926 23.7539C6.66556 23.5621 6.66556 23.439 5.98926 23.3847C7.862 23.1007 9.77159 22.8135 11.718 22.5231C12.7669 22.2247 13.6349 21.6914 14.3219 20.9231C15.3108 20.5639 15.9184 19.9075 16.1447 18.9539C16.0666 18.2218 16.1968 17.4833 16.5353 16.7385C16.7089 16.4103 16.8825 16.4103 17.0561 16.7385C17.1429 16.5744 17.2297 16.4103 17.3165 16.2462C17.6183 16.5086 17.8353 16.4266 17.9675 16.0001C18.1411 15.918 18.3147 15.8359 18.4883 15.7539Z" fill="#B50333"/>
<path fill-rule="evenodd" clip-rule="evenodd" d="M19.7904 20.6768C19.7904 20.8409 19.8772 20.9229 20.0508 20.9229C20.2862 21.0974 20.373 21.3436 20.3112 21.6614C19.9416 22.2588 19.6812 22.9152 19.53 23.6306C19.3224 23.5181 19.2355 23.354 19.2696 23.1383C19.1808 22.2375 19.3544 21.417 19.7904 20.6768Z" fill="#304293"/>
<path fill-rule="evenodd" clip-rule="evenodd" d="M3.64525 23.1387C3.93403 23.1527 4.19443 23.2347 4.42644 23.3848C4.42644 23.4669 4.42644 23.5489 4.42644 23.631C4.16823 23.5887 3.99462 23.6708 3.90565 23.8771C3.67025 23.7026 3.58346 23.4565 3.64525 23.1387Z" fill="#ECE8E7"/>
<path fill-rule="evenodd" clip-rule="evenodd" d="M13.801 20.9229C13.9746 20.9229 14.1482 20.9229 14.3218 20.9229C13.6348 21.6911 12.7668 22.2244 11.7179 22.5229C9.77147 22.8132 7.86188 23.1004 5.98914 23.3844C5.46834 23.4664 4.94755 23.5485 4.42676 23.6305C4.42676 23.5485 4.42676 23.4664 4.42676 23.3844C5.01708 23.1572 5.62466 22.952 6.24953 22.769C8.24466 22.775 10.1542 22.4878 11.9783 21.9075C12.4427 21.8109 12.8767 21.6467 13.2802 21.4152C13.5406 21.3331 13.7142 21.169 13.801 20.9229Z" fill="#730519"/>
<path fill-rule="evenodd" clip-rule="evenodd" d="M25.7791 28.7999C25.7376 28.393 25.5639 28.0649 25.2583 27.8153C25.2773 27.4394 25.1037 27.1933 24.7375 27.0768C24.7822 26.8326 24.6954 26.6687 24.4771 26.5845C24.4961 26.2086 24.3225 25.9625 23.9563 25.8461C23.9753 25.4702 23.8017 25.224 23.4355 25.1076C23.4355 24.9434 23.4355 24.7795 23.4355 24.6153C23.5963 24.588 23.7265 24.506 23.8261 24.3691C24.0865 24.9434 24.5205 25.3538 25.1281 25.5999C25.8054 26.6953 26.1526 27.8441 26.1697 29.0461C26.0701 28.9092 25.9399 28.8272 25.7791 28.7999Z" fill="#793270"/>
<path fill-rule="evenodd" clip-rule="evenodd" d="M3.90583 23.8768C4.29064 23.8123 4.63786 23.8943 4.94742 24.1229C5.11092 24.5557 5.37132 24.9249 5.72861 25.2306C8.19401 25.9664 10.7112 26.0486 13.2801 25.4768C12.9688 25.3158 12.9688 25.1927 13.2801 25.1075C13.7582 25.2375 14.1922 25.4014 14.5821 25.5998C14.3217 25.764 14.0613 25.928 13.8009 26.0921C12.297 26.5251 10.8214 26.9352 9.37415 27.3229C8.16349 27.5186 6.94833 27.5595 5.72861 27.446C4.90401 26.5025 4.07944 25.5587 3.25484 24.6152C3.16805 24.6973 3.08123 24.7794 2.99444 24.8614C2.87216 24.5963 2.91557 24.3502 3.12464 24.1229C3.46081 24.1813 3.72121 24.0993 3.90583 23.8768Z" fill="#D70940"/>
<path fill-rule="evenodd" clip-rule="evenodd" d="M19.79 25.6001C20.4971 25.8792 21.1915 26.2073 21.8732 26.5847C22.2204 26.8308 22.5676 27.077 22.9148 27.3231C23.0016 27.4873 23.0884 27.6513 23.1752 27.8154C22.9398 27.99 22.853 28.2361 22.9148 28.5539C20.3212 28.6785 17.8041 28.3501 15.3633 27.5693C16.3985 26.0547 17.8741 25.3982 19.79 25.6001Z" fill="#BB9AB8"/>
<path fill-rule="evenodd" clip-rule="evenodd" d="M13.801 26.0923C14.1962 26.095 14.5 26.2589 14.7124 26.5846C14.8708 26.9701 15.0878 27.2984 15.3634 27.5692C15.3634 27.8154 15.3634 28.0615 15.3634 28.3077C15.1898 28.3077 15.0162 28.3077 14.8426 28.3077C14.1482 28.0615 13.4539 27.8154 12.7595 27.5692C12.0925 27.2573 11.3981 27.2573 10.6763 27.5692C10.0459 27.6623 9.43829 27.8264 8.85352 28.0615C9.02712 27.8154 9.2007 27.5692 9.37431 27.3231C10.8215 26.9354 12.2971 26.5253 13.801 26.0923Z" fill="#416AD0"/>
<path fill-rule="evenodd" clip-rule="evenodd" d="M10.6765 27.5693C9.87383 28.3469 9.26622 29.2493 8.85368 30.277C8.17355 30.6591 7.82636 31.2336 7.81209 32.0001C7.46491 32.0001 7.11769 32.0001 6.77051 32.0001C6.84954 30.3666 7.54394 29.0539 8.85368 28.0616C9.43845 27.8266 10.046 27.6624 10.6765 27.5693Z" fill="#1C74CA"/>
<path fill-rule="evenodd" clip-rule="evenodd" d="M14.8427 28.3076C15.0163 28.3076 15.1899 28.3076 15.3635 28.3076C15.7107 28.4718 15.9711 28.718 16.1447 29.0461C15.5924 29.003 15.0716 29.0852 14.5823 29.2922C14.5647 28.9331 14.6515 28.605 14.8427 28.3076Z" fill="#9E899F"/>
<path fill-rule="evenodd" clip-rule="evenodd" d="M15.3633 27.5693C17.8041 28.3501 20.3212 28.6785 22.9148 28.554C22.853 28.2362 22.9398 27.99 23.1752 27.8155C24.4645 28.9576 25.3325 30.3526 25.7791 32.0001C23.3488 32.0001 20.9184 32.0001 18.488 32.0001C18.5656 30.7494 18.0448 29.8468 16.9257 29.2924C16.741 29.0699 16.4806 28.9879 16.1445 29.0463C15.9709 28.7181 15.7105 28.472 15.3633 28.3078C15.3633 28.0616 15.3633 27.8155 15.3633 27.5693Z" fill="#F0E9EE"/>
<path fill-rule="evenodd" clip-rule="evenodd" d="M23.4355 25.6001C23.6091 25.6821 23.7827 25.7643 23.9563 25.8463C23.9373 26.2221 24.1109 26.4683 24.4771 26.5847C24.4324 26.8289 24.5192 26.9928 24.7375 27.077C24.7185 27.4529 24.8921 27.6991 25.2583 27.8155C25.1877 28.2783 25.3613 28.6064 25.7791 28.8001C26.1262 29.8667 26.4735 30.9335 26.8206 32.0001C26.4735 32.0001 26.1262 32.0001 25.7791 32.0001C25.3324 30.3526 24.4644 28.9576 23.1751 27.8155C23.0883 27.6513 23.0015 27.4874 22.9147 27.3232C22.937 27.078 22.8502 26.873 22.6543 26.7078C23.018 26.3853 23.2784 26.0161 23.4355 25.6001Z" fill="#C80936"/>
<path fill-rule="evenodd" clip-rule="evenodd" d="M16.1444 29.046C16.4806 28.9877 16.741 29.0697 16.9256 29.2922C16.3977 29.2523 15.8769 29.2934 15.3632 29.4153C15.7 29.5359 16.0472 29.577 16.4048 29.5383C16.3842 29.8903 16.471 30.2187 16.6652 30.5229C15.9734 30.7098 15.279 30.874 14.582 31.0153C10.1224 30.3809 10.1224 29.8064 14.582 29.2922C15.0714 29.0852 15.5922 29.0029 16.1444 29.046Z" fill="#D12A54"/>
<path fill-rule="evenodd" clip-rule="evenodd" d="M12.7599 27.5694C11.0608 27.6092 9.93239 28.4297 9.3747 30.0309C9.545 30.4284 9.6752 30.8388 9.7653 31.2617C10.1607 31.4249 10.4645 31.671 10.6767 32.0001C10.1559 32.0001 9.6351 32.0001 9.11431 32.0001C8.92718 31.4428 8.84037 30.8686 8.85391 30.277C9.26646 29.2494 9.87406 28.347 10.6767 27.5694C11.3985 27.2575 12.0929 27.2575 12.7599 27.5694Z" fill="#D91940"/>
<path fill-rule="evenodd" clip-rule="evenodd" d="M12.7592 27.5693C13.4536 27.8155 14.1479 28.0616 14.8423 28.3078C14.6512 28.6052 14.5644 28.9333 14.5819 29.2924C10.1223 29.8066 10.1223 30.3811 14.5819 31.0155C15.279 30.8742 15.9734 30.71 16.6651 30.5232C16.4709 30.2189 16.3841 29.8906 16.4047 29.5386C16.0471 29.5772 15.6999 29.5361 15.3631 29.4155C15.8768 29.2936 16.3976 29.2525 16.9255 29.2924C18.0447 29.8468 18.5655 30.7494 18.4879 32.0001C15.8839 32.0001 13.28 32.0001 10.676 32.0001C10.4638 31.671 10.16 31.4248 9.76462 31.2616C9.67452 30.8387 9.54432 30.4284 9.37402 30.0309C9.93171 28.4296 11.0601 27.6092 12.7592 27.5693Z" fill="#B41238"/>
<path fill-rule="evenodd" clip-rule="evenodd" d="M8.85311 30.2769C8.83957 30.8684 8.92638 31.4426 9.1135 31.9999C8.6795 31.9999 8.24553 31.9999 7.81152 31.9999C7.82579 31.2334 8.17298 30.6589 8.85311 30.2769Z" fill="#231F50"/>
</svg>