<svg width="32" height="32" viewBox="0 0 33 33" fill="none" xmlns="http://www.w3.org/2000/svg">
    <path
        d="M16.3203 32.3203C25.1569 32.3203 32.3203 25.1569 32.3203 16.3203C32.3203 7.48376 25.1569 0.320312 16.3203 0.320312C7.48376 0.320312 0.320312 7.48376 0.320312 16.3203C0.320312 25.1569 7.48376 32.3203 16.3203 32.3203Z"
        fill="#104851" stroke="white" stroke-width="0.64" />
    <path
        d="M16.5282 10.0819C15.3632 10.0819 14.304 10.3502 13.4991 10.8339V5.95835C13.4991 5.65473 13.252 5.41113 12.9519 5.41113H10.0287C9.72505 5.41113 9.48145 5.65826 9.48145 5.95835V16.9416C9.48145 20.9486 12.3199 23.7483 16.387 23.7483C20.4541 23.7483 23.169 20.9486 23.169 16.9416C23.169 12.9345 20.44 10.0854 16.5318 10.0854L16.5282 10.0819ZM16.3058 19.9707C14.5441 19.9707 13.4956 18.8304 13.4956 16.9169C13.4956 15.0034 14.5476 13.863 16.3058 13.863C18.064 13.863 19.1408 15.0069 19.1408 16.9169C19.1408 18.8268 18.0816 19.9707 16.3058 19.9707Z"
        fill="white" />
    <path
        d="M13.5983 25.5314C13.0193 26.5764 14.082 27.6426 15.127 27.0672C15.2647 26.993 15.3777 26.8801 15.4518 26.7424C16.0308 25.6974 14.9717 24.6312 13.9231 25.2066C13.7854 25.2808 13.6725 25.3937 13.5983 25.5314ZM17.1923 25.5385C16.6133 26.5835 17.676 27.6497 18.721 27.0742C18.8587 27.0001 18.9717 26.8871 19.0458 26.7494C19.6248 25.7044 18.5621 24.6382 17.5171 25.2137C17.3794 25.2878 17.2665 25.4008 17.1923 25.5385Z"
        fill="#D1DC37" />
</svg>