<svg width="32" height="32" viewBox="0 0 32 32" fill="none" xmlns="http://www.w3.org/2000/svg">
    <g clip-path="url(#clip0_5634_1854)">
        <path fill-rule="evenodd" clip-rule="evenodd"
            d="M-0.0799561 -0.0800781C10.5867 -0.0800781 21.2533 -0.0800781 31.92 -0.0800781C31.92 10.5866 31.92 21.2532 31.92 31.9199C21.2533 31.9199 10.5867 31.9199 -0.0799561 31.9199C-0.0799561 21.2532 -0.0799561 10.5866 -0.0799561 -0.0800781Z"
            fill="#F9F9F9" />
        <path fill-rule="evenodd" clip-rule="evenodd"
            d="M25.68 10.1601C25.5812 10.1778 25.5012 10.2312 25.44 10.3201C25.1486 10.0342 24.8019 9.82087 24.4 9.68012C24.24 9.73345 24.1332 9.84012 24.08 10.0001C24.3566 10.1756 24.6233 10.3623 24.88 10.5601C24.6745 10.6695 24.4878 10.6429 24.32 10.4801C23.9819 10.7635 24.0084 11.0035 24.4 11.2001C24.7339 11.3269 25.0273 11.5135 25.28 11.7601C25.359 11.4987 25.3856 11.232 25.36 10.9601C25.5283 10.9362 25.6883 10.9629 25.84 11.0401C25.7867 11.0934 25.7332 11.1468 25.68 11.2001C26.0198 11.5853 25.9931 11.9853 25.6 12.4001C25.5337 12.4733 25.4537 12.5266 25.36 12.5601C25.1635 12.1487 24.8435 11.9354 24.4 11.9201C24.4 12.0801 24.4 12.2401 24.4 12.4001C24.2121 12.0896 23.9454 11.8496 23.6 11.6801C21.5732 10.5068 19.5467 9.33345 17.52 8.16012C16.7904 7.65233 15.9904 7.49233 15.12 7.68012C12.5363 9.17263 9.97632 10.6926 7.43997 12.2401C7.31025 15.5399 7.23025 18.8465 7.19997 22.1601C6.97083 22.4704 6.6775 22.6836 6.31997 22.8001C5.89329 22.8001 5.46664 22.8001 5.03997 22.8001C4.82685 18.8072 4.82685 14.8604 5.03997 10.9601C5.1099 10.7082 5.2699 10.5215 5.51997 10.4001C8.71997 8.53345 11.92 6.66679 15.12 4.80012C16.1241 4.58609 17.0308 4.79943 17.84 5.44012C20.5166 6.93713 23.1299 8.51045 25.68 10.1601Z"
            fill="#1A498F" />
        <path fill-rule="evenodd" clip-rule="evenodd"
            d="M17.3599 26.4799C16.9396 26.5746 16.5129 26.6279 16.0799 26.6399C16.0566 26.2492 16.1899 26.1424 16.4799 26.3199C16.5998 26.1383 16.5732 25.9783 16.3999 25.8399C16.3062 25.8733 16.2262 25.9268 16.1599 25.9999C16.1067 23.0666 16.0532 20.1332 15.9999 17.1999C15.5975 16.9428 15.3842 16.5695 15.3599 16.0799C15.1358 16.3506 14.8425 16.4573 14.4799 16.3999C13.2619 15.7372 12.0353 15.0705 10.7999 14.3999C9.94258 13.8665 9.99591 13.3865 10.9599 12.9599C12.3879 12.2238 13.7746 11.4238 15.1199 10.5599C16.1241 10.3459 17.0308 10.5592 17.8399 11.1999C18.9188 11.9039 20.0388 12.5439 21.1999 13.1199C21.5534 13.4196 21.8467 13.7663 22.0799 14.1599C22.234 17.317 22.1807 20.4636 21.9199 23.5999C20.5111 24.7112 18.9911 25.6712 17.3599 26.4799Z"
            fill="#16468F" />
        <path fill-rule="evenodd" clip-rule="evenodd"
            d="M25.6801 10.1602C26.2929 10.3178 26.7461 10.6911 27.0401 11.2802C27.1468 15.0668 27.1468 18.8534 27.0401 22.6402C26.9802 22.7867 26.9002 22.9202 26.8001 23.0402C26.4461 23.1664 26.1261 23.1397 25.8401 22.9602C26.0676 22.9267 26.2809 22.8467 26.4801 22.7202C26.0996 22.5643 26.153 22.4576 26.6401 22.4002C26.7402 22.2802 26.8202 22.1467 26.8801 22.0002C26.9601 18.6939 26.9868 15.3873 26.9601 12.0802C26.8109 11.6375 26.6242 11.2108 26.4001 10.8002C26.2401 10.5868 26.0801 10.5868 25.9201 10.8002C25.7727 10.6068 25.6927 10.3935 25.6801 10.1602Z"
            fill="#214A7F" />
        <path fill-rule="evenodd" clip-rule="evenodd"
            d="M5.03997 10.96C4.82685 14.8603 4.82685 18.807 5.03997 22.8C5.46665 22.8 5.8933 22.8 6.31997 22.8C5.95271 23.1016 5.52605 23.1816 5.03997 23.04C4.93985 22.92 4.85985 22.7865 4.79997 22.64C4.6933 18.8532 4.6933 15.0666 4.79997 11.28C4.84452 11.1334 4.92452 11.0268 5.03997 10.96Z"
            fill="#22477F" />
        <path fill-rule="evenodd" clip-rule="evenodd"
            d="M25.68 10.1597C25.6926 10.393 25.7726 10.6064 25.92 10.7997C26.08 10.5864 26.24 10.5864 26.4 10.7997C26.6241 11.2104 26.8108 11.637 26.96 12.0797C26.8547 12.2234 26.7481 12.3834 26.64 12.5597C26.5107 12.252 26.4307 11.932 26.4 11.5997C26.0566 12.071 26.11 12.4977 26.56 12.8797C26.6667 15.333 26.6667 17.7864 26.56 20.2397C26.3196 20.6069 26.2931 20.9802 26.48 21.3597C26.4235 21.7166 26.2902 22.0366 26.08 22.3197C25.7881 22.1198 25.8148 21.9333 26.16 21.7597C25.836 21.3226 25.6492 20.8693 25.6 20.3997C25.5467 18.2664 25.4932 16.133 25.44 13.9997C25.36 16.079 25.3332 18.159 25.36 20.2397C25.2 20.2397 25.04 20.2397 24.88 20.2397C24.9097 17.5795 24.9097 14.9662 24.88 12.3997C24.72 12.3997 24.56 12.3997 24.4 12.3997C24.4 12.2397 24.4 12.0797 24.4 11.9197C24.8435 11.9349 25.1635 12.1482 25.36 12.5597C25.4537 12.5262 25.5337 12.4729 25.6 12.3997C25.9931 11.9849 26.0198 11.5849 25.68 11.1997C25.7332 11.1464 25.7867 11.093 25.84 11.0397C25.6883 10.9624 25.5283 10.9358 25.36 10.9597C25.3856 11.2316 25.359 11.4982 25.28 11.7597C25.0273 11.5131 24.7339 11.3264 24.4 11.1997C24.0084 11.0031 23.9819 10.7631 24.32 10.4797C24.4878 10.6424 24.6745 10.6691 24.88 10.5597C24.6233 10.3618 24.3566 10.1752 24.08 9.99969C24.1332 9.83969 24.24 9.73302 24.4 9.67969C24.8019 9.82044 25.1486 10.0338 25.44 10.3197C25.5012 10.2307 25.5812 10.1774 25.68 10.1597Z"
            fill="#134491" />
        <path fill-rule="evenodd" clip-rule="evenodd"
            d="M11.92 17.2002C12.5014 17.3973 13.0614 17.664 13.6 18.0002C14.0411 19.0527 13.6944 19.506 12.56 19.3602C12.2742 19.2346 12.0342 19.048 11.84 18.8002C11.7205 18.2524 11.7472 17.7191 11.92 17.2002Z"
            fill="#1D478A" />
        <path fill-rule="evenodd" clip-rule="evenodd"
            d="M17.36 26.4801C16.9765 26.8993 16.523 27.006 16 26.8001C15.9467 23.7601 15.8933 20.7201 15.84 17.6801C15.5082 17.1078 15.0548 16.681 14.48 16.4001C14.8425 16.4575 15.1359 16.3508 15.36 16.0801C15.3842 16.5697 15.5975 16.943 16 17.2001C16.0533 20.1334 16.1067 23.0668 16.16 26.0001C16.2262 25.927 16.3062 25.8735 16.4 25.8401C16.5733 25.9785 16.5998 26.1385 16.48 26.3201C16.1899 26.1426 16.0566 26.2494 16.08 26.6401C16.5129 26.6281 16.9397 26.5748 17.36 26.4801Z"
            fill="#204680" />
        <path fill-rule="evenodd" clip-rule="evenodd"
            d="M7.44004 12.2404C7.07097 12.3182 6.7243 12.3182 6.40004 12.2404C6.35082 12.3697 6.27082 12.4764 6.16004 12.5604C6.02678 15.1188 5.94678 17.6788 5.92004 20.2404C5.24361 20.331 5.21695 20.5975 5.84004 21.0404C6.07532 20.8995 6.20865 20.6862 6.24004 20.4004C6.26818 18.1751 6.34818 15.9618 6.48004 13.7604C6.23694 13.341 6.31694 12.9943 6.72004 12.7204C6.80004 12.8004 6.88004 12.8804 6.96004 12.9604C6.98154 15.5142 6.95489 18.1009 6.88004 20.7204C6.48815 20.9454 6.32815 21.2654 6.40004 21.6804C6.65279 21.2398 6.83946 21.2663 6.96004 21.7604C6.8257 21.9478 6.69238 22.1345 6.56004 22.3204C6.40004 22.1071 6.24004 21.8937 6.08004 21.6804C6.04769 21.9614 5.96769 22.2279 5.84004 22.4804C5.48439 22.114 5.21772 21.5275 5.04004 20.7204C5.04908 20.5225 5.12908 20.3625 5.28004 20.2404C5.38671 17.6804 5.38671 15.1204 5.28004 12.5604C4.93524 12.1808 4.98857 11.8608 5.44004 11.6004C5.5021 11.7489 5.60878 11.8556 5.76004 11.9204C6.19991 11.8446 6.59991 11.6846 6.96004 11.4404C7.24201 11.6306 7.40201 11.8972 7.44004 12.2404Z"
            fill="#144491" />
        <path fill-rule="evenodd" clip-rule="evenodd"
            d="M26.96 12.0796C26.9867 15.3867 26.96 18.6934 26.88 21.9996C26.8202 22.1462 26.7402 22.2796 26.64 22.3996C26.153 22.457 26.0995 22.5638 26.48 22.7196C26.2808 22.8462 26.0675 22.9262 25.84 22.9596C25.3371 22.8582 24.9371 22.5916 24.64 22.1596C24.6115 18.8946 24.5315 15.6413 24.4 12.3996C24.56 12.3996 24.72 12.3996 24.88 12.3996C24.9098 14.9662 24.9098 17.5794 24.88 20.2396C25.04 20.2396 25.2 20.2396 25.36 20.2396C25.3333 18.159 25.36 16.079 25.44 13.9996C25.4933 16.1329 25.5467 18.2663 25.6 20.3996C25.6493 20.8692 25.836 21.3225 26.16 21.7596C25.8149 21.9332 25.7882 22.1198 26.08 22.3196C26.2903 22.0366 26.4235 21.7166 26.48 21.3596C26.2931 20.9801 26.3197 20.6068 26.56 20.2396C26.6667 17.7863 26.6667 15.3329 26.56 12.8796C26.1101 12.4976 26.0567 12.0709 26.4 11.5996C26.4307 11.9319 26.5107 12.2519 26.64 12.5596C26.7482 12.3834 26.8547 12.2234 26.96 12.0796Z"
            fill="#245093" />
        <path fill-rule="evenodd" clip-rule="evenodd"
            d="M11.76 20.5596C12.5302 20.6378 13.1968 20.9578 13.76 21.5196C13.8933 22.4529 13.4933 22.8529 12.56 22.7196C12.3055 22.5522 12.0655 22.3655 11.84 22.1596C11.7602 21.6289 11.7336 21.0956 11.76 20.5596Z"
            fill="#20488B" />
    </g>
    <defs>
        <clipPath id="clip0_5634_1854">
            <rect width="32" height="32" fill="white" />
        </clipPath>
    </defs>
</svg>