<svg width="32" height="32" viewBox="0 0 32 32" fill="none" xmlns="http://www.w3.org/2000/svg">
    <g clip-path="url(#clip0_5863_392)">
        <path fill-rule="evenodd" clip-rule="evenodd"
            d="M14.7556 -0.177734C15.4667 -0.177734 16.1778 -0.177734 16.8889 -0.177734C21.7423 2.60511 26.7201 5.21252 31.8223 7.64449C31.8223 8.23709 31.8223 8.82966 31.8223 9.42227C26.4403 11.9355 21.1069 14.5429 15.8223 17.2445C10.5376 14.5429 5.20427 11.9355 -0.177734 9.42227C-0.177734 8.82966 -0.177734 8.23709 -0.177734 7.64449C4.81231 5.03123 9.79009 2.42382 14.7556 -0.177734Z"
            fill="#005DA8" />
        <path fill-rule="evenodd" clip-rule="evenodd"
            d="M31.8223 15.1109C31.8223 15.5849 31.8223 16.059 31.8223 16.5331C26.554 19.3452 21.2206 22.0711 15.8223 24.7109C10.4239 22.0711 5.09057 19.3452 -0.177734 16.5331C-0.177734 16.059 -0.177734 15.5849 -0.177734 15.1109C1.02803 14.359 2.27247 13.6479 3.5556 12.9775C7.57515 15.1355 11.664 17.1503 15.8223 19.022C19.9492 17.1956 23.9788 15.1807 27.9112 12.9775C29.2814 13.6027 30.5851 14.3138 31.8223 15.1109Z"
            fill="#E64418" />
        <path fill-rule="evenodd" clip-rule="evenodd"
            d="M31.8223 22.2221C31.8223 22.8147 31.8223 23.4073 31.8223 23.9999C26.8322 26.6132 21.8544 29.2205 16.8889 31.8221C16.1778 31.8221 15.4667 31.8221 14.7556 31.8221C9.90223 29.0393 4.92445 26.4319 -0.177734 23.9999C-0.177734 23.4073 -0.177734 22.8147 -0.177734 22.2221C1.16058 21.7312 2.46428 21.1386 3.73338 20.4443C7.737 22.4165 11.7074 24.4313 15.6445 26.4888C19.7553 24.5223 23.8442 22.5075 27.9112 20.4443C29.1802 21.1386 30.484 21.7312 31.8223 22.2221Z"
            fill="#434343" />
    </g>
    <defs>
        <clipPath id="clip0_5863_392">
            <rect width="32" height="32" fill="white" />
        </clipPath>
    </defs>
</svg>