<svg width="32" height="32" viewBox="0 0 32 32" fill="none" xmlns="http://www.w3.org/2000/svg">
    <path
        d="M15.917 1C18.641 1.43585 19.5817 2.60559 21.3337 4.66667C21.5537 4.44667 21.7737 4.22667 22.0003 4C24.3337 3.91667 24.3337 3.91667 26.667 4C27.6912 5.02419 27.4344 6.07787 27.5003 7.5C27.795 10.7056 28.97 11.823 31.3337 14C31.2087 15.5417 31.2087 15.5417 30.667 16.6667C29.787 16.6667 28.907 16.6667 28.0003 16.6667C28.0158 17.5174 28.0313 18.3682 28.0472 19.2448C28.0597 20.3576 28.0718 21.4705 28.0837 22.5833C28.0948 23.1445 28.106 23.7057 28.1175 24.2839C28.124 25.0895 28.124 25.0895 28.1305 25.9115C28.141 26.6551 28.141 26.6551 28.1517 27.4137C28.0003 28.6667 28.0003 28.6667 26.667 30C25.01 30.1411 23.4292 30.2027 21.7712 30.2005C21.2879 30.2034 20.8046 30.2062 20.3067 30.2092C19.2846 30.213 18.2624 30.2133 17.2402 30.2105C15.673 30.2083 14.1065 30.224 12.5394 30.2409C11.5472 30.2424 10.555 30.2429 9.56282 30.2422C9.09267 30.2483 8.62251 30.2545 8.1381 30.2608C6.81673 30.2482 6.81673 30.2482 4.66699 30C3.31285 27.9688 3.16926 27.5992 3.20345 25.3255C3.20775 24.8206 3.21204 24.3158 3.21647 23.7956C3.22764 23.2718 3.23881 22.748 3.25033 22.2083C3.25634 21.6768 3.26236 21.1453 3.26855 20.5977C3.28425 19.2872 3.30816 17.9769 3.33366 16.6667C2.45366 16.4467 1.57366 16.2267 0.666992 16C1.04921 13.5721 1.95452 12.4772 3.70866 10.7917C4.18647 10.331 4.66428 9.87042 5.15658 9.39583C7.01416 7.67917 8.90244 6.00448 10.8258 4.36198C12.0135 3.35717 12.0135 3.35717 13.0342 2.22135C14.0003 1.33333 14.0003 1.33333 15.917 1Z"
        fill="#087AE5" />
    <path
        d="M26.6666 12C29.8332 12.5 29.8332 12.5 31.3332 14C31.0832 15.4167 31.0832 15.4167 30.6666 16.6667C29.7866 16.6667 28.9066 16.6667 27.9999 16.6667C28.0154 17.5174 28.0308 18.3682 28.0468 19.2448C28.0593 20.3576 28.0714 21.4705 28.0832 22.5833C28.0944 23.1445 28.1056 23.7057 28.1171 24.2839C28.1235 25.0895 28.1235 25.0895 28.1301 25.9115C28.1406 26.6551 28.1406 26.6551 28.1513 27.4137C27.9999 28.6667 27.9999 28.6667 26.6666 30C25.0016 30.1248 23.412 30.1705 21.7473 30.1536C21.2625 30.1533 20.7776 30.153 20.2781 30.1527C19.2531 30.1507 18.2281 30.1454 17.2032 30.1372C15.6288 30.125 14.0548 30.1235 12.4804 30.1237C11.486 30.1204 10.4917 30.1165 9.4973 30.112C9.0237 30.1112 8.5501 30.1105 8.06215 30.1097C4.74394 30.0774 4.74394 30.0774 3.9999 29.3333C3.95107 27.4249 3.93831 25.5329 3.95823 23.625C3.96124 23.0875 3.96425 22.5499 3.96735 21.9961C3.97523 20.664 3.98719 19.332 3.9999 18C6.52594 18.526 6.52594 18.526 7.79157 19.7917C8.83724 21.634 9.09553 23.2415 9.33323 25.3333C10.2132 25.5533 11.0932 25.7733 11.9999 26C11.5255 25.6494 11.5255 25.6494 11.0416 25.2917C9.48585 23.3626 9.45573 21.7833 9.33323 19.3333C9.65042 17.6998 10.1186 16.2461 10.6666 14.6667C11.1066 14.6667 11.5466 14.6667 11.9999 14.6667C12.2199 17.7467 12.4399 20.8267 12.6666 24C13.3266 24.22 13.9866 24.44 14.6666 24.6667C14.6666 23.3467 14.6666 22.0267 14.6666 20.6667C15.4091 20.5292 16.1516 20.3917 16.9166 20.25C19.5106 19.5891 19.5106 19.5891 20.2916 17.25C20.4153 16.6175 20.5391 15.985 20.6666 15.3333C20.8866 15.3333 21.1066 15.3333 21.3332 15.3333C22.3519 17.7272 22.939 19.1125 22.1614 21.6458C21.4898 23.1298 20.7834 24.5722 19.9999 26C20.8799 25.78 21.7599 25.56 22.6666 25.3333C22.7473 24.8985 22.8281 24.4636 22.9114 24.0156C23.7214 19.7911 24.6107 15.8181 26.6666 12Z"
        fill="#0859AD" />
    <path
        d="M16.1253 1.20801C16.7441 1.24926 17.3628 1.29051 18.0003 1.33301C18.0003 1.55301 18.0003 1.77301 18.0003 1.99967C17.1624 2.18272 17.1624 2.18272 16.3076 2.36947C13.1995 3.66743 11.3752 5.6671 9.08366 8.08301C8.65655 8.52215 8.22944 8.96129 7.78939 9.41374C6.74241 10.492 5.70384 11.5784 4.66699 12.6663C6.86699 12.6663 9.06699 12.6663 11.3337 12.6663C11.5537 13.3263 11.7737 13.9863 12.0003 14.6663C11.5603 14.8863 11.1203 15.1063 10.667 15.333C10.354 17.3635 10.354 17.3635 10.2503 19.708C10.2005 20.5064 10.1506 21.3047 10.0993 22.1273C10.0666 22.7452 10.034 23.3631 10.0003 23.9997C10.6603 24.2197 11.3203 24.4397 12.0003 24.6663C12.0003 25.1063 12.0003 25.5463 12.0003 25.9997C10.9003 25.7797 9.80033 25.5597 8.66699 25.333C8.48824 24.6043 8.30949 23.8755 8.12533 23.1247C7.2745 20.4638 7.2745 20.4638 5.33366 18.6663C5.11366 18.6663 4.89366 18.6663 4.66699 18.6663C4.44699 21.7463 4.22699 24.8263 4.00033 27.9997C3.78033 27.9997 3.56033 27.9997 3.33366 27.9997C3.33366 24.2597 3.33366 20.5197 3.33366 16.6663C2.45366 16.4463 1.57366 16.2263 0.666992 15.9997C1.04921 13.5718 1.95452 12.4768 3.70866 10.7913C4.18647 10.3307 4.66428 9.87009 5.15658 9.39551C7.01416 7.67884 8.90244 6.00416 10.8258 4.36165C12.0159 3.35889 12.0159 3.35889 13.0212 2.20801C14.0003 1.33301 14.0003 1.33301 16.1253 1.20801Z"
        fill="#3792E8" />
    <path
        d="M23.3333 4.00034C24.4441 3.97185 25.5559 3.97324 26.6667 4.00034C27.7087 5.04237 27.5376 6.18486 27.6667 7.62534C27.861 9.89699 27.861 9.89699 28.6667 12.0003C28.0067 12.0003 27.3467 12.0003 26.6667 12.0003C25.8961 14.1065 25.3307 16.0204 25.0417 18.2503C24.6043 21.0688 23.7321 23.3599 22.6667 26.0003C21.7867 26.0003 20.9067 26.0003 20 26.0003C20.1598 25.5732 20.3197 25.1461 20.4844 24.7061C21.8371 20.7596 22.036 18.699 20.6667 14.667C20.883 11.5837 21.6135 8.89648 22.6667 6.00034C22.8867 5.34034 23.1067 4.68034 23.3333 4.00034Z"
        fill="#0567C6" />
    <path
        d="M27.3337 16C28.4337 16 29.5337 16 30.667 16C29.787 16.22 28.907 16.44 28.0003 16.6667C28.0158 17.5174 28.0313 18.3682 28.0472 19.2448C28.0597 20.3576 28.0718 21.4705 28.0837 22.5833C28.0948 23.1445 28.106 23.7057 28.1175 24.2839C28.124 25.0895 28.124 25.0895 28.1305 25.9115C28.141 26.6551 28.141 26.6551 28.1517 27.4137C28.0003 28.6667 28.0003 28.6667 26.667 30C24.9942 30.1166 23.3962 30.1545 21.7243 30.1302C21.2379 30.1283 20.7514 30.1264 20.2503 30.1245C18.6946 30.117 17.1392 30.1003 15.5837 30.0833C14.5298 30.0766 13.476 30.0706 12.4222 30.0651C9.83703 30.0504 7.25206 30.0274 4.66699 30C4.66699 29.12 4.66699 28.24 4.66699 27.3333C15.557 27.6633 15.557 27.6633 26.667 28C26.887 24.04 27.107 20.08 27.3337 16Z"
        fill="#3582C5" />
    <path
        d="M12 14.6663C13.0725 14.6388 14.145 14.6113 15.25 14.583C15.8533 14.5675 16.4566 14.5521 17.0781 14.5361C18.6667 14.6663 18.6667 14.6663 20 15.9997C20.1667 17.6663 20.1667 17.6663 20 19.333C18.6667 20.6663 18.6667 20.6663 16.5833 20.7497C15.9508 20.7222 15.3183 20.6947 14.6667 20.6663C14.6667 21.9863 14.6667 23.3063 14.6667 24.6663C13.7867 24.4463 12.9067 24.2263 12 23.9997C12 20.9197 12 17.8397 12 14.6663Z"
        fill="#E3E3D9" />
    <path
        d="M17.9997 3.33301C19.7775 3.77745 21.5552 4.2219 23.333 4.66634C22.7412 7.13234 22.0358 9.56334 21.333 11.9997C21.773 12.4397 22.213 12.8797 22.6663 13.333C22.0063 13.333 21.3463 13.333 20.6663 13.333C20.8863 13.993 21.1063 14.653 21.333 15.333C18.5814 15.333 16.0563 15.0295 13.333 14.6663C13.8555 14.1988 14.378 13.7313 14.9163 13.2497C17.3086 10.6296 17.9527 8.6001 18.083 5.08301C18.0418 4.21676 18.0418 4.21676 17.9997 3.33301Z"
        fill="#1977D0" />
    <path
        d="M14 3.33301C13.8376 6.47181 13.5971 8.21292 12 10.958C9.39065 13.1868 7.34541 13.3184 4 13.333C12.3333 3.33301 12.3333 3.33301 14 3.33301Z"
        fill="#0680F2" />
    <path
        d="M20.6667 13.333C21.5467 13.333 22.4267 13.333 23.3333 13.333C23.4296 14.048 23.5258 14.763 23.625 15.4997C23.9066 17.8251 23.9066 17.8251 24.4167 19.3122C24.7317 21.0189 24.3704 21.9106 23.7083 23.4997C23.5167 23.9706 23.3251 24.4415 23.1276 24.9268C22.9755 25.2808 22.8234 25.6349 22.6667 25.9997C21.7867 25.9997 20.9067 25.9997 20 25.9997C20.1598 25.5726 20.3197 25.1455 20.4844 24.7054C21.841 20.7477 22.21 18.5653 20.6667 14.6663C20.6667 14.2263 20.6667 13.7863 20.6667 13.333Z"
        fill="#C2CACA" />
    <path
        d="M9.33301 12.667C10.708 12.9587 10.708 12.9587 11.9997 13.3337C11.9997 13.7737 11.9997 14.2137 11.9997 14.667C11.3397 14.997 11.3397 14.997 10.6663 15.3337C10.3533 17.3642 10.3533 17.3642 10.2497 19.7087C10.1749 20.9062 10.1749 20.9062 10.0986 22.1279C10.066 22.7458 10.0333 23.3637 9.99967 24.0003C10.6597 24.2203 11.3197 24.4403 11.9997 24.667C11.9997 25.107 11.9997 25.547 11.9997 26.0003C10.8997 25.7803 9.79967 25.5603 8.66634 25.3337C8.42561 24.2374 8.19054 23.14 7.95801 22.042C7.82652 21.431 7.69504 20.82 7.55957 20.1904C7.44742 19.4363 7.44742 19.4363 7.33301 18.667C7.55301 18.447 7.77301 18.227 7.99967 18.0003C8.10967 17.2303 8.21967 16.4603 8.33301 15.667C8.66634 13.3337 8.66634 13.3337 9.33301 12.667Z"
        fill="#DFE7E8" />
    <path
        d="M17.9997 3.33301C19.2913 3.58301 19.2913 3.58301 20.6663 3.99967C20.8863 4.43967 21.1063 4.87967 21.333 5.33301C20.893 5.33301 20.453 5.33301 19.9997 5.33301C20.1647 5.75926 20.3297 6.18551 20.4997 6.62467C20.7506 9.69864 19.3694 11.968 17.9997 14.6663C16.4597 14.6663 14.9197 14.6663 13.333 14.6663C13.8555 14.1988 14.378 13.7313 14.9163 13.2497C17.3086 10.6296 17.9527 8.6001 18.083 5.08301C18.0418 4.21676 18.0418 4.21676 17.9997 3.33301Z"
        fill="#1379DA" />
    <path
        d="M16.0413 1.29199C17.0107 1.31262 17.0107 1.31262 17.9997 1.33366C17.9997 1.55366 17.9997 1.77366 17.9997 2.00033C17.4445 2.11634 16.8894 2.23236 16.3174 2.35189C13.1201 3.70624 11.2573 5.86418 8.91634 8.37533C8.05134 9.29737 7.18171 10.2151 6.30697 11.1279C5.92744 11.5349 5.54792 11.9419 5.1569 12.3612C3.88055 13.4338 2.9618 13.7326 1.33301 14.0003C4.91246 9.52601 9.08476 5.81912 13.333 2.00033C13.9997 1.33366 13.9997 1.33366 16.0413 1.29199Z"
        fill="#5BA9F3" />
    <path
        d="M10.6667 14.667C11.1067 14.667 11.5467 14.667 12 14.667C12.22 17.967 12.44 21.267 12.6667 24.667C11.7867 24.447 10.9067 24.227 10 24.0003C9.25317 20.3407 9.47192 18.1108 10.6667 14.667Z"
        fill="#1F75C9" />
    <path
        d="M26.6663 4.66699C26.8863 4.66699 27.1063 4.66699 27.333 4.66699C27.3734 5.08465 27.4138 5.5023 27.4554 5.93262C27.5113 6.47746 27.5671 7.0223 27.6247 7.58366C27.7059 8.39577 27.7059 8.39577 27.7887 9.22428C27.9269 10.6955 27.9269 10.6955 28.6663 12.0003C28.0063 12.0003 27.3463 12.0003 26.6663 12.0003C26.4876 12.6191 26.3088 13.2378 26.1247 13.8753C25.392 15.8419 24.9169 16.7044 23.333 18.0003C23.333 16.6803 23.333 15.3603 23.333 14.0003C23.773 14.0003 24.213 14.0003 24.6663 14.0003C24.8107 13.031 24.8107 13.031 24.958 12.042C25.333 10.0003 25.333 10.0003 25.9997 9.33366C26.2447 7.78154 26.468 6.22577 26.6663 4.66699Z"
        fill="#3A7DC1" />
    <path
        d="M25.3337 4.66699C25.7737 4.66699 26.2137 4.66699 26.667 4.66699C26.8978 8.43629 26.2898 10.687 24.667 14.0003C24.007 13.7803 23.347 13.5603 22.667 13.3337C22.887 12.7424 23.107 12.1512 23.3337 11.542C24.0886 9.4256 24.0886 9.4256 24.0003 7.50033C24.0003 6.00033 24.0003 6.00033 25.3337 4.66699Z"
        fill="#015FB9" />
    <path
        d="M4 18C5.77836 18.2453 6.54666 18.5467 7.83333 19.8333C8.8072 21.5863 8.83125 22.6916 8.66667 24.6667C8.22667 24.0067 7.78667 23.3467 7.33333 22.6667C5.62478 22.1802 5.62478 22.1802 4 22C4 20.68 4 19.36 4 18Z"
        fill="#1375D2" />
    <path
        d="M4 22C5.1 22 6.2 22 7.33333 22C7.99333 23.32 8.65333 24.64 9.33333 26C7.41667 26.125 7.41667 26.125 5.33333 26C4 24 4 24 4 22Z"
        fill="#0565C1" />
    <path
        d="M12 14.667C12.22 14.667 12.44 14.667 12.6667 14.667C12.6667 17.087 12.6667 19.507 12.6667 22.0003C13.1067 22.0003 13.5467 22.0003 14 22.0003C14.22 21.5603 14.44 21.1203 14.6667 20.667C14.6667 21.987 14.6667 23.307 14.6667 24.667C13.7867 24.447 12.9067 24.227 12 24.0003C12 20.9203 12 17.8403 12 14.667Z"
        fill="#9FBAD1" />
    <path
        d="M10 20C10 21.32 10 22.64 10 24C10.66 24.22 11.32 24.44 12 24.6667C12 25.1067 12 25.5467 12 26C10.9 25.78 9.8 25.56 8.66667 25.3333C8.44667 23.7933 8.22667 22.2533 8 20.6667C9.33333 20 9.33333 20 10 20Z"
        fill="#D9DAD1" />
    <path
        d="M4 24C4.37125 24.2062 4.7425 24.4125 5.125 24.625C6.75027 25.3717 8.24149 25.7069 10 26C9.78 26.44 9.56 26.88 9.33333 27.3333C7.5676 27.729 5.80535 27.8281 4 28C4 26.68 4 25.36 4 24Z"
        fill="#015CB5" />
    <path
        d="M14.667 16C16.317 16.33 16.317 16.33 18.0003 16.6667C18.0003 17.3267 18.0003 17.9867 18.0003 18.6667C16.9003 18.8867 15.8003 19.1067 14.667 19.3333C14.667 18.2333 14.667 17.1333 14.667 16Z"
        fill="#2675C6" />
    <path
        d="M21.3333 20.667C22.375 21.4587 22.375 21.4587 23.3333 22.667C23.125 24.4587 23.125 24.4587 22.6667 26.0003C21.7867 26.0003 20.9067 26.0003 20 26.0003C20.44 24.2403 20.88 22.4803 21.3333 20.667Z"
        fill="#A9B6BF" />
    <path
        d="M23.3333 18C23.7733 18.22 24.2133 18.44 24.6667 18.6667C24.2909 20.8464 23.6669 21.8838 22 23.3333C22 22.2333 22 21.1333 22 20C22.44 20 22.88 20 23.3333 20C23.3333 19.34 23.3333 18.68 23.3333 18Z"
        fill="#CDCDC3" />
</svg>