<svg width="32" height="32" viewBox="0 0 32 32" fill="none" xmlns="http://www.w3.org/2000/svg">
    <path
        d="M28 17.4346L16.5 22.4995C16.125 22.6201 15.75 22.6201 15.375 22.4995L3.75 17.4346C3.5 17.4346 3.25 17.4346 3.25 17.7964V20.0876C3.25 20.3288 3.25 20.4494 3.625 20.57L15.5 25.7556C15.875 25.8762 16.25 25.8762 16.625 25.7556L28.25 20.6906C28.5 20.6906 28.625 20.4494 28.625 20.2082V17.9169C28.625 17.6758 28.375 17.5552 28.125 17.5552H28V17.4346Z"
        fill="#004BE2" />
    <path
        d="M31.625 11.7666L26.875 9.71647L16.375 14.299C16 14.4196 15.625 14.4196 15.25 14.299L9.125 11.646C9 11.646 9 11.4048 9.125 11.2842L10.75 10.5606H11.125L15.25 12.3695C15.625 12.3695 16 12.3695 16.375 12.3695L24.625 8.75171L16.375 5.0133C16 4.8927 15.625 4.8927 15.25 5.0133L0.25 11.7666C0.25 11.7666 0 12.0078 0 12.2489V13.5755C0 13.8167 0 13.9373 0.25 14.0579L15.5 20.6905C15.875 20.8111 16.25 20.8111 16.625 20.6905L31.75 14.0579C31.875 14.0579 32 13.8167 32 13.5755V12.2489C32 12.0078 32 11.8872 31.75 11.7666H31.625Z"
        fill="#004BE2" />
</svg>