<svg width="32" height="32" viewBox="0 0 32 32" fill="none" xmlns="http://www.w3.org/2000/svg">
    <g clip-path="url(#clip0_5663_4344)">
        <path fill-rule="evenodd" clip-rule="evenodd"
            d="M-0.0131836 -0.0136719C10.6535 -0.0136719 21.3202 -0.0136719 31.9868 -0.0136719C31.9868 10.653 31.9868 21.3197 31.9868 31.9863C21.3202 31.9863 10.6535 31.9863 -0.0131836 31.9863C-0.0131836 21.3197 -0.0131836 10.653 -0.0131836 -0.0136719Z"
            fill="#D92B6A" />
        <path fill-rule="evenodd" clip-rule="evenodd"
            d="M4.86659 21.6669C4.85774 20.7023 4.86665 19.7423 4.89326 18.7869C9.00073 21.1652 13.1118 23.5386 17.2266 25.9069C19.7393 24.4795 22.2415 23.035 24.7333 21.5736C23.9066 21.0891 23.0799 20.6047 22.2533 20.1202C20.5956 21.069 18.9422 22.0246 17.2933 22.9869C17.2577 23.0047 17.2221 23.0047 17.1866 22.9869C13.0778 20.6281 8.97561 18.2592 4.87993 15.8802C4.86214 13.9336 4.86214 11.9869 4.87993 10.0402C8.99547 7.65801 13.111 5.27577 17.2266 2.89355C20.511 4.79134 23.7955 6.6891 27.0799 8.58689C27.1154 9.56734 27.1154 10.5496 27.0799 11.5336C25.4314 12.5022 23.7736 13.4533 22.1066 14.3869C20.482 13.4605 18.8597 12.5272 17.2399 11.5869C15.6166 12.5274 13.99 13.4607 12.3599 14.3869C11.5256 13.9342 10.6989 13.4675 9.87993 12.9869C9.84438 12.9691 9.84438 12.9513 9.87993 12.9336C12.3271 11.5211 14.776 10.1122 17.2266 8.70689C18.8533 9.64022 20.4799 10.5736 22.1066 11.5069C22.9482 11.0394 23.7793 10.555 24.5999 10.0536C22.1482 8.62547 19.6905 7.20771 17.2266 5.80022C13.9513 7.68867 10.6757 9.57755 7.39993 11.4669C7.38214 12.4447 7.36438 13.4224 7.34659 14.4002C10.6357 16.3204 13.9334 18.227 17.2399 20.1202C18.872 19.1682 20.5076 18.2216 22.1466 17.2802C22.1878 17.2486 22.2322 17.2397 22.2799 17.2536C23.8865 18.1791 25.491 19.108 27.0933 20.0402C27.1111 21.0624 27.1111 22.0847 27.0933 23.1069C23.811 25.0125 20.5265 26.9146 17.2399 28.8136C13.1081 26.4412 8.98369 24.059 4.86659 21.6669Z"
            fill="#F9F9F9" />
        <path fill-rule="evenodd" clip-rule="evenodd"
            d="M4.89311 18.7864C4.8665 19.7419 4.85759 20.7019 4.86644 21.6664C4.83098 20.7019 4.83098 19.733 4.86644 18.7598C4.88263 18.7631 4.89151 18.772 4.89311 18.7864Z"
            fill="#E05088" />
    </g>
    <defs>
        <clipPath id="clip0_5663_4344">
            <rect width="32" height="32" fill="white" />
        </clipPath>
    </defs>
</svg>