<svg width="32" height="32" viewBox="0 0 32 32" fill="none" xmlns="http://www.w3.org/2000/svg">
    <g clip-path="url(#clip0_5663_4344)">
        <path
            d="M0 16.7008C0 10.4943 5.01758 5.46289 11.2071 5.46289H11.7016C17.618 5.46289 22.4142 10.2723 22.4142 16.2049C22.4142 22.1375 17.618 26.9469 11.7016 26.9469H0V16.7008Z"
            fill="#7242EE" />
        <path
            d="M32.0002 13.3928C32.0002 8.78671 28.2764 5.05273 23.6829 5.05273H23.349C18.94 5.05273 15.3657 8.63678 15.3657 13.0579C15.3657 17.479 18.94 21.0631 23.349 21.0631H32.0002V13.3928Z"
            fill="#D5C6FA" />
        <path opacity="0.5" fill-rule="evenodd" clip-rule="evenodd"
            d="M17.7258 7.375C16.2683 8.82535 15.3657 10.8357 15.3657 13.0574C15.3657 16.805 17.9339 19.9512 21.4018 20.8228C22.0512 19.4376 22.4141 17.8906 22.4141 16.2587C22.4141 12.5659 20.5558 9.30841 17.7258 7.375Z"
            fill="#AA8EF5" />
    </g>
    <defs>
        <clipPath id="clip0_5663_4344">
            <rect width="32" height="32" fill="white" />
        </clipPath>
    </defs>
</svg>