<svg width="32" height="32" viewBox="0 0 32 32" fill="none" xmlns="http://www.w3.org/2000/svg">
    <g clip-path="url(#clip0_5767_45)">
        <path fill-rule="evenodd" clip-rule="evenodd"
            d="M17.2001 0.0576372C20.0931 -0.0970139 22.9685 0.0595535 25.8262 0.52733C26.3055 0.997023 26.7847 1.46672 27.2639 1.93641C28.1538 6.18282 27.8343 10.2534 26.3055 14.1484C24.2992 13.4475 22.3823 13.1344 20.5547 13.209C20.078 10.7234 19.9182 8.21836 20.0755 5.69395C18.0709 5.52341 16.154 5.83653 14.3247 6.63334C13.3992 4.85222 13.0797 2.97344 13.3662 0.997023C14.8988 1.2486 16.1768 0.935474 17.2001 0.0576372Z"
            fill="#098CB1" />
        <path fill-rule="evenodd" clip-rule="evenodd"
            d="M2.82324 14.1485C2.82324 11.0173 2.82324 7.88594 2.82324 4.75468C4.81645 3.39643 7.05286 2.45705 9.53248 1.93652C11.3759 5.59288 10.2577 7.78476 6.17786 8.51222C5.85838 10.391 5.53888 12.2698 5.2194 14.1485C4.48166 15.1801 3.68294 15.1801 2.82324 14.1485Z"
            fill="#1288AC" />
        <path fill-rule="evenodd" clip-rule="evenodd"
            d="M2.82324 16.9668C3.7817 16.9668 4.74017 16.9668 5.69863 16.9668C5.40385 19.2439 5.72333 21.4357 6.65709 23.5425C7.84193 24.2431 9.11989 24.5563 10.4909 24.4819C10.4909 26.0476 10.4909 27.6131 10.4909 29.1788C7.83926 28.8422 5.28337 28.2159 2.82324 27.3C2.82324 23.8556 2.82324 20.4112 2.82324 16.9668Z"
            fill="#1289AD" />
        <path fill-rule="evenodd" clip-rule="evenodd"
            d="M20.0754 17.9062C22.6314 17.9062 25.1872 17.9062 27.7432 17.9062C29.8736 30.7355 25.0813 34.8062 13.3662 30.1183C13.3662 28.5526 13.3662 26.987 13.3662 25.4213C15.5635 25.1805 17.6402 25.4936 19.5962 26.3607C20.0735 23.5598 20.2332 20.7417 20.0754 17.9062Z"
            fill="#048DB3" />
    </g>
    <defs>
        <clipPath id="clip0_5767_45">
            <rect width="32" height="32" fill="white" />
        </clipPath>
    </defs>
</svg>