<svg width="32" height="32" viewBox="0 0 32 32" fill="none" xmlns="http://www.w3.org/2000/svg">
    <path fill-rule="evenodd" clip-rule="evenodd"
        d="M10.6883 0.0755201C15.1493 -0.392493 18.4464 1.31477 20.5796 5.19729C20.8199 5.76683 21.0152 6.35218 21.1657 6.95333C21.3439 9.26544 21.4661 11.5825 21.5321 13.9043C21.433 16.074 21.3597 18.2446 21.3123 20.4163C20.2153 23.9765 17.8462 25.3179 14.2052 24.4405C12.3408 23.6521 11.2417 22.2619 10.9081 20.2699C10.8103 16.4165 10.8103 12.5628 10.9081 8.70936C11.0968 7.85754 11.634 7.41853 12.52 7.39233C13.3249 7.42731 13.8623 7.81759 14.1319 8.56302C14.1387 12.3738 14.2364 16.1785 14.425 19.9773C14.8551 20.9838 15.6122 21.3496 16.6963 21.0748C17.322 20.8291 17.6884 20.3658 17.7954 19.6846C17.9356 15.63 17.8866 11.5814 17.6488 7.53867C16.4122 4.32322 14.0921 3.07937 10.6883 3.8071C8.53549 4.47058 7.24112 5.90966 6.80502 8.12402C6.514 12.319 6.514 16.5141 6.80502 20.7089C7.80119 25.5328 10.7564 28.1668 15.6706 28.6111C20.5365 28.2633 23.5405 25.7267 24.6826 21.0016C24.8478 19.3479 24.9455 17.6894 24.9757 16.0262C25.5504 14.8527 26.4541 14.5356 27.6867 15.075C27.9136 15.2526 28.0845 15.4721 28.1995 15.7335C28.9766 19.9521 28.1462 23.8057 25.7084 27.2941C21.7199 31.7474 16.8599 33.04 11.1279 31.172C6.349 29.032 3.73573 25.3493 3.28812 20.1236C3.19042 16.2701 3.19042 12.4165 3.28812 8.56302C3.75768 3.97363 6.22444 1.14451 10.6883 0.0755201Z"
        fill="#0089B5" />
    <path fill-rule="evenodd" clip-rule="evenodd"
        d="M26.0741 7.53857C27.8531 8.46166 28.7566 9.92503 28.785 11.9287C28.608 13.031 27.9975 13.6895 26.9533 13.9042C27.7983 12.6674 27.7005 11.5211 26.6602 10.4653C25.534 11.389 25.3386 12.4865 26.0741 13.7579C26.0253 13.831 25.9764 13.9042 25.9276 13.9774C24.5044 13.2498 24.0403 12.1278 24.5354 10.6116C25.2044 9.66572 25.7173 8.64136 26.0741 7.53857Z"
        fill="#0089B5" />
</svg>