<svg width="32" height="32" viewBox="0 0 32 32" fill="none" xmlns="http://www.w3.org/2000/svg">
    <g clip-path="url(#clip0_5901_218)">
        <path fill-rule="evenodd" clip-rule="evenodd"
            d="M13.6796 -0.0800781C14.4262 -0.0800781 15.1729 -0.0800781 15.9196 -0.0800781C15.9705 2.65224 15.9172 5.37224 15.7596 8.07992C13.6505 8.12152 11.8371 8.86818 10.3196 10.3199C8.4529 8.34659 6.5329 6.42659 4.55957 4.55992C7.09791 2.03738 10.1379 0.490717 13.6796 -0.0800781Z"
            fill="#F2389C" />
        <path fill-rule="evenodd" clip-rule="evenodd"
            d="M15.9198 -0.0800781C16.6665 -0.0800781 17.413 -0.0800781 18.1598 -0.0800781C25.7865 1.46659 30.373 6.05325 31.9198 13.6799C31.9198 14.4266 31.9198 15.1732 31.9198 15.9199C29.1998 15.9199 26.4798 15.9199 23.7598 15.9199C23.63 12.1163 21.7634 9.58293 18.1598 8.31992C17.3726 8.11987 16.5726 8.03987 15.7598 8.07992C15.9174 5.37224 15.9707 2.65224 15.9198 -0.0800781Z"
            fill="#12196A" />
        <path fill-rule="evenodd" clip-rule="evenodd"
            d="M4.55992 4.55957C6.53325 6.42624 8.45325 8.34624 10.3199 10.3196C8.0941 12.7179 7.48077 15.4912 8.47992 18.6396C9.88619 21.9154 12.3662 23.6221 15.9199 23.7596C15.9199 26.4796 15.9199 29.1996 15.9199 31.9196C15.1732 31.9196 14.4266 31.9196 13.6799 31.9196C6.05325 30.3728 1.46659 25.7863 -0.0800781 18.1596C-0.0800781 16.6663 -0.0800781 15.1729 -0.0800781 13.6796C0.491915 10.1355 2.03858 7.09547 4.55992 4.55957Z"
            fill="#3F6AF9" />
        <path fill-rule="evenodd" clip-rule="evenodd"
            d="M31.9199 23.9199C31.9199 26.5866 31.9199 29.2532 31.9199 31.9199C29.2532 31.9199 26.5866 31.9199 23.9199 31.9199C23.9199 29.2532 23.9199 26.5866 23.9199 23.9199C26.5866 23.9199 29.2532 23.9199 31.9199 23.9199Z"
            fill="#12186A" />
    </g>
    <defs>
        <clipPath id="clip0_5901_218">
            <rect width="32" height="32" fill="white" />
        </clipPath>
    </defs>
</svg>