<svg width="32" height="32" viewBox="0 0 32 32" fill="none" xmlns="http://www.w3.org/2000/svg">
    <g clip-path="url(#clip0_5802_372)">
        <path fill-rule="evenodd" clip-rule="evenodd"
            d="M-0.0712891 -0.0712891C10.5954 -0.0712891 21.262 -0.0712891 31.9287 -0.0712891C31.9287 10.5954 31.9287 21.262 31.9287 31.9287C21.262 31.9287 10.5954 31.9287 -0.0712891 31.9287C-0.0712891 21.262 -0.0712891 10.5954 -0.0712891 -0.0712891Z"
            fill="#F9F9F9" />
        <path fill-rule="evenodd" clip-rule="evenodd"
            d="M22.8266 6.6138C23.3345 6.60067 23.5005 6.8377 23.3244 7.32491C22.6376 7.66821 21.9739 8.04745 21.3333 8.46269C20.7641 9.76758 20.2663 11.095 19.84 12.4449C20.2397 12.4912 20.6191 12.6098 20.9777 12.8005C23.4793 15.0079 24.1666 17.6864 23.04 20.836C21.0877 24.5251 18.0774 25.8289 14.0088 24.7471C10.5845 23.3087 9.04371 20.7249 9.38662 16.996C9.62032 15.9119 10.0707 14.9401 10.7377 14.0805C11.5351 13.5633 12.3884 13.1604 13.2977 12.8716C13.3451 12.7768 13.3926 12.682 13.44 12.5871C13.2271 11.9715 13.0138 11.3552 12.8 10.7382C12.7399 10.5312 12.6213 10.46 12.4444 10.5249C12.1356 10.9822 11.78 11.3851 11.3777 11.7338C10.8882 11.5009 10.3904 11.2875 9.8844 11.0938C9.35905 11.0543 8.83756 11.0543 8.31996 11.0938C8.24573 11.014 8.19833 10.9191 8.17773 10.8094C9.25652 9.44553 10.4417 8.16553 11.7333 6.96935C13.4727 7.01568 15.2031 7.13419 16.9244 7.32491C17.0193 7.51453 17.0193 7.70417 16.9244 7.8938C16.0091 8.43013 15.4164 9.21235 15.1466 10.2405C14.5935 10.134 14.0246 10.0629 13.44 10.0271C13.6814 10.87 13.9659 11.6997 14.2933 12.516C15.8417 12.2873 17.4061 12.1214 18.9866 12.0182C19.5457 10.6016 20.091 9.17936 20.6222 7.75158C21.359 7.34779 22.0938 6.96854 22.8266 6.6138Z"
            fill="#070706" />
        <path fill-rule="evenodd" clip-rule="evenodd"
            d="M12.0177 7.75133C13.1648 7.73745 14.3025 7.83227 15.4311 8.03577C15.1761 8.42704 14.9391 8.83 14.72 9.24466C13.2269 9.00759 12.0417 9.50537 11.1644 10.738C10.6889 10.5482 10.2148 10.3586 9.74219 10.1691C10.5038 9.36029 11.2623 8.55436 12.0177 7.75133Z"
            fill="#F0B403" />
        <path fill-rule="evenodd" clip-rule="evenodd"
            d="M15.5732 13.1553C16.5699 13.1317 17.5655 13.1554 18.5599 13.2265C18.2557 13.9967 17.9239 14.7552 17.5643 15.502C15.6968 15.9715 13.8004 16.1137 11.8754 15.9287C11.4463 15.8569 11.1144 15.6435 10.8799 15.2887C11.4151 14.6643 12.0788 14.2139 12.871 13.9376C13.7828 13.651 14.6835 13.3903 15.5732 13.1553Z"
            fill="#F4F4F4" />
        <path fill-rule="evenodd" clip-rule="evenodd"
            d="M19.4136 13.2976C20.3477 13.2537 20.5847 13.6093 20.1247 14.3642C19.7685 14.6135 19.3893 14.8269 18.9869 15.0042C18.9396 14.9331 18.8921 14.862 18.8447 14.7909C19.0492 14.2952 19.239 13.7975 19.4136 13.2976Z"
            fill="#E9E9E9" />
        <path fill-rule="evenodd" clip-rule="evenodd"
            d="M21.1197 14.5781C22.2905 15.7964 22.7409 17.266 22.4708 18.987C21.5542 22.7526 19.16 24.483 15.2886 24.1781C11.3901 23.045 9.77829 20.4614 10.453 16.427C14.0441 17.3766 17.4573 16.9262 20.693 15.0759C20.8651 14.9281 21.0074 14.7622 21.1197 14.5781Z"
            fill="#F7B901" />
    </g>
    <defs>
        <clipPath id="clip0_5802_372">
            <rect width="32" height="32" fill="white" />
        </clipPath>
    </defs>
</svg>