<svg width="32" height="32" viewBox="0 0 32 32" fill="none" xmlns="http://www.w3.org/2000/svg">
    <path fill-rule="evenodd" clip-rule="evenodd"
        d="M18.8226 0.628906C18.4938 0.87788 18.1801 1.15986 17.8814 1.47485C17.6052 1.85644 17.4846 2.27941 17.5195 2.74377C17.5573 3.28545 17.4607 3.80242 17.2299 4.29466C17.2479 4.3802 17.2961 4.42719 17.3747 4.43565C17.3834 4.51223 17.4316 4.55922 17.5195 4.57664C17.7718 4.35976 18.0614 4.21877 18.3882 4.15367C18.2738 4.33614 18.129 4.50064 17.9538 4.64714C18.0865 4.68639 18.1829 4.75689 18.2434 4.85863C17.4084 5.30688 16.9741 6.01183 16.9403 6.97349C16.5918 7.34222 16.5676 7.76519 16.8679 8.2424C17.1323 8.46429 17.4461 8.58178 17.8091 8.59488C16.8168 9.36233 16.865 9.50332 17.9538 9.01785C18.1764 8.77714 18.4177 8.56565 18.6778 8.38339C18.4676 8.83372 18.5158 9.25669 18.8226 9.65231C18.7082 9.77938 18.5634 9.87337 18.3882 9.93429C18.1819 9.71842 18.0855 9.76542 18.0986 10.0753C18.1356 10.4301 18.2563 10.759 18.4606 11.0622C19.4801 12.6893 20.8556 13.9582 22.5871 14.869C22.5697 15.0221 22.4731 15.1161 22.2975 15.1509C21.1753 14.7394 20.0169 14.5045 18.8226 14.446C18.4253 14.4815 18.0633 14.3875 17.7367 14.164C17.2636 14.4281 16.781 14.5221 16.2888 14.446C16.2406 14.2279 16.3129 14.0399 16.5059 13.882C16.3769 13.7284 16.2322 13.7284 16.0716 13.882C15.9243 13.5256 15.7554 13.5256 15.5648 13.882C15.4836 13.8084 15.387 13.7615 15.2752 13.741C14.7521 13.9607 14.2453 14.1957 13.755 14.446C13.9663 14.1692 14.2077 13.9108 14.4789 13.6705C14.2182 13.6258 14.1699 13.5318 14.3341 13.3886C14.0528 13.4316 13.7632 13.4316 13.4654 13.3886C13.6102 13.3416 13.755 13.2946 13.8997 13.2476C13.6102 13.2006 13.3206 13.1536 13.031 13.1066C13.5861 12.7871 13.5379 12.6931 12.8862 12.8246C13.4319 12.4788 13.3595 12.4083 12.669 12.6131C12.4671 12.5736 12.2981 12.4796 12.1623 12.3311C12.3769 12.0516 12.6182 11.7931 12.8862 11.5557C12.7897 11.4617 12.6932 11.4617 12.5966 11.5557C12.3612 11.9206 12.0716 12.085 11.7279 12.0491C12.1388 11.5786 12.5973 11.1556 13.1034 10.7802C13.6623 9.77704 13.976 8.69611 14.0445 7.53745C14.0417 7.36458 13.9934 7.22359 13.8997 7.11448C13.8569 6.84617 13.7604 6.61118 13.6102 6.40952C13.8199 5.48354 14.2301 4.63759 14.8409 3.87169C14.9351 3.62707 14.9111 3.39208 14.7685 3.16674C14.9295 3.05885 15.0261 2.91786 15.0581 2.74377C16.0432 1.60548 17.2981 0.900522 18.8226 0.628906Z"
        fill="#F9C075" />
    <path fill-rule="evenodd" clip-rule="evenodd"
        d="M27.7995 13.4593C27.8181 12.8415 27.7699 12.2306 27.6547 11.6264C27.8614 11.8588 27.982 12.1408 28.0167 12.4723C28.2167 12.1713 28.3615 11.8424 28.4511 11.4854C28.6122 11.5989 28.7811 11.6929 28.9579 11.7674C29.0027 11.942 29.0751 11.942 29.175 11.7674C29.2926 11.1768 29.2684 10.6128 29.1026 10.0755C28.9012 9.21282 28.5393 8.41386 28.0167 7.67865C27.5789 6.25875 26.9997 4.89584 26.2793 3.58993C25.9486 2.9626 25.49 2.44565 24.9038 2.03903C24.7475 1.75098 24.5062 1.563 24.1798 1.47507C22.5344 0.416954 20.7487 0.134973 18.8226 0.629122C17.2981 0.900738 16.0432 1.60569 15.0581 2.74398C14.8829 2.8049 14.7381 2.89889 14.6237 3.02596C14.3001 2.92049 14.3484 2.803 14.7685 2.67349C14.3048 2.68565 13.8705 2.82665 13.4654 3.09646C12.1545 4.373 10.8514 5.64192 9.55609 6.90321C9.70088 6.9502 9.84567 6.9972 9.99046 7.0442C9.9422 7.09119 9.89393 7.1382 9.84567 7.18519C10.087 7.23218 10.3283 7.27919 10.5696 7.32618C9.88517 7.88749 9.40255 8.56894 9.12173 9.37054C9.08885 9.71354 9.23363 9.94852 9.55609 10.0755C10.3203 10.4582 11.0925 10.4347 11.8727 10.005C12.6402 9.42172 13.2193 8.69328 13.6102 7.81965C13.6985 7.69402 13.7467 7.55303 13.755 7.39667C13.8414 7.42983 13.8897 7.50033 13.8998 7.60816C13.7391 7.89671 13.6426 8.2022 13.6102 8.5246C13.1894 9.10442 12.7309 9.66839 12.2347 10.2165C11.9878 10.5093 11.8189 10.8383 11.7279 11.2034C11.4489 11.5752 11.3765 11.9982 11.5107 12.4723C11.7319 13.0203 12.0456 13.5137 12.4519 13.9527C12.1247 13.9589 11.8351 13.8415 11.5831 13.6003C11.4369 13.9564 11.5335 14.2618 11.8727 14.5167C11.7168 14.583 11.572 14.5594 11.4384 14.4462C11.3357 14.3188 11.1909 14.2718 11.004 14.3052C10.9557 14.5872 10.9075 14.8692 10.8592 15.1512C10.5835 15.1847 10.3904 15.3257 10.28 15.5741C10.0976 15.8374 9.85632 16.0253 9.55609 16.1381C9.73304 15.9355 9.73304 15.724 9.55609 15.5036C9.77658 15.2422 10.042 15.0308 10.3524 14.8692C10.5412 14.5252 10.7101 14.1727 10.8592 13.8117C10.745 13.5826 10.6002 13.3711 10.4248 13.1773C10.6616 13.0108 10.9029 13.0108 11.1488 13.1773C11.197 13.1068 11.2453 13.0363 11.2936 12.9658C10.9344 12.2792 10.9344 11.5977 11.2936 10.9214C10.7691 10.8051 10.2382 10.7346 9.70088 10.71C8.834 10.4082 8.52029 9.82075 8.75975 8.94757C8.93504 8.48807 9.20048 8.08859 9.55609 7.74915C9.25418 7.60232 9.01286 7.39084 8.83215 7.11469C10.4078 5.4157 12.097 3.8413 13.8998 2.39151C14.2764 2.26175 14.6625 2.16775 15.0581 2.10952C17.2805 0.193887 19.8383 -0.417072 22.7319 0.276646C23.1223 0.384481 23.4842 0.548971 23.8178 0.770113C24.4679 0.594388 25.1195 0.617885 25.7725 0.840608C26.5975 1.24228 27.4179 1.64175 28.2339 2.03903C28.3622 2.15535 28.4104 2.29634 28.3787 2.462C29.8577 2.84242 30.3645 3.73536 29.899 5.14082C29.6101 5.45763 29.2482 5.59862 28.8131 5.5638C28.7735 6.17333 28.6287 6.76078 28.3787 7.32618C28.7431 8.05602 29.1051 8.78446 29.4646 9.51153C29.6064 10.4255 29.534 11.3185 29.2474 12.1904C29.0627 12.3517 28.8697 12.3517 28.6683 12.1904C28.4835 12.6941 28.1939 13.1171 27.7995 13.4593Z"
        fill="#563765" />
    <path fill-rule="evenodd" clip-rule="evenodd"
        d="M24.1798 1.47497C23.3852 1.3787 22.8784 1.70768 22.6595 2.46191C22.5629 3.11987 22.5629 3.77782 22.6595 4.43578C22.9068 4.82718 23.2688 5.06217 23.7454 5.14073C23.7936 5.14073 23.842 5.14073 23.8902 5.14073C24.2232 5.49095 24.6094 5.77293 25.0485 5.98667C25.1589 6.23516 25.352 6.37615 25.6277 6.40965C25.921 6.83513 26.2106 7.2581 26.4964 7.67856C26.5102 8.12927 26.4136 8.55224 26.2068 8.94748C24.9724 9.32129 24.2966 8.87481 24.1798 7.60807C24.2215 7.29972 24.2698 6.99423 24.3246 6.69163C24.2898 5.69619 23.7589 5.29672 22.7319 5.49321C21.9254 5.61869 21.5634 6.06516 21.646 6.83262C21.7071 7.10412 21.876 7.24511 22.1527 7.25559C22.6248 7.79247 22.7212 8.40344 22.4423 9.08847C21.9205 9.52528 21.3413 9.87776 20.7048 10.1459C19.9686 10.3337 19.3411 10.1692 18.8226 9.65243C18.5158 9.25681 18.4676 8.83384 18.6778 8.38351C19.2606 7.81098 19.6949 7.15302 19.9809 6.40965C21.1104 5.01625 20.9174 3.77082 19.4017 2.67339C18.7596 2.38625 18.1321 2.40974 17.5195 2.74389C17.4846 2.27954 17.6052 1.85656 17.8815 1.47497C18.1802 1.15999 18.4938 0.878003 18.8226 0.629029C20.7487 0.134879 22.5344 0.416861 24.1798 1.47497Z"
        fill="#F7F6F5" />
    <path fill-rule="evenodd" clip-rule="evenodd"
        d="M24.1798 1.47484C24.5062 1.56278 24.7475 1.75076 24.9038 2.0388C24.9094 2.19152 24.9578 2.33252 25.0486 2.46178C24.9824 2.57422 24.8858 2.62122 24.759 2.60277C24.3864 2.55321 24.0486 2.6237 23.7454 2.81425C24.0311 2.88411 24.3207 2.9076 24.6142 2.88475C24.7929 3.15239 24.7446 3.38738 24.4694 3.5897C24.042 3.7108 23.7766 3.99278 23.6731 4.43565C23.5804 4.68449 23.6046 4.91948 23.7454 5.1406C23.2688 5.06204 22.9068 4.82705 22.6595 4.43565C22.563 3.77768 22.563 3.11974 22.6595 2.46178C22.8784 1.70755 23.3852 1.37857 24.1798 1.47484Z"
        fill="#F9B66D" />
    <path fill-rule="evenodd" clip-rule="evenodd"
        d="M24.9037 2.03906C25.49 2.44568 25.9485 2.96264 26.2792 3.58996C26.9997 4.89587 27.5789 6.25879 28.0167 7.67869C28.5392 8.4139 28.9012 9.21285 29.1026 10.0755C29.1739 10.6098 29.0532 10.7038 28.7406 10.3575C28.7165 10.4045 28.6924 10.4515 28.6682 10.4985C28.9043 10.8899 29.0008 11.3129 28.9578 11.7674C28.781 11.6929 28.6122 11.5989 28.4511 11.4854C28.3614 11.8424 28.2167 12.1714 28.0167 12.4724C27.9819 12.1408 27.8613 11.8588 27.6547 11.6264C27.0352 12.2505 26.987 12.9084 27.5099 13.6003C27.2457 13.7513 27.0767 13.6573 27.0032 13.3183C26.8194 13.5164 26.747 13.7514 26.786 14.0233C26.6329 14.5994 26.2469 14.8813 25.6277 14.8692C25.5311 14.3993 25.4347 13.9292 25.3381 13.4593C25.5311 13.0363 25.5311 12.6134 25.3381 12.1904C25.3146 11.9046 25.3388 11.6226 25.4105 11.3444C25.8504 10.6757 26.2123 9.97075 26.4964 9.22959C27.5526 8.22029 27.4561 7.32735 26.2068 6.55076C26.3894 5.84444 26.293 5.18648 25.9173 4.57689C25.5899 4.02181 25.1073 3.69284 24.4694 3.58996C24.7446 3.38764 24.7928 3.15265 24.6141 2.88501C24.9324 2.89786 24.9806 2.80387 24.7589 2.60303C24.8858 2.62148 24.9823 2.57447 25.0485 2.46203C24.9577 2.33277 24.9094 2.19178 24.9037 2.03906Z"
        fill="#F6C47C" />
    <path fill-rule="evenodd" clip-rule="evenodd"
        d="M25.4829 1.19309C25.5511 1.7574 25.8407 2.20388 26.3516 2.5325C27.3172 3.19095 28.3308 3.77842 29.3922 4.29488C29.5205 4.4112 29.5687 4.55219 29.537 4.71785C29.0734 5.25372 28.4942 5.39471 27.7995 5.14082C27.0683 4.40126 26.465 3.55531 25.9897 2.60299C25.478 2.05751 24.923 1.56405 24.3246 1.12259C24.7144 1.062 25.1005 1.08549 25.4829 1.19309Z"
        fill="#F0D29F" />
    <path fill-rule="evenodd" clip-rule="evenodd"
        d="M19.9809 6.40944C20.022 6.13949 19.9738 5.90451 19.8361 5.70449C19.5493 5.02373 19.0184 4.74175 18.2434 4.85854C18.1829 4.75681 18.0865 4.68631 17.9539 4.64706C18.1291 4.50056 18.2738 4.33606 18.3882 4.15359C18.5291 4.08497 18.6739 4.01448 18.8226 3.94211C18.1987 3.76676 17.7161 3.93124 17.3747 4.43557C17.2961 4.42711 17.2479 4.38012 17.2299 4.29458C17.4607 3.80234 17.5573 3.28537 17.5195 2.74369C18.1321 2.40954 18.7596 2.38605 19.4018 2.67319C20.9174 3.77062 21.1104 5.01605 19.9809 6.40944Z"
        fill="#F9A259" />
    <path fill-rule="evenodd" clip-rule="evenodd"
        d="M25.4829 1.19287C26.6573 1.79515 27.8156 2.42961 28.9579 3.09624C29.6439 3.49663 29.837 4.03709 29.537 4.71764C29.5687 4.55197 29.5205 4.41098 29.3922 4.29467C28.3308 3.7782 27.3172 3.19074 26.3516 2.53228C25.8407 2.20366 25.5511 1.75719 25.4829 1.19287Z"
        fill="#F6F3EC" />
    <path fill-rule="evenodd" clip-rule="evenodd"
        d="M24.7589 2.60275C24.9806 2.80359 24.9324 2.89759 24.6142 2.88473C24.3207 2.90758 24.0311 2.88409 23.7454 2.81423C24.0486 2.62368 24.3864 2.55319 24.7589 2.60275Z"
        fill="#FAF3E8" />
    <path fill-rule="evenodd" clip-rule="evenodd"
        d="M14.6237 3.02582C14.6237 3.07281 14.6237 3.11981 14.6237 3.16681C13.7466 3.94991 12.8779 4.77235 12.0175 5.63414C12.2105 5.63414 12.4036 5.63414 12.5966 5.63414C12.4944 6.21225 12.1324 6.65872 11.5107 6.97355C11.1246 7.53752 10.7385 8.10148 10.3524 8.66544C9.99365 8.99248 9.58342 9.22747 9.1217 9.3704C9.40252 8.56879 9.88515 7.88734 10.5696 7.32603C10.3283 7.27904 10.087 7.23203 9.84565 7.18504C9.89391 7.13805 9.94218 7.09104 9.99044 7.04405C9.84565 6.99706 9.70086 6.95005 9.55607 6.90306C10.8513 5.64177 12.1544 4.37286 13.4654 3.09631C13.8704 2.8265 14.3048 2.68551 14.7685 2.67334C14.3484 2.80285 14.3001 2.92034 14.6237 3.02582Z"
        fill="#F6F3EC" />
    <path fill-rule="evenodd" clip-rule="evenodd"
        d="M15.0581 2.74414C15.0261 2.91824 14.9295 3.05923 14.7685 3.16711C14.9111 3.39246 14.9351 3.62745 14.8409 3.87207C14.2301 4.63797 13.8199 5.48391 13.6102 6.4099C13.3968 6.32925 13.2038 6.21175 13.031 6.05742C13.1864 5.88113 13.1864 5.69313 13.031 5.49346C13.4727 4.65569 14.0036 3.88024 14.6237 3.16711C14.6237 3.12012 14.6237 3.07311 14.6237 3.02612C14.7381 2.89905 14.8829 2.80506 15.0581 2.74414Z"
        fill="#FAD497" />
    <path fill-rule="evenodd" clip-rule="evenodd"
        d="M24.4694 3.58984C25.1073 3.69272 25.5899 4.0217 25.9173 4.57678C26.1209 5.34254 25.8313 5.67153 25.0485 5.56371C24.7378 5.17562 24.3518 5.03463 23.8902 5.14074C23.842 5.14074 23.7937 5.14074 23.7454 5.14074C23.6046 4.91963 23.5804 4.68464 23.673 4.43579C23.7766 3.99292 24.042 3.71094 24.4694 3.58984Z"
        fill="#50346E" />
    <path fill-rule="evenodd" clip-rule="evenodd"
        d="M18.3882 4.15386C18.0614 4.21895 17.7719 4.35994 17.5195 4.57683C17.4316 4.5594 17.3834 4.51241 17.3747 4.43584C17.7161 3.9315 18.1987 3.76702 18.8226 3.94237C18.6739 4.01474 18.5291 4.08524 18.3882 4.15386Z"
        fill="#FAF1E8" />
    <path fill-rule="evenodd" clip-rule="evenodd"
        d="M24.6142 4.15381C25.1146 4.2999 25.1629 4.53489 24.759 4.85876C24.4398 4.67801 24.3915 4.44304 24.6142 4.15381Z"
        fill="#E9E4DE" />
    <path fill-rule="evenodd" clip-rule="evenodd"
        d="M18.2435 4.85866C19.0184 4.74187 19.5493 5.02385 19.8362 5.70461C19.9641 6.2671 19.7711 6.66657 19.257 6.90303C18.6234 7.10085 17.9959 7.31234 17.3747 7.53749C17.0898 7.45288 16.945 7.26489 16.9404 6.97352C16.9741 6.01187 17.4085 5.30692 18.2435 4.85866Z"
        fill="#502965" />
    <path fill-rule="evenodd" clip-rule="evenodd"
        d="M27.7995 5.14086C27.9715 5.26262 28.1405 5.40361 28.3063 5.56383C28.3853 6.04309 28.3371 6.51305 28.1615 6.97374C28.0163 6.35975 27.7991 5.7723 27.5099 5.21136C27.596 5.14589 27.6925 5.12239 27.7995 5.14086Z"
        fill="#B88769" />
    <path fill-rule="evenodd" clip-rule="evenodd"
        d="M14.6237 3.16699C14.0037 3.88012 13.4728 4.65557 13.0311 5.49334C13.1865 5.69301 13.1865 5.88101 13.0311 6.0573C13.2039 6.21163 13.3969 6.32913 13.6102 6.40978C13.7604 6.61144 13.857 6.84643 13.8998 7.11473C13.8515 7.20873 13.8033 7.30271 13.755 7.39671C13.7468 7.55307 13.6985 7.69406 13.6102 7.81968C13.4044 7.84909 13.2113 7.91959 13.0311 8.03117C12.2036 9.25605 11.0453 9.93752 9.55612 10.0755C9.23366 9.94856 9.08887 9.71358 9.12175 9.37058C9.58347 9.22766 9.9937 8.99267 10.3525 8.66563C10.7386 8.10166 11.1247 7.5377 11.5108 6.97374C12.1325 6.65891 12.4944 6.21243 12.5967 5.63433C12.4036 5.63433 12.2106 5.63433 12.0175 5.63433C12.878 4.77254 13.7467 3.9501 14.6237 3.16699Z"
        fill="#F9DFAD" />
    <path fill-rule="evenodd" clip-rule="evenodd"
        d="M25.0485 5.56359C24.8555 5.70458 24.8555 5.84557 25.0485 5.98656C24.6094 5.77282 24.2232 5.49084 23.8902 5.14062C24.3518 5.03451 24.7378 5.1755 25.0485 5.56359Z"
        fill="#A1625E" />
    <path fill-rule="evenodd" clip-rule="evenodd"
        d="M25.9173 4.57666C26.293 5.18625 26.3895 5.84421 26.2069 6.55053C26.0139 6.50354 25.8207 6.45653 25.6277 6.40954C25.352 6.37604 25.1589 6.23505 25.0486 5.98657C24.8556 5.84558 24.8556 5.70459 25.0486 5.56359C25.8313 5.67141 26.1209 5.34242 25.9173 4.57666Z"
        fill="#DD8956" />
    <path fill-rule="evenodd" clip-rule="evenodd"
        d="M18.3882 5.56371C18.6471 5.5235 18.8885 5.57049 19.1122 5.7047C19.2878 6.21008 19.0948 6.37458 18.533 6.19817C18.4056 6.00697 18.3572 5.79549 18.3882 5.56371Z"
        fill="#ECE9E2" />
    <path fill-rule="evenodd" clip-rule="evenodd"
        d="M24.3246 6.69183C23.9912 7.0412 23.6776 7.41718 23.3835 7.81976C23.0735 7.42205 22.6632 7.23407 22.1528 7.25579C21.8761 7.24532 21.7071 7.10433 21.646 6.83282C21.5635 6.06537 21.9255 5.61889 22.7319 5.49341C23.7589 5.29693 24.2899 5.69639 24.3246 6.69183Z"
        fill="#4F3561" />
    <path fill-rule="evenodd" clip-rule="evenodd"
        d="M22.8767 5.70458C23.0907 5.66764 23.2837 5.71463 23.4559 5.84557C23.0302 5.95885 22.644 6.14685 22.2976 6.40953C22.1497 6.33881 22.1256 6.24481 22.2252 6.12755C22.4292 5.94692 22.6464 5.80593 22.8767 5.70458Z"
        fill="#E2DEE0" />
    <path fill-rule="evenodd" clip-rule="evenodd"
        d="M19.8361 5.70459C19.9738 5.90461 20.022 6.13959 19.9809 6.40954C19.6949 7.15292 19.2606 7.81088 18.6778 8.38341C18.4178 8.56567 18.1764 8.77716 17.9539 9.01787C16.865 9.50334 16.8168 9.36235 17.8091 8.5949C17.4461 8.5818 17.1323 8.46431 16.8679 8.24242C16.5676 7.76521 16.5918 7.34224 16.9403 6.97351C16.945 7.26488 17.0898 7.45286 17.3747 7.53747C17.9958 7.31232 18.6234 7.10083 19.257 6.90301C19.7711 6.66655 19.9641 6.26709 19.8361 5.70459Z"
        fill="#E58A47" />
    <path fill-rule="evenodd" clip-rule="evenodd"
        d="M25.6277 6.40967C25.8207 6.45666 26.0138 6.50367 26.2068 6.55066C27.4561 7.32725 27.5527 8.22019 26.4964 9.22948C26.6586 8.69142 26.6586 8.17446 26.4964 7.67858C26.2106 7.25812 25.921 6.83515 25.6277 6.40967Z"
        fill="#D38F74" />
    <path fill-rule="evenodd" clip-rule="evenodd"
        d="M19.9809 8.10156C20.1293 8.15748 20.1535 8.25146 20.0533 8.38354C19.9321 8.59607 19.7632 8.66657 19.5466 8.59503C19.7218 8.44853 19.8666 8.28403 19.9809 8.10156Z"
        fill="#8F7990" />
    <path fill-rule="evenodd" clip-rule="evenodd"
        d="M26.4964 7.67871C26.6586 8.17459 26.6586 8.69155 26.4964 9.22961C26.1346 9.61392 25.7002 9.8959 25.1933 10.0756C25.0574 10.6769 25.0091 11.2878 25.0485 11.9084C24.8555 11.8144 24.7107 11.6734 24.6142 11.4855C24.3194 10.8648 23.861 10.3948 23.2387 10.0756C22.8056 10.1453 22.5402 10.3803 22.4423 10.7805C22.0447 10.5512 21.6104 10.4572 21.1392 10.4985C21.6596 10.2273 22.094 9.85132 22.4423 9.3706C22.8123 9.07362 23.1501 8.74463 23.4558 8.38366C23.8391 8.75822 24.2735 9.06369 24.759 9.3001C25.1451 9.3941 25.5311 9.3941 25.9173 9.3001C26.0448 9.20024 26.1413 9.08275 26.2068 8.94763C26.4136 8.55239 26.5102 8.12942 26.4964 7.67871Z"
        fill="#492E5A" />
    <path fill-rule="evenodd" clip-rule="evenodd"
        d="M24.3246 6.69189C24.2699 6.9945 24.2215 7.29999 24.1798 7.60833C24.2967 8.87508 24.9724 9.32155 26.2069 8.94774C26.1413 9.08287 26.0449 9.20036 25.9173 9.30022C25.5311 9.39422 25.1451 9.39422 24.759 9.30022C24.2735 9.06381 23.8391 8.75834 23.4559 8.38378C23.1501 8.74475 22.8123 9.07373 22.4423 9.37072C22.4423 9.27672 22.4423 9.18273 22.4423 9.08874C22.7212 8.4037 22.6248 7.79274 22.1528 7.25586C22.6632 7.23413 23.0735 7.42211 23.3835 7.81982C23.6775 7.41725 23.9912 7.04127 24.3246 6.69189Z"
        fill="#BEA6B8" />
    <path fill-rule="evenodd" clip-rule="evenodd"
        d="M13.6102 7.81982C13.2193 8.69346 12.6402 9.4219 11.8727 10.0052C11.0925 10.4349 10.3203 10.4584 9.55609 10.0757C11.0453 9.93766 12.2036 9.25619 13.031 8.03131C13.2113 7.91973 13.4043 7.84923 13.6102 7.81982Z"
        fill="#DAB38C" />
    <path fill-rule="evenodd" clip-rule="evenodd"
        d="M13.6102 8.52441C13.4573 9.56127 12.9746 10.4307 12.1623 11.1327C12.025 11.2008 11.8802 11.2243 11.7279 11.2032C11.8189 10.8381 11.9878 10.5091 12.2347 10.2163C12.7309 9.6682 13.1894 9.10424 13.6102 8.52441Z"
        fill="#B17363" />
    <path fill-rule="evenodd" clip-rule="evenodd"
        d="M22.4423 9.08838C22.4423 9.18238 22.4423 9.27636 22.4423 9.37036C22.094 9.85108 21.6596 10.2271 21.1392 10.4983C20.9956 10.4741 20.8992 10.5211 20.8497 10.6393C19.834 10.9836 19.0134 10.7486 18.3882 9.93432C18.5634 9.8734 18.7082 9.77942 18.8226 9.65234C19.3411 10.1691 19.9686 10.3336 20.7049 10.1458C21.3414 9.87767 21.9205 9.5252 22.4423 9.08838Z"
        fill="#D1B3AF" />
    <path fill-rule="evenodd" clip-rule="evenodd"
        d="M18.3882 9.93471C19.0134 10.749 19.834 10.984 20.8497 10.6397C20.7586 11.0767 20.9034 11.4527 21.284 11.7676C21.4899 11.9685 21.7313 12.1095 22.008 12.1906C22.7452 13.8331 23.8312 14.1151 25.2657 13.0365C25.3367 12.7481 25.3125 12.4661 25.1933 12.1906C25.2415 12.1906 25.2899 12.1906 25.3381 12.1906C25.5311 12.6135 25.5311 13.0365 25.3381 13.4595C25.1933 13.5065 25.0968 13.6005 25.0485 13.7415C24.2303 14.2944 23.4098 14.2709 22.5871 13.671C21.7475 13.2384 20.927 12.7685 20.1257 12.2611C19.3624 11.5893 18.6867 10.8609 18.0987 10.0757C18.0855 9.76585 18.1819 9.71884 18.3882 9.93471Z"
        fill="#502B68" />
    <path fill-rule="evenodd" clip-rule="evenodd"
        d="M21.1393 10.4982C21.6104 10.4569 22.0448 10.5509 22.4424 10.7802C22.0562 11.1092 21.6702 11.4382 21.284 11.7672C20.9034 11.4523 20.7586 11.0763 20.8497 10.6392C20.8992 10.521 20.9956 10.474 21.1393 10.4982Z"
        fill="#79206E" />
    <path fill-rule="evenodd" clip-rule="evenodd"
        d="M26.4964 9.22949C26.2124 9.97065 25.8504 10.6756 25.4105 11.3444C25.3389 11.6225 25.3147 11.9045 25.3381 12.1903C25.2899 12.1903 25.2416 12.1903 25.1933 12.1903C25.1451 12.0963 25.0968 12.0023 25.0486 11.9083C25.0092 11.2877 25.0574 10.6767 25.1933 10.0754C25.7003 9.89579 26.1346 9.6138 26.4964 9.22949Z"
        fill="#BD886A" />
    <path fill-rule="evenodd" clip-rule="evenodd"
        d="M29.1026 10.0757C29.2684 10.613 29.2926 11.177 29.175 11.7676C29.0751 11.9422 29.0027 11.9422 28.9579 11.7676C29.0009 11.313 28.9043 10.8901 28.6683 10.4987C28.6925 10.4517 28.7165 10.4047 28.7407 10.3577C29.0533 10.704 29.1739 10.61 29.1026 10.0757Z"
        fill="#86677A" />
    <path fill-rule="evenodd" clip-rule="evenodd"
        d="M24.6141 11.4856C24.1877 11.3492 23.7534 11.3257 23.311 11.4151C23.2336 11.7124 23.0888 11.7829 22.8767 11.6266C22.5418 11.7676 22.2522 11.9556 22.0079 12.1905C21.7313 12.1095 21.4899 11.9685 21.284 11.7676C21.6701 11.4386 22.0562 11.1096 22.4423 10.7806C22.5402 10.3804 22.8056 10.1454 23.2387 10.0757C23.861 10.3949 24.3194 10.8649 24.6141 11.4856Z"
        fill="#B53B74" />
    <path fill-rule="evenodd" clip-rule="evenodd"
        d="M24.6141 11.4854C24.7107 11.6734 24.8555 11.8144 25.0485 11.9084C25.0967 12.0024 25.1451 12.0964 25.1933 12.1904C25.3125 12.4659 25.3366 12.7479 25.2657 13.0363C23.8311 14.1149 22.7452 13.8329 22.0079 12.1904C22.2522 11.9555 22.5418 11.7675 22.8767 11.6264C23.0888 11.7827 23.2336 11.7122 23.311 11.4149C23.7534 11.3255 24.1877 11.349 24.6141 11.4854Z"
        fill="#F680AC" />
    <path fill-rule="evenodd" clip-rule="evenodd"
        d="M13.8997 7.11475C13.9934 7.22386 14.0417 7.36485 14.0445 7.53772C13.976 8.69638 13.6623 9.77731 13.1034 10.7805C12.5973 11.1559 12.1388 11.5788 11.7279 12.0494C12.0716 12.0853 12.3612 11.9208 12.5966 11.556C12.6932 11.462 12.7897 11.462 12.8862 11.556C12.6182 11.7933 12.3768 12.0518 12.1623 12.3314C12.2981 12.4798 12.467 12.5738 12.669 12.6134C13.3595 12.4086 13.4319 12.4791 12.8862 12.8249C13.5379 12.6934 13.5861 12.7874 13.031 13.1068C13.3206 13.1538 13.6102 13.2008 13.8997 13.2478C13.7549 13.2948 13.6102 13.3418 13.4654 13.3888C13.7632 13.4319 14.0528 13.4319 14.3341 13.3888C14.1699 13.5321 14.2182 13.6261 14.4789 13.6708C14.2076 13.9111 13.9663 14.1695 13.7549 14.4463C13.3975 14.597 13.0597 14.7849 12.7414 15.0102C12.1592 15.175 11.6283 15.0575 11.1487 14.6577C11.2275 14.5567 11.3241 14.4862 11.4383 14.4463C11.572 14.5595 11.7168 14.583 11.8727 14.5168C11.5334 14.2618 11.4369 13.9565 11.5831 13.6003C11.8351 13.8416 12.1247 13.959 12.4518 13.9528C12.0456 13.5138 11.7318 13.0203 11.5107 12.4724C11.3764 11.9982 11.4488 11.5752 11.7279 11.2035C11.8802 11.2246 12.025 11.201 12.1623 11.133C12.9746 10.4309 13.4573 9.56151 13.6102 8.52465C13.6426 8.20225 13.7391 7.89676 13.8997 7.60821C13.8896 7.50038 13.8413 7.42989 13.7549 7.39673C13.8032 7.30273 13.8515 7.20874 13.8997 7.11475Z"
        fill="#D4885E" />
    <path fill-rule="evenodd" clip-rule="evenodd"
        d="M18.0986 10.0757C18.6866 10.8608 19.3624 11.5893 20.1257 12.261C20.9269 12.7685 21.7475 13.2384 22.5871 13.6709C23.4098 14.2709 24.2303 14.2944 25.0485 13.7414C24.9385 14.647 24.4075 15.1169 23.4558 15.1513C23.1548 15.0849 22.8652 14.991 22.5871 14.8694C20.8556 13.9586 19.4801 12.6897 18.4606 11.0626C18.2563 10.7594 18.1356 10.4305 18.0986 10.0757Z"
        fill="#C28D69" />
    <path fill-rule="evenodd" clip-rule="evenodd"
        d="M25.3381 13.4595C25.4347 13.9294 25.5311 14.3995 25.6277 14.8694C26.247 14.8815 26.633 14.5995 26.786 14.0234C26.7378 14.3995 26.6894 14.7753 26.6412 15.1514C26.3518 15.3596 26.038 15.5475 25.7001 15.7153C25.207 15.6874 24.7002 15.664 24.1798 15.6448C23.8218 15.6138 23.5804 15.4494 23.4559 15.1514C24.4076 15.117 24.9385 14.647 25.0486 13.7415C25.0968 13.6005 25.1933 13.5065 25.3381 13.4595Z"
        fill="#E0AD74" />
    <path fill-rule="evenodd" clip-rule="evenodd"
        d="M18.8226 14.446C18.6778 14.5401 18.533 14.634 18.3882 14.728C17.0332 15.053 15.6577 15.2409 14.2617 15.292C13.6968 15.2903 13.19 15.1962 12.7415 15.01C13.0597 14.7847 13.3975 14.5967 13.755 14.446C14.2453 14.1958 14.7521 13.9607 15.2753 13.7411C15.387 13.7615 15.4836 13.8085 15.5648 13.8821C15.7554 13.5256 15.9244 13.5256 16.0716 13.8821C16.2322 13.7284 16.377 13.7284 16.506 13.8821C16.313 14.04 16.2406 14.2279 16.2888 14.446C16.7811 14.5222 17.2637 14.4281 17.7367 14.164C18.0633 14.3875 18.4253 14.4816 18.8226 14.446Z"
        fill="#E28C54" />
    <path fill-rule="evenodd" clip-rule="evenodd"
        d="M27.6547 11.6265C27.7698 12.2307 27.8181 12.8416 27.7995 13.4593C27.7112 13.585 27.663 13.726 27.6547 13.8823C27.4846 13.8514 27.3398 13.8984 27.2204 14.0233C27.3432 14.2925 27.3915 14.5744 27.3652 14.8693C27.3592 15.4496 27.2628 16.0135 27.0756 16.5611C26.7122 16.4983 26.4226 16.5922 26.2068 16.8431C25.551 17.0093 24.8994 17.1973 24.2522 17.4071C23.5413 17.2255 22.9138 16.8966 22.3699 16.4201C22.3028 16.5039 22.2786 16.5979 22.2975 16.7021C21.8358 16.454 21.3532 16.2425 20.8496 16.0677C21.1492 16.022 21.1974 15.9044 20.9944 15.7152C20.617 15.5999 20.2308 15.5294 19.8361 15.5037C20.1257 15.4568 20.4153 15.4097 20.7049 15.3627C20.6189 15.2973 20.5223 15.2738 20.4153 15.2922C20.3048 15.1839 20.16 15.1134 19.9809 15.0807C20.3671 14.9867 20.7531 14.9867 21.1392 15.0807C21.6266 15.3887 22.1575 15.5766 22.7319 15.6447C22.8285 15.8326 22.9733 15.9736 23.1663 16.0677C24.4752 16.4701 25.6577 16.2586 26.7136 15.4332C26.8138 15.3011 26.7896 15.2072 26.6412 15.1512C26.6894 14.7752 26.7378 14.3993 26.786 14.0233C26.7471 13.7514 26.8195 13.5164 27.0032 13.3184C27.0767 13.6573 27.2457 13.7513 27.51 13.6003C26.987 12.9085 27.0352 12.2505 27.6547 11.6265Z"
        fill="#C6825C" />
    <path fill-rule="evenodd" clip-rule="evenodd"
        d="M7.81862 17.971C7.81862 18.253 7.67383 18.394 7.38425 18.394C6.97599 18.0775 6.54162 17.7955 6.08115 17.5481C5.74566 17.034 5.35955 16.564 4.92283 16.1382C4.71069 15.5466 4.5659 14.9355 4.48847 14.3053C4.48013 13.9462 4.57666 13.6173 4.77805 13.3184C4.36409 13.1635 3.97798 13.234 3.61973 13.5298C2.60236 14.2657 1.92667 15.2292 1.59268 16.4202C1.39963 16.5142 1.20658 16.6081 1.01352 16.7021C1.13306 16.8362 1.15719 16.9772 1.08592 17.1251C0.989393 16.9372 0.892868 16.9372 0.796341 17.1251C0.68073 17.7287 0.753124 18.2926 1.01352 18.817C1.29197 19.5098 1.12305 19.6508 0.506762 19.24C0.396001 19.4608 0.420132 19.6487 0.579157 19.8039C0.594153 20.1145 0.690679 20.3965 0.868735 20.6499C1.2042 21.2113 1.63857 21.6812 2.17184 22.0598C1.99269 22.2849 1.75137 22.4493 1.44789 22.5532C2.82144 23.3961 4.31759 23.7016 5.93636 23.4697C5.87296 22.4162 6.066 21.4293 6.51552 20.5089C6.51552 20.6029 6.56377 20.6499 6.66031 20.6499C6.17517 22.446 6.31996 24.1848 7.09467 25.8665C8.145 27.4339 9.49636 27.6925 11.1488 26.642C11.197 26.595 11.2453 26.5479 11.2936 26.501C11.129 26.3395 10.9842 26.175 10.8592 26.0075C10.717 25.5475 10.6205 25.0774 10.5696 24.5976C10.1607 24.6567 9.84694 24.5157 9.62849 24.1746C9.37387 23.7364 9.25321 23.2665 9.26651 22.7647C9.24122 22.4657 9.28948 22.1837 9.4113 21.9188C10.3498 21.6776 11.2186 21.3015 12.0175 20.7909C12.5115 20.7098 12.9458 20.5219 13.3206 20.2269C14.3398 19.8951 15.3051 19.4488 16.2164 18.8875C17.1313 18.613 18.0483 18.613 18.9674 18.8875C19.8077 19.4389 20.7247 19.7444 21.7184 19.8039C22.1083 19.614 22.4945 19.4261 22.8767 19.24C23.501 19.4495 24.1284 19.661 24.759 19.8744C25.2696 19.9883 25.7522 19.9648 26.2069 19.8039C26.3512 19.8082 26.4478 19.7377 26.4964 19.5924C26.3605 19.3184 26.1673 19.0833 25.9173 18.8875C26.2939 18.944 26.5835 19.1555 26.786 19.5219C26.9308 19.475 27.0274 19.381 27.0756 19.24C26.895 18.9584 26.7743 18.6764 26.7136 18.394C26.9095 18.5611 27.0785 18.7492 27.2204 18.958C27.3782 18.8324 27.3782 18.6914 27.2204 18.535C27.3217 18.4945 27.4183 18.4476 27.51 18.394C27.6065 18.394 27.703 18.394 27.7995 18.394C27.822 17.9406 27.6772 17.5646 27.3652 17.2661C27.2024 17.0815 26.9852 16.9876 26.7136 16.9841C25.8447 17.2079 25.0002 17.4898 24.1798 17.8301C23.6303 17.586 23.0994 17.304 22.5871 16.9841C22.5389 16.8431 22.4423 16.7491 22.2975 16.7021C22.2786 16.5979 22.3028 16.5039 22.3699 16.4202C22.9138 16.8966 23.5413 17.2255 24.2522 17.4071C24.8994 17.1973 25.551 17.0094 26.2069 16.8431C26.5446 16.8431 26.8826 16.8431 27.2204 16.8431C27.3462 16.3807 27.4428 15.9108 27.51 15.4332C27.5084 15.2154 27.4601 15.0274 27.3652 14.8693C27.3915 14.5744 27.3432 14.2925 27.2204 14.0233C27.3398 13.8984 27.4846 13.8514 27.6547 13.8823C27.6954 14.4023 27.7678 14.9193 27.8719 15.4332C28.8436 14.0676 30.026 13.8561 31.4193 14.7988C31.9446 15.3389 32.1135 15.9734 31.926 16.7021C31.7571 17.0546 31.4917 17.313 31.1297 17.4776C31.621 18.354 31.6934 19.2704 31.3469 20.2269C30.5922 20.6134 29.7959 20.9187 28.9578 21.1433C29.255 21.2745 29.4721 21.4859 29.6094 21.7778C29.8702 22.3687 29.9666 22.9797 29.899 23.6107C27.0171 24.5615 24.0971 25.4309 21.1392 26.219C20.576 26.7988 19.9003 27.1982 19.1122 27.4174C19.2645 27.1136 19.1681 27.0666 18.8226 27.2764C18.6494 27.2276 18.6494 27.1572 18.8226 27.0649C19.4394 26.9053 20.0186 26.6703 20.5601 26.36C20.1752 26.3497 19.7892 26.3966 19.4018 26.501C18.0364 26.9362 16.6849 27.3827 15.3477 27.8404C15.4201 27.8873 15.4924 27.9344 15.5648 27.9814C16.0645 27.818 16.5713 27.7475 17.0851 27.7699C16.9059 27.8672 16.9059 27.9377 17.0851 27.9814C16.0093 28.2206 14.8992 28.3147 13.755 28.2634C13.8157 28.6617 13.6709 28.967 13.3206 29.1798C13.9624 30.1486 13.8659 31.0414 13.031 31.8586C12.0488 32.1931 11.2524 31.9346 10.642 31.0832C10.1527 32.0099 9.45291 32.2214 8.54257 31.7176C8.196 31.4424 7.97881 31.0899 7.89101 30.6602C7.84575 28.8375 7.36313 27.1456 6.44312 25.5845C6.25931 25.0712 6.0904 24.5542 5.93636 24.0336C3.96682 24.2168 2.22935 23.6764 0.723946 22.4123C0.906208 22.2821 1.09926 22.1645 1.3031 22.0598C0.746685 21.3042 0.312318 20.5054 0 19.6629C0 19.2869 0 18.911 0 18.535C0.144789 18.535 0.289578 18.535 0.434368 18.535C0.295542 17.6105 0.440332 16.7176 0.868735 15.8562C1.03534 15.6826 1.20426 15.6826 1.3755 15.8562C1.89936 14.1233 3.05767 13.0893 4.85044 12.7544C5.06762 12.7779 5.28481 12.8014 5.50199 12.8249C5.56822 12.8833 5.61648 12.9538 5.64678 13.0364C5.35334 13.2046 5.13615 13.4396 4.99523 13.7413C4.8998 15.4587 5.59961 16.7981 7.09467 17.7596C7.31546 17.9018 7.55678 17.9723 7.81862 17.971Z"
        fill="#573765" />
    <path fill-rule="evenodd" clip-rule="evenodd"
        d="M31.1297 18.2529C31.1536 18.7252 31.1294 19.1952 31.0573 19.6628C30.8572 19.9366 30.5918 20.1246 30.261 20.2268C29.6314 20.1691 29.0041 20.1456 28.3787 20.1563C28.6201 20.2033 28.8613 20.2503 29.1027 20.2973C28.6767 20.4558 28.2423 20.5029 27.7996 20.4383C28.3787 20.3442 28.3787 20.2503 27.7996 20.1563C28.2706 20.0102 28.7531 19.9162 29.2475 19.8743C28.2821 19.7803 28.2821 19.6864 29.2475 19.5923C29.1027 19.5454 28.9579 19.4983 28.8131 19.4514C29.9686 19.1733 29.9686 19.0793 28.8131 19.1694C29.2299 18.962 29.6643 18.8679 30.1162 18.8874C29.8129 18.9658 29.7887 19.0363 30.0438 19.0989C30.3716 19.049 30.6371 18.908 30.8401 18.6759C30.6806 18.5806 30.5358 18.4867 30.4058 18.3939C30.6542 18.3757 30.8956 18.3288 31.1297 18.2529Z"
        fill="#E2D8D8" />
    <path fill-rule="evenodd" clip-rule="evenodd"
        d="M15.3477 21.0726C13.4457 21.8107 11.5152 22.4686 9.55609 23.0465C9.52143 22.7692 9.56969 22.5106 9.70088 22.271C11.541 21.4622 13.375 20.6398 15.2029 19.8037C15.3453 20.2165 15.3936 20.6395 15.3477 21.0726Z"
        fill="#F6F5F5" />
    <path fill-rule="evenodd" clip-rule="evenodd"
        d="M19.6914 19.6627C19.7879 19.6627 19.8361 19.7096 19.8361 19.8037C19.9662 20.1036 20.2074 20.2681 20.5601 20.2971C20.0752 20.3518 19.5925 20.3283 19.1122 20.2266C18.7061 20.1112 18.2717 20.0407 17.8091 20.0152C17.7286 19.9612 17.6804 19.8907 17.6643 19.8037C18.3347 19.7009 19.0104 19.6538 19.6914 19.6627Z"
        fill="#B9A2AE" />
    <path fill-rule="evenodd" clip-rule="evenodd"
        d="M16.2164 19.522C16.7091 19.5715 17.1918 19.6655 17.6643 19.804C17.6804 19.8909 17.7286 19.9614 17.8091 20.0154C18.2717 20.041 18.7061 20.1115 19.1122 20.2269C18.8662 20.2044 18.6248 20.2278 18.3882 20.2974C18.6739 20.3672 18.9635 20.3908 19.257 20.3679C19.0964 20.4793 18.9034 20.5498 18.6778 20.5794C18.8708 20.6264 19.064 20.6734 19.257 20.7204C18.8708 20.8144 18.8708 20.9083 19.257 21.0024C19.1604 21.0493 19.064 21.0964 18.9674 21.1434C19.191 21.3107 19.4323 21.3577 19.6913 21.2844C19.6108 21.2304 19.5626 21.1599 19.5466 21.0729C20.4101 21.1866 21.2788 21.2336 22.1528 21.2139C21.9981 21.3455 21.8051 21.3926 21.5736 21.3549C20.905 21.4562 20.2292 21.5267 19.5466 21.5663C20.1257 21.6133 20.7049 21.6604 21.284 21.7073C20.8497 21.7543 20.4153 21.8014 19.9809 21.8483C20.4635 21.8953 20.9462 21.9424 21.4288 21.9893C20.6811 22.0736 19.9572 22.2146 19.257 22.4123C19.3294 22.4358 19.4018 22.4592 19.4742 22.4828C19.8293 22.3428 20.1913 22.3192 20.5601 22.4123C19.7384 22.4777 19.6902 22.5717 20.4153 22.6943C19.7914 22.8814 19.164 23.0459 18.533 23.1877C18.5757 22.8726 18.5274 22.5906 18.3882 22.3418C18.2629 21.4206 17.7319 20.8566 16.7956 20.6499C16.4663 20.7162 16.1767 20.8572 15.9268 21.0729C15.842 21.0434 15.7696 20.9963 15.7096 20.9319C15.6131 20.5559 15.6131 20.18 15.7096 19.804C15.8278 19.6174 15.9968 19.5235 16.2164 19.522Z"
        fill="#F4F2ED" />
    <path fill-rule="evenodd" clip-rule="evenodd"
        d="M2.17182 17.9711C2.17182 18.2061 2.17182 18.441 2.17182 18.676C1.9804 18.7 1.81149 18.653 1.66506 18.535C1.42605 19.1335 1.233 19.7446 1.0859 20.3679C0.882511 20.1944 0.713589 20.0064 0.579142 19.8039C0.420117 19.6487 0.395987 19.4608 0.506748 19.24C1.12304 19.6508 1.29196 19.5098 1.01351 18.817C1.11799 18.8759 1.19038 18.9698 1.23069 19.099C1.37548 18.676 1.52027 18.2531 1.66506 17.8301C1.75528 18.4977 1.92419 18.5446 2.17182 17.9711Z"
        fill="#F6E8D3" />
    <path fill-rule="evenodd" clip-rule="evenodd"
        d="M13.3206 20.2269C12.9458 20.5219 12.5115 20.7098 12.0175 20.7909C11.9074 20.2936 11.7144 19.8237 11.4384 19.381C11.6022 19.2253 11.7228 19.2723 11.8003 19.522C11.8328 19.154 11.7604 18.8015 11.5831 18.4645C11.6314 18.441 11.6797 18.4176 11.7279 18.394C12.297 18.9933 12.8279 19.6042 13.3206 20.2269Z"
        fill="#E59153" />
    <path fill-rule="evenodd" clip-rule="evenodd"
        d="M31.1297 18.2528C30.8956 18.3287 30.6542 18.3756 30.4058 18.3938C30.2265 18.5224 30.0334 18.5459 29.8266 18.4643C30.1299 18.3859 30.1541 18.3154 29.899 18.2528C29.7216 18.3038 29.5528 18.3743 29.3922 18.4643C29.4888 18.5112 29.5852 18.5583 29.6818 18.6053C29.0754 18.8352 28.4481 18.9527 27.7996 18.9578C27.7996 18.7698 27.7996 18.5817 27.7996 18.3938C28.7521 18.0847 29.7174 17.8028 30.6953 17.5479C30.9199 17.7311 31.0647 17.9662 31.1297 18.2528Z"
        fill="#9F8294" />
    <path fill-rule="evenodd" clip-rule="evenodd"
        d="M6.08113 17.5482C6.54161 17.7956 6.97597 18.0776 7.38424 18.3941C6.98216 19.051 6.69258 19.7559 6.5155 20.509C6.06599 21.4293 5.87294 22.4163 5.93634 23.4698C4.31757 23.7017 2.82142 23.3962 1.44788 22.5533C1.75135 22.4494 1.99267 22.285 2.17182 22.0599C2.28981 22.1908 2.41046 22.3318 2.5338 22.4828C3.20633 22.201 3.90615 21.9895 4.63324 21.8484C4.48845 21.8014 4.34366 21.7543 4.19887 21.7074C4.27409 21.4412 4.51541 21.2533 4.92282 21.1434C4.71399 21.0903 4.5692 20.9728 4.48845 20.7909C4.77146 20.907 5.06103 20.9305 5.35719 20.8614C4.97108 20.4854 4.58498 20.1095 4.19887 19.7335C4.43152 19.7173 4.6487 19.7878 4.85042 19.945C5.07673 19.8601 5.05259 19.7427 4.77803 19.5925C5.03877 19.5478 5.08702 19.4538 4.92282 19.3105C5.16414 19.3575 5.40544 19.4046 5.64676 19.4515C5.48359 19.2044 5.3388 18.9458 5.2124 18.6761C5.39457 18.7488 5.53936 18.6549 5.64676 18.3941C5.53839 18.1358 5.3936 17.9008 5.2124 17.6892C5.48692 17.553 5.7765 17.506 6.08113 17.5482Z"
        fill="#D48A58" />
    <path fill-rule="evenodd" clip-rule="evenodd"
        d="M10.28 15.5742C10.4284 15.6302 10.4526 15.7241 10.3524 15.8562C9.5849 16.7447 8.76444 17.5907 7.891 18.394C7.49936 18.9689 7.18565 19.5798 6.94987 20.2269C6.85334 20.3679 6.75682 20.5089 6.66029 20.6499C6.56376 20.6499 6.5155 20.6029 6.5155 20.5089C6.69258 19.7559 6.98216 19.0509 7.38424 18.394C7.67382 18.394 7.81861 18.253 7.81861 17.9711C8.2953 17.2717 8.87445 16.6608 9.55608 16.1382C9.8563 16.0254 10.0976 15.8374 10.28 15.5742Z"
        fill="#684D80" />
    <path fill-rule="evenodd" clip-rule="evenodd"
        d="M10.8592 15.1514C10.7389 15.5968 10.5941 16.0197 10.4248 16.4203C9.59879 17.0835 8.87485 17.8354 8.25299 18.6761C7.90977 19.1067 7.62019 19.5766 7.38426 20.086C7.26481 20.211 7.12002 20.2579 6.94989 20.227C7.18566 19.5799 7.49938 18.969 7.89102 18.3942C8.76446 17.5908 9.58492 16.7448 10.3524 15.8563C10.4526 15.7242 10.4285 15.6303 10.28 15.5743C10.3904 15.3259 10.5835 15.1849 10.8592 15.1514Z"
        fill="#F6F1E5" />
    <path fill-rule="evenodd" clip-rule="evenodd"
        d="M22.5871 16.9841C23.0994 17.304 23.6303 17.586 24.1798 17.8301C24.6142 18.723 25.2899 19.381 26.2069 19.8039C25.7522 19.9648 25.2696 19.9883 24.759 19.8744C24.1284 19.661 23.501 19.4495 22.8767 19.24C22.8976 18.6936 22.8492 18.1532 22.7319 17.6186C22.6906 17.3521 22.5459 17.1642 22.2975 17.0546C22.3836 16.9892 22.4801 16.9656 22.5871 16.9841Z"
        fill="#BA6942" />
    <path fill-rule="evenodd" clip-rule="evenodd"
        d="M27.3651 17.2661C27.6772 17.5646 27.822 17.9406 27.7995 18.394C27.7029 18.394 27.6065 18.394 27.5099 18.394C27.3955 18.2116 27.2508 18.0471 27.0756 17.9006C27.3082 17.7527 27.4047 17.5412 27.3651 17.2661Z"
        fill="#CE8C72" />
    <path fill-rule="evenodd" clip-rule="evenodd"
        d="M22.2975 16.7021C22.4423 16.7491 22.5389 16.8431 22.5871 16.9841C22.4801 16.9657 22.3835 16.9892 22.2975 17.0546C22.5458 17.1642 22.6906 17.3521 22.7319 17.6186C22.8492 18.1532 22.8975 18.6936 22.8767 19.24C22.4944 19.4261 22.1083 19.614 21.7184 19.8039C21.6866 19.6383 21.7349 19.4973 21.8631 19.381C22.8037 18.5988 22.8037 17.7764 21.8631 16.9136C22.0423 16.8809 22.187 16.8104 22.2975 16.7021Z"
        fill="#DD8E4E" />
    <path fill-rule="evenodd" clip-rule="evenodd"
        d="M27.3652 17.2659C27.4047 17.5409 27.3083 17.7524 27.0756 17.9003C27.2508 18.0468 27.3956 18.2114 27.51 18.3938C27.4183 18.4474 27.3217 18.4943 27.2204 18.5348C27.3782 18.6911 27.3782 18.8321 27.2204 18.9578C27.0785 18.7489 26.9095 18.5609 26.7136 18.3938C26.7743 18.6762 26.895 18.9582 27.0756 19.2397C27.0274 19.3807 26.9308 19.4748 26.786 19.5217C26.5835 19.1553 26.2939 18.9438 25.9173 18.8873C26.1673 19.0831 26.3605 19.3181 26.4964 19.5922C26.4478 19.7374 26.3512 19.8079 26.2069 19.8037C25.2899 19.3807 24.6142 18.7227 24.1798 17.8298C25.0002 17.4896 25.8447 17.2076 26.7136 16.9839C26.9852 16.9874 27.2024 17.0813 27.3652 17.2659Z"
        fill="#F2BA70" />
    <path fill-rule="evenodd" clip-rule="evenodd"
        d="M10.4248 16.4199C9.90389 17.093 9.34887 17.7509 8.75975 18.3938C8.64162 18.5803 8.47269 18.6742 8.25299 18.6758C8.87485 17.835 9.59879 17.0831 10.4248 16.4199Z"
        fill="#FAE0B3" />
    <path fill-rule="evenodd" clip-rule="evenodd"
        d="M27.3652 14.8691C27.4601 15.0273 27.5084 15.2153 27.51 15.4331C27.4428 15.9106 27.3462 16.3806 27.2204 16.843C26.8826 16.843 26.5446 16.843 26.2068 16.843C26.4226 16.592 26.7122 16.4981 27.0756 16.561C27.2628 16.0134 27.3592 15.4495 27.3652 14.8691Z"
        fill="#A06358" />
    <path fill-rule="evenodd" clip-rule="evenodd"
        d="M4.92284 16.1382C5.35955 16.564 5.74566 17.034 6.08115 17.5481C5.77652 17.5059 5.48694 17.5529 5.21242 17.6891C5.39362 17.9007 5.53841 18.1357 5.64679 18.394C5.53938 18.6549 5.39459 18.7488 5.21242 18.676C5.33882 18.9457 5.48361 19.2043 5.64679 19.4515C5.40547 19.4045 5.16416 19.3574 4.92284 19.3105C5.08705 19.4537 5.03879 19.5478 4.77805 19.5925C5.05261 19.7426 5.07675 19.8601 4.85045 19.9449C4.64873 19.7877 4.43154 19.7172 4.19889 19.7334C4.585 20.1095 4.9711 20.4853 5.35721 20.8614C5.06106 20.9305 4.77148 20.9069 4.48847 20.7909C4.38758 20.8084 4.26693 20.8084 4.1265 20.7909C4.07824 20.8849 4.02997 20.9788 3.98171 21.0729C3.72296 20.6688 3.40924 20.5983 3.04058 20.8614C3.21595 20.9873 3.21595 21.1047 3.04058 21.2138C2.85638 21.2908 2.66333 21.3378 2.46142 21.3548C1.94758 21.0936 1.41668 20.8585 0.868741 20.6499C0.690685 20.3965 0.594158 20.1145 0.579163 19.8039C0.71361 20.0064 0.882531 20.1943 1.08592 20.3679C1.23302 19.7446 1.42607 19.1335 1.66508 18.535C1.81151 18.653 1.98042 18.7 2.17184 18.676C2.17184 18.441 2.17184 18.2061 2.17184 17.9711C2.15288 17.8669 2.17701 17.7728 2.24424 17.6891C2.31826 18.0244 2.41479 18.3534 2.53382 18.676C2.53382 18.2061 2.53382 17.736 2.53382 17.2661C2.67226 17.6717 2.86531 18.0478 3.11297 18.394C3.19432 17.7479 3.38738 17.1368 3.69213 16.5612C4.14348 17.6932 4.28827 17.6462 4.1265 16.4202C4.16258 16.5786 4.23498 16.7196 4.34368 16.8431C4.46261 16.4276 4.53501 16.0047 4.56087 15.5742C4.64893 15.795 4.76958 15.9831 4.92284 16.1382Z"
        fill="#F9CF8C" />
    <path fill-rule="evenodd" clip-rule="evenodd"
        d="M30.9849 16.5611C30.9849 16.6551 30.9367 16.7021 30.8401 16.7021C30.7031 16.3651 30.5101 16.0597 30.2609 15.7856C30.7092 15.8237 30.9506 16.0821 30.9849 16.5611Z"
        fill="#684D6B" />
    <path fill-rule="evenodd" clip-rule="evenodd"
        d="M28.9578 14.8691C28.8103 15.1568 28.8103 15.4387 28.9578 15.7151C29.5489 16.1086 30.1522 16.4846 30.7677 16.843C30.8255 16.8109 30.8495 16.7638 30.8401 16.702C30.9367 16.702 30.9849 16.6551 30.9849 16.561C31.0802 16.4344 31.1766 16.2934 31.2745 16.1381C31.3624 16.1555 31.4106 16.2025 31.4193 16.279C31.3182 16.5846 31.1252 16.843 30.8401 17.0545C29.8282 17.2892 28.8146 17.5007 27.7995 17.689C27.4409 16.5015 27.8269 15.5615 28.9578 14.8691Z"
        fill="#B96E4D" />
    <path fill-rule="evenodd" clip-rule="evenodd"
        d="M18.8226 14.4463C20.017 14.5048 21.1753 14.7397 22.2976 15.1512C22.4732 15.1164 22.5698 15.0224 22.5871 14.8693C22.8653 14.9909 23.1549 15.0848 23.4559 15.1512C23.5804 15.4493 23.8218 15.6137 24.1798 15.6447C24.7002 15.6639 25.2069 15.6873 25.7001 15.7152C26.038 15.5474 26.3518 15.3595 26.6412 15.1512C26.7896 15.2072 26.8138 15.3011 26.7136 15.4332C25.6577 16.2586 24.4752 16.4701 23.1663 16.0677C22.9733 15.9736 22.8285 15.8327 22.7319 15.6447C22.1575 15.5766 21.6266 15.3887 21.1392 15.0807C20.7531 14.9867 20.3671 14.9867 19.9809 15.0807C20.16 15.1135 20.3048 15.184 20.4153 15.2922C19.7429 15.1758 19.0672 15.0583 18.3882 14.9398C18.5675 14.8425 18.5675 14.772 18.3882 14.7283C18.533 14.6342 18.6778 14.5403 18.8226 14.4463Z"
        fill="#D59A68" />
    <path fill-rule="evenodd" clip-rule="evenodd"
        d="M31.4192 16.2788C31.4106 16.2023 31.3623 16.1553 31.2745 16.1378C31.1766 16.2932 31.0801 16.4342 30.9849 16.5608C30.9506 16.0819 30.7092 15.8234 30.2609 15.7854C30.5101 16.0595 30.7031 16.3648 30.8401 16.7018C30.8495 16.7636 30.8255 16.8107 30.7677 16.8428C30.1522 16.4844 29.5489 16.1084 28.9578 15.7149C28.8103 15.4385 28.8103 15.1566 28.9578 14.8689C30.0042 14.4017 30.8488 14.6366 31.4916 15.5739C31.6225 16.0534 31.5983 16.2884 31.4192 16.2788Z"
        fill="#F4C075" />
    <path fill-rule="evenodd" clip-rule="evenodd"
        d="M11.4383 14.4463C11.3241 14.4862 11.2275 14.5567 11.1487 14.6578C11.6283 15.0575 12.1592 15.1751 12.7414 15.0103C13.19 15.1965 13.6968 15.2906 14.2617 15.2923C15.6576 15.2412 17.0331 15.0533 18.3882 14.7283C18.5675 14.772 18.5675 14.8425 18.3882 14.9398C19.0671 15.0584 19.7429 15.1758 20.4153 15.2923C20.5223 15.2738 20.6188 15.2974 20.7048 15.3628C20.4153 15.4097 20.1257 15.4568 19.8361 15.5038C20.2308 15.5294 20.617 15.5999 20.9944 15.7152C21.1974 15.9045 21.1492 16.022 20.8496 16.0677C21.3532 16.2426 21.8358 16.454 22.2975 16.7022C22.187 16.8105 22.0423 16.881 21.8632 16.9137C22.8037 17.7764 22.8037 18.5988 21.8632 19.381C21.7349 19.4973 21.6867 19.6383 21.7184 19.804C20.7247 19.7445 19.8077 19.439 18.9674 18.8875C18.0482 18.613 17.1313 18.613 16.2164 18.8875C15.3051 19.4488 14.3398 19.8952 13.3206 20.2269C12.8279 19.6042 12.297 18.9933 11.7279 18.3941C11.6796 18.4176 11.6314 18.441 11.5831 18.4646C11.7603 18.8015 11.8327 19.154 11.8003 19.522C11.7228 19.2723 11.6021 19.2254 11.4383 19.381C11.7144 19.8237 11.9074 20.2936 12.0175 20.7909C11.2186 21.3016 10.3498 21.6776 9.41128 21.9188C9.03174 22.0064 8.79042 22.2414 8.68733 22.6238C8.84812 22.6063 9.04117 22.6533 9.26649 22.7648C9.25318 23.2666 9.37385 23.7365 9.62846 24.1747C9.84692 24.5157 10.1606 24.6567 10.5696 24.5977C10.6204 25.0774 10.717 25.5475 10.8592 26.0076C10.4003 26.2419 9.89351 26.4298 9.33888 26.5715C8.94209 26.4613 8.53186 26.3908 8.10817 26.36C7.75057 26.2206 7.41272 26.0562 7.09465 25.8666C6.31994 24.1848 6.17515 22.446 6.66028 20.6499C6.75681 20.5089 6.85333 20.3679 6.94986 20.2269C7.11999 20.2578 7.26478 20.2109 7.38423 20.086C7.62016 19.5766 7.90974 19.1066 8.25296 18.6761C8.47267 18.6745 8.64159 18.5806 8.75973 18.3941C9.34885 17.7512 9.90387 17.0933 10.4248 16.4202C10.5941 16.0196 10.7389 15.5967 10.8592 15.1513C10.9074 14.8693 10.9557 14.5873 11.004 14.3053C11.1909 14.2719 11.3357 14.3189 11.4383 14.4463Z"
        fill="#F9C075" />
    <path fill-rule="evenodd" clip-rule="evenodd"
        d="M19.6913 19.6628C19.0104 19.6539 18.3346 19.701 17.6643 19.8038C17.1918 19.6653 16.7091 19.5713 16.2164 19.5218C17.4057 18.914 18.564 18.9609 19.6913 19.6628Z"
        fill="#A18295" />
    <path fill-rule="evenodd" clip-rule="evenodd"
        d="M4.92286 16.1379C4.7696 15.9828 4.64894 15.7947 4.56088 15.574C4.53502 16.0044 4.46263 16.4274 4.3437 16.8429C4.23499 16.7194 4.1626 16.5784 4.12651 16.4199C4.28829 17.646 4.1435 17.6929 3.69215 16.5609C3.38739 17.1366 3.19433 17.7476 3.11299 18.3938C2.86533 18.0475 2.67228 17.6715 2.53383 17.2658C2.53383 17.7358 2.53383 18.2058 2.53383 18.6758C2.4148 18.3532 2.31827 18.0241 2.24425 17.6888C2.17703 17.7726 2.15289 17.8666 2.17186 17.9708C1.92423 18.5443 1.75532 18.4974 1.6651 17.8298C1.52031 18.2528 1.37552 18.6758 1.23073 19.0987C1.19042 18.9696 1.11802 18.8757 1.01355 18.8167C0.753145 18.2924 0.680751 17.7284 0.796362 17.1249C0.892889 16.9369 0.989414 16.9369 1.08594 17.1249C1.15721 16.977 1.13308 16.836 1.01355 16.7019C1.2066 16.6078 1.39965 16.5139 1.5927 16.4199C1.92669 15.229 2.60238 14.2654 3.61975 13.5296C3.978 13.2337 4.36411 13.1632 4.77807 13.3181C4.57668 13.617 4.48015 13.9459 4.48849 14.305C4.56592 14.9353 4.71071 15.5463 4.92286 16.1379Z"
        fill="#F7F5F3" />
    <path fill-rule="evenodd" clip-rule="evenodd"
        d="M19.8361 19.8037C20.8583 20.3536 21.8961 20.3536 22.9491 19.8037C23.3827 19.9131 23.7929 20.0777 24.1798 20.2972C24.5629 20.3673 24.9491 20.3908 25.3381 20.3677C24.0812 20.885 22.7781 21.0965 21.4288 21.0021C21.7666 21.0491 22.1045 21.0962 22.4423 21.1431C22.3563 21.2085 22.2598 21.2321 22.1528 21.2136C21.2788 21.2334 20.4101 21.1864 19.5466 21.0726C20.0013 20.9569 20.4841 20.8864 20.9945 20.8611C20.4635 20.8142 19.9327 20.7671 19.4018 20.7202C19.6913 20.6732 19.9809 20.6261 20.2705 20.5792C19.9201 20.5383 19.5822 20.4678 19.257 20.3677C18.9635 20.3905 18.6739 20.367 18.3882 20.2972C18.6248 20.2275 18.8662 20.2041 19.1122 20.2267C19.5925 20.3283 20.0752 20.3519 20.5601 20.2972C20.2074 20.2681 19.9662 20.1036 19.8361 19.8037Z"
        fill="#A28293" />
    <path fill-rule="evenodd" clip-rule="evenodd"
        d="M30.4058 18.3939C30.5358 18.4867 30.6806 18.5806 30.8401 18.6759C30.6371 18.908 30.3716 19.049 30.0438 19.0989C29.7887 19.0363 29.8129 18.9658 30.1162 18.8874C29.6643 18.8679 29.2299 18.962 28.8131 19.1694C29.9686 19.0793 29.9686 19.1733 28.8131 19.4514C28.9579 19.4983 29.1027 19.5454 29.2475 19.5923C28.2821 19.6864 28.2821 19.7803 29.2475 19.8743C28.7531 19.9162 28.2706 20.0102 27.7996 20.1563C28.3787 20.2503 28.3787 20.3442 27.7996 20.4383C28.2423 20.5029 28.6767 20.4558 29.1027 20.2973C28.8613 20.2503 28.6201 20.2033 28.3787 20.1563C29.0041 20.1456 29.6314 20.1691 30.261 20.2268C28.4439 20.8573 26.61 21.4448 24.759 21.9892C23.8501 22.2452 22.9332 22.4567 22.008 22.6236C21.9968 22.4474 21.9003 22.33 21.7184 22.2712C22.3617 22.1967 22.9892 22.0557 23.6007 21.8482C23.0215 21.7542 23.0215 21.6603 23.6007 21.5662C23.2743 21.4041 22.9365 21.357 22.5871 21.4252C23.1207 21.5541 23.0725 21.6481 22.4424 21.7072C22.6354 21.7542 22.8285 21.8012 23.0215 21.8482C22.5955 22.0067 22.1612 22.0538 21.7184 21.9892C22.4435 21.8667 22.3953 21.7726 21.5736 21.7072C21.815 21.6603 22.0562 21.6132 22.2976 21.5662C22.0251 21.5383 21.7839 21.4678 21.5736 21.3547C21.8051 21.3925 21.9981 21.3454 22.1528 21.2137C22.2598 21.2322 22.3564 21.2087 22.4424 21.1432C22.1046 21.0963 21.7666 21.0492 21.4288 21.0022C22.7781 21.0966 24.0812 20.8851 25.3381 20.3678C26.4527 20.3595 27.2733 19.8895 27.7996 18.9579C28.4481 18.9528 29.0754 18.8354 29.6818 18.6054C29.5852 18.5585 29.4888 18.5114 29.3922 18.4644C29.5528 18.3745 29.7216 18.304 29.899 18.2529C30.1541 18.3155 30.1299 18.386 29.8266 18.4644C30.0334 18.546 30.2265 18.5225 30.4058 18.3939Z"
        fill="#B095A1" />
    <path fill-rule="evenodd" clip-rule="evenodd"
        d="M19.257 20.3677C19.5821 20.4678 19.9201 20.5383 20.2705 20.5792C19.9809 20.6261 19.6913 20.6732 19.4017 20.7202C19.9327 20.7671 20.4635 20.8142 20.9944 20.8611C20.484 20.8864 20.0013 20.9569 19.5465 21.0726C19.5626 21.1596 19.6108 21.2301 19.6913 21.2841C19.4323 21.3574 19.1909 21.3105 18.9674 21.1431C19.0639 21.0962 19.1604 21.0491 19.257 21.0021C18.8708 20.9081 18.8708 20.8142 19.257 20.7202C19.0639 20.6732 18.8708 20.6261 18.6778 20.5792C18.9034 20.5496 19.0964 20.4791 19.257 20.3677Z"
        fill="#D3C3C8" />
    <path fill-rule="evenodd" clip-rule="evenodd"
        d="M15.3476 21.0728C15.5608 21.3031 15.802 21.5146 16.0716 21.7072C14.1148 22.6244 12.1118 23.4468 10.0628 24.1745C9.7912 24.0168 9.67055 23.7817 9.70085 23.4696C11.506 22.7917 13.3159 22.0868 15.1304 21.3547C15.2796 21.3074 15.352 21.2133 15.3476 21.0728Z"
        fill="#E5B97F" />
    <path fill-rule="evenodd" clip-rule="evenodd"
        d="M0.868713 20.6499C1.41665 20.8586 1.94755 21.0936 2.46139 21.3549C2.6633 21.3378 2.85635 21.2908 3.04055 21.2139C3.21592 21.1047 3.21592 20.9873 3.04055 20.8614C3.40921 20.5983 3.72293 20.6688 3.98168 21.0729C4.02994 20.9788 4.07821 20.8849 4.12647 20.7909C4.2669 20.8084 4.38756 20.8084 4.48844 20.7909C4.56919 20.9728 4.71398 21.0902 4.92281 21.1434C4.5154 21.2532 4.27408 21.4411 4.19887 21.7073C4.34365 21.7543 4.48844 21.8014 4.63323 21.8483C3.90615 21.9895 3.20632 22.2009 2.53379 22.4828C2.41046 22.3318 2.28981 22.1908 2.17182 22.0598C1.63854 21.6812 1.20418 21.2113 0.868713 20.6499Z"
        fill="#EEB16A" />
    <path fill-rule="evenodd" clip-rule="evenodd"
        d="M15.3476 21.0728C15.352 21.2133 15.2796 21.3074 15.1305 21.3547C13.3159 22.0868 11.506 22.7917 9.70085 23.4696C9.56997 23.3696 9.52171 23.2286 9.55607 23.0466C11.5152 22.4687 13.4457 21.8108 15.3476 21.0728Z"
        fill="#F9E5BE" />
    <path fill-rule="evenodd" clip-rule="evenodd"
        d="M21.5736 21.3545C21.7838 21.4676 22.0251 21.5381 22.2976 21.566C22.0562 21.6129 21.815 21.66 21.5736 21.707C22.3953 21.7724 22.4435 21.8664 21.7184 21.989C22.1612 22.0535 22.5955 22.0064 23.0215 21.848C22.8285 21.801 22.6353 21.7539 22.4423 21.707C23.0725 21.6479 23.1207 21.5539 22.5871 21.425C22.9365 21.3567 23.2743 21.4038 23.6007 21.566C23.0215 21.66 23.0215 21.7539 23.6007 21.848C22.9892 22.0555 22.3617 22.1965 21.7184 22.2709C21.9003 22.3297 21.9968 22.4472 22.008 22.6234C20.8266 22.9746 19.6201 23.3035 18.3882 23.6103C18.3882 23.1874 18.3882 22.7644 18.3882 22.3414C18.5274 22.5903 18.5757 22.8723 18.533 23.1874C19.164 23.0455 19.7914 22.881 20.4153 22.6939C19.6902 22.5714 19.7384 22.4773 20.5601 22.4119C20.1913 22.3189 19.8293 22.3424 19.4742 22.4824C19.4018 22.4589 19.3294 22.4355 19.257 22.4119C19.9572 22.2143 20.6811 22.0733 21.4288 21.989C20.9462 21.942 20.4635 21.8949 19.9809 21.848C20.4153 21.801 20.8497 21.7539 21.284 21.707C20.7049 21.66 20.1257 21.6129 19.5466 21.566C20.2292 21.5264 20.905 21.4559 21.5736 21.3545Z"
        fill="#C5B3BA" />
    <path fill-rule="evenodd" clip-rule="evenodd"
        d="M9.41132 21.9185C9.2895 22.1834 9.24124 22.4654 9.26653 22.7644C9.04121 22.6529 8.84817 22.6059 8.68738 22.6234C8.79047 22.241 9.03179 22.006 9.41132 21.9185Z"
        fill="#F3E3CC" />
    <path fill-rule="evenodd" clip-rule="evenodd"
        d="M16.9403 24.1746C16.7814 24.0481 16.7814 23.9307 16.9403 23.8221C17.2327 23.7586 17.4981 23.6412 17.7367 23.4696C17.8131 23.2841 17.7407 23.19 17.5195 23.1876C17.3625 22.8346 17.1695 22.5057 16.9403 22.2007C17.2789 21.9836 17.665 21.8897 18.0987 21.9187C18.1459 22.5368 18.0975 23.1477 17.9539 23.7516C17.6237 23.9211 17.2858 24.0621 16.9403 24.1746Z"
        fill="#E2C3A0" />
    <path fill-rule="evenodd" clip-rule="evenodd"
        d="M16.9403 22.2007C17.1695 22.5056 17.3626 22.8346 17.5195 23.1876C17.4713 23.1876 17.4229 23.1876 17.3747 23.1876C17.1287 23.1651 16.8874 23.1885 16.6508 23.2581C14.7776 23.9834 12.8954 24.6648 11.004 25.3025C10.9669 24.9793 11.0151 24.6738 11.1488 24.386C13.0244 23.5034 14.9549 22.7749 16.9403 22.2007Z"
        fill="#F7F6F6" />
    <path fill-rule="evenodd" clip-rule="evenodd"
        d="M28.813 21.4955C28.0991 21.5178 28.0027 21.6824 28.5235 21.989C28.4375 22.0544 28.3409 22.078 28.2339 22.0595C26.8834 21.9853 25.532 22.2438 24.1798 22.835C24.4831 22.9133 24.5073 22.9838 24.2522 23.0464C24.1074 22.9995 23.9626 22.9524 23.8178 22.9054C23.6714 22.9607 23.599 23.0548 23.6006 23.1874C23.4858 23.1267 23.3651 23.0796 23.2387 23.0464C22.1882 23.2961 21.1505 23.5781 20.1257 23.8924C20.0378 23.8749 19.9896 23.828 19.9809 23.7514C22.4312 23.0483 24.8926 22.3198 27.3651 21.566C27.8647 21.3646 28.3473 21.3412 28.813 21.4955Z"
        fill="#7F607A" />
    <path fill-rule="evenodd" clip-rule="evenodd"
        d="M28.2339 22.0598C28.4233 22.163 28.6164 22.2806 28.813 22.4122C28.7648 22.5532 28.7165 22.6942 28.6683 22.8352C28.7648 22.8822 28.8613 22.9293 28.9578 22.9762C28.619 23.3205 28.2329 23.391 27.7995 23.1877C27.1331 23.4499 26.4573 23.544 25.7725 23.4697C25.7741 23.6023 25.7017 23.6964 25.5553 23.7517C25.4289 23.7185 25.3081 23.6714 25.1933 23.6107C25.1949 23.7433 25.1225 23.8374 24.9761 23.8926C24.2095 23.7091 23.5096 23.8501 22.8767 24.3156C22.2975 24.1659 21.7184 24.1894 21.1392 24.3861C21.4444 24.4369 21.734 24.5309 22.008 24.6681C22.1811 24.7603 22.1811 24.8308 22.008 24.8796C21.6993 24.6516 21.3615 24.5811 20.9944 24.6681C21.2978 24.7465 21.3219 24.817 21.0668 24.8796C20.8078 24.7514 20.5422 24.7279 20.2705 24.8091C20.5738 24.8875 20.598 24.958 20.3429 25.0206C19.7704 25.0581 19.2154 24.9876 18.6778 24.8091C18.9014 24.85 19.0944 24.9439 19.257 25.0911C18.9962 25.1358 18.948 25.2298 19.1122 25.373C18.4641 25.3306 17.8366 25.4716 17.2299 25.796C17.5332 25.8744 17.5574 25.9449 17.3023 26.0075C16.7549 25.8822 16.2481 25.9997 15.782 26.36C15.9268 26.4069 16.0716 26.454 16.2164 26.501C15.7326 26.8107 15.2983 26.7638 14.9133 26.36C15.0349 26.1251 14.9625 26.1015 14.6961 26.2895C14.5456 26.1189 14.3767 25.9779 14.1893 25.8665C16.0158 24.944 17.9465 24.2391 19.9809 23.7517C19.9896 23.8282 20.0378 23.8752 20.1257 23.8926C21.1505 23.5784 22.1882 23.2964 23.2387 23.0467C23.3651 23.0798 23.4858 23.1269 23.6006 23.1877C23.599 23.055 23.6714 22.961 23.8178 22.9057C23.9626 22.9527 24.1074 22.9997 24.2522 23.0467C24.5073 22.9841 24.4831 22.9136 24.1798 22.8352C25.532 22.244 26.8834 21.9856 28.2339 22.0598Z"
        fill="#9F7E91" />
    <path fill-rule="evenodd" clip-rule="evenodd"
        d="M17.3747 23.1875C17.4229 23.1875 17.4713 23.1875 17.5195 23.1875C17.7407 23.1899 17.8131 23.2839 17.7367 23.4695C17.498 23.6411 17.2326 23.7585 16.9403 23.822C16.7813 23.9305 16.7813 24.048 16.9403 24.1744C15.0899 24.83 13.2801 25.5819 11.5107 26.4303C11.3522 26.2621 11.2316 26.074 11.1487 25.8663C13.2264 24.9241 15.3017 24.0312 17.3747 23.1875Z"
        fill="#E6BA80" />
    <path fill-rule="evenodd" clip-rule="evenodd"
        d="M17.3747 23.1875C15.3018 24.0312 13.2264 24.9241 11.1488 25.8663C11.0425 25.696 10.9942 25.5081 11.004 25.3024C12.8954 24.6647 14.7776 23.9833 16.6508 23.258C16.8873 23.1883 17.1287 23.1649 17.3747 23.1875Z"
        fill="#F8E5BE" />
    <path fill-rule="evenodd" clip-rule="evenodd"
        d="M28.813 21.4956C29.3941 22.0171 29.6354 22.675 29.537 23.4695C24.7743 24.7523 20.0204 26.0682 15.2753 27.4172C14.627 27.096 14.2651 26.579 14.1893 25.8663C14.3767 25.9777 14.5456 26.1187 14.6961 26.2893C14.9625 26.1013 15.0349 26.1249 14.9133 26.3598C15.2983 26.7636 15.7326 26.8105 16.2164 26.5008C16.0716 26.4538 15.9268 26.4067 15.782 26.3598C16.2481 25.9996 16.7549 25.882 17.3023 26.0073C17.5574 25.9447 17.5332 25.8742 17.2299 25.7958C17.8366 25.4714 18.4641 25.3304 19.1122 25.3728C18.948 25.2296 18.9962 25.1356 19.257 25.0909C19.0944 24.9437 18.9014 24.8498 18.6778 24.8089C19.2154 24.9874 19.7704 25.0579 20.3429 25.0204C20.598 24.9578 20.5738 24.8873 20.2705 24.8089C20.5422 24.7277 20.8078 24.7512 21.0668 24.8794C21.3219 24.8168 21.2978 24.7463 20.9944 24.6679C21.3615 24.5809 21.6993 24.6514 22.008 24.8794C22.1811 24.8306 22.1811 24.7601 22.008 24.6679C21.734 24.5307 21.4444 24.4367 21.1392 24.3859C21.7184 24.1892 22.2975 24.1657 22.8767 24.3154C23.5096 23.8499 24.2095 23.7089 24.9761 23.8924C25.1225 23.8372 25.1949 23.7431 25.1933 23.6105C25.3081 23.6712 25.4289 23.7183 25.5553 23.7515C25.7017 23.6962 25.7741 23.6021 25.7725 23.4695C26.4573 23.5438 27.1331 23.4497 27.7995 23.1875C28.2329 23.3908 28.619 23.3203 28.9578 22.976C28.8613 22.9291 28.7648 22.882 28.6683 22.835C28.7165 22.694 28.7648 22.553 28.813 22.412C28.6164 22.2804 28.4233 22.1628 28.2339 22.0596C28.3409 22.078 28.4375 22.0545 28.5235 21.9891C28.0027 21.6824 28.0991 21.5179 28.813 21.4956Z"
        fill="#C5ACB6" />
    <path fill-rule="evenodd" clip-rule="evenodd"
        d="M7.09467 25.8662C7.41274 26.0558 7.75059 26.2202 8.10819 26.3597C8.53187 26.3904 8.9421 26.4609 9.3389 26.5712C9.89353 26.4295 10.4003 26.2415 10.8592 26.0072C10.9842 26.1747 11.129 26.3392 11.2936 26.5007C11.2453 26.5476 11.197 26.5947 11.1488 26.6417C9.49636 27.6922 8.145 27.4336 7.09467 25.8662Z"
        fill="#DE9B6A" />
    <path fill-rule="evenodd" clip-rule="evenodd"
        d="M13.6102 26.1484C13.96 26.515 14.2979 26.9144 14.6237 27.3469C13.6568 27.5091 12.7398 27.3681 11.8727 26.9239C12.4728 26.6759 13.0519 26.4174 13.6102 26.1484Z"
        fill="#DCAA7C" />
    <path fill-rule="evenodd" clip-rule="evenodd"
        d="M19.1122 27.4172C18.4905 27.7438 17.8149 27.9318 17.0851 27.9812C16.9059 27.9375 16.9059 27.867 17.0851 27.7697C16.5713 27.7473 16.0645 27.8178 15.5648 27.9812C15.4924 27.9342 15.4201 27.8871 15.3477 27.8402C16.6849 27.3825 18.0364 26.936 19.4018 26.5008C19.7892 26.3964 20.1752 26.3495 20.5601 26.3598C20.0186 26.6701 19.4394 26.9051 18.8226 27.0647C18.6494 27.1569 18.6494 27.2274 18.8226 27.2762C19.1681 27.0664 19.2645 27.1134 19.1122 27.4172Z"
        fill="#743C58" />
    <path fill-rule="evenodd" clip-rule="evenodd"
        d="M12.8863 29.1092C12.7572 29.0232 12.6125 28.9763 12.4519 28.9683C12.6763 28.6186 12.7969 28.2426 12.8139 27.8403C12.5942 28.0857 12.377 28.3205 12.1623 28.5453C12.1932 28.3135 12.145 28.102 12.0175 27.9108C11.5729 27.7281 11.1385 27.5637 10.7144 27.4174C10.8265 27.3261 10.9713 27.2792 11.1488 27.2764C11.9859 27.4073 12.8064 27.5953 13.6102 27.8403C13.6669 28.4391 13.4256 28.8621 12.8863 29.1092Z"
        fill="#7C3E56" />
    <path fill-rule="evenodd" clip-rule="evenodd"
        d="M10.7144 27.4175C11.1385 27.5638 11.5729 27.7282 12.0175 27.9109C12.145 28.1021 12.1932 28.3136 12.1623 28.5454C12.1872 28.6853 12.1389 28.7792 12.0175 28.8274C12.0421 28.641 11.9939 28.4765 11.8727 28.3339C10.8285 28.1175 9.81501 27.8591 8.83215 27.5585C9.46472 27.5631 10.0921 27.5162 10.7144 27.4175Z"
        fill="#924F4C" />
    <path fill-rule="evenodd" clip-rule="evenodd"
        d="M8.83216 27.5582C9.81501 27.8588 10.8285 28.1173 11.8727 28.3337C11.9939 28.4762 12.0421 28.6408 12.0175 28.8271C11.5688 29.4523 10.9897 29.9222 10.28 30.237C10.3901 30.0406 10.4866 29.8292 10.5696 29.6026C10.1924 28.7472 9.51668 28.2537 8.54258 28.1222C8.34953 27.9812 8.15647 27.8402 7.96342 27.6992C7.8044 27.544 7.78026 27.356 7.89103 27.1353C8.14212 27.4103 8.45583 27.5513 8.83216 27.5582Z"
        fill="#AB5D4A" />
    <path fill-rule="evenodd" clip-rule="evenodd"
        d="M7.96338 27.6992C8.15643 27.8402 8.34949 27.9812 8.54254 28.1222C8.92924 28.4654 9.33948 28.7943 9.77324 29.1091C10.3632 29.8795 10.146 30.2555 9.12169 30.2371C8.82703 30.1378 8.53745 30.0438 8.25296 29.9551C8.18789 29.1989 8.09136 28.447 7.96338 27.6992Z"
        fill="#F9BE70" />
    <path fill-rule="evenodd" clip-rule="evenodd"
        d="M12.4519 28.9683C12.6125 28.9763 12.7572 29.0232 12.8863 29.1093C13.832 30.3129 13.5665 31.1588 12.0899 31.6471C11.547 31.4005 11.0885 31.048 10.7144 30.5897C11.367 30.1186 11.9462 29.578 12.4519 28.9683Z"
        fill="#95514B" />
    <path fill-rule="evenodd" clip-rule="evenodd"
        d="M8.54259 28.1221C9.51669 28.2536 10.1924 28.7471 10.5696 29.6025C10.4866 29.829 10.3901 30.0405 10.2801 30.2369C10.2734 30.9463 9.93553 31.4162 9.26654 31.6468C8.50028 31.3424 8.16243 30.7785 8.25301 29.9549C8.53751 30.0436 8.82709 30.1377 9.12175 30.2369C10.1461 30.2554 10.3633 29.8794 9.7733 29.109C9.33954 28.7942 8.92929 28.4652 8.54259 28.1221Z"
        fill="#DD8E54" />
</svg>