<svg width="32" height="32" viewBox="0 0 32 32" fill="none" xmlns="http://www.w3.org/2000/svg">
    <mask id="mask0_5582_84" style="mask-type:luminance" maskUnits="userSpaceOnUse" x="0" y="0"
        width="32" height="32">
        <path
            d="M22.4865 0H9.51351C4.25935 0 0 4.25935 0 9.51351V22.4865C0 27.7407 4.25935 32 9.51351 32H22.4865C27.7407 32 32 27.7407 32 22.4865V9.51351C32 4.25935 27.7407 0 22.4865 0Z"
            fill="white" />
    </mask>
    <g mask="url(#mask0_5582_84)">
        <path
            d="M22.4865 0H9.51351C4.25935 0 0 4.25935 0 9.51351V22.4865C0 27.7407 4.25935 32 9.51351 32H22.4865C27.7407 32 32 27.7407 32 22.4865V9.51351C32 4.25935 27.7407 0 22.4865 0Z"
            fill="white" />
        <path fill-rule="evenodd" clip-rule="evenodd"
            d="M0 0H32V32H0V0ZM19.8652 13.2665L19.1095 14.2066C18.8398 13.9062 18.5114 13.6644 18.1444 13.496C17.7776 13.3277 17.38 13.2364 16.9764 13.2278C16.2616 13.2278 15.576 13.5118 15.0705 14.0173C14.565 14.5227 14.281 15.2083 14.281 15.9232C14.281 16.6381 14.565 17.3236 15.0705 17.8291C15.576 18.3346 16.2616 18.6186 16.9764 18.6186C17.7786 18.6002 18.5427 18.273 19.1095 17.7052L19.8771 18.5531C19.0841 19.3395 18.0186 19.7901 16.9021 19.8115C16.3824 19.8268 15.8651 19.7371 15.381 19.5478C14.8968 19.3586 14.4558 19.0737 14.0842 18.7102C13.7126 18.3467 13.4182 17.912 13.2184 17.4321C13.0186 16.9523 12.9176 16.437 12.9214 15.9172C12.9214 13.7306 14.6827 12.0497 16.9496 12.0497C18.0412 12.0681 19.0844 12.5035 19.8652 13.2665ZM20.3025 19.6806L20.6357 19.401L21.4657 20.356L21.1683 20.5672L20.0407 21.3229C19.6341 21.5573 19.2968 21.8952 19.0632 22.3023C18.8296 22.7094 18.7081 23.1711 18.7109 23.6404V23.694H15.2806V23.6404C15.2768 23.281 15.202 22.9259 15.0605 22.5954C14.9191 22.265 14.7139 21.9657 14.4566 21.7147C14.1993 21.4637 13.8949 21.266 13.561 21.1329C13.2272 20.9998 12.8703 20.934 12.5109 20.9391C12.0301 20.9336 11.5558 21.0514 11.1334 21.2812L11.0531 21.3229L9.33055 18.3954L9.4109 18.3538C9.8288 18.1212 10.1776 17.782 10.4217 17.3707C10.6658 16.9594 10.7964 16.4907 10.8002 16.0124C10.7976 15.5351 10.6674 15.0672 10.4231 14.657C10.1788 14.247 9.82936 13.9096 9.4109 13.68L9.33055 13.6383L11.0501 10.7228L11.1156 10.7615C11.5359 11.0045 12.0106 11.1375 12.496 11.1482C13.2146 11.1516 13.9059 10.873 14.4215 10.3725C14.9371 9.87187 15.236 9.1891 15.2539 8.47066V8.32489H18.6989V8.47066C18.7049 8.92419 18.8259 9.36878 19.0508 9.76268C19.2755 10.1566 19.5968 10.487 19.9842 10.7228C20.1862 10.8606 20.7851 11.2358 21.0921 11.4282C21.1694 11.4766 21.2282 11.5134 21.2575 11.532L20.5137 12.4721C19.5233 11.6329 18.2742 11.1602 16.9764 11.1333C15.6691 11.1254 14.4117 11.6349 13.4786 12.5507C12.5456 13.4664 12.0127 14.7141 11.9962 16.0213C11.9962 16.7022 12.1401 17.3754 12.4186 17.9968C12.7499 18.7039 13.2404 19.3248 13.8517 19.8106C14.463 20.2965 15.1786 20.6342 15.9422 20.7974C16.7059 20.9605 17.497 20.9445 18.2534 20.7508C19.0099 20.5571 19.7113 20.1907 20.3025 19.6806Z"
            fill="#5E51A7" />
    </g>
</svg>