<svg width="32" height="32" viewBox="0 0 32 32" fill="none" xmlns="http://www.w3.org/2000/svg">
<g clip-path="url(#clip0_5726_123)">
<path fill-rule="evenodd" clip-rule="evenodd" d="M16.0713 0C18.4182 1.25144 20.7357 2.55842 23.0239 3.92095C20.7272 5.30202 18.4095 6.65117 16.0713 7.96838C16.0713 5.31225 16.0713 2.65613 16.0713 0Z" fill="#F9EC1E"/>
<path fill-rule="evenodd" clip-rule="evenodd" d="M16.0708 0C16.0708 2.65613 16.0708 5.31225 16.0708 7.96838C13.8229 6.64511 11.5475 5.38029 9.24458 4.17391C9.24458 4.08959 9.20244 4.04743 9.11816 4.04743C10.922 2.93336 12.7339 1.81611 14.5539 0.695652C15.0485 0.426899 15.5542 0.195014 16.0708 0Z" fill="#F3B41E"/>
<path fill-rule="evenodd" clip-rule="evenodd" d="M9.11821 4.04749C9.20249 4.04749 9.24463 4.08964 9.24463 4.17397C9.24463 6.78794 9.24463 9.4019 9.24463 12.0159C9.20249 12.0159 9.16035 12.0159 9.11821 12.0159C6.84281 10.6667 4.5674 9.31758 2.29199 7.96843C4.52963 6.59601 6.80503 5.28903 9.11821 4.04749Z" fill="#E71A1F"/>
<path fill-rule="evenodd" clip-rule="evenodd" d="M23.0234 3.9209C25.3953 5.17582 27.7129 6.52496 29.9761 7.96833C27.6717 9.3526 25.3542 10.7017 23.0234 12.0158C23.0234 9.31748 23.0234 6.61918 23.0234 3.9209Z" fill="#7DBB31"/>
<path fill-rule="evenodd" clip-rule="evenodd" d="M9.24512 4.17395C11.5481 5.38032 13.8235 6.64515 16.0713 7.96842C16.0713 8.01057 16.0713 8.05274 16.0713 8.0949C13.8629 9.43207 11.6296 10.7391 9.37153 12.0158C9.3294 12.0158 9.28725 12.0158 9.24512 12.0158C9.24512 9.40188 9.24512 6.78792 9.24512 4.17395Z" fill="#EC6A1E"/>
<path fill-rule="evenodd" clip-rule="evenodd" d="M23.0239 3.9209C23.0239 6.61918 23.0239 9.31748 23.0239 12.0158C20.6662 10.7797 18.3487 9.47276 16.0713 8.09481C16.0713 8.05266 16.0713 8.01049 16.0713 7.96833C18.4095 6.65112 20.7272 5.30197 23.0239 3.9209Z" fill="#BAD325"/>
<path fill-rule="evenodd" clip-rule="evenodd" d="M2.29241 7.96838C4.56782 9.31753 6.84322 10.6667 9.11863 12.0158C7.02675 13.2703 4.9199 14.514 2.79805 15.747C2.60528 15.8747 2.3946 15.9379 2.166 15.9368C2.12421 13.2588 2.16634 10.6026 2.29241 7.96838Z" fill="#C05651"/>
<path fill-rule="evenodd" clip-rule="evenodd" d="M9.11865 12.0159C9.16078 12.0159 9.20293 12.0159 9.24506 12.0159C9.28719 12.0159 9.32934 12.0159 9.37147 12.0159C9.37147 14.6299 9.37147 17.2438 9.37147 19.8578C9.32934 19.8578 9.28719 19.8578 9.24506 19.8578C7.23055 18.8076 5.2501 17.6904 3.30372 16.506C2.94859 16.2858 2.56936 16.1382 2.16602 16.0633C2.16602 16.0212 2.16602 15.9789 2.16602 15.9368C2.39462 15.938 2.6053 15.8747 2.79807 15.7471C4.91992 14.514 7.02677 13.2703 9.11865 12.0159Z" fill="#8F2589"/>
<path fill-rule="evenodd" clip-rule="evenodd" d="M2.166 16.0632C2.56934 16.1381 2.94857 16.2857 3.3037 16.5059C5.25008 17.6903 7.23054 18.8075 9.24504 19.8577C9.24504 19.9421 9.20291 19.9842 9.11863 19.9842C6.80051 21.27 4.5251 22.6192 2.29241 24.0316C2.16634 21.3974 2.12421 18.7412 2.166 16.0632Z" fill="#642B8F"/>
<path fill-rule="evenodd" clip-rule="evenodd" d="M9.24458 19.8577C9.28671 19.8577 9.32885 19.8577 9.37099 19.8577C11.586 21.167 13.8192 22.4318 16.0708 23.6521C16.0708 23.6943 16.0708 23.7365 16.0708 23.7786C16.0708 23.8207 16.0708 23.863 16.0708 23.9051C13.8091 25.1546 11.5758 26.4617 9.37099 27.826C9.45027 27.942 9.49242 28.0685 9.4974 28.2055C9.37099 28.1211 9.24458 28.0369 9.11816 27.9525C9.11816 25.2964 9.11816 22.6403 9.11816 19.9841C9.20244 19.9841 9.24458 19.942 9.24458 19.8577Z" fill="#324AA1"/>
<path fill-rule="evenodd" clip-rule="evenodd" d="M22.7711 19.8577C22.8971 22.4497 22.9394 25.0637 22.8975 27.6996C20.5762 26.4545 18.3008 25.1475 16.0713 23.7786C16.0713 23.7365 16.0713 23.6943 16.0713 23.6521C18.3006 22.3938 20.5339 21.1289 22.7711 19.8577Z" fill="#19A1B5"/>
<path fill-rule="evenodd" clip-rule="evenodd" d="M23.0234 19.8577C25.369 21.1069 27.6866 22.4139 29.9761 23.7786C27.676 25.2032 25.3584 26.5945 23.0234 27.9525C23.0234 27.9104 23.0234 27.8682 23.0234 27.826C23.0234 25.1699 23.0234 22.5138 23.0234 19.8577Z" fill="#069569"/>
<path fill-rule="evenodd" clip-rule="evenodd" d="M9.11821 19.9841C9.11821 22.6403 9.11821 25.2964 9.11821 27.9525C6.83834 26.6435 4.56294 25.3366 2.29199 24.0316C4.52468 22.6191 6.80009 21.2699 9.11821 19.9841Z" fill="#4B3796"/>
<path fill-rule="evenodd" clip-rule="evenodd" d="M22.7705 19.8577C22.8548 19.6891 22.939 19.6891 23.0233 19.8577C23.0233 22.5138 23.0233 25.1699 23.0233 27.826C22.939 27.826 22.8969 27.7839 22.8969 27.6995C22.9388 25.0637 22.8965 22.4497 22.7705 19.8577Z" fill="#119B8A"/>
<path fill-rule="evenodd" clip-rule="evenodd" d="M16.0709 23.9052C16.0709 26.5613 16.0709 29.2174 16.0709 31.8735C13.8827 30.6556 11.6915 29.4329 9.49751 28.2055C9.49252 28.0686 9.45038 27.9421 9.37109 27.8261C11.5759 26.4617 13.8092 25.1547 16.0709 23.9052Z" fill="#006FBA"/>
<path fill-rule="evenodd" clip-rule="evenodd" d="M16.0711 23.7787C18.3006 25.1476 20.576 26.4545 22.8973 27.6996C22.8973 27.784 22.9394 27.8261 23.0237 27.8261C23.0237 27.8682 23.0237 27.9105 23.0237 27.9526C20.7037 29.2507 18.4072 30.5999 16.1343 32C16.0838 31.9712 16.0629 31.9289 16.0711 31.8735C16.0711 29.2174 16.0711 26.5613 16.0711 23.9052C16.0711 23.8631 16.0711 23.8208 16.0711 23.7787Z" fill="#24A7E0"/>
</g>
<defs>
<clipPath id="clip0_5726_123">
<rect width="32" height="32" fill="white"/>
</clipPath>
</defs>
</svg>
