<svg width="32" height="32" viewBox="0 0 32 32" fill="none" xmlns="http://www.w3.org/2000/svg">
    <path fill-rule="evenodd" clip-rule="evenodd"
        d="M0 0C10.6667 0 21.3333 0 32 0C32 10.6667 32 21.3333 32 32C21.3333 32 10.6667 32 0 32C0 21.3333 0 10.6667 0 0Z"
        fill="#8996D4" />
    <path fill-rule="evenodd" clip-rule="evenodd"
        d="M0.0244141 0.0244141C10.6748 0.0244141 21.3252 0.0244141 31.9756 0.0244141C31.9756 10.6748 31.9756 21.3252 31.9756 31.9756C21.3252 31.9756 10.6748 31.9756 0.0244141 31.9756C0.0244141 21.3252 0.0244141 10.6748 0.0244141 0.0244141Z"
        fill="#3E51C8" />
    <path fill-rule="evenodd" clip-rule="evenodd"
        d="M0.0488281 0.0488281C10.6829 0.0488281 21.3171 0.0488281 31.9511 0.0488281C31.9511 10.6829 31.9511 21.3171 31.9511 31.9511C21.3171 31.9511 10.6829 31.9511 0.0488281 31.9511C0.0488281 21.3171 0.0488281 10.6829 0.0488281 0.0488281Z"
        fill="#3E51C1" />
    <path fill-rule="evenodd" clip-rule="evenodd"
        d="M0.61084 0.61084C10.8704 0.61084 21.1299 0.61084 31.3895 0.61084C31.3895 10.8704 31.3895 21.1299 31.3895 31.3895C21.1299 31.3895 10.8704 31.3895 0.61084 31.3895C0.61084 21.1299 0.61084 10.8704 0.61084 0.61084Z"
        fill="#E6E6F2" />
    <path fill-rule="evenodd" clip-rule="evenodd"
        d="M0.635254 0.635254C10.8785 0.635254 21.1218 0.635254 31.365 0.635254C31.365 10.8785 31.365 21.1218 31.365 31.365C21.1218 31.365 10.8785 31.365 0.635254 31.365C0.635254 21.1218 0.635254 10.8785 0.635254 0.635254Z"
        fill="#F9F9F9" />
    <path fill-rule="evenodd" clip-rule="evenodd"
        d="M15.6579 2.22304C16.8167 2.15274 17.6514 2.63315 18.1617 3.66426C18.4781 4.5332 18.3559 5.33117 17.7953 6.05815C17.4184 6.5011 16.9421 6.7698 16.3663 6.86426C16.3582 8.70214 16.3663 10.5383 16.3907 12.3727C17.6568 12.5445 18.6012 13.1837 19.2243 14.2902C19.2407 14.2983 19.2568 14.3065 19.2732 14.3146C21.041 13.6955 22.8081 13.0767 24.5739 12.4582C24.4726 11.5006 24.8715 10.8532 25.7709 10.5162C26.5272 10.3691 27.1337 10.6012 27.5907 11.2124C27.8541 11.6465 27.9193 12.1106 27.7861 12.6047C27.4151 13.513 26.7433 13.8835 25.7709 13.7162C25.3871 13.6013 25.0779 13.3814 24.8426 13.0566C24.8263 13.0525 24.8101 13.0485 24.7938 13.0444C23.016 13.6546 21.2491 14.2856 19.493 14.9375C19.6931 15.6717 19.6848 16.4045 19.4686 17.136C19.4786 17.1591 19.4947 17.1754 19.5174 17.1849C22.425 18.0115 25.3319 18.8421 28.2381 19.6765C28.2869 19.6928 28.3358 19.6928 28.3846 19.6765C28.6416 19.3629 28.9675 19.2652 29.3617 19.3833C29.8776 19.6133 30.0528 20 29.8869 20.5437C29.7318 20.8939 29.4631 21.073 29.0808 21.0811C28.4884 21.03 28.1914 20.7044 28.1892 20.104C25.2266 19.2793 22.267 18.4406 19.3098 17.5879C19.0565 18.0398 18.7348 18.4429 18.3449 18.7971C18.2736 18.847 18.2042 18.9 18.1373 18.9559C18.1209 18.9803 18.1209 19.0047 18.1373 19.0291C19.0392 20.4826 19.9347 21.9402 20.8243 23.4017C21.6021 23.2375 22.3146 23.388 22.9617 23.8536C23.9139 24.7393 24.089 25.7614 23.4869 26.9192C22.9261 27.739 22.1485 28.1013 21.1541 28.0062C20.3673 27.8707 19.7849 27.4515 19.4075 26.7482C18.9187 25.5611 19.1672 24.5595 20.1526 23.7437C19.261 22.2699 18.3571 20.8043 17.4411 19.3467C16.7738 19.6221 16.0817 19.7035 15.3648 19.591C15.3337 19.5927 15.3052 19.6008 15.2793 19.6154C15.0193 20.7322 14.7546 21.8478 14.4854 22.962C14.9642 23.3836 15.0579 23.8802 14.7663 24.452C14.3036 25.0351 13.7622 25.1206 13.1419 24.7085C12.7034 24.2618 12.6423 23.7691 12.9587 23.2307C13.2569 22.886 13.6315 22.7231 14.0823 22.7421C14.3391 21.6588 14.5956 20.5759 14.8518 19.4933C14.1493 19.2305 13.5631 18.8071 13.093 18.223C11.0125 19.3977 8.92801 20.5661 6.83958 21.7284C6.97037 22.4351 6.74236 22.9969 6.15561 23.4139C5.55186 23.7319 4.98187 23.6831 4.44569 23.2673C3.84702 22.6491 3.77779 21.9773 4.23806 21.252C4.80551 20.6272 5.46097 20.5173 6.20447 20.9223C6.26046 20.9538 6.30931 20.9946 6.35103 21.0444C6.38875 21.0735 6.42947 21.0815 6.47317 21.0688C8.55828 19.9124 10.6346 18.7439 12.7022 17.5635C12.1805 16.4272 12.2171 15.3117 12.8121 14.2169C12.8304 14.1892 12.8263 14.1648 12.7999 14.1437C11.3376 13.1414 9.87194 12.144 8.40294 11.1513C8.29241 11.1981 8.1784 11.247 8.06096 11.2978C7.4639 11.4572 7.02015 11.2659 6.72966 10.7238C6.50788 10.1352 6.65853 9.66697 7.18157 9.31922C7.78617 9.05269 8.2788 9.18705 8.65943 9.72228C8.83743 10.1011 8.83335 10.4797 8.64722 10.8582C10.094 11.8669 11.5515 12.8644 13.0197 13.8505C13.5127 13.2008 14.1478 12.7489 14.9251 12.4948C15.1578 12.4343 15.394 12.3895 15.6335 12.3604C15.6335 10.5284 15.6335 8.69632 15.6335 6.86426C14.6229 6.67214 13.9837 6.07772 13.7159 5.08105C13.5235 3.83318 13.9917 2.93344 15.1205 2.38182C15.3024 2.32615 15.4815 2.27321 15.6579 2.22304Z"
        fill="#3E51C1" />
</svg>