<svg width="32" height="32" viewBox="0 0 32 32" fill="none" xmlns="http://www.w3.org/2000/svg">
    <path
        d="M6.87744 15.5677C3.06612 15.5677 0 18.7026 0 22.5042C0 26.3287 3.08519 29.4402 6.87744 29.4402C10.6832 29.4402 13.7553 26.3125 13.7553 22.5042C13.7553 18.6824 10.6719 15.5677 6.87744 15.5677ZM6.87979 26.2754C4.78172 26.2754 3.13932 24.5386 3.13932 22.5033C3.13932 20.423 4.81716 18.7303 6.87979 18.7303C8.94248 18.7303 10.6206 20.423 10.6206 22.5033C10.6206 24.5395 8.97662 26.2754 6.87979 26.2754ZM26.7229 18.7963C23.7995 18.7963 21.446 21.2005 21.446 24.1184C21.446 27.0529 23.8131 29.4402 26.7229 29.4402C29.6461 29.4402 32 27.0372 32 24.1184C32 21.1849 29.6335 18.7963 26.7229 18.7963ZM26.7227 26.6517C25.3147 26.6517 24.2123 25.486 24.2123 24.12C24.2123 22.7238 25.3384 21.5878 26.7227 21.5878C28.1071 21.5878 29.2334 22.7238 29.2334 24.12C29.2334 25.4863 28.1302 26.6517 26.7227 26.6517ZM26.7227 17.3877C27.9044 17.3877 29.0395 17.7033 30.0298 18.2741C30.1596 18.3489 30.2615 18.4002 30.3376 18.346C30.4137 18.2918 30.4115 18.1719 30.4115 18.0022C30.4115 17.2619 30.4115 16.1515 30.4115 14.6711C30.4115 14.2413 30.1291 13.8636 29.7194 13.7454C26.0677 12.6918 22.6233 12.0901 20.6425 11.7962C20.506 11.776 20.4029 11.7235 20.3276 11.6423C20.2522 11.5611 20.223 11.472 20.2073 11.3382C20.0266 9.79185 19.7555 7.47236 19.3941 4.37971C19.3155 3.70707 18.7502 3.2002 18.0786 3.2002H7.59037C6.92559 3.2002 6.36378 3.69721 6.27706 4.36189C5.87323 7.45867 5.57035 9.78126 5.36843 11.3297C5.34938 11.4757 5.33203 11.5832 5.22747 11.6817C5.1229 11.7803 5.02095 11.8136 4.87691 11.8409C3.23396 12.152 2.00603 12.6094 0.907309 13.489C0.359855 13.9273 0.249359 14.6939 0.674062 15.2892C1.09877 15.8845 1.69909 15.9648 2.0933 15.6796C3.44744 14.553 5.04453 14.154 6.87985 14.154C11.5917 14.154 15.8588 18.2341 15.0193 23.9978C15.0064 24.086 14.9975 24.1446 15.0482 24.2026C15.0989 24.2606 15.16 24.2636 15.2514 24.2636C16.2656 24.2636 17.7621 24.2636 19.7409 24.2636C19.8424 24.2636 19.9415 24.2636 19.998 24.2026C20.0545 24.1416 20.0474 24.0401 20.0504 23.9293C20.1504 20.2847 23.1329 17.3877 26.7227 17.3877ZM15.1526 15.5013C15.0428 15.4483 15.0016 15.3944 14.9271 15.3097C13.2383 13.3881 10.9225 12.1232 8.38749 11.7612C8.25574 11.7424 8.1816 11.7031 8.10918 11.6232C8.03675 11.5432 8.02526 11.4457 8.04227 11.3153C8.33274 9.08778 8.55267 7.4013 8.70203 6.25586C8.71872 6.12791 8.7438 6.04251 8.84486 5.9529C8.91223 5.89316 9.00893 5.86619 9.13495 5.87199H16.4913C16.6338 5.88341 16.7421 5.9222 16.8163 5.98837C16.8904 6.05454 16.9345 6.15179 16.9486 6.28012L18.0004 15.279C18.0109 15.3664 18.0011 15.43 17.9711 15.4697C17.9261 15.5293 17.8618 15.5677 17.778 15.5677C16.7518 15.5677 15.9721 15.5677 15.4389 15.5677C15.3415 15.5677 15.2624 15.5543 15.1526 15.5013Z"
        fill="#D82795" />
</svg>