<svg width="32" height="32" viewBox="0 0 32 32" fill="none" xmlns="http://www.w3.org/2000/svg">
    <g clip-path="url(#clip0_5808_730)">
        <path fill-rule="evenodd" clip-rule="evenodd"
            d="M-0.0712891 -0.0712891C10.5954 -0.0712891 21.262 -0.0712891 31.9287 -0.0712891C31.9287 10.5954 31.9287 21.262 31.9287 31.9287C21.262 31.9287 10.5954 31.9287 -0.0712891 31.9287C-0.0712891 21.262 -0.0712891 10.5954 -0.0712891 -0.0712891Z"
            fill="#F9F9F9" />
        <path fill-rule="evenodd" clip-rule="evenodd"
            d="M20.8354 9.60011C20.9829 9.91834 21.0065 10.2502 20.9065 10.5957C20.6685 11.0964 20.5026 11.6179 20.4088 12.1601C19.8032 12.4032 19.2581 12.735 18.7732 13.1557C17.8337 15.8559 16.9093 18.5581 15.9999 21.2623C14.9622 18.6012 13.9905 15.899 13.0843 13.1557C12.5995 12.735 12.0544 12.4032 11.4488 12.1601C11.2825 11.448 11.0929 10.7369 10.8799 10.0268C10.9062 9.87265 10.9536 9.73043 11.0221 9.60011C11.7416 8.495 12.429 7.35723 13.0843 6.18678C14.0082 5.53507 14.9564 4.91877 15.9288 4.33789C16.9196 4.92609 17.8914 5.5424 18.8443 6.18678C19.5118 7.33352 20.1755 8.4713 20.8354 9.60011Z"
            fill="#E61F43" />
        <path fill-rule="evenodd" clip-rule="evenodd"
            d="M11.0225 9.59961C10.954 9.72993 10.9066 9.87215 10.8803 10.0263C11.0933 10.7364 11.2829 11.4475 11.4492 12.1596C10.7582 11.7905 10.0471 11.4586 9.31584 11.1641C8.41783 11.2981 7.51708 11.4166 6.61362 11.5196C6.3535 11.5585 6.14017 11.677 5.97361 11.8752C5.25893 12.7557 4.57153 13.6564 3.91139 14.5774C7.54082 18.828 11.5705 22.5258 16.0003 25.6707C20.3833 22.4263 24.3655 18.7286 27.9469 14.5774C27.2156 13.5852 26.457 12.6133 25.6714 11.6618C24.4446 11.4491 23.2121 11.3543 21.9736 11.3774C21.4484 11.64 20.9269 11.9008 20.4092 12.1596C20.503 11.6174 20.6689 11.0959 20.9069 10.5952C21.0069 10.2497 20.9833 9.91783 20.8358 9.59961C22.6879 9.7659 24.5367 9.97923 26.3825 10.2396C27.7217 11.6164 28.9069 13.1098 29.9381 14.7196C28.1732 17.03 26.1821 19.1397 23.9647 21.0485C21.413 23.3403 18.7583 25.4972 16.0003 27.5196C10.8677 23.9285 6.24544 19.7566 2.13361 15.0041C2.0388 14.8145 2.0388 14.6247 2.13361 14.4352C3.13423 12.9121 4.29572 11.5136 5.61806 10.2396C7.41371 9.96899 9.2152 9.75566 11.0225 9.59961Z"
            fill="#313131" />
        <path fill-rule="evenodd" clip-rule="evenodd"
            d="M16 25.6708C16 24.2012 16 22.7315 16 21.2619C16.9094 18.5577 17.8338 15.8554 18.7733 13.1552C19.2582 12.7345 19.8033 12.4027 20.4089 12.1596C20.9266 11.9008 21.4481 11.6401 21.9733 11.3774C23.2118 11.3543 24.4443 11.4491 25.6711 11.6619C26.4567 12.6133 27.2154 13.5852 27.9467 14.5774C24.3652 18.7286 20.383 22.4264 16 25.6708Z"
            fill="#88C03D" />
        <path fill-rule="evenodd" clip-rule="evenodd"
            d="M11.4489 12.1596C12.0545 12.4027 12.5997 12.7345 13.0845 13.1552C13.9906 15.8985 14.9624 18.6007 16 21.2618C16 22.7314 16 24.2011 16 25.6707C11.5702 22.5258 7.54056 18.828 3.91113 14.5774C4.57127 13.6564 5.25867 12.7557 5.97336 11.8752C6.13991 11.677 6.35324 11.5585 6.61336 11.5196C7.51682 11.4166 8.41757 11.2981 9.31558 11.1641C10.0468 11.4586 10.7579 11.7905 11.4489 12.1596Z"
            fill="#29A7DC" />
    </g>
    <defs>
        <clipPath id="clip0_5808_730">
            <rect width="32" height="32" fill="white" />
        </clipPath>
    </defs>
</svg>