<svg width="32" height="32" viewBox="0 0 32 32" fill="none" xmlns="http://www.w3.org/2000/svg">
    <g clip-path="url(#clip0_5448_86)">
        <path fill-rule="evenodd" clip-rule="evenodd"
            d="M-0.125 -0.125C10.5417 -0.125 21.2083 -0.125 31.875 -0.125C31.875 10.5417 31.875 21.2083 31.875 31.875C21.2083 31.875 10.5417 31.875 -0.125 31.875C-0.125 21.2083 -0.125 10.5417 -0.125 -0.125Z"
            fill="#FFFEFE" />
        <path fill-rule="evenodd" clip-rule="evenodd"
            d="M20.625 3.87543C20.625 3.95875 20.625 4.0421 20.625 4.12543C19.7369 4.3194 18.9036 4.65273 18.125 5.12543C17.3413 5.50625 16.508 5.67293 15.625 5.62543C14.02 5.19813 12.4367 4.69813 10.875 4.12543C10.125 4.12543 9.375 4.12543 8.625 4.12543C9.41035 3.9201 10.2437 3.7951 11.125 3.75043C13.341 1.51927 15.9243 1.01927 18.875 2.25043C19.5828 2.66685 20.1661 3.20853 20.625 3.87543Z"
            fill="#FFDD6B" />
        <path fill-rule="evenodd" clip-rule="evenodd"
            d="M20.625 4.125C21.4114 5.26345 22.0364 6.51345 22.5 7.875C22.8439 8.17628 23.1356 8.5096 23.375 8.875C22.9609 9.87072 22.5442 10.8707 22.125 11.875C21.816 12.0615 21.4826 12.1448 21.125 12.125C20.875 12.125 20.625 12.125 20.375 12.125C20.308 12.5247 20.3914 12.8581 20.625 13.125C20.2979 13.3081 19.9646 13.5164 19.625 13.75C19.8539 13.8196 20.0206 13.9446 20.125 14.125C19.875 14.2917 19.625 14.4583 19.375 14.625C19.196 14.5542 18.9877 14.4709 18.75 14.375C18.1289 15.4124 17.3372 16.2873 16.375 17C16.514 17.0957 16.5973 17.2207 16.625 17.375C16.3959 17.4954 16.1459 17.5787 15.875 17.625C15.4613 17.4031 15.0446 17.2781 14.625 17.25C14.3703 17.8819 14.6203 18.2569 15.375 18.375C14.4957 19.4026 13.4124 20.1943 12.125 20.75C10.6651 21.2573 9.2484 21.799 7.875 22.375C7.05695 22.0606 6.2236 21.7689 5.375 21.5C4.8539 21.3257 4.43723 21.034 4.125 20.625C4.50915 19.4383 4.96747 18.2717 5.5 17.125C5.62387 16.6318 5.66553 16.1318 5.625 15.625C6.38047 15.549 7.13047 15.424 7.875 15.25C8.24187 14.9756 8.4502 14.6006 8.5 14.125C8.58332 14.375 8.66668 14.625 8.75 14.875C8.80802 14.5656 8.93303 14.3156 9.125 14.125C9.08368 15.0454 9.12535 15.9621 9.25 16.875C9.53225 17.2853 9.90725 17.5353 10.375 17.625C9.98943 17.7852 9.65608 18.0352 9.375 18.375C9.6205 19.1334 10.1205 19.55 10.875 19.625C10.8648 18.6891 11.0315 18.6475 11.375 19.5C11.612 19.6207 11.862 19.6624 12.125 19.625C12.107 18.8619 11.857 18.1952 11.375 17.625C12.506 17.2006 12.9227 16.3673 12.625 15.125C15.4257 13.2761 17.2173 10.6927 18 7.375C18.1245 6.6296 18.1661 5.8796 18.125 5.125C18.9036 4.6523 19.7369 4.31898 20.625 4.125Z"
            fill="#FEC539" />
        <path fill-rule="evenodd" clip-rule="evenodd"
            d="M20.625 4.12496C20.625 4.04163 20.625 3.95828 20.625 3.87496C24.1856 3.73311 26.519 5.31643 27.625 8.62496C27.625 9.37496 27.625 10.125 27.625 10.875C26.1217 10.4012 24.705 9.73451 23.375 8.87496C23.1356 8.50956 22.8439 8.17623 22.5 7.87496C22.0364 6.51341 21.4114 5.26341 20.625 4.12496Z"
            fill="#FFD37B" />
        <path fill-rule="evenodd" clip-rule="evenodd"
            d="M10.875 4.125C12.4367 4.6977 14.02 5.1977 15.625 5.625C15.3238 8.73708 14.0322 11.1537 11.75 12.875C11.6804 12.6461 11.5554 12.4794 11.375 12.375C10.8109 12.1404 10.2276 12.1404 9.625 12.375C9.55805 12.7747 9.64138 13.1081 9.875 13.375C9.72505 13.725 9.47505 13.975 9.125 14.125C8.93303 14.3156 8.80802 14.5656 8.75 14.875C8.66668 14.625 8.58332 14.375 8.5 14.125C8.4502 14.6006 8.24187 14.9756 7.875 15.25C7.13047 15.424 6.38047 15.549 5.625 15.625C5.15535 14.0263 4.69703 12.443 4.25 10.875C5.43313 10.2858 6.64145 9.74415 7.875 9.25C9.35765 7.82665 10.3576 6.11832 10.875 4.125Z"
            fill="#FED321" />
        <path fill-rule="evenodd" clip-rule="evenodd"
            d="M18.125 5.125C18.1661 5.8796 18.1245 6.6296 18 7.375C17.2173 10.6927 15.4257 13.2761 12.625 15.125C12.4143 14.7067 12.0809 14.415 11.625 14.25C10.7958 14.1254 9.96248 14.0837 9.125 14.125C9.47505 13.975 9.72505 13.725 9.875 13.375C10.3588 13.2126 10.8588 13.1293 11.375 13.125C11.375 12.875 11.375 12.625 11.375 12.375C11.5554 12.4794 11.6804 12.6461 11.75 12.875C14.0322 11.1537 15.3238 8.73708 15.625 5.625C16.508 5.6725 17.3413 5.50583 18.125 5.125Z"
            fill="#FDCA2D" />
        <path fill-rule="evenodd" clip-rule="evenodd"
            d="M23.375 8.875C24.705 9.73455 26.1217 10.4012 27.625 10.875C27.24 12.2293 26.7818 13.5627 26.25 14.875C26.1255 15.6204 26.0837 16.3704 26.125 17.125C25.9147 17.2523 25.7897 17.0857 25.75 16.625C23.7083 20.6667 20.6667 23.7083 16.625 25.75C17.0857 25.7897 17.2523 25.9147 17.125 26.125C16.2875 26.0837 15.4542 26.1255 14.625 26.25C13.4214 26.8525 12.1714 27.311 10.875 27.625C10.4436 26.7477 10.1103 25.8313 9.875 24.875C13.0377 23.919 15.871 22.3774 18.375 20.25C18.9475 19.8057 19.3641 19.2641 19.625 18.625C19.8447 19.0574 20.178 19.3908 20.625 19.625C20.9118 19.5456 21.1201 19.3789 21.25 19.125C21.5123 19.5267 21.8873 19.6933 22.375 19.625C22.2609 18.8986 22.0109 18.2319 21.625 17.625C22.126 17.3318 22.501 16.9151 22.75 16.375C22.6193 15.6145 22.661 14.8645 22.875 14.125C21.9583 14.125 21.0417 14.125 20.125 14.125C20.0206 13.9446 19.8539 13.8196 19.625 13.75C19.9646 13.5164 20.2979 13.3081 20.625 13.125C21.0948 13.3354 21.5948 13.4187 22.125 13.375C22.125 13.0417 22.125 12.7083 22.125 12.375C21.7253 12.442 21.3919 12.3586 21.125 12.125C21.4826 12.1448 21.816 12.0615 22.125 11.875C22.5442 10.8707 22.9609 9.87072 23.375 8.875Z"
            fill="#FEB751" />
        <path fill-rule="evenodd" clip-rule="evenodd"
            d="M8.62494 4.125C9.37494 4.125 10.1249 4.125 10.8749 4.125C10.3576 6.11832 9.35759 7.82665 7.87494 9.25C6.64139 9.74415 5.43306 10.2858 4.24994 10.875C4.69696 12.443 5.15529 14.0263 5.62494 15.625C5.66546 16.1318 5.62381 16.6318 5.49994 17.125C4.96741 18.2717 4.50909 19.4383 4.12494 20.625C4.04161 20.625 3.95826 20.625 3.87494 20.625C1.84888 18.8368 1.14055 16.5868 1.74994 13.875C2.23311 12.8255 2.89979 11.9088 3.74994 11.125C3.62914 8.40852 4.67081 6.28352 6.87494 4.75C7.41254 4.39715 7.99586 4.18882 8.62494 4.125Z"
            fill="#FFE767" />
        <path fill-rule="evenodd" clip-rule="evenodd"
            d="M21.1249 12.125C21.3918 12.3586 21.7252 12.442 22.1249 12.375C22.1249 12.7083 22.1249 13.0417 22.1249 13.375C21.5947 13.4187 21.0947 13.3354 20.6249 13.125C20.3913 12.8581 20.308 12.5247 20.3749 12.125C20.6249 12.125 20.8749 12.125 21.1249 12.125Z"
            fill="#FFA375" />
        <path fill-rule="evenodd" clip-rule="evenodd"
            d="M11.3749 12.3752C11.3749 12.6252 11.3749 12.8752 11.3749 13.1252C10.8587 13.1295 10.3587 13.2128 9.87491 13.3752C9.64128 13.1083 9.55796 12.7749 9.62491 12.3752C10.2275 12.1406 10.8108 12.1406 11.3749 12.3752Z"
            fill="#FFAC85" />
        <path fill-rule="evenodd" clip-rule="evenodd"
            d="M9.12505 14.1248C9.96253 14.0835 10.7959 14.1252 11.6251 14.2498C12.081 14.4148 12.4143 14.7064 12.6251 15.1248C12.9228 16.3671 12.5061 17.2004 11.3751 17.6248C11.0417 17.6248 10.7084 17.6248 10.3751 17.6248C9.9073 17.5351 9.5323 17.2851 9.25005 16.8748C9.1254 15.9619 9.08373 15.0452 9.12505 14.1248Z"
            fill="#1C1813" />
        <path fill-rule="evenodd" clip-rule="evenodd"
            d="M20.1249 14.125C21.0416 14.125 21.9582 14.125 22.8749 14.125C22.6608 14.8645 22.6192 15.6145 22.7499 16.375C22.5009 16.9151 22.1259 17.3318 21.6249 17.625C21.2394 17.8252 20.8228 17.9085 20.3749 17.875C19.1304 17.1149 18.7971 16.0316 19.3749 14.625C19.6249 14.4583 19.8749 14.2917 20.1249 14.125Z"
            fill="#221B14" />
        <path fill-rule="evenodd" clip-rule="evenodd"
            d="M10.1251 15.8755C9.60167 14.8006 9.93502 14.3006 11.1251 14.3755C11.3504 15.3106 11.0171 15.8106 10.1251 15.8755Z"
            fill="#E6E6E6" />
        <path fill-rule="evenodd" clip-rule="evenodd"
            d="M20.1251 15.8755C19.6017 14.8006 19.935 14.3006 21.1251 14.3755C21.3504 15.3106 21.0171 15.8106 20.1251 15.8755Z"
            fill="#E6E6E6" />
        <path fill-rule="evenodd" clip-rule="evenodd"
            d="M11.6249 15.625C12.1161 15.7371 12.1994 15.9871 11.8749 16.375C11.6535 16.1688 11.5702 15.9187 11.6249 15.625Z"
            fill="#E9E9E9" />
        <path fill-rule="evenodd" clip-rule="evenodd"
            d="M21.625 15.625C22.5775 15.9385 22.5775 16.1885 21.625 16.375C21.625 16.125 21.625 15.875 21.625 15.625Z"
            fill="#D4D1CF" />
        <path fill-rule="evenodd" clip-rule="evenodd"
            d="M26.125 17.125C26.5717 18.0187 27.0303 18.9354 27.5 19.875C27.6953 20.2359 27.6535 20.5692 27.375 20.875C25.1315 21.476 23.3399 22.726 22 24.625C21.7449 25.6005 21.3699 26.517 20.875 27.375C20.5692 27.6535 20.2359 27.6953 19.875 27.5C18.9354 27.0303 18.0187 26.5717 17.125 26.125C17.2523 25.9147 17.0857 25.7897 16.625 25.75C20.6667 23.7083 23.7083 20.6667 25.75 16.625C25.7897 17.0857 25.9147 17.2523 26.125 17.125Z"
            fill="#FFB25C" />
        <path fill-rule="evenodd" clip-rule="evenodd"
            d="M10.125 15.875C10.2083 16.4583 10.5417 16.7917 11.125 16.875C11.2104 17.0845 11.3771 17.1679 11.625 17.125C11.1779 17.4056 10.6779 17.4473 10.125 17.25C9.49578 16.7276 9.49578 16.2693 10.125 15.875Z"
            fill="#6B3810" />
        <path fill-rule="evenodd" clip-rule="evenodd"
            d="M11.625 17.1248C11.3771 17.1677 11.2104 17.0844 11.125 16.8748C11.4056 16.5605 11.5723 16.6438 11.625 17.1248Z"
            fill="#DBCABC" />
        <path fill-rule="evenodd" clip-rule="evenodd"
            d="M21.625 17.1248C21.3771 17.1677 21.2104 17.0844 21.125 16.8748C21.4056 16.5605 21.5723 16.6438 21.625 17.1248Z"
            fill="#DAC8BA" />
        <path fill-rule="evenodd" clip-rule="evenodd"
            d="M20.125 15.875C20.2083 16.4583 20.5417 16.7917 21.125 16.875C21.2104 17.0845 21.3771 17.1679 21.625 17.125C21.1779 17.4056 20.6779 17.4473 20.125 17.25C19.4958 16.7276 19.4958 16.2693 20.125 15.875Z"
            fill="#6A380F" />
        <path fill-rule="evenodd" clip-rule="evenodd"
            d="M16.625 17.375C17.2982 17.0898 17.4649 17.2981 17.125 18C16.5806 18.3006 15.9973 18.4255 15.375 18.375C14.6203 18.2569 14.3703 17.8819 14.625 17.25C15.0445 17.2781 15.4612 17.4031 15.875 17.625C16.1459 17.5787 16.3959 17.4954 16.625 17.375Z"
            fill="#D26134" />
        <path fill-rule="evenodd" clip-rule="evenodd"
            d="M19.375 14.625C18.7972 16.0316 19.1306 17.1149 20.375 17.875C19.875 17.875 19.625 18.125 19.625 18.625C19.3641 19.2641 18.9475 19.8057 18.375 20.25C15.871 22.3774 13.0377 23.919 9.875 24.875C9.31093 23.9757 8.64428 23.1423 7.875 22.375C9.2484 21.799 10.6651 21.2573 12.125 20.75C13.4124 20.1943 14.4957 19.4026 15.375 18.375C15.9973 18.4255 16.5806 18.3006 17.125 18C17.4649 17.2981 17.2982 17.0898 16.625 17.375C16.5973 17.2207 16.514 17.0957 16.375 17C17.3372 16.2873 18.1289 15.4124 18.75 14.375C18.9877 14.4709 19.196 14.5542 19.375 14.625Z"
            fill="#FEBE44" />
        <path fill-rule="evenodd" clip-rule="evenodd"
            d="M21.625 17.625C22.0109 18.2319 22.2609 18.8986 22.375 19.625C21.8873 19.6933 21.5123 19.5267 21.25 19.125C21.1201 19.3789 20.9118 19.5456 20.625 19.625C20.178 19.3908 19.8447 19.0574 19.625 18.625C19.625 18.125 19.875 17.875 20.375 17.875C20.8229 17.9085 21.2395 17.8252 21.625 17.625Z"
            fill="#FDA375" />
        <path fill-rule="evenodd" clip-rule="evenodd"
            d="M10.375 17.625C10.7083 17.625 11.0417 17.625 11.375 17.625C11.857 18.1952 12.107 18.8619 12.125 19.625C11.862 19.6624 11.612 19.6207 11.375 19.5C11.0315 18.6475 10.8648 18.6891 10.875 19.625C10.1205 19.55 9.6205 19.1334 9.375 18.375C9.65608 18.0352 9.98943 17.7852 10.375 17.625Z"
            fill="#F8A87F" />
        <path fill-rule="evenodd" clip-rule="evenodd"
            d="M3.87506 20.625C3.95839 20.625 4.04174 20.625 4.12506 20.625C4.43729 21.034 4.85396 21.3257 5.37506 21.5C6.22366 21.7689 7.05701 22.0606 7.87506 22.375C8.64434 23.1423 9.31099 23.9757 9.87506 24.875C10.1103 25.8313 10.4437 26.7477 10.8751 27.625C10.1251 27.625 9.37506 27.625 8.62506 27.625C5.28906 26.5308 3.70574 24.1973 3.87506 20.625Z"
            fill="#FFD47B" />
        <path fill-rule="evenodd" clip-rule="evenodd"
            d="M27.625 8.625C27.8302 9.41035 27.9552 10.2437 28 11.125C30.2452 13.3392 30.7452 15.9225 29.5 18.875C29.0935 19.5319 28.5935 20.1152 28 20.625C27.875 25.4167 25.4167 27.875 20.625 28C18.3925 30.2057 15.8092 30.7057 12.875 29.5C12.2181 29.0935 11.6348 28.5935 11.125 28C10.2437 27.9552 9.41035 27.8302 8.625 27.625C9.375 27.625 10.125 27.625 10.875 27.625C12.1714 27.311 13.4214 26.8525 14.625 26.25C15.4542 26.1255 16.2875 26.0837 17.125 26.125C18.0187 26.5717 18.9354 27.0303 19.875 27.5C20.2359 27.6953 20.5692 27.6535 20.875 27.375C21.3699 26.517 21.7449 25.6005 22 24.625C23.3399 22.726 25.1315 21.476 27.375 20.875C27.6535 20.5692 27.6953 20.2359 27.5 19.875C27.0303 18.9354 26.5717 18.0187 26.125 17.125C26.0837 16.3704 26.1255 15.6204 26.25 14.875C26.7818 13.5627 27.24 12.2293 27.625 10.875C27.625 10.125 27.625 9.375 27.625 8.625Z"
            fill="#FFCB8B" />
    </g>
    <defs>
        <clipPath id="clip0_5448_86">
            <rect width="32" height="32" fill="white" />
        </clipPath>
    </defs>
</svg>