<svg width="32" height="32" viewBox="0 0 32 32" fill="none" xmlns="http://www.w3.org/2000/svg">
    <g clip-path="url(#clip0_5803_385)">
        <path fill-rule="evenodd" clip-rule="evenodd"
            d="M-0.0712891 -0.0712891C10.5954 -0.0712891 21.262 -0.0712891 31.9287 -0.0712891C31.9287 10.5954 31.9287 21.262 31.9287 31.9287C21.262 31.9287 10.5954 31.9287 -0.0712891 31.9287C-0.0712891 21.262 -0.0712891 10.5954 -0.0712891 -0.0712891Z"
            fill="#0C1212" />
        <path fill-rule="evenodd" clip-rule="evenodd"
            d="M23.3952 22.1157C22.4737 22.2566 21.5255 22.304 20.5507 22.2579C19.7463 21.0294 18.9403 19.7967 18.133 18.5601C16.7541 20.6764 15.4266 22.8333 14.1507 25.0312C13.1518 25.1494 12.1562 25.1257 11.1641 24.9601C12.9655 21.9261 14.767 18.8919 16.5685 15.8579C15.3359 13.772 14.1033 11.6861 12.8707 9.60012C13.8629 9.43452 14.8584 9.41081 15.8574 9.52901C16.5645 10.779 17.323 11.9879 18.133 13.1557C19.4822 11.1224 20.7622 9.03647 21.973 6.8979C23.0127 6.73227 24.0557 6.70856 25.1018 6.82679C23.2825 9.82539 21.481 12.8358 19.6974 15.8579C20.9316 17.9477 22.1642 20.0337 23.3952 22.1157Z"
            fill="#00ACF5" />
        <path fill-rule="evenodd" clip-rule="evenodd"
            d="M6.89746 9.59999C7.86754 9.43578 8.8631 9.41207 9.88413 9.52888C11.1463 11.6503 12.4263 13.76 13.7241 15.8578C12.4799 18.0147 11.1999 20.148 9.88413 22.2578C8.88857 22.4474 7.89302 22.4474 6.89746 22.2578C8.16826 20.1424 9.40086 18.009 10.5952 15.8578C9.43281 13.7213 8.20023 11.6354 6.89746 9.59999Z"
            fill="#F4F4F4" />
        <path fill-rule="evenodd" clip-rule="evenodd"
            d="M23.3952 22.1152C23.4725 22.1238 23.5198 22.1711 23.5374 22.2575C22.5197 22.445 21.5242 22.445 20.5508 22.2575C21.5256 22.3035 22.4738 22.2562 23.3952 22.1152Z"
            fill="#07729D" />
    </g>
    <defs>
        <clipPath id="clip0_5803_385">
            <rect width="32" height="32" fill="white" />
        </clipPath>
    </defs>
</svg>