<svg width="128" height="128" viewBox="0 0 128 128" fill="none" xmlns="http://www.w3.org/2000/svg">
<path fill-rule="evenodd" clip-rule="evenodd" d="M63.9994 98.6193L7.33824 64L0.00224445 70.191L0 73.978L63.9994 128L127.995 73.9807L128 70.195L120.661 64L63.9994 98.6193Z" fill="#1C0172"/>
<path fill-rule="evenodd" clip-rule="evenodd" d="M64 0L0.00336671 54.1016L0 57.8944L64 112L127.997 57.897L128 54.1043L64 0Z" fill="#4608AD"/>
<path fill-rule="evenodd" clip-rule="evenodd" d="M72.2001 53.2229L64.3479 40.6765L71.0426 35L85 58.9347L79.3793 63.7017L64.3693 56.5073L64.305 56.561L72.8529 69.2343L67.2322 74L39 62.1655L45.7161 56.4707L60.4743 63.1299L60.5578 63.0579L52.3679 50.8308L57.6521 46.3517L72.1154 53.2948L72.2001 53.2229Z" fill="white"/>
</svg>
