<svg width="32" height="32" viewBox="0 0 32 32" fill="none" xmlns="http://www.w3.org/2000/svg">
    <path fill-rule="evenodd" clip-rule="evenodd"
        d="M23.2198 5.99444e-05C23.9078 5.99444e-05 24.5958 5.99444e-05 25.2838 5.99444e-05C27.0188 -0.00635173 28.6096 0.501583 30.0567 1.52387C31.4368 3.86784 32.0818 6.40752 31.9917 9.14291C21.2779 8.89499 12.033 12.3659 4.25696 19.5556C2.37999 17.7987 0.961006 15.7669 0 13.4604C0 12.7831 0 12.1059 0 11.4286C0.51355 10.2842 1.28754 9.31071 2.32198 8.50799C8.68286 4.15142 15.6488 1.31545 23.2198 5.99444e-05Z"
        fill="#E12051" />
    <path fill-rule="evenodd" clip-rule="evenodd"
        d="M23.9938 32.0002C23.2198 32.0002 22.4458 32.0002 21.6718 32.0002C19.9477 31.3628 18.3137 30.5163 16.7699 29.4605C19.6534 23.9474 21.3733 18.1061 21.9298 11.9367C25.2315 11.0332 28.5854 10.7792 31.9917 11.1748C31.7172 13.4734 31.3302 15.7591 30.8307 18.032C30.0379 22.2583 28.5758 26.2372 26.4448 29.9685C25.7296 30.8023 24.9126 31.4796 23.9938 32.0002Z"
        fill="#E12151" />
    <path fill-rule="evenodd" clip-rule="evenodd"
        d="M14.9639 14.4761C15.3307 14.5291 15.6747 14.656 15.9959 14.857C16.8456 15.7813 17.7916 16.5856 18.8339 17.2697C18.4498 21.2403 17.2028 24.9652 15.0929 28.4443C11.8352 26.0563 8.69627 23.5167 5.67596 20.8253C8.49196 18.3064 11.5879 16.19 14.9639 14.4761Z"
        fill="#E12051" />
</svg>