<svg width="32" height="32" viewBox="0 0 32 32" fill="none" xmlns="http://www.w3.org/2000/svg">
    <g clip-path="url(#clip0_5572_261)">
        <path fill-rule="evenodd" clip-rule="evenodd"
            d="M-0.071167 -0.0712891C10.5955 -0.0712891 21.2622 -0.0712891 31.9288 -0.0712891C31.9288 10.5954 31.9288 21.262 31.9288 31.9287C21.2622 31.9287 10.5955 31.9287 -0.071167 31.9287C-0.071167 21.262 -0.071167 10.5954 -0.071167 -0.0712891Z"
            fill="#18181E" />
        <path fill-rule="evenodd" clip-rule="evenodd"
            d="M16.2844 21.1202C17.4069 21.4641 18.0706 22.2225 18.2756 23.3957C18.1107 24.8871 17.3049 25.7879 15.8578 26.098C10.9292 25.7555 7.68184 23.2428 6.11556 18.5602C5.09982 13.2203 6.97242 9.26178 11.7333 6.68462C13.439 5.84266 15.193 5.70044 16.9956 6.25795C18.7438 7.77787 18.6964 9.24749 16.8533 10.6668C14.4664 10.71 12.6412 11.7293 11.3778 13.7246C10.3243 16.7761 11.2014 19.0754 14.0089 20.6224C14.7632 20.8347 15.5219 21.0006 16.2844 21.1202Z"
            fill="#8237AE" />
        <path fill-rule="evenodd" clip-rule="evenodd"
            d="M26.0978 8.74679C25.1467 10.9303 23.6772 11.3807 21.6889 10.0979C21.3107 9.65038 21.0736 9.1526 20.9778 8.60456C21.2285 6.34127 22.4612 5.51164 24.6756 6.11567C25.6528 6.71897 26.1269 7.59601 26.0978 8.74679Z"
            fill="#88A738" />
        <path fill-rule="evenodd" clip-rule="evenodd"
            d="M20.9778 8.60449C21.0736 9.15253 21.3107 9.65031 21.6889 10.0978C23.6772 11.3806 25.1467 10.9302 26.0978 8.74671C26.1215 11.5442 26.0978 14.3412 26.0267 17.1378C25.2649 21.6736 22.6813 24.5891 18.2756 25.8845C17.4759 26.0308 16.6699 26.1019 15.8578 26.0978C17.3049 25.7878 18.1107 24.8869 18.2756 23.3956C18.0706 22.2224 17.4069 21.4639 16.2845 21.12C18.1753 20.8175 19.5738 19.822 20.48 18.1334C20.7098 17.5863 20.8521 17.0174 20.9067 16.4267C20.9778 13.8197 21.0015 11.2123 20.9778 8.60449Z"
            fill="#F7D102" />
    </g>
    <defs>
        <clipPath id="clip0_5572_261">
            <rect width="32" height="32" fill="white" />
        </clipPath>
    </defs>
</svg>