<svg width="32" height="32" viewBox="0 0 32 32" fill="none" xmlns="http://www.w3.org/2000/svg">
    <g clip-path="url(#clip0_5864_399)">
        <path fill-rule="evenodd" clip-rule="evenodd"
            d="M-0.0712891 -0.0712891C10.5954 -0.0712891 21.262 -0.0712891 31.9287 -0.0712891C31.9287 10.5954 31.9287 21.262 31.9287 31.9287C21.262 31.9287 10.5954 31.9287 -0.0712891 31.9287C-0.0712891 21.262 -0.0712891 10.5954 -0.0712891 -0.0712891Z"
            fill="#F9F9F9" />
        <path fill-rule="evenodd" clip-rule="evenodd"
            d="M23.8219 23.6797C23.727 25.0545 23.6323 26.4292 23.5374 27.8041C21.4313 26.49 19.3454 25.1389 17.2797 23.7508C12.634 23.6797 7.98807 23.6559 3.34189 23.6797C3.3182 20.1712 3.34189 16.663 3.413 13.1552C3.50782 12.9656 3.60263 12.776 3.69745 12.5863C7.28385 9.80572 10.9105 7.07979 14.5774 4.40856C15.4739 3.75574 16.3747 3.75574 17.2797 4.40856C20.9466 7.07979 24.5733 9.80572 28.1597 12.5863C28.2545 12.776 28.3493 12.9656 28.4441 13.1552C28.5152 16.663 28.539 20.1712 28.5152 23.6797C26.9508 23.6797 25.3863 23.6797 23.8219 23.6797Z"
            fill="#ED5826" />
        <path fill-rule="evenodd" clip-rule="evenodd"
            d="M20.8356 20.5509C20.7407 21.262 20.646 21.9731 20.5512 22.6842C19.5597 21.9983 18.5642 21.3108 17.5645 20.622C13.9144 20.5509 10.264 20.5271 6.61338 20.5509C6.58968 18.417 6.61339 16.2837 6.68449 14.1509C9.80599 11.9302 12.8875 9.65464 15.9289 7.32422C18.9704 9.65464 22.0519 11.9302 25.1734 14.1509C25.2445 16.2837 25.2682 18.417 25.2445 20.5509C23.7749 20.5509 22.3052 20.5509 20.8356 20.5509Z"
            fill="#F9F8F8" />
        <path fill-rule="evenodd" clip-rule="evenodd"
            d="M20.8352 20.5508C20.8819 21.3152 20.8345 22.0737 20.693 22.8263C20.6067 22.8087 20.5593 22.7613 20.5508 22.6841C20.6456 21.973 20.7404 21.2619 20.8352 20.5508Z"
            fill="#F3BDAA" />
        <path fill-rule="evenodd" clip-rule="evenodd"
            d="M23.8225 23.6797C23.8697 25.105 23.8224 26.5273 23.6803 27.9464C23.594 27.9287 23.5466 27.8814 23.5381 27.8041C23.6329 26.4293 23.7277 25.0545 23.8225 23.6797Z"
            fill="#F2B9AD" />
    </g>
    <defs>
        <clipPath id="clip0_5864_399">
            <rect width="32" height="32" fill="white" />
        </clipPath>
    </defs>
</svg>