<svg width="32" height="32" viewBox="0 0 32 32" fill="none" xmlns="http://www.w3.org/2000/svg">
    <path fill-rule="evenodd" clip-rule="evenodd"
        d="M0 0C4.94234 0 9.88468 0 14.827 0C17.5767 0.144795 20.1957 0.758704 22.6841 1.84173C15.1416 6.93562 7.58016 12.0003 0 17.036C0 11.3573 0 5.67865 0 0Z"
        fill="#AF252B" />
    <path fill-rule="evenodd" clip-rule="evenodd"
        d="M22.6841 1.8418C20.8947 11.8237 19.0783 21.7998 17.2348 31.7699C16.7071 31.8223 16.2002 31.899 15.7141 32.0001C10.4761 32.0001 5.23803 32.0001 0 32.0001C0 27.0121 0 22.024 0 17.036C7.58016 12.0004 15.1416 6.93569 22.6841 1.8418Z"
        fill="#CE1F25" />
    <path fill-rule="evenodd" clip-rule="evenodd"
        d="M22.6841 1.8418C28.1941 4.39855 31.2565 8.50406 31.8718 14.1583C32.4982 19.3964 30.8297 23.9048 26.8661 27.6835C24.1318 29.9417 20.9213 31.3039 17.2349 31.7699C19.0784 21.7998 20.8947 11.8237 22.6841 1.8418Z"
        fill="#EC2B2B" />
</svg>