<svg width="32" height="32" viewBox="0 0 32 32" fill="none" xmlns="http://www.w3.org/2000/svg">
    <path fill-rule="evenodd" clip-rule="evenodd"
        d="M30.8465 0C31.2204 0 31.5942 0 31.9681 0C32.3175 8.86751 29.7937 16.9535 24.3967 24.2581C18.7045 29.9353 12.0678 31.3117 4.48676 28.3871C6.62789 24.8208 8.77783 21.38 10.9365 18.0645C6.70579 22.0665 3.62117 26.7116 1.68253 32C1.30864 32 0.934743 32 0.560845 32C0.560845 31.6559 0.373897 31.4839 0 31.4839C0 31.1398 0 30.7957 0 30.4516C0.51027 29.6677 0.977642 28.8075 1.40211 27.871C1.03254 21.4707 2.71508 15.6212 6.44971 10.3226C8.47935 8.45652 10.8162 6.99417 13.4603 5.93548C18.1091 4.65088 22.7827 3.44658 27.4814 2.32258C28.9432 1.9139 30.0649 1.13971 30.8465 0Z"
        fill="#12B53D" />
</svg>