<svg width="32" height="32" viewBox="0 0 32 32" fill="none" xmlns="http://www.w3.org/2000/svg">
    <path fill-rule="evenodd" clip-rule="evenodd"
        d="M13.5735 0.0867053C21.0065 -0.549784 26.5728 2.318 30.2718 8.69007C33.3208 15.5949 32.3354 21.8349 27.3156 27.4104C22.2788 31.9576 16.5263 33.1259 10.058 30.9154C8.29807 30.1453 6.70015 29.1361 5.26425 27.8883C8.77969 27.8353 12.2951 27.7821 15.8106 27.729C16.7497 27.4303 17.1758 26.793 17.0889 25.8171C16.5482 21.1581 15.9355 16.5112 15.2513 11.8765C14.5728 10.6327 13.8537 10.553 13.0941 11.6375C12.2063 11.9539 11.7269 11.6619 11.656 10.7613C9.63186 10.7613 7.60793 10.7613 5.58383 10.7613C5.47454 11.6136 4.99516 11.9058 4.1457 11.6375C3.80902 11.4361 3.64923 11.1441 3.66632 10.7613C2.67081 10.7649 2.05833 11.2429 1.82871 12.1951C1.46901 15.0118 1.09606 17.8264 0.710159 20.6392C-1.21774 13.3944 0.779669 7.47285 6.70238 2.87483C8.82171 1.48985 11.1122 0.560528 13.5735 0.0867053ZM8.14052 6.30025C11.1515 6.42723 12.7761 7.96723 13.0142 10.9206C12.7911 11.2435 12.5249 11.2966 12.2152 11.0799C11.5999 7.73271 9.70904 6.69712 6.54259 7.97312C5.58 8.77833 5.07394 9.81392 5.02456 11.0799C4.71488 11.2966 4.44867 11.2435 4.2256 10.9206C4.29239 8.33176 5.59742 6.79159 8.14052 6.30025ZM20.125 10.124C22.8668 10.3371 23.9322 11.771 23.3208 14.4256C23.173 14.6074 23.0397 14.6074 22.9213 14.4256C23.3585 12.4278 22.5863 11.2062 20.6043 10.7613C19.4645 10.8502 18.6656 11.4078 18.2075 12.4341C18.056 12.5111 17.8962 12.5375 17.7281 12.5138C17.7228 11.9399 17.936 11.4619 18.3672 11.0799C18.8982 10.6298 19.4842 10.3112 20.125 10.124ZM16.4497 11.8765C16.6691 11.8515 16.8823 11.8781 17.0889 11.9562C17.2939 13.0614 17.8 13.2473 18.6069 12.5138C19.9006 13.0389 21.2056 13.5435 22.5219 14.0273C22.3665 14.773 22.6861 15.0386 23.4806 14.824C23.9407 14.5592 24.2868 14.6919 24.5193 15.2223C23.9184 18.5879 23.1727 21.9337 22.2822 25.2595C21.9511 25.9992 21.3918 26.2382 20.6043 25.9765C19.7586 25.6158 18.9062 25.2705 18.0477 24.9409C17.7715 23.7844 17.6383 22.6161 17.6482 21.4358C18.7913 22.1919 20.043 22.5372 21.4033 22.4714C21.6451 22.0804 21.5385 21.8148 21.0837 21.6748C19.5857 21.5519 18.334 20.9413 17.3286 19.8426C16.9272 17.1752 16.6343 14.5198 16.4497 11.8765Z"
        fill="#FAC100" />
    <path fill-rule="evenodd" clip-rule="evenodd"
        d="M3.02748 17.6123C4.27578 17.7155 4.64873 18.3264 4.14603 19.4445C3.16091 19.9394 2.52174 19.6738 2.22852 18.6479C2.35363 18.1798 2.62001 17.8347 3.02748 17.6123Z"
        fill="#FAC100" />
    <path fill-rule="evenodd" clip-rule="evenodd"
        d="M11.8156 18.0896C12.6148 17.9575 12.961 18.2761 12.8543 19.0455C11.8695 21.4613 10.0852 22.8686 7.50123 23.2675C6.4359 23.3738 5.37072 23.3738 4.30538 23.2675C3.73396 23.2373 3.22806 23.0513 2.78735 22.7099C2.60503 22.1751 2.79135 21.8564 3.34663 21.754C5.50239 22.3274 7.57969 22.1416 9.57854 21.1963C10.6563 20.4024 11.4021 19.3669 11.8156 18.0896Z"
        fill="#FAC100" />
    <path fill-rule="evenodd" clip-rule="evenodd"
        d="M21.5632 19.0456C22.7099 18.9635 22.9761 19.4149 22.3621 20.3998C21.2302 20.4755 20.9638 20.0242 21.5632 19.0456Z"
        fill="#FAC100" />
</svg>