<svg width="32" height="32" viewBox="0 0 32 32" fill="none" xmlns="http://www.w3.org/2000/svg">
    <path fill-rule="evenodd" clip-rule="evenodd"
        d="M3.09854 0.00589994C11.7002 -0.00983284 20.3018 0.00589994 28.9034 0.0530888C30.8359 0.247432 31.8509 1.2384 31.9483 3.02599C32.0172 5.41686 32.0172 7.80783 31.9483 10.1987C31.8509 11.9863 30.8359 12.9773 28.9034 13.1716C20.3018 13.2346 11.7001 13.2346 3.09854 13.1716C1.16595 12.9773 0.150963 11.9863 0.0535654 10.1987C-0.015251 7.80783 -0.015251 5.41686 0.0535654 3.02599C0.16977 1.2374 1.18476 0.230698 3.09854 0.00589994Z"
        fill="#0056FA" />
    <path fill-rule="evenodd" clip-rule="evenodd"
        d="M4.85329 18.6927C12.2852 18.6769 19.717 18.6927 27.1487 18.7399C28.2049 18.72 29.2371 18.8458 30.2452 19.1174C31.3554 19.7147 31.9231 20.6113 31.9484 21.8071C32.0172 24.198 32.0172 26.589 31.9484 28.9799C31.8509 30.7675 30.836 31.7584 28.9034 31.9528C20.3018 32.0157 11.7001 32.0157 3.09856 31.9528C1.16597 31.7584 0.150986 30.7675 0.0535884 28.9799C-0.043252 26.3658 -0.00883862 23.7547 0.156808 21.1465C0.39541 19.9847 1.13515 19.2454 2.37602 18.9286C3.21591 18.8394 4.04167 18.7608 4.85329 18.6927Z"
        fill="#E0EDF9" />
</svg>