<svg width="32" height="32" viewBox="0 0 32 32" fill="none" xmlns="http://www.w3.org/2000/svg">
    <path fill-rule="evenodd" clip-rule="evenodd"
        d="M17.4105 11.3397C17.3989 11.6153 17.4237 11.8854 17.4835 12.1499C17.4835 12.2579 17.4835 12.3659 17.4835 12.4739C17.3865 12.4739 17.2887 12.4739 17.1917 12.4739C16.9918 11.0312 16.7606 9.59982 16.4987 8.17984C15.7824 8.46301 15.0653 8.74658 14.3468 9.03056C14.7451 10.2359 15.1339 11.4377 15.5139 12.636C15.4621 12.7092 15.3892 12.7362 15.2951 12.717C14.9063 11.5032 14.5175 10.2879 14.1279 9.07107C13.9769 9.10778 13.8558 9.1888 13.7632 9.31414C14.1476 10.4334 14.4883 11.5676 14.7845 12.717C14.7597 12.7849 14.7108 12.812 14.6386 12.798C14.2694 11.648 13.9288 10.4868 13.6173 9.31414C12.9199 9.51377 12.2393 9.77036 11.5748 10.0838C11.8812 11.0653 12.2218 12.024 12.596 12.9601C12.518 13.0357 12.421 13.0628 12.3043 13.0411C12.0176 12.0585 11.701 11.0862 11.3559 10.1243C11.2049 10.161 11.0839 10.2421 10.9912 10.3674C11.3122 11.2482 11.604 12.1394 11.8666 13.0411C11.8148 13.1143 11.7418 13.1413 11.6477 13.1221C11.3764 12.2307 11.0963 11.3395 10.8088 10.4484C10.768 10.4061 10.7191 10.3792 10.6629 10.3674C9.93494 10.6414 9.21714 10.9384 8.51101 11.2586C8.88523 11.9432 9.22516 12.6453 9.53227 13.3652C9.45421 13.4408 9.35719 13.4679 9.24048 13.4462C8.88377 12.7892 8.54311 12.114 8.21922 11.4207C8.05655 11.3893 7.88658 11.3759 7.70859 11.3802C7.29571 11.2327 7.13742 10.9222 7.23444 10.4484C7.29133 10.3037 7.37668 10.1822 7.48975 10.0838C7.13085 10.1286 6.76612 10.1286 6.39554 10.0838C5.7361 9.82181 5.10387 9.49773 4.49892 9.11158C4.9366 8.84154 5.37429 8.57142 5.81197 8.30138C5.28325 7.94067 4.79698 7.52204 4.35303 7.04555C4.75475 6.83287 5.16806 6.6573 5.59313 6.51892C5.34839 6.25795 5.12955 5.97438 4.9366 5.6682C5.36648 5.54732 5.80416 5.47983 6.24965 5.46565C6.11411 5.17478 6.02906 4.86415 5.99434 4.53391C5.88411 3.74379 5.82335 2.96059 5.81197 2.1843C6.2684 2.5693 6.6939 3.00141 7.08854 3.48064C8.03612 0.908274 9.75038 -0.131498 12.2313 0.361335C12.9754 0.632423 13.6195 1.07804 14.1644 1.69818C14.1907 1.15267 14.1542 0.612532 14.055 0.0777623C14.1177 -0.00995889 14.1907 -0.0234651 14.2738 0.0372519C14.9442 0.45809 15.4672 1.03874 15.8422 1.7792C15.8663 2.02226 15.8911 2.26532 15.9151 2.50839C16.2828 2.12661 16.6723 1.77552 17.0823 1.45512C17.2493 2.22125 17.2253 2.97744 17.0093 3.7237C16.7847 4.12162 16.4812 4.4187 16.0975 4.61493C16.8233 4.30974 17.5769 4.01266 18.3589 3.7237C18.3829 3.76421 18.4077 3.80472 18.4318 3.84523C18.1867 4.48465 17.9314 5.11936 17.6659 5.74922C17.4558 6.11786 17.1757 6.40144 16.827 6.59994C17.2296 6.83644 17.3639 7.20103 17.2282 7.69372C17.0794 7.84717 16.9699 8.02266 16.8999 8.22035C17.0516 9.27508 17.2223 10.3148 17.4105 11.3397ZM10.4806 0.563887C12.5092 0.428663 13.9076 1.40091 14.675 3.48064C14.7239 3.56166 14.7239 3.64268 14.675 3.7237C14.4686 3.76083 14.2986 3.86886 14.1644 4.04778C13.5217 1.85107 12.1722 0.97335 10.1158 1.41461C8.51539 2.14571 7.79759 3.48256 7.96391 5.42514C7.94494 5.12131 7.89607 4.82429 7.81801 4.53391C7.68306 4.27653 7.54957 4.01996 7.4168 3.76421C7.86616 2.00932 8.88742 0.942546 10.4806 0.563887ZM14.4927 0.725929C14.6043 0.720014 14.6772 0.774031 14.7115 0.887971C14.6386 0.885548 14.5904 0.926058 14.5656 1.0095C14.6174 1.22174 14.6904 1.42429 14.7845 1.61716C14.7356 1.67117 14.6874 1.72518 14.6386 1.7792C15.0434 2.15175 15.3111 2.62438 15.441 3.19706C15.1229 3.06037 14.8924 2.8038 14.748 2.42737C14.5685 1.87799 14.4832 1.31084 14.4927 0.725929ZM14.7115 0.887971C15.4009 1.31211 15.6802 1.96028 15.5504 2.83247C15.3002 2.41191 15.1543 1.95279 15.1127 1.45512C15.0478 1.55325 14.9865 1.55325 14.9303 1.45512C14.8362 1.27373 14.7633 1.08468 14.7115 0.887971ZM13.5444 3.39962C13.37 3.36619 13.2 3.31217 13.0337 3.23757C12.7748 2.78589 12.41 2.63736 11.9395 2.79196C11.7849 2.88284 11.6506 3.00437 11.5383 3.15655C10.9219 3.02908 10.606 3.32615 10.59 4.04778C10.288 3.77806 9.95974 3.73755 9.60521 3.92625C9.55926 3.98705 9.52278 4.05457 9.49579 4.1288C9.0479 3.86017 8.65909 3.94119 8.32864 4.37187C8.65836 2.44086 9.71609 1.53612 11.5018 1.65767C12.472 1.83122 13.1526 2.41187 13.5444 3.39962ZM16.0975 4.1288C16.1384 3.70044 16.3331 3.38985 16.6811 3.19706C16.6081 3.17006 16.5352 3.14305 16.4622 3.11604C16.6227 2.88251 16.7081 2.62594 16.7176 2.34635C16.5432 2.56737 16.3973 2.81043 16.2799 3.07553C16.2573 3.01006 16.2208 2.95605 16.1704 2.91349C16.115 3.44184 15.9567 3.92797 15.6963 4.37187C15.5431 3.66828 15.7255 3.08763 16.2434 2.62992C16.4258 2.48138 16.6081 2.33284 16.7905 2.1843C16.9094 2.80449 16.8124 3.37163 16.4987 3.88574C16.3718 3.98764 16.2383 4.06866 16.0975 4.1288ZM6.46849 3.39962C6.41458 3.389 6.36593 3.40251 6.3226 3.44013C6.42669 3.71918 6.52393 4.00275 6.61439 4.29084C6.57609 4.34694 6.52743 4.38745 6.46849 4.41238C6.8449 4.7205 7.06374 5.13913 7.12502 5.6682C6.68587 5.57187 6.43049 5.27476 6.35907 4.77697C6.26205 4.21237 6.2134 3.64522 6.21318 3.07553C6.31355 3.17317 6.39861 3.2812 6.46849 3.39962ZM12.0125 3.07553C12.4173 2.96529 12.6843 3.12733 12.8149 3.56166C13.0381 3.61806 13.2569 3.68559 13.4714 3.76421C13.548 3.87663 13.5604 3.99817 13.5079 4.1288C13.3379 4.20982 13.2161 4.34486 13.1431 4.53391C13.1388 4.26472 13.0534 4.03517 12.8878 3.84523C12.5056 3.80652 12.1161 3.75251 11.7207 3.68319C11.2932 3.96832 11.0868 4.38693 11.1006 4.93901C10.9073 5.18345 10.7979 5.14294 10.7724 4.81748C10.822 4.61298 10.919 4.43741 11.0642 4.29084C10.8234 3.87252 10.9088 3.57544 11.3195 3.39962C11.4333 3.44251 11.5427 3.49652 11.6477 3.56166C11.7688 3.40034 11.8906 3.2383 12.0125 3.07553ZM6.46849 3.39962C6.88502 3.76746 7.23735 4.19957 7.52622 4.69595C7.70203 5.1367 7.65388 5.54181 7.38033 5.91126C7.32343 5.37004 7.16514 4.87047 6.90617 4.41238C6.96745 4.33044 6.99152 4.23592 6.97912 4.1288C6.88283 4.14258 6.79748 4.11556 6.72381 4.04778C6.61774 3.83947 6.53269 3.62341 6.46849 3.39962ZM15.0033 3.56166C15.0974 3.4689 15.1827 3.49591 15.2586 3.64268C15.3133 3.73464 15.3009 3.81566 15.2221 3.88574C15.1229 3.79465 15.05 3.68662 15.0033 3.56166ZM11.7207 3.88574C11.8739 3.86152 12.0198 3.88853 12.1584 3.96676C12.0351 4.09046 11.9009 4.19849 11.7572 4.29084C11.6966 4.22333 11.6353 4.15581 11.5748 4.08829C11.639 4.03091 11.6879 3.96339 11.7207 3.88574ZM12.3772 3.96676C12.7813 3.92047 12.9272 4.10953 12.8149 4.53391C12.6179 4.42445 12.448 4.27591 12.3043 4.08829C12.3451 4.05729 12.3692 4.01678 12.3772 3.96676ZM9.82406 4.04778C10.1107 4.01105 10.3413 4.11907 10.5171 4.37187C10.5346 4.5177 10.4981 4.65268 10.4076 4.77697C10.2858 4.66897 10.1647 4.66897 10.0429 4.77697C9.87731 4.70073 9.73141 4.59273 9.60521 4.45289C9.66065 4.30216 9.7336 4.16713 9.82406 4.04778ZM15.5869 6.96453C15.6255 6.79893 15.7109 6.66386 15.8422 6.55943C15.8546 6.45143 15.8663 6.34335 15.8787 6.23534C15.6978 5.89263 15.5643 5.5145 15.4775 5.10105C15.4169 5.03356 15.3556 4.96599 15.2951 4.8985C15.0259 4.86941 14.7706 4.80184 14.5291 4.69595C14.3854 4.69935 14.2519 4.73986 14.1279 4.81748C14.0222 5.06994 13.8639 5.27249 13.6538 5.42514C13.5969 5.66245 13.6093 5.89206 13.6902 6.11381C13.4605 6.51584 13.5093 6.8669 13.8361 7.16708C14.0703 7.2605 14.3132 7.31454 14.5656 7.32913C13.9842 7.69493 13.5706 7.53289 13.3255 6.843C13.3547 6.72366 13.4036 6.61566 13.4714 6.51892C12.8878 6.11462 12.8878 5.70952 13.4714 5.30361C13.2394 4.83279 13.3605 4.52224 13.8361 4.37187C13.9653 4.4032 14.0871 4.45718 14.2009 4.53391C14.7626 3.82896 15.1638 3.93699 15.4045 4.85799C15.7408 4.76862 15.948 4.91722 16.0246 5.30361C16.0165 5.45714 15.9677 5.5922 15.8787 5.70871C16.3331 6.05856 16.3572 6.43668 15.9516 6.843C15.8407 6.92475 15.7189 6.96526 15.5869 6.96453ZM8.8028 4.29084C9.01799 4.16417 9.21203 4.20468 9.38637 4.41238C9.20255 4.35326 9.00778 4.31275 8.8028 4.29084ZM12.0854 4.20982C12.2503 4.26958 12.2627 4.35061 12.1219 4.45289C12.0869 4.37608 12.0745 4.29506 12.0854 4.20982ZM11.3559 4.37187C11.4289 4.37187 11.5018 4.37187 11.5748 4.37187C11.5565 4.61533 11.6536 4.76384 11.8666 4.81748C11.4267 5.04474 11.2567 4.89623 11.3559 4.37187ZM17.6294 4.45289C17.6812 4.37964 17.7541 4.35264 17.8482 4.37187C17.6863 4.81197 17.5039 5.24405 17.3011 5.6682C17.1071 5.9316 16.8758 6.1476 16.6081 6.31637C16.5177 6.19208 16.4812 6.0571 16.4987 5.91126C16.9451 5.49595 17.3464 5.0368 17.7023 4.53391C17.6936 4.48473 17.6688 4.45775 17.6294 4.45289ZM11.7936 4.45289C11.9278 4.46415 11.9519 4.51819 11.8666 4.61493C11.8082 4.5779 11.7841 4.52386 11.7936 4.45289ZM17.6294 4.45289C17.3865 4.72228 17.1188 4.96534 16.827 5.18207C16.7781 5.12803 16.73 5.07407 16.6811 5.02003C16.6534 5.14326 16.641 5.27825 16.6446 5.42514C16.5476 5.53314 16.4498 5.64122 16.3528 5.74922C16.3163 5.70871 16.2799 5.6682 16.2434 5.62769C16.2762 5.36623 16.3492 5.12317 16.4622 4.8985C16.835 4.69303 17.2238 4.54452 17.6294 4.45289ZM8.6569 4.53391C8.78091 4.52094 8.90273 4.53439 9.02164 4.57442C8.68754 4.78864 8.56645 5.09927 8.6569 5.50616C8.72256 5.42465 8.7707 5.42465 8.8028 5.50616C8.44463 5.78398 8.24986 5.67598 8.21922 5.18207C8.28487 4.8938 8.43077 4.67772 8.6569 4.53391ZM12.3772 4.53391C12.5012 4.5489 12.5982 4.61647 12.669 4.73646C12.464 4.90304 12.367 4.83555 12.3772 4.53391ZM12.0854 4.69595C12.1277 4.59281 12.1759 4.59281 12.2313 4.69595C12.197 4.77397 12.1481 4.77397 12.0854 4.69595ZM8.87574 5.18207C9.11501 4.66565 9.4316 4.59816 9.82406 4.97952C10.3361 4.89996 10.5674 5.15655 10.5171 5.74922C10.3106 6.17677 10.0064 6.2983 9.60521 6.11381C9.9663 5.76542 9.99038 5.3873 9.67816 4.97952C9.36887 4.88327 9.10115 4.95076 8.87574 5.18207ZM12.8149 4.77697C12.8988 4.80055 12.9476 4.86804 12.9608 4.97952C12.9425 5.22923 12.8207 5.35076 12.596 5.34412C12.6354 5.13848 12.7084 4.94938 12.8149 4.77697ZM12.0125 4.93901C12.3174 4.88481 12.4144 5.00634 12.3043 5.30361C12.367 5.35943 12.4151 5.42692 12.4501 5.50616C12.34 5.60719 12.2306 5.60719 12.1219 5.50616C11.9541 5.34031 11.9176 5.1512 12.0125 4.93901ZM14.3468 4.93901C14.4686 4.93901 14.5897 4.93901 14.7115 4.93901C14.6546 5.14975 14.5328 5.31179 14.3468 5.42514C14.1644 5.27152 14.1644 5.10948 14.3468 4.93901ZM15.0033 5.02003C15.3133 5.10818 15.4227 5.32427 15.3316 5.6682C15.12 5.58531 14.9624 5.43672 14.8574 5.22258C14.9216 5.16522 14.9705 5.09765 15.0033 5.02003ZM9.31343 5.10105C9.74454 5.31827 9.78102 5.58831 9.42285 5.91126C8.94504 5.69332 8.90857 5.42327 9.31343 5.10105ZM11.1371 5.18207C11.5624 5.10729 11.8301 5.29631 11.9395 5.74922C12.6916 5.81355 12.9345 6.23218 12.669 7.00504C13.1774 7.5952 13.068 8.01375 12.3407 8.26087C12.3699 8.08821 12.4429 7.92617 12.5596 7.77474C12.6726 7.36737 12.5749 7.04328 12.2678 6.80249C12.2174 6.46188 12.084 6.16486 11.8666 5.91126C11.4902 5.90778 11.1254 5.7997 10.7724 5.58718C10.873 5.42117 10.9949 5.28619 11.1371 5.18207ZM13.9091 5.42514C14.1148 5.44952 14.1629 5.55752 14.055 5.74922C14.2534 5.89846 14.2417 6.00654 14.0185 6.0733C13.718 5.9205 13.6815 5.70442 13.9091 5.42514ZM14.6386 5.42514C14.8187 5.46135 14.8311 5.54237 14.675 5.6682C14.5488 5.59917 14.5364 5.51815 14.6386 5.42514ZM12.7419 5.50616C12.8353 5.57794 12.8353 5.65896 12.7419 5.74922C12.6646 5.67428 12.6646 5.59325 12.7419 5.50616ZM7.92743 5.58718C8.04561 5.81946 7.99673 6.00849 7.78154 6.15432C7.75747 6.12734 7.73266 6.10028 7.70859 6.0733C7.78227 5.90907 7.85522 5.74703 7.92743 5.58718ZM14.2738 5.74922C14.3161 5.64608 14.3643 5.64608 14.4197 5.74922C14.3854 5.82724 14.3366 5.82724 14.2738 5.74922ZM14.8574 5.74922C14.9464 5.67103 15.0434 5.68457 15.1492 5.78973C15.2105 5.87164 15.2345 5.96619 15.2221 6.0733C15.0106 6.08076 14.8888 5.97276 14.8574 5.74922ZM5.66607 5.83024C6.18028 5.76688 6.66691 5.86143 7.12502 6.11381C7.29133 6.22424 7.30374 6.34578 7.16149 6.47841C6.76393 6.2142 6.33872 6.06569 5.88492 6.03279C6.22536 6.22181 6.56573 6.41092 6.90617 6.59994C6.69973 6.75453 6.72381 6.82202 6.97912 6.80249C6.97912 6.93755 6.97912 7.07253 6.97912 7.20759C6.40218 6.95967 5.94021 6.54104 5.59313 5.95177C5.63369 5.92074 5.65798 5.88023 5.66607 5.83024ZM9.45932 6.55943C9.27404 6.46634 9.09167 6.46634 8.91222 6.55943C8.56499 6.27569 8.22506 6.30267 7.89096 6.64045C7.78227 7.09457 7.73339 7.55372 7.74507 8.0178C7.81801 8.09882 7.89096 8.17984 7.96391 8.26087C7.88002 8.95392 8.13533 9.39953 8.72985 9.59771C8.47308 9.7382 8.20609 9.79224 7.92743 9.75975C7.72318 9.56749 7.67431 9.33787 7.78154 9.07107C7.14325 8.74099 7.04623 8.28185 7.48975 7.69372C7.05353 7.14821 7.12647 6.71612 7.70859 6.39739C7.77789 6.46431 7.85084 6.47776 7.92743 6.4379C8.25205 5.903 8.66566 5.76802 9.16753 6.03279C9.3302 6.1655 9.42795 6.34108 9.45932 6.55943ZM10.6994 5.91126C11.0583 5.93938 11.0459 6.0204 10.6629 6.15432C10.6287 6.06706 10.6411 5.98604 10.6994 5.91126ZM15.441 5.91126C15.6153 5.92625 15.6883 6.03425 15.6598 6.23534C15.6496 6.56153 15.5278 6.65609 15.2951 6.51892C15.3038 6.32204 15.352 6.11948 15.441 5.91126ZM11.4289 5.99228C11.6842 5.99188 11.7936 6.12694 11.7572 6.39739C11.6295 6.34278 11.5077 6.3158 11.3924 6.31637C11.3501 6.20067 11.3625 6.09259 11.4289 5.99228ZM14.2738 6.0733C14.5744 6.14363 14.6108 6.27861 14.3832 6.47841C14.1929 6.39739 14.1564 6.26232 14.2738 6.0733ZM14.7115 6.15432C15.3009 6.39423 15.2761 6.55627 14.6386 6.64045C14.6626 6.47841 14.6874 6.31637 14.7115 6.15432ZM10.8453 6.23534C10.9533 6.21412 11.0503 6.2411 11.1371 6.31637C11.0313 6.42574 10.9825 6.56072 10.9912 6.72147C10.5747 6.68396 10.5258 6.52192 10.8453 6.23534ZM10.3347 6.31637C10.3887 6.30575 10.4375 6.31928 10.4806 6.35688C10.3981 6.76887 10.2523 6.80938 10.0429 6.47841C10.1487 6.42396 10.2457 6.36992 10.3347 6.31637ZM13.7632 6.31637C13.9536 6.2983 14.0754 6.39285 14.1279 6.59994C14.5758 6.70494 14.6006 6.85353 14.2009 7.04555C13.8135 6.95999 13.6676 6.71693 13.7632 6.31637ZM11.21 6.47841C11.3435 6.53026 11.3683 6.61128 11.283 6.72147C11.1356 6.67018 11.1116 6.58916 11.21 6.47841ZM11.9395 6.47841C11.9957 6.53285 12.0438 6.60034 12.0854 6.68096C11.9716 6.69619 11.9227 6.6287 11.9395 6.47841ZM8.29217 6.55943C8.449 6.54906 8.5949 6.58957 8.72985 6.68096C8.50226 6.71977 8.29509 6.81432 8.1098 6.96453C8.05801 6.76563 8.11928 6.63056 8.29217 6.55943ZM9.45932 6.55943C10.1844 6.79058 10.4886 7.33075 10.3712 8.17984C10.3369 8.29579 10.2763 8.39026 10.1888 8.46342C10.2515 8.59062 10.2997 8.72568 10.3347 8.86852C10.1042 9.08882 9.83719 9.1969 9.53227 9.1926C9.57531 8.94833 9.6964 8.77275 9.897 8.66597C10.075 8.35987 10.075 8.04932 9.897 7.73423C9.96338 7.58928 9.97579 7.44069 9.93348 7.28862C9.75913 7.05536 9.60157 6.81229 9.45932 6.55943ZM11.5018 6.55943C11.7243 6.55894 11.7608 6.63996 11.6113 6.80249C11.5354 6.74221 11.4989 6.66119 11.5018 6.55943ZM9.02164 6.72147C9.27404 6.79731 9.48048 6.95935 9.64169 7.20759C9.7285 7.33269 9.75257 7.46775 9.71464 7.6127C9.38491 7.47585 9.10553 7.25985 8.87574 6.96453C8.90784 6.86415 8.95672 6.78313 9.02164 6.72147ZM15.1492 6.72147C15.2199 6.76093 15.2929 6.80144 15.368 6.843C15.2061 7.12252 14.9872 7.21699 14.7115 7.12657C14.6466 7.05973 14.6225 6.97871 14.6386 6.88351C14.8319 6.8908 15.0026 6.83684 15.1492 6.72147ZM10.4806 6.80249C10.6236 6.84114 10.7213 6.93569 10.7724 7.08606C10.7242 7.2857 10.6877 7.48825 10.6629 7.69372C10.606 7.44968 10.5207 7.22015 10.4076 7.00504C10.4623 6.95068 10.4871 6.88319 10.4806 6.80249ZM6.10376 7.12657C6.00885 7.23871 6.00885 7.36024 6.10376 7.49117C5.82284 7.72208 5.85931 7.78957 6.21318 7.69372C6.38125 7.82076 6.56361 7.91531 6.76028 7.97729C6.48899 8.11932 6.22149 8.11932 5.95786 7.97729C5.61742 7.70725 5.27705 7.43713 4.9366 7.16708C5.21037 7.0539 5.48998 6.95935 5.77549 6.88351C5.89702 6.95222 6.00645 7.03324 6.10376 7.12657ZM10.9912 6.88351C11.2319 6.86966 11.256 6.92362 11.0642 7.04555C11.0058 7.00853 10.9817 6.95449 10.9912 6.88351ZM8.43806 6.96453C8.52998 6.96137 8.60292 7.00188 8.6569 7.08606C8.56937 7.15923 8.50882 7.2537 8.47454 7.36964C8.32572 7.26658 8.1915 7.29356 8.07333 7.45066C8.00549 7.35432 7.98141 7.24632 8.00038 7.12657C8.18348 7.16271 8.32937 7.10875 8.43806 6.96453ZM11.4289 6.96453C11.7674 6.96388 11.779 7.07197 11.4654 7.28862C11.2655 7.17251 11.2538 7.06451 11.4289 6.96453ZM11.9395 6.96453C12.0001 7.09619 11.9753 7.23125 11.8666 7.36964C11.8155 7.23255 11.8396 7.09757 11.9395 6.96453ZM16.3893 7.04555C16.8955 6.97085 17.0414 7.1734 16.827 7.65321C13.885 8.76052 10.9423 9.86775 8.00038 10.9751C7.67212 11.0426 7.53862 10.894 7.59917 10.5294C7.65972 10.462 7.72099 10.3944 7.78154 10.3269C10.6659 9.2545 13.5356 8.16072 16.3893 7.04555ZM12.1584 7.12657C12.3188 7.15558 12.4159 7.26366 12.4501 7.45066C12.2809 7.9444 11.9527 8.21444 11.4654 8.26087C11.2064 8.24612 10.9992 8.12459 10.8453 7.89627C10.9861 7.87594 11.1203 7.83542 11.2465 7.77474C11.5091 8.09105 11.752 8.06398 11.976 7.69372C12.0788 7.51952 12.1394 7.33042 12.1584 7.12657ZM6.1767 7.20759C6.40517 7.33285 6.59965 7.49489 6.76028 7.69372C6.45857 7.68189 6.26402 7.51985 6.1767 7.20759ZM10.9912 7.20759C11.1561 7.27598 11.229 7.41104 11.21 7.6127C10.8468 7.64154 10.7738 7.50648 10.9912 7.20759ZM9.09459 7.53168C8.9414 7.5559 8.7955 7.52892 8.6569 7.45066C8.81666 7.26528 8.96255 7.29234 9.09459 7.53168ZM11.5748 7.45066C11.8622 7.67671 11.8133 7.78471 11.4289 7.77474C11.4311 7.63709 11.4792 7.529 11.5748 7.45066ZM8.29217 7.53168C8.45703 7.59147 8.46943 7.67249 8.32864 7.77474C8.20244 7.70571 8.19004 7.62469 8.29217 7.53168ZM7.85449 7.6127C7.96099 7.69032 8.05801 7.78479 8.14627 7.89627C8.1098 7.93678 8.07333 7.97729 8.03685 8.0178C7.93692 7.90356 7.87564 7.7685 7.85449 7.6127ZM13.3255 7.6127C13.6013 7.75481 13.5772 7.8223 13.2526 7.81525C13.3073 7.76089 13.3321 7.6934 13.3255 7.6127ZM8.8028 7.69372C8.93045 7.68708 9.0034 7.75457 9.02164 7.89627C8.97276 8.04592 8.87574 8.14047 8.72985 8.17984C8.63721 7.99698 8.66128 7.83494 8.8028 7.69372ZM9.38637 7.69372C9.8846 7.94707 9.93348 8.27115 9.53227 8.66597C9.45932 8.62546 9.38637 8.58495 9.31343 8.54444C9.35719 8.25924 9.38127 7.97567 9.38637 7.69372ZM8.43806 7.93678C8.48694 8.1258 8.53508 8.31491 8.58396 8.50393C8.37606 8.51592 8.25424 8.40784 8.21922 8.17984C8.24621 8.04413 8.31916 7.96311 8.43806 7.93678ZM10.6265 8.09882C10.8884 8.31183 11.1801 8.46042 11.5018 8.54444C11.2451 8.68493 10.9781 8.73897 10.6994 8.70648C10.5966 8.67666 10.5236 8.60917 10.4806 8.50393C10.5506 8.37632 10.5988 8.24126 10.6265 8.09882ZM9.02164 8.17984C9.15659 8.16137 9.21787 8.21541 9.20401 8.34189C9.08656 8.56664 8.929 8.6206 8.72985 8.50393C8.82979 8.39536 8.92681 8.28736 9.02164 8.17984ZM6.61439 8.34189C6.73621 8.34189 6.8573 8.34189 6.97912 8.34189C6.98787 8.57474 7.06082 8.77729 7.19796 8.94954C6.60877 8.95748 6.02519 9.01152 5.44723 9.11158C5.84231 9.12447 6.23141 9.17851 6.61439 9.27363C6.50445 9.34144 6.46798 9.43599 6.50497 9.5572C6.77706 9.26585 7.10532 9.15785 7.48975 9.23311C7.50726 9.39248 7.48319 9.54108 7.4168 9.67873C7.2534 9.75213 7.08271 9.79264 6.90617 9.80026C6.30086 9.64365 5.71728 9.41412 5.15544 9.11158C5.63989 8.82987 6.12622 8.57328 6.61439 8.34189ZM8.14627 8.58495C8.51539 8.80476 8.90492 8.87233 9.31343 8.7875C9.41263 8.99686 9.36376 9.1589 9.16753 9.27363C8.62772 9.39281 8.28706 9.16327 8.14627 8.58495ZM15.2951 12.717C15.1251 12.717 14.9544 12.717 14.7845 12.717C14.4883 11.5676 14.1476 10.4334 13.7632 9.31414C13.8558 9.1888 13.9769 9.10778 14.1279 9.07107C14.5175 10.2879 14.9063 11.5032 15.2951 12.717ZM12.3043 13.0411C12.1584 13.0411 12.0125 13.0411 11.8666 13.0411C11.604 12.1394 11.3122 11.2482 10.9912 10.3674C11.0839 10.2421 11.2049 10.161 11.3559 10.1243C11.701 11.0862 12.0176 12.0585 12.3043 13.0411Z"
        fill="#029E53" />
    <path fill-rule="evenodd" clip-rule="evenodd"
        d="M25.5807 7.36957C24.7425 7.50941 23.916 7.45537 23.1005 7.20752C23.0283 7.22146 22.9794 7.1944 22.9546 7.1265C22.6117 6.77212 22.3199 6.36701 22.0792 5.91119C22.0829 5.17698 22.4228 4.79886 23.1005 4.7769C23.3755 4.80801 23.5943 4.94307 23.757 5.182C24.9212 4.24962 25.6624 4.5737 25.9819 6.15425C26.0906 6.66768 25.9564 7.07279 25.5807 7.36957ZM24.7053 5.42507C24.9475 5.51889 25.1058 5.70799 25.1795 5.99221C25.2845 6.20635 25.2962 6.42243 25.2159 6.64038C24.7564 6.72634 24.2939 6.72634 23.83 6.64038C24.0109 6.14186 24.3026 5.73675 24.7053 5.42507ZM23.0275 5.58711C23.1092 5.71585 23.0968 5.85091 22.9911 5.99221C22.7576 5.78861 22.77 5.65363 23.0275 5.58711Z"
        fill="#05A156" />
    <path fill-rule="evenodd" clip-rule="evenodd"
        d="M22.0791 5.91132C22.3199 6.36715 22.6116 6.77225 22.9545 7.12663C21.9084 6.73474 20.8748 6.30265 19.8542 5.8303C19.7193 6.09621 19.658 6.36625 19.6719 6.64051C21.8785 7.60166 24.0917 8.54693 26.3101 9.47624C26.4268 9.24347 26.5245 9.0004 26.6018 8.74705C25.4281 8.23192 24.261 7.71882 23.1004 7.20766C23.9159 7.4555 24.7424 7.50954 25.5806 7.3697C26.1189 7.62337 26.6536 7.89342 27.1854 8.17991C26.9381 8.41657 26.7558 8.71367 26.6383 9.07113C26.4684 9.8273 26.2977 10.5836 26.1277 11.3397C25.9789 11.4145 25.8206 11.4415 25.6535 11.4207C25.7455 11.0332 25.8673 10.6551 26.0183 10.2864C23.8481 9.29751 21.6597 8.35232 19.453 7.45072C19.3692 7.47648 19.3086 7.53044 19.2707 7.61276C18.806 8.98234 18.3318 10.3462 17.8482 11.7043C18.2793 11.9035 18.717 12.0791 19.1613 12.2309C18.7673 12.3691 18.3537 12.4231 17.9212 12.393C17.7804 12.3131 17.6345 12.2321 17.4835 12.1499C17.4237 11.8855 17.3989 11.6154 17.4105 11.3397C17.9233 9.96957 18.4092 8.57869 18.8695 7.16715C18.7951 6.94134 18.7834 6.71181 18.833 6.47847C18.9643 6.06688 19.1102 5.66178 19.2707 5.26316C19.472 5.06303 19.7032 4.99546 19.9637 5.0606C20.6705 5.34531 21.3752 5.62888 22.0791 5.91132Z"
        fill="#F6BE37" />
    <path fill-rule="evenodd" clip-rule="evenodd"
        d="M32 8.09882C32 8.26086 32 8.4229 32 8.58495C31.938 9.05811 31.7192 9.4227 31.3435 9.67873C30.4324 9.70425 29.5453 9.87982 28.6809 10.2054C28.6116 10.2382 28.5635 10.2922 28.535 10.3674C28.2804 11.4723 28.0368 12.5796 27.8055 13.6893C27.4342 17.2297 27.0454 20.7676 26.6384 24.303C26.4772 24.7642 26.1737 25.0207 25.7266 25.0727C21.5445 25.0997 17.3617 25.1267 13.1797 25.1537C13.2563 25.3467 13.3051 25.5492 13.3256 25.7614C17.9212 25.7478 22.5169 25.7614 27.1125 25.8019C27.8063 26.0568 28.0616 26.5835 27.8785 27.3818C27.6567 27.971 27.2555 28.2411 26.6749 28.192C25.801 28.1178 24.9256 28.0908 24.0488 28.111C23.0275 27.2467 22.0063 27.2467 20.985 28.111C19.599 28.111 18.213 28.111 16.827 28.111C16.5768 27.9833 16.3339 27.8348 16.0975 27.6653C15.2222 27.3661 14.4446 27.5416 13.7632 28.192C13.1767 28.1999 12.5932 28.1594 12.0125 28.0705C11.7528 27.9172 11.5705 27.6876 11.4654 27.3818C10.6732 23.6732 9.84671 19.9732 8.98521 16.2819C8.97937 18.6066 8.93123 20.9291 8.83931 23.2497C8.31118 25.706 6.90038 26.9483 4.60838 26.9767C1.37472 26.734 -0.157173 24.8166 0.0127207 21.2242C0.258333 19.5744 1.07293 18.4266 2.45645 17.7808C2.83409 17.6219 3.22312 17.5139 3.6236 17.4567C4.30398 17.4162 4.98486 17.4028 5.66612 17.4162C5.67823 16.8214 5.66612 16.2273 5.62964 15.6338C5.33902 14.8445 4.81628 14.561 4.06128 14.783C3.81056 14.8726 3.6282 15.0481 3.51418 15.3097C3.44831 15.6557 3.36318 15.9932 3.25886 16.3224C2.76494 16.4103 2.26642 16.4509 1.76345 16.444C0.362429 16.8328 -0.123909 16.2927 0.304509 14.8235C0.95454 12.5365 2.3649 11.3482 4.53544 11.2586C6.51055 11.3008 7.87204 12.3271 8.62047 14.3374C8.68977 13.9107 8.89621 13.6136 9.24052 13.4462C9.35724 13.4679 9.45426 13.4408 9.53231 13.3652C10.237 13.2782 10.9416 13.1972 11.6478 13.1221C11.7419 13.1413 11.8148 13.1143 11.8666 13.0411C12.0125 13.0411 12.1584 13.0411 12.3043 13.0411C12.421 13.0628 12.518 13.0357 12.5961 12.9601C13.2767 12.906 13.958 12.8521 14.6386 12.798C14.7108 12.812 14.7597 12.7849 14.7845 12.717C14.9545 12.717 15.1252 12.717 15.2951 12.717C15.3892 12.7362 15.4622 12.7092 15.514 12.636C16.0757 12.6087 16.6352 12.5547 17.1918 12.4739C17.2888 12.4739 17.3865 12.4739 17.4835 12.4739C17.6251 12.4213 17.7709 12.3943 17.9212 12.3929C18.3538 12.4231 18.7674 12.369 19.1613 12.2309C19.723 12.2036 20.2825 12.1496 20.8391 12.0688C21.0499 12.0936 21.244 12.0667 21.4227 11.9878C21.4956 11.9878 21.5686 11.9878 21.6415 11.9878C22.1894 11.9745 22.7241 11.8934 23.2464 11.7448C24.0531 11.6699 24.8556 11.5619 25.6536 11.4207C25.8207 11.4414 25.979 11.4144 26.1278 11.3397C26.2977 10.5835 26.4684 9.82724 26.6384 9.07107C26.7558 8.71361 26.9382 8.4165 27.1855 8.17984C27.9135 7.95063 28.643 7.72102 29.3739 7.49117C29.6416 7.30214 29.9086 7.11304 30.1763 6.92402C31.1378 6.65689 31.7454 7.04847 32 8.09882ZM30.5411 7.85576C30.9787 7.85227 31.137 8.09534 31.0152 8.58495C30.9496 8.73629 30.8401 8.81731 30.687 8.82801C30.5323 8.76222 30.374 8.70826 30.2128 8.66597C29.4148 8.87387 28.6371 9.14391 27.8785 9.47617C27.761 9.70968 27.664 9.95274 27.5867 10.2054C27.3679 11.2317 27.149 12.2579 26.9302 13.2842C26.5647 16.8559 26.1635 20.4208 25.7266 23.9789C24.8526 24.0598 23.9773 24.0868 23.1005 24.0599C23.2121 20.3052 23.3463 16.5512 23.5017 12.798C23.5564 12.7473 23.6169 12.7068 23.684 12.6765C24.5842 12.5738 25.4836 12.4658 26.3831 12.3524C26.7682 12.2755 26.9747 12.019 27.0031 11.5827C27.1643 10.8236 27.3343 10.0675 27.5138 9.31413C27.602 9.18863 27.7114 9.09416 27.842 9.03056C28.5503 8.82712 29.2557 8.61103 29.9575 8.38239C30.1661 8.21784 30.3602 8.04235 30.5411 7.85576ZM17.4835 12.1499C17.6345 12.232 17.7804 12.313 17.9212 12.3929C17.7709 12.3943 17.6251 12.4213 17.4835 12.4739C17.4835 12.3659 17.4835 12.2579 17.4835 12.1499ZM21.8604 12.879C22.1033 12.879 22.3469 12.879 22.5898 12.879C22.4965 16.6071 22.3506 20.334 22.1521 24.0599C20.4984 24.0599 18.8455 24.0599 17.1918 24.0599C16.9386 20.8152 16.6468 17.5744 16.3164 14.3374C16.3747 13.7759 16.6665 13.4924 17.1918 13.4867C18.7594 13.2918 20.3161 13.0892 21.8604 12.879ZM14.055 13.9323C14.3723 13.9189 14.6882 13.9324 15.0033 13.9728C15.193 14.0486 15.3024 14.1971 15.3316 14.4184C15.8189 17.6398 16.1471 20.8807 16.3164 24.1409C15.1733 24.1274 14.0302 24.1409 12.8879 24.1815C12.6844 24.201 12.4896 24.255 12.3043 24.3435C12.2095 24.4086 12.1606 24.5032 12.1584 24.6271C12.2408 25.262 12.3751 25.8831 12.5596 26.4905C12.6559 26.6515 12.7894 26.7461 12.9608 26.7741C17.6601 26.7747 22.3528 26.8287 27.0396 26.9362C26.9907 26.9902 26.9426 27.0442 26.8937 27.0982C22.0792 27.1522 17.2647 27.1522 12.4502 27.0982C12.3233 26.9206 12.2386 26.7181 12.1949 26.4905C11.4107 22.7858 10.6083 19.0858 9.78762 15.3907C9.73875 15.1746 9.73875 14.9586 9.78762 14.7425C11.213 14.4529 12.6355 14.1828 14.055 13.9323ZM4.13423 20.576C4.64486 20.576 5.15549 20.576 5.66612 20.576C5.69654 21.3388 5.66006 22.095 5.5567 22.8446C5.08546 23.5813 4.48977 23.7299 3.76949 23.2902C3.30256 22.7871 3.14448 22.1794 3.29534 21.4673C3.44926 21.0127 3.72893 20.7157 4.13423 20.576Z"
        fill="#6F0CA7" />
    <path fill-rule="evenodd" clip-rule="evenodd"
        d="M23.2464 11.7448C22.7241 11.8934 22.1894 11.9744 21.6416 11.9878C22.2084 11.7607 22.7307 11.4366 23.2099 11.0156C23.463 10.471 23.3048 10.1469 22.7358 10.0433C22.4374 10.1173 22.1821 10.2793 21.9698 10.5294C21.8969 10.2594 21.8239 9.98928 21.751 9.71923C21.4745 9.36647 21.1586 9.31243 20.8027 9.55719C20.7516 9.70125 20.7151 9.84984 20.6932 10.0028C20.8304 10.7164 21.0733 11.3781 21.4227 11.9878C21.244 12.0667 21.05 12.0936 20.8391 12.0688C20.5072 11.4255 20.2884 10.7369 20.1826 10.0028C20.2578 9.05527 20.7202 8.67723 21.5686 8.86852C21.8852 9.00366 22.1288 9.23319 22.2981 9.55719C23.1465 9.32612 23.6819 9.67718 23.9029 10.6105C23.8285 11.1009 23.6097 11.479 23.2464 11.7448ZM21.6416 11.9878C21.5686 11.9878 21.4957 11.9878 21.4227 11.9878C21.0733 11.3781 20.8304 10.7164 20.6932 10.0028C20.7151 9.84984 20.7516 9.70125 20.8027 9.55719C21.1586 9.31243 21.4745 9.36647 21.751 9.71923C21.8239 9.98928 21.8969 10.2594 21.9698 10.5294C22.1821 10.2793 22.4374 10.1173 22.7358 10.0433C23.3048 10.1469 23.463 10.471 23.2099 11.0156C22.7307 11.4366 22.2084 11.7607 21.6416 11.9878Z"
        fill="#F5BC37" />
    <path fill-rule="evenodd" clip-rule="evenodd"
        d="M24.0487 28.1111C24.8482 29.2747 24.7994 30.3955 23.9029 31.4734C23.6162 31.6731 23.3244 31.8486 23.0275 32.0001C22.6868 32.0001 22.3469 32.0001 22.0062 32.0001C20.8362 31.5089 20.3379 30.5637 20.5108 29.1643C20.5925 28.7667 20.7508 28.4156 20.985 28.1111C22.0062 27.2468 23.0275 27.2468 24.0487 28.1111ZM22.298 28.4352C23.4433 28.5231 23.8445 29.1712 23.5016 30.3797C22.8911 31.1012 22.2586 31.1282 21.605 30.4607C21.1834 29.507 21.4146 28.8318 22.298 28.4352Z"
        fill="#01A056" />
    <path fill-rule="evenodd" clip-rule="evenodd"
        d="M16.827 28.111C17.5959 29.1928 17.5959 30.2731 16.827 31.3519C16.5783 31.6512 16.2865 31.8673 15.9517 32C15.514 32 15.0763 32 14.6386 32C13.54 31.4504 13.09 30.5051 13.2891 29.1643C13.3912 28.8017 13.5495 28.4776 13.7633 28.192C14.4446 27.5417 15.2222 27.3661 16.0976 27.6654C16.3339 27.8348 16.5768 27.9833 16.827 28.111ZM15.0034 28.5161C16.0706 28.4986 16.5199 29.0658 16.3529 30.2176C15.9254 31.0687 15.3294 31.2443 14.5657 30.7442C14.1127 30.2033 14.0521 29.6226 14.3833 29.0022C14.5781 28.8076 14.7845 28.6456 15.0034 28.5161Z"
        fill="#01A056" />
</svg>