<svg width="32" height="32" viewBox="0 0 32 32" fill="none" xmlns="http://www.w3.org/2000/svg">
    <path fill-rule="evenodd" clip-rule="evenodd"
        d="M15.5809 31.0311C11.6017 31.0311 7.7201 29.2822 4.93189 26.2322C2.12914 23.1673 0.721886 19.1719 0.968943 14.9821C1.27794 9.73446 4.29037 4.98153 8.83047 2.57835C10.3619 1.76803 12.1917 1.24337 14.1225 1.061C14.3889 1.03536 15.255 0.96875 16.0363 0.96875C16.2633 0.96875 16.482 0.974449 16.6768 0.987984C20.8197 1.274 24.6546 3.47985 27.1981 7.03956C27.2663 7.13502 27.3431 7.23903 27.4248 7.35016C28.1618 8.35032 29.2753 9.86126 29.0154 11.3245C28.8009 12.5305 27.2584 13.3519 25.4162 14.2263C25.1435 14.3556 24.9099 14.4653 24.7532 14.5515C23.0445 15.4897 21.4325 16.3481 19.8733 17.178C18.166 18.087 16.401 19.0263 14.5159 20.0681C14.4104 20.1261 14.3048 20.1881 14.1979 20.2505C13.5996 20.5995 12.8554 21.0344 11.9173 21.0344C11.8633 21.0344 11.809 21.033 11.754 21.0301C10.8377 20.9813 10.0152 20.5504 9.43843 19.8166C8.84431 19.0608 8.59137 18.0638 8.74431 17.0808C8.9931 15.4776 10.3111 14.7816 11.3702 14.2227C11.4837 14.1629 11.5965 14.1034 11.7083 14.0425C12.9886 13.3465 14.1384 12.7332 15.2972 12.1156C16.61 11.4153 17.9339 10.7093 19.4712 9.87016L19.6138 9.79358C19.72 9.73695 19.9325 9.62368 20.1089 9.51327C19.9207 9.35726 19.5581 9.12111 18.8605 8.78986C17.8179 8.2944 16.7571 8.05042 15.6771 8.05042C12.5896 8.05042 10.0357 10.0251 8.96888 11.8602C7.82737 13.8242 7.60142 16.7039 8.4201 18.8628C9.34293 21.2955 11.6751 23.8953 15.454 23.8953C15.9162 23.8953 16.3958 23.8554 16.8789 23.776C20.5643 23.1719 22.1061 20.2604 22.4913 19.3824C22.676 18.9604 22.8148 18.4966 22.9484 18.0478C23.365 16.6526 23.8829 14.9159 26.0535 14.6455C26.1961 14.6277 26.3411 14.6185 26.4836 14.6185C28.167 14.6185 29.641 15.8875 29.912 17.5712C30.1099 18.8033 29.5833 20.3548 29.1694 21.4148C27.7853 24.9653 25.0393 28.0139 21.8241 29.57C19.8197 30.5396 17.7197 31.0311 15.5809 31.0311Z"
        fill="white" />
    <path
        d="M16.036 1.93693C16.2409 1.93693 16.4384 1.94192 16.6139 1.95403C20.8651 2.24753 24.3138 4.63788 26.4397 7.61309C27.0467 8.46224 28.2992 9.96854 28.0896 11.1497C27.9086 12.1669 25.1339 13.2437 24.3097 13.6964C20.7322 15.6607 17.6813 17.219 14.0703 19.214C13.4142 19.577 12.7482 20.0657 11.9167 20.0657C11.879 20.0657 11.8409 20.0646 11.8025 20.0625C10.4108 19.9884 9.44957 18.6684 9.67275 17.2336C9.86756 15.9802 11.0786 15.4794 12.1468 14.8989C14.8786 13.4139 17.0163 12.3058 19.9111 10.7254C20.319 10.5028 21.1806 10.0882 21.217 9.66436C21.2855 8.86081 19.7844 8.16233 19.2242 7.89626C18.0284 7.32815 16.8284 7.08131 15.6758 7.08131C12.3859 7.08131 9.48106 9.08984 8.16031 11.3623C6.95236 13.4406 6.57209 16.6552 7.54232 19.214C8.63366 22.0917 11.3658 24.8631 15.4526 24.8631C15.9568 24.8631 16.4807 24.8211 17.0253 24.7317C20.382 24.1814 22.4443 21.8402 23.3474 19.78C24.1477 17.9546 24.0477 15.8698 26.165 15.6066C26.2726 15.5931 26.3785 15.5866 26.4823 15.5866C27.7975 15.5866 28.8048 16.626 28.9826 17.7291C29.1435 18.7303 28.647 20.1519 28.2954 21.0534C26.9937 24.3922 24.419 27.2432 21.4232 28.6928C19.481 29.6332 17.5 30.0627 15.581 30.0627C8.01844 30.0627 1.41572 23.3939 1.90811 15.041C2.22125 9.71957 5.33265 5.51908 9.26065 3.44003C10.6222 2.71983 12.3461 2.20158 14.2084 2.02562C14.4502 2.00211 15.2917 1.93693 16.036 1.93693ZM16.036 0C15.2191 0 14.3135 0.069456 14.0336 0.0965261C11.9866 0.289934 10.0378 0.850569 8.4001 1.71717C3.56554 4.276 0.358294 9.33667 0.0295764 14.9238C-0.233397 19.3825 1.26417 23.635 4.2465 26.8966C7.21187 30.1396 11.343 32 15.5807 32C17.8588 32 20.0938 31.4771 22.2235 30.4463C25.6481 28.789 28.5712 25.5474 30.0418 21.775C30.5359 20.5088 31.0729 18.8685 30.8394 17.4132C30.5802 15.8036 29.4612 14.491 28.0155 13.9357C29.0446 13.2754 29.7567 12.5313 29.9404 11.4994C30.275 9.61592 29.0107 7.90018 28.1743 6.76502C28.0951 6.65781 28.0214 6.55736 27.9557 6.46547C25.2474 2.6753 21.1592 0.326621 16.7398 0.0213709C16.5336 0.00712351 16.2973 0 16.036 0ZM8.98348 14.6745C9.12085 13.8296 9.38763 13.0246 9.77552 12.3571C10.7101 10.7493 12.9554 9.0186 15.6762 9.0186C16.5056 9.0186 17.3239 9.18458 18.1139 9.51192C16.9519 10.1413 15.8935 10.7058 14.863 11.2554C13.727 11.8613 12.5523 12.4878 11.2679 13.186C11.1596 13.2447 11.0499 13.3028 10.9399 13.3605C10.3523 13.6711 9.60563 14.0654 8.98348 14.6745ZM12.1101 21.9983C13.2014 21.9456 14.0402 21.4559 14.662 21.0926C14.7623 21.0341 14.8616 20.9757 14.9609 20.9212C16.8395 19.8833 18.6018 18.9451 20.3055 18.0379C20.9588 17.6903 21.6214 17.3377 22.2965 16.9761C22.1996 17.2564 22.1197 17.5236 22.0481 17.7633C21.9169 18.2021 21.7934 18.6171 21.6329 18.9836C21.2969 19.7501 19.9509 22.2911 16.7301 22.8193C16.2962 22.8906 15.8665 22.9265 15.4533 22.9265C14.1402 22.9262 13.0264 22.5661 12.1101 21.9983Z"
        fill="#4D4C4D" />
    <path fill-rule="evenodd" clip-rule="evenodd"
        d="M27.6166 30.6342C27.1377 30.6342 26.6557 30.5412 26.1834 30.3581C24.6941 29.7808 23.8059 28.189 23.9726 26.3974C24.1363 24.6399 25.292 23.3199 26.9173 23.0346C27.1861 22.9872 27.4532 22.9634 27.7107 22.9634C29.4892 22.9634 30.8885 24.1014 31.2764 25.8627C31.5349 27.0374 31.2681 28.246 30.5442 29.1792C29.8266 30.1035 28.7595 30.6342 27.6166 30.6342Z"
        fill="#6ECEEC" />
    <path
        d="M27.7109 23.6089C29.3251 23.6086 30.3753 24.691 30.6645 26.005C31.1202 28.0758 29.6016 29.9885 27.6165 29.9885C27.2265 29.9885 26.8189 29.9148 26.4047 29.7542C23.8096 28.7479 23.9563 24.2101 27.0227 23.6712C27.2621 23.6285 27.4919 23.6089 27.7109 23.6089ZM27.7109 22.3174C27.4179 22.3174 27.1151 22.3445 26.8116 22.3979C24.8992 22.7338 23.5393 24.2796 23.348 26.3359C23.1535 28.4213 24.2044 30.281 25.9622 30.9623C26.5047 31.1732 27.0615 31.2801 27.6161 31.2801C28.9504 31.2801 30.1964 30.661 31.0337 29.5814C31.8773 28.4943 32.1888 27.0867 31.8877 25.7197C31.4403 23.6841 29.7614 22.3174 27.7109 22.3174Z"
        fill="#4D4C4D" />
</svg>