<svg width="32" height="32" viewBox="0 0 32 32" fill="none" xmlns="http://www.w3.org/2000/svg">
    <path fill-rule="evenodd" clip-rule="evenodd"
        d="M12.7383 0.00993735C17.5115 0.00993735 22.2846 0.00993735 27.0578 0.00993735C28.179 0.188501 29.1868 0.612786 30.0808 1.28278C30.346 1.65402 30.6642 1.97223 31.0354 2.23741C31.3713 2.89812 31.6631 3.58757 31.9105 4.30577C31.9892 4.61964 32.0158 4.93785 31.99 5.2604C31.99 7.75305 31.99 10.2457 31.99 12.7383C32.0166 17.6178 31.99 22.497 31.9105 27.376C31.7474 28.4795 31.2965 29.4342 30.5581 30.2399C30.2399 30.452 29.9747 30.7172 29.7626 31.0354C29.0011 31.416 28.2056 31.7076 27.376 31.9105C24.5656 31.99 21.7548 32.0166 18.9434 31.99C14.3824 31.99 9.82142 31.99 5.2604 31.99C3.9342 31.8844 2.76744 31.4071 1.76009 30.5581C1.54796 30.2929 1.33581 30.0278 1.12367 29.7626C0.581079 29.0662 0.236346 28.2706 0.0894921 27.376C0.00995549 24.6187 -0.0165673 21.8609 0.00993958 19.1025C-0.0165673 14.17 0.00993958 9.23774 0.0894921 4.30577C0.322358 3.41754 0.72012 2.62201 1.28278 1.9192C1.60099 1.65402 1.9192 1.38885 2.23741 1.12367C2.89158 0.612738 3.63406 0.268021 4.46488 0.0894898C7.22218 0.00995325 9.98001 -0.0165695 12.7383 0.00993735Z"
        fill="black" />
    <path fill-rule="evenodd" clip-rule="evenodd"
        d="M14.3291 5.41994C19.7904 5.01911 23.6089 7.29962 25.7847 12.2615C25.7317 12.3675 25.6786 12.4736 25.6256 12.5797C19.8784 15.3207 14.1506 18.1051 8.44226 20.9327C7.92639 21.1934 7.39603 21.3526 6.85121 21.41C4.33021 16.3555 5.07268 11.8476 9.07868 7.88607C10.6375 6.62904 12.3876 5.80699 14.3291 5.41994Z"
        fill="#F7F7F7" />
    <path fill-rule="evenodd" clip-rule="evenodd"
        d="M14.807 9.238C16.8529 9.08079 18.709 9.58463 20.3756 10.7495C16.6437 12.536 12.9311 14.3656 9.23828 16.2386C9.31357 12.5025 11.1698 10.169 14.807 9.238Z"
        fill="#030303" />
    <path fill-rule="evenodd" clip-rule="evenodd"
        d="M26.2624 14.9658C26.7825 19.7291 24.8732 23.256 20.5346 25.5463C17.3259 26.9663 14.1438 26.9132 10.9883 25.3872C10.2259 24.9161 9.53639 24.3592 8.91992 23.7166C10.0358 22.9993 11.2025 22.3629 12.4202 21.8073C16.1209 23.5378 19.2234 22.7952 21.7279 19.5799C22.3113 18.6513 22.6561 17.6437 22.7621 16.5569C23.9794 16.1166 25.1461 15.5863 26.2624 14.9658Z"
        fill="#F6F6F6" />
</svg>