<svg width="32" height="32" viewBox="0 0 32 32" fill="none" xmlns="http://www.w3.org/2000/svg">
    <path
        d="M9.00749 3.38667C5.47427 6.46487 3.90131 10.8756 4.28758 15.1396C4.29633 15.2339 4.32525 15.3251 4.37242 15.4072C4.41958 15.4892 4.48386 15.5602 4.56088 15.6151C4.63791 15.6701 4.72588 15.7079 4.8188 15.7258C4.91172 15.7438 5.00741 15.7415 5.09936 15.7191L6.64547 15.3441C6.79498 15.3084 6.92711 15.2211 7.01855 15.0975C7.11 14.9739 7.15491 14.822 7.14535 14.6686C6.91194 11.4045 8.12239 8.05769 10.787 5.67156C14.8976 1.98598 21.239 1.95706 25.3785 5.60855C30.1883 9.84883 30.3618 17.1973 25.898 21.6617C24.7822 22.7796 23.4384 23.6434 21.9583 24.1943C20.4781 24.7451 18.8966 24.97 17.3216 24.8535C17.1688 24.8439 17.0176 24.8884 16.8944 24.9793C16.7713 25.0702 16.6841 25.2016 16.6482 25.3504L16.2702 26.8967C16.2478 26.9887 16.2456 27.0845 16.2636 27.1775C16.2816 27.2705 16.3194 27.3586 16.3745 27.4356C16.4296 27.5127 16.5006 27.5769 16.5828 27.624C16.6649 27.6712 16.7563 27.7 16.8506 27.7086C20.8166 28.0681 24.9096 26.7325 27.9378 23.7038C33.5862 18.0546 33.3455 8.71051 27.2107 3.37737C22.0301 -1.1294 14.1839 -1.12527 9.00749 3.38667Z"
        fill="black" />
    <path
        d="M20.201 15.9616C20.5091 15.6528 20.745 15.2796 20.8916 14.8687C21.0382 14.4579 21.092 14.0196 21.049 13.5855C21.0061 13.1514 20.8675 12.7322 20.6431 12.3581C20.4188 11.9839 20.1144 11.6642 19.7518 11.4218C19.4021 11.1877 19.0064 11.0314 18.5912 10.9634C18.176 10.8955 17.751 10.9174 17.345 11.0277C16.939 11.1381 16.5614 11.3343 16.2377 11.6031C15.914 11.8719 15.6518 12.2071 15.4687 12.5859C15.3355 12.8597 15.5927 13.1664 15.888 13.0921L16.1214 13.0353C16.5945 12.9196 17.0396 12.7192 17.4816 12.5157C17.761 12.3851 18.0738 12.3438 18.3774 12.3974C18.6811 12.451 18.9608 12.5969 19.1786 12.8152C19.6392 13.2749 19.7394 13.9577 19.4791 14.5134C19.2725 14.9555 19.0722 15.4018 18.9565 15.8748L18.8987 16.1083C18.8284 16.4017 19.1279 16.6599 19.3985 16.5308C19.6877 16.3903 19.9593 16.2013 20.199 15.9637"
        fill="black" />
    <path
        d="M23.5561 19.3186C26.6597 16.2146 26.5533 11.0942 23.2308 8.1276C20.3255 5.53489 15.8349 5.55555 12.9503 8.17202C12.1954 8.8553 11.5844 9.68228 11.1529 10.6046C10.7215 11.5269 10.4782 12.5259 10.4375 13.5434C10.432 13.6458 10.4504 13.7481 10.4914 13.8421C10.5323 13.9361 10.5946 14.0193 10.6733 14.0851C10.752 14.1509 10.8449 14.1974 10.9447 14.221C11.0445 14.2446 11.1484 14.2446 11.2482 14.221L12.1085 14.0123C12.2421 13.98 12.362 13.9063 12.451 13.8016C12.5401 13.6969 12.5937 13.5668 12.6043 13.4298C12.718 12.0015 13.3833 10.6737 14.4592 9.72765C16.5455 7.88382 19.7699 7.90965 21.8293 9.78343C22.627 10.5088 23.1952 11.4516 23.4642 12.4957C23.7331 13.5399 23.691 14.6399 23.343 15.6605C22.995 16.681 22.3563 17.5776 21.5055 18.2398C20.6547 18.902 19.6289 19.3011 18.5543 19.3878C18.4182 19.3996 18.2893 19.4537 18.1857 19.5427C18.0821 19.6317 18.0091 19.7509 17.9769 19.8836L17.7673 20.7431C17.7434 20.8428 17.743 20.9467 17.7663 21.0466C17.7896 21.1465 17.8359 21.2395 17.9015 21.3184C17.9671 21.3972 18.0502 21.4597 18.1441 21.5007C18.2381 21.5418 18.3403 21.5604 18.4427 21.555C20.3674 21.4797 22.1926 20.6802 23.553 19.3166"
        fill="black" />
    <path
        d="M18.4814 13.9491L13.1087 31.7572C13.0918 31.8135 13.0606 31.8645 13.0182 31.9052C12.9758 31.946 12.9236 31.975 12.8666 31.9896C12.8096 32.0041 12.7499 32.0037 12.6931 31.9883C12.6364 31.9729 12.5846 31.9431 12.5427 31.9018L8.34541 27.7049C8.26574 27.625 8.1681 27.5653 8.06066 27.5308C7.95322 27.4963 7.83909 27.488 7.72779 27.5066L4.12329 28.2648C4.09206 28.27 4.05998 28.2652 4.03165 28.251C4.00332 28.2369 3.98021 28.2141 3.96564 28.186C3.95106 28.1579 3.94576 28.1258 3.95052 28.0945C3.95529 28.0632 3.96985 28.0342 3.99213 28.0117L15.7331 16.2691C15.793 16.2092 15.7124 16.1141 15.6442 16.1627L4.80805 23.7694C4.74229 23.8157 4.66225 23.8373 4.58211 23.8303C4.50197 23.8233 4.42689 23.7882 4.37015 23.7311L0.0994903 19.4599C0.057931 19.4181 0.0278775 19.3663 0.0122466 19.3094C-0.00338429 19.2526 -0.00406487 19.1927 0.0102767 19.1355C0.0246182 19.0784 0.0534971 19.0259 0.0941006 18.9832C0.134704 18.9405 0.185657 18.909 0.242018 18.8917L18.0104 13.4801C18.0759 13.4603 18.1456 13.4586 18.212 13.4752C18.2784 13.4918 18.3391 13.526 18.3876 13.5743C18.4361 13.6226 18.4706 13.6832 18.4875 13.7495C18.5043 13.8158 18.5029 13.8855 18.4834 13.9511L18.4814 13.9491Z"
        fill="#00D9A2" />
</svg>