<svg width="32" height="32" viewBox="0 0 32 32" fill="none" xmlns="http://www.w3.org/2000/svg">
    <g clip-path="url(#clip0_5555_357)">
        <path
            d="M0 0C10.56 0 21.12 0 32 0C32 10.56 32 21.12 32 32C21.44 32 10.88 32 0 32C0 21.44 0 10.88 0 0Z"
            fill="#00CFC3" />
        <path
            d="M6.40002 8.74707C9.14562 8.74707 11.8912 8.74707 14.72 8.74707C14.72 9.38067 14.72 10.0143 14.72 10.6671C12.6432 10.6671 10.5664 10.6671 8.42669 10.6671C8.42669 11.6879 8.42669 12.7087 8.42669 13.7604C10.2219 13.7604 12.0171 13.7604 13.8667 13.7604C13.9371 13.5844 14.0075 13.4084 14.08 13.2271C15.0265 11.7977 16.4739 10.8523 18.1334 10.4537C19.8736 10.2631 21.7196 10.4761 23.1529 11.5617C23.2213 11.6184 23.2896 11.6752 23.36 11.7337C23.4405 11.796 23.5209 11.8583 23.6038 11.9225C24.7597 12.87 25.5481 14.2967 25.7067 15.7871C25.8551 17.6299 25.4784 19.1707 24.3167 20.6496C23.6585 21.4213 22.8811 22.1601 21.8667 22.4004C22.1754 22.8312 22.1754 22.8312 22.5934 23.1337C22.6704 23.1381 22.7474 23.1425 22.8267 23.1471C22.9543 23.1603 23.0819 23.1735 23.2134 23.1871C24.0738 23.1758 24.7668 22.6228 25.3867 22.0804C25.4571 22.0804 25.5275 22.0804 25.6 22.0804C25.8113 22.3417 25.8113 22.3417 26.0467 22.6871C26.1252 22.7997 26.2037 22.9123 26.2846 23.0283C26.4534 23.3604 26.4534 23.3604 26.4484 23.6492C26.1691 24.3209 25.2986 24.6547 24.6821 24.9625C23.8192 25.3158 22.6919 25.3449 21.8092 25.0458C21.0864 24.6898 20.4639 24.2996 20.02 23.6137C19.9654 23.531 19.9108 23.4482 19.8546 23.3629C19.7334 23.1471 19.7334 23.1471 19.7334 22.9337C19.6058 22.9403 19.4782 22.9469 19.3467 22.9537C17.686 22.9433 16.1421 22.3082 14.9525 21.1537C13.6169 19.7367 13.0721 18.1468 13.0984 16.2029C13.12 15.8937 13.12 15.8937 13.2267 15.5737C11.6427 15.5737 10.0587 15.5737 8.42669 15.5737C8.42669 16.6649 8.42669 17.7561 8.42669 18.8804C9.79949 18.8804 11.1723 18.8804 12.5867 18.8804C12.5867 19.4788 12.5867 20.0772 12.5867 20.6937C10.5451 20.6937 8.50349 20.6937 6.40002 20.6937C6.40002 16.7513 6.40002 12.8089 6.40002 8.74707Z"
            fill="#F8FCFC" />
        <path
            d="M21.2834 12.7127C22.3156 13.275 23.0993 14.1291 23.4667 15.2531C23.6009 15.7251 23.597 16.1786 23.6001 16.6664C23.6023 16.754 23.6045 16.8416 23.6067 16.9319C23.6141 18.0903 23.0989 19.1273 22.2896 19.9552C21.2893 20.7885 20.2369 21.1151 18.9551 21.0506C17.8487 20.9456 16.9688 20.446 16.2267 19.6198C15.3194 18.5076 15.1407 17.2941 15.2308 15.8907C15.3609 14.6747 16.1178 13.7606 17.0121 12.9877C17.4557 12.6766 17.937 12.5229 18.4534 12.3731C19.4082 12.0548 20.3994 12.2993 21.2834 12.7127Z"
            fill="#02CFC3" />
        <path
            d="M15.5734 11.627C15.6438 11.6622 15.7142 11.6974 15.7867 11.7336C15.3291 12.1912 14.8715 12.6488 14.4 13.1203C14.4 12.7258 14.4884 12.6601 14.7467 12.3736C14.811 12.301 14.8754 12.2284 14.9417 12.1536C15.14 11.9537 15.3438 11.7895 15.5734 11.627Z"
            fill="#DBF7F6" />
    </g>
    <defs>
        <clipPath id="clip0_5555_357">
            <rect width="32" height="32" fill="white" />
        </clipPath>
    </defs>
</svg>