<svg width="32" height="32" viewBox="0 0 32 32" fill="none" xmlns="http://www.w3.org/2000/svg">
    <path fill-rule="evenodd" clip-rule="evenodd"
        d="M14.6665 3.64453C16.5628 3.64453 18.459 3.64453 20.3554 3.64453C20.3554 4.17786 20.3554 4.7112 20.3554 5.24453C18.459 5.24453 16.5628 5.24453 14.6665 5.24453C14.6665 4.7112 14.6665 4.17786 14.6665 3.64453Z"
        fill="#9CAFFA" />
    <path fill-rule="evenodd" clip-rule="evenodd"
        d="M14.6665 6.48877C16.5628 6.48877 18.459 6.48877 20.3554 6.48877C20.3554 7.0221 20.3554 7.55544 20.3554 8.08877C18.459 8.08877 16.5628 8.08877 14.6665 8.08877C14.6665 7.55544 14.6665 7.0221 14.6665 6.48877Z"
        fill="#9CAFFA" />
    <path fill-rule="evenodd" clip-rule="evenodd"
        d="M15.9111 9.51123C17.0371 9.51123 18.163 9.51123 19.2889 9.51123C19.2592 11.5861 19.2889 13.6602 19.3778 15.7335C21.8811 13.9276 24.4589 13.8387 27.1111 15.4668C29.1645 17.3658 29.9053 19.7064 29.3334 22.489C28.2516 26.2775 25.733 27.907 21.7778 27.3779C20.8199 27.1656 19.9902 26.7212 19.2889 26.0446C19.1607 26.4332 19.0423 26.8184 18.9334 27.2001C17.9277 27.2888 16.9203 27.3185 15.9111 27.289C15.9111 21.3631 15.9111 15.4372 15.9111 9.51123ZM22.1334 17.5112C24.9998 17.5037 26.2738 18.926 25.9556 21.7779C25.3046 23.6894 23.9712 24.4894 21.9556 24.1779C20.0594 23.5219 19.2594 22.1886 19.5556 20.1779C19.9735 18.8417 20.8327 17.9528 22.1334 17.5112Z"
        fill="#3800E1" />
    <path fill-rule="evenodd" clip-rule="evenodd"
        d="M6.48889 14.3111C12.2967 13.7192 15.0226 16.3266 14.6667 22.1334C11.5237 22.0742 8.38295 22.1334 5.24444 22.3111C5.9022 23.7355 7.02812 24.4466 8.62222 24.4445C9.28348 24.3343 9.93534 24.1862 10.5778 24C11.0717 23.7282 11.5458 23.4912 12 23.2889C12.7197 23.9488 13.3715 24.6599 13.9556 25.4223C13.1971 26.2777 12.2489 26.8704 11.1111 27.2C8.67063 27.7839 6.35952 27.4875 4.17777 26.3111C1.60885 23.8847 0.986627 21.0105 2.31111 17.6889C3.25584 16.0029 4.64842 14.877 6.48889 14.3111ZM7.55555 17.3334C8.91408 17.0848 10.0696 17.4404 11.0222 18.4C11.2015 18.6711 11.2904 18.9675 11.2889 19.2889C9.32974 19.3479 7.37418 19.2887 5.42222 19.1111C5.87841 18.1783 6.58953 17.5857 7.55555 17.3334Z"
        fill="#3800E1" />
</svg>