<svg width="32" height="32" viewBox="0 0 32 32" fill="none" xmlns="http://www.w3.org/2000/svg">
    <g clip-path="url(#clip0_5866_415)">
        <path fill-rule="evenodd" clip-rule="evenodd"
            d="M-0.0722656 -0.0703125C10.5944 -0.0703125 21.2611 -0.0703125 31.9277 -0.0703125C31.9277 10.5963 31.9277 21.2631 31.9277 31.9297C21.2611 31.9297 10.5944 31.9297 -0.0722656 31.9297C-0.0722656 21.2631 -0.0722656 10.5963 -0.0722656 -0.0703125Z"
            fill="#F7F6F8" />
        <path fill-rule="evenodd" clip-rule="evenodd"
            d="M2.25451 0.908147C11.3213 0.884859 20.388 0.908147 29.4545 0.978016C29.8231 1.05016 30.1381 1.21319 30.4 1.4671C30.6414 11.0044 30.6899 20.5532 30.5454 30.1134C30.4312 30.363 30.2616 30.5726 30.0363 30.7422C20.7841 30.9736 11.5235 31.0201 2.25451 30.8819C1.74542 30.7655 1.43027 30.4627 1.30906 29.9737C1.21209 20.6112 1.21209 11.2488 1.30906 1.88631C1.55547 1.487 1.87061 1.16094 2.25451 0.908147Z"
            fill="#5012A7" />
        <path fill-rule="evenodd" clip-rule="evenodd"
            d="M18.2549 7.47551C19.5164 7.45226 20.7771 7.47554 22.0367 7.54538C22.4246 8.15091 22.8124 8.75645 23.2003 9.36197C21.9397 9.45514 20.6792 9.45514 19.4185 9.36197C18.9358 8.78305 18.5478 8.15423 18.2549 7.47551Z"
            fill="#F4F3F7" />
        <path fill-rule="evenodd" clip-rule="evenodd"
            d="M21.7453 16.6982C19.4665 16.8845 17.1878 16.8845 14.909 16.6982C15.2285 16.1548 15.5679 15.6191 15.9271 15.0912C16.7514 15.0447 17.5756 14.998 18.3999 14.9515C17.5817 13.7289 16.7817 12.4945 15.9999 11.2484C13.9501 14.3097 11.938 17.3839 9.96351 20.4711C9.88452 20.4795 9.83604 20.526 9.81806 20.6109C14.6656 20.7506 19.5141 20.7971 24.3635 20.7506C24.766 21.3119 25.1539 21.8942 25.5271 22.4973C19.1271 22.5905 12.7271 22.5905 6.32715 22.4973C9.5514 17.5366 12.7756 12.5759 15.9999 7.61523C17.9183 10.6507 19.8335 13.6783 21.7453 16.6982Z"
            fill="#F8F7F9" />
        <path fill-rule="evenodd" clip-rule="evenodd"
            d="M20.582 11.3885C21.8681 11.2038 23.1772 11.2038 24.5093 11.3885C24.8684 11.9895 25.2564 12.5717 25.6729 13.1353C24.3638 13.2284 23.0548 13.2284 21.7457 13.1353C21.3724 12.5321 20.9845 11.9499 20.582 11.3885Z"
            fill="#F3F2F6" />
        <path fill-rule="evenodd" clip-rule="evenodd"
            d="M14.9091 16.6982C17.188 16.8845 19.4667 16.8845 21.7455 16.6982C21.8245 16.7066 21.8729 16.7532 21.8909 16.838C19.5152 17.0243 17.1394 17.0243 14.7637 16.838C14.7817 16.7532 14.8301 16.7066 14.9091 16.6982Z"
            fill="#C1B5DA" />
        <path fill-rule="evenodd" clip-rule="evenodd"
            d="M9.96381 20.4717C14.7638 20.5649 19.5638 20.658 24.3638 20.7512C19.5144 20.7977 14.6659 20.7512 9.81836 20.6114C9.83634 20.5266 9.88482 20.4801 9.96381 20.4717Z"
            fill="#AFA2D4" />
    </g>
    <defs>
        <clipPath id="clip0_5866_415">
            <rect width="32" height="32" fill="white" />
        </clipPath>
    </defs>
</svg>