<svg width="32" height="32" viewBox="0 0 32 32" fill="none" xmlns="http://www.w3.org/2000/svg">
    <g clip-path="url(#clip0_5696_570)">
        <path fill-rule="evenodd" clip-rule="evenodd"
            d="M14.7644 0.323999C21.7097 0.228557 26.8045 3.20831 30.049 9.26327C32.6333 15.5407 31.766 21.2844 27.4473 26.494C22.4923 31.3595 16.7037 32.6766 10.0815 30.4455C3.80913 27.6482 0.513736 22.8114 0.195312 15.9353C0.495506 9.50275 3.48737 4.7956 9.17092 1.81388C10.9706 1.00979 12.8351 0.513164 14.7644 0.323999Z"
            fill="#F9F9F9" />
        <path fill-rule="evenodd" clip-rule="evenodd"
            d="M7.60986 9.91092C8.99808 9.88935 10.3856 9.91094 11.7725 9.97569C12.9922 11.1471 14.1628 12.3563 15.2847 13.6032C14.7922 14.2237 14.2501 14.8067 13.6586 15.3522C12.6397 14.3374 11.6207 13.3225 10.6017 12.3077C9.60539 12.2429 8.60809 12.2213 7.60986 12.2429C7.60986 11.4656 7.60986 10.6882 7.60986 9.91092Z"
            fill="#0E9147" />
        <path fill-rule="evenodd" clip-rule="evenodd"
            d="M20.0976 9.91113C21.4852 9.91113 22.8727 9.91113 24.2602 9.91113C24.2602 10.6885 24.2602 11.4658 24.2602 12.2431C23.3053 12.2216 22.3514 12.2432 21.3985 12.3079C20.3795 13.3227 19.3605 14.3376 18.3415 15.3524C17.7562 14.7694 17.1708 14.1864 16.5854 13.6034C17.8331 12.4261 19.0038 11.1954 20.0976 9.91113Z"
            fill="#153F66" />
        <path fill-rule="evenodd" clip-rule="evenodd"
            d="M18.2765 16.5181C19.3343 17.5067 20.375 18.5215 21.3985 19.5626C22.3514 19.6274 23.3053 19.6489 24.2602 19.6274C24.2602 20.4047 24.2602 21.182 24.2602 21.9594C22.8701 22.0024 21.4825 21.9592 20.0976 21.8298C18.9505 20.6225 17.7797 19.4349 16.5854 18.2671C17.1756 17.701 17.7393 17.118 18.2765 16.5181Z"
            fill="#06A9EC" />
        <path fill-rule="evenodd" clip-rule="evenodd"
            d="M13.5936 16.5181C14.1527 17.0099 14.6946 17.5281 15.2196 18.0727C15.3064 18.2023 15.3064 18.3318 15.2196 18.4614C14.0706 19.6057 12.9215 20.7502 11.7725 21.8946C10.3856 21.9594 8.99808 21.981 7.60986 21.9594C7.60986 21.182 7.60986 20.4047 7.60986 19.6274C8.60809 19.6489 9.60539 19.6274 10.6017 19.5626C11.6254 18.5648 12.6227 17.55 13.5936 16.5181Z"
            fill="#85C241" />
    </g>
    <defs>
        <clipPath id="clip0_5696_570">
            <rect width="32" height="32" fill="white" />
        </clipPath>
    </defs>
</svg>