<svg width="36" height="36" viewBox="0 0 36 36" fill="none" xmlns="http://www.w3.org/2000/svg">
  <g transform="translate(0 0.5)" fill="#211C20">
    <path fill-rule="evenodd" clip-rule="evenodd" d="M14.6952 0.770996C13.2617 0.770996 12.0996 1.93306 12.0996 3.36655L12.0996 31.6338C12.0996 33.0672 13.2617 34.2293 14.6952 34.2293H33.4042C34.8377 34.2293 35.9998 33.0672 35.9998 31.6338V7.65981C35.9998 6.99052 35.7412 6.3471 35.2781 5.86389L31.1636 1.57062C30.674 1.05982 29.9972 0.770996 29.2896 0.770996L14.6952 0.770996ZM31.3867 18.4874C31.3867 17.18 30.3268 16.1201 29.0194 16.1201H19.5492C18.2418 16.1201 17.1819 17.18 17.1819 18.4874C17.1819 19.7949 18.2418 20.8548 19.5492 20.8548H29.0194C30.3268 20.8548 31.3867 19.7949 31.3867 18.4874ZM29.0194 9.22586C30.3268 9.22586 31.3867 10.2858 31.3867 11.5932C31.3867 12.9006 30.3268 13.9605 29.0194 13.9605L19.5492 13.9605C18.2418 13.9605 17.1819 12.9006 17.1819 11.5932C17.1819 10.2858 18.2418 9.22586 19.5492 9.22586L29.0194 9.22586ZM22.9448 25.718C22.9448 24.2266 21.7356 23.0176 20.2442 23.0176C18.7528 23.0176 17.5436 24.2266 17.5436 25.718C17.5436 27.2095 18.7528 28.4185 20.2442 28.4185C21.7356 28.4185 22.9448 27.2095 22.9448 25.718Z"/>
    <path d="M0.000488045 24.7762C0.000488061 25.3424 0.00048807 25.6256 0.058834 25.9005C0.11718 26.1754 0.232177 26.4342 0.46217 26.9516L1.26281 28.7529C2.06941 30.5677 2.4727 31.475 3.1403 31.475C3.80789 31.475 4.21119 30.5677 5.01779 28.7529L5.81843 26.9516C6.04842 26.4342 6.16342 26.1754 6.22176 25.9005C6.28011 25.6256 6.28011 25.3424 6.28011 24.7762L6.28011 5.5055C6.28011 5.07659 6.28011 4.86213 6.25559 4.68219C6.09316 3.49009 5.1557 2.55263 3.9636 2.3902C3.78366 2.36568 3.5692 2.36568 3.1403 2.36568C2.71139 2.36568 2.49694 2.36568 2.317 2.3902C1.1249 2.55263 0.187432 3.49009 0.0250053 4.68219C0.000487472 4.86213 0.000487478 5.07659 0.00048749 5.50549L0.000488045 24.7762Z"/>
  </g>
</svg>
