<svg width="32" height="32" viewBox="0 0 32 32" fill="none" xmlns="http://www.w3.org/2000/svg">
    <path fill-rule="evenodd" clip-rule="evenodd"
        d="M0 4.36359C0 1.95362 1.9537 0 4.36362 0H11.6363C12.1482 0 12.6394 0.0881166 13.0956 0.249972C15.2898 1.02841 17.3082 2.9091 19.6363 2.9091C21.9644 2.9091 23.9829 1.02841 26.177 0.249972C26.6333 0.0881166 27.1245 0 27.6363 0C30.0463 0 32 1.95362 32 4.36359C32 6.77357 30.0463 8.7273 27.6363 8.7273C27.1245 8.7273 26.6333 8.63919 26.177 8.47733C23.9829 7.6989 21.9644 5.8182 19.6363 5.8182C17.3082 5.8182 15.2898 7.6989 13.0956 8.47733C12.6394 8.63919 12.1482 8.7273 11.6363 8.7273H4.36362C1.9537 8.7273 0 6.77357 0 4.36359ZM0 16C0 13.59 1.9537 11.6364 4.36362 11.6364C5.00407 11.6364 5.61228 11.7744 6.16021 12.0221C8.08283 12.8918 9.88978 14.5455 12 14.5455C14.1101 14.5455 15.9172 12.8918 17.8398 12.0221C18.3876 11.7744 18.9958 11.6364 19.6363 11.6364C22.0463 11.6364 23.9999 13.59 23.9999 16C23.9999 18.41 22.0463 20.3636 19.6363 20.3636C18.9958 20.3636 18.3876 20.2256 17.8398 19.9779C15.9172 19.1082 14.1101 17.4545 12 17.4545C9.88978 17.4545 8.08283 19.1082 6.16021 19.9779C5.61228 20.2256 5.00407 20.3636 4.36362 20.3636C1.9537 20.3636 0 18.41 0 16ZM4.36362 23.2727C1.9537 23.2727 0 25.2264 0 27.6364C0 30.0464 1.9537 32 4.36362 32C6.77366 32 8.72724 30.0464 8.72724 27.6364C8.72724 25.2264 6.77366 23.2727 4.36362 23.2727Z"
        fill="#0083FC" />
</svg>