<svg width="32" height="32" viewBox="0 0 32 32" fill="none" xmlns="http://www.w3.org/2000/svg">
    <g clip-path="url(#clip0_5722_404)">
        <path fill-rule="evenodd" clip-rule="evenodd"
            d="M-0.0361328 -0.0361328C10.6306 -0.0361328 21.2972 -0.0361328 31.9639 -0.0361328C31.9639 10.6064 31.9639 21.2491 31.9639 31.8916C31.9157 31.8916 31.8916 31.9157 31.8916 31.9639C21.2731 31.9639 10.6546 31.9639 0.036102 31.9639C0.036102 31.9157 0.0120237 31.8916 -0.0361328 31.8916C-0.0361328 21.2491 -0.0361328 10.6064 -0.0361328 -0.0361328Z"
            fill="#3883ED" />
        <path fill-rule="evenodd" clip-rule="evenodd"
            d="M5.74219 7.25969C9.29354 7.18753 12.8571 7.16345 16.4329 7.18745C16.4568 8.45214 16.4327 9.70418 16.3607 10.9437C16.3607 9.71567 16.3607 8.48768 16.3607 7.25969C12.8212 7.25969 9.28169 7.25969 5.74219 7.25969Z"
            fill="#CFDEF8" />
        <path fill-rule="evenodd" clip-rule="evenodd"
            d="M5.74219 7.25952C9.28169 7.25952 12.8212 7.25952 16.3607 7.25952C16.3607 8.48751 16.3607 9.7155 16.3607 10.9435C14.2659 10.9435 12.1711 10.9435 10.0763 10.9435C10.0763 12.003 10.0763 13.0624 10.0763 14.1218C11.8821 14.1218 13.688 14.1218 15.4939 14.1218C15.4939 15.3739 15.4939 16.626 15.4939 17.878C13.688 17.878 11.8821 17.878 10.0763 17.878C10.0763 19.9247 10.0763 21.9714 10.0763 24.018C8.63158 24.018 7.18688 24.018 5.74219 24.018C5.74219 18.4319 5.74219 12.8457 5.74219 7.25952Z"
            fill="#F9F9FA" />
        <path fill-rule="evenodd" clip-rule="evenodd"
            d="M22.3566 10.7992C23.8696 10.6037 25.2661 10.9047 26.5463 11.7021C26.7734 11.845 26.9661 12.0256 27.1241 12.2439C26.5121 13.1328 25.8861 14.0116 25.246 14.8805C25.1738 14.9287 25.1016 14.9287 25.0293 14.8805C24.0694 14.1656 23.1063 14.1656 22.1399 14.8805C21.6384 15.3657 21.3375 15.9557 21.237 16.6502C21.0215 17.8875 21.2623 19.0192 21.9593 20.0453C22.6709 20.7638 23.5016 20.9444 24.4514 20.587C24.8448 20.3803 25.23 20.1876 25.6072 20.0091C26.1753 20.9025 26.7291 21.8055 27.2686 22.7179C26.3046 23.5849 25.1729 24.1026 23.8736 24.271C21.0246 24.5862 18.8937 23.5148 17.4808 21.0565C16.564 18.964 16.4917 16.8451 17.2641 14.6999C18.2835 12.5125 19.981 11.2123 22.3566 10.7992Z"
            fill="#F9F9F9" />
    </g>
    <defs>
        <clipPath id="clip0_5722_404">
            <rect width="32" height="32" fill="white" />
        </clipPath>
    </defs>
</svg>