<svg width="32" height="32" viewBox="0 0 32 32" fill="none" xmlns="http://www.w3.org/2000/svg">
    <path fill-rule="evenodd" clip-rule="evenodd"
        d="M2.16216 0C11.2432 0 20.3243 0 29.4054 0C30.5135 0.901197 31.3064 2.03898 31.7838 3.41333C32.0721 11.8045 32.0721 20.1955 31.7838 28.5867C31.3064 29.961 30.5135 31.0988 29.4054 32C20.3243 32 11.2432 32 2.16216 32C1.44144 31.2889 0.720722 30.5778 0 29.8667C0 20.6222 0 11.3778 0 2.13333C0.720722 1.42222 1.44144 0.711113 2.16216 0ZM4.32432 5.97333C11.9653 5.90225 19.605 5.97338 27.2432 6.18667C27.9523 7.37101 27.664 8.22434 26.3784 8.74667C19.3153 9.03113 12.2522 9.03113 5.18919 8.74667C3.86654 8.15083 3.57825 7.22637 4.32432 5.97333ZM6.48648 11.9467C12.6864 11.8756 18.8845 11.9467 25.0811 12.16C25.7901 13.3443 25.5018 14.1977 24.2162 14.72C18.5946 15.0045 12.973 15.0045 7.35135 14.72C6.02871 14.1242 5.74041 13.1997 6.48648 11.9467ZM8.21621 17.4933C13.2633 17.4223 18.3084 17.4934 23.3513 17.7067C24.0137 18.7008 23.8695 19.5541 22.9189 20.2667C18.1622 20.5511 13.4054 20.5511 8.64865 20.2667C7.10664 19.5351 6.96251 18.6106 8.21621 17.4933ZM12.1081 23.04C14.4189 22.9692 16.7252 23.0403 19.027 23.2533C19.8327 23.8583 20.0489 24.6405 19.6757 25.6C17.189 26.0867 14.6665 26.1577 12.1081 25.8133C11.5598 24.8904 11.5598 23.966 12.1081 23.04Z"
        fill="#959CA1" />
</svg>