<svg width="32" height="32" viewBox="0 0 32 32" fill="none" xmlns="http://www.w3.org/2000/svg">
    <path fill-rule="evenodd" clip-rule="evenodd"
        d="M17.2332 0C17.59 0 17.9467 0 18.3035 0C20.7531 0.347555 22.7601 1.62215 24.3244 3.82377C26.5171 7.08692 27.5786 10.7976 27.5088 14.9559C27.5359 19.0983 26.5636 22.8912 24.592 26.3347C23.8401 27.5508 22.957 28.6301 21.9428 29.5725C23.8513 30.3096 25.7423 30.2479 27.6159 29.3875C28.9044 28.6836 29.9213 27.6352 30.6665 26.2422C31.227 25.8615 31.664 25.9951 31.9777 26.643C32.02 26.916 32.0021 27.1832 31.9241 27.4448C30.5184 29.978 28.5114 31.4479 25.9032 31.8545C23.9035 32.1244 21.9857 31.7852 20.1499 30.8368C18.2914 31.9396 16.338 32.2582 14.2896 31.7928C13.5224 31.5563 12.791 31.2171 12.0953 30.7752C10.677 31.7784 9.14272 32.1382 7.49268 31.8545C6.90948 31.7584 6.33864 31.6042 5.78006 31.3919C4.28315 32.1142 2.78461 32.1245 1.28446 31.4227C0.799367 31.1516 0.415812 30.7507 0.133798 30.2201C0.0092664 29.3569 0.321461 28.9354 1.07038 28.9558C1.3142 29.0449 1.51044 29.2093 1.65909 29.4492C2.30247 29.9635 3.01605 30.169 3.79986 30.0659C1.5252 27.65 0.258577 24.6588 0 21.0924C0 20.7635 0 20.4345 0 20.1056C0.0769367 18.3144 0.683487 16.8034 1.81965 15.5726C2.49073 14.9721 3.24892 14.6123 4.09421 14.4933C4.25417 11.2524 5.58322 8.91912 8.08139 7.49335C8.83611 7.14261 9.62108 6.95759 10.4362 6.93829C11.2219 4.01853 12.8096 1.90107 15.1994 0.5859C15.8631 0.291899 16.541 0.0965995 17.2332 0ZM17.5543 1.85021C19.084 1.88613 20.4576 2.43092 21.6752 3.48456C23.483 5.25396 24.705 7.46393 25.3413 10.1145C26.4486 15.162 25.8955 19.952 23.6822 24.4845C22.7946 26.2063 21.6172 27.6042 20.1499 28.6783C18.928 27.8698 17.8576 26.8419 16.9388 25.5946C16.689 25.2245 16.4393 24.8545 16.1895 24.4845C16.4704 23.4364 16.7024 22.3674 16.8853 21.2774C17.3281 18.56 17.2389 15.8669 16.6177 13.1982C15.9171 10.3765 14.3918 8.41328 12.0418 7.30833C12.6795 5.07284 13.9104 3.42821 15.7346 2.37444C16.3273 2.1009 16.9338 1.92616 17.5543 1.85021ZM9.63344 8.88101C9.79785 8.86146 9.95841 8.882 10.1151 8.94268C9.92014 10.8315 10.0182 12.7023 10.4095 14.555C11.2176 18.1743 12.511 21.5355 14.2896 24.6386C13.7828 25.859 13.1495 26.9795 12.3897 27.9999C12.2622 28.1675 12.1195 28.3115 11.9615 28.4316C11.0216 27.7244 10.2009 26.8609 9.49964 25.8413C9.61573 25.1301 9.70494 24.4106 9.76724 23.6827C9.95932 21.0308 9.37061 18.6462 8.00111 16.5285C7.36792 15.7062 6.60977 15.0895 5.72654 14.6783C5.80602 12.4212 6.66233 10.684 8.29546 9.46691C8.72945 9.21485 9.17542 9.01959 9.63344 8.88101ZM11.6672 9.25105C12.4731 9.57175 13.1599 10.1063 13.7277 10.8546C14.7175 12.3429 15.2884 14.0286 15.4403 15.9118C15.6648 18.1137 15.5042 20.2723 14.9586 22.3875C13.6197 19.7331 12.6207 16.9167 11.9615 13.9383C11.66 12.3924 11.5619 10.83 11.6672 9.25105ZM3.96041 16.4052C4.04839 16.392 4.12867 16.4126 4.20125 16.4669C4.66273 20.0372 5.81341 23.275 7.65323 26.1805C7.1783 27.3684 6.52719 28.4066 5.69979 29.295C4.04211 28.0209 2.88252 26.294 2.22104 24.1144C1.7579 22.7007 1.5795 21.2411 1.68585 19.7356C1.80371 18.4034 2.34782 17.3857 3.31818 16.6827C3.53607 16.5822 3.75014 16.4897 3.96041 16.4052ZM5.8871 16.8986C6.72837 17.5808 7.32602 18.4853 7.67999 19.6122C8.09353 20.8918 8.23622 22.2075 8.10815 23.5593C7.02396 21.4922 6.28363 19.2719 5.8871 16.8986ZM15.3065 26.3963C15.4251 26.4397 15.5232 26.5219 15.6008 26.643C16.4008 27.7913 17.3196 28.7883 18.3571 29.6342C16.7298 30.3814 15.1242 30.3299 13.5403 29.48C13.4857 29.4491 13.4768 29.408 13.5136 29.3567C14.2309 28.4633 14.8285 27.4765 15.3065 26.3963ZM8.77713 27.8148C9.30713 28.4565 9.87802 29.0424 10.4897 29.5725C9.78222 29.974 9.03296 30.1385 8.24194 30.0659C7.98548 30.0525 7.73571 30.0012 7.49268 29.9117C7.98462 29.2629 8.41278 28.564 8.77713 27.8148Z"
        fill="#EC3E69" />
</svg>