<svg width="32" height="32" viewBox="0 0 32 32" fill="none" xmlns="http://www.w3.org/2000/svg">
    <path fill-rule="evenodd" clip-rule="evenodd"
        d="M18.509 0C19.1641 0 19.8193 0 20.4745 0C21.9473 0.301407 23.1621 0.984853 24.119 2.05034C24.3919 2.39207 24.665 2.73379 24.9379 3.07551C25.1943 2.90148 25.4809 2.81604 25.7979 2.81922C27.9527 4.82226 28.485 7.1289 27.3949 9.73913C27.2043 10.1291 26.9723 10.4952 26.6988 10.8375C28.804 12.3306 30.1417 14.2589 30.7118 16.6224C31.1172 16.7229 31.5131 16.845 31.8993 16.9886C32.3736 21.1036 31.1724 24.7649 28.2958 27.9725C26.2699 29.9218 23.8266 31.2642 20.9659 32C20.9113 32 20.8567 32 20.8021 32C15.1619 30.4838 11.6267 27.1643 10.1963 22.0412C9.77134 20.3474 9.63481 18.6388 9.78681 16.9153C10.1417 16.7933 10.4966 16.6713 10.8515 16.5492C11.1423 14.9191 11.8657 13.4667 13.0218 12.1922C11.8349 12.5778 10.6064 12.8463 9.33637 12.9977C6.17876 13.302 3.57168 12.3867 1.51511 10.2517C0.68721 9.21175 0.182172 8.06451 0 6.81007C0 6.22426 0 5.63844 0 5.05263C0.194213 3.7993 0.603703 2.60326 1.22847 1.46453C1.85173 2.49228 2.64341 3.40761 3.60351 4.21053C4.44393 4.79979 5.38576 5.20254 6.429 5.41876C6.30616 5.014 6.19696 4.59905 6.1014 4.17391C6.05801 3.39207 6.07166 2.61099 6.14235 1.83066C6.93867 2.1372 7.75765 2.39349 8.59929 2.59954C10.1795 2.85706 11.7082 2.7106 13.1856 2.16018C14.1966 1.61043 15.234 1.09785 16.2977 0.622426C17.0266 0.360257 17.7637 0.152782 18.509 0Z"
        fill="#F7F7F8" />
    <path fill-rule="evenodd" clip-rule="evenodd"
        d="M7.12493 3.95428C7.09931 3.69492 7.12662 3.45083 7.20683 3.22202C9.33306 3.85372 11.4351 3.79269 13.513 3.03895C14.5504 2.52636 15.5877 2.01378 16.6251 1.50119C19.2455 0.33919 21.4977 0.741936 23.3817 2.70943C23.8048 3.22163 24.187 3.75863 24.5283 4.32041C24.8286 4.17396 25.1288 4.02751 25.4291 3.88105C27.1099 5.67357 27.3829 7.6263 26.2481 9.73918C25.9113 10.2113 25.5427 10.6629 25.1425 11.0939C27.7705 12.5329 29.3266 14.6199 29.8107 17.3547C30.1891 17.4676 30.5714 17.5652 30.9573 17.6476C31.1643 20.9112 30.2497 23.889 28.2137 26.5813C26.3105 28.8055 23.84 30.27 20.8019 30.9749C17.351 30.0983 14.6893 28.292 12.8168 25.5561C11.3085 23.0661 10.6397 20.4056 10.8103 17.5744C11.1564 17.4469 11.5113 17.3492 11.875 17.2815C12.0255 14.8268 13.2267 12.9107 15.4785 11.5332C16.1507 11.2027 16.8605 10.9586 17.6079 10.801C16.1414 10.6009 14.6945 10.6985 13.2673 11.0939C11.9432 11.5728 10.5782 11.9146 9.17238 12.119C6.22952 12.371 3.86813 11.4557 2.0882 9.37304C1.17662 7.9411 0.849026 6.40335 1.10542 4.75977C1.17099 4.33426 1.28019 3.91932 1.43302 3.51492C2.68429 5.02 4.3359 5.95974 6.38785 6.33414C6.87923 6.38296 7.37062 6.38296 7.86201 6.33414C8.12405 6.32671 8.36978 6.2779 8.59909 6.18769C7.73853 5.63728 7.24714 4.89281 7.12493 3.95428Z"
        fill="#1B2057" />
    <path fill-rule="evenodd" clip-rule="evenodd"
        d="M16.5434 4.83276C17.2617 4.13361 18.1626 3.77969 19.246 3.77098C18.4826 3.20979 17.6091 3.01451 16.6253 3.18517C16.1835 3.25683 15.7467 3.34226 15.3149 3.44146C19.6692 0.76875 22.4947 1.7207 23.7914 6.2973C23.9784 7.31578 23.7873 8.26775 23.2181 9.15313C22.5651 5.76767 20.3402 4.32755 16.5434 4.83276Z"
        fill="#E01C34" />
    <path fill-rule="evenodd" clip-rule="evenodd"
        d="M16.5436 4.83278C20.4628 5.56833 21.5684 7.56984 19.8604 10.8374C19.8017 10.7975 19.7608 10.7487 19.7376 10.6909C19.8225 9.48698 19.3311 8.49842 18.2634 7.72522C17.2842 7.27451 16.2468 7.12805 15.1513 7.28587C14.365 7.41284 13.6006 7.60806 12.8582 7.87168C11.5344 8.51841 10.1421 9.00662 8.68135 9.33621C7.24541 9.61374 5.82585 9.56489 4.42265 9.18976C3.6252 8.90344 3.02461 8.42747 2.6209 7.76184C2.62891 7.6115 2.57432 7.48943 2.4571 7.3957C2.27027 6.87276 2.20201 6.33577 2.25236 5.78472C3.9506 6.96617 5.87521 7.51536 8.02617 7.43232C9.19248 7.31353 10.2026 6.89858 11.0564 6.18747C10.0504 5.93525 9.23138 5.43487 8.59945 4.68632C10.982 4.90074 13.2206 4.48579 15.3151 3.44147C15.7469 3.34227 16.1836 3.25685 16.6255 3.18518C17.6092 3.01452 18.4827 3.2098 19.2462 3.77099C18.1628 3.7797 17.2619 4.13362 16.5436 4.83278Z"
        fill="#F8F7F8" />
    <path fill-rule="evenodd" clip-rule="evenodd"
        d="M7.20714 3.22215C7.12693 3.45097 7.09963 3.69506 7.12525 3.95442C7.01815 3.69676 7.01815 3.42826 7.12525 3.14893C7.17493 3.15798 7.20223 3.18238 7.20714 3.22215Z"
        fill="#888DA9" />
    <path fill-rule="evenodd" clip-rule="evenodd"
        d="M19.7373 10.691C19.2552 9.98139 18.5454 9.57865 17.6079 9.48279C16.6501 9.42919 15.6946 9.45358 14.7415 9.55602C13.4411 9.81619 12.1581 10.1335 10.8923 10.508C9.54951 10.835 8.18458 10.9571 6.7974 10.8741C5.13587 10.5102 3.83915 9.69244 2.90725 8.42101C2.76466 8.21532 2.66911 7.99564 2.62061 7.76197C3.02432 8.4276 3.6249 8.90357 4.42236 9.18989C5.82555 9.56503 7.24512 9.61387 8.68106 9.33634C10.1418 9.00675 11.5341 8.51855 12.8579 7.87181C13.6003 7.60819 14.3647 7.41297 15.151 7.286C16.2465 7.12819 17.2839 7.27464 18.2631 7.72536C19.3308 8.49856 19.8222 9.48711 19.7373 10.691Z"
        fill="#E01C34" />
    <path fill-rule="evenodd" clip-rule="evenodd"
        d="M2.45682 7.396C2.57405 7.48973 2.62864 7.61179 2.62062 7.76213C2.5034 7.6684 2.44881 7.54633 2.45682 7.396Z"
        fill="#CA5E76" />
    <path fill-rule="evenodd" clip-rule="evenodd"
        d="M19.0006 11.7163C17.4734 12.2949 16.3404 13.2469 15.6018 14.5721C15.447 14.976 15.3787 15.3909 15.3971 15.817C14.713 15.8765 14.0305 15.8765 13.3496 15.817C14.0963 13.5015 15.7889 12.1223 18.4273 11.6797C18.6352 11.6214 18.8263 11.6336 19.0006 11.7163Z"
        fill="#F7F5F6" />
    <path fill-rule="evenodd" clip-rule="evenodd"
        d="M19.0005 11.7163C18.2702 12.9768 17.9426 14.3192 18.0177 15.7438C17.1446 15.779 16.271 15.8034 15.397 15.817C15.3786 15.3909 15.4469 14.976 15.6017 14.5721C16.3403 13.2469 17.4733 12.2949 19.0005 11.7163Z"
        fill="#E01C34" />
    <path fill-rule="evenodd" clip-rule="evenodd"
        d="M20.8022 15.7437C20.8294 20.4669 20.8021 25.1778 20.7203 29.8764C16.6054 28.7723 13.9163 26.3802 12.6533 22.7002C12.1566 21.3003 11.9519 19.8724 12.0391 18.4164C14.9664 17.5318 17.8874 16.6409 20.8022 15.7437Z"
        fill="#E01338" />
    <path fill-rule="evenodd" clip-rule="evenodd"
        d="M20.8021 15.7437C20.9112 20.4668 20.9112 25.2022 20.8021 29.9496C20.7524 29.9405 20.7251 29.9161 20.7202 29.8764C20.802 25.1778 20.8293 20.4669 20.8021 15.7437Z"
        fill="#373163" />
    <path fill-rule="evenodd" clip-rule="evenodd"
        d="M14.9055 21.1626C14.824 22.1504 14.7967 23.1511 14.8236 24.1649C14.715 23.1515 14.715 22.1263 14.8236 21.0894C14.8733 21.0984 14.9006 21.1228 14.9055 21.1626Z"
        fill="#7D1944" />
    <path fill-rule="evenodd" clip-rule="evenodd"
        d="M14.9054 21.1626C15.2562 21.3415 15.5975 21.5368 15.9291 21.7484C15.9838 23.0176 15.9838 24.287 15.9291 25.5562C15.5108 25.1216 15.1423 24.6578 14.8235 24.1649C14.7966 23.1511 14.8238 22.1504 14.9054 21.1626Z"
        fill="#1F1F56" />
    <path fill-rule="evenodd" clip-rule="evenodd"
        d="M26.6987 21.0894C26.7938 22.1019 26.8074 23.127 26.7396 24.1649C26.4454 24.6668 26.0906 25.1305 25.675 25.5562C25.6067 24.2618 25.6204 22.9681 25.7159 21.6752C26.0771 21.5145 26.4047 21.3192 26.6987 21.0894Z"
        fill="#DF1932" />
    <path fill-rule="evenodd" clip-rule="evenodd"
        d="M18.4272 22.6269C18.4543 24.2993 18.427 25.9591 18.3453 27.6063C17.9665 27.3534 17.5979 27.0848 17.2397 26.8008C17.1851 25.2874 17.1851 23.7741 17.2397 22.2607C17.6156 22.4338 18.0114 22.5558 18.4272 22.6269Z"
        fill="#1A1F56" />
    <path fill-rule="evenodd" clip-rule="evenodd"
        d="M24.3239 22.2607C24.4192 23.7616 24.4328 25.275 24.3649 26.8008C23.9791 27.1215 23.5696 27.4144 23.1364 27.6795C23.0955 25.9954 23.0818 24.3112 23.0955 22.6269C23.5282 22.5467 23.9377 22.4247 24.3239 22.2607Z"
        fill="#DB1933" />
    <path fill-rule="evenodd" clip-rule="evenodd"
        d="M18.4271 22.627C18.536 24.2992 18.536 25.9834 18.4271 27.6796C18.3774 27.6705 18.3501 27.6461 18.3452 27.6064C18.4269 25.9592 18.4542 24.2994 18.4271 22.627Z"
        fill="#A8183E" />
</svg>