<svg width="32" height="32" viewBox="0 0 32 32" fill="none" xmlns="http://www.w3.org/2000/svg">
    <path
        d="M31.9999 11.1962C32.0011 9.0234 31.4591 6.89821 30.4414 5.08556C29.4237 3.27291 27.9754 1.85297 26.277 1.00274C24.5785 0.152501 22.705 -0.0904158 20.8902 0.304247C19.0752 0.69891 17.3991 1.7137 16.0707 3.22214C15.1615 4.25406 14.4383 5.49117 13.9443 6.85955C13.4503 8.22793 13.1958 9.69951 13.1958 11.1864C13.1958 12.6731 13.4503 14.1448 13.9443 15.5131C14.4383 16.8815 15.1615 18.1186 16.0707 19.1506L22.5028 26.8942L28.6552 19.651C29.7026 18.614 30.5447 17.3199 31.1224 15.8594C31.7002 14.399 31.9997 12.8073 31.9999 11.1962Z"
        fill="#84E9FD" />
    <path
        d="M25.7418 14.9238L15.7917 3.18978C14.0569 1.1474 11.704 0 9.25059 0C6.79717 0 4.44424 1.1474 2.70942 3.18978C0.974611 5.23216 0 8.00223 0 10.8906C0 13.779 0.974611 16.549 2.70942 18.5914L12.6596 30.3056C13.1156 30.8427 13.6571 31.2689 14.2531 31.5596C14.849 31.8503 15.4878 32 16.1329 32C16.778 32 17.4168 31.8503 18.0127 31.5596C18.6087 31.2689 19.1502 30.8427 19.6062 30.3056L25.7251 23.1085C26.6491 22.0257 27.17 20.5551 27.1731 19.0202C27.1763 17.4853 26.6614 16.0118 25.7418 14.9238ZM6.97137 10.5647C6.60497 10.5659 6.2465 10.4392 5.94132 10.2005C5.63613 9.96186 5.39797 9.62191 5.257 9.22373C5.11602 8.82564 5.07855 8.38717 5.14935 7.96394C5.22015 7.54073 5.39603 7.15176 5.65473 6.84629C5.91341 6.54082 6.24327 6.33257 6.60255 6.24794C6.96182 6.16331 7.33435 6.20609 7.67293 6.37085C8.01158 6.53562 8.30102 6.81498 8.50469 7.17354C8.70835 7.53211 8.81712 7.95376 8.81712 8.38511C8.81712 8.96204 8.62279 9.51538 8.27681 9.92391C7.93083 10.3325 7.46144 10.5629 6.97137 10.5647Z"
        fill="#B8AFFC" />
    <path
        d="M15.9647 3.41309C15.0819 4.45076 14.3839 5.68531 13.9114 7.04449C13.4388 8.40366 13.2013 9.86013 13.2128 11.3287C13.2242 12.7972 13.4844 14.2483 13.978 15.5971C14.4717 16.9458 15.1889 18.165 16.0877 19.1835L22.5309 26.927L25.8868 22.9762C26.3238 22.463 26.6705 21.8534 26.9071 21.1823C27.1437 20.5111 27.2654 19.7916 27.2654 19.0649C27.2654 18.3383 27.1437 17.6188 26.9071 16.9476C26.6705 16.2764 26.3238 15.6668 25.8868 15.1536L15.9647 3.41309Z"
        fill="#696DF2" />
</svg>