<svg width="32" height="32" viewBox="0 0 32 32" fill="none" xmlns="http://www.w3.org/2000/svg">
    <path fill-rule="evenodd" clip-rule="evenodd"
        d="M2.31325 7.71094C3.72691 7.71094 5.14055 7.71094 6.55422 7.71094C11.3448 9.41928 14.4291 12.7607 15.8072 17.735C16.5797 15.5495 17.6721 13.4933 19.0843 11.5664C20.8193 9.83453 22.8112 8.54939 25.0602 7.71094C26.6024 7.71094 28.1446 7.71094 29.6867 7.71094C30.2008 8.26361 30.7791 8.77767 31.4217 9.25311C31.7013 9.89213 31.5085 10.2777 30.8434 10.4097C31.4746 10.9782 31.8602 11.685 32 12.5302C30.7234 15.0468 28.7956 16.9746 26.2169 18.3133C24.9135 18.8295 23.6284 19.3436 22.3614 19.8555C23.7744 20.4327 25.0596 21.2038 26.2169 22.1688C25.94 22.935 25.5545 23.6418 25.0602 24.2893C22.9718 22.9557 20.8514 21.6705 18.6988 20.4338C17.0536 21.4387 15.3829 21.4387 13.6867 20.4338C11.6305 21.719 9.57428 23.0041 7.51807 24.2893C7.05037 23.6607 6.7291 22.9539 6.55422 22.1688C7.63801 21.0897 8.92314 20.3186 10.4096 19.8555C6.22762 19.0513 2.75774 17.0593 0 13.8796C0 12.98 0 12.0804 0 11.1808C0.385542 11.0523 0.642572 10.7953 0.771084 10.4097C0.514056 10.4097 0.257028 10.4097 0 10.4097C0 10.1527 0 9.89568 0 9.63865C0.780657 8.98463 1.55174 8.34205 2.31325 7.71094ZM0.771084 10.4097C3.32744 9.81629 5.76921 10.2661 8.09639 11.7591C10.4096 13.5583 12.4659 15.6146 14.2651 17.9278C13.9852 18.4666 13.5354 18.7879 12.9157 18.8917C9.55177 18.3019 6.59593 16.8882 4.04819 14.6507C3.12685 13.0445 2.03448 11.6309 0.771084 10.4097ZM30.8434 10.4097C28.3082 14.9038 24.4528 17.7311 19.2771 18.8917C18.706 18.5137 18.1919 18.0639 17.7349 17.5423C20.1207 13.7804 23.4621 11.3386 27.759 10.217C28.8644 9.90825 29.8925 9.9725 30.8434 10.4097Z"
        fill="#381EC8" />
</svg>