<svg width="32" height="32" viewBox="0 0 32 32" fill="none" xmlns="http://www.w3.org/2000/svg">
    <g clip-path="url(#clip0_5598_1090)">
        <path fill-rule="evenodd" clip-rule="evenodd"
            d="M-0.0710449 -0.0712891C10.5956 -0.0712891 21.2623 -0.0712891 31.929 -0.0712891C31.929 10.5954 31.929 21.262 31.929 31.9287C21.2623 31.9287 10.5956 31.9287 -0.0710449 31.9287C-0.0710449 21.262 -0.0710449 10.5954 -0.0710449 -0.0712891Z"
            fill="#0157FA" />
        <path fill-rule="evenodd" clip-rule="evenodd"
            d="M20.1243 25.2446C20.0471 25.2361 19.9998 25.1887 19.9821 25.1024C20.3299 24.3604 20.3535 23.6018 20.0532 22.8268C19.1895 21.2993 18.0281 20.043 16.5688 19.0579C15.8258 18.5685 15.0673 18.1181 14.2932 17.7068C11.9741 16.4048 9.65119 15.1012 7.32435 13.7957C6.25627 12.8903 6.20887 11.9421 7.18212 10.9513C12.1791 9.4913 17.2042 8.11648 22.2577 6.82681C22.9605 6.63795 23.6717 6.59055 24.391 6.68459C25.3024 7.15716 25.6106 7.89198 25.3155 8.88903C23.9112 14.0617 22.4889 19.229 21.0488 24.3913C20.8518 24.8017 20.5438 25.0862 20.1243 25.2446Z"
            fill="#F8F8FA" />
        <path fill-rule="evenodd" clip-rule="evenodd"
            d="M14.2932 17.707C15.0673 18.1183 15.8258 18.5688 16.5688 19.0581C18.0281 20.0432 19.1895 21.2996 20.0532 22.827C20.3534 23.602 20.3298 24.3606 19.9821 25.1026C19.9997 25.1889 20.0471 25.2363 20.1243 25.2448C19.2721 25.5685 18.5848 25.3314 18.0621 24.5337C16.8303 22.2377 15.5741 19.9621 14.2932 17.707Z"
            fill="#DFE5ED" />
        <path fill-rule="evenodd" clip-rule="evenodd"
            d="M8.88894 18.418C10.2646 18.3944 11.6394 18.418 13.0134 18.4891C13.1319 18.6076 13.2504 18.7262 13.3689 18.8447C13.4638 20.1721 13.4638 21.4996 13.3689 22.8269C13.2504 22.9454 13.1319 23.064 13.0134 23.1825C11.6386 23.2773 10.2638 23.2773 8.88894 23.1825C8.81783 23.1114 8.74672 23.0403 8.67561 22.9691C8.58079 21.5469 8.58079 20.1247 8.67561 18.7025C8.77761 18.6251 8.84872 18.5302 8.88894 18.418Z"
            fill="#F5F7FA" />
    </g>
    <defs>
        <clipPath id="clip0_5598_1090">
            <rect width="32" height="32" fill="white" />
        </clipPath>
    </defs>
</svg>