<svg width="32" height="32" viewBox="0 0 32 32" fill="none" xmlns="http://www.w3.org/2000/svg">
    <g clip-path="url(#clip0_5720_365)">
        <path fill-rule="evenodd" clip-rule="evenodd"
            d="M-0.105469 -0.105225C4.59628 -0.105225 9.29805 -0.105225 13.9998 -0.105225C9.90024 1.64192 6.14586 3.95772 2.73664 6.84214C2.44862 7.15648 2.41352 7.47227 2.63137 7.78951C3.19278 7.92987 3.75417 7.92987 4.31558 7.78951C7.19912 5.57515 10.2868 3.68042 13.5787 2.1053C15.1392 1.67912 16.6831 1.7493 18.2103 2.31583C21.0568 3.76206 23.7937 5.3761 26.4208 7.15793C27.5364 8.23132 28.2383 9.52958 28.5261 11.0527C28.6722 12.1695 28.7425 13.2923 28.7366 14.4211C28.7366 14.9123 28.7366 15.4036 28.7366 15.8948C28.7366 16.5264 28.7366 17.1579 28.7366 17.7895C28.7059 18.6356 28.6358 19.4777 28.5261 20.3158C28.5261 20.5965 28.5261 20.8772 28.5261 21.1579C28.1204 22.4956 27.4187 23.6535 26.4208 24.6316C23.5316 26.7087 20.4439 28.463 17.1577 29.8948C15.9465 30.0739 14.7535 30.0036 13.5787 29.6842C10.2799 28.1064 7.19224 26.2116 4.31558 24C3.75417 23.8596 3.19278 23.8596 2.63137 24C2.41352 24.3173 2.44862 24.6331 2.73664 24.9474C4.74327 26.8106 6.95379 28.3895 9.36822 29.6842C10.9078 30.4897 12.4517 31.2266 13.9998 31.8948C9.29805 31.8948 4.59628 31.8948 -0.105469 31.8948C-0.105469 21.228 -0.105469 10.5614 -0.105469 -0.105225Z"
            fill="#F9F8F8" />
        <path fill-rule="evenodd" clip-rule="evenodd"
            d="M16.7373 -0.105225C21.7899 -0.105225 26.8426 -0.105225 31.8952 -0.105225C31.8952 10.5614 31.8952 21.228 31.8952 31.8948C26.9127 31.8948 21.9304 31.8948 16.9478 31.8948C21.5304 30.3234 25.5655 27.8674 29.0531 24.5264C29.6798 23.5552 30.0657 22.5026 30.211 21.3685C30.4158 20.8531 30.4859 20.2917 30.4215 19.6842C30.6297 18.5316 30.6998 17.3386 30.632 16.1053C30.7003 14.6623 30.6301 13.2588 30.4215 11.8948C30.4215 11.6141 30.4215 11.3334 30.4215 11.0527C30.1156 9.07263 29.2735 7.35332 27.8952 5.89478C24.4571 3.33423 20.7379 1.33423 16.7373 -0.105225Z"
            fill="#F9F8F9" />
        <path fill-rule="evenodd" clip-rule="evenodd"
            d="M14.0004 -0.105225C14.9126 -0.105225 15.8249 -0.105225 16.7372 -0.105225C20.7378 1.33423 24.457 3.33423 27.8951 5.89478C29.2734 7.35332 30.1155 9.07263 30.4214 11.0527C29.7898 11.0527 29.1582 11.0527 28.5267 11.0527C28.2389 9.52958 27.537 8.23132 26.4214 7.15793C23.7942 5.3761 21.0574 3.76206 18.2109 2.31583C16.6836 1.7493 15.1398 1.67912 13.5793 2.1053C10.2874 3.68042 7.19968 5.57515 4.31614 7.78951C3.75473 7.92987 3.19334 7.92987 2.63193 7.78951C2.41408 7.47227 2.44918 7.15648 2.7372 6.84214C6.14642 3.95772 9.9008 1.64192 14.0004 -0.105225Z"
            fill="#1968B0" />
        <path fill-rule="evenodd" clip-rule="evenodd"
            d="M5.78987 10.0001C7.47075 9.7489 8.38305 10.4506 8.52671 12.1054C8.52494 14.0893 7.54248 14.8261 5.57934 14.3159C4.59972 13.5183 4.28393 12.5008 4.63197 11.2633C4.91823 10.7322 5.30418 10.3111 5.78987 10.0001Z"
            fill="#2B6FB4" />
        <path fill-rule="evenodd" clip-rule="evenodd"
            d="M10.4215 9.99991C10.9873 9.96537 11.5487 10.0005 12.1057 10.1052C12.5666 10.2477 12.6368 10.4933 12.3163 10.842C11.7674 11.0143 11.206 11.1196 10.6321 11.1578C10.3969 11.8048 10.3618 12.4714 10.5268 13.1578C11.1856 13.2904 11.8522 13.4307 12.5268 13.5789C12.8172 13.8657 12.7821 14.0763 12.4215 14.2104C9.9666 14.7739 8.91397 13.7914 9.26363 11.2631C9.54989 10.732 9.93584 10.3109 10.4215 9.99991Z"
            fill="#296FB4" />
        <path fill-rule="evenodd" clip-rule="evenodd"
            d="M1.36816 10.2106C2.36052 10.1418 3.34299 10.212 4.31553 10.4211C4.24536 10.5615 4.17517 10.7018 4.10501 10.8422C3.56048 11.0485 2.99909 11.1187 2.4208 11.0527C2.4208 12.1053 2.4208 13.1579 2.4208 14.2106C2.06992 14.2106 1.71904 14.2106 1.36816 14.2106C1.36816 12.8773 1.36816 11.5439 1.36816 10.2106Z"
            fill="#1366AF" />
        <path fill-rule="evenodd" clip-rule="evenodd"
            d="M6.00047 11.0527C7.43872 11.0656 7.85977 11.7673 7.26362 13.158C6.80156 13.4252 6.34541 13.4252 5.8952 13.158C5.73802 12.4372 5.7731 11.7355 6.00047 11.0527Z"
            fill="#F0F4F7" />
        <path fill-rule="evenodd" clip-rule="evenodd"
            d="M28.5264 11.0527C29.1579 11.0527 29.7895 11.0527 30.4211 11.0527C30.4211 11.3334 30.4211 11.6141 30.4211 11.8948C30.4211 12.7369 30.4211 13.5791 30.4211 14.4212C29.8596 14.4212 29.2984 14.4212 28.7369 14.4212C28.7428 13.2924 28.6725 12.1696 28.5264 11.0527Z"
            fill="#3B5B99" />
        <path fill-rule="evenodd" clip-rule="evenodd"
            d="M30.4215 11.8948C30.6301 13.2588 30.7003 14.6623 30.632 16.1053C30.0234 15.9153 29.3918 15.8451 28.7373 15.8948C28.7373 15.4036 28.7373 14.9123 28.7373 14.4211C29.2988 14.4211 29.86 14.4211 30.4215 14.4211C30.4215 13.579 30.4215 12.7369 30.4215 11.8948Z"
            fill="#715A8B" />
        <path fill-rule="evenodd" clip-rule="evenodd"
            d="M6.63197 16.1053C7.48557 16.0371 8.32768 16.1072 9.15829 16.3158C9.04764 16.6801 8.83711 16.9608 8.52671 17.1579C7.49134 16.6805 6.92995 16.9963 6.8425 18.1053C6.88023 19.4251 7.5118 19.8111 8.73724 19.2632C9.09879 19.5092 9.23915 19.8601 9.15829 20.3158C6.50601 20.8564 5.41829 19.8038 5.89513 17.1579C6.10509 16.7741 6.35069 16.4233 6.63197 16.1053Z"
            fill="#ED425D" />
        <path fill-rule="evenodd" clip-rule="evenodd"
            d="M1.36816 16.1053C1.78231 16.0549 2.16827 16.1251 2.52606 16.3158C2.82181 17.0983 3.1376 17.8702 3.47343 18.6316C3.88075 17.8307 4.16145 16.9886 4.31553 16.1053C4.75848 16.0424 5.17953 16.1126 5.57869 16.3158C4.90526 18.0888 4.16842 19.8432 3.36816 21.579C2.98631 21.8443 2.60035 21.8443 2.21027 21.579C2.4496 21.1354 2.66012 20.6793 2.84185 20.2106C2.32835 18.8452 1.83713 17.4768 1.36816 16.1053Z"
            fill="#EE4760" />
        <path fill-rule="evenodd" clip-rule="evenodd"
            d="M10.4212 16.1052C11.4037 16.1052 12.3861 16.1052 13.3686 16.1052C13.3686 17.5087 13.3686 18.9122 13.3686 20.3158C13.0177 20.3158 12.6668 20.3158 12.3159 20.3158C12.3159 19.2631 12.3159 18.2105 12.3159 17.1579C11.9651 17.1579 11.6142 17.1579 11.2633 17.1579C11.278 18.2335 11.1376 19.2861 10.8423 20.3158C10.3993 20.3787 9.97826 20.3085 9.5791 20.1052C10.0385 18.8018 10.3192 17.4684 10.4212 16.1052Z"
            fill="#EE4B62" />
        <path fill-rule="evenodd" clip-rule="evenodd"
            d="M14.2109 16.1052C14.5874 16.0452 14.9382 16.1154 15.2636 16.3158C15.5794 17.0877 15.8951 17.8596 16.2109 18.6316C16.5868 17.9036 16.8675 17.1317 17.053 16.3158C17.4349 16.0506 17.8209 16.0506 18.2109 16.3158C17.674 18.1373 16.9723 19.8916 16.1057 21.5789C15.6846 21.8596 15.2636 21.8596 14.8425 21.5789C15.1232 21.1579 15.4039 20.7368 15.6846 20.3158C15.108 18.9365 14.6168 17.533 14.2109 16.1052Z"
            fill="#EE4760" />
        <path fill-rule="evenodd" clip-rule="evenodd"
            d="M18.8418 16.1052C19.8243 16.1052 20.8067 16.1052 21.7892 16.1052C21.8058 16.4064 21.7357 16.6871 21.5786 16.9473C21.0341 17.1536 20.4727 17.2238 19.8944 17.1579C19.8944 18.2105 19.8944 19.2631 19.8944 20.3158C19.5435 20.3158 19.1927 20.3158 18.8418 20.3158C18.8418 18.9122 18.8418 17.5087 18.8418 16.1052Z"
            fill="#EE4961" />
        <path fill-rule="evenodd" clip-rule="evenodd"
            d="M22.4208 16.1052C22.7717 16.1052 23.1225 16.1052 23.4734 16.1052C23.4385 17.0902 23.4736 18.0726 23.5787 19.0526C23.9435 19.495 24.3646 19.5652 24.8418 19.2631C24.9469 18.2128 24.982 17.1602 24.9471 16.1052C25.298 16.1052 25.6488 16.1052 25.9997 16.1052C25.9997 17.4386 25.9997 18.7719 25.9997 20.1052C25.0252 20.3118 24.0427 20.3468 23.0523 20.2105C22.9471 20.1052 22.8418 20 22.7366 19.8947C22.4397 18.657 22.3345 17.3938 22.4208 16.1052Z"
            fill="#ED415C" />
        <path fill-rule="evenodd" clip-rule="evenodd"
            d="M28.7373 15.8948C29.3918 15.8452 30.0234 15.9154 30.632 16.1054C30.6998 17.3386 30.6297 18.5316 30.4215 19.6843C30.4215 19.6141 30.4215 19.5439 30.4215 19.4738C30.4215 18.9124 30.4215 18.351 30.4215 17.7896C29.86 17.7896 29.2988 17.7896 28.7373 17.7896C28.7373 17.158 28.7373 16.5264 28.7373 15.8948Z"
            fill="#97557E" />
        <path fill-rule="evenodd" clip-rule="evenodd"
            d="M28.7369 17.7896C29.2984 17.7896 29.8596 17.7896 30.4211 17.7896C30.4211 18.351 30.4211 18.9124 30.4211 19.4738C29.8596 19.4738 29.2984 19.4738 28.7369 19.4738C28.7933 19.8104 28.723 20.0911 28.5264 20.3159C28.6361 19.4778 28.7062 18.6357 28.7369 17.7896Z"
            fill="#B14B6C" />
        <path fill-rule="evenodd" clip-rule="evenodd"
            d="M30.4211 19.4736C30.4211 19.5438 30.4211 19.614 30.4211 19.6842C30.4855 20.2916 30.4154 20.853 30.2106 21.3684C29.6952 21.1635 29.1337 21.0934 28.5264 21.1578C28.5264 20.8771 28.5264 20.5964 28.5264 20.3157C28.723 20.091 28.7933 19.8103 28.7369 19.4736C29.2984 19.4736 29.8596 19.4736 30.4211 19.4736Z"
            fill="#D24260" />
        <path fill-rule="evenodd" clip-rule="evenodd"
            d="M28.5267 21.1579C29.134 21.0935 29.6955 21.1636 30.2109 21.3684C30.0656 22.5025 29.6797 23.5552 29.053 24.5263C25.5654 27.8674 21.5302 30.3234 16.9477 31.8947C15.9653 31.8947 14.9828 31.8947 14.0004 31.8947C12.4522 31.2265 10.9084 30.4897 9.36878 29.6842C6.95435 28.3895 4.74383 26.8105 2.7372 24.9474C2.44918 24.6331 2.41408 24.3173 2.63193 24C3.19334 23.8596 3.75473 23.8596 4.31614 24C7.1928 26.2116 10.2805 28.1063 13.5793 29.6842C14.7541 30.0036 15.9471 30.0739 17.1582 29.8947C20.4445 28.463 23.5321 26.7086 26.4214 24.6316C27.4193 23.6535 28.121 22.4956 28.5267 21.1579Z"
            fill="#ED445A" />
    </g>
    <defs>
        <clipPath id="clip0_5720_365">
            <rect width="32" height="32" fill="white" />
        </clipPath>
    </defs>
</svg>