<svg width="32" height="32" viewBox="0 0 32 32" fill="none" xmlns="http://www.w3.org/2000/svg">
    <g clip-path="url(#clip0_5557_373)">
        <path fill-rule="evenodd" clip-rule="evenodd"
            d="M-0.0898438 -0.0898438C10.5768 -0.0898438 21.2435 -0.0898438 31.9102 -0.0898438C31.9102 10.5768 31.9102 21.2435 31.9102 31.9102C21.2435 31.9102 10.5768 31.9102 -0.0898438 31.9102C-0.0898438 21.2435 -0.0898438 10.5768 -0.0898438 -0.0898438Z"
            fill="#171819" />
        <path fill-rule="evenodd" clip-rule="evenodd"
            d="M0.0898438 0.0898438C10.6367 0.0898438 21.1834 0.0898438 31.7303 0.0898438C31.7303 10.6367 31.7303 21.1834 31.7303 31.7303C21.1834 31.7303 10.6367 31.7303 0.0898438 31.7303C0.0898438 21.1834 0.0898438 10.6367 0.0898438 0.0898438Z"
            fill="#000005" />
        <path fill-rule="evenodd" clip-rule="evenodd"
            d="M18.0675 13.3936C19.0262 13.5134 19.9851 13.6332 20.9439 13.7531C19.9181 13.8122 18.8995 13.7523 17.8877 13.5733C17.9099 13.4643 17.9698 13.4043 18.0675 13.3936Z"
            fill="#634E09" />
        <path fill-rule="evenodd" clip-rule="evenodd"
            d="M18.0674 13.3932C17.9698 13.4039 17.9098 13.4639 17.8876 13.5729C18.8994 13.7519 19.918 13.8118 20.9438 13.7527C21.1919 13.8358 21.3118 14.0156 21.3034 14.292C18.1125 18.3325 14.8766 22.3474 11.5955 26.337C11.2546 26.5106 10.8951 26.5705 10.5168 26.5168C11.1184 23.663 11.9574 20.8765 13.0337 18.1572C11.955 18.0973 10.8764 18.0373 9.79773 17.9774C9.54711 17.8056 9.42727 17.5658 9.43818 17.2583C10.7498 13.6234 12.0982 9.99792 13.4831 6.38192C16.4195 6.14222 19.3558 6.14222 22.2921 6.38192C22.412 6.68155 22.412 6.98116 22.2921 7.2808C20.8377 9.29214 19.4296 11.3296 18.0674 13.3932Z"
            fill="#F5CB0C" />
    </g>
    <defs>
        <clipPath id="clip0_5557_373">
            <rect width="32" height="32" fill="white" />
        </clipPath>
    </defs>
</svg>