<svg width="32" height="32" viewBox="0 0 32 32" fill="none" xmlns="http://www.w3.org/2000/svg">
    <path fill-rule="evenodd" clip-rule="evenodd"
        d="M13.8062 0.329688C13.8062 0.219792 13.8062 0.109896 13.8062 0C15.1531 0 16.5001 0 17.847 0C17.847 0.109896 17.847 0.219792 17.847 0.329688C16.6347 0.553708 16.747 0.828448 18.1838 1.15391C17.7644 1.85449 17.4276 2.51387 17.1735 3.13204C17.487 3.94795 17.1502 4.49744 16.1633 4.78048C16.3878 4.89037 16.6123 5.00028 16.8368 5.11017C15.9793 5.91293 15.5303 6.79207 15.4899 7.74768C16.1433 7.9926 16.7607 7.93764 17.3419 7.58283C17.5748 7.89168 17.5187 8.11145 17.1735 8.24221C15.9118 8.20673 14.6771 8.37158 13.4694 8.73674C11.5525 9.56578 9.64433 10.39 7.7449 11.2094C7.40816 11.2094 7.07142 11.2094 6.73469 11.2094C6.79193 10.7735 6.67966 10.3889 6.39795 10.0555C7.16608 9.44524 7.16608 8.89575 6.39795 8.40705C6.75169 7.9505 7.2007 7.62081 7.7449 7.41799C7.03287 7.27807 6.75223 6.89342 6.90306 6.26408C8.09908 6.74925 8.66032 6.30967 8.58674 4.94533C9.11636 4.02187 9.73374 3.1427 10.4388 2.30782C11.9006 1.42725 13.4721 0.822826 15.1531 0.494533C14.7177 0.332982 14.2686 0.278034 13.8062 0.329688Z"
        fill="#F9584E" />
    <path fill-rule="evenodd" clip-rule="evenodd"
        d="M17.847 0.330078C19.7412 0.928789 21.5372 1.69806 23.2348 2.6379C22.986 2.5947 22.7615 2.64965 22.5614 2.80274C23.5056 3.34281 24.4036 3.94725 25.2553 4.61603C24.3243 5.91886 23.8754 7.29257 23.9083 8.73713C23.4593 9.06682 23.0103 9.39651 22.5614 9.7262C23.519 10.0606 24.1925 10.6651 24.5818 11.5395C22.0908 10.4289 19.6213 9.32998 17.1736 8.2426C17.5187 8.11184 17.5748 7.89207 17.3419 7.58322C16.7607 7.93803 16.1433 7.99299 15.4899 7.74807C15.5303 6.79246 15.9793 5.91332 16.8368 5.11056C16.6123 5.00067 16.3878 4.89076 16.1633 4.78087C17.1503 4.49783 17.487 3.94834 17.1736 3.13243C17.4277 2.51426 17.7644 1.85488 18.1838 1.1543C16.747 0.828837 16.6347 0.554098 17.847 0.330078Z"
        fill="#F96544" />
    <path fill-rule="evenodd" clip-rule="evenodd"
        d="M13.8062 0.329319C14.2687 0.277664 14.7177 0.332612 15.1532 0.494163C13.4721 0.822457 11.9007 1.42688 10.4389 2.30745C9.7338 3.14233 9.11642 4.0215 8.5868 4.94496C8.66038 6.30931 8.09914 6.74888 6.90312 6.26371C6.75229 6.89305 7.03293 7.2777 7.74496 7.41762C7.20076 7.62044 6.75175 7.95013 6.39801 8.40668C7.16614 8.89538 7.16614 9.44487 6.39801 10.0551C6.67972 10.3885 6.79199 10.7732 6.73475 11.209C7.07148 11.209 7.40822 11.209 7.74496 11.209C7.40822 11.4288 7.07148 11.6486 6.73475 11.8684C6.51024 11.8684 6.28577 11.8684 6.06127 11.8684C4.33654 10.97 2.54059 10.1458 0.673475 9.39575C0.4829 9.06781 0.258409 8.79308 0 8.57153C0 7.91215 0 7.25278 0 6.5934C0.661642 5.93801 1.44736 5.44348 2.35716 5.1098C6.14172 3.42139 9.9581 1.82789 13.8062 0.329319Z"
        fill="#F85159" />
    <path fill-rule="evenodd" clip-rule="evenodd"
        d="M23.2349 2.6373C25.961 3.69656 28.6549 4.85047 31.3166 6.09903C32.2815 7.49065 32.0571 8.69948 30.6431 9.7256C29.0007 10.3658 27.4292 11.0801 25.9288 11.8686C25.592 11.8686 25.2553 11.8686 24.9186 11.8686C24.9186 11.6488 24.8063 11.5389 24.5818 11.5389C24.1926 10.6645 23.5191 10.06 22.5614 9.7256C23.0104 9.39592 23.4594 9.06623 23.9084 8.73654C23.8754 7.29198 24.3244 5.91826 25.2553 4.61543C24.4036 3.94666 23.5056 3.34222 22.5614 2.80215C22.7616 2.64906 22.9861 2.59411 23.2349 2.6373Z"
        fill="#F77339" />
    <path fill-rule="evenodd" clip-rule="evenodd"
        d="M0 9.89062C1.65364 10.3572 3.22508 11.0166 4.71432 11.8688C3.21885 12.8206 1.6474 13.5899 0 14.1766C0 12.7479 0 11.3193 0 9.89062Z"
        fill="#C31AF4" />
    <path fill-rule="evenodd" clip-rule="evenodd"
        d="M0 8.57227C0.258409 8.79382 0.4829 9.06855 0.673475 9.39649C2.54059 10.1466 4.33654 10.9708 6.06127 11.8691C3.93232 12.8009 1.91188 13.8999 0 15.166C0 14.8363 0 14.5067 0 14.177C1.6474 13.5903 3.21885 12.821 4.71432 11.8691C3.22508 11.017 1.65364 10.3576 0 9.89102C0 9.45145 0 9.01184 0 8.57227Z"
        fill="#990CB4" />
    <path fill-rule="evenodd" clip-rule="evenodd"
        d="M17.1736 8.24202C19.6214 9.32939 22.0908 10.4283 24.5818 11.5389C24.8063 11.5389 24.9186 11.6488 24.9186 11.8686C21.256 12.0423 17.4397 12.0423 13.4695 11.8686C11.898 11.9785 10.3266 12.0884 8.75517 12.1983C8.93205 12.4266 9.15652 12.5914 9.42864 12.6928C9.35173 12.8243 9.23946 12.8792 9.0919 12.8577C8.2441 12.6058 7.45839 12.2761 6.73474 11.8686C7.07148 11.6488 7.40822 11.429 7.74495 11.2092C9.64439 10.3898 11.5526 9.56558 13.4695 8.73655C14.6771 8.37139 15.9118 8.20654 17.1736 8.24202Z"
        fill="#FAC4F8" />
    <path fill-rule="evenodd" clip-rule="evenodd"
        d="M24.9185 11.8691C25.2553 11.8691 25.592 11.8691 25.9287 11.8691C27.4509 12.669 29.0224 13.3833 30.6431 14.0121C31.6187 14.5777 32.0677 15.4019 31.99 16.4848C31.7655 16.7046 31.541 16.9244 31.3165 17.1442C31.642 15.0997 30.744 14.1656 28.6226 14.3418C27.2645 14.2263 25.9737 14.1713 24.7502 14.177C24.4134 14.3968 24.0767 14.6165 23.7399 14.8363C22.7086 13.9531 22.0912 14.063 21.8879 15.166C21.6716 14.0789 21.2787 13.969 20.7093 14.8363C20.0618 14.5673 19.3883 14.3475 18.6889 14.177C18.4041 14.7626 17.7868 15.2021 16.8368 15.4957C16.0232 15.3195 15.9671 14.9898 16.6685 14.5066C16.7807 14.7265 16.893 14.9462 17.0052 15.166C17.1736 14.7814 17.4542 14.5066 17.847 14.3418C16.008 14.3648 14.3244 14.4198 12.796 14.5066C11.4981 14.0351 10.2633 13.4856 9.09186 12.8582C9.23942 12.8798 9.35169 12.8248 9.4286 12.6934C9.15648 12.5919 8.93202 12.4271 8.75513 12.1988C10.3266 12.0889 11.898 11.979 13.4694 11.8691C17.4397 12.0428 21.256 12.0428 24.9185 11.8691Z"
        fill="#F2B5F6" />
    <path fill-rule="evenodd" clip-rule="evenodd"
        d="M31.3166 17.1443C29.4734 18.212 27.5652 19.2011 25.592 20.1115C25.3675 20.1115 25.1431 20.1115 24.9186 20.1115C23.7471 19.4841 22.5124 18.9346 21.2145 18.4631C18.4083 17.1443 15.6022 15.8256 12.796 14.5068C14.3244 14.42 16.0081 14.365 17.8471 14.342C17.4542 14.5068 17.1736 14.7816 17.0052 15.1662C16.893 14.9464 16.7807 14.7266 16.6685 14.5068C15.9671 14.99 16.0232 15.3197 16.8369 15.4959C17.7868 15.2023 18.4041 14.7627 18.6889 14.1772C19.3883 14.3477 20.0618 14.5675 20.7093 14.8365C21.2787 13.9692 21.6716 14.0791 21.8879 15.1662C22.0913 14.0632 22.7087 13.9533 23.74 14.8365C24.0767 14.6167 24.4135 14.397 24.7502 14.1772C25.9737 14.1715 27.2645 14.2265 28.6227 14.342C30.744 14.1657 31.642 15.0999 31.3166 17.1443Z"
        fill="#F1A6F5" />
    <path fill-rule="evenodd" clip-rule="evenodd"
        d="M6.06127 11.8691C6.28577 11.8691 6.51024 11.8691 6.73475 11.8691C7.4584 12.2767 8.2441 12.6064 9.09191 12.8582C10.2634 13.4856 11.4981 14.0351 12.796 14.5066C15.6022 15.8254 18.4083 17.1442 21.2145 18.4629C21.1942 18.642 21.082 18.7518 20.8777 18.7926C19.4591 18.0482 17.9438 17.6086 16.3318 17.4738C14.7313 17.7001 13.1599 17.81 11.6174 17.8035C11.5052 17.5837 11.3929 17.364 11.2807 17.1442C9.37925 17.3362 7.58332 17.4461 5.8929 17.4738C5.78932 17.2074 5.62095 16.9877 5.3878 16.8145C4.01856 17.2187 2.67161 17.2187 1.34695 16.8145C1.0799 17.0965 1.19215 17.3712 1.68369 17.6387C3.3608 18.1763 4.70776 18.8906 5.72453 19.7817C3.67572 19.163 1.76755 18.2838 0 17.1442C0 16.4848 0 15.8254 0 15.166C1.91188 13.8999 3.93232 12.8009 6.06127 11.8691Z"
        fill="#E18CF2" />
    <path fill-rule="evenodd" clip-rule="evenodd"
        d="M31.9901 16.4844C31.9901 18.9021 31.9901 21.3198 31.9901 23.7375C31.6533 23.6276 31.4288 23.4078 31.3166 23.0781C30.6053 22.3296 29.7073 21.89 28.6227 21.7594C28.5076 21.483 28.2831 21.3731 27.9492 21.4297C27.1635 20.9901 26.3778 20.5505 25.592 20.1109C27.5652 19.2005 29.4734 18.2114 31.3166 17.1438C31.5411 16.9239 31.7655 16.7042 31.9901 16.4844Z"
        fill="#B1BEEE" />
    <path fill-rule="evenodd" clip-rule="evenodd"
        d="M21.2145 18.4629C22.5124 18.9344 23.7471 19.4839 24.9186 20.1113C22.5389 21.3513 20.0695 22.5052 17.5103 23.5731C16.3575 23.8192 15.235 23.7643 14.143 23.4082C13.1644 22.984 12.1542 22.6544 11.1123 22.4192C10.3934 21.9012 9.60765 21.4616 8.75517 21.1004C7.77802 20.6772 6.76781 20.3475 5.72453 20.1113C5.72453 20.0015 5.72453 19.8915 5.72453 19.7816C4.70775 18.8906 3.3608 18.1763 1.68368 17.6387C1.19215 17.3712 1.0799 17.0965 1.34695 16.8145C2.67161 17.2187 4.01855 17.2187 5.38779 16.8145C5.62095 16.9876 5.78932 17.2074 5.8929 17.4738C7.58332 17.446 9.37924 17.3362 11.2807 17.1441C11.3929 17.3639 11.5052 17.5837 11.6174 17.8035C13.1599 17.8099 14.7313 17.7001 16.3318 17.4738C17.9438 17.6086 19.4591 18.0482 20.8777 18.7926C21.082 18.7518 21.1942 18.6419 21.2145 18.4629Z"
        fill="#D57CF3" />
    <path fill-rule="evenodd" clip-rule="evenodd"
        d="M27.9492 21.4293C28.2831 21.3727 28.5076 21.4826 28.6227 21.759C27.8066 22.5469 26.9087 23.2612 25.9288 23.902C25.6092 24.1054 25.3285 24.0505 25.0869 23.7371C24.5257 24.3965 23.9645 25.0559 23.4032 25.7152C23.291 25.4954 23.1787 25.2757 23.0665 25.0559C22.4998 25.7197 21.8263 26.2692 21.0461 26.7043C20.9338 26.5944 20.8216 26.4845 20.7093 26.3746C20.0071 26.8962 19.502 27.5556 19.194 28.3528C18.7914 28.2388 18.7914 28.0739 19.194 27.8582C18.9695 27.6384 18.745 27.6384 18.5205 27.8582C18.4441 28.2325 18.3318 28.6172 18.1838 29.0121C17.9506 28.8389 17.7823 28.6192 17.6787 28.3528C16.1484 29.3749 14.6331 30.364 13.1327 31.3199C11.9837 31.1412 10.9735 30.7017 10.1021 30.0012C9.77782 29.7165 9.77782 29.4967 10.1021 29.3418C10.4496 29.8494 10.8986 30.0143 11.449 29.8364C12.6879 28.6139 13.9226 27.9545 15.1532 27.8582C15.0409 27.7483 14.9287 27.6384 14.8164 27.5285C16.4024 26.8344 17.9177 26.0102 19.3624 25.0559C19.4746 25.2757 19.5869 25.4954 19.6991 25.7152C21.104 24.9179 22.4509 24.0387 23.74 23.0777C23.8522 23.1876 23.9645 23.2975 24.0767 23.4074C24.6858 22.6774 25.2471 21.9081 25.7604 21.0996C25.9849 21.9788 26.2094 21.9788 26.4339 21.0996C26.6584 21.3194 26.8828 21.5392 27.1073 21.759C27.3332 21.5109 27.6138 21.401 27.9492 21.4293Z"
        fill="#4B4AAD" />
    <path fill-rule="evenodd" clip-rule="evenodd"
        d="M8.75521 21.0996C9.6077 21.4608 10.3934 21.9005 11.1124 22.4184C10.7136 22.81 10.7136 23.1946 11.1124 23.5723C10.6934 23.7226 10.4128 23.5578 10.2705 23.0777C8.02695 24.5318 5.72592 25.8505 3.36742 27.034C2.44457 26.9657 1.65885 26.636 1.01025 26.0449C3.03616 24.723 5.16883 23.5691 7.40826 22.5832C7.97796 22.1522 8.42693 21.6577 8.75521 21.0996Z"
        fill="#7F95E0" />
    <path fill-rule="evenodd" clip-rule="evenodd"
        d="M5.72453 20.1113C6.76781 20.3475 7.77803 20.6772 8.75517 21.1004C8.42689 21.6585 7.97791 22.153 7.40822 22.584C5.16878 23.5699 3.03612 24.7238 1.01021 26.0457C0.673475 25.8259 0.336737 25.6061 0 25.3863C0 24.6171 0 23.8478 0 23.0785C1.87715 21.9952 3.78533 21.0061 5.72453 20.1113Z"
        fill="#90ACEF" />
    <path fill-rule="evenodd" clip-rule="evenodd"
        d="M11.1124 22.4189C12.1542 22.6541 13.1644 22.9838 14.143 23.408C14.1592 24.3285 13.7102 24.9329 12.7961 25.2213C11.9676 25.3519 11.2942 25.7365 10.7757 26.3752C10.3487 26.0693 9.89977 26.0143 9.4287 26.2104C8.53073 26.7599 7.63278 27.3093 6.73481 27.8588C7.55362 28.2173 7.44138 28.3822 6.39807 28.3533C5.24905 28.1746 4.23884 27.735 3.36743 27.0346C5.72594 25.8511 8.02697 24.5323 10.2705 23.0783C10.4129 23.5584 10.6935 23.7232 11.1124 23.5729C10.7136 23.1952 10.7136 22.8106 11.1124 22.4189Z"
        fill="#6F7FD1" />
    <path fill-rule="evenodd" clip-rule="evenodd"
        d="M31.3166 23.0781C31.4289 23.4078 31.6534 23.6276 31.9901 23.7375C32.0517 24.5407 31.8272 25.2551 31.3166 25.8805C26.5747 28.1411 21.7482 30.1742 16.8369 31.9797C17.5925 31.5084 18.2099 30.849 18.689 30.0016C18.8012 30.1115 18.9135 30.2214 19.0257 30.3313C20.0231 29.3225 21.1455 28.773 22.3931 28.6828C22.8628 27.8034 23.5363 27.144 24.4135 26.7047C24.6415 27.4264 25.0343 27.5363 25.5921 27.0344C25.8373 26.4762 26.1741 25.9816 26.6023 25.5508C28.1304 24.6618 29.7019 23.8376 31.3166 23.0781Z"
        fill="#352494" />
    <path fill-rule="evenodd" clip-rule="evenodd"
        d="M24.9185 20.1113C25.143 20.1113 25.3675 20.1113 25.592 20.1113C26.3777 20.5509 27.1634 20.9905 27.9491 21.4301C27.6138 21.4018 27.3332 21.5117 27.1073 21.7598C26.8828 21.54 26.6583 21.3202 26.4338 21.1004C26.2093 21.9796 25.9848 21.9796 25.7603 21.1004C25.247 21.9089 24.6858 22.6782 24.0767 23.4082C23.9644 23.2983 23.8522 23.1884 23.7399 23.0785C22.4509 24.0395 21.1039 24.9186 19.6991 25.716C19.5868 25.4962 19.4746 25.2765 19.3623 25.0567C17.9177 26.011 16.4024 26.8352 14.8164 27.5293C14.9286 27.6392 15.0409 27.7491 15.1531 27.859C13.9226 27.9553 12.6879 28.6147 11.449 29.8371C10.8986 30.015 10.4496 29.8502 10.1021 29.3426C9.77778 29.4975 9.77778 29.7173 10.1021 30.002C8.72376 29.7111 7.48908 29.1616 6.39795 28.3535C7.44126 28.3824 7.5535 28.2175 6.73469 27.859C7.63266 27.3095 8.53061 26.7601 9.42859 26.2106C9.89965 26.0145 10.3486 26.0695 10.7755 26.3754C11.294 25.7367 11.9675 25.3521 12.796 25.2215C13.7101 24.9331 14.159 24.3287 14.1429 23.4082C15.235 23.7643 16.3574 23.8192 17.5103 23.5731C20.0695 22.5052 22.5389 21.3513 24.9185 20.1113Z"
        fill="#585EBA" />
    <path fill-rule="evenodd" clip-rule="evenodd"
        d="M28.6227 21.7598C29.7074 21.8904 30.6053 22.33 31.3166 23.0785C29.7019 23.838 28.1305 24.6622 26.6023 25.5512C26.1741 25.982 25.8373 26.4766 25.5921 27.0348C25.0344 27.5367 24.6415 27.4268 24.4135 26.7051C23.5363 27.1444 22.8628 27.8038 22.3931 28.6832C21.1455 28.7734 20.0231 29.3228 19.0257 30.3317C18.9135 30.2218 18.8012 30.1119 18.689 30.002C18.2099 30.8494 17.5925 31.5088 16.8369 31.9801C15.8205 32.0344 14.8103 31.9794 13.8063 31.8153C13.4979 31.7235 13.2734 31.5586 13.1328 31.3207C14.6332 30.3647 16.1485 29.3757 17.6788 28.3535C17.7823 28.62 17.9507 28.8397 18.1839 29.0129C18.3319 28.6179 18.4442 28.2333 18.5206 27.859C18.7451 27.6392 18.9696 27.6392 19.1941 27.859C18.7915 28.0747 18.7915 28.2396 19.1941 28.3535C19.5021 27.5564 20.0072 26.897 20.7094 26.3754C20.8216 26.4853 20.9339 26.5952 21.0461 26.7051C21.8264 26.27 22.4999 25.7205 23.0666 25.0566C23.1788 25.2765 23.2911 25.4962 23.4033 25.716C23.9645 25.0566 24.5257 24.3973 25.087 23.7379C25.3286 24.0513 25.6092 24.1062 25.9288 23.9027C26.9087 23.262 27.8067 22.5477 28.6227 21.7598Z"
        fill="#3E349E" />
</svg>