<svg width="32" height="32" viewBox="0 0 32 32" fill="none" xmlns="http://www.w3.org/2000/svg">
    <g clip-path="url(#clip0_5848_79)">
        <path fill-rule="evenodd" clip-rule="evenodd"
            d="M-0.0800781 -0.0800781C10.5866 -0.0800781 21.2532 -0.0800781 31.9199 -0.0800781C31.9199 10.5866 31.9199 21.2532 31.9199 31.9199C21.2532 31.9199 10.5866 31.9199 -0.0800781 31.9199C-0.0800781 21.2532 -0.0800781 10.5866 -0.0800781 -0.0800781Z"
            fill="#0044F9" />
        <path fill-rule="evenodd" clip-rule="evenodd"
            d="M19.4403 8.5596C17.7771 7.94553 16.0704 7.78553 14.3203 8.0796C14.3871 7.96414 14.4938 7.88414 14.6403 7.8396C16.1728 7.65065 17.6661 7.75733 19.1203 8.1596C19.2613 8.27293 19.3678 8.40625 19.4403 8.5596Z"
            fill="#3255D8" />
        <path fill-rule="evenodd" clip-rule="evenodd"
            d="M19.44 8.56033C20.1804 9.08692 20.8736 9.6736 21.52 10.3203C22.2548 12.2435 21.6148 13.1235 19.6 12.9603C18.413 10.8395 16.653 10.1995 14.32 11.0403C13.867 11.3068 13.4937 11.6535 13.2 12.0803C12.6224 12.7038 12.3024 13.4504 12.24 14.3203C12.0552 15.4651 12.0286 16.6384 12.16 17.8403C12.2506 18.196 12.384 18.516 12.56 18.8003C12.8157 19.7491 13.4024 20.3891 14.32 20.7203C14.4556 20.9549 14.6689 21.0883 14.96 21.1203C15.9528 21.2778 16.9128 21.1711 17.84 20.8003C18.0949 20.6485 18.3082 20.4619 18.48 20.2403C19.0973 19.6983 19.4173 19.0048 19.44 18.1603C18.4124 18.2069 17.3991 18.1536 16.4 18.0003C15.7864 17.1842 15.7864 16.3842 16.4 15.6003C18.2668 15.387 20.1333 15.387 22 15.6003C22.2663 15.7992 22.453 16.0659 22.56 16.4003C22.6668 18.6403 22.6668 20.8803 22.56 23.1203C22.3399 23.3131 22.1533 23.5264 22 23.7603C21.5701 23.7866 21.1434 23.7599 20.72 23.6803C20.3872 23.1624 20.1472 22.6024 20 22.0003C19.7269 22.2463 19.4869 22.513 19.28 22.8003C16.209 24.5011 13.329 24.2344 10.64 22.0003C10.5867 21.8403 10.48 21.7336 10.32 21.6803C8.19801 17.9416 8.19801 14.2083 10.32 10.4803C10.4642 10.3539 10.5709 10.1939 10.64 10.0003C11.6526 9.14811 12.7726 8.50811 14 8.08033C14.1067 8.08033 14.2134 8.08033 14.32 8.08033C16.0701 7.78627 17.7768 7.94627 19.44 8.56033Z"
            fill="#F3F7F9" />
        <path fill-rule="evenodd" clip-rule="evenodd"
            d="M13.9996 8.0799C12.7722 8.50768 11.6522 9.14768 10.6396 9.99991C10.6396 9.78658 10.6396 9.57323 10.6396 9.35991C11.2442 9.1869 11.7775 8.8669 12.2396 8.3999C12.574 8.60845 12.8406 8.52845 13.0396 8.1599C13.3553 8.08062 13.6753 8.05397 13.9996 8.0799Z"
            fill="#3156E4" />
        <path fill-rule="evenodd" clip-rule="evenodd"
            d="M21.5202 10.3203C21.7376 10.4014 21.8976 10.5614 22.0002 10.8003C22.1567 10.724 22.29 10.6174 22.4002 10.4803C22.4068 11.4553 22.1135 12.3353 21.5202 13.1203C21.0872 13.3679 20.6338 13.5546 20.1602 13.6803C19.5751 13.255 19.0416 12.775 18.5602 12.2403C18.4263 12.4815 18.2396 12.5615 18.0002 12.4803C18.261 11.9903 18.101 11.7237 17.5202 11.6803C17.6269 11.5736 17.7335 11.467 17.8402 11.3603C17.5093 11.2504 17.1893 11.2771 16.8802 11.4403C16.7192 11.3703 16.7192 11.2636 16.8802 11.1203C16.1946 10.9523 15.5546 10.9523 14.9602 11.1203C14.4565 11.2228 14.4032 11.3828 14.8002 11.6003C14.2365 11.7018 13.7032 11.8618 13.2002 12.0803C13.4939 11.6535 13.8672 11.3068 14.3202 11.0403C16.6532 10.1995 18.4132 10.8395 19.6002 12.9603C21.6149 13.1234 22.2549 12.2434 21.5202 10.3203Z"
            fill="#204FE8" />
        <path fill-rule="evenodd" clip-rule="evenodd"
            d="M12.2401 14.3203C12.1847 15.8287 12.2914 17.3221 12.5601 18.8003C12.384 18.516 12.2507 18.196 12.1601 17.8403C12.0286 16.6384 12.0553 15.4651 12.2401 14.3203Z"
            fill="#2A56DB" />
        <path fill-rule="evenodd" clip-rule="evenodd"
            d="M10.3199 10.48C8.19789 14.208 8.19789 17.9413 10.3199 21.68C9.95168 21.4624 9.68501 21.5691 9.51992 22C9.32483 21.8779 9.16483 21.7179 9.03992 21.52C8.91879 20.8173 8.75879 20.1238 8.55992 19.44C8.71031 19.0189 8.73698 18.5923 8.63992 18.16C8.49357 18.2925 8.3869 18.4525 8.31992 18.64C8.11715 18.2442 7.98383 17.8174 7.91992 17.36C7.97077 17.1765 8.07743 17.043 8.23992 16.96C8.02663 16.6656 8.05328 16.5856 8.31992 16.72C8.38669 15.8388 8.46669 14.9588 8.55992 14.08C8.29179 13.486 8.39845 12.9526 8.87992 12.48C8.85675 12.3565 8.80343 12.2498 8.71992 12.16C9.05656 11.8332 9.24323 11.4332 9.27992 10.96C9.42221 11.1821 9.50221 11.1554 9.51992 10.88C9.39184 10.5939 9.33851 10.3272 9.35992 10.08C9.43992 10.0533 9.51992 10.0267 9.59992 10C9.77965 10.256 10.0197 10.416 10.3199 10.48Z"
            fill="#184DEC" />
        <path fill-rule="evenodd" clip-rule="evenodd"
            d="M22.0003 23.7601C22.1536 23.5262 22.3402 23.3129 22.5603 23.1201C22.667 20.8801 22.667 18.6401 22.5603 16.4001C22.4533 16.0657 22.2666 15.7991 22.0003 15.6001C21.9826 15.5014 21.9293 15.4214 21.8403 15.3601C20.0803 15.2535 18.3203 15.2535 16.5603 15.3601C16.4714 15.4214 16.4181 15.5014 16.4003 15.6001C15.7866 16.384 15.7866 17.184 16.4003 18.0001C16.227 17.9939 16.067 17.9405 15.9203 17.8401C15.7944 17.9589 15.6878 18.0921 15.6003 18.2401C15.9725 18.4877 16.1592 18.7811 16.1603 19.1201C16.3032 18.9264 16.4365 18.9264 16.5603 19.1201C16.5269 19.2139 16.4734 19.2939 16.4003 19.3601C16.0338 19.3625 15.687 19.3893 15.3603 19.4401C15.3336 19.4934 15.307 19.5469 15.2803 19.6001C15.6429 19.7304 16.0163 19.8104 16.4003 19.8401C16.027 20.0001 15.6536 20.1601 15.2803 20.3201C15.4142 20.4819 15.4675 20.6686 15.4403 20.8801C16.2629 20.9049 17.0629 20.7982 17.8403 20.5601C17.8165 20.3918 17.843 20.2318 17.9203 20.0801C18.0821 20.2141 18.2688 20.2673 18.4803 20.2401C18.3085 20.4617 18.0952 20.6483 17.8403 20.8001C16.9131 21.1709 15.953 21.2776 14.9603 21.1201C14.6692 21.0881 14.4558 20.9547 14.3203 20.7201C14.5401 20.7453 14.7534 20.7185 14.9603 20.6401C14.907 20.5869 14.8536 20.5334 14.8003 20.4801C14.9017 19.9267 15.0083 19.3667 15.1203 18.8001C15.2636 18.9611 15.3703 18.9611 15.4403 18.8001C15.2578 18.6521 15.2578 18.5187 15.4403 18.4001C15.0537 18.1325 15.0537 17.8392 15.4403 17.5201C15.5836 17.6811 15.6903 17.6811 15.7603 17.5201C15.5461 17.208 15.3328 17.0213 15.1203 16.9601C15.2465 16.7 15.4065 16.46 15.6003 16.2401C15.4074 15.9176 15.4074 15.5976 15.6003 15.2801C17.7014 15.1101 19.8347 15.0835 22.0003 15.2001C22.187 15.4935 22.427 15.7335 22.7203 15.9201C22.827 18.3734 22.827 20.8269 22.7203 23.2801C22.5397 23.5427 22.2997 23.7027 22.0003 23.7601Z"
            fill="#114AEB" />
        <path fill-rule="evenodd" clip-rule="evenodd"
            d="M16.4003 17.9998C17.3993 18.1531 18.4126 18.2064 19.4403 18.1598C19.4176 19.0043 19.0976 19.6978 18.4803 20.2398C18.2688 20.267 18.082 20.2138 17.9203 20.0798C17.843 20.2315 17.8164 20.3915 17.8403 20.5598C17.0628 20.7979 16.2628 20.9046 15.4403 20.8798C15.4675 20.6683 15.4141 20.4816 15.2803 20.3198C15.6536 20.1598 16.027 19.9998 16.4003 19.8398C16.0163 19.8101 15.6429 19.7301 15.2803 19.5998C15.3069 19.5466 15.3336 19.4931 15.3603 19.4398C15.687 19.389 16.0337 19.3622 16.4003 19.3598C16.4734 19.2936 16.5268 19.2136 16.5603 19.1198C16.4364 18.9261 16.3032 18.9261 16.1603 19.1198C16.1592 18.7808 15.9724 18.4874 15.6003 18.2398C15.6877 18.0918 15.7944 17.9586 15.9203 17.8398C16.067 17.9402 16.227 17.9936 16.4003 17.9998Z"
            fill="#0446F5" />
        <path fill-rule="evenodd" clip-rule="evenodd"
            d="M22.0004 15.6003C20.1337 15.3869 18.2671 15.3869 16.4004 15.6003C16.4182 15.5015 16.4714 15.4215 16.5604 15.3603C18.3204 15.2536 20.0804 15.2536 21.8404 15.3603C21.9294 15.4215 21.9826 15.5015 22.0004 15.6003Z"
            fill="#1A48C2" />
        <path fill-rule="evenodd" clip-rule="evenodd"
            d="M10.6396 22C13.3286 24.2341 16.2086 24.5008 19.2796 22.8C19.2779 23.0427 19.1713 23.2294 18.9596 23.36C18.5286 23.5755 18.1019 23.7888 17.6796 24C16.3464 24.0533 15.013 24.1067 13.6796 24.16C14.0841 24.3197 14.0841 24.453 13.6796 24.56C13.3486 24.5082 13.2953 24.3747 13.5196 24.16C13.2152 24.1282 12.9752 23.9947 12.7996 23.76C12.5617 23.8805 12.5351 24.0138 12.7196 24.16C12.3266 24.3114 12.0066 24.2314 11.7596 23.92C11.8437 23.8093 11.9504 23.7293 12.0796 23.68C11.6298 23.4322 11.1498 23.2989 10.6396 23.28C10.7147 22.8258 10.7147 22.3992 10.6396 22Z"
            fill="#1D4DEB" />
        <path fill-rule="evenodd" clip-rule="evenodd"
            d="M22.0003 23.76C21.8988 23.9915 21.7121 24.0981 21.4403 24.08C21.0785 24.0216 20.732 23.915 20.4003 23.76C20.052 23.9206 19.9985 23.8141 20.2403 23.44C20.1001 23.3198 19.9401 23.2398 19.7603 23.2C19.9572 23.0107 19.9572 22.8242 19.7603 22.64C19.6136 22.7403 19.4536 22.7938 19.2803 22.8C19.4872 22.5126 19.7272 22.2459 20.0003 22C20.1475 22.6021 20.3875 23.1621 20.7203 23.68C21.1436 23.7595 21.5704 23.7862 22.0003 23.76Z"
            fill="#2D55E0" />
    </g>
    <defs>
        <clipPath id="clip0_5848_79">
            <rect width="32" height="32" fill="white" />
        </clipPath>
    </defs>
</svg>