<svg xmlns="http://www.w3.org/2000/svg" viewBox="146 69 242 242">
  <path fill="#499848" transform="translate(350 -548)" d="M-100.655 815.738c-2.573-.819-2.582-1.181-.212-8.379 2.368-7.189 1.283-13.864-3.106-19.112-5.968-7.136-8.842-13.225-9.758-20.674-.786-6.396-1.036-6.903-3.64-7.403-1.746-.335-4.159.329-9.909 2.727-8.366 3.49-10.359 5.022-12.333 9.485-1.037 2.344-1.162 3.748-.573 6.459.718 3.311 3.662 8.641 4.776 8.648.291.002 1.897 1.102 3.57 2.445 2.776 2.229 2.967 2.616 2.181 4.433-1.707 3.947-5.762 8.733-7.4 8.733-.919 0-4.671-2.628-8.802-6.165-8.113-6.947-8.454-7.644-9.292-19.031-1-13.587 2.342-19.928 17.222-32.685l9.333-8.001.596-4.854c.615-5.003-.252-16.917-1.708-23.493-.861-3.885-3.7-7.585-6.395-8.333-2.936-.814-4.657.867-6.891 6.729-2.41 6.326-4.713 8.532-8.905 8.532-2.611 0-5.048-1.67-6.73-4.613-1.206-2.109-1.906-14.779-1.185-21.448.347-3.208.367-6.456.044-7.218-.524-1.24-5.042-3.922-15.692-9.315-1.936-.981-4.193-2.301-5.016-2.934-.823-.633-2.957-1.797-4.743-2.586-4.046-1.789-14.596-7.957-13.608-7.957 1.868 0 9.787 2.437 14.002 4.31 2.573 1.143 5.036 2.078 5.474 2.078.437 0 5.398 1.597 11.024 3.549 5.627 1.951 10.769 3.548 11.428 3.548 1.565 0 1.81-1.354 1.309-7.22-.228-2.666-.218-4.846.022-4.846s1.277.514 2.304 1.143c3.138 1.921 9.887 3.098 17.82 3.107 7.586.009 17.487 1.513 21.271 3.233 5.429 2.467 11.726 10.172 19.714 24.123 5.554 9.698 11.52 13.805 20.072 13.814 3.457.004 12.681-1.421 25.171-3.889 10.299-2.034 23.894-2.492 29.171-.981 6.438 1.842 14.951 6.769 21.989 12.726 6.587 5.575 7.602 6.812 11.648 14.21 4.829 8.829 10.159 21.377 14.899 35.075.675 1.952 2.102 5.235 3.17 7.296 2.85 5.499 2.708 5.835-2.471 5.835-5.621 0-8.257-.886-11.941-4.015-3.534-3.001-4.457-4.837-9.989-19.866-2.833-7.697-5.591-12.317-7.354-12.317-1.208 0-3.653 8.249-3.653 12.325 0 2.894 1.814 6.805 6.504 14.02 7.618 11.722 11.626 28.292 10.022 41.438l-.693 5.678-5.077.211c-7.994.333-7.914.444-7.914-10.986 0-12.17-.828-14.805-6.199-19.713-2.23-2.039-7.235-7.83-11.121-12.87-3.886-5.041-7.607-9.165-8.27-9.165-1.522 0-2.281 4.145-2.362 12.899-.053 5.765-.28 6.741-1.981 8.517-4.611 4.816-7.848 13.585-9.843 26.668-.442 2.896-.821 3.438-2.698 3.859-2.759.62-10.408.722-11.067.147-.568-.495.428-8.359 2.687-21.215.858-4.88 1.794-11.427 2.081-14.55.51-5.56-.63-15.976-1.979-18.083-.561-.876-3.417-1.066-16.777-1.115-8.856-.033-18.568-.324-21.582-.648l-5.48-.588v2.432c0 2.605.667 4.901 5.131 17.647 1.572 4.489 3.851 11.333 5.063 15.208l2.204 7.047-1.86 5.729c-1.023 3.151-2.541 6.927-3.374 8.391-1.469 2.582-1.641 2.66-5.76 2.606-2.336-.031-5.286-.387-6.558-.792z"/>
</svg>
