<svg width="32" height="32" viewBox="0 0 32 32" fill="none" xmlns="http://www.w3.org/2000/svg">
    <path fill-rule="evenodd" clip-rule="evenodd"
        d="M0 0C10.6667 0 21.3333 0 32 0C32 10.6667 32 21.3333 32 32C21.3333 32 10.6667 32 0 32C0 21.3333 0 10.6667 0 0Z"
        fill="#F9F9F9" />
    <path fill-rule="evenodd" clip-rule="evenodd"
        d="M3.09347 23.68C2.63587 24.0518 2.13805 24.3718 1.60013 24.64C1.58285 24.4238 1.60067 24.2105 1.65347 24C6.16899 17.8489 10.6846 11.6978 15.2001 5.54669C15.8642 5.11319 16.5219 5.13097 17.1735 5.60003C18.8597 6.82467 20.513 8.08689 22.1335 9.38669C22.2046 9.60003 22.2046 9.81336 22.1335 10.0267C15.7377 14.5218 9.39107 19.073 3.09347 23.68Z"
        fill="#1B8FC8" />
    <path fill-rule="evenodd" clip-rule="evenodd"
        d="M4.58628 24.2136C3.77486 24.3628 2.99268 24.5762 2.23961 24.8536C2.07673 24.8458 1.97006 24.917 1.91961 25.0669C1.81422 24.9288 1.70756 24.7866 1.59961 24.6403C2.13753 24.372 2.63534 24.052 3.09294 23.6803C9.8603 19.6028 16.6159 15.4962 23.3596 11.3603C23.8011 11.0556 24.2633 11.02 24.7463 11.2536C26.5513 12.5739 28.3469 13.9072 30.1329 15.2536C30.5184 15.9093 30.4651 16.5316 29.9729 17.1203C21.5073 19.5208 13.045 21.8852 4.58628 24.2136Z"
        fill="#E75189" />
    <path fill-rule="evenodd" clip-rule="evenodd"
        d="M1.91992 25.0665C1.97038 24.9165 2.07704 24.8454 2.23992 24.8531C3.15758 24.7539 4.04643 24.5761 4.90659 24.3198C10.812 23.1696 16.7142 21.9963 22.6133 20.7998C22.7199 20.8176 22.8266 20.8353 22.9333 20.8531C22.7171 21.8153 22.5571 22.7931 22.4533 23.7865C22.3389 24.2209 22.0722 24.5232 21.6533 24.6931C15.0707 24.8991 8.49294 25.0235 1.91992 25.0665Z"
        fill="#E11311" />
    <path fill-rule="evenodd" clip-rule="evenodd"
        d="M4.5869 24.2129C4.66253 24.3093 4.76919 24.3448 4.9069 24.3196C4.04674 24.5759 3.15789 24.7537 2.24023 24.8529C2.9933 24.5755 3.77549 24.3621 4.5869 24.2129Z"
        fill="#F5C0C3" />
</svg>