<svg width="32" height="32" viewBox="0 0 32 32" fill="none" xmlns="http://www.w3.org/2000/svg">
    <g clip-path="url(#clip0_5614_371)">
        <path fill-rule="evenodd" clip-rule="evenodd"
            d="M-0.0571289 -0.0576172C10.6095 -0.0576172 21.2762 -0.0576172 31.9429 -0.0576172C31.9429 10.609 31.9429 21.2758 31.9429 31.9424C21.2762 31.9424 10.6095 31.9424 -0.0571289 31.9424C-0.0571289 21.2758 -0.0571289 10.609 -0.0571289 -0.0576172Z"
            fill="#0038FA" />
        <path fill-rule="evenodd" clip-rule="evenodd"
            d="M14.5715 7.14241C17.8935 6.83258 20.6364 7.9183 22.8 10.3996C22.1277 11.1293 21.4039 11.796 20.6286 12.3996C18.9029 10.4339 16.7696 9.76722 14.2286 10.3996C10.9961 11.8551 9.79614 14.3122 10.6286 17.771C10.9569 18.7345 11.5093 19.5345 12.2858 20.171C11.6371 20.9338 10.9133 21.6196 10.1143 22.2281C8.48837 20.7669 7.55504 18.9383 7.31433 16.7424C7.24753 11.649 9.66659 8.44899 14.5715 7.14241Z"
            fill="#F7F7FA" />
        <path fill-rule="evenodd" clip-rule="evenodd"
            d="M20.7429 24.0568C20.7809 22.8734 20.7428 21.6925 20.6286 20.514C20.5593 20.5281 20.5212 20.5662 20.5143 20.6282C19.2787 21.7599 18.0215 22.8647 16.7429 23.9425C15.3892 23.98 14.0558 23.942 12.7429 23.8282C14.7067 22.0358 16.6495 20.2263 18.5715 18.3997C17.3911 18.3425 16.2102 18.3236 15.0286 18.3425C15.0286 17.352 15.0286 16.3616 15.0286 15.3711C17.9238 15.3711 20.8191 15.3711 23.7143 15.3711C23.7143 18.2663 23.7143 21.1616 23.7143 24.0568C22.7238 24.0568 21.7334 24.0568 20.7429 24.0568Z"
            fill="#F7F8FA" />
        <path fill-rule="evenodd" clip-rule="evenodd"
            d="M20.5144 20.6289C20.5213 20.5669 20.5593 20.5288 20.6287 20.5146C20.7429 21.6932 20.7809 22.8741 20.743 24.0575C20.6667 22.9146 20.5906 21.7718 20.5144 20.6289Z"
            fill="#507CFA" />
        <path fill-rule="evenodd" clip-rule="evenodd"
            d="M12.7429 23.8281C14.0559 23.9418 15.3892 23.9799 16.7429 23.9424C15.3898 24.0938 14.0184 24.0938 12.6287 23.9424C12.6428 23.873 12.6809 23.835 12.7429 23.8281Z"
            fill="#B8C6FA" />
    </g>
    <defs>
        <clipPath id="clip0_5614_371">
            <rect width="32" height="32" fill="white" />
        </clipPath>
    </defs>
</svg>