<svg width="32" height="32" viewBox="0 0 32 32" fill="none" xmlns="http://www.w3.org/2000/svg">
    <path fill-rule="evenodd" clip-rule="evenodd"
        d="M15.019 0.000671323C21.8039 -0.0506206 26.8812 2.83728 30.2508 8.66419C32.1359 12.5251 32.4973 16.5287 31.3352 20.675C29.0478 27.1591 24.4963 30.9165 17.6809 31.9474C12.0218 32.3511 7.33888 30.4314 3.63219 26.1881C0.0935434 21.5997 -0.859471 16.5132 0.773155 10.9285C3.30843 4.40971 8.05709 0.767097 15.019 0.000671323Z"
        fill="#00A751" />
    <path fill-rule="evenodd" clip-rule="evenodd"
        d="M10.7798 10.6333C12.5601 10.6884 13.3981 11.6074 13.2938 13.3899C12.7812 15.015 11.7789 15.4252 10.2869 14.6205C9.57319 13.8545 9.32672 12.952 9.54746 11.9131C9.81256 11.3368 10.2234 10.9102 10.7798 10.6333Z"
        fill="#000200" />
    <path fill-rule="evenodd" clip-rule="evenodd"
        d="M20.2441 10.6333C21.9633 10.6936 22.7027 11.5796 22.4623 13.2914C22.1456 14.5565 21.3406 15.1307 20.0469 15.0143C19.1166 14.6021 18.6565 13.8802 18.6667 12.8484C18.7564 11.792 19.2821 11.0537 20.2441 10.6333Z"
        fill="#000100" />
    <path fill-rule="evenodd" clip-rule="evenodd"
        d="M9.69531 17.9185C11.1994 19.1062 12.8753 19.9759 14.7233 20.5274C16.5027 20.8826 18.2115 20.6857 19.8498 19.9367C20.6653 19.4504 21.2733 18.7777 21.6737 17.9185C22.9753 20.6155 22.2359 22.5024 19.4555 23.5793C17.9681 24.0529 16.4893 24.0201 15.019 23.4808C13.1078 22.7205 11.5797 21.4899 10.4347 19.789C10.1004 19.1971 9.85394 18.5736 9.69531 17.9185Z"
        fill="#000200" />
</svg>