<svg width="32" height="32" viewBox="0 0 32 32" fill="none" xmlns="http://www.w3.org/2000/svg">
    <g clip-path="url(#clip0_5687_45)">
        <path fill-rule="evenodd" clip-rule="evenodd"
            d="M-0.0712891 -0.0712891C10.5954 -0.0712891 21.262 -0.0712891 31.9287 -0.0712891C31.9287 10.5954 31.9287 21.262 31.9287 31.9287C21.262 31.9287 10.5954 31.9287 -0.0712891 31.9287C-0.0712891 21.262 -0.0712891 10.5954 -0.0712891 -0.0712891Z"
            fill="#F2F2F2" />
        <path fill-rule="evenodd" clip-rule="evenodd"
            d="M13.2975 6.75546C15.1213 6.89704 16.9701 6.94445 18.8442 6.89768C18.8442 6.23398 18.8442 5.57028 18.8442 4.90657C18.9742 4.22989 19.3535 3.73212 19.982 3.41324C21.0481 3.08937 22.0911 3.13679 23.1109 3.55546C23.6378 3.92154 23.9696 4.41932 24.1064 5.0488C24.1064 5.66509 24.1064 6.28139 24.1064 6.89768C24.8649 6.89768 25.6235 6.89768 26.382 6.89768C27.0383 7.10361 27.4888 7.53027 27.7331 8.17768C27.8732 14.6334 27.8257 21.0809 27.5909 27.5199C27.3775 27.9228 27.0693 28.231 26.6664 28.4444C19.5553 28.5392 12.4442 28.5392 5.33309 28.4444C4.82708 28.1753 4.47153 27.7724 4.26643 27.2355C4.17161 20.8828 4.17161 14.5303 4.26643 8.17768C4.47153 7.64081 4.82708 7.23784 5.33309 6.9688C6.18512 6.89776 7.03845 6.87405 7.89309 6.89768C7.63486 3.81411 9.00968 2.65264 12.0175 3.41324C12.681 3.76925 13.084 4.31445 13.2264 5.0488C13.2974 5.61572 13.3211 6.18461 13.2975 6.75546Z"
            fill="#1F1F1F" />
        <path fill-rule="evenodd" clip-rule="evenodd"
            d="M9.74229 5.04884C10.3022 5.00709 10.8474 5.05451 11.3778 5.19106C11.4945 6.79008 11.4708 8.37823 11.3067 9.9555C10.8327 10.0503 10.3586 10.0503 9.88451 9.9555C9.8134 9.88439 9.74229 9.81328 9.67118 9.74217C9.5561 8.16686 9.5798 6.60242 9.74229 5.04884Z"
            fill="#EDEDED" />
        <path fill-rule="evenodd" clip-rule="evenodd"
            d="M20.6934 5.04884C21.2534 5.00709 21.7985 5.05451 22.329 5.19106C22.4238 6.7081 22.4238 8.22513 22.329 9.74217C22.0699 9.96196 21.7617 10.0568 21.4045 10.0266C21.1 10.0105 20.8392 9.9157 20.6223 9.74217C20.5073 8.16686 20.531 6.60242 20.6934 5.04884Z"
            fill="#F0F0F0" />
        <path fill-rule="evenodd" clip-rule="evenodd"
            d="M18.8445 4.90674C18.8445 5.57045 18.8445 6.23414 18.8445 6.89785C16.9705 6.94461 15.1216 6.89721 13.2979 6.75563C15.0994 6.75563 16.9008 6.75563 18.7023 6.75563C18.6571 6.11103 18.7044 5.49474 18.8445 4.90674Z"
            fill="#838383" />
        <path fill-rule="evenodd" clip-rule="evenodd"
            d="M24.1064 5.04883C24.2462 5.58905 24.2938 6.15793 24.2487 6.75549C24.9875 6.70991 25.6986 6.75732 26.382 6.89772C25.6235 6.89772 24.8649 6.89772 24.1064 6.89772C24.1064 6.28143 24.1064 5.66512 24.1064 5.04883Z"
            fill="#959595" />
        <path fill-rule="evenodd" clip-rule="evenodd"
            d="M16.4268 12.3022C17.9438 12.3022 19.4608 12.3022 20.9779 12.3022C20.9779 13.6771 20.9779 15.0518 20.9779 16.4267C19.4608 16.4267 17.9438 16.4267 16.4268 16.4267C16.4268 15.0518 16.4268 13.6771 16.4268 12.3022Z"
            fill="#EEEEEE" />
        <path fill-rule="evenodd" clip-rule="evenodd"
            d="M6.04443 12.3022C7.37184 12.3022 8.69925 12.3022 10.0267 12.3022C10.0267 13.6296 10.0267 14.9571 10.0267 16.2845C8.69925 16.2845 7.37184 16.2845 6.04443 16.2845C6.04443 14.9571 6.04443 13.6296 6.04443 12.3022Z"
            fill="#F3F3F3" />
        <path fill-rule="evenodd" clip-rule="evenodd"
            d="M6.04443 12.3024C7.41925 12.1128 8.79406 12.1128 10.1689 12.3024C10.1689 13.6772 10.1689 15.052 10.1689 16.4268C8.79406 16.4268 7.41925 16.4268 6.04443 16.4268C6.04443 16.3795 6.04443 16.332 6.04443 16.2846C7.37184 16.2846 8.69925 16.2846 10.0267 16.2846C10.0267 14.9572 10.0267 13.6298 10.0267 12.3024C8.69925 12.3024 7.37184 12.3024 6.04443 12.3024Z"
            fill="#9C9C9C" />
        <path fill-rule="evenodd" clip-rule="evenodd"
            d="M11.0223 12.3022C11.0223 13.677 11.0223 15.0518 11.0223 16.4266C12.5394 16.4266 14.0564 16.4266 15.5734 16.4266C15.5734 15.0518 15.5734 13.677 15.5734 12.3022C15.6551 12.156 15.7024 12.0138 15.7157 11.8755C15.92 12.2374 16.1334 12.2374 16.3557 11.8755C16.4244 12.0104 16.448 12.1526 16.4268 12.3022C16.4268 13.677 16.4268 15.0518 16.4268 16.4266C17.9439 16.4266 19.4608 16.4266 20.9779 16.4266C21.0959 15.1242 21.167 13.7968 21.1912 12.4444C21.2386 13.6296 21.2861 14.8148 21.3334 16C21.4779 15.8387 21.5728 15.8861 21.6179 16.1422C21.6421 14.8845 21.7132 13.6519 21.8312 12.4444C21.8312 13.7718 21.8312 15.0993 21.8312 16.4266C23.1586 16.4266 24.4861 16.4266 25.8134 16.4266C24.6533 16.5445 23.4682 16.6157 22.2579 16.64C21.9121 16.7953 21.9121 16.9613 22.2579 17.1378C22.1157 17.1378 21.9734 17.1378 21.8312 17.1378C21.7846 18.7277 21.8319 20.2921 21.9734 21.8311C23.3008 21.8311 24.6283 21.8311 25.9557 21.8311C24.9243 21.9515 23.7865 22.0227 22.5423 22.0444C23.3234 22.2273 24.1294 22.3222 24.9601 22.3289C24.2016 22.3762 23.443 22.4237 22.6846 22.4711C23.7819 22.5849 24.8724 22.5611 25.9557 22.4C26.0926 22.4668 26.0926 22.5617 25.9557 22.6844C24.5808 22.6844 23.2061 22.6844 21.8312 22.6844C22.173 22.6004 22.3626 22.4344 22.4001 22.1866C22.2579 22.1393 22.1157 22.0918 21.9734 22.0444C20.1246 21.9496 18.2757 21.9496 16.4268 22.0444C16.5216 22.1866 16.6164 22.3289 16.7112 22.4711C18.1583 22.4953 19.5806 22.5664 20.9779 22.6844C19.4608 22.6844 17.9439 22.6844 16.4268 22.6844C16.4268 24.0593 16.4268 25.434 16.4268 26.8089C17.8964 26.8089 19.3661 26.8089 20.8357 26.8089C19.3435 26.9269 17.8264 26.998 16.2846 27.0222C16.2134 27.0933 16.1423 27.1644 16.0712 27.2355C15.9764 27.0459 15.8816 27.0459 15.7868 27.2355C15.7394 27.1407 15.6919 27.0459 15.6446 26.9511C14.1457 26.9088 12.6287 26.9562 11.0934 27.0933C11.0274 27.0088 11.0037 26.914 11.0223 26.8089C10.928 26.5896 10.8332 26.3525 10.7379 26.0978C10.5656 26.2078 10.5656 26.3263 10.7379 26.4533C10.5056 26.5216 10.316 26.64 10.169 26.8089C10.2155 25.4083 10.1681 24.0335 10.0268 22.6844C8.69938 22.6844 7.37196 22.6844 6.04456 22.6844C7.02747 22.5423 8.11784 22.495 9.31567 22.5422C9.31567 22.3526 9.31567 22.1629 9.31567 21.9733C8.24628 22.0195 7.20333 21.9722 6.18678 21.8311C7.51418 21.8311 8.8416 21.8311 10.169 21.8311C10.169 20.314 10.169 18.7971 10.169 17.28C8.86407 17.1851 7.53667 17.0904 6.18678 16.9955C6.3296 16.6859 6.23478 16.6384 5.90233 16.8533C5.69492 16.6203 5.64751 16.3833 5.76011 16.1422C5.85708 16.2479 5.9519 16.3426 6.04456 16.4266C7.41938 16.4266 8.79418 16.4266 10.169 16.4266C10.169 15.0518 10.169 13.677 10.169 12.3022C10.2568 12.3179 10.3279 12.3653 10.3823 12.4444C10.212 11.9607 10.3542 11.5815 10.809 11.3066C10.9577 11.5328 11.1237 11.7462 11.3068 11.9466C12.4446 11.994 13.5823 12.0415 14.7201 12.0889C13.4624 12.1131 12.2298 12.1842 11.0223 12.3022Z"
            fill="#191919" />
        <path fill-rule="evenodd" clip-rule="evenodd"
            d="M11.0225 12.3022C12.5395 12.3022 14.0565 12.3022 15.5736 12.3022C15.5736 13.6771 15.5736 15.0518 15.5736 16.4267C14.0565 16.4267 12.5395 16.4267 11.0225 16.4267C11.0225 15.0518 11.0225 13.6771 11.0225 12.3022Z"
            fill="#EFEFEF" />
        <path fill-rule="evenodd" clip-rule="evenodd"
            d="M25.9555 12.3024C26.0502 12.9644 26.0976 13.6518 26.0977 14.3646C26.0969 15.1064 26.002 15.7938 25.8133 16.4268C24.4859 16.4268 23.1584 16.4268 21.8311 16.4268C21.8311 15.0995 21.8311 13.772 21.8311 12.4446C22.4641 12.2559 23.1514 12.1611 23.8933 12.1602C24.6061 12.1603 25.2935 12.2077 25.9555 12.3024Z"
            fill="#808080" />
        <path fill-rule="evenodd" clip-rule="evenodd"
            d="M25.9554 12.3022C25.9554 13.6296 25.9554 14.9571 25.9554 16.2845C24.628 16.2845 23.3005 16.2845 21.9731 16.2845C21.9731 14.9571 21.9731 13.6296 21.9731 12.3022C23.3005 12.3022 24.628 12.3022 25.9554 12.3022Z"
            fill="#F3F3F3" />
        <path fill-rule="evenodd" clip-rule="evenodd"
            d="M25.9554 17.2798C25.9554 18.7969 25.9554 20.3138 25.9554 21.8309C24.628 21.8309 23.3005 21.8309 21.9731 21.8309C21.9731 20.3138 21.9731 18.7969 21.9731 17.2798C23.3005 17.2798 24.628 17.2798 25.9554 17.2798Z"
            fill="#F2F2F2" />
        <path fill-rule="evenodd" clip-rule="evenodd"
            d="M10.0267 17.2798C10.0267 18.7494 10.0267 20.2191 10.0267 21.6887C8.69925 21.6887 7.37184 21.6887 6.04443 21.6887C6.04443 20.2191 6.04443 18.7494 6.04443 17.2798C7.37184 17.2798 8.69925 17.2798 10.0267 17.2798Z"
            fill="#F3F3F3" />
        <path fill-rule="evenodd" clip-rule="evenodd"
            d="M11.0225 17.2798C12.5395 17.2798 14.0565 17.2798 15.5736 17.2798C15.5736 18.7969 15.5736 20.3138 15.5736 21.8309C14.0565 21.8309 12.5395 21.8309 11.0225 21.8309C11.0225 20.3138 11.0225 18.7969 11.0225 17.2798Z"
            fill="#F2F2F2" />
        <path fill-rule="evenodd" clip-rule="evenodd"
            d="M22.258 17.1378C23.5165 17.0914 24.7492 17.1388 25.9558 17.28C24.6284 17.28 23.3009 17.28 21.9735 17.28C21.9735 18.7971 21.9735 20.3141 21.9735 21.8311C21.832 20.2922 21.7847 18.7277 21.8313 17.1378C21.9735 17.1378 22.1158 17.1378 22.258 17.1378Z"
            fill="#828282" />
        <path fill-rule="evenodd" clip-rule="evenodd"
            d="M10.0267 17.2798C10.0741 17.2798 10.1215 17.2798 10.1689 17.2798C10.1689 18.7969 10.1689 20.3138 10.1689 21.8309C8.84148 21.8309 7.51406 21.8309 6.18666 21.8309C6.09184 21.8309 6.04443 21.7835 6.04443 21.6887C7.37184 21.6887 8.69925 21.6887 10.0267 21.6887C10.0267 20.2191 10.0267 18.7494 10.0267 17.2798Z"
            fill="#BEBEBE" />
        <path fill-rule="evenodd" clip-rule="evenodd"
            d="M16.5687 17.2798C16.5687 18.7494 16.5687 20.2191 16.5687 21.6887C18.0383 21.6887 19.508 21.6887 20.9776 21.6887C19.4861 21.83 17.9691 21.8775 16.4265 21.8309C16.3799 20.2884 16.4274 18.7713 16.5687 17.2798Z"
            fill="#C6C6C6" />
        <path fill-rule="evenodd" clip-rule="evenodd"
            d="M6.04443 22.6846C7.37184 22.6846 8.69925 22.6846 10.0267 22.6846C10.0267 24.0119 10.0267 25.3394 10.0267 26.6668C8.69925 26.6668 7.37184 26.6668 6.04443 26.6668C6.04443 25.3394 6.04443 24.0119 6.04443 22.6846Z"
            fill="#F3F3F3" />
        <path fill-rule="evenodd" clip-rule="evenodd"
            d="M11.0225 26.809C11.0225 25.4342 11.0225 24.0594 11.0225 22.6846C12.5395 22.6846 14.0565 22.6846 15.5736 22.6846C15.5736 24.0594 15.5736 25.4342 15.5736 26.809C14.0565 26.809 12.5395 26.809 11.0225 26.809Z"
            fill="#F2F2F2" />
        <path fill-rule="evenodd" clip-rule="evenodd"
            d="M20.9779 22.6846C21.0244 24.0852 20.977 25.4599 20.8356 26.809C19.3661 26.809 17.8963 26.809 16.4268 26.809C16.4268 25.4342 16.4268 24.0594 16.4268 22.6846C17.9438 22.6846 19.4608 22.6846 20.9779 22.6846Z"
            fill="#F1F1F1" />
        <path fill-rule="evenodd" clip-rule="evenodd"
            d="M21.8311 22.6846C23.2059 22.6846 24.5806 22.6846 25.9555 22.6846C25.9555 24.0594 25.9555 25.4342 25.9555 26.809C24.5806 26.809 23.2059 26.809 21.8311 26.809C21.8311 25.4342 21.8311 24.0594 21.8311 22.6846Z"
            fill="#EFEFEF" />
        <path fill-rule="evenodd" clip-rule="evenodd"
            d="M10.0267 22.6846C10.168 24.0337 10.2154 25.4084 10.1689 26.809C8.7683 26.8555 7.3935 26.8082 6.04443 26.6668C7.37184 26.6668 8.69925 26.6668 10.0267 26.6668C10.0267 25.3394 10.0267 24.0119 10.0267 22.6846Z"
            fill="#CACACA" />
    </g>
    <defs>
        <clipPath id="clip0_5687_45">
            <rect width="32" height="32" fill="white" />
        </clipPath>
    </defs>
</svg>