<svg width="32" height="32" viewBox="0 0 32 32" fill="none" xmlns="http://www.w3.org/2000/svg">
    <g clip-path="url(#clip0_5567_103)">
        <path fill-rule="evenodd" clip-rule="evenodd"
            d="M-0.0800781 -0.0849609C10.5866 -0.0849609 21.2532 -0.0849609 31.9199 -0.0849609C31.9199 10.5817 31.9199 21.2483 31.9199 31.915C21.2532 31.915 10.5866 31.915 -0.0800781 31.915C-0.0800781 21.2483 -0.0800781 10.5817 -0.0800781 -0.0849609Z"
            fill="#0083DA" />
        <path fill-rule="evenodd" clip-rule="evenodd"
            d="M13.84 5.70199C13.4666 5.47504 13.0933 5.47504 12.72 5.70199C12.08 5.70199 11.44 5.70199 10.8 5.70199C10.5523 5.75666 10.4456 5.92687 10.48 6.21263C10.1244 6.20263 9.96439 6.00406 9.99997 5.61688C10.0155 4.913 10.2822 4.74279 10.8 5.10624C10.6655 5.3899 10.7455 5.41826 11.04 5.19135C11.2201 5.43707 11.4601 5.55053 11.76 5.53178C12.1885 5.45761 12.6152 5.37251 13.04 5.27646C12.76 4.97787 12.6533 4.60909 12.72 4.17007C12.0246 4.19828 11.3313 4.1699 10.64 4.08497C11.7587 3.99993 12.8787 3.97155 14 3.99986C14.0065 4.57528 13.9531 5.14265 13.84 5.70199Z"
            fill="#0887D6" />
        <path fill-rule="evenodd" clip-rule="evenodd"
            d="M14.8001 13.8722C14.6158 14.2448 14.3758 14.2448 14.0801 13.8722C13.8987 11.1521 13.8187 8.42874 13.8401 5.70203C14.1519 5.91049 14.3653 5.79701 14.4801 5.36161C14.6779 5.23466 14.8912 5.17791 15.1201 5.19139C15.0051 5.62927 14.8451 6.0548 14.6401 6.46799C14.7402 6.59572 14.8202 6.73757 14.8801 6.89352C14.9867 9.10629 14.9867 11.3191 14.8801 13.5318C14.6811 13.3895 14.4945 13.4462 14.3201 13.702C14.4521 13.8528 14.6121 13.9095 14.8001 13.8722Z"
            fill="#0184D5" />
        <path fill-rule="evenodd" clip-rule="evenodd"
            d="M15.2801 14.2129C15.3868 14.0994 15.4934 13.9859 15.6001 13.8724C17.5451 13.4459 18.9584 14.1835 19.8401 16.0852C20.152 16.7881 20.3387 17.5257 20.4001 18.298C20.6033 20.5049 20.7099 22.7177 20.7201 24.9363C20.6171 25.3863 20.3504 25.6701 19.9201 25.7873C19.3304 25.9827 18.7436 25.9827 18.1601 25.7873C18.027 23.9175 17.947 22.0452 17.9201 20.1703C17.6708 18.0638 16.5774 17.3546 14.6401 18.0426C14.2234 18.3672 13.9567 18.7928 13.8401 19.3192C13.2634 19.7335 12.9968 20.3293 13.0401 21.1065C13.3456 22.3626 13.5589 23.6392 13.6801 24.9363C12.9905 24.8375 12.2972 24.7807 11.6001 24.7661C11.4801 18.5118 11.3201 12.2706 11.1201 6.04265C11.7496 5.96113 12.3363 6.07461 12.8801 6.38307C12.9868 6.32634 13.0934 6.26959 13.2001 6.21286C13.3818 9.11819 13.4085 12.0118 13.2801 14.8937C13.9866 15.3604 14.6533 15.2753 15.2801 14.6384C15.1044 14.5074 15.1044 14.3655 15.2801 14.2129Z"
            fill="#F7F9F7" />
        <path fill-rule="evenodd" clip-rule="evenodd"
            d="M13.84 5.70195C13.8186 8.42865 13.8986 11.1521 14.08 13.8722C14.3757 14.2447 14.6157 14.2447 14.8 13.8722C15.0666 13.8722 15.3333 13.8722 15.6 13.8722C15.4933 13.9856 15.3866 14.0991 15.28 14.2126C14.8915 14.3338 14.5182 14.504 14.16 14.7232C14.0398 14.5741 13.9598 14.4039 13.92 14.2126C13.758 11.4919 13.6246 8.76845 13.52 6.04237C13.2262 5.95257 12.9595 5.8391 12.72 5.70195C13.0933 5.475 13.4666 5.475 13.84 5.70195Z"
            fill="#3284B5" />
        <path fill-rule="evenodd" clip-rule="evenodd"
            d="M10.8 5.70215C11.44 5.70215 12.08 5.70215 12.72 5.70215C12.9596 5.83931 13.2263 5.95277 13.52 6.04257C13.6247 8.76865 13.758 11.4921 13.92 14.2128C13.9599 14.4041 14.0399 14.5743 14.16 14.7234C14.5183 14.5042 14.8916 14.334 15.28 14.2128C15.1044 14.3655 15.1044 14.5073 15.28 14.6383C14.6532 15.2752 13.9865 15.3603 13.28 14.8936C13.4084 12.0117 13.3818 9.11811 13.2 6.21279C13.0934 6.26952 12.9867 6.32627 12.88 6.383C12.3362 6.07454 11.7496 5.96106 11.12 6.04257C11.32 12.2705 11.48 18.5117 11.6 24.766C12.2971 24.7806 12.9904 24.8375 13.68 24.9362C13.5588 23.6392 13.3455 22.3626 13.04 21.1064C12.9967 20.3292 13.2634 19.7335 13.84 19.3192C13.6506 19.9536 13.5439 20.606 13.52 21.2766C13.7194 22.5496 13.8794 23.8262 14 25.1064C13.9823 25.2114 13.929 25.2965 13.84 25.3617C12.8511 25.5757 11.9444 25.4339 11.12 24.9362C11.1726 18.5209 11.066 12.1095 10.8 5.70215Z"
            fill="#D8F5F9" />
        <path fill-rule="evenodd" clip-rule="evenodd"
            d="M20.2401 16.2551C20.4169 16.9875 20.6302 17.6967 20.8801 18.3828C20.8451 19.0095 20.8451 19.6621 20.8801 20.3403C20.6684 19.6715 20.5084 18.9906 20.4001 18.2977C20.3387 17.5254 20.1519 16.7878 19.8401 16.0849C18.9583 14.1833 17.5451 13.4457 15.6001 13.8722C15.6178 13.7671 15.6711 13.682 15.7601 13.6168C16.5601 13.5034 17.3601 13.5034 18.1601 13.6168C18.4412 13.9639 18.7879 14.2192 19.2001 14.3828C19.1667 15.0567 19.4601 15.3404 20.0801 15.2339C20.0801 15.0637 20.0801 14.8934 20.0801 14.7232C20.2401 14.7232 20.4001 14.7232 20.5601 14.7232C20.586 15.0683 20.5593 15.4087 20.4801 15.7445C20.2654 15.5058 20.1319 15.5626 20.0801 15.9147C20.087 16.0707 20.1403 16.1842 20.2401 16.2551Z"
            fill="#2785BF" />
        <path fill-rule="evenodd" clip-rule="evenodd"
            d="M10.4801 7.74463C10.8021 13.4709 11.0154 19.2015 11.1201 24.9361C11.9445 25.4338 12.8511 25.5756 13.8401 25.3616C13.929 25.2965 13.9824 25.2114 14.0001 25.1063C14.1563 24.6319 14.2097 24.1213 14.1601 23.5744C14.3618 24.0439 14.4951 24.5545 14.5601 25.1063C14.713 24.9227 14.8464 24.7242 14.9601 24.5106C14.9283 23.5959 14.9283 22.6597 14.9601 21.7021C15.4776 21.7468 15.6909 21.4915 15.6001 20.9361C15.5867 20.3225 15.4267 20.2374 15.1201 20.6808C14.9981 20.4888 14.8915 20.2902 14.8001 20.0851C14.9497 19.6798 15.003 19.2542 14.9601 18.8085C15.1734 18.8085 15.3867 18.8085 15.6001 18.8085C15.6001 18.922 15.6534 18.9787 15.7601 18.9787C15.7829 19.2786 15.7296 19.5623 15.6001 19.8297C15.7635 19.9751 15.8969 20.1453 16.0001 20.3404C16.0534 20.2268 16.1068 20.1135 16.1601 19.9999C16.2654 20.3914 16.3454 20.7885 16.4001 21.1914C16.1068 21.8434 15.7868 22.4958 15.4401 23.1489C15.4934 23.2056 15.5467 23.2624 15.6001 23.3191C15.295 24.0881 15.1883 24.9109 15.2801 25.7872C15.0172 25.7906 14.8039 25.6771 14.6401 25.4468C14.4567 25.5565 14.2967 25.6983 14.1601 25.8723C13.4086 25.9199 12.6619 26.0051 11.9201 26.1276C11.4186 26.0015 10.9386 25.8313 10.4801 25.617C10.5257 25.3126 10.4724 25.0289 10.3201 24.7659C10.1999 24.915 10.1199 25.0852 10.0801 25.2765C9.94355 23.2202 10.0502 21.1776 10.4001 19.1489C10.4534 20.4539 10.5067 21.7588 10.5601 23.0638C10.8745 21.1341 10.8745 19.2051 10.5601 17.2765C10.3888 19.2777 10.2021 19.2495 10.0001 17.1914C9.95331 16.6443 10.0867 16.162 10.4001 15.7446C10.542 16.6343 10.622 16.606 10.6401 15.6595C10.6134 15.4042 10.5867 15.1489 10.5601 14.8936C10.413 14.8203 10.2796 14.7636 10.1601 14.7234C10.2457 14.422 10.3791 14.3652 10.5601 14.5531C10.609 13.9002 10.6357 13.2761 10.6401 12.6808C10.3504 12.6938 10.1371 12.4953 10.0001 12.0851C10.3874 10.6747 10.5474 9.22788 10.4801 7.74463Z"
            fill="#0784D1" />
        <path fill-rule="evenodd" clip-rule="evenodd"
            d="M19.9201 25.7874C18.3569 26.8175 17.6102 26.3635 17.6801 24.4256C17.8903 23.0239 17.8903 21.6056 17.6801 20.1703C17.2231 18.6965 16.2631 18.1007 14.8001 18.3831C14.505 18.7254 14.185 19.0376 13.8401 19.3193C13.9567 18.7928 14.2234 18.3673 14.6401 18.0427C16.5774 17.3547 17.6708 18.0638 17.9201 20.1703C17.947 22.0452 18.027 23.9176 18.1601 25.7874C18.7436 25.9828 19.3303 25.9828 19.9201 25.7874Z"
            fill="#D7F3F8" />
        <path fill-rule="evenodd" clip-rule="evenodd"
            d="M10.7999 5.70215C11.0658 12.1095 11.1725 18.5209 11.1199 24.9362C11.0153 19.2016 10.8019 13.471 10.4799 7.7447C10.6188 7.20467 10.6188 6.69403 10.4799 6.21279C10.4455 5.92703 10.5522 5.75682 10.7999 5.70215Z"
            fill="#3586BB" />
        <path fill-rule="evenodd" clip-rule="evenodd"
            d="M17.68 20.1703C17.5026 20.1606 17.3426 20.1039 17.2 20.0001C16.9648 19.719 16.7515 19.4069 16.56 19.0639C16.2986 18.9798 16.0319 18.9516 15.76 18.9788C15.6533 18.9788 15.6 18.9221 15.6 18.8086C15.1312 18.5407 14.7312 18.654 14.4 19.149C14.156 19.6971 14.0493 20.2644 14.08 20.8511C14.9146 21.046 14.968 21.3298 14.24 21.7022C14.1602 22.3238 14.1336 22.9478 14.16 23.5745C14.2096 24.1214 14.1563 24.6321 14 25.1065C13.8794 23.8263 13.7194 22.5497 13.52 21.2767C13.5439 20.606 13.6505 19.9536 13.84 19.3192C14.1849 19.0375 14.5049 18.7253 14.8 18.383C16.2631 18.1007 17.2231 18.6964 17.68 20.1703Z"
            fill="#2885BE" />
        <path fill-rule="evenodd" clip-rule="evenodd"
            d="M20.3999 18.2979C20.5082 18.9908 20.6682 19.6716 20.8799 20.3404C20.9753 21.8155 21.0018 23.2905 20.9599 24.7659C20.8986 24.8606 20.8186 24.9173 20.7199 24.9361C20.7097 22.7176 20.6031 20.5048 20.3999 18.2979Z"
            fill="#CDF4F8" />
        <path fill-rule="evenodd" clip-rule="evenodd"
            d="M15.6001 18.8087C15.3868 18.8087 15.1734 18.8087 14.9601 18.8087C15.003 19.2544 14.9497 19.68 14.8001 20.0853C14.8915 20.2904 14.9982 20.489 15.1201 20.681C15.4267 20.2376 15.5867 20.3227 15.6001 20.9363C15.6909 21.4917 15.4776 21.747 14.9601 21.7023C14.9283 22.6599 14.9283 23.5961 14.9601 24.5108C14.8464 24.7244 14.713 24.9229 14.5601 25.1065C14.4951 24.5547 14.3618 24.0441 14.1601 23.5746C14.1336 22.9479 14.1603 22.3239 14.2401 21.7023C14.968 21.3299 14.9147 21.0461 14.0801 20.8512C14.0494 20.2645 14.1561 19.6972 14.4001 19.1491C14.7312 18.6541 15.1312 18.5407 15.6001 18.8087Z"
            fill="#0283DD" />
        <path fill-rule="evenodd" clip-rule="evenodd"
            d="M17.2 20C17.3425 20.1038 17.5025 20.1605 17.68 20.1702C17.8902 21.6054 17.8902 23.0238 17.68 24.4255C17.479 24.4189 17.319 24.504 17.2 24.6809C17.351 25.1437 17.4043 25.6259 17.36 26.1277C17.16 26.1146 17.0267 26.001 16.96 25.7872C17.0181 25.0551 17.0181 24.3176 16.96 23.5745C16.8177 23.8107 16.7377 23.7825 16.72 23.4894C16.8544 23.1886 17.0677 22.9615 17.36 22.8085C17.1467 22.695 17.1467 22.5816 17.36 22.4681C17.2533 22.4114 17.1467 22.3546 17.04 22.2979C17.2025 22.0124 17.3625 21.7289 17.52 21.4468C17.3301 20.9831 17.2235 20.5009 17.2 20Z"
            fill="#1483CD" />
        <path fill-rule="evenodd" clip-rule="evenodd"
            d="M20.56 25.9576C20.8922 25.7998 21.0789 25.5162 21.12 25.1065C21.2622 23.4801 21.1822 21.8914 20.88 20.3406C20.845 19.6624 20.845 19.0098 20.88 18.3831C20.6301 17.697 20.4168 16.9879 20.24 16.2555C20.3387 16.2743 20.4187 16.331 20.48 16.4257C20.5477 16.1778 20.681 16.0927 20.88 16.1704C21.0795 16.4185 21.0795 16.6738 20.88 16.9363C21.1973 17.1886 21.4906 17.4723 21.76 17.7874C22.2038 17.6132 22.6571 17.6132 23.12 17.7874C23.1693 18.2 23.1158 18.5971 22.96 18.9789C22.7467 19.2058 22.5333 19.2058 22.32 18.9789C22.0779 20.7266 21.9446 22.4856 21.92 24.2555C21.7347 24.3402 21.6014 24.482 21.52 24.681C21.576 24.8949 21.6827 24.9518 21.84 24.8512C21.9538 24.6376 22.087 24.4391 22.24 24.2555C22.2674 23.3988 22.3474 22.5477 22.48 21.7023C22.6184 22.8618 22.805 23.9966 23.04 25.1065C22.9333 25.3334 22.8267 25.3334 22.72 25.1065C22.8032 26.1559 22.3498 26.6098 21.36 26.4682C21.3558 27.2076 21.0358 27.4347 20.4 27.1491C20.5506 26.7624 20.7638 26.4219 21.04 26.1278C20.908 25.977 20.748 25.9203 20.56 25.9576Z"
            fill="#0286D4" />
        <path fill-rule="evenodd" clip-rule="evenodd"
            d="M20.88 20.3403C21.1822 21.8911 21.2622 23.4799 21.12 25.1063C21.0788 25.516 20.8921 25.7996 20.56 25.9574C20.2454 26.0859 20.192 26.2843 20.4 26.5531C19.4491 26.8418 18.4891 26.87 17.52 26.6382C17.4196 26.4821 17.3662 26.3119 17.36 26.1276C17.4043 25.6258 17.351 25.1436 17.2 24.6808C17.319 24.5039 17.479 24.4188 17.68 24.4254C17.61 26.3633 18.3568 26.8173 19.92 25.7871C20.3502 25.6699 20.6169 25.3861 20.72 24.9361C20.8187 24.9172 20.8987 24.8605 20.96 24.7659C21.0019 23.2905 20.9753 21.8154 20.88 20.3403Z"
            fill="#1C84C3" />
    </g>
    <defs>
        <clipPath id="clip0_5567_103">
            <rect width="32" height="32" fill="white" />
        </clipPath>
    </defs>
</svg>