<svg width="32" height="32" viewBox="0 0 32 32" fill="none" xmlns="http://www.w3.org/2000/svg">
    <g clip-path="url(#clip0_5703_3989)">
        <path fill-rule="evenodd" clip-rule="evenodd"
            d="M-0.0710449 -0.0712891C10.5956 -0.0712891 21.2623 -0.0712891 31.929 -0.0712891C31.929 10.5954 31.929 21.262 31.929 31.9287C21.2623 31.9287 10.5956 31.9287 -0.0710449 31.9287C-0.0710449 21.262 -0.0710449 10.5954 -0.0710449 -0.0712891Z"
            fill="#F9F9F9" />
        <path fill-rule="evenodd" clip-rule="evenodd"
            d="M16.4266 2.9155C17.0838 2.84335 17.7 2.96186 18.2755 3.27105C21.3369 6.14317 24.3947 9.01133 27.4488 11.8755C28.3249 13.2745 28.0167 14.3412 26.5244 15.0755C26.0317 15.1917 25.5575 15.1442 25.1021 14.9333C22.4136 12.6147 19.8062 10.1969 17.2799 7.67994C17.185 7.58512 17.0903 7.58512 16.9955 7.67994C14.6962 9.9792 12.397 12.2785 10.0977 14.5777C10.0503 18.8444 10.0029 23.1111 9.95547 27.3777C9.33115 28.692 8.35931 29.0476 7.03991 28.4444C6.66929 28.1688 6.40856 27.8132 6.25769 27.3777C6.18658 24.2966 6.16288 21.2151 6.18658 18.1333C4.78203 18.2378 3.97612 17.5978 3.7688 16.2133C3.7949 15.708 3.96083 15.2577 4.26658 14.8622C4.84137 14.2634 5.43397 13.6945 6.04435 13.1555C6.12794 11.9152 6.24645 10.6826 6.39991 9.45772C7.04413 8.65123 7.87376 8.39048 8.8888 8.6755C9.19845 8.89095 9.5066 9.10428 9.81324 9.3155C12.0035 7.1486 14.208 5.01527 16.4266 2.9155Z"
            fill="#7DAE39" />
    </g>
    <defs>
        <clipPath id="clip0_5703_3989">
            <rect width="32" height="32" fill="white" />
        </clipPath>
    </defs>
</svg>