<svg width="32" height="32" viewBox="0 0 32 32" fill="none" xmlns="http://www.w3.org/2000/svg">
    <g clip-path="url(#clip0_5665_4372)">
        <path fill-rule="evenodd" clip-rule="evenodd"
            d="M-0.0712891 -0.0712891C10.5954 -0.0712891 21.262 -0.0712891 31.9287 -0.0712891C31.9287 10.5954 31.9287 21.262 31.9287 31.9287C21.262 31.9287 10.5954 31.9287 -0.0712891 31.9287C-0.0712891 21.262 -0.0712891 10.5954 -0.0712891 -0.0712891Z"
            fill="#F9F9F9" />
        <path fill-rule="evenodd" clip-rule="evenodd"
            d="M12.4443 13.5824C12.5528 13.6916 12.695 13.7627 12.871 13.7958C11.729 13.9622 10.5912 14.1518 9.45764 14.3646C9.07202 14.544 8.76388 14.8047 8.5332 15.1469C8.32052 17.0888 8.51016 18.9852 9.10209 20.8358C9.73566 20.3413 10.4231 19.9382 11.1643 19.6269C12.0695 19.4952 12.9229 19.6374 13.7243 20.0535C11.9447 19.9024 10.5462 20.5424 9.52875 21.9735C9.28211 22.4737 9.18731 22.9953 9.24431 23.538C10.6973 21.6739 12.5936 20.6783 14.9332 20.5513C15.1943 18.9384 15.455 17.3264 15.7154 15.7158C14.3398 15.6922 12.965 15.7158 11.591 15.7869C11.0981 15.8793 10.6715 16.0926 10.311 16.4269C10.0663 17.0168 10.256 17.4197 10.8799 17.6358C11.7578 17.9203 12.6586 18.0388 13.5821 17.9913C13.5163 18.4154 13.4688 18.8421 13.4399 19.2713C11.9889 19.3963 10.78 18.9223 9.8132 17.8491C9.09402 16.0402 9.68662 14.8786 11.591 14.3646C12.2454 14.205 12.9091 14.1339 13.5821 14.1513C15.0301 14.1048 16.4523 14.1522 17.8488 14.2935C17.3993 16.3984 16.8779 18.4844 16.2843 20.5513C16.8454 20.6923 17.4143 20.7396 17.991 20.6935C18.4312 18.5167 18.8814 16.336 19.3421 14.1513C19.9204 14.0143 20.513 13.9669 21.1199 14.0091C21.1432 14.3912 21.1194 14.7706 21.0488 15.1469C20.3428 17.0034 19.7975 18.8997 19.4132 20.8358C19.5554 20.8358 19.6976 20.8358 19.8399 20.8358C19.9276 19.7121 20.3307 18.7165 21.0488 17.8491C22.856 15.5583 25.2026 14.5865 28.0888 14.9335C30.7469 15.8773 31.1736 17.3944 29.3688 19.4846C28.9839 19.756 28.5572 19.8745 28.0888 19.8402C28.0765 19.5306 27.9817 19.2461 27.8043 18.9869C28.2556 18.7333 28.7296 18.52 29.2265 18.3469C29.8691 17.9014 29.9165 17.4274 29.3688 16.9246C26.1951 16.136 23.7062 17.108 21.9021 19.8402C20.9482 22.3905 21.8251 23.6705 24.5332 23.6802C25.6085 23.6933 26.6277 23.4563 27.591 22.9691C27.8347 23.051 28.0007 23.217 28.0888 23.4669C26.4956 24.5404 24.7414 24.9197 22.8265 24.6046C21.1635 24.2932 20.2153 23.3214 19.9821 21.6891C19.6181 21.6734 19.2863 21.7682 18.9865 21.9735C18.7267 22.7765 18.4896 23.5825 18.2754 24.3913C17.9436 24.3913 17.6117 24.3913 17.2799 24.3913C17.3282 23.5795 17.4231 22.7735 17.5643 21.9735C17.0044 21.9319 16.4592 21.9792 15.9288 22.1158C15.5863 23.2355 15.3256 24.3733 15.1465 25.5291C14.7672 25.5291 14.3881 25.5291 14.0088 25.5291C14.1114 24.6206 14.2537 23.7199 14.4354 22.8269C14.5707 22.6251 14.618 22.3881 14.5776 22.1158C14.3053 22.0754 14.0683 22.1227 13.8665 22.258C12.8424 22.533 11.9417 23.0308 11.1643 23.7513C10.4295 24.4862 9.69468 25.2209 8.95986 25.9558C8.38711 26.6266 7.96044 27.3852 7.67986 28.2313C7.75907 25.1998 7.75907 22.1657 7.67986 19.1291C7.57741 18.1748 7.43518 17.2267 7.2532 16.2846C7.16051 15.9685 6.94718 15.8025 6.6132 15.7869C4.19057 15.821 2.46019 14.7543 1.42209 12.5869C1.21678 11.1264 1.57234 9.82267 2.48875 8.67576C3.21838 8.00605 4.07171 7.76901 5.04875 7.96465C6.31312 8.68596 7.14276 8.3778 7.53764 7.0402C8.61263 5.53077 10.0823 4.77226 11.9465 4.76465C14.2231 4.79624 16.2142 5.55476 17.9199 7.0402C19.6075 6.67395 21.1008 7.05322 22.3999 8.17798C23.3306 9.19548 23.4964 10.3333 22.8976 11.5913C22.4703 12.1015 21.9251 12.4096 21.2621 12.5158C20.1744 12.7349 19.084 12.7586 17.991 12.5869C19.131 12.4275 20.1503 12.0009 21.0488 11.3069C22.0506 9.63697 21.6003 8.61772 19.6976 8.24909C18.6267 7.94634 18.1764 8.34932 18.3465 9.45798C18.0847 9.98181 17.7529 10.4559 17.351 10.8802C17.2914 8.21197 15.9403 6.62383 13.2976 6.11576C11.0715 5.7488 9.3411 6.48362 8.10653 8.3202C7.82489 8.99966 7.68267 9.71077 7.67986 10.4535C6.59047 9.34533 5.33418 9.08459 3.91097 9.67132C2.55216 11.562 2.8366 13.1739 4.76431 14.5069C5.22306 14.6774 5.69714 14.7485 6.18653 14.7202C6.16306 14.2438 6.18677 13.7697 6.25764 13.298C6.45462 13.9948 6.90498 14.3267 7.60875 14.2935C7.47479 13.539 7.45109 12.7805 7.53764 12.018C7.68918 12.6635 7.94992 13.2561 8.31986 13.7958C9.06747 13.9986 9.70747 13.8327 10.2399 13.298C10.3688 12.4485 10.4636 11.5952 10.5243 10.738C10.6415 11.5643 10.926 12.3228 11.3776 13.0135C11.6845 13.2972 12.04 13.4868 12.4443 13.5824Z"
            fill="#2AA4D5" />
        <path fill-rule="evenodd" clip-rule="evenodd"
            d="M13.582 14.1511C13.582 14.1037 13.582 14.0563 13.582 14.0089C15.0547 13.9617 16.5243 14.0091 17.9909 14.1511C17.9733 14.2374 17.9259 14.2848 17.8487 14.2933C16.4522 14.152 15.03 14.1045 13.582 14.1511Z"
            fill="#61BBDE" />
        <path fill-rule="evenodd" clip-rule="evenodd"
            d="M12.4447 13.582C12.6343 13.582 12.8239 13.582 13.0135 13.582C13.0135 13.7243 13.0135 13.8665 13.0135 14.0087C13.2032 14.0087 13.3928 14.0087 13.5824 14.0087C13.5824 14.0561 13.5824 14.1035 13.5824 14.1509C12.9095 14.1335 12.2458 14.2046 11.5913 14.3643C9.68696 14.8782 9.09437 16.0398 9.81354 17.8487C10.7804 18.9219 11.9892 19.3959 13.4402 19.2709C13.4692 18.8417 13.5166 18.415 13.5824 17.9909C12.6589 18.0384 11.7582 17.92 10.8802 17.6354C10.2563 17.4193 10.0667 17.0164 10.3113 16.4265C10.6718 16.0923 11.0985 15.8789 11.5913 15.7865C12.9653 15.7154 14.3402 15.6918 15.7158 15.7154C15.4554 17.326 15.1947 18.938 14.9335 20.5509C12.594 20.6779 10.6977 21.6735 9.24465 23.5376C9.18765 22.9949 9.28246 22.4733 9.5291 21.9731C10.5466 20.542 11.9451 19.902 13.7247 20.0531C12.9232 19.637 12.0699 19.4948 11.1647 19.6265C10.4234 19.9378 9.736 20.3409 9.10243 20.8354C8.5105 18.9848 8.32086 17.0884 8.53354 15.1465C8.76423 14.8043 9.07236 14.5436 9.45799 14.3643C10.5915 14.1514 11.7293 13.9618 12.8713 13.7954C12.6953 13.7624 12.5531 13.6912 12.4447 13.582Z"
            fill="#F3F7F8" />
        <path fill-rule="evenodd" clip-rule="evenodd"
            d="M13.8667 22.2577C14.0685 22.1225 14.3055 22.0751 14.5778 22.1155C14.6182 22.3879 14.5708 22.6248 14.4356 22.8266C14.4356 22.637 14.4356 22.4473 14.4356 22.2577C14.246 22.2577 14.0563 22.2577 13.8667 22.2577Z"
            fill="#B6DEEE" />
    </g>
    <defs>
        <clipPath id="clip0_5665_4372">
            <rect width="32" height="32" fill="white" />
        </clipPath>
    </defs>
</svg>