<svg width="32" height="32" viewBox="0 0 32 32" fill="none" xmlns="http://www.w3.org/2000/svg">
    <path fill-rule="evenodd" clip-rule="evenodd"
        d="M14.0671 8.96791C14.0671 8.98689 14.0765 8.99638 14.0956 8.99638C11.6701 9.02482 9.24007 9.03433 6.8052 9.02484C6.8052 6.03555 6.8052 3.04625 6.8052 0.0569462C6.24504 0.0569462 5.68516 0.0569462 5.125 0.0569462C5.19534 0.0336866 5.27138 0.0194518 5.35282 0.0142419C6.00782 -0.00474729 6.66281 -0.00474729 7.31781 0.0142419C7.45621 0.0196226 7.58892 0.0480921 7.7165 0.0996504C7.77687 0.148931 7.81959 0.210625 7.84465 0.284702C7.87569 0.463548 7.89477 0.643874 7.9016 0.825623C7.91584 3.53971 7.92068 6.25379 7.91584 8.96791C9.96626 8.96791 12.0167 8.96791 14.0671 8.96791Z"
        fill="#F9F9F9" />
    <path fill-rule="evenodd" clip-rule="evenodd"
        d="M14.0664 20.4413C14.7405 20.4792 15.4143 20.4792 16.0883 20.4413C16.0883 17.3666 16.0883 14.2919 16.0883 11.2172C17.0193 11.2066 17.9497 11.2255 18.8792 11.2741C19.0264 11.2992 19.1782 11.3182 19.3348 11.3311C20.3276 11.4231 21.258 11.7125 22.1257 12.1994C22.8157 12.6997 23.2856 13.3593 23.5353 14.178C23.723 14.8702 23.7942 15.563 23.7489 16.2563C23.731 15.3534 23.4604 14.5373 22.9373 13.8079C22.7217 13.5734 22.4893 13.3599 22.2396 13.1673C21.6467 12.8178 21.0105 12.5806 20.3316 12.4556C19.2941 12.2877 18.2498 12.226 17.199 12.2706C17.199 14.9752 17.199 17.6798 17.199 20.3844C17.148 20.3761 17.1007 20.3858 17.0566 20.4128C17.06 20.4302 17.0697 20.4396 17.0851 20.4413C19.2317 23.9587 21.3961 27.465 23.5781 30.9608C24.4418 30.975 25.3055 30.9799 26.1696 30.975C26.1431 30.8651 26.1004 30.7607 26.0414 30.6619C24.2948 27.9288 22.5622 25.1863 20.8442 22.4342C23.1258 22.094 24.716 20.8604 25.6142 18.7331C26.163 17.2833 26.2957 15.7934 26.0129 14.2634C25.6592 12.4496 24.6861 11.0784 23.0939 10.1496C21.7005 9.42175 20.2293 9.04689 18.6798 9.02503C17.8255 9.02503 16.9712 9.02503 16.1168 9.02503C16.1262 6.09736 16.1168 3.17451 16.0883 0.256413C16.0883 0.227943 16.0883 0.199474 16.0883 0.171004C16.0883 0.133054 16.0883 0.0950761 16.0883 0.0571262C15.5379 0.0571262 14.9871 0.0571262 14.4366 0.0571262C14.5166 0.0338097 14.6021 0.0195749 14.6929 0.0144219C15.4057 -0.01177 16.1177 -0.00228967 16.8288 0.0428915C16.992 0.0648699 17.0916 0.155004 17.1278 0.313352C17.1571 0.435002 17.1762 0.558361 17.1847 0.683456C17.1941 3.43552 17.2038 6.18755 17.2132 8.93962C17.9847 8.96322 18.7584 8.97745 19.5342 8.98232C20.9102 9.02967 22.2296 9.32384 23.4926 9.86488C25.7005 10.932 26.9299 12.6924 27.1805 15.146C27.3238 16.4359 27.2289 17.7077 26.8957 18.9609C26.3791 20.6059 25.387 21.8728 23.9198 22.7616C23.434 23.0047 22.9307 23.1991 22.4105 23.3452C23.9483 25.8126 25.5003 28.2704 27.0666 30.7188C27.2361 31.0772 27.2645 31.4473 27.152 31.8291C27.0592 31.9362 26.9405 31.9883 26.7961 31.9857C25.8657 32.0048 24.9356 32.0048 24.0052 31.9857C23.8947 31.9783 23.7905 31.9498 23.692 31.9003C23.5815 31.7804 23.4818 31.6523 23.3929 31.5159C21.4963 28.4148 19.5883 25.321 17.6689 22.2349C17.4809 21.9254 17.3007 21.6123 17.1278 21.2954C16.9828 21.4113 16.8168 21.4728 16.6294 21.4804C15.965 21.4995 15.3004 21.4995 14.636 21.4804C14.495 21.4691 14.3623 21.4309 14.2373 21.3666C14.1934 21.3216 14.1601 21.2695 14.1376 21.21C14.0966 20.9555 14.073 20.6992 14.0664 20.4413ZM23.7489 16.2563C23.6176 18.2335 22.6112 19.5385 20.7303 20.1708C20.4429 20.2639 20.1487 20.3163 19.8474 20.3274C19.1258 20.3226 18.4045 20.3274 17.6831 20.3417C17.5923 20.3468 17.5068 20.361 17.4268 20.3844C17.3508 20.3844 17.275 20.3844 17.199 20.3844C17.199 17.6798 17.199 14.9752 17.199 12.2706C18.2498 12.226 19.2941 12.2877 20.3316 12.4556C21.0105 12.5806 21.6467 12.8178 22.2396 13.1673C22.4893 13.3599 22.7217 13.5734 22.9373 13.8079C23.4604 14.5373 23.731 15.3534 23.7489 16.2563Z"
        fill="#F9F9F9" />
    <path fill-rule="evenodd" clip-rule="evenodd"
        d="M5.1251 0.0576172C5.68526 0.0576172 6.24514 0.0576172 6.8053 0.0576172C6.8053 3.04692 6.8053 6.03622 6.8053 9.02552C9.24017 9.035 11.6702 9.02549 14.0957 8.99705C14.1241 6.041 14.1335 3.08017 14.1241 0.114556C14.6797 0.123951 15.2302 0.114471 15.7759 0.0860867C15.8707 0.0860867 15.9658 0.0860867 16.0606 0.0860867C16.0538 0.122841 16.0635 0.15131 16.0891 0.171495C16.0891 0.199965 16.0891 0.228434 16.0891 0.256904C16.0891 3.18926 16.0891 6.12162 16.0891 9.05399C16.9577 9.06341 17.8217 9.05393 18.6806 9.02552C20.2301 9.04738 21.7013 9.42224 23.0947 10.1501C24.6869 11.0789 25.66 12.4501 26.0137 14.2639C26.2965 15.7939 26.1638 17.2838 25.615 18.7336C24.7168 20.8609 23.1266 22.0944 20.8449 22.4347C22.563 25.1868 24.2956 27.9293 26.0422 30.6624C26.1011 30.7611 26.1438 30.8656 26.1703 30.9755C25.3063 30.9804 24.4426 30.9755 23.5788 30.9613C21.3969 27.4655 19.2325 23.9592 17.0859 20.4418C17.8263 20.4227 18.5667 20.4039 19.3071 20.3849C19.4928 20.3766 19.6731 20.3575 19.8482 20.3279C20.1495 20.3168 20.4437 20.2644 20.731 20.1713C22.612 19.539 23.6184 18.234 23.7497 16.2568C23.795 15.5635 23.7238 14.8707 23.5361 14.1785C23.2864 13.3598 22.8165 12.7002 22.1265 12.1999C21.2587 11.713 20.3284 11.4236 19.3356 11.3315C19.3237 11.311 19.3049 11.2968 19.2787 11.2888C19.1462 11.2746 19.0132 11.2699 18.88 11.2746C17.9504 11.226 17.0201 11.2071 16.0891 11.2177C16.0891 14.2924 16.0891 17.3671 16.0891 20.4418C15.415 20.4797 14.7413 20.4797 14.0672 20.4418C14.0672 17.6993 14.0672 14.9567 14.0672 12.2141C14.0911 11.873 14.1005 11.5314 14.0957 11.1892C11.6702 11.1608 9.24017 11.1512 6.8053 11.1607C6.8053 14.1785 6.8053 17.1963 6.8053 20.214C6.8053 20.2994 6.8053 20.3849 6.8053 20.4703C6.11727 20.4879 5.4338 20.4691 4.75488 20.4133C4.75488 13.6281 4.75488 6.84284 4.75488 0.0576172C4.87819 0.0576172 5.00179 0.0576172 5.1251 0.0576172ZM23.7497 16.2568C23.6184 18.234 22.612 19.539 20.731 20.1713C20.4437 20.2644 20.1495 20.3168 19.8482 20.3279C19.1266 20.3231 18.4052 20.3279 17.6839 20.3421C17.593 20.3473 17.5076 20.3615 17.4276 20.3849C17.3516 20.3849 17.2758 20.3849 17.1998 20.3849C17.1998 17.6802 17.1998 14.9756 17.1998 12.271C18.2506 12.2265 19.2949 12.2882 20.3323 12.4561C21.0113 12.5811 21.6475 12.8183 22.2404 13.1678C22.4901 13.3604 22.7225 13.5739 22.9381 13.8084C23.4612 14.5378 23.7318 15.3539 23.7497 16.2568Z"
        fill="#203E96" />
    <path fill-rule="evenodd" clip-rule="evenodd"
        d="M14.0664 0.0859375C14.636 0.0859375 15.2055 0.0859375 15.7751 0.0859375C15.2294 0.114322 14.679 0.123802 14.1234 0.114407C14.1328 3.08002 14.1234 6.04085 14.0949 8.9969C14.0758 8.9969 14.0664 8.98742 14.0664 8.96843C14.0664 6.0076 14.0664 3.04677 14.0664 0.0859375Z"
        fill="#4A59A3" />
    <path fill-rule="evenodd" clip-rule="evenodd"
        d="M16.0889 0.256836C16.1173 3.17493 16.1267 6.09779 16.1173 9.02545C16.9717 9.02545 17.826 9.02545 18.6804 9.02545C17.8215 9.05386 16.9574 9.06334 16.0889 9.05392C16.0889 6.12156 16.0889 3.1892 16.0889 0.256836Z"
        fill="#8A8FC3" />
    <path fill-rule="evenodd" clip-rule="evenodd"
        d="M14.0957 11.1885C14.1005 11.5307 14.0911 11.8723 14.0672 12.2134C12.0168 12.2134 9.96639 12.2134 7.91598 12.2134C7.92082 15.0604 7.91598 17.9073 7.90174 20.7542C7.89975 20.939 7.87127 21.1195 7.81631 21.2952C7.72318 21.4216 7.59503 21.4833 7.43185 21.4802C6.65241 21.5073 5.87411 21.4976 5.09666 21.4517C4.96167 21.4213 4.87168 21.3407 4.82612 21.2097C4.7777 20.9464 4.75378 20.6808 4.75492 20.4126C5.43384 20.4684 6.11731 20.4872 6.80534 20.4695C6.80534 20.3841 6.80534 20.2987 6.80534 20.2133C6.83381 17.2098 6.84321 14.2015 6.83381 11.1885C9.25444 11.1885 11.6751 11.1885 14.0957 11.1885Z"
        fill="#F9F9F9" />
    <path fill-rule="evenodd" clip-rule="evenodd"
        d="M14.0951 11.1883C11.6744 11.1883 9.25379 11.1883 6.83317 11.1883C6.84256 14.2013 6.83317 17.2096 6.80469 20.2131C6.80469 17.1953 6.80469 14.1776 6.80469 11.1598C9.23956 11.1503 11.6696 11.1598 14.0951 11.1883Z"
        fill="#C8CAE3" />
    <path fill-rule="evenodd" clip-rule="evenodd"
        d="M18.8799 11.2742C19.0132 11.2695 19.1462 11.2743 19.2786 11.2885C19.3048 11.2964 19.3236 11.3106 19.3355 11.3312C19.1789 11.3183 19.0271 11.2993 18.8799 11.2742Z"
        fill="#616DB0" />
    <path fill-rule="evenodd" clip-rule="evenodd"
        d="M19.8474 20.327C19.6722 20.3566 19.492 20.3757 19.3063 20.384C18.6798 20.384 18.0533 20.384 17.4268 20.384C17.5068 20.3606 17.5922 20.3464 17.6831 20.3412C18.4044 20.327 19.1258 20.3222 19.8474 20.327Z"
        fill="#F9FAF9" />
    <path fill-rule="evenodd" clip-rule="evenodd"
        d="M17.199 20.3847C17.2751 20.3847 17.3508 20.3847 17.4269 20.3847C18.0534 20.3847 18.6799 20.3847 19.3064 20.3847C18.566 20.4038 17.8255 20.4226 17.0851 20.4416C17.0697 20.4399 17.0601 20.4305 17.0566 20.4132C17.1008 20.3861 17.1481 20.3764 17.199 20.3847Z"
        fill="#8287BE" />
</svg>