<svg width="32" height="32" viewBox="0 0 32 32" fill="none" xmlns="http://www.w3.org/2000/svg">
    <path fill-rule="evenodd" clip-rule="evenodd"
        d="M5.68945 0C9.24501 0 12.8006 0 16.3561 0C16.3561 3.55556 16.3561 7.11111 16.3561 10.6667C19.9117 10.6667 23.4672 10.6667 27.0228 10.6667C27.0228 14.4592 27.0228 18.2519 27.0228 22.0444C23.4672 22.0444 19.9117 22.0444 16.3561 22.0444C16.3561 25.363 16.3561 28.6815 16.3561 32C12.8006 32 9.24501 32 5.68945 32C5.68945 28.2074 5.68945 24.4148 5.68945 20.6222C9.00797 20.6222 12.3265 20.6222 15.645 20.6222C15.645 17.5408 15.645 14.4592 15.645 11.3778C12.3265 11.3778 9.00797 11.3778 5.68945 11.3778C5.68945 7.58521 5.68945 3.79257 5.68945 0Z"
        fill="#D9062A" />
</svg>