<svg width="32" height="32" viewBox="0 0 32 32" fill="none" xmlns="http://www.w3.org/2000/svg">
    <path fill-rule="evenodd" clip-rule="evenodd"
        d="M7.33301 0C9.11081 0 10.8885 0 12.6663 0C13.139 0.61547 13.8057 0.84242 14.6663 0.680851C10.1554 3.47252 6.82205 7.33066 4.66634 12.2553C3.88679 14.3056 2.77567 16.1212 1.33301 17.7021C2.56995 12.4353 4.01439 7.21546 5.66634 2.04255C6.13163 1.23195 6.68719 0.551099 7.33301 0Z"
        fill="#1D913D" />
    <path fill-rule="evenodd" clip-rule="evenodd"
        d="M16.667 0C18.2225 0 19.7781 0 21.3337 0C23.9107 0.637979 25.6885 2.22663 26.667 4.76596C28.4654 9.59026 28.2432 14.3562 26.0003 19.0638C23.687 16.1246 21.4647 13.0608 19.3337 9.87234C15.1115 9.41842 10.8892 9.41842 6.66699 9.87234C6.22475 10.9062 5.55808 11.7005 4.66699 12.2553C6.82271 7.33066 10.1561 3.47252 14.667 0.680851C15.5277 0.84242 16.1943 0.61547 16.667 0Z"
        fill="#F0C008" />
    <path fill-rule="evenodd" clip-rule="evenodd"
        d="M26.6667 4.76562C29.6839 4.89609 31.4616 6.48474 32 9.53158C30.2043 17.3027 27.7599 24.792 24.6667 31.9997C22.6667 31.9997 20.6667 31.9997 18.6667 31.9997C16.6636 30.7901 14.4414 30.1092 12 29.9571C17.1243 28.3552 21.3465 25.4049 24.6667 21.1061C26.4984 21.173 26.9429 20.4921 26 19.0635C28.2429 14.3559 28.4651 9.58993 26.6667 4.76562Z"
        fill="#0A8F3D" />
    <path fill-rule="evenodd" clip-rule="evenodd"
        d="M26 19.0642C26.9429 20.4928 26.4984 21.1736 24.6667 21.1067C20.9907 20.6529 17.213 20.199 13.3333 19.745C11.5755 16.7027 9.68667 13.7524 7.66667 10.8939C5.64743 13.6592 3.98076 16.6096 2.66667 19.745C1.69417 19.6991 0.805278 19.926 0 20.4259C0 19.9719 0 19.5181 0 19.0642C0.444445 18.6102 0.888889 18.1564 1.33333 17.7025C2.776 16.1215 3.88711 14.3059 4.66667 12.2556C5.55775 11.7008 6.22442 10.9065 6.66667 9.87267C10.8889 9.41875 15.1111 9.41875 19.3333 9.87267C21.4644 13.0611 23.6867 16.1249 26 19.0642Z"
        fill="#F8F8F3" />
    <path fill-rule="evenodd" clip-rule="evenodd"
        d="M24.667 21.1063C21.3469 25.4051 17.1247 28.3555 12.0003 29.9574C9.46893 29.7039 7.24666 28.7961 5.33366 27.234C3.91847 24.9413 3.02959 22.4449 2.66699 19.7446C3.98109 16.6092 5.64775 13.6588 7.66699 10.8936C9.68699 13.752 11.5759 16.7023 13.3337 19.7446C17.2133 20.1986 20.9911 20.6525 24.667 21.1063Z"
        fill="#F1C111" />
    <path fill-rule="evenodd" clip-rule="evenodd"
        d="M2.66667 19.7441C3.02926 22.4443 3.91815 24.9407 5.33333 27.2334C3.18762 27.0456 1.40984 26.1377 0 24.51C0 23.1483 0 21.7866 0 20.4249C0.805278 19.9251 1.69417 19.6982 2.66667 19.7441Z"
        fill="#19913E" />
</svg>