<svg width="32" height="32" viewBox="0 0 32 32" fill="none" xmlns="http://www.w3.org/2000/svg">
    <g clip-path="url(#clip0_5759_255)">
        <path fill-rule="evenodd" clip-rule="evenodd"
            d="M-0.0800781 -0.0800781C10.5866 -0.0800781 21.2532 -0.0800781 31.9199 -0.0800781C31.9199 10.5866 31.9199 21.2532 31.9199 31.9199C21.2532 31.9199 10.5866 31.9199 -0.0800781 31.9199C-0.0800781 21.2532 -0.0800781 10.5866 -0.0800781 -0.0800781Z"
            fill="#F9F9F9" />
        <path fill-rule="evenodd" clip-rule="evenodd"
            d="M20.8805 6.48003C19.6944 6.37957 18.5744 6.48624 17.5205 6.80003C17.3758 6.68659 17.3225 6.52659 17.3605 6.32003C18.5635 6.26803 19.7368 6.32138 20.8805 6.48003Z"
            fill="#B98EF6" />
        <path fill-rule="evenodd" clip-rule="evenodd"
            d="M20.8795 6.4799C21.44 7.28016 21.92 8.1335 22.3195 9.0399C21.6659 8.77779 21.2659 8.29779 21.1195 7.5999C21.0128 7.81323 20.9063 7.81323 20.7995 7.5999C20.7211 7.39299 20.6944 7.17965 20.7195 6.9599C19.8557 6.89379 19.0023 6.89379 18.1595 6.9599C18.3728 7.17323 18.5863 7.38658 18.7995 7.5999C18.6701 7.85125 18.6167 8.11792 18.6395 8.3999C19.0303 8.3765 19.137 8.50982 18.9595 8.7999C19.2875 9.0616 19.4475 9.40827 19.4395 9.8399C18.8434 9.02944 18.3101 8.17611 17.8395 7.2799C17.8512 7.0356 17.7445 6.8756 17.5195 6.7999C18.5735 6.48611 19.6935 6.37944 20.8795 6.4799Z"
            fill="#6F30CD" />
        <path fill-rule="evenodd" clip-rule="evenodd"
            d="M17.5204 6.7998C17.7454 6.8755 17.8521 7.0355 17.8404 7.2798C17.6154 7.20411 17.5087 7.04411 17.5204 6.7998Z"
            fill="#D5B8F0" />
        <path fill-rule="evenodd" clip-rule="evenodd"
            d="M9.84035 7.59961C9.88184 7.9979 9.72184 8.26457 9.36035 8.39961C9.458 8.09015 9.618 7.8235 9.84035 7.59961Z"
            fill="#8451CF" />
        <path fill-rule="evenodd" clip-rule="evenodd"
            d="M12.0804 9.67965C11.6915 10.4055 11.2649 11.0988 10.8004 11.7596C10.8263 11.4353 10.7996 11.1153 10.7204 10.7996C10.667 10.9063 10.6137 11.013 10.5604 11.1196C10.4004 10.9063 10.2404 10.9063 10.0804 11.1196C9.97045 10.7888 9.99712 10.4688 10.1604 10.1596C10.4025 9.94424 10.6158 9.70424 10.8004 9.43965C10.7862 8.90456 10.7595 8.34456 10.7204 7.75965C10.6534 7.57211 10.5467 7.41211 10.4004 7.27965C10.3885 8.01021 10.0419 8.49021 9.36035 8.71965C9.36035 8.61298 9.36035 8.50632 9.36035 8.39965C9.72184 8.26461 9.88184 7.99794 9.84035 7.59965C10.1954 7.38714 10.4087 7.06714 10.4804 6.63965C11.547 6.63965 12.6137 6.63965 13.6804 6.63965C13.145 7.66494 12.6117 8.67829 12.0804 9.67965Z"
            fill="#6E23D7" />
        <path fill-rule="evenodd" clip-rule="evenodd"
            d="M10.4805 6.47962C11.6288 6.26851 12.8021 6.26851 14.0005 6.47962C14.5729 7.69146 15.2129 8.86479 15.9205 9.99962C15.6147 9.98773 15.4281 9.82773 15.3605 9.51962C15.3071 9.57295 15.2538 9.62629 15.2005 9.67962C15.1471 9.41295 15.0938 9.14629 15.0405 8.87962C14.6714 8.41147 14.3248 7.93147 14.0005 7.43962C13.846 7.13626 13.7926 6.81626 13.8405 6.47962C12.7205 6.47962 11.6005 6.47962 10.4805 6.47962Z"
            fill="#663EA9" />
        <path fill-rule="evenodd" clip-rule="evenodd"
            d="M10.4798 6.48047C11.5998 6.48047 12.7198 6.48047 13.8398 6.48047C13.792 6.81711 13.8453 7.13711 13.9998 7.44047C14.3241 7.93232 14.6708 8.41232 15.0398 8.88047C15.0932 9.14714 15.1465 9.4138 15.1998 9.68047C15.2532 9.62714 15.3065 9.5738 15.3598 9.52047C15.4274 9.82858 15.6141 9.98858 15.9198 10.0005C16.212 10.2641 16.4254 10.5841 16.5598 10.9605C16.569 11.1379 16.6222 11.2979 16.7198 11.4405C16.7605 11.8428 16.8938 12.2161 17.1198 12.5605C17.2272 12.6809 17.3605 12.7342 17.5198 12.7205C17.749 13.6372 18.1222 14.4905 18.6398 15.2805C17.7317 15.2539 16.825 15.2806 15.9198 15.3605C15.815 15.7059 15.6017 15.9459 15.2798 16.0805C15.4914 15.7907 15.5714 15.4707 15.5198 15.1205C14.8273 13.8702 14.1073 12.6436 13.3598 11.4405C13.3715 11.1962 13.2649 11.0362 13.0398 10.9605C12.8574 10.5956 12.6708 10.2223 12.4798 9.84047C12.3725 9.72008 12.2392 9.66674 12.0798 9.68047C12.6112 8.67911 13.1445 7.66576 13.6798 6.64047C12.6132 6.64047 11.5465 6.64047 10.4798 6.64047C10.4082 7.06796 10.1949 7.38796 9.83984 7.60047C9.93244 7.14749 10.1458 6.77416 10.4798 6.48047Z"
            fill="#47169C" />
        <path fill-rule="evenodd" clip-rule="evenodd"
            d="M9.36008 8.40039C9.36008 8.50706 9.36008 8.61372 9.36008 8.72039C9.03078 9.32679 8.73745 9.96679 8.48008 10.6404C8.35693 10.4647 8.2236 10.4647 8.08008 10.6404C8.42637 9.84034 8.85304 9.09367 9.36008 8.40039Z"
            fill="#7F49D0" />
        <path fill-rule="evenodd" clip-rule="evenodd"
            d="M12.0799 9.67984C12.2392 9.66611 12.3726 9.71946 12.4799 9.83984C12.6708 10.2217 12.8575 10.595 13.0399 10.9598C13.0282 11.2041 13.1349 11.3641 13.3599 11.4398C14.1074 12.643 14.8274 13.8696 15.5199 15.1198C15.5714 15.4701 15.4914 15.7901 15.2799 16.0798C15.008 16.4104 14.7947 16.7838 14.6399 17.1998C14.3104 17.6382 14.0437 18.1182 13.8399 18.6398C13.3725 19.0786 13.0525 19.6118 12.8799 20.2398C12.618 20.5304 12.378 20.8504 12.1599 21.1998C11.6751 20.372 11.1685 19.572 10.6399 18.7998C10.256 17.9787 9.82929 17.1787 9.35988 16.3998C9.37156 16.1555 9.26489 15.9955 9.03988 15.9198C8.98852 15.709 8.93519 15.4957 8.87988 15.2798C9.08267 14.9273 9.24267 14.554 9.35988 14.1598C9.92729 13.4251 10.4073 12.6251 10.7999 11.7598C11.2644 11.099 11.6911 10.4057 12.0799 9.67984Z"
            fill="#F8F6F9" />
        <path fill-rule="evenodd" clip-rule="evenodd"
            d="M22.32 9.04004C22.827 9.73332 23.2538 10.48 23.6 11.28C23.5883 11.5243 23.695 11.6843 23.92 11.76C24.1613 12.0291 24.3213 12.3491 24.4 12.72C24.1885 12.7472 24.0018 12.6939 23.84 12.56C23.628 11.71 23.228 10.9633 22.64 10.32C22.4371 10.4685 22.2238 10.4952 22 10.4C22.2914 10.0071 22.3981 9.55375 22.32 9.04004Z"
            fill="#7233CF" />
        <path fill-rule="evenodd" clip-rule="evenodd"
            d="M13.0399 10.96C13.2649 11.0357 13.3716 11.1957 13.3599 11.44C13.1349 11.3643 13.0282 11.2043 13.0399 10.96Z"
            fill="#B7A4D8" />
        <path fill-rule="evenodd" clip-rule="evenodd"
            d="M16.5596 10.96C16.7845 11.0357 16.8913 11.1957 16.8796 11.44C16.8263 11.44 16.7729 11.44 16.7196 11.44C16.622 11.2974 16.5687 11.1374 16.5596 10.96Z"
            fill="#B59EDF" />
        <path fill-rule="evenodd" clip-rule="evenodd"
            d="M23.6005 11.2803C23.8254 11.356 23.9322 11.516 23.9205 11.7603C23.6955 11.6846 23.5888 11.5246 23.6005 11.2803Z"
            fill="#9C6EDB" />
        <path fill-rule="evenodd" clip-rule="evenodd"
            d="M7.60012 11.4404C7.64161 11.8387 7.48161 12.1054 7.12012 12.2404C7.21777 11.931 7.37777 11.6643 7.60012 11.4404Z"
            fill="#8A54D5" />
        <path fill-rule="evenodd" clip-rule="evenodd"
            d="M16.7197 11.4404C16.773 11.4404 16.8264 11.4404 16.8797 11.4404C17.177 11.8217 17.3904 12.2484 17.5197 12.7204C17.3604 12.7342 17.2271 12.6808 17.1197 12.5604C16.8936 12.216 16.7604 11.8427 16.7197 11.4404Z"
            fill="#593598" />
        <path fill-rule="evenodd" clip-rule="evenodd"
            d="M10.7998 11.7603C10.5865 11.7603 10.3732 11.7603 10.1598 11.7603C10.0061 12.2284 9.89946 12.7084 9.83984 13.2003C9.6201 13.1752 9.40676 13.2019 9.19984 13.2803C9.34482 13.5522 9.39815 13.8455 9.35984 14.1603C8.94898 14.4047 8.73565 14.778 8.71984 15.2803C7.75396 15.333 6.79396 15.2796 5.83984 15.1203C5.96935 14.8689 6.02268 14.6023 5.99984 14.3203C5.99984 14.2669 5.99984 14.2136 5.99984 14.1603C6.22485 14.0846 6.33152 13.9246 6.31984 13.6803C6.95544 13.4237 7.22212 12.9437 7.11984 12.2403C7.48133 12.1052 7.64133 11.8386 7.59984 11.4403C7.69749 11.1308 7.85749 10.8642 8.07984 10.6403C8.22336 10.4646 8.35669 10.4646 8.47984 10.6403C8.73722 9.96667 9.03055 9.32667 9.35984 8.72027C10.0413 8.49083 10.388 8.01083 10.3998 7.28027C10.5462 7.41274 10.6529 7.57274 10.7198 7.76027C10.759 8.34519 10.7857 8.90519 10.7998 9.44027C10.6153 9.70487 10.402 9.94487 10.1598 10.1603C9.99661 10.4695 9.96994 10.7895 10.0798 11.1203C10.2398 10.9069 10.3998 10.9069 10.5598 11.1203C10.6132 11.0136 10.6665 10.9069 10.7198 10.8003C10.7991 11.1159 10.8258 11.4359 10.7998 11.7603Z"
            fill="#6D20DB" />
        <path fill-rule="evenodd" clip-rule="evenodd"
            d="M10.8002 11.7598C10.4076 12.625 9.9276 13.425 9.3602 14.1598C9.3985 13.845 9.34517 13.5517 9.2002 13.2798C9.40711 13.2014 9.62045 13.1747 9.8402 13.1998C9.89981 12.7079 10.0065 12.2279 10.1602 11.7598C10.3735 11.7598 10.5869 11.7598 10.8002 11.7598Z"
            fill="#7134CD" />
        <path fill-rule="evenodd" clip-rule="evenodd"
            d="M19.4404 10.0002C19.5998 9.98643 19.7331 10.0398 19.8404 10.1602C19.9867 10.5064 20.1734 10.8264 20.4004 11.1202C20.5801 10.8339 20.7934 10.7806 21.0404 10.9602C20.9107 11.0748 20.8039 11.2081 20.7204 11.3602C20.8639 12.0779 21.1839 12.6912 21.6804 13.2002C21.8327 13.4474 21.886 13.7141 21.8404 14.0002C21.0025 12.6991 20.2025 11.3657 19.4404 10.0002Z"
            fill="#7337CD" />
        <path fill-rule="evenodd" clip-rule="evenodd"
            d="M7.12031 12.2402C7.22258 12.9437 6.95591 13.4237 6.32031 13.6802C6.54697 13.1732 6.81362 12.6932 7.12031 12.2402Z"
            fill="#7940CD" />
        <path fill-rule="evenodd" clip-rule="evenodd"
            d="M22.3202 9.03974C22.3982 9.55345 22.2915 10.0068 22.0002 10.3997C22.224 10.4949 22.4373 10.4682 22.6402 10.3197C23.2282 10.963 23.6282 11.7097 23.8402 12.5597C24.0019 12.6936 24.1886 12.7469 24.4002 12.7197C24.4326 13.0222 24.3261 13.2622 24.0802 13.4397C24.1939 13.6405 24.3272 13.8272 24.4802 13.9997C24.5872 13.5953 24.7205 13.5953 24.8802 13.9997C24.7202 14.1597 24.5602 14.3197 24.4002 14.4797C24.2227 14.3054 24.0627 14.3054 23.9202 14.4797C24.1198 14.8301 24.3864 14.8835 24.7202 14.6397C25.2323 14.8823 25.2856 15.229 24.8802 15.6797C25.2299 16.3908 25.0434 16.8973 24.3202 17.1997C24.2475 16.874 24.1142 16.5805 23.9202 16.3197C23.9469 16.2397 23.9734 16.1597 24.0002 16.0797C24.2618 16.2956 24.5018 16.2689 24.7202 15.9997C24.4186 15.6672 24.312 15.3206 24.4002 14.9597C24.0781 15.2849 23.8381 15.6583 23.6802 16.0797C23.6651 16.8234 23.5051 17.41 23.2002 17.8397C23.0816 18.0223 22.9482 18.0223 22.8002 17.8397C22.6515 17.6495 22.5982 17.4362 22.6402 17.1997C22.4802 17.1997 22.3202 17.1997 22.1602 17.1997C22.0904 16.7415 22.2237 16.3682 22.5602 16.0797C22.6398 15.5491 22.6666 15.0157 22.6402 14.4797C22.4802 14.4797 22.3202 14.4797 22.1602 14.4797C22.016 14.3533 21.9093 14.1933 21.8402 13.9997C21.8858 13.7137 21.8325 13.447 21.6802 13.1997C21.1837 12.6908 20.8637 12.0774 20.7202 11.3597C20.8037 11.2077 20.9104 11.0744 21.0402 10.9597C20.7931 10.7802 20.5798 10.8335 20.4002 11.1197C20.1731 10.826 19.9864 10.506 19.8402 10.1597C19.7328 10.0394 19.5995 9.98601 19.4402 9.99974C19.4402 9.94641 19.4402 9.89307 19.4402 9.83974C19.4482 9.40811 19.2882 9.06144 18.9602 8.79974C19.1376 8.50966 19.0309 8.37633 18.6402 8.39974C18.6173 8.11776 18.6707 7.85108 18.8002 7.59974C18.5869 7.38641 18.3734 7.17307 18.1602 6.95974C19.0029 6.89363 19.8563 6.89363 20.7202 6.95974C20.695 7.17948 20.7218 7.39283 20.8002 7.59974C20.9069 7.81307 21.0134 7.81307 21.1202 7.59974C21.2666 8.29763 21.6666 8.77763 22.3202 9.03974Z"
            fill="#6D1FDC" />
        <path fill-rule="evenodd" clip-rule="evenodd"
            d="M6.31989 13.6797C6.33157 13.924 6.2249 14.084 5.99989 14.1597C5.98821 13.9154 6.09488 13.7554 6.31989 13.6797Z"
            fill="#AD80E2" />
        <path fill-rule="evenodd" clip-rule="evenodd"
            d="M17.5195 12.7197C17.9306 13.2735 18.304 13.8602 18.6395 14.4797C18.7784 14.7841 18.9384 15.0774 19.1195 15.3597C19.0973 15.5679 18.9907 15.7012 18.7995 15.7597C18.8375 15.5532 18.7842 15.3932 18.6395 15.2797C18.1219 14.4897 17.7487 13.6364 17.5195 12.7197Z"
            fill="#542D9A" />
        <path fill-rule="evenodd" clip-rule="evenodd"
            d="M18.6402 14.4805C18.9459 14.4924 19.1326 14.6524 19.2002 14.9605C19.3069 15.3338 19.3069 15.7071 19.2002 16.0805C18.8125 16.4453 18.4658 16.8185 18.1602 17.2005C18.3323 16.6968 18.5456 16.2168 18.8002 15.7605C18.9914 15.702 19.0979 15.5686 19.1202 15.3605C18.939 15.0781 18.779 14.7848 18.6402 14.4805Z"
            fill="#F1E1F9" />
        <path fill-rule="evenodd" clip-rule="evenodd"
            d="M9.03993 15.9199C9.26494 15.9956 9.37161 16.1556 9.35993 16.3999C9.13492 16.3242 9.02825 16.1642 9.03993 15.9199Z"
            fill="#9C82C7" />
        <path fill-rule="evenodd" clip-rule="evenodd"
            d="M9.35973 14.1602C9.24251 14.5543 9.08251 14.9276 8.87973 15.2802C8.93504 15.496 8.98837 15.7094 9.03973 15.9202C9.02805 16.1645 9.13472 16.3245 9.35973 16.4002C9.82913 17.179 10.2558 17.979 10.6397 18.8002C10.3592 18.5722 10.0925 18.3056 9.83973 18.0002C9.69216 17.4408 9.4255 16.9608 9.03973 16.5602C8.83259 16.1582 8.72592 15.7316 8.71973 15.2802C8.73553 14.7779 8.94886 14.4045 9.35973 14.1602Z"
            fill="#59309E" />
        <path fill-rule="evenodd" clip-rule="evenodd"
            d="M24.4004 12.7197C25.0217 13.5319 25.555 14.4119 26.0004 15.3597C25.6842 16.0207 25.311 16.634 24.8804 17.1997C24.6377 17.2015 24.451 17.308 24.3204 17.5197C24.0318 17.9922 23.7918 18.4722 23.6004 18.9597C23.6242 18.7914 23.5977 18.6314 23.5204 18.4797C23.4534 18.6672 23.3468 18.8272 23.2004 18.9597C22.9441 18.6565 22.7041 18.3365 22.4804 17.9997C22.3484 17.858 22.1884 17.8047 22.0004 17.8397C22.0618 18.1861 21.9551 18.4528 21.6804 18.6397C21.5538 18.5492 21.5538 18.4159 21.6804 18.2397C21.6244 18.0386 21.5177 17.9852 21.3604 18.0797C21.4137 18.133 21.4671 18.1864 21.5204 18.2397C21.0095 18.4039 20.7962 18.7504 20.8804 19.2797C20.7204 19.2797 20.5604 19.2797 20.4004 19.2797C20.546 18.721 20.8126 18.241 21.2004 17.8397C21.5057 17.682 21.6657 17.4154 21.6804 17.0397C21.8823 16.4492 22.149 15.8892 22.4804 15.3597C22.3492 15.0717 22.2426 14.7784 22.1604 14.4797C22.3204 14.4797 22.4804 14.4797 22.6404 14.4797C22.6668 15.0157 22.6401 15.549 22.5604 16.0797C22.2239 16.3682 22.0906 16.7415 22.1604 17.1997C22.3204 17.1997 22.4804 17.1997 22.6404 17.1997C22.5985 17.4362 22.6518 17.6495 22.8004 17.8397C22.9484 18.0223 23.0818 18.0223 23.2004 17.8397C23.5054 17.41 23.6654 16.8234 23.6804 16.0797C23.8383 15.6583 24.0783 15.2849 24.4004 14.9597C24.3122 15.3206 24.4188 15.6672 24.7204 15.9997C24.502 16.2688 24.262 16.2956 24.0004 16.0797C23.9737 16.1597 23.9471 16.2397 23.9204 16.3197C24.1145 16.5805 24.2478 16.874 24.3204 17.1997C25.0436 16.8973 25.2302 16.3908 24.8804 15.6797C25.2858 15.229 25.2326 14.8823 24.7204 14.6397C24.3866 14.8835 24.1201 14.8301 23.9204 14.4797C24.063 14.3054 24.223 14.3054 24.4004 14.4797C24.5604 14.3197 24.7204 14.1597 24.8804 13.9997C24.7207 13.5953 24.5874 13.5953 24.4804 13.9997C24.3274 13.8272 24.1942 13.6405 24.0804 13.4397C24.3263 13.2622 24.4329 13.0222 24.4004 12.7197Z"
            fill="#6E26D6" />
        <path fill-rule="evenodd" clip-rule="evenodd"
            d="M15.2796 16.0801C15.2437 16.5674 15.0304 16.9407 14.6396 17.2001C14.7945 16.7841 15.0078 16.4106 15.2796 16.0801Z"
            fill="#8A5BD5" />
        <path fill-rule="evenodd" clip-rule="evenodd"
            d="M18.64 15.2805C18.7846 15.3939 18.8379 15.5539 18.8 15.7605C18.5454 16.2168 18.3321 16.6968 18.16 17.2005C18.0532 17.2005 18 17.2537 18 17.3605C17.6584 17.7936 17.3916 18.2736 17.2 18.8005C17.0121 18.9627 16.9056 19.176 16.88 19.4405C16.4395 20.1617 15.9594 20.855 15.44 21.5205C15.4609 21.3803 15.4076 21.2736 15.28 21.2005C15.101 21.8513 14.8343 22.4379 14.48 22.9605C14.3116 22.9366 14.1516 22.9632 14 23.0405C14.1338 23.2022 14.1872 23.3889 14.16 23.6005C13.8426 23.6192 13.5759 23.5125 13.36 23.2805C13.1768 23.4846 13.1768 23.6979 13.36 23.9205C12.5652 24.1064 11.7652 24.1331 10.96 24.0005C11.2717 23.467 11.5384 22.907 11.76 22.3205C11.825 21.7619 12.1184 21.3886 12.64 21.2005C12.8204 20.9053 12.9004 20.5853 12.88 20.2405C13.2023 19.9662 13.469 19.6462 13.68 19.2805C13.8286 19.0902 13.8819 18.8769 13.84 18.6405C14.0438 18.1189 14.3104 17.6389 14.64 17.2005C15.0307 16.9411 15.244 16.5678 15.28 16.0805C15.6018 15.9459 15.8151 15.7059 15.92 15.3605C16.8251 15.2806 17.7318 15.2539 18.64 15.2805Z"
            fill="#6C21DA" />
        <path fill-rule="evenodd" clip-rule="evenodd"
            d="M21.6802 17.04C21.6655 17.4157 21.5055 17.6823 21.2002 17.84C21.2402 17.4922 21.4002 17.2255 21.6802 17.04Z"
            fill="#844FCE" />
        <path fill-rule="evenodd" clip-rule="evenodd"
            d="M5.51953 15.5996C6.06916 15.9126 6.41582 16.3926 6.55953 17.0396C6.83448 16.7673 6.86113 16.474 6.63953 16.1596C6.76356 15.9629 6.92356 15.9096 7.11953 15.9996C7.29985 16.2801 7.45985 16.5735 7.59953 16.8796C7.41542 17.0766 7.22876 17.0766 7.03953 16.8796C6.8626 17.4383 7.0226 17.8649 7.51953 18.1596C7.92609 17.3042 8.13942 17.3042 8.15953 18.1596C8.4262 18.3196 8.69286 18.4796 8.95953 18.6396C8.99955 19.1756 9.13289 19.6823 9.35953 20.1596C8.95854 20.4022 8.82521 20.7487 8.95953 21.1996C9.11953 21.4129 9.27953 21.4129 9.43953 21.1996C9.71849 21.7527 9.87849 22.3393 9.91953 22.9596C9.99953 23.2529 10.1862 23.4396 10.4795 23.5196C10.297 23.8754 10.4037 24.1154 10.7995 24.2396C11.8662 24.2396 12.9329 24.2396 13.9995 24.2396C12.798 24.4508 11.5713 24.4508 10.3195 24.2396C8.71987 21.3604 7.11987 18.4804 5.51953 15.5996Z"
            fill="#4E219C" />
        <path fill-rule="evenodd" clip-rule="evenodd"
            d="M18.0002 17.3604C18.0594 18.0471 17.7927 18.5271 17.2002 18.8004C17.3919 18.2735 17.6586 17.7935 18.0002 17.3604Z"
            fill="#ECD9F7" />
        <path fill-rule="evenodd" clip-rule="evenodd"
            d="M24.8804 17.2002C24.1074 18.7469 23.2542 20.2402 22.3204 21.6802C22.3158 21.1597 22.5023 20.7332 22.8804 20.4002C22.9596 20.0845 22.9863 19.7645 22.9604 19.4402C23.2994 19.4453 23.5127 19.2853 23.6004 18.9602C23.7918 18.4727 24.0318 17.9927 24.3204 17.5202C24.451 17.3085 24.6377 17.202 24.8804 17.2002Z"
            fill="#7234CA" />
        <path fill-rule="evenodd" clip-rule="evenodd"
            d="M23.5998 18.9595C23.5122 19.2846 23.2989 19.4446 22.9598 19.4395C22.9858 19.7638 22.959 20.0838 22.8798 20.3995C22.5018 20.7325 22.3152 21.159 22.3198 21.6795C22.3198 21.7328 22.3198 21.7862 22.3198 21.8395C22.0949 21.9152 21.9882 22.0752 21.9998 22.3195C21.8931 22.5328 21.7866 22.7462 21.6798 22.9595C21.4549 23.0352 21.3482 23.1952 21.3598 23.4395C21.3066 23.5462 21.2531 23.6528 21.1998 23.7595C21.0931 23.8128 20.9866 23.8662 20.8798 23.9195C19.8746 24.093 18.8613 24.1197 17.8398 23.9995C18.3104 23.405 18.6304 22.7382 18.7998 21.9995C19.2126 21.0126 19.7461 20.1059 20.3998 19.2795C20.5598 19.2795 20.7198 19.2795 20.8798 19.2795C20.7957 18.7502 21.009 18.4037 21.5198 18.2395C21.4666 18.1862 21.4131 18.1328 21.3598 18.0795C21.5171 17.985 21.6238 18.0384 21.6798 18.2395C21.5533 18.4157 21.5533 18.549 21.6798 18.6395C21.9546 18.4526 22.0613 18.1859 21.9998 17.8395C22.1878 17.8045 22.3478 17.8578 22.4798 17.9995C22.7035 18.3363 22.9435 18.6563 23.1998 18.9595C23.3462 18.827 23.4528 18.667 23.5198 18.4795C23.5971 18.6312 23.6237 18.7912 23.5998 18.9595Z"
            fill="#6D20DB" />
        <path fill-rule="evenodd" clip-rule="evenodd"
            d="M13.8399 18.6396C13.8818 18.8761 13.8285 19.0894 13.6799 19.2796C13.4689 19.6454 13.2022 19.9654 12.8799 20.2396C13.0525 19.6116 13.3725 19.0784 13.8399 18.6396Z"
            fill="#8552D2" />
        <path fill-rule="evenodd" clip-rule="evenodd"
            d="M5.99987 14.3203C6.0227 14.6023 5.96937 14.869 5.83987 15.1203C6.79398 15.2797 7.75398 15.333 8.71987 15.2803C8.72606 15.7317 8.83273 16.1584 9.03987 16.5603C9.42564 16.961 9.6923 17.441 9.83987 18.0003C10.0927 18.3058 10.3593 18.5723 10.6399 18.8003C11.1684 19.5725 11.6751 20.3725 12.1599 21.2003C12.378 20.8509 12.618 20.5309 12.8799 20.2403C12.9003 20.5851 12.8203 20.9051 12.6399 21.2003C12.1183 21.3885 11.8249 21.7618 11.7599 22.3203C11.3383 22.733 10.9916 23.213 10.7199 23.7603C10.6447 23.9326 10.6714 24.0926 10.7999 24.2403C10.404 24.1162 10.2974 23.8762 10.4799 23.5203C10.1865 23.4403 9.99987 23.2536 9.91987 22.9603C9.87883 22.34 9.71883 21.7534 9.43987 21.2003C9.27987 21.4136 9.11987 21.4136 8.95987 21.2003C8.82555 20.7494 8.95887 20.4029 9.35987 20.1603C9.13323 19.683 8.99988 19.1763 8.95987 18.6403C8.69319 18.4803 8.42654 18.3203 8.15987 18.1603C8.13975 17.305 7.92643 17.305 7.51987 18.1603C7.02294 17.8656 6.86294 17.439 7.03987 16.8803C7.2291 17.0773 7.41575 17.0773 7.59987 16.8803C7.46019 16.5742 7.30019 16.2808 7.11987 16.0003C6.9239 15.9103 6.7639 15.9636 6.63987 16.1603C6.86147 16.4747 6.83481 16.768 6.55987 17.0403C6.41615 16.3933 6.0695 15.9133 5.51987 15.6003C5.39252 15.1013 5.55252 14.6746 5.99987 14.3203Z"
            fill="#47159D" />
        <path fill-rule="evenodd" clip-rule="evenodd"
            d="M16.8804 19.4404C16.5591 20.2452 16.2391 21.0452 15.9204 21.8404C15.7604 21.8404 15.6004 21.8404 15.4404 21.8404C15.4404 21.7337 15.4404 21.6271 15.4404 21.5204C15.9599 20.855 16.4399 20.1617 16.8804 19.4404Z"
            fill="#EFDEF8" />
        <path fill-rule="evenodd" clip-rule="evenodd"
            d="M22.3199 21.8398C22.3316 22.0842 22.2248 22.2442 21.9999 22.3198C21.9882 22.0755 22.0949 21.9155 22.3199 21.8398Z"
            fill="#BC94EA" />
        <path fill-rule="evenodd" clip-rule="evenodd"
            d="M21.6802 22.96C21.6919 23.2043 21.5852 23.3643 21.3602 23.44C21.3486 23.1956 21.4553 23.0356 21.6802 22.96Z"
            fill="#C49CF0" />
        <path fill-rule="evenodd" clip-rule="evenodd"
            d="M15.4403 21.5202C15.4403 21.6269 15.4403 21.7335 15.4403 21.8402C15.0675 22.4789 14.6942 23.1189 14.3203 23.7602C14.0953 23.8359 13.9886 23.9959 14.0003 24.2402C12.9336 24.2402 11.867 24.2402 10.8003 24.2402C10.6718 24.0925 10.6452 23.9325 10.7203 23.7602C10.9921 23.2128 11.3387 22.7328 11.7603 22.3202C11.5387 22.9068 11.272 23.4668 10.9603 24.0002C11.7656 24.1328 12.5656 24.1061 13.3603 23.9202C13.1772 23.6976 13.1772 23.4844 13.3603 23.2802C13.5763 23.5122 13.8429 23.6189 14.1603 23.6002C14.1875 23.3887 14.1342 23.202 14.0003 23.0402C14.152 22.9629 14.312 22.9364 14.4803 22.9602C14.8347 22.4376 15.1014 21.8511 15.2803 21.2002C15.4079 21.2733 15.4612 21.38 15.4403 21.5202Z"
            fill="#682ACB" />
        <path fill-rule="evenodd" clip-rule="evenodd"
            d="M14.3199 23.7598C14.3316 24.0041 14.2249 24.1641 13.9999 24.2398C13.9882 23.9954 14.0949 23.8354 14.3199 23.7598Z"
            fill="#BD99EE" />
        <path fill-rule="evenodd" clip-rule="evenodd"
            d="M18.7995 22C18.6301 22.7387 18.3101 23.4054 17.8395 24C18.861 24.1202 19.8743 24.0934 20.8795 23.92C20.8795 24.0267 20.8795 24.1333 20.8795 24.24C19.7895 24.3986 18.6695 24.452 17.5195 24.4C17.74 23.4784 18.1667 22.6784 18.7995 22Z"
            fill="#7B47C6" />
        <path fill-rule="evenodd" clip-rule="evenodd"
            d="M21.1999 23.7598C21.2116 24.0041 21.1048 24.1641 20.8799 24.2398C20.8799 24.133 20.8799 24.0265 20.8799 23.9198C20.9866 23.8665 21.0932 23.813 21.1999 23.7598Z"
            fill="#BA9EE9" />
    </g>
    <defs>
        <clipPath id="clip0_5759_255">
            <rect width="32" height="32" fill="white" />
        </clipPath>
    </defs>
</svg>