<svg width="32" height="32" viewBox="0 0 32 32" fill="none" xmlns="http://www.w3.org/2000/svg">
    <path
        d="M1.93815 32.0001H30.0621C31.0987 32.0001 32.0001 31.1426 32.0001 30.0594V23.876C31.0987 22.9733 29.8818 22.4317 28.5748 22.4317C28.1691 22.4317 27.7184 22.4768 27.2677 22.6123L25.8255 23.0185L25.555 21.5742C24.6987 17.151 20.9579 13.9014 16.6311 13.9014C13.2508 13.9014 10.186 15.8421 8.60857 19.0015L8.15786 19.9042L7.16631 19.6785C6.76068 19.5883 6.35505 19.5431 5.90434 19.5431C3.29026 19.5431 1.08181 21.2131 0.0902589 23.5601V30.0142C0.000118098 31.1426 0.856456 32.0001 1.93815 32.0001Z"
        fill="#E6E7E8" />
    <path
        d="M6.62535 16.9253C8.78873 13.3597 12.5296 11.1933 16.5859 11.1933C21.769 11.1933 26.2761 14.7137 27.8535 19.7236C28.0789 19.7236 28.3042 19.6785 28.5296 19.6785C29.7465 19.6785 30.9183 19.9944 31.9549 20.536V1.94077C31.9549 0.857548 31.0986 0 30.0169 0H1.93803C0.856338 0 0 0.857548 0 1.94077V19.0917C1.57746 17.6926 3.60563 16.8802 5.81408 16.8802C6.08451 16.8802 6.35493 16.8802 6.62535 16.9253Z"
        fill="url(#paint0_linear_5593_545)" />
    <defs>
        <linearGradient id="paint0_linear_5593_545" x1="15.9698" y1="20.56" x2="15.9698" y2="0"
            gradientUnits="userSpaceOnUse">
            <stop stop-color="#90D7EC" />
            <stop offset="1" stop-color="#00AEEF" />
        </linearGradient>
    </defs>
</svg>