<svg width="32" height="32" viewBox="0 0 32 32" fill="none" xmlns="http://www.w3.org/2000/svg">
    <path fill-rule="evenodd" clip-rule="evenodd"
        d="M18.8562 4.57129C19.4702 4.98609 20.0753 5.41574 20.6716 5.86025C23.6753 4.85701 26.7399 4.56406 29.8655 4.98141C32.1529 5.63691 32.6018 6.9454 31.2124 8.90689C29.1576 11.2338 26.6786 12.9719 23.7753 14.1213C23.5152 14.8286 23.2809 15.5513 23.0726 16.2891C20.8513 17.0754 18.6456 17.8957 16.4553 18.7499C16.7311 17.4122 17.0825 16.0842 17.5094 14.7658C17.8106 14.6219 18.0643 14.4266 18.2707 14.1799C17.692 12.4818 17.0672 10.8022 16.3967 9.14125C16.1005 9.3123 15.7882 9.37089 15.4598 9.31702C14.3346 8.62073 13.2415 7.87861 12.1804 7.09063C14.4127 6.23597 16.638 5.39619 18.8562 4.57129ZM24.7122 7.50075C26.3085 7.28108 26.9526 7.94508 26.6447 9.49279C26.0122 10.1608 25.2313 10.5514 24.3023 10.6646C23.4875 10.5133 23.0385 10.0251 22.9554 9.19984C22.9886 8.8062 23.1447 8.4742 23.4239 8.20382C23.815 7.87979 24.2443 7.64543 24.7122 7.50075Z"
        fill="#FA6533" />
    <path fill-rule="evenodd" clip-rule="evenodd"
        d="M10.3065 12.7734C10.4627 12.7734 10.6189 12.7734 10.775 12.7734C11 13.7225 11.2734 14.66 11.5949 15.5857C11.5559 15.6639 11.5167 15.7419 11.4777 15.8201C6.33256 17.9097 3.59977 21.7376 3.27935 27.3036C2.18554 27.323 1.09242 27.3036 0 27.245C0.422779 20.245 3.85829 15.4211 10.3065 12.7734Z"
        fill="#FA6533" />
</svg>