<svg width="32" height="32" viewBox="0 0 32 32" fill="none" xmlns="http://www.w3.org/2000/svg">
    <g clip-path="url(#clip0_5832_45)">
        <path
            d="M23.4077 1.58051C23.4689 1.60974 23.5302 1.63898 23.5933 1.6691C27.0795 3.3469 29.8152 6.54198 31.1164 10.1671C31.4765 11.2326 31.7291 12.3213 31.9015 13.4324C31.9117 13.4977 31.9219 13.563 31.9324 13.6304C32.3721 16.9397 31.8869 20.4114 30.42 23.4077C30.3908 23.4689 30.3615 23.5302 30.3314 23.5933C28.6536 27.0795 25.4585 29.8152 21.8334 31.1164C20.7679 31.4765 19.6792 31.7291 18.5682 31.9015C18.5028 31.9117 18.4375 31.9219 18.3701 31.9324C15.0609 32.3721 11.5891 31.8869 8.59285 30.42C8.53158 30.3908 8.47031 30.3615 8.40719 30.3314C4.92106 28.6536 2.18529 25.4585 0.884086 21.8334C0.52407 20.7679 0.271388 19.6792 0.0990266 18.5682C0.0888414 18.5028 0.0786563 18.4375 0.0681624 18.3701C-0.371609 15.0609 0.11365 11.5891 1.58051 8.59285C1.60974 8.53158 1.63898 8.47031 1.6691 8.40719C3.3469 4.92106 6.54198 2.18529 10.1671 0.884086C11.2326 0.52407 12.3213 0.271388 13.4324 0.0990266C13.4977 0.0888414 13.563 0.0786563 13.6304 0.0681624C16.9397 -0.371609 20.4114 0.11365 23.4077 1.58051Z"
            fill="#FDFEFE" />
        <path
            d="M19.1814 5.64475C19.3178 5.68636 19.3178 5.68636 19.4569 5.72882C19.5349 5.75243 19.6129 5.77604 19.6933 5.80036C19.9357 5.88912 20.178 5.97796 20.4199 6.06832C20.505 6.0992 20.5902 6.13007 20.678 6.16188C20.7593 6.19199 20.8407 6.2221 20.9245 6.25312C20.9983 6.28042 21.0721 6.30773 21.1482 6.33585C21.3334 6.42018 21.3334 6.42018 21.531 6.61771C21.5027 6.88138 21.4053 7.06555 21.2841 7.30289C20.9856 7.9122 20.9344 8.58268 21.1012 9.24078C21.3651 9.98175 21.7658 10.4407 22.426 10.8584C23.0465 11.0826 23.8481 11.0834 24.4673 10.8708C24.6948 10.7649 24.6948 10.7649 24.8925 10.6451C25.1667 10.5366 25.3076 10.5583 25.5804 10.6671C25.7262 10.9047 25.7262 10.9047 25.8396 11.2103C25.8798 11.3174 25.9201 11.4244 25.9615 11.5348C25.9987 11.6395 26.0359 11.7443 26.0742 11.8523C26.1073 11.9377 26.1404 12.0231 26.1745 12.1111C26.3321 12.5359 26.4096 12.7895 26.2717 13.235C26.1085 13.4367 25.9493 13.6125 25.7658 13.7937C25.7126 13.8479 25.6593 13.902 25.6045 13.9578C25.4258 14.1389 25.2457 14.3187 25.0656 14.4984C24.9373 14.628 24.809 14.7577 24.6807 14.8874C24.3321 15.2395 23.9822 15.5903 23.632 15.9408C23.3398 16.2333 23.0482 16.5264 22.7566 16.8194C22.0687 17.5105 21.3797 18.2005 20.69 18.8899C19.9781 19.6016 19.2684 20.3154 18.5598 21.0303C17.9516 21.6437 17.3418 22.2555 16.7309 22.8662C16.3659 23.2311 16.0015 23.5966 15.6387 23.9636C15.2975 24.3086 14.9545 24.6517 14.61 24.9933C14.4838 25.1191 14.3582 25.2456 14.2334 25.3728C14.063 25.5462 13.8905 25.717 13.7171 25.8873C13.668 25.9384 13.619 25.9894 13.5685 26.042C13.4259 26.1792 13.4259 26.1792 13.1359 26.3708C12.7389 26.3543 12.3901 26.2712 12.0167 26.1397C11.9441 26.1142 11.8714 26.0886 11.7966 26.0623C11.7232 26.0358 11.6498 26.0093 11.5742 25.9819C11.4989 25.9557 11.4236 25.9296 11.346 25.9026C10.791 25.7049 10.791 25.7049 10.568 25.4819C10.591 25.1445 10.6526 24.9149 10.8172 24.6185C11.0993 23.9961 11.0648 23.2259 10.9017 22.5676C10.6171 21.9223 10.0362 21.4201 9.39517 21.1424C8.63954 20.9058 8.0062 20.9873 7.30721 21.338C7.08131 21.4469 6.86574 21.4992 6.61739 21.5313C6.28858 21.121 6.13098 20.6933 5.95073 20.2041C5.91826 20.1205 5.8858 20.037 5.85235 19.9508C5.80709 19.8289 5.80709 19.8289 5.76091 19.7045C5.73332 19.631 5.70572 19.5575 5.67729 19.4817C5.61628 19.1968 5.64079 19.0456 5.72851 18.7659C5.89191 18.5642 6.0514 18.3883 6.23508 18.2071C6.28839 18.153 6.34169 18.0989 6.39662 18.0431C6.57552 17.8619 6.75582 17.6822 6.93614 17.5024C7.06469 17.3728 7.19315 17.2432 7.32154 17.1135C7.67058 16.7614 8.02087 16.4105 8.37151 16.06C8.66393 15.7675 8.95579 15.4745 9.24766 15.1814C9.93605 14.4903 10.6255 13.8003 11.3156 13.111C12.0282 12.3991 12.7387 11.6853 13.4482 10.9706C14.0571 10.3573 14.6673 9.74547 15.2786 9.13464C15.6439 8.76961 16.0086 8.40408 16.372 8.03721C16.7136 7.69244 17.0568 7.34935 17.4014 7.00752C17.5278 6.88162 17.6535 6.75513 17.7786 6.62802C17.9492 6.45488 18.1218 6.28401 18.295 6.11354C18.3443 6.06248 18.3937 6.01142 18.4445 5.95881C18.7036 5.70865 18.8147 5.62775 19.1814 5.64475Z"
            fill="#00A5DB" />
        <path
            d="M23.4077 1.58051C23.4689 1.60974 23.5302 1.63898 23.5933 1.6691C27.0795 3.3469 29.8152 6.54198 31.1164 10.1671C31.4765 11.2326 31.7291 12.3213 31.9015 13.4324C31.9117 13.4977 31.9219 13.563 31.9324 13.6304C32.3721 16.9397 31.8869 20.4114 30.42 23.4077C30.3908 23.4689 30.3615 23.5302 30.3314 23.5933C28.6536 27.0795 25.4585 29.8152 21.8334 31.1164C20.7679 31.4765 19.6792 31.7291 18.5682 31.9015C18.5028 31.9117 18.4375 31.9219 18.3701 31.9324C15.0609 32.3721 11.5891 31.8869 8.59285 30.42C8.53158 30.3908 8.47031 30.3615 8.40719 30.3314C4.92106 28.6536 2.18529 25.4585 0.884086 21.8334C0.52407 20.7679 0.271388 19.6792 0.0990266 18.5682C0.0888414 18.5028 0.0786563 18.4375 0.0681624 18.3701C-0.371609 15.0609 0.11365 11.5891 1.58051 8.59285C1.60974 8.53158 1.63898 8.47031 1.6691 8.40719C3.3469 4.92106 6.54198 2.18529 10.1671 0.884086C11.2326 0.52407 12.3213 0.271388 13.4324 0.0990266C13.4977 0.0888414 13.563 0.0786563 13.6304 0.0681624C16.9397 -0.371609 20.4114 0.11365 23.4077 1.58051ZM12.6422 1.48174C12.5679 1.50031 12.4936 1.51889 12.417 1.53802C8.64305 2.49099 5.32567 4.89079 3.29656 8.22248C2.46851 9.62819 1.88742 11.0623 1.48174 12.6422C1.448 12.7678 1.41427 12.8933 1.37951 13.0226C0.944459 14.9773 0.964196 17.4259 1.48174 19.3583C1.50031 19.4326 1.51889 19.5069 1.53802 19.5835C2.49099 23.3575 4.89079 26.6749 8.22248 28.704C9.62819 29.532 11.0623 30.1131 12.6422 30.5188C12.7678 30.5525 12.8933 30.5863 13.0226 30.621C14.9773 31.0561 17.4259 31.0363 19.3583 30.5188C19.4698 30.4909 19.4698 30.4909 19.5835 30.4625C23.3575 29.5095 26.6749 27.1097 28.704 23.778C29.532 22.3723 30.1131 20.9382 30.5188 19.3583C30.5694 19.17 30.5694 19.17 30.621 18.9779C31.0561 17.0232 31.0363 14.5747 30.5188 12.6422C30.4909 12.5308 30.4909 12.5308 30.4625 12.417C29.5095 8.64305 27.1097 5.32567 23.778 3.29656C22.3723 2.46851 20.9382 1.88742 19.3583 1.48174C19.2328 1.448 19.1072 1.41427 18.9779 1.37951C17.0232 0.944459 14.5747 0.964196 12.6422 1.48174Z"
            fill="black" />
        <path
            d="M13.2349 5.72832C13.4333 5.88747 13.6058 6.04147 13.7835 6.22099C13.8334 6.27034 13.8834 6.31968 13.9349 6.37052C14.0398 6.47472 14.1442 6.57943 14.2481 6.68461C14.4077 6.84562 14.5696 7.00411 14.7318 7.16254C14.8335 7.26419 14.9351 7.36597 15.0366 7.46791C15.0852 7.51525 15.1339 7.56259 15.184 7.61136C15.317 7.74812 15.317 7.74812 15.5065 7.99993C15.4733 8.32574 15.35 8.48946 15.1221 8.71621C15.0613 8.77742 15.0005 8.83863 14.9379 8.90169C14.8708 8.96769 14.8037 9.03369 14.7347 9.10168C14.6643 9.17206 14.594 9.24244 14.5215 9.31496C14.2887 9.54759 14.0548 9.77916 13.8209 10.0107C13.6593 10.1717 13.4978 10.3328 13.3364 10.494C12.9111 10.9181 12.485 11.3413 12.0587 11.7643C11.6239 12.1961 11.1899 12.6287 10.7559 13.0613C9.90403 13.91 9.05122 14.7577 8.19783 15.6049C8.08782 15.5109 7.97786 15.4169 7.86792 15.3229C7.80668 15.2705 7.74544 15.2182 7.68235 15.1642C7.28077 14.8173 6.90012 14.4491 6.51882 14.0802C6.43161 13.9991 6.3444 13.9181 6.25455 13.8346C5.63765 13.2335 5.63765 13.2335 5.60254 12.7885C5.64417 12.6749 5.6858 12.5614 5.7287 12.4444C5.75287 12.3728 5.77704 12.3013 5.80195 12.2275C5.88425 11.9902 5.9749 11.7578 6.0682 11.5246C6.09908 11.4446 6.12995 11.3646 6.16176 11.2821C6.39388 10.6928 6.39388 10.6928 6.61759 10.4691C6.88126 10.4973 7.06543 10.5948 7.30277 10.716C7.9979 11.0564 8.75836 11.0679 9.48796 10.8209C10.1292 10.5398 10.6137 10.0427 10.8838 9.39653C11.1174 8.48482 11.0221 7.71881 10.5682 6.91351C10.5717 6.66158 10.5717 6.66158 10.667 6.41968C10.9046 6.27385 10.9046 6.27385 11.2102 6.16042C11.3172 6.12019 11.4243 6.07996 11.5346 6.03851C11.6918 5.98275 11.6918 5.98275 11.8522 5.92585C11.9803 5.8762 11.9803 5.8762 12.111 5.82555C12.536 5.66788 12.7891 5.59135 13.2349 5.72832Z"
            fill="#FCA414" />
        <path
            d="M23.9043 16.5158C24.3828 16.7052 24.7465 17.1649 25.1104 17.5221C25.2713 17.6786 25.4355 17.8311 25.6 17.9838C26.3478 18.7011 26.3478 18.7011 26.405 19.1074C26.3553 19.344 26.2773 19.5356 26.1733 19.7534C26.1281 19.896 26.0842 20.039 26.0417 20.1825C25.9936 20.3195 25.9449 20.4563 25.8955 20.5929C25.8723 20.6635 25.849 20.734 25.8251 20.8067C25.7516 21.0096 25.7516 21.0096 25.5807 21.3337C25.3349 21.4413 25.3349 21.4413 25.0869 21.4325C24.9769 21.3693 24.8669 21.3062 24.7535 21.2411C24.1041 20.8868 23.2722 20.9232 22.5683 21.0991C21.9199 21.3828 21.4176 21.9672 21.1424 22.6115C20.9085 23.3616 21.0148 23.9506 21.3365 24.6562C21.4361 24.8977 21.488 25.126 21.5313 25.3831C21.121 25.7119 20.6933 25.8695 20.2042 26.0497C20.1206 26.0822 20.037 26.1147 19.9509 26.1481C19.8289 26.1934 19.8289 26.1934 19.7045 26.2396C19.631 26.2671 19.5575 26.2947 19.4818 26.3232C19.1952 26.3845 19.0436 26.3708 18.7659 26.272C18.5615 26.101 18.3825 25.9348 18.1991 25.7438C18.1472 25.6913 18.0953 25.6389 18.0418 25.5848C17.8769 25.4176 17.7133 25.2492 17.5498 25.0806C17.438 24.9668 17.326 24.853 17.214 24.7394C16.9401 24.4611 16.6675 24.1817 16.3955 23.9016C16.8012 23.4189 17.2214 22.961 17.6656 22.5137C17.7306 22.4479 17.7955 22.3821 17.8625 22.3144C18.0751 22.0993 18.2881 21.8847 18.5012 21.6701C18.6108 21.5597 18.6108 21.5597 18.7226 21.4471C19.1083 21.0588 19.4943 20.6709 19.8805 20.2832C20.2002 19.9622 20.5192 19.6405 20.8375 19.3182C21.2226 18.9282 21.6089 18.5395 21.9961 18.1516C22.1434 18.0036 22.2903 17.8552 22.4367 17.7064C22.6407 17.4993 22.8462 17.2937 23.0522 17.0885C23.1429 16.9954 23.1429 16.9954 23.2354 16.9004C23.6532 16.4887 23.6532 16.4887 23.9043 16.5158Z"
            fill="#FCA414" />
    </g>
    <defs>
        <clipPath id="clip0_5832_45">
            <rect width="32" height="32" fill="white" />
        </clipPath>
    </defs>
</svg>