<svg width="32" height="32" viewBox="0 0 32 32" fill="none" xmlns="http://www.w3.org/2000/svg">
    <g clip-path="url(#clip0_5754_201)">
        <path fill-rule="evenodd" clip-rule="evenodd"
            d="M-0.0800781 -0.0800781C10.5866 -0.0800781 21.2532 -0.0800781 31.9199 -0.0800781C31.9199 10.5866 31.9199 21.2532 31.9199 31.9199C21.2532 31.9199 10.5866 31.9199 -0.0800781 31.9199C-0.0800781 21.2532 -0.0800781 10.5866 -0.0800781 -0.0800781Z"
            fill="#12003E" />
        <path fill-rule="evenodd" clip-rule="evenodd"
            d="M26.3204 14.4803C26.351 15.7124 26.2977 16.9391 26.1604 18.1603C25.9513 18.6763 25.7913 19.2097 25.6804 19.7603C24.945 21.4611 23.8783 22.9543 22.4804 24.2403C21.9986 24.4273 21.5719 24.694 21.2004 25.0403C20.2722 25.4563 19.3122 25.7763 18.3204 26.0003C17.375 25.9956 16.4415 26.1023 15.5204 26.3203C14.2936 26.1444 13.0936 25.8777 11.9204 25.5203C11.5707 25.4876 11.2507 25.3811 10.9604 25.2003C10.1164 24.6515 9.28977 24.0649 8.48039 23.4403C7.7454 24.2361 7.0254 25.0627 6.32039 25.9203C6.10706 26.027 5.89372 26.027 5.68039 25.9203C5.52497 25.1087 5.47164 24.2822 5.52039 23.4403C5.65345 20.7478 5.73345 18.0278 5.76039 15.2803C5.84039 15.2003 5.92039 15.1203 6.00039 15.0403C5.72375 14.754 5.61708 14.4074 5.68039 14.0003C5.9137 12.3615 6.50038 10.8682 7.44039 9.52027C11.9345 4.70921 16.9478 4.09588 22.4804 7.68027C24.6567 9.44673 25.9367 11.7134 26.3204 14.4803Z"
            fill="#027CF8" />
        <path fill-rule="evenodd" clip-rule="evenodd"
            d="M17.5197 14.1596C18.1632 14.517 18.8566 14.7837 19.5997 14.9596C20.0864 15.1852 20.5931 15.3985 21.1197 15.5996C21.26 15.9475 21.18 16.2142 20.8797 16.3996C19.8421 16.745 18.8286 17.1183 17.8397 17.5196C17.6397 17.5319 17.5064 17.6386 17.4397 17.8396C17.0979 18.9183 16.7246 19.985 16.3197 21.0396C16.1027 21.1804 15.8627 21.2338 15.5997 21.1996C15.2797 20.3463 14.9597 19.4929 14.6397 18.6396C14.6308 17.7774 14.2042 17.3508 13.3597 17.3596C12.9463 17.0441 12.4663 16.8841 11.9197 16.8796C11.5626 16.6074 11.1626 16.3942 10.7197 16.2396C10.613 16.0263 10.613 15.8129 10.7197 15.5996C11.6208 15.2414 12.5008 14.8681 13.3597 14.4796C13.413 14.4796 13.4663 14.4796 13.5197 14.4796C14.194 14.4305 14.514 14.0572 14.4797 13.3596C14.869 12.5415 15.2157 11.6882 15.5197 10.7996C15.7417 10.631 15.9817 10.6044 16.2397 10.7196C16.7272 11.8425 17.1539 12.9891 17.5197 14.1596Z"
            fill="#F3F8F9" />
        <path fill-rule="evenodd" clip-rule="evenodd"
            d="M14.4795 13.3604C14.5139 14.0579 14.1939 14.4313 13.5195 14.4804C13.6289 14.2121 13.8422 14.1054 14.1595 14.1604C14.0919 13.7954 14.1986 13.5287 14.4795 13.3604Z"
            fill="#3E89E2" />
        <path fill-rule="evenodd" clip-rule="evenodd"
            d="M17.5195 14.1601C18.2336 14.1478 18.9269 14.2545 19.5995 14.4801C19.5995 14.6401 19.5995 14.8001 19.5995 14.9601C18.8565 14.7842 18.1631 14.5176 17.5195 14.1601Z"
            fill="#2A80E8" />
        <path fill-rule="evenodd" clip-rule="evenodd"
            d="M13.3603 14.4805C12.5014 14.869 11.6214 15.2423 10.7203 15.6005C10.6136 15.8138 10.6136 16.0272 10.7203 16.2405C11.1633 16.395 11.5633 16.6083 11.9203 16.8805C11.3316 16.8403 10.7983 16.6536 10.3203 16.3205C10.5336 16.0005 10.5336 15.6805 10.3203 15.3605C11.3364 15.0481 12.3498 14.7548 13.3603 14.4805Z"
            fill="#2B82E1" />
        <path fill-rule="evenodd" clip-rule="evenodd"
            d="M5.67974 14C5.61643 14.4071 5.7231 14.7538 5.99974 15.04C5.91974 15.12 5.83974 15.2 5.75974 15.28C5.73279 18.0275 5.65279 20.7475 5.51974 23.44C5.46687 20.2656 5.5202 17.1189 5.67974 14Z"
            fill="#1874E0" />
        <path fill-rule="evenodd" clip-rule="evenodd"
            d="M20.8798 16.4004C20.2438 16.8196 19.5506 17.1663 18.7998 17.4404C18.4842 17.5196 18.1642 17.5463 17.8398 17.5204C18.8288 17.1191 19.8422 16.7458 20.8798 16.4004Z"
            fill="#3283DE" />
        <path fill-rule="evenodd" clip-rule="evenodd"
            d="M26.3202 14.4805C26.505 15.5718 26.5315 16.6918 26.4002 17.8405C26.3557 17.987 26.2757 18.0936 26.1602 18.1605C26.2974 16.9393 26.3507 15.7126 26.3202 14.4805Z"
            fill="#021F79" />
        <path fill-rule="evenodd" clip-rule="evenodd"
            d="M13.3597 17.3605C14.2042 17.3517 14.6309 17.7782 14.6397 18.6405C14.3779 18.4406 14.1913 18.1739 14.0797 17.8405C13.9197 17.6272 13.7597 17.6272 13.5997 17.8405C13.4335 17.7214 13.3535 17.5614 13.3597 17.3605Z"
            fill="#3D87E0" />
        <path fill-rule="evenodd" clip-rule="evenodd"
            d="M17.8396 17.5195C17.4025 18.6648 17.0025 19.8381 16.6396 21.0395C16.3329 21.5859 15.9862 21.6394 15.5996 21.1995C15.8626 21.2338 16.1026 21.1803 16.3196 21.0395C16.7246 19.985 17.0978 18.9183 17.4396 17.8395C17.5063 17.6386 17.6396 17.5319 17.8396 17.5195Z"
            fill="#2880E3" />
        <path fill-rule="evenodd" clip-rule="evenodd"
            d="M25.6805 19.7598C25.8061 20.4151 25.6193 20.9486 25.1205 21.3598C25.0203 21.7138 25.047 22.0606 25.2005 22.3998C24.8395 22.6932 24.8395 22.9599 25.2005 23.1998C24.7134 23.7078 24.2334 24.2143 23.7605 24.7198C23.6689 24.4673 23.6155 24.2273 23.6005 23.9998C23.1853 23.9038 22.8118 23.9838 22.4805 24.2398C23.8784 22.9538 24.9451 21.4606 25.6805 19.7598Z"
            fill="#12044C" />
        <path fill-rule="evenodd" clip-rule="evenodd"
            d="M11.9199 25.5195C13.0932 25.877 14.2932 26.1437 15.5199 26.3195C16.441 26.1016 17.3745 25.9949 18.3199 25.9995C18.1599 26.1063 17.9999 26.2128 17.8399 26.3195C16.4484 26.5503 15.0618 26.5235 13.6799 26.2395C13.045 26.0735 12.4583 25.8335 11.9199 25.5195Z"
            fill="#1362D0" />
        <path fill-rule="evenodd" clip-rule="evenodd"
            d="M21.1998 25.04C21.1981 25.2828 21.0915 25.4695 20.8798 25.6C19.9157 26.0103 18.9022 26.2503 17.8398 26.32C17.9998 26.2133 18.1598 26.1068 18.3198 26C19.3117 25.776 20.2717 25.456 21.1998 25.04Z"
            fill="#030D5B" />
        <path fill-rule="evenodd" clip-rule="evenodd"
            d="M7.44004 9.51969C6.50002 10.8676 5.91335 12.3609 5.68004 13.9997C5.5205 17.1186 5.46718 20.2653 5.52004 23.4397C5.47129 24.2816 5.52462 25.1082 5.68004 25.9197C5.89337 26.0264 6.10671 26.0264 6.32004 25.9197C7.02505 25.0621 7.74505 24.2355 8.48004 23.4397C9.28941 24.0643 10.1161 24.6509 10.96 25.1997C10.3861 24.9987 9.79945 24.9187 9.20004 24.9597C9.23857 25.2096 9.15857 25.4496 8.96004 25.6797C8.45063 25.5347 8.31729 25.2414 8.56004 24.7997C8.81521 24.8984 9.02853 24.8451 9.20004 24.6397C8.96004 24.5064 8.77337 24.3197 8.64004 24.0797C8.23361 24.4325 7.88695 24.8325 7.60004 25.2797C7.07647 25.3496 6.8098 25.6429 6.80004 26.1597C6.2847 26.3314 5.77802 26.3314 5.28004 26.1597C5.24433 22.0504 5.16433 17.9437 5.04004 13.8397C5.20004 13.8397 5.36004 13.8397 5.52004 13.8397C5.51484 13.2041 5.62151 12.5908 5.84004 11.9997C5.82793 11.5615 5.66793 11.1882 5.36004 10.8797C5.41337 10.7997 5.46671 10.7197 5.52004 10.6397C5.82111 10.7346 6.11446 10.8413 6.40004 10.9597C6.60786 10.5362 6.82119 10.1095 7.04004 9.67969C7.14737 9.5593 7.2807 9.50596 7.44004 9.51969Z"
            fill="#0A0F5A" />
    </g>
    <defs>
        <clipPath id="clip0_5754_201">
            <rect width="32" height="32" fill="white" />
        </clipPath>
    </defs>
</svg>