<svg width="32" height="32" viewBox="0 0 32 32" fill="none" xmlns="http://www.w3.org/2000/svg">
    <path fill-rule="evenodd" clip-rule="evenodd"
        d="M25.6748 0.00274081C25.8977 -0.0127298 26.0961 0.0372868 26.2701 0.152941C26.0473 0.168411 25.8488 0.118395 25.6748 0.00274081Z"
        fill="#EBE78A" />
    <path fill-rule="evenodd" clip-rule="evenodd"
        d="M6.17814 0.00292969C5.76834 0.121137 5.34663 0.221245 4.91309 0.303329C4.99494 0.223874 5.09421 0.16124 5.21075 0.11558C5.5317 0.0603811 5.85421 0.0228312 6.17814 0.00292969Z"
        fill="#F3F1AE" />
    <path fill-rule="evenodd" clip-rule="evenodd"
        d="M27.6837 0.603433C27.8114 0.613121 27.9355 0.638129 28.0558 0.678533C28.2424 0.860575 28.4657 0.985691 28.7256 1.05403C28.8859 1.24096 29.0844 1.36615 29.3209 1.42953C29.6728 1.7843 29.9953 2.1598 30.2883 2.55603C30.523 2.91764 30.7711 3.26813 31.0324 3.60743C31.0987 3.76581 31.1856 3.91601 31.2929 4.05803C31.3958 4.27342 31.4578 4.49871 31.4789 4.73393C31.5835 5.15201 31.658 5.57752 31.7022 6.01063C31.6968 6.4646 31.734 6.9152 31.8138 7.36242C31.8634 13.3454 31.8634 19.3283 31.8138 25.3113C31.7199 26.0493 31.5834 26.7753 31.4045 27.4892C31.3056 27.7888 31.2064 28.0892 31.1068 28.3904C30.9282 28.5253 30.8042 28.7006 30.7348 28.9161C30.6851 28.9411 30.6356 28.9662 30.5859 28.9912C30.54 28.9829 30.5028 28.9579 30.4743 28.9161C30.3908 29.0603 30.3288 29.2105 30.2883 29.3667C30.0175 29.5287 29.7198 29.6538 29.3953 29.7422C29.3209 29.6921 29.2465 29.6421 29.172 29.592C29.0455 29.7052 28.9216 29.8179 28.8 29.9299C29.1112 30.2098 29.0616 30.4225 28.6511 30.5683C28.8195 30.7191 28.7823 30.7441 28.5395 30.6434C28.5031 30.7405 28.4906 30.8407 28.5023 30.9438C28.1281 31.1154 27.7436 31.2906 27.3489 31.4695C27.2736 31.4066 27.1868 31.3816 27.0884 31.3944C27.0674 31.013 26.993 31.0004 26.8652 31.3568C26.6227 31.3728 26.3871 31.4103 26.1582 31.4695C26.1096 31.3797 26.0724 31.3797 26.0466 31.4695C26.5287 31.6853 26.4792 31.7979 25.8978 31.8074C25.8564 31.8362 25.8316 31.8738 25.8234 31.9201C25.5306 31.9847 25.233 32.0097 24.9304 31.9952C18.9771 32.0077 13.0239 31.9952 7.07077 31.9576C6.62376 31.92 6.17727 31.8825 5.7313 31.845C5.6321 31.845 5.53283 31.845 5.43364 31.845C5.17772 31.717 4.90492 31.6168 4.61507 31.5446C4.5129 31.5564 4.41363 31.5438 4.31741 31.507C4.10406 31.3369 3.88082 31.1992 3.64768 31.094C3.49394 30.9664 3.32025 30.8663 3.12677 30.7936C2.73818 30.5773 2.39096 30.3019 2.08496 29.9675C2.06018 29.8924 2.01055 29.8423 1.93613 29.8173C1.73878 29.5182 1.51554 29.2429 1.2664 28.9912C1.2664 28.9662 1.2664 28.9411 1.2664 28.9161C1.14182 28.6669 0.992994 28.4416 0.819905 28.2402C0.75241 27.8601 0.628435 27.5096 0.447829 27.1888C0.460852 27.0295 0.435997 26.8793 0.373414 26.7382C0.334049 26.3385 0.296841 25.9379 0.261792 25.5366C0.244528 25.4437 0.20732 25.3686 0.150169 25.3113C0.150169 25.2863 0.150169 25.2612 0.150169 25.2362C0.137742 19.1781 0.150169 13.12 0.187377 7.06202C0.293046 6.57012 0.330254 6.0695 0.298999 5.56003C0.326235 5.24235 0.40065 4.94195 0.522245 4.65883C0.49672 4.5099 0.546355 4.40972 0.671075 4.35843C0.852722 4.24015 0.93949 4.06494 0.931527 3.83273C1.05602 3.6449 1.1925 3.4697 1.34081 3.30703C1.41597 3.10554 1.49038 2.90532 1.56406 2.70623C1.5683 2.62294 1.59308 2.54784 1.63847 2.48093C1.72851 2.44849 1.80293 2.3984 1.86172 2.33073C2.29503 1.97348 2.71667 1.59798 3.12677 1.20423C3.30187 1.14115 3.4507 1.04096 3.57326 0.903832C3.6229 0.903832 3.67246 0.903832 3.72209 0.903832C4.64424 0.48117 5.61164 0.21832 6.62428 0.115283C12.7512 0.0527251 18.8781 0.0651917 25.0048 0.152833C25.0439 0.204802 25.0935 0.242352 25.1536 0.265483C25.6249 0.290491 26.0962 0.315575 26.5675 0.340583C26.9366 0.452106 27.3087 0.539673 27.6837 0.603433Z"
        fill="#E6E126" />
    <path fill-rule="evenodd" clip-rule="evenodd"
        d="M28.0557 0.678711C28.3326 0.705822 28.5559 0.831014 28.7254 1.05421C28.4655 0.98587 28.2423 0.860753 28.0557 0.678711Z"
        fill="#F6F4B8" />
    <path fill-rule="evenodd" clip-rule="evenodd"
        d="M3.57344 0.904297C3.45088 1.04143 3.30205 1.14161 3.12695 1.2047C3.22384 1.03031 3.37267 0.930206 3.57344 0.904297Z"
        fill="#E7E77A" />
    <path fill-rule="evenodd" clip-rule="evenodd"
        d="M3.12736 1.2041C2.71726 1.59785 2.29562 1.97335 1.8623 2.3306C2.13139 2.03366 2.40427 1.73326 2.68087 1.4294C2.80857 1.31487 2.9574 1.23977 3.12736 1.2041Z"
        fill="#E6E36E" />
    <path fill-rule="evenodd" clip-rule="evenodd"
        d="M2.68048 1.42969C2.40388 1.73354 2.131 2.03394 1.86192 2.33089C1.80313 2.39855 1.72871 2.44864 1.63867 2.48109C1.74739 2.33209 1.79695 2.18189 1.7875 2.03049C2.02533 2.01254 2.16174 1.88735 2.19678 1.65499C2.24642 1.55488 2.29598 1.55488 2.34561 1.65499C2.38156 1.58379 2.39391 1.50869 2.38282 1.42969C2.48202 1.42969 2.58129 1.42969 2.68048 1.42969Z"
        fill="#F5F6DA" />
    <path fill-rule="evenodd" clip-rule="evenodd"
        d="M29.3213 1.42969C29.6667 1.46513 29.89 1.65288 29.991 1.99294C30.0616 2.02921 30.136 2.04168 30.2143 2.03049C30.3915 2.24047 30.5155 2.49077 30.5863 2.78149C30.4871 2.70639 30.3879 2.63129 30.2887 2.55619C29.9957 2.15996 29.6732 1.78446 29.3213 1.42969Z"
        fill="#F8F7D9" />
    <path fill-rule="evenodd" clip-rule="evenodd"
        d="M30.2881 2.55566C30.3873 2.63076 30.4866 2.70586 30.5857 2.78096C30.7342 3.05613 30.883 3.33145 31.0322 3.60706C30.771 3.26776 30.5229 2.91727 30.2881 2.55566Z"
        fill="#E4E363" />
    <path fill-rule="evenodd" clip-rule="evenodd"
        d="M1.56388 2.70605C1.49021 2.90514 1.41579 3.10536 1.34063 3.30685C1.19232 3.46952 1.05585 3.64473 0.931351 3.83255C0.939314 4.06476 0.852546 4.23997 0.670898 4.35825C0.756401 4.06401 0.843244 3.76361 0.931351 3.45705C1.13212 3.19233 1.34294 2.94202 1.56388 2.70605Z"
        fill="#E6E35C" />
    <path fill-rule="evenodd" clip-rule="evenodd"
        d="M0.52227 4.65918C0.400675 4.94231 0.32626 5.24271 0.299024 5.56038C0.274244 5.56038 0.24939 5.56038 0.224609 5.56038C0.253631 5.30962 0.290839 5.05924 0.336232 4.80938C0.388918 4.74322 0.45098 4.6932 0.52227 4.65918Z"
        fill="#F8F5C6" />
    <path fill-rule="evenodd" clip-rule="evenodd"
        d="M31.4795 4.73438C31.596 4.88525 31.6704 5.06053 31.7027 5.26007C31.8369 5.82715 31.9113 6.40294 31.926 6.98737C31.8447 6.66324 31.7703 6.33783 31.7027 6.01107C31.6585 5.57797 31.5841 5.15246 31.4795 4.73438Z"
        fill="#ECE97D" />
    <path fill-rule="evenodd" clip-rule="evenodd"
        d="M14.4385 4.95915C15.4426 4.87195 16.4596 4.85949 17.4895 4.9216C17.7106 4.98122 17.9338 5.03132 18.1592 5.0718C18.2006 5.10056 18.2254 5.13811 18.2336 5.18445C18.1344 5.18445 18.0352 5.18445 17.936 5.18445C17.6997 5.11468 17.4516 5.05212 17.1918 4.9967C16.2744 4.95915 15.3566 4.9466 14.4385 4.95915Z"
        fill="#B9DB38" />
    <path fill-rule="evenodd" clip-rule="evenodd"
        d="M14.4383 4.95978C15.3564 4.94724 16.2742 4.95978 17.1917 4.99733C17.4515 5.05276 17.6996 5.11531 17.9358 5.18508C17.1795 5.07574 16.4105 5.02565 15.629 5.03488C14.5018 5.07566 13.3856 5.20085 12.2803 5.41038C12.7326 5.21482 13.2038 5.07716 13.6942 4.99733C13.941 4.95993 14.189 4.94739 14.4383 4.95978Z"
        fill="#55B034" />
    <path fill-rule="evenodd" clip-rule="evenodd"
        d="M17.9353 5.18448C18.0345 5.18448 18.1337 5.18448 18.2329 5.18448C18.3321 5.23457 18.4314 5.28459 18.5306 5.33468C18.7599 5.45296 18.9584 5.61571 19.1259 5.82283C19.3441 5.95058 19.5426 5.93803 19.7212 5.78528C19.9546 5.92714 20.2027 6.03979 20.4654 6.12323C20.4157 6.17332 20.3662 6.22334 20.3166 6.27343C20.4457 6.32232 20.5697 6.30985 20.6886 6.23588C20.7697 6.32803 20.869 6.39059 20.9863 6.42363C20.8871 6.52374 20.8871 6.62392 20.9863 6.72403C21.1812 6.73537 21.3549 6.798 21.5072 6.91178C21.4916 6.95579 21.4668 6.99334 21.4328 7.02443C21.5527 7.0785 21.6644 7.06603 21.7676 6.98688C21.8666 7.06814 21.9782 7.11823 22.1025 7.13708C22.1521 7.16209 22.2017 7.18717 22.2513 7.21218C22.2624 7.29118 22.2501 7.36628 22.2141 7.43748C19.257 9.43439 16.2928 11.4121 13.3215 13.3704C12.1631 11.4588 11.0593 9.50618 10.0101 7.51258C9.89941 7.26032 9.73815 7.0601 9.52637 6.91178C10.3446 6.23588 11.2623 5.73526 12.2797 5.40978C13.385 5.20025 14.5012 5.07506 15.6284 5.03428C16.41 5.02504 17.179 5.07514 17.9353 5.18448Z"
        fill="#32AE4A" />
    <path fill-rule="evenodd" clip-rule="evenodd"
        d="M18.2334 5.18432C18.5074 5.17193 18.7802 5.18439 19.052 5.22187C19.5366 5.45363 20.0327 5.66646 20.5403 5.86022C20.6165 5.96175 20.6909 6.06186 20.7635 6.16062C20.07 5.76131 19.3259 5.48592 18.5311 5.33452C18.4319 5.28443 18.3326 5.23441 18.2334 5.18432Z"
        fill="#C9E23B" />
    <path fill-rule="evenodd" clip-rule="evenodd"
        d="M31.7021 5.25977C31.8401 5.50061 31.9269 5.77593 31.9626 6.08586C31.975 9.4028 31.9874 12.7197 31.9998 16.0366C31.9998 19.3789 31.9502 22.6959 31.851 25.9873C31.9238 19.6548 31.9486 13.3214 31.9254 6.98706C31.9107 6.40264 31.8363 5.82685 31.7021 5.25977Z"
        fill="#F9F9CF" />
    <path fill-rule="evenodd" clip-rule="evenodd"
        d="M18.5312 5.33496C19.3261 5.48636 20.0702 5.76175 20.7637 6.16106C21.2535 6.43074 21.7 6.75615 22.1032 7.13736C21.9789 7.11851 21.8673 7.06842 21.7683 6.98716C21.665 7.06631 21.5534 7.07878 21.4334 7.02471C21.4674 6.99362 21.4923 6.95607 21.5079 6.91206C21.3555 6.79828 21.1818 6.73565 20.9869 6.72431C20.8878 6.6242 20.8878 6.52402 20.9869 6.42391C20.8697 6.39087 20.7704 6.32831 20.6893 6.23616C20.5704 6.31013 20.4463 6.3226 20.3172 6.27371C20.3668 6.22362 20.4164 6.1736 20.466 6.12351C20.2034 6.04007 19.9553 5.92742 19.7219 5.78556C19.5432 5.93831 19.3448 5.95086 19.1266 5.82311C18.9591 5.61598 18.7606 5.45324 18.5312 5.33496Z"
        fill="#42AE3D" />
    <path fill-rule="evenodd" clip-rule="evenodd"
        d="M0.224517 5.56055C0.249298 5.56055 0.274152 5.56055 0.298932 5.56055C0.330187 6.07002 0.292979 6.57064 0.18731 7.06255C0.150102 13.1206 0.137675 19.1786 0.150102 25.2367C0.0757616 19.0661 0.050907 12.8829 0.0756872 6.68705C0.0756872 6.63695 0.0756872 6.58694 0.0756872 6.53685C0.129415 6.50545 0.166622 6.45544 0.18731 6.38665C0.224443 6.11238 0.236796 5.83706 0.224517 5.56055Z"
        fill="#E1E152" />
    <path fill-rule="evenodd" clip-rule="evenodd"
        d="M0.225002 5.56055C0.23728 5.83706 0.224928 6.11238 0.187794 6.38665C0.167107 6.45544 0.1299 6.50545 0.0761719 6.53685C0.104747 6.19815 0.154382 5.87274 0.225002 5.56055Z"
        fill="#EFEDA0" />
    <path fill-rule="evenodd" clip-rule="evenodd"
        d="M31.702 6.01074C31.7695 6.3375 31.8439 6.66291 31.9252 6.98704C31.9484 13.3213 31.9236 19.6548 31.8508 25.9873C31.7397 26.3758 31.6405 26.7763 31.5531 27.1889C31.5035 27.289 31.4539 27.3892 31.4043 27.4893C31.5832 26.7754 31.7197 26.0494 31.8136 25.3114C31.8632 19.3284 31.8632 13.3455 31.8136 7.36254C31.7338 6.91532 31.6966 6.46472 31.702 6.01074Z"
        fill="#E2E152" />
    <path fill-rule="evenodd" clip-rule="evenodd"
        d="M0.0759081 6.68652C0.0511279 12.8824 0.0759825 19.0656 0.150323 25.2362C0.150323 25.2612 0.150323 25.2863 0.150323 25.3113C0.202414 25.6341 0.227194 25.9595 0.224738 26.2876C0.130901 26.0805 0.0689131 25.8552 0.0387006 25.6117C-0.0232128 19.2907 -0.0108599 12.9823 0.0759081 6.68652Z"
        fill="#F9F9C8" />
    <path fill-rule="evenodd" clip-rule="evenodd"
        d="M9.52655 6.91211C9.73833 7.06043 9.89959 7.26065 10.0102 7.51291C11.0595 9.50651 12.1633 11.4591 13.3217 13.3707C13.3465 13.4208 13.3713 13.4708 13.3961 13.5209C13.3713 13.5209 13.3465 13.5209 13.3217 13.5209C10.7769 14.3412 8.2219 15.1423 5.65696 15.9241C5.64461 15.4978 5.65704 15.0722 5.69417 14.6474C5.84501 13.9086 5.95663 13.1576 6.02904 12.3944C6.0091 12.2743 6.03395 12.1742 6.10345 12.094C6.19364 12.0392 6.26806 11.9641 6.3267 11.8687C6.37611 11.5531 6.46295 11.2527 6.58715 10.9675C6.68717 10.8292 6.79879 10.7041 6.92202 10.592C6.86182 10.474 6.83696 10.3488 6.8476 10.2165C6.98602 9.94742 7.11007 9.67211 7.21968 9.39041C7.85645 8.44708 8.62545 7.62098 9.52655 6.91211Z"
        fill="#208E43" />
    <path fill-rule="evenodd" clip-rule="evenodd"
        d="M22.2521 7.21191C22.3761 7.28701 22.4753 7.38712 22.5497 7.51231C22.6411 7.7057 22.7652 7.8809 22.9218 8.03801C22.897 8.0881 22.8722 8.13812 22.8474 8.18821C22.9959 8.24792 23.1447 8.29793 23.2939 8.33841C23.3902 8.39774 23.477 8.47284 23.5543 8.56371C23.7855 8.90587 23.9964 9.25636 24.1869 9.61511C24.2009 10.0562 24.3497 10.4443 24.6334 10.7792C24.6032 10.8501 24.5536 10.9002 24.4845 10.9294C24.5989 11.0127 24.6485 11.1254 24.6334 11.2673C24.7078 11.2673 24.7822 11.2673 24.8566 11.2673C24.9375 11.6128 25.0615 11.9383 25.2287 12.2436C25.3666 12.5767 25.441 12.9272 25.4519 13.295C25.7057 14.8358 25.8049 16.3878 25.7496 17.9512C22.9587 17.9263 20.1806 17.9514 17.4151 18.0263C17.3903 18.0263 17.3655 18.0263 17.3407 18.0263C16.9693 17.5514 16.5724 17.1008 16.15 16.6745C15.729 16.1495 15.2825 15.6489 14.8106 15.1725C14.7858 15.0974 14.7362 15.0473 14.6617 15.0223C14.2417 14.5231 13.82 14.0224 13.3967 13.5203C13.3719 13.4702 13.347 13.4202 13.3223 13.3701C16.2935 11.4118 19.2577 9.43412 22.2149 7.43721C22.2508 7.36602 22.2632 7.29092 22.2521 7.21191Z"
        fill="#64BA51" />
    <path fill-rule="evenodd" clip-rule="evenodd"
        d="M22.5488 7.5127C22.8514 7.74273 23.0994 8.01804 23.293 8.33879C23.1438 8.29832 22.9949 8.2483 22.8465 8.18859C22.8713 8.1385 22.8961 8.08849 22.9209 8.03839C22.7643 7.88129 22.6402 7.70608 22.5488 7.5127Z"
        fill="#7DBA3F" />
    <path fill-rule="evenodd" clip-rule="evenodd"
        d="M7.21979 9.39062C7.11017 9.67232 6.98612 9.94764 6.84771 10.2167C6.4993 10.7959 6.2512 11.4217 6.10356 12.0942C6.03406 12.1744 6.0092 12.2745 6.02915 12.3946C6.00437 12.3946 5.97951 12.3946 5.95473 12.3946C5.94253 12.1928 5.95495 11.9925 5.99194 11.7938C6.26809 11.4657 6.3053 11.1152 6.10356 10.7424C6.14092 10.6657 6.19048 10.6532 6.25239 10.7049C6.30381 10.785 6.34102 10.8726 6.36401 10.9677C6.37644 10.9052 6.38879 10.8425 6.40122 10.78C6.41834 10.505 6.3687 10.2547 6.25239 10.029C6.39802 10.0598 6.522 10.1473 6.62447 10.2918C6.81631 10.0153 6.94036 9.71491 6.99654 9.39062C7.07096 9.39062 7.14537 9.39062 7.21979 9.39062Z"
        fill="#DCE433" />
    <path fill-rule="evenodd" clip-rule="evenodd"
        d="M24.1865 9.61523C24.4058 9.93546 24.5919 10.2859 24.7446 10.6666C24.9279 11.1841 25.0892 11.7098 25.2283 12.2437C25.0612 11.9384 24.9371 11.613 24.8563 11.2674C24.7818 11.2674 24.7074 11.2674 24.633 11.2674C24.6481 11.1255 24.5986 11.0128 24.4842 10.9295C24.5532 10.9003 24.6029 10.8503 24.633 10.7793C24.3493 10.4444 24.2005 10.0564 24.1865 9.61523Z"
        fill="#77BA43" />
    <path fill-rule="evenodd" clip-rule="evenodd"
        d="M6.84767 10.2158C6.83702 10.3481 6.86188 10.4733 6.92208 10.5913C6.79885 10.7034 6.68723 10.8285 6.58721 10.9668C6.46301 11.252 6.37617 11.5524 6.32676 11.868C6.26812 11.9634 6.19371 12.0385 6.10352 12.0933C6.25116 11.4208 6.49925 10.795 6.84767 10.2158Z"
        fill="#3D912E" />
    <path fill-rule="evenodd" clip-rule="evenodd"
        d="M5.95438 12.3945C5.97916 12.3945 6.00402 12.3945 6.0288 12.3945C5.95639 13.1578 5.84477 13.9088 5.69393 14.6475C5.6568 15.0724 5.64437 15.498 5.65672 15.9242C5.65672 15.9492 5.65672 15.9743 5.65672 15.9993C5.58298 16.511 5.55812 17.0367 5.58231 17.5764C5.55753 17.5764 5.53267 17.5764 5.50789 17.5764C5.42879 15.8514 5.57762 14.1491 5.95438 12.4696C5.95438 12.4446 5.95438 12.4195 5.95438 12.3945Z"
        fill="#4C8F26" />
    <path fill-rule="evenodd" clip-rule="evenodd"
        d="M5.95481 12.4697C5.57805 14.1492 5.42922 15.8515 5.50832 17.5765C5.41597 16.3611 5.4284 15.1345 5.54553 13.8966C5.65105 13.3928 5.78745 12.9171 5.95481 12.4697Z"
        fill="#D5E543" />
    <path fill-rule="evenodd" clip-rule="evenodd"
        d="M25.4519 13.2949C25.509 13.4613 25.5587 13.6365 25.6007 13.8206C25.8003 15.2139 25.8747 16.6158 25.8239 18.0262C25.8239 18.0512 25.8239 18.0763 25.8239 18.1013C23.0209 18.1013 20.218 18.1013 17.415 18.1013C17.415 18.0763 17.415 18.0512 17.415 18.0262C20.1805 17.9513 22.9587 17.9262 25.7495 17.9511C25.8048 16.3878 25.7056 14.8357 25.4519 13.2949Z"
        fill="#7DBA3B" />
    <path fill-rule="evenodd" clip-rule="evenodd"
        d="M13.3222 13.5205C13.2274 13.6867 13.153 13.8619 13.0989 14.0462C11.8424 16.5574 10.6022 19.0858 9.37817 21.6313C9.15776 21.6025 9.08334 21.6776 9.15493 21.8566C9.07099 21.9138 8.98415 21.9639 8.89448 22.0068C8.8697 22.182 8.84484 22.3573 8.82006 22.5325C8.62986 22.7809 8.48103 23.0563 8.37357 23.3586C7.87722 23.4287 7.79045 23.6416 8.11312 23.9969C8.04763 24.0988 8.02278 24.2114 8.0387 24.3349C8.0387 24.385 8.0387 24.435 8.0387 24.4851C8.0387 24.5101 8.0387 24.5352 8.0387 24.5602C7.6926 24.2126 7.41972 23.812 7.22014 23.3586C7.15168 23.1327 7.05241 22.9199 6.92248 22.7202C6.94726 22.6952 6.97211 22.6702 6.99689 22.6451C6.77662 22.311 6.57823 21.973 6.40157 21.6313C6.33921 21.6056 6.31436 21.5556 6.32716 21.4811C6.29382 21.1789 6.24426 20.8785 6.17833 20.5799C6.1438 20.394 6.06938 20.2438 5.95508 20.1293C5.85946 19.8973 5.8099 19.647 5.80625 19.3783C5.68503 18.2598 5.6354 17.1333 5.65742 15.9988C5.65742 15.9738 5.65742 15.9487 5.65742 15.9237C8.22236 15.1419 10.7773 14.3408 13.3222 13.5205Z"
        fill="#195C2B" />
    <path fill-rule="evenodd" clip-rule="evenodd"
        d="M13.3219 13.5205C13.3467 13.5205 13.3715 13.5205 13.3963 13.5205C13.8196 14.0226 14.2414 14.5233 14.6613 15.0225C14.5739 15.039 14.4995 15.0139 14.4381 14.9474C14.0979 14.5851 13.7754 14.2096 13.4707 13.8209C13.3612 13.8871 13.2993 13.9872 13.2847 14.1213C13.2592 13.9622 13.1972 13.9371 13.0986 14.0462C13.1527 13.8619 13.2271 13.6867 13.3219 13.5205Z"
        fill="#0E3A10" />
    <path fill-rule="evenodd" clip-rule="evenodd"
        d="M14.661 15.0229C14.7354 15.0479 14.7851 15.098 14.8099 15.1731C14.7988 15.2521 14.8111 15.3272 14.8471 15.3984C15.0286 15.4565 15.1278 15.5816 15.1447 15.7739C15.4715 16.0916 15.8063 16.392 16.1493 16.6751C16.386 17.3255 16.2621 17.4131 15.7773 16.9379C15.8113 16.9068 15.8361 16.8693 15.8517 16.8253C15.7316 16.6478 15.5827 16.5978 15.4052 16.6751C15.5882 17.0223 15.8362 17.3102 16.1493 17.5387C16.2449 17.5901 16.3317 17.5776 16.4098 17.5012C16.509 17.6013 16.6082 17.7015 16.7074 17.8016C16.7363 17.7319 16.7859 17.6818 16.8563 17.6514C16.9954 17.7166 17.0326 17.8042 16.9679 17.9142C15.0949 17.9269 13.2345 17.9644 11.3868 18.0269C11.3648 18.1947 11.3897 18.3449 11.4612 18.4775C11.4612 18.6027 11.4612 18.7278 11.4612 18.853C11.4369 19.1822 11.4618 19.5076 11.5356 19.8293C11.5859 19.912 11.6355 19.9871 11.6844 20.0546C11.6844 20.0796 11.6844 20.1047 11.6844 20.1297C11.7518 20.6419 11.9255 21.1175 12.2053 21.5566C12.1512 21.6809 12.1387 21.806 12.1681 21.9321C12.2304 21.8189 12.3172 21.7814 12.4286 21.8194C12.5955 22.0063 12.7443 22.2065 12.8751 22.4202C12.9456 22.4565 13.02 22.469 13.0983 22.4578C13.4578 22.7064 13.8299 22.9443 14.2145 23.1712C14.6503 23.3313 15.0968 23.4439 15.554 23.5092C15.7634 23.5591 15.9867 23.5841 16.2237 23.5843C16.5435 23.6009 16.8412 23.5509 17.1167 23.4341C17.907 23.249 18.5271 22.8234 18.9771 22.1574C19.2925 21.7869 19.5157 21.3613 19.6468 20.8807C19.7595 20.7921 19.8835 20.717 20.0189 20.6554C19.9152 20.5662 19.9276 20.5161 20.0561 20.5052C20.4261 20.6425 20.8106 20.6926 21.2096 20.6554C21.5568 20.7055 21.9041 20.7555 22.2514 20.8056C22.2761 20.8056 22.301 20.8056 22.3258 20.8056C22.4314 20.877 22.5553 20.902 22.6979 20.8807C22.7394 20.9776 22.8138 21.0401 22.9211 21.0684C23.7489 21.1856 24.5675 21.3232 25.3768 21.4815C25.324 21.7198 25.2371 21.9451 25.1163 22.1574C25.0677 22.0676 25.0305 22.0676 25.0047 22.1574C25.0295 22.2075 25.0544 22.2575 25.0791 22.3076C24.872 22.5752 24.748 22.8756 24.7071 23.2088C24.0449 24.4273 23.1519 25.4287 22.0281 26.2128C21.4084 26.4755 20.8131 26.7759 20.2422 27.114C19.7485 27.3495 19.2276 27.5247 18.6794 27.6397C18.4333 27.6811 18.1853 27.7061 17.9353 27.7148C16.1098 27.7667 14.3239 27.6666 12.5774 27.4144C12.3242 27.388 12.0761 27.3379 11.8333 27.2642C11.2588 27.0459 10.7132 26.7706 10.1961 26.4381C10.155 26.3006 10.155 26.1754 10.1961 26.0626C10.059 26.0434 9.91015 26.0309 9.74963 26.025C9.57535 25.8953 9.40174 25.7701 9.22873 25.6495C9.06873 25.4962 8.99432 25.3085 9.00548 25.0863C8.85725 25.0992 8.73327 25.0491 8.63341 24.9361C8.5898 24.9518 8.55259 24.9769 8.52178 25.0112C8.45898 24.728 8.29779 24.5528 8.03809 24.4855C8.03809 24.4354 8.03809 24.3854 8.03809 24.3353C8.52238 23.458 8.96887 22.5568 9.37756 21.6317C10.6015 19.0862 11.8418 16.5578 13.0983 14.0466C13.1969 13.9375 13.2589 13.9626 13.2843 14.1217C13.2989 13.9876 13.3609 13.8875 13.4704 13.8213C13.7751 14.21 14.0976 14.5855 14.4378 14.9478C14.4992 15.0143 14.5736 15.0393 14.661 15.0229Z"
        fill="#113218" />
    <path fill-rule="evenodd" clip-rule="evenodd"
        d="M25.6006 13.8213C25.7068 13.9451 25.7688 14.0953 25.7866 14.2719C25.8114 14.2469 25.8363 14.2218 25.861 14.1968C25.9227 15.4864 25.9103 16.7631 25.8238 18.0269C25.8746 16.6164 25.8002 15.2146 25.6006 13.8213Z"
        fill="#CCDE38" />
    <path fill-rule="evenodd" clip-rule="evenodd"
        d="M14.8106 15.1729C15.2825 15.6492 15.729 16.1498 16.15 16.6748C15.8071 16.3917 15.4722 16.0913 15.1454 15.7737C15.1285 15.5814 15.0294 15.4563 14.8478 15.3982C14.8118 15.327 14.7995 15.2519 14.8106 15.1729Z"
        fill="#0E3E0F" />
    <path fill-rule="evenodd" clip-rule="evenodd"
        d="M5.6566 15.999C5.63458 17.1335 5.68421 18.26 5.80544 19.3785C5.66025 18.7977 5.58584 18.1969 5.58219 17.5761C5.55801 17.0364 5.58286 16.5107 5.6566 15.999Z"
        fill="#255A15" />
    <path fill-rule="evenodd" clip-rule="evenodd"
        d="M16.1493 16.6748C16.5717 17.1012 16.9685 17.5518 17.3399 18.0266C15.3555 18.0266 13.3711 18.0266 11.3867 18.0266C13.2344 17.9641 15.0948 17.9266 16.9678 17.914C17.0325 17.804 16.9953 17.7164 16.8562 17.6511C16.7859 17.6815 16.7363 17.7316 16.7074 17.8013C16.6082 17.7012 16.5089 17.601 16.4097 17.5009C16.3317 17.5773 16.2448 17.5898 16.1493 17.5385C15.8361 17.3099 15.5881 17.022 15.4051 16.6748C15.5827 16.5976 15.7315 16.6476 15.8516 16.825C15.8361 16.869 15.8112 16.9066 15.7772 16.9377C16.262 17.4128 16.386 17.3252 16.1493 16.6748Z"
        fill="#0F3111" />
    <path fill-rule="evenodd" clip-rule="evenodd"
        d="M5.50854 17.5762C5.53332 17.5762 5.55817 17.5762 5.58295 17.5762C5.5866 18.1969 5.66101 18.7977 5.8062 19.3786C5.80984 19.6473 5.8594 19.8976 5.95503 20.1296C6.02163 20.6053 6.14568 21.0559 6.3271 21.4814C6.3143 21.5559 6.33916 21.6059 6.40152 21.6316C6.41112 21.7604 6.4359 21.8856 6.47593 22.0071C6.26296 21.7775 6.12655 21.5021 6.06665 21.181C5.99223 21.1059 5.91782 21.0308 5.8434 20.9557C5.83901 20.2879 5.73982 19.637 5.54574 19.0031C5.50854 18.5281 5.49618 18.0525 5.50854 17.5762Z"
        fill="#D1D93C" />
    <path fill-rule="evenodd" clip-rule="evenodd"
        d="M11.3866 18.0264C13.3711 18.0264 15.3554 18.0264 17.3398 18.0264C17.3646 18.0264 17.3895 18.0264 17.4142 18.0264C17.4142 18.0514 17.4142 18.0765 17.4142 18.1015C15.4298 18.1015 13.4455 18.1015 11.461 18.1015C11.461 18.2267 11.461 18.3518 11.461 18.477C11.3895 18.3444 11.3647 18.1942 11.3866 18.0264Z"
        fill="#637206" />
    <path fill-rule="evenodd" clip-rule="evenodd"
        d="M17.4151 18.1016C20.2181 18.1016 23.021 18.1016 25.824 18.1016C21.074 18.1766 16.3115 18.2016 11.5363 18.1767C11.5363 18.402 11.5363 18.6273 11.5363 18.8526C11.5115 18.8526 11.4867 18.8526 11.4619 18.8526C11.4619 18.7274 11.4619 18.6023 11.4619 18.4771C11.4619 18.3519 11.4619 18.2268 11.4619 18.1016C13.4463 18.1016 15.4307 18.1016 17.4151 18.1016Z"
        fill="#DBE643" />
    <path fill-rule="evenodd" clip-rule="evenodd"
        d="M11.4611 18.8525C11.4859 18.8525 11.5108 18.8525 11.5356 18.8525C11.5562 19.257 11.6058 19.6575 11.6844 20.0541C11.6354 19.9867 11.5859 19.9116 11.5356 19.8288C11.4617 19.5072 11.4369 19.1818 11.4611 18.8525Z"
        fill="#384B0D" />
    <path fill-rule="evenodd" clip-rule="evenodd"
        d="M5.95508 20.1299C6.06938 20.2444 6.14379 20.3946 6.17832 20.5805C6.24426 20.8791 6.29382 21.1795 6.32715 21.4817C6.14573 21.0562 6.02168 20.6056 5.95508 20.1299Z"
        fill="#2B5E15" />
    <path fill-rule="evenodd" clip-rule="evenodd"
        d="M11.6846 20.1299C11.8674 20.5991 12.0907 21.0497 12.3543 21.4817C12.5843 21.8207 12.8324 22.1461 13.0985 22.458C13.0202 22.4692 12.9458 22.4567 12.8752 22.4204C12.7445 22.2067 12.5956 22.0065 12.4287 21.8196C12.3174 21.7816 12.2306 21.8191 12.1683 21.9323C12.1389 21.8062 12.1513 21.6811 12.2055 21.5568C11.9256 21.1177 11.7519 20.6421 11.6846 20.1299Z"
        fill="#1C360B" />
    <path fill-rule="evenodd" clip-rule="evenodd"
        d="M19.7959 20.4296C20.1716 20.38 20.556 20.3549 20.9493 20.3545C21.3478 20.4867 21.7571 20.5994 22.1772 20.6924C22.2186 20.7212 22.2433 20.7588 22.2516 20.8051C21.9043 20.755 21.5571 20.705 21.2098 20.6549C20.7531 20.5468 20.2818 20.4717 19.7959 20.4296Z"
        fill="#D8DA3C" />
    <path fill-rule="evenodd" clip-rule="evenodd"
        d="M19.7963 20.4297C20.2822 20.4718 20.7535 20.5469 21.2102 20.655C20.8112 20.6922 20.4267 20.6421 20.0567 20.5048C19.9282 20.5158 19.9158 20.5658 20.0195 20.655C19.8842 20.7166 19.7601 20.7917 19.6475 20.8803C19.6825 20.7242 19.7321 20.574 19.7963 20.4297Z"
        fill="#253F0C" />
    <path fill-rule="evenodd" clip-rule="evenodd"
        d="M22.3262 20.8057C22.9279 20.804 23.5232 20.8666 24.1121 20.9934C24.2603 21.0215 24.3843 21.0841 24.4842 21.1812C23.886 21.0972 23.2907 20.9971 22.6982 20.8808C22.5557 20.9021 22.4318 20.8771 22.3262 20.8057Z"
        fill="#CAD141" />
    <path fill-rule="evenodd" clip-rule="evenodd"
        d="M22.6982 20.8809C23.2907 20.9972 23.886 21.0973 24.4842 21.1813C24.5338 21.1813 24.5834 21.1813 24.633 21.1813C24.9151 21.2805 25.2127 21.3556 25.526 21.4066C25.4363 21.6281 25.3619 21.8534 25.3028 22.0825C25.1244 22.4675 24.9259 22.843 24.7074 23.209C24.7484 22.8757 24.8724 22.5753 25.0795 22.3078C25.0547 22.2577 25.0299 22.2076 25.0051 22.1576C25.0309 22.0677 25.0681 22.0677 25.1167 22.1576C25.2375 21.9453 25.3243 21.72 25.3772 21.4817C24.5678 21.3234 23.7493 21.1858 22.9215 21.0686C22.8142 21.0403 22.7398 20.9777 22.6982 20.8809Z"
        fill="#1E3808" />
    <path fill-rule="evenodd" clip-rule="evenodd"
        d="M24.6328 21.1807C24.957 21.1871 25.2795 21.2122 25.6002 21.2558C25.5617 21.5597 25.4996 21.8601 25.4142 22.157C25.3857 22.1152 25.3485 22.0902 25.3025 22.0819C25.3617 21.8528 25.4361 21.6275 25.5258 21.406C25.2125 21.355 24.9148 21.2799 24.6328 21.1807Z"
        fill="#CCCF3F" />
    <path fill-rule="evenodd" clip-rule="evenodd"
        d="M12.3545 21.4814C12.4669 21.5567 12.591 21.6068 12.7266 21.6316C12.7912 21.9 12.9028 21.9 13.0614 21.6316C13.0986 21.7193 13.1606 21.7818 13.2475 21.8194C13.1978 21.8444 13.1483 21.8695 13.0986 21.8945C13.2674 22.1142 13.4162 22.352 13.5451 22.6079C13.7269 22.7201 13.9253 22.7952 14.1405 22.8332C14.2221 22.9861 14.3461 23.0862 14.5125 23.1336C15.2592 23.3967 16.0281 23.4969 16.8194 23.434C16.412 23.5083 15.9903 23.5333 15.5543 23.5091C15.0971 23.4439 14.6506 23.3312 14.2149 23.1712C13.8302 22.9442 13.4581 22.7064 13.0986 22.4577C12.8326 22.1459 12.5845 21.8204 12.3545 21.4814Z"
        fill="#D9DB3C" />
    <path fill-rule="evenodd" clip-rule="evenodd"
        d="M9.37763 21.632C8.96895 22.557 8.52246 23.4582 8.03816 24.3355C8.02224 24.2121 8.04709 24.0994 8.11258 23.9976C7.78992 23.6422 7.87668 23.4294 8.37303 23.3592C8.48049 23.057 8.62932 22.7816 8.81952 22.5331C8.8443 22.3579 8.86916 22.1827 8.89394 22.0075C8.98361 21.9646 9.07045 21.9145 9.15439 21.8573C9.0828 21.6783 9.15722 21.6032 9.37763 21.632Z"
        fill="#1E562F" />
    <path fill-rule="evenodd" clip-rule="evenodd"
        d="M6.40137 21.6318C6.57803 21.9735 6.77642 22.3115 6.99669 22.6457C6.97191 22.6707 6.94705 22.6958 6.92227 22.7208C7.0522 22.9205 7.15147 23.1332 7.21993 23.3591C6.93306 22.9303 6.68504 22.4797 6.47578 22.0073C6.43575 21.8859 6.41097 21.7607 6.40137 21.6318Z"
        fill="#2F5F12" />
    <path fill-rule="evenodd" clip-rule="evenodd"
        d="M18.9772 22.1572C18.5272 22.8233 17.9071 23.2489 17.1168 23.4339C17.0424 23.4339 16.968 23.4339 16.8936 23.4339C17.2838 23.2012 17.7055 23.026 18.1586 22.9082C18.1586 22.8331 18.1586 22.758 18.1586 22.6829C18.2578 22.6829 18.3571 22.6829 18.4563 22.6829C18.4315 22.4576 18.5307 22.3575 18.7539 22.3825C18.7539 22.3074 18.7539 22.2323 18.7539 22.1572C18.8283 22.1572 18.9028 22.1572 18.9772 22.1572Z"
        fill="#D6DA3E" />
    <path fill-rule="evenodd" clip-rule="evenodd"
        d="M16.8197 23.4336C16.8445 23.4336 16.8694 23.4336 16.8942 23.4336C16.9686 23.4336 17.043 23.4336 17.1174 23.4336C16.8418 23.5504 16.5442 23.6005 16.2244 23.5838C15.9873 23.5836 15.7641 23.5586 15.5547 23.5087C15.9906 23.5329 16.4123 23.5079 16.8197 23.4336Z"
        fill="#3C5206" />
    <path fill-rule="evenodd" clip-rule="evenodd"
        d="M8.03809 24.4854C8.29779 24.5527 8.45898 24.7279 8.52178 25.0111C8.55259 24.9767 8.5898 24.9516 8.63341 24.936C8.73327 25.049 8.85725 25.0991 9.00548 25.0862C8.99432 25.3084 9.06873 25.4961 9.22873 25.6494C9.40174 25.7699 9.57535 25.8951 9.74963 26.0249C9.91015 26.0308 10.059 26.0433 10.1961 26.0624C10.155 26.1753 10.155 26.3004 10.1961 26.4379C9.36141 25.9459 8.64204 25.3201 8.03809 24.5605C8.03809 24.5354 8.03809 24.5104 8.03809 24.4854Z"
        fill="#17350C" />
    <path fill-rule="evenodd" clip-rule="evenodd"
        d="M0.150391 25.3115C0.207541 25.3688 0.244749 25.4439 0.262013 25.5368C0.297063 25.9382 0.33427 26.3387 0.373636 26.7384C0.324001 26.6383 0.274441 26.5381 0.224806 26.438C0.224806 26.3879 0.224806 26.3379 0.224806 26.2878C0.227261 25.9597 0.202481 25.6343 0.150391 25.3115Z"
        fill="#E4E264" />
    <path fill-rule="evenodd" clip-rule="evenodd"
        d="M31.8514 25.9873C31.8852 26.433 31.786 26.8335 31.5537 27.1889C31.6411 26.7763 31.7403 26.3758 31.8514 25.9873Z"
        fill="#F8F8C8" />
    <path fill-rule="evenodd" clip-rule="evenodd"
        d="M22.0281 26.2129C21.4972 26.631 20.9019 26.9314 20.2422 27.1141C20.8131 26.776 21.4084 26.4756 22.0281 26.2129Z"
        fill="#1C3607" />
    <path fill-rule="evenodd" clip-rule="evenodd"
        d="M0.224726 26.4375C0.274361 26.5376 0.323921 26.6378 0.373556 26.7379C0.436139 26.879 0.460994 27.0292 0.447971 27.1885C0.283365 26.9766 0.20895 26.7263 0.224726 26.4375Z"
        fill="#F7F5BB" />
    <path fill-rule="evenodd" clip-rule="evenodd"
        d="M0.448242 27.1885C0.628848 27.5093 0.752823 27.8598 0.820317 28.2399C0.759669 28.1701 0.697681 28.095 0.63428 28.0146C0.549595 27.7426 0.487533 27.4672 0.448242 27.1885Z"
        fill="#F5F5C1" />
    <path fill-rule="evenodd" clip-rule="evenodd"
        d="M31.5539 27.1885C31.5146 27.4672 31.4526 27.7426 31.3679 28.0146C31.313 28.172 31.2263 28.2972 31.1074 28.3901C31.207 28.0889 31.3062 27.7885 31.4051 27.4889C31.4547 27.3888 31.5043 27.2886 31.5539 27.1885Z"
        fill="#F6F5C4" />
    <path fill-rule="evenodd" clip-rule="evenodd"
        d="M11.834 27.2637C12.0768 27.3374 12.3249 27.3875 12.5781 27.4139C12.8357 27.5213 13.1086 27.6088 13.3967 27.6767C14.9195 27.9065 16.4326 27.919 17.936 27.7143C18.1861 27.7056 18.4341 27.6806 18.6802 27.6392C18.6362 27.6881 18.5866 27.7382 18.5313 27.7894C18.2253 27.822 17.9401 27.8971 17.6756 28.0147C16.3067 28.0265 14.93 27.989 13.5455 27.902C13.8503 28.1024 13.8131 28.215 13.4339 28.24C13.1203 28.1993 13.1079 28.0866 13.3967 27.902C12.9686 27.677 12.5097 27.5144 12.02 27.4139C11.9176 27.4001 11.8556 27.35 11.834 27.2637Z"
        fill="#D7DA3E" />
    <path fill-rule="evenodd" clip-rule="evenodd"
        d="M12.5781 27.4141C14.3246 27.6663 16.1105 27.7664 17.936 27.7145C16.4326 27.9192 14.9195 27.9066 13.3967 27.6769C13.1086 27.609 12.8357 27.5215 12.5781 27.4141Z"
        fill="#1F3907" />
    <path fill-rule="evenodd" clip-rule="evenodd"
        d="M0.820312 28.2402C0.993402 28.4417 1.14223 28.667 1.2668 28.9161C0.989011 28.7819 0.840181 28.5566 0.820312 28.2402Z"
        fill="#F6F3C3" />
    <path fill-rule="evenodd" clip-rule="evenodd"
        d="M31.1067 28.3906C31.0174 28.6462 30.9058 28.8966 30.7718 29.1416C30.7042 29.2872 30.5926 29.3623 30.4369 29.3669C30.4315 29.2522 30.4811 29.1771 30.5858 29.1416C30.6904 29.1061 30.74 29.031 30.7346 28.9163C30.804 28.7008 30.9281 28.5255 31.1067 28.3906Z"
        fill="#F7F4D3" />
    <path fill-rule="evenodd" clip-rule="evenodd"
        d="M30.5858 28.9911C30.5858 29.0412 30.5858 29.0912 30.5858 29.1413C30.4812 29.1768 30.4315 29.2519 30.437 29.3666C30.2817 29.4481 30.1825 29.5732 30.1393 29.7421C29.9905 29.7922 29.8913 29.8923 29.8417 30.0425C29.3923 30.3938 28.9458 30.7443 28.5022 31.0939C28.0396 31.2721 27.5931 31.4724 27.1627 31.6947C26.7199 31.7859 26.2734 31.861 25.8232 31.92C25.8315 31.8737 25.8563 31.8361 25.8977 31.8074C26.4791 31.7978 26.5286 31.6852 26.0465 31.4694C26.0722 31.3796 26.1094 31.3796 26.1581 31.4694C26.387 31.4102 26.6226 31.3727 26.8651 31.3568C26.9929 31.0003 27.0673 31.0129 27.0883 31.3943C27.1867 31.3815 27.2735 31.4066 27.3488 31.4694C27.7434 31.2905 28.128 31.1153 28.5022 30.9437C28.4905 30.8406 28.5029 30.7404 28.5394 30.6433C28.7821 30.744 28.8193 30.719 28.651 30.5682C29.0615 30.4224 29.1111 30.2097 28.7998 29.9299C28.9214 29.8178 29.0454 29.7052 29.1719 29.5919C29.2463 29.642 29.3207 29.692 29.3952 29.7421C29.7197 29.6537 30.0173 29.5286 30.2881 29.3666C30.3286 29.2104 30.3907 29.0602 30.4742 28.916C30.5027 28.9578 30.5399 28.9828 30.5858 28.9911Z"
        fill="#E4E23B" />
    <path fill-rule="evenodd" clip-rule="evenodd"
        d="M30.7348 28.916C30.7402 29.0307 30.6906 29.1058 30.5859 29.1413C30.5859 29.0912 30.5859 29.0412 30.5859 28.9911C30.6356 28.9661 30.6851 28.941 30.7348 28.916Z"
        fill="#F1EF9D" />
    <path fill-rule="evenodd" clip-rule="evenodd"
        d="M1.2666 28.9912C1.51574 29.2429 1.73899 29.5183 1.93634 29.8173C1.82144 29.8021 1.72217 29.752 1.63868 29.6671C1.58904 29.7172 1.53948 29.7672 1.48985 29.8173C1.46507 29.7923 1.44021 29.7672 1.41543 29.7422C1.45428 29.6591 1.47906 29.5714 1.48985 29.4794C1.43106 29.308 1.35664 29.1453 1.2666 28.9912Z"
        fill="#F6F5D3" />
    <path fill-rule="evenodd" clip-rule="evenodd"
        d="M30.4373 29.3672C30.3941 29.5361 30.295 29.6612 30.1396 29.7427C30.1828 29.5738 30.282 29.4487 30.4373 29.3672Z"
        fill="#F4F2AF" />
    <path fill-rule="evenodd" clip-rule="evenodd"
        d="M2.08496 29.9678C2.39096 30.3022 2.73818 30.5776 3.12677 30.7939C3.17641 30.869 3.22597 30.9441 3.2756 31.0192C2.9577 30.8581 2.66004 30.6579 2.38262 30.4184C2.30009 30.5002 2.22568 30.5002 2.15938 30.4184C2.19844 30.3664 2.24808 30.3289 2.30821 30.3057C2.18609 30.2209 2.11168 30.1083 2.08496 29.9678Z"
        fill="#F9F6DA" />
    <path fill-rule="evenodd" clip-rule="evenodd"
        d="M3.12695 30.7939C3.32043 30.8666 3.49412 30.9668 3.64786 31.0943C3.52753 31.0539 3.40348 31.0289 3.27578 31.0192C3.22615 30.9441 3.17659 30.869 3.12695 30.7939Z"
        fill="#E8E371" />
</svg>