<svg width="32" height="32" viewBox="0 0 32 32" fill="none" xmlns="http://www.w3.org/2000/svg">
    <g clip-path="url(#clip0_5851_142)">
        <rect width="32" height="32" fill="#FAFAFA" />
        <path fill-rule="evenodd" clip-rule="evenodd"
            d="M0.481445 4.33105C0.722047 4.33105 0.962648 4.33105 1.20325 4.33105C1.83875 4.88549 2.48035 5.44689 3.12806 6.01527C2.66733 7.19825 1.86532 8.08047 0.722047 8.66188C1.32662 7.99181 1.88802 7.27 2.40626 6.49647C1.76125 5.77164 1.11965 5.04983 0.481445 4.33105Z"
            fill="#30A361" />
        <path fill-rule="evenodd" clip-rule="evenodd"
            d="M0 4.33105C0.160401 4.33105 0.320802 4.33105 0.481203 4.33105C1.11941 5.04983 1.76101 5.77164 2.40601 6.49647C1.88778 7.27 1.32637 7.99181 0.721804 8.66188C0.507417 8.8086 0.266816 8.88879 0 8.90248C0 7.37868 0 5.85486 0 4.33105Z"
            fill="#13ED75" />
        <path fill-rule="evenodd" clip-rule="evenodd"
            d="M16.3608 27.1877C14.436 27.1877 12.5112 27.1877 10.5863 27.1877C8.85647 21.1555 7.05196 15.1405 5.17281 9.14257C5.05359 8.66794 5.01351 8.18673 5.05251 7.69896C6.63803 7.62414 8.20194 7.70433 9.74424 7.93957C10.8766 12.2293 12.1197 16.48 13.4736 20.6914C14.0498 19.003 14.6513 17.3188 15.2781 15.6388C15.5542 15.4083 15.7948 15.4885 15.9999 15.8794C16.6949 17.8433 17.2162 19.8483 17.5638 21.8945C17.1635 23.6572 16.7625 25.4216 16.3608 27.1877Z"
            fill="#010101" />
        <path fill-rule="evenodd" clip-rule="evenodd"
            d="M27.4286 7.69922C28.9523 7.69922 30.4763 7.69922 32 7.69922C30.3654 13.7262 28.6812 19.7412 26.9474 25.7443C26.6267 25.7443 26.3057 25.7443 25.985 25.7443C25.4239 23.4996 24.8623 21.2539 24.3008 19.0075C25.1571 15.1803 26.1998 11.4109 27.4286 7.69922Z"
            fill="#030303" />
        <path fill-rule="evenodd" clip-rule="evenodd"
            d="M3.60902 27.1879C2.40602 27.1879 1.20301 27.1879 0 27.1879C0 21.654 0 16.1202 0 10.5864C0.929951 9.84005 1.81216 9.03805 2.64662 8.18035C2.93264 7.95691 3.25346 7.87672 3.60902 7.93975C3.60902 14.3558 3.60902 20.7718 3.60902 27.1879Z"
            fill="black" />
        <path fill-rule="evenodd" clip-rule="evenodd"
            d="M3.12782 6.01465C3.67283 6.36115 3.71294 6.76215 3.24812 7.21766C2.19573 8.15102 1.11302 9.03321 0 9.86427C0 9.54348 0 9.22266 0 8.90187C0.266816 8.88818 0.507417 8.80798 0.721805 8.66127C1.86508 8.07985 2.66709 7.19764 3.12782 6.01465Z"
            fill="#1F3E2A" />
        <path fill-rule="evenodd" clip-rule="evenodd"
            d="M19.97 10.1056C19.5489 9.82669 19.3083 9.42571 19.2482 8.90264C19.0088 8.15867 18.5276 7.99829 17.8046 8.42144C17.4686 9.01611 17.2681 9.65772 17.2031 10.3462C17.0417 10.5273 16.8412 10.6075 16.6016 10.5868C16.8442 9.69797 17.1249 8.81576 17.4437 7.94023C18.199 7.30512 18.8807 7.34522 19.4888 8.06053C19.7743 8.71584 19.9347 9.39753 19.97 10.1056Z"
            fill="#38A768" />
        <path fill-rule="evenodd" clip-rule="evenodd"
            d="M19.2484 8.90274C18.6362 8.80753 18.1149 8.96794 17.6845 9.38394C17.3462 10.8136 17.266 12.2573 17.4439 13.7148C18.7436 16.9597 19.6258 20.2479 20.0905 23.5794C20.6756 24.3699 21.0766 25.2521 21.2935 26.226C21.5418 26.5934 21.8225 26.9142 22.1356 27.1885C21.6544 27.1885 21.1732 27.1885 20.692 27.1885C19.2537 22.3193 17.8502 17.4271 16.4815 12.5118C16.3368 11.8572 16.3768 11.2156 16.6018 10.5869C16.8414 10.6076 17.0419 10.5274 17.2033 10.3463C17.2683 9.65782 17.4689 9.01621 17.8048 8.42154C18.5278 7.99839 19.009 8.15878 19.2484 8.90274Z"
            fill="#38D17A" />
        <path fill-rule="evenodd" clip-rule="evenodd"
            d="M19.9701 10.1055C20.676 11.8006 21.2374 13.565 21.6543 15.3987C21.4144 15.4059 21.254 15.2856 21.1731 15.0378C20.6363 13.5726 20.1551 12.0889 19.7295 10.5867C19.8168 10.4222 19.897 10.2618 19.9701 10.1055Z"
            fill="#389F5F" />
        <path fill-rule="evenodd" clip-rule="evenodd"
            d="M21.6537 15.6387C22.9457 19.436 24.1487 23.2856 25.2627 27.1875C25.0221 27.1875 24.7815 27.1875 24.5409 27.1875C23.9201 23.9036 22.9977 20.6956 21.774 17.5635C21.6843 17.0346 21.564 16.5133 21.4131 15.9996C21.4299 15.8156 21.5101 15.6953 21.6537 15.6387Z"
            fill="#3FAD6D" />
        <path fill-rule="evenodd" clip-rule="evenodd"
            d="M19.248 8.90257C19.3081 9.42564 19.5487 9.82663 19.9698 10.1056C19.8967 10.2619 19.8165 10.4223 19.7292 10.5868C20.1549 12.089 20.6361 13.5727 21.1728 15.0379C21.2537 15.2857 21.4141 15.406 21.654 15.3988C21.654 15.479 21.654 15.5592 21.654 15.6394C21.5105 15.696 21.4302 15.8163 21.4134 16.0003C21.5643 16.514 21.6846 17.0353 21.7743 17.5642C22.9981 20.6963 23.9204 23.9043 24.5412 27.1883C23.7392 27.1883 22.9372 27.1883 22.1352 27.1883C21.8221 26.914 21.5414 26.5932 21.2931 26.2259C21.0762 25.2519 20.6752 24.3697 20.0901 23.5793C19.6254 20.2478 18.7432 16.9595 17.4435 13.7146C17.2656 12.2571 17.3458 10.8135 17.6841 9.38377C18.1145 8.96777 18.6358 8.80737 19.248 8.90257Z"
            fill="#10F576" />
    </g>
    <defs>
        <clipPath id="clip0_5851_142">
            <rect width="32" height="32" fill="white" />
        </clipPath>
    </defs>
</svg>