<svg width="32" height="32" viewBox="0 0 32 32" fill="none" xmlns="http://www.w3.org/2000/svg">
    <g clip-path="url(#clip0_5686_162)">
        <path fill-rule="evenodd" clip-rule="evenodd"
            d="M-0.228516 -0.228516C10.4381 -0.228516 21.1048 -0.228516 31.7715 -0.228516C31.7715 10.4381 31.7715 21.1048 31.7715 31.7715C21.1048 31.7715 10.4381 31.7715 -0.228516 31.7715C-0.228516 21.1048 -0.228516 10.4381 -0.228516 -0.228516Z"
            fill="#0596C1" />
        <path fill-rule="evenodd" clip-rule="evenodd"
            d="M7.5433 15.7715C6.77585 15.8697 6.31871 15.5649 6.17188 14.8572C6.49599 14.4439 6.95313 14.2916 7.5433 14.4C7.5433 14.8572 7.5433 15.3143 7.5433 15.7715Z"
            fill="#E1F0F5" />
        <path fill-rule="evenodd" clip-rule="evenodd"
            d="M15.3141 16.2284C14.4099 17.3488 14.2575 18.5678 14.857 19.8855C14.1684 20.4557 13.4826 20.4557 12.7999 19.8855C13.0796 18.6541 13.0034 17.4351 12.5713 16.2284C12.9845 15.9042 13.1369 15.4471 13.0284 14.8569C13.6379 14.8569 14.2475 14.8569 14.857 14.8569C14.7485 15.4471 14.9009 15.9042 15.3141 16.2284Z"
            fill="#EBF4F7" />
        <path fill-rule="evenodd" clip-rule="evenodd"
            d="M22.6285 15.7713C22.1344 17.2007 21.8297 18.7245 21.7142 20.3428C21.2571 20.3428 20.7999 20.3428 20.3428 20.3428C20.5381 18.3659 20.6904 16.3849 20.7999 14.3999C21.4094 14.3999 22.019 14.3999 22.6285 14.3999C22.6285 14.857 22.6285 15.3142 22.6285 15.7713Z"
            fill="#E5F1F5" />
        <path fill-rule="evenodd" clip-rule="evenodd"
            d="M22.6289 20.3428C22.8405 18.9794 22.9929 17.6079 23.086 16.2285C23.086 15.619 23.086 15.0094 23.086 14.3999C23.6956 14.3999 24.3051 14.3999 24.9146 14.3999C24.7508 16.2327 24.5223 18.0613 24.2289 19.8856C23.7666 20.2681 23.2333 20.4205 22.6289 20.3428Z"
            fill="#E1F0F4" />
        <path fill-rule="evenodd" clip-rule="evenodd"
            d="M25.8285 14.3999C26.2856 14.3999 26.7428 14.3999 27.1999 14.3999C27.1999 14.857 27.1999 15.3142 27.1999 15.7713C25.7979 15.9448 25.3407 15.4877 25.8285 14.3999Z"
            fill="#C8E6EF" />
        <path fill-rule="evenodd" clip-rule="evenodd"
            d="M5.71398 16.2285C6.17112 16.2285 6.62826 16.2285 7.08541 16.2285C7.08541 16.9904 7.08541 17.7523 7.08541 18.5142C7.08541 19.1237 7.08541 19.7333 7.08541 20.3428C6.4759 20.3428 5.86634 20.3428 5.25684 20.3428C5.46845 18.9794 5.62081 17.608 5.71398 16.2285Z"
            fill="#E3F0F4" />
        <path fill-rule="evenodd" clip-rule="evenodd"
            d="M11.6571 16.2285C11.6833 19.1669 11.3786 22.0621 10.7429 24.9142C10.2057 25.0143 9.74857 24.862 9.37143 24.4571C9.74144 23.739 9.89381 22.977 9.82857 22.1714C10.1867 20.5047 10.2629 18.8285 10.0571 17.1428C9.45435 17.9426 9.22578 18.8569 9.37143 19.8857C8.91429 19.8857 8.45714 19.8857 8 19.8857C8 19.1237 8 18.3619 8 17.5999C8 17.1428 8 16.6857 8 16.2285C9.21906 16.2285 10.4381 16.2285 11.6571 16.2285Z"
            fill="#F2F6F8" />
        <path fill-rule="evenodd" clip-rule="evenodd"
            d="M25.3712 16.2285C25.8283 16.2285 26.2855 16.2285 26.7426 16.2285C26.8177 17.457 26.7414 18.6761 26.5141 19.8857C26.0518 20.2681 25.5185 20.4205 24.9141 20.3428C25.0072 18.9633 25.1596 17.5919 25.3712 16.2285Z"
            fill="#E7F2F6" />
        <path fill-rule="evenodd" clip-rule="evenodd"
            d="M19.8856 18.0571C19.1346 18.0662 18.525 17.7615 18.0571 17.1429C17.6654 17.7077 17.3607 18.3173 17.1428 18.9714C17.9266 19.0149 18.6885 19.1673 19.4285 19.4286C19.2122 20.0714 18.7551 20.3762 18.0571 20.3429C15.8995 19.9859 15.29 18.7668 16.2285 16.6857C17.2514 16.2118 18.3181 16.1356 19.4285 16.4571C19.8109 16.9194 19.9634 17.4527 19.8856 18.0571Z"
            fill="#EBF4F7" />
        <path fill-rule="evenodd" clip-rule="evenodd"
            d="M22.6282 15.7715C22.6282 16.0763 22.7805 16.2286 23.0853 16.2286C22.9921 17.6081 22.8398 18.9795 22.6282 20.3429C22.3234 20.3429 22.0186 20.3429 21.7139 20.3429C21.8293 18.7247 22.1341 17.2008 22.6282 15.7715Z"
            fill="#57B4D1" />
        <path fill-rule="evenodd" clip-rule="evenodd"
            d="M6.17164 14.8569C6.31848 15.5646 6.77562 15.8694 7.54307 15.7712C7.42065 16.5022 7.57301 17.1117 8.00021 17.5998C8.00021 18.3617 8.00021 19.1236 8.00021 19.8855C8.45736 19.8855 8.9145 19.8855 9.37164 19.8855C8.8836 20.3127 8.27404 20.4651 7.54307 20.3426C7.66549 19.6117 7.51313 19.0021 7.08593 18.5141C7.08593 17.7522 7.08593 16.9903 7.08593 16.2284C6.62879 16.2284 6.17164 16.2284 5.7145 16.2284C5.60602 15.6382 5.75839 15.181 6.17164 14.8569Z"
            fill="#7BC6DB" />
        <path fill-rule="evenodd" clip-rule="evenodd"
            d="M19.8854 18.0574C19.9939 18.6475 19.8415 19.1047 19.4283 19.4288C18.6883 19.1675 17.9263 19.0151 17.1426 18.9716C17.3605 18.3175 17.6652 17.708 18.0569 17.1431C18.5248 17.7617 19.1343 18.0664 19.8854 18.0574Z"
            fill="#B7DEE9" />
        <path fill-rule="evenodd" clip-rule="evenodd"
            d="M11.6574 16.2285C11.9622 16.2285 12.267 16.2285 12.5717 16.2285C13.0038 17.4352 13.08 18.6543 12.8003 19.8857C13.4831 20.4558 14.1688 20.4558 14.8575 19.8857C14.258 18.568 14.4104 17.3489 15.3146 16.2285C15.6194 16.3809 15.9241 16.5333 16.2289 16.6857C15.2904 18.7668 15.8999 19.9858 18.0575 20.3428C18.2098 20.6476 18.3622 20.9523 18.5146 21.2571C17.9775 21.157 17.5203 21.3093 17.1432 21.7142C16.7435 22.7412 16.5911 23.8079 16.686 24.9142C17.1432 24.9142 17.6003 24.9142 18.0575 24.9142C17.8521 23.7817 18.1569 22.8674 18.9717 22.1714C19.1638 23.0061 19.1638 23.9204 18.9717 24.9142C19.4289 24.9142 19.886 24.9142 20.3432 24.9142C18.9147 25.362 17.3909 25.5144 15.7717 25.3714C15.9464 24.0668 15.9464 22.6954 15.7717 21.2571C12.9051 20.4787 11.5337 21.5454 11.6574 24.4571C11.3527 24.6095 11.0479 24.7619 10.7432 24.9142C11.3789 22.0621 11.6836 19.1669 11.6574 16.2285Z"
            fill="#48ACCD" />
        <path fill-rule="evenodd" clip-rule="evenodd"
            d="M8.91419 22.1716C8.90632 23.1155 8.75396 24.0298 8.45704 24.9145C7.43848 25.0411 6.67661 25.4982 6.17133 26.2859C5.71419 26.2859 5.25704 26.2859 4.7999 26.2859C4.7999 25.524 4.7999 24.7621 4.7999 24.0002C4.49454 22.1656 5.25645 21.2513 7.08562 21.2574C7.92347 21.2964 8.53298 21.6012 8.91419 22.1716Z"
            fill="#EBF4F6" />
        <path fill-rule="evenodd" clip-rule="evenodd"
            d="M15.7714 25.3713C14.8487 24.8582 13.9344 24.8582 13.0285 25.3713C12.5632 25.0547 12.1061 24.75 11.6571 24.457C11.5333 21.5453 12.9047 20.4786 15.7714 21.257C15.9461 22.6953 15.9461 24.0668 15.7714 25.3713Z"
            fill="#E7F2F6" />
        <path fill-rule="evenodd" clip-rule="evenodd"
            d="M18.5141 21.2573C19.276 21.2573 20.0379 21.2573 20.7998 21.2573C20.9399 22.5764 20.7875 23.7954 20.3427 24.9145C19.8855 24.9145 19.4284 24.9145 18.9712 24.9145C19.1633 23.9206 19.1633 23.0063 18.9712 22.1716C18.1564 22.8676 17.8516 23.7819 18.0569 24.9145C17.5998 24.9145 17.1427 24.9145 16.6855 24.9145C16.5906 23.8081 16.743 22.7415 17.1427 21.7145C17.5198 21.3096 17.9769 21.1572 18.5141 21.2573Z"
            fill="#EDF4F7" />
        <path fill-rule="evenodd" clip-rule="evenodd"
            d="M6.6284 22.1714C7.12495 22.2262 7.42968 22.531 7.54269 23.0857C7.39032 23.3904 7.23791 23.6952 7.08554 24C6.661 23.4565 6.50863 22.847 6.6284 22.1714Z"
            fill="#40ABCC" />
        <path fill-rule="evenodd" clip-rule="evenodd"
            d="M13.4858 22.1714C13.9824 22.2262 14.2871 22.531 14.4001 23.0857C14.2477 23.3904 14.0953 23.6952 13.943 24C13.5184 23.4565 13.3661 22.847 13.4858 22.1714Z"
            fill="#43ADCC" />
        <path fill-rule="evenodd" clip-rule="evenodd"
            d="M8.91417 22.1714C9.21895 22.1714 9.52368 22.1714 9.82846 22.1714C9.89369 22.9771 9.74133 23.739 9.37132 24.4571C9.74846 24.862 10.2056 25.0144 10.7427 24.9142C10.0344 25.4719 9.27244 25.4719 8.45703 24.9142C8.75395 24.0296 8.90631 23.1153 8.91417 22.1714Z"
            fill="#5CB5D2" />
        <path fill-rule="evenodd" clip-rule="evenodd"
            d="M4.80046 24C4.80046 24.7619 4.80046 25.5238 4.80046 26.2857C5.2576 26.2857 5.71474 26.2857 6.17189 26.2857C5.68384 26.7129 5.07429 26.8653 4.34332 26.7429C4.20859 25.721 4.36097 24.8067 4.80046 24Z"
            fill="#89CDDF" />
    </g>
    <defs>
        <clipPath id="clip0_5686_162">
            <rect width="32" height="32" fill="white" />
        </clipPath>
    </defs>
</svg>