<svg width="32" height="32" viewBox="0 0 32 32" fill="none" xmlns="http://www.w3.org/2000/svg">
    <g clip-path="url(#clip0_5801_333)">
        <path fill-rule="evenodd" clip-rule="evenodd"
            d="M-0.0800781 -0.0800781C10.5866 -0.0800781 21.2532 -0.0800781 31.9199 -0.0800781C31.9199 10.5866 31.9199 21.2532 31.9199 31.9199C21.2532 31.9199 10.5866 31.9199 -0.0800781 31.9199C-0.0800781 21.2532 -0.0800781 10.5866 -0.0800781 -0.0800781Z"
            fill="#F9F9F9" />
        <path fill-rule="evenodd" clip-rule="evenodd"
            d="M21.1998 4.07977C19.1731 4.07977 17.1465 4.07977 15.1198 4.07977C15.0131 4.07977 14.9065 4.07977 14.7998 4.07977C15.8075 3.86695 16.8742 3.76028 17.9998 3.75977C19.1254 3.76028 20.1921 3.86695 21.1998 4.07977Z"
            fill="#BCBCBC" />
        <path fill-rule="evenodd" clip-rule="evenodd"
            d="M15.1201 4.08008C17.1468 4.08008 19.1734 4.08008 21.2001 4.08008C21.2001 12.1334 21.2001 20.1868 21.2001 28.2401C19.2268 28.2401 17.2534 28.2401 15.2801 28.2401C15.2281 23.535 15.2815 18.8417 15.4401 14.1601C15.6513 13.7893 15.9179 13.4693 16.2401 13.2001C16.5601 13.0934 16.7734 12.8801 16.8801 12.5601C17.7377 11.7559 18.5377 10.9026 19.2801 10.0001C19.7068 9.89341 19.7068 9.78675 19.2801 9.68008C19.1201 9.52008 18.9601 9.36008 18.8001 9.20008C18.8001 8.98675 18.6934 8.88008 18.4801 8.88008C18.4801 8.66675 18.3734 8.56008 18.1601 8.56008C17.1816 7.61824 16.1681 6.71157 15.1201 5.84008C15.1201 5.25341 15.1201 4.66675 15.1201 4.08008Z"
            fill="#010101" />
        <path fill-rule="evenodd" clip-rule="evenodd"
            d="M10.3204 3.76043C10.4271 3.92043 10.5338 4.08043 10.6404 4.24043C10.3817 4.15435 10.115 4.10102 9.84045 4.08043C9.84045 5.20043 9.84045 6.32043 9.84045 7.44043C9.68167 6.18989 9.62834 4.90989 9.68045 3.60043C9.69005 3.51353 9.74338 3.46021 9.84045 3.44043C10.0033 3.55123 10.1633 3.6579 10.3204 3.76043Z"
            fill="#EF5936" />
        <path fill-rule="evenodd" clip-rule="evenodd"
            d="M21.2001 4.08008C21.5195 12.185 21.626 20.345 21.5201 28.5601C19.3267 28.6638 17.1934 28.557 15.1201 28.2401C15.1734 28.2401 15.2268 28.2401 15.2801 28.2401C17.2534 28.2401 19.2268 28.2401 21.2001 28.2401C21.2001 20.1868 21.2001 12.1334 21.2001 4.08008Z"
            fill="#818181" />
        <path fill-rule="evenodd" clip-rule="evenodd"
            d="M14.8 4.08008C14.9067 4.08008 15.0133 4.08008 15.12 4.08008C15.12 4.66675 15.12 5.25341 15.12 5.84008C14.8138 5.33059 14.7071 4.74392 14.8 4.08008Z"
            fill="#969696" />
        <path fill-rule="evenodd" clip-rule="evenodd"
            d="M10.6396 4.24023C11.4295 4.73959 12.0695 5.37959 12.5596 6.16023C11.663 5.79697 11.023 5.15697 10.6396 4.24023Z"
            fill="#EE5A34" />
        <path fill-rule="evenodd" clip-rule="evenodd"
            d="M10.6398 4.24008C11.0232 5.15681 11.6632 5.79681 12.5598 6.16008C13.6791 7.11941 14.7458 8.13275 15.7598 9.20008C15.8213 9.58878 15.928 9.96211 16.0798 10.3201C15.6496 10.8032 15.2229 11.2832 14.7998 11.7601C14.4749 11.9263 14.2615 12.1929 14.1598 12.5601C13.6858 12.8738 13.2591 13.2471 12.8798 13.6801C12.581 13.8812 12.3143 13.8279 12.0798 13.5201C12.0648 13.7983 12.0382 14.1183 11.9998 14.4801C11.6428 14.5901 11.2961 14.6434 10.9598 14.6401C11.0665 14.8001 11.1732 14.9601 11.2798 15.1201C11.1795 15.2668 11.1261 15.4268 11.1198 15.6001C10.7336 15.8258 10.4669 16.1458 10.3198 16.5601C10.1598 16.5601 9.99984 16.5601 9.83984 16.5601C9.83984 13.5201 9.83984 10.4801 9.83984 7.44008C9.83984 6.32008 9.83984 5.20008 9.83984 4.08008C10.1144 4.10067 10.3811 4.154 10.6398 4.24008Z"
            fill="#F73404" />
        <path fill-rule="evenodd" clip-rule="evenodd"
            d="M10.32 3.75993C10.1628 3.6574 10.0028 3.55073 9.83995 3.43993C9.74288 3.4597 9.68955 3.51303 9.67995 3.59993C9.57194 7.83959 9.57194 12.1063 9.67995 16.3999C9.40442 12.0565 9.29776 7.68314 9.35995 3.27993C9.63183 3.2543 9.8985 3.28097 10.16 3.35993C10.2803 3.46726 10.3337 3.60058 10.32 3.75993Z"
            fill="#F9D7C8" />
        <path fill-rule="evenodd" clip-rule="evenodd"
            d="M18.1602 8.55957C18.3734 8.55957 18.4802 8.66624 18.4802 8.87957C18.2669 8.87957 18.1602 8.7729 18.1602 8.55957Z"
            fill="#6A6A6A" />
        <path fill-rule="evenodd" clip-rule="evenodd"
            d="M18.4805 8.87988C18.6937 8.87988 18.8005 8.98655 18.8005 9.19988C18.5872 9.19988 18.4805 9.09321 18.4805 8.87988Z"
            fill="#757575" />
        <path fill-rule="evenodd" clip-rule="evenodd"
            d="M19.2803 9.67969C19.707 9.78636 19.707 9.89302 19.2803 9.99969C19.2803 9.89302 19.2803 9.78636 19.2803 9.67969Z"
            fill="#8D8D8D" />
        <path fill-rule="evenodd" clip-rule="evenodd"
            d="M15.7598 9.2002C15.9645 9.45992 16.1778 9.7266 16.3998 10.0002C16.343 10.1638 16.2362 10.2704 16.0798 10.3202C15.9279 9.96223 15.8213 9.5889 15.7598 9.2002Z"
            fill="#EB5F3E" />
        <path fill-rule="evenodd" clip-rule="evenodd"
            d="M14.8002 11.7598C14.7074 12.1196 14.4941 12.3862 14.1602 12.5598C14.2618 12.1926 14.4752 11.926 14.8002 11.7598Z"
            fill="#F4A98F" />
        <path fill-rule="evenodd" clip-rule="evenodd"
            d="M16.8802 12.5596C16.7735 12.8796 16.5602 13.0929 16.2402 13.1996C16.347 12.8796 16.5602 12.6662 16.8802 12.5596Z"
            fill="#626260" />
        <path fill-rule="evenodd" clip-rule="evenodd"
            d="M12.88 13.6795C12.3978 14.4246 11.8112 15.0646 11.12 15.5995C11.1263 15.4262 11.1796 15.2662 11.28 15.1195C11.1733 14.9595 11.0666 14.7995 10.96 14.6395C11.2962 14.6428 11.6429 14.5895 12 14.4795C12.0383 14.1177 12.065 13.7977 12.08 13.5195C12.3144 13.8273 12.5811 13.8806 12.88 13.6795Z"
            fill="#EF512C" />
        <path fill-rule="evenodd" clip-rule="evenodd"
            d="M9.67964 3.59961C9.62753 4.90907 9.68086 6.18907 9.83964 7.43961C9.83964 10.4796 9.83964 13.5196 9.83964 16.5596C9.99964 16.5596 10.1596 16.5596 10.3196 16.5596C9.9106 17.2375 9.69726 17.1842 9.67964 16.3996C9.57163 12.1059 9.57163 7.83927 9.67964 3.59961Z"
            fill="#EE866A" />
        <path fill-rule="evenodd" clip-rule="evenodd"
            d="M15.4403 14.1602C15.2817 18.8418 15.2284 23.535 15.2803 28.2402C15.227 28.2402 15.1737 28.2402 15.1203 28.2402C15.0149 23.4904 15.1216 18.7971 15.4403 14.1602Z"
            fill="#2C2C2C" />
        <path fill-rule="evenodd" clip-rule="evenodd"
            d="M11.1203 15.5996C11.0287 16.0647 10.762 16.3847 10.3203 16.5596C10.4674 16.1454 10.7341 15.8253 11.1203 15.5996Z"
            fill="#F9A48A" />
    </g>
    <defs>
        <clipPath id="clip0_5801_333">
            <rect width="32" height="32" fill="white" />
        </clipPath>
    </defs>
</svg>