<svg width="32" height="32" viewBox="0 0 32 32" fill="none" xmlns="http://www.w3.org/2000/svg">
    <path fill-rule="evenodd" clip-rule="evenodd"
        d="M12.5152 0C14.7908 0 17.0663 0 19.3419 0C20.6853 0.0721716 22.0127 0.261801 23.3241 0.568889C22.1852 0.715628 21.0474 0.715628 19.9108 0.568889C18.5962 0.850122 17.2689 1.03975 15.9286 1.13778C14.7925 1.04306 13.6547 0.995658 12.5152 0.995556C12.5152 0.853333 12.5152 0.711111 12.5152 0.568889C11.7991 0.53413 11.1117 0.486721 10.453 0.426667C10.2977 0.53989 10.1318 0.634704 9.95523 0.711111C9.58095 0.577432 9.20169 0.553728 8.81745 0.64C8.73241 0.931273 8.54279 1.0972 8.24856 1.13778C7.98737 0.933929 7.70292 0.862818 7.39523 0.924444C7.16952 1.0471 6.93249 1.14191 6.68411 1.20889C6.81709 1.54746 6.86449 1.90302 6.82634 2.27556C6.36865 2.25409 6.32123 2.13558 6.68411 1.92C6.37798 1.61207 5.99872 1.49356 5.54634 1.56444C5.53507 1.76789 5.58249 1.95752 5.68856 2.13333C5.61745 2.18074 5.54634 2.22815 5.47523 2.27556C5.42107 2.13592 5.30255 2.0411 5.11967 1.99111C4.92778 2.04028 4.73816 2.08768 4.55078 2.13333C4.94272 1.72244 5.41679 1.41429 5.973 1.20889C6.80795 0.872787 7.66128 0.612046 8.533 0.426667C9.88504 0.32377 11.2124 0.181549 12.5152 0Z"
        fill="#E24F23" />
    <path fill-rule="evenodd" clip-rule="evenodd"
        d="M23.3248 0.56898C24.2093 0.650314 25.0626 0.863647 25.8848 1.20898C27.3993 1.84894 28.6318 2.82078 29.5826 4.12454C29.717 4.49996 29.7407 4.87922 29.6537 5.26231C29.6975 5.14738 29.7686 5.05258 29.867 4.97787C30.0299 5.1593 30.0299 5.34893 29.867 5.54676C29.9938 5.70172 30.136 5.70172 30.2937 5.54676C30.445 6.07179 30.6109 6.59327 30.7915 7.1112C30.831 6.98096 30.9021 6.88614 31.0048 6.82676C31.3146 8.61105 31.5043 10.4125 31.5737 12.2312C31.6721 12.3059 31.7432 12.4007 31.787 12.5156C31.8582 14.6959 31.8819 16.8766 31.8582 19.0579C31.8582 19.5319 31.8582 20.0061 31.8582 20.4801C31.7219 21.2137 31.627 21.9721 31.5737 22.7556C31.3234 25.4384 30.1856 27.6191 28.1604 29.2979C27.9708 29.2979 27.7811 29.2979 27.5915 29.2979C27.6226 29.1308 27.5753 28.9885 27.4493 28.8712C27.3508 29.2474 27.2086 29.6029 27.0226 29.9379C26.9277 30.0327 26.833 30.0327 26.7382 29.9379C26.677 29.807 26.6295 29.6886 26.5959 29.5823C26.1944 29.9342 25.7915 30.2661 25.387 30.5779C25.3282 30.5129 25.257 30.4654 25.1737 30.4356C24.5769 30.6215 24.0792 30.8111 23.6804 31.0045C23.506 30.9839 23.34 30.9366 23.1826 30.8623C22.843 31.4385 22.4163 31.5332 21.9026 31.1468C20.1109 31.3951 18.3094 31.5373 16.4982 31.5734C14.2578 31.4268 12.0296 31.4268 9.81371 31.5734C8.83203 31.3161 7.83648 31.1266 6.82704 31.0045C4.17179 30.1752 2.2992 28.4686 1.20926 25.8845C0.929165 25.0959 0.715831 24.2901 0.569263 23.4668C0.594823 22.9384 0.547415 22.4169 0.427041 21.9023C0.708655 21.0705 0.779766 20.2171 0.640374 19.3423C0.424705 20.8311 0.258779 20.8311 0.142596 19.3423C0.141517 16.3073 0.188925 13.2732 0.284818 10.2401C0.284818 9.86083 0.284818 9.48158 0.284818 9.10231C0.564352 8.06746 0.872501 7.0245 1.20926 5.97342C1.53077 5.37662 1.88633 4.80773 2.27593 4.26676C2.61925 4.06611 2.85628 3.78167 2.98704 3.41342C3.08186 3.2238 3.22408 3.08158 3.41371 2.98676C3.85693 2.77773 4.23619 2.49329 4.55149 2.13342C4.73886 2.08777 4.92849 2.04037 5.12037 1.9912C5.30326 2.04119 5.42177 2.13601 5.47593 2.27565C5.54704 2.22824 5.61815 2.18083 5.68926 2.13342C5.58319 1.95761 5.53578 1.76798 5.54704 1.56454C5.99942 1.49365 6.37869 1.61217 6.68482 1.92009C6.32194 2.13567 6.36936 2.25419 6.82704 2.27565C6.8652 1.90311 6.8178 1.54755 6.68482 1.20898C6.9332 1.142 7.17022 1.04719 7.39593 0.924536C7.70363 0.862909 7.98807 0.93402 8.24926 1.13787C8.54349 1.09729 8.73312 0.931364 8.81815 0.640091C9.20239 0.553819 9.58166 0.577523 9.95593 0.711202C10.1325 0.634795 10.2984 0.539981 10.4537 0.426758C11.1124 0.486813 11.7998 0.534221 12.5159 0.56898C12.5159 0.711202 12.5159 0.853424 12.5159 0.995647C13.6554 0.995749 14.7932 1.04316 15.9293 1.13787C17.2696 1.03984 18.5969 0.850213 19.9115 0.56898C21.0481 0.715719 22.1859 0.715719 23.3248 0.56898Z"
        fill="#E64A1A" />
    <path fill-rule="evenodd" clip-rule="evenodd"
        d="M4.55086 2.1333C4.23557 2.49317 3.85631 2.77761 3.41309 2.98663C3.68937 2.56413 4.06862 2.27969 4.55086 2.1333Z"
        fill="#D56448" />
    <path fill-rule="evenodd" clip-rule="evenodd"
        d="M2.9865 3.41357C2.85574 3.78182 2.61872 4.06626 2.27539 4.26691C2.40615 3.89867 2.64318 3.61422 2.9865 3.41357Z"
        fill="#D47D5F" />
    <path fill-rule="evenodd" clip-rule="evenodd"
        d="M29.582 4.12451C30.2953 4.8889 30.7693 5.78964 31.0043 6.82673C30.9016 6.88611 30.8305 6.98093 30.7909 7.11118C30.6103 6.59325 30.4445 6.07176 30.2931 5.54673C30.1354 5.7017 29.9932 5.7017 29.8665 5.54673C30.0293 5.3489 30.0293 5.15928 29.8665 4.97785C29.7681 5.05255 29.6969 5.14736 29.6531 5.26229C29.7402 4.8792 29.7164 4.49994 29.582 4.12451Z"
        fill="#D7562D" />
    <path fill-rule="evenodd" clip-rule="evenodd"
        d="M15.6447 7.53794C15.5973 7.53794 15.5498 7.53794 15.5025 7.53794C14.5329 6.44967 13.3952 6.26005 12.0891 6.96906C12.0298 6.86643 11.9349 6.79532 11.8047 6.75572C11.9237 6.61189 11.9711 6.44598 11.9469 6.25794C12.1349 6.28212 12.3009 6.23471 12.4447 6.11572C13.538 6.397 14.6521 6.56293 15.7869 6.6135C15.8343 6.6609 15.8818 6.70832 15.9291 6.75572C15.692 6.80313 15.4551 6.85054 15.218 6.89794C15.4514 7.05851 15.5936 7.27185 15.6447 7.53794Z"
        fill="#D9502A" />
    <path fill-rule="evenodd" clip-rule="evenodd"
        d="M15.5025 7.53775C15.7583 8.16398 15.8532 8.82768 15.7869 9.52886C15.2492 10.9031 14.2536 11.4009 12.8003 11.0222C12.3597 10.8411 11.9805 10.5804 11.6625 10.24C11.1701 9.04185 11.3124 7.95148 12.0891 6.96886C13.3952 6.25986 14.5329 6.44948 15.5025 7.53775Z"
        fill="#F7E7E2" />
    <path fill-rule="evenodd" clip-rule="evenodd"
        d="M15.502 7.5376C15.5493 7.5376 15.5968 7.5376 15.6442 7.5376C15.9103 8.15857 16.0051 8.82228 15.9286 9.52871C15.8813 9.52871 15.8338 9.52871 15.7864 9.52871C15.8527 8.82752 15.7578 8.16383 15.502 7.5376Z"
        fill="#ECAB9C" />
    <path fill-rule="evenodd" clip-rule="evenodd"
        d="M31.4307 8.24902C31.6608 8.62888 31.7556 9.05555 31.7151 9.52902C31.5506 9.13468 31.4557 8.70802 31.4307 8.24902Z"
        fill="#E1917E" />
    <path fill-rule="evenodd" clip-rule="evenodd"
        d="M31.0049 6.82666C31.2172 7.26516 31.3594 7.73923 31.4315 8.24888C31.4566 8.70788 31.5514 9.13454 31.716 9.52888C31.7968 10.2594 31.8915 10.9705 32.0004 11.6622C32.0004 14.1274 32.0004 16.5926 32.0004 19.0578C31.9531 19.0578 31.9056 19.0578 31.8582 19.0578C31.882 16.8765 31.8582 14.6958 31.7871 12.5155C31.7433 12.4006 31.6722 12.3058 31.5738 12.2311C31.5044 10.4124 31.3146 8.61095 31.0049 6.82666Z"
        fill="#DF5A32" />
    <path fill-rule="evenodd" clip-rule="evenodd"
        d="M15.7866 9.52881C15.8339 9.52881 15.8814 9.52881 15.9288 9.52881C15.7691 9.81587 15.7691 10.1003 15.9288 10.3821C15.7543 10.5372 15.6358 10.7269 15.5732 10.951C15.4934 10.8768 15.3986 10.8294 15.2888 10.8088C14.5596 11.2112 13.7774 11.3771 12.9421 11.3066C12.2764 11.2196 11.8497 10.8641 11.6621 10.2399C11.9801 10.5803 12.3594 10.841 12.7999 11.0221C14.2532 11.4008 15.2488 10.903 15.7866 9.52881Z"
        fill="#D65D3A" />
    <path fill-rule="evenodd" clip-rule="evenodd"
        d="M8.24902 12.3734C11.7804 12.2079 15.336 12.1842 18.9157 12.3022C19.0916 12.3353 19.2338 12.4064 19.3424 12.5156C15.6483 12.3785 11.9504 12.3311 8.24902 12.3734Z"
        fill="#C95D38" />
    <path fill-rule="evenodd" clip-rule="evenodd"
        d="M8.24904 12.3733C11.9505 12.3311 15.6483 12.3785 19.3424 12.5155C19.5479 12.7378 19.7848 12.9274 20.0535 13.0844C20.0917 13.5248 20.2576 13.9041 20.5513 14.2222C20.6221 14.6463 20.6458 15.073 20.6224 15.5022C20.4938 15.603 20.4464 15.7453 20.4802 15.9289C18.9527 15.8982 17.4357 15.993 15.929 16.2133C15.8346 16.55 15.645 16.8344 15.3602 17.0667C15.2192 17.6277 15.1719 18.1966 15.2179 18.7733C15.4059 18.7491 15.5719 18.7965 15.7157 18.9155C15.7733 19.382 15.9866 19.7376 16.3557 19.9822C16.2367 20.126 16.1893 20.292 16.2135 20.48C16.4015 20.4558 16.5675 20.5032 16.7113 20.6222C16.831 21.0971 17.0443 21.5238 17.3513 21.9022C17.1842 21.8711 17.0419 21.9184 16.9246 22.0444C16.4277 22.8224 16.001 23.6284 15.6446 24.4622C14.9416 25.1668 14.0883 25.4986 13.0846 25.4578C12.4689 25.3261 11.9711 24.9943 11.5913 24.4622C10.8239 23.1078 10.0417 21.7805 9.2446 20.48C8.50854 18.982 7.70261 17.5124 6.82682 16.0711C6.76184 15.9576 6.66702 15.9102 6.54238 15.9289C6.17153 14.2535 6.74042 13.0683 8.24904 12.3733Z"
        fill="#F9E6E4" />
    <path fill-rule="evenodd" clip-rule="evenodd"
        d="M20.0537 13.0845C20.1011 13.0845 20.1486 13.0845 20.1959 13.0845C20.754 13.8276 20.8962 14.6336 20.6226 15.5023C20.6461 15.073 20.6223 14.6464 20.5515 14.2223C20.2578 13.9042 20.092 13.5249 20.0537 13.0845Z"
        fill="#F4C0AD" />
    <path fill-rule="evenodd" clip-rule="evenodd"
        d="M0.284444 10.2402C0.188551 13.2734 0.141143 16.3074 0.142222 19.3425C0.0948149 19.3425 0.0474074 19.3425 0 19.3425C0 17.0669 0 14.7913 0 12.5158C0.0948149 11.7573 0.18963 10.9987 0.284444 10.2402Z"
        fill="#E66E45" />
    <path fill-rule="evenodd" clip-rule="evenodd"
        d="M20.6225 15.5024C20.6225 15.6447 20.6225 15.7869 20.6225 15.9291C21.7864 15.8827 22.9242 15.9302 24.0358 16.0713C22.8245 16.1177 21.6393 16.0703 20.4802 15.9291C20.4465 15.7455 20.4939 15.6033 20.6225 15.5024Z"
        fill="#F2BFA9" />
    <path fill-rule="evenodd" clip-rule="evenodd"
        d="M20.4804 15.929C21.6395 16.0702 22.8247 16.1176 24.036 16.0712C24.996 16.2257 25.5174 16.7945 25.6004 17.7779C25.1086 18.9511 24.5397 20.0888 23.8938 21.1912C23.6938 21.2585 23.5989 21.4007 23.6093 21.6179C22.969 22.7089 22.329 23.7993 21.6893 24.889C20.8073 25.6426 19.9302 25.6426 19.0582 24.889C18.4496 23.9081 17.8808 22.9125 17.3515 21.9023C17.0446 21.5239 16.8313 21.0972 16.7115 20.6223C16.5678 20.5033 16.4018 20.4559 16.2138 20.4801C16.1896 20.2921 16.237 20.1261 16.356 19.9823C15.9869 19.7377 15.7736 19.3821 15.716 18.9156C15.5722 18.7966 15.4062 18.7492 15.2182 18.7734C15.1721 18.1967 15.2195 17.6278 15.3604 17.0668C15.6453 16.8345 15.8349 16.5501 15.9293 16.2134C17.436 15.9931 18.953 15.8983 20.4804 15.929Z"
        fill="#F9F8F7" />
    <path fill-rule="evenodd" clip-rule="evenodd"
        d="M6.54199 15.9287C6.66664 15.9101 6.76146 15.9575 6.82644 16.071C7.70223 17.5123 8.50816 18.9818 9.24421 20.4799C8.98213 20.3738 8.7925 20.1842 8.67533 19.911C8.49951 19.8049 8.30989 19.7575 8.10644 19.7687C8.34066 19.0182 8.10363 18.6864 7.39533 18.7732C7.30901 18.4068 7.14308 18.075 6.89755 17.7776C6.85977 17.1386 6.74126 16.5224 6.54199 15.9287Z"
        fill="#DC5026" />
    <path fill-rule="evenodd" clip-rule="evenodd"
        d="M23.8931 21.191C24.5391 20.0887 25.108 18.9509 25.5998 17.7777C25.5167 16.7944 24.9953 16.2255 24.0353 16.071C22.9237 15.93 21.7859 15.8825 20.622 15.9288C20.622 15.7866 20.622 15.6444 20.622 15.5022C20.8956 14.6335 20.7534 13.8275 20.1953 13.0844C20.3112 12.9522 20.4297 12.81 20.5509 12.6577C20.8219 13.642 21.0353 14.6376 21.1909 15.6444C21.4245 15.6472 21.6141 15.5524 21.7598 15.3599C22.2752 15.5042 22.7966 15.5042 23.3242 15.3599C23.8841 15.5236 24.453 15.6421 25.0309 15.7155C25.4143 15.8243 25.7699 15.9903 26.0975 16.2133C26.1352 17.0635 26.1588 17.9168 26.1686 18.7733C26.0264 18.9629 25.8842 19.1526 25.742 19.3422C25.5823 19.0877 25.3927 19.0404 25.1731 19.1999C25.3446 19.4867 25.3446 19.7711 25.1731 20.0533C24.7503 19.8836 24.6792 19.9783 24.9598 20.3377C25.0808 20.7008 25.0334 21.0326 24.8175 21.3333C24.7249 21.0865 24.7486 20.8494 24.8886 20.6222C24.8413 20.4799 24.7464 20.3851 24.6042 20.3377C24.4601 20.7172 24.2232 21.0016 23.8931 21.191Z"
        fill="#DE4E22" />
    <path fill-rule="evenodd" clip-rule="evenodd"
        d="M0.142594 19.3423C0.258777 20.8311 0.424703 20.8311 0.640372 19.3423C0.779764 20.2171 0.708653 21.0704 0.427039 21.9023C0.547413 22.4168 0.594821 22.9384 0.569261 23.4667C0.221408 22.1335 0.0791857 20.7588 0.142594 19.3423Z"
        fill="#DA522C" />
    <path fill-rule="evenodd" clip-rule="evenodd"
        d="M23.8936 21.1909C23.904 21.4081 23.8091 21.5503 23.6092 21.6176C23.5988 21.4004 23.6936 21.2582 23.8936 21.1909Z"
        fill="#E7967B" />
    <path fill-rule="evenodd" clip-rule="evenodd"
        d="M31.8577 20.48C31.9184 21.2784 31.8236 22.0369 31.5732 22.7555C31.6266 21.972 31.7214 21.2136 31.8577 20.48Z"
        fill="#D98063" />
    <path fill-rule="evenodd" clip-rule="evenodd"
        d="M15.644 24.4624C15.4407 24.7602 15.3221 25.0447 15.2884 25.3157C14.5453 25.5971 13.8105 25.6446 13.084 25.458C14.0876 25.4988 14.941 25.167 15.644 24.4624Z"
        fill="#D55631" />
    <path fill-rule="evenodd" clip-rule="evenodd"
        d="M6.82715 31.0044C7.83658 31.1264 8.83214 31.316 9.81382 31.5733C10.1931 31.6681 10.5723 31.7629 10.9516 31.8577C9.51128 31.8001 8.13647 31.5157 6.82715 31.0044Z"
        fill="#D76944" />
    <path fill-rule="evenodd" clip-rule="evenodd"
        d="M28.1601 29.2978C27.3171 30.047 26.3689 30.6159 25.3157 31.0044C24.2688 31.3079 23.2257 31.545 22.1868 31.7155C21.2244 31.8054 20.2763 31.9003 19.3424 32C16.6875 32 14.0327 32 11.3779 32C11.2771 31.8714 11.1349 31.8241 10.9513 31.8578C10.572 31.7629 10.1927 31.6682 9.81348 31.5733C12.0294 31.4267 14.2576 31.4267 16.4979 31.5733C18.3091 31.5372 20.1107 31.395 21.9024 31.1466C22.4161 31.5331 22.8427 31.4383 23.1824 30.8622C23.3398 30.9364 23.5058 30.9838 23.6801 31.0044C24.0789 30.811 24.5767 30.6214 25.1735 30.4355C25.2568 30.4653 25.3279 30.5128 25.3868 30.5778C25.7913 30.266 26.1942 29.9341 26.5957 29.5822C26.6293 29.6884 26.6768 29.8069 26.7379 29.9378C26.8328 30.0326 26.9275 30.0326 27.0224 29.9378C27.2084 29.6028 27.3506 29.2473 27.449 28.8711C27.575 28.9884 27.6224 29.1306 27.5913 29.2978C27.7808 29.2978 27.9706 29.2978 28.1601 29.2978Z"
        fill="#E05124" />
</svg>