<svg width="69" height="69" viewBox="0 0 69 69" fill="none" xmlns="http://www.w3.org/2000/svg">
    <path fill-rule="evenodd" clip-rule="evenodd"
        d="M34 0.0413199C41.3798 -0.415616 44.2131 2.91722 42.5 10.0399C38.101 14.1938 34.101 13.8605 30.5 9.04006C29.8333 7.37359 29.8333 5.70722 30.5 4.04076C31.8756 2.83583 33.0423 1.50271 34 0.0413199Z"
        fill="#238EE9" />
    <path fill-rule="evenodd" clip-rule="evenodd"
        d="M35 49.0345C35.4169 49.6583 36.0836 49.9916 37 50.0343C38.8254 48.8834 40.8254 48.2168 43 48.0346C48.9845 45.5427 54.9845 43.3763 61 41.5355C48.2002 52.4178 33.5336 59.5835 17 63.0325C11.1499 61.3185 9.6499 57.6523 12.5 52.0341C17.8333 45.3683 23.8333 39.3691 30.5 34.0366C31.2429 32.0963 31.0762 30.2632 30 28.5374C22.6079 25.8196 15.9413 26.9861 10 32.0369C9.6667 31.7036 9.3333 31.3703 9 31.037C16.6437 19.3811 27.3104 14.5485 41 16.539C48.6242 17.4907 51.4575 21.6568 49.5 29.0373C44.8106 35.8794 39.9773 42.5451 35 49.0345Z"
        fill="#2490E4" />
    <path fill-rule="evenodd" clip-rule="evenodd"
        d="M43 48.0346C40.8254 48.2168 38.8254 48.8834 37 50.0343C36.0836 49.9916 35.4169 49.6583 35 49.0344C41.4376 43.7617 46.6043 37.4293 50.5 30.0371C50.9577 33.0943 50.6244 36.0939 49.5 39.0358C47.3239 42.0648 45.1573 45.0644 43 48.0346Z"
        fill="#F2C360" />
    <path fill-rule="evenodd" clip-rule="evenodd"
        d="M59 45.0349C59.7389 44.9039 60.4056 45.0706 61 45.5349C52.2022 53.0058 42.8688 59.6716 33 65.5321C27.7233 68.6936 22.0566 69.6935 16 68.5316C15.1198 67.1758 14.7865 65.676 15 64.0323C31.6347 62.0435 46.3013 55.711 59 45.0349Z"
        fill="#F5C35B" />
</svg>