<svg width="32" height="32" viewBox="0 0 32 32" fill="none" xmlns="http://www.w3.org/2000/svg">
    <g clip-path="url(#clip0_5865_410)">
        <path fill-rule="evenodd" clip-rule="evenodd"
            d="M14.1138 -0.0576172C15.3329 -0.0576172 16.5519 -0.0576172 17.771 -0.0576172C24.865 1.11148 29.4555 5.14958 31.5424 12.0567C31.6867 12.8332 31.82 13.5952 31.9424 14.3424C31.9424 15.371 31.9424 16.3995 31.9424 17.4281C30.8657 24.7724 26.7514 29.4772 19.5995 31.5424C18.713 31.7199 17.8368 31.8532 16.971 31.9424C16.171 31.9424 15.371 31.9424 14.571 31.9424C9.14914 31.3022 4.97771 28.6736 2.05667 24.0567C0.908839 22.0137 0.204077 19.8423 -0.0576172 17.5424C-0.0576172 16.4758 -0.0576172 15.409 -0.0576172 14.3424C0.965611 7.3314 4.85133 2.70283 11.5995 0.456669C12.4488 0.260209 13.287 0.0887803 14.1138 -0.0576172ZM9.31381 22.571C9.31381 20.8186 9.31381 19.0662 9.31381 17.3138C8.81858 17.3138 8.32333 17.3138 7.8281 17.3138C6.97319 17.0364 6.47796 16.4459 6.34238 15.5424C6.38703 15.1793 6.52036 14.8555 6.74238 14.571C9.54947 11.7636 12.4257 9.03978 15.371 6.39953C15.8935 6.29817 16.3887 6.37436 16.8567 6.6281C19.7355 9.31659 22.5736 12.0404 25.371 14.7995C25.6822 16.0247 25.244 16.8818 24.0567 17.371C23.6011 17.428 23.144 17.4471 22.6852 17.4281C22.7043 19.0666 22.6852 20.7048 22.6281 22.3424C22.5198 23.1364 22.0817 23.6507 21.3138 23.8852C20.0548 24.1604 19.1595 23.7224 18.6281 22.571C18.59 21.1233 18.5519 19.6758 18.5138 18.2281C18.3424 17.9043 18.0947 17.6567 17.771 17.4852C16.5519 17.409 15.3329 17.409 14.1138 17.4852C13.79 17.6567 13.5424 17.9043 13.371 18.2281C13.3329 19.5995 13.2947 20.971 13.2567 22.3424C13.1483 23.1364 12.7103 23.6507 11.9424 23.8852C10.6827 24.1697 9.80647 23.7316 9.31381 22.571Z"
            fill="#244368" />
        <path fill-rule="evenodd" clip-rule="evenodd"
            d="M7.82812 17.3145C8.32336 17.3145 8.8186 17.3145 9.31384 17.3145C9.31384 19.0668 9.31384 20.8193 9.31384 22.5716C9.2 20.8774 9.16191 19.1631 9.19955 17.4287C8.71937 17.465 8.26223 17.4268 7.82812 17.3145Z"
            fill="#111E31" />
    </g>
    <defs>
        <clipPath id="clip0_5865_410">
            <rect width="32" height="32" fill="white" />
        </clipPath>
    </defs>
</svg>