<svg width="32" height="32" viewBox="0 0 32 32" fill="none" xmlns="http://www.w3.org/2000/svg">
    <path
        d="M20.6322 0.135992C21.2779 0.457505 21.6601 0.893527 21.8942 1.57785C22.0022 2.15478 21.9602 2.58006 21.6585 3.09632C21.3313 3.53826 20.9779 3.92953 20.5893 4.31602C20.5155 4.39054 20.4417 4.46505 20.3656 4.54183C20.1198 4.78967 19.8729 5.03652 19.6261 5.28337C19.4489 5.46151 19.2719 5.63972 19.0948 5.81797C18.6151 6.30071 18.1344 6.78256 17.6535 7.26419C17.252 7.6665 16.8509 8.06922 16.4497 8.47193C15.5036 9.42173 14.5568 10.3708 13.6095 11.3194C12.6322 12.2981 11.6561 13.2781 10.6807 14.2588C9.84283 15.101 9.00417 15.9424 8.16486 16.7832C7.66371 17.2852 7.16288 17.7876 6.66282 18.2907C6.19286 18.7635 5.72191 19.2353 5.25018 19.7062C5.07719 19.8793 4.90456 20.0527 4.73232 20.2265C4.49724 20.4636 4.26092 20.6993 4.02423 20.9348C3.95629 21.0039 3.88835 21.073 3.81835 21.1442C3.27434 21.6809 2.84185 21.9039 2.08451 21.973C1.35182 21.9085 0.925896 21.7015 0.432984 21.154C0.113001 20.6908 0.0318022 20.432 0.0157547 19.8733C0.0105557 19.7562 0.00535661 19.639 0 19.5183C0.129551 18.694 0.780992 18.0985 1.35263 17.53C1.42521 17.4567 1.49779 17.3835 1.57257 17.308C1.81425 17.0643 2.05691 16.8216 2.29958 16.579C2.47375 16.4038 2.64786 16.2285 2.82192 16.0533C3.29366 15.5786 3.76629 15.1048 4.23914 14.6312C4.6341 14.2355 5.02864 13.8394 5.42319 13.4433C6.35394 12.5088 7.28544 11.5751 8.21738 10.6419C9.17845 9.67948 10.1382 8.71578 11.0974 7.75145C11.9216 6.92296 12.7465 6.09528 13.5721 5.26823C14.065 4.77452 14.5575 4.2805 15.0492 3.7857C15.5116 3.32058 15.9749 2.85649 16.4389 2.39316C16.609 2.22309 16.7786 2.05267 16.9479 1.88186C17.1793 1.6485 17.4119 1.41647 17.6449 1.18473C17.8395 0.989569 17.8395 0.989569 18.0381 0.790469C18.8104 0.122851 19.6367 -0.204003 20.6322 0.135992Z"
        fill="#262265" />
    <path
        d="M30.5169 10.0812C31.187 10.4107 31.5837 10.8008 31.9076 11.4751C32.0209 12.0584 32.0865 12.5859 31.7573 13.107C31.1867 13.8729 30.5512 14.5479 29.8758 15.2213C29.7634 15.3342 29.651 15.4471 29.5353 15.5634C29.2995 15.7999 29.0634 16.0361 28.827 16.2719C28.4637 16.6345 28.1019 16.9986 27.7402 17.3629C27.5105 17.5929 27.2807 17.8229 27.0508 18.0528C26.8881 18.2167 26.8881 18.2167 26.722 18.384C26.6217 18.4837 26.5214 18.5833 26.418 18.686C26.3298 18.7743 26.2415 18.8625 26.1505 18.9535C25.9273 19.1418 25.9273 19.1418 25.6492 19.1418C25.5803 19.3488 25.5803 19.3488 25.5101 19.56C25.4183 19.56 25.3265 19.56 25.232 19.56C25.1631 19.767 25.1631 19.767 25.0929 19.9781C24.8751 20.1935 24.8751 20.1935 24.5976 20.423C23.9892 20.9408 23.4262 21.4924 22.8648 22.0605C22.7595 22.1665 22.6542 22.2725 22.5457 22.3817C22.3191 22.6098 22.0927 22.838 21.8664 23.0664C21.5085 23.4276 21.15 23.7883 20.7914 24.1488C19.7727 25.1733 18.7548 26.1985 17.7374 27.2244C17.1136 27.8534 16.4891 28.4816 15.8642 29.1095C15.6264 29.3488 15.3888 29.5883 15.1514 29.8281C14.8209 30.1621 14.4894 30.4953 14.1578 30.8282C14.0106 30.9777 14.0106 30.9777 13.8603 31.1301C13.7701 31.2204 13.6798 31.3107 13.5868 31.4037C13.5087 31.4825 13.4305 31.5612 13.35 31.6424C12.8832 32.0376 12.3502 32.0048 11.7709 31.9954C11.1453 31.9356 10.8319 31.6048 10.3769 31.1994C9.98975 30.701 9.97842 30.207 9.95312 29.5931C10.3197 28.3206 11.8449 27.2417 12.7692 26.3157C12.9425 26.1416 13.1158 25.9675 13.289 25.7934C13.7567 25.3234 14.2249 24.8538 14.6932 24.3844C14.9859 24.0909 15.2785 23.7973 15.5711 23.5037C16.5922 22.479 17.6136 21.4546 18.6354 20.4306C19.5876 19.4763 20.539 18.5213 21.4901 17.5658C22.3077 16.7446 23.1258 15.9238 23.9443 15.1035C24.4328 14.614 24.921 14.1242 25.4087 13.6339C25.8667 13.1735 26.3253 12.7139 26.7844 12.2547C26.9529 12.086 27.121 11.9171 27.289 11.748C27.518 11.5173 27.7479 11.2876 27.978 11.058C28.1064 10.9292 28.2349 10.8004 28.3673 10.6676C29.0415 10.0603 29.631 9.95764 30.5169 10.0812Z"
        fill="#262265" />
    <path
        d="M23.563 7.01446C24.1647 7.32167 24.6255 7.67436 24.9537 8.269C25.0594 8.80802 25.0988 9.27093 24.9537 9.80234C24.2712 10.7163 23.4115 11.5114 22.6107 12.3193C22.4753 12.4563 22.3399 12.5933 22.2046 12.7304C21.7643 13.1761 21.3232 13.621 20.882 14.0658C20.8066 14.1418 20.7313 14.2178 20.6537 14.2961C19.9422 15.0135 19.2304 15.7306 18.5179 16.4471C17.61 17.3601 16.7034 18.2746 15.7988 19.191C15.1604 19.8374 14.5205 20.4822 13.8793 21.1259C13.4972 21.5095 13.1158 21.8939 12.7361 22.28C12.3793 22.6427 12.0207 23.0034 11.6604 23.3626C11.4665 23.557 11.2746 23.7535 11.0828 23.95C10.3984 24.6281 9.93052 25.0319 8.95997 25.1357C8.18626 25.0174 7.77859 24.7707 7.29106 24.1599C7.00695 23.6474 6.87772 23.2913 6.85645 22.705C7.23538 21.5023 8.49665 20.5612 9.36702 19.6893C9.50353 19.552 9.64001 19.4148 9.77647 19.2775C10.1439 18.908 10.5118 18.5389 10.8798 18.17C11.1099 17.9393 11.3399 17.7085 11.5698 17.4776C12.3725 16.6718 13.1756 15.8663 13.9789 15.0612C14.7275 14.3111 15.4753 13.5601 16.2227 12.8088C16.8656 12.1626 17.509 11.517 18.1528 10.8718C18.5369 10.4868 18.9207 10.1017 19.3041 9.71603C19.6637 9.3542 20.0241 8.99304 20.3849 8.63239C20.5805 8.43653 20.7755 8.23998 20.9704 8.04342C21.0866 7.92755 21.2027 7.81168 21.3225 7.6923C21.4738 7.54048 21.4738 7.54048 21.6282 7.38558C22.179 6.90544 22.8698 6.9288 23.563 7.01446Z"
        fill="#262265" />
    <path
        d="M7.42978 4.78403C7.95058 5.10166 8.31014 5.46979 8.54239 6.03857C8.58911 6.33805 8.58911 6.33805 8.59455 6.64842C8.59849 6.75013 8.60244 6.85183 8.6065 6.95661C8.44603 7.79894 7.72372 8.43534 7.13968 9.01976C7.0591 9.10112 6.97852 9.18248 6.89549 9.26631C6.72589 9.4371 6.55593 9.60753 6.38562 9.77761C6.12645 10.0369 5.8692 10.2981 5.61201 10.5594C5.44625 10.7258 5.28037 10.8922 5.11438 11.0584C5.0383 11.1359 4.96221 11.2135 4.88382 11.2934C4.36275 11.8095 3.83049 12.2714 3.07061 12.3413C2.20937 12.2302 1.64822 11.9868 1.04966 11.3268C0.793346 10.656 0.746261 10.0888 0.893199 9.38403C1.1228 9.05603 1.1228 9.05603 1.42886 8.73607C1.54243 8.61596 1.656 8.49585 1.77302 8.3721C1.89573 8.24604 2.01845 8.11997 2.14488 7.99009C2.26832 7.86053 2.39175 7.73096 2.51892 7.59747C2.84112 7.26152 3.16571 6.92854 3.49307 6.59768C3.62688 6.46194 3.76006 6.32557 3.89264 6.18862C5.86546 4.15116 5.86546 4.15116 7.42978 4.78403Z"
        fill="#262265" />
    <path
        d="M29.9606 19.978C30.5283 20.3519 30.9945 20.717 31.2123 21.3719C31.2455 21.6578 31.2455 21.6578 31.2558 21.973C31.2636 22.1275 31.2636 22.1275 31.2715 22.2851C31.1264 23.1221 30.3981 23.7689 29.8243 24.3531C29.7447 24.4345 29.6651 24.5158 29.5831 24.5996C29.4153 24.7705 29.2471 24.9409 29.0785 25.1109C28.8231 25.3696 28.5709 25.6311 28.3186 25.8927C28.1543 26.0592 27.9898 26.2256 27.825 26.3917C27.7511 26.4693 27.6772 26.5468 27.601 26.6267C27.0311 27.1914 26.441 27.4955 25.6493 27.6446C24.9796 27.6114 24.5447 27.4204 24.0586 26.9564C23.6468 26.4631 23.5401 26.135 23.5197 25.5102C23.5145 25.4072 23.5093 25.3043 23.5039 25.1982C23.6531 24.3381 24.4084 23.6879 25.0011 23.0947C25.0851 23.0099 25.1691 22.9252 25.2557 22.8378C25.4324 22.6599 25.6095 22.4823 25.787 22.3051C26.0577 22.0341 26.3266 21.7614 26.5954 21.4884C26.7679 21.3152 26.9406 21.142 27.1134 20.969C27.1932 20.8877 27.2731 20.8064 27.3553 20.7226C28.1403 19.9447 28.8704 19.6318 29.9606 19.978Z"
        fill="#262265" />
    <path
        d="M6.49181 24.9698C7.05824 25.4214 7.24882 25.6459 7.41319 26.3637C7.46673 26.978 7.3266 27.3864 7.01334 27.9232C6.50941 28.4558 6.04738 28.732 5.30966 28.8031C4.487 28.7344 4.02497 28.4345 3.47559 27.8274C3.19341 27.2278 3.14637 26.7626 3.25829 26.1111C3.44836 25.5823 3.70862 25.215 4.16228 24.8739C5.0004 24.4959 5.66482 24.5075 6.49181 24.9698Z"
        fill="#4F00F2" />
    <path
        d="M27.457 3.39043C27.9614 3.6961 28.3192 4.05484 28.6391 4.54914C28.7696 5.25218 28.6727 5.90476 28.4218 6.57035C27.9588 7.09427 27.4233 7.40558 26.7181 7.45572C26.003 7.40488 25.501 7.21924 24.9536 6.73588C24.5328 6.1174 24.4128 5.52042 24.5364 4.78437C24.7347 4.16792 25.0476 3.78604 25.6055 3.46012C26.2427 3.18711 26.8003 3.16631 27.457 3.39043Z"
        fill="#4F00F2" />
    <path
        d="M11.064 1.0374C11.6099 1.39422 12.037 1.76533 12.2478 2.40302C12.3747 3.10852 12.2428 3.59764 11.8811 4.22604C11.4621 4.63489 11.0587 4.91668 10.4903 5.0624C9.67582 5.03648 9.17808 4.91291 8.54327 4.36543C8.08351 3.70494 8.0027 3.05699 8.12604 2.27452C8.69797 1.05924 9.7923 0.57853 11.064 1.0374Z"
        fill="#F80449" />
    <path
        d="M23.0064 27.366C23.4756 27.7099 23.7932 28.0589 23.98 28.6205C24.0563 29.279 24.0448 29.7498 23.7366 30.3455C23.1885 30.9865 22.7804 31.2414 21.9286 31.3126C21.2655 31.3028 20.8991 31.1005 20.364 30.7115C19.9234 30.1815 19.7869 29.5825 19.8077 28.8993C20.0247 28.1742 20.2794 27.7693 20.9203 27.366C21.6487 27.0009 22.269 27.0611 23.0064 27.366Z"
        fill="#09CFBB" />
</svg>