<svg width="32" height="32" viewBox="0 0 32 32" fill="none" xmlns="http://www.w3.org/2000/svg">
    <g clip-path="url(#clip0_5735_609)">
        <path fill-rule="evenodd" clip-rule="evenodd"
            d="M4.28571 -0.0571289C12.0571 -0.0571289 19.8286 -0.0571289 27.6 -0.0571289C28.276 0.258423 28.676 0.791756 28.8 1.54287C28.8762 7.56192 28.8762 13.5809 28.8 19.6C28.0976 26.454 24.3833 30.5682 17.6571 31.9429C16.5143 31.9429 15.3714 31.9429 14.2286 31.9429C7.50132 30.5672 3.78704 26.4529 3.08571 19.6C3.00952 13.5809 3.00952 7.56192 3.08571 1.54287C3.20976 0.791756 3.60976 0.258423 4.28571 -0.0571289Z"
            fill="#0100CC" />
        <path fill-rule="evenodd" clip-rule="evenodd"
            d="M16.6286 4.51416C18.582 4.58029 19.2486 5.53266 18.6286 7.3713C17.6716 8.3864 16.6812 8.4245 15.6572 7.48559C14.9713 6.15463 15.2951 5.16415 16.6286 4.51416Z"
            fill="#F7F6F9" />
        <path fill-rule="evenodd" clip-rule="evenodd"
            d="M21.6572 4.51416C23.4442 4.52903 24.1489 5.40522 23.7715 7.14273C23.1846 8.08758 22.3657 8.37329 21.3143 7.99987C20.3231 7.3117 20.0755 6.41646 20.5715 5.31416C20.8943 4.97405 21.2563 4.70738 21.6572 4.51416Z"
            fill="#F6F6F9" />
        <path fill-rule="evenodd" clip-rule="evenodd"
            d="M21.5428 9.54297C23.544 9.54341 24.2487 10.4958 23.6571 12.4001C22.6248 13.4568 21.5962 13.4568 20.5714 12.4001C20.0207 11.138 20.3444 10.1856 21.5428 9.54297Z"
            fill="#F6F5F9" />
        <path fill-rule="evenodd" clip-rule="evenodd"
            d="M21.6572 14.5713C23.6067 14.6341 24.2733 15.5865 23.6572 17.4284C22.6248 18.4851 21.5963 18.4851 20.5715 17.4284C20.0031 16.1031 20.3651 15.1507 21.6572 14.5713Z"
            fill="#F5F5F9" />
        <path fill-rule="evenodd" clip-rule="evenodd"
            d="M9.31428 19.6001C11.1025 19.6161 11.8072 20.4923 11.4286 22.2287C10.7473 23.2324 9.85208 23.48 8.74285 22.9715C7.53844 21.5905 7.72892 20.4667 9.31428 19.6001Z"
            fill="#F6F6F9" />
        <path fill-rule="evenodd" clip-rule="evenodd"
            d="M21.6571 19.6001C23.4453 19.6161 24.15 20.4923 23.7714 22.2287C23.1961 23.2115 22.377 23.4972 21.3142 23.0858C20.1058 22.171 19.9915 21.1424 20.9714 20.0001C21.2259 19.8926 21.4545 19.7592 21.6571 19.6001Z"
            fill="#F6F6F9" />
        <path fill-rule="evenodd" clip-rule="evenodd"
            d="M12.8572 23.257C14.706 23.219 15.4488 24.0951 15.0858 25.8856C14.349 26.979 13.4156 27.1885 12.2858 26.5142C11.2394 25.2104 11.4299 24.1247 12.8572 23.257Z"
            fill="#F6F6F9" />
        <path fill-rule="evenodd" clip-rule="evenodd"
            d="M18 23.2573C19.788 23.2732 20.4928 24.1493 20.1143 25.8859C19.5275 26.8307 18.7085 27.1164 17.6572 26.743C16.4227 25.8424 16.3084 24.8138 17.3143 23.6573C17.5351 23.4906 17.7637 23.3573 18 23.2573Z"
            fill="#F6F6F9" />
    </g>
    <defs>
        <clipPath id="clip0_5735_609">
            <rect width="32" height="32" fill="white" />
        </clipPath>
    </defs>
</svg>