<svg width="391" height="391" viewBox="0 0 391 391" fill="none" xmlns="http://www.w3.org/2000/svg">
<rect width="391" height="391" fill="#5F43FF"/>
<path d="M336.698 337.142H278.862C278.862 290.901 241.241 253.28 195 253.28H117.042C113.781 253.28 111.138 255.923 111.138 259.184V337.142H53.3022V226.933C53.3022 209.542 67.4002 195.444 84.7912 195.444H195C273.132 195.444 336.698 259.01 336.698 337.142Z" fill="white"/>
<path d="M195 202.556C116.868 202.556 53.3022 138.99 53.3022 60.8585H111.138C111.138 107.099 148.758 144.72 194.999 144.72C241.241 144.72 278.862 107.099 278.862 60.8585H336.698C336.698 138.99 273.132 202.556 195 202.556Z" fill="white"/>
</svg>
