<svg width="32" height="32" viewBox="0 0 32 32" fill="none" xmlns="http://www.w3.org/2000/svg">
    <g clip-path="url(#clip0_5805_403)">
        <path fill-rule="evenodd" clip-rule="evenodd"
            d="M-0.0400391 -0.0400391C10.6266 -0.0400391 21.2933 -0.0400391 31.96 -0.0400391C31.96 10.6266 31.96 21.2933 31.96 31.96C21.2933 31.96 10.6266 31.96 -0.0400391 31.96C-0.0400391 21.2933 -0.0400391 10.6266 -0.0400391 -0.0400391Z"
            fill="#010101" />
        <path fill-rule="evenodd" clip-rule="evenodd"
            d="M3 3C11.64 3 20.28 3 28.92 3C28.92 11.64 28.92 20.28 28.92 28.92C20.28 28.92 11.64 28.92 3 28.92C3 20.28 3 11.64 3 3Z"
            fill="#F8F8F8" />
        <path fill-rule="evenodd" clip-rule="evenodd"
            d="M6.44024 12.9997C6.41216 12.665 6.35883 12.345 6.28024 12.0397C6.17887 9.13463 7.48554 7.17463 10.2002 6.15975C13.223 5.46801 16.0762 5.89468 18.7602 7.43975C18.9754 7.57556 19.1621 7.73556 19.3202 7.91975C18.809 8.76951 18.249 9.58279 17.6402 10.3597C15.673 9.09431 13.5396 8.65431 11.2402 9.03975C9.46624 9.83151 8.94624 11.1248 9.68024 12.9197C10.2952 13.7132 11.1086 14.1799 12.1202 14.3197C13.5859 14.4662 15.0259 14.7329 16.4402 15.1197C19.2297 16.4449 20.363 18.6449 19.8402 21.7197C19.2616 24.2181 17.7016 25.6714 15.1602 26.0797C12.3566 26.5561 9.68992 26.1561 7.16024 24.8797C6.48455 24.5086 5.85788 24.0686 5.28024 23.5597C5.2269 23.5064 5.2269 23.4531 5.28024 23.3997C5.95062 22.6897 6.60396 21.9697 7.24024 21.2397C9.1776 22.7977 11.3909 23.4511 13.8802 23.1997C14.5138 23.0748 15.1272 22.8881 15.7202 22.6397C16.8581 21.7545 17.1914 20.6211 16.7202 19.2397C16.3386 18.5382 15.7654 18.0716 15.0002 17.8397C13.6115 17.644 12.2249 17.4306 10.8402 17.1997C8.97056 16.7425 7.59719 15.6625 6.72024 13.9597C6.60319 13.6459 6.50986 13.3259 6.44024 12.9997Z"
            fill="#020202" />
        <path fill-rule="evenodd" clip-rule="evenodd"
            d="M23 5.95996C23.96 5.95996 24.92 5.95996 25.88 5.95996C25.88 6.91996 25.88 7.87996 25.88 8.83996C24.92 8.83996 23.96 8.83996 23 8.83996C23 7.87996 23 6.91996 23 5.95996Z"
            fill="#040404" />
        <path fill-rule="evenodd" clip-rule="evenodd"
            d="M25.88 11.7997C25.9599 16.5596 25.9866 21.3328 25.96 26.1197C24.9734 26.1197 23.9866 26.1197 23 26.1197C23 21.3197 23 16.5197 23 11.7197C23.9742 11.6935 24.9342 11.7201 25.88 11.7997Z"
            fill="#6B6B6B" />
        <path fill-rule="evenodd" clip-rule="evenodd"
            d="M25.8801 11.7998C25.8801 16.5464 25.8801 21.2932 25.8801 26.0398C24.9467 26.0398 24.0134 26.0398 23.0801 26.0398C23.0801 21.2932 23.0801 16.5464 23.0801 11.7998C24.0134 11.7998 24.9467 11.7998 25.8801 11.7998Z"
            fill="black" />
        <path fill-rule="evenodd" clip-rule="evenodd"
            d="M6.28012 12.04C6.35871 12.3453 6.41205 12.6653 6.44012 13C6.30013 12.7054 6.24679 12.3854 6.28012 12.04Z"
            fill="#949494" />
    </g>
    <defs>
        <clipPath id="clip0_5805_403">
            <rect width="32" height="32" fill="white" />
        </clipPath>
    </defs>
</svg>