<svg width="32" height="32" viewBox="0 0 32 32" fill="none" xmlns="http://www.w3.org/2000/svg">
    <g clip-path="url(#clip0_5886_1481)">
        <path fill-rule="evenodd" clip-rule="evenodd"
            d="M-0.0712891 -0.0712891C2.58353 -0.0712891 5.23834 -0.0712891 7.89316 -0.0712891C7.53349 0.338395 7.17793 0.765062 6.82649 1.20871C6.68805 1.47781 6.59323 1.76225 6.54204 2.06204C6.32736 2.14591 6.11403 2.24073 5.90204 2.34649C5.34537 3.03375 4.8239 3.74486 4.3376 4.47982C3.76211 4.63715 3.52507 5.0164 3.62649 5.6176C3.41631 5.58034 3.22667 5.62774 3.0576 5.75982C2.96278 6.04427 2.86798 6.32871 2.77316 6.61316C2.46226 6.71567 2.15412 6.81049 1.84871 6.8976C1.77808 7.2261 1.75437 7.55797 1.7776 7.89316C1.63538 7.89316 1.49316 7.89316 1.35093 7.89316C1.35093 8.27242 1.35093 8.65167 1.35093 9.03093C1.16291 9.00676 0.99698 9.05417 0.853155 9.17316C0.782165 9.83517 0.758461 10.4989 0.782044 11.1643C0.471225 11.1932 0.18678 11.288 -0.0712891 11.4487C-0.0712891 7.60871 -0.0712891 3.76871 -0.0712891 -0.0712891Z"
            fill="#000001" />
        <path fill-rule="evenodd" clip-rule="evenodd"
            d="M13.5826 -0.0712891C17.0433 -0.0712891 20.5041 -0.0712891 23.9648 -0.0712891C24.1659 0.161739 24.1184 0.351368 23.8226 0.4976C24.0833 0.734637 24.3441 0.971673 24.6048 1.20871C24.6769 0.995935 24.6058 0.83001 24.3915 0.710933C24.5265 0.623149 24.6449 0.646852 24.7471 0.782044C24.815 1.07844 24.9335 1.33918 25.1026 1.56427C24.8876 1.99418 25.0298 2.25493 25.5293 2.34649C25.624 2.9338 25.8137 3.47899 26.0982 3.98204C25.9483 4.17939 25.9247 4.39273 26.0271 4.62204C26.2528 4.44754 26.4425 4.49494 26.5959 4.76427C26.7315 5.64678 26.6366 5.74159 26.3115 5.04871C26.2185 4.87867 26.1474 4.87867 26.0982 5.04871C26.3776 5.72946 26.5199 6.44057 26.5248 7.18204C26.3432 6.62554 26.1061 6.10407 25.8137 5.6176C25.2858 4.14096 25.1198 4.23578 25.3159 5.90204C25.0272 5.0283 24.719 4.17497 24.3915 3.34204C23.8661 3.14817 23.3921 2.84001 22.9693 2.4176C23.8166 2.52523 24.4566 2.97559 24.8893 3.76871C24.913 3.67389 24.9366 3.57909 24.9604 3.48427C24.1627 2.7151 23.4752 1.90918 22.8982 1.06649C22.8508 1.1139 22.8033 1.1613 22.7559 1.20871C22.1407 0.894498 21.5007 0.633756 20.8359 0.426489C18.1068 -0.0401154 15.6891 0.57618 13.5826 2.27538C12.7794 2.58086 12.0683 3.03123 11.4493 3.62649C11.1372 3.98846 10.9712 4.36772 10.9515 4.76427C10.755 5.12597 10.4942 5.41041 10.1693 5.6176C9.98125 5.59342 9.81534 5.64084 9.67151 5.75982C9.41754 6.38614 9.08569 6.95503 8.67595 7.46649C8.51771 8.03653 8.30438 8.58171 8.03595 9.10204C8.22558 9.14945 8.41521 9.19686 8.60484 9.24427C8.13225 9.31293 7.75299 9.52626 7.46706 9.88427C7.51865 9.98148 7.56606 10.0763 7.60928 10.1687C7.43062 10.1742 7.2884 10.1031 7.18262 9.95538C7.46706 9.57611 7.75151 9.19686 8.03595 8.8176C7.9709 8.75872 7.9235 8.68761 7.89373 8.60427C8.50117 7.40351 9.14117 6.21832 9.81373 5.04871C9.92253 4.82603 9.89882 4.63639 9.74262 4.47982C10.007 3.62027 10.4811 2.88545 11.1648 2.27538C11.0008 2.14541 11.0245 2.0269 11.236 1.91982C11.2834 1.96722 11.3308 2.01464 11.3782 2.06204C12.2893 1.41009 13.0241 0.698979 13.5826 -0.0712891Z"
            fill="#001D54" />
        <path fill-rule="evenodd" clip-rule="evenodd"
            d="M26.5244 -0.0712891C26.7615 -0.0712891 26.9984 -0.0712891 27.2355 -0.0712891C28.0473 1.36678 28.8058 2.83642 29.5111 4.3376C29.4162 4.43242 29.3215 4.52722 29.2266 4.62204C29.6142 5.32589 30.0882 5.96589 30.6489 6.54204C30.527 6.64005 30.4323 6.75856 30.3644 6.8976C30.7961 7.64617 31.1043 8.4521 31.2889 9.31538C31.4827 9.62596 31.696 9.91041 31.9289 10.1687C31.9289 11.3539 31.9289 12.5391 31.9289 13.7243C31.6335 13.3425 31.3253 12.9633 31.0044 12.5865C30.9427 12.0108 30.9427 11.4419 31.0044 10.8798C30.5022 9.3549 29.8858 7.88526 29.1555 6.47093C28.7823 5.3741 28.4741 4.30743 28.2311 3.27093C27.6909 2.07095 27.122 0.956869 26.5244 -0.0712891Z"
            fill="#00071A" />
        <path fill-rule="evenodd" clip-rule="evenodd"
            d="M27.2354 -0.0712891C27.7094 -0.0712891 28.1835 -0.0712891 28.6576 -0.0712891C28.7418 0.302353 28.7891 0.681613 28.7998 1.06649C29.0686 1.03755 29.2819 1.13236 29.4398 1.35093C29.4978 1.87673 29.7587 2.25599 30.222 2.48871C30.3369 2.76225 30.408 3.04669 30.4354 3.34204C30.6157 3.35851 30.8054 3.40592 31.0042 3.48427C31.2493 4.16978 31.4153 4.88089 31.502 5.6176C31.6442 5.6176 31.7865 5.6176 31.9287 5.6176C31.9287 7.13464 31.9287 8.65167 31.9287 10.1687C31.6959 9.91041 31.4825 9.62596 31.2887 9.31538C31.1041 8.4521 30.7959 7.64617 30.3642 6.8976C30.4321 6.75856 30.5268 6.64005 30.6487 6.54204C30.088 5.96589 29.614 5.32589 29.2265 4.62204C29.3213 4.52722 29.416 4.43242 29.5109 4.3376C28.8056 2.83642 28.0472 1.36678 27.2354 -0.0712891Z"
            fill="#00010E" />
        <path fill-rule="evenodd" clip-rule="evenodd"
            d="M28.6582 -0.0712891C29.7486 -0.0712891 30.8389 -0.0712891 31.9293 -0.0712891C31.9293 1.825 31.9293 3.72131 31.9293 5.6176C31.7871 5.6176 31.6449 5.6176 31.5026 5.6176C31.4159 4.88089 31.2499 4.16978 31.0049 3.48427C30.806 3.40592 30.6163 3.35851 30.436 3.34204C30.4087 3.04669 30.3376 2.76225 30.2226 2.48871C29.7593 2.25599 29.4985 1.87673 29.4404 1.35093C29.2826 1.13236 29.0692 1.03755 28.8004 1.06649C28.7898 0.681613 28.7424 0.302353 28.6582 -0.0712891Z"
            fill="#000002" />
        <path fill-rule="evenodd" clip-rule="evenodd"
            d="M25.8132 5.61729C26.0845 6.91527 26.2741 8.24267 26.3821 9.59951C26.2097 10.8745 26.0912 12.1545 26.0265 13.4395C25.9676 13.5046 25.8965 13.552 25.8132 13.5817C25.7658 13.3921 25.7183 13.2025 25.6709 13.0128C25.821 11.6879 25.8446 10.3605 25.7421 9.03062C25.5602 9.71629 25.4653 10.4274 25.4576 11.164C25.3504 11.6359 25.1845 12.0625 24.9598 12.444C25.0017 10.2833 24.9543 8.12632 24.8176 5.97285C24.3939 4.53141 23.4932 3.51215 22.1154 2.91507C21.923 2.74649 21.757 2.55687 21.6176 2.34618C21.5587 2.41123 21.4876 2.45863 21.4043 2.4884C20.8967 1.85628 20.2329 1.61925 19.4132 1.77729C18.0621 1.9224 16.7347 2.18315 15.4309 2.55951C14.7449 3.13743 13.9863 3.6115 13.1554 3.98174C12.9833 4.12952 12.8411 4.29545 12.7287 4.47951C12.4443 4.52692 12.1598 4.57433 11.8754 4.62174C11.5841 5.10755 11.3471 5.62904 11.1643 6.18618C11.0252 6.25398 10.9067 6.34878 10.8087 6.47062C10.7617 6.89568 10.6432 7.29864 10.4532 7.67951C10.5275 7.81467 10.6223 7.93318 10.7376 8.03507C10.5837 8.07043 10.3941 8.09412 10.1687 8.10618C10.3249 8.21565 10.3249 8.33416 10.1687 8.46174C9.81759 8.61913 9.67537 8.90358 9.74206 9.31507C9.42598 9.26927 9.16525 9.36408 8.95984 9.59951C8.86416 9.17565 9.03008 8.8912 9.45761 8.74618C9.50569 8.19319 9.71902 7.71912 10.0976 7.32396C10.5511 5.73809 10.4563 5.69068 9.81317 7.18174C9.58936 7.39282 9.39973 7.62985 9.24428 7.89285C9.22057 7.82174 9.19688 7.75062 9.17317 7.67951C9.64074 7.05265 9.9726 6.36525 10.1687 5.61729C10.4937 5.4101 10.7544 5.12566 10.9509 4.76396C10.9707 4.36741 11.1366 3.98815 11.4487 3.62618C12.0678 3.03092 12.7789 2.58055 13.5821 2.27507C15.6885 0.575871 18.1063 -0.0404244 20.8354 0.42618C21.5001 0.633447 22.1401 0.894189 22.7554 1.2084C22.8028 1.161 22.8503 1.11359 22.8976 1.06618C23.4746 1.90887 24.1621 2.71479 24.9598 3.48396C24.9361 3.57878 24.9125 3.67358 24.8887 3.7684C24.4561 2.97529 23.8161 2.52492 22.9687 2.41729C23.3916 2.83971 23.8656 3.14786 24.3909 3.34174C24.7185 4.17466 25.0267 5.02799 25.3154 5.90174C25.1193 4.23547 25.2852 4.14065 25.8132 5.61729Z"
            fill="#002861" />
        <path fill-rule="evenodd" clip-rule="evenodd"
            d="M24.9596 12.4445C24.7644 12.4223 24.5746 12.446 24.3907 12.5157C24.23 12.9008 23.9929 13.2089 23.6796 13.4401C23.1392 13.1935 22.6178 12.9091 22.1152 12.5868C22.1152 12.492 22.0678 12.4445 21.973 12.4445C21.973 12.3497 22.0203 12.3023 22.1152 12.3023C22.5656 12.2881 22.9923 12.3829 23.3952 12.5868C23.4785 12.557 23.5496 12.5096 23.6085 12.4445C23.6439 12.6044 23.715 12.7466 23.8218 12.8712C23.9257 12.6673 24.0679 12.5014 24.2485 12.3734C23.9362 12.0143 23.6281 11.6587 23.3241 11.3068C23.2767 11.449 23.2292 11.5912 23.1818 11.7334C23.2271 10.8392 23.2507 9.93844 23.253 9.03122C23.3952 9.03122 23.5374 9.03122 23.6796 9.03122C23.6728 7.75233 23.5543 6.51973 23.3241 5.33344C23.7401 6.56507 23.9298 7.84507 23.893 9.17344C23.9403 9.07862 23.9878 8.98381 24.0352 8.88899C24.13 9.07862 24.2248 9.07862 24.3196 8.88899C24.4537 7.51021 24.264 6.1828 23.7507 4.90677C23.5498 4.63462 23.2889 4.44499 22.9685 4.33788C22.7838 4.01672 22.6415 3.68486 22.5418 3.34233C21.9205 3.42436 21.3516 3.30585 20.8352 2.98677C19.413 2.89195 17.9907 2.89195 16.5685 2.98677C15.7493 3.51376 14.8486 3.84562 13.8663 3.98233C13.608 4.16934 13.371 4.38267 13.1552 4.62233C13.0248 4.53313 12.8826 4.48571 12.7285 4.48011C12.8409 4.29604 12.9831 4.13011 13.1552 3.98233C13.9861 3.61209 14.7447 3.13803 15.4307 2.56011C16.7345 2.18374 18.0618 1.92299 19.413 1.77788C20.2327 1.61985 20.8965 1.85687 21.4041 2.48899C21.4874 2.45923 21.5585 2.41182 21.6174 2.34677C21.7568 2.55746 21.9228 2.74708 22.1152 2.91566C23.493 3.51274 24.3937 4.532 24.8174 5.97344C24.9541 8.12691 25.0014 10.2839 24.9596 12.4445Z"
            fill="#023269" />
        <path fill-rule="evenodd" clip-rule="evenodd"
            d="M25.9551 -0.0712891C26.1447 -0.0712891 26.3344 -0.0712891 26.524 -0.0712891C27.1216 0.95687 27.6905 2.07095 28.2306 3.27093C28.4737 4.30743 28.7819 5.3741 29.1551 6.47093C29.8854 7.88526 30.5018 9.3549 31.004 10.8798C30.9422 11.4419 30.9422 12.0108 31.004 12.5865C31.3248 12.9633 31.633 13.3425 31.9284 13.7243C31.9284 15.9525 31.9284 18.1805 31.9284 20.4087C31.8407 20.4245 31.7695 20.4719 31.7151 20.5509C31.6202 21.2147 31.5255 21.8783 31.4306 22.542C30.907 23.0895 30.3618 23.611 29.7951 24.1065C29.4428 23.9806 29.1583 23.791 28.9417 23.5376C28.9103 22.5674 29.1474 22.4725 29.6529 23.2532C30.2327 22.8326 30.4698 22.2637 30.364 21.5465C30.5062 21.5465 30.6484 21.5465 30.7906 21.5465C30.7906 21.1672 30.7906 20.788 30.7906 20.4087C31.3184 20.5017 31.6029 20.2884 31.644 19.7687C31.4598 19.189 31.3413 18.5964 31.2884 17.9909C31.2411 16.5687 31.1935 15.1465 31.1462 13.7243C30.7808 13.004 30.5201 12.2455 30.364 11.4487C30.4731 11.3531 30.5679 11.2346 30.6484 11.0932C30.2805 10.6679 30.0671 10.2176 30.0084 9.74204C29.627 9.49173 29.5084 9.18359 29.6529 8.8176C29.5143 8.14113 29.2772 7.50113 28.9417 6.8976C28.8244 6.77163 28.6822 6.72423 28.5151 6.75538C28.5515 6.42933 28.5041 6.12118 28.3729 5.83093C28.4677 5.78353 28.5624 5.73611 28.6573 5.68871C28.1609 4.55177 27.6869 3.41399 27.2351 2.27538C27.2824 2.22797 27.3299 2.18056 27.3773 2.13316C26.6979 1.52601 26.2239 0.791201 25.9551 -0.0712891Z"
            fill="#000B24" />
        <path fill-rule="evenodd" clip-rule="evenodd"
            d="M22.1153 12.3027C22.1153 12.1131 22.1153 11.9234 22.1153 11.7338C22.419 11.784 22.6086 11.6655 22.6842 11.3782C22.5528 11.2147 22.5528 11.0725 22.6842 10.9516C22.2569 10.4773 22.1857 9.93215 22.4709 9.31602C22.5183 9.50564 22.5658 9.69528 22.6131 9.88491C22.6605 9.79009 22.708 9.69528 22.7553 9.60046C22.8502 8.60491 22.8502 7.60935 22.7553 6.6138C22.5643 6.71527 22.3748 6.66787 22.1865 6.47157C21.5831 4.54408 20.232 3.78555 18.1331 4.19602C18.0893 4.31095 18.0182 4.40575 17.9198 4.48046C17.5554 4.48903 17.1761 4.44162 16.782 4.33824C16.5837 4.60669 16.3231 4.79632 15.9998 4.90713C15.8317 4.60201 15.6183 4.60201 15.3598 4.90713C15.3598 5.47602 15.0753 5.76046 14.5065 5.76046C14.3223 6.15751 14.109 6.53677 13.8665 6.89824C13.6034 6.70304 13.4138 6.77415 13.2976 7.11157C13.6444 7.18744 13.7392 7.35335 13.582 7.60935C12.7086 8.11734 11.8079 8.59141 10.8798 9.03158C10.7332 8.92512 10.5672 8.8303 10.382 8.74713C10.3346 8.79453 10.2872 8.84195 10.2398 8.88935C10.1711 8.75453 10.1474 8.6123 10.1687 8.46269C10.3248 8.33511 10.3248 8.2166 10.1687 8.10713C10.394 8.09507 10.5837 8.07138 10.7376 8.03602C10.6222 7.93413 10.5274 7.81562 10.4531 7.68046C10.6432 7.29959 10.7617 6.89663 10.8087 6.47157C10.9067 6.34973 11.0252 6.25493 11.1642 6.18713C11.3471 5.62999 11.5841 5.1085 11.8753 4.62269C12.1598 4.57528 12.4442 4.52787 12.7287 4.48046C12.8827 4.48607 13.025 4.53348 13.1553 4.62269C13.3712 4.38303 13.6082 4.16969 13.8665 3.98269C14.8488 3.84598 15.7495 3.51412 16.5687 2.98713C17.9909 2.89231 19.4131 2.89231 20.8353 2.98713C21.3517 3.30621 21.9206 3.42472 22.542 3.34269C22.6417 3.68521 22.7839 4.01708 22.9687 4.33824C23.2891 4.44535 23.5499 4.63497 23.7509 4.90713C24.2642 6.18316 24.4539 7.51057 24.3198 8.88935C24.2249 9.07898 24.1302 9.07898 24.0353 8.88935C23.988 8.98417 23.9405 9.07898 23.8931 9.1738C23.93 7.84543 23.7402 6.56543 23.3242 5.3338C23.5545 6.52009 23.673 7.75268 23.6798 9.03158C23.5376 9.03158 23.3953 9.03158 23.2531 9.03158C23.2508 9.9388 23.2272 10.8395 23.182 11.7338C23.2294 11.5916 23.2769 11.4494 23.3242 11.3071C23.6283 11.6591 23.9364 12.0146 24.2487 12.3738C24.0681 12.5017 23.9258 12.6677 23.822 12.8716C23.7152 12.747 23.6441 12.6048 23.6087 12.4449C23.5498 12.51 23.4787 12.5574 23.3953 12.5871C22.9924 12.3833 22.5658 12.2885 22.1153 12.3027Z"
            fill="#053572" />
        <path fill-rule="evenodd" clip-rule="evenodd"
            d="M11.8755 -0.0712891C12.4444 -0.0712891 13.0133 -0.0712891 13.5822 -0.0712891C13.0237 0.698979 12.2889 1.41009 11.3777 2.06204C11.3303 2.01464 11.2829 1.96722 11.2355 1.91982C11.024 2.0269 11.0003 2.14541 11.1644 2.27538C10.4807 2.88545 10.0066 3.62027 9.74217 4.47982C9.19407 5.09269 8.79112 5.8038 8.53328 6.61316C8.13967 6.71379 8.02115 6.92713 8.17773 7.25316C7.72416 7.71875 7.43972 8.26393 7.32439 8.88871C7.22957 8.93611 7.13477 8.98353 7.03995 9.03093C6.79329 8.77186 6.65107 8.44001 6.61328 8.03538C6.98774 7.91907 7.15365 7.68203 7.11106 7.32427C6.98097 7.44201 6.88615 7.58423 6.82661 7.75093C6.77541 7.38242 6.87023 7.05056 7.11106 6.75538C7.15846 6.8976 7.20588 7.03982 7.25328 7.18204C7.28441 6.97753 7.35552 6.7879 7.46661 6.61316C7.66041 6.80932 7.80263 6.78561 7.89328 6.54204C7.79846 6.44722 7.70366 6.35242 7.60884 6.2576C7.74856 6.10764 7.91449 6.03653 8.10661 6.04427C8.20143 5.90204 8.20143 5.75982 8.10661 5.6176C8.01356 5.78764 7.94245 5.78764 7.89328 5.6176C8.06321 5.29742 8.20543 4.96557 8.31995 4.62204C8.84765 4.35024 9.03727 3.94729 8.88884 3.41316C9.39191 3.25065 9.55784 2.9425 9.38661 2.48871C9.71846 2.34649 10.0503 2.20427 10.3822 2.06204C10.7176 1.68882 10.6702 1.59402 10.2399 1.7776C10.3367 1.30124 10.6449 0.993092 11.1644 0.853155C11.3409 0.480162 11.5779 0.172013 11.8755 -0.0712891Z"
            fill="#00153D" />
        <path fill-rule="evenodd" clip-rule="evenodd"
            d="M9.74238 4.48047C9.89859 4.63704 9.9223 4.82668 9.8135 5.04936C9.14094 6.21896 8.50094 7.40416 7.8935 8.60491C7.92326 8.68826 7.97067 8.75937 8.03572 8.81825C7.75127 9.19751 7.46683 9.57676 7.18238 9.95602C7.28817 10.1037 7.43039 10.1748 7.60905 10.1694C7.69578 10.2961 7.74318 10.4383 7.75127 10.596C7.57014 10.6941 7.57014 10.8126 7.75127 10.9516C8.29479 11.283 8.81628 11.6385 9.31572 12.0182C9.34012 12.1593 9.29271 12.2541 9.1735 12.3027C8.6281 11.7952 8.0355 11.7478 7.39572 12.1605C7.17502 12.8152 7.36466 13.2893 7.96461 13.5827C8.00835 13.4678 8.07947 13.373 8.17794 13.2982C8.19784 13.718 8.38748 14.0973 8.74683 14.436C8.32776 14.2733 7.94849 14.0363 7.60905 13.7249C7.44333 14.9547 7.41963 16.1873 7.53794 17.4227C8.33694 17.9755 9.11917 18.5444 9.88461 19.1294C9.96207 19.427 10.0806 19.7115 10.2402 19.9827C10.2876 19.9353 10.335 19.8878 10.3824 19.8405C10.4741 20.0035 10.5926 20.1457 10.7379 20.2671C10.4041 20.2711 10.0723 20.2711 9.74238 20.2671C9.87215 20.0911 9.89586 19.9013 9.8135 19.6982C9.58231 19.7486 9.32158 19.7486 9.03127 19.6982C9.05545 19.5102 9.00803 19.3443 8.88905 19.2005C8.98387 19.1531 9.07868 19.1056 9.1735 19.0582C8.74683 19.0109 8.32016 18.9634 7.8935 18.916C7.9409 18.8687 7.98831 18.8212 8.03572 18.7738C7.65887 18.4046 7.2085 18.1913 6.68461 18.1338C6.60818 17.7517 6.67929 17.3961 6.89794 17.0671C6.76311 16.9984 6.62089 16.9748 6.47127 16.996C6.47127 16.6167 6.47127 16.2376 6.47127 15.8582C6.28324 15.8824 6.11732 15.8351 5.9735 15.716C5.92609 15.0049 5.87868 14.2938 5.83127 13.5827C5.78387 13.6301 5.73645 13.6775 5.68905 13.7249C5.57223 13.2906 5.59592 12.8639 5.76016 12.4449C5.85498 12.6345 5.94979 12.8242 6.04461 13.0138C6.28422 12.5346 6.52126 12.0605 6.75572 11.5916C6.47491 10.9293 6.66454 10.6448 7.32461 10.7382C6.75115 10.2545 6.77485 9.78041 7.39572 9.31602C7.50098 9.13833 7.47728 8.99611 7.32461 8.88936C7.43993 8.26458 7.72438 7.7194 8.17794 7.2538C8.02137 6.92777 8.13988 6.71444 8.5335 6.6138C8.79133 5.80444 9.19429 5.09333 9.74238 4.48047Z"
            fill="#031F4B" />
        <path fill-rule="evenodd" clip-rule="evenodd"
            d="M22.1151 12.3027C22.0202 12.3027 21.9729 12.3501 21.9729 12.4449C21.878 12.4449 21.8307 12.3975 21.8307 12.3027C21.8184 12.161 21.8659 12.0425 21.9729 11.9471C21.5462 11.7101 21.1195 11.473 20.6929 11.236C20.8428 11.0386 20.8664 10.8253 20.764 10.596C20.3311 10.1421 20.26 9.66806 20.5507 9.17376C20.4828 8.97024 20.3881 8.78062 20.2662 8.60487C19.7474 8.46646 19.5104 8.13462 19.5551 7.60932C19.0531 7.53663 18.6028 7.63145 18.204 7.89376C18.0892 7.33213 18.0181 7.33213 17.9907 7.89376C17.3202 7.84731 16.6566 7.89472 15.9995 8.03599C15.8102 8.53686 15.5496 8.58428 15.2173 8.17821C15.0245 8.30339 14.8111 8.35079 14.5773 8.32043C14.5661 8.52388 14.6134 8.7135 14.7195 8.88932C15.5197 9.08726 16.2782 9.15838 16.9951 9.10265C16.9339 9.23343 16.8864 9.35194 16.8529 9.45821C16.4522 9.35242 16.0256 9.35242 15.5729 9.45821C15.3954 9.38138 15.2294 9.28656 15.0751 9.17376C14.7944 9.1947 14.5099 9.2421 14.2218 9.31599C13.78 8.9566 13.8037 8.69587 14.2929 8.53376C14.2279 7.95347 14.0856 7.40827 13.8662 6.89821C14.1087 6.53674 14.322 6.15747 14.5062 5.76043C15.0751 5.76043 15.3595 5.47599 15.3595 4.9071C15.6181 4.60197 15.8314 4.60197 15.9995 4.9071C16.3228 4.79629 16.5835 4.60665 16.7818 4.33821C17.1759 4.44159 17.5552 4.48899 17.9195 4.48043C18.018 4.40572 18.0891 4.31092 18.1329 4.19599C20.2318 3.78552 21.5829 4.54405 22.1862 6.47154C22.3745 6.66784 22.5641 6.71524 22.7551 6.61376C22.85 7.60932 22.85 8.60487 22.7551 9.60043C22.7077 9.69525 22.6602 9.79006 22.6129 9.88487C22.5655 9.69525 22.518 9.50561 22.4707 9.31599C22.1855 9.93212 22.2566 10.4773 22.684 10.9515C22.5526 11.0724 22.5526 11.2147 22.684 11.3782C22.6083 11.6655 22.4187 11.784 22.1151 11.7338C22.1151 11.9234 22.1151 12.113 22.1151 12.3027Z"
            fill="#093F7E" />
        <path fill-rule="evenodd" clip-rule="evenodd"
            d="M23.9645 -0.0712891C24.1541 -0.0712891 24.3438 -0.0712891 24.5334 -0.0712891C24.9416 0.833324 25.4867 1.63925 26.1689 2.34649C26.2046 2.6214 26.2757 2.88214 26.3823 3.12871C26.2874 3.17611 26.1927 3.22353 26.0978 3.27093C26.2506 3.62023 26.3928 3.97579 26.5245 4.3376C26.7222 4.57979 26.9355 4.67461 27.1645 4.62204C27.1403 5.30655 27.2114 5.99395 27.3778 6.68427C27.2709 6.77967 27.2234 6.89818 27.2356 7.03982C27.1232 6.88217 27.0521 6.69253 27.0223 6.47093C27.0585 8.28239 27.2244 10.0839 27.52 11.8754C27.4708 12.4346 27.376 12.9797 27.2356 13.5109C27.404 13.6788 27.4989 13.8921 27.52 14.1509C27.3797 14.7396 27.1427 15.2847 26.8089 15.7865C26.8739 15.8454 26.9214 15.9165 26.9512 15.9998C26.3685 16.7375 25.7522 17.4486 25.1023 18.1332C24.9114 17.9338 24.7928 17.9811 24.7467 18.2754C24.678 18.1406 24.6544 17.9983 24.6756 17.8487C25.2155 17.6638 25.5237 17.2845 25.6 16.7109C25.9823 16.3311 26.1957 15.857 26.24 15.2887C26.4814 15.1658 26.6472 14.9762 26.7378 14.7198C26.8726 12.1968 26.8015 9.68416 26.5245 7.18204C26.5195 6.44057 26.3773 5.72946 26.0978 5.04871C26.147 4.87867 26.2181 4.87867 26.3112 5.04871C26.6363 5.74159 26.7311 5.64678 26.5956 4.76427C26.4421 4.49494 26.2524 4.44754 26.0267 4.62204C25.9243 4.39273 25.9479 4.17939 26.0978 3.98204C25.8134 3.47899 25.6237 2.9338 25.5289 2.34649C25.0294 2.25493 24.8872 1.99418 25.1023 1.56427C24.9332 1.33918 24.8147 1.07844 24.7467 0.782044C24.6446 0.646852 24.5261 0.623149 24.3912 0.710933C24.6055 0.83001 24.6766 0.995935 24.6045 1.20871C24.3438 0.971673 24.083 0.734637 23.8223 0.4976C24.1181 0.351368 24.1656 0.161739 23.9645 -0.0712891Z"
            fill="#001C4F" />
        <path fill-rule="evenodd" clip-rule="evenodd"
            d="M10.4531 -0.0712891C10.6427 -0.0712891 10.8323 -0.0712891 11.022 -0.0712891C10.9598 0.152628 10.8176 0.318555 10.5953 0.426489C10.7375 0.473896 10.8798 0.521304 11.022 0.568711C10.0802 1.22542 9.34534 2.05505 8.81753 3.0576C8.23174 3.52425 7.78138 4.09313 7.46642 4.76427C7.56124 4.85909 7.65604 4.95389 7.75086 5.04871C6.96516 6.6171 6.08813 8.13414 5.11975 9.59982C5.07573 9.77986 5.00462 9.94579 4.90642 10.0976C4.95382 10.145 5.00124 10.1924 5.04864 10.2398C4.79159 10.5636 4.57825 10.5873 4.40864 10.3109C4.02689 10.5909 3.90837 10.9228 4.05308 11.3065C3.81037 12.1332 3.50221 12.9391 3.12864 13.7243C3.07644 15.5746 3.00533 17.4235 2.91531 19.2709C3.05753 19.2709 3.19975 19.2709 3.34197 19.2709C3.29586 19.8476 3.34327 20.4165 3.4842 20.9776C3.78194 21.2578 4.01898 21.5897 4.19531 21.9732C4.48925 22.0633 4.75 22.2055 4.97753 22.3998C4.86224 22.7257 4.98077 22.9865 5.33308 23.182C7.84231 23.3925 10.3549 23.5584 12.8709 23.6798C13.2501 23.7747 13.6294 23.8694 14.0086 23.9643C14.3274 24.2419 14.6118 24.5499 14.862 24.8887C15.431 25.0304 15.905 25.3148 16.2842 25.742C17.6615 25.8604 19.0363 25.8366 20.4086 25.6709C21.064 25.4181 21.704 25.1336 22.3286 24.8176C22.5269 24.6593 22.6929 24.4696 22.8264 24.2487C24.2873 24.0008 25.7569 23.8586 27.2353 23.822C27.2353 23.6325 27.2353 23.4427 27.2353 23.2532C27.6901 23.1769 28.0694 23.2718 28.3731 23.5376C28.3731 23.822 28.3731 24.1065 28.3731 24.3909C26.4862 24.5534 24.59 24.7667 22.6842 25.0309C22.0997 25.585 21.4359 26.0354 20.6931 26.382C20.3764 26.2277 20.0919 26.2988 19.8398 26.5954C18.5132 26.6665 17.1857 26.6901 15.8575 26.6665C15.8575 26.4769 15.8575 26.2872 15.8575 26.0976C15.7079 26.1188 15.5657 26.0952 15.4309 26.0265C14.9577 25.4812 14.3888 25.0782 13.7242 24.8176C13.5982 24.7003 13.5508 24.558 13.582 24.3909C10.9272 24.3909 8.27235 24.3909 5.61753 24.3909C5.61753 24.2014 5.61753 24.0116 5.61753 23.822C5.28234 23.8452 4.95048 23.8216 4.62197 23.7509C4.10444 22.7335 3.44075 21.809 2.63086 20.9776C2.58346 21.0725 2.53604 21.1672 2.48864 21.262C2.59182 21.4565 2.68663 21.646 2.77308 21.8309C2.58505 21.8551 2.41914 21.8078 2.27531 21.6887C2.20421 19.7455 2.1805 17.8019 2.2042 15.8576C2.34642 15.8576 2.48864 15.8576 2.63086 15.8576C2.67367 15.0027 2.74478 14.1493 2.8442 13.2976C3.19209 12.7397 3.45282 12.1472 3.62642 11.5198C3.56876 11.3854 3.47396 11.2905 3.34197 11.2354C3.53586 10.9588 3.65438 10.6506 3.69753 10.3109C4.63058 8.88533 5.48391 7.4157 6.25753 5.90204C6.48506 5.70778 6.74581 5.56556 7.03975 5.47538C6.90585 5.47687 6.81104 5.40576 6.75531 5.26204C6.99562 4.71019 7.25636 4.16501 7.53753 3.62649C8.3718 2.83981 9.15403 2.01018 9.8842 1.1376C9.83679 1.09019 9.78938 1.04278 9.74197 0.995378C9.90163 0.846936 10.0913 0.752122 10.3109 0.710933C10.2458 0.65206 10.1984 0.580949 10.1686 0.4976C10.3294 0.337977 10.4242 0.148348 10.4531 -0.0712891Z"
            fill="#000D25" />
        <path fill-rule="evenodd" clip-rule="evenodd"
            d="M15.8581 5.61817C17.3898 5.5641 18.9069 5.68262 20.4092 5.97373C20.9212 6.1204 21.0634 6.42854 20.8359 6.89817C21.1917 7.17042 21.4762 7.50226 21.6892 7.89373C21.853 8.26439 21.8767 8.64364 21.7603 9.03151C21.4939 8.94773 21.2568 9.04254 21.0492 9.31595C20.9784 8.84423 20.9546 8.37016 20.9781 7.89373C20.8285 7.91499 20.6863 7.89128 20.5514 7.82262C20.2559 7.28978 19.8292 6.91052 19.2714 6.68484C18.1307 6.56657 16.9929 6.59028 15.8581 6.75595C15.621 7.0878 15.3366 7.37224 15.0048 7.60929C14.7792 7.37139 14.6843 7.08695 14.7203 6.75595C15.4364 6.70359 15.8157 6.32432 15.8581 5.61817Z"
            fill="#06447D" />
        <path fill-rule="evenodd" clip-rule="evenodd"
            d="M10.169 5.61745C9.97289 6.36541 9.64103 7.05282 9.17346 7.67967C9.19717 7.75079 9.22087 7.8219 9.24457 7.89301C9.40002 7.63001 9.58965 7.39298 9.81346 7.1819C10.4566 5.69084 10.5514 5.73826 10.0979 7.32412C9.71931 7.71928 9.50598 8.19335 9.45791 8.74634C9.03037 8.89136 8.86446 9.17581 8.96013 9.59967C9.16554 9.36424 9.42628 9.26943 9.74235 9.31523C9.67566 8.90374 9.81789 8.61929 10.169 8.4619C10.1478 8.61151 10.1715 8.75374 10.2401 8.88856C10.2875 8.84116 10.3349 8.79374 10.3824 8.74634C10.5676 8.82951 10.7335 8.92433 10.8801 9.03079C9.83717 9.55227 8.7942 10.0737 7.75124 10.5952C7.74315 10.4375 7.69575 10.2953 7.60902 10.1686C7.5658 10.0761 7.51838 9.98133 7.4668 9.88412C7.75272 9.52612 8.13198 9.31278 8.60457 9.24412C8.41495 9.19672 8.22531 9.1493 8.03569 9.1019C8.30412 8.58156 8.51745 8.03638 8.67569 7.46634C9.08543 6.95488 9.41728 6.38599 9.67124 5.75967C9.81507 5.64069 9.98099 5.59327 10.169 5.61745Z"
            fill="#082959" />
        <path fill-rule="evenodd" clip-rule="evenodd"
            d="M27.2355 7.03959C27.5914 8.22742 27.8759 9.43631 28.0888 10.6663C27.9892 11.2687 28.0366 11.8613 28.231 12.444C28.2781 13.5858 28.2307 14.7236 28.0888 15.8574C27.8388 15.9467 27.6254 16.0889 27.4488 16.284C27.1826 16.9832 26.7321 17.5283 26.0977 17.9196C26.386 18.0089 26.7178 18.1274 27.0932 18.2751C27.3647 18.1545 27.6492 18.107 27.9466 18.1329C27.9231 17.6565 27.9469 17.1825 28.0177 16.7107C28.0766 16.6457 28.1477 16.5982 28.231 16.5685C28.3306 17.0721 28.4254 17.5699 28.5155 18.0618C28.2733 18.5603 28.0362 19.0581 27.8044 19.5551C27.5439 19.6337 27.307 19.6337 27.0932 19.5551C26.8826 19.6945 26.6929 19.8605 26.5244 20.0529C26.0434 20.078 25.5693 20.1491 25.1021 20.2663C24.6164 21.0458 24.3556 20.9511 24.3199 19.9818C24.1259 20.0896 23.9599 20.0185 23.8221 19.7685C23.8695 19.7211 23.917 19.6736 23.9644 19.6263C23.5604 19.5263 23.1338 19.5499 22.6844 19.6974C22.4948 19.6025 22.305 19.5078 22.1155 19.4129C21.6414 19.0811 21.1673 18.7492 20.6932 18.4174C20.7527 18.3147 20.8474 18.2436 20.9777 18.204C20.9034 18.1242 20.8561 18.0294 20.8355 17.9196C20.9948 17.6726 21.137 17.4117 21.2621 17.1374C21.0471 16.9437 20.8338 16.8962 20.6221 16.9951C20.5401 16.5742 20.6823 16.4794 21.0488 16.7107C21.1839 16.6365 21.3025 16.5416 21.4044 16.4263C21.6296 16.9205 21.9141 16.9678 22.2577 16.5685C22.305 16.5685 22.3525 16.5685 22.3999 16.5685C22.9712 17.0424 23.5875 17.469 24.2488 17.8485C24.3906 16.8098 24.4381 15.7668 24.391 14.7196C24.5082 15.2617 24.5793 15.8306 24.6044 16.4263C24.8158 16.5334 24.8396 16.6518 24.6755 16.7818C24.7911 16.9687 24.9333 17.1347 25.1021 17.2796C24.9148 17.253 24.7252 17.3479 24.5332 17.564C24.5849 17.6612 24.6322 17.756 24.6755 17.8485C24.6543 17.9981 24.6779 18.1403 24.7466 18.2751C24.7927 17.9809 24.9113 17.9335 25.1021 18.1329C25.7521 17.4484 26.3683 16.7373 26.951 15.9996C26.9213 15.9162 26.8738 15.8451 26.8088 15.7863C27.1426 15.2845 27.3795 14.7394 27.5199 14.1507C27.4987 13.8919 27.4039 13.6786 27.2355 13.5107C27.3758 12.9795 27.4707 12.4343 27.5199 11.8751C27.2242 10.0836 27.0584 8.28216 27.0221 6.4707C27.052 6.6923 27.1231 6.88194 27.2355 7.03959Z"
            fill="#021F4A" />
        <path fill-rule="evenodd" clip-rule="evenodd"
            d="M13.8667 6.89735C14.0862 7.40741 14.2284 7.95261 14.2934 8.5329C13.8042 8.69501 13.7805 8.95574 14.2223 9.31512C14.5104 9.24124 14.7949 9.19384 15.0756 9.1729C15.2299 9.2857 15.3959 9.38052 15.5734 9.45735C16.0261 9.35156 16.4528 9.35156 16.8534 9.45735C16.887 9.35108 16.9345 9.23256 16.9956 9.10179C16.2787 9.15751 15.5202 9.0864 14.7201 8.88846C14.614 8.71264 14.5666 8.52302 14.5779 8.31957C14.8117 8.34993 15.025 8.30253 15.2179 8.17735C15.5501 8.58342 15.8108 8.536 16.0001 8.03512C16.6571 7.89386 17.3207 7.84645 17.9912 7.8929C18.0186 7.33127 18.0897 7.33127 18.2045 7.8929C18.6033 7.63059 19.0536 7.53577 19.5556 7.60846C19.511 8.13376 19.7479 8.4656 20.2667 8.60401C20.3886 8.77976 20.4833 8.96938 20.5512 9.1729C20.2605 9.6672 20.3316 10.1413 20.7645 10.5951C20.8669 10.8244 20.8433 11.0378 20.6934 11.2351C21.1201 11.4722 21.5467 11.7092 21.9734 11.9462C21.8665 12.0416 21.819 12.1602 21.8312 12.3018C20.9614 11.7884 20.108 11.2432 19.2712 10.6662C18.7049 10.4287 18.136 10.2627 17.5645 10.1685C16.6189 9.87878 15.6469 9.64174 14.649 9.45735C14.454 9.42082 14.2406 9.46823 14.009 9.59957C13.8328 9.53665 13.6906 9.44183 13.5823 9.31512C13.5823 9.22031 13.5823 9.1255 13.5823 9.03068C13.6881 8.62398 13.7829 8.19731 13.8667 7.75068C13.8018 7.63726 13.7069 7.58984 13.5823 7.60846C13.7395 7.35246 13.6447 7.18654 13.2979 7.11068C13.4141 6.77326 13.6037 6.70215 13.8667 6.89735Z"
            fill="#184B81" />
        <path fill-rule="evenodd" clip-rule="evenodd"
            d="M24.5332 -0.0712891C24.9125 -0.0712891 25.2917 -0.0712891 25.671 -0.0712891C26.0536 0.812487 26.5276 1.64212 27.0932 2.4176C27.2743 2.77546 27.2743 3.13102 27.0932 3.48427C27.747 4.82992 28.1737 6.25214 28.3732 7.75093C28.2348 7.68171 28.0926 7.6106 27.9465 7.5376C27.8289 7.2684 27.8289 6.96026 27.9465 6.61316C27.8478 6.24514 27.682 5.91328 27.4488 5.6176C27.4277 5.9597 27.4988 6.29155 27.6621 6.61316C27.6467 6.74711 27.5994 6.86564 27.5199 6.96871C27.787 7.49122 28.0003 8.03642 28.1599 8.60427C28.192 9.5816 28.3342 10.5297 28.5865 11.4487C28.5865 17.3272 28.4917 17.3272 28.3021 11.4487C28.2314 11.7772 28.2078 12.1091 28.231 12.4443C28.0366 11.8615 27.9892 11.2689 28.0888 10.6665C27.8759 9.43654 27.5914 8.22765 27.2354 7.03982C27.2232 6.89818 27.2707 6.77967 27.3776 6.68427C27.2112 5.99395 27.1401 5.30655 27.1643 4.62204C26.9353 4.67461 26.722 4.57979 26.5243 4.3376C26.3926 3.97579 26.2504 3.62023 26.0976 3.27093C26.1925 3.22353 26.2872 3.17611 26.3821 3.12871C26.2756 2.88214 26.2045 2.6214 26.1688 2.34649C25.4865 1.63925 24.9414 0.833324 24.5332 -0.0712891Z"
            fill="#001640" />
        <path fill-rule="evenodd" clip-rule="evenodd"
            d="M28.3735 7.7515C28.6936 8.54481 29.0017 9.35074 29.2979 10.1693C29.3663 10.751 29.2952 11.3199 29.0846 11.8759C29.235 12.3907 29.3537 12.9122 29.4401 13.4404C29.4875 13.2508 29.535 13.0611 29.5823 12.8715C29.7311 13.0977 29.8971 13.311 30.0801 13.5115C29.9652 13.5552 29.8703 13.6264 29.7957 13.7248C30.007 14.1222 30.1019 14.5489 30.0801 15.0048C30.0414 16.5946 29.8281 18.159 29.4401 19.6982C29.3137 19.8956 29.2426 19.872 29.2268 19.6271C29.3164 19.2327 29.269 18.8298 29.0846 18.4182C28.9897 18.7026 28.895 18.9871 28.8001 19.2715C27.8632 20.4884 26.6307 20.9624 25.1023 20.6937C25.0652 21.1393 24.8281 21.3053 24.3912 21.1915C24.3122 21.137 24.2648 21.0659 24.249 20.9782C24.3113 20.9874 24.3588 20.9638 24.3912 20.9071C23.7967 20.5236 23.2279 20.1206 22.6846 19.6982C23.134 19.5507 23.5607 19.5271 23.9646 19.6271C23.9172 19.6744 23.8697 19.7219 23.8223 19.7693C23.9602 20.0193 24.1261 20.0904 24.3201 19.9826C24.3558 20.9519 24.6167 21.0466 25.1023 20.2671C25.5695 20.1499 26.0436 20.0788 26.5246 20.0537C26.6931 19.8613 26.8828 19.6953 27.0935 19.5559C27.3072 19.6344 27.5442 19.6344 27.8046 19.5559C28.0364 19.0589 28.2735 18.5611 28.5157 18.0626C28.4257 17.5707 28.3308 17.0729 28.2312 16.5693C28.1479 16.599 28.0768 16.6465 28.0179 16.7115C27.9471 17.1832 27.9233 17.6573 27.9468 18.1337C27.6494 18.1078 27.365 18.1553 27.0935 18.2759C26.718 18.1282 26.3862 18.0097 26.0979 17.9204C26.7324 17.5291 27.1828 16.984 27.449 16.2848C27.6257 16.0897 27.839 15.9475 28.089 15.8582C28.231 14.7244 28.2783 13.5865 28.2312 12.4448C28.2081 12.1096 28.2317 11.7778 28.3023 11.4493C28.4919 17.3277 28.5868 17.3277 28.5868 11.4493C28.3345 10.5303 28.1923 9.58217 28.1601 8.60483C28.0006 8.03698 27.7872 7.49179 27.5201 6.96928C27.5996 6.86621 27.647 6.74768 27.6623 6.61372C27.4991 6.29211 27.428 5.96027 27.449 5.61816C27.6823 5.91384 27.8481 6.24571 27.9468 6.61372C27.8292 6.96083 27.8292 7.26897 27.9468 7.53816C28.0929 7.61117 28.2351 7.68228 28.3735 7.7515Z"
            fill="#00183D" />
        <path fill-rule="evenodd" clip-rule="evenodd"
            d="M25.813 5.61816C26.1054 6.10464 26.3425 6.62611 26.5241 7.18261C26.8012 9.68472 26.8723 12.1973 26.7375 14.7204C26.6469 14.9768 26.481 15.1664 26.2397 15.2893C26.1953 15.8576 25.982 16.3316 25.5997 16.7115C25.5233 17.2851 25.2151 17.6644 24.6752 17.8493C24.632 17.7568 24.5846 17.662 24.533 17.5648C24.725 17.3487 24.9146 17.2538 25.1019 17.2804C24.9331 17.1355 24.7909 16.9695 24.6752 16.7826C24.8394 16.6526 24.8156 16.5341 24.6041 16.4271C24.5791 15.8314 24.508 15.2625 24.3908 14.7204C24.4312 14.448 24.3838 14.211 24.2486 14.0093C24.0155 13.871 23.8257 13.6813 23.6797 13.4404C23.993 13.2092 24.2301 12.9011 24.3908 12.5159C24.5747 12.4463 24.7644 12.4225 24.9597 12.4448C25.1844 12.0634 25.3502 11.6368 25.4575 11.1648C25.4651 10.4283 25.56 9.71717 25.7419 9.0315C25.8445 10.3613 25.8208 11.6887 25.6708 13.0137C25.7182 13.2033 25.7657 13.393 25.813 13.5826C25.8964 13.5528 25.9675 13.5054 26.0264 13.4404C26.0911 12.1554 26.2095 10.8754 26.3819 9.60039C26.274 8.24354 26.0844 6.91614 25.813 5.61816Z"
            fill="#042658" />
        <path fill-rule="evenodd" clip-rule="evenodd"
            d="M7.32477 8.88867C7.47745 8.99542 7.50114 9.13765 7.39588 9.31534C6.77501 9.77972 6.75132 10.2538 7.32477 10.7376C6.66471 10.6441 6.47508 10.9286 6.75588 11.5909C6.52143 12.0598 6.28439 12.5339 6.04477 13.0131C5.94995 12.8235 5.85515 12.6339 5.76033 12.4442C5.59609 12.8632 5.5724 13.2899 5.68922 13.7242C5.73662 13.6768 5.78404 13.6294 5.83144 13.582C5.87884 14.2931 5.92626 15.0042 5.97366 15.7153C6.11749 15.8344 6.28341 15.8817 6.47144 15.8576C6.47144 16.2369 6.47144 16.616 6.47144 16.9953C6.62106 16.9741 6.76328 16.9978 6.89811 17.0664C6.67945 17.3954 6.60834 17.751 6.68477 18.1331C7.20866 18.1906 7.65904 18.4039 8.03588 18.7731C7.98848 18.8205 7.94106 18.868 7.89366 18.9153C8.32033 18.9627 8.747 19.0102 9.17366 19.0576C9.07884 19.1049 8.98404 19.1524 8.88922 19.1998C9.0082 19.3436 9.05562 19.5095 9.03144 19.6976C9.32174 19.7479 9.58248 19.7479 9.81366 19.6976C9.89602 19.9007 9.87231 20.0904 9.74255 20.2664C9.38597 19.9058 8.9593 19.7873 8.46255 19.9109C8.78195 20.0897 8.97158 20.3504 9.03144 20.6931C8.27293 20.6931 7.5144 20.6931 6.75588 20.6931C6.79315 20.4829 6.74574 20.2933 6.61366 20.1242C6.13959 19.6502 5.66551 19.176 5.19144 18.702C5.07655 18.4285 5.00544 18.1441 4.97811 17.8487C4.5081 17.3317 4.36588 16.7153 4.55144 15.9998C4.69527 15.8807 4.86119 15.8334 5.04922 15.8576C5.07284 15.0503 5.04913 14.2443 4.97811 13.4398C4.81519 13.6082 4.64927 13.6082 4.48033 13.4398C4.55578 13.0951 4.67429 12.7632 4.83588 12.4442C5.10788 12.7935 5.34493 12.7461 5.547 12.302C5.53343 11.502 5.67565 10.7434 5.97366 10.0264C6.21261 9.76344 6.42594 9.47899 6.61366 9.17312C6.85898 9.39948 7.0012 9.35207 7.04033 9.03089C7.13515 8.98349 7.22995 8.93607 7.32477 8.88867Z"
            fill="#001A40" />
        <path fill-rule="evenodd" clip-rule="evenodd"
            d="M13.582 9.31543C13.6903 9.44214 13.8325 9.53696 14.0087 9.59987C14.2404 9.46853 14.4537 9.42113 14.6487 9.45765C15.6467 9.64204 16.6186 9.87908 17.5643 10.1688C16.2284 10.0966 14.901 9.95435 13.582 9.7421C13.582 9.59987 13.582 9.45765 13.582 9.31543Z"
            fill="#315175" />
        <path fill-rule="evenodd" clip-rule="evenodd"
            d="M13.5825 9.03085C13.5825 9.12567 13.5825 9.22048 13.5825 9.3153C13.5825 9.45752 13.5825 9.59974 13.5825 9.74196C14.9014 9.95422 16.2288 10.0964 17.5647 10.1686C18.1361 10.2629 18.705 10.4288 19.2713 10.6664C20.1082 11.2434 20.9615 11.7886 21.8313 12.302C21.8313 12.3968 21.8787 12.4442 21.9736 12.4442C22.0684 12.4442 22.1158 12.4916 22.1158 12.5864C21.9734 12.7697 21.9972 12.9593 22.1869 13.1553C22.289 13.0201 22.4075 12.9964 22.5425 13.0842C22.4476 13.2738 22.3054 13.416 22.1158 13.5109C22.2997 13.5805 22.4894 13.6042 22.6847 13.582C22.5186 13.9109 22.3288 14.2427 22.1158 14.5775C21.7147 14.6822 21.4303 14.9191 21.2625 15.2886C20.9772 15.1919 20.7401 15.1919 20.5513 15.2886C19.6716 14.8731 18.8657 14.3515 18.1336 13.7242C18.2638 13.6557 18.4061 13.6083 18.5602 13.582C18.8588 13.7903 19.167 13.98 19.4847 14.1509C19.7117 14.0091 19.925 13.8432 20.1247 13.6531C19.9735 13.4841 19.7838 13.413 19.5558 13.4397C19.4419 12.5962 19.2049 11.7903 18.8447 11.022C18.4829 10.8903 18.1273 10.7481 17.778 10.5953C17.7191 10.6603 17.648 10.7078 17.5647 10.7375C16.5218 10.5479 15.4787 10.3583 14.4358 10.1686C14.332 10.3725 14.1898 10.5385 14.0091 10.6664C13.6806 10.737 13.3488 10.7607 13.0136 10.7375C13.0348 10.8871 13.0111 11.0294 12.9425 11.1642C12.6106 11.3064 12.3736 11.5434 12.2313 11.8753C12.1365 11.6857 12.0417 11.6857 11.9469 11.8753C11.9029 12.0553 11.8318 12.2213 11.7336 12.3731C11.9871 12.5248 12.0582 12.7381 11.9469 13.0131C11.8031 12.8941 11.6372 12.8467 11.4491 12.8709C11.4491 13.0131 11.4491 13.1553 11.4491 13.2975C11.777 13.3676 12.1089 13.415 12.4447 13.4397C12.5124 14.0884 12.7968 14.1833 13.298 13.7242C13.5418 13.8818 13.6366 13.787 13.5825 13.4397C13.7681 13.893 13.7681 14.367 13.5825 14.862C12.2017 14.0302 10.8743 13.1294 9.60023 12.1597C9.61243 12.0181 9.56502 11.8996 9.45801 11.8042C9.83727 11.7094 9.83727 11.6146 9.45801 11.5197C9.87618 11.3558 10.3029 11.2136 10.738 11.0931C10.5484 10.9983 10.5484 10.9034 10.738 10.8086C10.6669 10.7849 10.5958 10.7612 10.5247 10.7375C10.2702 10.8668 10.0095 10.8905 9.74245 10.8086C10.1202 10.666 10.2624 10.429 10.1691 10.0975C10.5446 9.97002 10.8528 9.75668 11.0936 9.45752C11.5565 9.58751 11.9121 9.42159 12.1602 8.95974C12.4447 8.91234 12.7291 8.86492 13.0136 8.81752C12.9662 8.77012 12.9187 8.7227 12.8713 8.6753C13.4054 7.99293 13.6425 8.11146 13.5825 9.03085Z"
            fill="#DAE3EE" />
        <path fill-rule="evenodd" clip-rule="evenodd"
            d="M13.5822 7.60843C13.7068 7.58981 13.8017 7.63723 13.8666 7.75065C13.7828 8.19729 13.688 8.62395 13.5822 9.03065C13.6422 8.11126 13.4052 7.99273 12.8711 8.6751C12.9185 8.7225 12.9659 8.76991 13.0133 8.81732C12.7289 8.86472 12.4444 8.91214 12.16 8.95954C11.9118 9.42139 11.5563 9.58731 11.0933 9.45732C10.8525 9.75648 10.5444 9.96982 10.1689 10.0973C10.2622 10.4288 10.12 10.6658 9.7422 10.8084C10.0092 10.8903 10.27 10.8666 10.5244 10.7373C10.5955 10.761 10.6666 10.7847 10.7378 10.8084C10.5481 10.9032 10.5481 10.9981 10.7378 11.0929C10.3026 11.2134 9.87593 11.3556 9.45775 11.5195C9.83702 11.6144 9.83702 11.7092 9.45775 11.804C9.56476 11.8994 9.61218 12.0179 9.59997 12.1595C9.50515 12.1121 9.41035 12.0647 9.31553 12.0173C8.81609 11.6376 8.2946 11.282 7.75109 10.9507C7.56995 10.8117 7.56995 10.6931 7.75109 10.5951C8.79404 10.0736 9.83702 9.55214 10.88 9.03065C11.8081 8.59049 12.7088 8.11642 13.5822 7.60843Z"
            fill="#C4D1E5" />
        <path fill-rule="evenodd" clip-rule="evenodd"
            d="M13.156 22.6847C13.2982 22.6847 13.4405 22.6847 13.5827 22.6847C13.5827 22.8269 13.5827 22.9691 13.5827 23.1113C14.0153 23.1445 14.3945 23.2867 14.7205 23.538C14.9928 23.9537 15.3248 24.333 15.716 24.6758C15.7994 24.6461 15.8705 24.5986 15.9293 24.5336C16.0935 24.7103 16.2832 24.8526 16.4982 24.9602C17.6141 24.8984 18.8468 24.8984 20.196 24.9602C20.332 24.8068 20.4505 24.6409 20.5516 24.4624C21.2374 24.2837 21.901 24.0703 22.5427 23.8224C22.6375 23.538 22.7323 23.2536 22.8271 22.9691C24.2959 22.8626 25.7654 22.7677 27.236 22.6847C27.236 22.5424 27.236 22.4002 27.236 22.258C27.9945 22.2106 28.7531 22.1631 29.5116 22.1158C29.5857 21.5496 29.633 20.9807 29.6538 20.4091C29.9896 20.3844 30.3214 20.337 30.6493 20.2669C30.6731 18.0856 30.6493 15.9049 30.5782 13.7247C30.3382 13.0308 30.0773 12.3434 29.796 11.6624C29.8621 11.1058 30.0517 11.0347 30.3649 11.4491C30.5211 12.2459 30.7818 13.0044 31.1471 13.7247C31.1945 15.1469 31.242 16.5691 31.2893 17.9913C31.3423 18.5968 31.4607 19.1894 31.6449 19.7691C31.6038 20.2888 31.3194 20.5021 30.7916 20.4091C30.7916 20.7884 30.7916 21.1676 30.7916 21.5469C30.6493 21.5469 30.5071 21.5469 30.3649 21.5469C30.4707 22.2641 30.2336 22.833 29.6538 23.2536C29.1483 22.4729 28.9113 22.5678 28.9427 23.538C28.7531 23.538 28.5634 23.538 28.3738 23.538C28.0701 23.2722 27.6908 23.1773 27.236 23.2536C27.236 23.4431 27.236 23.6329 27.236 23.8224C25.7576 23.859 24.288 24.0012 22.8271 24.2491C22.6936 24.47 22.5276 24.6597 22.3293 24.818C21.7047 25.134 21.0647 25.4185 20.4093 25.6713C19.037 25.837 17.6622 25.8608 16.2849 25.7424C15.9057 25.3152 15.4317 25.0308 14.8627 24.8891C14.6125 24.5503 14.3281 24.2423 14.0093 23.9647C13.6301 23.8698 13.2508 23.7751 12.8716 23.6802C10.3556 23.5588 7.84302 23.3929 5.33379 23.1824C4.98148 22.9869 4.86295 22.7261 4.97824 22.4002C4.75071 22.206 4.48996 22.0637 4.19602 21.9736C4.01969 21.5901 3.78265 21.2582 3.4849 20.978C3.34398 20.4169 3.29657 19.848 3.34268 19.2713C3.20046 19.2713 3.05824 19.2713 2.91602 19.2713C3.00604 17.4239 3.07715 15.575 3.12935 13.7247C3.50292 12.9395 3.81108 12.1336 4.05379 11.3069C4.04449 11.2446 4.06819 11.1972 4.1249 11.1647C4.17231 11.2595 4.21972 11.3543 4.26713 11.4491C4.38375 10.5078 4.45486 10.5078 4.48046 11.4491C4.33741 12.1988 4.07666 12.9099 3.69824 13.5824C3.57994 15.865 3.65105 18.1405 3.91157 20.4091C4.1012 20.4091 4.29084 20.4091 4.48046 20.4091C4.64598 20.7913 4.90671 21.1231 5.26268 21.4047C5.33135 21.5395 5.35506 21.6817 5.33379 21.8313C5.54397 21.7941 5.73361 21.8414 5.90268 21.9736C6.1268 22.269 6.41124 22.4823 6.75602 22.6136C8.9345 22.5944 11.0678 22.6181 13.156 22.6847Z"
            fill="#00112B" />
        <path fill-rule="evenodd" clip-rule="evenodd"
            d="M18.1337 13.7245C17.7747 13.5216 17.3955 13.3556 16.9959 13.2267C15.8541 13.0759 14.7163 12.91 13.5826 12.7289C13.5826 12.966 13.5826 13.203 13.5826 13.4401C13.6367 13.7873 13.5419 13.8822 13.2981 13.7245C12.7969 14.1836 12.5125 14.0888 12.4448 13.4401C12.109 13.4153 11.7771 13.3679 11.4492 13.2978C11.4492 13.1556 11.4492 13.0134 11.4492 12.8712C11.6373 12.847 11.8032 12.8944 11.947 13.0134C12.0583 12.7384 11.9872 12.5251 11.7337 12.3734C11.8319 12.2216 11.903 12.0557 11.947 11.8756C12.0418 11.686 12.1366 11.686 12.2314 11.8756C12.3737 11.5438 12.6107 11.3067 12.9426 11.1645C13.0112 11.0297 13.0349 10.8875 13.0137 10.7378C13.3489 10.7611 13.6807 10.7374 14.0092 10.6667C14.1899 10.5388 14.3321 10.3728 14.4359 10.1689C15.4788 10.3586 16.5219 10.5482 17.5648 10.7378C17.6481 10.7081 17.7192 10.6607 17.7781 10.5956C18.1274 10.7484 18.483 10.8906 18.8448 11.0223C19.205 11.7906 19.442 12.5965 19.5559 13.4401C19.7839 13.4133 19.9736 13.4844 20.1248 13.6534C19.9251 13.8435 19.7118 14.0094 19.4848 14.1512C19.167 13.9803 18.8589 13.7907 18.5603 13.5823C18.4062 13.6086 18.2639 13.656 18.1337 13.7245Z"
            fill="#ECF1F5" />
        <path fill-rule="evenodd" clip-rule="evenodd"
            d="M25.6708 -0.0712891C25.7657 -0.0712891 25.8604 -0.0712891 25.9553 -0.0712891C26.2241 0.791201 26.6981 1.52601 27.3775 2.13316C27.3301 2.18056 27.2826 2.22797 27.2353 2.27538C27.6871 3.41399 28.1611 4.55177 28.6575 5.68871C28.5626 5.73611 28.4679 5.78353 28.3731 5.83093C28.5043 6.12118 28.5517 6.42933 28.5153 6.75538C28.6824 6.72423 28.8246 6.77163 28.9419 6.8976C29.2775 7.50113 29.5145 8.14113 29.6531 8.8176C29.5086 9.18359 29.6272 9.49173 30.0086 9.74204C30.0674 10.2176 30.2807 10.6679 30.6486 11.0932C30.5681 11.2346 30.4733 11.3531 30.3642 11.4487C30.051 11.0343 29.8614 11.1054 29.7953 11.662C30.0766 12.343 30.3374 13.0304 30.5775 13.7243C30.6486 15.9045 30.6724 18.0852 30.6486 20.2665C30.3207 20.3366 29.9888 20.384 29.6531 20.4087C29.6323 20.9803 29.5849 21.5492 29.5108 22.1154C28.7524 22.1627 27.9938 22.2102 27.2353 22.2576C27.2353 22.3998 27.2353 22.542 27.2353 22.6843C25.7647 22.7673 24.2951 22.8622 22.8264 22.9687C22.7315 23.2532 22.6368 23.5376 22.5419 23.822C21.9002 24.0699 21.2366 24.2833 20.5508 24.462C20.4497 24.6405 20.3312 24.8064 20.1953 24.9598C18.846 24.898 17.6134 24.898 16.4975 24.9598C16.2825 24.8522 16.0927 24.7099 15.9286 24.5332C15.8697 24.5982 15.7986 24.6457 15.7153 24.6754C15.324 24.3326 14.9921 23.9533 14.7197 23.5376C15.0687 23.5121 15.3769 23.6069 15.6442 23.822C15.754 23.8014 15.8488 23.7541 15.9286 23.6798C16.3186 23.832 16.6741 24.0453 16.9953 24.3198C17.4485 24.32 17.8515 24.4384 18.2042 24.6754C18.5462 24.5653 18.9018 24.4942 19.2708 24.462C19.2046 24.2773 19.2046 24.064 19.2708 23.822C20.902 22.8401 22.5611 21.8919 24.2486 20.9776C24.2644 21.0654 24.3118 21.1365 24.3908 21.1909C24.8277 21.3047 25.0648 21.1387 25.1019 20.6932C26.6303 20.9618 27.8628 20.4878 28.7997 19.2709C28.8946 18.9865 28.9893 18.702 29.0842 18.4176C29.2686 18.8292 29.316 19.2321 29.2264 19.6265C29.2422 19.8714 29.3133 19.895 29.4397 19.6976C29.8277 18.1585 30.041 16.594 30.0797 15.0043C30.1015 14.5483 30.0066 14.1216 29.7953 13.7243C29.8699 13.6258 29.9648 13.5547 30.0797 13.5109C29.8967 13.3105 29.7307 13.0971 29.5819 12.8709C29.5346 13.0606 29.4871 13.2502 29.4397 13.4398C29.3533 12.9116 29.2346 12.3902 29.0842 11.8754C29.2948 11.3193 29.3659 10.7505 29.2975 10.1687C29.0013 9.35018 28.6932 8.54425 28.3731 7.75093C28.1735 6.25214 27.7469 4.82992 27.0931 3.48427C27.2741 3.13102 27.2741 2.77546 27.0931 2.4176C26.5274 1.64212 26.0534 0.812487 25.6708 -0.0712891Z"
            fill="#001332" />
        <path fill-rule="evenodd" clip-rule="evenodd"
            d="M9.17345 12.3026C9.26827 12.3975 9.36307 12.4923 9.45789 12.5871C9.41221 12.8073 9.26999 12.9021 9.03122 12.8715C9.01878 13.3122 9.08989 13.3596 9.24456 13.0138C9.46694 13.3217 9.44323 13.5587 9.17345 13.7249C9.33565 13.8565 9.33565 13.975 9.17345 14.0804C9.53746 14.1127 9.77451 14.3023 9.88456 14.6493C9.73332 14.8183 9.54369 14.8894 9.31567 14.8626C9.04482 14.8288 8.8552 14.6866 8.74678 14.436C8.38743 14.0972 8.19779 13.718 8.17789 13.2982C8.07942 13.3729 8.00831 13.4677 7.96456 13.5826C7.36461 13.2892 7.17497 12.8152 7.39567 12.1604C8.03546 11.7478 8.62805 11.7952 9.17345 12.3026Z"
            fill="#09295D" />
        <path fill-rule="evenodd" clip-rule="evenodd"
            d="M11.0224 -0.0712891C11.3069 -0.0712891 11.5913 -0.0712891 11.8758 -0.0712891C11.5782 0.172013 11.3412 0.480162 11.1647 0.853155C10.6451 0.993092 10.337 1.30124 10.2402 1.7776C10.6705 1.59402 10.7179 1.68882 10.3824 2.06204C10.0506 2.20427 9.71873 2.34649 9.38688 2.48871C9.5581 2.9425 9.39217 3.25065 8.8891 3.41316C9.03754 3.94729 8.84792 4.35024 8.32022 4.62204C8.2057 4.96557 8.06348 5.29742 7.89355 5.6176C7.94272 5.78764 8.01383 5.78764 8.10688 5.6176C8.2017 5.75982 8.2017 5.90204 8.10688 6.04427C7.91475 6.03653 7.74882 6.10764 7.6091 6.2576C7.70392 6.35242 7.79873 6.44722 7.89355 6.54204C7.8029 6.78561 7.66067 6.80932 7.46688 6.61316C7.35579 6.7879 7.28468 6.97753 7.25355 7.18204C7.20615 7.03982 7.15873 6.8976 7.11133 6.75538C6.8705 7.05056 6.77568 7.38242 6.82688 7.75093C6.88642 7.58423 6.98124 7.44201 7.11133 7.32427C7.15392 7.68203 6.98801 7.91907 6.61355 8.03538C6.65134 8.44001 6.79356 8.77186 7.04022 9.03093C7.00109 9.35211 6.85887 9.39952 6.61355 9.17316C6.42583 9.47903 6.2125 9.76348 5.97355 10.0265C5.67554 10.7435 5.53331 11.502 5.54688 12.302C5.34481 12.7461 5.10777 12.7935 4.83577 12.4443C4.67418 12.7633 4.55566 13.0951 4.48022 13.4398C4.36207 14.4305 4.26725 15.4261 4.19577 16.4265C4.21948 16.9954 4.24317 17.5643 4.26688 18.1332C4.76854 18.4109 4.88706 18.814 4.62244 19.342C5.02336 19.7083 5.45003 20.0401 5.90244 20.3376C5.71281 20.4325 5.71281 20.5272 5.90244 20.622C5.80762 20.6694 5.71281 20.7169 5.61799 20.7643C5.97355 20.9302 6.23428 21.1909 6.40022 21.5465C6.61715 21.373 6.8779 21.2781 7.18244 21.262C8.1661 21.4858 9.16166 21.5806 10.1691 21.5465C10.1691 21.7361 10.1691 21.9258 10.1691 22.1154C10.9525 22.2348 11.6399 22.2348 12.2313 22.1154C12.6035 22.2176 12.9117 22.4074 13.1558 22.6843C11.0676 22.6177 8.93426 22.594 6.75577 22.6132C6.411 22.4819 6.12655 22.2686 5.90244 21.9732C5.73336 21.841 5.54372 21.7937 5.33355 21.8309C5.35481 21.6813 5.3311 21.5391 5.26244 21.4043C4.90647 21.1227 4.64573 20.7909 4.48022 20.4087C4.29059 20.4087 4.10095 20.4087 3.91133 20.4087C3.6508 18.1401 3.57969 15.8646 3.69799 13.582C4.07642 12.9095 4.33717 12.1984 4.48022 11.4487C4.45462 10.5074 4.3835 10.5074 4.26688 11.4487C4.21948 11.3539 4.17206 11.2591 4.12466 11.1643C4.06794 11.1968 4.04425 11.2442 4.05355 11.3065C3.90884 10.9228 4.02735 10.5909 4.4091 10.3109C4.57872 10.5873 4.79205 10.5636 5.0491 10.2398C5.0017 10.1924 4.95428 10.145 4.90688 10.0976C5.00509 9.94579 5.0762 9.77986 5.12022 9.59982C6.08859 8.13414 6.96562 6.6171 7.75133 5.04871C7.65651 4.95389 7.5617 4.85909 7.46688 4.76427C7.78185 4.09313 8.23221 3.52425 8.81799 3.0576C9.34581 2.05505 10.0806 1.22542 11.0224 0.568711C10.8802 0.521304 10.738 0.473896 10.5958 0.426489C10.8181 0.318555 10.9603 0.152628 11.0224 -0.0712891Z"
            fill="#001232" />
        <path fill-rule="evenodd" clip-rule="evenodd"
            d="M7.89316 -0.0712891C8.60427 -0.0712891 9.31538 -0.0712891 10.0265 -0.0712891C9.74249 0.548167 9.26842 0.974834 8.60427 1.20871C8.01941 1.8892 7.42682 2.55291 6.82649 3.19982C5.71212 5.14379 4.45581 6.99268 3.0576 8.74649C3.15242 8.93611 3.24722 9.12575 3.34204 9.31538C2.85746 10.0337 2.3834 10.7448 1.91982 11.4487C1.72011 12.1457 1.62529 12.8568 1.63538 13.582C1.44575 13.582 1.25612 13.582 1.06649 13.582C0.971948 15.0976 0.877133 16.6146 0.782044 18.1332C0.809652 19.6665 0.904468 21.1835 1.06649 22.6843C1.25452 22.6601 1.42044 22.7074 1.56427 22.8265C1.58935 23.3075 1.66047 23.7815 1.7776 24.2487C2.11656 24.3855 2.25878 24.2433 2.20427 23.822C2.86797 23.9169 3.24722 24.2961 3.34204 24.9598C3.15242 24.9598 2.96278 24.9598 2.77316 24.9598C2.75326 25.1908 2.84806 25.3566 3.0576 25.4576C3.48427 25.505 3.91093 25.5525 4.3376 25.5998C4.45658 25.7436 4.504 25.9096 4.47982 26.0976C5.19251 26.074 5.90362 26.0977 6.61316 26.1687C6.73834 26.3616 6.78574 26.5749 6.75538 26.8087C7.51389 26.8087 8.27242 26.8087 9.03093 26.8087C9.00057 26.5749 9.04797 26.3616 9.17316 26.1687C10.2893 26.0656 11.3797 26.1367 12.4443 26.382C12.4443 26.5243 12.4443 26.6665 12.4443 26.8087C12.9034 26.8373 13.3537 26.7898 13.7954 26.6665C14.0826 26.7422 14.2011 26.9317 14.1509 27.2354C13.9408 27.1981 13.7511 27.2455 13.582 27.3776C14.2829 27.5885 14.994 27.7307 15.7154 27.8043C15.7627 28.0887 15.8102 28.3732 15.8576 28.6576C16.2369 28.6576 16.6161 28.6576 16.9954 28.6576C16.9954 28.7998 16.9954 28.942 16.9954 29.0843C18.1332 29.0843 19.2709 29.0843 20.4087 29.0843C20.3864 28.889 20.4101 28.6993 20.4798 28.5154C21.1077 28.1593 21.7951 27.9933 22.542 28.0176C22.868 27.6983 22.9154 27.3428 22.6843 26.9509C24.5774 26.8255 26.4736 26.7781 28.3732 26.8087C28.3732 26.6665 28.3732 26.5243 28.3732 26.382C29.5653 26.2383 30.7504 26.0012 31.9287 25.6709C31.9287 26.5716 31.9287 27.4725 31.9287 28.3732C31.8425 28.7525 31.7241 29.1318 31.5732 29.5109C31.2887 29.3214 31.0043 29.3214 30.7198 29.5109C30.552 29.3425 30.3387 29.2477 30.0798 29.2265C29.1928 29.4823 28.2921 29.5535 27.3776 29.4398C27.2446 29.1012 27.1973 28.7456 27.2354 28.3732C26.5147 28.4228 25.8036 28.5413 25.102 28.7287C24.983 28.8725 24.9356 29.0385 24.9598 29.2265C24.2392 29.2761 23.5281 29.3946 22.8265 29.582C22.6976 29.8237 22.6503 30.0845 22.6843 30.3643C21.9258 30.4591 21.1672 30.5538 20.4087 30.6487C20.4087 30.9332 20.4087 31.2176 20.4087 31.502C18.8916 31.502 17.3747 31.502 15.8576 31.502C15.8576 31.2176 15.8576 30.9332 15.8576 30.6487C15.0991 30.6487 14.3405 30.6487 13.582 30.6487C13.582 30.2694 13.582 29.8902 13.582 29.5109C12.8235 29.5109 12.065 29.5109 11.3065 29.5109C11.3065 29.1316 11.3065 28.7525 11.3065 28.3732C10.5858 28.4228 9.87472 28.5413 9.17316 28.7287C9.05417 28.8725 9.00676 29.0385 9.03093 29.2265C8.44879 29.2296 7.8799 29.3245 7.32427 29.5109C6.945 29.4161 6.56575 29.3214 6.18649 29.2265C5.25262 29.4617 4.30448 29.5566 3.34204 29.5109C3.34204 29.1316 3.34204 28.7525 3.34204 28.3732C2.96278 28.3732 2.58353 28.3732 2.20427 28.3732C2.20427 27.9938 2.20427 27.6147 2.20427 27.2354C1.825 27.2354 1.44575 27.2354 1.06649 27.2354C1.06649 26.8561 1.06649 26.4769 1.06649 26.0976C0.782044 26.0976 0.4976 26.0976 0.213155 26.0976C0.289332 25.6428 0.194517 25.2635 -0.0712891 24.9598C-0.0712891 20.4561 -0.0712891 15.9525 -0.0712891 11.4487C0.18678 11.288 0.471225 11.1932 0.782044 11.1643C0.758461 10.4989 0.782165 9.83517 0.853155 9.17316C0.99698 9.05417 1.16291 9.00676 1.35093 9.03093C1.35093 8.65167 1.35093 8.27242 1.35093 7.89316C1.49316 7.89316 1.63538 7.89316 1.7776 7.89316C1.75437 7.55797 1.77808 7.2261 1.84871 6.8976C2.15412 6.81049 2.46226 6.71567 2.77316 6.61316C2.86798 6.32871 2.96278 6.04427 3.0576 5.75982C3.22667 5.62774 3.41631 5.58034 3.62649 5.6176C3.52507 5.0164 3.76211 4.63715 4.3376 4.47982C4.8239 3.74486 5.34537 3.03375 5.90204 2.34649C6.11403 2.24073 6.32736 2.14591 6.54204 2.06204C6.59323 1.76225 6.68805 1.47781 6.82649 1.20871C7.17793 0.765062 7.53349 0.338395 7.89316 -0.0712891Z"
            fill="#00030F" />
        <path fill-rule="evenodd" clip-rule="evenodd"
            d="M9.31507 12.0176C9.40989 12.065 9.5047 12.1124 9.59952 12.1598C10.8736 13.1295 12.201 14.0302 13.5817 14.862C13.7674 14.3671 13.7674 13.893 13.5817 13.4398C13.5817 13.2028 13.5817 12.9657 13.5817 12.7287C14.7155 12.9097 15.8533 13.0756 16.9951 13.2265C17.3947 13.3554 17.7739 13.5213 18.1329 13.7242C18.865 14.3516 19.6708 14.8731 20.5506 15.2887C20.6653 15.4633 20.8075 15.6056 20.9773 15.7154C20.689 15.7384 20.4046 15.7146 20.124 15.6442C20.2941 15.5512 20.2941 15.4801 20.124 15.4309C19.9817 15.502 19.8395 15.5731 19.6973 15.6442C19.6698 15.8782 19.6461 16.139 19.6262 16.4265C19.5788 16.3791 19.5313 16.3316 19.484 16.2842C19.2821 16.4208 19.0688 16.5392 18.844 16.6398C18.953 16.8489 19.0478 17.0622 19.1284 17.2798C18.6237 17.1059 18.197 16.8214 17.8484 16.4265C17.789 16.3238 17.6942 16.2527 17.564 16.2131C17.7574 15.9375 17.71 15.7006 17.4217 15.502C16.6429 15.2029 15.8371 15.037 15.004 15.0042C15.004 14.862 15.004 14.7198 15.004 14.5776C14.7242 14.6116 14.4634 14.5642 14.2217 14.4354C14.2829 14.6668 14.3065 14.8801 14.2929 15.0754C13.9372 15.277 13.9846 15.4192 14.4351 15.502C14.236 15.7065 13.9989 15.825 13.724 15.8576C13.613 16.5182 13.3286 16.5893 12.8706 16.0709C13.0704 15.8904 13.3075 15.8193 13.5817 15.8576C13.5817 15.668 13.5817 15.4783 13.5817 15.2887C13.3921 15.2887 13.2025 15.2887 13.0129 15.2887C12.985 14.8199 12.748 14.4881 12.3017 14.2931C11.9862 14.4961 11.7729 14.7805 11.6617 15.1465C11.2168 14.7457 11.1931 14.319 11.5906 13.8665C10.8436 13.4985 10.1325 13.0719 9.4573 12.5865C9.36248 12.4916 9.26767 12.3968 9.17285 12.302C9.29206 12.2534 9.33948 12.1586 9.31507 12.0176Z"
            fill="#203F69" />
        <path fill-rule="evenodd" clip-rule="evenodd"
            d="M22.1152 12.5869C22.6178 12.9092 23.1392 13.1937 23.6797 13.4402C23.8257 13.6812 24.0155 13.8708 24.2486 14.0091C24.2045 14.1853 24.1334 14.1853 24.0352 14.0091C24.0075 14.7086 23.9364 15.3959 23.8219 16.0714C23.822 16.2703 23.8695 16.4837 23.9641 16.7114C23.893 16.8536 23.8219 16.9958 23.7508 17.138C23.4629 16.8738 23.1547 16.6367 22.8263 16.4269C22.6959 16.5161 22.5537 16.5636 22.3997 16.5691C22.3523 16.5691 22.3048 16.5691 22.2574 16.5691C21.8605 16.2513 21.4338 15.9668 20.9774 15.7158C20.8076 15.606 20.6654 15.4638 20.5508 15.2891C20.7395 15.1924 20.9766 15.1924 21.2619 15.2891C21.4297 14.9196 21.7142 14.6827 22.1152 14.578C22.3283 14.2432 22.518 13.9114 22.6841 13.5825C22.4888 13.6048 22.2991 13.581 22.1152 13.5114C22.3048 13.4165 22.447 13.2743 22.5419 13.0847C22.4069 12.9969 22.2885 13.0206 22.1863 13.1558C21.9966 12.9598 21.9729 12.7702 22.1152 12.5869Z"
            fill="#C6D1E5" />
        <path fill-rule="evenodd" clip-rule="evenodd"
            d="M24.2493 14.0088C24.3845 14.2106 24.4319 14.4475 24.3915 14.7199C24.4386 15.7671 24.3911 16.8101 24.2493 17.8488C23.5879 17.4693 22.9717 17.0427 22.4004 16.5688C22.5544 16.5632 22.6966 16.5157 22.8271 16.4266C23.1554 16.6363 23.4636 16.8734 23.7515 17.1377C23.8226 16.9955 23.8937 16.8532 23.9648 16.711C23.8703 16.4833 23.8228 16.27 23.8226 16.071C23.9371 15.3956 24.0082 14.7082 24.0359 14.0088C24.1341 14.1849 24.2052 14.1849 24.2493 14.0088Z"
            fill="#AEC0E0" />
        <path fill-rule="evenodd" clip-rule="evenodd"
            d="M8.74668 14.4357C8.8551 14.6863 9.04472 14.8285 9.31557 14.8624C9.43027 15.037 9.57249 15.1793 9.74224 15.2891C9.65443 15.3048 9.58332 15.3522 9.5289 15.4313C9.18147 15.1812 8.82591 14.9442 8.46224 14.7202C8.34078 14.8655 8.19856 14.984 8.03557 15.0757C8.12205 15.3863 8.02723 15.6708 7.75112 15.9291C7.94075 16.2609 7.94075 16.5928 7.75112 16.9246C8.04636 17.2921 8.42563 17.5292 8.8889 17.6357C8.79408 17.6831 8.69928 17.7306 8.60446 17.7779C8.76412 17.9264 8.95374 18.0211 9.17335 18.0624C9.33527 18.593 9.66713 18.7826 10.1689 18.6313C10.5008 18.9863 10.7378 19.3892 10.88 19.8402C10.5732 19.5682 10.2414 19.3312 9.88446 19.1291C9.11902 18.5441 8.3368 17.9752 7.53779 17.4224C7.41948 16.187 7.44318 14.9544 7.6089 13.7246C7.94834 14.036 8.32761 14.273 8.74668 14.4357Z"
            fill="#ADBAD5" />
        <path fill-rule="evenodd" clip-rule="evenodd"
            d="M9.45735 12.5869C10.1326 13.0723 10.8437 13.499 11.5907 13.8669C11.1931 14.3195 11.2168 14.7461 11.6618 15.1469C11.7729 14.781 11.9863 14.4965 12.3018 14.2936C12.7481 14.4886 12.9851 14.8204 13.0129 15.2891C13.2025 15.2891 13.3922 15.2891 13.5818 15.2891C13.5818 15.4787 13.5818 15.6684 13.5818 15.858C13.3075 15.8198 13.0705 15.8909 12.8707 16.0714C13.3286 16.5898 13.6131 16.5186 13.724 15.858C13.9989 15.8255 14.236 15.707 14.4351 15.5025C13.9846 15.4197 13.9372 15.2775 14.2929 15.0758C14.3066 14.8805 14.283 14.6672 14.2218 14.4358C14.4634 14.5647 14.7243 14.612 15.004 14.578C15.004 14.7202 15.004 14.8625 15.004 15.0047C15.8372 15.0374 16.643 15.2034 17.4218 15.5025C17.7101 15.701 17.7574 15.938 17.564 16.2136C17.6943 16.2531 17.789 16.3242 17.8485 16.4269C17.6589 16.4269 17.564 16.5218 17.564 16.7114C17.3916 16.8152 17.2494 16.9574 17.1374 17.138C17.1106 16.6984 16.8498 16.3666 16.3551 16.1425C16.3416 16.5076 16.223 16.8631 15.9996 17.2091C16.6049 17.5964 16.5574 17.7624 15.8574 17.7069C15.8797 17.9022 15.8559 18.0919 15.7862 18.2758C15.4192 18.2027 15.0161 18.0842 14.5774 17.9202C14.3878 17.6586 14.4115 17.5874 14.6485 17.7069C14.7214 17.4195 14.8874 17.2061 15.1462 17.0669C14.8588 17.047 14.598 17.0233 14.364 16.9958C14.3167 17.138 14.2692 17.2802 14.2218 17.4225C13.9199 17.2258 13.7777 16.9887 13.7951 16.7114C13.6996 17.2134 13.3914 17.403 12.8707 17.2802C12.9659 16.6863 12.7525 16.4967 12.2307 16.7114C11.9749 16.3598 11.6431 16.1227 11.2351 16.0002C11.1784 16.0327 11.1547 16.0802 11.164 16.1425C10.6551 15.9185 10.1811 15.634 9.7418 15.2891C9.57206 15.1793 9.42983 15.0371 9.31513 14.8625C9.54316 14.8892 9.73278 14.8181 9.88402 14.6491C9.77397 14.3021 9.53693 14.1125 9.17291 14.0802C9.33511 13.9748 9.33511 13.8563 9.17291 13.7247C9.44269 13.5586 9.4664 13.3215 9.24402 13.0136C9.08935 13.3594 9.01824 13.312 9.03069 12.8714C9.26945 12.9019 9.41167 12.8071 9.45735 12.5869Z"
            fill="#133360" />
        <path fill-rule="evenodd" clip-rule="evenodd"
            d="M20.9781 15.7151C21.4345 15.9661 21.8611 16.2506 22.2581 16.5684C21.9145 16.9678 21.63 16.9204 21.4047 16.4262C21.3029 16.5416 21.1843 16.6364 21.0492 16.7107C20.6827 16.4794 20.5404 16.5741 20.6225 16.9951C20.8341 16.8961 21.0475 16.9436 21.2625 17.1373C21.1373 17.4117 20.9951 17.6725 20.8358 17.9196C20.8565 18.0293 20.9038 18.1242 20.9781 18.204C20.8478 18.2435 20.7531 18.3146 20.6936 18.4173C20.6463 18.4173 20.5988 18.4173 20.5514 18.4173C20.0363 18.0921 19.5622 17.7129 19.1292 17.2796C19.0485 17.062 18.9538 16.8486 18.8447 16.6396C19.0696 16.539 19.2829 16.4205 19.4847 16.284C19.5321 16.3314 19.5796 16.3789 19.6269 16.4262C19.6469 16.1388 19.6706 15.878 19.6981 15.644C19.8403 15.5729 19.9825 15.5018 20.1247 15.4307C20.2948 15.4799 20.2948 15.551 20.1247 15.644C20.4053 15.7144 20.6898 15.7381 20.9781 15.7151Z"
            fill="#133361" />
        <path fill-rule="evenodd" clip-rule="evenodd"
            d="M17.5641 16.7111C17.6498 17.2477 17.7447 17.7691 17.8485 18.2756C17.8485 18.4651 17.8485 18.6549 17.8485 18.8444C17.7063 18.8444 17.5641 18.8444 17.4219 18.8444C16.3111 18.6341 15.1733 18.4681 14.0085 18.3467C13.1536 17.6354 12.2529 16.9954 11.3063 16.4267C11.2589 16.3318 11.2115 16.2371 11.1641 16.1422C11.1548 16.0799 11.1785 16.0324 11.2352 16C11.6431 16.1225 11.975 16.3595 12.2307 16.7111C12.7526 16.4965 12.9659 16.6861 12.8707 17.28C13.3915 17.4027 13.6996 17.2132 13.7952 16.7111C13.7778 16.9884 13.92 17.2255 14.2219 17.4222C14.2692 17.28 14.3167 17.1378 14.3641 16.9956C14.598 17.023 14.8589 17.0468 15.1463 17.0667C14.8875 17.2059 14.7215 17.4192 14.6485 17.7067C14.4116 17.5872 14.3878 17.6583 14.5774 17.92C15.0162 18.084 15.4192 18.2025 15.7863 18.2756C15.856 18.0917 15.8797 17.9019 15.8574 17.7067C16.5574 17.7621 16.6049 17.5962 15.9996 17.2089C16.2231 16.8629 16.3417 16.5073 16.3552 16.1422C16.8498 16.3664 17.1107 16.6982 17.1374 17.1378C17.2495 16.9572 17.3917 16.8149 17.5641 16.7111Z"
            fill="#183358" />
        <path fill-rule="evenodd" clip-rule="evenodd"
            d="M11.307 16.4271C12.2536 16.9958 13.1543 17.6358 14.0092 18.3471C15.174 18.4686 16.3118 18.6345 17.4225 18.8449C17.2489 18.92 17.0831 19.0148 16.9248 19.1293C16.3944 18.8837 15.8493 18.8363 15.2892 18.9871C14.5573 18.9659 13.9173 18.7288 13.3692 18.276C13.3218 18.4182 13.2744 18.5604 13.227 18.7027C13.1548 18.3608 12.9888 18.2659 12.7292 18.4182C12.887 18.6863 13.0055 18.9707 13.0848 19.2715C13.3013 19.5731 13.5621 19.6204 13.867 19.4138C14.0681 19.5736 14.2814 19.7158 14.507 19.8404C14.5543 19.7931 14.6019 19.7456 14.6492 19.6982C14.7195 19.9306 14.7431 20.1677 14.7203 20.4093C15.4659 20.5423 16.2007 20.5897 16.9248 20.5515C17.2229 20.3787 17.1991 20.2601 16.8537 20.196C17.6675 19.9804 18.4734 19.7195 19.2714 19.4138C19.3014 19.1592 19.3014 18.9222 19.2714 18.7027C19.0675 18.9069 18.9017 19.1438 18.7737 19.4138C18.6023 19.3326 18.4363 19.2377 18.2759 19.1293C18.4834 18.8331 18.673 18.5249 18.8448 18.2049C18.7499 18.1575 18.6552 18.11 18.5603 18.0627C18.7202 18.0272 18.8624 17.9561 18.987 17.8493C18.704 17.7074 18.4195 17.5652 18.1337 17.4227C17.9081 17.6606 17.8132 17.945 17.8492 18.276C17.7454 17.7695 17.6505 17.2481 17.5648 16.7115C17.5648 16.522 17.6596 16.4271 17.8492 16.4271C18.1978 16.822 18.6245 17.1065 19.1292 17.2804C19.5623 17.7138 20.0363 18.0929 20.5514 18.4182C20.4246 18.76 20.5194 19.068 20.8359 19.3427C20.5041 19.83 20.3381 19.7589 20.3381 19.1293C20.1893 19.3555 20.0234 19.5688 19.8403 19.7693C20.336 19.8394 20.4071 20.0528 20.0537 20.4093C20.0063 20.362 19.9588 20.3145 19.9114 20.2671C19.3903 20.4029 18.8926 20.5926 18.4181 20.836C18.3348 20.8063 18.2636 20.7588 18.2048 20.6938C18.2587 20.9178 18.2349 21.1311 18.1337 21.3338C17.4225 21.4286 16.7114 21.4286 16.0003 21.3338C15.7938 21.118 15.5805 21.0943 15.3603 21.2627C15.2259 21.2051 15.1311 21.1102 15.0759 20.9782C14.9779 21.1001 14.8594 21.1948 14.7203 21.2627C14.4913 21.113 14.2543 21.113 14.0092 21.2627C13.2532 20.8846 12.4473 20.4817 11.5914 20.0538C11.4626 19.8121 11.4152 19.5513 11.4492 19.2715C11.0404 19.0559 10.6611 18.7715 10.3114 18.4182C10.0845 17.7202 9.94229 17.0091 9.88477 16.2849C10.3325 16.2778 10.8066 16.3251 11.307 16.4271Z"
            fill="#D3DBE4" />
        <path fill-rule="evenodd" clip-rule="evenodd"
            d="M17.4218 18.8441C17.5641 18.8441 17.7063 18.8441 17.8485 18.8441C17.8485 18.6545 17.8485 18.4648 17.8485 18.2752C17.8125 17.9443 17.9074 17.6598 18.133 17.4219C18.4188 17.5644 18.7033 17.7066 18.9863 17.8485C18.8617 17.9554 18.7195 18.0265 18.5596 18.0619C18.6545 18.1092 18.7492 18.1567 18.8441 18.2041C18.6723 18.5241 18.4827 18.8323 18.2752 19.1285C18.4356 19.2369 18.6016 19.3318 18.773 19.413C18.901 19.143 19.0668 18.9061 19.2707 18.7019C19.3007 18.9215 19.3007 19.1584 19.2707 19.413C18.4727 19.7188 17.6668 19.9796 16.853 20.1952C17.1984 20.2594 17.2222 20.378 16.9241 20.5508C16.2 20.5889 15.4652 20.5415 14.7196 20.4085C14.7424 20.1669 14.7188 19.9298 14.6485 19.6974C14.6012 19.7448 14.5537 19.7923 14.5063 19.8397C14.2807 19.7151 14.0674 19.5728 13.8663 19.413C13.5614 19.6196 13.3006 19.5723 13.0841 19.2708C13.0048 18.97 12.8863 18.6855 12.7285 18.4174C12.9881 18.2651 13.1541 18.36 13.2263 18.7019C13.2737 18.5597 13.3211 18.4174 13.3685 18.2752C13.9167 18.728 14.5566 18.9651 15.2885 18.9863C15.8486 18.8356 16.3937 18.8829 16.9241 19.1285C17.0824 19.0141 17.2482 18.9192 17.4218 18.8441Z"
            fill="#E4E6EA" />
        <path fill-rule="evenodd" clip-rule="evenodd"
            d="M31.9293 20.4092C31.9293 21.4047 31.9293 22.4003 31.9293 23.3958C31.1578 23.6972 30.5652 24.2187 30.1515 24.9603C29.8807 24.8747 29.62 24.9458 29.3693 25.1736C27.4689 25.2012 25.5726 25.2961 23.6804 25.4581C23.0796 25.8362 22.4634 26.0969 21.8315 26.2403C21.6641 26.6455 21.4034 26.9773 21.0493 27.2358C20.7785 27.1502 20.5178 27.2213 20.267 27.4492C18.8424 27.5675 17.4202 27.5439 16.0004 27.3781C15.6698 26.9055 15.2905 26.4788 14.8626 26.0981C14.7677 26.1929 14.673 26.2877 14.5781 26.3825C14.4069 25.9679 14.1224 25.6599 13.7248 25.4581C12.5188 25.3365 11.3336 25.1706 10.1693 24.9603C9.39243 24.987 8.63391 25.0819 7.8937 25.2447C7.11991 25.0973 6.33769 24.955 5.54704 24.8181C5.40481 24.8654 5.26259 24.9129 5.12037 24.9603C4.40926 24.2965 3.69815 23.6329 2.98704 22.9692C2.93084 22.5842 2.85973 22.205 2.7737 21.8314C2.68725 21.6465 2.59244 21.4569 2.48926 21.2625C2.53666 21.1677 2.58408 21.0729 2.63148 20.9781C3.44136 21.8095 4.10506 22.7339 4.62259 23.7514C4.9511 23.8221 5.28296 23.8457 5.61815 23.8225C5.61815 24.0121 5.61815 24.2018 5.61815 24.3914C8.27297 24.3914 10.9278 24.3914 13.5826 24.3914C13.5514 24.5585 13.5988 24.7007 13.7248 24.8181C14.3894 25.0786 14.9583 25.4817 15.4315 26.027C15.5663 26.0957 15.7085 26.1193 15.8581 26.0981C15.8581 26.2877 15.8581 26.4774 15.8581 26.667C17.1864 26.6906 18.5139 26.667 19.8404 26.5958C20.0925 26.2993 20.377 26.2282 20.6937 26.3825C21.4365 26.0359 22.1003 25.5855 22.6848 25.0314C24.5906 24.7672 26.4868 24.5538 28.3737 24.3914C28.3737 24.107 28.3737 23.8225 28.3737 23.5381C28.5633 23.5381 28.753 23.5381 28.9426 23.5381C29.1592 23.7915 29.4436 23.9811 29.7959 24.107C30.3627 23.6115 30.9078 23.0899 31.4315 22.5425C31.5263 21.8788 31.6211 21.2152 31.7159 20.5514C31.7704 20.4723 31.8415 20.425 31.9293 20.4092Z"
            fill="#000B1F" />
        <path fill-rule="evenodd" clip-rule="evenodd"
            d="M9.74209 15.2886C10.1814 15.6335 10.6554 15.9179 11.1643 16.1419C11.2117 16.2368 11.2591 16.3315 11.3065 16.4264C10.8061 16.3244 10.332 16.2771 9.88431 16.2842C9.94184 17.0084 10.0841 17.7195 10.311 18.4175C10.6607 18.7708 11.0399 19.0552 11.4488 19.2708C11.4147 19.5506 11.4621 19.8114 11.591 20.0531C12.4468 20.481 13.2528 20.8839 14.0088 21.2619C14.2538 21.1123 14.4909 21.1123 14.7199 21.2619C14.859 21.1941 14.9774 21.0994 15.0754 20.9775C15.1306 21.1095 15.2255 21.2043 15.3599 21.2619C15.58 21.0936 15.7934 21.1173 15.9999 21.3331C16.711 21.4279 17.4221 21.4279 18.1332 21.3331C18.2345 21.1304 18.2582 20.9171 18.2043 20.6931C18.2632 20.7581 18.3343 20.8056 18.4176 20.8353C18.8921 20.5919 19.3899 20.4022 19.911 20.2664C19.9583 20.3138 20.0058 20.3613 20.0532 20.4086C20.4066 20.0521 20.3355 19.8387 19.8399 19.7686C20.0229 19.5681 20.1889 19.3547 20.3376 19.1286C20.3376 19.7582 20.5036 19.8293 20.8354 19.3419C20.519 19.0673 20.4241 18.7593 20.551 18.4175C20.5983 18.4175 20.6458 18.4175 20.6932 18.4175C21.1672 18.7493 21.6414 19.0813 22.1154 19.4131C21.9807 19.7342 22.123 19.9002 22.5421 19.9108C22.1628 20.0057 22.1628 20.1004 22.5421 20.1953C22.4947 20.2426 22.4472 20.2901 22.3999 20.3375C22.5597 20.3729 22.7019 20.444 22.8265 20.5508C22.3609 20.6888 21.9342 20.9021 21.5465 21.1908C21.3036 21.3419 21.2089 21.5079 21.2621 21.6886C21.1672 21.6413 21.0725 21.5938 20.9776 21.5464C20.4261 21.7323 19.8335 21.922 19.1999 22.1153C19.1561 22.0004 19.085 21.9055 18.9865 21.8308C18.8143 21.9409 18.8143 22.0594 18.9865 22.1864C18.8373 22.2564 18.6951 22.2328 18.5599 22.1153C18.4029 22.2761 18.4502 22.3947 18.7021 22.4708C18.5673 22.5395 18.425 22.5631 18.2754 22.5419C18.2754 22.3049 18.2754 22.0679 18.2754 21.8308C16.6594 21.7119 15.0475 21.546 13.4399 21.3331C12.4976 20.9823 11.6442 20.4846 10.8799 19.8397C10.7377 19.3887 10.5006 18.9858 10.1688 18.6308C9.66698 18.7822 9.33512 18.5926 9.1732 18.0619C8.95359 18.0207 8.76397 17.926 8.60431 17.7775C8.69913 17.7301 8.79393 17.6826 8.88875 17.6353C8.42548 17.5288 8.04622 17.2917 7.75098 16.9242C7.9406 16.5924 7.9406 16.2604 7.75098 15.9286C8.02709 15.6703 8.12191 15.3859 8.03542 15.0753C8.19841 14.9835 8.34063 14.8651 8.46209 14.7197C8.82576 14.9437 9.18132 15.1808 9.52875 15.4308C9.58317 15.3518 9.65428 15.3044 9.74209 15.2886Z"
            fill="#C5CDDB" />
        <path fill-rule="evenodd" clip-rule="evenodd"
            d="M22.1158 19.4131C22.3054 19.5079 22.4951 19.6027 22.6847 19.6975C23.228 20.1199 23.7969 20.523 24.3914 20.9064C24.359 20.9632 24.3115 20.9868 24.2492 20.9775C22.5617 21.8919 20.9025 22.8401 19.2714 23.822C18.9908 23.9623 18.7063 24.1046 18.4181 24.2486C18.2771 23.6876 18.2298 23.1187 18.2758 22.542C18.4254 22.5632 18.5677 22.5396 18.7025 22.4709C18.4506 22.3948 18.4033 22.2762 18.5603 22.1153C18.6955 22.2328 18.8378 22.2564 18.9869 22.1864C18.8147 22.0594 18.8147 21.9409 18.9869 21.8309C19.0854 21.9055 19.1565 22.0004 19.2003 22.1153C19.8339 21.922 20.4265 21.7323 20.9781 21.5464C21.0729 21.5938 21.1676 21.6413 21.2625 21.6886C21.2093 21.5079 21.304 21.3419 21.5469 21.1909C21.9346 20.9022 22.3613 20.6888 22.8269 20.5509C22.7024 20.4441 22.5601 20.3729 22.4003 20.3375C22.4476 20.2902 22.4951 20.2427 22.5425 20.1953C22.1632 20.1004 22.1632 20.0057 22.5425 19.9109C22.1234 19.9002 21.9811 19.7342 22.1158 19.4131Z"
            fill="#B0BACB" />
        <path fill-rule="evenodd" clip-rule="evenodd"
            d="M4.47976 13.4404C4.6487 13.6089 4.81462 13.6089 4.97753 13.4404C5.04856 14.245 5.07227 15.051 5.04865 15.8582C4.86061 15.834 4.6947 15.8814 4.55087 16.0004C4.36531 16.7159 4.50753 17.3323 4.97753 17.8493C5.00487 18.1447 5.07598 18.4292 5.19087 18.7027C5.66494 19.1767 6.13902 19.6508 6.61309 20.1249C6.74517 20.294 6.79257 20.4836 6.75531 20.6938C7.51383 20.6938 8.27235 20.6938 9.03087 20.6938C8.97101 20.351 8.78138 20.0903 8.46198 19.9115C8.95873 19.7879 9.3854 19.9064 9.74198 20.2671C10.0718 20.2711 10.4037 20.2711 10.7375 20.2671C10.5922 20.1456 10.4737 20.0034 10.382 19.8404C10.3346 19.8878 10.2872 19.9353 10.2398 19.9827C10.0802 19.7114 9.96167 19.427 9.8842 19.1293C10.2411 19.3314 10.573 19.5685 10.8798 19.8404C11.6441 20.4853 12.4975 20.983 13.4398 21.3338C15.0474 21.5467 16.6592 21.7126 18.2753 21.8315C18.2753 22.0686 18.2753 22.3056 18.2753 22.5427C18.2292 23.1194 18.2766 23.6883 18.4175 24.2493C18.7058 24.1052 18.9903 23.963 19.2709 23.8227C19.2046 24.0646 19.2046 24.2779 19.2709 24.4627C18.9018 24.4948 18.5462 24.5659 18.2042 24.676C17.8515 24.439 17.4486 24.3206 16.9953 24.3204C16.6742 24.0459 16.3186 23.8326 15.9286 23.6804C15.8489 23.7547 15.754 23.802 15.6442 23.8227C15.377 23.6075 15.0688 23.5127 14.7198 23.5382C14.3938 23.2869 14.0146 23.1447 13.582 23.1115C13.582 22.9693 13.582 22.8271 13.582 22.6849C13.4398 22.6849 13.2975 22.6849 13.1553 22.6849C12.9112 22.408 12.6031 22.2182 12.2309 22.116C11.6394 22.2355 10.952 22.2355 10.1686 22.116C10.1686 21.9264 10.1686 21.7367 10.1686 21.5471C9.1612 21.5812 8.16565 21.4864 7.18198 21.2627C6.87744 21.2787 6.61669 21.3736 6.39976 21.5471C6.23383 21.1915 5.97309 20.9308 5.61753 20.7649C5.71235 20.7175 5.80716 20.67 5.90198 20.6227C5.71235 20.5278 5.71235 20.4331 5.90198 20.3382C5.44957 20.0407 5.0229 19.7089 4.62198 19.3427C4.8866 18.8146 4.76808 18.4115 4.26642 18.1338C4.24272 17.5649 4.21902 16.996 4.19531 16.4271C4.26679 15.4267 4.36161 14.4311 4.47976 13.4404Z"
            fill="#041938" />
        <path fill-rule="evenodd" clip-rule="evenodd"
            d="M10.0267 -0.0712891C10.1689 -0.0712891 10.3111 -0.0712891 10.4533 -0.0712891C10.4245 0.148348 10.3296 0.337977 10.1689 0.4976C10.1987 0.580949 10.2461 0.65206 10.3111 0.710933C10.0915 0.752122 9.90189 0.846936 9.74223 0.995378C9.78963 1.04278 9.83705 1.09019 9.88445 1.1376C9.15428 2.01018 8.37206 2.83981 7.53778 3.62649C7.25661 4.16501 6.99587 4.71019 6.75556 5.26204C6.8113 5.40576 6.9061 5.47687 7.04 5.47538C6.74606 5.56556 6.48531 5.70778 6.25778 5.90204C5.48416 7.4157 4.63083 8.88533 3.69778 10.3109C3.65463 10.6506 3.53612 10.9588 3.34223 11.2354C3.47421 11.2905 3.56901 11.3854 3.62667 11.5198C3.45307 12.1472 3.19234 12.7397 2.84445 13.2976C2.74504 14.1493 2.67392 15.0027 2.63112 15.8576C2.48889 15.8576 2.34667 15.8576 2.20445 15.8576C2.18075 17.8019 2.20446 19.7455 2.27556 21.6887C2.41939 21.8078 2.58531 21.8551 2.77334 21.8309C2.85937 22.2046 2.93048 22.5837 2.98667 22.9687C3.69778 23.6325 4.40889 24.2961 5.12 24.9598C5.26223 24.9125 5.40445 24.865 5.54667 24.8176C6.33733 24.9546 7.11955 25.0968 7.89334 25.2443C8.63355 25.0814 9.39206 24.9866 10.1689 24.9598C11.3333 25.1702 12.5184 25.336 13.7244 25.4576C14.122 25.6594 14.4065 25.9675 14.5778 26.382C14.6726 26.2872 14.7674 26.1925 14.8622 26.0976C15.2902 26.4783 15.6695 26.905 16 27.3776C17.4198 27.5434 18.842 27.567 20.2667 27.4487C20.5174 27.2209 20.7781 27.1498 21.0489 27.2354C21.403 26.9768 21.6637 26.645 21.8311 26.2398C22.463 26.0965 23.0793 25.8358 23.68 25.4576C25.5723 25.2956 27.4685 25.2007 29.3689 25.1732C29.6196 24.9453 29.8803 24.8742 30.1511 24.9598C30.5648 24.2183 31.1575 23.6967 31.9289 23.3954C31.9289 24.1538 31.9289 24.9125 31.9289 25.6709C30.7506 26.0012 29.5654 26.2383 28.3733 26.382C28.3733 26.5243 28.3733 26.6665 28.3733 26.8087C26.4738 26.7781 24.5776 26.8255 22.6844 26.9509C22.9156 27.3428 22.8682 27.6983 22.5422 28.0176C21.7953 27.9933 21.1079 28.1593 20.48 28.5154C20.4103 28.6993 20.3866 28.889 20.4089 29.0843C19.2711 29.0843 18.1333 29.0843 16.9956 29.0843C16.9956 28.942 16.9956 28.7998 16.9956 28.6576C16.6163 28.6576 16.2371 28.6576 15.8578 28.6576C15.8104 28.3732 15.7629 28.0887 15.7156 27.8043C14.9942 27.7307 14.2831 27.5885 13.5822 27.3776C13.7513 27.2455 13.9409 27.1981 14.1511 27.2354C14.2013 26.9317 14.0828 26.7422 13.7956 26.6665C13.3539 26.7898 12.9036 26.8373 12.4444 26.8087C12.4444 26.6665 12.4444 26.5243 12.4444 26.382C11.3799 26.1367 10.2895 26.0656 9.17334 26.1687C9.04815 26.3616 9.00075 26.5749 9.03112 26.8087C8.2726 26.8087 7.51407 26.8087 6.75556 26.8087C6.78592 26.5749 6.73852 26.3616 6.61334 26.1687C5.90381 26.0977 5.19269 26.074 4.48 26.0976C4.50418 25.9096 4.45677 25.7436 4.33778 25.5998C3.91112 25.5525 3.48445 25.505 3.05778 25.4576C2.84825 25.3566 2.75344 25.1908 2.77334 24.9598C2.96296 24.9598 3.1526 24.9598 3.34223 24.9598C3.24741 24.2961 2.86816 23.9169 2.20445 23.822C2.25896 24.2433 2.11674 24.3855 1.77778 24.2487C1.66065 23.7815 1.58954 23.3075 1.56445 22.8265C1.42062 22.7074 1.2547 22.6601 1.06667 22.6843C0.90465 21.1835 0.809835 19.6665 0.782227 18.1332C0.877315 16.6146 0.97213 15.0976 1.06667 13.582C1.2563 13.582 1.44594 13.582 1.63556 13.582C1.62548 12.8568 1.7203 12.1457 1.92 11.4487C2.38358 10.7448 2.85765 10.0337 3.34223 9.31538C3.24741 9.12575 3.1526 8.93611 3.05778 8.74649C4.456 6.99268 5.7123 5.14379 6.82667 3.19982C7.42701 2.55291 8.01959 1.8892 8.60445 1.20871C9.2686 0.974834 9.74267 0.548167 10.0267 -0.0712891Z"
            fill="#000719" />
        <path fill-rule="evenodd" clip-rule="evenodd"
            d="M-0.0712891 24.96C0.194517 25.2636 0.289332 25.6429 0.213155 26.0977C0.4976 26.0977 0.782044 26.0977 1.06649 26.0977C1.06649 26.477 1.06649 26.8562 1.06649 27.2355C1.44575 27.2355 1.825 27.2355 2.20427 27.2355C2.20427 27.6148 2.20427 27.994 2.20427 28.3733C2.58353 28.3733 2.96278 28.3733 3.34204 28.3733C3.34204 28.7526 3.34204 29.1318 3.34204 29.5111C4.30448 29.5567 5.25262 29.4619 6.18649 29.2266C6.56575 29.3215 6.945 29.4162 7.32427 29.5111C7.8799 29.3246 8.44879 29.2298 9.03093 29.2266C9.00676 29.0386 9.05417 28.8726 9.17316 28.7288C9.87472 28.5414 10.5858 28.4229 11.3065 28.3733C11.3065 28.7526 11.3065 29.1318 11.3065 29.5111C12.065 29.5111 12.8235 29.5111 13.582 29.5111C13.582 29.8904 13.582 30.2695 13.582 30.6488C14.3405 30.6488 15.0991 30.6488 15.8576 30.6488C15.8576 30.9333 15.8576 31.2177 15.8576 31.5022C17.3747 31.5022 18.8916 31.5022 20.4087 31.5022C20.4087 31.2177 20.4087 30.9333 20.4087 30.6488C21.1672 30.554 21.9258 30.4593 22.6843 30.3644C22.6503 30.0847 22.6976 29.8238 22.8265 29.5822C23.5281 29.3947 24.2392 29.2763 24.9598 29.2266C24.9356 29.0386 24.983 28.8726 25.102 28.7288C25.8036 28.5414 26.5147 28.4229 27.2354 28.3733C27.1973 28.7458 27.2446 29.1013 27.3776 29.44C28.2921 29.5536 29.1928 29.4825 30.0798 29.2266C30.3387 29.2478 30.552 29.3427 30.7198 29.5111C31.0043 29.3215 31.2887 29.3215 31.5732 29.5111C31.7241 29.1319 31.8425 28.7526 31.9287 28.3733C31.9287 29.5584 31.9287 30.7437 31.9287 31.9288C21.262 31.9288 10.5954 31.9288 -0.0712891 31.9288C-0.0712891 29.6059 -0.0712891 27.2829 -0.0712891 24.96Z"
            fill="#000004" />
    </g>
    <defs>
        <clipPath id="clip0_5886_1481">
            <rect width="32" height="32" fill="white" />
        </clipPath>
    </defs>
</svg>