<svg width="32" height="32" viewBox="0 0 32 32" fill="none" xmlns="http://www.w3.org/2000/svg">
    <path
        d="M27.9173 20.3998L27.8994 20.4176L19.703 28.5473C19.703 28.5473 19.6873 28.5673 19.6783 28.5762L16.2242 32L13.7779 29.5736C13.7779 29.5736 13.7779 29.5736 13.7756 29.5713L4.54909 20.4154C3.31918 19.1955 2.70422 17.5972 2.70422 15.9966C2.70422 14.3983 3.31918 12.8 4.54909 11.5801L15.4746 0.743514C15.4746 0.743514 15.4814 0.736834 15.4836 0.734609L16.2242 0L27.7849 11.4666L27.9016 11.5801C28.2854 11.9607 28.5996 12.3793 28.8645 12.82C28.9183 12.9091 28.9767 12.9981 29.0261 13.0894C29.0597 13.1517 29.0844 13.2185 29.1158 13.283C29.1742 13.4033 29.2348 13.5212 29.2842 13.6437C29.3089 13.706 29.3268 13.7683 29.3492 13.8307C29.3964 13.9576 29.4458 14.0845 29.4839 14.2158C29.5019 14.2803 29.5153 14.3449 29.531 14.4072C29.5647 14.5386 29.6028 14.6677 29.6275 14.799C29.641 14.868 29.6478 14.937 29.6589 15.0083C29.6792 15.1374 29.7016 15.2643 29.7151 15.3934C29.7218 15.4713 29.7218 15.5492 29.7263 15.6271C29.733 15.7495 29.7442 15.8698 29.7442 15.9922C29.7442 16.0768 29.7353 16.1614 29.733 16.246C29.7286 16.3595 29.7286 16.4753 29.7173 16.5888C29.7083 16.68 29.6904 16.7713 29.6769 16.8626C29.6612 16.9694 29.65 17.0763 29.6298 17.1809C29.6118 17.2789 29.5826 17.3724 29.5602 17.4681C29.5355 17.5661 29.5153 17.6662 29.4884 17.7642C29.4592 17.8643 29.4188 17.9645 29.3829 18.0624C29.3515 18.1537 29.3223 18.245 29.2864 18.334C29.246 18.4342 29.1966 18.5299 29.1495 18.6279C29.1091 18.7147 29.0732 18.8015 29.0283 18.8884C28.9767 18.9841 28.9183 19.0775 28.8622 19.171C28.8128 19.2534 28.7679 19.3402 28.7141 19.4204C28.6535 19.5116 28.5839 19.5962 28.5188 19.6853C28.4605 19.7654 28.4044 19.8478 28.3415 19.9257C28.2742 20.0081 28.1979 20.086 28.1261 20.1639C28.0565 20.2395 27.9937 20.3175 27.9196 20.3909"
        fill="#B1DFEE" />
    <path
        d="M7.30741 8.84424L4.54909 11.5801C2.08927 14.0199 2.08927 17.9757 4.54909 20.4154L16.2265 31.9978L19.6805 28.5741C21.7566 26.5149 21.7566 23.1758 19.6805 21.1167L7.30741 8.84424Z"
        fill="url(#paint0_linear_5737_1018)" />
    <path
        d="M27.9174 20.3998C30.3592 17.9578 30.3547 14.0177 27.8994 11.5823L16.2242 0L15.4836 0.734609C13.4413 2.76034 13.4413 6.0416 15.4836 8.06731L27.9174 20.3998Z"
        fill="url(#paint1_linear_5737_1018)" />
    <path
        d="M7.17499 23.0199L19.8085 10.4916C21.7386 8.57709 21.7386 5.47172 19.8085 3.55728L16.2242 0L4.54909 11.5801C2.08927 14.0199 2.08927 17.9756 4.54909 20.4154L7.17499 23.0199Z"
        fill="url(#paint2_linear_5737_1018)" style="mix-blend-mode:multiply" />
    <path
        d="M27.7849 11.4668L13.7801 25.3576C12.6063 26.5218 12.6063 28.4073 13.7801 29.5715L16.2265 31.998L27.9016 20.4179C30.3614 17.9781 30.3614 14.0223 27.9016 11.5825L27.7849 11.469V11.4668Z"
        fill="url(#paint3_linear_5737_1018)" style="mix-blend-mode:multiply" />
    <defs>
        <linearGradient id="paint0_linear_5737_1018" x1="2.32942" y1="20.4199" x2="30.4535"
            y2="20.4199" gradientUnits="userSpaceOnUse">
            <stop stop-color="#00AC69" />
            <stop offset="1" stop-color="#95D4E9" />
        </linearGradient>
        <linearGradient id="paint1_linear_5737_1018" x1="13.953" y1="10.1999" x2="29.7465"
            y2="10.1999" gradientUnits="userSpaceOnUse">
            <stop stop-color="#00AC69" />
            <stop offset="1" stop-color="#95D4E9" />
        </linearGradient>
        <linearGradient id="paint2_linear_5737_1018" x1="2.70422" y1="11.5089" x2="21.2561"
            y2="11.5089" gradientUnits="userSpaceOnUse">
            <stop stop-color="#00AC69" />
            <stop offset="0.84" stop-color="#95D4E9" />
        </linearGradient>
        <linearGradient id="paint3_linear_5737_1018" x1="12.9004" y1="21.7313" x2="29.7465"
            y2="21.7313" gradientUnits="userSpaceOnUse">
            <stop stop-color="#00AC69" />
            <stop offset="1" stop-color="#95D4E9" />
        </linearGradient>
    </defs>
</svg>