<svg width="32" height="32" viewBox="0 0 32 32" fill="none" xmlns="http://www.w3.org/2000/svg">
    <path fill-rule="evenodd" clip-rule="evenodd"
        d="M20.1887 28.7657C18.8843 30.3971 16.5127 31.8855 14.6746 32C14.4671 31.7138 14.3189 31.3703 14.1707 30.9982C14.0521 30.6547 13.6667 30.5975 13.3999 30.712C12.3326 31.2844 11.2357 31.6565 10.2574 31.7138C9.7238 30.9123 9.36805 29.8247 9.21983 28.6798C9.19018 28.3936 8.89372 28.1646 8.53797 28.2504C8.15258 28.3649 7.76718 28.4222 7.38179 28.4508C6.37383 26.9624 6.19596 24.2433 6.78887 22.2397C12.3326 22.5832 16.6609 24.6726 20.2184 28.7657H20.1887ZM0 14.3113C5.8995 8.1288 12.5698 3.29159 20.4852 0L22.2936 5.32379C17.4613 7.38462 13.1034 10.1038 9.13089 13.4812C11.5915 13.7961 13.9631 14.4258 16.2459 15.3131L13.6074 20.3506C10.4649 19.1771 7.05569 18.6619 3.52784 18.8909C2.25308 17.2308 1.0376 15.6279 0 14.3113ZM30.5055 4.86583L24.9914 6.61181C26.1475 11.5635 26.4736 16.6011 26.0586 21.6959C24.3392 19.9785 22.4122 18.4902 20.3073 17.288L17.6689 22.3256C20.5149 24.0716 22.9754 26.4186 24.9024 29.2809C27.0369 29.2809 29.0825 29.2809 30.8019 29.2809C32.4028 21.0376 32.4917 12.966 30.5055 4.89445V4.86583Z"
        fill="#1163C8" />
</svg>