<svg width="32" height="32" viewBox="0 0 32 32" fill="none" xmlns="http://www.w3.org/2000/svg">
    <path
        d="M24.562 28.7471C24.9955 29.1849 24.9955 29.8957 24.562 30.3375L23.2457 31.6708C23.041 31.8797 22.7601 32.0001 22.4631 32.0001C22.1661 32.0001 21.8892 31.8837 21.6805 31.6708L20.3641 30.3375C19.9307 29.8957 19.9307 29.1889 20.3641 28.7471L21.6805 27.4138C21.8852 27.205 22.1661 27.0845 22.4631 27.0845C22.7601 27.0845 23.037 27.2009 23.2457 27.4138L24.562 28.7471Z"
        fill="#011D26" />
    <path
        d="M27.0947 17.273C27.5281 17.7108 27.5281 18.4216 27.0947 18.8634L18.8594 27.2168C18.6548 27.4256 18.3738 27.5461 18.0769 27.5461C17.7839 27.5461 17.503 27.4296 17.2943 27.2168L15.9779 25.8834C15.5445 25.4417 15.5445 24.7349 15.9779 24.2931L24.2132 15.9397C24.4178 15.7308 24.7028 15.6104 24.9958 15.6104C25.2887 15.6104 25.5737 15.7308 25.7783 15.9397L27.0947 17.273Z"
        fill="#011D26" />
    <path
        d="M29.306 6.11664C29.7395 6.55841 29.7395 7.26524 29.306 7.707L14.4649 22.7632C14.2602 22.9721 13.9753 23.0925 13.6823 23.0925C13.3894 23.0925 13.1044 22.9761 12.8997 22.7632L11.5834 21.4299C11.1499 20.9881 11.1499 20.2813 11.5834 19.8395L26.4245 4.78733C26.6292 4.57849 26.9101 4.45801 27.2071 4.45801C27.5001 4.45801 27.781 4.57849 27.9897 4.78733L29.306 6.11664Z"
        fill="#011D26" />
    <path
        d="M5.57527 9.48595C5.37059 9.27711 5.08565 9.15663 4.79268 9.15663C4.49971 9.15663 4.21476 9.27711 4.01009 9.48595L2.69373 10.8193C2.26029 11.261 2.26029 11.9679 2.69373 12.4056L6.40602 16.1727L8.50496 18.3012C8.9384 18.739 9.63671 18.739 10.0701 18.3012L12.1691 16.1727L24.9153 3.25301C25.3487 2.81125 25.3487 2.10442 24.9153 1.66265L23.5989 0.329317C23.3942 0.120482 23.1133 0 22.8163 0C22.5234 0 22.2424 0.120482 22.0337 0.329317L9.81329 12.7269C9.67684 12.8675 9.48822 12.9478 9.29157 12.9478C9.09492 12.9478 8.90629 12.8675 8.76984 12.7269L5.57527 9.48595Z"
        fill="#EA1987" />
</svg>