<svg width="32" height="32" viewBox="0 0 32 32" fill="none" xmlns="http://www.w3.org/2000/svg">
    <g clip-path="url(#clip0_5677_5232)">
        <path fill-rule="evenodd" clip-rule="evenodd"
            d="M-0.0800781 -0.0800781C10.5866 -0.0800781 21.2532 -0.0800781 31.9199 -0.0800781C31.9199 10.5866 31.9199 21.2532 31.9199 31.9199C21.2532 31.9199 10.5866 31.9199 -0.0800781 31.9199C-0.0800781 21.2532 -0.0800781 10.5866 -0.0800781 -0.0800781Z"
            fill="#F9F9F9" />
        <path fill-rule="evenodd" clip-rule="evenodd"
            d="M22.7999 8.23977C22.6224 8.23067 22.4624 8.17734 22.3199 8.07977C22.2131 8.07977 22.1066 8.07977 21.9999 8.07977C17.8069 7.86868 13.5936 7.86868 9.35986 8.07977C9.37758 7.98099 9.4309 7.90099 9.51986 7.83977C13.7865 7.7331 18.0531 7.7331 22.3199 7.83977C22.5506 7.90006 22.7106 8.03339 22.7999 8.23977Z"
            fill="#F9E2F0" />
        <path fill-rule="evenodd" clip-rule="evenodd"
            d="M21.9999 8.08019C17.9461 8.05353 13.8929 8.08019 9.83988 8.16019C9.54463 8.34067 9.22463 8.42067 8.87988 8.40019C9.00636 8.25598 9.16636 8.14933 9.35988 8.08019C13.5936 7.8691 17.8069 7.8691 21.9999 8.08019Z"
            fill="#CE2465" />
        <path fill-rule="evenodd" clip-rule="evenodd"
            d="M22.0002 8.08031C22.1069 8.08031 22.2135 8.08031 22.3202 8.08031C22.3325 8.28028 22.4393 8.4136 22.6402 8.48031C22.4914 8.63882 22.3049 8.71882 22.0802 8.72031C20.0301 8.61736 17.9769 8.56404 15.9202 8.56031C13.7522 8.5738 11.5922 8.68045 9.44021 8.88031C9.20021 8.85364 8.96021 8.82698 8.72021 8.80031C8.8406 8.69298 8.89394 8.55965 8.88021 8.40031C9.22497 8.42079 9.54497 8.34079 9.84021 8.16031C13.8932 8.08031 17.9465 8.05365 22.0002 8.08031Z"
            fill="#F2116B" />
        <path fill-rule="evenodd" clip-rule="evenodd"
            d="M22.3202 8.08008C22.4628 8.17765 22.6228 8.23097 22.8002 8.24008C23.067 8.40008 23.2802 8.61341 23.4402 8.88008C23.519 9.48641 23.3857 9.59309 23.0402 9.20008C18.543 9.40897 14.0363 9.40897 9.52023 9.20008C9.30691 9.22675 9.09356 9.25341 8.88023 9.28008C8.64839 9.45643 8.43507 9.6431 8.24023 9.84008C8.34691 9.46675 8.45356 9.09341 8.56023 8.72008C8.61356 8.56008 8.72023 8.45341 8.88023 8.40008C8.89396 8.55942 8.84062 8.69275 8.72023 8.80008C8.96023 8.82675 9.20023 8.85341 9.44023 8.88008C11.5922 8.68022 13.7522 8.57357 15.9202 8.56008C17.9769 8.56381 20.0302 8.61713 22.0802 8.72008C22.3049 8.71859 22.4914 8.63859 22.6402 8.48008C22.4393 8.41337 22.3326 8.28005 22.3202 8.08008Z"
            fill="#E31374" />
        <path fill-rule="evenodd" clip-rule="evenodd"
            d="M23.4402 8.87988C23.8374 9.20031 23.9974 9.62699 23.9202 10.1599C23.7602 10.1599 23.6002 10.1599 23.4402 10.1599C23.4465 9.95889 23.3665 9.79889 23.2002 9.67988C18.4393 9.93068 13.666 10.0907 8.88023 10.1599C8.91833 9.58399 8.75833 9.53065 8.40023 9.99988C8.30316 9.98011 8.24983 9.92678 8.24023 9.83988C8.43507 9.64291 8.64839 9.45623 8.88023 9.27988C9.09356 9.25321 9.30691 9.22655 9.52023 9.19988C14.0363 9.40878 18.543 9.40878 23.0402 9.19988C23.3857 9.59289 23.519 9.48622 23.4402 8.87988Z"
            fill="#DC1681" />
        <path fill-rule="evenodd" clip-rule="evenodd"
            d="M8.56003 8.71973C8.45336 9.09305 8.3467 9.4664 8.24003 9.83973C8.24963 9.92662 8.30296 9.97995 8.40003 9.99973C8.75813 9.53049 8.91813 9.58384 8.88003 10.1597C13.6658 10.0905 18.4391 9.93053 23.2 9.67973C23.3663 9.79873 23.4463 9.95873 23.44 10.1597C23.4104 10.4311 23.277 10.6444 23.04 10.7997C22.9628 10.648 22.9362 10.488 22.96 10.3197C18.486 10.4128 14.006 10.4928 9.52003 10.5597C9.36003 10.4797 9.20003 10.3997 9.04003 10.3197C8.86891 10.5452 8.65558 10.7052 8.40003 10.7997C8.1829 10.9742 8.0229 11.1875 7.92003 11.4397C7.89358 10.8507 7.92026 10.264 8.00003 9.67973C8.11462 9.29907 8.30128 8.97907 8.56003 8.71973Z"
            fill="#D2188C" />
        <path fill-rule="evenodd" clip-rule="evenodd"
            d="M23.4401 10.1602C23.6001 10.1602 23.7601 10.1602 23.9201 10.1602C23.9201 11.0135 23.9201 11.8668 23.9201 12.7202C23.8668 12.7202 23.8134 12.7202 23.7601 12.7202C23.7601 12.2935 23.7601 11.8668 23.7601 11.4402C23.6001 11.4402 23.4401 11.4402 23.2801 11.4402C18.8396 11.3843 14.3862 11.3843 9.92008 11.4402C9.46919 11.1071 8.98919 11.0538 8.48008 11.2802C8.40284 11.1285 8.37616 10.9685 8.40008 10.8002C8.65564 10.7057 8.86896 10.5457 9.04008 10.3202C9.20008 10.4002 9.36008 10.4802 9.52008 10.5602C14.006 10.4932 18.486 10.4132 22.9601 10.3202C22.9362 10.4885 22.9628 10.6485 23.0401 10.8002C23.277 10.6448 23.4105 10.4315 23.4401 10.1602Z"
            fill="#C8189A" />
        <path fill-rule="evenodd" clip-rule="evenodd"
            d="M8.39992 10.7998C8.376 10.9681 8.40267 11.1281 8.47992 11.2798C8.98903 11.0535 9.46903 11.1068 9.91992 11.4398C14.3861 11.384 18.8394 11.384 23.2799 11.4398C22.866 11.6504 22.386 11.7571 21.8399 11.7598C19.8841 11.6989 17.9108 11.6455 15.9199 11.5998C13.4719 11.7669 11.0719 11.9269 8.71992 12.0798C8.55992 12.0798 8.39992 12.0798 8.23992 12.0798C8.23992 12.2931 8.23992 12.5065 8.23992 12.7198C8.13325 12.7198 8.02659 12.7198 7.91992 12.7198C7.91992 12.2931 7.91992 11.8665 7.91992 11.4398C8.02279 11.1876 8.18279 10.9743 8.39992 10.7998Z"
            fill="#BD18A5" />
        <path fill-rule="evenodd" clip-rule="evenodd"
            d="M23.2802 11.4404C23.4402 11.4404 23.6002 11.4404 23.7602 11.4404C23.7602 11.8671 23.7602 12.2938 23.7602 12.7204C23.5663 12.8372 23.4063 12.9972 23.2802 13.2004C22.2135 12.9871 21.1469 12.9871 20.0802 13.2004C19.7826 13.0788 19.5159 12.9188 19.2802 12.7204C19.2269 12.7204 19.1735 12.7204 19.1202 12.7204C16.9869 12.7204 14.8535 12.7204 12.7202 12.7204C12.7264 12.5194 12.6464 12.3594 12.4802 12.2404C11.7734 12.3107 11.0267 12.3641 10.2402 12.4004C9.78689 12.3738 9.33354 12.3471 8.88021 12.3204C8.79125 12.2592 8.73793 12.1792 8.72021 12.0804C11.0722 11.9275 13.4722 11.7675 15.9202 11.6004C17.9111 11.6462 19.8844 11.6995 21.8402 11.7604C22.3863 11.7577 22.8663 11.6511 23.2802 11.4404Z"
            fill="#B623B3" />
        <path fill-rule="evenodd" clip-rule="evenodd"
            d="M8.7199 12.0801C8.73761 12.1789 8.79094 12.2589 8.8799 12.3201C9.33323 12.3468 9.78657 12.3734 10.2399 12.4001C11.0264 12.3637 11.7731 12.3104 12.4799 12.2401C12.6461 12.3591 12.7261 12.5191 12.7199 12.7201C12.5626 13.3278 12.5092 13.9678 12.5599 14.6401C12.5066 14.6401 12.4532 14.6401 12.3999 14.6401C12.4626 14.1246 12.3826 13.6446 12.1599 13.2001C11.4537 13.1676 10.7337 13.2209 9.9999 13.3601C9.8399 13.2534 9.6799 13.1468 9.5199 13.0401C9.16053 13.3566 8.78718 13.5166 8.3999 13.5201C8.2476 13.2728 8.19427 13.0062 8.2399 12.7201C8.2399 12.5068 8.2399 12.2934 8.2399 12.0801C8.3999 12.0801 8.5599 12.0801 8.7199 12.0801Z"
            fill="#A61CBD" />
        <path fill-rule="evenodd" clip-rule="evenodd"
            d="M19.2801 12.7197C19.5158 12.9181 19.7825 13.0781 20.0801 13.1997C21.1468 12.9864 22.2134 12.9864 23.2801 13.1997C23.4062 12.9965 23.5662 12.8365 23.7601 12.7197C23.8134 12.7197 23.8668 12.7197 23.9201 12.7197C23.9201 13.5731 23.9201 14.4264 23.9201 15.2797C23.8668 15.2797 23.8134 15.2797 23.7601 15.2797C23.7601 15.1197 23.7601 14.9597 23.7601 14.7997C23.8108 14.3082 23.7575 13.8282 23.6001 13.3597C23.4401 13.5731 23.2801 13.5731 23.1201 13.3597C22.9783 13.4917 22.9251 13.6517 22.9601 13.8397C21.7822 13.8181 20.6087 13.8714 19.4401 13.9997C19.4401 14.2131 19.4401 14.4264 19.4401 14.6397C19.4401 15.2797 19.4401 15.9197 19.4401 16.5597C19.4401 16.6664 19.4401 16.773 19.4401 16.8797C19.2812 15.5223 19.2279 14.1356 19.2801 12.7197Z"
            fill="#9D20C8" />
        <path fill-rule="evenodd" clip-rule="evenodd"
            d="M7.91992 12.7197C8.02659 12.7197 8.13325 12.7197 8.23992 12.7197C8.19429 13.0058 8.24762 13.2725 8.39992 13.5197C8.7872 13.5163 9.16055 13.3563 9.51992 13.0397C9.67992 13.1464 9.83992 13.2531 9.99992 13.3597C10.7337 13.2206 11.4537 13.1672 12.1599 13.1997C12.3826 13.6443 12.4626 14.1243 12.3999 14.6397C12.2735 14.4624 12.1935 14.249 12.1599 13.9997C12.0094 14.2496 11.8227 14.4629 11.5999 14.6397C10.5497 14.4046 9.50971 14.2979 8.47992 14.3197C8.40047 15.4402 8.29381 15.4936 8.15992 14.4797C8.08008 15.171 8.05341 15.8644 8.07992 16.5597C8.07992 16.9864 8.07992 17.413 8.07992 17.8397C8.02659 17.8397 7.97325 17.8397 7.91992 17.8397C7.91992 16.133 7.91992 14.4264 7.91992 12.7197Z"
            fill="#9622D1" />
        <path fill-rule="evenodd" clip-rule="evenodd"
            d="M23.7599 14.8004C23.6371 14.6784 23.5571 14.5184 23.5199 14.3204C22.494 14.8085 21.4273 14.9152 20.3199 14.6404C20.1735 14.7728 20.067 14.9328 19.9999 15.1204C19.8847 14.8714 19.698 14.7114 19.4399 14.6404C19.4399 14.427 19.4399 14.2137 19.4399 14.0004C20.6086 13.872 21.782 13.8187 22.9599 13.8404C22.9249 13.6524 22.9782 13.4924 23.1199 13.3604C23.2799 13.5737 23.4399 13.5737 23.5999 13.3604C23.7574 13.8288 23.8107 14.3088 23.7599 14.8004Z"
            fill="#921EDB" />
        <path fill-rule="evenodd" clip-rule="evenodd"
            d="M12.4002 14.64C12.4002 15.1733 12.4002 15.7067 12.4002 16.24C12.2469 16.3125 12.1136 16.419 12.0002 16.56C11.8936 16.1333 11.7869 16.1333 11.6802 16.56C11.6269 16.5067 11.5736 16.4533 11.5202 16.4C10.5466 16.5299 9.55994 16.6099 8.56022 16.64C8.73078 16.8254 8.67746 16.9587 8.40022 17.04C8.43459 16.7714 8.32792 16.6114 8.08022 16.56C8.05371 15.8646 8.08038 15.1713 8.16022 14.48C8.29411 15.4938 8.40077 15.4405 8.48022 14.32C9.51002 14.2982 10.55 14.4049 11.6002 14.64C11.823 14.4632 12.0097 14.2498 12.1602 14C12.1938 14.2493 12.2738 14.4626 12.4002 14.64Z"
            fill="#8122F0" />
        <path fill-rule="evenodd" clip-rule="evenodd"
            d="M23.7599 14.8003C23.7599 14.9603 23.7599 15.1203 23.7599 15.2803C23.6289 15.7292 23.5489 16.2091 23.5199 16.7203C23.1529 16.504 22.7529 16.3973 22.3199 16.4003C21.3641 16.5296 20.4041 16.5829 19.4399 16.5603C19.4399 15.9203 19.4399 15.2803 19.4399 14.6403C19.698 14.7114 19.8847 14.8714 19.9999 15.1203C20.067 14.9328 20.1735 14.7728 20.3199 14.6403C21.4273 14.9152 22.494 14.8085 23.5199 14.3203C23.5571 14.5183 23.6371 14.6783 23.7599 14.8003Z"
            fill="#7C25F4" />
        <path fill-rule="evenodd" clip-rule="evenodd"
            d="M12.4001 16.2403C12.4001 16.507 12.4001 16.7736 12.4001 17.0403C12.2554 17.1537 12.2021 17.3137 12.2401 17.5203C12.0112 17.5329 11.7979 17.4796 11.6001 17.3603C10.7063 17.5587 9.79965 17.6652 8.88008 17.6803C8.91864 17.1204 8.7853 17.0672 8.48008 17.5203C8.40284 17.3686 8.37616 17.2086 8.40008 17.0403C8.67732 16.959 8.73064 16.8257 8.56008 16.6403C9.5598 16.6102 10.5465 16.5302 11.5201 16.4003C11.5734 16.4536 11.6268 16.507 11.6801 16.5603C11.7868 16.1336 11.8934 16.1336 12.0001 16.5603C12.1134 16.4193 12.2467 16.3128 12.4001 16.2403Z"
            fill="#6C3BF7" />
        <path fill-rule="evenodd" clip-rule="evenodd"
            d="M8.08008 16.5596C8.32777 16.6109 8.43445 16.7709 8.40008 17.0396C8.37616 17.2079 8.40283 17.3679 8.48008 17.5196C8.78529 17.0665 8.91864 17.1197 8.88008 17.6796C9.79965 17.6645 10.7063 17.558 11.6001 17.3596C11.7979 17.4789 12.0112 17.5322 12.2401 17.5196C12.2021 17.313 12.2554 17.153 12.4001 17.0396C12.3722 17.4173 12.3189 17.7906 12.2401 18.1596C11.9053 18.1693 11.6653 18.3293 11.5201 18.6396C11.4802 18.4597 11.4002 18.2997 11.2801 18.1596C10.7473 18.4084 10.1873 18.5684 9.60008 18.6396C9.18696 18.5141 8.9203 18.2474 8.80008 17.8396C8.66209 18.0935 8.55542 18.3602 8.48008 18.6396C8.42675 18.3196 8.37341 17.9996 8.32008 17.6796C8.25886 17.7685 8.17886 17.8218 8.08008 17.8396C8.08008 17.4129 8.08008 16.9863 8.08008 16.5596Z"
            fill="#634AF8" />
        <path fill-rule="evenodd" clip-rule="evenodd"
            d="M12.4002 14.6396C12.4535 14.6396 12.5068 14.6396 12.5602 14.6396C12.5868 15.9208 12.5601 17.2008 12.4802 18.4796C12.4002 18.6396 12.3202 18.7996 12.2402 18.9596C11.1775 19.1459 10.1108 19.1726 9.04016 19.0396C8.94003 18.9196 8.86003 18.7862 8.80016 18.6396C8.63835 18.7736 8.4517 18.8268 8.24016 18.7996C8.26523 19.0193 8.23856 19.2328 8.16016 19.4396C8.08043 18.9089 8.05376 18.3756 8.08016 17.8396C8.17895 17.8219 8.25895 17.7686 8.32016 17.6796C8.37349 17.9996 8.42683 18.3196 8.48016 18.6396C8.55551 18.3603 8.66218 18.0936 8.80016 17.8396C8.92039 18.2475 9.18704 18.5142 9.60016 18.6396C10.1874 18.5684 10.7474 18.4084 11.2802 18.1596C11.4003 18.2998 11.4803 18.4598 11.5202 18.6396C11.6654 18.3294 11.9054 18.1694 12.2402 18.1596C12.319 17.7907 12.3723 17.4174 12.4002 17.0396C12.4002 16.7729 12.4002 16.5064 12.4002 16.2396C12.4002 15.7063 12.4002 15.173 12.4002 14.6396Z"
            fill="#5C57F3" />
        <path fill-rule="evenodd" clip-rule="evenodd"
            d="M12.7199 12.7197C12.7199 14.9064 12.7199 17.093 12.7199 19.2797C14.8532 19.2797 16.9866 19.2797 19.1199 19.2797C19.1199 17.093 19.1199 14.9064 19.1199 12.7197C19.1732 12.7197 19.2266 12.7197 19.2799 12.7197C19.2278 14.1356 19.281 15.5223 19.4399 16.8797C19.4399 17.1997 19.4399 17.5197 19.4399 17.8397C19.4234 18.2748 19.4769 18.7013 19.5999 19.1197C19.549 19.3032 19.4425 19.4367 19.2799 19.5197C19.5676 19.7605 19.861 19.7872 20.1599 19.5997C20.2132 19.7064 20.2666 19.813 20.3199 19.9197C21.275 19.8572 22.2082 19.6972 23.1199 19.4397C23.2799 19.5464 23.4399 19.653 23.5999 19.7597C23.7567 19.346 23.81 18.9192 23.7599 18.4797C23.7599 18.1064 23.7599 17.733 23.7599 17.3597C23.7599 16.6664 23.7599 15.9731 23.7599 15.2797C23.8132 15.2797 23.8666 15.2797 23.9199 15.2797C23.9199 16.9864 23.9199 18.693 23.9199 20.3997C23.8666 20.3997 23.8132 20.3997 23.7599 20.3997C23.6532 20.3997 23.5999 20.453 23.5999 20.5597C23.2993 20.5768 23.246 20.4968 23.4399 20.3197C23.2201 19.7741 23.1134 19.8008 23.1199 20.3997C22.1241 20.4895 21.1641 20.3829 20.2399 20.0797C20.0602 20.2468 19.847 20.3533 19.5999 20.3997C15.8328 20.3733 12.0995 20.3733 8.39992 20.3997C8.42088 20.2815 8.39421 20.1748 8.31992 20.0797C8.26659 20.293 8.21325 20.5064 8.15992 20.7197C8.12632 20.4704 8.04632 20.2572 7.91992 20.0797C7.91992 19.333 7.91992 18.5864 7.91992 17.8397C7.97325 17.8397 8.02659 17.8397 8.07992 17.8397C8.05352 18.3757 8.08019 18.909 8.15992 19.4397C8.23832 19.2328 8.26499 19.0194 8.23992 18.7997C8.45146 18.8269 8.63811 18.7736 8.79992 18.6397C8.85979 18.7863 8.93979 18.9197 9.03992 19.0397C10.1106 19.1727 11.1772 19.146 12.2399 18.9597C12.3199 18.7997 12.3999 18.6397 12.4799 18.4797C12.5599 17.2008 12.5865 15.9208 12.5599 14.6397C12.5092 13.9675 12.5626 13.3275 12.7199 12.7197Z"
            fill="#5E72F4" />
        <path fill-rule="evenodd" clip-rule="evenodd"
            d="M19.4398 17.8398C19.4931 17.8398 19.5465 17.8398 19.5998 17.8398C19.5742 18.1117 19.6007 18.3784 19.6798 18.6398C20.2263 18.5362 20.7863 18.4827 21.3598 18.4798C22.1518 18.5213 22.8718 18.628 23.5198 18.7998C23.5643 18.6533 23.6443 18.5467 23.7598 18.4798C23.8099 18.9194 23.7566 19.3461 23.5998 19.7598C23.4398 19.6531 23.2798 19.5466 23.1198 19.4398C22.2081 19.6973 21.2748 19.8573 20.3198 19.9198C20.2665 19.8131 20.2131 19.7066 20.1598 19.5998C19.8609 19.7874 19.5675 19.7606 19.2798 19.5198C19.4423 19.4368 19.5489 19.3034 19.5998 19.1198C19.4767 18.7014 19.4233 18.2749 19.4398 17.8398Z"
            fill="#5562F8" />
        <path fill-rule="evenodd" clip-rule="evenodd"
            d="M23.7602 17.3604C23.7602 17.7336 23.7602 18.1071 23.7602 18.4804C23.6447 18.5472 23.5647 18.6538 23.5202 18.8004C22.8722 18.6285 22.1522 18.5218 21.3602 18.4804C20.7868 18.4832 20.2268 18.5367 19.6802 18.6404C19.6012 18.3789 19.5746 18.1122 19.6002 17.8404C19.7306 17.6917 19.8639 17.5317 20.0002 17.3604C20.6167 17.4303 21.2567 17.4303 21.9202 17.3604C22.4967 17.3684 23.03 17.4751 23.5202 17.6804C23.5647 17.5338 23.6447 17.4272 23.7602 17.3604Z"
            fill="#604DF8" />
        <path fill-rule="evenodd" clip-rule="evenodd"
            d="M23.7599 15.2803C23.7599 15.9736 23.7599 16.667 23.7599 17.3603C23.6444 17.4272 23.5644 17.5337 23.5199 17.6803C23.0297 17.475 22.4964 17.3683 21.9199 17.3603C21.2564 17.4302 20.6164 17.4302 19.9999 17.3603C19.8636 17.5316 19.7303 17.6916 19.5999 17.8403C19.5467 17.8403 19.4932 17.8403 19.4399 17.8403C19.4399 17.5203 19.4399 17.2003 19.4399 16.8803C19.4399 16.7736 19.4399 16.667 19.4399 16.5603C20.4041 16.5828 21.3641 16.5296 22.3199 16.4003C22.7529 16.3972 23.1529 16.504 23.5199 16.7203C23.5489 16.2091 23.6289 15.7291 23.7599 15.2803Z"
            fill="#6C39F5" />
        <path fill-rule="evenodd" clip-rule="evenodd"
            d="M12.7202 12.7197C14.8535 12.7197 16.9869 12.7197 19.1202 12.7197C19.1202 14.9064 19.1202 17.093 19.1202 19.2797C16.9869 19.2797 14.8535 19.2797 12.7202 19.2797C12.7202 17.093 12.7202 14.9064 12.7202 12.7197Z"
            fill="#F7F7F9" />
        <path fill-rule="evenodd" clip-rule="evenodd"
            d="M23.6001 20.5598C23.4833 20.807 23.27 20.9403 22.9601 20.9598C18.2668 21.0665 13.5734 21.0665 8.88008 20.9598C8.75962 20.7219 8.62629 20.6952 8.48008 20.8798C8.40284 20.7281 8.37616 20.5681 8.40008 20.3998C12.0996 20.3734 15.833 20.3734 19.6001 20.3998C19.8471 20.3534 20.0604 20.2468 20.2401 20.0798C21.1642 20.383 22.1242 20.4896 23.1201 20.3998C23.1135 19.8009 23.2202 19.7742 23.4401 20.3198C23.2462 20.4969 23.2994 20.5769 23.6001 20.5598Z"
            fill="#4180F9" />
        <path fill-rule="evenodd" clip-rule="evenodd"
            d="M7.91992 20.0801C8.04632 20.2575 8.12632 20.4708 8.15992 20.7201C8.21325 20.5068 8.26659 20.2934 8.31992 20.0801C8.39421 20.1751 8.42088 20.2818 8.39992 20.4001C8.376 20.5684 8.40267 20.7284 8.47992 20.8801C8.62613 20.6954 8.75946 20.7222 8.87992 20.9601C13.5732 21.0668 18.2666 21.0668 22.9599 20.9601C23.2698 20.9406 23.4831 20.8073 23.5999 20.5601C23.5999 20.4534 23.6532 20.4001 23.7599 20.4001C23.7863 20.9361 23.7596 21.4694 23.6799 22.0001C23.6266 21.9468 23.5732 21.8934 23.5199 21.8401C23.4754 21.9866 23.3954 22.0932 23.2799 22.1601C23.2313 22.0561 23.178 21.9494 23.1199 21.8401C18.7626 21.7327 14.416 21.6262 10.0799 21.5201C9.56106 21.5905 9.00106 21.6438 8.39992 21.6801C8.34659 20.8268 8.29325 20.8268 8.23992 21.6801C8.13325 21.6801 8.02659 21.6801 7.91992 21.6801C7.91992 21.1468 7.91992 20.6134 7.91992 20.0801Z"
            fill="#398CF8" />
        <path fill-rule="evenodd" clip-rule="evenodd"
            d="M23.2802 22.16C18.461 22.3381 13.6611 22.3648 8.88023 22.24C8.70337 21.9862 8.49003 21.7997 8.24023 21.68C8.29356 20.8267 8.34691 20.8267 8.40023 21.68C9.00137 21.6437 9.56137 21.5904 10.0802 21.52C14.4164 21.6261 18.763 21.7326 23.1202 21.84C23.1783 21.9493 23.2316 22.056 23.2802 22.16Z"
            fill="#3399F9" />
        <path fill-rule="evenodd" clip-rule="evenodd"
            d="M23.7599 20.4004C23.8132 20.4004 23.8666 20.4004 23.9199 20.4004C23.9706 21.0727 23.9172 21.7127 23.7599 22.3204C23.442 22.4266 23.1753 22.6134 22.9599 22.8804C22.5774 22.9263 22.2041 23.0063 21.8399 23.1204C17.9534 22.9353 14.0601 22.9087 10.1599 23.0404C9.55899 23.347 8.97232 23.3202 8.39992 22.9604C8.09642 22.6087 7.93642 22.1822 7.91992 21.6804C8.02659 21.6804 8.13325 21.6804 8.23992 21.6804C8.48971 21.8001 8.70306 21.9866 8.87992 22.2404C13.6608 22.3652 18.4607 22.3385 23.2799 22.1604C23.3954 22.0935 23.4754 21.987 23.5199 21.8404C23.5732 21.8937 23.6266 21.9471 23.6799 22.0004C23.7596 21.4697 23.7863 20.9364 23.7599 20.4004Z"
            fill="#30A5F8" />
        <path fill-rule="evenodd" clip-rule="evenodd"
            d="M23.7599 22.3203C23.6109 22.949 23.2377 23.3755 22.6399 23.6003C18.3247 23.7827 14.0047 23.8094 9.6799 23.6803C9.41518 23.583 9.14853 23.503 8.8799 23.4403C8.60953 23.3834 8.44953 23.2234 8.3999 22.9603C8.9723 23.3202 9.55897 23.3469 10.1599 23.0403C14.0601 22.9086 17.9533 22.9352 21.8399 23.1203C22.2041 23.0062 22.5773 22.9262 22.9599 22.8803C23.1753 22.6133 23.442 22.4266 23.7599 22.3203Z"
            fill="#27B0F7" />
        <path fill-rule="evenodd" clip-rule="evenodd"
            d="M8.87988 23.4404C9.14851 23.5031 9.41516 23.5831 9.67988 23.6804C14.0047 23.8095 18.3247 23.7828 22.6399 23.6004C22.6399 23.6537 22.6399 23.7071 22.6399 23.7604C18.4871 23.9175 14.327 23.9708 10.1599 23.9204C9.62699 23.9975 9.20031 23.8375 8.87988 23.4404Z"
            fill="#41B2DA" />
        <path fill-rule="evenodd" clip-rule="evenodd"
            d="M22.6402 23.7598C22.5622 23.9154 22.4822 24.0754 22.4002 24.2398C18.3045 24.1338 14.2245 24.0271 10.1602 23.9198C14.3273 23.9702 18.4874 23.9169 22.6402 23.7598Z"
            fill="#C3F9F9" />
    </g>
    <defs>
        <clipPath id="clip0_5677_5232">
            <rect width="32" height="32" fill="white" />
        </clipPath>
    </defs>
</svg>