<svg width="32" height="32" viewBox="0 0 32 32" fill="none" xmlns="http://www.w3.org/2000/svg">
    <g clip-path="url(#clip0_5608_1563)">
        <path fill-rule="evenodd" clip-rule="evenodd"
            d="M-0.0888672 -0.0888672C4.41483 -0.0888672 8.91855 -0.0888672 13.4222 -0.0888672C12.6801 7.68377 11.8208 15.4467 10.8445 23.2C10.7181 24.3938 10.7773 25.579 11.0222 26.7556C11.9022 27.5357 12.9392 28.0098 14.1334 28.1778C17.848 27.5917 21.1664 26.8509 24.0889 25.9556C26.6777 25.3869 29.285 24.9424 31.9111 24.6222C31.9111 27.0519 31.9111 29.4814 31.9111 31.9111C21.2445 31.9111 10.5778 31.9111 -0.0888672 31.9111C-0.0888672 21.2445 -0.0888672 10.5778 -0.0888672 -0.0888672Z"
            fill="#26B5D4" />
        <path fill-rule="evenodd" clip-rule="evenodd"
            d="M13.4223 -0.0888672C15.0816 -0.0888672 16.7409 -0.0888672 18.4001 -0.0888672C17.9395 7.14367 17.4062 14.3733 16.8001 21.6C17.5728 21.6295 18.343 21.5998 19.1112 21.5111C23.3646 20.8087 27.6312 20.1865 31.9112 19.6445C31.9112 21.3037 31.9112 22.963 31.9112 24.6222C29.2851 24.9424 26.6778 25.3869 24.089 25.9556C21.1665 26.8509 17.8481 27.5917 14.1334 28.1778C12.9393 28.0098 11.9023 27.5357 11.0223 26.7556C10.7774 25.579 10.7182 24.3938 10.8446 23.2C11.8209 15.4467 12.6802 7.68377 13.4223 -0.0888672Z"
            fill="#F8F9F9" />
        <path fill-rule="evenodd" clip-rule="evenodd"
            d="M18.4 -0.0888672C22.9037 -0.0888672 27.4075 -0.0888672 31.9112 -0.0888672C31.9112 6.48891 31.9112 13.0667 31.9112 19.6445C27.6312 20.1865 23.3645 20.8087 19.1112 21.5111C18.343 21.5998 17.5727 21.6295 16.8 21.6C17.4061 14.3733 17.9394 7.14367 18.4 -0.0888672Z"
            fill="#27B5D4" />
    </g>
    <defs>
        <clipPath id="clip0_5608_1563">
            <rect width="32" height="32" fill="white" />
        </clipPath>
    </defs>
</svg>