<svg width="32" height="32" viewBox="0 0 32 32" fill="none" xmlns="http://www.w3.org/2000/svg">
    <rect width="32" height="32" fill="#3D3D3D" />
    <path
        d="M13.9056 6.66041C14.6436 7.20562 15.3565 7.77428 16.0497 8.37517C16.2033 8.20092 16.2033 8.20092 16.36 8.02315C18.0873 6.1706 19.8583 5.27245 22.392 5.13027C25.2473 5.09415 27.4038 5.74792 29.5415 7.69928C31.6762 9.95959 31.9607 12.7052 31.9662 15.6684C31.9682 16.0459 31.9682 16.0459 31.9702 16.431C31.9723 16.96 31.9732 17.4889 31.9731 18.0179C31.9731 18.6926 31.9786 19.3672 31.9855 20.0418C31.991 20.691 31.9908 21.3401 31.9913 21.9892C31.9941 22.2298 31.997 22.4703 32 22.7182C31.9927 24.0586 31.9107 24.9146 31.0963 25.9984C30.2255 26.8231 29.4915 27.2 28.2876 27.2C28.2864 27.02 28.2853 26.8399 28.284 26.6544C28.2724 24.9543 28.2579 23.2543 28.2403 21.5543C28.2314 20.6804 28.2235 19.8065 28.2181 18.9325C28.2129 18.0884 28.2048 17.2445 28.1947 16.4004C28.1913 16.0791 28.189 15.7577 28.1878 15.4364C28.1858 14.9848 28.1802 14.5334 28.1737 14.0819C28.1715 13.8253 28.1693 13.5687 28.167 13.3043C28.0054 11.8424 27.2869 10.5637 26.2312 9.53921C24.6014 8.46691 23.0325 8.41778 21.1279 8.67557C20.8983 8.72514 20.8983 8.72514 20.664 8.7757C20.664 8.90788 20.664 9.04005 20.664 9.17623C20.4737 9.2258 20.2833 9.27536 20.0872 9.32643C19.3641 9.61517 19.3495 9.70204 19.059 10.3778C18.9562 10.5796 18.9562 10.5796 18.8514 10.7854C18.7493 10.9864 18.7493 10.9864 18.6452 11.1914C18.5424 11.3931 18.5424 11.3931 18.4376 11.599C18.0861 12.3386 18.0302 12.9205 18.0275 13.7297C18.0261 13.9657 18.0246 14.2017 18.0232 14.4448C18.0219 14.8278 18.0219 14.8278 18.0207 15.2186C18.0172 15.6197 18.0137 16.0209 18.01 16.422C18.0008 17.4114 17.9933 18.4007 17.9905 19.3901C17.9889 19.9449 17.9852 20.4997 17.9791 21.0545C17.9735 21.5767 17.9709 22.0989 17.9717 22.6211C17.9527 23.9864 17.8891 24.8962 17.0528 25.9984C16.6657 26.3473 16.6657 26.3473 16.2754 26.5742C16.0838 26.6911 16.0838 26.6911 15.8883 26.8104C15.3481 27.0426 14.8236 27.1109 14.2441 27.2C14.243 26.9313 14.243 26.9313 14.2419 26.6571C14.2343 24.9631 14.2229 23.2691 14.2072 21.575C14.1993 20.7043 14.1929 19.8335 14.1897 18.9627C14.1867 18.1212 14.1798 17.2799 14.1702 16.4384C14.1673 16.1185 14.1657 15.7986 14.1655 15.4787C14.1704 12.6825 14.1704 12.6825 12.8116 10.3098C12.6719 10.2042 12.5322 10.0986 12.3884 9.9898C12.1321 9.79232 11.8796 9.58949 11.636 9.37649C11.636 9.24432 11.636 9.11215 11.636 8.97597C11.4498 8.94705 11.2636 8.91814 11.0718 8.88835C10.4323 8.7757 10.4323 8.7757 9.83044 8.57544C8.15088 8.39681 6.79834 8.56394 5.41678 9.57676C4.09892 10.8561 3.58908 12.4407 3.53718 14.2483C3.53431 14.7297 3.5343 15.2112 3.53673 15.6926C3.53414 16.0844 3.53154 16.4762 3.52868 16.8679C3.52269 17.8259 3.52336 18.7839 3.52375 19.7419C3.52376 20.2823 3.52163 20.8225 3.51738 21.3629C3.51364 21.8695 3.51324 22.3761 3.51663 22.8828C3.50487 24.2305 3.43348 25.1111 2.60808 26.1987C2.16295 26.5546 2.16295 26.5546 1.70528 26.787C1.55425 26.8672 1.40322 26.9475 1.24761 27.0302C0.802485 27.2 0.802485 27.2 0 27.2C0 20.7895 0 14.3791 0 7.77438C0.52964 7.77438 1.05928 7.77438 1.60497 7.77438C2.19257 7.56345 2.19257 7.56345 2.70839 7.23617C2.89588 7.12697 3.08338 7.01777 3.27655 6.90527C3.85553 6.54563 4.42851 6.17874 4.98654 5.78739C7.79044 4.38028 11.4153 4.97374 13.9056 6.66041Z"
        fill="#FAFAFA" />
</svg>