<svg width="32" height="32" viewBox="0 0 32 32" fill="none" xmlns="http://www.w3.org/2000/svg">
    <path fill-rule="evenodd" clip-rule="evenodd"
        d="M11.0285 0.806388C9.3517 3.10149 8.5133 6.0169 8.81273 8.9323C8.87261 10.5451 9.17204 12.0958 9.71102 13.5845C9.83079 13.9567 9.95056 14.3289 10.0104 14.7011C10.0104 14.8251 10.0703 14.9492 10.1901 15.0112C10.3099 15.1353 10.3698 14.8251 10.3698 13.5225C10.3698 12.53 10.4895 11.5376 10.7291 10.5451C11.3878 7.87779 12.7652 5.45863 14.6815 3.5357C15.0409 3.22555 15.3403 2.9154 15.5798 2.54322C15.2804 2.23307 14.9211 1.98495 14.5618 1.79887L12.7652 0.558269C12.4658 0.310149 12.1065 0.12406 11.807 0C11.5076 0.18609 11.268 0.496239 11.0285 0.744358V0.806388Z"
        fill="#0382E5" />
    <path fill-rule="evenodd" clip-rule="evenodd"
        d="M20.1312 0.806763C19.5323 0.992853 18.9335 1.24097 18.3945 1.55112C18.1549 1.73721 17.9154 1.86127 17.6759 1.98533C17.0171 2.41954 16.4183 2.97781 15.8793 3.59811C14.1426 5.459 13.0048 7.7541 11.9268 11.5379C11.8669 11.786 11.9268 11.8481 12.0466 11.662C12.1664 11.5379 12.4658 11.1037 12.7053 10.7315C13.424 9.73906 14.2624 8.87064 15.1607 8.12628C16.0589 7.44396 17.0171 6.82366 18.0352 6.32742C18.155 6.32742 18.3346 6.20336 18.4544 6.14133C19.2928 5.76915 20.1312 5.52103 21.0295 5.27291C21.2091 5.27291 21.808 5.14885 22.347 5.08682C22.7063 5.08682 23.0057 4.96276 23.3051 4.90073C23.2452 4.40449 23.0656 3.97029 22.8859 3.59811C22.826 3.34999 22.5266 2.60563 22.2272 1.86127C21.6882 0.310524 21.808 0.372554 20.1312 0.930823V0.806763Z"
        fill="#0382E5" />
    <path fill-rule="evenodd" clip-rule="evenodd"
        d="M4.7402 5.52066H3.4826C3.4826 5.58269 3.4826 6.82329 3.4826 6.82329C3.36283 9.24245 4.02157 11.5996 5.39894 13.5845C6.35712 15.0112 7.49495 16.2518 8.81244 17.3063L9.77062 17.9887C10.3695 18.4229 10.9683 18.8571 10.9683 18.733C10.9683 18.609 10.6689 18.2368 10.2497 17.7405C9.29153 16.3759 8.5729 14.8251 8.09381 13.1503C7.73449 11.7857 7.67461 11.5996 7.67461 9.42854C7.61472 8.37403 7.67461 7.31953 7.91415 6.32705C8.03392 5.89284 8.1537 5.45863 8.1537 5.45863C7.01587 5.3966 5.93792 5.3966 4.80009 5.45863L4.7402 5.52066Z"
        fill="#0382E5" />
    <path fill-rule="evenodd" clip-rule="evenodd"
        d="M23.0059 5.89256C20.3709 6.45083 17.9156 7.6294 15.8196 9.36623C15.5201 9.61435 15.2207 9.86247 15.2207 9.86247V9.98653C15.4004 9.98653 15.6399 9.9245 15.8196 9.86247C18.6342 8.86999 21.6884 8.80796 24.5629 9.73841C25.4013 10.0486 26.1798 10.3587 26.9583 10.7929C27.7967 11.2271 28.3357 11.4752 28.3956 11.3512C28.5154 10.917 29.3538 7.56737 29.4137 7.25722C29.4736 6.94707 29.4137 6.82301 29.1142 6.69895C27.1979 5.83053 25.1019 5.58241 23.0658 5.95459L23.0059 5.89256Z"
        fill="#0382E5" />
    <path fill-rule="evenodd" clip-rule="evenodd"
        d="M19.6525 10.9166C21.9282 11.723 23.9643 13.0876 25.5812 14.8865C26.2998 15.7549 26.9586 16.6854 27.4975 17.6778C27.6173 17.926 27.7371 18.1121 27.8569 18.3602C28.0365 18.6703 28.2162 18.9805 28.2761 19.3527C28.2761 19.5387 28.4557 19.7248 28.5156 19.7248C29.1145 19.3527 29.6534 18.9184 30.1325 18.4222C30.3122 18.2361 30.7913 17.8639 31.2105 17.5538C32.0489 16.9335 32.1686 16.6854 31.8093 16.1891C31.6297 15.941 31.45 15.6929 31.3302 15.4448C30.4918 14.3903 29.5935 13.4598 28.5156 12.6534C26.0004 11.1647 24.0242 10.6685 20.6107 10.6064H18.5146L19.5926 10.9166H19.6525Z"
        fill="#0382E5" />
    <path fill-rule="evenodd" clip-rule="evenodd"
        d="M2.58423 12.9646C0.787657 14.4533 0.0690244 15.0736 0.00913854 15.2597C-0.110633 15.5698 0.967309 17.0585 2.04526 18.113C2.704 18.7954 3.48252 19.3536 4.32092 19.7878C6.65647 21.0284 8.03385 21.3386 11.2078 21.4006C13.3038 21.4006 13.4236 21.4006 12.9445 21.2766C10.8485 20.5942 8.93214 19.4777 7.31522 17.9269C6.05761 16.6243 5.03956 15.1976 4.26104 13.5849C4.08138 13.1506 3.84184 12.7164 3.60229 12.2822C3.30286 12.4683 3.00343 12.7164 2.704 12.9646H2.58423Z"
        fill="#0382E5" />
    <path fill-rule="evenodd" clip-rule="evenodd"
        d="M21.1494 13.2128C21.389 13.585 21.5686 13.8951 21.868 14.2053C23.1855 16.0662 24.0239 18.1752 24.3234 20.4082C24.5629 22.3932 24.4431 24.5022 23.964 26.4251C23.9042 26.6733 23.964 26.6733 24.503 26.6112C24.8623 26.6112 25.8804 26.4872 26.8386 26.4872C27.4374 26.4872 27.9764 26.4872 28.5753 26.3631C28.695 25.1225 28.6352 23.8819 28.5154 22.7033C27.9764 19.974 26.6589 17.741 24.2635 15.5699C23.1256 14.4534 21.1494 13.0267 21.1494 13.2128Z"
        fill="#0382E5" />
    <path fill-rule="evenodd" clip-rule="evenodd"
        d="M21.7475 18.5464C21.6277 22.2062 20.1306 25.7419 17.5555 28.2851C17.1962 28.6573 16.777 29.0915 16.4775 29.5257C16.7171 29.7118 19.891 31.8208 20.1306 31.9449C20.3701 32.0689 20.43 32.0069 20.7893 31.5107C21.0289 31.2005 21.2684 30.9524 21.2684 30.8904C21.6277 30.3321 21.987 29.7738 22.2266 29.1535C23.065 27.2926 23.4243 25.2457 23.2446 23.1987C23.1249 21.2137 22.7057 19.2908 22.0469 17.4299L21.8074 16.6855V18.4844C21.7675 18.4844 21.7475 18.4844 21.7475 18.4844V18.5464Z"
        fill="#0382E5" />
    <path fill-rule="evenodd" clip-rule="evenodd"
        d="M19.9512 20.5318C19.532 21.2141 19.0529 21.8965 18.5139 22.4547C17.3761 23.6333 16.0586 24.6878 14.6812 25.4942C13.7829 25.9284 12.8248 26.3006 11.8666 26.6107C11.148 26.8588 10.3694 26.9829 9.59093 27.107C8.81241 27.169 8.69265 27.231 8.75253 27.4171C8.81242 27.6032 8.8723 27.7893 8.93218 27.9754C8.99207 28.1615 9.17173 28.6577 9.2915 29.0299C9.41127 29.4021 9.7107 30.2084 9.89036 30.7047L10.2497 31.6972H10.7886C11.9864 31.387 13.1242 30.8908 14.1423 30.1464C16.1784 28.7818 17.436 27.169 18.6936 24.5017C19.2326 23.3231 19.6518 22.1446 19.9512 20.904C20.0111 20.5938 20.071 20.3457 20.0111 20.3457C19.9512 20.3457 19.8913 20.4698 19.8314 20.5938L19.9512 20.5318Z"
        fill="#0382E5" />
    <path fill-rule="evenodd" clip-rule="evenodd"
        d="M3.6626 21.09C3.60271 21.4001 3.30328 22.3926 3.06374 23.3231C2.8242 24.2535 2.64453 25.0599 2.64453 25.1219C2.64453 25.308 3.90214 25.8043 5.03997 26.0524C7.91449 26.7347 11.0286 26.0524 14.3822 24.0054C15.3403 23.3851 17.0172 22.0825 16.9573 22.0204C16.7177 22.0204 16.4782 22.1445 16.2386 22.2686C14.7415 22.7648 13.2443 23.0129 11.6873 23.0749C9.11221 23.0749 6.65689 22.2686 4.44111 20.9659L3.84225 20.5938L3.72248 21.152L3.6626 21.09Z"
        fill="#0382E5" />
</svg>