<svg width="32" height="32" viewBox="0 0 32 32" fill="none" xmlns="http://www.w3.org/2000/svg">
    <path fill-rule="evenodd" clip-rule="evenodd"
        d="M5.3125 5.54086C5.4788 12.3598 5.4788 19.1665 5.3125 25.9611C5.02055 25.7738 4.79138 25.5248 4.625 25.214C4.54167 18.8224 4.54167 12.4306 4.625 6.03892C4.80149 5.79587 5.03067 5.62985 5.3125 5.54086Z"
        fill="#00C0EA" />
    <path fill-rule="evenodd" clip-rule="evenodd"
        d="M25.3129 11.0194C24.9379 11.31 24.6045 11.642 24.3129 12.0156C23.9795 12.2646 23.6879 12.5551 23.4379 12.8872C23.0629 13.1776 22.7295 13.5097 22.4379 13.8833C21.7712 14.4644 21.1462 15.0869 20.5629 15.751C19.8175 16.2857 19.1509 16.9083 18.5629 17.6187C17.9379 18.1582 17.3545 18.7393 16.8129 19.3619C16.5629 19.4449 16.3129 19.5278 16.0629 19.6109C15.8095 19.6311 15.5595 19.6103 15.3129 19.5486C14.8409 19.3062 14.4241 18.9949 14.0629 18.6148C13.4795 17.9507 12.8545 17.3282 12.1879 16.7471C11.8962 16.3735 11.5629 16.0415 11.1879 15.751C10.6045 15.0869 9.97951 14.4644 9.31285 13.8833C8.8241 13.169 8.8241 12.4634 9.31285 11.7665C9.91745 11.1436 10.6258 10.9984 11.4379 11.3307C12.5842 12.369 13.7092 13.4274 14.8129 14.5058C15.1834 14.8124 15.5375 15.1445 15.8754 15.5019C17.4177 14.0201 18.9385 12.5259 20.4379 11.0194C21.7329 9.77089 23.0245 8.52575 24.3129 7.28404C24.8335 6.78638 25.3751 6.30908 25.9379 5.85213C26.3566 5.73635 26.7107 5.84012 27.0004 6.16342C27.0837 7.20102 27.0837 8.23865 27.0004 9.27626C26.4125 9.84099 25.85 10.422 25.3129 11.0194Z"
        fill="#F8F9F9" />
    <path fill-rule="evenodd" clip-rule="evenodd"
        d="M5.3125 5.54086C5.58184 5.52492 5.83184 5.58718 6.0625 5.72763C6.50778 6.19226 6.9661 6.62806 7.4375 7.03502C7.31264 13.4056 7.27098 19.7973 7.3125 26.2101C6.72769 26.2308 6.14435 26.21 5.5625 26.1479C5.44803 26.1132 5.36469 26.051 5.3125 25.9611C5.4788 19.1665 5.4788 12.3598 5.3125 5.54086Z"
        fill="#00B6E3" />
    <path fill-rule="evenodd" clip-rule="evenodd"
        d="M7.43742 7.03503C7.81242 7.32556 8.14576 7.6576 8.43742 8.03114C8.35351 14.0786 8.27018 20.1383 8.18742 26.2101C7.89576 26.2101 7.60408 26.2101 7.31242 26.2101C7.2709 19.7973 7.31256 13.4056 7.43742 7.03503Z"
        fill="#00AEE0" />
    <path fill-rule="evenodd" clip-rule="evenodd"
        d="M8.4375 8.03113C8.72916 8.23865 8.97916 8.48768 9.1875 8.77821C9.14679 9.79724 9.18845 10.7934 9.3125 11.7665C8.82375 12.4634 8.82375 13.1691 9.3125 13.8833C9.18771 17.9709 9.14605 22.0799 9.1875 26.2101C8.85416 26.2101 8.52084 26.2101 8.1875 26.2101C8.27026 20.1383 8.35359 14.0786 8.4375 8.03113Z"
        fill="#01A8DA" />
    <path fill-rule="evenodd" clip-rule="evenodd"
        d="M9.18794 8.7782C11.1841 10.559 13.1008 12.4267 14.9379 14.3813C14.8546 14.3813 14.8129 14.4228 14.8129 14.5058C13.7093 13.4274 12.5843 12.369 11.4379 11.3307C10.6259 10.9984 9.91754 11.1436 9.31294 11.7665C9.18889 10.7933 9.14723 9.79723 9.18794 8.7782Z"
        fill="#0C9CD4" />
    <path fill-rule="evenodd" clip-rule="evenodd"
        d="M24.0625 7.28406C24.1459 7.28406 24.2291 7.28406 24.3125 7.28406C23.0241 8.52577 21.7325 9.77091 20.4375 11.0195C20.3541 11.0195 20.2709 11.0195 20.1875 11.0195C21.4759 9.77775 22.7675 8.53262 24.0625 7.28406Z"
        fill="#1151A6" />
    <path fill-rule="evenodd" clip-rule="evenodd"
        d="M25.3125 26.2101C25.3125 21.1465 25.3125 16.083 25.3125 11.0194C25.8496 10.422 26.4121 9.84099 27 9.27626C27.0834 8.23865 27.0834 7.20103 27 6.16342C26.7104 5.84012 26.3562 5.73635 25.9375 5.85213C25.3748 6.30909 24.8331 6.78638 24.3125 7.28404C24.2291 7.28404 24.1459 7.28404 24.0625 7.28404C24.6631 6.70699 25.2881 6.14668 25.9375 5.60311C26.4741 5.45349 26.9116 5.59876 27.25 6.0389C27.3334 12.4306 27.3334 18.8223 27.25 25.214C26.8536 26.0236 26.2079 26.3557 25.3125 26.2101Z"
        fill="#033699" />
    <path fill-rule="evenodd" clip-rule="evenodd"
        d="M25.3125 11.0195C25.3125 16.0831 25.3125 21.1465 25.3125 26.2101C24.9791 26.2101 24.6459 26.2101 24.3125 26.2101C24.3125 21.4786 24.3125 16.7471 24.3125 12.0156C24.6041 11.642 24.9375 11.31 25.3125 11.0195Z"
        fill="#003E9D" />
    <path fill-rule="evenodd" clip-rule="evenodd"
        d="M24.3125 12.0156C24.3125 16.7471 24.3125 21.4786 24.3125 26.2101C24.0209 26.2101 23.7291 26.2101 23.4375 26.2101C23.4375 21.7691 23.4375 17.3282 23.4375 12.8872C23.6875 12.5551 23.9791 12.2646 24.3125 12.0156Z"
        fill="#0044A2" />
    <path fill-rule="evenodd" clip-rule="evenodd"
        d="M20.1875 11.0195C20.2709 11.0195 20.3541 11.0195 20.4375 11.0195C18.9381 12.526 17.4174 14.0201 15.875 15.502C15.5371 15.1445 15.183 14.8124 14.8125 14.5059C14.8125 14.4228 14.8541 14.3813 14.9375 14.3813C15.2993 14.5534 15.6118 14.8024 15.875 15.1284C17.334 13.7788 18.7715 12.4091 20.1875 11.0195Z"
        fill="#2070B8" />
    <path fill-rule="evenodd" clip-rule="evenodd"
        d="M23.4375 12.8871C23.4375 17.3282 23.4375 21.7691 23.4375 26.2101C23.0209 26.2101 22.6041 26.2101 22.1875 26.2101C22.4352 22.1289 22.5185 18.02 22.4375 13.8833C22.7291 13.5097 23.0625 13.1776 23.4375 12.8871Z"
        fill="#004BA5" />
    <path fill-rule="evenodd" clip-rule="evenodd"
        d="M9.31238 13.8833C9.97904 14.4644 10.604 15.0869 11.1874 15.751C11.0626 19.2159 11.021 22.7023 11.0624 26.2101C10.4374 26.2101 9.81238 26.2101 9.18738 26.2101C9.14593 22.0799 9.18759 17.9709 9.31238 13.8833Z"
        fill="#03A0D7" />
    <path fill-rule="evenodd" clip-rule="evenodd"
        d="M22.4375 13.8833C22.5185 18.02 22.4352 22.1289 22.1875 26.2101C21.6459 26.2101 21.1041 26.2101 20.5625 26.2101C20.5625 22.7237 20.5625 19.2374 20.5625 15.751C21.1459 15.0869 21.7709 14.4644 22.4375 13.8833Z"
        fill="#0052AA" />
    <path fill-rule="evenodd" clip-rule="evenodd"
        d="M11.1874 15.751C11.5624 16.0415 11.8957 16.3735 12.1874 16.7471C12.0626 19.88 12.021 23.0344 12.0624 26.2101C11.729 26.2101 11.3957 26.2101 11.0624 26.2101C11.0209 22.7023 11.0626 19.2159 11.1874 15.751Z"
        fill="#0196D0" />
    <path fill-rule="evenodd" clip-rule="evenodd"
        d="M20.5625 15.751C20.5625 19.2374 20.5625 22.7237 20.5625 26.2101C19.8959 26.2101 19.2291 26.2101 18.5625 26.2101C18.5625 23.3463 18.5625 20.4825 18.5625 17.6187C19.1505 16.9083 19.8171 16.2858 20.5625 15.751Z"
        fill="#0362B2" />
    <path fill-rule="evenodd" clip-rule="evenodd"
        d="M12.1873 16.7471C12.854 17.3282 13.479 17.9507 14.0623 18.6148C13.9377 21.125 13.8961 23.6567 13.9373 26.2101C13.3123 26.2101 12.6873 26.2101 12.0623 26.2101C12.021 23.0344 12.0626 19.88 12.1873 16.7471Z"
        fill="#008BCA" />
    <path fill-rule="evenodd" clip-rule="evenodd"
        d="M18.5625 17.6187C18.5625 20.4825 18.5625 23.3463 18.5625 26.2101C17.9791 26.2101 17.3959 26.2101 16.8125 26.2101C16.8125 23.9274 16.8125 21.6446 16.8125 19.3619C17.3541 18.7393 17.9375 18.1582 18.5625 17.6187Z"
        fill="#016EBA" />
    <path fill-rule="evenodd" clip-rule="evenodd"
        d="M14.0623 18.6148C14.4235 18.9949 14.8403 19.3062 15.3123 19.5486C15.5589 19.6103 15.8089 19.6311 16.0623 19.6109C15.939 21.8011 15.8974 24.0009 15.9373 26.2101C15.2706 26.2101 14.6039 26.2101 13.9373 26.2101C13.896 23.6567 13.9376 21.125 14.0623 18.6148Z"
        fill="#017FC3" />
    <path fill-rule="evenodd" clip-rule="evenodd"
        d="M16.8125 19.3619C16.8125 21.6446 16.8125 23.9274 16.8125 26.2101C16.5209 26.2101 16.2291 26.2101 15.9375 26.2101C15.8976 24.0009 15.9392 21.8011 16.0625 19.6109C16.3125 19.5279 16.5625 19.4449 16.8125 19.3619Z"
        fill="#0076BF" />
</svg>