<svg width="32" height="32" viewBox="0 0 32 32" fill="none" xmlns="http://www.w3.org/2000/svg">
    <g clip-path="url(#clip0_5719_300)">
        <path fill-rule="evenodd" clip-rule="evenodd"
            d="M23.0003 2.33323C23.0294 2.52799 22.9554 2.67615 22.778 2.77768C18.2457 2.71737 13.8013 2.71737 9.4447 2.77768C9.24788 2.59435 9.17381 2.37212 9.22248 2.11101C13.85 -0.0164632 18.4425 0.0576108 23.0003 2.33323Z"
            fill="#19181E" />
        <path fill-rule="evenodd" clip-rule="evenodd"
            d="M9.2219 2.11108C9.17323 2.3722 9.2473 2.59442 9.44412 2.77775C13.8007 2.71744 18.2452 2.71744 22.7775 2.77775C22.9548 2.67622 23.0288 2.52806 22.9997 2.33331C23.8739 2.76408 24.6888 3.28262 25.4441 3.88886C25.2588 4.16617 24.9626 4.31433 24.5552 4.33331C23.7879 4.26864 23.0101 4.19457 22.2219 4.11108C21.7775 4.25924 21.333 4.40737 20.8886 4.55553C20.5182 4.25924 20.1478 4.25924 19.7775 4.55553C19.7034 4.40737 19.6293 4.25924 19.5552 4.11108C18.6429 3.9668 17.754 4.11493 16.8886 4.55553C16.4441 4.40737 15.9997 4.25924 15.5552 4.11108C15.0645 4.32115 14.5089 4.32115 13.8886 4.11108C13.6713 4.21702 13.4861 4.36515 13.333 4.55553C13.2647 4.37595 13.1535 4.22782 12.9997 4.11108C12.794 4.36453 12.6088 4.36453 12.4441 4.11108C12.296 4.25924 12.1478 4.40737 11.9997 4.55553C11.2251 4.47471 10.4103 4.32655 9.55523 4.11108C9.03672 4.25924 8.51819 4.40737 7.99967 4.55553C7.46523 4.38344 6.90967 4.27233 6.33301 4.2222C6.45656 4.13717 6.53063 4.02606 6.55523 3.88886C7.28285 3.07877 8.17174 2.4862 9.2219 2.11108Z"
            fill="#1C1B27" />
        <path fill-rule="evenodd" clip-rule="evenodd"
            d="M6.55526 3.88892C6.53066 4.02612 6.4566 4.13723 6.33304 4.22225C6.90971 4.27238 7.46526 4.38349 7.99971 4.55558C8.51822 4.40743 9.03675 4.25929 9.55526 4.11114C10.4103 4.3266 11.2251 4.47476 11.9997 4.55558C12.1479 4.40743 12.296 4.25929 12.4442 4.11114C12.6089 4.36458 12.794 4.36458 12.9997 4.11114C13.1536 4.22787 13.2647 4.376 13.333 4.55558C13.4862 4.3652 13.6714 4.21707 13.8886 4.11114C14.509 4.3212 15.0645 4.3212 15.5553 4.11114C15.9997 4.25929 16.4442 4.40743 16.8886 4.55558C17.7541 4.11498 18.643 3.96685 19.5553 4.11114C19.6293 4.25929 19.7034 4.40743 19.7775 4.55558C20.1479 4.25929 20.5182 4.25929 20.8886 4.55558C21.333 4.40743 21.7775 4.25929 22.2219 4.11114C23.0102 4.19463 23.7879 4.26869 24.5553 4.33336C24.9626 4.31438 25.2588 4.16623 25.4442 3.88892C26.1848 4.48152 26.8515 5.14818 27.4442 5.88892C27.2948 6.05945 27.1097 6.2076 26.8886 6.33336C26.8102 5.9836 26.6619 5.61323 26.4442 5.22225C26.3702 5.3704 26.2959 5.51854 26.2219 5.66669C25.1448 5.01592 24.3299 5.23814 23.7775 6.33336C23.5404 6.17992 23.281 6.0688 22.9997 6.00003C23.5268 5.67325 23.5268 5.41398 22.9997 5.22225C17.2515 5.489 11.5107 5.489 5.77749 5.22225C5.4502 5.31183 5.15391 5.45996 4.8886 5.66669C4.79998 5.61594 4.76295 5.54185 4.77749 5.44447C5.23729 4.76169 5.82989 4.24316 6.55526 3.88892Z"
            fill="#1F1F32" />
        <path fill-rule="evenodd" clip-rule="evenodd"
            d="M27.4448 5.88883C27.7723 6.0969 27.9945 6.39321 28.1114 6.77772C19.9044 6.80819 11.7563 6.80819 3.66699 6.77772C3.88855 6.18772 4.25893 5.74328 4.7781 5.44439C4.76357 5.54177 4.80059 5.61586 4.88921 5.66661C5.15453 5.45988 5.45081 5.31175 5.7781 5.22217C11.5113 5.48892 17.2521 5.48892 23.0003 5.22217C23.5274 5.4139 23.5274 5.67317 23.0003 5.99995C23.2817 6.06872 23.541 6.17983 23.7781 6.33328C24.3305 5.23806 25.1454 5.01583 26.2225 5.66661C26.2965 5.51846 26.3708 5.37032 26.4448 5.22217C26.6625 5.61315 26.8108 5.98352 26.8892 6.33328C27.1103 6.20752 27.2954 6.05937 27.4448 5.88883Z"
            fill="#20233B" />
        <path fill-rule="evenodd" clip-rule="evenodd"
            d="M3.66667 6.77783C11.756 6.8083 19.9041 6.8083 28.1111 6.77783C28.4387 6.9859 28.6609 7.28221 28.7778 7.66672C28.6284 7.83725 28.4433 7.98541 28.2222 8.11117C27.6918 8.10437 27.1362 7.95621 26.5556 7.66672C26.3296 8.2285 26.0702 8.2285 25.7778 7.66672C25.6247 7.8571 25.4396 8.00523 25.2222 8.11117C24.4064 7.69668 23.6287 7.69668 22.8889 8.11117C22.4036 8.2463 21.9591 8.09814 21.5556 7.66672C20.858 7.69948 20.0432 7.84761 19.1111 8.11117C18.8308 8.05359 18.6086 7.90543 18.4444 7.66672C17.7155 7.83252 16.9747 7.98065 16.2222 8.11117C15.9977 8.02408 15.8866 7.87594 15.8889 7.66672C15.6832 7.92017 15.498 7.92017 15.3333 7.66672C15.2593 7.81488 15.1852 7.96301 15.1111 8.11117C14.5185 7.81488 13.9259 7.81488 13.3333 8.11117C13.265 7.93159 13.1539 7.78345 13 7.66672C12.4264 7.58243 11.8709 7.73059 11.3333 8.11117C11.2593 7.96301 11.1852 7.81488 11.1111 7.66672C10.87 7.84297 10.6107 7.99112 10.3333 8.11117C8.9662 7.8417 7.59584 7.8417 6.22222 8.11117C5.12587 7.96812 4.05178 7.81999 3 7.66672C3.1168 7.28221 3.33902 6.9859 3.66667 6.77783Z"
            fill="#242544" />
        <path fill-rule="evenodd" clip-rule="evenodd"
            d="M3.00011 7.66672C4.05189 7.81999 5.12598 7.96812 6.22233 8.11117C7.59595 7.8417 8.96631 7.8417 10.3334 8.11117C10.6108 7.99112 10.8701 7.84297 11.1112 7.66672C11.1853 7.81488 11.2594 7.96301 11.3334 8.11117C11.871 7.73059 12.4266 7.58243 13.0001 7.66672C13.154 7.78346 13.2651 7.93159 13.3334 8.11117C13.926 7.81488 14.5186 7.81488 15.1112 8.11117C15.1853 7.96301 15.2594 7.81488 15.3334 7.66672C15.4982 7.92017 15.6833 7.92017 15.889 7.66672C15.8867 7.87594 15.9978 8.02408 16.2223 8.11117C16.9748 7.98066 17.7156 7.83252 18.4446 7.66672C18.6087 7.90543 18.8309 8.05359 19.1112 8.11117C20.0433 7.84761 20.8581 7.69948 21.5557 7.66672C21.9592 8.09814 22.4037 8.2463 22.889 8.11117C23.6288 7.69668 24.4066 7.69668 25.2223 8.11117C25.4397 8.00523 25.6248 7.8571 25.7779 7.66672C26.0703 8.2285 26.3297 8.2285 26.5557 7.66672C27.1363 7.95621 27.6919 8.10437 28.2223 8.11117C28.4434 7.98541 28.6286 7.83726 28.7779 7.66672C29.0388 7.89199 29.1868 8.18828 29.2223 8.55561C28.2134 8.68112 27.2134 8.75519 26.2223 8.77783C25.6701 8.27657 25.1517 8.27657 24.6668 8.77783C24.2383 8.80021 23.7939 8.72612 23.3334 8.55561C23.0388 8.61226 22.8166 8.76041 22.6668 9.00006C22.5928 8.8519 22.5186 8.70377 22.4446 8.55561C19.6968 8.7687 16.9561 8.84279 14.2223 8.77783C14.0278 8.33057 13.7315 8.33057 13.3334 8.77783C11.744 8.59594 10.2625 8.59594 8.889 8.77783C8.48142 8.27646 8.11104 8.27646 7.77789 8.77783C7.21269 8.74786 6.62009 8.59972 6.00011 8.33339C5.85195 8.48154 5.70382 8.62968 5.55566 8.77783C4.61791 8.65317 3.61791 8.5791 2.55566 8.55561C2.59113 8.18828 2.73929 7.89199 3.00011 7.66672Z"
            fill="#252A4B" />
        <path fill-rule="evenodd" clip-rule="evenodd"
            d="M29.2222 8.55547C29.8349 9.42579 30.2793 10.3887 30.5556 11.4444C30.2842 11.327 30.0251 11.1788 29.7778 10.9999C27.7431 11.0072 25.706 11.0813 23.6667 11.2221C23.7378 10.4669 23.6638 9.72621 23.4444 8.99992C22.2453 9.6727 21.0602 10.3394 19.8889 10.9999C19.5926 11.1481 19.2963 11.2962 19 11.4444C19.0291 11.2802 18.9921 11.132 18.8889 10.9999C18.2476 11.1036 17.5439 11.2517 16.7778 11.4444C16.6239 11.3276 16.5128 11.1795 16.4444 10.9999C15.9067 11.2195 15.3882 11.1454 14.8889 10.7777C14.7407 10.9259 14.5926 11.074 14.4444 11.2221C14.0832 11.1435 13.6758 11.1435 13.2222 11.2221C12.7218 10.4594 12.1662 9.71863 11.5556 8.99992C10.3388 9.58836 9.19067 10.255 8.11111 10.9999C6.886 11.1081 5.66378 11.1081 4.44444 10.9999C4.29629 11.1481 4.14816 11.2962 4 11.4444C3.28053 11.558 2.57682 11.4099 1.88889 10.9999C1.66272 11.1538 1.4405 11.302 1.22222 11.4444C1.12484 11.4589 1.05077 11.4219 1 11.3333C1.49921 10.3855 2.01773 9.45952 2.55556 8.55547C3.6178 8.57896 4.6178 8.65303 5.55556 8.7777C5.70371 8.62954 5.85184 8.48141 6 8.33325C6.61998 8.59959 7.21258 8.74772 7.77778 8.7777C8.11093 8.27632 8.48131 8.27632 8.88889 8.7777C10.2624 8.59581 11.7439 8.59581 13.3333 8.7777C13.7314 8.33043 14.0277 8.33043 14.2222 8.7777C16.956 8.84265 19.6967 8.76856 22.4444 8.55547C22.5184 8.70363 22.5927 8.85176 22.6667 8.99992C22.8164 8.76027 23.0387 8.61212 23.3333 8.55547C23.7938 8.72599 24.2382 8.80007 24.6667 8.7777C25.1516 8.27643 25.67 8.27643 26.2222 8.7777C27.2133 8.75505 28.2133 8.68099 29.2222 8.55547Z"
            fill="#272D56" />
        <path fill-rule="evenodd" clip-rule="evenodd"
            d="M13.2218 11.2222C13.4506 11.6704 13.6728 12.1148 13.8885 12.5556C13.5486 12.4296 13.2153 12.2815 12.8885 12.1111C12.8144 12.2593 12.7403 12.4074 12.6663 12.5556C11.9697 12.2668 11.266 12.2668 10.5551 12.5556C10.1231 12.1713 9.67864 12.0972 9.22182 12.3333C8.93213 12.0029 8.67288 11.6325 8.44404 11.2222C8.33295 13.7396 8.29593 16.2582 8.33293 18.7778C8.12526 18.5405 8.05119 18.2442 8.1107 17.8889C8.1107 17.3704 8.1107 16.8518 8.1107 16.3333C8.1107 15.4444 8.1107 14.5556 8.1107 13.6667C8.1107 12.7778 8.1107 11.8889 8.1107 11C9.19026 10.2551 10.3384 9.58844 11.5551 9C12.1658 9.71871 12.7214 10.4595 13.2218 11.2222Z"
            fill="#9298B0" />
        <path fill-rule="evenodd" clip-rule="evenodd"
            d="M23.6664 11.2222C23.6664 11.3704 23.6664 11.5185 23.6664 11.6667C23.4529 12.0588 23.3787 12.5032 23.4442 13C23.0789 13.0474 22.7456 12.9734 22.4442 12.7778C22.3702 12.9259 22.296 13.0741 22.222 13.2222C21.7035 12.9259 21.185 12.9259 20.6664 13.2222C20.4248 12.6819 20.3137 12.7559 20.3331 13.4444C21.2634 13.5092 22.2264 13.5463 23.222 13.5556C23.4611 13.9391 23.4982 14.3465 23.3331 14.7778C22.3798 14.6263 21.4539 14.6263 20.5553 14.7778C20.4052 14.533 20.257 14.3108 20.1109 14.1111C20.1819 13.0304 20.1078 11.9933 19.8887 11C21.06 10.3394 22.2451 9.67278 23.4442 9C23.6636 9.72629 23.7376 10.467 23.6664 11.2222Z"
            fill="#5C648A" />
        <path fill-rule="evenodd" clip-rule="evenodd"
            d="M19.8893 11C20.1085 11.9933 20.1825 13.0304 20.1115 14.1111C20.1115 14.7037 20.1115 15.2963 20.1115 15.8889C20.1115 17.5185 20.1115 19.1482 20.1115 20.7778C19.9634 20.7037 19.8153 20.6296 19.6671 20.5556C18.7272 19.4937 17.8383 18.3826 17.0004 17.2222C16.4078 16.1852 15.8153 15.1482 15.2227 14.1111C16.4819 13.2222 17.7412 12.3333 19.0004 11.4444C19.2967 11.2963 19.593 11.1482 19.8893 11Z"
            fill="#F7F7F8" />
        <path fill-rule="evenodd" clip-rule="evenodd"
            d="M9.22209 12.3333C10.2262 14.0482 11.3373 15.6778 12.5554 17.2222C13.6665 18.9999 14.7777 20.7777 15.8888 22.5555C15.5925 22.4815 15.2962 22.4073 14.9999 22.3333C14.0335 21.7019 12.9964 21.1834 11.8888 20.7777C10.7036 20.1111 9.51838 19.4444 8.33321 18.7777C8.29621 16.2581 8.33323 13.7396 8.44432 11.2222C8.67316 11.6325 8.93241 12.0029 9.22209 12.3333Z"
            fill="#F7F7F8" />
        <path fill-rule="evenodd" clip-rule="evenodd"
            d="M19.0004 11.4445C17.7412 12.3334 16.4819 13.2223 15.2227 14.1112C14.7256 13.634 14.2811 13.1155 13.8893 12.5556C13.6736 12.1149 13.4514 11.6705 13.2227 11.2223C13.6763 11.1436 14.0837 11.1436 14.4449 11.2223C14.593 11.0741 14.7412 10.926 14.8893 10.7778C15.3886 11.1456 15.9071 11.2196 16.4449 11.0001C16.5132 11.1796 16.6243 11.3278 16.7782 11.4445C17.5443 11.2519 18.248 11.1037 18.8893 11.0001C18.9925 11.1321 19.0295 11.2803 19.0004 11.4445Z"
            fill="#2F366B" />
        <path fill-rule="evenodd" clip-rule="evenodd"
            d="M13.8893 12.5555C14.2811 13.1154 14.7256 13.634 15.2227 14.1111C15.8153 15.1481 16.4078 16.1852 17.0004 17.2222C15.3662 17.3792 13.8847 17.3792 12.556 17.2222C11.3379 15.6779 10.2267 14.0482 9.22266 12.3333C9.67948 12.0972 10.1239 12.1713 10.556 12.5555C11.2668 12.2668 11.9705 12.2668 12.6671 12.5555C12.7412 12.4074 12.8153 12.2592 12.8893 12.1111C13.2161 12.2814 13.5494 12.4296 13.8893 12.5555Z"
            fill="#9699BA" />
        <path fill-rule="evenodd" clip-rule="evenodd"
            d="M8.11134 11C8.11134 11.8889 8.11134 12.7778 8.11134 13.6667C7.40223 13.929 6.77261 13.929 6.22245 13.6667C5.67361 14.1624 5.15509 14.1624 4.66689 13.6667C3.43949 13.7122 2.14319 13.7863 0.778005 13.8889C0.758892 13.0403 0.907041 12.2255 1.22245 11.4444C1.44073 11.302 1.66295 11.1539 1.88912 11C2.57705 11.4099 3.28076 11.5581 4.00023 11.4444C4.14838 11.2963 4.29652 11.1482 4.44467 11C5.66401 11.1082 6.88623 11.1082 8.11134 11Z"
            fill="#2E356D" />
        <path fill-rule="evenodd" clip-rule="evenodd"
            d="M30.5559 11.4444C30.8097 12.238 30.9579 13.0529 31.0003 13.8889C28.5948 14.03 26.1503 14.03 23.667 13.8889C23.667 13.1482 23.667 12.4074 23.667 11.6667C23.667 11.5185 23.667 11.3704 23.667 11.2222C25.7063 11.0814 27.7434 11.0073 29.7781 11C30.0254 11.1789 30.2845 11.327 30.5559 11.4444Z"
            fill="#2E356D" />
        <path fill-rule="evenodd" clip-rule="evenodd"
            d="M31.0003 13.8889C31.1783 14.2315 31.2523 14.6019 31.2225 15C31.0043 15.1424 30.7821 15.2906 30.5559 15.4445C30.207 15.4014 29.8737 15.4014 29.5559 15.4445C29.1579 14.9972 28.8614 14.9972 28.667 15.4445C27.0274 15.3243 25.3608 15.3243 23.667 15.4445C23.667 14.926 23.667 14.4074 23.667 13.8889C26.1503 14.0301 28.5948 14.0301 31.0003 13.8889Z"
            fill="#313B7A" />
        <path fill-rule="evenodd" clip-rule="evenodd"
            d="M8.11079 13.6667C8.11079 14.5556 8.11079 15.4445 8.11079 16.3334C6.36832 16.3179 4.51645 16.3179 2.55523 16.3334C2.40707 16.6297 2.25894 16.926 2.11079 17.2223C1.51819 17.0001 1.51819 16.7779 2.11079 16.5556C1.99967 16.4816 1.88856 16.4075 1.77745 16.3334C1.37505 16.3796 0.967639 16.4537 0.55523 16.5556C0.416703 16 0.34263 15.4445 0.333008 14.889C0.503354 14.5622 0.651503 14.2289 0.777452 13.889C2.14264 13.7863 3.43894 13.7123 4.66634 13.6667C5.15454 14.1625 5.67305 14.1625 6.2219 13.6667C6.77205 13.9291 7.40167 13.9291 8.11079 13.6667Z"
            fill="#323D80" />
        <path fill-rule="evenodd" clip-rule="evenodd"
            d="M23.6669 11.6667C23.6669 12.4075 23.6669 13.1482 23.6669 13.889C23.6669 14.4075 23.6669 14.926 23.6669 15.4445C23.6669 15.8149 23.6669 16.1853 23.6669 16.5556C23.3771 17.04 23.0438 17.3363 22.6669 17.4445C22.3707 17.1482 22.0743 17.1482 21.778 17.4445C21.6298 17.2964 21.4817 17.1482 21.3336 17.0001C21.0854 17.0368 20.8261 17.1108 20.5558 17.2223C20.4072 16.7488 20.259 16.3043 20.1113 15.889C20.1113 15.2964 20.1113 14.7038 20.1113 14.1112C20.2575 14.3108 20.4056 14.5331 20.5558 14.7779C21.4543 14.6264 22.3802 14.6264 23.3336 14.7779C23.4987 14.3466 23.4616 13.9392 23.2224 13.5556C22.2269 13.5464 21.2638 13.5093 20.3336 13.4445C20.3141 12.756 20.4252 12.6819 20.6669 13.2223C21.1854 12.926 21.7039 12.926 22.2224 13.2223C22.2964 13.0741 22.3707 12.926 22.4447 12.7779C22.746 12.9735 23.0793 13.0475 23.4447 13.0001C23.3791 12.5033 23.4533 12.0589 23.6669 11.6667Z"
            fill="#62699F" />
        <path fill-rule="evenodd" clip-rule="evenodd"
            d="M20.1113 15.8889C20.259 16.3043 20.4072 16.7487 20.5558 17.2222C20.8261 17.1108 21.0854 17.0367 21.3336 17C21.4817 17.1482 21.6298 17.2963 21.778 17.4445C22.0743 17.1482 22.3707 17.1482 22.6669 17.4445C23.0438 17.3362 23.3771 17.0399 23.6669 16.5556C23.6669 17.0741 23.6669 17.5926 23.6669 18.1111C23.7144 18.4764 23.6402 18.8098 23.4447 19.1111C22.624 19.5215 21.8091 19.9289 21.0002 20.3334C20.7039 20.4815 20.4076 20.6296 20.1113 20.7778C20.1113 19.1482 20.1113 17.5185 20.1113 15.8889Z"
            fill="#6470B0" />
        <path fill-rule="evenodd" clip-rule="evenodd"
            d="M31.2225 15C31.2823 15.9848 31.2083 16.9477 31.0003 17.8889C30.461 18.0136 29.9054 17.9395 29.3337 17.6667C29.0221 18.2163 28.6888 18.2163 28.3337 17.6667C28.045 17.7978 27.8599 18.02 27.7781 18.3333C27.4357 17.6392 27.0281 17.5651 26.5559 18.1111C26.0374 18.1111 25.5188 18.1111 25.0003 18.1111C24.8521 17.963 24.7041 17.8148 24.5559 17.6667C24.3065 17.9178 24.0101 18.066 23.667 18.1111C23.667 17.5926 23.667 17.0741 23.667 16.5556C23.667 16.1852 23.667 15.8148 23.667 15.4444C25.3608 15.3243 27.0274 15.3243 28.667 15.4444C28.8614 14.9972 29.1579 14.9972 29.5559 15.4444C29.8737 15.4014 30.207 15.4014 30.5559 15.4444C30.7821 15.2906 31.0043 15.1424 31.2225 15Z"
            fill="#323F88" />
        <path fill-rule="evenodd" clip-rule="evenodd"
            d="M8.11147 16.3334C8.11147 16.8519 8.11147 17.3705 8.11147 17.889C5.64009 17.8351 3.19565 17.8351 0.778137 17.889C0.591157 17.4714 0.517084 17.0269 0.555915 16.5556C0.968324 16.4537 1.37573 16.3796 1.77814 16.3334C1.88925 16.4075 2.00036 16.4816 2.11147 16.5556C1.51888 16.7779 1.51888 17.0001 2.11147 17.2223C2.25963 16.926 2.40776 16.6297 2.55591 16.3334C4.51714 16.3179 6.369 16.3179 8.11147 16.3334Z"
            fill="#33428C" />
        <path fill-rule="evenodd" clip-rule="evenodd"
            d="M17.0001 17.2222C17.838 18.3826 18.7269 19.4937 19.6668 20.5555C19.4749 20.8196 19.2526 21.0788 19.0001 21.3333C18.2099 21.6905 17.4691 22.0979 16.7779 22.5555C16.4368 22.7453 16.1405 22.7453 15.889 22.5555C14.7779 20.7777 13.6668 18.9999 12.5557 17.2222C13.8844 17.3791 15.3658 17.3791 17.0001 17.2222Z"
            fill="#98A1CB" />
        <path fill-rule="evenodd" clip-rule="evenodd"
            d="M8.11068 17.8888C8.05117 18.2441 8.12523 18.5404 8.3329 18.7777C9.51808 19.4443 10.7033 20.111 11.8885 20.7777C8.39145 20.7466 4.90997 20.7466 1.44401 20.7777C1.27323 20.296 1.05101 19.8145 0.777344 19.3332C0.840564 18.8985 0.840564 18.417 0.777344 17.8888C3.19485 17.8349 5.6393 17.8349 8.11068 17.8888Z"
            fill="#38499E" />
        <path fill-rule="evenodd" clip-rule="evenodd"
            d="M31 17.889C30.9467 18.9157 30.7244 19.8786 30.3333 20.7779C30.112 20.7588 29.9269 20.8329 29.7778 21.0001C29.6242 20.4687 29.402 20.4687 29.1111 21.0001C28.5184 20.4075 27.926 20.4075 27.3333 21.0001C26.7104 20.8097 26.0438 20.8097 25.3333 21.0001C25.1942 20.4465 25.0091 20.4465 24.7778 21.0001C23.7264 20.7851 22.6524 20.7851 21.5556 21.0001C21.3233 20.806 21.1382 20.5838 21 20.3334C21.8089 19.9289 22.6238 19.5215 23.4444 19.1112C23.64 18.8098 23.7142 18.4765 23.6667 18.1112C24.0098 18.0661 24.3062 17.9179 24.5556 17.6667C24.7038 17.8149 24.8518 17.963 25 18.1112C25.5184 18.1112 26.0371 18.1112 26.5556 18.1112C27.0278 17.5652 27.4353 17.6392 27.7778 18.3334C27.8596 18.0201 28.0447 17.7979 28.3333 17.6667C28.6884 18.2164 29.0218 18.2164 29.3333 17.6667C29.9051 17.9395 30.4607 18.0136 31 17.889Z"
            fill="#38489D" />
        <path fill-rule="evenodd" clip-rule="evenodd"
            d="M20.9996 20.3333C21.1377 20.5836 21.3229 20.8058 21.5551 20.9999C22.652 20.7849 23.726 20.7849 24.7773 20.9999C25.0087 20.4463 25.1938 20.4463 25.3329 20.9999C26.0433 20.8095 26.71 20.8095 27.3329 20.9999C27.9256 20.4073 28.518 20.4073 29.1107 20.9999C29.4016 20.4685 29.6238 20.4685 29.7773 20.9999C29.9265 20.8327 30.1116 20.7586 30.3329 20.7777C30.2589 21.074 30.1847 21.3703 30.1107 21.6666C28.0447 21.5925 26.1187 21.5184 24.3329 21.4444C24.0367 21.5925 24.0367 21.7407 24.3329 21.8888C24.7447 22.0669 25.1149 22.141 25.444 22.111C25.1471 22.7715 24.8138 22.8455 24.444 22.3333C24.008 22.229 23.6007 22.377 23.2218 22.7777C22.8587 22.6737 22.5996 22.4515 22.444 22.111C22.2322 22.5759 21.936 22.6499 21.5551 22.3333C21.0366 22.9259 20.5181 22.9259 19.9996 22.3333C19.8514 22.4815 19.7033 22.6295 19.5551 22.7777C19.1987 22.5224 18.8284 22.5224 18.444 22.7777C18.1167 22.6881 17.8204 22.5399 17.5551 22.3333C17.3304 22.5193 17.0711 22.5933 16.7773 22.5555C17.4686 22.0979 18.2093 21.6905 18.9996 21.3333C19.2521 21.0788 19.4743 20.8195 19.6662 20.5555C19.8144 20.6295 19.9625 20.7036 20.1107 20.7777C20.407 20.6295 20.7033 20.4814 20.9996 20.3333Z"
            fill="#3E4DAB" />
        <path fill-rule="evenodd" clip-rule="evenodd"
            d="M11.8888 20.7777C12.9964 21.1833 14.0335 21.7019 14.9999 22.3332C14.937 22.5086 14.8259 22.6568 14.6666 22.7777C14.4443 22.4815 14.2221 22.4815 13.9999 22.7777C13.6157 22.3479 13.1713 22.3479 12.6666 22.7777C12.148 22.6295 11.6295 22.4815 11.111 22.3332C10.6914 22.8715 10.247 22.8715 9.77767 22.3332C9.48138 22.9259 9.18507 22.9259 8.88878 22.3332C8.17302 22.3577 7.43229 22.5059 6.66656 22.7777C6.29774 22.8168 5.92736 22.6686 5.55545 22.3332C4.84227 22.7359 4.1756 22.7359 3.55545 22.3332C3.15369 22.7906 2.6722 22.8648 2.111 22.5555C1.97978 22.2005 1.75756 21.9042 1.44434 21.6666C1.63609 21.394 1.63609 21.0977 1.44434 20.7777C4.91029 20.7466 8.39178 20.7466 11.8888 20.7777Z"
            fill="#3E4CAB" />
        <path fill-rule="evenodd" clip-rule="evenodd"
            d="M30.1113 21.6666C29.8891 22.111 29.6669 22.5554 29.4447 22.9999C29.0838 22.9688 28.8247 23.117 28.6669 23.4443C28.2964 23.3703 27.9262 23.2961 27.5558 23.2221C27.4076 23.8148 27.2596 23.8148 27.1113 23.2221C26.5736 23.4417 26.0551 23.3677 25.5558 22.9999C25.406 23.2394 25.1838 23.3877 24.8891 23.4443C24.1876 23.4381 23.558 23.3639 23.0002 23.2221C22.7742 23.7839 22.5149 23.7839 22.2224 23.2221C22.1484 23.3703 22.0743 23.5183 22.0002 23.6666C21.5807 23.1283 21.1362 23.1283 20.6669 23.6666C20.0872 23.527 19.4946 23.3048 18.8891 22.9999C18.815 23.1481 18.741 23.2961 18.6669 23.4443C15.7226 23.3666 12.8337 23.3666 10.0002 23.4443C9.77799 23.2961 9.55577 23.1481 9.33355 22.9999C9.16939 23.2386 8.94717 23.3868 8.66688 23.4443C6.61491 23.2443 4.57788 23.2443 2.55577 23.4443C2.29495 23.219 2.14679 22.9228 2.11133 22.5554C2.67253 22.8648 3.15402 22.7906 3.55577 22.3332C4.17593 22.7359 4.84259 22.7359 5.55577 22.3332C5.92768 22.6686 6.29806 22.8168 6.66688 22.7777C7.43262 22.5059 8.17335 22.3577 8.88911 22.3332C9.18539 22.9259 9.48171 22.9259 9.77799 22.3332C10.2473 22.8714 10.6918 22.8714 11.1113 22.3332C11.6298 22.4814 12.1484 22.6294 12.6669 22.7777C13.1716 22.3479 13.6161 22.3479 14.0002 22.7777C14.2224 22.4814 14.4447 22.4814 14.6669 22.7777C14.8263 22.6568 14.9374 22.5086 15.0002 22.3332C15.2965 22.4072 15.5928 22.4814 15.8891 22.5554C16.1406 22.7452 16.4369 22.7452 16.778 22.5554C17.0718 22.5932 17.331 22.5192 17.5558 22.3332C17.8211 22.5399 18.1174 22.6881 18.4447 22.7777C18.829 22.5223 19.1994 22.5223 19.5558 22.7777C19.7039 22.6294 19.8521 22.4814 20.0002 22.3332C20.5187 22.9259 21.0373 22.9259 21.5558 22.3332C21.9367 22.6499 22.2329 22.5759 22.4447 22.111C22.6002 22.4514 22.8593 22.6737 23.2224 22.7777C23.6013 22.377 24.0087 22.229 24.4447 22.3332C24.8144 22.8454 25.1478 22.7714 25.4447 22.111C25.1156 22.1409 24.7453 22.0669 24.3336 21.8888C24.0373 21.7406 24.0373 21.5925 24.3336 21.4443C26.1193 21.5184 28.0453 21.5924 30.1113 21.6666Z"
            fill="#3E50B4" />
        <path fill-rule="evenodd" clip-rule="evenodd"
            d="M29.4446 22.9999C29.0917 23.8688 28.5732 24.6095 27.889 25.2221C27.8914 24.885 28.0394 24.6257 28.3334 24.4443C27.9926 24.2392 27.6221 24.1281 27.2223 24.111C25.5841 24.1808 23.9543 24.1808 22.3334 24.111C21.9936 24.1175 21.7343 24.2657 21.5557 24.5555C21.3334 24.2592 21.1112 24.2592 20.889 24.5555C20.7408 24.4072 20.5927 24.2592 20.4446 24.111C20.168 24.1023 19.8716 24.1766 19.5557 24.3332C19.3445 24.2172 19.1593 24.069 19.0001 23.8888C18.4412 24.1281 17.8857 24.3503 17.3334 24.5555C17.1112 24.4072 16.889 24.2592 16.6668 24.111C15.6555 24.3075 14.6555 24.3075 13.6668 24.111C13.1635 24.2088 12.682 24.3568 12.2223 24.5555C12.0742 24.4072 11.926 24.2592 11.7779 24.111C11.2594 24.4072 10.7408 24.4072 10.2223 24.111C10.1483 24.2592 10.0742 24.4072 10.0001 24.5555C9.77789 24.3332 9.55566 24.111 9.33344 23.8888C9.25938 24.037 9.18529 24.185 9.11122 24.3332C7.16038 24.2835 5.19742 24.2835 3.22233 24.3332C2.89469 24.1252 2.67246 23.8288 2.55566 23.4443C4.57778 23.2443 6.6148 23.2443 8.66678 23.4443C8.94706 23.3868 9.16929 23.2386 9.33344 22.9999C9.55566 23.1481 9.77789 23.2961 10.0001 23.4443C12.8336 23.3666 15.7225 23.3666 18.6668 23.4443C18.7408 23.2961 18.8149 23.1481 18.889 22.9999C19.4945 23.3048 20.087 23.527 20.6668 23.6666C21.1361 23.1283 21.5806 23.1283 22.0001 23.6666C22.0742 23.5183 22.1483 23.3703 22.2223 23.2221C22.5148 23.7839 22.7741 23.7839 23.0001 23.2221C23.5579 23.3639 24.1874 23.4381 24.889 23.4443C25.1837 23.3877 25.4059 23.2395 25.5557 22.9999C26.055 23.3677 26.5734 23.4417 27.1112 23.2221C27.2594 23.8148 27.4074 23.8148 27.5557 23.2221C27.9261 23.2961 28.2963 23.3703 28.6668 23.4443C28.8246 23.117 29.0837 22.9688 29.4446 22.9999Z"
            fill="#3E51BB" />
        <path fill-rule="evenodd" clip-rule="evenodd"
            d="M27.8893 25.2222C27.9275 25.4427 27.8533 25.5907 27.6671 25.6667C26.4818 25.4002 25.2595 25.4002 24.0004 25.6667C23.8522 25.074 23.7042 25.074 23.556 25.6667C23.4029 25.4762 23.2178 25.3282 23.0004 25.2222C22.5609 25.3625 22.0794 25.3625 21.556 25.2222C21.4819 25.3705 21.4078 25.5185 21.3338 25.6667C21.0098 25.3896 20.6765 25.3896 20.3338 25.6667C20.0564 25.5467 19.7971 25.3985 19.556 25.2222C19.4078 25.8149 19.2597 25.8149 19.1115 25.2222C18.4742 25.65 17.8816 25.65 17.3338 25.2222C16.9634 25.5185 16.593 25.5185 16.2227 25.2222C16.0745 25.3705 15.9264 25.5185 15.7782 25.6667C15.2548 25.5265 14.7733 25.5265 14.3338 25.6667C14.1115 25.5185 13.8893 25.3705 13.6671 25.2222C11.2758 25.2431 8.9795 25.2431 6.77821 25.2222C6.55599 25.3705 6.33377 25.5185 6.11155 25.6667C5.43803 25.3722 4.77137 25.3722 4.11155 25.6667C3.69408 25.6905 3.62001 25.5794 3.88932 25.3334C3.4725 25.1294 3.25028 24.796 3.22266 24.3334C5.19775 24.2836 7.1607 24.2836 9.11155 24.3334C9.18561 24.1851 9.2597 24.0371 9.33377 23.8889C9.55599 24.1111 9.77821 24.3334 10.0004 24.5556C10.0745 24.4074 10.1486 24.2594 10.2227 24.1111C10.7412 24.4074 11.2597 24.4074 11.7782 24.1111C11.9264 24.2594 12.0745 24.4074 12.2227 24.5556C12.6823 24.3569 13.1638 24.2089 13.6671 24.1111C14.6558 24.3076 15.6558 24.3076 16.6671 24.1111C16.8893 24.2594 17.1115 24.4074 17.3338 24.5556C17.886 24.3505 18.4415 24.1282 19.0004 23.8889C19.1596 24.0691 19.3448 24.2174 19.556 24.3334C19.872 24.1767 20.1683 24.1025 20.4449 24.1111C20.593 24.2594 20.7412 24.4074 20.8893 24.5556C21.1115 24.2594 21.3338 24.2594 21.556 24.5556C21.7347 24.2658 21.9939 24.1176 22.3338 24.1111C23.9547 24.1809 25.5844 24.1809 27.2227 24.1111C27.6224 24.1282 27.9929 24.2394 28.3338 24.4445C28.0398 24.6258 27.8918 24.8851 27.8893 25.2222Z"
            fill="#4156C0" />
        <path fill-rule="evenodd" clip-rule="evenodd"
            d="M27.6669 25.6667C26.9862 26.5702 26.1716 27.3109 25.2224 27.8889C24.8216 27.8533 24.4142 27.6311 24.0002 27.2222C23.852 27.3704 23.704 27.5184 23.5558 27.6667C23.2451 27.5442 22.9487 27.4702 22.6669 27.4444C22.5187 28.0371 22.3707 28.0371 22.2224 27.4444C20.76 27.4118 19.3526 27.486 18.0002 27.6667C17.7199 27.6091 17.4977 27.4609 17.3336 27.2222C16.7266 27.5596 16.0599 27.7818 15.3336 27.8889C15.014 27.6182 14.6436 27.47 14.2224 27.4444C13.3853 27.5707 12.6446 27.6447 12.0002 27.6667C11.8521 27.074 11.7039 27.074 11.5558 27.6667C11.4817 27.5184 11.4076 27.3704 11.3336 27.2222C10.9173 27.0913 10.5469 27.2396 10.2224 27.6667C9.66513 27.5962 9.03551 27.5962 8.33355 27.6667C8.17968 27.55 8.06857 27.4018 8.00022 27.2222C7.70393 27.5184 7.40762 27.5184 7.11133 27.2222C6.89244 27.5142 6.63319 27.7364 6.33355 27.8889C5.51873 27.2222 4.77799 26.4816 4.11133 25.6667C4.77115 25.3722 5.43782 25.3722 6.11133 25.6667C6.33355 25.5184 6.55577 25.3704 6.77799 25.2222C8.97928 25.2431 11.2756 25.2431 13.6669 25.2222C13.8891 25.3704 14.1113 25.5184 14.3336 25.6667C14.7731 25.5264 15.2546 25.5264 15.778 25.6667C15.9262 25.5184 16.0743 25.3704 16.2224 25.2222C16.5928 25.5184 16.9632 25.5184 17.3336 25.2222C17.8814 25.65 18.474 25.65 19.1113 25.2222C19.2595 25.8149 19.4076 25.8149 19.5558 25.2222C19.7969 25.3984 20.0562 25.5467 20.3336 25.6667C20.6762 25.3896 21.0096 25.3896 21.3336 25.6667C21.4076 25.5184 21.4817 25.3704 21.5558 25.2222C22.0792 25.3624 22.5607 25.3624 23.0002 25.2222C23.2176 25.3282 23.4027 25.4762 23.5558 25.6667C23.704 25.074 23.852 25.074 24.0002 25.6667C25.2593 25.4002 26.4816 25.4002 27.6669 25.6667Z"
            fill="#4358CA" />
        <path fill-rule="evenodd" clip-rule="evenodd"
            d="M25.2219 27.889C24.8683 28.363 24.4239 28.7332 23.8886 29.0001C24.1806 27.9681 23.9212 27.8939 23.1108 28.7779C23.029 28.4645 22.8439 28.2423 22.5552 28.1112C22.2428 28.3172 21.9095 28.5394 21.5552 28.7779C21.0115 28.065 20.6411 28.065 20.4441 28.7779C20.1478 28.6296 19.8515 28.4816 19.5552 28.3334C18.7208 28.3128 17.906 28.387 17.1108 28.5556C17.0367 28.4074 16.9626 28.2594 16.8886 28.1112C16.7354 28.3016 16.5503 28.4496 16.333 28.5556C15.9841 28.5125 15.6508 28.5125 15.333 28.5556C15.1794 28.0243 14.9571 28.0243 14.6663 28.5556C14.1657 28.5265 13.6843 28.4523 13.2219 28.3334C13.0047 28.4394 12.8195 28.5874 12.6663 28.7779C12.598 28.5983 12.4869 28.4501 12.333 28.3334C12.0372 28.4814 11.7038 28.4814 11.333 28.3334C10.9529 28.3199 10.6566 28.4681 10.4441 28.7779C10.3758 28.5983 10.2647 28.4501 10.1108 28.3334C9.60143 28.5132 9.11994 28.5874 8.66634 28.5556C8.59227 28.4074 8.51819 28.2594 8.44412 28.1112C8.20305 28.3859 8.01787 28.6821 7.88856 29.0001C7.32252 28.6814 6.80401 28.3112 6.33301 27.889C6.63265 27.7365 6.8919 27.5143 7.11079 27.2223C7.40707 27.5185 7.70339 27.5185 7.99967 27.2223C8.06803 27.4019 8.17914 27.5501 8.33301 27.6668C9.03496 27.5963 9.66459 27.5963 10.2219 27.6668C10.5463 27.2396 10.9167 27.0914 11.333 27.2223C11.4071 27.3705 11.4812 27.5185 11.5552 27.6668C11.7034 27.0741 11.8515 27.0741 11.9997 27.6668C12.644 27.6448 13.3848 27.5708 14.2219 27.4445C14.643 27.4701 15.0134 27.6183 15.333 27.889C16.0593 27.7819 16.726 27.5596 17.333 27.2223C17.4972 27.461 17.7194 27.6092 17.9997 27.6668C19.3521 27.4861 20.7595 27.4119 22.2219 27.4445C22.3701 28.0372 22.5181 28.0372 22.6663 27.4445C22.9481 27.4703 23.2446 27.5443 23.5552 27.6668C23.7035 27.5185 23.8515 27.3705 23.9997 27.2223C24.4137 27.6312 24.821 27.8534 25.2219 27.889Z"
            fill="#435CD3" />
        <path fill-rule="evenodd" clip-rule="evenodd"
            d="M23.8887 29C19.7683 31.3806 15.435 31.8251 10.8887 30.3333C10.6629 30.5853 10.5147 30.5113 10.4442 30.1111C10.1479 30.1111 9.85163 30.1111 9.55534 30.1111C9.09725 29.6035 8.54169 29.2333 7.88867 29C8.01798 28.682 8.20316 28.3858 8.44423 28.1111C8.51829 28.2593 8.59238 28.4073 8.66645 28.5555C9.12005 28.5873 9.60154 28.5131 10.1109 28.3333C10.2648 28.45 10.3759 28.5982 10.4442 28.7778C10.6567 28.468 10.953 28.3198 11.3331 28.3333C11.7039 28.4813 12.0373 28.4813 12.3331 28.3333C12.487 28.45 12.5981 28.5982 12.6664 28.7778C12.8196 28.5873 13.0048 28.4393 13.222 28.3333C13.6844 28.4522 14.1658 28.5264 14.6664 28.5555C14.9572 28.0242 15.1795 28.0242 15.3331 28.5555C15.6509 28.5124 15.9842 28.5124 16.3331 28.5555C16.5504 28.4495 16.7355 28.3015 16.8887 28.1111C16.9627 28.2593 17.0368 28.4073 17.1109 28.5555C17.9061 28.3869 18.7209 28.3126 19.5553 28.3333C19.8516 28.4815 20.1479 28.6295 20.4442 28.7778C20.6412 28.0649 21.0116 28.0649 21.5553 28.7778C21.9096 28.5393 22.2429 28.3171 22.5553 28.1111C22.844 28.2422 23.0291 28.4644 23.1109 28.7778C23.9213 27.8938 24.1807 27.968 23.8887 29Z"
            fill="#485DDA" />
    </g>
    <defs>
        <clipPath id="clip0_5719_300">
            <rect width="32" height="32" fill="white" />
        </clipPath>
    </defs>
</svg>