<svg width="32" height="32" viewBox="0 0 32 32" fill="none" xmlns="http://www.w3.org/2000/svg">
    <g clip-path="url(#clip0_5637_45)">
        <path fill-rule="evenodd" clip-rule="evenodd"
            d="M-0.0800781 -0.0800781C10.5866 -0.0800781 21.2532 -0.0800781 31.9199 -0.0800781C31.9199 10.5866 31.9199 21.2532 31.9199 31.9199C21.2532 31.9199 10.5866 31.9199 -0.0800781 31.9199C-0.0800781 21.2532 -0.0800781 10.5866 -0.0800781 -0.0800781Z"
            fill="#02C7F9" />
        <path fill-rule="evenodd" clip-rule="evenodd"
            d="M20.7193 9.04008C20.4047 8.88949 20.0847 8.72949 19.7593 8.56008C19.6126 8.66043 19.4526 8.71377 19.2793 8.72008C19.4326 8.48622 19.6191 8.27289 19.8393 8.08008C20.1657 8.37931 20.459 8.69931 20.7193 9.04008Z"
            fill="#C3F7FA" />
        <path fill-rule="evenodd" clip-rule="evenodd"
            d="M12.5591 8.72008C12.3858 8.71377 12.2258 8.66043 12.0791 8.56008C11.7538 8.72949 11.4338 8.88949 11.1191 9.04008C11.3795 8.69931 11.6728 8.37931 11.9991 8.08008C12.2192 8.27289 12.4059 8.48622 12.5591 8.72008Z"
            fill="#CBF8FA" />
        <path fill-rule="evenodd" clip-rule="evenodd"
            d="M12.5605 8.71957C13.3605 9.4129 14.1072 10.1596 14.8005 10.9596C14.8132 11.1885 14.7599 11.4018 14.6405 11.5996C14.8539 11.6529 15.0672 11.7062 15.2805 11.7596C15.4291 11.9498 15.4825 12.1631 15.4405 12.3996C14.324 13.5696 13.204 14.7429 12.0805 15.9196C13.2573 17.1495 14.4306 18.3762 15.6005 19.5996C15.6005 19.7596 15.6005 19.9196 15.6005 20.0796C14.9072 20.8796 14.1605 21.6263 13.3605 22.3196C13.1317 22.3069 12.9183 22.3602 12.7205 22.4796C12.5883 22.7455 12.4016 22.9588 12.1605 23.1196C11.7712 22.9905 11.3712 22.7772 10.9605 22.4796C10.4685 22.0941 10.0418 21.6676 9.68055 21.1996C9.61778 20.9309 9.53778 20.6642 9.44055 20.3996C9.10146 20.3985 8.80813 20.2117 8.56055 19.8396C8.80643 19.662 8.91311 19.422 8.88055 19.1196C8.72055 19.1196 8.56055 19.1196 8.40055 19.1196C8.43559 19.3076 8.38226 19.4676 8.24055 19.5996C7.95296 19.3386 7.76629 19.0186 7.68055 18.6396C7.10808 18.5676 6.78808 18.2476 6.72055 17.6796C6.66722 17.7329 6.61387 17.7863 6.56055 17.8396C6.1708 17.5249 5.7708 17.2581 5.36055 17.0396C5.30722 16.8796 5.20055 16.7729 5.04055 16.7196C4.95293 16.4165 4.79293 16.15 4.56055 15.9196C4.6609 15.7729 4.71424 15.6129 4.72055 15.4396C5.36055 15.1196 5.84055 14.6396 6.16055 13.9996C6.69387 13.7862 7.06722 13.4129 7.28055 12.8796C7.72346 12.6256 8.15011 12.3323 8.56055 11.9996C8.6944 11.8378 8.74775 11.6511 8.72055 11.4396C9.25387 11.2262 9.62722 10.8529 9.84055 10.3196C10.2672 10.2129 10.5339 9.94624 10.6405 9.51957C10.7472 9.30624 10.9072 9.14624 11.1205 9.03957C11.4352 8.88898 11.7552 8.72898 12.0805 8.55957C12.2272 8.65992 12.3872 8.71327 12.5605 8.71957Z"
            fill="#F7F9F9" />
        <path fill-rule="evenodd" clip-rule="evenodd"
            d="M20.7202 9.03957C20.7735 9.51957 21.0402 9.78624 21.5202 9.83957C21.5558 10.1768 21.7158 10.4434 22.0002 10.6396C21.7682 10.8555 21.6615 11.1222 21.6802 11.4396C21.9298 11.4365 22.1698 11.3832 22.4002 11.2796C22.7337 11.4826 23.0804 11.6426 23.4402 11.7596C23.4442 12.1882 23.6575 12.4015 24.0802 12.3996C24.1158 12.7368 24.2758 13.0034 24.5602 13.1996C24.3282 13.4155 24.2215 13.6822 24.2402 13.9996C24.4898 13.9965 24.7298 13.9432 24.9602 13.8396C25.2937 14.0426 25.6404 14.2026 26.0002 14.3196C26.3735 14.5862 26.6935 14.9062 26.9602 15.2796C26.954 15.4529 26.9006 15.6129 26.8002 15.7596C26.9782 15.882 27.0849 16.042 27.1202 16.2396C26.9602 16.5063 26.747 16.7196 26.4802 16.8796C26.0943 16.9106 25.9343 17.1239 26.0002 17.5196C24.0846 19.3818 22.1646 21.2485 20.2402 23.1196C19.8558 23.1279 19.4825 23.0746 19.1202 22.9596C19.1222 22.5369 18.9089 22.3236 18.4802 22.3196C18.4822 21.8969 18.2689 21.6836 17.8402 21.6796C17.3602 21.3063 16.9335 20.8796 16.5602 20.3996C16.5098 20.1234 16.4833 19.8567 16.4802 19.5996C17.3494 18.8116 18.1226 17.9583 18.8002 17.0396C19.0606 16.6988 19.3538 16.3788 19.6802 16.0796C19.787 15.9729 19.787 15.8662 19.6802 15.7596C18.5012 14.6073 17.3545 13.434 16.2402 12.2396C16.2935 12.0262 16.347 11.8129 16.4002 11.5996C16.7202 11.1729 17.0935 10.7996 17.5202 10.4796C18.267 10.0529 18.8535 9.46624 19.2802 8.71957C19.4535 8.71327 19.6135 8.65992 19.7602 8.55957C20.0857 8.72898 20.4057 8.88898 20.7202 9.03957Z"
            fill="#F7F9F9" />
        <path fill-rule="evenodd" clip-rule="evenodd"
            d="M20.7207 9.04004C21.0407 9.25337 21.3074 9.52004 21.5207 9.84004C21.0407 9.78671 20.774 9.52004 20.7207 9.04004Z"
            fill="#C5F9F9" />
        <path fill-rule="evenodd" clip-rule="evenodd"
            d="M19.2795 8.71973C18.8528 9.4664 18.2663 10.0531 17.5195 10.4797C18.0528 9.83973 18.6395 9.25305 19.2795 8.71973Z"
            fill="#D1FAF9" />
        <path fill-rule="evenodd" clip-rule="evenodd"
            d="M10.6398 9.51953C10.5332 9.9462 10.2665 10.2129 9.83984 10.3195C10.0532 9.99953 10.3198 9.73286 10.6398 9.51953Z"
            fill="#C3F8FA" />
        <path fill-rule="evenodd" clip-rule="evenodd"
            d="M9.8407 10.3203C9.62738 10.8536 9.25403 11.227 8.7207 11.4403C9.0407 11.0136 9.41403 10.6403 9.8407 10.3203Z"
            fill="#C4F9FA" />
        <path fill-rule="evenodd" clip-rule="evenodd"
            d="M21.5195 9.83984C22.2128 10.4265 22.8528 11.0665 23.4395 11.7598C23.0797 11.6429 22.733 11.4829 22.3995 11.2798C22.1691 11.3835 21.9291 11.4368 21.6795 11.4398C21.6608 11.1225 21.7675 10.8558 21.9995 10.6398C21.7151 10.4437 21.5551 10.177 21.5195 9.83984Z"
            fill="#E0F9F9" />
        <path fill-rule="evenodd" clip-rule="evenodd"
            d="M14.8006 10.96C15.1708 11.2763 15.5442 11.5963 15.9206 11.92C16.0835 11.8092 16.2435 11.7025 16.4006 11.6C16.3473 11.8133 16.2939 12.0266 16.2406 12.24C15.9369 12.0424 15.6702 12.0958 15.4406 12.4C15.4825 12.1635 15.4292 11.9502 15.2806 11.76C15.0673 11.7066 14.854 11.6533 14.6406 11.6C14.76 11.4022 14.8133 11.1888 14.8006 10.96Z"
            fill="#DCFAF9" />
        <path fill-rule="evenodd" clip-rule="evenodd"
            d="M8.7193 11.4404C8.7465 11.652 8.69315 11.8386 8.5593 12.0004C8.14886 12.3331 7.72221 12.6265 7.2793 12.8804C7.70597 12.3471 8.18597 11.8671 8.7193 11.4404Z"
            fill="#CBF9FA" />
        <path fill-rule="evenodd" clip-rule="evenodd"
            d="M23.4395 11.7598C23.7062 11.9198 23.9195 12.1331 24.0795 12.3998C23.6567 12.4017 23.4435 12.1884 23.4395 11.7598Z"
            fill="#D1FAF9" />
        <path fill-rule="evenodd" clip-rule="evenodd"
            d="M16.2401 12.2397C17.3543 13.4341 18.501 14.6074 19.6801 15.7597C19.7868 15.8664 19.7868 15.973 19.6801 16.0797C19.3537 16.3789 19.0604 16.6989 18.8001 17.0397C17.8724 17.8872 16.9657 18.7672 16.0801 19.6797C15.9078 19.7549 15.7478 19.7282 15.6001 19.5997C14.4302 18.3763 13.2568 17.1496 12.0801 15.9197C13.2035 14.7431 14.3235 13.5697 15.4401 12.3997C15.6697 12.0955 15.9364 12.0422 16.2401 12.2397Z"
            fill="#15C6F6" />
        <path fill-rule="evenodd" clip-rule="evenodd"
            d="M7.28016 12.8799C7.06683 13.4132 6.69348 13.7866 6.16016 13.9999C6.48016 13.5732 6.85348 13.1999 7.28016 12.8799Z"
            fill="#C4F9FA" />
        <path fill-rule="evenodd" clip-rule="evenodd"
            d="M24.0801 12.4004C24.7734 12.9871 25.4134 13.6271 26.0001 14.3204C25.6402 14.2034 25.2935 14.0434 24.9601 13.8404C24.7297 13.944 24.4897 13.9973 24.2401 14.0004C24.2214 13.683 24.3281 13.4164 24.5601 13.2004C24.2756 13.0043 24.1156 12.7376 24.0801 12.4004Z"
            fill="#E0F9F9" />
        <path fill-rule="evenodd" clip-rule="evenodd"
            d="M6.1607 14C5.8407 14.64 5.3607 15.12 4.7207 15.44C5.14738 14.9067 5.62738 14.4267 6.1607 14Z"
            fill="#C8F8FA" />
        <path fill-rule="evenodd" clip-rule="evenodd"
            d="M4.72023 15.4404C4.71393 15.6137 4.66059 15.7737 4.56023 15.9204C4.79262 16.1508 4.95262 16.4174 5.04023 16.7204C4.72363 16.5105 4.45695 16.2438 4.24023 15.9204C4.35035 15.7036 4.51035 15.5436 4.72023 15.4404Z"
            fill="#B0F5FA" />
        <path fill-rule="evenodd" clip-rule="evenodd"
            d="M26.9608 15.2803C27.224 15.4369 27.4374 15.6502 27.6008 15.9203C27.52 16.1473 27.36 16.2539 27.1208 16.2403C27.0854 16.0427 26.9787 15.8827 26.8008 15.7603C26.9011 15.6136 26.9545 15.4536 26.9608 15.2803Z"
            fill="#DAF8FA" />
        <path fill-rule="evenodd" clip-rule="evenodd"
            d="M26.4808 16.8799C26.4427 17.1845 26.2827 17.398 26.0008 17.5199C25.9348 17.1242 26.0948 16.9109 26.4808 16.8799Z"
            fill="#C4F7FA" />
        <path fill-rule="evenodd" clip-rule="evenodd"
            d="M18.7996 17.04C18.122 17.9588 17.3487 18.812 16.4796 19.6C16.4826 19.8572 16.5092 20.1239 16.5596 20.4C16.3492 20.2439 16.1359 20.0839 15.9196 19.92C15.8102 19.9781 15.7036 20.0314 15.5996 20.08C15.5996 19.92 15.5996 19.76 15.5996 19.6C15.7473 19.7285 15.9073 19.7552 16.0796 19.68C16.9652 18.7676 17.8719 17.8876 18.7996 17.04Z"
            fill="#D6FAF9" />
        <path fill-rule="evenodd" clip-rule="evenodd"
            d="M5.35938 17.04C5.76963 17.2586 6.16963 17.5253 6.55938 17.84C6.6127 17.7868 6.66605 17.7333 6.71938 17.68C6.78691 18.248 7.10691 18.568 7.67938 18.64C7.76512 19.0191 7.95179 19.3391 8.23938 19.6C8.38109 19.468 8.43442 19.308 8.39938 19.12C8.55938 19.12 8.71938 19.12 8.87938 19.12C8.91194 19.4224 8.80526 19.6624 8.55938 19.84C8.80696 20.2122 9.10029 20.3989 9.43938 20.4C9.53661 20.6647 9.61661 20.9314 9.67938 21.2C8.23514 19.809 6.79514 18.4223 5.35938 17.04Z"
            fill="#E7F9F9" />
        <path fill-rule="evenodd" clip-rule="evenodd"
            d="M17.8398 21.6797C18.2685 21.6837 18.4818 21.897 18.4798 22.3197C18.2131 22.1597 17.9998 21.9464 17.8398 21.6797Z"
            fill="#D0F9FA" />
        <path fill-rule="evenodd" clip-rule="evenodd"
            d="M18.4805 22.3203C18.9091 22.3243 19.1224 22.5376 19.1205 22.9603C18.8537 22.8003 18.6405 22.587 18.4805 22.3203Z"
            fill="#D0F9FA" />
        <path fill-rule="evenodd" clip-rule="evenodd"
            d="M13.3609 22.3202C12.9403 22.8211 12.487 23.3011 12.0009 23.7602C11.6808 23.3072 11.3342 22.8807 10.9609 22.4802C11.3716 22.7778 11.7716 22.9911 12.1609 23.1202C12.402 22.9594 12.5887 22.7461 12.7209 22.4802C12.9187 22.3608 13.1321 22.3075 13.3609 22.3202Z"
            fill="#DAF8F9" />
        <path fill-rule="evenodd" clip-rule="evenodd"
            d="M19.1191 22.96C19.4814 23.075 19.8547 23.1283 20.2391 23.12C20.1476 23.3556 20.0143 23.5691 19.8391 23.76C19.566 23.514 19.326 23.2473 19.1191 22.96Z"
            fill="#CEF8FA" />
    </g>
    <defs>
        <clipPath id="clip0_5637_45">
            <rect width="32" height="32" fill="white" />
        </clipPath>
    </defs>
</svg>