<svg width="32" height="32" viewBox="0 0 32 32" fill="none" xmlns="http://www.w3.org/2000/svg">
    <g clip-path="url(#clip0_5847_60)">
        <path fill-rule="evenodd" clip-rule="evenodd"
            d="M-0.0576172 -0.0576172C10.609 -0.0576172 21.2758 -0.0576172 31.9424 -0.0576172C31.9424 10.609 31.9424 21.2758 31.9424 31.9424C21.2758 31.9424 10.609 31.9424 -0.0576172 31.9424C-0.0576172 21.2758 -0.0576172 10.609 -0.0576172 -0.0576172Z"
            fill="black" />
        <path fill-rule="evenodd" clip-rule="evenodd"
            d="M14.0002 20.8574C14.0383 18.6466 14.0002 16.4371 13.8859 14.2289C13.8166 14.243 13.7785 14.2811 13.7717 14.3432C13.0938 16.4908 12.3701 18.6242 11.6002 20.7432C10.9187 20.857 10.233 20.895 9.54308 20.8574C8.85687 18.6846 8.17116 16.5132 7.48594 14.3432C7.47908 14.2811 7.44099 14.243 7.37165 14.2289C7.25741 16.4371 7.21932 18.6466 7.25737 20.8574C6.53356 20.8574 5.80974 20.8574 5.08594 20.8574C5.08594 17.5432 5.08594 14.2289 5.08594 10.9146C6.23133 10.8767 7.37419 10.9148 8.51451 11.0289C9.22002 13.0491 9.92478 15.0681 10.6288 17.086C11.3319 15.0738 12.0176 13.0548 12.6859 11.0289C13.8384 10.9162 15.0003 10.8781 16.1717 10.9146C16.1717 14.2289 16.1717 17.5432 16.1717 20.8574C15.4479 20.8574 14.724 20.8574 14.0002 20.8574Z"
            fill="#F7F7F7" />
        <path fill-rule="evenodd" clip-rule="evenodd"
            d="M23.7141 11.0283C23.7141 12.0569 23.7141 13.0855 23.7141 14.114C24.7427 14.114 25.7713 14.114 26.7999 14.114C26.7999 14.7997 26.7999 15.4855 26.7999 16.1712C24.057 16.1712 21.3141 16.1712 18.5713 16.1712C18.5713 15.4855 18.5713 14.7997 18.5713 14.114C19.5999 14.114 20.6284 14.114 21.657 14.114C21.657 13.0855 21.657 12.0569 21.657 11.0283C22.3427 11.0283 23.0284 11.0283 23.7141 11.0283Z"
            fill="#F9F9F9" />
        <path fill-rule="evenodd" clip-rule="evenodd"
            d="M23.7141 10.9141C23.7141 10.9522 23.7141 10.9903 23.7141 11.0283C23.0284 11.0283 22.3427 11.0283 21.657 11.0283C21.657 12.0569 21.657 13.0855 21.657 14.1141C20.6284 14.1141 19.5998 14.1141 18.5713 14.1141C18.5713 14.7998 18.5713 15.4855 18.5713 16.1712C18.4581 15.4689 18.4201 14.7451 18.457 13.9998C19.4856 13.9998 20.5141 13.9998 21.5427 13.9998C21.5427 12.9712 21.5427 11.9426 21.5427 10.9141C22.2665 10.9141 22.9904 10.9141 23.7141 10.9141Z"
            fill="#8A8A8A" />
        <path fill-rule="evenodd" clip-rule="evenodd"
            d="M23.7139 10.9141C23.8274 11.9218 23.8655 12.9504 23.8282 13.9998C24.8567 13.9998 25.8853 13.9998 26.9139 13.9998C26.9508 14.7451 26.9127 15.4689 26.7996 16.1712C26.7996 15.4855 26.7996 14.7998 26.7996 14.1141C25.771 14.1141 24.7424 14.1141 23.7139 14.1141C23.7139 13.0855 23.7139 12.0569 23.7139 11.0283C23.7139 10.9903 23.7139 10.9522 23.7139 10.9141Z"
            fill="#666666" />
        <path fill-rule="evenodd" clip-rule="evenodd"
            d="M13.7715 14.3428C13.7783 14.2807 13.8164 14.2427 13.8858 14.2285C14.0001 16.4367 14.0381 18.6462 14.0001 20.8571C13.9238 18.6857 13.8477 16.5142 13.7715 14.3428Z"
            fill="#B8B8B8" />
        <path fill-rule="evenodd" clip-rule="evenodd"
            d="M23.7144 19.2575C23.0287 19.2575 22.3429 19.2575 21.6572 19.2575C21.6572 18.7241 21.6572 18.1909 21.6572 17.6575C22.3306 17.2921 22.9972 16.9112 23.6572 16.5146C23.7144 17.4281 23.7333 18.3424 23.7144 19.2575Z"
            fill="#F7F7F7" />
        <path fill-rule="evenodd" clip-rule="evenodd"
            d="M7.48599 14.3428C7.4098 16.5142 7.33362 18.6857 7.25742 20.8571C7.21938 18.6462 7.25747 16.4367 7.37171 14.2285C7.44105 14.2427 7.47914 14.2807 7.48599 14.3428Z"
            fill="#A5A5A5" />
        <path fill-rule="evenodd" clip-rule="evenodd"
            d="M21.6571 17.6572C21.6571 18.1906 21.6571 18.7239 21.6571 19.2572C22.3428 19.2572 23.0285 19.2572 23.7142 19.2572C23.0119 19.3704 22.2882 19.4084 21.5428 19.3715C21.5061 18.7778 21.5443 18.2064 21.6571 17.6572Z"
            fill="#808080" />
    </g>
    <defs>
        <clipPath id="clip0_5847_60">
            <rect width="32" height="32" fill="white" />
        </clipPath>
    </defs>
</svg>