<svg width="32" height="32" viewBox="0 0 32 32" fill="none" xmlns="http://www.w3.org/2000/svg">
    <g clip-path="url(#clip0_5669_4772)">
        <path fill-rule="evenodd" clip-rule="evenodd"
            d="M-0.0400391 -0.0400391C10.6266 -0.0400391 21.2933 -0.0400391 31.96 -0.0400391C31.96 10.6266 31.96 21.2933 31.96 31.96C21.2933 31.96 10.6266 31.96 -0.0400391 31.96C-0.0400391 21.2933 -0.0400391 10.6266 -0.0400391 -0.0400391Z"
            fill="#448EF9" />
        <path fill-rule="evenodd" clip-rule="evenodd"
            d="M17.7998 8.75965C17.0708 8.55861 16.3241 8.45189 15.5598 8.43965C15.1893 8.36901 14.816 8.31565 14.4398 8.27965C14.1732 8.19965 13.9065 8.11965 13.6398 8.03965C13.631 7.99026 13.6043 7.95026 13.5598 7.91965C13.1332 7.90631 12.7065 7.89298 12.2798 7.87965C11.823 7.88006 11.3963 7.93339 10.9998 8.03965C10.219 8.19141 9.55232 8.53813 8.99984 9.07965C9.13296 8.90533 9.10624 8.75869 8.91984 8.63965C9.02408 8.62285 9.13072 8.63621 9.23984 8.67965C9.3388 8.67517 9.4188 8.63517 9.47984 8.55965C9.2444 8.43109 9.03104 8.27109 8.83984 8.07965C8.88184 8.02429 8.9352 7.98426 8.99984 7.95965C9.09376 8.09837 9.22704 8.17837 9.39984 8.19965C9.7152 8.01493 10.0352 7.82829 10.3598 7.63965C11.1271 7.78868 11.9005 7.82868 12.6798 7.75965C12.777 7.59201 12.8438 7.60534 12.8798 7.79965C12.9849 7.71382 13.1049 7.66049 13.2398 7.63965C13.6086 7.78783 13.9818 7.8145 14.3598 7.71965C14.4208 7.80991 14.4742 7.90324 14.5198 7.99965C14.6886 8.04397 14.8486 8.11069 14.9998 8.19965C15.5414 8.07725 16.1014 7.95726 16.6798 7.83965C17.0825 7.77334 17.4825 7.78666 17.8798 7.87965C17.0846 8.02109 16.2846 8.12773 15.4798 8.19965C15.8504 8.26589 16.2237 8.30589 16.5998 8.31965C16.7494 8.44477 16.9094 8.44477 17.0798 8.31965C17.3465 8.26629 17.6132 8.26629 17.8798 8.31965C17.737 8.41269 17.577 8.46605 17.3998 8.47965C17.5675 8.53861 17.7009 8.63189 17.7998 8.75965Z"
            fill="#4B8FF1" />
        <path fill-rule="evenodd" clip-rule="evenodd"
            d="M13.64 8.03988C12.76 7.93322 11.88 7.93322 11 8.03988C11.3965 7.93363 11.8231 7.88029 12.28 7.87988C12.7066 7.89322 13.1334 7.90655 13.56 7.91988C13.6045 7.95049 13.6311 7.99049 13.64 8.03988Z"
            fill="#5592DC" />
        <path fill-rule="evenodd" clip-rule="evenodd"
            d="M13.64 8.03996C13.9067 8.11996 14.1734 8.19996 14.44 8.27996C13.9112 8.25556 13.3912 8.17556 12.88 8.03996C12.6876 8.12924 12.4876 8.20924 12.28 8.27996C11.9384 8.22612 11.6051 8.1994 11.28 8.19996C10.7969 8.35668 10.3036 8.47668 9.80004 8.55996C9.61524 8.69092 9.49524 8.86428 9.44004 9.07996C9.14356 9.32084 8.8502 9.56084 8.56004 9.79996C8.48956 10.11 8.38292 10.4033 8.24004 10.68C8.18636 10.7401 8.11972 10.7668 8.04004 10.76C8.04004 10.7066 8.04004 10.6533 8.04004 10.6C8.0446 10.5112 8.07124 10.4312 8.12004 10.36C8.2354 10.1968 8.3154 10.0101 8.36004 9.79996C8.5894 9.58556 8.77612 9.34556 8.92004 9.07996C8.94668 9.07996 8.9734 9.07996 9.00004 9.07996C9.55252 8.53844 10.2192 8.19172 11 8.03996C11.88 7.93329 12.76 7.93329 13.64 8.03996Z"
            fill="#E3F2F8" />
        <path fill-rule="evenodd" clip-rule="evenodd"
            d="M15.5601 8.44043C16.3243 8.45267 17.071 8.55939 17.8001 8.76043C17.8534 8.76043 17.8801 8.78707 17.8801 8.84043C17.8801 8.86707 17.8801 8.89379 17.8801 8.92043C17.0925 8.77691 16.3192 8.61691 15.5601 8.44043Z"
            fill="#699DE0" />
        <path fill-rule="evenodd" clip-rule="evenodd"
            d="M17.8799 8.92033C17.8799 8.89369 17.8799 8.86697 17.8799 8.84033C18.4825 8.77617 19.0425 8.88289 19.5599 9.16033C19.4265 9.16033 19.2932 9.16033 19.1599 9.16033C18.7434 9.08097 18.3168 9.00097 17.8799 8.92033Z"
            fill="#528EE6" />
        <path fill-rule="evenodd" clip-rule="evenodd"
            d="M8.92012 9.07996C8.7762 9.34556 8.58948 9.58556 8.36012 9.79996C8.31548 10.0101 8.23548 10.1968 8.12012 10.36C8.14972 10.0613 8.20308 9.76804 8.28012 9.47996C8.64156 9.42228 8.69492 9.24892 8.44012 8.95996C8.60164 8.97212 8.76164 9.01212 8.92012 9.07996Z"
            fill="#6499E6" />
        <path fill-rule="evenodd" clip-rule="evenodd"
            d="M20.4401 9.56008C20.2117 9.50368 19.9984 9.42368 19.8001 9.32008C19.7201 9.26672 19.6401 9.21344 19.5601 9.16008C19.9334 9.13344 20.3067 9.10672 20.6801 9.08008C20.6951 9.20832 20.6551 9.31504 20.5601 9.40008C20.4761 9.31872 20.3828 9.30536 20.2801 9.36008C20.3805 9.39344 20.4339 9.46008 20.4401 9.56008Z"
            fill="#5196EA" />
        <path fill-rule="evenodd" clip-rule="evenodd"
            d="M19.1602 9.16016C19.2935 9.16016 19.4268 9.16016 19.5602 9.16016C19.6402 9.21352 19.7202 9.2668 19.8002 9.32016C19.5659 9.31496 19.3526 9.2616 19.1602 9.16016Z"
            fill="#9DBDEA" />
        <path fill-rule="evenodd" clip-rule="evenodd"
            d="M22.1999 11.0004C21.9223 10.7892 21.6823 10.5359 21.4799 10.2404C21.1034 10.0526 20.7567 9.82591 20.4399 9.56039C20.6079 9.56223 20.7546 9.50887 20.8799 9.40039C21.0504 9.50551 21.2237 9.59887 21.3999 9.68039C21.3365 9.76719 21.2831 9.86055 21.2399 9.96039C21.432 10.0365 21.6054 10.1431 21.7599 10.2804C21.8862 10.1966 22.0062 10.1966 22.1199 10.2804C22.0408 10.3578 21.9875 10.4512 21.9599 10.5604C22.0449 10.7077 22.1249 10.8543 22.1999 11.0004Z"
            fill="#5795E9" />
        <path fill-rule="evenodd" clip-rule="evenodd"
            d="M14.4399 8.28004C14.8161 8.31604 15.1894 8.3694 15.5599 8.44004C16.3191 8.61652 17.0923 8.77652 17.8799 8.92004C18.3168 9.00068 18.7435 9.08068 19.1599 9.16004C19.3523 9.26148 19.5657 9.31484 19.7999 9.32004C19.9983 9.42364 20.2116 9.50364 20.4399 9.56004C20.7567 9.82556 21.1034 10.0523 21.4799 10.24C21.6823 10.5356 21.9223 10.7888 22.1999 11C22.1999 11.0267 22.1999 11.0534 22.1999 11.08C22.3677 11.4426 22.5544 11.7892 22.7599 12.12C22.7599 12.1734 22.7599 12.2267 22.7599 12.28C22.8599 12.8308 22.9932 13.3641 23.1599 13.88C23.1599 13.9334 23.1599 13.9867 23.1599 14.04C23.2171 14.4884 23.3239 14.9151 23.4799 15.32C23.5599 15.7466 23.6399 16.1732 23.7199 16.6C23.7393 16.9184 23.8193 17.2117 23.9599 17.48C24.0284 18.2813 23.9351 19.0547 23.6799 19.8C23.5127 20.2156 23.286 20.5889 22.9999 20.92C22.8133 21.0534 22.6533 21.2134 22.5199 21.4C22.0423 21.6299 21.5623 21.8432 21.0799 22.04C21.0266 22.04 20.9733 22.04 20.9199 22.04C20.3146 22.1975 19.7279 22.3842 19.1599 22.6C18.8851 22.6554 18.6183 22.7354 18.3599 22.84C17.889 22.9835 17.409 23.1035 16.9199 23.2C16.8113 23.2748 16.7046 23.3415 16.5999 23.4C16.472 23.3786 16.3654 23.4053 16.2799 23.48C15.9627 23.533 15.6427 23.5596 15.3199 23.56C15.2133 23.4 15.0799 23.2667 14.9199 23.16C14.8823 22.9937 14.829 22.8337 14.7599 22.68C14.7043 21.5972 14.5976 20.5306 14.4399 19.48C14.4399 19.3734 14.4399 19.2667 14.4399 19.16C14.3156 17.8816 14.209 16.6016 14.1199 15.32C14.1342 14.3782 14.0542 13.4448 13.8799 12.52C13.9119 12.3843 13.9519 12.251 13.9999 12.12C14.4325 12.0422 14.8725 12.0155 15.3199 12.04C15.5122 12.0359 15.6988 12.0625 15.8799 12.12C15.9066 12.2 15.9599 12.2534 16.0399 12.28C16.12 13.0809 16.2134 13.8809 16.3199 14.68C16.3422 14.7533 16.3822 14.8066 16.4399 14.84C16.4399 15.0534 16.4399 15.2667 16.4399 15.48C16.4171 15.7464 16.4705 15.9864 16.5999 16.2C16.6704 16.871 16.7504 17.5377 16.8399 18.2C16.9135 18.9747 16.9935 19.748 17.0799 20.52C17.3662 20.5161 17.6328 20.4628 17.8799 20.36C18.0989 20.368 18.3123 20.3412 18.5199 20.28C18.7543 20.2161 18.9943 20.1895 19.2399 20.2C19.2644 19.9692 19.2378 19.7559 19.1599 19.56C19.1739 19.3904 19.1472 19.2304 19.0799 19.08C19.0145 18.2467 18.9079 17.42 18.7599 16.6C18.7383 16.1523 18.6583 15.7256 18.5199 15.32C18.4333 14.866 18.3533 14.4126 18.2799 13.96C18.2332 13.3994 18.1799 12.8394 18.1199 12.28C18.574 12.2668 19.0274 12.2801 19.4799 12.32C19.8078 12.4287 19.9411 12.6554 19.8799 13C19.9139 13.3662 19.9939 13.7128 20.1199 14.04C20.1199 14.0934 20.1199 14.1467 20.1199 14.2C20.3311 15.4422 20.5711 16.6689 20.8399 17.88C20.9592 18.4607 21.0392 19.0473 21.0799 19.64C21.5355 19.6608 21.9621 19.5808 22.3599 19.4C22.4666 19.4 22.5733 19.4 22.6799 19.4C22.7051 19.0904 22.6785 18.797 22.5999 18.52C22.5947 18.2858 22.5414 18.0724 22.4399 17.88C22.0735 16.0428 21.7135 14.2028 21.3599 12.36C21.2532 11.8517 20.9732 11.4784 20.5199 11.24C20.2603 10.9132 19.9136 10.7399 19.4799 10.72C18.515 10.605 17.555 10.485 16.5999 10.36C16.0811 10.2549 15.5477 10.1749 14.9999 10.12C14.8419 9.99916 14.6552 9.93252 14.4399 9.92004C14.551 9.84892 14.5377 9.80892 14.3999 9.80004C14.3301 9.81884 14.2634 9.84556 14.1999 9.88004C13.5555 9.82268 12.9155 9.74268 12.2799 9.64004C12.0779 9.64028 11.8912 9.667 11.7199 9.72004C11.6167 9.70108 11.5367 9.72772 11.4799 9.80004C11.313 9.88684 11.2063 10.0201 11.1599 10.2C11.1067 10.5056 11.08 10.8256 11.0799 11.16C11.1475 12.56 11.2275 13.9467 11.3199 15.32C11.3671 15.8788 11.3937 16.4388 11.3999 17C11.356 19.2308 11.4627 21.4441 11.7199 23.64C11.5827 23.6504 11.4493 23.677 11.3199 23.72C11.1547 23.7187 10.9947 23.692 10.8399 23.64C10.4475 23.4167 10.0475 23.19 9.63994 22.96C9.35066 22.6053 9.0573 22.272 8.75994 21.96C8.71114 21.8053 8.63114 21.672 8.51994 21.56C8.38578 21.2367 8.25242 20.9167 8.11994 20.6C8.0161 17.3154 7.9894 14.0354 8.03994 10.76C8.11962 10.7669 8.18626 10.7402 8.23994 10.68C8.38282 10.4034 8.48946 10.1101 8.55994 9.80004C8.8501 9.56092 9.14346 9.32092 9.43994 9.08004C9.49514 8.86436 9.61514 8.691 9.79994 8.56004C10.3035 8.47676 10.7968 8.35676 11.2799 8.20004C11.605 8.19948 11.9383 8.2262 12.2799 8.28004C12.4875 8.20932 12.6875 8.12932 12.8799 8.04004C13.3911 8.17564 13.9111 8.25564 14.4399 8.28004Z"
            fill="#F7F9F9" />
        <path fill-rule="evenodd" clip-rule="evenodd"
            d="M11.7202 9.71978C12.2068 9.72154 12.6868 9.7749 13.1602 9.87978C13.2935 9.93314 13.4268 9.98642 13.5602 10.0398C13.5267 10.0975 13.4734 10.1375 13.4002 10.1598C13.0802 10.2131 12.7602 10.2131 12.4402 10.1598C12.4402 10.0798 12.4402 9.99978 12.4402 9.91978C12.1696 9.85386 11.9029 9.86722 11.6402 9.95978C11.7275 10.0663 11.8342 10.1329 11.9602 10.1598C11.7191 10.1999 11.4791 10.2399 11.2402 10.2798C11.227 10.5478 11.2403 10.8144 11.2802 11.0798C11.3068 10.9998 11.3335 10.9198 11.3602 10.8398C11.4326 11.1421 11.4726 11.4487 11.4802 11.7598C11.4797 12.4926 11.453 13.2259 11.4002 13.9598C11.5166 15.3947 11.5966 16.8347 11.6402 18.2798C11.6955 18.2378 11.7355 18.1844 11.7602 18.1198C11.7868 18.2531 11.8135 18.3864 11.8402 18.5198C11.8668 18.3064 11.8935 18.0931 11.9202 17.8798C11.9735 17.9864 12.0268 17.9864 12.0802 17.8798C12.1335 17.9864 12.1335 18.0931 12.0802 18.1998C12.0535 18.1464 12.0268 18.0931 12.0002 18.0398C11.9395 18.2213 11.9529 18.3947 12.0402 18.5598C11.9712 18.7785 11.9046 18.7919 11.8402 18.5998C11.8058 18.9635 11.7392 19.3103 11.6402 19.6398C11.6512 19.2467 11.5979 18.8733 11.4802 18.5198C11.506 17.998 11.4794 17.4914 11.4002 16.9998C11.3939 16.4386 11.3673 15.8786 11.3202 15.3198C11.3234 13.6111 11.27 11.9045 11.1602 10.1998C11.3271 10.113 11.4338 9.9797 11.4802 9.79978C11.5369 9.72746 11.6169 9.70082 11.7202 9.71978Z"
            fill="#4B8FEF" />
        <path fill-rule="evenodd" clip-rule="evenodd"
            d="M19.5599 11.7997C19.7417 11.8362 19.8484 11.9429 19.8799 12.1197C19.632 12.1127 19.6053 12.1527 19.7999 12.2397C19.6168 12.2731 19.4568 12.2197 19.3199 12.0797C18.9708 12.0565 18.6242 12.0165 18.2799 11.9597C18.2045 11.9683 18.1379 11.9949 18.0799 12.0397C17.9932 12.7065 18.06 13.3465 18.2799 13.9597C18.3532 14.4122 18.4332 14.8656 18.5199 15.3197C18.5616 15.6381 18.5882 15.9581 18.5999 16.2797C18.579 16.7575 18.6324 17.2241 18.7599 17.6797C18.6628 17.9678 18.6761 18.2478 18.7999 18.5197C18.8265 18.4663 18.8532 18.413 18.8799 18.3597C18.9327 18.6139 18.9993 18.8539 19.0799 19.0797C19.1472 19.23 19.1739 19.39 19.1599 19.5597C19.1599 19.7463 19.1599 19.933 19.1599 20.1197C18.9713 20.1066 18.7847 20.1199 18.5999 20.1597C18.5554 20.1903 18.5288 20.2303 18.5199 20.2797C18.3122 20.3409 18.0988 20.3676 17.8799 20.3597C17.6399 20.3597 17.3999 20.3597 17.1599 20.3597C17.1732 19.9853 17.1598 19.6121 17.1199 19.2397C17.0476 18.8816 16.9543 18.5349 16.8399 18.1997C16.7504 17.5373 16.6704 16.8706 16.5999 16.1997C16.6063 15.9372 16.5529 15.6972 16.4399 15.4797C16.4399 15.2663 16.4399 15.053 16.4399 14.8397C16.3725 13.9809 16.2659 13.1277 16.1199 12.2797C16.1996 12.2728 16.2662 12.2995 16.3199 12.3597C16.4828 12.2469 16.6028 12.1002 16.6799 11.9197C16.6665 11.8797 16.6532 11.8397 16.6399 11.7997C16.2945 12.0317 16.1212 11.925 16.1199 11.4797C16.204 11.4916 16.284 11.4783 16.3599 11.4397C16.2098 11.3583 16.0498 11.2916 15.8799 11.2397C16.1141 11.1609 16.3541 11.1343 16.5999 11.1597C16.5873 11.2695 16.6007 11.3762 16.6399 11.4797C16.7212 11.3889 16.7745 11.4156 16.7999 11.5597C17.1276 11.5441 17.4609 11.5441 17.7999 11.5597C17.8708 11.4937 17.8974 11.4137 17.8799 11.3197C18.1729 11.3558 18.4663 11.3958 18.7599 11.4397C18.8568 11.5287 18.8568 11.6221 18.7599 11.7197C18.8218 11.8165 18.8884 11.8165 18.9599 11.7197C19.1391 11.9986 19.3391 12.0253 19.5599 11.7997Z"
            fill="#468FF7" />
        <path fill-rule="evenodd" clip-rule="evenodd"
            d="M16.6001 10.3604C17.5552 10.4853 18.5152 10.6053 19.4801 10.7204C19.9138 10.7402 20.2604 10.9136 20.5201 11.2404C20.3842 11.2532 20.2508 11.2399 20.1201 11.2004C20.1468 11.1737 20.1735 11.147 20.2001 11.1204C20.0391 11.0198 19.8658 10.9531 19.6801 10.9204C19.5154 11.0098 19.342 11.0632 19.1601 11.0804C19.1465 10.9746 19.1732 10.8812 19.2401 10.8004C18.8785 10.7524 18.5185 10.7658 18.1601 10.8404C18.0028 10.837 17.856 10.797 17.7201 10.7204C17.9298 10.6479 17.9164 10.6079 17.6801 10.6004C17.2451 10.648 16.8184 10.728 16.4001 10.8404C16.3068 10.8137 16.2135 10.787 16.1201 10.7604C16.3528 10.7052 16.5661 10.612 16.7601 10.4804C16.6868 10.4581 16.6336 10.4181 16.6001 10.3604Z"
            fill="#5894E6" />
        <path fill-rule="evenodd" clip-rule="evenodd"
            d="M13.1602 9.87988C13.7724 9.96644 14.3858 10.0464 15.0002 10.1199C15.5479 10.1748 16.0813 10.2548 16.6002 10.3599C15.8271 10.3213 15.0538 10.2813 14.2802 10.2399C14.0665 10.0876 13.8265 10.021 13.5602 10.0399C13.4268 9.98652 13.2935 9.93324 13.1602 9.87988Z"
            fill="#6299E6" />
        <path fill-rule="evenodd" clip-rule="evenodd"
            d="M11.4802 9.7998C11.4338 9.97972 11.3271 10.113 11.1602 10.1998C11.2066 10.0199 11.3132 9.8866 11.4802 9.7998Z"
            fill="#8FB9EB" />
        <path fill-rule="evenodd" clip-rule="evenodd"
            d="M11.7202 9.71965C11.8915 9.66661 12.0782 9.63989 12.2802 9.63965C12.9157 9.74229 13.5557 9.82229 14.2002 9.87965C14.2637 9.84517 14.3304 9.81845 14.4002 9.79965C14.538 9.80853 14.5513 9.84853 14.4402 9.91965C14.6555 9.93213 14.8421 9.99877 15.0002 10.1196C14.3858 10.0462 13.7725 9.96621 13.1602 9.87965C12.6869 9.77477 12.2069 9.72141 11.7202 9.71965Z"
            fill="#E1F1F9" />
        <path fill-rule="evenodd" clip-rule="evenodd"
            d="M22.2002 11.0801C22.3068 11.0801 22.4136 11.0801 22.5202 11.0801C22.5065 11.2795 22.5865 11.4262 22.7602 11.5201C22.6842 11.7146 22.6842 11.9146 22.7602 12.1201C22.5547 11.7893 22.368 11.4426 22.2002 11.0801Z"
            fill="#5F99EA" />
        <path fill-rule="evenodd" clip-rule="evenodd"
            d="M11.1601 10.2002C11.2699 11.9049 11.3233 13.6116 11.3201 15.3202C11.2277 13.9468 11.1477 12.5602 11.0801 11.1602C11.0802 10.8257 11.1068 10.5057 11.1601 10.2002Z"
            fill="#72A1E3" />
        <path fill-rule="evenodd" clip-rule="evenodd"
            d="M16.1201 12.2804C16.0935 12.2804 16.0668 12.2804 16.0401 12.2804C15.9601 12.2538 15.9068 12.2004 15.8801 12.1204C15.887 12.0407 15.8603 11.9741 15.8001 11.9204C15.1073 11.8804 14.414 11.8671 13.7201 11.8804C13.6957 12.1112 13.7223 12.3246 13.8001 12.5204C13.9086 13.4505 13.9886 14.3838 14.0401 15.3204C14.0699 16.3359 14.1365 17.3492 14.2401 18.3604C14.2829 18.6434 14.3496 18.9102 14.4401 19.1604C14.4401 19.267 14.4401 19.3738 14.4401 19.4804C14.4401 19.6938 14.4401 19.907 14.4401 20.1204C14.3375 19.0741 14.2308 19.0741 14.1201 20.1204C14.1321 20.266 14.1854 20.386 14.2801 20.4804C14.2268 20.5338 14.1735 20.587 14.1201 20.6404C14.1479 20.7659 14.1613 20.9126 14.1601 21.0804C14.1335 21.027 14.1068 20.9738 14.0801 20.9204C14.0388 19.779 14.0521 18.6457 14.1201 17.5204C14.0801 17.4004 14.0401 17.2804 14.0001 17.1604C13.9735 16.467 13.9468 15.7738 13.9201 15.0804C13.8774 14.7626 13.8108 14.4959 13.7201 14.2804C13.7285 14.1037 13.7551 13.9303 13.8001 13.7604C13.5873 13.5366 13.5341 13.2832 13.6401 13.0004C13.5601 12.8938 13.4801 12.787 13.4001 12.6804C13.4876 12.4582 13.4476 12.2182 13.2801 11.9604C13.2405 11.8026 13.2272 11.6426 13.2401 11.4804C13.4957 11.4545 13.5757 11.5478 13.4801 11.7604C13.7259 11.8244 13.8593 11.731 13.8801 11.4804C14.3773 11.4586 14.8706 11.4854 15.3601 11.5604C15.478 11.5282 15.5846 11.4748 15.6801 11.4004C15.94 11.4758 15.98 11.5824 15.8001 11.7204C15.9789 11.8709 16.0855 12.0576 16.1201 12.2804Z"
            fill="#4C90EF" />
        <path fill-rule="evenodd" clip-rule="evenodd"
            d="M15.8802 12.12C15.6991 12.0625 15.5125 12.0358 15.3202 12.04C14.8286 11.9608 14.322 11.9341 13.8002 11.96C13.8002 12.1466 13.8002 12.3333 13.8002 12.52C13.7224 12.3241 13.6957 12.1108 13.7202 11.88C14.4141 11.8667 15.1074 11.88 15.8002 11.92C15.8604 11.9737 15.8871 12.0403 15.8802 12.12Z"
            fill="#72A4E8" />
        <path fill-rule="evenodd" clip-rule="evenodd"
            d="M15.3198 12.0397C14.8724 12.0152 14.4324 12.0419 13.9998 12.1197C13.9517 12.2507 13.9117 12.384 13.8798 12.5197C14.054 13.4445 14.134 14.3779 14.1198 15.3197C14.0932 15.3197 14.0664 15.3197 14.0398 15.3197C13.9883 14.3831 13.9083 13.4498 13.7998 12.5197C13.7998 12.3331 13.7998 12.1464 13.7998 11.9597C14.3216 11.9339 14.8282 11.9605 15.3198 12.0397Z"
            fill="#E0F1F9" />
        <path fill-rule="evenodd" clip-rule="evenodd"
            d="M19.8802 12.12C19.9293 12.4108 19.956 12.7041 19.9602 13C19.9335 13 19.9068 13 19.8802 13C19.9414 12.6553 19.808 12.4286 19.4802 12.32C19.0276 12.28 18.5743 12.2667 18.1202 12.28C18.1801 12.8393 18.2335 13.3993 18.2802 13.96C18.0603 13.3468 17.9935 12.7068 18.0802 12.04C18.1382 11.9952 18.2048 11.9686 18.2802 11.96C18.6245 12.0168 18.9711 12.0568 19.3202 12.08C19.4571 12.22 19.6171 12.2734 19.8002 12.24C19.6056 12.153 19.6323 12.113 19.8802 12.12Z"
            fill="#629AE9" />
        <path fill-rule="evenodd" clip-rule="evenodd"
            d="M22.7598 12.2803C22.8517 12.3036 22.905 12.3702 22.9198 12.4803C23.009 12.9473 23.089 13.414 23.1598 13.8803C22.993 13.3644 22.8598 12.831 22.7598 12.2803Z"
            fill="#6F9EE0" />
        <path fill-rule="evenodd" clip-rule="evenodd"
            d="M21.2399 19.48C21.1772 18.958 21.1105 18.4246 21.0399 17.88C20.9783 17.9678 20.9116 17.9678 20.8399 17.88C20.8303 17.5966 20.857 17.3166 20.9199 17.04C20.8648 16.5774 20.7982 16.5374 20.7199 16.92C20.5796 16.2416 20.4996 15.5483 20.4799 14.84C20.4532 14.8666 20.4265 14.8933 20.3999 14.92C20.3853 14.7019 20.3453 14.4885 20.2799 14.28C20.2252 14.2509 20.1719 14.2243 20.1199 14.2C20.1199 14.1466 20.1199 14.0933 20.1199 14.04C20.1259 13.6815 20.0725 13.3348 19.9599 13C19.9557 12.7041 19.929 12.4108 19.8799 12.12C20.1175 12.1396 20.2241 12.2729 20.1999 12.52C20.2799 12.52 20.3599 12.52 20.4399 12.52C20.428 12.6041 20.4412 12.6841 20.4799 12.76C20.5065 12.7333 20.5332 12.7066 20.5599 12.68C20.5742 12.4357 20.6142 12.1957 20.6799 11.96C20.7424 12.0583 20.7824 12.1649 20.7999 12.28C20.8575 12.1396 20.9508 12.0728 21.0799 12.08C21.1164 12.1131 21.1432 12.1531 21.1599 12.2C21.0004 12.3852 20.9204 12.5985 20.9199 12.84C20.9999 12.84 21.0799 12.84 21.1599 12.84C21.1487 12.9699 21.202 13.0632 21.3199 13.12C21.2399 13.1466 21.1599 13.1733 21.0799 13.2C21.3019 13.5372 21.4752 13.8972 21.5999 14.28C21.8054 15.1242 21.792 15.9508 21.5599 16.76C21.5644 16.8589 21.6044 16.9389 21.6799 17C21.7332 16.8933 21.7865 16.8933 21.8399 17C21.9014 17.3852 22.0481 17.7318 22.2799 18.04C22.3391 18.4132 22.3924 18.7866 22.4399 19.16C22.3599 19.16 22.2799 19.16 22.1999 19.16C22.1268 18.7408 22.0468 18.7408 21.9599 19.16C21.7588 19.0521 21.6121 18.8921 21.5199 18.68C21.4349 18.948 21.3416 19.2147 21.2399 19.48Z"
            fill="#468EF8" />
        <path fill-rule="evenodd" clip-rule="evenodd"
            d="M19.8799 13C19.9065 13 19.9332 13 19.9599 13C20.0725 13.3349 20.1259 13.6815 20.1199 14.04C19.9939 13.7128 19.9139 13.3662 19.8799 13Z"
            fill="#97C0EB" />
        <path fill-rule="evenodd" clip-rule="evenodd"
            d="M16.04 12.2803C16.0667 12.2803 16.0934 12.2803 16.12 12.2803C16.266 13.1283 16.3727 13.9816 16.44 14.8403C16.3823 14.8068 16.3423 14.7536 16.32 14.6803C16.2135 13.8812 16.1201 13.0812 16.04 12.2803Z"
            fill="#74A2E7" />
        <path fill-rule="evenodd" clip-rule="evenodd"
            d="M23.1602 14.04C23.1868 14.04 23.2135 14.04 23.2402 14.04C23.3537 14.4605 23.4337 14.8872 23.4802 15.32C23.3241 14.9151 23.2174 14.4884 23.1602 14.04Z"
            fill="#74A6E4" />
        <path fill-rule="evenodd" clip-rule="evenodd"
            d="M20.5199 11.2402C20.9732 11.4786 21.2532 11.8519 21.3599 12.3602C21.7135 14.203 22.0735 16.043 22.4399 17.8802C22.4234 18.1198 22.4767 18.3332 22.5999 18.5202C22.6785 18.7972 22.7051 19.0906 22.6799 19.4002C22.5733 19.4002 22.4665 19.4002 22.3599 19.4002C21.9768 19.4755 21.6035 19.5022 21.2399 19.4802C21.3417 19.215 21.4349 18.9483 21.5199 18.6802C21.6121 18.8924 21.7589 19.0524 21.9599 19.1602C22.0469 18.741 22.1269 18.741 22.1999 19.1602C22.2799 19.1602 22.3599 19.1602 22.4399 19.1602C22.3925 18.7869 22.3391 18.4135 22.2799 18.0402C22.0481 17.7321 21.9014 17.3854 21.8399 17.0002C21.7865 16.8936 21.7333 16.8936 21.6799 17.0002C21.6044 16.9392 21.5644 16.8592 21.5599 16.7602C21.7921 15.9511 21.8054 15.1245 21.5999 14.2802C21.4752 13.8975 21.3019 13.5375 21.0799 13.2002C21.1599 13.1736 21.2399 13.1469 21.3199 13.1202C21.2021 13.0634 21.1487 12.9702 21.1599 12.8402C21.0799 12.8402 20.9999 12.8402 20.9199 12.8402C20.9204 12.5988 21.0004 12.3855 21.1599 12.2002C21.1432 12.1534 21.1165 12.1134 21.0799 12.0802C20.9509 12.0731 20.8575 12.1398 20.7999 12.2802C20.7824 12.1652 20.7424 12.0586 20.6799 11.9602C20.6142 12.196 20.5742 12.436 20.5599 12.6802C20.5333 12.7069 20.5065 12.7336 20.4799 12.7602C20.4413 12.6844 20.428 12.6044 20.4399 12.5202C20.3599 12.5202 20.2799 12.5202 20.1999 12.5202C20.2241 12.2732 20.1175 12.1399 19.8799 12.1202C19.8484 11.9434 19.7417 11.8368 19.5599 11.8002C19.4968 11.7776 19.4434 11.7376 19.3999 11.6802C19.5009 11.4894 19.6477 11.3427 19.8399 11.2402C19.8133 11.3736 19.7865 11.5069 19.7599 11.6402C20.2629 12.2272 20.5429 12.1605 20.5999 11.4402C20.5397 11.3866 20.513 11.3199 20.5199 11.2402Z"
            fill="#4F92EE" />
        <path fill-rule="evenodd" clip-rule="evenodd"
            d="M16.4402 15.4805C16.5532 15.698 16.6066 15.938 16.6002 16.2005C16.4707 15.9868 16.4174 15.7468 16.4402 15.4805Z"
            fill="#7CACE0" />
        <path fill-rule="evenodd" clip-rule="evenodd"
            d="M18.52 15.3203C18.6584 15.7259 18.7384 16.1526 18.76 16.6003C18.7067 16.4937 18.6534 16.387 18.6 16.2803C18.5883 15.9588 18.5617 15.6388 18.52 15.3203Z"
            fill="#AED2F7" />
        <path fill-rule="evenodd" clip-rule="evenodd"
            d="M20.1201 14.2002C20.1721 14.2245 20.2255 14.2512 20.2801 14.2802C20.3456 14.4888 20.3856 14.7021 20.4001 14.9202C20.4268 14.8936 20.4535 14.8668 20.4801 14.8402C20.4999 15.5485 20.5799 16.2418 20.7201 16.9202C20.7984 16.5376 20.8651 16.5776 20.9201 17.0402C20.8572 17.3168 20.8305 17.5968 20.8401 17.8802C20.5713 16.6691 20.3313 15.4424 20.1201 14.2002Z"
            fill="#5D95E8" />
        <path fill-rule="evenodd" clip-rule="evenodd"
            d="M23.7202 16.5996C23.8609 16.8679 23.9409 17.1613 23.9602 17.4796C23.8196 17.2113 23.7396 16.9179 23.7202 16.5996Z"
            fill="#86AFEA" />
        <path fill-rule="evenodd" clip-rule="evenodd"
            d="M8.03988 10.5996C8.03988 10.653 8.03988 10.7062 8.03988 10.7596C7.98934 14.035 8.01604 17.315 8.11988 20.5996C8.11988 20.653 8.11988 20.7062 8.11988 20.7596C8.07052 20.7507 8.03052 20.7241 7.99988 20.6796C7.97322 20.5196 7.94655 20.3596 7.91988 20.1996C7.90655 18.5996 7.89322 16.9996 7.87988 15.3996C7.87991 13.772 7.93324 12.172 8.03988 10.5996Z"
            fill="#6B9EE5" />
        <path fill-rule="evenodd" clip-rule="evenodd"
            d="M20.8398 17.8799C20.9116 17.9677 20.9782 17.9677 21.0398 17.8799C21.1105 18.4245 21.1772 18.9579 21.2398 19.4799C21.6034 19.5018 21.9767 19.4752 22.3598 19.3999C21.962 19.5807 21.5354 19.6607 21.0798 19.6399C21.0391 19.0472 20.9591 18.4605 20.8398 17.8799Z"
            fill="#5B94E5" />
        <path fill-rule="evenodd" clip-rule="evenodd"
            d="M18.6001 16.2803C18.6535 16.3869 18.7067 16.4936 18.7601 16.6003C18.908 17.4202 19.0147 18.2469 19.0801 19.0803C18.9995 18.8545 18.9329 18.6145 18.8801 18.3603C18.8535 18.4136 18.8267 18.4669 18.8001 18.5203C18.6763 18.2484 18.663 17.9684 18.7601 17.6803C18.6326 17.2248 18.5792 16.7581 18.6001 16.2803Z"
            fill="#6198E7" />
        <path fill-rule="evenodd" clip-rule="evenodd"
            d="M22.4399 17.8799C22.5414 18.0723 22.5947 18.2856 22.5999 18.5199C22.4767 18.3328 22.4235 18.1195 22.4399 17.8799Z"
            fill="#88B5F0" />
        <path fill-rule="evenodd" clip-rule="evenodd"
            d="M14.04 15.3203C14.0667 15.3203 14.0934 15.3203 14.12 15.3203C14.2091 16.6018 14.3157 17.8818 14.44 19.1603C14.3495 18.9101 14.2828 18.6434 14.24 18.3603C14.1364 17.3491 14.0698 16.3358 14.04 15.3203Z"
            fill="#6FA2E3" />
        <path fill-rule="evenodd" clip-rule="evenodd"
            d="M11.3998 17C11.479 17.4916 11.5057 17.9982 11.4798 18.52C11.5965 20.306 11.7031 22.0926 11.7998 23.88C11.608 23.8993 11.448 23.8459 11.3198 23.72C11.4492 23.677 11.5825 23.6503 11.7198 23.64C11.4625 21.4441 11.3559 19.2308 11.3998 17Z"
            fill="#E3F3F9" />
        <path fill-rule="evenodd" clip-rule="evenodd"
            d="M19.16 19.5596C19.2379 19.7554 19.2645 19.9688 19.24 20.1996C18.9944 20.189 18.7544 20.2157 18.52 20.2796C18.5289 20.2302 18.5555 20.1902 18.6 20.1596C18.7848 20.1198 18.9715 20.1065 19.16 20.1196C19.16 19.9329 19.16 19.7462 19.16 19.5596Z"
            fill="#88AEDB" />
        <path fill-rule="evenodd" clip-rule="evenodd"
            d="M16.8398 18.2002C16.9542 18.5354 17.0476 18.8821 17.1198 19.2402C17.1598 19.6126 17.1731 19.9859 17.1598 20.3602C17.3998 20.3602 17.6398 20.3602 17.8798 20.3602C17.6327 20.463 17.3661 20.5163 17.0798 20.5202C16.9934 19.7482 16.9134 18.9748 16.8398 18.2002Z"
            fill="#5F94DF" />
        <path fill-rule="evenodd" clip-rule="evenodd"
            d="M21.0801 22.0402C21.5624 21.8434 22.0424 21.6301 22.5201 21.4002C22.7601 21.3202 22.9201 21.1602 23.0001 20.9202C23.2862 20.5891 23.5128 20.2158 23.6801 19.8002C23.9353 19.0549 24.0286 18.2815 23.9601 17.4802C23.9407 17.1619 23.8607 16.8686 23.7201 16.6002C23.6401 16.1734 23.5601 15.7468 23.4801 15.3202C23.4336 14.8874 23.3536 14.4607 23.2401 14.0402C23.2978 14.0068 23.3378 13.9535 23.3601 13.8802C23.3867 13.9069 23.4134 13.9336 23.4401 13.9602C23.4544 13.716 23.4944 13.476 23.5601 13.2402C23.6247 13.8126 23.6247 14.3726 23.5601 14.9202C23.665 15.2866 23.7184 15.6599 23.7201 16.0402C23.8001 16.0402 23.8801 16.0402 23.9601 16.0402C23.9347 15.7945 23.9614 15.5545 24.0401 15.3202C24.1141 15.4115 24.1808 15.4115 24.2401 15.3202C24.2934 15.4269 24.2934 15.5336 24.2401 15.6402C24.2134 15.5869 24.1867 15.5336 24.1601 15.4802C24.0993 15.7782 24.1126 16.0716 24.2001 16.3602C24.0038 16.5599 23.9905 16.7732 24.1601 17.0002C24.2211 16.7952 24.2611 16.7952 24.2801 17.0002C24.2267 17.0802 24.1734 17.1602 24.1201 17.2402C24.139 17.4453 24.179 17.4453 24.2401 17.2402C24.2534 17.3469 24.2667 17.4536 24.2801 17.5602C24.1343 18.0859 24.0943 18.6193 24.1601 19.1602C24.3227 19.3082 24.3227 19.3615 24.1601 19.3202C24.1334 19.5602 24.1067 19.8002 24.0801 20.0402C24.0534 20.0136 24.0267 19.9869 24.0001 19.9602C23.9828 20.111 23.9294 20.2443 23.8401 20.3602C23.7917 20.2018 23.7117 20.175 23.6001 20.2802C23.5454 20.383 23.5587 20.4763 23.6401 20.5602C23.501 20.7766 23.341 20.9766 23.1601 21.1602C23.2848 21.2907 23.4448 21.3574 23.6401 21.3602C23.5734 21.4269 23.5067 21.4936 23.4401 21.5602C23.1888 21.2362 23.0154 21.2628 22.9201 21.6402C22.8048 21.5759 22.6848 21.5226 22.5601 21.4802C22.385 21.6441 22.185 21.7507 21.9601 21.8002C21.9366 22.1598 21.7766 22.2532 21.4801 22.0802C21.607 22.0113 21.7404 21.9579 21.8801 21.9202C21.6129 21.9326 21.3462 21.9726 21.0801 22.0402Z"
            fill="#4F92ED" />
        <path fill-rule="evenodd" clip-rule="evenodd"
            d="M14.4399 19.4805C14.5976 20.531 14.7043 21.5977 14.7599 22.6805C14.7022 22.647 14.6622 22.5937 14.6399 22.5205C14.6063 21.7129 14.5395 20.9129 14.4399 20.1205C14.4399 19.9071 14.4399 19.6938 14.4399 19.4805Z"
            fill="#6298DD" />
        <path fill-rule="evenodd" clip-rule="evenodd"
            d="M8.12012 20.5996C8.2526 20.9162 8.38596 21.2362 8.52012 21.5596C8.297 21.3471 8.16364 21.0805 8.12012 20.7596C8.12012 20.7062 8.12012 20.653 8.12012 20.5996Z"
            fill="#76A5DF" />
        <path fill-rule="evenodd" clip-rule="evenodd"
            d="M23 20.9199C22.92 21.1599 22.76 21.3199 22.52 21.3999C22.6534 21.2133 22.8134 21.0533 23 20.9199Z"
            fill="#7FADE9" />
        <path fill-rule="evenodd" clip-rule="evenodd"
            d="M8.5198 21.5596C8.631 21.6715 8.711 21.8049 8.7598 21.9596C8.57908 21.8921 8.49908 21.7587 8.5198 21.5596Z"
            fill="#83AEE2" />
        <path fill-rule="evenodd" clip-rule="evenodd"
            d="M20.9202 22.04C20.3824 22.3644 19.7957 22.5511 19.1602 22.6C19.7282 22.3842 20.3148 22.1975 20.9202 22.04Z"
            fill="#6B9DE6" />
        <path fill-rule="evenodd" clip-rule="evenodd"
            d="M11.4798 18.5195C11.5976 18.8731 11.6509 19.2464 11.6398 19.6395C11.8231 20.8816 11.9165 22.135 11.9198 23.3995C12.111 23.7303 12.0176 23.9435 11.6398 24.0395C11.2982 24.0238 11.0315 23.8904 10.8398 23.6395C10.9946 23.6915 11.1546 23.7182 11.3198 23.7195C11.448 23.8455 11.608 23.8988 11.7998 23.8795C11.7031 22.0922 11.5965 20.3055 11.4798 18.5195Z"
            fill="#6096E1" />
        <path fill-rule="evenodd" clip-rule="evenodd"
            d="M8.75977 21.96C9.05713 22.2719 9.35049 22.6052 9.63977 22.96C10.0474 23.19 10.4474 23.4166 10.8398 23.64C10.5218 23.5616 10.2018 23.4816 9.87977 23.4C9.54033 23.0569 9.20697 22.7102 8.87977 22.36C8.83113 22.2276 8.79113 22.0943 8.75977 21.96Z"
            fill="#6195E3" />
        <path fill-rule="evenodd" clip-rule="evenodd"
            d="M18.3601 22.8398C18.1071 22.9871 17.8537 23.1471 17.6001 23.3198C17.5016 23.2712 17.395 23.2446 17.2801 23.2398C17.0585 23.3234 16.8319 23.3768 16.6001 23.3998C16.7047 23.3413 16.8115 23.2746 16.9201 23.1998C17.4091 23.1033 17.8891 22.9833 18.3601 22.8398Z"
            fill="#6297EA" />
        <path fill-rule="evenodd" clip-rule="evenodd"
            d="M14.9199 23.1602C15.0799 23.2668 15.2133 23.4002 15.3199 23.5602C15.167 23.5142 15.0337 23.4342 14.9199 23.3202C14.9199 23.2668 14.9199 23.2135 14.9199 23.1602Z"
            fill="#8EB8F2" />
        <path fill-rule="evenodd" clip-rule="evenodd"
            d="M14.9199 23.3203C15.0337 23.4343 15.167 23.5143 15.3199 23.5603C15.6426 23.5599 15.9626 23.5333 16.2799 23.4803C16.2799 23.5603 16.2799 23.6403 16.2799 23.7203C15.9056 23.7336 15.5323 23.7202 15.1599 23.6803C15.0286 23.59 14.9486 23.47 14.9199 23.3203Z"
            fill="#5792E6" />
    </g>
    <defs>
        <clipPath id="clip0_5669_4772">
            <rect width="32" height="32" fill="white" />
        </clipPath>
    </defs>
</svg>