<svg width="32" height="32" viewBox="0 0 32 32" fill="none" xmlns="http://www.w3.org/2000/svg">
    <g clip-path="url(#clip0_5767_45)">
        <path fill-rule="evenodd" clip-rule="evenodd"
            d="M-0.5 -0.5C2.5 -0.5 5.5 -0.5 8.5 -0.5C8.82124 1.04814 9.82124 1.71481 11.5 1.5C11.6495 2.55198 11.4828 3.55198 11 4.5C9.48155 5.16337 8.31488 6.16337 7.5 7.5C7.16667 8.5 6.5 9.16667 5.5 9.5C4.5041 9.41423 3.67076 9.74756 3 10.5C2.50454 12.4727 2.33788 14.4727 2.5 16.5C1.72813 15.3065 0.728127 14.3065 -0.5 13.5C-0.5 8.83333 -0.5 4.16667 -0.5 -0.5Z"
            fill="#DD191F" />
        <path fill-rule="evenodd" clip-rule="evenodd"
            d="M17.5 -0.5C21.5 -0.5 25.5 -0.5 29.5 -0.5C29.6495 0.551975 29.4828 1.55198 29 2.5C27.5589 1.74022 26.0589 1.07356 24.5 0.5C23.8933 0.62358 23.56 0.956913 23.5 1.5C22.8333 1.5 22.1667 1.5 21.5 1.5C20.1667 0.833333 18.8333 0.166667 17.5 -0.5Z"
            fill="#E1181A" />
        <path fill-rule="evenodd" clip-rule="evenodd"
            d="M8.5 -0.5C11.5 -0.5 14.5 -0.5 17.5 -0.5C18.8333 0.166667 20.1667 0.833333 21.5 1.5C18.8333 1.5 16.1667 1.5 13.5 1.5C12.8333 1.5 12.1667 1.5 11.5 1.5C9.82124 1.71481 8.82124 1.04814 8.5 -0.5Z"
            fill="#DF1A1C" />
        <path fill-rule="evenodd" clip-rule="evenodd"
            d="M13.5 1.5C16.1667 1.5 18.8333 1.5 21.5 1.5C22.1667 1.5 22.8333 1.5 23.5 1.5C23.8333 2.16667 24.1667 2.83333 24.5 3.5C20.8333 3.5 17.1667 3.5 13.5 3.5C13.5 2.83333 13.5 2.16667 13.5 1.5Z"
            fill="#DD1825" />
        <path fill-rule="evenodd" clip-rule="evenodd"
            d="M11.5 1.5C12.1667 1.5 12.8333 1.5 13.5 1.5C13.5 2.16667 13.5 2.83333 13.5 3.5C14.0478 5.53235 15.3812 6.53235 17.5 6.5C17.5 6.83333 17.5 7.16667 17.5 7.5C17.1667 8.5 16.5 9.16667 15.5 9.5C13.1799 7.77386 10.5133 7.1072 7.5 7.5C8.31488 6.16337 9.48155 5.16337 11 4.5C11.4828 3.55198 11.6495 2.55198 11.5 1.5Z"
            fill="#D12326" />
        <path fill-rule="evenodd" clip-rule="evenodd"
            d="M13.5 3.49977C17.1667 3.49977 20.8333 3.49977 24.5 3.49977C25.552 3.35032 26.552 3.51699 27.5 3.99977C26.5291 5.48108 25.1958 6.31442 23.5 6.49977C21.5 6.49977 19.5 6.49977 17.5 6.49977C15.3812 6.53212 14.0478 5.53212 13.5 3.49977Z"
            fill="#E0191E" />
        <path fill-rule="evenodd" clip-rule="evenodd"
            d="M29.5 -0.5C30.1667 -0.5 30.8333 -0.5 31.5 -0.5C31.5 4.16667 31.5 8.83333 31.5 13.5C30.8999 12.0998 29.8999 11.0998 28.5 10.5C26.2512 9.92022 24.5846 8.58689 23.5 6.5C25.1958 6.31465 26.5291 5.48131 27.5 4C26.552 3.51722 25.552 3.35055 24.5 3.5C24.1667 2.83333 23.8333 2.16667 23.5 1.5C23.56 0.956913 23.8933 0.62358 24.5 0.5C26.0589 1.07356 27.5589 1.74022 29 2.5C29.4828 1.55198 29.6495 0.551975 29.5 -0.5Z"
            fill="#DE1920" />
        <path fill-rule="evenodd" clip-rule="evenodd"
            d="M17.5 7.5001C19.4147 7.21562 21.0813 7.54895 22.5 8.5001C17.7255 8.67018 17.3922 9.67018 21.5 11.5001C20.209 11.2628 19.209 11.5961 18.5 12.5001C17.8333 15.8334 17.1667 19.1668 16.5 22.5001C16.5 21.8334 16.5 21.1668 16.5 20.5001C16.8128 16.9582 16.4794 13.6249 15.5 10.5001C15.5 10.1668 15.5 9.83343 15.5 9.5001C16.5 9.16677 17.1667 8.5001 17.5 7.5001Z"
            fill="#F9D1D3" />
        <path fill-rule="evenodd" clip-rule="evenodd"
            d="M15.5 10.5C16.4794 13.6248 16.8128 16.9581 16.5 20.5C15.7611 20.631 15.0944 20.4643 14.5 20C15.3414 16.6243 15.6747 13.4576 15.5 10.5Z"
            fill="#FAF8F8" />
        <path fill-rule="evenodd" clip-rule="evenodd"
            d="M22.5 8.5C23.8333 9.16667 24.8333 10.1667 25.5 11.5C25.666 15.3734 24.666 16.0401 22.5 13.5C22.1667 12.8333 21.8333 12.1667 21.5 11.5C17.3922 9.67008 17.7255 8.67008 22.5 8.5Z"
            fill="#FAF0EC" />
        <path fill-rule="evenodd" clip-rule="evenodd"
            d="M-0.5 13.5C0.728127 14.3065 1.72813 15.3065 2.5 16.5C2.5 18.5 2.5 20.5 2.5 22.5C1.5 21.8333 0.5 21.1667 -0.5 20.5C-0.5 18.1667 -0.5 15.8333 -0.5 13.5Z"
            fill="#D1151C" />
        <path fill-rule="evenodd" clip-rule="evenodd"
            d="M17.5 7.5C17.5 7.16667 17.5 6.83333 17.5 6.5C19.5 6.5 21.5 6.5 23.5 6.5C24.5846 8.58689 26.2512 9.92022 28.5 10.5C28.5 14.1667 28.5 17.8333 28.5 21.5C28.1667 21.5 27.8333 21.5 27.5 21.5C27.8128 17.9581 27.4794 14.6248 26.5 11.5C26.1667 11.5 25.8333 11.5 25.5 11.5C24.8333 10.1667 23.8333 9.16667 22.5 8.5C21.0813 7.54885 19.4147 7.21552 17.5 7.5Z"
            fill="#C12527" />
        <path fill-rule="evenodd" clip-rule="evenodd"
            d="M28.5002 10.5C29.9001 11.0998 30.9001 12.0998 31.5002 13.5C31.5002 15.8333 31.5002 18.1667 31.5002 20.5C30.2504 20.5774 29.4171 21.244 29.0002 22.5C28.6014 22.2716 28.4348 21.9382 28.5002 21.5C28.5002 17.8333 28.5002 14.1667 28.5002 10.5Z"
            fill="#D3161B" />
        <path fill-rule="evenodd" clip-rule="evenodd"
            d="M7.5 7.49985C10.5133 7.10705 13.1799 7.77371 15.5 9.49985C15.5 9.83318 15.5 10.1665 15.5 10.4998C15.6747 13.4574 15.3414 16.6241 14.5 19.9998C15.0944 20.4641 15.7611 20.6308 16.5 20.4998C16.5 21.1665 16.5 21.8331 16.5 22.4998C15.6522 23.6248 14.6522 23.6248 13.5 22.4998C13.8128 18.9579 13.4794 15.6246 12.5 12.4998C11.1667 11.1665 9.83333 11.1665 8.5 12.4998C7.66175 12.8415 7.32842 13.5082 7.5 14.4998C6.5 13.8331 5.5 13.1665 4.5 12.4998C4.5 12.1665 4.5 11.8331 4.5 11.4998C4.83333 10.8331 5.16667 10.1665 5.5 9.49985C6.5 9.16652 7.16667 8.49985 7.5 7.49985Z"
            fill="#FAE5E9" />
        <path fill-rule="evenodd" clip-rule="evenodd"
            d="M4.4997 11.5C4.4997 11.8333 4.4997 12.1667 4.4997 12.5C4.18693 16.0419 4.52026 19.3752 5.4997 22.5C5.43971 23.0431 5.10637 23.3764 4.4997 23.5C3.19021 19.3507 3.19021 15.3507 4.4997 11.5Z"
            fill="#E2878E" />
        <path fill-rule="evenodd" clip-rule="evenodd"
            d="M18.5 12.5C18.5 15.8333 18.5 19.1667 18.5 22.5C18.5 22.8333 18.5 23.1667 18.5 23.5C16.9582 24.3007 15.2915 24.634 13.5 24.5C13.5 23.8333 13.5 23.1667 13.5 22.5C14.6522 23.625 15.6522 23.625 16.5 22.5C17.1667 19.1667 17.8333 15.8333 18.5 12.5Z"
            fill="#AC1B1F" />
        <path fill-rule="evenodd" clip-rule="evenodd"
            d="M18.5 12.5C20.2281 15.4218 21.2281 18.7551 21.5 22.5C20.5 22.5 19.5 22.5 18.5 22.5C18.5 19.1667 18.5 15.8333 18.5 12.5Z"
            fill="#D11419" />
        <path fill-rule="evenodd" clip-rule="evenodd"
            d="M12.5 12.5C12.5 16.5 12.5 20.5 12.5 24.5C11.0413 24.5674 9.70789 24.2341 8.49997 23.5C8.3711 20.1433 8.3711 16.4766 8.49997 12.5C9.8333 11.1667 11.1667 11.1667 12.5 12.5Z"
            fill="#C6181B" />
        <path fill-rule="evenodd" clip-rule="evenodd"
            d="M18.5 12.4998C19.209 11.5958 20.209 11.2625 21.5 11.4998C21.8333 12.1665 22.1667 12.8331 22.5 13.4998C22.3367 15.8566 22.5034 18.19 23 20.4998C23.6891 21.3565 24.5224 22.0231 25.5 22.4998C26.4892 18.8925 26.8226 15.2258 26.5 11.4998C27.4794 14.6246 27.8128 17.9579 27.5 21.4998C26.4479 23.2558 24.7812 23.9225 22.5 23.4998C22.5 22.8331 22.1667 22.4998 21.5 22.4998C21.2281 18.7549 20.2281 15.4216 18.5 12.4998Z"
            fill="#BC2D30" />
        <path fill-rule="evenodd" clip-rule="evenodd"
            d="M25.5001 11.5C25.8334 11.5 26.1668 11.5 26.5001 11.5C26.8227 15.226 26.4893 18.8927 25.5001 22.5C24.5225 22.0233 23.6892 21.3567 23.0001 20.5C22.5035 18.1902 22.3368 15.8568 22.5001 13.5C24.6661 16.0401 25.6661 15.3734 25.5001 11.5Z"
            fill="#FAE4E4" />
        <path fill-rule="evenodd" clip-rule="evenodd"
            d="M-0.5 20.5C0.5 21.1667 1.5 21.8333 2.5 22.5C2.5 23.8333 2.5 25.1667 2.5 26.5C4.09903 26.2322 5.43236 26.5655 6.5 27.5C6.16667 27.5 5.83333 27.5 5.5 27.5C3.28209 27.3862 1.28209 26.7196 -0.5 25.5C-0.5 23.8333 -0.5 22.1667 -0.5 20.5Z"
            fill="#C21215" />
        <path fill-rule="evenodd" clip-rule="evenodd"
            d="M18.5 22.5C19.5 22.5 20.5 22.5 21.5 22.5C22.1667 22.5 22.5 22.8333 22.5 23.5C23.911 25.539 25.911 26.539 28.5 26.5C28.1667 27.5 27.5 28.1667 26.5 28.5C25.469 27.7515 24.3024 27.0848 23 26.5C21.871 28.1412 20.371 29.1412 18.5 29.5C19.6414 27.4513 19.6414 25.4513 18.5 23.5C18.5 23.1667 18.5 22.8333 18.5 22.5Z"
            fill="#C11217" />
        <path fill-rule="evenodd" clip-rule="evenodd"
            d="M31.5 20.5C31.5 21.1667 31.5 21.8333 31.5 22.5C30.0256 23.4363 29.0256 24.7697 28.5 26.5C25.911 26.539 23.911 25.539 22.5 23.5C24.7812 23.9227 26.4479 23.256 27.5 21.5C27.8333 21.5 28.1667 21.5 28.5 21.5C28.4346 21.9382 28.6012 22.2716 29 22.5C29.4169 21.244 30.2502 20.5774 31.5 20.5Z"
            fill="#C11219" />
        <path fill-rule="evenodd" clip-rule="evenodd"
            d="M31.5 22.5C31.5 25.5 31.5 28.5 31.5 31.5C28.8333 31.5 26.1667 31.5 23.5 31.5C24.6085 30.71 25.9419 30.21 27.5 30C26.944 29.6174 26.6107 29.1174 26.5 28.5C27.5 28.1667 28.1667 27.5 28.5 26.5C29.0256 24.7697 30.0256 23.4363 31.5 22.5Z"
            fill="#BC121B" />
        <path fill-rule="evenodd" clip-rule="evenodd"
            d="M12.4998 12.5C13.4792 15.6248 13.8126 18.9581 13.4998 22.5C13.4998 23.1667 13.4998 23.8333 13.4998 24.5C13.4998 25.1667 13.1665 25.5 12.4998 25.5C11.2088 25.2627 10.2088 25.596 9.4998 26.5C8.59583 25.791 8.26249 24.791 8.4998 23.5C9.70772 24.2341 11.0411 24.5674 12.4998 24.5C12.4998 20.5 12.4998 16.5 12.4998 12.5Z"
            fill="#BF2526" />
        <path fill-rule="evenodd" clip-rule="evenodd"
            d="M5.50038 9.49998C5.16705 10.1667 4.83371 10.8333 4.50038 11.5C3.19089 15.3507 3.19089 19.3507 4.50038 23.5C5.10705 23.3764 5.44039 23.0431 5.50038 22.5C6.1178 22.3893 6.6178 22.056 7.00038 21.5C7.49703 19.1902 7.66369 16.8568 7.50038 14.5C7.3288 13.5084 7.66213 12.8417 8.50038 12.5C8.37151 16.4766 8.37151 20.1433 8.50038 23.5C8.26307 24.791 8.59641 25.791 9.50038 26.5C9.30629 30.0048 8.30629 30.3382 6.50038 27.5C5.43274 26.5655 4.09941 26.2322 2.50038 26.5C2.50038 25.1667 2.50038 23.8333 2.50038 22.5C2.50038 20.5 2.50038 18.5 2.50038 16.5C2.33826 14.4727 2.50492 12.4727 3.00038 10.5C3.67114 9.74754 4.50448 9.41421 5.50038 9.49998Z"
            fill="#BD1B21" />
        <path fill-rule="evenodd" clip-rule="evenodd"
            d="M4.50028 12.5C5.50028 13.1667 6.50028 13.8333 7.50028 14.5C7.66359 16.8568 7.49693 19.1902 7.00028 21.5C6.6177 22.056 6.1177 22.3893 5.50028 22.5C4.52084 19.3752 4.18751 16.0419 4.50028 12.5Z"
            fill="#FAEDE9" />
        <path fill-rule="evenodd" clip-rule="evenodd"
            d="M18.5005 23.5C19.6419 25.4513 19.6419 27.4513 18.5005 29.5C16.3872 28.7437 14.3872 28.5771 12.5005 29C11.8293 28.0138 11.8293 26.8471 12.5005 25.5C13.1672 25.5 13.5005 25.1667 13.5005 24.5C15.292 24.634 16.9587 24.3007 18.5005 23.5Z"
            fill="#BE1118" />
        <path fill-rule="evenodd" clip-rule="evenodd"
            d="M26.5 28.5C26.6107 29.1174 26.944 29.6174 27.5 30C25.9419 30.21 24.6085 30.71 23.5 31.5C21.8333 31.5 20.1667 31.5 18.5 31.5C18.5 30.8333 18.5 30.1667 18.5 29.5C20.371 29.1412 21.871 28.1412 23 26.5C24.3024 27.0848 25.469 27.7515 26.5 28.5Z"
            fill="#B91218" />
        <path fill-rule="evenodd" clip-rule="evenodd"
            d="M-0.5 25.5C1.28209 26.7196 3.28209 27.3862 5.5 27.5C4.16667 28.8333 4.16667 30.1667 5.5 31.5C3.5 31.5 1.5 31.5 -0.5 31.5C-0.5 29.5 -0.5 27.5 -0.5 25.5Z"
            fill="#BC121A" />
        <path fill-rule="evenodd" clip-rule="evenodd"
            d="M12.5 25.4998C11.8288 26.8469 11.8288 28.0136 12.5 28.9998C14.3867 28.5769 16.3867 28.7435 18.5 29.4998C18.5 30.1665 18.5 30.8331 18.5 31.4998C14.1667 31.4998 9.83333 31.4998 5.5 31.4998C4.16667 30.1665 4.16667 28.8331 5.5 27.4998C5.83333 27.4998 6.16667 27.4998 6.5 27.4998C8.30591 30.338 9.30591 30.0046 9.5 26.4998C10.209 25.5958 11.209 25.2625 12.5 25.4998Z"
            fill="#B71319" />
    </g>
    <defs>
        <clipPath id="clip0_5767_45">
            <rect width="32" height="32" fill="white" />
        </clipPath>
    </defs>
</svg>