<svg width="32" height="32" viewBox="0 0 32 32" fill="none" xmlns="http://www.w3.org/2000/svg">
    <path fill-rule="evenodd" clip-rule="evenodd"
        d="M15.0707 0C23.1147 0.108969 28.5543 3.88296 31.3892 11.322C33.225 19.0116 30.9227 25.1254 24.4823 29.6636C17.9875 33.1396 11.7637 32.737 5.81089 28.4559C0.568039 23.6793 -1.12706 17.8673 0.725603 11.0201C3.32385 4.53293 8.10555 0.859565 15.0707 0Z"
        fill="#BB192A" />
    <path fill-rule="evenodd" clip-rule="evenodd"
        d="M22.5086 7.85009C23.0938 7.75127 23.5239 7.95256 23.7989 8.45393C23.8747 9.30789 23.9 10.1633 23.8748 11.0202C24.686 10.9952 25.4956 11.0203 26.3036 11.0957C26.6695 11.2101 26.8213 11.4617 26.759 11.8505C26.7812 12.1576 26.6801 12.4092 26.4554 12.6053C25.5967 12.6807 24.7364 12.7059 23.8748 12.6808C23.8495 14.9458 23.8748 17.2102 23.9507 19.474C24.2742 20.2474 24.8561 20.5745 25.6964 20.4552C26.2417 20.9037 26.2922 21.4069 25.8482 21.9648C23.6694 22.4195 22.3791 21.5388 21.9773 19.323C21.9268 17.8134 21.8761 16.3038 21.8255 14.7942C20.6424 12.7921 18.9978 12.3141 16.892 13.3601C16.2366 13.8605 15.7558 14.4895 15.4499 15.2471C15.2555 17.3503 15.1542 19.4637 15.1463 21.5874C14.7579 22.0175 14.2771 22.1434 13.7042 21.9648C13.5219 21.8285 13.3954 21.6525 13.3247 21.4365C13.2741 19.2728 13.2235 17.1089 13.1729 14.9452C12.5149 13.2488 11.2752 12.5694 9.45384 12.9072C8.01175 13.335 7.07564 14.2659 6.64555 15.7C6.59495 17.6625 6.54434 19.625 6.49375 21.5874C5.93714 22.1913 5.38055 22.1913 4.82395 21.5874C4.72275 18.216 4.72275 14.8445 4.82395 11.4731C5.38055 10.8693 5.93714 10.8693 6.49375 11.4731C6.54434 11.8254 6.59495 12.1776 6.64555 12.5298C7.91546 11.2033 9.45876 10.7252 11.2754 11.0957C12.6591 11.3934 13.747 12.1231 14.5391 13.2846C15.2956 12.1658 16.3328 11.4361 17.651 11.0957C19.0669 11.0203 20.4838 10.9951 21.9014 11.0202C21.8762 10.1633 21.9016 9.30789 21.9773 8.45393C22.0821 8.17462 22.2591 7.97333 22.5086 7.85009Z"
        fill="#F8F6F5" />
</svg>