<svg width="32" height="32" viewBox="0 0 32 32" fill="none" xmlns="http://www.w3.org/2000/svg">
    <g clip-path="url(#clip0_5711_61)">
        <path fill-rule="evenodd" clip-rule="evenodd"
            d="M31.8599 5.75416C31.8599 7.15767 31.8599 8.56118 31.8599 9.96469C21.1932 9.96469 10.5265 9.96469 -0.140137 9.96469C-0.140137 8.56118 -0.140137 7.15767 -0.140137 5.75416C0.270137 5.48533 0.644405 5.15784 0.98267 4.77171C2.19546 4.63164 3.41184 4.58484 4.63179 4.63136C4.66983 5.48789 4.57627 6.32999 4.35109 7.15767C4.36695 7.5049 4.5073 7.7856 4.77214 7.99978C4.8657 6.22201 4.95929 4.44421 5.05285 2.66644C5.46208 2.31645 5.88313 2.31645 6.316 2.66644C6.58946 3.29597 6.68305 3.95093 6.59671 4.63136C7.71951 4.63136 8.84232 4.63136 9.96513 4.63136C9.91929 3.9698 9.96608 3.31481 10.1055 2.66644C10.6494 2.28464 11.1172 2.37821 11.509 2.94714C11.6481 3.50089 11.6948 4.06229 11.6493 4.63136C12.7721 4.63136 13.895 4.63136 15.0178 4.63136C14.9719 3.9698 15.0187 3.31481 15.1581 2.66644C15.626 2.29218 16.0938 2.29218 16.5616 2.66644C16.701 3.31481 16.7478 3.9698 16.702 4.63136C17.8248 4.63136 18.9476 4.63136 20.0704 4.63136C20.0249 4.06229 20.0717 3.50089 20.2107 2.94714C20.6025 2.37821 21.0704 2.28464 21.6142 2.66644C21.7536 3.31481 21.8004 3.9698 21.7546 4.63136C22.8774 4.63136 24.0002 4.63136 25.123 4.63136C25.0367 3.95093 25.1303 3.29597 25.4037 2.66644C25.8366 2.31645 26.2576 2.31645 26.6669 2.66644C26.7604 4.44421 26.854 6.22201 26.9476 7.99978C27.2124 7.7856 27.3528 7.5049 27.3686 7.15767C27.1435 6.32999 27.0499 5.48789 27.0879 4.63136C28.2147 4.5849 29.3375 4.63169 30.4564 4.77171C30.9681 5.05165 31.436 5.37912 31.8599 5.75416ZM9.96513 7.99978C9.292 7.61176 9.24521 7.14392 9.82478 6.59627C9.9633 7.05496 10.0101 7.52281 9.96513 7.99978ZM11.6493 7.99978C11.6044 7.52281 11.6512 7.05496 11.7897 6.59627C12.332 7.12769 12.2852 7.59551 11.6493 7.99978ZM20.0704 7.99978C19.4345 7.59551 19.3878 7.12769 19.93 6.59627C20.0686 7.05496 20.1154 7.52281 20.0704 7.99978ZM21.7546 7.99978C21.7096 7.52281 21.7564 7.05496 21.895 6.59627C22.4745 7.14392 22.4277 7.61176 21.7546 7.99978Z"
            fill="#F96400" />
        <path fill-rule="evenodd" clip-rule="evenodd"
            d="M-0.140137 10.5264C10.5265 10.5264 21.1932 10.5264 31.8599 10.5264C31.8599 16.4211 31.8599 22.3158 31.8599 28.2106C31.2718 28.4666 30.7104 28.7942 30.1757 29.193C20.6318 29.3803 11.0879 29.3803 1.54407 29.193C1.00939 28.7942 0.44799 28.4666 -0.140137 28.2106C-0.140137 22.3158 -0.140137 16.4211 -0.140137 10.5264Z"
            fill="#FA6606" />
        <path fill-rule="evenodd" clip-rule="evenodd"
            d="M25.9649 26.2456C24.8421 26.2456 23.7193 26.2456 22.5965 26.2456C22.6885 23.201 22.5949 20.2068 22.3158 17.2631C21.8444 15.7173 20.8152 15.2027 19.2281 15.7193C18.4195 16.0703 17.9049 16.6785 17.6842 17.5438C17.5439 20.4429 17.4971 23.3435 17.5439 26.2456C16.4211 26.2456 15.2983 26.2456 14.1754 26.2456C14.3038 22.9422 14.1635 19.6673 13.7544 16.421C11.8412 15.0297 10.3909 15.404 9.40352 17.5438C9.12444 20.3938 9.03086 23.2944 9.12282 26.2456C8.00001 26.2456 6.8772 26.2456 5.75439 26.2456C5.75439 21.8479 5.75439 17.4503 5.75439 13.0526C6.8772 13.0526 8.00001 13.0526 9.12282 13.0526C9.07731 13.6217 9.12408 14.1831 9.26317 14.7368C11.2179 12.6263 13.5103 12.2052 16.1404 13.4736C16.5751 13.8144 16.9026 14.2355 17.1228 14.7368C19.1707 12.6087 21.5566 12.1877 24.2807 13.4736C24.9008 13.9995 25.4154 14.6077 25.8246 15.2982C25.9649 18.9461 26.0117 22.5952 25.9649 26.2456Z"
            fill="#FAF8F8" />
        <path fill-rule="evenodd" clip-rule="evenodd"
            d="M9.40352 17.5439C9.40352 20.5381 9.40352 23.5322 9.40352 26.5264C8.13129 26.6157 6.91493 26.5222 5.75439 26.2457C6.8772 26.2457 8.00001 26.2457 9.12282 26.2457C9.03086 23.2945 9.12444 20.394 9.40352 17.5439Z"
            fill="#FAC5A1" />
        <path fill-rule="evenodd" clip-rule="evenodd"
            d="M22.3159 17.2632C22.595 20.2069 22.6886 23.201 22.5966 26.2456C23.7194 26.2456 24.8422 26.2456 25.965 26.2456C24.8045 26.5221 23.5881 26.6157 22.3159 26.5263C22.3159 23.4386 22.3159 20.3509 22.3159 17.2632Z"
            fill="#FAC6A2" />
    </g>
    <defs>
        <clipPath id="clip0_5711_61">
            <rect width="32" height="32" fill="white" />
        </clipPath>
    </defs>
</svg>