<svg xmlns="http://www.w3.org/2000/svg" viewBox="0 0 912 912">
<defs>
<linearGradient id="b" x1="48.5" x2="48.5" y1="-98.5" y2="702.5" gradientUnits="userSpaceOnUse">
<stop stop-color="#f5f5f5" offset=".433"/>
<stop stop-color="#c2c4c3" offset=".824"/>
</linearGradient>
</defs>
<path d="M0 0h912v912H0z" fill="#3e8fd7"/>
<path transform="translate(419 176)" fill="url(#b)" d="M0 0h6L5 6-8 38l-16 41-15 38-11 30-8 24 12-11 10-8 10-9 14-11 16-13 19-14 20-14 20-13 13-8 26-15 23-12 27-12 31-11 25-6 18-3 9-1h26l18 2 23 5 20 7 19 10 11 9 7 7 7 10 9 19 5 18 2 13 1 23-2 23-5 28-7 28-12 36-14 37-16 40-11 28-19 49-13 34-2 6 1 7 4 5 12 4h19l22-5 21-7 26-11 25-12 4-1 10 19 11 23 12 25v4l-11 7-17 12-23 16-15 10-21 13-24 13-16 8-22 10-28 10-28 7-24 4-9 1h-34l-24-4-21-6-13-5-16-7-17-10-12-9-10-9-8-8-11-15-9-17-7-21-3-15v-33l4-26 8-32 11-33 13-32 14-33 8-19 12-28 18-41 5-13 1-8v-11l-21 9-18 10-18 12-17 12-16 12-13 10-16 13-11 9-10 9-12 11-11 11-8 7-47 47-3 5-4 25-4 37-2 33v63l2 40 2 25-5 2-148 23-55 9-11 1-5-18-7-33-6-35-5-41-3-46v-37l2-34 4-34 6-35 8-34 12-40 16-44 16-39 18-41 14-30 10-21 3-2 144-24L-7 1z"/>
</svg>
