<svg width="32" height="32" viewBox="0 0 32 32" fill="none" xmlns="http://www.w3.org/2000/svg">
    <g clip-path="url(#clip0_5694_567)">
        <path
            d="M26.6544 3.30126C29.5704 5.79065 31.4121 9.05345 31.9999 12.8505C32.3847 17.7645 32.0276 22.4058 28.9202 26.4253C26.232 29.5608 22.3933 31.7069 18.2338 32.0558C14.3472 32.2184 10.7784 32.0203 7.36898 29.9479C6.30726 29.5435 5.46189 29.9119 4.45362 30.3396C4.17397 30.477 3.89431 30.6144 3.60618 30.756C2.09626 31.4961 2.09626 31.4961 1.25973 31.4961C1.69587 30.0985 2.19599 28.7848 2.85422 27.4755C3.0658 26.8321 3.01917 26.5808 2.77154 25.9528C2.50163 25.5016 2.22219 25.056 1.93689 24.6143C0.29158 21.7908 -0.0859029 19.1646 -0.110352 15.9528C-0.11293 15.6926 -0.115508 15.4324 -0.118164 15.1643C-0.0707419 10.9948 1.41606 7.3201 4.28335 4.28355C10.2357 -1.43393 20.1724 -1.58982 26.6544 3.30126ZM10.5353 12.0473C9.35973 14.1147 9.34123 16.3488 9.90638 18.6211C10.4574 20.312 11.7953 21.5984 13.3326 22.4361C14.8413 23.0762 16.3644 23.1908 17.9211 22.6615C19.4894 22.1501 20.7768 22.7922 22.1692 23.4981C22.7161 23.7595 22.7161 23.7595 23.433 23.4332C23.2605 23.1038 23.2605 23.1038 23.0845 22.7678C22.0133 20.5977 21.8264 19.2767 22.4251 16.882C22.6583 14.9463 22.1623 12.9908 21.0865 11.3702C19.9246 9.89607 18.451 9.23315 16.6062 9.00599C13.9574 8.86609 12.121 10.0086 10.5353 12.0473Z"
            fill="#031477" />
        <path
            d="M18.1418 8.56689C18.1418 8.81634 18.1418 9.06579 18.1418 9.3228C17.144 9.23965 16.1462 9.1565 15.1182 9.07083C15.1182 8.98768 15.1182 8.90453 15.1182 8.81886C15.4803 8.77635 15.8425 8.73448 16.2048 8.69288C16.4065 8.66949 16.6082 8.64611 16.816 8.62201C17.3859 8.56689 17.3859 8.56689 18.1418 8.56689Z"
            fill="#081567" />
    </g>
    <defs>
        <clipPath id="clip0_5694_567">
            <rect width="32" height="32" fill="white" />
        </clipPath>
    </defs>
</svg>