<svg width="32" height="32" viewBox="0 0 32 32" fill="none" xmlns="http://www.w3.org/2000/svg">
    <path fill-rule="evenodd" clip-rule="evenodd"
        d="M25.5995 0C25.9551 0 26.3106 0 26.6662 0C26.6072 0.282251 26.4294 0.510823 26.1329 0.685714C27.6261 2.41146 29.0483 4.16384 30.3995 5.94286C29.1887 7.07419 27.7665 7.98848 26.1329 8.68571C25.197 6.55621 23.7748 4.65145 21.8662 2.97143C22.1627 2.79654 22.3405 2.56796 22.3995 2.28571C23.4662 1.52381 24.5329 0.761906 25.5995 0Z"
        fill="#0B4868" />
    <path fill-rule="evenodd" clip-rule="evenodd"
        d="M26.6671 0C27.3782 0 28.0894 0 28.8005 0C30.1824 1.0624 31.249 2.35764 32.0005 3.88571C31.7057 4.74414 31.1723 5.42985 30.4005 5.94286C29.0492 4.16384 27.627 2.41146 26.1338 0.685714C26.4303 0.510823 26.6081 0.282251 26.6671 0Z"
        fill="#083C60" />
    <path fill-rule="evenodd" clip-rule="evenodd"
        d="M22.3996 2.28613C22.3406 2.56838 22.1628 2.79695 21.8663 2.97185C23.7749 4.65187 25.1971 6.55662 26.1329 8.68613C25.0025 9.55461 23.7581 10.3165 22.3996 10.9718C21.41 8.60462 19.81 6.62364 17.5996 5.02899C18.9198 3.77591 20.5198 2.86163 22.3996 2.28613Z"
        fill="#0E5473" />
    <path fill-rule="evenodd" clip-rule="evenodd"
        d="M17.5999 5.02832C19.8103 6.62297 21.4103 8.60395 22.3999 10.9712C20.5347 12.152 18.5791 13.2187 16.5333 14.1712C15.3243 11.9202 13.9021 9.78681 12.2666 7.77118C13.9139 6.66265 15.6916 5.74837 17.5999 5.02832Z"
        fill="#116381" />
    <path fill-rule="evenodd" clip-rule="evenodd"
        d="M12.2665 7.77148C13.902 9.78712 15.3242 11.9205 16.5332 14.1715C15.7869 14.8068 14.8981 15.2639 13.8665 15.5429C13.1624 14.0317 12.1847 12.6603 10.9332 11.4286C10.3311 10.6784 9.53107 10.2212 8.5332 10.0572C9.6636 9.18872 10.908 8.42684 12.2665 7.77148Z"
        fill="#11748D" />
    <path fill-rule="evenodd" clip-rule="evenodd"
        d="M8.53314 10.0576C9.531 10.2216 10.331 10.6788 10.9331 11.429C12.1846 12.6607 13.1624 14.0322 13.8665 15.5433C12.5463 16.7964 10.9463 17.7107 9.06647 18.2862C7.24476 16.5384 5.82252 14.5575 4.7998 12.3433C5.88316 11.4188 7.12759 10.6569 8.53314 10.0576Z"
        fill="#1B829A" />
    <path fill-rule="evenodd" clip-rule="evenodd"
        d="M28.8 18.7433C27.3906 16.6257 25.7906 14.6448 24 12.8004C27.7869 11.1447 30.2758 12.1352 31.4667 15.7719C31.0738 17.098 30.1849 18.0884 28.8 18.7433Z"
        fill="#2597AB" />
    <path fill-rule="evenodd" clip-rule="evenodd"
        d="M4.79943 12.3428C5.82215 14.5569 7.24439 16.5378 9.06609 18.2856C6.51207 20.6972 3.93427 20.6972 1.33276 18.2856C-0.275528 15.1596 0.880024 13.1787 4.79943 12.3428Z"
        fill="#2495A9" />
    <path fill-rule="evenodd" clip-rule="evenodd"
        d="M23.9998 12.7998C25.7904 14.6442 27.3904 16.6251 28.7998 18.7427C27.8906 19.5162 26.8239 20.1257 25.5998 20.5712C24.1904 18.4537 22.5904 16.4728 20.7998 14.6284C21.709 13.8548 22.7757 13.2453 23.9998 12.7998Z"
        fill="#238AA1" />
    <path fill-rule="evenodd" clip-rule="evenodd"
        d="M20.7996 14.6289C22.5902 16.4733 24.1902 18.4542 25.5996 20.5718C24.8533 21.2071 23.9645 21.6642 22.9329 21.9432C22.1237 21.9383 21.5014 21.6336 21.0663 21.0289C20.0017 19.4354 18.8462 17.9116 17.5996 16.4575C18.5088 15.6839 19.5755 15.0744 20.7996 14.6289Z"
        fill="#187D96" />
    <path fill-rule="evenodd" clip-rule="evenodd"
        d="M17.6004 16.457C18.847 17.9112 20.0025 19.435 21.0671 21.0285C21.5022 21.6332 22.1244 21.9379 22.9337 21.9427C21.8504 22.8673 20.6059 23.6292 19.2004 24.2285C18.3306 22.0272 16.7306 20.0463 14.4004 18.2856C15.3096 17.5121 16.3763 16.9026 17.6004 16.457Z"
        fill="#11738C" />
    <path fill-rule="evenodd" clip-rule="evenodd"
        d="M14.4003 18.2861C16.7306 20.0468 18.3306 22.0278 19.2003 24.229C18.454 24.8643 17.5652 25.3214 16.5337 25.6004C16.1396 25.6603 15.784 25.5841 15.467 25.3718C13.9114 23.6637 12.3114 22.0637 10.667 20.5718C11.7504 19.6473 12.9948 18.8854 14.4003 18.2861Z"
        fill="#0F6784" />
    <path fill-rule="evenodd" clip-rule="evenodd"
        d="M10.6668 20.5713C12.3112 22.0631 13.9112 23.6631 15.4668 25.3713C15.7838 25.5835 16.1394 25.6597 16.5335 25.5999C15.2132 26.8529 13.6132 27.7672 11.7335 28.3427C10.2969 26.3538 8.87469 24.3728 7.4668 22.3999C8.34546 21.5649 9.41213 20.9554 10.6668 20.5713Z"
        fill="#105877" />
    <path fill-rule="evenodd" clip-rule="evenodd"
        d="M7.46699 22.4004C8.87489 24.3734 10.2971 26.3544 11.7337 28.3432C10.855 29.1782 9.78833 29.7877 8.53366 30.1718C7.97259 30.2402 7.43926 30.164 6.93366 29.9432C5.37964 28.3888 3.95742 26.7888 2.66699 25.1432C3.98719 23.8902 5.58719 22.9759 7.46699 22.4004Z"
        fill="#0C4D6B" />
    <path fill-rule="evenodd" clip-rule="evenodd"
        d="M2.66641 25.1431C3.95683 26.7886 5.37905 28.3886 6.93307 29.9431C7.43867 30.1638 7.97201 30.24 8.53307 30.1717C7.82198 30.7812 7.11083 31.3907 6.39974 32.0002C6.22198 32.0002 6.04417 32.0002 5.86641 32.0002C4.3912 29.9226 2.7912 27.9416 1.06641 26.0574C1.3187 25.4145 1.85204 25.1097 2.66641 25.1431Z"
        fill="#0B4464" />
    <path fill-rule="evenodd" clip-rule="evenodd"
        d="M1.06667 26.0576C2.79146 27.9419 4.39146 29.9228 5.86667 32.0005C4.8 32.0005 3.73333 32.0005 2.66667 32.0005C1.76194 31.0749 0.873045 30.1606 0 29.2576C0 28.3433 0 27.429 0 26.5148C0.355556 26.3624 0.711111 26.21 1.06667 26.0576Z"
        fill="#073C60" />
</svg>