<svg width="32" height="32" viewBox="0 0 32 32" fill="none" xmlns="http://www.w3.org/2000/svg">
    <g clip-path="url(#clip0_5718_281)">
        <path fill-rule="evenodd" clip-rule="evenodd"
            d="M-0.0800781 -0.0800781C10.5866 -0.0800781 21.2532 -0.0800781 31.9199 -0.0800781C31.9199 10.5866 31.9199 21.2532 31.9199 31.9199C21.2532 31.9199 10.5866 31.9199 -0.0800781 31.9199C-0.0800781 21.2532 -0.0800781 10.5866 -0.0800781 -0.0800781Z"
            fill="#F9F9F9" />
        <path fill-rule="evenodd" clip-rule="evenodd"
            d="M22.4801 23.92C22.2017 23.5241 21.9617 23.0974 21.7601 22.64C21.2414 20.9117 20.6814 19.2051 20.0801 17.52C21.045 13.8205 22.085 10.1405 23.2001 6.47998C23.9302 5.51054 24.8636 5.27054 26.0001 5.75998C26.8055 6.27692 27.099 6.99692 26.8801 7.91998C25.3625 13.2441 23.8958 18.5774 22.4801 23.92Z"
            fill="#212121" />
        <path fill-rule="evenodd" clip-rule="evenodd"
            d="M11.1204 15.12C10.8305 14.8184 10.6438 14.445 10.5604 14C10.4537 14.1067 10.347 14.2134 10.2404 14.32C10.1958 13.8231 10.2224 13.3697 10.3204 12.96C10.0291 12.8033 9.84244 12.5633 9.76036 12.24C9.56463 12.7115 9.24463 12.8715 8.80036 12.72C8.69369 12.56 8.69369 12.4 8.80036 12.24C8.96735 12.0604 9.07402 11.8471 9.12036 11.6C9.26381 12.2263 9.34381 12.1997 9.36036 11.52C9.32485 11.0491 9.2182 10.5957 9.04036 10.16C8.86818 10.7848 8.54818 11.3181 8.08036 11.76C7.95111 12.0678 7.87111 12.3878 7.84036 12.72C7.83961 12.2834 7.65295 11.9634 7.28036 11.76C7.22703 11.8134 7.17369 11.8667 7.12036 11.92C7.29527 12.4973 7.32194 13.084 7.20036 13.68C7.16829 13.9712 7.03497 14.1845 6.80036 14.32C6.24474 12.3129 5.68474 10.2862 5.12036 8.24004C4.70367 6.20346 5.53034 5.27012 7.60036 5.44004C8.10305 5.67658 8.50305 6.02325 8.80036 6.48004C9.53004 9.37709 10.3034 12.2571 11.1204 15.12Z"
            fill="#3E93AA" />
        <path fill-rule="evenodd" clip-rule="evenodd"
            d="M11.1198 15.1199C11.1198 15.2799 11.1198 15.4399 11.1198 15.5999C10.8315 15.9787 10.7248 16.3788 10.7998 16.7999C11.2301 17.4705 11.5501 18.1905 11.7598 18.9599C11.7635 19.2106 11.6835 19.4239 11.5198 19.5999C11.5465 19.3066 11.5731 19.0132 11.5998 18.7199C11.3598 18.3732 11.1731 18.3999 11.0398 18.7999C10.8605 19.3585 10.9938 19.8118 11.4398 20.1599C11.0906 20.6511 11.1972 21.0777 11.7598 21.4399C11.612 21.9671 11.8253 22.3137 12.3998 22.4799C12.4771 23.0116 12.7171 23.4383 13.1198 23.7599C13.2265 24.1866 13.2265 24.6132 13.1198 25.0399C13.0536 24.9668 12.9736 24.9134 12.8798 24.8799C12.7579 25.0604 12.6512 25.2471 12.5598 25.4399C12.2417 25.4687 11.9217 25.4422 11.5998 25.3599C11.5966 25.6228 11.7033 25.8361 11.9198 25.9999C11.8011 26.1258 11.6677 26.2324 11.5198 26.3199C11.1087 26.2385 10.7353 26.0785 10.3998 25.8399C10.2794 25.3063 10.0927 24.7996 9.8398 24.3199C10.2287 23.9511 10.3887 23.4978 10.3198 22.9599C10.1598 22.9599 9.9998 22.9599 9.8398 22.9599C9.86544 23.2318 9.83876 23.4985 9.7598 23.7599C9.45825 23.6298 9.3516 23.4164 9.4398 23.1199C9.74174 22.8758 9.90174 22.5558 9.9198 22.1599C10.0798 22.2132 10.2398 22.2666 10.3998 22.3199C10.4465 21.453 10.5799 20.5996 10.7998 19.7599C10.8645 19.1542 10.7312 19.0476 10.3998 19.4399C10.2817 19.006 10.3884 18.6327 10.7198 18.3199C10.8919 17.7492 10.7585 17.2692 10.3198 16.8799C10.2665 16.9332 10.2131 16.9866 10.1598 17.0399C10.2665 17.1999 10.3731 17.3599 10.4798 17.5199C10.2173 18.0092 10.0839 18.5426 10.0798 19.1199C9.98137 19.3785 9.82137 19.5918 9.5998 19.7599C9.4323 18.7697 9.16563 17.8097 8.7998 16.8799C8.67363 17.4545 8.7003 18.0145 8.8798 18.5599C8.7198 18.6399 8.5598 18.7199 8.3998 18.7999C8.2891 18.3767 8.1291 17.9767 7.9198 17.5999C8.55452 17.5567 8.55452 17.3167 7.9198 16.8799C7.78838 16.4084 7.70838 15.9285 7.6798 15.4399C7.551 15.8241 7.41768 15.7974 7.2798 15.3599C7.60355 14.8506 7.68355 14.2906 7.5198 13.6799C7.25564 14.0406 7.22897 14.414 7.4398 14.7999C7.35905 15.0269 7.19905 15.1335 6.9598 15.1199C6.87372 14.8612 6.8204 14.5945 6.7998 14.3199C7.03441 14.1844 7.16774 13.9711 7.1998 13.6799C7.32139 13.0838 7.29472 12.4972 7.1198 11.9199C7.17313 11.8666 7.22648 11.8132 7.2798 11.7599C7.6524 11.9632 7.83905 12.2832 7.8398 12.7199C7.87056 12.3876 7.95056 12.0676 8.0798 11.7599C8.54763 11.318 8.86763 10.7847 9.0398 10.1599C9.21764 10.5956 9.3243 11.0489 9.3598 11.5199C9.34326 12.1995 9.26326 12.2262 9.1198 11.5999C9.07347 11.847 8.9668 12.0603 8.7998 12.2399C8.69313 12.3999 8.69313 12.5599 8.7998 12.7199C9.24408 12.8714 9.56408 12.7114 9.7598 12.2399C9.84188 12.5632 10.0286 12.8032 10.3198 12.9599C10.2219 13.3696 10.1952 13.8229 10.2398 14.3199C10.3465 14.2132 10.4531 14.1066 10.5598 13.9999C10.6433 14.4449 10.83 14.8182 11.1198 15.1199Z"
            fill="#398FAE" />
        <path fill-rule="evenodd" clip-rule="evenodd"
            d="M13.8398 11.76C14.3774 13.4533 14.9374 15.16 15.5198 16.88C15.6723 17.3491 15.7523 17.8291 15.7598 18.32C15.0667 20.2392 14.3733 22.1592 13.6798 24.08C13.4452 23.9445 13.3118 23.7312 13.2798 23.44C12.7893 21.5154 12.2826 19.5954 11.7598 17.68C11.8178 17.5707 11.8711 17.464 11.9198 17.36C12.4983 15.4643 13.1383 13.5976 13.8398 11.76Z"
            fill="#202222" />
        <path fill-rule="evenodd" clip-rule="evenodd"
            d="M11.12 15.5999C11.3485 16.066 11.5085 16.5726 11.6 17.1199C11.6537 17.2847 11.7604 17.3647 11.92 17.3599C11.8713 17.4639 11.818 17.5707 11.76 17.6799C12.2828 19.5953 12.7895 21.5153 13.28 23.4399C13.312 23.7311 13.4454 23.9444 13.68 24.0799C13.5899 25.0105 13.1632 25.7305 12.4 26.2399C11.3211 26.7185 10.4411 26.4785 9.75996 25.5199C8.80177 22.0606 7.86844 18.5939 6.95996 15.1199C7.19921 15.1336 7.35921 15.0269 7.43996 14.7999C7.22913 14.414 7.2558 14.0406 7.51996 13.6799C7.6837 14.2906 7.6037 14.8506 7.27996 15.3599C7.41783 15.7974 7.55116 15.8241 7.67996 15.4399C7.70854 15.9285 7.78854 16.4084 7.91996 16.8799C8.55468 17.3167 8.55468 17.5567 7.91996 17.5999C8.12926 17.9767 8.28926 18.3767 8.39996 18.7999C8.55996 18.7199 8.71996 18.6399 8.87996 18.5599C8.70046 18.0145 8.67378 17.4545 8.79996 16.8799C9.16578 17.8097 9.43246 18.7697 9.59996 19.7599C9.82153 19.5918 9.98153 19.3785 10.08 19.1199C10.0841 18.5427 10.2174 18.0092 10.48 17.5199C10.3733 17.3599 10.2666 17.1999 10.16 17.0399C10.2133 16.9867 10.2666 16.9332 10.32 16.8799C10.7587 17.2692 10.892 17.7492 10.72 18.3199C10.3885 18.6327 10.2819 19.006 10.4 19.4399C10.7313 19.0476 10.8647 19.1542 10.8 19.7599C10.58 20.5996 10.4467 21.4531 10.4 22.3199C10.24 22.2667 10.08 22.2132 9.91996 22.1599C9.9019 22.5558 9.7419 22.8758 9.43996 23.1199C9.35175 23.4164 9.45841 23.6299 9.75996 23.7599C9.83892 23.4985 9.86559 23.2318 9.83996 22.9599C9.99996 22.9599 10.16 22.9599 10.32 22.9599C10.3888 23.4979 10.2288 23.9511 9.83996 24.3199C10.0929 24.7996 10.2795 25.3063 10.4 25.8399C10.7355 26.0785 11.1088 26.2385 11.52 26.3199C11.6679 26.2324 11.8012 26.1259 11.92 25.9999C11.7034 25.8361 11.5968 25.6228 11.6 25.3599C11.9218 25.4422 12.2418 25.4687 12.56 25.4399C12.6514 25.2471 12.758 25.0604 12.88 24.8799C12.9737 24.9134 13.0537 24.9668 13.12 25.0399C13.2266 24.6132 13.2266 24.1867 13.12 23.7599C12.7172 23.4383 12.4772 23.0116 12.4 22.4799C11.8255 22.3137 11.6122 21.9671 11.76 21.4399C11.1974 21.0777 11.0907 20.6511 11.44 20.1599C10.994 19.8118 10.8606 19.3585 11.04 18.7999C11.1733 18.3999 11.36 18.3732 11.6 18.7199C11.5733 19.0132 11.5466 19.3067 11.52 19.5999C11.6836 19.4239 11.7636 19.2107 11.76 18.9599C11.5503 18.1905 11.2303 17.4705 10.8 16.7999C10.725 16.3788 10.8316 15.9788 11.12 15.5999Z"
            fill="#4092A9" />
        <path fill-rule="evenodd" clip-rule="evenodd"
            d="M20.0798 17.52C20.6811 19.2052 21.2411 20.9117 21.7598 22.64C21.9614 23.0975 22.2014 23.5242 22.4798 23.92C22.3632 24.7381 22.0432 25.4581 21.5198 26.08C20.1934 26.7896 19.1534 26.4964 18.3998 25.2C17.6848 23.0015 16.9381 20.8148 16.1598 18.64C16.0931 18.4391 15.9598 18.3324 15.7598 18.32C15.7524 17.8292 15.6724 17.3492 15.5198 16.88C14.9375 15.16 14.3775 13.4533 13.8398 11.76C14.1458 10.2729 15.0525 9.6596 16.5598 9.92003C17.0774 10.1377 17.4774 10.4844 17.7598 10.96C18.4618 13.186 19.235 15.3727 20.0798 17.52Z"
            fill="#4192A8" />
        <path fill-rule="evenodd" clip-rule="evenodd"
            d="M18.7997 18.1599C19.1056 18.3967 19.2923 18.7167 19.3597 19.1199C19.3947 18.8898 19.4747 18.6766 19.5997 18.4799C19.7262 18.5705 19.7262 18.7038 19.5997 18.8799C19.6797 19.1199 19.7597 19.3599 19.8397 19.5999C20.1384 20.0164 20.3784 20.4697 20.5597 20.9599C20.4866 21.0262 20.4331 21.1062 20.3997 21.1999C20.7808 21.6444 20.7808 22.0711 20.3997 22.4799C20.583 22.675 20.743 22.8882 20.8797 23.1199C21.1024 22.9431 21.2891 22.7297 21.4397 22.4799C21.519 22.7255 21.4925 22.9655 21.3597 23.1999C21.4518 23.4742 21.6386 23.6609 21.9197 23.7599C22.0264 24.2399 22.0264 24.7199 21.9197 25.1999C21.468 25.3326 21.1746 25.6258 21.0397 26.0799C20.707 26.2092 20.387 26.1825 20.0797 25.9999C20.304 25.7852 20.2507 25.6518 19.9197 25.5999C20.1008 24.8938 20.1275 24.1738 19.9997 23.4399C19.893 23.3332 19.7864 23.2266 19.6797 23.1199C19.2021 23.8004 19.1754 24.4938 19.5997 25.1999C19.2077 25.797 18.941 25.7705 18.7997 25.1199C18.8229 24.9964 18.8762 24.8897 18.9597 24.7999C18.7798 24.7601 18.6198 24.6801 18.4797 24.5599C18.6693 23.9962 18.9893 23.5162 19.4397 23.1199C19.151 22.917 18.831 22.8103 18.4797 22.7999C18.4797 22.9599 18.4797 23.1199 18.4797 23.2799C18.3197 23.2799 18.1597 23.2799 17.9997 23.2799C18.0626 22.7311 17.956 22.2246 17.6797 21.7599C17.7638 21.1508 17.7638 20.5108 17.6797 19.8399C17.7934 19.6391 17.9267 19.4526 18.0797 19.2799C18.1398 19.6815 18.2733 20.0548 18.4797 20.3999C18.8336 20.5679 19.047 20.4346 19.1197 19.9999C18.8507 19.4258 18.744 18.8124 18.7997 18.1599Z"
            fill="#398FAE" />
        <path fill-rule="evenodd" clip-rule="evenodd"
            d="M15.1199 10.48C15.5187 10.6838 15.9453 10.7904 16.3999 10.8C16.4237 10.9683 16.3971 11.1283 16.3199 11.28C16.2666 11.2267 16.2131 11.1733 16.1599 11.12C16.0266 11.28 15.8932 11.44 15.7599 11.6C15.5259 11.4446 15.3126 11.498 15.1199 11.76C14.8717 12.3101 14.9517 12.7901 15.3599 13.2C15.4789 12.2428 15.9322 11.9761 16.7199 12.4C16.6864 12.4937 16.633 12.5737 16.5599 12.64C17.0847 12.6489 17.5647 12.7823 17.9999 13.04C17.7563 13.305 17.8096 13.4917 18.1599 13.6C17.988 13.7182 17.8813 13.8782 17.8399 14.08C17.997 14.1409 18.1035 14.2742 18.1599 14.48C17.9067 14.8586 17.96 15.1786 18.3199 15.44C18.1834 16.1147 18.2901 16.7547 18.6399 17.36C18.4424 18.9029 18.2291 18.9561 17.9999 17.52C17.8891 17.604 17.8091 17.7107 17.7599 17.84C17.6266 17.2 17.4931 16.56 17.3599 15.92C17.2531 15.8133 17.1466 15.7067 17.0399 15.6C16.8935 16.2904 16.7602 16.9837 16.6399 17.68C16.2514 18.0758 16.1714 17.9958 16.3999 17.44C16.1675 17.1267 16.1143 16.8067 16.2399 16.48C16.125 16.1621 15.965 15.8687 15.7599 15.6C16.172 15.3786 16.1186 15.2453 15.5999 15.2C14.7333 14.2748 14.36 13.1015 14.4799 11.68C14.5615 11.3878 14.6949 11.3611 14.8799 11.6C14.9502 11.2214 15.0302 10.8481 15.1199 10.48Z"
            fill="#398FAE" />
    </g>
    <defs>
        <clipPath id="clip0_5718_281">
            <rect width="32" height="32" fill="white" />
        </clipPath>
    </defs>
</svg>