<svg width="32" height="32" viewBox="0 0 32 32" fill="none" xmlns="http://www.w3.org/2000/svg">
<path fill-rule="evenodd" clip-rule="evenodd" d="M13.5758 0C14.5738 0 15.5718 0 16.5699 0C16.476 0.784069 16.5759 1.54524 16.8693 2.28352C19.6687 1.23655 20.7665 2.18802 20.1628 5.13792C17.426 5.4371 14.6316 5.4371 11.7793 5.13792C11.9148 3.20726 12.5136 1.49463 13.5758 0Z" fill="#4ACD8E"/>
<path fill-rule="evenodd" clip-rule="evenodd" d="M7.5874 5.138C6.31742 5.03824 5.11977 5.22853 3.99446 5.70888C3.95001 3.31038 5.04785 2.54921 7.28799 3.42536C7.5771 3.96657 7.67693 4.53744 7.5874 5.138Z" fill="#4BCE8E"/>
<path fill-rule="evenodd" clip-rule="evenodd" d="M24.953 5.13801C23.5558 5.89918 22.1585 5.89918 20.7612 5.13801C21.7126 3.66532 23.1099 2.90415 24.953 2.85449C24.953 3.61566 24.953 4.37684 24.953 5.13801Z" fill="#4BCD8F"/>
<path fill-rule="evenodd" clip-rule="evenodd" d="M7.58757 5.13802C7.50912 5.55985 7.60895 5.94044 7.88698 6.27978C8.51515 5.3626 9.41338 4.98201 10.5817 5.13802C10.7238 7.30091 11.123 7.30091 11.7793 5.13802C14.6316 5.43721 17.4261 5.43721 20.1629 5.13802C20.3624 5.13802 20.5621 5.13802 20.7617 5.13802C22.1589 5.89919 23.5562 5.89919 24.9534 5.13802C24.9534 6.27978 24.9534 7.42154 24.9534 8.5633C23.6548 8.23116 22.2575 8.23116 20.7617 8.5633C20.5907 7.17452 20.1914 7.17452 19.564 8.5633C14.7891 8.4264 9.79896 8.4264 4.59345 8.5633C4.39385 8.5633 4.19423 8.5633 3.99463 8.5633C3.99463 7.61182 3.99463 6.66039 3.99463 5.7089C5.11994 5.22856 6.31758 5.03827 7.58757 5.13802Z" fill="#4AC894"/>
<path fill-rule="evenodd" clip-rule="evenodd" d="M19.5638 8.56312C19.0905 9.07766 18.4917 9.4582 17.7674 9.70488C15.9289 9.62935 14.1325 9.81963 12.378 10.2758C11.8786 9.56336 11.0802 9.18275 9.98267 9.134C8.04308 9.92872 6.2466 9.73845 4.59326 8.56312C9.79877 8.42622 14.7889 8.42622 19.5638 8.56312Z" fill="#4AC79C"/>
<path fill-rule="evenodd" clip-rule="evenodd" d="M24.953 8.56307C24.953 8.75334 24.953 8.94367 24.953 9.13395C24.1613 9.0369 23.4627 9.22723 22.8571 9.70483C22.0772 9.37098 21.3786 8.99037 20.7612 8.56307C22.2571 8.23093 23.6543 8.23093 24.953 8.56307Z" fill="#4BC89B"/>
<path fill-rule="evenodd" clip-rule="evenodd" d="M20.7607 8.56307C21.3781 8.99037 22.0767 9.37098 22.8566 9.70483C23.4622 9.22723 24.1608 9.0369 24.9525 9.13395C25.5463 9.03599 25.9455 9.22632 26.1501 9.70483C25.2148 10.9633 24.0172 11.1535 22.5572 10.2757C21.6412 10.3556 21.0424 10.7361 20.7607 11.4175C19.7948 10.7368 18.7967 10.1659 17.7666 9.70483C18.4909 9.45815 19.0897 9.0776 19.5631 8.56307C20.1905 7.17429 20.5897 7.17429 20.7607 8.56307Z" fill="#48C19B"/>
<path fill-rule="evenodd" clip-rule="evenodd" d="M1 9.13387C1 8.94359 1 8.75326 1 8.56299C2.18278 8.74693 3.18082 8.74693 3.99412 8.56299C4.19372 8.56299 4.39333 8.56299 4.59294 8.56299C6.24628 9.73832 8.04276 9.92859 9.98235 9.13387C11.0799 9.18262 11.8783 9.56323 12.3776 10.2756C11.7788 10.6562 11.18 11.0368 10.5812 11.4174C7.56795 10.4797 4.37422 9.71851 1 9.13387Z" fill="#48C19C"/>
<path fill-rule="evenodd" clip-rule="evenodd" d="M1 9.13428C4.37422 9.71892 7.56795 10.4801 10.5812 11.4178C10.2979 12.2206 9.69905 12.6012 8.7847 12.5596C6.18004 12.65 3.58514 12.65 1 12.5596C1 11.4178 1 10.276 1 9.13428Z" fill="#46C1A1"/>
<path fill-rule="evenodd" clip-rule="evenodd" d="M26.1506 9.70508C26.7102 10.3145 26.9098 11.0758 26.7495 11.9886C25.4875 12.5413 24.0903 12.7317 22.5577 12.5595C21.6434 12.6012 21.0445 12.2205 20.7612 11.4177C21.0429 10.7364 21.6417 10.3558 22.5577 10.276C24.0177 11.1538 25.2153 10.9635 26.1506 9.70508Z" fill="#45C1A1"/>
<path fill-rule="evenodd" clip-rule="evenodd" d="M30.3423 12.5596C29.1957 12.722 28.1977 12.5316 27.3481 11.9887C27.9177 11.1788 28.1173 10.2273 27.947 9.13428C28.7454 9.13428 29.5439 9.13428 30.3423 9.13428C30.3423 10.276 30.3423 11.4178 30.3423 12.5596Z" fill="#46C1A1"/>
<path fill-rule="evenodd" clip-rule="evenodd" d="M26.7488 11.9883C26.9484 11.9883 27.148 11.9883 27.3476 11.9883C28.1972 12.5312 29.1952 12.7216 30.3417 12.5592C30.3417 13.13 30.3417 13.7009 30.3417 14.2718C28.1133 14.9644 25.718 14.9644 23.1558 14.2718C22.6145 13.867 22.4149 13.2962 22.557 12.5592C24.0896 12.7313 25.4868 12.541 26.7488 11.9883Z" fill="#44BBA7"/>
<path fill-rule="evenodd" clip-rule="evenodd" d="M1 12.5596C3.58514 12.6501 6.18004 12.6501 8.7847 12.5596C8.75063 13.1927 8.55104 13.7636 8.18588 14.2722C5.57418 14.5312 3.17889 14.7214 1 14.8431C1 14.0819 1 13.3207 1 12.5596Z" fill="#44BBA7"/>
<path fill-rule="evenodd" clip-rule="evenodd" d="M8.18588 14.272C7.82072 14.7806 7.62113 15.3515 7.58706 15.9846C5.48021 15.6393 3.28452 15.6393 1 15.9846C1 15.604 1 15.2235 1 14.8429C3.17889 14.7212 5.57418 14.5309 8.18588 14.272Z" fill="#44BBAE"/>
<path fill-rule="evenodd" clip-rule="evenodd" d="M23.1567 14.272C25.7189 14.9646 28.1142 14.9646 30.3426 14.272C30.3767 14.9051 30.5763 15.476 30.9414 15.9846C28.4861 15.8343 26.0909 16.0246 23.7556 16.5555C23.556 15.7943 23.3563 15.0331 23.1567 14.272Z" fill="#44BBAE"/>
<path fill-rule="evenodd" clip-rule="evenodd" d="M7.58706 15.9846C7.58706 16.3652 7.58706 16.7457 7.58706 17.1263C5.39137 17.1263 3.19569 17.1263 1 17.1263C1 16.7457 1 16.3652 1 15.9846C3.28452 15.6393 5.48021 15.6393 7.58706 15.9846Z" fill="#44B5AE"/>
<path fill-rule="evenodd" clip-rule="evenodd" d="M30.9413 15.9848C30.9413 16.1751 30.9413 16.3654 30.9413 16.5557C28.5856 17.0465 26.1903 17.2367 23.7554 17.1266C23.7554 16.9363 23.7554 16.746 23.7554 16.5557C26.0907 16.0248 28.486 15.8345 30.9413 15.9848Z" fill="#44B5AE"/>
<path fill-rule="evenodd" clip-rule="evenodd" d="M30.9413 16.5557C31.1116 17.6487 30.912 18.6002 30.3424 19.4101C28.0265 19.5182 25.8308 19.3279 23.7554 18.8392C23.7554 18.2683 23.7554 17.6974 23.7554 17.1265C26.1903 17.2367 28.5856 17.0464 30.9413 16.5557Z" fill="#44B5B5"/>
<path fill-rule="evenodd" clip-rule="evenodd" d="M1 17.1265C3.19569 17.1265 5.39137 17.1265 7.58706 17.1265C7.58706 17.8876 7.58706 18.6488 7.58706 19.41C5.14364 18.942 2.94795 18.942 1 19.41C1 18.6488 1 17.8876 1 17.1265Z" fill="#44B5B5"/>
<path fill-rule="evenodd" clip-rule="evenodd" d="M7.58706 19.41C7.58706 19.9809 7.58706 20.5518 7.58706 21.1227C5.32992 20.9765 3.13424 21.1668 1 21.6936C1 20.9324 1 20.1712 1 19.41C2.94795 18.9421 5.14364 18.9421 7.58706 19.41Z" fill="#44AFBA"/>
<path fill-rule="evenodd" clip-rule="evenodd" d="M23.7556 18.8389C25.831 19.3276 28.0267 19.5179 30.3426 19.4097C30.503 20.3226 30.3034 21.0838 29.7438 21.6933C27.6116 21.2764 25.416 20.8958 23.1567 20.5515C23.5219 20.0429 23.7215 19.472 23.7556 18.8389Z" fill="#44AFBA"/>
<path fill-rule="evenodd" clip-rule="evenodd" d="M23.1566 20.5518C25.4159 20.8961 27.6115 21.2767 29.7437 21.6935C29.7437 22.4547 29.7437 23.2159 29.7437 23.977C27.2052 23.3864 24.6103 23.0059 21.959 22.8353C22.618 22.2045 23.0172 21.4434 23.1566 20.5518Z" fill="#44AFC1"/>
<path fill-rule="evenodd" clip-rule="evenodd" d="M7.58706 21.1223C8.38547 21.5029 8.98429 22.0738 9.38353 22.835C6.85841 23.3736 4.26351 23.564 1.59882 23.4058C1.39922 23.4058 1.19961 23.4058 1 23.4058C1 22.835 1 22.2641 1 21.6932C3.13424 21.1665 5.32992 20.9762 7.58706 21.1223Z" fill="#43AFC1"/>
<path fill-rule="evenodd" clip-rule="evenodd" d="M9.38382 22.835C10.2551 23.7679 11.2531 24.5291 12.3779 25.1185C9.50036 25.6821 6.50626 25.8723 3.39559 25.6894C2.34021 25.2542 1.74139 24.493 1.59912 23.4058C4.26381 23.564 6.85871 23.3736 9.38382 22.835Z" fill="#43A8C7"/>
<path fill-rule="evenodd" clip-rule="evenodd" d="M21.9593 22.835C24.6105 23.0055 27.2055 23.3861 29.744 23.9767C29.3447 24.5476 28.9455 25.1185 28.5463 25.6894C25.2861 26.0366 22.292 25.6561 19.564 24.5476C20.3854 23.9701 21.1838 23.3992 21.9593 22.835Z" fill="#44A8C7"/>
<path fill-rule="evenodd" clip-rule="evenodd" d="M19.5637 24.5479C22.2918 25.6563 25.2859 26.0369 28.5461 25.6896C28.5461 26.0702 28.3465 26.2605 27.9473 26.2605C20.5724 26.2808 13.1869 26.2808 5.7908 26.2605C5.18134 26.6558 4.58252 27.0364 3.99433 27.4022C3.62918 26.8936 3.42957 26.3227 3.39551 25.6896C6.50617 25.8726 9.50027 25.6823 12.3779 25.1187C14.861 25.9294 17.2563 25.739 19.5637 24.5479Z" fill="#43A8CE"/>
<path fill-rule="evenodd" clip-rule="evenodd" d="M27.9476 26.2603C27.5483 27.0214 26.9495 27.5923 26.1511 27.9729C19.2786 27.4927 12.2924 27.4927 5.19228 27.9729C4.59847 28.0709 4.19925 27.8805 3.99463 27.402C4.58282 27.0362 5.18164 26.6556 5.7911 26.2603C13.1872 26.2805 20.5727 26.2805 27.9476 26.2603Z" fill="#43A2CE"/>
<path fill-rule="evenodd" clip-rule="evenodd" d="M26.1502 27.9729C25.5007 29.1643 24.5027 29.9254 23.1561 30.2564C17.7823 29.8718 12.3929 29.6815 6.98788 29.6856C6.18945 29.305 5.59062 28.7341 5.19141 27.9729C12.2915 27.4928 19.2778 27.4928 26.1502 27.9729Z" fill="#43A1D4"/>
<path fill-rule="evenodd" clip-rule="evenodd" d="M6.98828 29.6856C12.3933 29.6816 17.7827 29.8718 23.1565 30.2565C20.9247 31.5729 18.4296 32.1438 15.6712 31.9691C13.5336 31.9443 11.4377 31.6589 9.38357 31.1128C8.2939 30.9984 7.49548 30.5227 6.98828 29.6856Z" fill="#409CD9"/>
</svg>