<svg width="30" height="32" viewBox="0 0 30 32" fill="none" xmlns="http://www.w3.org/2000/svg">
    <path fill-rule="evenodd" clip-rule="evenodd"
        d="M29.7286 13.2593C30.569 21.1099 27.7582 26.8551 21.2964 30.4951C16.892 32.556 12.5197 32.5001 8.17967 30.3277C2.26034 26.4551 -0.446291 20.7656 0.0597901 13.2593C2.46368 3.93602 8.18923 -0.470528 17.2365 0.0397128C24.0533 1.59976 28.2173 6.00632 29.7286 13.2593Z"
        fill="#E5EAE8" />
    <path fill-rule="evenodd" clip-rule="evenodd"
        d="M11.9272 0.876289C20.6668 0.0498513 26.3403 4.06594 28.9477 12.9246C29.7609 22.2856 25.9611 28.2539 17.5486 30.8296C9.65865 31.7075 4.29744 28.1932 1.46501 20.2874C-0.109594 10.6028 3.3778 4.1324 11.9272 0.876289Z"
        fill="#78BC41" />
    <path fill-rule="evenodd" clip-rule="evenodd"
        d="M13.4887 5.56152C14.5297 5.56152 15.5708 5.56152 16.6118 5.56152C16.6638 9.35613 16.6117 13.1491 16.4556 16.9405C15.5187 17.8329 14.5818 17.8329 13.6449 16.9405C13.4888 13.1491 13.4367 9.35613 13.4887 5.56152Z"
        fill="#F8F9F7" />
    <path fill-rule="evenodd" clip-rule="evenodd"
        d="M10.0532 6.90039C10.4592 7.47703 10.6674 8.20217 10.6778 9.07577C10.6257 9.80091 10.5737 10.526 10.5217 11.2512C8.60093 13.8043 8.28862 16.5932 9.58474 19.618C11.7441 22.6236 14.5028 23.4603 17.8608 22.1281C20.8076 20.2764 21.9006 17.5432 21.14 13.9286C20.7757 12.9235 20.2553 12.031 19.5784 11.2512C19.32 9.78819 19.372 8.33792 19.7346 6.90039C25.0847 10.7836 26.1778 15.8037 23.0138 21.9607C19.1081 26.7568 14.5797 27.5934 9.42859 24.4708C5.0249 20.2864 4.24414 15.4336 7.08632 9.91246C8.04268 8.83073 9.03165 7.8267 10.0532 6.90039Z"
        fill="#F6F8F4" />
</svg>