<svg width="32" height="32" viewBox="0 0 32 32" fill="none" xmlns="http://www.w3.org/2000/svg">
    <g clip-path="url(#clip0_5726_123)">
        <path
            d="M29.5309 17.2151C29.1551 17.1997 28.7762 17.2151 28.3975 17.2151C26.8575 17.2151 26.8575 17.2151 26.8913 15.649C26.9571 13.8379 26.6312 12.0338 25.9359 10.3605C25.2406 8.68704 24.1923 7.18374 22.8626 5.95344V5.93803L22.5855 5.6914C21.2005 4.47552 19.5662 3.57829 17.7975 3.06289C16.0287 2.54749 14.1686 2.42646 12.3481 2.70831C10.5275 2.99017 8.79095 3.66806 7.26033 4.69426C5.72983 5.72044 4.44266 7.06999 3.48948 8.64786L3.46793 8.68177C3.40325 8.79276 3.33549 8.90374 3.27389 9.01472C2.04727 11.186 1.49505 13.6739 1.68769 16.1608C1.71233 16.5739 1.99569 17.1842 1.15793 17.2429C0.434124 17.2922 -0.107956 17.6529 0.0183288 18.476C0.144614 19.2992 0.776012 19.4008 1.48133 19.4008C2.57473 19.3793 3.67121 19.4008 4.76461 19.4008C5.46685 19.4008 5.97197 19.6845 5.99658 20.4275C6.01821 21.0995 5.59005 21.4725 4.92785 21.4818C4.10548 21.4818 3.56957 21.861 3.63425 22.6903C3.69893 23.5196 4.37652 23.6151 5.07569 23.5967C7.03761 23.5812 8.99959 23.5781 10.9646 23.5967C11.6885 23.5967 12.2244 23.9049 12.1813 24.7466C12.1412 25.5142 11.6453 25.7577 10.9493 25.7546C9.74186 25.7546 8.53457 25.7546 7.32407 25.7546C6.55722 25.7546 5.80564 25.7947 5.80257 26.8028C5.79949 27.8109 6.56029 27.8449 7.32407 27.8418C11.402 27.8418 15.48 27.8418 19.5547 27.8418C21.3288 27.8418 23.1029 27.8418 24.877 27.8418C25.5977 27.8418 26.1952 27.7092 26.2169 26.849C26.2414 25.9242 25.6008 25.7393 24.8493 25.7577C24.5413 25.7577 24.2333 25.7577 23.9437 25.7577H18.5076C17.7961 25.7577 17.3248 25.4495 17.3033 24.7096C17.2817 23.9697 17.7714 23.649 18.4613 23.5997C18.6862 23.5812 18.9141 23.5997 19.139 23.5997C19.8289 23.5997 20.4726 23.5227 20.528 22.6502C20.5896 21.7253 19.9737 21.5064 19.2098 21.5034C18.5137 21.4664 18.1102 21.0594 18.1102 20.4429C18.1102 19.7431 18.5691 19.3638 19.3053 19.3855C19.758 19.3855 20.2139 19.3855 20.6667 19.3855C23.6112 19.3855 26.5556 19.3855 29.5001 19.3855C30.2423 19.3855 30.7752 19.1512 30.7999 18.3219C30.8245 17.4926 30.2393 17.2459 29.5309 17.2151Z"
            fill="#F65C20" />
        <path
            d="M29.0042 22.7538C29.5777 22.7538 30.0426 22.2885 30.0426 21.7144C30.0426 21.1403 29.5777 20.675 29.0042 20.675C28.4307 20.675 27.9658 21.1403 27.9658 21.7144C27.9658 22.2885 28.4307 22.7538 29.0042 22.7538Z"
            fill="#F65C20" />
        <path
            d="M31.6243 22.7538C32.1978 22.7538 32.6627 22.2885 32.6627 21.7144C32.6627 21.1403 32.1978 20.675 31.6243 20.675C31.0508 20.675 30.5859 21.1403 30.5859 21.7144C30.5859 22.2885 31.0508 22.7538 31.6243 22.7538Z"
            fill="#F65C20" />
        <path d="M31.6889 20.6755H28.8994V22.7543H31.6889V20.6755Z" fill="#F65C20" />
        <path
            d="M22.8881 22.7543C23.4615 22.7543 23.9264 22.2888 23.9264 21.7149C23.9264 21.1408 23.4615 20.6755 22.8881 20.6755C22.3145 20.6755 21.8496 21.1408 21.8496 21.7149C21.8496 22.2888 22.3145 22.7543 22.8881 22.7543Z"
            fill="#F65C20" />
        <path
            d="M25.5051 22.7538C26.0787 22.7538 26.5436 22.2885 26.5436 21.7144C26.5436 21.1403 26.0787 20.675 25.5051 20.675C24.9317 20.675 24.4668 21.1403 24.4668 21.7144C24.4668 22.2885 24.9317 22.7538 25.5051 22.7538Z"
            fill="#F65C20" />
        <path d="M25.5708 20.6755H22.7812V22.7543H25.5708V20.6755Z" fill="#F65C20" />
    </g>
    <defs>
        <clipPath id="clip0_5726_123">
            <rect width="32" height="32" fill="white" />
        </clipPath>
    </defs>
</svg>