<svg width="32" height="32" viewBox="0 0 32 32" fill="none" xmlns="http://www.w3.org/2000/svg">
    <path fill-rule="evenodd" clip-rule="evenodd"
        d="M11.5995 0C11.8757 0 12.1519 0 12.4281 0C12.5402 4.46384 14.7496 7.33563 19.0564 8.61538C19.0564 8.75212 19.0564 8.8889 19.0564 9.02564C15.8099 11.0671 12.2196 12.3663 8.28537 12.9231C5.4763 13.2508 2.71449 13.0457 0 12.3077C0 11.6239 0 10.9402 0 10.2564C2.30014 5.10708 6.16664 1.68828 11.5995 0Z"
        fill="#0DB4DA" />
    <path fill-rule="evenodd" clip-rule="evenodd"
        d="M14.085 0C16.0182 0 17.9515 0 19.8847 0C30.1991 4.07462 33.9275 11.4592 31.07 22.1538C30.7938 22.1538 30.6557 22.0171 30.6557 21.7436C26.9306 17.3712 23.0641 13.1319 19.0562 9.02564C19.0562 8.8889 19.0562 8.75212 19.0562 8.61538C19.1299 4.73145 17.4728 1.85966 14.085 0Z"
        fill="#702B76" />
    <path fill-rule="evenodd" clip-rule="evenodd"
        d="M30.6556 21.7436C30.6556 22.0171 30.7937 22.1539 31.0699 22.1539C28.8205 27.3613 24.954 30.6433 19.4704 32C16.9847 32 14.4991 32 12.0135 32C8.12471 31.0958 4.94863 29.0446 2.48535 25.8462C6.83952 20.6305 12.3631 18.9211 19.0561 20.718C21.724 21.8071 24.4858 22.5592 27.3415 22.9744C28.6013 22.9537 29.706 22.5434 30.6556 21.7436Z"
        fill="#702B76" />
</svg>