<svg width="32" height="32" viewBox="0 0 32 32" fill="none" xmlns="http://www.w3.org/2000/svg">
    <path
        d="M15.9999 32L0 23.9977V7.99939L15.9999 0L32 7.99939V23.9977L15.9999 32ZM4.49389 21.7504L15.9999 27.5051L27.5054 21.7509V10.2467L15.9999 4.49306L4.49389 10.2467V21.7504Z"
        fill="#34A6DE" />
    <path d="M14.1882 23.5254L10.8438 21.9585L18.0343 8.97168L21.3078 10.6392L14.1882 23.5254Z"
        fill="#34A6DE" />
    <path
        d="M11.3973 15.9961C11.3973 17.2933 10.1839 18.344 8.68885 18.344C7.19148 18.344 5.98047 17.2933 5.98047 15.9961C5.98047 14.7046 7.19148 13.6533 8.68885 13.6533C10.1839 13.6533 11.3973 14.7046 11.3973 15.9961Z"
        fill="#34A6DE" />
    <path
        d="M26.0184 15.9961C26.0184 17.2933 24.8027 18.344 23.307 18.344C21.8126 18.344 20.5986 17.2933 20.5986 15.9961C20.5986 14.7046 21.812 13.6533 23.307 13.6533C24.8027 13.6533 26.0184 14.7046 26.0184 15.9961Z"
        fill="#34A6DE" />
</svg>