<svg width="32" height="32" viewBox="0 0 32 32" fill="none" xmlns="http://www.w3.org/2000/svg">
    <g clip-path="url(#clip0_5788_45)">
        <path fill-rule="evenodd" clip-rule="evenodd"
            d="M-0.0712891 -0.0712891C4.85909 -0.0712891 9.78945 -0.0712891 14.7198 -0.0712891C11.058 0.301911 8.00018 1.86636 5.54649 4.62204C4.88814 5.51295 4.34295 6.46111 3.91093 7.46649C3.61208 7.93534 3.42244 8.45681 3.34204 9.03093C3.27199 9.35884 3.22458 9.6907 3.19982 10.0265C3.09746 10.8283 3.05006 11.6342 3.0576 12.4443C3.08158 13.3954 3.15269 14.3435 3.27093 15.2887C3.34907 15.6101 3.51499 15.8471 3.76871 15.9998C4.69833 18.4995 5.97833 20.7988 7.60871 22.8976C8.71952 22.9787 9.09879 22.4809 8.74649 21.4043C8.7493 21.1706 8.6545 20.981 8.46204 20.8354C8.57211 20.6631 8.69062 20.6631 8.8176 20.8354C8.88871 20.5747 9.05464 20.4087 9.31538 20.3376C9.17072 20.1884 9.14702 20.0224 9.24427 19.8398C9.33909 19.6502 9.43389 19.6502 9.52871 19.8398C9.5984 20.0237 9.62211 20.2134 9.59982 20.4087C9.78945 20.4087 9.97909 20.4087 10.1687 20.4087C10.7376 21.262 11.3065 22.1154 11.8754 22.9687C11.9458 23.2506 12.0169 23.535 12.0887 23.822C12.4241 24.0388 12.6848 24.3232 12.8709 24.6754C12.1383 24.7702 11.4272 24.8651 10.7376 24.9598C10.1997 25.4924 10.176 26.0613 10.6665 26.6665C12.2176 28.2181 13.8531 29.6641 15.5732 31.0043C15.7627 31.0991 15.9525 31.0991 16.142 31.0043C20.0834 28.059 23.3783 24.5272 26.0265 20.4087C26.6417 19.3206 27.1395 18.1828 27.5198 16.9954C29.9584 11.0866 28.6784 6.15625 23.6798 2.20427C23.5894 1.65613 23.2576 1.32428 22.6843 1.20871C22.5894 1.25612 22.4947 1.30353 22.3998 1.35093C22.0939 1.15107 21.8568 0.890332 21.6887 0.568711C20.9409 0.421662 20.2298 0.208328 19.5554 -0.0712891C23.6798 -0.0712891 27.8043 -0.0712891 31.9287 -0.0712891C31.9287 10.5954 31.9287 21.262 31.9287 31.9287C21.262 31.9287 10.5954 31.9287 -0.0712891 31.9287C-0.0712891 21.262 -0.0712891 10.5954 -0.0712891 -0.0712891Z"
            fill="#F8F9F9" />
        <path fill-rule="evenodd" clip-rule="evenodd"
            d="M16.9951 -0.0712891C17.8485 -0.0712891 18.7018 -0.0712891 19.5551 -0.0712891C20.2295 0.208328 20.9406 0.421662 21.6885 0.568711C21.8566 0.890332 22.0936 1.15107 22.3996 1.35093C22.4944 1.30353 22.5891 1.25612 22.684 1.20871C23.2573 1.32428 23.5891 1.65613 23.6796 2.20427C21.5967 0.98855 19.3685 0.230031 16.9951 -0.0712891Z"
            fill="#DBE9EC" />
        <path fill-rule="evenodd" clip-rule="evenodd"
            d="M26.9512 12.8713C26.5056 14.8854 25.8181 16.8292 24.8889 18.7024C24.6292 18.9262 24.3211 19.0447 23.9645 19.0579C21.6419 19.2239 19.5085 18.655 17.5645 17.3512C14.8247 15.4176 12.5254 13.0709 10.6667 10.3113C9.83333 9.62329 9.28813 9.78922 9.03117 10.809C9.46679 12.205 9.89346 13.6035 10.3112 15.0046C10.3709 15.3138 10.3709 15.5982 10.3112 15.8579C9.9865 15.9747 9.65464 16.0695 9.31561 16.1424C8.74172 15.7589 8.45727 15.9485 8.46228 16.7112C8.43922 16.9995 8.46292 17.284 8.53339 17.5646C9.04431 18.5398 9.58949 19.488 10.1689 20.409C9.97932 20.409 9.78968 20.409 9.60006 20.409C9.62234 20.2138 9.59863 20.024 9.52894 19.8401C9.43412 19.6506 9.33932 19.6506 9.2445 19.8401C9.14725 20.0228 9.17096 20.1887 9.31561 20.3379C9.05488 20.409 8.88894 20.575 8.81783 20.8357C8.69086 20.6635 8.57234 20.6635 8.46228 20.8357C8.65473 20.9813 8.74954 21.1709 8.74672 21.4046C6.80065 18.9333 5.54436 16.1364 4.97783 13.0135C4.65819 8.06851 6.76781 4.58406 11.3067 2.56014C15.8113 1.01575 19.9358 1.67944 23.6801 4.55125C26.1512 6.77219 27.2416 9.54553 26.9512 12.8713Z"
            fill="#F7F8F8" />
        <path fill-rule="evenodd" clip-rule="evenodd"
            d="M14.7196 -0.0712891C15.4781 -0.0712891 16.2367 -0.0712891 16.9952 -0.0712891C19.3686 0.230031 21.5968 0.988549 23.6796 2.20427C28.6782 6.15625 29.9582 11.0866 27.5196 16.9954C27.4774 16.5369 27.5723 16.1102 27.8041 15.7154C27.7549 15.5453 27.6838 15.5453 27.5907 15.7154C27.5546 15.3321 27.5309 14.9765 27.5196 14.6487C27.6145 14.6013 27.7092 14.5538 27.8041 14.5065C27.6145 14.222 27.6145 13.9376 27.8041 13.6532C27.5964 12.5949 27.3831 11.5282 27.1641 10.4532C27.1433 11.3664 27.0722 12.1723 26.9507 12.8709C27.2412 9.54521 26.1507 6.77187 23.6796 4.55093C19.9354 1.67913 15.8109 1.01543 11.3063 2.55982C6.7674 4.58374 4.65777 8.06819 4.97742 13.0132C5.54394 16.1361 6.80024 18.933 8.74631 21.4043C9.0986 22.4809 8.71934 22.9787 7.60853 22.8976C5.97815 20.7988 4.69815 18.4995 3.76853 15.9998C3.50978 14.8009 3.27275 13.6158 3.05742 12.4443C3.04988 11.6342 3.09728 10.8283 3.19964 10.0265C3.31619 10.4255 3.3873 10.8521 3.41297 11.3065C3.51839 11.4687 3.6369 11.4687 3.76853 11.3065C3.86652 12.0485 3.96134 12.7834 4.05297 13.5109C4.00557 13.5583 3.95815 13.6058 3.91075 13.6532C4.06352 13.7582 4.15834 13.9004 4.19519 14.0798C3.99335 14.9164 4.01705 15.746 4.26631 16.5687C4.31371 16.3316 4.36112 16.0947 4.40853 15.8576C4.45593 16.1894 4.50335 16.5213 4.55075 16.8532C4.86944 16.5946 5.03537 16.3101 5.04853 15.9998C4.73025 15.8074 4.54061 15.5229 4.47964 15.1465C4.58514 14.8834 4.72736 14.7887 4.90631 14.862C4.9942 14.3341 4.89939 13.8126 4.62186 13.2976C4.57363 11.9598 4.66845 10.6087 4.90631 9.24427C4.89163 9.02219 4.84421 8.80885 4.76408 8.60427C4.8589 8.55686 4.95371 8.50945 5.04853 8.46204C4.94977 7.91691 5.09199 7.41913 5.47519 6.96871C5.1731 6.96665 4.91236 6.80073 4.69297 6.47093C4.55028 6.94598 4.33695 7.37265 4.05297 7.75093C3.93376 7.70234 3.88634 7.60752 3.91075 7.46649C4.34276 6.46111 4.88796 5.51295 5.54631 4.62204C7.99999 1.86636 11.0578 0.301911 14.7196 -0.0712891Z"
            fill="#093549" />
        <path fill-rule="evenodd" clip-rule="evenodd"
            d="M3.91069 7.4668C3.88628 7.60782 3.9337 7.70264 4.05291 7.75124C3.78916 8.16344 3.55212 8.59011 3.3418 9.03124C3.4222 8.45712 3.61183 7.93565 3.91069 7.4668Z"
            fill="#516975" />
        <path fill-rule="evenodd" clip-rule="evenodd"
            d="M3.2002 10.0263C3.22496 9.69047 3.27236 9.35861 3.34242 9.0307C3.55274 8.58957 3.78978 8.16291 4.05353 7.7507C4.3375 7.37242 4.55084 6.94575 4.69353 6.4707C4.91292 6.8005 5.17366 6.96642 5.47575 6.96848C5.09255 7.4189 4.95033 7.91668 5.04908 8.46181C4.95426 8.50922 4.85946 8.55663 4.76464 8.60404C4.84477 8.80862 4.89218 9.02196 4.90686 9.24404C4.66901 10.6085 4.57419 11.9596 4.62242 13.2974C4.89995 13.8124 4.99476 14.3339 4.90686 14.8618C4.72792 14.7884 4.5857 14.8831 4.4802 15.1463C4.54117 15.5227 4.73081 15.8072 5.04908 15.9996C5.03593 16.3099 4.87 16.5944 4.55131 16.8529C4.5039 16.5211 4.45649 16.1892 4.40908 15.8574C4.36168 16.0945 4.31426 16.3314 4.26686 16.5685C4.0176 15.7457 3.99391 14.9161 4.19575 14.0796C4.1589 13.9002 4.06408 13.758 3.91131 13.6529C3.95871 13.6055 4.00613 13.5581 4.05353 13.5107C3.96189 12.7831 3.86708 12.0483 3.76908 11.3063C3.63746 11.4685 3.51894 11.4685 3.41353 11.3063C3.38786 10.8519 3.31675 10.4252 3.2002 10.0263Z"
            fill="#03364F" />
        <path fill-rule="evenodd" clip-rule="evenodd"
            d="M26.9515 12.8712C27.073 12.1726 27.1441 11.3667 27.1648 10.4534C27.3839 11.5285 27.5972 12.5951 27.8048 13.6534C27.6153 13.9379 27.6153 14.2223 27.8048 14.5068C27.71 14.5541 27.6153 14.6016 27.5204 14.649C27.5316 14.9768 27.5554 15.3324 27.5915 15.7157C27.6845 15.5456 27.7556 15.5456 27.8048 15.7157C27.573 16.1105 27.4782 16.5371 27.5204 16.9957C27.1401 18.1831 26.6423 19.3208 26.0271 20.409C23.3789 24.5275 20.084 28.0593 16.1426 31.0045C15.953 31.0994 15.7633 31.0994 15.5737 31.0045C13.8537 29.6644 12.2181 28.2184 10.6671 26.6668C10.1766 26.0616 10.2003 25.4927 10.7382 24.9601C11.6439 25.007 12.5446 24.9595 13.4404 24.8179C12.9649 24.1536 12.4434 23.5372 11.876 22.969C11.3071 22.1157 10.7382 21.2623 10.1693 20.409C9.58984 19.488 9.04466 18.5398 8.53374 17.5645C8.46327 17.2839 8.43957 16.9995 8.46263 16.7112C8.804 16.3215 9.23067 16.2031 9.74263 16.3557C10.3325 16.9925 10.9725 17.5852 11.6626 18.1334C11.2532 17.077 10.8028 16.0341 10.3115 15.0045C9.89381 13.6035 9.46714 12.205 9.03152 10.809C9.28848 9.78919 9.83368 9.62325 10.6671 10.3112C12.5258 13.0708 14.8251 15.4176 17.5648 17.3512C19.5089 18.655 21.6422 19.2239 23.9648 19.0579C24.3214 19.0447 24.6296 18.9262 24.8893 18.7023C25.8184 16.8291 26.5059 14.8854 26.9515 12.8712Z"
            fill="#03374A" />
        <path fill-rule="evenodd" clip-rule="evenodd"
            d="M3.05762 12.4443C3.27296 13.6158 3.50998 14.801 3.76873 15.9999C3.515 15.8471 3.34909 15.6102 3.27095 15.2888C3.15271 14.3436 3.0816 13.3954 3.05762 12.4443Z"
            fill="#C3D5DB" />
        <path fill-rule="evenodd" clip-rule="evenodd"
            d="M10.3109 15.0049C10.8022 16.0344 11.2525 17.0773 11.662 18.1338C10.9718 17.5855 10.3318 16.9929 9.74198 16.356C9.23002 16.2034 8.80336 16.3219 8.46198 16.7115C8.45697 15.9488 8.74142 15.7592 9.31531 16.1427C9.65434 16.0698 9.9862 15.975 10.3109 15.8582C10.3706 15.5985 10.3706 15.3141 10.3109 15.0049Z"
            fill="#DBE6EB" />
        <path fill-rule="evenodd" clip-rule="evenodd"
            d="M11.8751 22.9688C12.4425 23.5369 12.964 24.1533 13.4395 24.8176C12.5437 24.9593 11.643 25.0068 10.7373 24.9599C11.4269 24.8651 12.138 24.7703 12.8706 24.6754C12.6845 24.3233 12.4238 24.0388 12.0884 23.8221C12.0167 23.5351 11.9455 23.2506 11.8751 22.9688Z"
            fill="#C5DBDF" />
    </g>
    <defs>
        <clipPath id="clip0_5788_45">
            <rect width="32" height="32" fill="white" />
        </clipPath>
    </defs>
</svg>