<svg width="32" height="32" viewBox="0 0 32 32" fill="none" xmlns="http://www.w3.org/2000/svg">
    <path fill-rule="evenodd" clip-rule="evenodd"
        d="M7.25333 0C12.8948 0 18.5362 0 24.1778 0C28.4777 0.602529 31.0852 3.0203 32 7.25333C32 13.0844 32 18.9156 32 24.7467C31.1003 28.9173 28.5403 31.3351 24.32 32C18.6311 32 12.9422 32 7.25333 32C3.17343 31.0017 0.755652 28.4417 0 24.32C0 18.6311 0 12.9422 0 7.25333C0.948149 3.36593 3.36593 0.948149 7.25333 0Z"
        fill="#51A851" />
    <path fill-rule="evenodd" clip-rule="evenodd"
        d="M8.81821 8.39062C12.9211 8.44029 15.3626 10.4788 16.1427 14.5062C16.4254 16.7433 15.9987 18.8293 14.8627 20.764C12.9981 23.0138 10.604 23.8909 7.68043 23.3951C4.6259 22.521 2.89552 20.5063 2.48932 17.3506C2.00157 13.9722 3.11564 11.2937 5.83154 9.31507C6.79753 8.84941 7.79308 8.54125 8.81821 8.39062Z"
        fill="#F6F8F6" />
    <path fill-rule="evenodd" clip-rule="evenodd"
        d="M23.6084 8.81788C21.57 8.81788 19.5314 8.81788 17.4929 8.81788C17.4929 13.606 17.4929 18.3941 17.4929 23.1823C17.351 18.3711 17.3034 13.5355 17.3507 8.67566C19.4617 8.62883 21.5476 8.67623 23.6084 8.81788Z"
        fill="#90C790" />
    <path fill-rule="evenodd" clip-rule="evenodd"
        d="M23.6087 8.81738C27.4169 9.17839 28.6733 11.1695 27.3776 14.7907C26.721 15.7244 25.8439 16.3644 24.7465 16.7107C25.4745 17.1068 26.0672 17.6519 26.5243 18.3463C27.5716 19.9392 28.5909 21.551 29.5821 23.1818C28.3523 23.3475 27.1196 23.3713 25.8843 23.2529C24.9302 21.6529 23.9584 20.0647 22.9687 18.4885C22.7046 18.1045 22.3491 17.8676 21.9021 17.7774C21.5057 17.6384 21.079 17.5911 20.6221 17.6352C20.6221 19.484 20.6221 21.3329 20.6221 23.1818C19.5791 23.1818 18.5361 23.1818 17.4932 23.1818C17.4932 18.3936 17.4932 13.6055 17.4932 8.81738C19.5316 8.81738 21.5702 8.81738 23.6087 8.81738Z"
        fill="#F8F9F8" />
    <path fill-rule="evenodd" clip-rule="evenodd"
        d="M8.10714 10.098C11.2044 9.61787 13.2192 10.8505 14.1516 13.7958C14.5261 15.6892 14.3838 17.5381 13.7249 19.3425C12.3976 21.493 10.4776 22.3227 7.96492 21.8314C5.94832 21.1414 4.73943 19.743 4.33825 17.6358C3.81513 15.1518 4.40772 12.9947 6.11603 11.1647C6.73121 10.6916 7.39492 10.336 8.10714 10.098Z"
        fill="#51A851" />
    <path fill-rule="evenodd" clip-rule="evenodd"
        d="M20.7646 11.2356C21.7234 11.1888 22.6716 11.2599 23.6091 11.4489C24.4081 12.0301 24.6688 12.8123 24.3913 13.7956C24.1059 14.5548 23.5606 15.0051 22.7558 15.1467C22.0937 15.2177 21.4301 15.2414 20.7646 15.2178C20.7646 13.8904 20.7646 12.563 20.7646 11.2356Z"
        fill="#51A851" />
    <path fill-rule="evenodd" clip-rule="evenodd"
        d="M21.9021 17.7773C21.5227 17.7773 21.1436 17.7773 20.7643 17.7773C20.7643 19.6262 20.7643 21.4751 20.7643 23.324C19.6475 23.3702 18.5573 23.3228 17.4932 23.1817C18.5361 23.1817 19.5791 23.1817 20.6221 23.1817C20.6221 21.3329 20.6221 19.484 20.6221 17.6351C21.079 17.591 21.5057 17.6384 21.9021 17.7773Z"
        fill="#C9E0C9" />
</svg>