<svg width="32" height="32" viewBox="0 0 32 32" fill="none" xmlns="http://www.w3.org/2000/svg">
    <g clip-path="url(#clip0_5611_1599)">
        <path fill-rule="evenodd" clip-rule="evenodd"
            d="M-0.0710449 -0.0712891C10.5956 -0.0712891 21.2623 -0.0712891 31.929 -0.0712891C31.929 10.5954 31.929 21.262 31.929 31.9287C21.2623 31.9287 10.5956 31.9287 -0.0710449 31.9287C-0.0710449 21.262 -0.0710449 10.5954 -0.0710449 -0.0712891Z"
            fill="#F9F9F9" />
        <path fill-rule="evenodd" clip-rule="evenodd"
            d="M14.7199 7.18262C17.3525 7.94221 18.6325 9.69628 18.5599 12.4448C19.8205 11.9374 21.1005 11.89 22.3999 12.3026C22.6066 14.2661 21.8955 15.8068 20.2666 16.9248C21.3579 17.1295 22.3059 17.6035 23.1111 18.3471C22.5632 19.6521 21.7099 20.6952 20.5511 21.476C19.0781 22.129 17.6083 22.1054 16.1422 21.4048C15.2722 22.7254 14.1818 23.8394 12.8711 24.7471C11.5923 25.5054 10.2175 25.7898 8.74661 25.6004C8.06216 25.0257 8.01475 24.4093 8.60438 23.7515C10.487 23.6397 12.0515 22.8812 13.2977 21.476C11.4255 21.4293 10.0269 20.5996 9.10216 18.9871C8.78558 18.4156 8.52483 17.823 8.31994 17.2093C9.46362 16.5724 10.6962 16.2406 12.0177 16.2137C10.8016 15.2294 10.2801 13.9731 10.4533 12.4448C10.7214 12.2871 11.0058 12.1685 11.3066 12.0893C12.1586 12.0182 13.012 11.9945 13.8666 12.0182C13.2941 10.2499 13.5785 8.63805 14.7199 7.18262Z"
            fill="#2F2F2F" />
        <path fill-rule="evenodd" clip-rule="evenodd"
            d="M15.0046 8.03516C17.6318 9.11937 18.3667 10.9683 17.209 13.5818C17.0163 14.7357 17.1585 14.8779 17.6357 14.0085C18.7803 12.7659 20.1787 12.3392 21.8312 12.7285C21.5731 15.6873 19.9611 16.9673 16.9957 16.5685C16.7914 17.4386 16.5781 18.2919 16.3557 19.1285C18.1663 17.2729 20.1338 17.0833 22.2579 18.5596C20.7399 21.3749 18.5829 21.9911 15.7868 20.4085C14.8623 22.2811 13.4638 23.6796 11.5912 24.604C10.9386 24.8145 10.275 24.9805 9.60011 25.1018C9.03139 25.0818 8.84176 24.8211 9.03122 24.3196C11.7076 24.0999 13.5802 22.7963 14.649 20.4085C11.946 21.1963 10.1208 20.2481 9.17344 17.564C10.3479 17.0245 11.5804 16.8586 12.8712 17.0663C13.9481 17.3846 14.7777 18.0246 15.3601 18.9863C15.7522 18.1763 15.9655 17.323 16.0001 16.4263C14.147 16.7339 12.6537 16.165 11.5201 14.7196C11.1145 14.1471 10.996 13.5308 11.1646 12.8707C13.6738 12.1223 15.3568 12.9757 16.2134 15.4307C16.3083 14.8618 16.3083 14.2929 16.2134 13.724C14.1491 12.1614 13.7462 10.2651 15.0046 8.03516Z"
            fill="#F6F6F6" />
        <path fill-rule="evenodd" clip-rule="evenodd"
            d="M14.5779 17.28C14.7962 17.0968 15.0331 17.0968 15.289 17.28C15.2452 17.3949 15.1741 17.4897 15.0757 17.5644C14.9596 17.3762 14.7936 17.2815 14.5779 17.28Z"
            fill="#E3E3E3" />
    </g>
    <defs>
        <clipPath id="clip0_5611_1599">
            <rect width="32" height="32" fill="white" />
        </clipPath>
    </defs>
</svg>