<svg width="32" height="32" viewBox="0 0 32 32" fill="none" xmlns="http://www.w3.org/2000/svg">
    <g clip-path="url(#clip0_5774_355)">
        <path
            d="M0 0C10.56 0 21.12 0 32 0C32 10.56 32 21.12 32 32C21.44 32 10.88 32 0 32C0 21.44 0 10.88 0 0Z"
            fill="#02537E" />
        <path
            d="M18.0797 4.39997C18.1896 4.41984 18.2996 4.43962 18.4097 4.45935C19.7425 4.71262 20.9939 5.23003 22.1597 5.91997C22.233 5.96236 22.3063 6.00474 22.3818 6.04841C23.5986 6.78337 24.7987 7.86004 25.5997 9.03997C25.6426 9.09844 25.6855 9.15692 25.7297 9.21716C27.5272 11.6928 28.3025 14.8914 27.8581 17.927C27.3995 20.4784 26.2474 22.6813 24.4797 24.56C24.4287 24.617 24.3778 24.674 24.3253 24.7328C23.145 25.998 21.5396 26.8735 19.9197 27.44C19.8669 27.44 19.8141 27.44 19.7597 27.44C19.7639 27.1499 19.7715 26.86 19.7797 26.57C19.7808 26.4889 19.7819 26.4079 19.7831 26.3243C19.7992 25.8211 19.8774 25.4238 20.0859 24.9643C20.3576 24.3589 20.291 23.6475 20.0797 23.04C20.0574 22.775 20.0505 22.5112 20.1184 22.2522C20.2234 21.814 20.2623 21.2855 20.0862 20.8643C19.7492 20.4236 19.2146 20.2186 18.7197 20C18.8751 19.4421 19.0411 18.9531 19.3697 18.47C19.4979 18.2733 19.5646 18.1478 19.5997 17.92C19.7053 17.8936 19.8109 17.8672 19.9197 17.84C20.0709 17.2752 20.0947 16.7772 20.0647 16.195C20.0609 16.0762 20.0609 16.0762 20.057 15.9551C20.0274 15.3089 19.9237 14.7106 19.4397 14.24C18.8314 13.9246 18.0968 13.79 17.4228 13.9662C16.8893 14.1911 16.6264 14.6268 16.3997 15.1415C16.2485 15.5566 16.1945 15.9608 16.1597 16.4C16.1069 16.4 16.0541 16.4 15.9997 16.4C16.0066 16.5534 16.0153 16.7067 16.0247 16.86C16.0316 16.9881 16.0316 16.9881 16.0387 17.1187C16.0827 17.3779 16.1518 17.4837 16.3197 17.68C16.4142 17.9981 16.4183 18.3097 16.3997 18.64C16.3469 18.6928 16.2941 18.7456 16.2397 18.8C15.9197 18.8 15.9197 18.8 15.8059 18.6972C15.7708 18.6502 15.7358 18.6033 15.6997 18.555C15.3409 18.1079 14.916 17.7603 14.4497 17.43C14.1926 17.2429 14.1013 17.1049 13.9997 16.8C13.9502 16.7752 13.9007 16.7505 13.8497 16.725C13.6624 16.6314 13.5858 16.5447 13.4597 16.38C13.2753 16.1483 13.1044 16.0185 12.8497 15.87C12.6474 15.721 12.5679 15.6514 12.5275 15.3994C12.5298 15.3196 12.5322 15.2399 12.5347 15.1578C12.5373 15.065 12.5399 14.9723 12.5427 14.8767C12.5719 14.3318 12.6089 13.788 12.6534 13.2442C12.6696 13.0456 12.685 12.8469 12.7003 12.6483C12.9074 10.0184 12.9074 10.0184 13.5437 9.42966C13.7684 9.27388 13.9728 9.18671 14.2297 9.09497C14.6658 8.91974 15.0224 8.72547 15.2797 8.31997C15.3004 8.10362 15.3004 8.10362 15.1997 7.91997C15.1716 7.85892 15.1436 7.79787 15.1147 7.73497C15.0899 7.69042 15.0652 7.64587 15.0397 7.59997C14.9869 7.59997 14.9341 7.59997 14.8797 7.59997C14.8533 7.46797 14.8269 7.33597 14.7997 7.19997C14.1345 6.98413 13.497 6.90949 12.7997 6.87997C12.6441 7.25813 12.4909 7.63427 12.3697 8.02497C12.2707 8.3334 12.1396 8.61794 11.9997 8.90997C11.8157 9.30002 11.6848 9.67279 11.5812 10.0903C11.4094 10.7312 11.156 11.3498 10.9097 11.965C10.4672 13.1058 10.0559 14.8357 10.4695 16.044C10.6485 16.438 10.8724 16.8043 11.0953 17.1745C11.296 17.5313 11.4386 17.912 11.587 18.2927C11.6822 18.5354 11.7742 18.7419 11.9197 18.96C11.9562 19.0932 11.9872 19.228 12.0143 19.3634C12.0308 19.4428 12.0472 19.5221 12.0642 19.6039C12.0808 19.6867 12.0975 19.7696 12.1147 19.855C12.2421 20.5103 12.2421 20.5103 12.4493 21.1431C12.5626 21.4479 12.596 21.6915 12.6097 22.015C12.624 22.3829 12.624 22.3829 12.6804 22.7454C12.7245 22.9867 12.7273 23.2094 12.7247 23.4547C12.724 23.5487 12.7234 23.6427 12.7228 23.7395C12.7207 23.9362 12.7186 24.1328 12.7165 24.3295C12.7159 24.4236 12.7153 24.5177 12.7147 24.6147C12.7137 24.7001 12.7128 24.7855 12.7118 24.8735C12.7197 25.1228 12.7555 25.3548 12.7997 25.6C12.8153 25.8218 12.8288 26.0429 12.8397 26.265C12.8649 26.7392 12.8997 27.2086 12.9597 27.68C10.0467 27.1069 7.47385 25.0366 5.83684 22.6187C5.19132 21.6204 4.72487 20.5009 4.39965 19.36C4.36439 19.2375 4.36439 19.2375 4.3284 19.1125C3.47192 15.9216 4.1156 12.688 5.72758 9.8661C5.99337 9.42467 6.30326 9.03006 6.63965 8.63997C6.69967 8.56985 6.75969 8.49972 6.82153 8.42747C6.99718 8.22779 7.17706 8.03331 7.35965 7.83997C7.41926 7.77521 7.47887 7.71045 7.54028 7.64372C10.1444 4.91068 14.4003 3.6305 18.0797 4.39997Z"
            fill="#FDFEFE" />
        <path
            d="M27.36 20.0801C27.4392 20.1197 27.4392 20.1197 27.52 20.1601C27.29 20.7001 27.29 20.7001 27.2 20.8801C27.1472 20.8801 27.0944 20.8801 27.04 20.8801C27.0255 20.9684 27.0255 20.9684 27.0106 21.0585C26.9972 21.1366 26.9838 21.2146 26.97 21.2951C26.957 21.3721 26.944 21.4491 26.9306 21.5285C26.8808 21.7564 26.8257 21.952 26.72 22.1601C26.6408 22.1865 26.5616 22.2129 26.48 22.2401C26.4404 22.3589 26.4404 22.3589 26.4 22.4801C26.2799 22.7571 26.1087 22.9657 25.92 23.2001C25.7174 23.4928 25.6411 23.7264 25.6 24.0801C25.5472 24.0273 25.4944 23.9745 25.44 23.9201C25.3872 23.9993 25.3344 24.0785 25.28 24.1601C25.2272 24.1601 25.1744 24.1601 25.12 24.1601C25.0936 24.2393 25.0672 24.3185 25.04 24.4001C24.9608 24.4265 24.8816 24.4529 24.8 24.4801C24.7472 24.5593 24.6944 24.6385 24.64 24.7201C24.5608 24.7201 24.4816 24.7201 24.4 24.7201C24.3884 24.8042 24.3769 24.8884 24.365 24.9751C24.3061 25.192 24.2634 25.2642 24.0747 25.3923C23.9454 25.4572 23.8156 25.5212 23.6853 25.5841C23.4984 25.6738 23.4984 25.6738 23.395 25.9051C23.3777 25.9917 23.3777 25.9917 23.36 26.0801C23.2412 26.0009 23.2412 26.0009 23.12 25.9201C23.12 25.9729 23.12 26.0257 23.12 26.0801C23.0408 26.0801 22.9616 26.0801 22.88 26.0801C22.88 26.1329 22.88 26.1857 22.88 26.2401C22.8189 26.2483 22.7579 26.2566 22.695 26.2651C22.4606 26.325 22.4018 26.391 22.24 26.5601C22.1608 26.5601 22.0816 26.5601 22 26.5601C22 26.5073 22 26.4545 22 26.4001C22.1559 26.2901 22.1559 26.2901 22.375 26.1601C24.5908 24.7812 26.1535 22.7834 27.1075 20.3623C27.2 20.1601 27.2 20.1601 27.36 20.0801Z"
            fill="#195670" />
        <path
            d="M18.7996 18.7998C18.9052 18.7998 19.0108 18.7998 19.1196 18.7998C19.1032 18.8596 19.0868 18.9194 19.0699 18.9811C19.0483 19.0598 19.0268 19.1386 19.0046 19.2198C18.9832 19.2978 18.9619 19.3757 18.9399 19.4561C18.8911 19.6369 18.8442 19.8179 18.7996 19.9998C18.8633 20.028 18.927 20.0561 18.9927 20.0851C20.0455 20.5757 20.0455 20.5757 20.2396 21.0398C20.2959 21.5051 20.2783 21.9469 20.1596 22.3998C20.1438 22.7259 20.1325 22.9619 20.2396 23.2698C20.4548 23.9424 20.3031 24.6192 20.0361 25.2526C19.8754 25.6767 19.8825 26.0899 19.8774 26.5381C19.8638 27.012 19.8638 27.012 19.7175 27.1796C19.6786 27.2126 19.6397 27.2457 19.5996 27.2798C19.6085 27.0148 19.6189 26.7498 19.6296 26.4848C19.6333 26.3737 19.6333 26.3737 19.6371 26.2603C19.6855 25.111 19.6855 25.111 19.9996 24.6398C20.022 24.3707 20.022 24.3707 20.0146 24.0748C20.0141 23.9749 20.0135 23.8749 20.013 23.772C20.0168 23.5277 20.0168 23.5277 19.9196 23.3598C19.9127 23.1671 19.9103 22.9768 19.9118 22.7842C19.9119 22.7276 19.912 22.671 19.9121 22.6127C19.9125 22.4317 19.9136 22.2508 19.9146 22.0698C19.915 21.9472 19.9153 21.8246 19.9157 21.702C19.9165 21.4013 19.9179 21.1005 19.9196 20.7998C19.7612 20.7734 19.6028 20.747 19.4396 20.7198C19.4396 20.667 19.4396 20.6142 19.4396 20.5598C19.3818 20.5367 19.3241 20.5136 19.2646 20.4898C18.9521 20.3648 18.9521 20.3648 18.6396 20.2398C18.5596 19.7098 18.5596 19.7098 18.5596 19.4398C18.6124 19.4398 18.6652 19.4398 18.7196 19.4398C18.7179 19.3639 18.7163 19.288 18.7146 19.2098C18.7196 18.9598 18.7196 18.9598 18.7996 18.7998Z"
            fill="#19556E" />
        <path
            d="M10.7199 12.2402C10.7463 12.2402 10.7727 12.2402 10.7999 12.2402C10.8077 12.7324 10.8077 12.7324 10.7999 12.8802C10.7735 12.9066 10.7471 12.933 10.7199 12.9602C10.6372 13.6024 10.627 14.2583 10.6149 14.9052C10.6125 14.9711 10.6101 15.0369 10.6077 15.1047C10.6035 15.5426 10.6869 15.8506 10.8908 16.2387C10.9599 16.4002 10.9599 16.4002 10.9599 16.7202C11.0111 16.7433 11.0622 16.7664 11.1149 16.7902C11.2799 16.8802 11.2799 16.8802 11.3599 17.0402C11.3071 17.0402 11.2543 17.0402 11.1999 17.0402C11.2766 17.1417 11.2766 17.1417 11.3549 17.2452C11.4956 17.4528 11.5221 17.5378 11.5549 17.8002C11.5999 18.0805 11.6222 18.1328 11.7999 18.3302C12.0028 18.5636 12.0477 18.6623 12.0799 18.9602C12.1063 19.0394 12.1327 19.1186 12.1599 19.2002C12.2305 19.4938 12.2485 19.7636 12.2449 20.0652C12.2442 20.1433 12.2435 20.2214 12.2427 20.3018C12.2418 20.3607 12.2409 20.4196 12.2399 20.4802C12.0741 20.1989 12.0354 19.9307 11.9849 19.6102C11.8861 19.0559 11.6879 18.6049 11.4205 18.1071C11.251 17.7853 11.1192 17.4553 10.9865 17.1171C10.8845 16.8748 10.8845 16.8748 10.7308 16.6484C10.0411 15.573 10.247 14.2946 10.4918 13.0934C10.5588 12.8052 10.6357 12.5238 10.7199 12.2402Z"
            fill="#16536E" />
        <path
            d="M15.6712 4.0643C16.8248 4.02741 17.9801 4.23879 19.1196 4.40024C19.1592 4.51904 19.1592 4.51904 19.1996 4.64024C18.7899 4.59471 18.3927 4.52997 17.9903 4.44024C15.4997 4.00827 13.0117 4.4253 10.7196 5.44024C10.6932 5.38744 10.6668 5.33464 10.6396 5.28024C10.6924 5.28024 10.7452 5.28024 10.7996 5.28024C10.8079 5.23074 10.8161 5.18124 10.8246 5.13024C10.8796 4.96024 10.8796 4.96024 11.1196 4.80024C11.0932 4.72104 11.0668 4.64184 11.0396 4.56024C11.1699 4.56441 11.1699 4.56441 11.3028 4.56867C11.4184 4.57093 11.534 4.57311 11.6496 4.57524C11.7067 4.57725 11.7637 4.57926 11.8225 4.58133C12.2196 4.5868 12.443 4.50576 12.7996 4.32024C13.3419 4.16828 13.8893 4.12916 14.4496 4.11024C14.5272 4.10743 14.6048 4.10463 14.6847 4.10174C14.8398 4.09644 14.9949 4.09149 15.1501 4.08692C15.3239 4.08138 15.4976 4.07318 15.6712 4.0643Z"
            fill="#135069" />
        <path
            d="M19.8397 14.7202C19.9453 14.7466 20.0509 14.773 20.1597 14.8002C20.1761 14.888 20.1925 14.9757 20.2094 15.0662C20.2312 15.1825 20.253 15.2989 20.2747 15.4152C20.2855 15.4729 20.2963 15.5306 20.3074 15.5901C20.3525 15.831 20.398 16.0717 20.4475 16.3118C20.4797 16.4802 20.4797 16.4802 20.4797 16.6402C20.4814 16.7046 20.483 16.7689 20.4847 16.8352C20.4797 17.0402 20.4797 17.0402 20.3997 17.2802C20.3469 17.2802 20.2941 17.2802 20.2397 17.2802C20.2224 17.3941 20.2224 17.3941 20.2047 17.5102C20.1597 17.7602 20.1597 17.7602 20.0797 17.9202C20.0005 17.9202 19.9213 17.9202 19.8397 17.9202C19.8414 18.0093 19.843 18.0984 19.8447 18.1902C19.8397 18.4802 19.8397 18.4802 19.7597 18.6402C19.7069 18.6402 19.6541 18.6402 19.5997 18.6402C19.5469 18.7458 19.4941 18.8514 19.4397 18.9602C19.3869 18.9602 19.3341 18.9602 19.2797 18.9602C19.2641 19.0768 19.2493 19.1935 19.2347 19.3102C19.2222 19.4077 19.2222 19.4077 19.2094 19.5071C19.1851 19.6841 19.1851 19.6841 19.2797 19.8402C19.3589 19.8402 19.4381 19.8402 19.5197 19.8402C19.5197 19.893 19.5197 19.9458 19.5197 20.0002C19.6253 20.0266 19.7309 20.053 19.8397 20.0802C19.8133 20.2122 19.7869 20.3442 19.7597 20.4802C19.601 20.4196 19.4427 20.3577 19.2847 20.2952C19.1966 20.2609 19.1084 20.2265 19.0175 20.1912C18.7997 20.0802 18.7997 20.0802 18.7197 19.8402C18.7882 19.6033 18.7882 19.6033 18.8947 19.3302C18.9289 19.2405 18.963 19.1508 18.9982 19.0583C19.1187 18.8024 19.2607 18.6174 19.4397 18.4002C19.4661 18.3144 19.4925 18.2286 19.5197 18.1402C19.5593 18.0313 19.5593 18.0313 19.5997 17.9202C19.7647 17.8665 19.7647 17.8665 19.9197 17.8402C20.0724 17.2728 20.0925 16.775 20.0597 16.1902C20.0565 16.1104 20.0533 16.0306 20.05 15.9483C20.0288 15.5143 19.9804 15.1318 19.8397 14.7202Z"
            fill="#DDF4F6" />
        <path
            d="M11.3598 10.2402C11.4126 10.2666 11.4654 10.293 11.5198 10.3202C11.4616 10.4853 11.4032 10.6503 11.3448 10.8152C11.3268 10.8659 11.3089 10.9166 11.2904 10.9688C11.1709 11.3042 11.0426 11.6349 10.9098 11.9652C10.4664 13.1084 10.0512 14.8491 10.4761 16.0571C10.6586 16.4559 10.8821 16.8256 11.1116 17.1986C11.2394 17.4328 11.3002 17.6609 11.3598 17.9202C11.307 17.9202 11.2542 17.9202 11.1998 17.9202C11.0388 17.7335 10.9585 17.5964 10.8798 17.3602C10.6588 17.3124 10.4669 17.2802 10.2398 17.2802C10.2662 17.1482 10.2926 17.0162 10.3198 16.8802C10.3726 16.8802 10.4254 16.8802 10.4798 16.8802C10.4534 16.801 10.427 16.7218 10.3998 16.6402C10.347 16.6402 10.2942 16.6402 10.2398 16.6402C10.2358 16.1907 10.2329 15.7412 10.231 15.2916C10.2302 15.1391 10.2291 14.9865 10.2277 14.834C10.2097 12.8203 10.2097 12.8203 10.5598 11.9202C10.6126 11.9202 10.6654 11.9202 10.7198 11.9202C10.7304 11.871 10.741 11.8219 10.752 11.7712C10.7731 11.6742 10.7731 11.6742 10.7948 11.5752C10.8157 11.4792 10.8157 11.4792 10.837 11.3812C10.8798 11.2002 10.8798 11.2002 10.9598 10.9602C11.0126 10.9602 11.0654 10.9602 11.1198 10.9602C11.1297 10.886 11.1396 10.8117 11.1498 10.7352C11.1998 10.4802 11.1998 10.4802 11.3598 10.2402Z"
            fill="#EFFBF9" />
        <path
            d="M4.9597 11.1201C5.0125 11.1465 5.0653 11.1729 5.1197 11.2001C5.08783 11.2784 5.05597 11.3567 5.02314 11.4373C4.98031 11.5432 4.9375 11.6492 4.8947 11.7551C4.87382 11.8063 4.85293 11.8575 4.83142 11.9103C4.12806 13.6557 4.02161 15.4192 3.9997 17.2801C3.9469 17.2537 3.8941 17.2273 3.8397 17.2001C3.83772 16.7488 3.83627 16.2975 3.8353 15.8461C3.8349 15.6925 3.83436 15.539 3.83366 15.3854C3.83269 15.1648 3.83224 14.9442 3.83189 14.7236C3.83147 14.6548 3.83106 14.586 3.83063 14.5152C3.83063 14.4512 3.83062 14.3871 3.83062 14.3211C3.83044 14.2648 3.83026 14.2085 3.83008 14.1505C3.8397 14.0001 3.8397 14.0001 3.9197 13.7601C3.9725 13.7601 4.0253 13.7601 4.0797 13.7601C4.0764 13.6908 4.0731 13.6215 4.0697 13.5501C4.08021 13.2664 4.14875 13.0676 4.2397 12.8001C4.27483 12.587 4.29745 12.3752 4.3197 12.1601C4.3725 12.1601 4.4253 12.1601 4.4797 12.1601C4.49702 12.0463 4.49702 12.0463 4.5147 11.9301C4.5597 11.6801 4.5597 11.6801 4.6397 11.5201C4.6925 11.5201 4.7453 11.5201 4.7997 11.5201C4.8525 11.3881 4.9053 11.2561 4.9597 11.1201Z"
            fill="#10506A" />
        <path
            d="M26.9602 11.52C27.3785 12.1474 27.5378 12.9849 27.7002 13.715C27.7133 13.7736 27.7263 13.8322 27.7397 13.8925C28.073 15.4537 28.0574 17.1688 27.6802 18.72C27.6274 18.6936 27.5746 18.6672 27.5202 18.64C27.5318 18.5715 27.5433 18.5031 27.5552 18.4325C27.6744 17.6047 27.6961 16.785 27.6952 15.95C27.6953 15.8936 27.6954 15.8372 27.6954 15.779C27.6953 15.2325 27.6869 14.7014 27.6002 14.16C27.5738 14.16 27.5474 14.16 27.5202 14.16C27.5202 13.9224 27.5202 13.6848 27.5202 13.44C27.4674 13.44 27.4146 13.44 27.3602 13.44C27.3602 13.3344 27.3602 13.2288 27.3602 13.12C27.3074 13.12 27.2546 13.12 27.2002 13.12C27.1905 13.0678 27.1808 13.0157 27.1709 12.9619C27.1108 12.6488 27.0512 12.3513 26.9452 12.05C26.8772 11.8301 26.8788 11.7318 26.9602 11.52Z"
            fill="#CDEFF3" />
        <path
            d="M27.8395 14.0801C27.8923 14.0801 27.9451 14.0801 27.9995 14.0801C28.0178 14.2441 28.036 14.4082 28.0542 14.5723C28.065 14.721 28.065 14.721 28.1595 14.8001C28.1675 14.9495 28.17 15.0992 28.1702 15.2488C28.1703 15.3865 28.1703 15.3865 28.1705 15.527C28.1702 15.6237 28.1698 15.7204 28.1695 15.8201C28.1698 15.9156 28.1701 16.0111 28.1705 16.1095C28.1704 16.2016 28.1703 16.2938 28.1702 16.3888C28.1701 16.4734 28.17 16.5579 28.1699 16.645C28.1601 16.8662 28.1257 17.0641 28.0795 17.2801C28.0704 17.3883 28.0638 17.4968 28.0598 17.6054C28.0572 17.664 28.0546 17.7226 28.0519 17.783C28.047 17.9047 28.0424 18.0264 28.0381 18.148C28.0239 18.4536 28.0099 18.7001 27.8395 18.9601C27.7867 18.9601 27.7339 18.9601 27.6795 18.9601C27.6795 19.0393 27.6795 19.1185 27.6795 19.2001C27.6267 19.2001 27.5739 19.2001 27.5195 19.2001C27.5292 19.1565 27.5389 19.1129 27.5489 19.068C27.8867 17.4977 27.9516 15.9188 27.7683 14.3217C27.7654 14.2684 27.7625 14.215 27.7595 14.1601C27.7859 14.1337 27.8123 14.1073 27.8395 14.0801Z"
            fill="#0E4E6B" />
        <path
            d="M5.67969 22.3198C5.88284 22.5713 6.08083 22.826 6.27559 23.0841C7.06303 24.1229 7.94356 25.1174 9.03969 25.8398C8.96049 25.919 8.88129 25.9982 8.79969 26.0798C8.47969 25.7598 8.47969 25.7598 8.35469 25.6198C8.2349 25.4936 8.2349 25.4936 7.99969 25.5198C7.99969 25.4142 7.99969 25.3086 7.99969 25.1998C7.94689 25.1998 7.89409 25.1998 7.83969 25.1998C7.83969 25.147 7.83969 25.0942 7.83969 25.0398C7.72089 25.0002 7.72089 25.0002 7.59969 24.9598C7.46469 24.8348 7.46469 24.8348 7.35969 24.7198C7.33329 24.7726 7.30689 24.8254 7.27969 24.8798C7.20049 24.8534 7.12129 24.827 7.03969 24.7998C7.03969 24.615 7.03969 24.4302 7.03969 24.2398C6.96049 24.2662 6.88129 24.2926 6.79969 24.3198C6.74689 24.2934 6.69409 24.267 6.63969 24.2398C6.63144 24.192 6.62319 24.1441 6.61469 24.0948C6.57117 23.8992 6.57117 23.8992 6.36469 23.7648C6.13335 23.5786 6.09564 23.4749 5.99969 23.1998C5.94427 23.1041 5.88752 23.0091 5.82969 22.9148C5.67969 22.6398 5.67969 22.6398 5.67969 22.3198Z"
            fill="#19576C" />
        <path
            d="M16.5598 16.4798C16.6045 17.1026 16.6458 17.7255 16.6598 18.3498C16.6628 18.4745 16.6628 18.4745 16.666 18.6017C16.6573 18.6671 16.6487 18.7325 16.6398 18.7998C16.5606 18.8526 16.4814 18.9054 16.3998 18.9598C16.3734 19.0126 16.347 19.0654 16.3198 19.1198C16.2406 19.1198 16.1614 19.1198 16.0798 19.1198C16.1256 18.8904 16.1487 18.8109 16.3198 18.6398C16.358 18.1426 16.276 17.7743 15.9998 17.3598C15.9841 17.1439 15.9841 17.1439 15.9898 16.9048C15.9912 16.8253 15.9926 16.7458 15.9941 16.6639C15.996 16.6031 15.9978 16.5424 15.9998 16.4798C16.2504 16.3963 16.3189 16.4051 16.5598 16.4798Z"
            fill="#065281" />
        <path
            d="M8.48 6.3999C8.678 6.4395 8.678 6.4395 8.88 6.4799C8.59969 6.76431 8.31107 7.03692 8.015 7.3049C7.37736 7.88834 6.81287 8.46541 6.31063 9.1724C6.26092 9.23428 6.21121 9.29615 6.16 9.3599C6.1072 9.3599 6.0544 9.3599 6 9.3599C6 9.2279 6 9.0959 6 8.9599C6.1056 8.9599 6.2112 8.9599 6.32 8.9599C6.3464 8.7751 6.3728 8.5903 6.4 8.3999C6.47178 8.39 6.47178 8.39 6.545 8.3799C6.77035 8.30264 6.83824 8.20081 6.96 7.9999C6.96 7.9471 6.96 7.8943 6.96 7.8399C7.0392 7.8399 7.1184 7.8399 7.2 7.8399C7.19505 7.77885 7.1901 7.7178 7.185 7.6549C7.2 7.4399 7.2 7.4399 7.29 7.3049C7.44 7.1999 7.44 7.1999 7.69 7.1199C7.7659 7.0935 7.8418 7.0671 7.92 7.0399C7.9464 6.9607 7.9728 6.8815 8 6.7999C8.1584 6.7735 8.3168 6.7471 8.48 6.7199C8.48 6.6143 8.48 6.5087 8.48 6.3999Z"
            fill="#17566D" />
        <path
            d="M4.79992 11.7598C4.85272 11.7862 4.90552 11.8126 4.95992 11.8398C4.92758 12.1115 4.88653 12.3076 4.75492 12.5498C4.6068 12.8718 4.62175 13.0884 4.63992 13.4398C4.58712 13.4398 4.53432 13.4398 4.47992 13.4398C4.41143 13.9975 4.3764 14.5537 4.35024 15.1148C4.34023 15.1956 4.33023 15.2765 4.31992 15.3598C4.24072 15.3994 4.24072 15.3994 4.15992 15.4398C4.13352 16.047 4.10712 16.6542 4.07992 17.2798C4.05352 17.2798 4.02712 17.2798 3.99992 17.2798C3.93551 15.3663 4.04693 13.5509 4.79992 11.7598Z"
            fill="#CDEEF2" />
        <path
            d="M12.0803 4.87988C12.0539 4.95908 12.0275 5.03828 12.0003 5.11988C11.8419 5.14628 11.6835 5.17268 11.5203 5.19988C11.5203 5.27908 11.5203 5.35828 11.5203 5.43988C11.2831 5.54366 11.0579 5.61397 10.8053 5.66488C10.5624 5.72184 10.4161 5.7936 10.2303 5.95988C9.99438 6.16504 9.81943 6.24154 9.52031 6.31988C9.52031 6.45188 9.52031 6.58388 9.52031 6.71988C9.46751 6.64068 9.41471 6.56148 9.36031 6.47988C9.203 6.53844 9.203 6.53844 9.04031 6.63988C9.01886 6.69433 8.99741 6.74878 8.97531 6.80488C8.94396 6.85603 8.91261 6.90718 8.88031 6.95988C8.59031 7.01988 8.59031 7.01988 8.32031 7.03988C9.153 6.12393 10.3929 5.51285 11.5203 5.03988C11.5912 5.00998 11.662 4.98007 11.735 4.94926C11.9203 4.87988 11.9203 4.87988 12.0803 4.87988Z"
            fill="#D8F3F6" />
        <path
            d="M20.4805 5.12012C21.6163 5.53897 22.7032 6.14256 23.6005 6.96012C23.4949 6.98652 23.3893 7.01292 23.2805 7.04012C23.2277 6.93452 23.1749 6.82892 23.1205 6.72012C22.9357 6.72012 22.7509 6.72012 22.5605 6.72012C22.5341 6.61452 22.5077 6.50892 22.4805 6.40012C22.2429 6.34732 22.0053 6.29452 21.7605 6.24012C21.7605 6.13452 21.7605 6.02892 21.7605 5.92012C21.4091 5.7951 21.4091 5.7951 21.0405 5.76012C21.0405 5.70732 21.0405 5.65452 21.0405 5.60012C20.9687 5.62487 20.9687 5.62487 20.8955 5.65012C20.7205 5.68012 20.7205 5.68012 20.4805 5.52012C20.5333 5.52012 20.5861 5.52012 20.6405 5.52012C20.6405 5.46732 20.6405 5.41452 20.6405 5.36012C20.5877 5.36012 20.5349 5.36012 20.4805 5.36012C20.4805 5.28092 20.4805 5.20172 20.4805 5.12012Z"
            fill="#E2F5F9" />
        <path
            d="M18.0802 4.4002C18.1403 4.41221 18.2003 4.42423 18.2622 4.43661C18.4618 4.47664 18.6611 4.51804 18.8602 4.5602C18.9233 4.57348 18.9864 4.58676 19.0514 4.60043C19.5012 4.70114 19.5012 4.70114 19.6802 4.8802C19.4394 4.95494 19.3709 4.96376 19.1202 4.8802C19.1202 4.8274 19.1202 4.7746 19.1202 4.7202C19.0212 4.72515 19.0212 4.72515 18.9202 4.7302C18.6402 4.7202 18.6402 4.7202 18.348 4.6427C17.99 4.55022 17.6437 4.52455 17.2752 4.5102C17.1736 4.50547 17.1736 4.50547 17.0699 4.50065C16.4339 4.47436 15.7979 4.47694 15.1615 4.49016C15.0507 4.49157 15.0507 4.49157 14.9377 4.49301C14.8725 4.49436 14.8073 4.49571 14.7401 4.49709C14.5406 4.47836 14.4123 4.42013 14.2402 4.3202C15.4561 4.09228 16.87 4.14391 18.0802 4.4002Z"
            fill="#D4F2F7" />
        <path
            d="M9.75969 26.3999C10.009 26.4933 10.2477 26.6012 10.4862 26.719C11.2952 27.1176 12.0899 27.4412 12.9597 27.6799C12.9069 27.7591 12.8541 27.8383 12.7997 27.9199C12.6974 27.8968 12.5951 27.8737 12.4897 27.8499C12.4321 27.8369 12.3746 27.8239 12.3153 27.8105C12.1597 27.7599 12.1597 27.7599 11.9997 27.5999C11.8033 27.551 11.8033 27.551 11.5797 27.5199C11.253 27.4658 10.9506 27.3975 10.6397 27.2799C10.6397 27.2007 10.6397 27.1215 10.6397 27.0399C10.5605 27.0399 10.4813 27.0399 10.3997 27.0399C10.3469 26.9607 10.2941 26.8815 10.2397 26.7999C9.99299 26.7799 9.99299 26.7799 9.75969 26.7999C9.73329 26.7207 9.70689 26.6415 9.67969 26.5599C9.70609 26.5071 9.73249 26.4543 9.75969 26.3999Z"
            fill="#14516A" />
        <path
            d="M25.5195 8.95996C25.896 9.07886 25.896 9.07886 25.9995 9.25996C26.0259 9.31936 26.0523 9.37876 26.0795 9.43996C26.1488 9.51916 26.2181 9.59836 26.2895 9.67996C26.4795 9.91996 26.4795 9.91996 26.4795 10.24C26.5587 10.24 26.6379 10.24 26.7195 10.24C26.815 10.5501 26.8795 10.7933 26.8795 11.12C26.9323 11.12 26.9851 11.12 27.0395 11.12C27.094 11.2363 27.094 11.2363 27.1495 11.355C27.2522 11.6056 27.2522 11.6056 27.4395 11.68C27.487 11.8918 27.4989 12.1033 27.5195 12.32C27.4007 12.3596 27.4007 12.3596 27.2795 12.4C27.2643 12.3586 27.2491 12.3173 27.2335 12.2747C26.8012 11.113 26.3076 10.007 25.5195 9.03996C25.5195 9.01356 25.5195 8.98716 25.5195 8.95996Z"
            fill="#17566C" />
        <path
            d="M12.72 25.6001C12.7464 25.6001 12.7728 25.6001 12.8 25.6001C12.8048 25.6899 12.8097 25.7797 12.8146 25.8723C12.8482 26.4772 12.8834 27.0788 12.96 27.6801C12.2615 27.5427 11.6188 27.3055 10.96 27.0401C10.96 27.0137 10.96 26.9873 10.96 26.9601C11.2504 26.9865 11.5408 27.0129 11.84 27.0401C11.84 27.0929 11.84 27.1457 11.84 27.2001C12.0776 27.2265 12.3152 27.2529 12.56 27.2801C12.56 27.1745 12.56 27.0689 12.56 26.9601C12.6128 26.9601 12.6656 26.9601 12.72 26.9601C12.72 26.5113 12.72 26.0625 12.72 25.6001Z"
            fill="#D1F1F5" />
        <path
            d="M25.1998 23.04C25.3598 23.2 25.3598 23.2 25.4398 23.44C25.0538 24.0786 24.4536 24.6039 23.9198 25.12C23.8934 25.0408 23.867 24.9616 23.8398 24.88C23.9364 24.7984 23.9364 24.7984 24.0348 24.715C24.2664 24.4951 24.2664 24.4951 24.2698 24.19C24.2863 24.1009 24.3028 24.0118 24.3198 23.92C24.5948 23.78 24.5948 23.78 24.8798 23.68C25.022 23.4668 25.1099 23.2778 25.1998 23.04Z"
            fill="#F1FAF9" />
        <path
            d="M12.6399 23.6802C12.6927 23.6802 12.7455 23.6802 12.7999 23.6802C12.8527 24.7098 12.9055 25.7394 12.9599 26.8002C13.0127 26.8266 13.0655 26.853 13.1199 26.8802C13.272 27.2353 13.2952 27.5364 13.2799 27.9202C13.2535 27.8674 13.2271 27.8146 13.1999 27.7602C13.1471 27.7338 13.0943 27.7074 13.0399 27.6802C13.0003 27.5614 13.0003 27.5614 12.9599 27.4402C12.9192 27.335 12.9192 27.335 12.8777 27.2277C12.7845 26.9074 12.7668 26.6118 12.7549 26.2802C12.7371 25.8203 12.7371 25.8203 12.678 25.3646C12.6261 25.032 12.6314 24.7061 12.6349 24.3702C12.6352 24.3037 12.6356 24.2371 12.636 24.1686C12.6369 24.0058 12.6383 23.843 12.6399 23.6802Z"
            fill="#175570" />
        <path
            d="M19.3597 18.5601C19.3597 18.6393 19.3597 18.7185 19.3597 18.8001C19.3333 18.8265 19.3069 18.8529 19.2797 18.8801C19.2589 19.0111 19.243 19.143 19.2297 19.2751C19.2221 19.3467 19.2145 19.4184 19.2066 19.4922C19.1846 19.6818 19.1846 19.6818 19.2797 19.8401C19.3589 19.8401 19.4381 19.8401 19.5197 19.8401C19.5197 19.8929 19.5197 19.9457 19.5197 20.0001C19.6253 20.0265 19.7309 20.0529 19.8397 20.0801C19.8133 20.2121 19.7869 20.3441 19.7597 20.4801C19.601 20.4195 19.4427 20.3576 19.2847 20.2951C19.1966 20.2607 19.1084 20.2264 19.0175 20.191C18.7997 20.0801 18.7997 20.0801 18.7197 19.8401C18.791 19.5976 18.791 19.5976 18.8997 19.3201C18.9348 19.2285 18.9699 19.1369 19.006 19.0426C19.1063 18.8287 19.1802 18.7079 19.3597 18.5601Z"
            fill="#F2F9FB" />
        <path
            d="M12.5604 14.5601C12.5868 14.5601 12.6132 14.5601 12.6404 14.5601C12.6351 14.6085 12.6297 14.657 12.6242 14.7069C12.6169 15.0995 12.6595 15.2949 12.9339 15.5885C13.2147 15.8304 13.5081 16.0739 13.8404 16.2401C13.8668 16.1609 13.8932 16.0817 13.9204 16.0001C13.9936 16.2194 14.0413 16.4285 14.0854 16.6551C14.0996 16.7271 14.1137 16.7992 14.1282 16.8735C14.1389 16.9285 14.1495 16.9834 14.1604 17.0401C14.1076 17.0137 14.0548 16.9873 14.0004 16.9601C14.0004 16.9073 14.0004 16.8545 14.0004 16.8001C13.9522 16.779 13.9039 16.758 13.8542 16.7363C13.6705 16.6346 13.5869 16.5452 13.4604 16.3801C13.2761 16.1484 13.1051 16.0186 12.8504 15.8701C12.6861 15.7563 12.6861 15.7563 12.5604 15.6001C12.5056 15.2473 12.5226 14.914 12.5604 14.5601Z"
            fill="#E0F4F5" />
        <path
            d="M4.95963 11.1201C5.01243 11.1465 5.06523 11.1729 5.11963 11.2001C5.08776 11.2784 5.0559 11.3567 5.02307 11.4373C4.65839 12.3373 4.367 13.2086 4.15963 14.1601C4.13323 14.1601 4.10683 14.1601 4.07963 14.1601C4.0639 13.669 4.0641 13.2647 4.23963 12.8001C4.27508 12.587 4.29738 12.3751 4.31963 12.1601C4.37243 12.1601 4.42523 12.1601 4.47963 12.1601C4.49695 12.0463 4.49695 12.0463 4.51463 11.9301C4.55963 11.6801 4.55963 11.6801 4.63963 11.5201C4.69243 11.5201 4.74523 11.5201 4.79963 11.5201C4.85243 11.3881 4.90523 11.2561 4.95963 11.1201Z"
            fill="#19566E" />
        <path
            d="M11.3598 10.2402C11.4126 10.2666 11.4654 10.293 11.5198 10.3202C11.2903 10.9715 11.0542 11.6184 10.801 12.2609C10.7345 12.4406 10.6809 12.6134 10.6398 12.8002C10.587 12.8002 10.5342 12.8002 10.4798 12.8002C10.4534 12.8794 10.427 12.9586 10.3998 13.0402C10.2542 12.63 10.411 12.3061 10.5598 11.9202C10.6126 11.9202 10.6654 11.9202 10.7198 11.9202C10.7304 11.871 10.741 11.8219 10.752 11.7712C10.7732 11.6742 10.7732 11.6742 10.7948 11.5752C10.8157 11.4792 10.8157 11.4792 10.837 11.3812C10.8798 11.2002 10.8798 11.2002 10.9598 10.9602C11.0126 10.9602 11.0654 10.9602 11.1198 10.9602C11.1297 10.886 11.1396 10.8117 11.1498 10.7352C11.1998 10.4802 11.1998 10.4802 11.3598 10.2402Z"
            fill="#CFF1F3" />
        <path
            d="M16.1598 15.9199C16.1598 16.0783 16.1598 16.2367 16.1598 16.3999C16.107 16.3999 16.0542 16.3999 15.9998 16.3999C16.0068 16.5533 16.0154 16.7066 16.0248 16.8599C16.0294 16.9453 16.034 17.0307 16.0388 17.1187C16.0828 17.3779 16.1519 17.4836 16.3198 17.6799C16.4143 17.998 16.4185 18.3097 16.3998 18.6399C16.347 18.6927 16.2942 18.7455 16.2398 18.7999C16.1342 18.7999 16.0286 18.7999 15.9198 18.7999C15.8802 18.6811 15.8802 18.6811 15.8398 18.5599C15.9586 18.5203 15.9586 18.5203 16.0798 18.4799C16.1271 17.9045 16.1271 17.9045 15.9148 17.3849C15.7249 17.0604 15.7638 16.9188 15.8398 16.5599C15.8134 16.4807 15.787 16.4015 15.7598 16.3199C15.9127 15.9199 15.9127 15.9199 16.1598 15.9199Z"
            fill="#D4F4F8" />
        <path
            d="M26.9602 11.52C27.3821 12.1528 27.541 12.999 27.7052 13.735C27.7189 13.7963 27.7326 13.8575 27.7468 13.9207C27.8056 14.1953 27.8402 14.4378 27.8402 14.72C27.7874 14.72 27.7346 14.72 27.6802 14.72C27.6538 14.5352 27.6274 14.3504 27.6002 14.16C27.5738 14.16 27.5474 14.16 27.5202 14.16C27.5202 13.9224 27.5202 13.6848 27.5202 13.44C27.4674 13.44 27.4146 13.44 27.3602 13.44C27.3602 13.3344 27.3602 13.2288 27.3602 13.12C27.3074 13.12 27.2546 13.12 27.2002 13.12C27.1905 13.0678 27.1808 13.0157 27.1709 12.9619C27.1108 12.6488 27.0512 12.3513 26.9452 12.05C26.8772 11.8301 26.8788 11.7318 26.9602 11.52Z"
            fill="#DAF5F8" />
        <path
            d="M12.7996 6.7998C13.4936 6.80371 14.1406 6.90598 14.7996 7.1198C14.7996 7.199 14.7996 7.2782 14.7996 7.3598C14.7501 7.34495 14.7006 7.3301 14.6496 7.3148C14.4762 7.26086 14.4762 7.26086 14.3196 7.3598C14.3196 7.307 14.3196 7.2542 14.3196 7.1998C13.8444 7.1998 13.3692 7.1998 12.8796 7.1998C12.8532 7.3318 12.8268 7.4638 12.7996 7.5998C12.7204 7.5734 12.6412 7.547 12.5596 7.5198C12.5842 7.41472 12.6093 7.30974 12.6346 7.2048C12.6485 7.14633 12.6624 7.08786 12.6768 7.02762C12.7196 6.8798 12.7196 6.8798 12.7996 6.7998Z"
            fill="#1A5266" />
        <path
            d="M17.2846 13.6801C17.5851 13.7824 17.8085 13.7381 18.1193 13.6982C18.382 13.6745 18.6211 13.7126 18.8796 13.7601C18.9588 13.7601 19.038 13.7601 19.1196 13.7601C19.1592 13.9185 19.1592 13.9185 19.1996 14.0801C19.1511 14.0686 19.1026 14.057 19.0527 14.0451C18.3665 13.8931 17.7355 13.7829 17.1005 14.1423C16.8912 14.2876 16.7288 14.4498 16.5596 14.6401C16.5666 14.525 16.5752 14.41 16.5846 14.2951C16.5892 14.2311 16.5939 14.167 16.5986 14.1011C16.6472 13.8865 16.7071 13.8133 16.8796 13.6801C17.1196 13.6001 17.1196 13.6001 17.2846 13.6801Z"
            fill="#E8F6F6" />
        <path
            d="M11.8398 9.12012C11.8926 9.17292 11.9454 9.22572 11.9998 9.28012C11.986 9.48262 11.986 9.48262 11.9398 9.72012C11.9253 9.79849 11.9109 9.87687 11.896 9.95762C11.8398 10.1601 11.8398 10.1601 11.6798 10.3201C11.6312 10.5063 11.6312 10.5063 11.5998 10.7151C11.5538 10.9938 11.5205 11.119 11.3598 11.3601C11.3137 11.4707 11.2704 11.5824 11.2298 11.6951C11.1985 11.781 11.1985 11.781 11.1666 11.8686C11.1512 11.912 11.1357 11.9554 11.1198 12.0001C11.0934 12.0001 11.067 12.0001 11.0398 12.0001C11.014 11.558 11.0975 11.2234 11.2648 10.8201C11.4447 10.3662 11.598 9.91787 11.7163 9.44324C11.7598 9.28012 11.7598 9.28012 11.8398 9.12012Z"
            fill="#245970" />
        <path
            d="M13.0396 10.2402C13.066 10.2402 13.0924 10.2402 13.1196 10.2402C13.1084 10.4636 13.0967 10.6869 13.0846 10.9102C13.0799 11.0055 13.0799 11.0055 13.0751 11.1027C13.0487 11.5821 13.0487 11.5821 12.9596 11.7602C12.9484 11.8811 12.9416 12.0024 12.9371 12.1237C12.9327 12.2328 12.9327 12.2328 12.9281 12.3441C12.9253 12.4204 12.9225 12.4967 12.9196 12.5752C12.8813 13.603 12.8813 13.603 12.7996 14.0002C12.7204 14.0398 12.7204 14.0398 12.6396 14.0802C12.6589 13.7361 12.6788 13.3921 12.6992 13.048C12.7061 12.9315 12.7127 12.815 12.7192 12.6985C12.8336 10.6523 12.8336 10.6523 13.0396 10.2402Z"
            fill="#D8F5F9" />
        <path
            d="M6 22.7202C6.145 22.7352 6.145 22.7352 6.32 22.8002C6.40095 22.933 6.48101 23.0663 6.56 23.2002C6.6392 23.2002 6.7184 23.2002 6.8 23.2002C6.8528 23.2002 6.9056 23.2002 6.96 23.2002C6.96 23.3058 6.96 23.4114 6.96 23.5202C7.0128 23.5466 7.0656 23.573 7.12 23.6002C7.12 23.7322 7.12 23.8642 7.12 24.0002C7.2256 24.0266 7.3312 24.053 7.44 24.0802C7.44 24.133 7.44 24.1858 7.44 24.2402C7.3608 24.2666 7.2816 24.293 7.2 24.3202C6 23.0298 6 23.0298 6 22.7202Z"
            fill="#E1F4F6" />
        <path
            d="M14.9601 7.75977C15.1151 7.81477 15.1151 7.81477 15.2801 7.91977C15.3476 8.1057 15.3476 8.1057 15.3601 8.31977C15.0515 8.79976 14.6149 9.04695 14.0801 9.19977C14.1065 9.09417 14.1329 8.98857 14.1601 8.87977C14.2393 8.87977 14.3185 8.87977 14.4001 8.87977C14.4001 8.82697 14.4001 8.77417 14.4001 8.71977C14.491 8.65781 14.5849 8.60008 14.6801 8.54477C14.837 8.44595 14.837 8.44595 14.9601 8.31977C15.0069 8.02284 15.0069 8.02284 14.9601 7.75977Z"
            fill="#13526A" />
        <path
            d="M12.3202 20.5601C12.6866 20.9008 12.7914 21.2592 12.8152 21.7488C12.8177 22.0462 12.8107 22.3429 12.8002 22.6401C12.7474 22.6665 12.6946 22.6929 12.6402 22.7201C12.5276 22.4947 12.5417 22.2914 12.5302 22.0401C12.499 21.5428 12.4113 21.1069 12.2402 20.6401C12.2666 20.6137 12.293 20.5873 12.3202 20.5601Z"
            fill="#1A546F" />
        <path
            d="M18.0801 4.56006C18.4276 4.60872 18.7741 4.66099 19.1201 4.72006C19.1201 4.77286 19.1201 4.82566 19.1201 4.88006C19.1723 4.8782 19.2244 4.87635 19.2782 4.87443C19.687 4.86599 20.0164 4.87852 20.4001 5.04006C20.3473 5.09286 20.2945 5.14566 20.2401 5.20006C20.0384 5.18542 19.8488 5.1628 19.6501 5.13006C19.337 5.08148 19.0383 5.04006 18.7201 5.04006C18.7201 4.98726 18.7201 4.93446 18.7201 4.88006C18.6442 4.87181 18.5683 4.86356 18.4901 4.85506C18.2401 4.80006 18.2401 4.80006 18.0801 4.56006Z"
            fill="#EEFAF9" />
        <path
            d="M11.0396 4.56006C11.1563 4.5579 11.273 4.55635 11.3896 4.55506C11.4546 4.55413 11.5196 4.5532 11.5865 4.55225C11.7596 4.56006 11.7596 4.56006 11.9196 4.64006C11.9196 4.69286 11.9196 4.74566 11.9196 4.80006C11.8429 4.81243 11.8429 4.81243 11.7646 4.82506C11.7102 4.84321 11.6557 4.86136 11.5996 4.88006C11.5732 4.95926 11.5468 5.03846 11.5196 5.12006C11.3368 5.2135 11.3368 5.2135 11.1146 5.29506C11.0411 5.32259 10.9676 5.35013 10.8918 5.3785C10.835 5.39881 10.7782 5.41913 10.7196 5.44006C10.6932 5.38726 10.6668 5.33446 10.6396 5.28006C10.6924 5.28006 10.7452 5.28006 10.7996 5.28006C10.8079 5.23056 10.8161 5.18106 10.8246 5.13006C10.8796 4.96006 10.8796 4.96006 11.1196 4.80006C11.0932 4.72086 11.0668 4.64166 11.0396 4.56006Z"
            fill="#075073" />
        <path
            d="M19.92 14.96C20.0709 15.2173 20.1033 15.4171 20.1132 15.7137C20.1163 15.7957 20.1194 15.8777 20.1225 15.9621C20.1263 16.0898 20.1263 16.0898 20.13 16.22C20.1331 16.3063 20.1362 16.3926 20.1394 16.4815C20.1469 16.6943 20.1538 16.9071 20.16 17.12C19.92 16.96 19.92 16.96 19.8657 16.7143C19.8377 16.3715 19.8283 16.0337 19.83 15.69C19.8297 15.6283 19.8294 15.5666 19.8291 15.5031C19.8299 15.0501 19.8299 15.0501 19.92 14.96Z"
            fill="#0B4B66" />
        <path
            d="M11.3602 18C11.8154 18.4552 11.9639 19.0652 12.0752 19.68C12.0864 19.7403 12.0977 19.8007 12.1092 19.8628C12.134 20.0142 12.148 20.1672 12.1602 20.32C12.1074 20.3728 12.0546 20.4256 12.0002 20.48C11.8267 20.3065 11.8893 19.9211 11.8783 19.6862C11.8364 19.4153 11.7511 19.2661 11.6002 19.04C11.5135 18.8555 11.4378 18.6686 11.3602 18.48C11.3074 18.48 11.2546 18.48 11.2002 18.48C11.2702 18.09 11.2702 18.09 11.3602 18Z"
            fill="#D7F3F5" />
        <path
            d="M6.32035 9.04004C6.39885 9.28425 6.39885 9.43583 6.32035 9.68004C6.26755 9.68004 6.21475 9.68004 6.16035 9.68004C6.1422 9.76914 6.12405 9.85824 6.10535 9.95004C6.00035 10.24 6.00035 10.24 5.79535 10.34C5.731 10.3598 5.66665 10.3796 5.60035 10.4C5.57395 10.4792 5.54755 10.5584 5.52035 10.64C5.46755 10.6136 5.41475 10.5872 5.36035 10.56C5.45992 10.3815 5.55998 10.2032 5.66035 10.025C5.6882 9.97497 5.71604 9.9249 5.74473 9.87332C5.91452 9.57304 6.09613 9.30415 6.32035 9.04004Z"
            fill="#DBF2F5" />
        <path
            d="M12.4799 7.2002C12.5327 7.2002 12.5855 7.2002 12.6399 7.2002C12.5865 7.3602 12.5332 7.5202 12.4799 7.6802C12.4643 7.73155 12.4487 7.78291 12.4327 7.83582C12.3149 8.21367 12.1661 8.56312 11.9949 8.9202C11.7987 9.33446 11.6763 9.70916 11.5999 10.1602C11.5735 10.1602 11.5471 10.1602 11.5199 10.1602C11.5051 9.40739 11.5051 9.40739 11.5999 9.0402C11.6791 9.0402 11.7583 9.0402 11.8399 9.0402C11.8558 8.97229 11.8558 8.97229 11.8721 8.90301C11.8862 8.84433 11.9003 8.78565 11.9149 8.7252C11.9358 8.63749 11.9358 8.63749 11.9571 8.54801C11.9999 8.4002 11.9999 8.4002 12.0799 8.3202C12.1055 8.20736 12.1284 8.0939 12.1499 7.9802C12.2138 7.68089 12.2893 7.44633 12.4799 7.2002Z"
            fill="#CFEEF5" />
        <path
            d="M20.08 22.3999C20.3158 22.8547 20.4287 23.2408 20.455 23.7549C20.4588 23.8101 20.4625 23.8653 20.4664 23.9222C20.4856 24.2546 20.4666 24.5542 20.4 24.8799C20.3917 24.9393 20.3835 24.9987 20.375 25.0599C20.2987 25.2541 20.1843 25.276 20 25.3599C20.0173 25.2941 20.0346 25.2283 20.0525 25.1605C20.2432 24.3961 20.3413 23.7911 20.08 23.0399C20.0666 22.8245 20.0725 22.6161 20.08 22.3999Z"
            fill="#C5E5EE" />
        <path
            d="M26.4004 21.9199C26.4532 22.0255 26.506 22.1311 26.5604 22.2399C26.5084 22.3043 26.5084 22.3043 26.4554 22.3699C26.3107 22.5632 26.3107 22.5632 26.1954 22.8099C26.0804 23.0399 26.0804 23.0399 25.9204 23.1999C25.8394 23.3058 25.7592 23.4124 25.6804 23.5199C25.5748 23.4935 25.4692 23.4671 25.3604 23.4399C25.4019 23.3838 25.4435 23.3277 25.4863 23.2699C25.81 22.8296 26.1179 22.3878 26.4004 21.9199Z"
            fill="#1E5870" />
        <path
            d="M26.96 20.48C27.0128 20.5064 27.0656 20.5328 27.12 20.56C27.0205 20.7769 26.9204 20.9935 26.82 21.21C26.7922 21.2708 26.7643 21.3317 26.7356 21.3944C26.5688 21.7526 26.3887 22.0775 26.16 22.4C26.1072 22.2944 26.0544 22.1888 26 22.08C26.0792 22.0272 26.1584 21.9744 26.24 21.92C26.2866 21.726 26.2866 21.726 26.295 21.51C26.3029 21.4008 26.3029 21.4008 26.3109 21.2894C26.3139 21.2335 26.3169 21.1776 26.32 21.12C26.3464 21.1728 26.3728 21.2256 26.4 21.28C26.4528 21.2272 26.5056 21.1744 26.56 21.12C26.6392 21.0936 26.7184 21.0672 26.8 21.04C26.8115 20.9773 26.8231 20.9146 26.835 20.85C26.88 20.64 26.88 20.64 26.96 20.48Z"
            fill="#E3F6F9" />
        <path
            d="M12.4801 7.6001C12.5593 7.6793 12.6385 7.7585 12.7201 7.8401C12.6854 7.90445 12.6854 7.90445 12.6501 7.9701C12.5215 8.24156 12.4209 8.51849 12.3701 8.8151C12.3003 9.01751 12.176 9.08658 12.0001 9.2001C11.9045 8.91336 11.9653 8.82759 12.0882 8.56385C12.1936 8.32377 12.2694 8.07556 12.3482 7.82572C12.4001 7.6801 12.4001 7.6801 12.4801 7.6001Z"
            fill="#155571" />
        <path
            d="M13.5597 6.63014C13.6497 6.64479 13.7396 6.65943 13.8322 6.67452C14.0244 6.70995 14.2111 6.7496 14.3997 6.80014C14.4591 6.81499 14.5185 6.82984 14.5797 6.84514C14.649 6.86247 14.649 6.86247 14.7197 6.88014C14.7197 6.95934 14.7197 7.03854 14.7197 7.12014C14.5735 7.09416 14.5735 7.09416 14.4244 7.06764C14.2945 7.04512 14.1646 7.02262 14.0347 7.00014C13.9387 6.98297 13.9387 6.98297 13.8408 6.96546C13.4609 6.90033 13.1051 6.86773 12.7197 6.88014C12.7197 6.80094 12.7197 6.72174 12.7197 6.64014C13.0161 6.537 13.2539 6.57894 13.5597 6.63014Z"
            fill="#E0F7F8" />
        <path
            d="M19.9198 25.3599C19.9462 25.3599 19.9726 25.3599 19.9998 25.3599C20.0262 25.8615 20.0526 26.3631 20.0798 26.8799C20.027 26.8799 19.9742 26.8799 19.9198 26.8799C19.9198 26.9855 19.9198 27.0911 19.9198 27.1999C20.0254 27.1735 20.131 27.1471 20.2398 27.1199C20.2662 27.1727 20.2926 27.2255 20.3198 27.2799C20.135 27.3327 19.9502 27.3855 19.7598 27.4399C19.7709 27.1382 19.7827 26.8365 19.7948 26.5349C19.7979 26.4491 19.8011 26.3634 19.8043 26.275C19.8076 26.1928 19.811 26.1105 19.8145 26.0258C19.8174 25.95 19.8203 25.8741 19.8233 25.796C19.8398 25.5999 19.8398 25.5999 19.9198 25.3599Z"
            fill="#DFF6F9" />
        <path
            d="M10.4801 12.7998C10.5736 13.0778 10.543 13.27 10.4851 13.5548C10.4006 14.0554 10.3843 14.5425 10.3851 15.0498C10.385 15.1238 10.385 15.1978 10.3849 15.274C10.387 15.6834 10.387 15.6834 10.4801 16.0798C10.4009 16.0534 10.3217 16.027 10.2401 15.9998C10.2341 15.6341 10.2298 15.2684 10.2269 14.9026C10.2257 14.7784 10.2241 14.6542 10.222 14.53C10.219 14.3506 10.2177 14.1713 10.2166 13.992C10.2154 13.9371 10.2142 13.8823 10.2129 13.8258C10.2128 13.4221 10.3051 13.1548 10.4801 12.7998Z"
            fill="#C6E7EE" />
        <path
            d="M18.7996 18.7998C18.9052 18.7998 19.0108 18.7998 19.1196 18.7998C19.1032 18.8596 19.0868 18.9194 19.0699 18.9811C19.0483 19.0598 19.0268 19.1386 19.0046 19.2198C18.9832 19.2978 18.9619 19.3757 18.9399 19.4561C18.92 19.5299 18.9001 19.6037 18.8796 19.6798C18.8621 19.7388 18.8447 19.7978 18.8268 19.8586C18.7832 20.0076 18.7832 20.0076 18.8796 20.1598C18.8004 20.1862 18.7212 20.2126 18.6396 20.2398C18.5596 19.7098 18.5596 19.7098 18.5596 19.4398C18.6124 19.4398 18.6652 19.4398 18.7196 19.4398C18.7179 19.3639 18.7163 19.288 18.7146 19.2098C18.7196 18.9598 18.7196 18.9598 18.7996 18.7998Z"
            fill="#155471" />
        <path
            d="M27.6002 14.0801C27.6266 14.0801 27.653 14.0801 27.6802 14.0801C27.7399 14.505 27.7697 14.9124 27.768 15.3426C27.7679 15.3985 27.7678 15.4544 27.7676 15.512C27.7672 15.688 27.7662 15.8641 27.7652 16.0401C27.7648 16.1605 27.7644 16.2809 27.7641 16.4013C27.7632 16.6942 27.7618 16.9872 27.7602 17.2801C27.7338 17.2801 27.7074 17.2801 27.6802 17.2801C27.6667 17.0584 27.6534 16.8367 27.6402 16.6151C27.6364 16.5522 27.6325 16.4894 27.6286 16.4246C27.625 16.364 27.6214 16.3034 27.6177 16.241C27.6143 16.1853 27.611 16.1296 27.6075 16.0722C27.5984 15.8828 27.5999 15.6943 27.603 15.5048C27.6037 15.4422 27.6044 15.3796 27.6052 15.3151C27.6061 15.2523 27.607 15.1895 27.608 15.1248C27.611 14.9549 27.611 14.9549 27.5202 14.8001C27.5052 14.5849 27.5133 14.3763 27.5202 14.1601C27.5466 14.1337 27.573 14.1073 27.6002 14.0801Z"
            fill="#EEFEFB" />
        <path
            d="M16.3201 17.6802C16.5601 17.8402 16.5601 17.8402 16.6151 18.0152C16.6448 18.2827 16.6604 18.5314 16.6401 18.8002C16.5609 18.853 16.4817 18.9058 16.4001 18.9602C16.3737 19.013 16.3473 19.0658 16.3201 19.1202C16.2409 19.1202 16.1617 19.1202 16.0801 19.1202C16.126 18.8908 16.149 18.8113 16.3201 18.6402C16.3395 18.4083 16.3395 18.4083 16.3301 18.1502C16.3286 18.0625 16.3272 17.9749 16.3257 17.8846C16.3238 17.8171 16.322 17.7497 16.3201 17.6802Z"
            fill="#0A4E6A" />
        <path
            d="M27.8395 17.3599C27.8659 17.3599 27.8923 17.3599 27.9195 17.3599C27.9373 17.5665 27.9538 17.7731 27.9695 17.9799C27.9747 18.0382 27.9798 18.0966 27.9852 18.1567C28.0078 18.4686 28.0212 18.6964 27.8395 18.9599C27.7867 18.9599 27.7339 18.9599 27.6795 18.9599C27.6795 19.0391 27.6795 19.1183 27.6795 19.1999C27.6267 19.1999 27.5739 19.1999 27.5195 19.1999C27.6251 18.5927 27.7307 17.9855 27.8395 17.3599Z"
            fill="#1D5C77" />
        <path
            d="M22.96 6.3999C23.1976 6.4395 23.1976 6.4395 23.44 6.4799C23.4664 6.5855 23.4928 6.6911 23.52 6.7999C23.5728 6.7999 23.6256 6.7999 23.68 6.7999C23.68 6.8527 23.68 6.9055 23.68 6.9599C23.7913 6.96485 23.7913 6.96485 23.905 6.9699C24.16 7.0399 24.16 7.0399 24.315 7.2749C24.343 7.35575 24.3711 7.4366 24.4 7.5199C24.3736 7.5727 24.3472 7.6255 24.32 7.6799C24.2732 7.6304 24.2732 7.6304 24.2256 7.5799C23.879 7.22218 23.5094 6.9123 23.1153 6.60803C23.064 6.56575 23.0128 6.52346 22.96 6.4799C22.96 6.4535 22.96 6.4271 22.96 6.3999Z"
            fill="#1B566E" />
        <path
            d="M8.15996 7.04004C8.21276 7.06644 8.26556 7.09284 8.31996 7.12004C8.24509 7.20848 8.17006 7.29679 8.09496 7.38504C8.0532 7.43423 8.01143 7.48342 7.9684 7.5341C7.83996 7.68004 7.83996 7.68004 7.70246 7.80754C7.66864 7.84466 7.63481 7.88179 7.59996 7.92004C7.61817 8.09308 7.61817 8.09308 7.67996 8.24004C7.60076 8.26644 7.52156 8.29284 7.43996 8.32004C7.43996 8.26724 7.43996 8.21444 7.43996 8.16004C7.28156 8.21284 7.12316 8.26564 6.95996 8.32004C7.33577 7.86714 7.73974 7.45186 8.15996 7.04004Z"
            fill="#E2F5F9" />
        <path
            d="M14.0001 9.2002C14.0529 9.2266 14.1057 9.253 14.1601 9.2802C14.1501 9.4302 14.1501 9.4302 14.0801 9.6002C14.0059 9.6233 13.9316 9.6464 13.8551 9.6702C13.5278 9.78572 13.4473 9.94442 13.2801 10.2402C13.2273 10.2138 13.1745 10.1874 13.1201 10.1602C13.2259 9.70533 13.3923 9.54291 13.7601 9.2802C13.8393 9.2538 13.9185 9.2274 14.0001 9.2002Z"
            fill="#D5F0F6" />
        <path
            d="M14.7998 17.6001C14.9846 17.6001 15.1694 17.6001 15.3598 17.6001C15.3862 17.7321 15.4126 17.8641 15.4398 18.0001C15.519 18.0001 15.5982 18.0001 15.6798 18.0001C15.7029 18.0512 15.726 18.1024 15.7498 18.1551C15.8261 18.3323 15.8261 18.3323 15.9998 18.4001C15.947 18.4001 15.8942 18.4001 15.8398 18.4001C15.8134 18.4529 15.787 18.5057 15.7598 18.5601C14.9504 17.9013 14.9504 17.9013 14.7998 17.6001Z"
            fill="#DEF3F8" />
        <path
            d="M20.0002 17.2798C20.0802 17.5198 20.0802 17.5198 20.0252 17.6898C19.9202 17.8398 19.9202 17.8398 19.7502 17.8998C19.6759 17.9097 19.6759 17.9097 19.6002 17.9198C19.5936 17.9924 19.587 18.065 19.5802 18.1398C19.5128 18.4318 19.4259 18.5305 19.2002 18.7198C19.2002 18.5614 19.2002 18.403 19.2002 18.2398C19.2794 18.2134 19.3586 18.187 19.4402 18.1598C19.4138 18.0542 19.3874 17.9486 19.3602 17.8398C19.4658 17.8398 19.5714 17.8398 19.6802 17.8398C19.7033 17.7919 19.7264 17.7441 19.7502 17.6948C19.8402 17.5198 19.8402 17.5198 20.0002 17.2798Z"
            fill="#275C70" />
        <path
            d="M5.59971 9.75977C5.67891 9.78617 5.75811 9.81257 5.83971 9.83977C5.62851 10.2358 5.41731 10.6318 5.19971 11.0398C5.17331 11.0398 5.14691 11.0398 5.11971 11.0398C5.07982 10.7139 5.04872 10.4343 5.22659 10.1473C5.34569 10.0108 5.46685 9.88275 5.59971 9.75977Z"
            fill="#185871" />
        <path
            d="M17.7137 4.19685C17.7957 4.20819 17.8777 4.21953 17.9621 4.23122C18.0472 4.24401 18.1323 4.2568 18.22 4.26997C18.3494 4.28823 18.3494 4.28823 18.4815 4.30685C18.6945 4.337 18.9073 4.36807 19.12 4.39997C19.1464 4.47917 19.1728 4.55837 19.2 4.63997C18.8519 4.6013 18.5126 4.55262 18.17 4.47997C17.7686 4.39647 17.3682 4.35298 16.96 4.31997C17.2311 4.15203 17.4014 4.15174 17.7137 4.19685Z"
            fill="#2E6378" />
        <path
            d="M13.4404 6.88004C13.9206 6.8411 14.3458 6.98413 14.8004 7.12004C14.8004 7.19924 14.8004 7.27844 14.8004 7.36004C14.7509 7.34519 14.7014 7.33034 14.6504 7.31504C14.4771 7.26109 14.4771 7.26109 14.3204 7.36004C14.3204 7.30724 14.3204 7.25444 14.3204 7.20004C14.03 7.17364 13.7396 7.14724 13.4404 7.12004C13.4404 7.04084 13.4404 6.96164 13.4404 6.88004Z"
            fill="#20596E" />
        <path
            d="M4.64023 20.0801C4.79733 20.3157 4.90404 20.5401 5.01523 20.8001C5.05184 20.8842 5.08845 20.9684 5.12617 21.0551C5.20023 21.2801 5.20023 21.2801 5.12023 21.5201C5.00023 21.4101 5.00023 21.4101 4.88023 21.2801C4.88023 21.2273 4.88023 21.1745 4.88023 21.1201C4.82743 21.1201 4.77463 21.1201 4.72023 21.1201C4.63205 20.7673 4.63411 20.4414 4.64023 20.0801Z"
            fill="#235C79" />
        <path
            d="M13.5995 16.5601C14.0015 16.7499 14.1244 16.9769 14.3195 17.3601C14.1083 17.3337 13.8971 17.3073 13.6795 17.2801C13.6795 17.2009 13.6795 17.1217 13.6795 17.0401C13.6267 17.0401 13.5739 17.0401 13.5195 17.0401C13.5459 16.8817 13.5723 16.7233 13.5995 16.5601Z"
            fill="#124F6C" />
        <path
            d="M16.08 16.6401C16.1064 16.7457 16.1328 16.8513 16.16 16.9601C16.2128 16.9601 16.2656 16.9601 16.32 16.9601C16.32 17.1185 16.32 17.2769 16.32 17.4401C16.3992 17.4665 16.4784 17.4929 16.56 17.5201C16.5864 17.5993 16.6128 17.6785 16.64 17.7601C16.4 17.7601 16.4 17.7601 16.18 17.6051C15.9812 17.3345 15.9787 17.2906 16.015 16.9751C16.0346 16.8631 16.0556 16.7512 16.08 16.6401Z"
            fill="#1E5B7A" />
        <path
            d="M10.7198 11.6802C10.7462 11.6802 10.7726 11.6802 10.7998 11.6802C10.8167 12.0955 10.7671 12.4103 10.6398 12.8002C10.587 12.8002 10.5342 12.8002 10.4798 12.8002C10.4534 12.8794 10.427 12.9586 10.3998 13.0402C10.2542 12.6299 10.411 12.306 10.5598 11.9202C10.6126 11.9202 10.6654 11.9202 10.7198 11.9202C10.7198 11.841 10.7198 11.7618 10.7198 11.6802Z"
            fill="#E3FAFB" />
        <path
            d="M9.44035 26C9.51955 26 9.59875 26 9.68035 26C9.68035 26.0528 9.68035 26.1056 9.68035 26.16C9.75955 26.16 9.83875 26.16 9.92035 26.16C9.92035 26.2128 9.92035 26.2656 9.92035 26.32C9.99955 26.32 10.0788 26.32 10.1604 26.32C10.1868 26.3728 10.2132 26.4256 10.2404 26.48C10.4425 26.5324 10.4425 26.5324 10.6404 26.56C10.6404 26.6128 10.6404 26.6656 10.6404 26.72C10.746 26.7728 10.8516 26.8256 10.9604 26.88C10.8812 26.9196 10.8812 26.9196 10.8004 26.96C10.65 26.8956 10.65 26.8956 10.4697 26.7928C10.4053 26.7565 10.3408 26.7201 10.2744 26.6827C10.2071 26.6438 10.1397 26.605 10.0704 26.565C10.0024 26.5265 9.93443 26.488 9.86441 26.4483C9.69606 26.3528 9.52807 26.2566 9.36035 26.16C9.38675 26.1072 9.41315 26.0544 9.44035 26Z"
            fill="#CDEBF1" />
        <path
            d="M25.1996 23.04C25.3596 23.2 25.3596 23.2 25.4396 23.44C25.3131 23.6357 25.3131 23.6357 25.1346 23.85C25.0472 23.9568 25.0472 23.9568 24.9581 24.0657C24.7996 24.24 24.7996 24.24 24.6396 24.32C24.6396 24.2144 24.6396 24.1088 24.6396 24C24.6891 23.9522 24.7386 23.9043 24.7896 23.855C25.0083 23.63 25.0459 23.4207 25.1196 23.12C25.146 23.0936 25.1724 23.0672 25.1996 23.04Z"
            fill="#E0F2F6" />
        <path
            d="M17.7598 13.8399C18.394 13.8169 18.9875 13.8621 19.5198 14.2399C19.3614 14.3191 19.3614 14.3191 19.1998 14.3999C19.1734 14.3471 19.147 14.2943 19.1198 14.2399C18.7417 14.106 18.3847 14.0545 17.9854 14.0274C17.9373 14.0183 17.8893 14.0093 17.8398 13.9999C17.8134 13.9471 17.787 13.8943 17.7598 13.8399Z"
            fill="#20596F" />
        <path
            d="M18.8801 13.7601C18.9593 13.7601 19.0385 13.7601 19.1201 13.7601C19.1465 13.8657 19.1729 13.9713 19.2001 14.0801C19.1516 14.0686 19.1032 14.057 19.0532 14.0451C18.3921 13.8987 17.7608 13.8104 17.1201 14.0801C17.1201 14.0009 17.1201 13.9217 17.1201 13.8401C17.7262 13.7033 18.2666 13.6649 18.8801 13.7601Z"
            fill="#D1EEF3" />
        <path
            d="M25.9198 9.6001C26.1796 9.82289 26.3327 10.1117 26.4998 10.4051C26.53 10.4561 26.5601 10.5071 26.5911 10.5596C26.666 10.6902 26.7335 10.825 26.7998 10.9601C26.7734 11.0129 26.747 11.0657 26.7198 11.1201C26.482 10.9163 26.3666 10.6838 26.2398 10.4001C26.2398 10.3473 26.2398 10.2945 26.2398 10.2401C26.187 10.2401 26.1342 10.2401 26.0798 10.2401C25.9448 10.0551 25.9448 10.0551 25.8398 9.8401C25.8662 9.7609 25.8926 9.6817 25.9198 9.6001Z"
            fill="#CDEBF1" />
        <path
            d="M19.5195 4.72021C19.8363 4.74661 20.1531 4.77301 20.4795 4.80021C20.4795 4.85301 20.4795 4.90581 20.4795 4.96021C20.5909 4.99239 20.5909 4.99239 20.7045 5.02521C20.9405 5.11313 21.044 5.17015 21.1995 5.36021C20.8245 5.30178 20.4868 5.17091 20.1345 5.03521C20.0753 5.01268 20.016 4.99015 19.955 4.96693C19.8097 4.91164 19.6646 4.85597 19.5195 4.80021C19.5195 4.77381 19.5195 4.74741 19.5195 4.72021Z"
            fill="#235A71" />
        <path
            d="M19.7598 20.48C19.9974 20.5196 19.9974 20.5196 20.2398 20.56C20.461 21.1066 20.4123 21.6645 20.3198 22.24C20.267 22.2928 20.2142 22.3456 20.1598 22.4C20.1644 22.3083 20.169 22.2166 20.1738 22.1222C20.232 21.3599 20.232 21.3599 19.9598 20.675C19.8938 20.6106 19.8278 20.5463 19.7598 20.48Z"
            fill="#DAF4F9" />
        <path
            d="M24.96 8.31982C25.3232 8.66109 25.6197 9.04271 25.92 9.43982C25.8672 9.49262 25.8144 9.54542 25.76 9.59982C25.7072 9.52062 25.6544 9.44142 25.6 9.35982C25.5214 9.32254 25.5214 9.32254 25.4412 9.28451C25.2411 9.17944 25.1949 9.08717 25.1 8.88482C25.0731 8.82965 25.0463 8.77448 25.0187 8.71764C24.96 8.55982 24.96 8.55982 24.96 8.31982Z"
            fill="#D0EEF4" />
        <path
            d="M21.1199 26.8802C20.8207 27.1795 20.4812 27.1777 20.0799 27.2002C20.0271 27.2002 19.9743 27.2002 19.9199 27.2002C19.9199 27.0946 19.9199 26.989 19.9199 26.8802C19.9727 26.8802 20.0255 26.8802 20.0799 26.8802C20.0799 26.933 20.0799 26.9858 20.0799 27.0402C20.1393 27.0155 20.1987 26.9907 20.2599 26.9652C20.5858 26.8393 20.7805 26.7711 21.1199 26.8802Z"
            fill="#F1FCFC" />
        <path
            d="M27.4404 12.7998C27.546 12.7998 27.6516 12.7998 27.7604 12.7998C27.8351 13.0239 27.8535 13.1722 27.8554 13.4048C27.8566 13.4676 27.8577 13.5304 27.8589 13.5951C27.8404 13.7598 27.8404 13.7598 27.6804 13.9198C27.6012 13.5502 27.522 13.1806 27.4404 12.7998Z"
            fill="#1E5A74" />
        <path
            d="M15.2802 8.31982C15.3308 8.4667 15.3308 8.4667 15.3602 8.63982C15.1288 8.92565 14.9158 9.10202 14.5602 9.19982C14.3352 9.20982 14.3352 9.20982 14.1602 9.19982C14.3202 9.03982 14.3202 9.03982 14.5402 8.93982C14.8531 8.77129 15.0385 8.57878 15.2802 8.31982Z"
            fill="#D4F0F3" />
        <path
            d="M15.3604 18.1602C15.8967 18.5677 15.8967 18.5677 15.9954 18.8702C15.997 18.9263 15.9987 18.9824 16.0004 19.0402C15.8156 19.093 15.6308 19.1458 15.4404 19.2002C15.5196 19.0946 15.5988 18.989 15.6804 18.8802C15.6276 18.7911 15.5748 18.702 15.5204 18.6102C15.3604 18.3402 15.3604 18.3402 15.3604 18.1602Z"
            fill="#0C5070" />
        <path
            d="M13.0402 27.2798C13.1814 27.5268 13.2002 27.6184 13.2002 27.9198C13.253 27.9462 13.3058 27.9726 13.3602 27.9998C13.2282 27.9998 13.0962 27.9998 12.9602 27.9998C12.9338 28.0526 12.9074 28.1054 12.8802 28.1598C12.6209 28.1317 12.511 28.1148 12.3352 27.9148C12.3039 27.8636 12.2725 27.8125 12.2402 27.7598C12.425 27.7862 12.6098 27.8126 12.8002 27.8398C12.8794 27.655 12.9586 27.4702 13.0402 27.2798Z"
            fill="#024D6C" />
        <path
            d="M12.4803 14.0801C12.5067 14.0801 12.5331 14.0801 12.5603 14.0801C12.5686 14.543 12.5597 14.9835 12.4803 15.4401C12.3603 15.3501 12.3603 15.3501 12.2403 15.2001C12.1814 14.7783 12.3217 14.4633 12.4803 14.0801Z"
            fill="#0A4F69" />
        <path
            d="M23.5196 25.04C23.6252 25.0928 23.7308 25.1456 23.8396 25.2C23.5228 25.4376 23.206 25.6752 22.8796 25.92C22.8004 25.8672 22.7212 25.8144 22.6396 25.76C22.6875 25.7402 22.7353 25.7204 22.7846 25.7C22.9704 25.6103 22.9704 25.6103 23.0796 25.43C23.1192 25.3805 23.1588 25.331 23.1996 25.28C23.3052 25.28 23.4108 25.28 23.5196 25.28C23.5196 25.2008 23.5196 25.1216 23.5196 25.04Z"
            fill="#CEECF0" />
        <path
            d="M10.7204 12.2402C10.7468 12.2402 10.7732 12.2402 10.8004 12.2402C10.8082 12.7324 10.8082 12.7324 10.8004 12.8802C10.774 12.9066 10.7476 12.933 10.7204 12.9602C10.6887 13.1346 10.6609 13.3098 10.6354 13.4852C10.6213 13.581 10.6071 13.6768 10.5926 13.7755C10.582 13.8497 10.5713 13.9238 10.5604 14.0002C10.5076 13.9474 10.4548 13.8946 10.4004 13.8402C10.4269 13.2838 10.5622 12.7726 10.7204 12.2402Z"
            fill="#2F6376" />
        <path
            d="M22.5602 26.1602C22.1378 26.3978 21.7154 26.6354 21.2802 26.8802C21.2538 26.8274 21.2274 26.7746 21.2002 26.7202C21.253 26.6938 21.3058 26.6674 21.3602 26.6402C21.4124 26.4782 21.4124 26.4782 21.4402 26.3202C21.5194 26.3466 21.5986 26.373 21.6802 26.4002C21.8205 26.3186 21.9607 26.2364 22.0949 26.1452C22.2402 26.0802 22.2402 26.0802 22.5602 26.1602Z"
            fill="#D9F3F4" />
        <path
            d="M12.5601 14.5601C12.5865 14.5601 12.6129 14.5601 12.6401 14.5601C12.6394 14.6122 12.6387 14.6644 12.6379 14.7182C12.6481 15.1507 12.6481 15.1507 12.8501 15.5201C12.9889 15.6365 13.1277 15.7422 13.2801 15.8401C13.2009 15.8929 13.1217 15.9457 13.0401 16.0001C12.7019 15.8098 12.7019 15.8098 12.5601 15.6001C12.5169 15.2501 12.5324 14.911 12.5601 14.5601Z"
            fill="#D1EFF3" />
        <path
            d="M11.5199 10.5601C11.6173 10.8524 11.5652 10.9286 11.4399 11.2001C11.4135 11.2529 11.3871 11.3057 11.3599 11.3601C11.3174 11.4697 11.2758 11.5798 11.2349 11.6901C11.2026 11.777 11.2026 11.777 11.1696 11.8657C11.1532 11.91 11.1368 11.9544 11.1199 12.0001C11.0935 12.0001 11.0671 12.0001 11.0399 12.0001C10.9815 11.4628 11.1714 11.0996 11.4399 10.6401C11.4663 10.6137 11.4927 10.5873 11.5199 10.5601Z"
            fill="#135168" />
        <path
            d="M21.2803 5.27979C21.3644 5.31444 21.3644 5.31444 21.4503 5.34979C21.6846 5.44149 21.921 5.52189 22.1603 5.59979C22.1603 5.65259 22.1603 5.70539 22.1603 5.75979C22.2395 5.78619 22.3187 5.81259 22.4003 5.83979C22.4003 5.91899 22.4003 5.99819 22.4003 6.07979C22.0025 5.93864 21.6455 5.72827 21.2803 5.51979C21.2803 5.44059 21.2803 5.36139 21.2803 5.27979Z"
            fill="#1F5970" />
        <path
            d="M16.32 14.6401C16.3992 14.6401 16.4784 14.6401 16.56 14.6401C16.5236 14.7536 16.4869 14.8669 16.45 14.9801C16.4296 15.0432 16.4092 15.1064 16.3881 15.1714C16.3239 15.3494 16.2482 15.5129 16.16 15.6801C16.1015 15.5219 16.0485 15.3617 16 15.2001C16.08 15.0401 16.08 15.0401 16.32 14.9601C16.32 14.8545 16.32 14.7489 16.32 14.6401Z"
            fill="#DEF3F7" />
        <path
            d="M12.6402 6.3999C12.6666 6.4527 12.693 6.5055 12.7202 6.5599C12.8821 6.61207 12.8821 6.61207 13.0402 6.6399C12.9346 6.6399 12.829 6.6399 12.7202 6.6399C12.6938 6.8247 12.6674 7.0095 12.6402 7.1999C12.5874 7.1999 12.5346 7.1999 12.4802 7.1999C12.4274 7.3319 12.3746 7.4639 12.3202 7.5999C12.2674 7.5999 12.2146 7.5999 12.1602 7.5999C12.3202 7.1999 12.4802 6.7999 12.6402 6.3999Z"
            fill="#EDF9FB" />
        <path
            d="M6.7998 23.9199C6.89198 23.9943 6.98353 24.0694 7.0748 24.1449C7.12585 24.1867 7.1769 24.2285 7.22949 24.2715C7.3598 24.3999 7.3598 24.3999 7.4398 24.6399C7.3606 24.7587 7.3606 24.7587 7.2798 24.8799C7.2006 24.8535 7.1214 24.8271 7.0398 24.7999C7.0299 24.7141 7.02 24.6283 7.0098 24.5399C6.96718 24.2842 6.91993 24.1406 6.7998 23.9199Z"
            fill="#144E68" />
        <path
            d="M4.40039 19.1201C4.61383 19.3336 4.68709 19.5616 4.80039 19.8401C4.83009 19.9078 4.85979 19.9754 4.89039 20.0451C4.97053 20.2684 5.00767 20.4856 5.04039 20.7201C4.98759 20.7201 4.93479 20.7201 4.88039 20.7201C4.79993 20.4986 4.72001 20.2769 4.64039 20.0551C4.6175 19.9923 4.5946 19.9294 4.57102 19.8646C4.54936 19.8041 4.5277 19.7435 4.50539 19.6811C4.48528 19.6253 4.46517 19.5696 4.44445 19.5122C4.40039 19.3601 4.40039 19.3601 4.40039 19.1201Z"
            fill="#D6F2FA" />
        <path
            d="M13.3599 9.2002C13.4127 9.2266 13.4655 9.253 13.5199 9.2802C13.5199 9.5202 13.5199 9.5202 13.3749 9.7352C13.1784 10.0327 13.0757 10.3043 12.9599 10.6402C12.9335 10.6402 12.9071 10.6402 12.8799 10.6402C12.9063 10.4026 12.9327 10.165 12.9599 9.9202C13.0127 9.9202 13.0655 9.9202 13.1199 9.9202C13.1298 9.87565 13.1397 9.8311 13.1499 9.7852C13.2047 9.5825 13.2792 9.39386 13.3599 9.2002Z"
            fill="#22576F" />
        <path
            d="M11.9199 27.3599C12.2631 27.4655 12.6063 27.5711 12.9599 27.6799C12.8807 27.7987 12.8807 27.7987 12.7999 27.9199C12.085 27.7675 12.085 27.7675 11.9199 27.5199C11.9199 27.4671 11.9199 27.4143 11.9199 27.3599Z"
            fill="#195870" />
        <path
            d="M26.9597 20.48C27.0125 20.5064 27.0653 20.5328 27.1197 20.56C26.8425 21.154 26.8425 21.154 26.5597 21.76C26.5333 21.76 26.5069 21.76 26.4797 21.76C26.4737 21.4926 26.4744 21.2957 26.5597 21.04C26.6389 21.04 26.7181 21.04 26.7997 21.04C26.8112 20.9773 26.8228 20.9146 26.8347 20.85C26.8797 20.64 26.8797 20.64 26.9597 20.48Z"
            fill="#D5EFF5" />
        <path
            d="M3.91951 17.2798C3.97231 17.2798 4.02511 17.2798 4.07951 17.2798C4.10591 17.5966 4.13231 17.9134 4.15951 18.2398C4.08031 18.2926 4.00111 18.3454 3.91951 18.3998C3.80819 18.0163 3.86458 17.6677 3.91951 17.2798Z"
            fill="#1F5A74" />
        <path
            d="M16.1598 15.9199C16.1598 16.0783 16.1598 16.2367 16.1598 16.3999C16.107 16.3999 16.0542 16.3999 15.9998 16.3999C15.9998 16.6375 15.9998 16.8751 15.9998 17.1199C15.9734 17.1199 15.947 17.1199 15.9198 17.1199C15.9082 17.0325 15.8967 16.945 15.8848 16.8549C15.8491 16.5654 15.8491 16.5654 15.7598 16.3199C15.9127 15.9199 15.9127 15.9199 16.1598 15.9199Z"
            fill="#D2EDEF" />
        <path
            d="M25.5195 8.95996C25.8953 9.07862 25.8953 9.07862 26.0045 9.26496C26.0293 9.32271 26.054 9.38046 26.0795 9.43996C26.1839 9.57507 26.2902 9.70879 26.3995 9.83996C26.3467 9.94556 26.2939 10.0512 26.2395 10.16C25.9995 9.75996 25.7595 9.35996 25.5195 8.95996Z"
            fill="#225B71" />
        <path
            d="M26.6398 21.4399C26.719 21.4399 26.7982 21.4399 26.8798 21.4399C26.8998 21.6599 26.8998 21.6599 26.8798 21.9199C26.7198 22.1099 26.7198 22.1099 26.5598 22.2399C26.4614 21.8067 26.4614 21.8067 26.5548 21.5699C26.5969 21.5056 26.5969 21.5056 26.6398 21.4399Z"
            fill="#11536F" />
        <path
            d="M5.27988 10.7202C5.33268 10.7202 5.38548 10.7202 5.43988 10.7202C5.39866 11.1427 5.2595 11.406 5.03988 11.7602C4.98708 11.7338 4.93428 11.7074 4.87988 11.6802C4.98473 11.3415 5.11537 11.0343 5.27988 10.7202Z"
            fill="#D9F1F6" />
        <path
            d="M14.7998 7.04004C14.9054 7.06644 15.011 7.09284 15.1198 7.12004C15.2135 7.43849 15.3004 7.75334 15.3598 8.08004C15.2498 7.97687 15.1432 7.86989 15.0398 7.76004C15.0398 7.70724 15.0398 7.65444 15.0398 7.60004C14.987 7.60004 14.9342 7.60004 14.8798 7.60004C14.8534 7.41524 14.827 7.23044 14.7998 7.04004Z"
            fill="#D1ECF2" />
        <path
            d="M19.8398 14.7202C19.9454 14.7466 20.051 14.773 20.1598 14.8002C20.2126 15.117 20.2654 15.4338 20.3198 15.7602C20.0764 15.5167 20.0316 15.4233 19.9448 15.1052C19.9247 15.0331 19.9046 14.961 19.8839 14.8868C19.8694 14.8318 19.8548 14.7768 19.8398 14.7202Z"
            fill="#DDF5FB" />
        <path
            d="M27.8398 14.0801C27.8926 14.0801 27.9454 14.0801 27.9998 14.0801C27.9998 14.5025 27.9998 14.9249 27.9998 15.3601C27.8508 15.0621 27.811 14.9068 27.7848 14.5851C27.7744 14.4683 27.7744 14.4683 27.7638 14.3491C27.7625 14.2867 27.7611 14.2244 27.7598 14.1601C27.7862 14.1337 27.8126 14.1073 27.8398 14.0801Z"
            fill="#1F5672" />
        <path
            d="M19.8398 26.2402C19.8662 26.2402 19.8926 26.2402 19.9198 26.2402C19.9198 26.557 19.9198 26.8738 19.9198 27.2002C20.0254 27.1738 20.131 27.1474 20.2398 27.1202C20.2662 27.173 20.2926 27.2258 20.3198 27.2802C20.135 27.333 19.9502 27.3858 19.7598 27.4402C19.7862 27.0442 19.8126 26.6482 19.8398 26.2402Z"
            fill="#B2DBE3" />
        <path
            d="M12.6402 13.1201C12.6666 13.1201 12.693 13.1201 12.7202 13.1201C12.6938 13.5953 12.6674 14.0705 12.6402 14.5601C12.6138 14.5601 12.5874 14.5601 12.5602 14.5601C12.484 14.1791 12.4735 13.8268 12.4802 13.4401C12.533 13.4401 12.5858 13.4401 12.6402 13.4401C12.6402 13.3345 12.6402 13.2289 12.6402 13.1201Z"
            fill="#3A6B80" />
        <path
            d="M12.4805 12.1602C12.5333 12.1602 12.5861 12.1602 12.6405 12.1602C12.6141 12.2658 12.5877 12.3714 12.5605 12.4802C12.6133 12.4802 12.6661 12.4802 12.7205 12.4802C12.7405 13.0802 12.7405 13.0802 12.5605 13.4402C12.5341 13.0178 12.5077 12.5954 12.4805 12.1602Z"
            fill="#114F6C" />
        <path
            d="M24.3998 24.2402C24.479 24.293 24.5582 24.3458 24.6398 24.4002C24.4022 24.6378 24.1646 24.8754 23.9198 25.1202C23.8934 25.041 23.867 24.9618 23.8398 24.8802C23.9025 24.8192 23.9652 24.7581 24.0298 24.6952C24.2456 24.4875 24.2456 24.4875 24.3998 24.2402Z"
            fill="#D3F0F4" />
        <path
            d="M11.8398 18.96C11.8662 18.96 11.8926 18.96 11.9198 18.96C11.9643 19.1831 12.0074 19.4064 12.0498 19.63C12.069 19.7252 12.069 19.7252 12.0886 19.8225C12.1193 19.9871 12.1403 20.1536 12.1598 20.32C12.107 20.3728 12.0542 20.4256 11.9998 20.48C11.8787 20.3588 11.9028 20.246 11.8945 20.0771C11.8912 20.0124 11.8878 19.9477 11.8844 19.8811C11.8812 19.813 11.8781 19.745 11.8748 19.675C11.8714 19.6066 11.8679 19.5383 11.8644 19.4679C11.8559 19.2986 11.8478 19.1293 11.8398 18.96Z"
            fill="#C8EBEF" />
        <path
            d="M10.8799 16.8799C11.1542 17.1804 11.245 17.5387 11.3599 17.9199C11.1999 17.9199 11.1999 17.9199 11.0749 17.8049C10.9089 17.509 10.9006 17.2143 10.8799 16.8799Z"
            fill="#CBECF2" />
        <path
            d="M11.4396 4.87988C11.466 4.95908 11.4924 5.03828 11.5196 5.11988C11.2556 5.22548 10.9916 5.33108 10.7196 5.43988C10.6932 5.38708 10.6668 5.33428 10.6396 5.27988C10.6924 5.27988 10.7452 5.27988 10.7996 5.27988C10.826 5.20068 10.8524 5.12148 10.8796 5.03988C11.0743 4.94507 11.2221 4.87988 11.4396 4.87988Z"
            fill="#195770" />
        <path
            d="M14.7197 17.7598C14.9597 17.7598 14.9597 17.7598 15.1347 17.9198C15.1826 17.9726 15.2304 18.0254 15.2797 18.0798C15.2533 18.1326 15.2269 18.1854 15.1997 18.2398C15.0677 18.2398 14.9357 18.2398 14.7997 18.2398C14.7733 18.0814 14.7469 17.923 14.7197 17.7598Z"
            fill="#1D5D7F" />
        <path
            d="M15.9998 17.8398C16.0526 17.8398 16.1054 17.8398 16.1598 17.8398C16.1755 18.3242 16.1755 18.3242 16.1598 18.4798C16.107 18.5326 16.0542 18.5854 15.9998 18.6398C15.947 18.6134 15.8942 18.587 15.8398 18.5598C15.8398 18.4014 15.8398 18.243 15.8398 18.0798C15.8926 18.0798 15.9454 18.0798 15.9998 18.0798C15.9998 18.0006 15.9998 17.9214 15.9998 17.8398Z"
            fill="#F1FDFA" />
        <path
            d="M12.0801 4.87988C12.0537 4.95908 12.0273 5.03828 12.0001 5.11988C11.8417 5.14628 11.6833 5.17268 11.5201 5.19988C11.5201 5.27908 11.5201 5.35828 11.5201 5.43988C11.3881 5.49268 11.2561 5.54548 11.1201 5.59988C11.1201 5.43988 11.1201 5.43988 11.2951 5.23988C11.5403 5.02192 11.7458 4.87988 12.0801 4.87988Z"
            fill="#DEF6F8" />
        <path
            d="M18.4004 4.47998C18.8228 4.58558 19.2452 4.69118 19.6804 4.79998C19.522 4.87918 19.522 4.87918 19.3604 4.95998C19.2812 4.93358 19.202 4.90718 19.1204 4.87998C19.1204 4.82718 19.1204 4.77438 19.1204 4.71998C19.0461 4.72493 18.9719 4.72988 18.8954 4.73498C18.6404 4.71998 18.6404 4.71998 18.4004 4.47998Z"
            fill="#CFF0F6" />
        <path
            d="M20.4001 24.3999C20.4265 24.3999 20.4529 24.3999 20.4801 24.3999C20.4909 24.5547 20.4986 24.7098 20.5051 24.8649C20.5097 24.9512 20.5144 25.0375 20.5191 25.1265C20.4801 25.3599 20.4801 25.3599 20.2785 25.5108C20.213 25.5402 20.1475 25.5696 20.0801 25.5999C20.126 25.3705 20.149 25.291 20.3201 25.1199C20.3234 24.9333 20.3234 24.7465 20.3201 24.5599C20.3465 24.5071 20.3729 24.4543 20.4001 24.3999Z"
            fill="#F0FBFC" />
        <path
            d="M25.9199 22.3198C25.9727 22.3462 26.0255 22.3726 26.0799 22.3998C25.9638 22.7286 25.799 22.9944 25.5999 23.2798C25.5199 23.0398 25.5199 23.0398 25.5799 22.8298C25.6799 22.6398 25.6799 22.6398 25.9199 22.5598C25.9199 22.4806 25.9199 22.4014 25.9199 22.3198Z"
            fill="#D5F2F7" />
        <path
            d="M27.5195 13.6001C27.5723 13.6001 27.6251 13.6001 27.6795 13.6001C27.7066 13.7267 27.7332 13.8534 27.7595 13.9801C27.7744 14.0506 27.7892 14.1212 27.8045 14.1938C27.8395 14.4001 27.8395 14.4001 27.8395 14.7201C27.7867 14.7201 27.7339 14.7201 27.6795 14.7201C27.6531 14.5353 27.6267 14.3505 27.5995 14.1601C27.5731 14.1601 27.5467 14.1601 27.5195 14.1601C27.5195 13.9753 27.5195 13.7905 27.5195 13.6001Z"
            fill="#CFEFF5" />
        <path
            d="M24.3203 7.68018C24.4123 7.75651 24.5039 7.83326 24.5953 7.91018C24.6464 7.95287 24.6974 7.99556 24.75 8.03955C24.8803 8.16018 24.8803 8.16018 24.9603 8.32018C24.8283 8.32018 24.6963 8.32018 24.5603 8.32018C24.5603 8.26738 24.5603 8.21458 24.5603 8.16018C24.5075 8.16018 24.4547 8.16018 24.4003 8.16018C24.3739 8.00178 24.3475 7.84338 24.3203 7.68018Z"
            fill="#DDF7FB" />
        <path
            d="M14.96 7.75977C15.115 7.81477 15.115 7.81477 15.28 7.91977C15.34 8.12977 15.34 8.12977 15.36 8.31977C15.2808 8.37257 15.2016 8.42537 15.12 8.47977C15.12 8.37417 15.12 8.26857 15.12 8.15977C15.0672 8.15977 15.0144 8.15977 14.96 8.15977C14.96 8.02777 14.96 7.89577 14.96 7.75977Z"
            fill="#225669" />
        <path
            d="M22.6396 6.31982C23.0381 6.44055 23.2991 6.68435 23.5996 6.95982C23.494 6.98622 23.3884 7.01262 23.2796 7.03982C23.1833 6.91743 23.0869 6.79503 22.9906 6.67264C22.8751 6.5381 22.8751 6.5381 22.6396 6.47982C22.6396 6.42702 22.6396 6.37422 22.6396 6.31982Z"
            fill="#CBECF1" />
        <path
            d="M14.2404 4.24011C14.2404 4.29291 14.2404 4.34571 14.2404 4.40011C13.884 4.43971 13.884 4.43971 13.5204 4.48011C13.494 4.40091 13.4676 4.32171 13.4404 4.24011C13.7031 4.10879 13.9545 4.1986 14.2404 4.24011Z"
            fill="#205A76" />
        <path
            d="M5.67969 22.3198C5.91294 22.6031 6.11979 22.8928 6.31969 23.1998C6.26689 23.2526 6.21409 23.3054 6.15969 23.3598C6.15969 23.2806 6.15969 23.2014 6.15969 23.1198C6.10689 23.1198 6.05409 23.1198 5.99969 23.1198C5.77254 22.8259 5.67969 22.6983 5.67969 22.3198Z"
            fill="#245C76" />
        <path
            d="M19.36 18.5601C19.36 18.6393 19.36 18.7185 19.36 18.8001C19.3336 18.8265 19.3072 18.8529 19.28 18.8801C19.2615 18.9879 19.247 19.0964 19.235 19.2051C19.2176 19.361 19.2176 19.361 19.2 19.5201C19.1208 19.5201 19.0416 19.5201 18.96 19.5201C18.9931 19.097 19.0681 18.8707 19.36 18.5601Z"
            fill="#C4E6EA" />
        <path
            d="M16.4001 18.2402C16.5169 18.452 16.5601 18.5518 16.5601 18.8002C16.5073 18.853 16.4545 18.9058 16.4001 18.9602C16.3737 19.013 16.3473 19.0658 16.3201 19.1202C16.2409 19.1202 16.1617 19.1202 16.0801 19.1202C16.126 18.8909 16.149 18.8113 16.3201 18.6402C16.3719 18.4346 16.3719 18.4346 16.4001 18.2402Z"
            fill="#135271" />
        <path
            d="M19.9196 16C20.1764 16.2568 20.1587 16.51 20.1646 16.865C20.1629 16.9491 20.1613 17.0333 20.1596 17.12C20.0804 17.0672 20.0012 17.0144 19.9196 16.96C19.8961 16.7344 19.8961 16.7344 19.9046 16.47C19.9067 16.3823 19.9089 16.2947 19.9111 16.2044C19.9139 16.1369 19.9167 16.0695 19.9196 16Z"
            fill="#235A72" />
        <path
            d="M26.8799 10.8799C26.9591 10.8799 27.0383 10.8799 27.1199 10.8799C27.1991 11.1175 27.2783 11.3551 27.3599 11.5999C27.3071 11.6527 27.2543 11.7055 27.1999 11.7599C27.0994 11.5274 27.0399 11.3762 27.0399 11.1199C26.9871 11.1199 26.9343 11.1199 26.8799 11.1199C26.8799 11.0407 26.8799 10.9615 26.8799 10.8799Z"
            fill="#06506E" />
        <path
            d="M5.20012 21.4399C5.36022 21.6437 5.5087 21.8362 5.60012 22.0799C5.57012 22.2599 5.57012 22.2599 5.52012 22.3999C5.44092 22.3471 5.36172 22.2943 5.28012 22.2399C5.28012 22.1343 5.28012 22.0287 5.28012 21.9199C5.25207 21.8638 5.22402 21.8077 5.19512 21.7499C5.17037 21.7004 5.14562 21.6509 5.12012 21.5999C5.14652 21.5471 5.17292 21.4943 5.20012 21.4399Z"
            fill="#205A74" />
        <path
            d="M12 19.4399C12.0528 19.4399 12.1056 19.4399 12.16 19.4399C12.2658 19.6515 12.2477 19.8142 12.245 20.0499C12.2443 20.1302 12.2436 20.2104 12.2428 20.2931C12.2419 20.3547 12.241 20.4164 12.24 20.4799C12.1063 20.243 12.0539 20.0503 12.03 19.7799C12.024 19.716 12.018 19.6521 12.0119 19.5862C12.008 19.5379 12.004 19.4897 12 19.4399Z"
            fill="#255C77" />
        <path
            d="M11.5995 19.04C11.8395 19.2 11.8395 19.2 11.8805 19.3732C11.8851 19.4381 11.8897 19.5031 11.8945 19.57C11.8998 19.6354 11.905 19.7008 11.9105 19.7682C11.9135 19.8183 11.9164 19.8684 11.9195 19.92C11.8667 19.92 11.8139 19.92 11.7595 19.92C11.6803 19.656 11.6011 19.392 11.5195 19.12C11.5459 19.0936 11.5723 19.0672 11.5995 19.04Z"
            fill="#E9FDFD" />
        <path
            d="M27.8395 17.3599C27.8659 17.3599 27.8923 17.3599 27.9195 17.3599C27.9238 17.5432 27.9269 17.7265 27.9295 17.9099C27.9314 18.012 27.9332 18.1141 27.9351 18.2192C27.9195 18.4799 27.9195 18.4799 27.7595 18.6399C27.6614 18.3456 27.7033 18.1693 27.7545 17.8649C27.7701 17.7705 27.7857 17.6761 27.8017 17.5789C27.8142 17.5066 27.8267 17.4343 27.8395 17.3599Z"
            fill="#21586B" />
        <path
            d="M14.2402 16.96C14.3952 17.025 14.3952 17.025 14.5602 17.12C14.5866 17.1992 14.613 17.2784 14.6402 17.36C14.693 17.36 14.7458 17.36 14.8002 17.36C14.7738 17.4392 14.7474 17.5184 14.7202 17.6C14.5354 17.468 14.3506 17.336 14.1602 17.2C14.1866 17.1208 14.213 17.0416 14.2402 16.96Z"
            fill="#CEECF1" />
        <path
            d="M12.7196 11.3599C12.746 11.3599 12.7724 11.3599 12.7996 11.3599C12.7996 11.7295 12.7996 12.0991 12.7996 12.4799C12.7204 12.4799 12.6412 12.4799 12.5596 12.4799C12.6124 12.1103 12.6652 11.7407 12.7196 11.3599Z"
            fill="#2D6A7E" />
        <path
            d="M10.96 26.96C11.2504 26.9864 11.5408 27.0128 11.84 27.04C11.84 27.1456 11.84 27.2512 11.84 27.36C11.542 27.263 11.2497 27.1593 10.96 27.04C10.96 27.0136 10.96 26.9872 10.96 26.96Z"
            fill="#C3E6E8" />
        <path
            d="M8.32031 25.2798C8.47871 25.2798 8.63711 25.2798 8.80031 25.2798C8.85311 25.4382 8.90591 25.5966 8.96031 25.7598C8.69104 25.6444 8.51947 25.4932 8.32031 25.2798Z"
            fill="#D2F0F4" />
        <path
            d="M7.51953 24.5601C7.68117 24.6082 7.84122 24.6619 7.99953 24.7201C8.02593 24.7729 8.05233 24.8257 8.07953 24.8801C8.13233 24.8801 8.18513 24.8801 8.23953 24.8801C8.21313 24.9857 8.18673 25.0913 8.15953 25.2001C8.05263 25.1087 7.94601 25.0169 7.83953 24.9251C7.78013 24.874 7.72073 24.823 7.65953 24.7704C7.61333 24.7274 7.56713 24.6844 7.51953 24.6401C7.51953 24.6137 7.51953 24.5873 7.51953 24.5601Z"
            fill="#CFEDF2" />
        <path
            d="M18.5596 19.4399C18.6652 19.4663 18.7708 19.4927 18.8796 19.5199C18.8647 19.5958 18.8499 19.6717 18.8346 19.7499C18.7766 19.9918 18.7766 19.9918 18.8796 20.1599C18.8004 20.1863 18.7212 20.2127 18.6396 20.2399C18.5596 19.7099 18.5596 19.7099 18.5596 19.4399Z"
            fill="#0A4E6D" />
        <path
            d="M11.9196 4.64014C12.1044 4.64014 12.2892 4.64014 12.4796 4.64014C12.3996 4.80014 12.3996 4.80014 12.2168 4.86826C12.1435 4.88868 12.0702 4.9091 11.9946 4.93014C11.8843 4.96138 11.8843 4.96138 11.7718 4.99326C11.715 5.00873 11.6582 5.0242 11.5996 5.04014C11.5996 4.98734 11.5996 4.93454 11.5996 4.88014C11.7052 4.85374 11.8108 4.82734 11.9196 4.80014C11.9196 4.74734 11.9196 4.69454 11.9196 4.64014Z"
            fill="#1E586D" />
        <path
            d="M14.08 4.3999C14.08 4.4527 14.08 4.5055 14.08 4.5599C13.9536 4.59125 13.8269 4.62093 13.7 4.6499C13.6294 4.66661 13.5589 4.68331 13.4862 4.70053C13.2537 4.72237 13.1546 4.68271 12.96 4.5599C13.0865 4.53285 13.2132 4.50627 13.34 4.4799C13.4105 4.46505 13.481 4.4502 13.5537 4.4349C13.76 4.3999 13.76 4.3999 14.08 4.3999Z"
            fill="#C8EAF1" />
        <path
            d="M9.59996 25.8399C9.59996 25.8927 9.59996 25.9455 9.59996 25.9999C9.45996 26.0599 9.45996 26.0599 9.27996 26.0799C9.09996 25.9249 9.09996 25.9249 8.95996 25.7599C9.23216 25.6627 9.35456 25.6909 9.59996 25.8399Z"
            fill="#E4F5F9" />
        <path
            d="M20.24 24.6401C20.4 24.8801 20.4 24.8801 20.39 25.0451C20.32 25.2001 20.32 25.2001 20 25.3601C20.0792 25.1225 20.1584 24.8849 20.24 24.6401Z"
            fill="#D5F2F6" />
        <path
            d="M14.3202 17.3599C14.5902 17.4547 14.772 17.5419 14.9602 17.7599C14.9338 17.8127 14.9074 17.8655 14.8802 17.9199C14.669 17.7879 14.4578 17.6559 14.2402 17.5199C14.2666 17.4671 14.293 17.4143 14.3202 17.3599Z"
            fill="#125068" />
        <path
            d="M16.415 16.4751C16.4628 16.5031 16.5107 16.5312 16.56 16.5601C16.4808 16.5865 16.4016 16.6129 16.32 16.6401C16.32 16.7457 16.32 16.8513 16.32 16.9601C16.2144 16.9865 16.1088 17.0129 16 17.0401C16 16.8553 16 16.6705 16 16.4801C16.24 16.4001 16.24 16.4001 16.415 16.4751Z"
            fill="#0E4E6D" />
        <path
            d="M19.5195 4.87988C19.6202 4.88978 19.7208 4.89968 19.8245 4.90988C19.9095 4.91824 19.9095 4.91824 19.9961 4.92676C20.1595 4.95988 20.1595 4.95988 20.3995 5.11988C20.1889 5.22518 20.0954 5.17973 19.8695 5.12488C19.7715 5.10152 19.7715 5.10152 19.6714 5.0777C19.5962 5.05898 19.5962 5.05898 19.5195 5.03988C19.5195 4.98708 19.5195 4.93428 19.5195 4.87988Z"
            fill="#DDFAFD" />
        <path
            d="M20.5599 27.1201C20.6391 27.1729 20.7183 27.2257 20.7999 27.2801C20.7207 27.3065 20.6415 27.3329 20.5599 27.3601C20.5071 27.4129 20.4543 27.4657 20.3999 27.5201C20.1499 27.4901 20.1499 27.4901 19.9199 27.4401C20.1369 27.2955 20.3114 27.1947 20.5599 27.1201Z"
            fill="#285E72" />
        <path
            d="M8.56047 25.6001C8.75847 25.6793 8.75847 25.6793 8.96047 25.7601C8.96047 25.8393 8.96047 25.9185 8.96047 26.0001C8.88127 26.0397 8.88127 26.0397 8.80047 26.0801C8.69487 25.9745 8.58927 25.8689 8.48047 25.7601C8.50687 25.7073 8.53327 25.6545 8.56047 25.6001Z"
            fill="#175269" />
        <path
            d="M18.8799 19.52C19.0399 19.82 19.0399 19.82 19.0399 20C19.0927 20 19.1455 20 19.1999 20C19.1999 20.0528 19.1999 20.1056 19.1999 20.16C19.0679 20.1336 18.9359 20.1072 18.7999 20.08C18.7199 19.84 18.7199 19.84 18.7949 19.665C18.837 19.5932 18.837 19.5932 18.8799 19.52Z"
            fill="#BFE2EF" />
        <path
            d="M27.2801 19.3599C27.3329 19.3599 27.3857 19.3599 27.4401 19.3599C27.4175 19.49 27.394 19.62 27.3701 19.7499C27.3571 19.8223 27.3441 19.8947 27.3307 19.9692C27.2801 20.1599 27.2801 20.1599 27.1201 20.3199C27.1201 19.5199 27.1201 19.5199 27.2801 19.3599Z"
            fill="#DAF6FA" />
        <path
            d="M4.15984 18.3999C4.2742 18.5883 4.32677 18.6783 4.28984 18.8999C4.27334 18.9461 4.25684 18.9923 4.23984 19.0399C4.21344 18.9871 4.18704 18.9343 4.15984 18.8799C3.99851 18.7892 3.99851 18.7892 3.83984 18.7199C3.94544 18.6671 4.05104 18.6143 4.15984 18.5599C4.15984 18.5071 4.15984 18.4543 4.15984 18.3999Z"
            fill="#1C5A73" />
        <path
            d="M14.7998 17.6001C14.9846 17.6001 15.1694 17.6001 15.3598 17.6001C15.3598 17.7849 15.3598 17.9697 15.3598 18.1601C15.2662 18.082 15.173 18.0036 15.0798 17.9251C15.0278 17.8815 14.9759 17.8379 14.9223 17.7929C14.8819 17.7557 14.8415 17.7185 14.7998 17.6801C14.7998 17.6537 14.7998 17.6273 14.7998 17.6001Z"
            fill="#D1EEF1" />
        <path
            d="M12.7997 15.7598C12.9068 15.8358 13.0134 15.9126 13.1197 15.9898C13.2088 16.0538 13.2088 16.0538 13.2997 16.1191C13.3459 16.1589 13.3921 16.1988 13.4397 16.2398C13.4397 16.2926 13.4397 16.3454 13.4397 16.3998C13.3341 16.3998 13.2285 16.3998 13.1197 16.3998C13.1197 16.3206 13.1197 16.2414 13.1197 16.1598C13.0405 16.1334 12.9613 16.107 12.8797 16.0798C12.8797 16.027 12.8797 15.9742 12.8797 15.9198C12.8269 15.8934 12.7741 15.867 12.7197 15.8398C12.7461 15.8134 12.7725 15.787 12.7997 15.7598Z"
            fill="#306174" />
        <path
            d="M13.12 10.1602C13.1728 10.1866 13.2256 10.213 13.28 10.2402C13.2536 10.3458 13.2272 10.4514 13.2 10.5602C13.2528 10.5602 13.3056 10.5602 13.36 10.5602C13.36 10.6658 13.36 10.7714 13.36 10.8802C13.2808 10.8802 13.2016 10.8802 13.12 10.8802C13.0936 10.933 13.0672 10.9858 13.04 11.0402C13.0664 10.7498 13.0928 10.4594 13.12 10.1602Z"
            fill="#EFFCF8" />
        <path
            d="M14.7996 7.91992C14.8788 7.99912 14.958 8.07832 15.0396 8.15992C14.9868 8.26552 14.934 8.37112 14.8796 8.47992C14.8004 8.47992 14.7212 8.47992 14.6396 8.47992C14.6924 8.29512 14.7452 8.11032 14.7996 7.91992Z"
            fill="#095885" />
        <path
            d="M14.7199 6.87983C14.7199 6.95903 14.7199 7.03823 14.7199 7.11983C14.4559 7.06703 14.1919 7.01423 13.9199 6.95983C13.9199 6.93343 13.9199 6.90703 13.9199 6.87983C14.213 6.81989 14.4338 6.78079 14.7199 6.87983Z"
            fill="#CCE5EB" />
        <path
            d="M22.96 6.3999C23.19 6.4149 23.19 6.4149 23.44 6.4799C23.55 6.6849 23.55 6.6849 23.6 6.8799C23.2868 6.77835 23.1367 6.67897 22.96 6.3999Z"
            fill="#12516B" />
        <path
            d="M11.8398 26.8799C12.0698 26.8649 12.0698 26.8649 12.3198 26.8799C12.3726 26.9591 12.4254 27.0383 12.4798 27.1199C12.2686 27.1463 12.0574 27.1727 11.8398 27.1999C11.8398 27.0943 11.8398 26.9887 11.8398 26.8799Z"
            fill="#F7FAF3" />
        <path
            d="M10.0801 26.2402C10.6201 26.2302 10.6201 26.2302 10.8001 26.3202C10.8001 26.373 10.8001 26.4258 10.8001 26.4802C10.5889 26.4802 10.3777 26.4802 10.1601 26.4802C10.1337 26.401 10.1073 26.3218 10.0801 26.2402Z"
            fill="#F8F8F8" />
        <path
            d="M4.95996 20.7998C5.01276 20.7998 5.06556 20.7998 5.11996 20.7998C5.17614 20.8991 5.23086 20.9993 5.28496 21.0998C5.31559 21.1555 5.34622 21.2112 5.37777 21.2686C5.45046 21.4687 5.43063 21.5625 5.35996 21.7598C5.29311 21.6149 5.22649 21.4699 5.15996 21.3248C5.12284 21.2441 5.08571 21.1633 5.04746 21.0801C4.95996 20.8798 4.95996 20.8798 4.95996 20.7998Z"
            fill="#D1F2F7" />
        <path
            d="M13.5995 16.5601C13.7315 16.6657 13.8635 16.7713 13.9995 16.8801C13.9203 16.9989 13.9203 16.9989 13.8395 17.1201C13.7339 17.0937 13.6283 17.0673 13.5195 17.0401C13.5459 16.8817 13.5723 16.7233 13.5995 16.5601Z"
            fill="#225D76" />
        <path
            d="M16.16 15.6802C16.2128 15.7066 16.2656 15.733 16.32 15.7602C16.38 16.0352 16.38 16.0352 16.4 16.3202C16.3472 16.373 16.2944 16.4258 16.24 16.4802C16.1608 16.4538 16.0816 16.4274 16 16.4002C16.0528 16.4002 16.1056 16.4002 16.16 16.4002C16.16 16.1626 16.16 15.925 16.16 15.6802Z"
            fill="#3A7082" />
        <path
            d="M19.2803 14.0801C19.4387 14.0801 19.5971 14.0801 19.7603 14.0801C19.7867 14.2649 19.8131 14.4497 19.8403 14.6401C19.7467 14.562 19.6534 14.4836 19.5603 14.4051C19.5083 14.3615 19.4563 14.3178 19.4028 14.2729C19.3623 14.2357 19.3219 14.1984 19.2803 14.1601C19.2803 14.1337 19.2803 14.1073 19.2803 14.0801Z"
            fill="#D7F1F6" />
        <path
            d="M23.6797 7.04004C23.7716 7.11638 23.8632 7.19312 23.9547 7.27004C24.0057 7.31273 24.0568 7.35543 24.1094 7.39941C24.2397 7.52004 24.2397 7.52004 24.3197 7.68004C24.2141 7.68004 24.1085 7.68004 23.9997 7.68004C23.6797 7.27115 23.6797 7.27115 23.6797 7.04004Z"
            fill="#D0EDF1" />
        <path
            d="M7.4402 7.2002C7.6102 7.2302 7.6102 7.2302 7.7602 7.2802C7.681 7.3066 7.6018 7.333 7.5202 7.3602C7.4938 7.4922 7.4674 7.6242 7.4402 7.7602C7.361 7.7602 7.2818 7.7602 7.2002 7.7602C7.2602 7.3802 7.2602 7.3802 7.4402 7.2002Z"
            fill="#074F6D" />
        <path
            d="M11.2801 27.2002C11.5065 27.2292 11.7034 27.288 11.9201 27.3602C11.9201 27.413 11.9201 27.4658 11.9201 27.5202C11.6561 27.4674 11.3921 27.4146 11.1201 27.3602C11.1729 27.3074 11.2257 27.2546 11.2801 27.2002Z"
            fill="#0E4F62" />
        <path
            d="M23.8395 25.1201C23.9187 25.1993 23.9979 25.2785 24.0795 25.3601C23.7795 25.6001 23.7795 25.6001 23.5995 25.6001C23.5731 25.5209 23.5467 25.4417 23.5195 25.3601C23.6251 25.2809 23.7307 25.2017 23.8395 25.1201Z"
            fill="#0E4F6A" />
        <path
            d="M24.8003 24.1602C24.8267 24.2394 24.8531 24.3186 24.8803 24.4002C24.7653 24.5752 24.7653 24.5752 24.6403 24.7202C24.5347 24.6938 24.4291 24.6674 24.3203 24.6402C24.4787 24.4818 24.6371 24.3234 24.8003 24.1602Z"
            fill="#215469" />
        <path
            d="M20.2398 22.2402C20.4258 22.531 20.4128 22.7819 20.3998 23.1202C20.347 23.0938 20.2942 23.0674 20.2398 23.0402C20.1362 22.4473 20.1362 22.4473 20.2398 22.2402Z"
            fill="#E8FDFD" />
        <path
            d="M26.4001 21.9199C26.4529 22.0255 26.5057 22.1311 26.5601 22.2399C26.4809 22.3191 26.4017 22.3983 26.3201 22.4799C26.2409 22.4535 26.1617 22.4271 26.0801 22.3999C26.1857 22.2415 26.2913 22.0831 26.4001 21.9199Z"
            fill="#2E6478" />
        <path
            d="M12.8799 15.3599C13.0119 15.3599 13.1439 15.3599 13.2799 15.3599C13.3063 15.4919 13.3327 15.6239 13.3599 15.7599C13.2279 15.7335 13.0959 15.7071 12.9599 15.6799C12.9335 15.5743 12.9071 15.4687 12.8799 15.3599Z"
            fill="#F1F8F5" />
        <path
            d="M5.60035 10.3999C5.65315 10.4527 5.70595 10.5055 5.76035 10.5599C5.70755 10.5599 5.65475 10.5599 5.60035 10.5599C5.60035 10.5071 5.60035 10.4543 5.60035 10.3999ZM5.52035 10.5599C5.54675 10.6127 5.57315 10.6655 5.60035 10.7199C5.65315 10.7199 5.70595 10.7199 5.76035 10.7199C5.73395 10.7991 5.70755 10.8783 5.68035 10.9599C5.60115 10.9863 5.52195 11.0127 5.44035 11.0399C5.41395 10.9079 5.38755 10.7759 5.36035 10.6399C5.41315 10.6135 5.46595 10.5871 5.52035 10.5599Z"
            fill="#EFFBF9" />
        <path
            d="M13.2 9.27979C13.2528 9.27979 13.3056 9.27979 13.36 9.27979C13.3098 9.51409 13.2331 9.70866 13.12 9.91979C13.0672 9.91979 13.0144 9.91979 12.96 9.91979C13.0037 9.64981 13.0444 9.5132 13.2 9.27979Z"
            fill="#0A4E72" />
        <path
            d="M6.88047 8.31982C6.96047 8.55982 6.96047 8.55982 6.86047 8.77482C6.81427 8.83587 6.76807 8.89692 6.72047 8.95982C6.64127 8.95982 6.56207 8.95982 6.48047 8.95982C6.59019 8.7235 6.71956 8.52462 6.88047 8.31982Z"
            fill="#CEEEF3" />
        <path
            d="M20.9854 26.825C21.0299 26.8432 21.0745 26.8613 21.1204 26.88C20.8853 27.0803 20.7061 27.1576 20.4004 27.2C20.4004 27.1472 20.4004 27.0944 20.4004 27.04C20.7326 26.7909 20.7326 26.7909 20.9854 26.825Z"
            fill="#D0EDF3" />
        <path
            d="M16 14.3999C16.0792 14.4263 16.1584 14.4527 16.24 14.4799C16.2664 14.6383 16.2928 14.7967 16.32 14.9599C16.2408 14.9599 16.1616 14.9599 16.08 14.9599C16.0536 14.7751 16.0272 14.5903 16 14.3999Z"
            fill="#F6FAF5" />
        <path
            d="M5.36012 10.2402C5.41292 10.293 5.46572 10.3458 5.52012 10.4002C5.41452 10.6114 5.30892 10.8226 5.20012 11.0402C5.17372 11.0402 5.14732 11.0402 5.12012 11.0402C5.18012 10.5102 5.18012 10.5102 5.36012 10.2402Z"
            fill="#2B5E73" />
        <path
            d="M6.56039 8.31982C6.61319 8.34622 6.66599 8.37262 6.72039 8.39982C6.69539 8.54982 6.69539 8.54982 6.64039 8.71982C6.56119 8.77262 6.48199 8.82542 6.40039 8.87982C6.40039 8.72142 6.40039 8.56302 6.40039 8.39982C6.45319 8.37342 6.50599 8.34702 6.56039 8.31982Z"
            fill="#0E5267" />
        <path
            d="M15.2 7.04004C15.2528 7.06644 15.3056 7.09284 15.36 7.12004C15.36 7.27844 15.36 7.43684 15.36 7.60004C15.2808 7.60004 15.2016 7.60004 15.12 7.60004C15.0936 7.44164 15.0672 7.28324 15.04 7.12004C15.0928 7.09364 15.1456 7.06724 15.2 7.04004Z"
            fill="#F2F9F4" />
        <path
            d="M21.1996 27.1198C21.0396 27.3598 21.0396 27.3598 20.8696 27.4148C20.8201 27.423 20.7706 27.4313 20.7196 27.4398C20.6932 27.3342 20.6668 27.2286 20.6396 27.1198C20.853 27.0131 20.973 27.0661 21.1996 27.1198Z"
            fill="#0C4E6D" />
        <path
            d="M6.55957 23.3599C6.71797 23.4919 6.87637 23.6239 7.03957 23.7599C7.01317 23.8655 6.98677 23.9711 6.95957 24.0799C6.55957 23.6299 6.55957 23.6299 6.55957 23.3599Z"
            fill="#CAEEF2" />
        <path
            d="M15.3604 18.1602C15.5452 18.3186 15.73 18.477 15.9204 18.6402C15.7604 18.7202 15.7604 18.7202 15.5954 18.6702C15.4404 18.5602 15.4404 18.5602 15.3804 18.3502C15.3738 18.2875 15.3672 18.2248 15.3604 18.1602Z"
            fill="#2B6076" />
        <path
            d="M19.2798 18.1602C19.3326 18.1602 19.3854 18.1602 19.4398 18.1602C19.4662 18.2394 19.4926 18.3186 19.5198 18.4002C19.4142 18.5058 19.3086 18.6114 19.1998 18.7202C19.1964 18.5602 19.1965 18.4001 19.1998 18.2402C19.2262 18.2138 19.2526 18.1874 19.2798 18.1602Z"
            fill="#17516C" />
        <path
            d="M10.4805 16.1602C10.7278 16.3625 10.7932 16.5781 10.8805 16.8802C10.8277 16.8802 10.7749 16.8802 10.7205 16.8802C10.7205 16.801 10.7205 16.7218 10.7205 16.6402C10.6413 16.6138 10.5621 16.5874 10.4805 16.5602C10.4805 16.4282 10.4805 16.2962 10.4805 16.1602Z"
            fill="#CDEEF5" />
        <path
            d="M12.4802 14.8799C12.5066 14.8799 12.533 14.8799 12.5602 14.8799C12.5602 15.1175 12.5602 15.3551 12.5602 15.5999C12.4546 15.6263 12.349 15.6527 12.2402 15.6799C12.2138 15.6271 12.1874 15.5743 12.1602 15.5199C12.2658 15.4935 12.3714 15.4671 12.4802 15.4399C12.4802 15.2551 12.4802 15.0703 12.4802 14.8799Z"
            fill="#36748F" />
        <path
            d="M4.8002 11.7598C4.853 11.7862 4.9058 11.8126 4.9602 11.8398C4.9002 12.2998 4.9002 12.2998 4.7202 12.4798C4.7102 11.9398 4.7102 11.9398 4.8002 11.7598Z"
            fill="#DCF5F9" />
        <path
            d="M4.80027 10.96C4.90587 10.96 5.01147 10.96 5.12027 10.96C5.12027 11.12 5.12027 11.12 5.01027 11.24C4.96737 11.2796 4.92447 11.3192 4.88027 11.36C4.82747 11.4128 4.77467 11.4656 4.72027 11.52C4.71687 11.36 4.71701 11.1999 4.72027 11.04C4.74667 11.0136 4.77307 10.9872 4.80027 10.96Z"
            fill="#094A70" />
        <path
            d="M8.15969 7.04004C8.21249 7.06644 8.26529 7.09284 8.31969 7.12004C8.16129 7.30484 8.00289 7.48964 7.83969 7.68004C7.78689 7.62724 7.73409 7.57444 7.67969 7.52004C7.83809 7.36164 7.99649 7.20324 8.15969 7.04004Z"
            fill="#D0EDF5" />
        <path
            d="M10.24 5.35986C10.455 5.38486 10.455 5.38486 10.64 5.43986C10.4491 5.59123 10.3143 5.68178 10.08 5.75986C10.0536 5.70706 10.0272 5.65426 10 5.59986C10.095 5.47486 10.095 5.47486 10.24 5.35986Z"
            fill="#235D6F" />
        <path
            d="M18.5596 4.3999C18.7444 4.3999 18.9292 4.3999 19.1196 4.3999C19.146 4.4791 19.1724 4.5583 19.1996 4.6399C18.9884 4.6135 18.7772 4.5871 18.5596 4.5599C18.5596 4.5071 18.5596 4.4543 18.5596 4.3999Z"
            fill="#255C75" />
        <path
            d="M22.5598 26.1598C22.243 26.3182 22.243 26.3182 21.9198 26.4798C21.8934 26.427 21.867 26.3742 21.8398 26.3198C22.1998 26.0698 22.1998 26.0698 22.5598 26.1598Z"
            fill="#CBE6EE" />
        <path
            d="M24.9596 23.6802C24.986 23.7858 25.0124 23.8914 25.0396 24.0002C24.9076 24.1058 24.7756 24.2114 24.6396 24.3202C24.6396 24.0002 24.6396 24.0002 24.7996 23.8202C24.8788 23.7509 24.8788 23.7509 24.9596 23.6802Z"
            fill="#CBEAEE" />
        <path
            d="M19.2002 20.1602C19.385 20.1602 19.5698 20.1602 19.7602 20.1602C19.7602 20.2658 19.7602 20.3714 19.7602 20.4802C19.5754 20.401 19.3906 20.3218 19.2002 20.2402C19.2002 20.2138 19.2002 20.1874 19.2002 20.1602Z"
            fill="#CCEDF1" />
        <path
            d="M27.4403 19.3599C27.4931 19.4127 27.5459 19.4655 27.6003 19.5199C27.5703 19.7299 27.5703 19.7299 27.5203 19.9199C27.4411 19.9463 27.3619 19.9727 27.2803 19.9999C27.3331 19.7887 27.3859 19.5775 27.4403 19.3599Z"
            fill="#31677D" />
        <path
            d="M14.1601 16.6401C14.2657 16.6401 14.3713 16.6401 14.4801 16.6401C14.4273 16.7985 14.3745 16.9569 14.3201 17.1201C14.2673 17.1201 14.2145 17.1201 14.1601 17.1201C14.1295 16.9876 14.103 16.8542 14.0801 16.7201C14.1065 16.6937 14.1329 16.6673 14.1601 16.6401Z"
            fill="#F4F9F9" />
        <path
            d="M19.9195 14.96C20.0491 15.1657 20.083 15.2541 20.0495 15.5C20.033 15.5594 20.0165 15.6188 19.9995 15.68C19.87 15.4742 19.836 15.3858 19.8695 15.14C19.886 15.0806 19.9025 15.0212 19.9195 14.96Z"
            fill="#235670" />
        <path
            d="M16.4002 14.96C16.453 14.96 16.5058 14.96 16.5602 14.96C16.5074 15.1712 16.4546 15.3824 16.4002 15.6C16.3474 15.6 16.2946 15.6 16.2402 15.6C16.3102 15.14 16.3102 15.14 16.4002 14.96Z"
            fill="#295A74" />
        <path
            d="M11.3601 10.2402C11.4129 10.2666 11.4657 10.293 11.5201 10.3202C11.3001 10.7902 11.3001 10.7902 11.1201 10.8802C11.1639 10.6103 11.2045 10.4736 11.3601 10.2402Z"
            fill="#E0F9FC" />
        <path
            d="M14.4002 7.2002C14.453 7.2266 14.5058 7.253 14.5602 7.2802C14.5602 7.333 14.5602 7.3858 14.5602 7.4402C14.6394 7.4666 14.7186 7.493 14.8002 7.5202C14.7738 7.573 14.7474 7.6258 14.7202 7.6802C14.6674 7.6802 14.6146 7.6802 14.5602 7.6802C14.5074 7.6274 14.4546 7.5746 14.4002 7.5202C14.3474 7.5202 14.2946 7.5202 14.2402 7.5202C14.2402 7.4674 14.2402 7.4146 14.2402 7.3602C14.293 7.3602 14.3458 7.3602 14.4002 7.3602C14.4002 7.3074 14.4002 7.2546 14.4002 7.2002Z"
            fill="#0B5B82" />
        <path
            d="M10.1597 5.43994C10.1069 5.57194 10.0541 5.70394 9.99969 5.83994C9.89409 5.83994 9.78849 5.83994 9.67969 5.83994C9.67969 5.78714 9.67969 5.73434 9.67969 5.67994C9.73249 5.67994 9.78529 5.67994 9.83969 5.67994C9.83969 5.62714 9.83969 5.57434 9.83969 5.51994C9.99969 5.43994 9.99969 5.43994 10.1597 5.43994Z"
            fill="#0C4F6D" />
        <path
            d="M12.8002 4.64014C12.8002 4.71934 12.8002 4.79854 12.8002 4.88014C12.589 4.90654 12.3778 4.93294 12.1602 4.96014C12.1602 4.90734 12.1602 4.85454 12.1602 4.80014C12.6202 4.64014 12.6202 4.64014 12.8002 4.64014Z"
            fill="#C4E5EE" />
    </g>
    <defs>
        <clipPath id="clip0_5774_355">
            <rect width="32" height="32" fill="white" />
        </clipPath>
    </defs>
</svg>