<svg width="32" height="32" viewBox="0 0 32 32" fill="none" xmlns="http://www.w3.org/2000/svg">
    <path fill-rule="evenodd" clip-rule="evenodd"
        d="M9.40044 0.0111217C11.4859 -0.102825 13.1431 0.658809 14.3718 2.29604C15.7096 3.90158 16.6135 5.7178 17.0835 7.7447C17.6492 7.634 18.2217 7.51684 18.8009 7.39317C20.4778 4.15148 23.0087 1.77868 26.3936 0.274766C28.6345 -0.288449 30.4122 0.326722 31.7265 2.12028C32.572 5.19246 31.4571 7.33092 28.3821 8.53563C27.857 8.7617 27.3146 8.93746 26.7551 9.06292C28.2604 9.15075 29.7669 9.18005 31.2746 9.1508C31.2746 9.56091 31.2746 9.97104 31.2746 10.3811C22.4164 10.3811 13.5583 10.3811 4.70022 10.3811C3.72608 17.1282 2.70167 23.8659 1.627 30.5939C10.3646 30.5939 19.1022 30.5939 27.8398 30.5939C27.8398 31.0627 27.8398 31.5312 27.8398 32C18.5596 31.9752 9.27965 31.9167 0 31.8242C1.08615 24.2014 2.23107 16.5849 3.43478 8.97504C5.00268 9.00429 6.56941 8.975 8.135 8.88716C4.79191 7.74696 3.85791 5.60851 5.33294 2.4718C6.37312 1.13258 7.72896 0.312344 9.40044 0.0111217ZM9.03889 2.4718C10.4476 2.27419 11.6528 2.655 12.6544 3.61426C14.1948 4.97451 15.5205 6.49778 16.6316 8.1841C16.3537 8.37913 16.2333 8.64278 16.27 8.97504C14.2173 8.74976 12.2288 8.25176 10.3043 7.48105C9.40182 7.10125 8.55818 6.63254 7.77344 6.07495C6.80337 5.03139 6.86363 4.03541 7.95422 3.08698C8.30347 2.83062 8.66502 2.62556 9.03889 2.4718ZM26.5743 2.4718C27.868 2.23741 28.8623 2.64751 29.5572 3.70215C29.7058 4.67403 29.3744 5.46496 28.5629 6.07495C26.0479 7.35891 23.3964 8.29631 20.6087 8.88716C20.1303 8.97458 19.6482 9.00388 19.1624 8.97504C19.2011 8.6861 19.1408 8.42246 18.9817 8.1841C21.2376 5.89198 23.7685 3.98787 26.5743 2.4718Z"
        fill="#F92531" />
    <path fill-rule="evenodd" clip-rule="evenodd"
        d="M22.4164 13.3696C23.6953 13.31 24.9607 13.3979 26.2128 13.6333C27.819 14.3235 28.6927 15.5246 28.834 17.2364C29.1916 20.4501 28.2575 23.2331 26.032 25.5852C24.1958 26.6647 22.2073 27.0162 20.0663 26.6397C18.2573 26.1692 17.2028 25.0268 16.9027 23.2124C16.5001 19.8765 17.4342 16.9765 19.7048 14.5121C20.5871 14.0231 21.491 13.6422 22.4164 13.3696ZM22.9588 17.0606C24.6814 16.8689 25.5251 17.6013 25.4897 19.2577C25.3754 22.3608 23.8086 23.4741 20.7894 22.5972C20.0096 21.0005 20.13 19.4479 21.151 17.9395C21.6743 17.4507 22.2769 17.1577 22.9588 17.0606Z"
        fill="#FA2431" />
    <path fill-rule="evenodd" clip-rule="evenodd"
        d="M6.32719 13.8967C8.97929 13.8674 11.6307 13.8967 14.2814 13.9846C15.416 14.3259 16.109 15.0583 16.3604 16.1816C16.8664 21.8704 14.1849 24.3896 8.31574 23.7395C8.20203 24.6891 8.02126 25.6264 7.77341 26.5517C6.6954 26.7267 5.61073 26.7852 4.51941 26.7274C5.25512 22.4699 5.85771 18.1929 6.32719 13.8967ZM10.8466 17.412C11.5009 17.5315 12.1637 17.6194 12.8352 17.6756C13.5559 18.9107 13.1944 19.6723 11.7505 19.9605C10.7808 20.1063 9.81661 20.0771 8.85808 19.8727C9.04581 19.1223 9.16632 18.3608 9.21963 17.5877C9.80049 17.6422 10.3428 17.5837 10.8466 17.412Z"
        fill="#FA2431" />
</svg>