<svg xmlns="http://www.w3.org/2000/svg" viewBox="0 0 230 230">
  <g transform="translate(0 35)">
    <path fill="#fff" d="M93.1 4.3H49.4L5.7 80l43.7 75.7h43.7l65.6-113.6L180.6 80l-43.7 75.7h43.7L224.3 80 180.6 4.3h-43.7L71.3 117.9 49.4 80z"/>
    <path fill="#f52757" fill-opacity=".8" d="m115 42.1 21.8-37.8 21.9 37.8z"/>
    <path fill="#f52757" fill-opacity=".7" d="M115 42.1 136.8 80l21.9-37.9z"/>
    <path fill="#f52757" fill-opacity=".6" d="M93.1 80 115 42.1 136.8 80z"/>
    <path fill="#1e88e5" fill-opacity=".68" d="M49.4 4.3 71.3 42.1 93.1 4.3z"/>
    <path fill="#1e88e5" fill-opacity=".76" d="M27.6 42.1 49.4 4.3l21.9 37.8z"/>
    <path fill="#1e88e5" fill-opacity=".84" d="M27.6 42.1 49.4 80l21.9-37.9z"/>
    <path fill="#1e88e5" fill-opacity=".94" d="M5.7 80 27.6 42.1 49.4 80z"/>
    <path fill="#f52757" fill-opacity=".65" d="M93.1 80 115 117.9 136.8 80z"/>
    <path fill="#f52757" fill-opacity=".7" d="M71.3 117.9 93.1 80l21.9 37.9z"/>
    <path fill="#f52757" fill-opacity=".8" d="m71.3 117.9 21.8 37.8 21.9-37.8z"/>
    <path fill="#f52757" d="m49.4 155.7 21.9-37.8 21.8 37.8z"/>
    <path fill="#1e88e5" d="M5.7 80 27.6 117.9 49.4 80z"/>
    <path fill="#1e88e5" fill-opacity=".68" d="m180.6 155.7-21.9-37.8-21.8 37.8z"/>
    <path fill="#1e88e5" fill-opacity=".76" d="m202.4 117.9-21.8 37.8-21.9-37.8z"/>
    <path fill="#1e88e5" fill-opacity=".84" d="M202.4 117.9 180.6 80l-21.9 37.9z"/>
    <path fill="#1e88e5" fill-opacity=".94" d="M224.3 80 202.4 117.9 180.6 80z"/>
    <path fill="#1e88e5" d="M224.3 80 202.4 42.1 180.6 80z"/>
    <path fill="#0d47a1" fill-opacity=".92" d="M71.3 117.9 49.4 80l-21.8 37.9z"/>
    <path fill="#0d47a1" d="m71.3 117.9-21.9 37.8-21.8-37.8z"/>
    <path fill="#f52757" d="m136.8 4.3 21.9 37.8 21.9-37.8z"/>
    <path fill="#0d47a1" d="M202.4 42.1 180.6 4.3l-21.9 37.8z"/>
    <path fill="#0d47a1" fill-opacity=".92" d="M202.4 42.1 180.6 80l-21.9-37.9z"/>
  </g>
</svg>
