<svg width="32" height="32" viewBox="0 0 32 32" fill="none" xmlns="http://www.w3.org/2000/svg">
    <path fill-rule="evenodd" clip-rule="evenodd"
        d="M26.2749 3.7374C25.9487 3.97506 25.5795 4.18675 25.1673 4.37244C21.8837 4.17414 18.5081 4.06828 15.0407 4.05492C12.0344 4.10785 9.02803 4.16075 6.02169 4.21368C5.6277 4.46496 5.20577 4.62372 4.75586 4.68996C11.5764 -1.2278 18.7495 -1.54532 26.2749 3.7374Z"
        fill="#AE0FF9" />
    <path fill-rule="evenodd" clip-rule="evenodd"
        d="M26.2742 3.7373C28.104 5.36218 29.5808 7.2673 30.7046 9.45267C30.4185 9.67779 30.3131 9.99531 30.3882 10.4052C28.5949 10.4052 26.8017 10.4052 25.0084 10.4052C24.8727 9.28616 24.398 8.3336 23.5843 7.54755C20.9497 9.19278 18.8399 8.6636 17.2552 5.95995C16.5185 6.436 15.8328 6.96522 15.1982 7.54755C11.2446 7.28372 7.23616 7.12496 3.17285 7.07127C3.64722 6.80512 3.75273 6.54053 3.48931 6.27747C3.83868 5.67783 4.26061 5.14862 4.75514 4.68987C5.20504 4.62363 5.62698 4.46487 6.02096 4.21359C9.02731 4.16065 12.0336 4.10776 15.04 4.05482C18.5074 4.06819 21.8829 4.17405 25.1666 4.37235C25.5788 4.18666 25.9479 3.97497 26.2742 3.7373Z"
        fill="#A60FF9" />
    <path fill-rule="evenodd" clip-rule="evenodd"
        d="M3.48951 6.27734C3.75293 6.54041 3.64742 6.805 3.17305 7.07114C7.23636 7.12484 11.2448 7.2836 15.1984 7.54742C14.581 8.59083 13.8425 9.54339 12.9832 10.4051C9.28476 10.4578 5.59275 10.352 1.90723 10.0876C2.04198 9.56723 2.04198 9.14389 1.90723 8.81751C2.18674 7.80008 2.71416 6.95338 3.48951 6.27734Z"
        fill="#A113F9" />
    <path fill-rule="evenodd" clip-rule="evenodd"
        d="M16.781 6.91211C17.392 7.85648 18.2359 8.54442 19.3126 8.97599C20.8091 9.29211 22.2331 9.13335 23.5848 8.49971C24.996 11.0691 24.5213 13.1859 22.1607 14.8501C19.6422 14.0344 17.5852 12.5526 15.9898 10.4048C15.2253 9.00063 15.489 7.83638 16.781 6.91211Z"
        fill="#9C17F9" />
    <path fill-rule="evenodd" clip-rule="evenodd"
        d="M1.90753 8.81738C2.04229 9.14376 2.04229 9.56711 1.90753 10.0875C5.59305 10.3518 9.28506 10.4577 12.9835 10.405C11.5205 12.2448 9.99095 14.0441 8.3949 15.8028C8.23873 16.3217 8.18598 16.8509 8.23667 17.3904C7.93338 17.2467 7.66968 17.035 7.44553 16.7554C6.8772 17.1577 6.29701 17.1577 5.70502 16.7554C5.37568 17.5464 5.11194 17.5464 4.91387 16.7554C4.47131 16.9303 4.04938 17.0361 3.64805 17.0729C2.67472 16.8226 1.67262 16.6638 0.641703 16.5966C0.452174 16.0815 0.241201 15.6052 0.00878906 15.1678C0.157711 12.8703 0.790625 10.7535 1.90753 8.81738Z"
        fill="#971DF9" />
    <path fill-rule="evenodd" clip-rule="evenodd"
        d="M12.0344 12.3105C13.2129 13.3327 14.3733 14.444 15.5154 15.6445C16.7715 16.6406 18.1428 17.4344 19.6294 18.0259C18.6291 20.1183 17.1523 20.4888 15.199 19.1372C13.173 18.0572 11.6962 16.4696 10.7686 14.3744C11.2568 13.7261 11.6787 13.0382 12.0344 12.3105Z"
        fill="#9420F9" />
    <path fill-rule="evenodd" clip-rule="evenodd"
        d="M14.5657 9.45312C16.4952 12.0202 18.9213 14.0312 21.8442 15.486C21.3611 16.0237 20.9391 16.6058 20.5784 17.2324C19.3081 17.3929 18.1478 17.0754 17.0973 16.2798C15.3337 15.0927 13.9624 13.558 12.9834 11.6758C13.396 10.8407 13.9234 10.0998 14.5657 9.45312Z"
        fill="#961DF9" />
    <path fill-rule="evenodd" clip-rule="evenodd"
        d="M30.7046 9.45312C31.6977 12.0012 32.1195 14.6472 31.9705 17.3911C30.8144 17.7658 29.6013 17.9775 28.3312 18.0262C26.0536 17.6644 23.8911 17.6644 21.8439 18.0262C21.6281 17.7904 21.4171 17.5787 21.2109 17.3911C23.0949 15.607 24.4663 13.4902 25.3249 11.0407C25.2101 10.8237 25.1046 10.612 25.0084 10.4057C26.8017 10.4057 28.5949 10.4057 30.3882 10.4057C30.3131 9.99577 30.4186 9.67825 30.7046 9.45312Z"
        fill="#961EF9" />
    <path fill-rule="evenodd" clip-rule="evenodd"
        d="M9.81851 14.8506C11.1128 16.4128 12.5896 17.8417 14.2489 19.1371C15.2155 19.8337 16.2704 20.3629 17.4135 20.7247C16.4415 22.6561 15.0702 22.9736 13.2995 21.6773C12.0865 20.6718 10.8734 19.6663 9.66028 18.6608C9.24626 18.1419 8.98256 17.5598 8.86914 16.9145C9.11908 16.19 9.43554 15.502 9.81851 14.8506Z"
        fill="#8E25F9" />
    <path fill-rule="evenodd" clip-rule="evenodd"
        d="M0.00854013 15.168C0.240953 15.6054 0.451925 16.0816 0.641454 16.5968C1.67237 16.664 2.67447 16.8228 3.6478 17.0731C4.04913 17.0363 4.47106 16.9305 4.91362 16.7556C5.1117 17.5466 5.37543 17.5466 5.70477 16.7556C6.29676 17.1579 6.87696 17.1579 7.44528 16.7556C7.66943 17.0351 7.93313 17.2468 8.23642 17.3906C8.62722 18.4887 9.26013 19.4413 10.1352 20.2483C9.62934 21.2331 8.94367 22.0798 8.0782 22.7885C7.92541 23.0895 7.87266 23.407 7.91997 23.741C6.12363 23.7938 4.33036 23.7408 2.5402 23.5823C2.3901 23.0334 2.07364 22.6629 1.59083 22.4709C0.452571 20.2127 -0.074859 17.7784 0.00854013 15.168Z"
        fill="#8B29F9" />
    <path fill-rule="evenodd" clip-rule="evenodd"
        d="M21.2116 17.3906C21.4178 17.5782 21.6288 17.7898 21.8446 18.0257C23.8918 17.6639 26.0543 17.6639 28.3319 18.0257C29.602 17.977 30.8151 17.7653 31.9712 17.3906C31.7379 19.3866 31.2104 21.2917 30.3889 23.106C29.936 23.2908 29.5141 23.5553 29.1231 23.8998C23.0049 24.1115 16.8867 24.1115 10.7686 23.8998C11.0067 23.6868 11.1122 23.4222 11.085 23.106C11.236 22.4823 11.6052 22.0589 12.1926 21.8359C13.2328 22.4899 14.3404 23.0191 15.5154 23.4235C17.6259 21.6232 19.5247 19.6122 21.2116 17.3906Z"
        fill="#8B2AF9" />
    <path fill-rule="evenodd" clip-rule="evenodd"
        d="M1.59082 22.4707C2.07363 22.6627 2.3901 23.0332 2.54019 23.582C4.33036 23.7406 6.12362 23.7935 7.91996 23.7408C8.04135 24.31 8.41056 24.6275 9.02756 24.6933C9.76079 24.2218 10.4464 23.6926 11.0845 23.1057C11.1117 23.422 11.0062 23.6866 10.7681 23.8995C16.8862 24.1112 23.0044 24.1112 29.1226 23.8995C29.5136 23.5551 29.9355 23.2905 30.3884 23.1057C29.8298 24.1246 29.1969 25.0772 28.4897 25.9634C27.6635 26.4187 26.8723 26.9481 26.1162 27.551C20.0722 27.4024 13.954 27.4024 7.76173 27.551C7.02334 27.3392 6.28492 27.1278 5.54653 26.916C5.44106 27.0217 5.33555 27.1278 5.23008 27.2335C4.8728 26.7125 4.39811 26.3949 3.80602 26.2809C2.7494 25.222 2.011 23.952 1.59082 22.4707Z"
        fill="#8232F9" />
    <path fill-rule="evenodd" clip-rule="evenodd"
        d="M28.4893 25.9639C22.9167 32.1546 16.2711 33.5834 8.55252 30.2504C6.71394 29.2242 5.13165 27.9011 3.80566 26.2814C4.39776 26.3953 4.87244 26.7129 5.22972 27.2339C5.3352 27.1282 5.4407 27.0222 5.54618 26.9164C6.28457 27.1282 7.02299 27.3397 7.76138 27.5515C13.9537 27.4029 20.0718 27.4029 26.1159 27.5515C26.872 26.9485 27.6631 26.4192 28.4893 25.9639Z"
        fill="#7D3BF9" />
</svg>