<svg width="32" height="32" viewBox="0 0 32 32" fill="none" xmlns="http://www.w3.org/2000/svg">
    <path
        d="M28.1604 26.0356L30.3167 23.845L22.4771 15.966L20.3208 18.1566L28.1604 26.0356ZM31.5228 12.7813L31.1573 9.74384L20.1563 10.9956L20.5035 14.0515L31.5228 12.7813ZM23.336 1.8649L20.741 0.244926L14.8568 9.67016L17.4518 11.2902L23.336 1.8649ZM9.75832 1.49672L6.88932 2.52761L10.5258 13.0574L13.3949 12.0265L9.75832 1.49672ZM1.00507 11.9529L0 14.8614L10.4345 18.5616L11.4396 15.653L1.00507 11.9529ZM3.65481 25.3729L5.2812 27.9685L14.674 22.0593L13.0477 19.4637L3.65481 25.3729ZM15.7157 31.6686L18.7492 32L20.0283 20.9179L16.9949 20.5866L15.7157 31.6686ZM24.1948 8.01344C23.1349 7.24025 22.9157 5.74914 23.6831 4.69984C24.4507 3.63214 25.9309 3.41123 26.9725 4.18439C28.0324 4.95756 28.2517 6.44867 27.4842 7.49797C26.735 8.56568 25.2548 8.80496 24.1948 8.01344ZM15.0761 4.66302C13.8152 5.01279 12.5177 4.25803 12.1888 2.98782C11.8599 1.71762 12.5909 0.410604 13.8517 0.0792469C15.1126 -0.25211 16.4101 0.484239 16.7391 1.75444C17.068 3.02465 16.337 4.31326 15.0761 4.66302ZM6.7614 9.74384C6.24973 10.9404 4.8609 11.4926 3.65481 10.9772C2.44873 10.4618 1.91878 9.06272 2.43045 7.84774C2.94212 6.63276 4.33095 6.0989 5.53704 6.61435C6.74313 7.12979 7.29135 8.52888 6.7614 9.74384ZM5.53704 19.4453C6.14008 20.605 5.71978 22.0409 4.56852 22.6668C3.41725 23.2926 1.99187 22.8509 1.37055 21.6911C0.749236 20.5314 1.18782 19.0954 2.33908 18.4696C3.49034 17.8621 4.91572 18.2855 5.53704 19.4453ZM12.2985 26.4774C13.5776 26.7167 14.4182 27.9685 14.1806 29.2571C13.9431 30.5457 12.7005 31.3925 11.4213 31.1532C10.1421 30.9139 9.30152 29.6621 9.53903 28.3734C9.77662 27.0849 11.0192 26.2381 12.2985 26.4774ZM22.0019 25.5202C22.9888 24.6549 24.469 24.7654 25.3278 25.7594C26.1868 26.7535 26.0771 28.2446 25.0903 29.1098C24.1035 29.975 22.6233 29.8646 21.7644 28.8705C20.9238 27.8949 21.0151 26.3854 22.0019 25.5202ZM27.2832 17.3098C27.2284 16.0028 28.2334 14.8983 29.5491 14.843C30.8466 14.7878 31.943 15.8003 31.9979 17.1258C32.0527 18.4512 31.0477 19.5373 29.7319 19.5925C28.4344 19.6294 27.338 18.6169 27.2832 17.3098Z"
        fill="#2FABE1" />
</svg>