<svg width="32" height="32" viewBox="0 0 32 32" fill="none" xmlns="http://www.w3.org/2000/svg">
    <g clip-path="url(#clip0_5849_104)">
        <path
            d="M0 0C10.56 0 21.12 0 32 0C32 10.56 32 21.12 32 32C21.44 32 10.88 32 0 32C0 21.44 0 10.88 0 0Z"
            fill="#9703CB" />
        <path
            d="M0 0C10.56 0 21.12 0 32 0C32.0413 4.08375 32.0825 8.1675 32.125 12.375C32.1432 13.662 32.1614 14.9489 32.1802 16.2749C32.1852 17.285 32.1902 18.2952 32.1953 19.3359C32.211 20.8913 32.211 20.8913 32.2271 22.478C32 25 32 25 30 27C30 26.34 30 25.68 30 25C28.68 24.34 27.36 23.68 26 23C26.0232 22.0964 26.0464 21.1927 26.0703 20.2617C26.0884 19.0822 26.1064 17.9027 26.125 16.6875C26.1482 15.5157 26.1714 14.344 26.1953 13.1367C26.2532 9.83606 26.2532 9.83606 24 7C23.34 7 22.68 7 22 7C21.67 7.66 21.34 8.32 21 9C20.67 8.67 20.34 8.34 20 8C19.7731 8.80437 19.5463 9.60875 19.3125 10.4375C18 13 18 13 15.5 13.9375C14.675 13.9581 13.85 13.9787 13 14C12.34 13.34 11.68 12.68 11 12C9.01508 12.2668 9.01508 12.2668 7 13C6.01 13.33 5.02 13.66 4 14C4 14.66 4 15.32 4 16C2.68 16 1.36 16 0 16C0 10.72 0 5.44 0 0Z"
            fill="#9703CA" />
        <path
            d="M21 6C22.875 6.3125 22.875 6.3125 25 7C27.4079 10.6118 27.1828 12.2279 27.0625 16.5C26.9181 21.337 26.9181 21.337 28 26C27.34 26 26.68 26 26 26C25.67 25.34 25.34 24.68 25 24C23.1085 23.847 21.21 23.778 19.3125 23.75C14.9589 23.4811 12.4694 23.2319 9.4375 20C8.63313 19.01 7.82875 18.02 7 17C6.01 16.67 5.02 16.34 4 16C4 15.34 4 14.68 4 14C5.75 12.3125 5.75 12.3125 8 11C9.9375 11.25 9.9375 11.25 12 12C13.6652 12.3406 15.3316 12.6756 17 13C17.66 11.02 18.32 9.04 19 7C19.66 7 20.32 7 21 7C21 6.67 21 6.34 21 6Z"
            fill="#FAECFB" />
        <path
            d="M10 11.0627C12.5569 12.2612 14.12 13.9187 16 16.0002C15.34 16.0002 14.68 16.0002 14 16.0002C13.67 16.9902 13.34 17.9802 13 19.0002C12.34 18.6702 11.68 18.3402 11 18.0002C11 17.3402 11 16.6802 11 16.0002C8.69 16.0002 6.38 16.0002 4 16.0002C4 15.3402 4 14.6802 4 14.0002C6.00818 12.0637 7.14922 10.9736 10 11.0627Z"
            fill="#E5B9EE" />
        <path
            d="M7 15C8.65 15 10.3 15 12 15C12.33 15.99 12.66 16.98 13 18C13.99 18.66 14.98 19.32 16 20C16 20.66 16 21.32 16 22C11.7119 21.5235 9.73353 20.341 7 17C7 16.34 7 15.68 7 15Z"
            fill="#FDEEFE" />
        <path
            d="M17 8C17.66 8 18.32 8 19 8C18.67 9.65 18.34 11.3 18 13C15.8125 13.75 15.8125 13.75 13 14C10.1875 12.0625 10.1875 12.0625 8 10C11.3746 10.5472 13.0824 11.0549 16 13C16.33 11.35 16.66 9.7 17 8Z"
            fill="#941FB7" />
        <path
            d="M21 6C23.0625 6.4375 23.0625 6.4375 25 7C25 7.99 25 8.98 25 10C23 11.6875 23 11.6875 21 13C21 12.01 21 11.02 21 10C20.34 10 19.68 10 19 10C20 7 20 7 21 6Z"
            fill="#F0CBF6" />
        <path
            d="M25 18C25.33 18 25.66 18 26 18C26.66 20.64 27.32 23.28 28 26C27.34 26 26.68 26 26 26C25.67 25.34 25.34 24.68 25 24C22.4727 23.3444 22.4727 23.3444 20 23C20 22.34 20 21.68 20 21C20.6394 20.8762 21.2788 20.7525 21.9375 20.625C22.9584 20.3156 22.9584 20.3156 24 20C24.33 19.34 24.66 18.68 25 18Z"
            fill="#E1A1F2" />
        <path
            d="M23 9C23.99 9.33 24.98 9.66 26 10C25.67 11.98 25.34 13.96 25 16C23.68 15.67 22.36 15.34 21 15C21.66 13.02 22.32 11.04 23 9Z"
            fill="#FDFDFE" />
        <path
            d="M4 16C6.88576 16.398 7.8219 16.7901 9.75 19.0625C10.1625 19.7019 10.575 20.3413 11 21C10.01 21.495 10.01 21.495 9 22C9 21.34 9 20.68 9 20C7.35 19.67 5.7 19.34 4 19C4 18.01 4 17.02 4 16Z"
            fill="#981DBE" />
        <path
            d="M14 18C16.4375 18.8125 16.4375 18.8125 19 20C19.33 20.99 19.66 21.98 20 23C17.69 23 15.38 23 13 23C13.99 22.67 14.98 22.34 16 22C15.34 20.68 14.68 19.36 14 18Z"
            fill="#F1DAF3" />
        <path
            d="M25 7C26.98 7.99 26.98 7.99 29 9C29 10.98 29 12.96 29 15C28.34 15 27.68 15 27 15C26.34 12.36 25.68 9.72 25 7Z"
            fill="#8C07BE" />
    </g>
    <defs>
        <clipPath id="clip0_5849_104">
            <rect width="32" height="32" fill="white" />
        </clipPath>
    </defs>
</svg>