<svg width="32" height="32" viewBox="0 0 32 32" fill="none" xmlns="http://www.w3.org/2000/svg">
    <g clip-path="url(#clip0_5692_443)">
        <path fill-rule="evenodd" clip-rule="evenodd"
            d="M-0.0400391 -0.0400391C10.6266 -0.0400391 21.2933 -0.0400391 31.96 -0.0400391C31.96 10.6266 31.96 21.2933 31.96 31.96C21.2933 31.96 10.6266 31.96 -0.0400391 31.96C-0.0400391 21.2933 -0.0400391 10.6266 -0.0400391 -0.0400391Z"
            fill="#F8F8F9" />
        <path fill-rule="evenodd" clip-rule="evenodd"
            d="M16.1199 3.71991C16.0641 3.94905 16.1708 4.09571 16.4399 4.15991C16.371 4.37866 16.3043 4.392 16.2399 4.19991C16.2064 4.29368 16.1531 4.37368 16.0799 4.43991C15.9838 4.26571 15.9438 4.07905 15.9599 3.87991C15.8542 3.89351 15.7608 3.86684 15.6799 3.79991C15.6248 3.86845 15.5582 3.92178 15.4799 3.95991C15.5248 3.83467 15.4714 3.728 15.3199 3.63991C15.1578 3.78703 14.9711 3.82703 14.7599 3.75991C14.9822 3.74798 15.0222 3.6813 14.8799 3.55991C14.6466 3.68099 14.4334 3.65432 14.2399 3.47991C14.1164 3.701 14.023 3.68766 13.9599 3.43991C13.6018 3.34729 13.2152 3.25395 12.7999 3.15991C12.7599 3.19991 12.7199 3.23991 12.6799 3.27991C12.4666 3.29325 12.2533 3.30658 12.0399 3.31991C11.3496 3.22098 10.6562 3.15432 9.95993 3.11991C9.91993 3.07991 9.87993 3.03991 9.83993 2.99991C9.75457 3.11536 9.66121 3.22202 9.55993 3.31991C9.48513 3.56497 9.48513 3.8183 9.55993 4.07991C9.65825 4.1424 9.76489 4.1824 9.87993 4.19991C10.4318 4.18641 10.9918 4.18641 11.5599 4.19991C11.575 4.07165 11.535 3.96498 11.4399 3.87991C11.0816 3.94298 10.6949 3.92965 10.2799 3.83991C10.5938 3.7765 10.9004 3.78983 11.1999 3.87991C11.6982 3.60763 12.2182 3.56763 12.7599 3.75991C12.7199 3.79991 12.6799 3.83991 12.6399 3.87991C12.3948 3.82092 12.1548 3.79425 11.9199 3.79991C11.7164 3.82562 11.6364 3.93229 11.6799 4.11991C11.7066 4.06658 11.7333 4.01325 11.7599 3.95991C11.7894 4.07271 11.856 4.15271 11.9599 4.19991C12.0572 4.15978 12.1506 4.13312 12.2399 4.11991C12.2646 4.18456 12.3046 4.23789 12.3599 4.27991C12.4556 4.25226 12.4556 4.21226 12.3599 4.15991C12.4659 4.17178 12.5593 4.15845 12.6399 4.11991C12.7466 4.33325 12.8533 4.33325 12.9599 4.11991C13.1539 4.31369 13.3939 4.39369 13.6799 4.35991C13.8266 4.33325 13.9733 4.30658 14.1199 4.27991C13.9702 4.13806 13.9835 3.97806 14.1599 3.79991C14.3036 3.90127 14.4502 3.90127 14.5999 3.79991C14.6266 3.81325 14.6533 3.82658 14.6799 3.83991C14.4768 3.92785 14.4235 4.06118 14.5199 4.23991C14.43 4.25985 14.35 4.29985 14.2799 4.35991C14.3872 4.54018 14.5738 4.67351 14.8399 4.75991C13.1008 4.39694 11.3408 4.22362 9.55993 4.23991C9.07137 3.87527 9.04473 3.47527 9.47993 3.03991C11.7342 2.82493 13.9474 3.05159 16.1199 3.71991Z"
            fill="#0C2A36" />
        <path fill-rule="evenodd" clip-rule="evenodd"
            d="M24.4399 4.67986C24.3339 4.79606 24.2672 4.76939 24.2399 4.59986C24.2132 4.65319 24.1865 4.70652 24.1599 4.75986C23.8956 4.60819 23.7223 4.42153 23.6399 4.19986C23.5845 4.24188 23.5445 4.29521 23.5199 4.35986C23.4867 4.21658 23.4067 4.10991 23.2799 4.03986C23.2223 4.16885 23.2355 4.28885 23.3199 4.39986C23.1732 4.49319 23.0532 4.61319 22.9599 4.75986C22.8164 4.68939 22.7631 4.74272 22.7999 4.91986C22.8799 4.97319 22.9599 5.02652 23.0399 5.07986C23.0892 5.00393 23.0759 4.93726 22.9999 4.87986C23.2664 4.82618 23.3598 4.91951 23.2799 5.15986C23.3399 5.20992 23.4066 5.24992 23.4799 5.27986C23.4127 5.41318 23.4527 5.4265 23.5999 5.31986C23.6527 5.5131 23.7727 5.64644 23.9599 5.71986C24.0307 5.65386 24.0574 5.57386 24.0399 5.47986C24.3638 5.43056 24.6304 5.5239 24.8399 5.75986C24.6521 5.78654 24.4654 5.77322 24.2799 5.71986C24.2799 5.90652 24.2799 6.09319 24.2799 6.27986C22.9865 5.18607 21.6131 4.19941 20.1599 3.31986C19.9279 2.51131 20.2347 2.17798 21.0799 2.31986C22.2807 3.00219 23.4007 3.78886 24.4399 4.67986Z"
            fill="#0D2A36" />
        <path fill-rule="evenodd" clip-rule="evenodd"
            d="M20.5199 2.43994C20.5917 2.52779 20.6583 2.52779 20.7199 2.43994C20.815 2.52501 20.855 2.63168 20.8399 2.75994C21.0512 2.69889 21.2646 2.68556 21.4799 2.71994C21.4266 2.74661 21.3733 2.77328 21.3199 2.79994C21.4382 2.89539 21.5449 2.93539 21.6399 2.91994C21.6308 3.07343 21.5775 3.23343 21.4799 3.39994C21.6373 3.38079 21.784 3.40745 21.9199 3.47994C22.0235 3.37265 22.0635 3.26598 22.0399 3.15994C22.2266 3.30661 22.4133 3.45328 22.5999 3.59994C22.5238 3.65734 22.5106 3.72401 22.5599 3.79994C22.6331 3.73371 22.6864 3.65371 22.7199 3.55994C22.7466 3.63994 22.7733 3.71994 22.7999 3.79994C22.9143 3.81545 23.0343 3.81545 23.1599 3.79994C23.222 4.04559 23.1154 4.20559 22.8399 4.27994C22.7866 4.25328 22.7333 4.22661 22.6799 4.19994C22.4309 4.61135 22.1909 4.59801 21.9599 4.15994C22.1199 4.10661 22.2266 3.99994 22.2799 3.83994C22.1999 3.78661 22.1199 3.78661 22.0399 3.83994C22.1322 3.91305 22.1189 3.97971 21.9999 4.03994C21.8626 3.95576 21.7826 4.00909 21.7599 4.19994C21.653 4.07965 21.5196 3.99965 21.3599 3.95994C21.2505 3.83778 21.2105 3.71778 21.2399 3.59994C21.0701 3.53477 20.9101 3.45477 20.7599 3.35994C20.8133 3.33328 20.8666 3.30661 20.9199 3.27994C20.7599 3.22661 20.6533 3.11994 20.5999 2.95994C20.5004 2.92345 20.4338 2.96345 20.3999 3.07994C20.2614 2.84481 20.3014 2.63147 20.5199 2.43994Z"
            fill="#032538" />
        <path fill-rule="evenodd" clip-rule="evenodd"
            d="M16.12 3.72C21.6709 5.57742 25.5242 9.23072 27.68 14.68C28.7697 17.6146 29.063 20.6279 28.56 23.72C28.4144 24.1729 28.1078 24.3462 27.64 24.24C27.4934 24.1466 27.3734 24.0266 27.28 23.88C28.0152 18.3808 26.5486 13.5808 22.88 9.48C20.631 7.17538 17.951 5.60204 14.84 4.76C14.5739 4.6736 14.3873 4.54027 14.28 4.36C14.3501 4.29994 14.4301 4.25994 14.52 4.24C14.4236 4.06126 14.4769 3.92794 14.68 3.84C14.6534 3.82666 14.6266 3.81334 14.6 3.8C14.4503 3.90136 14.3037 3.90136 14.16 3.8C13.9836 3.97815 13.9702 4.13815 14.12 4.28C13.9734 4.30666 13.8266 4.33334 13.68 4.36C13.394 4.39378 13.154 4.31378 12.96 4.12C12.8534 4.33334 12.7466 4.33334 12.64 4.12C12.5594 4.15854 12.466 4.17187 12.36 4.16C12.4557 4.21234 12.4557 4.25234 12.36 4.28C12.3046 4.23798 12.2646 4.18465 12.24 4.12C12.1506 4.13321 12.0573 4.15987 11.96 4.2C11.8561 4.1528 11.7894 4.0728 11.76 3.96C11.7334 4.01334 11.7066 4.06666 11.68 4.12C11.6365 3.93238 11.7165 3.82571 11.92 3.8C12.1549 3.79434 12.3949 3.82101 12.64 3.88C12.68 3.84 12.72 3.8 12.76 3.76C12.2182 3.56772 11.6982 3.60772 11.2 3.88C10.9005 3.78992 10.5938 3.77658 10.28 3.84C10.695 3.92974 11.0817 3.94306 11.44 3.88C11.535 3.96507 11.575 4.07174 11.56 4.2C10.9918 4.1865 10.4318 4.1865 9.88001 4.2C9.76497 4.18249 9.65833 4.14249 9.56001 4.08C9.48521 3.81838 9.48521 3.56506 9.56001 3.32C9.66129 3.22211 9.75465 3.11545 9.84001 3C9.88001 3.04 9.92001 3.08 9.96001 3.12C10.6563 3.15441 11.3497 3.22107 12.04 3.32C12.2534 3.30666 12.4666 3.29334 12.68 3.28C12.72 3.24 12.76 3.2 12.8 3.16C13.2153 3.25404 13.6019 3.34738 13.96 3.44C14.0231 3.68775 14.1165 3.70109 14.24 3.48C14.4334 3.65441 14.6467 3.68108 14.88 3.56C15.0223 3.68139 14.9823 3.74806 14.76 3.76C14.9712 3.82712 15.1578 3.78712 15.32 3.64C15.4715 3.72809 15.5249 3.83476 15.48 3.96C15.5582 3.92186 15.6249 3.86854 15.68 3.8C15.7609 3.86693 15.8542 3.8936 15.96 3.88C15.9438 4.07914 15.9838 4.2658 16.08 4.44C16.1532 4.37377 16.2065 4.29377 16.24 4.2C16.3044 4.39209 16.371 4.37875 16.44 4.16C16.1709 4.0958 16.0642 3.94914 16.12 3.72Z"
            fill="#072737" />
        <path fill-rule="evenodd" clip-rule="evenodd"
            d="M9.16007 6.19993C15.1281 5.82042 19.8081 8.06041 23.2001 12.9199C25.9208 17.4346 26.2674 22.1279 24.2401 26.9999C23.9409 27.6788 23.5809 28.3188 23.1601 28.9199C22.5412 29.2356 22.1679 29.049 22.0401 28.3599C22.4718 27.523 22.8851 26.6697 23.2801 25.7999C25.2744 19.6828 23.8477 14.5228 19.0001 10.3199C15.5087 7.7709 11.642 6.9709 7.40007 7.91993C6.52014 8.17753 5.66681 8.49753 4.84007 8.87993C4.03459 8.98137 3.75459 8.64809 4.00007 7.87993C4.83603 7.37564 5.72936 6.98898 6.68007 6.71993C7.50811 6.49842 8.33479 6.32509 9.16007 6.19993Z"
            fill="#072637" />
        <path fill-rule="evenodd" clip-rule="evenodd"
            d="M24.4398 4.68004C27.1177 6.88901 29.091 9.609 30.3598 12.84C30.2641 13.3819 29.9441 13.5819 29.3998 13.44C29.3266 13.4101 29.2598 13.3701 29.1998 13.32C28.0406 10.6292 26.4006 8.28252 24.2798 6.28004C24.2798 6.09338 24.2798 5.9067 24.2798 5.72004C24.4654 5.7734 24.6521 5.78673 24.8398 5.76004C24.6304 5.52408 24.3638 5.43074 24.0398 5.48004C24.0574 5.57404 24.0307 5.65404 23.9598 5.72004C23.7727 5.64662 23.6527 5.51329 23.5998 5.32004C23.4526 5.42669 23.4126 5.41336 23.4798 5.28004C23.4066 5.2501 23.3398 5.2101 23.2798 5.16004C23.3598 4.9197 23.2664 4.82636 22.9998 4.88004C23.0759 4.93744 23.0892 5.00411 23.0398 5.08004C22.9598 5.0267 22.8798 4.97338 22.7998 4.92004C22.763 4.7429 22.8164 4.68958 22.9598 4.76004C23.0532 4.61338 23.1732 4.49338 23.3198 4.40004C23.2355 4.28903 23.2222 4.16903 23.2798 4.04004C23.4066 4.1101 23.4866 4.21677 23.5198 4.36004C23.5445 4.29539 23.5845 4.24206 23.6398 4.20004C23.7223 4.42171 23.8956 4.60838 24.1598 4.76004C24.1865 4.7067 24.2132 4.65338 24.2398 4.60004C24.2672 4.76958 24.3338 4.79625 24.4398 4.68004Z"
            fill="#072737" />
        <path fill-rule="evenodd" clip-rule="evenodd"
            d="M9.79984 9.39988C14.6118 9.2386 18.2784 11.1853 20.7998 15.2399C22.8157 19.1602 22.7623 23.0536 20.6398 26.9199C19.7222 28.4482 18.5088 29.6882 16.9998 30.6399C16.271 30.8172 15.9377 30.5372 15.9998 29.7999C16.037 29.6854 16.1038 29.5921 16.1998 29.5199C19.657 27.1478 21.217 23.8544 20.8798 19.6399C20.0174 15.0175 17.3106 12.1241 12.7598 10.9599C8.67784 10.3024 5.31788 11.5558 2.67985 14.7199C1.91179 14.9655 1.57845 14.6855 1.67985 13.8799C3.75321 11.2496 6.45987 9.75628 9.79984 9.39988Z"
            fill="#072737" />
        <path fill-rule="evenodd" clip-rule="evenodd"
            d="M9.80004 12.6798C13.862 12.5027 16.7553 14.236 18.48 17.8798C19.6713 21.4746 18.9113 24.5812 16.2 27.1998C14.2224 28.8212 11.9557 29.4612 9.40004 29.1198C8.833 28.7574 8.77964 28.3308 9.24004 27.8398C11.4657 28.1168 13.4657 27.5836 15.24 26.2398C17.5137 24.0918 18.1937 21.5184 17.28 18.5198C15.8156 15.2732 13.2956 13.7932 9.72004 14.0798C7.07524 14.591 5.24858 16.0976 4.24004 18.5998C4.1085 18.966 4.00183 19.3393 3.92004 19.7198C3.91258 20.3925 3.85924 21.0592 3.76004 21.7198C3.47451 22.0329 3.14117 22.0996 2.76004 21.9198C2.64859 21.8261 2.58192 21.7061 2.56004 21.5598C2.39751 18.0841 3.79751 15.4575 6.76004 13.6798C7.72834 13.1748 8.74164 12.8414 9.80004 12.6798Z"
            fill="#072737" />
        <path fill-rule="evenodd" clip-rule="evenodd"
            d="M10.1998 15.8799C13.2467 15.8488 15.1 17.3156 15.7598 20.2799C15.874 23.338 14.4473 25.218 11.4798 25.9199C8.35001 26.07 6.44337 24.6166 5.75985 21.5599C5.67436 18.433 7.15436 16.5397 10.1998 15.8799Z"
            fill="#072737" />
        <path fill-rule="evenodd" clip-rule="evenodd"
            d="M10.12 17.2399C12.3021 17.143 13.7288 18.1297 14.4 20.1999C14.6009 22.5343 13.5742 23.9877 11.32 24.5599C9.0599 24.6992 7.65992 23.6725 7.11998 21.4799C7.01719 19.2853 8.01718 17.8719 10.12 17.2399Z"
            fill="#F7F7F7" />
        <path fill-rule="evenodd" clip-rule="evenodd"
            d="M11 19.2398C9.6204 19.3533 9.0204 20.1 9.2 21.4798C9.28976 21.6324 9.3564 21.7924 9.4 21.9598C8.72224 20.9201 8.90896 20.0533 9.96 19.3598C10.3022 19.1669 10.6489 19.1269 11 19.2398Z"
            fill="#D64C42" />
        <path fill-rule="evenodd" clip-rule="evenodd"
            d="M11 19.2402C11.5984 19.2983 12.0251 19.5917 12.28 20.1202C12.3537 20.518 12.367 20.918 12.32 21.3202C12.2933 21.2136 12.2666 21.1069 12.24 21.0002C12.1846 21.0422 12.1446 21.0956 12.12 21.1602C12.2179 21.3474 12.2179 21.534 12.12 21.7202C12.04 21.6136 11.96 21.5069 11.88 21.4002C11.8533 21.4536 11.8266 21.5069 11.8 21.5602C11.9115 21.7319 11.9648 21.9186 11.96 22.1202C11.5156 22.1558 11.0889 22.2625 10.68 22.4402C10.7501 22.5003 10.8301 22.5403 10.92 22.5602C10.6671 22.5653 10.4271 22.4986 10.2 22.3602C10.2701 22.3002 10.3501 22.2602 10.44 22.2402C10.1989 22.23 9.95886 22.23 9.71998 22.2402C9.67174 22.0746 9.5651 21.9812 9.39998 21.9602C9.35638 21.7928 9.28974 21.6328 9.19998 21.4802C9.02038 20.1004 9.62038 19.3537 11 19.2402Z"
            fill="#EB301F" />
        <path fill-rule="evenodd" clip-rule="evenodd"
            d="M12.2799 20.1201C12.6678 20.932 12.5345 21.6653 11.8799 22.3201C11.1309 22.7947 10.3842 22.7947 9.6399 22.3201C9.56902 22.1909 9.48902 22.0709 9.3999 21.9601C9.56502 21.9811 9.67166 22.0744 9.7199 22.2401C9.95878 22.2299 10.1988 22.2299 10.4399 22.2401C10.35 22.26 10.27 22.3 10.1999 22.3601C10.427 22.4984 10.667 22.5652 10.9199 22.5601C10.83 22.5402 10.75 22.5002 10.6799 22.4401C11.0888 22.2624 11.5155 22.1556 11.9599 22.1201C11.9647 21.9184 11.9114 21.7318 11.7999 21.5601C11.8265 21.5068 11.8533 21.4535 11.8799 21.4001C11.9599 21.5068 12.0399 21.6135 12.1199 21.7201C12.2178 21.5339 12.2178 21.3472 12.1199 21.1601C12.1445 21.0955 12.1845 21.0421 12.2399 21.0001C12.2665 21.1068 12.2933 21.2135 12.3199 21.3201C12.3669 20.9179 12.3537 20.5179 12.2799 20.1201Z"
            fill="#E0392B" />
    </g>
    <defs>
        <clipPath id="clip0_5692_443">
            <rect width="32" height="32" fill="white" />
        </clipPath>
    </defs>
</svg>