<svg width="32" height="32" viewBox="0 0 32 32" fill="none" xmlns="http://www.w3.org/2000/svg">
    <path
        d="M19.1779 24.2803H12.8228C12.2845 24.2803 11.8481 24.7262 11.8481 25.2763V31.0041C11.8481 31.5542 12.2845 32.0002 12.8228 32.0002H19.1779C19.7162 32.0002 20.1526 31.5542 20.1526 31.0041V25.2763C20.1526 24.7262 19.7162 24.2803 19.1779 24.2803Z"
        fill="#1175CC" />
    <path
        d="M22.4542 8.34289V1.11122C22.4542 0.497459 21.9673 0 21.3669 0H10.6581C10.0576 0 9.57078 0.497585 9.57078 1.11122V8.34289C9.57078 8.95666 9.08389 9.45412 8.48343 9.45412H1.08735C0.486772 9.45412 0 9.9517 0 10.5653V21.434C0 22.0477 0.486895 22.5452 1.08735 22.5452H3.21851C3.71963 22.5452 4.20021 22.3418 4.5545 21.9796L15.1056 11.1968C15.5996 10.692 16.4004 10.692 16.8944 11.1968L27.4455 21.9796C27.7998 22.3416 28.2804 22.5452 28.7815 22.5452H30.9127C31.5132 22.5452 32 22.0476 32 21.434V10.5653C32 9.95157 31.5131 9.45412 30.9127 9.45412H23.5413C22.9407 9.45412 22.4542 8.95653 22.4542 8.34289ZM24.1644 16.8175L22.8774 15.4586C22.6059 15.1719 22.4541 14.7887 22.4541 14.3898V12.8933C22.4541 12.5794 22.7051 12.3252 23.0122 12.326C23.7684 12.328 24.2528 12.3281 24.5631 12.3275C24.8688 12.3269 25.1143 12.58 25.1143 12.8923V16.4247C25.1143 16.9324 24.5099 17.1822 24.1644 16.8175Z"
        fill="#1175CC" />
</svg>