<svg width="32" height="32" viewBox="0 0 32 32" fill="none" xmlns="http://www.w3.org/2000/svg">
    <g clip-path="url(#clip0_5816_970)">
        <rect width="32" height="32" fill="#FAFAFA" />
        <path fill-rule="evenodd" clip-rule="evenodd"
            d="M21.9542 -0.967773C22.0856 -0.896257 22.2344 -0.871401 22.4007 -0.893355C22.5248 -0.794155 22.6487 -0.794155 22.7728 -0.893355C22.8511 -0.904443 22.9255 -0.89209 22.996 -0.856146C22.9712 -0.831364 22.9464 -0.806508 22.9216 -0.781727C23.121 -0.691234 23.3443 -0.67888 23.5913 -0.744518C23.845 -0.722713 24.0434 -0.611085 24.1866 -0.409634C24.2907 -0.365355 24.3899 -0.377783 24.4843 -0.446843C24.6337 -0.358583 24.7701 -0.259308 24.8936 -0.149169C24.9585 -0.166657 25.0206 -0.191513 25.0796 -0.223587C25.2553 -0.08502 25.4538 0.00182656 25.6749 0.0368777C25.8046 0.119482 25.9038 0.23111 25.9725 0.371761C26.0222 0.34698 26.0717 0.322124 26.1214 0.297343C26.258 0.402943 26.4068 0.489789 26.5678 0.557808C26.401 0.632747 26.4259 0.694813 26.6423 0.743854C26.6923 0.800934 26.7543 0.850571 26.8283 0.892692C26.9652 0.793492 27.0024 0.80592 26.9399 0.929901C26.9959 1.04056 27.0579 1.05299 27.1259 0.96711C27.1786 1.1731 27.2902 1.23509 27.4608 1.15316C27.56 1.20279 27.56 1.25236 27.4608 1.30199C27.5228 1.36398 27.5848 1.42605 27.6468 1.48804C27.7003 1.41727 27.7623 1.40491 27.8329 1.45083C27.8877 1.66672 28.0117 1.82798 28.2049 1.93455C28.2049 1.98419 28.2297 2.00897 28.2793 2.00897C28.2793 2.05861 28.3041 2.08339 28.3538 2.08339C28.4134 2.23282 28.5126 2.27003 28.6514 2.19502C28.763 2.30665 28.8747 2.41827 28.9863 2.5299C29.0322 2.60052 29.0198 2.66251 28.9491 2.71595C29.1821 2.94999 29.4054 3.18568 29.6188 3.42292C29.6365 3.56462 29.7109 3.66389 29.842 3.7206C29.9726 3.95725 30.1214 4.18051 30.2885 4.39037C30.3542 4.6288 30.4783 4.82728 30.6606 4.98571C30.6533 5.1385 30.7029 5.26255 30.8094 5.35781C30.8094 5.40745 30.8342 5.43223 30.8838 5.43223C30.871 5.50605 30.8959 5.55561 30.9582 5.58106C31.0188 5.85016 31.1181 6.0982 31.2559 6.32525C31.2916 6.54426 31.366 6.74274 31.4791 6.9206C31.4957 7.19312 31.5701 7.44116 31.7024 7.66478C31.7213 8.08116 31.7957 8.47803 31.9256 8.85548C32.0214 9.97198 32.0214 11.0883 31.9256 12.2043C31.8548 12.3099 31.83 12.4339 31.8512 12.5764C31.7556 12.8063 31.706 13.0543 31.7024 13.3206C31.6351 13.3734 31.6103 13.4478 31.6279 13.5439C31.5607 13.5966 31.5359 13.671 31.5535 13.7671C31.484 13.8466 31.4592 13.9458 31.4791 14.0648C31.4118 14.1175 31.3871 14.192 31.4047 14.288C31.3423 14.3135 31.3175 14.3631 31.3303 14.4369C31.263 14.4896 31.2382 14.5641 31.2559 14.6601C31.1886 14.7129 31.1638 14.7873 31.1815 14.8834C31.1191 14.9088 31.0942 14.9584 31.107 15.0322C31.0447 15.0577 31.0198 15.1072 31.0326 15.1811C30.9261 15.2763 30.8765 15.4004 30.8838 15.5532C30.8342 15.5532 30.8094 15.5779 30.8094 15.6276C30.747 15.653 30.7222 15.7026 30.735 15.7764C30.6476 15.8519 30.5981 15.9511 30.5862 16.0741C30.5238 16.0995 30.4989 16.1491 30.5117 16.2229C30.4621 16.2229 30.4373 16.2477 30.4373 16.2973C30.375 16.3228 30.3501 16.3724 30.3629 16.4462C30.3006 16.4716 30.2757 16.5212 30.2885 16.595C30.2389 16.595 30.2141 16.6198 30.2141 16.6694C30.1517 16.6949 30.1269 16.7444 30.1397 16.8183C30.09 16.8183 30.0653 16.8431 30.0653 16.8927C30.0029 16.9181 29.978 16.9677 29.9908 17.0415C29.9412 17.0415 29.9164 17.0663 29.9164 17.1159C29.8541 17.1414 29.8292 17.191 29.842 17.2648C29.7924 17.2648 29.7676 17.2896 29.7676 17.3392C29.718 17.3392 29.6932 17.364 29.6932 17.4136C29.6308 17.4391 29.606 17.4886 29.6188 17.5625C29.5691 17.5625 29.5444 17.5872 29.5444 17.6369C29.4947 17.6369 29.47 17.6617 29.47 17.7113C29.4203 17.7113 29.3955 17.7361 29.3955 17.7857C29.3332 17.8112 29.3083 17.8607 29.3211 17.9346C29.2715 17.9346 29.2467 17.9593 29.2467 18.009C29.1971 18.009 29.1723 18.0338 29.1723 18.0834C29.1227 18.0834 29.0979 18.1082 29.0979 18.1578C29.0483 18.1578 29.0235 18.1826 29.0235 18.2322C28.9738 18.2322 28.9491 18.257 28.9491 18.3066C28.8994 18.3066 28.8747 18.3314 28.8747 18.3811C28.825 18.3811 28.8002 18.4058 28.8002 18.4555C28.7506 18.4555 28.7258 18.4803 28.7258 18.5299C28.6762 18.5299 28.6514 18.5547 28.6514 18.6043C28.6018 18.6043 28.577 18.6291 28.577 18.6787C28.5274 18.6787 28.5026 18.7035 28.5026 18.7532C28.453 18.7532 28.4282 18.7779 28.4282 18.8276C28.3785 18.8276 28.3538 18.8524 28.3538 18.902C28.3041 18.902 28.2793 18.9268 28.2793 18.9764C28.2297 18.9764 28.2049 19.0012 28.2049 19.0508C28.1553 19.0508 28.1305 19.0756 28.1305 19.1252C28.0809 19.1252 28.0561 19.15 28.0561 19.1997C27.9569 19.2244 27.9569 19.2493 28.0561 19.2741C28.0209 19.3787 27.9465 19.4284 27.8329 19.4229C27.8081 19.3237 27.7832 19.3237 27.7585 19.4229C27.7088 19.4229 27.684 19.4477 27.684 19.4973C27.5848 19.5221 27.5848 19.547 27.684 19.5718C27.6586 19.6341 27.609 19.659 27.5352 19.6462C27.5104 19.547 27.4856 19.547 27.4608 19.6462C27.4112 19.6462 27.3864 19.671 27.3864 19.7206C27.2872 19.7454 27.2872 19.7702 27.3864 19.795C27.3302 19.9413 27.2434 19.9662 27.1259 19.8694C26.9225 19.9336 26.9101 19.9956 27.0887 20.0555C26.902 20.1612 26.7284 20.2853 26.5678 20.4276C26.4723 20.4785 26.3855 20.466 26.3074 20.3904C26.2334 20.4325 26.1714 20.4821 26.1214 20.5392C26.0222 20.564 26.0222 20.5888 26.1214 20.6136C25.9312 20.7368 25.7327 20.8608 25.5261 20.9857C25.4356 20.9484 25.3487 20.9236 25.2656 20.9113C25.1169 21.2152 24.8812 21.3268 24.5587 21.2462C24.6083 21.271 24.6579 21.2958 24.7075 21.3206C24.594 21.3957 24.47 21.4329 24.3355 21.4322C24.2858 21.333 24.2363 21.333 24.1866 21.4322C24.0864 21.4822 23.9996 21.4822 23.9262 21.4322C23.8468 21.4836 23.7599 21.5209 23.6657 21.5439C23.8467 21.6247 23.8219 21.662 23.5913 21.6555C23.5417 21.5563 23.4921 21.5563 23.4425 21.6555C23.0456 21.6803 23.0456 21.7051 23.4425 21.7299C23.0396 21.681 22.6427 21.7306 22.2519 21.8787C22.0856 21.8568 21.9367 21.8816 21.8054 21.9532C18.2335 21.9407 14.6617 21.9532 11.0899 21.9904C10.8522 22.0038 10.6289 22.041 10.4202 22.102C10.2777 22.0809 10.1537 22.1056 10.0481 22.1764C9.75048 22.2012 9.75048 22.226 10.0481 22.2508C9.856 22.3037 9.66997 22.3037 9.49004 22.2508C9.28659 22.315 9.27416 22.377 9.45283 22.4369C9.38229 22.4728 9.30787 22.4852 9.22959 22.4741C9.17996 22.3749 9.1304 22.3749 9.08076 22.4741C8.78311 22.4989 8.78311 22.5237 9.08076 22.5485C8.86653 22.6227 8.65572 22.7219 8.44825 22.8462C8.39081 22.8354 8.34117 22.8106 8.29943 22.7718C8.21333 22.9946 8.05208 23.1186 7.81574 23.1439C7.79096 23.0447 7.76611 23.0447 7.74133 23.1439C7.64214 23.1686 7.64214 23.1935 7.74133 23.2183C7.70613 23.3229 7.63172 23.3725 7.51809 23.3671C7.49331 23.2679 7.46846 23.2679 7.44368 23.3671C7.39404 23.3671 7.36926 23.3919 7.36926 23.4415C7.27007 23.4663 7.27007 23.4912 7.36926 23.5159C7.33407 23.6206 7.25965 23.6702 7.14602 23.6648C7.12124 23.5656 7.09639 23.5656 7.07161 23.6648C7.02198 23.6648 6.9972 23.6896 6.9972 23.7392C6.94756 23.7392 6.92278 23.764 6.92278 23.8136C6.87315 23.8136 6.84837 23.8384 6.84837 23.888C6.79874 23.888 6.77396 23.9128 6.77396 23.9625C6.72432 23.9625 6.69954 23.9872 6.69954 24.0369C6.64991 24.0369 6.62513 24.0617 6.62513 24.1113C6.5755 24.1113 6.55072 24.1361 6.55072 24.1857C6.50109 24.1857 6.47631 24.2105 6.47631 24.2601C6.42667 24.2601 6.40189 24.2849 6.40189 24.3346C6.33953 24.36 6.31468 24.4096 6.32748 24.4834C6.27785 24.4834 6.25307 24.5082 6.25307 24.5578C6.20343 24.5578 6.17865 24.5826 6.17865 24.6322C6.11629 24.6577 6.09144 24.7072 6.10424 24.7811C6.05461 24.7811 6.02983 24.8058 6.02983 24.8555C5.96747 24.8809 5.94261 24.9305 5.95541 25.0043C5.90578 25.0043 5.881 25.0291 5.881 25.0787C5.81864 25.1042 5.79379 25.1538 5.80659 25.2276C5.75695 25.2276 5.73217 25.2524 5.73217 25.302C5.66982 25.3274 5.64496 25.377 5.65776 25.4508C5.5954 25.4763 5.57055 25.5258 5.58335 25.5997C5.52099 25.6251 5.49614 25.6747 5.50893 25.7485C5.44167 25.8013 5.41689 25.8757 5.43452 25.9718C5.37216 25.9972 5.34731 26.0468 5.36011 26.1206C5.29775 26.146 5.2729 26.1956 5.2857 26.2694C5.21843 26.3222 5.19365 26.3966 5.21128 26.4927C5.14178 26.5722 5.11693 26.6714 5.13687 26.7904C5.0696 26.8431 5.04482 26.9175 5.06246 27.0136C4.99295 27.0931 4.9681 27.1923 4.98804 27.3113C4.88044 27.741 4.83088 28.1875 4.83922 28.6508C3.22691 28.6508 1.61467 28.6508 0.00236467 28.6508C-0.00820199 27.9793 0.016652 27.3095 0.0767778 26.6415C0.233938 26.0561 0.382765 25.4607 0.523256 24.8555C0.585615 24.83 0.610469 24.7805 0.59767 24.7066C0.788837 24.2985 0.962517 23.8768 1.11856 23.4415C1.16819 23.4415 1.19297 23.4167 1.19297 23.3671C1.41867 23.0666 1.55507 22.7442 1.60225 22.3997C1.65188 22.3005 1.70144 22.3005 1.75107 22.3997C1.83256 22.3109 1.89454 22.2116 1.93711 22.102C1.98674 22.102 2.01152 22.0772 2.01152 22.0276C2.1529 21.8699 2.27688 21.6962 2.38358 21.5066C2.43322 21.5066 2.458 21.4819 2.458 21.4322C2.8291 21.051 3.13917 20.6541 3.38816 20.2415C3.41294 20.2663 3.43779 20.2912 3.46257 20.3159C3.48058 20.194 3.54257 20.0824 3.64861 19.9811C3.71923 19.9351 3.78121 19.9475 3.83464 20.0183C4.01107 19.8592 4.14747 19.6731 4.24391 19.4601C4.31453 19.4142 4.37652 19.4266 4.42994 19.4973C4.44795 19.3754 4.50994 19.2638 4.61598 19.1625C4.6866 19.1165 4.74858 19.1289 4.80201 19.1997C4.86489 18.983 4.98894 18.9085 5.17408 18.9764C5.31048 18.8896 5.44695 18.8028 5.58335 18.7159C5.53371 18.6912 5.48416 18.6663 5.43452 18.6415C5.53007 18.5906 5.61691 18.6031 5.69497 18.6787C5.77824 18.6004 5.81544 18.5136 5.80659 18.4183C5.88465 18.3817 5.95906 18.394 6.02983 18.4555C6.09546 18.3617 6.16987 18.2749 6.25307 18.195C6.40918 18.2682 6.55801 18.2435 6.69954 18.1206C6.67477 18.0958 6.64991 18.071 6.62513 18.0462C6.71234 18.015 6.78676 17.9654 6.84837 17.8973C7.00449 17.8963 7.14089 17.9087 7.25764 17.9346C7.46109 17.8704 7.47352 17.8084 7.29485 17.7485C7.56549 17.5703 7.82594 17.5331 8.07619 17.6369C8.15559 17.5855 8.24243 17.5482 8.33663 17.5252C8.26222 17.5005 8.18781 17.4756 8.11339 17.4508C8.49796 17.2708 8.89488 17.2212 9.304 17.302C9.22959 17.2772 9.15518 17.2524 9.08076 17.2276C9.35959 17.1371 9.64482 17.0751 9.93652 17.0415C13.6438 17.1272 17.352 17.1395 21.0613 17.0787C21.485 17.0162 21.9067 16.9418 22.3263 16.8555C22.4255 16.8058 22.4255 16.7563 22.3263 16.7066C22.4916 16.6549 22.6529 16.5929 22.81 16.5206C22.9171 16.5688 23.0288 16.5936 23.1448 16.595C23.2125 16.3033 23.3861 16.2041 23.6657 16.2973C23.7979 16.2367 23.8475 16.1498 23.8146 16.0369C23.9101 15.986 23.9969 15.9984 24.075 16.0741C24.1583 15.9958 24.1955 15.909 24.1866 15.8136C24.2977 15.7118 24.4093 15.6994 24.5215 15.7764C24.6331 15.6648 24.7447 15.5532 24.8563 15.4415C24.8316 15.4167 24.8067 15.3919 24.7819 15.3671C24.9927 15.2058 25.1788 15.0198 25.34 14.809C25.3648 14.8338 25.3897 14.8586 25.4144 14.8834C25.5971 14.7389 25.7335 14.5652 25.8237 14.3625C25.8733 14.3625 25.8981 14.3377 25.8981 14.288C26.2418 13.8738 26.4899 13.4025 26.6423 12.8741C26.7046 12.8486 26.7295 12.7991 26.7167 12.7252C26.8506 12.3444 26.9622 11.9475 27.0515 11.5346C27.1128 10.8517 27.1004 10.1819 27.0143 9.52525C27.0355 9.38274 27.0107 9.25876 26.9399 9.15316C26.9599 9.03416 26.935 8.93496 26.8655 8.85548C26.89 8.65247 26.8404 8.47878 26.7167 8.33455C26.7343 8.23848 26.7095 8.16406 26.6423 8.1113C26.6551 8.03747 26.6302 7.98791 26.5678 7.96246C26.5027 7.65868 26.3786 7.38579 26.1958 7.14385C26.1958 7.09422 26.171 7.06944 26.1214 7.06944C26.1268 6.9558 26.0772 6.88138 25.9725 6.84618C25.9853 6.77236 25.9605 6.72279 25.8981 6.69734C25.6349 6.24741 25.3 5.85046 24.8936 5.50665C24.8401 5.57742 24.7781 5.58977 24.7075 5.54385C24.6083 5.49422 24.6083 5.44465 24.7075 5.39502C24.6277 5.29946 24.5286 5.27468 24.4099 5.3206C24.3038 5.21924 24.2418 5.10761 24.2238 4.98571C23.9721 5.06155 23.7984 4.96227 23.7029 4.68804C23.6249 4.76372 23.538 4.77615 23.4425 4.72525C23.3289 4.64845 23.2297 4.5616 23.1448 4.46478C23.0704 4.36558 22.996 4.36558 22.9216 4.46478C22.731 4.41009 22.5698 4.31081 22.4379 4.16711C22.1982 4.26326 21.9626 4.25091 21.731 4.1299C21.8302 4.10512 21.9295 4.08026 22.0286 4.05548C21.7618 3.97303 21.4889 3.93582 21.2101 3.94385C17.9486 3.86951 14.6744 3.84473 11.3876 3.86944C11.3876 2.25701 11.3876 0.644654 11.3876 -0.967773C14.9098 -0.967773 18.432 -0.967773 21.9542 -0.967773Z"
            fill="black" />
        <path fill-rule="evenodd" clip-rule="evenodd"
            d="M16.9688 26.1211C21.9792 26.1211 26.9897 26.1211 32.0002 26.1211C32.0002 27.7583 32.0002 29.3955 32.0002 31.0327C26.9897 31.0327 21.9792 31.0327 16.9688 31.0327C16.9688 29.3955 16.9688 27.7583 16.9688 26.1211Z"
            fill="black" />
    </g>
    <defs>
        <clipPath id="clip0_5816_970">
            <rect width="32" height="32" fill="white" />
        </clipPath>
    </defs>
</svg>