<svg width="32" height="32" viewBox="0 0 32 32" fill="none" xmlns="http://www.w3.org/2000/svg">
    <path fill-rule="evenodd" clip-rule="evenodd"
        d="M19.2047 5.16504C24.2072 5.21164 27.7449 7.49467 29.8177 12.0142C30.9827 15.2736 30.7394 18.4174 29.0877 21.4457C27.1075 21.5938 25.1234 21.5938 23.1355 21.4457C25.9776 19.3259 26.7825 16.5938 25.5501 13.2492C23.6109 9.95785 20.8219 8.92858 17.1832 10.1615C14.3498 11.6537 13.1331 13.993 13.5332 17.1791C14.2056 19.9472 15.9277 21.6688 18.6993 22.344C18.7555 23.8032 18.7742 25.2628 18.7555 26.7229C13.5256 25.9669 10.3248 23.0103 9.15323 17.8528C8.57922 13.5846 9.94566 10.0852 13.2524 7.35451C15.045 6.07751 17.029 5.34769 19.2047 5.16504Z"
        fill="#1D71FA" />
    <path fill-rule="evenodd" clip-rule="evenodd"
        d="M0.224609 10.1048C3.48242 10.0675 6.73932 10.1048 9.99533 10.2171C9.47434 11.1275 9.06251 12.0819 8.75995 13.0803C6.55121 13.1552 4.34258 13.1552 2.13383 13.0803C1.42506 12.1297 0.788661 11.1379 0.224609 10.1048Z"
        fill="#1A70FA" />
    <path fill-rule="evenodd" clip-rule="evenodd"
        d="M3.36914 15.0461C4.97929 15.0273 6.5891 15.0461 8.19835 15.1022C8.2107 15.9395 8.2481 16.7816 8.31066 17.6286C7.22442 17.6472 6.13875 17.6286 5.05375 17.5724C4.42034 16.7721 3.8588 15.93 3.36914 15.0461Z"
        fill="#2471FA" />
    <path fill-rule="evenodd" clip-rule="evenodd"
        d="M0.112307 19.2004C2.92021 19.1816 5.72789 19.2004 8.53534 19.2565C8.73289 19.3697 8.86395 19.5381 8.92842 19.7618C9.19133 20.6244 9.54701 21.4478 9.99534 22.232C9.97187 22.2978 9.93435 22.3539 9.88303 22.4004C7.26257 22.4753 4.64199 22.4753 2.02153 22.4004C1.30366 21.4204 0.629785 20.4099 0 19.3688C0.0624428 19.3258 0.0998748 19.2697 0.112307 19.2004Z"
        fill="#3073F3" />
    <path fill-rule="evenodd" clip-rule="evenodd"
        d="M19.8782 22.3437C23.1398 22.2922 26.3967 22.3483 29.6489 22.5121C31.4416 23.1026 32.209 24.3189 31.9512 26.1612C31.9181 26.4342 31.787 26.64 31.5582 26.7788C27.6648 26.8537 23.7716 26.8537 19.8782 26.7788C19.7294 25.3004 19.7294 23.8221 19.8782 22.3437Z"
        fill="#2A73FA" />
</svg>