<svg width="32" height="32" viewBox="0 0 32 32" fill="none" xmlns="http://www.w3.org/2000/svg">
    <path
        d="M30.6137 18.5041C30.5253 18.5041 30.437 18.4952 30.3478 18.4781L18.7227 16.1969L24.4653 5.72189C24.8362 5.04352 25.6821 4.79836 26.3521 5.17433C27.023 5.55022 27.2654 6.40468 26.8937 7.08305L23.0043 14.1771L30.8762 15.7214C31.6289 15.8693 32.12 16.6063 31.9746 17.367C31.8457 18.0383 31.265 18.5041 30.6137 18.5041Z"
        fill="#8497A8" />
    <path
        d="M18.1593 32.0002C17.4637 32.0002 16.8633 31.4733 16.7819 30.7579L15.418 18.8633L27.0287 21.2312C27.7805 21.3844 28.2668 22.1244 28.1144 22.8847C27.9629 23.6458 27.2311 24.1357 26.4792 23.9834L18.6164 22.3797L19.5398 30.4344C19.6273 31.2038 19.0823 31.9011 18.3204 31.9905C18.2664 31.9967 18.212 32.0002 18.1593 32.0002Z"
        fill="#261961" />
    <path
        d="M17.1918 12.5622L9.10565 3.80848C8.58195 3.24198 8.61152 2.35362 9.17184 1.82492C9.73215 1.29531 10.6107 1.32524 11.1344 1.89179L16.611 7.82018L20.4891 0.725226C20.8609 0.0468549 21.7051 -0.200105 22.376 0.175836C23.0468 0.550902 23.2902 1.40449 22.9192 2.08375L17.1918 12.5622Z"
        fill="#8497A8" />
    <path
        d="M1.38967 17.8998C0.865082 17.8998 0.362688 17.5978 0.128035 17.0845C-0.193252 16.3801 0.111058 15.5464 0.806741 15.2215L8.0888 11.8213L2.64046 5.87216C2.12021 5.30388 2.15331 4.41552 2.71616 3.88853C3.27823 3.36162 4.15676 3.39594 4.67785 3.96429L12.724 12.7496L1.97043 17.7708C1.78236 17.8584 1.58428 17.8998 1.38967 17.8998Z"
        fill="#8497A8" />
    <path
        d="M11.9267 30.0489C11.2336 30.0489 10.6351 29.5255 10.5502 28.8123L9.59501 20.7568L2.32081 24.1641C1.62509 24.4898 0.799674 24.1848 0.477514 23.4804C0.15536 22.777 0.457924 21.9423 1.15361 21.6165L11.8971 16.584L13.3068 28.4777C13.3986 29.2472 12.8553 29.9463 12.0943 30.0383C12.0382 30.0454 11.982 30.0489 11.9267 30.0489Z"
        fill="#8497A8" />
</svg>