<svg width="32" height="32" viewBox="0 0 32 32" fill="none" xmlns="http://www.w3.org/2000/svg">
    <path fill-rule="evenodd" clip-rule="evenodd"
        d="M6.25553 0.00929898C12.6546 -0.015499 19.0535 0.00930047 25.4522 0.0836959C28.9005 0.704447 31.0583 2.71316 31.9256 6.10984C32.0248 12.6072 32.0248 19.1045 31.9256 25.6018C31.2063 29.0985 29.0981 31.2064 25.6011 31.9256C19.1029 32.0248 12.6048 32.0248 6.10672 31.9256C2.70963 31.0584 0.700671 28.9009 0.0798448 25.453C-0.0634639 18.8027 -0.0138605 12.1566 0.228656 5.51467C1.23072 2.55266 3.23968 0.717531 6.25553 0.00929898Z"
        fill="#061731" />
    <path fill-rule="evenodd" clip-rule="evenodd"
        d="M6.10645 0.753261C9.25614 0.635632 12.4308 0.635632 15.6304 0.753261C15.6469 0.845126 15.6965 0.919523 15.7792 0.976451C15.4542 1.17932 15.1566 1.40251 14.8863 1.64602C12.4373 1.93648 10.0067 1.98609 7.59456 1.79482C7.84742 1.81865 8.09545 1.79385 8.33862 1.72042C8.19604 1.54968 8.24566 1.40089 8.48743 1.27404C8.81739 1.08427 9.16462 0.935474 9.52912 0.827658C8.38931 0.753307 7.24841 0.728509 6.10645 0.753261Z"
        fill="#5B626B" />
    <path fill-rule="evenodd" clip-rule="evenodd"
        d="M6.10681 0.753414C7.24877 0.728662 8.38967 0.75346 9.52948 0.827811C9.16498 0.935627 8.81775 1.08442 8.48779 1.27419C8.24602 1.40104 8.19641 1.54983 8.33898 1.72057C8.09581 1.794 7.84779 1.81881 7.59492 1.79497C6.37514 1.16752 5.18465 1.24192 4.02344 2.01816C2.29044 3.27489 1.12474 4.93642 0.526367 7.00275C0.974216 4.02622 2.58634 1.96791 5.36275 0.827811C5.60592 0.75438 5.85395 0.72958 6.10681 0.753414Z"
        fill="#898F96" />
    <path fill-rule="evenodd" clip-rule="evenodd"
        d="M15.6308 0.753364C16.7856 0.707971 17.9265 0.807168 19.0534 1.05095C19.0286 1.10054 19.0039 1.15015 18.979 1.19975C17.6329 1.45055 16.2687 1.59935 14.8867 1.64613C15.157 1.40261 15.4546 1.17942 15.7796 0.976554C15.6968 0.919626 15.6473 0.845229 15.6308 0.753364Z"
        fill="#374251" />
    <path fill-rule="evenodd" clip-rule="evenodd"
        d="M6.99959 3.28274C12.9523 3.25794 18.9047 3.28274 24.857 3.35714C26.7855 3.79728 28.0504 4.96284 28.6517 6.85379C28.751 12.9047 28.751 18.9556 28.6517 25.0066C28.1309 26.9161 26.9155 28.1313 25.0058 28.6521C18.9541 28.7513 12.9025 28.7513 6.85078 28.6521C5.02576 28.0673 3.86005 26.8521 3.35371 25.0066C3.25449 19.0053 3.25449 13.0039 3.35371 7.00258C3.90177 5.09079 5.11707 3.85085 6.99959 3.28274Z"
        fill="#F39406" />
    <path fill-rule="evenodd" clip-rule="evenodd"
        d="M6.99968 4.02688C12.8531 4.00208 18.7064 4.02688 24.5595 4.10128C26.275 4.37839 27.3911 5.34555 27.9077 7.00276C28.007 12.9545 28.007 18.9063 27.9077 24.858C27.5007 26.4058 26.5335 27.4226 25.0059 27.9083C19.0039 28.0075 13.0017 28.0075 6.99968 27.9083C5.47217 27.4226 4.50489 26.4058 4.09785 24.858C3.99863 18.9558 3.99863 13.0537 4.09785 7.15155C4.5368 5.59741 5.50407 4.55586 6.99968 4.02688Z"
        fill="#F9F8F7" />
    <path fill-rule="evenodd" clip-rule="evenodd"
        d="M15.9287 8.19284C14.2917 8.19284 12.6548 8.19284 11.0179 8.19284C11.0179 13.4502 11.0179 18.7076 11.0179 23.965C10.8693 18.6834 10.8197 13.3764 10.8691 8.04404C12.5822 7.99522 14.2688 8.04482 15.9287 8.19284Z"
        fill="#8A919C" />
    <path fill-rule="evenodd" clip-rule="evenodd"
        d="M16.672 8.19287C19.837 8.50619 21.201 10.2421 20.7644 13.4007C20.3139 15.1404 19.1978 16.1572 17.4161 16.4509C16.7657 16.4765 16.1209 16.5509 15.4816 16.6741C17.2186 19.0047 19.0044 21.2861 20.8388 23.5186C20.9296 23.6512 20.9791 23.8 20.9876 23.965C20.3409 23.9897 19.6961 23.9649 19.053 23.8906C17.2451 21.4147 15.3601 19.0093 13.3982 16.6741C13.1006 16.4758 12.8029 16.4758 12.5053 16.6741C12.357 19.0288 12.3074 21.4095 12.3565 23.8162C11.9597 23.8162 11.5629 23.8162 11.166 23.8162C11.166 18.658 11.166 13.4999 11.166 8.34166C13.0278 8.39056 14.8632 8.34095 16.672 8.19287Z"
        fill="#081932" />
    <path fill-rule="evenodd" clip-rule="evenodd"
        d="M15.9284 8.19287C16.1764 8.19287 16.4244 8.19287 16.6724 8.19287C14.8636 8.34095 13.0282 8.39056 11.1664 8.34166C11.1664 13.4999 11.1664 18.658 11.1664 23.8162C11.5632 23.8162 11.96 23.8162 12.3569 23.8162C12.3078 21.4095 12.3574 19.0288 12.5057 16.6741C12.5057 19.1044 12.5057 21.5348 12.5057 23.965C12.0097 23.965 11.5136 23.965 11.0176 23.965C11.0176 18.7077 11.0176 13.4502 11.0176 8.19287C12.6545 8.19287 14.2914 8.19287 15.9284 8.19287Z"
        fill="#000020" />
    <path fill-rule="evenodd" clip-rule="evenodd"
        d="M12.5059 9.68097C14.2501 9.62335 15.9861 9.69775 17.7143 9.90416C19.2604 10.8605 19.6325 12.1749 18.8304 13.8472C18.4934 14.2836 18.0717 14.606 17.5655 14.8144C15.887 15.0201 14.2005 15.0945 12.5059 15.0375C12.5059 13.252 12.5059 11.4665 12.5059 9.68097Z"
        fill="#F7F7F7" />
    <path fill-rule="evenodd" clip-rule="evenodd"
        d="M26.4935 12.6567C26.7626 12.8677 26.8618 13.1653 26.7912 13.5495C26.6424 13.5495 26.4935 13.5495 26.3447 13.5495C26.3943 13.2519 26.444 12.9543 26.4935 12.6567Z"
        fill="#FA9410" />
    <path fill-rule="evenodd" clip-rule="evenodd"
        d="M26.1967 14.1445C26.395 14.1445 26.5935 14.1445 26.7919 14.1445C26.7919 14.4421 26.7919 14.7397 26.7919 15.0373C26.5258 15.0797 26.2778 15.0302 26.0479 14.8885C26.1682 14.6547 26.2179 14.4067 26.1967 14.1445Z"
        fill="#FA9609" />
    <path fill-rule="evenodd" clip-rule="evenodd"
        d="M25.8982 15.6328C26.1958 15.6328 26.4935 15.6328 26.7911 15.6328C26.7911 15.9304 26.7911 16.228 26.7911 16.5256C26.3912 16.55 25.9943 16.5251 25.6006 16.4512C25.7113 16.1811 25.8106 15.9084 25.8982 15.6328Z"
        fill="#FA9817" />
    <path fill-rule="evenodd" clip-rule="evenodd"
        d="M13.3987 16.6741C13.1507 16.6741 12.9027 16.6741 12.6547 16.6741C12.7037 19.1306 12.6541 21.5608 12.5059 23.965C12.5059 21.5348 12.5059 19.1044 12.5059 16.6741C12.8035 16.4758 13.1011 16.4758 13.3987 16.6741Z"
        fill="#ACB2B9" />
    <path fill-rule="evenodd" clip-rule="evenodd"
        d="M25.4519 17.1206C25.8984 17.1206 26.3448 17.1206 26.7912 17.1206C26.7912 17.4182 26.7912 17.7158 26.7912 18.0134C26.2368 18.0614 25.6911 18.0117 25.1543 17.8646C25.2966 17.6302 25.3958 17.3822 25.4519 17.1206Z"
        fill="#FA9402" />
    <path fill-rule="evenodd" clip-rule="evenodd"
        d="M24.8566 18.6084C25.5014 18.6084 26.1463 18.6084 26.7911 18.6084C26.7911 18.906 26.7911 19.2036 26.7911 19.5012C25.9959 19.5259 25.2023 19.501 24.4102 19.4268C24.5797 19.1619 24.7285 18.889 24.8566 18.6084Z"
        fill="#FA9608" />
    <path fill-rule="evenodd" clip-rule="evenodd"
        d="M23.964 20.0967C24.9064 20.0967 25.849 20.0967 26.7914 20.0967C26.7914 20.3943 26.7914 20.6919 26.7914 20.9894C25.699 21.0141 24.6078 20.9894 23.5176 20.915C23.7048 20.656 23.8536 20.3833 23.964 20.0967Z"
        fill="#FA9607" />
    <path fill-rule="evenodd" clip-rule="evenodd"
        d="M22.9228 21.5845C24.2125 21.5845 25.5021 21.5845 26.7919 21.5845C26.7919 21.8821 26.7919 22.1796 26.7919 22.4772C25.2533 22.5019 23.7156 22.4772 22.1787 22.4028C22.4574 22.1493 22.7055 21.8766 22.9228 21.5845Z"
        fill="#FA970B" />
    <path fill-rule="evenodd" clip-rule="evenodd"
        d="M20.9877 23.9651C20.9792 23.8001 20.9296 23.6513 20.8389 23.5187C21.0581 23.4336 21.2566 23.3096 21.4341 23.1467C23.2191 23.0723 25.0049 23.0475 26.7913 23.0723C26.7913 23.3699 26.7913 23.6675 26.7913 23.9651C24.8568 23.9651 22.9222 23.9651 20.9877 23.9651Z"
        fill="#F99600" />
    <path fill-rule="evenodd" clip-rule="evenodd"
        d="M19.202 24.5601C21.7322 24.5353 24.262 24.5601 26.7914 24.6345C26.6783 24.8489 26.5792 25.0721 26.4938 25.3041C23.5684 25.4776 20.6417 25.5024 17.7139 25.3785C18.243 25.1392 18.739 24.8665 19.202 24.5601Z"
        fill="#FA970C" />
    <path fill-rule="evenodd" clip-rule="evenodd"
        d="M24.4108 26.7923C19.7722 26.8416 15.159 26.792 10.5713 26.6436C12.1655 26.5436 13.7529 26.3699 15.3333 26.1228C18.8552 26.0235 22.377 26.0235 25.8989 26.1228C25.4888 26.5324 24.9928 26.7556 24.4108 26.7923Z"
        fill="#FA9507" />
    <path fill-rule="evenodd" clip-rule="evenodd"
        d="M10.5712 26.6436C15.1589 26.7921 19.7721 26.8416 24.4107 26.7923C18.9298 26.9655 13.4237 26.9904 7.89258 26.8667C8.79037 26.8218 9.68324 26.7474 10.5712 26.6436Z"
        fill="#FAA345" />
</svg>