<svg width="32" height="32" viewBox="0 0 32 32" fill="none" xmlns="http://www.w3.org/2000/svg">
    <path fill-rule="evenodd" clip-rule="evenodd"
        d="M23.7402 2.10886C23.6058 2.41738 23.4696 2.74412 23.3314 3.08907C23.2508 2.51978 23.0056 2.4381 22.5957 2.84402C22.7811 3.01 22.7267 3.11892 22.4322 3.17076C22.8029 3.34739 22.8302 3.59244 22.514 3.90592C22.4595 3.797 22.4049 3.6881 22.3505 3.57918C22.282 3.77066 22.1731 3.93403 22.0235 4.06928C21.9727 4.27227 22.0544 4.43564 22.2687 4.55939C21.7843 4.78678 21.3211 5.16797 20.879 5.70297C20.7156 5.48515 20.5521 5.26732 20.3886 5.0495C20.2795 5.26732 20.1706 5.48515 20.0616 5.70297C19.8091 5.25148 19.6184 5.27872 19.4894 5.78465C19.6875 5.96547 19.6331 6.04716 19.3259 6.02971C15.483 5.27445 11.995 6.06406 8.8623 8.39855C9.11424 8.87487 9.38662 9.33774 9.67976 9.78718C11.1515 8.91584 12.7319 8.37129 14.4211 8.1535C14.6627 8.1107 14.8806 8.16515 15.075 8.31687C15.0034 8.48127 14.8945 8.48127 14.7481 8.31687C14.5476 8.7279 14.3024 9.10909 14.0123 9.46045C13.8488 9.406 13.6853 9.35153 13.5219 9.29708C13.3039 9.62382 13.0858 9.95055 12.8679 10.2773C12.7588 9.84164 12.6499 9.84164 12.5409 10.2773C12.4717 10.0394 12.3355 9.95773 12.1322 10.0322C12.1866 10.0867 12.2412 10.1412 12.2957 10.1956C12.0424 10.3939 11.8518 10.639 11.7234 10.9308C11.5642 10.5423 11.4551 10.5968 11.3964 11.0941C11.342 10.9308 11.2874 10.7674 11.2329 10.604C11.2621 10.921 11.0986 11.1933 10.7425 11.4209C10.6298 11.2809 10.4936 11.172 10.3337 11.0941C9.9868 11.4129 9.74156 11.7941 9.59802 12.2377C9.44858 11.6357 9.33953 11.6901 9.27103 12.4011C9.12896 11.5829 9.01991 11.6374 8.94404 12.5645C8.80197 11.7463 8.69292 11.8007 8.61706 12.7278C8.50801 11.6387 8.39912 11.6387 8.29007 12.7278C8.23563 12.4555 8.18102 12.1833 8.12658 11.911C8.07573 12.2469 7.99399 12.5736 7.88134 12.8912C8.04091 13.1564 7.95916 13.3742 7.6361 13.5447C7.47261 13.4902 7.30911 13.4357 7.14562 13.3813C6.81798 13.9275 6.43655 14.3087 6.00117 14.5249C5.94672 14.416 5.89212 14.3071 5.83767 14.1981C5.72862 15.0694 5.61974 15.0694 5.51069 14.1981C5.40164 15.2873 5.29275 15.2873 5.1837 14.1981C5.12501 14.6955 5.01596 14.7499 4.85671 14.3615C4.77497 14.5521 4.63878 14.6882 4.44798 14.7699C4.55703 14.8243 4.66592 14.8789 4.77497 14.9333C4.55442 15.0594 4.41823 15.2501 4.36624 15.5051C4.25719 14.8516 4.1483 14.8516 4.03925 15.5051C3.9302 14.8516 3.82131 14.8516 3.71226 15.5051C3.60321 15.0694 3.49433 15.0694 3.38528 15.5051C3.27623 15.0694 3.16734 15.0694 3.05829 15.5051C2.89136 14.8015 2.70057 14.747 2.48606 15.3417C2.56405 15.5015 2.67294 15.6376 2.81305 15.7501C2.50912 15.8619 2.23657 16.0253 1.99558 16.2402C2.18099 16.4062 2.12654 16.5152 1.83209 16.567C1.94114 16.6214 2.05003 16.6759 2.15908 16.7303C1.86381 17.0254 1.56396 17.325 1.25986 17.6289C0.96901 17.1754 0.805517 17.2298 0.769385 17.7922C0.619952 17.1902 0.510902 17.2446 0.442399 17.9556C0.387956 17.7378 0.333349 17.5199 0.278906 17.3021C0.216288 17.393 0.134541 17.4474 0.0336658 17.4655C-0.356265 10.2559 2.64106 4.94646 9.02579 1.53707C14.0454 -0.687915 18.9502 -0.497318 23.7402 2.10886Z"
        fill="#F9AE13" />
    <path fill-rule="evenodd" clip-rule="evenodd"
        d="M23.7405 2.10938C26.5249 3.63924 28.6504 5.81748 30.1167 8.64412C29.7544 8.52934 29.4547 8.31152 29.2175 7.99064C29.054 8.15401 28.8905 8.31738 28.727 8.48075C28.618 8.0451 28.5091 8.0451 28.4 8.48075C28.2506 8.29227 28.1144 8.31951 27.9913 8.56243C28.1672 8.84443 28.1945 9.14393 28.0731 9.46096C27.964 8.80749 27.8551 8.80749 27.7461 9.46096C27.5376 9.09872 27.3741 8.71754 27.2556 8.31738C27.199 8.70092 27.0082 9.00044 26.6834 9.21591C26.7864 9.525 26.9499 9.79729 27.1738 10.0328C27.0921 10.1144 27.0104 10.1961 26.9286 10.2778C26.7579 10.0944 26.649 9.87659 26.6016 9.62433C26.332 10.2095 26.0868 10.8086 25.8659 11.4214C25.6264 11.2403 25.4629 11.3219 25.3754 11.6664C25.7887 12.0054 25.7614 12.1415 25.2937 12.0749C25.1846 13.164 25.0757 13.164 24.9667 12.0749C24.8576 12.7283 24.7487 12.7283 24.6397 12.0749C24.4218 12.1838 24.2583 12.3471 24.1492 12.565C24.0948 12.456 24.0402 12.3471 23.9857 12.2382C23.8165 12.7952 23.4895 13.2309 23.0048 13.5452C22.9593 13.3956 22.8776 13.2866 22.7595 13.2184C22.8534 11.6565 22.6627 10.1318 22.1873 8.64412C21.6146 7.33588 20.6609 6.46459 19.3262 6.03022C19.6334 6.04767 19.6878 5.96598 19.4897 5.78517C19.6187 5.27923 19.8095 5.252 20.0619 5.70348C20.1709 5.48566 20.2798 5.26783 20.3889 5.05001C20.5524 5.26783 20.7159 5.48566 20.8794 5.70348C21.3214 5.16848 21.7846 4.7873 22.269 4.5599C22.0547 4.43615 21.973 4.27278 22.0238 4.0698C22.1734 3.93455 22.2823 3.77118 22.3508 3.57969C22.4052 3.68861 22.4598 3.79751 22.5143 3.90643C22.8305 3.59296 22.8032 3.34791 22.4325 3.17127C22.727 3.11943 22.7814 3.01052 22.596 2.84453C23.0059 2.43861 23.2512 2.5203 23.3318 3.08959C23.4699 2.74463 23.6061 2.4179 23.7405 2.10938Z"
        fill="#F9A712" />
    <path fill-rule="evenodd" clip-rule="evenodd"
        d="M19.3254 6.0279C20.6602 6.46226 21.6138 7.33356 22.1866 8.64179C22.662 10.1294 22.8526 11.6542 22.7588 13.2161C22.7588 16.8102 22.7588 20.4043 22.7588 23.9984C23.4672 23.9984 24.1758 23.9984 24.8842 23.9984C24.8842 24.4341 24.8842 24.8697 24.8842 25.3054C23.5373 25.6205 22.1749 25.7568 20.7969 25.7138C20.5516 25.5777 20.3608 25.3871 20.2246 25.142C20.1964 24.4818 20.1146 23.8284 19.9794 23.1816C18.6386 24.3954 17.1127 25.2668 15.4016 25.7955C12.8951 26.2345 10.8243 25.5264 9.18885 23.6717C7.28235 19.9397 8.20871 17.1352 11.9682 15.2582C14.5485 14.3021 17.2188 13.8392 19.9794 13.8696C20.1261 12.2748 19.8808 10.7501 19.2437 9.29527C18.7262 8.61468 18.0449 8.20625 17.2 8.07C16.2437 7.9363 15.3174 7.96354 14.4206 8.15169C12.7314 8.36948 11.1511 8.91403 9.67933 9.78537C9.38618 9.33593 9.1138 8.87306 8.86186 8.39674C11.9946 6.06225 15.4825 5.27264 19.3254 6.0279Z"
        fill="#FAF8F6" />
    <path fill-rule="evenodd" clip-rule="evenodd"
        d="M14.4206 8.15034C15.3174 7.96219 16.2437 7.93496 17.2 8.06866C18.0449 8.20491 18.7262 8.61333 19.2437 9.29392C19.8808 10.7487 20.126 12.2735 19.9794 13.8682C17.2188 13.8379 14.5485 14.3007 11.9682 15.2569C8.20868 17.1338 7.28233 19.9384 9.18882 23.6704C9.02598 23.6844 8.88979 23.6298 8.78009 23.507C8.67104 23.616 8.56215 23.7248 8.4531 23.8337C8.26296 23.5421 8.15391 23.2154 8.12612 22.8535C7.94938 23.2002 7.84033 23.5269 7.79913 23.8337C7.63564 23.7793 7.47214 23.7248 7.30865 23.6704C7.1996 24.1061 7.09071 24.1061 6.98166 23.6704C6.89305 24.5233 6.7567 24.5233 6.57293 23.6704C6.37429 23.9321 6.12905 24.2588 5.83721 24.6506C5.69988 24.1663 5.53638 24.1119 5.34673 24.4872C5.12307 24.2433 5.09577 23.9982 5.26498 23.752C5.21054 23.7248 5.15593 23.6976 5.10149 23.6704C4.97871 23.8135 4.89696 23.9768 4.85625 24.1605C4.7472 23.7248 4.63832 23.7248 4.52927 24.1605C4.39765 23.7682 4.26146 23.7955 4.12053 24.2422C4.33847 24.5689 4.61101 24.8412 4.938 25.059C4.78137 25.2464 4.83582 25.4097 5.10149 25.5491C5.01974 25.6308 4.938 25.7125 4.85625 25.7942C4.55951 25.4829 4.23253 25.2106 3.87529 24.9773C3.74809 25.4042 3.66635 25.8397 3.63005 26.2843C1.4448 23.7656 0.245908 20.825 0.0332031 17.4624C0.134078 17.4442 0.215825 17.3898 0.278443 17.299C0.332886 17.5168 0.387493 17.7347 0.441936 17.9525C0.51044 17.2415 0.61949 17.1871 0.768922 17.7891C0.805054 17.2266 0.968548 17.1722 1.2594 17.6257C1.5635 17.3219 1.86335 17.0222 2.15861 16.7272C2.04956 16.6728 1.94068 16.6182 1.83163 16.5638C2.12608 16.512 2.18052 16.4031 1.99512 16.2371C2.23611 16.0221 2.50865 15.8587 2.81259 15.747C2.67247 15.6344 2.56359 15.4983 2.4856 15.3386C2.7001 14.7438 2.8909 14.7983 3.05783 15.5019C3.16688 15.0662 3.27576 15.0662 3.38481 15.5019C3.49386 15.0662 3.60275 15.0662 3.7118 15.5019C3.82085 14.8485 3.92974 14.8485 4.03879 15.5019C4.14784 14.8485 4.25672 14.8485 4.36577 15.5019C4.41776 15.2469 4.55395 15.0563 4.77451 14.9301C4.66546 14.8757 4.55657 14.8212 4.44752 14.7668C4.63832 14.6851 4.77451 14.549 4.85625 14.3584C5.01549 14.7468 5.12454 14.6923 5.18324 14.195C5.29229 15.2842 5.40117 15.2842 5.51022 14.195C5.61927 15.0662 5.72816 15.0662 5.83721 14.195C5.89165 14.3039 5.94626 14.4128 6.0007 14.5217C6.43609 14.3055 6.81752 13.9244 7.14516 13.3781C7.30865 13.4326 7.47214 13.4871 7.63564 13.5415C7.9587 13.3711 8.04044 13.1532 7.88088 12.888C7.99352 12.5704 8.07527 12.2437 8.12612 11.9078C8.18056 12.1801 8.23517 12.4524 8.28961 12.7247C8.39866 11.6355 8.50754 11.6355 8.61659 12.7247C8.69246 11.7976 8.80151 11.7431 8.94358 12.5613C9.01944 11.6342 9.12849 11.5798 9.27057 12.3979C9.33907 11.687 9.44812 11.6325 9.59755 12.2346C9.7411 11.7909 9.98634 11.4098 10.3333 11.091C10.4932 11.1689 10.6294 11.2778 10.742 11.4177C11.0981 11.1901 11.2616 10.9179 11.2325 10.6009C11.2869 10.7642 11.3415 10.9276 11.396 11.091C11.4547 10.5936 11.5637 10.5392 11.723 10.9276C11.8513 10.6358 12.0419 10.3908 12.2952 10.1925C12.2407 10.138 12.1861 10.0835 12.1317 10.0291C12.3351 9.95457 12.4713 10.0363 12.5404 10.2741C12.6495 9.83848 12.7584 9.83848 12.8674 10.2741C13.0854 9.9474 13.3035 9.62066 13.5214 9.29392C13.6849 9.34837 13.8484 9.40284 14.0119 9.45729C14.3019 9.10594 14.5471 8.72475 14.7476 8.31371C14.8941 8.47811 15.003 8.47811 15.0746 8.31371C14.8802 8.16199 14.6622 8.10754 14.4206 8.15034Z"
        fill="#F9A80F" />
    <path fill-rule="evenodd" clip-rule="evenodd"
        d="M30.116 8.63883C31.6388 11.5534 32.2381 14.6574 31.9144 17.9508C31.7687 17.8265 31.6597 17.6631 31.5874 17.4607C31.6695 17.2621 31.7239 17.0714 31.7509 16.8889C31.6692 16.8073 31.5874 16.7256 31.5057 16.6439C31.4735 16.9732 31.31 17.3 31.0152 17.6241C30.8378 17.2717 30.6472 17.2444 30.443 17.5424C30.6153 17.7692 30.6424 18.0142 30.5247 18.2776C30.4703 18.1142 30.4157 17.9508 30.3612 17.7875C30.2947 18.4132 30.0767 18.5221 29.7072 18.1142C29.5214 18.2554 29.3034 18.4187 29.0533 18.6043C28.9988 18.4953 28.9442 18.3865 28.8898 18.2776C28.8646 18.7123 28.7011 19.1478 28.3993 19.5845C28.302 19.356 28.3293 19.1382 28.4811 18.931C28.241 18.5991 27.9685 18.6264 27.6636 19.0127C27.718 19.1761 27.7726 19.3395 27.8271 19.5028C27.7453 19.5845 27.6636 19.6662 27.5818 19.7479C27.5274 19.5301 27.4728 19.3122 27.4183 19.0944C27.2475 19.5899 26.975 20.0256 26.6009 20.4014C26.2739 19.5301 25.9469 19.5301 25.6199 20.4014C25.5655 20.347 25.5109 20.2924 25.4564 20.238C25.1719 20.4367 25.0085 20.7088 24.9659 21.0548C24.7784 20.8983 24.6149 20.9527 24.4755 21.2182C24.5073 21.4838 24.5073 21.7562 24.4755 22.0351C24.3664 21.5993 24.2575 21.5993 24.1485 22.0351C24.0479 21.771 23.8844 21.5533 23.658 21.3816C23.5709 21.9419 23.3256 22.4864 22.9223 23.0153C22.9908 23.2067 23.0997 23.3701 23.2493 23.5054C23.3958 23.341 23.5046 23.341 23.5763 23.5054C23.433 23.6281 23.2695 23.7097 23.0858 23.7504C23.7162 23.7793 24.3157 23.861 24.8842 23.9955C24.1758 23.9955 23.4672 23.9955 22.7588 23.9955C22.7588 20.4014 22.7588 16.8073 22.7588 13.2131C22.8768 13.2814 22.9586 13.3903 23.004 13.5399C23.4888 13.2256 23.8158 12.7899 23.985 12.2329C24.0394 12.3419 24.094 12.4508 24.1485 12.5597C24.2575 12.3419 24.421 12.1785 24.639 12.0696C24.748 12.723 24.8569 12.723 24.9659 12.0696C25.075 13.1587 25.1839 13.1587 25.2929 12.0696C25.7607 12.1363 25.788 12.0001 25.3747 11.6611C25.4621 11.3166 25.6256 11.235 25.8652 11.4161C26.086 10.8033 26.3313 10.2043 26.6009 9.61904C26.6483 9.87129 26.7572 10.0891 26.9279 10.2725C27.0096 10.1908 27.0914 10.1091 27.1731 10.0275C26.9491 9.792 26.7856 9.51971 26.6826 9.21062C27.0075 8.99515 27.1983 8.69563 27.2549 8.31209C27.3734 8.71224 27.5369 9.09343 27.7453 9.45567C27.8544 8.80219 27.9633 8.80219 28.0723 9.45567C28.1938 9.13864 28.1665 8.83913 27.9906 8.55714C28.1137 8.31421 28.2499 8.28698 28.3993 8.47546C28.5084 8.0398 28.6172 8.0398 28.7263 8.47546C28.8898 8.31209 29.0533 8.14872 29.2168 7.98535C29.454 8.30622 29.7537 8.52404 30.116 8.63883Z"
        fill="#F99D0E" />
    <path fill-rule="evenodd" clip-rule="evenodd"
        d="M17.6913 15.5029C18.4544 15.5029 19.2172 15.5029 19.9802 15.5029C20.0075 17.573 19.9802 19.6424 19.8985 21.7109C18.4983 22.8766 16.8907 23.5846 15.0754 23.8347C11.9697 23.5134 10.798 21.8253 11.5603 18.7703C12.2173 17.5155 13.2255 16.6713 14.585 16.2381C15.6297 15.9375 16.6652 15.6924 17.6913 15.5029Z"
        fill="#FAA012" />
    <path fill-rule="evenodd" clip-rule="evenodd"
        d="M31.9146 17.9505C31.9146 22.6338 31.9146 27.3169 31.9146 32.0002C25.9198 32.0002 19.9251 32.0002 13.9303 32.0002C13.2916 31.8381 12.6376 31.6748 11.9684 31.5101C11.8169 31.0164 11.5988 30.5536 11.3145 30.1215C11.3159 29.8921 11.3977 29.7016 11.5597 29.5497C11.5881 30.1004 11.8334 30.2638 12.2954 30.0398C12.4509 29.6475 12.6688 29.2935 12.9494 28.9779C12.6615 28.072 12.9067 27.9359 13.6851 28.5695C13.8404 28.4842 13.9768 28.3752 14.0938 28.2427C14.1896 28.2769 14.2714 28.3314 14.3391 28.4061C14.4136 28.2029 14.3319 28.0668 14.0938 27.9977C14.3481 27.7288 14.6204 27.6744 14.9113 27.8343C14.5037 27.5757 14.531 27.3306 14.993 27.0991C15.1637 27.2826 15.2726 27.5004 15.32 27.7526C15.3403 27.438 15.4767 27.1385 15.7288 26.8541C15.637 26.5983 15.7461 26.3805 16.0558 26.2006C15.897 25.9587 15.6791 25.8224 15.4018 25.7922C17.1129 25.2635 18.6388 24.3921 19.9796 23.1783C20.1148 23.8251 20.1965 24.4785 20.2248 25.1387C20.361 25.3838 20.5518 25.5744 20.7971 25.7105C22.1751 25.7535 23.5375 25.6172 24.8844 25.3021C24.8844 24.8664 24.8844 24.4308 24.8844 23.9951C24.3159 23.8607 23.7164 23.779 23.086 23.7501C23.2697 23.7094 23.4332 23.6277 23.5764 23.505C23.5048 23.3407 23.3959 23.3407 23.2495 23.505C23.0999 23.3698 22.991 23.2064 22.9225 23.0149C23.3258 22.4861 23.571 21.9416 23.6582 21.3812C23.8846 21.5529 24.0481 21.7707 24.1487 22.0347C24.2577 21.599 24.3666 21.599 24.4757 22.0347C24.5075 21.7558 24.5075 21.4835 24.4757 21.2179C24.6151 20.9524 24.7786 20.898 24.9661 21.0545C25.0086 20.7085 25.1721 20.4363 25.4566 20.2377C25.5111 20.2921 25.5657 20.3466 25.6201 20.401C25.9471 19.5298 26.2741 19.5298 26.6011 20.401C26.9751 20.0253 27.2477 19.5896 27.4185 19.0941C27.473 19.3119 27.5276 19.5298 27.582 19.7476C27.6638 19.6659 27.7455 19.5842 27.8273 19.5025C27.7728 19.3391 27.7182 19.1758 27.6638 19.0124C27.9687 18.626 28.2412 18.5987 28.4812 18.9307C28.3295 19.1379 28.3022 19.3556 28.3995 19.5842C28.7013 19.1475 28.8648 18.712 28.89 18.2772C28.9444 18.3862 28.999 18.495 29.0535 18.604C29.3036 18.4184 29.5215 18.255 29.7074 18.1139C30.0769 18.5218 30.2949 18.4128 30.3614 17.7871C30.4159 17.9505 30.4705 18.1139 30.5249 18.2772C30.6426 18.0139 30.6155 17.7688 30.4432 17.5421C30.6474 17.2441 30.838 17.2714 31.0154 17.6238C31.3102 17.2996 31.4737 16.9729 31.5059 16.6436C31.5876 16.7252 31.6694 16.8069 31.7511 16.8886C31.7241 17.0711 31.6697 17.2617 31.5876 17.4604C31.6599 17.6628 31.7689 17.8262 31.9146 17.9505Z"
        fill="#F4970C" />
    <path fill-rule="evenodd" clip-rule="evenodd"
        d="M9.18963 23.6801C10.8251 25.5348 12.8959 26.2429 15.4024 25.8039C15.6797 25.8341 15.8976 25.9704 16.0563 26.2123C15.7467 26.3922 15.6376 26.61 15.7294 26.8658C15.4772 27.1502 15.3409 27.4497 15.3206 27.7643C15.2732 27.5121 15.1643 27.2943 14.9936 27.1109C14.5316 27.3424 14.5043 27.5874 14.9119 27.846C14.621 27.6861 14.3487 27.7405 14.0944 28.0094C14.3325 28.0785 14.4142 28.2146 14.3397 28.4178C14.272 28.3432 14.1902 28.2886 14.0944 28.2544C13.9774 28.3869 13.841 28.4959 13.6857 28.5812C12.9073 27.9476 12.6621 28.0837 12.95 28.9896C12.6694 29.3052 12.4515 29.6593 12.296 30.0515C11.834 30.2755 11.5887 30.1121 11.5603 29.5614C11.3983 29.7133 11.3165 29.9038 11.315 30.1332C11.5994 30.5653 11.8175 31.0281 11.969 31.5218C8.63326 30.6458 5.85388 28.9033 3.63086 26.294C3.66715 25.8495 3.7489 25.414 3.8761 24.9871C4.23333 25.2204 4.56032 25.4927 4.85706 25.8039C4.9388 25.7222 5.02055 25.6405 5.1023 25.5589C4.83662 25.4195 4.78218 25.2561 4.9388 25.0688C4.61182 24.851 4.33928 24.5787 4.12134 24.2519C4.26227 23.8053 4.39846 23.778 4.53007 24.1702C4.63912 23.7345 4.74801 23.7345 4.85706 24.1702C4.89777 23.9866 4.97951 23.8232 5.1023 23.6801C5.15674 23.7074 5.21135 23.7345 5.26579 23.7618C5.09658 24.008 5.12388 24.2531 5.34754 24.497C5.53719 24.1217 5.70068 24.1761 5.83802 24.6603C6.12985 24.2686 6.37509 23.9418 6.57374 23.6801C6.7575 24.5331 6.89386 24.5331 6.98247 23.6801C7.09152 24.1158 7.20041 24.1158 7.30946 23.6801C7.47295 23.7345 7.63644 23.7891 7.79994 23.8435C7.84114 23.5367 7.95019 23.2099 8.12692 22.8633C8.15472 23.2251 8.26377 23.5519 8.45391 23.8435C8.56296 23.7345 8.67184 23.6257 8.78089 23.5168C8.8906 23.6396 9.02679 23.6942 9.18963 23.6801Z"
        fill="#F99D11" />
</svg>