<svg width="32" height="32" viewBox="0 0 32 32" fill="none" xmlns="http://www.w3.org/2000/svg">
    <path fill-rule="evenodd" clip-rule="evenodd"
        d="M8.09375 0.0937498C13.4479 0.0833336 18.8021 0.0937498 24.1563 0.125C26.7718 0.511534 28.4905 1.95945 29.3125 4.46875C29.391 4.77801 29.4535 5.09051 29.5 5.40625C29.5417 10.7812 29.5417 16.1562 29.5 21.5312C29.1618 23.7858 27.9639 25.4004 25.9063 26.375C25.382 26.5844 24.8403 26.7303 24.2813 26.8125C23.2188 26.8333 22.1563 26.8542 21.0938 26.875C19.4558 28.5338 17.7996 30.1692 16.125 31.7812C14.4504 30.1692 12.7942 28.5338 11.1563 26.875C9.96638 26.8701 8.77888 26.8284 7.59375 26.75C4.82648 26.0452 3.2119 24.2849 2.75 21.4688C2.70833 16.1354 2.70833 10.8021 2.75 5.46875C3.29245 2.43673 5.0737 0.645069 8.09375 0.0937498ZM21.9063 9.40625C21.7224 9.77913 21.5349 10.1541 21.3438 10.5312C21.5491 10.5828 21.7574 10.614 21.9688 10.625C23.2396 10.6653 24.5104 10.707 25.7813 10.75C23.9733 12.3572 22.1712 13.9718 20.375 15.5938C20.3626 15.8498 20.4043 16.0997 20.5 16.3438C21.1954 18.4392 21.8413 20.5433 22.4375 22.6562C20.2734 21.3816 18.0963 20.1316 15.9063 18.9062C13.8431 20.1573 11.7806 21.4073 9.71875 22.6562C10.2872 20.3514 10.8705 18.0493 11.4688 15.75C9.658 14.0854 7.82469 12.4396 5.96875 10.8125C8.21875 10.7292 10.4688 10.6458 12.7188 10.5625C12.8891 10.5511 13.0558 10.5199 13.2188 10.4688C14.1214 8.26744 15.0069 6.05913 15.875 3.84375C16.8043 6.03603 17.7001 8.24437 18.5625 10.4688C18.7338 10.5176 18.9109 10.5489 19.0938 10.5625C18.0039 11.3627 16.931 12.1856 15.875 13.0312C14.4899 12.545 13.1045 12.1075 11.7188 11.7188C13.0269 13.4126 14.3707 15.0792 15.75 16.7188C17.8033 14.2768 19.8553 11.8393 21.9063 9.40625Z"
        fill="#0075AF" />
</svg>