<svg width="32" height="32" viewBox="0 0 32 32" fill="none" xmlns="http://www.w3.org/2000/svg">
    <g clip-path="url(#clip0_5592_529)">
        <path
            d="M0 0C10.56 0 21.12 0 32 0C32 10.56 32 21.12 32 32C21.44 32 10.88 32 0 32C0 21.44 0 10.88 0 0Z"
            fill="#FEFEFE" />
        <path
            d="M17.2667 8.43993C17.2773 8.44841 17.2773 8.44841 17.288 8.45707C17.3777 8.52943 17.4608 8.6033 17.5334 8.69326C17.5454 8.70786 17.5454 8.70786 17.5577 8.72275C17.6206 8.79979 17.6765 8.87896 17.7292 8.96326C17.7372 8.97595 17.7452 8.98864 17.7534 9.00172C17.8146 9.09933 17.8737 9.19813 17.9319 9.29754C17.9916 9.39952 18.0527 9.50065 18.1142 9.60159C18.1337 9.63357 18.1531 9.66555 18.1726 9.69753C18.1773 9.70524 18.182 9.71296 18.1868 9.7209C18.227 9.78708 18.2669 9.85346 18.3067 9.91993C18.3698 10.0255 18.4336 10.1307 18.4975 10.2358C18.5698 10.3547 18.6418 10.4738 18.7134 10.5933C18.784 10.7113 18.8552 10.829 18.9267 10.9466C18.9982 11.0641 19.0693 11.1819 19.14 11.2999C19.2099 11.4166 19.2802 11.5329 19.3509 11.6491C19.435 11.7874 19.5185 11.9261 19.6017 12.065C19.6861 12.2059 19.7712 12.3464 19.8565 12.4868C19.9115 12.5773 19.9662 12.6679 20.0205 12.7587C20.0475 12.8037 20.0747 12.8484 20.102 12.8932C20.1208 12.9241 20.1396 12.9549 20.1584 12.9858C20.1632 12.9937 20.168 13.0015 20.1729 13.0097C20.2529 13.1411 20.3317 13.2733 20.41 13.4058C20.4866 13.5352 20.564 13.6639 20.6436 13.7915C20.7018 13.885 20.759 13.979 20.8159 14.0733C20.8245 14.0875 20.8332 14.1018 20.8421 14.1165C20.8501 14.1299 20.8581 14.1432 20.8664 14.157C20.8771 14.1748 20.8771 14.1748 20.8881 14.1929C20.9062 14.2256 20.9203 14.2582 20.9334 14.2933C20.9422 14.2933 20.951 14.2933 20.96 14.2933C20.9644 14.3153 20.9688 14.3373 20.9734 14.3599C20.9822 14.3599 20.991 14.3599 21 14.3599C21.0035 14.3674 21.007 14.3748 21.0106 14.3825C21.0608 14.4861 21.1199 14.5836 21.18 14.6816C21.1901 14.6981 21.2001 14.7145 21.2102 14.731C21.2508 14.7976 21.2917 14.8641 21.3338 14.9298C21.36 14.9733 21.36 14.9733 21.36 14.9999C21.3688 14.9999 21.3776 14.9999 21.3867 14.9999C21.3911 15.0219 21.3955 15.0439 21.4 15.0666C21.4088 15.0666 21.4176 15.0666 21.4267 15.0666C21.4311 15.0886 21.4355 15.1106 21.44 15.1333C21.4488 15.1333 21.4576 15.1333 21.4667 15.1333C21.4702 15.1407 21.4736 15.1481 21.4772 15.1557C21.5278 15.2605 21.5881 15.3586 21.6492 15.4574C21.6696 15.4904 21.6899 15.5234 21.7102 15.5564C21.7191 15.5709 21.728 15.5853 21.7372 15.6002C21.7573 15.6352 21.773 15.6688 21.7867 15.7066C21.7955 15.7066 21.8043 15.7066 21.8134 15.7066C21.8178 15.7286 21.8222 15.7506 21.8267 15.7733C21.8355 15.7733 21.8443 15.7733 21.8534 15.7733C21.8578 15.7953 21.8622 15.8173 21.8667 15.8399C21.8755 15.8399 21.8843 15.8399 21.8934 15.8399C21.8969 15.8474 21.9003 15.8548 21.904 15.8625C21.9541 15.9661 22.0132 16.0636 22.0734 16.1616C22.0834 16.1781 22.0935 16.1945 22.1035 16.211C22.1442 16.2776 22.185 16.3441 22.2271 16.4098C22.2534 16.4533 22.2534 16.4533 22.2534 16.4799C22.2622 16.4799 22.271 16.4799 22.28 16.4799C22.2844 16.5019 22.2888 16.5239 22.2934 16.5466C22.3022 16.5466 22.311 16.5466 22.32 16.5466C22.3235 16.554 22.327 16.5615 22.3306 16.5691C22.3808 16.6728 22.4399 16.7703 22.5 16.8683C22.5101 16.8847 22.5201 16.9012 22.5302 16.9177C22.5708 16.9843 22.6117 17.0508 22.6538 17.1165C22.68 17.1599 22.68 17.1599 22.68 17.1866C22.6888 17.1866 22.6976 17.1866 22.7067 17.1866C22.7111 17.2086 22.7155 17.2306 22.72 17.2533C22.7288 17.2533 22.7376 17.2533 22.7467 17.2533C22.7511 17.2753 22.7555 17.2973 22.76 17.3199C22.7688 17.3199 22.7776 17.3199 22.7867 17.3199C22.7902 17.3274 22.7937 17.3348 22.7973 17.3425C22.8474 17.4461 22.9065 17.5436 22.9667 17.6416C22.9767 17.6581 22.9868 17.6745 22.9968 17.691C23.0375 17.7576 23.0783 17.8241 23.1204 17.8898C23.1467 17.9333 23.1467 17.9333 23.1467 17.9599C23.1555 17.9599 23.1643 17.9599 23.1734 17.9599C23.1778 17.9819 23.1822 18.0039 23.1867 18.0266C23.1955 18.0266 23.2043 18.0266 23.2134 18.0266C23.2169 18.034 23.2203 18.0415 23.224 18.0491C23.2741 18.1528 23.3332 18.2503 23.3934 18.3483C23.4034 18.3647 23.4135 18.3812 23.4235 18.3977C23.4642 18.4643 23.505 18.5308 23.5471 18.5965C23.5734 18.6399 23.5734 18.6399 23.5734 18.6666C23.5822 18.6666 23.591 18.6666 23.6 18.6666C23.6044 18.6886 23.6088 18.7106 23.6134 18.7333C23.6222 18.7333 23.631 18.7333 23.64 18.7333C23.6444 18.7553 23.6488 18.7773 23.6534 18.7999C23.6622 18.7999 23.671 18.7999 23.68 18.7999C23.6835 18.8074 23.687 18.8148 23.6906 18.8225C23.7408 18.9261 23.7999 19.0236 23.86 19.1216C23.8701 19.1381 23.8801 19.1545 23.8902 19.171C23.9308 19.2376 23.9717 19.3041 24.0138 19.3698C24.04 19.4133 24.04 19.4133 24.04 19.4399C24.0488 19.4399 24.0576 19.4399 24.0667 19.4399C24.0711 19.4619 24.0755 19.4839 24.08 19.5066C24.0888 19.5066 24.0976 19.5066 24.1067 19.5066C24.1161 19.5257 24.1161 19.5257 24.1258 19.5453C24.1347 19.5632 24.1436 19.5812 24.1525 19.5991C24.1573 19.6087 24.162 19.6182 24.1669 19.6281C24.1921 19.6785 24.2178 19.7285 24.2448 19.778C24.3084 19.8943 24.3595 20.0067 24.4 20.1333C24.4095 20.1613 24.4189 20.1894 24.4284 20.2174C24.4367 20.2427 24.445 20.268 24.4534 20.2933C24.4565 20.3022 24.4596 20.3111 24.4628 20.3203C24.53 20.5146 24.5567 20.7151 24.56 20.9199C24.5603 20.9332 24.5606 20.9466 24.5608 20.9603C24.5642 21.144 24.5634 21.3251 24.5334 21.5066C24.5314 21.5184 24.5295 21.5303 24.5275 21.5425C24.4389 22.0616 24.2071 22.5556 23.8534 22.9466C23.8428 22.9586 23.8322 22.9706 23.8214 22.9829C23.6701 23.1538 23.5062 23.2955 23.32 23.4266C23.3126 23.4319 23.3051 23.4371 23.2974 23.4425C23.1973 23.5123 23.0922 23.5698 22.9834 23.6249C22.9712 23.6311 22.9591 23.6373 22.9466 23.6437C22.8779 23.6777 22.8108 23.7044 22.7368 23.7244C22.705 23.7338 22.6754 23.7458 22.645 23.7591C22.5613 23.7935 22.4742 23.8135 22.3862 23.8338C22.3628 23.8393 22.3394 23.8452 22.3161 23.8512C21.2143 24.1186 19.881 23.7771 17.9084 23.0241C17.3823 22.7656 16.8478 22.618 16.2667 22.5466C16.254 22.545 16.2413 22.5434 16.2282 22.5417C15.2794 22.4272 14.2915 22.5908 13.4484 23.0391C13.2247 23.1579 12.996 23.2622 12.7625 23.3599C12.7521 23.3643 12.7417 23.3687 12.731 23.3732C12.6318 23.4147 12.5338 23.4555 12.43 23.4843C12.3852 23.4977 12.3426 23.5157 12.2993 23.5334C11.9757 23.6639 11.627 23.7485 11.2858 23.8173C11.2554 23.8235 11.2251 23.8299 11.1948 23.8365C10.9582 23.8875 10.7291 23.8993 10.4875 23.8991C10.4736 23.8991 10.4598 23.8991 10.4455 23.8991C10.2925 23.8988 10.1404 23.8935 9.98789 23.8811C9.96856 23.8796 9.96856 23.8796 9.94885 23.878C9.8354 23.8679 9.72561 23.8469 9.61503 23.82C9.58858 23.8137 9.56196 23.8081 9.53533 23.8026C8.84899 23.652 8.2462 23.1756 7.8694 22.5934C7.83749 22.5431 7.80802 22.492 7.78059 22.4391C7.76551 22.4104 7.74958 22.3821 7.7332 22.3541C7.53179 22.0049 7.41544 21.563 7.41335 21.1599C7.41286 21.1424 7.41236 21.1248 7.41184 21.1068C7.40644 20.8718 7.43189 20.6436 7.48502 20.4149C7.48891 20.3981 7.49281 20.3812 7.49682 20.3638C7.51647 20.2829 7.53861 20.2079 7.5746 20.1328C7.59327 20.0923 7.60517 20.0499 7.61835 20.0074C7.69912 19.7664 7.84097 19.5439 7.98193 19.3338C8.01434 19.285 8.04547 19.2354 8.07669 19.1858C8.08326 19.1753 8.08983 19.1649 8.0966 19.1542C8.15076 19.0682 8.20455 18.982 8.25835 18.8958C8.33891 18.7667 8.42033 18.6381 8.50216 18.5098C8.5642 18.4125 8.62574 18.3149 8.68729 18.2173C8.70656 18.1868 8.72587 18.1563 8.74518 18.1258C8.81884 18.0093 8.8921 17.8927 8.96502 17.7758C9.04558 17.6467 9.127 17.5181 9.20882 17.3898C9.27086 17.2925 9.3324 17.1949 9.39396 17.0973C9.41323 17.0668 9.43253 17.0363 9.45184 17.0058C9.52551 16.8893 9.59877 16.7727 9.67169 16.6558C9.75225 16.5267 9.83366 16.3981 9.91549 16.2698C9.97753 16.1725 10.0391 16.0749 10.1006 15.9773C10.1199 15.9468 10.1392 15.9163 10.1585 15.8858C10.2332 15.7676 10.3076 15.6493 10.3817 15.5308C10.3903 15.517 10.3988 15.5033 10.4077 15.4892C10.4436 15.4316 10.4796 15.374 10.5153 15.3163C10.5891 15.1973 10.6653 15.0802 10.7422 14.9632C10.7937 14.8844 10.8425 14.8051 10.8887 14.7231C10.9051 14.6958 10.9224 14.6729 10.9434 14.6491C10.975 14.615 10.975 14.615 10.9894 14.5737C11.0196 14.5009 11.0637 14.4362 11.1059 14.3699C11.1148 14.3558 11.1237 14.3416 11.1329 14.3271C11.1596 14.2847 11.1865 14.2423 11.2134 14.1999C11.2277 14.1771 11.2421 14.1543 11.2565 14.1315C11.2889 14.0801 11.3215 14.0286 11.354 13.9772C11.3872 13.9248 11.4202 13.8724 11.4534 13.8199C11.4667 13.7988 11.48 13.7777 11.4934 13.7566C11.5033 13.7409 11.5033 13.7409 11.5134 13.7249C11.5734 13.6299 11.5734 13.6299 11.5933 13.5983C11.6067 13.5771 11.6201 13.5559 11.6334 13.5348C11.6663 13.4828 11.6991 13.4309 11.7319 13.3789C11.8056 13.2626 11.8788 13.1459 11.9517 13.0291C12.0714 12.8373 12.192 12.6461 12.3161 12.4572C12.3944 12.338 12.4703 12.2178 12.543 12.0951C12.5963 12.0053 12.6525 11.9176 12.7097 11.8302C12.749 11.7699 12.7875 11.7091 12.8259 11.6483C12.8325 11.6377 12.8392 11.6272 12.846 11.6163C12.8595 11.5949 12.873 11.5734 12.8865 11.552C12.9198 11.4991 12.9533 11.4462 12.9867 11.3933C13.0001 11.3721 13.0135 11.3509 13.0268 11.3297C13.053 11.2883 13.0791 11.2469 13.1053 11.2056C13.1789 11.0892 13.2521 10.9726 13.325 10.8558C13.3971 10.7403 13.4698 10.6252 13.5431 10.5105C13.6004 10.4206 13.657 10.3304 13.7134 10.2399C13.7848 10.1252 13.857 10.011 13.9298 9.89712C13.987 9.80727 14.0437 9.71702 14.1 9.62659C14.1724 9.51044 14.2454 9.39469 14.3191 9.27933C14.3561 9.22144 14.3929 9.16347 14.4292 9.10519C14.7639 8.56894 15.1628 8.2293 15.788 8.08363C16.2974 7.97975 16.8627 8.1113 17.2667 8.43993Z"
            fill="#FAB5FE" />
        <path
            d="M13.0134 13.8666C13.0279 13.8706 13.0279 13.8706 13.0427 13.8748C13.2648 13.9384 13.4736 14.0406 13.6534 14.1866C13.6671 14.1975 13.6809 14.2085 13.6951 14.2197C13.882 14.3709 14.0198 14.5431 14.1467 14.7466C14.1541 14.7585 14.1616 14.7704 14.1693 14.7827C14.1919 14.8192 14.2144 14.8558 14.2367 14.8924C14.2437 14.9039 14.2507 14.9153 14.2579 14.9271C14.2643 14.9378 14.2707 14.9485 14.2773 14.9595C14.283 14.9689 14.2887 14.9783 14.2945 14.988C14.3067 15.0133 14.3067 15.0133 14.3067 15.0533C14.3155 15.0533 14.3243 15.0533 14.3334 15.0533C14.3378 15.0753 14.3422 15.0973 14.3467 15.1199C14.3555 15.1199 14.3643 15.1199 14.3734 15.1199C14.3943 15.1502 14.3943 15.1502 14.4189 15.1926C14.4233 15.2002 14.4278 15.2077 14.4323 15.2156C14.4467 15.24 14.4608 15.2645 14.475 15.2891C14.4889 15.3129 14.5028 15.3367 14.5167 15.3605C14.5259 15.3763 14.5352 15.3922 14.5444 15.4081C14.5681 15.4489 14.5923 15.4892 14.6175 15.5291C14.6224 15.537 14.6274 15.5449 14.6325 15.553C14.6462 15.5748 14.6601 15.5965 14.6739 15.6181C14.6934 15.6533 14.6934 15.6533 14.6934 15.6933C14.7022 15.6933 14.711 15.6933 14.72 15.6933C14.7244 15.7153 14.7288 15.7373 14.7334 15.7599C14.7422 15.7599 14.751 15.7599 14.76 15.7599C14.7803 15.7902 14.7989 15.8203 14.8171 15.8519C14.8226 15.8612 14.8281 15.8706 14.8338 15.8803C14.8515 15.9104 14.8691 15.9406 14.8867 15.9708C14.9043 16.0008 14.9219 16.0308 14.9395 16.0608C14.9505 16.0795 14.9615 16.0983 14.9724 16.117C14.9941 16.1542 15.0161 16.1907 15.04 16.2266C15.04 16.2398 15.04 16.253 15.04 16.2666C15.0488 16.2666 15.0576 16.2666 15.0667 16.2666C15.0711 16.2886 15.0755 16.3106 15.08 16.3333C15.0888 16.3333 15.0976 16.3333 15.1067 16.3333C15.1276 16.3636 15.1276 16.3636 15.1522 16.4059C15.1567 16.4135 15.1611 16.4211 15.1657 16.4289C15.18 16.4533 15.1942 16.4779 15.2084 16.5024C15.2222 16.5262 15.2361 16.55 15.25 16.5738C15.2593 16.5897 15.2685 16.6056 15.2777 16.6214C15.3015 16.6622 15.3257 16.7026 15.3508 16.7425C15.3557 16.7503 15.3607 16.7582 15.3658 16.7663C15.3795 16.7881 15.3934 16.8098 15.4073 16.8315C15.4267 16.8666 15.4267 16.8666 15.4267 16.9066C15.4355 16.9066 15.4443 16.9066 15.4534 16.9066C15.4578 16.9286 15.4622 16.9506 15.4667 16.9733C15.4755 16.9733 15.4843 16.9733 15.4934 16.9733C15.5137 17.0035 15.5322 17.0337 15.5504 17.0652C15.556 17.0746 15.5615 17.0839 15.5672 17.0936C15.5849 17.1237 15.6025 17.1539 15.62 17.1841C15.6376 17.2141 15.6552 17.2441 15.6729 17.2742C15.6838 17.2929 15.6948 17.3116 15.7057 17.3303C15.7274 17.3675 15.7494 17.4041 15.7734 17.4399C15.7734 17.4531 15.7734 17.4663 15.7734 17.4799C15.7822 17.4799 15.791 17.4799 15.8 17.4799C15.8044 17.5019 15.8088 17.5239 15.8134 17.5466C15.8222 17.5466 15.831 17.5466 15.84 17.5466C15.8599 17.5761 15.878 17.6054 15.8957 17.6362C15.9011 17.6454 15.9066 17.6546 15.9121 17.6641C15.9296 17.6938 15.9469 17.7235 15.9642 17.7533C15.9814 17.7826 15.9986 17.8119 16.0158 17.8413C16.0265 17.8595 16.0372 17.8778 16.0479 17.8961C16.0796 17.9506 16.1127 18.0038 16.1476 18.0563C16.16 18.0799 16.16 18.0799 16.16 18.1199C16.1688 18.1199 16.1776 18.1199 16.1867 18.1199C16.1911 18.1419 16.1955 18.1639 16.2 18.1866C16.2088 18.1866 16.2176 18.1866 16.2267 18.1866C16.247 18.2169 16.2656 18.247 16.2838 18.2785C16.2893 18.2879 16.2948 18.2973 16.3005 18.3069C16.3182 18.337 16.3358 18.3672 16.3534 18.3974C16.371 18.4275 16.3886 18.4575 16.4062 18.4875C16.4172 18.5062 16.4281 18.5249 16.4391 18.5437C16.4608 18.5809 16.4828 18.6174 16.5067 18.6533C16.5067 18.6665 16.5067 18.6797 16.5067 18.6933C16.5155 18.6933 16.5243 18.6933 16.5334 18.6933C16.5378 18.7153 16.5422 18.7373 16.5467 18.7599C16.5555 18.7599 16.5643 18.7599 16.5734 18.7599C16.5937 18.7902 16.6122 18.8203 16.6304 18.8519C16.636 18.8612 16.6415 18.8706 16.6472 18.8803C16.6649 18.9104 16.6825 18.9406 16.7 18.9708C16.7176 19.0008 16.7352 19.0308 16.7529 19.0608C16.7638 19.0795 16.7748 19.0983 16.7857 19.117C16.8074 19.1542 16.8294 19.1907 16.8534 19.2266C16.8534 19.2398 16.8534 19.253 16.8534 19.2666C16.8622 19.2666 16.871 19.2666 16.88 19.2666C16.8844 19.2886 16.8888 19.3106 16.8934 19.3333C16.9022 19.3333 16.911 19.3333 16.92 19.3333C16.9409 19.3636 16.9409 19.3636 16.9655 19.4059C16.97 19.4135 16.9744 19.4211 16.979 19.4289C16.9933 19.4533 17.0075 19.4779 17.0217 19.5024C17.0355 19.5262 17.0494 19.55 17.0633 19.5738C17.0726 19.5897 17.0818 19.6056 17.0911 19.6214C17.1148 19.6622 17.139 19.7026 17.1641 19.7425C17.1691 19.7503 17.174 19.7582 17.1791 19.7663C17.1929 19.7881 17.2067 19.8098 17.2206 19.8315C17.24 19.8666 17.24 19.8666 17.24 19.9066C17.2488 19.9066 17.2576 19.9066 17.2667 19.9066C17.2711 19.9286 17.2755 19.9506 17.28 19.9733C17.2888 19.9733 17.2976 19.9733 17.3067 19.9733C17.3274 20.0043 17.3464 20.0352 17.365 20.0674C17.3702 20.0762 17.3753 20.0849 17.3806 20.094C17.4009 20.1285 17.421 20.1632 17.4406 20.1982C17.4683 20.2478 17.4984 20.2936 17.5325 20.3391C17.6534 20.5033 17.6534 20.5033 17.6534 20.5599C17.6622 20.5599 17.671 20.5599 17.68 20.5599C17.6844 20.5819 17.6888 20.6039 17.6934 20.6266C17.7022 20.6266 17.711 20.6266 17.72 20.6266C17.7244 20.6486 17.7288 20.6706 17.7334 20.6933C17.7422 20.6933 17.751 20.6933 17.76 20.6933C17.7644 20.7153 17.7688 20.7373 17.7734 20.7599C17.7822 20.7599 17.791 20.7599 17.8 20.7599C17.8044 20.7819 17.8088 20.8039 17.8134 20.8266C17.8222 20.8266 17.831 20.8266 17.84 20.8266C17.8603 20.8562 17.8603 20.8562 17.8842 20.8981C17.8886 20.9056 17.893 20.9132 17.8975 20.921C17.907 20.9375 17.9165 20.954 17.926 20.9705C17.9513 21.0148 17.9769 21.0589 18.0025 21.103C18.0077 21.1121 18.013 21.1212 18.0185 21.1306C18.0826 21.2412 18.1493 21.3503 18.216 21.4594C18.2419 21.5017 18.2677 21.5441 18.2934 21.5866C18.3024 21.6014 18.3114 21.6162 18.3206 21.6315C18.3292 21.6458 18.3378 21.6601 18.3466 21.6749C18.3543 21.6877 18.362 21.7005 18.37 21.7138C18.3867 21.7466 18.3867 21.7466 18.3867 21.7866C18.3955 21.7866 18.4043 21.7866 18.4134 21.7866C18.4178 21.8086 18.4222 21.8306 18.4267 21.8533C18.4355 21.8533 18.4443 21.8533 18.4534 21.8533C18.4578 21.8753 18.4622 21.8973 18.4667 21.9199C18.4755 21.9199 18.4843 21.9199 18.4934 21.9199C18.4978 21.9419 18.5022 21.9639 18.5067 21.9866C18.5155 21.9866 18.5243 21.9866 18.5334 21.9866C18.5378 22.0086 18.5422 22.0306 18.5467 22.0533C18.5555 22.0533 18.5643 22.0533 18.5734 22.0533C18.5936 22.0828 18.5936 22.0828 18.6176 22.1247C18.6219 22.1323 18.6263 22.1398 18.6308 22.1476C18.6403 22.1641 18.6498 22.1806 18.6593 22.1971C18.6847 22.2417 18.7105 22.2861 18.7363 22.3306C18.7416 22.3397 18.7469 22.3489 18.7524 22.3583C18.8048 22.4485 18.8589 22.5376 18.9134 22.6266C18.9951 22.7604 19.0751 22.8951 19.154 23.0305C19.2374 23.1737 19.323 23.3155 19.4098 23.4567C19.4188 23.4714 19.4278 23.4861 19.4371 23.5013C19.4451 23.5143 19.4531 23.5272 19.4613 23.5406C19.48 23.5733 19.48 23.5733 19.4934 23.6133C19.3416 23.5778 19.1942 23.5341 19.0467 23.4841C19.0363 23.4806 19.0258 23.4771 19.0151 23.4735C18.6484 23.35 18.2898 23.2114 17.9424 23.0405C17.4046 22.776 16.8617 22.6197 16.2667 22.5466C16.254 22.545 16.2413 22.5434 16.2282 22.5417C15.2794 22.4272 14.2915 22.5908 13.4484 23.0391C13.2247 23.1579 12.996 23.2622 12.7625 23.3599C12.7521 23.3643 12.7417 23.3687 12.731 23.3732C12.6318 23.4147 12.5338 23.4555 12.43 23.4843C12.3852 23.4977 12.3426 23.5157 12.2993 23.5334C11.9757 23.6638 11.627 23.7485 11.2858 23.8173C11.2554 23.8235 11.2251 23.8298 11.1948 23.8365C10.9582 23.8875 10.7291 23.8993 10.4875 23.8991C10.4736 23.8991 10.4598 23.8991 10.4455 23.8991C10.2925 23.8988 10.1404 23.8935 9.98789 23.8811C9.96856 23.8796 9.96856 23.8796 9.94885 23.878C9.8354 23.8679 9.72561 23.8469 9.61503 23.82C9.58858 23.8137 9.56196 23.8081 9.53533 23.8026C8.84899 23.652 8.2462 23.1756 7.8694 22.5934C7.83749 22.5431 7.80802 22.492 7.78059 22.4391C7.76551 22.4104 7.74958 22.3821 7.7332 22.3541C7.53179 22.0049 7.41544 21.563 7.41335 21.1599C7.41286 21.1424 7.41236 21.1248 7.41184 21.1067C7.40644 20.8718 7.43189 20.6436 7.48502 20.4149C7.48891 20.3981 7.49281 20.3812 7.49682 20.3638C7.51647 20.2829 7.53861 20.2079 7.5746 20.1328C7.59327 20.0923 7.60517 20.0499 7.61835 20.0074C7.69912 19.7664 7.84097 19.5439 7.98193 19.3338C8.01434 19.285 8.04547 19.2354 8.07669 19.1858C8.08326 19.1753 8.08983 19.1649 8.0966 19.1542C8.15076 19.0682 8.20455 18.982 8.25835 18.8958C8.33891 18.7667 8.42033 18.6381 8.50216 18.5098C8.5642 18.4125 8.62574 18.3149 8.68729 18.2173C8.70656 18.1868 8.72587 18.1563 8.74518 18.1258C8.81884 18.0093 8.8921 17.8927 8.96502 17.7758C9.04558 17.6467 9.127 17.5181 9.20882 17.3898C9.27086 17.2925 9.3324 17.1949 9.39396 17.0973C9.41323 17.0668 9.43253 17.0363 9.45184 17.0058C9.52551 16.8893 9.59877 16.7727 9.67169 16.6558C9.75225 16.5267 9.83366 16.3981 9.91549 16.2698C9.97753 16.1725 10.0391 16.0749 10.1006 15.9773C10.1199 15.9468 10.1392 15.9163 10.1585 15.8858C10.2332 15.7676 10.3076 15.6493 10.3817 15.5308C10.3945 15.5102 10.3945 15.5102 10.4077 15.4892C10.4436 15.4316 10.4796 15.374 10.5153 15.3163C10.5891 15.1973 10.6654 15.08 10.7423 14.963C10.7849 14.8979 10.8262 14.8328 10.8642 14.7649C10.9098 14.6845 10.9655 14.6127 11.0233 14.5408C11.0393 14.5208 11.0552 14.5007 11.071 14.4806C11.2771 14.2227 11.5396 14.0265 11.8534 13.9199C11.8731 13.9125 11.8928 13.905 11.9125 13.8974C11.9854 13.8706 12.0528 13.8497 12.13 13.8391C12.187 13.8324 12.187 13.8324 12.24 13.8133C12.4957 13.7722 12.7654 13.7975 13.0134 13.8666Z"
            fill="#AA83FE" />
        <path
            d="M15.9992 19.5684C16.0095 19.5684 16.0198 19.5684 16.0305 19.5684C16.1946 19.5689 16.3483 19.5805 16.5067 19.6267C16.5215 19.6308 16.5215 19.6308 16.5367 19.6349C16.7582 19.6965 16.9682 19.8014 17.1467 19.9467C17.1538 19.9524 17.1609 19.9582 17.1682 19.9641C17.2456 20.0267 17.322 20.0888 17.3842 20.1671C17.4017 20.1897 17.4017 20.1897 17.4325 20.2184C17.6533 20.4446 17.6533 20.4446 17.6533 20.56C17.6621 20.56 17.6709 20.56 17.68 20.56C17.6844 20.582 17.6888 20.604 17.6933 20.6267C17.7021 20.6267 17.7109 20.6267 17.72 20.6267C17.7244 20.6487 17.7288 20.6707 17.7333 20.6934C17.7421 20.6934 17.7509 20.6934 17.76 20.6934C17.7644 20.7154 17.7688 20.7374 17.7733 20.76C17.7821 20.76 17.7909 20.76 17.8 20.76C17.8044 20.782 17.8088 20.804 17.8133 20.8267C17.8221 20.8267 17.8309 20.8267 17.84 20.8267C17.8602 20.8563 17.8602 20.8563 17.8842 20.8982C17.8908 20.9095 17.8908 20.9095 17.8975 20.9211C17.907 20.9376 17.9165 20.9541 17.9259 20.9706C17.9512 21.0149 17.9769 21.059 18.0025 21.1031C18.0077 21.1122 18.013 21.1213 18.0184 21.1307C18.0826 21.2413 18.1493 21.3504 18.216 21.4595C18.2419 21.5018 18.2676 21.5442 18.2933 21.5867C18.3023 21.6015 18.3113 21.6163 18.3206 21.6316C18.3335 21.6531 18.3335 21.6531 18.3466 21.675C18.3543 21.6878 18.362 21.7006 18.3699 21.7139C18.3867 21.7467 18.3867 21.7467 18.3867 21.7867C18.3955 21.7867 18.4043 21.7867 18.4133 21.7867C18.4177 21.8087 18.4221 21.8307 18.4267 21.8534C18.4355 21.8534 18.4443 21.8534 18.4533 21.8534C18.4577 21.8754 18.4621 21.8974 18.4667 21.92C18.4755 21.92 18.4843 21.92 18.4933 21.92C18.4977 21.942 18.5021 21.964 18.5067 21.9867C18.5155 21.9867 18.5243 21.9867 18.5333 21.9867C18.5377 22.0087 18.5421 22.0307 18.5467 22.0534C18.5555 22.0534 18.5643 22.0534 18.5733 22.0534C18.5936 22.0829 18.5936 22.0829 18.6176 22.1248C18.6219 22.1324 18.6263 22.14 18.6308 22.1477C18.6403 22.1642 18.6498 22.1807 18.6592 22.1972C18.6847 22.2418 18.7105 22.2862 18.7363 22.3307C18.7416 22.3398 18.7469 22.349 18.7524 22.3584C18.8047 22.4486 18.8589 22.5377 18.9133 22.6267C18.9951 22.7605 19.0751 22.8952 19.154 23.0307C19.2374 23.1738 19.323 23.3156 19.4098 23.4568C19.4188 23.4715 19.4278 23.4862 19.4371 23.5014C19.4451 23.5144 19.4531 23.5273 19.4613 23.5407C19.48 23.5734 19.48 23.5734 19.4933 23.6134C19.3416 23.5779 19.1942 23.5342 19.0467 23.4842C19.0362 23.4807 19.0258 23.4772 19.0151 23.4736C18.6484 23.3501 18.2897 23.2115 17.9424 23.0406C17.4046 22.7761 16.8617 22.6198 16.2667 22.5467C16.254 22.5451 16.2413 22.5435 16.2282 22.5419C15.2626 22.4253 14.2736 22.6003 13.4171 23.0558C13.2255 23.1573 13.0294 23.2485 12.8295 23.3324C12.8121 23.3397 12.7948 23.347 12.7774 23.3544C12.7531 23.3647 12.7288 23.3748 12.7044 23.3848C12.6903 23.3907 12.6763 23.3965 12.6618 23.4025C12.6267 23.4134 12.6267 23.4134 12.5867 23.4C12.6771 23.2477 12.7692 23.0966 12.8642 22.9471C12.9112 22.873 12.9577 22.7986 13.0042 22.7242C13.0126 22.7107 13.021 22.6973 13.0296 22.6834C13.0468 22.656 13.0639 22.6286 13.081 22.6011C13.1229 22.5341 13.1648 22.4671 13.2067 22.4C13.2233 22.3734 13.24 22.3467 13.2567 22.32C13.49 21.9467 13.7233 21.5734 13.9567 21.2C13.969 21.1802 13.969 21.1802 13.9817 21.16C13.9983 21.1334 14.0149 21.1068 14.0316 21.0802C14.0823 20.999 14.133 20.9178 14.1837 20.8366C14.2088 20.7965 14.2339 20.7563 14.2591 20.7162C14.2896 20.6675 14.3199 20.6186 14.3501 20.5697C14.4576 20.3964 14.5716 20.2218 14.72 20.08C14.7288 20.08 14.7376 20.08 14.7467 20.08C14.7467 20.0712 14.7467 20.0624 14.7467 20.0534C14.7654 20.0357 14.7654 20.0357 14.7916 20.0157C14.8011 20.0083 14.8107 20.001 14.8205 19.9934C14.8359 19.9819 14.8359 19.9819 14.8517 19.97C14.862 19.9622 14.8723 19.9544 14.8829 19.9464C15.0783 19.8 15.0783 19.8 15.1333 19.8C15.1333 19.7912 15.1333 19.7824 15.1333 19.7734C15.1507 19.7668 15.1507 19.7668 15.1684 19.7602C15.1838 19.7544 15.1992 19.7485 15.215 19.7425C15.2302 19.7368 15.2453 19.7311 15.2609 19.7252C15.3061 19.7078 15.3061 19.7078 15.3452 19.6866C15.3964 19.662 15.4478 19.6473 15.5025 19.6325C15.5124 19.6298 15.5222 19.627 15.5324 19.6241C15.6884 19.5813 15.8379 19.5679 15.9992 19.5684Z"
            fill="#483CF5" />
    </g>
    <defs>
        <clipPath id="clip0_5592_529">
            <rect width="32" height="32" fill="white" />
        </clipPath>
    </defs>
</svg>