<svg width="32" height="32" viewBox="0 0 32 32" fill="none" xmlns="http://www.w3.org/2000/svg">
    <path fill-rule="evenodd" clip-rule="evenodd"
        d="M13.463 0.0797908C21.3972 -0.557377 27.1786 2.62152 30.8069 9.61644C33.2913 16.6584 31.8957 22.8175 26.6205 28.0937C20.1322 32.9619 13.4338 33.28 6.52542 29.0474C0.354592 23.8222 -1.43961 17.3452 1.14282 9.61644C3.76302 4.49867 7.86976 1.31979 13.463 0.0797908Z"
        fill="#01253F" />
    <path fill-rule="evenodd" clip-rule="evenodd"
        d="M21.5972 8.6629C21.73 9.50027 21.5704 10.2155 21.1188 10.8086C19.7719 10.5653 18.4165 10.5256 17.0519 10.6894C16.0484 11.3323 15.49 12.2462 15.3773 13.4312C15.1388 17.5222 15.0592 21.6547 15.1381 25.8289C14.3408 25.8289 13.5432 25.8289 12.7458 25.8289C11.6904 25.693 10.933 25.1367 10.4732 24.16C10.3136 19.9479 10.3136 15.7359 10.4732 11.5239C11.3227 8.09445 13.5154 6.26658 17.0519 6.04032C18.6641 5.93838 20.0595 6.41521 21.2384 7.47082C21.4798 7.83438 21.5994 8.23175 21.5972 8.6629Z"
        fill="#F6F7F8" />
    <path fill-rule="evenodd" clip-rule="evenodd"
        d="M21.5976 8.6626C21.8318 9.4076 21.9117 10.2023 21.8368 11.0468C21.528 11.1033 21.2888 11.0239 21.1191 10.8083C21.5708 10.2152 21.7304 9.49996 21.5976 8.6626Z"
        fill="#8D9FAC" />
    <path fill-rule="evenodd" clip-rule="evenodd"
        d="M15.3776 13.4312C15.3776 17.6433 15.3776 21.8551 15.3776 26.0672C14.4515 26.1423 13.5743 26.0629 12.7461 25.8288C13.5434 25.8288 14.341 25.8288 15.1384 25.8288C15.0594 21.6546 15.1391 17.5221 15.3776 13.4312Z"
        fill="#8395A2" />
    <path fill-rule="evenodd" clip-rule="evenodd"
        d="M17.7695 22.9679C19.4153 22.8192 20.0933 23.5344 19.8029 25.1137C18.7331 26.4424 17.7762 26.363 16.9322 24.8753C16.7726 24.5575 16.7726 24.2394 16.9322 23.9216C17.2613 23.6343 17.5403 23.3165 17.7695 22.9679Z"
        fill="#17A4CE" />
</svg>