<svg width="32" height="32" viewBox="0 0 32 32" fill="none" xmlns="http://www.w3.org/2000/svg">
    <g clip-path="url(#clip0_5640_45)">
        <path fill-rule="evenodd" clip-rule="evenodd"
            d="M-0.0800781 -0.0800781C10.5866 -0.0800781 21.2532 -0.0800781 31.9199 -0.0800781C31.9199 10.5866 31.9199 21.2532 31.9199 31.9199C21.2532 31.9199 10.5866 31.9199 -0.0800781 31.9199C-0.0800781 21.2532 -0.0800781 10.5866 -0.0800781 -0.0800781Z"
            fill="#F9F9F9" />
        <path fill-rule="evenodd" clip-rule="evenodd"
            d="M13.6804 3.75952C18.065 3.18013 21.825 4.40679 24.9604 7.43952C25.1666 7.68829 25.2733 7.95496 25.2804 8.23952C24.9172 8.43587 24.6239 8.70255 24.4004 9.03952C20.8956 5.27059 16.6823 4.23059 11.7604 5.91952C7.25576 8.23247 5.06909 11.9391 5.20039 17.0395C4.71757 17.0722 4.23757 17.1254 3.76039 17.1995C3.65212 10.1655 6.95879 5.68549 13.6804 3.75952Z"
            fill="#E0E0E0" />
        <path fill-rule="evenodd" clip-rule="evenodd"
            d="M25.0399 9.35954C25.0932 9.19954 25.1999 9.09287 25.3599 9.03954C26.4648 8.56418 27.5316 8.64418 28.5599 9.27954C29.5221 10.6341 29.3088 11.7808 27.9199 12.7195C27.0676 12.9811 26.2676 12.8744 25.5199 12.3995C25.3816 12.1281 25.1684 11.9414 24.8799 11.8395C24.9063 11.6608 24.9596 11.4742 25.0399 11.2795C25.1637 11.0857 25.297 11.0857 25.4399 11.2795C25.4666 11.1729 25.4932 11.0662 25.5199 10.9595C25.4152 10.7989 25.282 10.6389 25.1199 10.4795C25.0666 10.5862 25.0132 10.6929 24.9599 10.7995C24.9117 10.3184 24.9383 9.8384 25.0399 9.35954Z"
            fill="#01AE1F" />
        <path fill-rule="evenodd" clip-rule="evenodd"
            d="M25.8399 13.0396C25.3708 12.8317 24.9973 12.5117 24.7199 12.0796C24.3356 11.2955 24.3089 10.4955 24.6399 9.6796C24.7532 9.53872 24.8866 9.43205 25.0399 9.3596C24.9383 9.83847 24.9117 10.3185 24.9599 10.7996C25.0132 10.6929 25.0666 10.5863 25.1199 10.4796C25.282 10.639 25.4153 10.799 25.5199 10.9596C25.4932 11.0663 25.4666 11.1729 25.4399 11.2796C25.297 11.0858 25.1637 11.0858 25.0399 11.2796C24.9596 11.4742 24.9063 11.6609 24.8799 11.8396C25.1684 11.9415 25.3817 12.1282 25.5199 12.3996C26.2676 12.8745 27.0676 12.9811 27.9199 12.7196C29.3089 11.7809 29.5221 10.6342 28.5599 9.2796C27.5316 8.64424 26.4649 8.56424 25.3599 9.0396C25.9813 8.44346 26.7281 8.25679 27.5999 8.4796C29.0601 9.02608 29.6201 10.0661 29.2799 11.5996C28.5457 13.0274 27.3989 13.5074 25.8399 13.0396Z"
            fill="#2EA93A" />
        <path fill-rule="evenodd" clip-rule="evenodd"
            d="M12.0802 11.4404C12.3548 11.461 12.6214 11.5143 12.8802 11.6004C13.0402 11.8137 13.2002 12.027 13.3602 12.2404C13.475 12.7956 13.5817 13.3556 13.6802 13.9204C13.4754 14.2979 13.3687 14.6979 13.3602 15.1204C13.2535 15.2804 13.1469 15.4404 13.0402 15.6004C12.9335 15.6004 12.8269 15.6004 12.7202 15.6004C11.5882 15.9646 10.5748 15.7779 9.6802 15.0404C9.85634 14.6736 9.72302 14.4336 9.2802 14.3204C9.17353 13.787 9.17353 13.2537 9.2802 12.7204C9.77529 12.2204 10.3353 11.8204 10.9602 11.5204C11.3298 11.4409 11.7031 11.4142 12.0802 11.4404Z"
            fill="#F7B503" />
        <path fill-rule="evenodd" clip-rule="evenodd"
            d="M24.7204 12.0801C24.9978 12.5121 25.3713 12.8321 25.8404 13.0401C24.4004 14.5334 22.9604 16.0268 21.5204 17.5201C21.1849 17.1116 20.8116 16.7383 20.4004 16.4001C21.8937 15.0134 23.3337 13.5734 24.7204 12.0801Z"
            fill="#060708" />
        <path fill-rule="evenodd" clip-rule="evenodd"
            d="M13.9999 14.4804C13.9466 14.4804 13.8932 14.4804 13.8399 14.4804C14.1517 13.6162 13.9917 12.8695 13.3599 12.2404C13.1999 12.0271 13.0399 11.8138 12.8799 11.6004C13.0914 11.6276 13.2781 11.5743 13.4399 11.4404C14.1275 12.3806 14.3142 13.3939 13.9999 14.4804Z"
            fill="#F9F6D7" />
        <path fill-rule="evenodd" clip-rule="evenodd"
            d="M13.3604 12.2402C13.9921 12.8693 14.1521 13.616 13.8404 14.4802C13.7563 14.7571 13.5963 14.9704 13.3604 15.1202C13.3689 14.6978 13.4756 14.2978 13.6804 13.9202C13.5819 13.3554 13.4752 12.7954 13.3604 12.2402Z"
            fill="#DFB42F" />
        <path fill-rule="evenodd" clip-rule="evenodd"
            d="M12.0795 11.4403C11.7024 11.4141 11.3291 11.4408 10.9595 11.5203C10.3346 11.8203 9.77461 12.2203 9.27952 12.7203C9.17285 13.2536 9.17285 13.7869 9.27952 14.3203C9.72234 14.4335 9.85566 14.6735 9.67952 15.0403C10.5741 15.7778 11.5875 15.9645 12.7195 15.6003C12.5306 15.851 12.2639 15.9844 11.9195 16.0003C11.3774 16.1057 10.8441 16.079 10.3195 15.9203C9.95021 15.605 9.57688 15.285 9.19952 14.9603C8.4992 12.8366 9.24587 11.61 11.4395 11.2803C11.6867 11.282 11.9001 11.3353 12.0795 11.4403Z"
            fill="#E5B73A" />
        <path fill-rule="evenodd" clip-rule="evenodd"
            d="M27.92 13.5195C28.8738 19.6914 26.5805 24.2514 21.04 27.1995C16.1918 29.065 11.7652 28.3715 7.76 25.1195C7.05574 24.5223 6.46909 23.829 6 23.0395C6.36832 22.7477 6.74165 22.4543 7.12 22.1595C11.2071 27.0037 16.1138 27.9904 21.84 25.1195C24.5349 23.2269 26.1616 20.6403 26.72 17.3595C26.8218 16.1826 26.795 15.0092 26.64 13.8395C27.1285 13.9018 27.5552 13.7952 27.92 13.5195Z"
            fill="#E0E0E0" />
        <path fill-rule="evenodd" clip-rule="evenodd"
            d="M13.84 14.4805C13.8934 14.4805 13.9467 14.4805 14 14.4805C15.1164 15.2218 16.2364 15.9685 17.36 16.7205C17.1468 17.1472 16.9333 17.5737 16.72 18.0005C15.4465 17.2581 14.2199 16.4581 13.04 15.6005C13.1467 15.4405 13.2534 15.2805 13.36 15.1205C13.5959 14.9707 13.7559 14.7573 13.84 14.4805Z"
            fill="#0B090B" />
        <path fill-rule="evenodd" clip-rule="evenodd"
            d="M9.20031 14.96C9.57767 15.2846 9.951 15.6046 10.3203 15.92C9.36031 16.9867 8.34698 18 7.28031 18.96C7.12031 18.6932 6.90698 18.48 6.64031 18.32C6.53364 18.16 6.42698 18 6.32031 17.84C7.23564 16.818 8.19564 15.858 9.20031 14.96Z"
            fill="#161313" />
        <path fill-rule="evenodd" clip-rule="evenodd"
            d="M18.3202 16.3996C19.1186 16.2708 19.7319 16.5375 20.1602 17.1996C20.7404 16.9713 21.0871 17.1846 21.2002 17.8396C21.3581 18.3625 21.4114 18.8959 21.3602 19.4396C21.3877 19.5983 21.3343 19.7049 21.2002 19.7596C21.0402 19.7596 20.8802 19.7596 20.7202 19.7596C20.7202 19.9196 20.7202 20.0796 20.7202 20.2396C19.6005 20.942 18.5338 20.862 17.5202 19.9996C17.6269 19.8929 17.7335 19.7863 17.8402 19.6796C17.8991 19.0131 17.6856 18.3998 17.2002 17.8396C17.2826 17.5636 17.3893 17.2969 17.5202 17.0396C17.854 16.8814 18.1207 16.6681 18.3202 16.3996Z"
            fill="#017CF8" />
        <path fill-rule="evenodd" clip-rule="evenodd"
            d="M18.3203 16.4002C18.9902 16.2143 19.6835 16.2143 20.4003 16.4002C20.8115 16.7384 21.1848 17.1117 21.5203 17.5202C21.571 18.1925 21.5176 18.8325 21.3603 19.4402C21.4115 18.8965 21.3582 18.3631 21.2003 17.8402C21.0872 17.1851 20.7405 16.9719 20.1603 17.2002C19.732 16.5381 19.1187 16.2714 18.3203 16.4002Z"
            fill="#217BE0" />
        <path fill-rule="evenodd" clip-rule="evenodd"
            d="M6.31992 17.8396C6.42659 17.9996 6.53325 18.1596 6.63992 18.3196C5.76112 18.0495 4.85447 17.9428 3.91992 17.9996C4.23386 17.7569 4.60719 17.6501 5.03992 17.6796C5.47143 17.7121 5.8981 17.7653 6.31992 17.8396Z"
            fill="#DB4C2B" />
        <path fill-rule="evenodd" clip-rule="evenodd"
            d="M18.3198 16.4004C18.1203 16.6689 17.8536 16.8822 17.5198 17.0404C17.3889 17.2977 17.2822 17.5644 17.1998 17.8404C17.6852 18.4006 17.8987 19.0138 17.8398 19.6804C17.7331 19.7871 17.6265 19.8937 17.5198 20.0004C18.5334 20.8628 19.6001 20.9428 20.7198 20.2404C20.7198 20.0804 20.7198 19.9204 20.7198 19.7604C20.8798 19.7604 21.0398 19.7604 21.1998 19.7604C20.979 20.2487 20.6056 20.5953 20.0798 20.8004C17.76 21.2793 16.64 20.346 16.7198 18.0004C16.9331 17.5737 17.1465 17.1471 17.3598 16.7204C17.6798 16.6137 17.9998 16.5071 18.3198 16.4004Z"
            fill="#1B7CE7" />
        <path fill-rule="evenodd" clip-rule="evenodd"
            d="M7.28012 19.1201C7.38589 19.3816 7.43922 19.6748 7.44012 20.0001C7.47213 20.4587 7.36546 20.8587 7.12012 21.2001C7.23204 20.5124 7.28537 19.8192 7.28012 19.1201Z"
            fill="#D6573A" />
        <path fill-rule="evenodd" clip-rule="evenodd"
            d="M3.91955 18C3.65921 18.3408 3.36588 18.6608 3.03955 18.96C2.8414 20.1829 3.13475 21.2494 3.91955 22.16C3.04635 21.7478 2.61968 21.0546 2.63955 20.08C2.54609 19.0558 2.97276 18.3624 3.91955 18Z"
            fill="#E54320" />
        <path fill-rule="evenodd" clip-rule="evenodd"
            d="M3.92038 18.0001C4.85492 17.9433 5.76158 18.0501 6.64038 18.3201C6.90705 18.4801 7.12038 18.6934 7.28038 18.9601C7.28038 19.0134 7.28038 19.0669 7.28038 19.1201C7.28563 19.8192 7.2323 20.5125 7.12038 21.2001C6.83094 21.6224 6.4576 21.9691 6.00038 22.2401C5.27712 22.3704 4.58379 22.3437 3.92038 22.1601C3.13558 21.2496 2.84224 20.183 3.04038 18.9601C3.36672 18.6609 3.66004 18.3409 3.92038 18.0001Z"
            fill="#F83305" />
    </g>
    <defs>
        <clipPath id="clip0_5640_45">
            <rect width="32" height="32" fill="white" />
        </clipPath>
    </defs>
</svg>