<svg width="32" height="32" viewBox="0 0 32 32" fill="none" xmlns="http://www.w3.org/2000/svg">
    <g clip-path="url(#clip0_5641_84)">
        <path fill-rule="evenodd" clip-rule="evenodd"
            d="M-0.0712891 -0.0712891C10.5954 -0.0712891 21.262 -0.0712891 31.9287 -0.0712891C31.9287 10.5954 31.9287 21.262 31.9287 31.9287C21.262 31.9287 10.5954 31.9287 -0.0712891 31.9287C-0.0712891 21.262 -0.0712891 10.5954 -0.0712891 -0.0712891Z"
            fill="#F9F9F9" />
        <path fill-rule="evenodd" clip-rule="evenodd"
            d="M26.5245 10.1684C26.5084 9.80593 26.6033 9.47409 26.8089 9.17287C26.6906 8.65311 26.5721 8.13164 26.4534 7.60843C26.3585 7.4188 26.2638 7.4188 26.1689 7.60843C26.1433 7.32563 26.1669 7.04119 26.24 6.7551C25.8356 6.67575 25.4325 6.58095 25.0312 6.47065C24.6629 6.68204 24.2599 6.77684 23.8223 6.7551C24.7878 6.16012 25.7596 6.20753 26.7378 6.89732C27.215 8.0289 27.1439 9.11926 26.5245 10.1684Z"
            fill="#546EE0" />
        <path fill-rule="evenodd" clip-rule="evenodd"
            d="M22.6841 7.04004C22.5443 7.23208 22.3547 7.3743 22.1152 7.46671C21.9602 7.62437 21.9602 7.7666 22.1152 7.89337C22.8242 7.7206 23.5353 7.7206 24.2486 7.89337C24.2744 8.20265 24.3693 8.48709 24.533 8.74671C24.4979 8.91926 24.403 9.01408 24.2486 9.03115C24.2029 8.81098 24.0607 8.71616 23.8219 8.74671C23.913 8.60702 24.0078 8.46479 24.1063 8.32004C23.666 8.16084 23.2393 8.20824 22.8263 8.46226C22.779 8.41486 22.7315 8.36744 22.6841 8.32004C22.8498 8.16593 23.0394 8.04741 23.253 7.96448C23.1581 7.94078 23.0634 7.91708 22.9686 7.89337C22.3061 8.07274 21.6425 8.07274 20.9774 7.89337C20.6405 7.96959 20.3561 8.13552 20.1241 8.39115C19.7478 8.46189 19.3685 8.4856 18.9863 8.46226C20.1747 7.90751 21.4074 7.43344 22.6841 7.04004Z"
            fill="#5070E1" />
        <path fill-rule="evenodd" clip-rule="evenodd"
            d="M21.5469 9.59961C21.0774 9.89607 20.5559 10.0857 19.9824 10.1685C19.9982 10.0807 20.0456 10.0096 20.1246 9.95516C20.5974 9.82108 21.0714 9.70256 21.5469 9.59961Z"
            fill="#AEB9E9" />
        <path fill-rule="evenodd" clip-rule="evenodd"
            d="M13.8666 10.1689C13.8556 10.3467 13.7607 10.4652 13.5821 10.5245C13.2099 10.6413 12.8307 10.7124 12.4443 10.7378C12.9121 10.5489 13.3862 10.3593 13.8666 10.1689Z"
            fill="#677DD4" />
        <path fill-rule="evenodd" clip-rule="evenodd"
            d="M12.3025 10.7373C11.9703 11.1163 11.5436 11.3059 11.0225 11.3062C11.3906 11.0087 11.8173 10.8191 12.3025 10.7373Z"
            fill="#637AD6" />
        <path fill-rule="evenodd" clip-rule="evenodd"
            d="M25.6707 13.1553C25.6572 13.4804 25.5623 13.7648 25.3863 14.0086C25.3228 13.6516 25.4176 13.3672 25.6707 13.1553Z"
            fill="#6C7FD1" />
        <path fill-rule="evenodd" clip-rule="evenodd"
            d="M23.8226 8.74689C23.0997 9.10762 22.3411 9.39206 21.547 9.60022C21.0716 9.70318 20.5976 9.82169 20.1248 9.95578C20.0457 10.0102 19.9984 10.0813 19.9826 10.1691C16.0978 11.5209 12.2104 12.8246 8.32038 14.0802C8.13075 14.2224 8.13075 14.3647 8.32038 14.5069C8.9041 14.8462 9.52041 15.1069 10.1693 15.2891C10.2004 15.4562 10.153 15.5984 10.027 15.7158C9.46589 15.9015 8.94442 16.1622 8.4626 16.498C8.27297 16.5929 8.08334 16.5929 7.89371 16.498C7.03595 16.0691 6.18262 15.6424 5.33371 15.218C4.58798 14.5655 4.58798 13.9017 5.33371 13.2269C7.21413 12.5478 9.11042 11.9078 11.0226 11.3069C11.5438 11.3066 11.9704 11.117 12.3026 10.738C12.35 10.738 12.3974 10.738 12.4448 10.738C12.8312 10.7126 13.2104 10.6415 13.5826 10.5247C13.7612 10.4654 13.856 10.3469 13.867 10.1691C15.5475 9.51827 17.2542 8.94938 18.987 8.46244C19.3692 8.48578 19.7485 8.46207 20.1248 8.39133C20.3568 8.1357 20.6412 7.96977 20.9782 7.89355C21.6432 8.07293 22.3068 8.07293 22.9693 7.89355C23.0641 7.91726 23.1588 7.94096 23.2537 7.96467C23.0401 8.0476 22.8505 8.16611 22.6848 8.32022C22.7322 8.36762 22.7797 8.41504 22.827 8.46244C23.2401 8.20842 23.6667 8.16102 24.107 8.32022C24.0085 8.46498 23.9138 8.6072 23.8226 8.74689Z"
            fill="#4D6CEA" />
        <path fill-rule="evenodd" clip-rule="evenodd"
            d="M15.0044 16.9951C14.94 16.8588 14.8453 16.7402 14.72 16.6395C14.8646 16.4903 14.8884 16.3244 14.7911 16.1418C14.2539 16.289 13.7087 16.3601 13.1555 16.3551C13.8002 15.7568 13.7054 15.5908 12.8711 15.8573C15.2051 14.6668 17.5755 13.5053 19.9822 12.3729C20.1244 12.2781 20.2666 12.2781 20.4089 12.3729C18.6237 13.9498 16.8222 15.4905 15.0044 16.9951Z"
            fill="#506DE9" />
        <path fill-rule="evenodd" clip-rule="evenodd"
            d="M22.2575 15.2891C22.2372 15.5397 22.2847 15.7767 22.3998 16.0002C21.9762 16.263 21.9287 16.5474 22.2575 16.8535C21.7949 17.6623 21.3682 18.4683 20.9775 19.2713C21.3334 17.9153 21.76 16.588 22.2575 15.2891Z"
            fill="#5B75DE" />
        <path fill-rule="evenodd" clip-rule="evenodd"
            d="M24.2493 17.8486C24.2836 18.1897 24.1887 18.4741 23.9648 18.702C23.9306 18.3609 24.0254 18.0765 24.2493 17.8486Z"
            fill="#AEBEEA" />
        <path fill-rule="evenodd" clip-rule="evenodd"
            d="M26.5241 10.1685C26.2398 11.1623 25.9553 12.1578 25.6708 13.1551C25.4176 13.367 25.3229 13.6515 25.3863 14.0085C25.007 15.2885 24.6278 16.5685 24.2485 17.8485C24.0247 18.0763 23.9298 18.3608 23.9641 18.7018C23.3319 20.5615 22.7393 22.4578 22.1863 24.3907C22.0998 24.6134 21.9812 24.8031 21.8308 24.9596C21.521 25.1241 21.2366 25.3137 20.9774 25.5285C20.3579 25.48 19.789 25.2904 19.2708 24.9596C17.4601 23.5276 15.6112 22.1527 13.7241 20.8351C12.8807 20.1131 12.0037 19.402 11.093 18.7018C11.0219 18.7256 10.9508 18.7492 10.8796 18.7729C11.4953 19.6967 12.0168 20.6685 12.4441 21.6885C11.8064 22.2214 11.0952 22.6481 10.3108 22.9685C10.0933 22.9644 9.92732 22.8695 9.81298 22.684C9.5816 20.8962 9.53419 19.0946 9.67076 17.2796C10.7132 16.7464 11.7798 16.2724 12.8708 15.8574C13.7051 15.5908 13.7999 15.7568 13.1552 16.3551C13.7083 16.3601 14.2536 16.289 14.7908 16.1418C14.888 16.3244 14.8643 16.4904 14.7196 16.6396C14.8449 16.7403 14.9397 16.8589 15.0041 16.9951C14.7105 17.3572 14.3787 17.6891 14.0085 17.9907C15.8682 19.5172 17.8118 20.9394 19.8396 22.2574C20.2851 21.2773 20.6642 20.2818 20.9774 19.2707C21.3681 18.4677 21.7948 17.6617 22.2574 16.8529C21.9286 16.5469 21.9761 16.2624 22.3996 15.9996C22.2846 15.7762 22.2371 15.5391 22.2574 15.2885C22.8377 13.1686 23.5014 11.0826 24.2485 9.0307C24.403 9.01364 24.4978 8.91882 24.533 8.74626C24.3693 8.48665 24.2744 8.2022 24.2485 7.89293C23.5353 7.72015 22.8242 7.72015 22.1152 7.89293C21.9602 7.76615 21.9602 7.62393 22.1152 7.46626C22.3547 7.37386 22.5443 7.23163 22.6841 7.03959C23.0405 6.86187 23.4198 6.76707 23.8219 6.75515C24.2595 6.77689 24.6625 6.68209 25.0308 6.4707C25.4321 6.581 25.8352 6.6758 26.2396 6.75515C26.1665 7.04124 26.1429 7.32569 26.1685 7.60848C26.2634 7.41886 26.3581 7.41886 26.453 7.60848C26.5717 8.13169 26.6902 8.65316 26.8085 9.17293C26.6029 9.47414 26.508 9.80598 26.5241 10.1685Z"
            fill="#4C6BEA" />
        <path fill-rule="evenodd" clip-rule="evenodd"
            d="M13.7243 20.8355C13.2977 21.1199 12.871 21.4044 12.4443 21.6888C12.017 20.6688 11.4955 19.697 10.8799 18.7733C10.951 18.7495 11.0221 18.7259 11.0932 18.7021C12.004 19.4023 12.881 20.1134 13.7243 20.8355Z"
            fill="#293B8A" />
        <path fill-rule="evenodd" clip-rule="evenodd"
            d="M21.8309 24.96C21.6905 25.3277 21.4061 25.5173 20.9775 25.5288C21.2367 25.3141 21.5211 25.1245 21.8309 24.96Z"
            fill="#ABB9E4" />
    </g>
    <defs>
        <clipPath id="clip0_5641_84">
            <rect width="32" height="32" fill="white" />
        </clipPath>
    </defs>
</svg>