<svg width="32" height="32" viewBox="0 0 32 32" fill="none" xmlns="http://www.w3.org/2000/svg">
    <path fill-rule="evenodd" clip-rule="evenodd"
        d="M20.4307 0.346822C21.3814 -0.047646 22.4093 -0.10562 23.5145 0.172903C22.4945 0.345924 21.4666 0.403898 20.4307 0.346822Z"
        fill="#C0E7AE" />
    <path fill-rule="evenodd" clip-rule="evenodd"
        d="M20.0451 0.694793C19.6396 0.746777 19.2541 0.688803 18.8887 0.520875C19.3703 0.263434 19.7558 0.321404 20.0451 0.694793Z"
        fill="#C0E7AE" />
    <path fill-rule="evenodd" clip-rule="evenodd"
        d="M17.7324 1.04296C17.8853 0.68642 18.1423 0.628446 18.5034 0.869042C18.2743 1.03056 18.0173 1.08853 17.7324 1.04296Z"
        fill="#C0E7AE" />
    <path fill-rule="evenodd" clip-rule="evenodd"
        d="M20.0451 0.694582C23.8652 0.38941 26.8206 1.66481 28.9111 4.52079C28.9727 5.09576 29.2297 5.55953 29.6821 5.91213C29.5906 6.36119 29.7191 6.70903 30.0676 6.95564C30.1042 7.75069 30.3612 8.44637 30.8385 9.04267C31.1644 12.7448 31.2928 16.455 31.224 20.1734C30.7291 21.7334 30.3437 23.3567 30.0676 25.0432C29.7191 25.2898 29.5906 25.6376 29.6821 26.0867C29.359 26.2055 29.2305 26.4374 29.2966 26.7823C28.8442 27.1349 28.5872 27.5987 28.5257 28.1737C28.2025 28.2925 28.074 28.5244 28.1402 28.8694C27.5981 29.0339 27.3411 29.3818 27.3692 29.9129C27.1122 29.9129 26.9837 30.0288 26.9837 30.2607C26.7267 30.2607 26.5982 30.3766 26.5982 30.6085C26.216 30.5489 25.959 30.6648 25.8273 30.9564C25.1901 31.0119 24.6761 31.2438 24.2854 31.6521C23.669 31.5589 23.155 31.6748 22.7434 31.9999C21.33 31.9999 19.9166 31.9999 18.5031 31.9999C17.8229 31.6655 17.0519 31.5496 16.1902 31.6521C15.7787 31.327 15.2647 31.2111 14.6483 31.3042C14.375 30.9898 13.9895 30.8738 13.4919 30.9564C12.1508 30.2944 10.7374 29.7147 9.25156 29.2172C6.57647 27.4874 4.1351 25.5164 1.92741 23.304C1.17563 22.2932 0.533156 21.2497 0 20.1734C0 18.6662 0 17.1588 0 15.6516C2.55208 10.6221 6.53538 6.7379 11.9499 3.99903C13.9128 3.11347 15.8402 2.24387 17.7322 1.39026C18.6133 1.35723 19.3842 1.12534 20.0451 0.694582Z"
        fill="#C0E6AE" />
    <path fill-rule="evenodd" clip-rule="evenodd"
        d="M17.7319 1.04297C17.7319 1.15891 17.7319 1.27486 17.7319 1.39081C16.7039 1.27486 16.7039 1.15891 17.7319 1.04297Z"
        fill="#C0E7AE" />
    <path fill-rule="evenodd" clip-rule="evenodd"
        d="M28.9111 4.17285C29.4251 4.40475 29.4251 4.40475 28.9111 4.17285Z" fill="#C0E7AE" />
    <path fill-rule="evenodd" clip-rule="evenodd"
        d="M29.6827 5.91247C29.6322 5.65545 29.6964 5.42355 29.8754 5.2168C30.1421 5.54265 30.0778 5.77452 29.6827 5.91247Z"
        fill="#C0E7AE" />
    <path fill-rule="evenodd" clip-rule="evenodd"
        d="M30.4529 6.95545C30.3244 6.95545 30.1959 6.95545 30.0674 6.95545C30.1959 6.02787 30.3244 6.02787 30.4529 6.95545Z"
        fill="#C0E7AE" />
    <path fill-rule="evenodd" clip-rule="evenodd"
        d="M30.4532 6.95605C30.8483 7.09401 30.9126 7.32587 30.6459 7.65173C30.467 7.44497 30.4027 7.21307 30.4532 6.95605Z"
        fill="#C0E7AE" />
    <path fill-rule="evenodd" clip-rule="evenodd"
        d="M30.8388 9.04253C30.7812 8.67661 30.8454 8.32877 31.0315 7.99902C31.3168 8.43361 31.2526 8.78145 30.8388 9.04253Z"
        fill="#C0E7AE" />
    <path fill-rule="evenodd" clip-rule="evenodd"
        d="M14.2627 9.04328C22.0365 8.58062 25.8271 11.8271 25.6344 18.7827C23.2301 24.2605 18.9255 26.0577 12.7207 24.1742C7.88549 21.1639 6.7933 17.2797 9.44414 12.5217C10.7788 11.0244 12.385 9.86494 14.2627 9.04328Z"
        fill="#0F716A" />
    <path fill-rule="evenodd" clip-rule="evenodd"
        d="M31.2241 9.39062C31.6475 9.77356 31.7117 10.2374 31.4168 10.782C31.228 10.3321 31.1637 9.86834 31.2241 9.39062Z"
        fill="#C0E7AE" />
    <path fill-rule="evenodd" clip-rule="evenodd"
        d="M1.92773 11.1299C2.44171 11.3618 2.44171 11.3618 1.92773 11.1299Z" fill="#C0E7AE" />
    <path fill-rule="evenodd" clip-rule="evenodd"
        d="M31.609 11.4775C32.0546 14.1985 32.1189 16.9812 31.8017 19.8256C31.6091 17.0453 31.5448 14.2626 31.609 11.4775Z"
        fill="#C0E7AE" />
    <path fill-rule="evenodd" clip-rule="evenodd"
        d="M31.2243 20.1738C31.657 20.7959 31.7212 21.4916 31.417 22.2608C31.226 21.5747 31.1618 20.879 31.2243 20.1738Z"
        fill="#C0E7AE" />
    <path fill-rule="evenodd" clip-rule="evenodd"
        d="M30.8388 22.6084C31.2526 22.8695 31.3168 23.2173 31.0315 23.6519C30.8454 23.3222 30.7812 22.9743 30.8388 22.6084Z"
        fill="#C0E7AE" />
    <path fill-rule="evenodd" clip-rule="evenodd"
        d="M1.92712 23.3037C1.67013 23.5356 1.67013 23.5356 1.92712 23.3037Z" fill="#C0E7AE" />
    <path fill-rule="evenodd" clip-rule="evenodd"
        d="M1.92773 24C2.44171 24.2319 2.44171 24.2319 1.92773 24Z" fill="#C0E7AE" />
    <path fill-rule="evenodd" clip-rule="evenodd"
        d="M30.4531 25.0435C30.3954 24.6776 30.4597 24.3297 30.6458 24C30.9311 24.4346 30.8669 24.7824 30.4531 25.0435Z"
        fill="#C0E7AE" />
    <path fill-rule="evenodd" clip-rule="evenodd"
        d="M30.0674 25.043C30.1959 25.043 30.3244 25.043 30.4529 25.043C30.3244 25.9705 30.1959 25.9705 30.0674 25.043Z"
        fill="#C0E7AE" />
    <path fill-rule="evenodd" clip-rule="evenodd"
        d="M29.6816 26.0869C30.1956 26.3188 30.1956 26.5507 29.6816 26.7826C29.6816 26.5507 29.6816 26.3188 29.6816 26.0869Z"
        fill="#C0E7AE" />
    <path fill-rule="evenodd" clip-rule="evenodd"
        d="M29.2969 26.7822C29.4254 26.7822 29.5539 26.7822 29.6824 26.7822C29.5539 27.7098 29.4254 27.7098 29.2969 26.7822Z"
        fill="#C0E7AE" />
    <path fill-rule="evenodd" clip-rule="evenodd"
        d="M28.9111 27.8262C29.4251 28.0581 29.4251 28.0581 28.9111 27.8262Z" fill="#C0E7AE" />
    <path fill-rule="evenodd" clip-rule="evenodd"
        d="M28.5254 28.1738C28.6539 28.1738 28.7824 28.1738 28.9109 28.1738C28.977 28.5187 28.8485 28.7506 28.5254 28.8695C28.5254 28.6376 28.5254 28.4057 28.5254 28.1738Z"
        fill="#C0E7AE" />
    <path fill-rule="evenodd" clip-rule="evenodd"
        d="M28.1406 28.8691C28.2691 28.8691 28.3976 28.8691 28.5261 28.8691C28.4547 29.1022 28.3262 29.1022 28.1406 28.8691Z"
        fill="#C0E7AE" />
    <path fill-rule="evenodd" clip-rule="evenodd"
        d="M9.25134 29.2168C8.99434 29.4487 8.99434 29.4487 9.25134 29.2168Z" fill="#C0E7AE" />
    <path fill-rule="evenodd" clip-rule="evenodd"
        d="M27.7549 29.5654C28.2688 29.7973 28.2688 29.7973 27.7549 29.5654Z" fill="#C0E7AE" />
    <path fill-rule="evenodd" clip-rule="evenodd"
        d="M27.3691 29.9131C27.4976 29.9131 27.6261 29.9131 27.7546 29.9131C27.6832 30.1462 27.5547 30.1462 27.3691 29.9131Z"
        fill="#C0E7AE" />
    <path fill-rule="evenodd" clip-rule="evenodd"
        d="M26.9834 30.2607C27.1119 30.2607 27.2404 30.2607 27.3689 30.2607C27.2975 30.4938 27.1689 30.4938 26.9834 30.2607Z"
        fill="#C0E7AE" />
    <path fill-rule="evenodd" clip-rule="evenodd"
        d="M26.5986 30.6084C26.7271 30.6084 26.8556 30.6084 26.9841 30.6084C26.9127 30.8415 26.7842 30.8415 26.5986 30.6084Z"
        fill="#C0E7AE" />
    <path fill-rule="evenodd" clip-rule="evenodd"
        d="M13.4917 30.9564C13.3388 31.313 13.0818 31.371 12.7207 31.1304C12.9498 30.9689 13.2068 30.9109 13.4917 30.9564Z"
        fill="#C0E7AE" />
    <path fill-rule="evenodd" clip-rule="evenodd"
        d="M25.8271 31.3039C25.8271 31.188 25.8271 31.072 25.8271 30.9561C26.0841 30.9561 26.3411 30.9561 26.5981 30.9561C26.4664 31.2476 26.2094 31.3636 25.8271 31.3039Z"
        fill="#C0E7AE" />
    <path fill-rule="evenodd" clip-rule="evenodd"
        d="M14.6479 31.3041C14.495 31.6606 14.2381 31.7186 13.877 31.478C14.1061 31.3165 14.3631 31.2585 14.6479 31.3041Z"
        fill="#C0E7AE" />
    <path fill-rule="evenodd" clip-rule="evenodd"
        d="M25.8275 31.3047C25.5705 31.5366 25.5705 31.5366 25.8275 31.3047Z" fill="#C0E7AE" />
    <path fill-rule="evenodd" clip-rule="evenodd"
        d="M15.0342 31.9996C15.3075 31.6851 15.693 31.5692 16.1906 31.6517C16.1906 31.7677 16.1906 31.8836 16.1906 31.9996C15.8051 31.9996 15.4197 31.9996 15.0342 31.9996Z"
        fill="#C0E7AE" />
    <path fill-rule="evenodd" clip-rule="evenodd"
        d="M24.2852 31.9998C24.2852 31.8838 24.2852 31.7679 24.2852 31.6519C24.6674 31.5922 24.9244 31.7082 25.0561 31.9998C24.7991 31.9998 24.5422 31.9998 24.2852 31.9998Z"
        fill="#C0E7AE" />
</svg>