<svg width="32" height="32" viewBox="0 0 32 32" fill="none" xmlns="http://www.w3.org/2000/svg">
    <g clip-path="url(#clip0_5543_65)">
        <path fill-rule="evenodd" clip-rule="evenodd"
            d="M14.912 0.320312C21.1825 0.477439 25.7265 3.33611 28.544 8.89631C30.6807 14.1955 30.1901 19.2301 27.072 24.0003C28.5227 25.4937 29.9734 26.9869 31.424 28.4803C30.4446 29.5238 29.4419 30.5478 28.416 31.5523C26.8811 30.1453 25.3877 28.6946 23.936 27.2003C18.7452 30.5566 13.3906 30.834 7.87203 28.0323C2.58126 24.5972 0.170596 19.7119 0.640026 13.3763C1.50185 7.61588 4.59518 3.58388 9.92003 1.28031C11.5553 0.715373 13.2192 0.395373 14.912 0.320312ZM14.656 4.92831C21.151 5.21529 24.5644 8.60729 24.896 15.1043C24.9479 19.4418 23.0706 22.5991 19.264 24.5763C14.8923 26.194 11.0736 25.362 7.80803 22.0803C5.83876 19.4083 5.11343 16.4217 5.63203 13.1203C6.68453 8.20536 9.69253 5.47469 14.656 4.92831Z"
            fill="#2556E7" />
    </g>
    <defs>
        <clipPath id="clip0_5543_65">
            <rect width="32" height="32" fill="white" />
        </clipPath>
    </defs>
</svg>