<svg width="32" height="32" viewBox="0 0 32 32" fill="none" xmlns="http://www.w3.org/2000/svg">
    <g clip-path="url(#clip0_5605_272)">
        <path fill-rule="evenodd" clip-rule="evenodd"
            d="M0.622314 -0.0888672C0.681573 -0.0888672 0.740834 -0.0888672 0.800092 -0.0888672C0.767146 0.0302694 0.707888 0.0302694 0.622314 -0.0888672Z"
            fill="black" />
        <path fill-rule="evenodd" clip-rule="evenodd"
            d="M0.977783 -0.0888672C1.0963 -0.0888672 1.21482 -0.0888672 1.33334 -0.0888672C1.21482 0.14817 1.0963 0.14817 0.977783 -0.0888672Z"
            fill="black" />
        <path fill-rule="evenodd" clip-rule="evenodd"
            d="M1.68891 -0.0888672C1.74817 -0.0888672 1.80744 -0.0888672 1.86669 -0.0888672C1.90415 0.253193 2.02267 0.312452 2.22224 0.0889106C2.34077 0.0889106 2.40002 0.0296514 2.40002 -0.0888672C2.45928 -0.0888672 2.51855 -0.0888672 2.5778 -0.0888672C2.63705 0.14817 2.69632 0.14817 2.75558 -0.0888672C11.5852 -0.0888672 20.4148 -0.0888672 29.2445 -0.0888672C29.363 0.14817 29.4814 0.14817 29.6 -0.0888672C29.6592 -0.0888672 29.7186 -0.0888672 29.7778 -0.0888672C29.8478 0.303997 30.0848 0.541033 30.4889 0.622244C30.5481 0.800022 30.6667 0.918541 30.8445 0.9778C30.9037 1.15558 31.0222 1.2741 31.2 1.33336C31.3186 1.57039 31.437 1.80744 31.5556 2.04447C31.664 2.20287 31.7232 2.38064 31.7334 2.5778C31.7334 2.69632 31.7926 2.75558 31.9111 2.75558C31.9111 11.5259 31.9111 20.2964 31.9111 29.0667C31.6542 29.418 31.5358 29.7735 31.5556 30.1334C31.3954 30.2738 31.2768 30.4516 31.2 30.6667C31.0237 30.6361 30.9053 30.6955 30.8445 30.8445C30.7259 30.8445 30.6667 30.9037 30.6667 31.0222C30.4889 31.0814 30.3703 31.2 30.3111 31.3778C30.1926 31.3778 30.1334 31.437 30.1334 31.5556C30.0742 31.5556 30.0148 31.5556 29.9556 31.5556C29.7792 31.525 29.6608 31.5844 29.6 31.7334C29.4237 31.7028 29.3053 31.7622 29.2445 31.9111C20.4148 31.9111 11.5852 31.9111 2.75558 31.9111C2.75558 31.7926 2.69632 31.7334 2.5778 31.7334C2.38064 31.7232 2.20287 31.664 2.04447 31.5556C1.88607 31.4471 1.70828 31.3879 1.51113 31.3778C1.51113 31.2592 1.45187 31.2 1.33336 31.2C1.33336 31.0814 1.2741 31.0222 1.15558 31.0222C1.15558 30.9037 1.09632 30.8445 0.9778 30.8445C0.765615 30.7072 0.587837 30.5294 0.444466 30.3111C0.444466 30.2519 0.444466 30.1926 0.444466 30.1334C0.232495 29.8466 0.0547174 29.5502 -0.0888672 29.2445C-0.0888672 20.4148 -0.0888672 11.5852 -0.0888672 2.75558C0.0955719 2.5013 0.214091 2.205 0.266688 1.86669C0.316855 1.63955 0.435375 1.46177 0.622244 1.33336C0.800022 1.2741 0.918541 1.15558 0.9778 0.9778C1.15558 0.918541 1.2741 0.800022 1.33336 0.622244C1.61855 0.48234 1.73707 0.245302 1.68891 -0.0888672Z"
            fill="#F96400" />
        <path fill-rule="evenodd" clip-rule="evenodd"
            d="M2.04443 -0.0888672C2.10369 -0.0888672 2.16296 -0.0888672 2.22221 -0.0888672C2.22221 -0.029608 2.22221 0.0296514 2.22221 0.0889106C2.16296 0.0296514 2.10369 -0.029608 2.04443 -0.0888672Z"
            fill="black" />
        <path fill-rule="evenodd" clip-rule="evenodd"
            d="M30.1333 -0.0888672C30.1925 -0.0888672 30.2519 -0.0888672 30.3111 -0.0888672C30.3854 0.0394135 30.5038 0.128302 30.6666 0.177799C30.3721 0.306717 30.1943 0.217828 30.1333 -0.0888672Z"
            fill="black" />
        <path fill-rule="evenodd" clip-rule="evenodd"
            d="M31.0222 0.0888672C31.2592 0.207386 31.2592 0.207386 31.0222 0.0888672Z" fill="black" />
        <path fill-rule="evenodd" clip-rule="evenodd"
            d="M31.7332 0.266722C31.6019 0.290013 31.4833 0.260382 31.3777 0.177833C31.5443 0.0548667 31.6627 0.0844964 31.7332 0.266722Z"
            fill="black" />
        <path fill-rule="evenodd" clip-rule="evenodd"
            d="M1.33322 0.622422C1.27397 0.8002 1.15545 0.918719 0.977669 0.977978C0.918411 1.15576 0.799892 1.27427 0.622114 1.33353C0.549824 1.10922 0.490565 0.872179 0.444336 0.622422C0.581918 0.407101 0.730066 0.407101 0.88878 0.622422C1.01413 0.180547 1.16228 0.180547 1.33322 0.622422Z"
            fill="black" />
        <path fill-rule="evenodd" clip-rule="evenodd"
            d="M31.7332 0.266602C31.7924 0.266602 31.8518 0.266602 31.911 0.266602C31.911 0.385121 31.911 0.503638 31.911 0.622157C31.6482 0.575576 31.4113 0.634834 31.1999 0.799935C31.4049 1.01092 31.4049 1.18869 31.1999 1.33327C31.0221 1.27401 30.9035 1.15549 30.8443 0.977713C30.6665 0.918454 30.548 0.799935 30.4888 0.622157C30.8825 0.596468 31.2975 0.477949 31.7332 0.266602Z"
            fill="black" />
        <path fill-rule="evenodd" clip-rule="evenodd"
            d="M-0.0888672 0.444336C0.14817 0.562855 0.14817 0.681372 -0.0888672 0.799892C-0.0888672 0.681372 -0.0888672 0.562855 -0.0888672 0.444336Z"
            fill="black" />
        <path fill-rule="evenodd" clip-rule="evenodd"
            d="M31.911 0.799805C31.911 0.977582 31.911 1.15536 31.911 1.33314C31.4369 1.15536 31.4369 0.977582 31.911 0.799805Z"
            fill="black" />
        <path fill-rule="evenodd" clip-rule="evenodd"
            d="M-0.0888672 0.977539C0.14817 1.09606 0.14817 1.21458 -0.0888672 1.33309C-0.0888672 1.21458 -0.0888672 1.09606 -0.0888672 0.977539Z"
            fill="black" />
        <path fill-rule="evenodd" clip-rule="evenodd"
            d="M-0.0888672 1.51123C0.0601543 1.57198 0.119414 1.6905 0.0889106 1.86679C0.0296514 1.86679 -0.029608 1.86679 -0.0888672 1.86679C-0.0888672 1.74827 -0.0888672 1.62975 -0.0888672 1.51123Z"
            fill="black" />
        <path fill-rule="evenodd" clip-rule="evenodd"
            d="M31.9112 1.51123C31.9112 1.86679 31.9112 2.22234 31.9112 2.5779C31.852 2.5779 31.7926 2.5779 31.7334 2.5779C31.7233 2.38074 31.6641 2.20296 31.5557 2.04456C31.6742 1.86679 31.7926 1.68901 31.9112 1.51123Z"
            fill="black" />
        <path fill-rule="evenodd" clip-rule="evenodd"
            d="M0.0889106 1.8667C0.14817 1.8667 0.20743 1.8667 0.266688 1.8667C0.214091 2.20501 0.0955719 2.50131 -0.0888672 2.75559C-0.0888672 2.51856 -0.0888672 2.28151 -0.0888672 2.04448C0.0296514 2.04448 0.0889106 1.98522 0.0889106 1.8667Z"
            fill="black" />
        <path fill-rule="evenodd" clip-rule="evenodd"
            d="M17.8666 7.91133C18.8897 7.69287 19.6897 7.98918 20.2666 8.80022C20.4172 9.34912 20.3283 9.85282 20 10.3113C18.0897 10.392 16.5786 11.192 15.4666 12.7113C15.3133 12.9935 15.1948 13.2897 15.1111 13.6002C15.0518 16.8002 14.9926 20.0002 14.9333 23.2002C14.0155 24.189 13.1859 24.1298 12.4444 23.0224C12.2754 19.517 12.3347 16.0206 12.6222 12.5336C13.5681 10.0637 15.3163 8.52297 17.8666 7.91133Z"
            fill="#FAF6F3" />
        <path fill-rule="evenodd" clip-rule="evenodd"
            d="M-0.0888672 30.3111C-0.0888672 30.2519 -0.0888672 30.1925 -0.0888672 30.1333C0.0889106 30.1333 0.266688 30.1333 0.444466 30.1333C0.444466 30.1925 0.444466 30.2519 0.444466 30.3111C0.266688 30.5481 0.0889106 30.5481 -0.0888672 30.3111Z"
            fill="black" />
        <path fill-rule="evenodd" clip-rule="evenodd"
            d="M31.5557 30.1333C31.7926 30.2519 31.7926 30.2519 31.5557 30.1333Z" fill="black" />
        <path fill-rule="evenodd" clip-rule="evenodd"
            d="M31.7332 30.6665C31.6146 30.4295 31.6146 30.4295 31.7332 30.6665Z" fill="black" />
        <path fill-rule="evenodd" clip-rule="evenodd"
            d="M-0.0888672 30.6665C0.14817 30.7851 0.14817 30.7851 -0.0888672 30.6665Z" fill="black" />
        <path fill-rule="evenodd" clip-rule="evenodd"
            d="M31.1999 30.6665C31.3282 30.7408 31.4171 30.8592 31.4665 31.0221C31.5346 30.9232 31.6235 30.864 31.7332 30.8443C31.7451 31.1037 31.6859 31.3406 31.5554 31.5554C31.2897 31.6423 31.0525 31.7607 30.8443 31.9109C30.7851 31.9109 30.7257 31.9109 30.6665 31.9109C30.6073 31.7924 30.548 31.674 30.4888 31.5554C30.6073 31.5554 30.6665 31.4962 30.6665 31.3776C30.9035 31.259 30.9035 31.1406 30.6665 31.0221C30.6665 30.9035 30.7257 30.8443 30.8443 30.8443C31.0207 30.8749 31.1391 30.8155 31.1999 30.6665Z"
            fill="black" />
        <path fill-rule="evenodd" clip-rule="evenodd"
            d="M31.7334 30.6665C31.7926 30.6665 31.852 30.6665 31.9112 30.6665C31.9112 30.7257 31.9112 30.7851 31.9112 30.8443C31.852 30.7851 31.7926 30.7257 31.7334 30.6665Z"
            fill="black" />
        <path fill-rule="evenodd" clip-rule="evenodd"
            d="M0.977782 30.8442C1.0963 30.8442 1.15556 30.9034 1.15556 31.022C1.27408 31.022 1.33334 31.0812 1.33334 31.1998C1.45186 31.1998 1.51112 31.259 1.51112 31.3776C1.16139 31.3351 0.835464 31.3943 0.533338 31.5553C0.446225 31.3255 0.416595 31.0883 0.444449 30.8442C0.622227 30.8442 0.800004 30.8442 0.977782 30.8442Z"
            fill="black" />
        <path fill-rule="evenodd" clip-rule="evenodd"
            d="M0.0888672 31.0225C0.325904 31.141 0.325904 31.141 0.0888672 31.0225Z" fill="black" />
        <path fill-rule="evenodd" clip-rule="evenodd"
            d="M30.6666 31.0225C30.6666 31.141 30.6666 31.2594 30.6666 31.378C30.548 31.378 30.4888 31.4372 30.4888 31.5558C30.4296 31.5558 30.3702 31.5558 30.311 31.5558C30.311 31.4966 30.311 31.4372 30.311 31.378C30.3702 31.2002 30.4888 31.0817 30.6666 31.0225Z"
            fill="black" />
        <path fill-rule="evenodd" clip-rule="evenodd"
            d="M0.0888672 31.5557C0.325904 31.6742 0.325904 31.6742 0.0888672 31.5557Z" fill="black" />
        <path fill-rule="evenodd" clip-rule="evenodd"
            d="M2.04434 31.5557C2.20274 31.6641 2.38051 31.7233 2.57767 31.7334C2.57767 31.7926 2.57767 31.852 2.57767 31.9112C1.86656 31.9112 1.15545 31.9112 0.444336 31.9112C0.647207 31.7621 0.884244 31.6435 1.15545 31.5557C1.46029 31.5727 1.75659 31.5727 2.04434 31.5557Z"
            fill="black" />
        <path fill-rule="evenodd" clip-rule="evenodd"
            d="M29.9557 31.5556C29.8965 31.6742 29.8371 31.7926 29.7779 31.9112C29.7187 31.9112 29.6593 31.9112 29.6001 31.9112C29.6001 31.852 29.6001 31.7926 29.6001 31.7334C29.6609 31.5844 29.7793 31.5251 29.9557 31.5556Z"
            fill="black" />
        <path fill-rule="evenodd" clip-rule="evenodd"
            d="M30.1333 31.5557C30.1925 31.5557 30.2519 31.5557 30.3111 31.5557C30.3111 31.6742 30.3111 31.7926 30.3111 31.9112C30.2519 31.9112 30.1925 31.9112 30.1333 31.9112C30.1333 31.7926 30.1333 31.6742 30.1333 31.5557Z"
            fill="black" />
        <path fill-rule="evenodd" clip-rule="evenodd"
            d="M31.5557 31.5557C31.7926 31.6742 31.7926 31.6742 31.5557 31.5557Z" fill="black" />
    </g>
    <defs>
        <clipPath id="clip0_5605_272">
            <rect width="32" height="32" fill="white" />
        </clipPath>
    </defs>
</svg>