<svg xmlns="http://www.w3.org/2000/svg" width="32" height="32" viewBox="0 0 32 32" fill="none">
  <rect width="32" height="32" fill="#6701EF"/>
  <g fill="#FFF" transform="translate(4.1 0.7) scale(0.6)">
    <path d="M3.06101 16.8475C4.37864 17.0697 5.76659 17.3027 7.15421 17.5378C8.17064 17.7101 9.18407 17.9022 10.2034 18.0556C12.5877 18.4144 14.4533 17.0576 14.8759 14.6453C15.2659 12.4193 15.6307 10.1888 15.9955 7.95857C16.2042 6.68266 17.1764 6.15847 18.3497 6.70769C18.94 6.98398 19.2005 7.55405 19.0677 8.37025C18.8254 9.85736 18.5611 11.3409 18.3117 12.8268C17.8918 15.3295 17.4344 17.8269 17.0769 20.3385C16.9075 21.5287 16.1133 22.263 14.8215 22.0241C10.8255 21.285 6.81201 20.6403 2.80667 19.9512C1.84625 19.7859 1.44089 19.2263 1.54935 18.2723C1.6534 17.3551 2.18701 16.8267 3.06101 16.8475Z"/>
    <path d="M30.0848 42.6743C30.0278 43.6378 29.5546 44.0895 28.9496 44.3801C28.3667 44.6602 27.838 44.4593 27.3909 43.9993C25.7315 42.291 24.0739 40.5808 22.3974 38.8893C21.2949 37.7771 19.9395 37.4197 18.4629 37.8882C17.8287 38.0896 17.2121 38.5072 16.7206 38.9682C15.0422 40.5425 13.4277 42.1848 11.7786 43.7903C11.0563 44.4935 10.3152 44.4909 9.644 43.8193C8.89597 43.0706 8.86503 42.3333 9.61208 41.5934C12.2061 39.0239 14.8151 36.4694 17.4183 33.9092C17.8144 33.5196 18.1963 33.1145 18.609 32.7435C19.2811 32.1392 20.1664 32.1579 20.791 32.7974C23.7301 35.8075 26.6662 38.8203 29.5869 41.8482C29.8438 42.1144 29.9806 42.4965 30.0848 42.6743Z"/>
    <path d="M24.2184 22.1327C23.3243 22.1582 22.6617 21.6253 22.5429 20.8251C21.9172 16.6095 21.2969 12.3931 20.6807 8.17608C20.5532 7.30302 21.0864 6.70565 22.094 6.5581C22.9331 6.43522 23.6058 6.89886 23.7314 7.72793C24.0934 10.119 24.4342 12.5132 24.7926 14.9049C25.1188 17.0809 27.0571 18.5277 29.2511 18.2224C31.5877 17.8971 33.9214 17.5511 36.2563 17.2131C37.2357 17.0712 37.8349 17.4939 37.9995 18.4457C38.1717 19.4415 37.7602 20.101 36.7738 20.2583C34.4836 20.6235 32.187 20.9476 29.893 21.2887C28.1481 21.5482 26.4033 21.8083 24.6585 22.0679C24.4821 22.0942 24.3058 22.1199 24.2184 22.1327Z"/>
    <path d="M1.70381 21.2819C1.80548 21.3168 2.06102 21.3697 2.28318 21.4863C6.0021 23.4367 9.71849 25.3922 13.4315 27.354C14.2438 27.7834 14.5339 28.6131 14.1167 29.4205C12.1704 33.1864 10.2123 36.946 8.24295 40.6999C7.78672 41.5695 7.083 41.7361 6.18672 41.2551C5.32535 40.7927 5.09496 40.0882 5.54537 39.216C6.58171 37.2095 7.62094 35.2045 8.67308 33.2063C9.90835 30.8605 9.20646 28.6129 6.86682 27.4004C4.82643 26.343 2.79474 25.2686 0.767587 24.186C0.12874 23.8448 -0.123462 23.2231 0.0567499 22.5881C0.289406 21.7685 0.853282 21.2746 1.70381 21.2819Z"/>
    <path d="M33.8583 40.0563C33.8511 40.9237 33.3083 41.4988 32.4581 41.7006C31.8159 41.853 31.2484 41.5761 30.9079 40.891C29.5324 38.1217 28.1686 35.3467 26.8012 32.5735C26.3103 31.5779 25.8166 30.5837 25.3328 29.5845C24.8989 28.6884 25.182 27.8344 26.075 27.3874C29.8148 25.5153 33.5575 23.6491 37.3011 21.7847C38.1257 21.374 38.8198 21.6358 39.2616 22.507C39.7122 23.3951 39.5164 24.1377 38.6734 24.5644C36.6398 25.5938 34.5963 26.6038 32.5563 27.6208C30.2262 28.7823 29.4748 30.9342 30.611 33.2927C31.583 35.3102 32.5955 37.3081 33.5809 39.3192C33.7179 39.599 33.8022 39.9046 33.8583 40.0563Z"/>
  </g>
</svg>
