<svg width="32" height="32" viewBox="0 0 32 32" fill="none" xmlns="http://www.w3.org/2000/svg">
    <g clip-path="url(#clip0_5767_45)">
        <path fill-rule="evenodd" clip-rule="evenodd"
            d="M27.8784 6.47917C24.2119 6.8739 20.4631 6.8739 16.6319 6.47917C15.8523 6.70701 15.0603 6.91851 14.2558 7.11373C14.0365 6.94706 13.8781 6.73556 13.7806 6.47917C12.7887 6.7032 11.7854 6.91473 10.771 7.11373C10.3922 7.00404 10.3922 6.8454 10.771 6.63781C10.2717 6.49833 9.84923 6.23391 9.50378 5.84461C9.07214 6.32434 8.96655 6.80026 9.18698 7.27237C8.97577 7.37812 8.76459 7.4839 8.55338 7.58965C9.02269 7.90068 9.44508 8.27085 9.82059 8.70013C9.44597 9.38082 8.97076 9.38082 8.39497 8.70013C7.89839 9.22948 7.37037 9.33523 6.81096 9.01741C6.51145 9.14604 6.30024 9.35753 6.17735 9.65197C6.08916 9.36141 5.93075 9.14987 5.70215 9.01741C7.8586 5.70894 10.921 3.64661 14.8894 2.83045C19.8868 1.91317 24.2164 3.12941 27.8784 6.47917Z"
            fill="#3B9FF2" />
        <path fill-rule="evenodd" clip-rule="evenodd"
            d="M27.8785 6.47929C29.5582 7.74698 30.6141 9.43913 31.0465 11.5558C30.9708 12.1799 31.0763 12.7616 31.3633 13.3008C31.063 13.454 30.7462 13.5069 30.4129 13.4595C30.5121 12.5879 30.4066 11.7419 30.0961 10.9212C29.9386 11.4657 29.8328 11.9945 29.7793 12.5076C28.8094 12.9435 27.9118 13.2608 27.0865 13.4595C26.3262 12.2214 25.323 11.2695 24.0768 10.6039C23.3797 9.92482 22.5349 9.4489 21.5424 9.17617C18.5302 8.6545 15.679 9.07753 12.9887 10.4453C11.8835 11.6049 10.7219 12.7153 9.50389 13.7767C9.28454 13.6101 9.12613 13.3986 9.02869 13.1422C8.79891 13.6682 8.42929 13.8269 7.91988 13.6181C8.30986 13.2428 8.30986 12.8727 7.91988 12.5076C7.44372 12.8535 7.33813 13.2236 7.60307 13.6181C7.10449 13.8398 6.68209 13.734 6.33586 13.3008C6.79716 13.1667 6.95556 12.9023 6.81106 12.5076C6.70547 12.6134 6.59985 12.7191 6.49426 12.8249C6.36038 12.3629 6.09639 12.2043 5.70225 12.349C6.09002 13.1071 6.24842 13.9003 6.17746 14.7286C5.58615 13.9962 5.26934 13.1501 5.22705 12.1903C4.54307 12.9697 4.27908 12.7581 4.43504 11.5558C4.35879 10.4393 4.78118 9.59323 5.70225 9.01753C5.93086 9.14999 6.08926 9.36152 6.17746 9.65209C6.30035 9.35765 6.51156 9.14615 6.81106 9.01753C7.37048 9.33535 7.89849 9.2296 8.39508 8.70025C8.97087 9.38094 9.44607 9.38094 9.82069 8.70025C9.44519 8.27097 9.02279 7.9008 8.55348 7.58977C8.76469 7.48402 8.97588 7.37824 9.18709 7.27249C8.96666 6.80037 9.07225 6.32445 9.50389 5.84473C9.84933 6.23403 10.2718 6.49845 10.7711 6.63793C10.3923 6.84552 10.3923 7.00416 10.7711 7.11385C11.7855 6.91485 12.7888 6.70332 13.7807 6.47929C13.8782 6.73568 14.0366 6.94718 14.2559 7.11385C15.0604 6.91862 15.8524 6.70713 16.632 6.47929C20.4632 6.87402 24.212 6.87402 27.8785 6.47929Z"
            fill="#2D90E2" />
        <path fill-rule="evenodd" clip-rule="evenodd"
            d="M24.0767 10.6036C25.1417 11.7752 26.1977 12.9386 27.2447 14.0937C27.8972 16.3972 28.0028 18.7239 27.5615 21.0739C25.6031 25.8658 22.0126 28.2983 16.7902 28.3713C14.9098 28.0862 13.1146 27.5573 11.4046 26.7849C9.59997 25.7175 8.22716 24.2368 7.28613 22.343C9.46317 21.0115 11.364 19.3193 12.9886 17.2665C13.5575 16.8564 14.0855 16.3804 14.5726 15.8388C13.2038 15.6804 11.831 15.6275 10.4542 15.6801C11.5176 11.4395 14.2633 9.32426 18.691 9.33451C20.5823 9.36694 22.3775 9.78997 24.0767 10.6036Z"
            fill="#6ABAF8" />
        <path fill-rule="evenodd" clip-rule="evenodd"
            d="M24.0771 10.604C25.3233 11.2696 26.3265 12.2214 27.0868 13.4595C27.9121 13.2608 28.8097 12.9436 29.7796 12.5077C29.8331 11.9945 29.939 11.4657 30.0964 10.9213C30.4069 11.7419 30.5124 12.588 30.4132 13.4595C30.7465 13.507 31.0633 13.4541 31.3636 13.3009C31.0766 12.7617 30.9711 12.18 31.0468 11.5558C31.3953 12.1198 31.6595 12.7543 31.8388 13.4595C32.0977 15.2098 32.0451 16.9019 31.6804 18.536C31.6804 17.9014 31.6804 17.2669 31.6804 16.6323C31.0623 16.719 30.5871 16.5075 30.2548 15.9978C28.6667 18.2341 27.9275 17.9168 28.0372 15.0459C27.7673 14.7062 27.5033 14.3889 27.2452 14.0941C26.1982 12.9389 25.1421 11.7756 24.0771 10.604Z"
            fill="#237BC4" />
        <path fill-rule="evenodd" clip-rule="evenodd"
            d="M24.077 10.6038C22.3778 9.79011 20.5826 9.36708 18.6914 9.33465C14.2636 9.32441 11.518 11.4396 10.4545 15.6803C11.8314 15.6277 13.2042 15.6806 14.5729 15.8389C14.0859 16.3806 13.5579 16.8565 12.9889 17.2667C12.5357 17.2918 12.1133 17.186 11.7217 16.9494C11.5105 17.1609 11.2993 17.3724 11.0881 17.5839C9.11705 17.4428 7.05783 17.4428 4.91045 17.5839C4.4673 17.8145 3.9921 17.9731 3.48483 18.0599C3.80164 18.3771 4.11844 18.6944 4.43524 19.0117C4.2591 19.1331 4.15351 19.2917 4.11844 19.4876C2.75565 18.2738 1.38285 17.0575 0 15.8389C1.15684 15.6807 2.31846 15.6278 3.48483 15.6803C3.47999 14.3922 3.63839 13.123 3.96004 11.8729C4.08125 11.6965 4.23965 11.5907 4.43524 11.5556C4.27928 12.758 4.54327 12.9695 5.22725 12.1902C5.26954 13.15 5.58635 13.9961 6.17766 14.7284C6.24862 13.9002 6.09022 13.107 5.70245 12.3488C6.09659 12.2041 6.36058 12.3627 6.49446 12.8247C6.60005 12.719 6.70567 12.6132 6.81127 12.5075C6.95576 12.9022 6.79736 13.1666 6.33606 13.3007C6.68229 13.7339 7.10469 13.8396 7.60327 13.6179C7.33833 13.2235 7.44392 12.8533 7.92008 12.5075C8.31006 12.8726 8.31006 13.2427 7.92008 13.6179C8.4295 13.8267 8.79911 13.6681 9.02889 13.142C9.12634 13.3984 9.28474 13.6099 9.50409 13.7766C10.7221 12.7152 11.8837 11.6047 12.9889 10.4451C15.6792 9.07737 18.5304 8.65434 21.5426 9.17601C22.5351 9.44875 23.3799 9.92467 24.077 10.6038Z"
            fill="#1F76BE" />
        <path fill-rule="evenodd" clip-rule="evenodd"
            d="M12.9885 17.2665C11.3639 19.3193 9.46305 21.0115 7.28601 22.343C6.22187 21.3821 5.16584 20.4303 4.11798 19.4875C4.15305 19.2916 4.25864 19.1329 4.43478 19.0115C4.11798 18.6943 3.80118 18.377 3.48438 18.0597C3.99164 17.973 4.46684 17.8143 4.90999 17.5838C7.05737 17.4427 9.11659 17.4427 11.0876 17.5838C11.2989 17.3722 11.51 17.1607 11.7213 16.9492C12.1129 17.1858 12.5353 17.2916 12.9885 17.2665Z"
            fill="#1361A4" />
        <path fill-rule="evenodd" clip-rule="evenodd"
            d="M27.2451 14.0938C27.5033 14.3886 27.7673 14.7059 28.0371 15.0456C27.9274 17.9164 28.6666 18.2337 30.2547 15.9974C30.5871 16.5072 31.0623 16.7187 31.6804 16.632C31.6804 17.2666 31.6804 17.9011 31.6804 18.5357C31.3908 19.943 30.8627 21.2122 30.0963 22.343C29.3717 21.9881 28.7909 21.4593 28.3539 20.7566C28.1414 20.9954 27.8774 21.1011 27.5619 21.0739C28.0032 18.7239 27.8976 16.3972 27.2451 14.0938Z"
            fill="#0F5E9F" />
        <path fill-rule="evenodd" clip-rule="evenodd"
            d="M30.0962 22.3432C26.9981 27.5367 22.4573 29.7576 16.4736 29.0061C16.5792 28.7946 16.6848 28.5831 16.7904 28.3716C22.0128 28.2985 25.6033 25.866 27.5617 21.0741C27.8772 21.1013 28.1412 20.9956 28.3537 20.7568C28.7907 21.4595 29.3715 21.9883 30.0962 22.3432Z"
            fill="#124B82" />
        <path fill-rule="evenodd" clip-rule="evenodd"
            d="M11.4053 26.7852C13.1153 27.5576 14.9105 28.0864 16.7909 28.3716C16.6853 28.5831 16.5797 28.7946 16.4741 29.0061C14.5387 28.7761 12.849 28.0358 11.4053 26.7852Z"
            fill="#306191" />
    </g>
    <defs>
        <clipPath id="clip0_5767_45">
            <rect width="32" height="32" fill="white" />
        </clipPath>
    </defs>
</svg>