<svg width="125" height="125" viewBox="0 0 125 125" fill="none" xmlns="http://www.w3.org/2000/svg">
    <g clip-path="url(#clip0_5607_868)">
        <rect width="125" height="125" fill="#FAFAFA" />
        <path fill-rule="evenodd" clip-rule="evenodd"
            d="M48.1251 62.8955C47.0976 63.7927 45.9863 63.9245 44.7917 63.291C45.8942 62.8975 47.0055 62.7656 48.1251 62.8955Z"
            fill="#272727" />
        <path fill-rule="evenodd" clip-rule="evenodd"
            d="M69.3751 62.8955C68.3476 63.7927 67.2363 63.9245 66.0417 63.291C67.1442 62.8975 68.2555 62.7656 69.3751 62.8955Z"
            fill="#272727" />
        <path fill-rule="evenodd" clip-rule="evenodd"
            d="M79.7916 62.8955C78.7641 63.7927 77.6528 63.9245 76.4583 63.291C77.5608 62.8975 78.672 62.7656 79.7916 62.8955Z"
            fill="#272727" />
        <path fill-rule="evenodd" clip-rule="evenodd"
            d="M41.9807 22C47.982 22 53.9834 22 59.9848 22C60.694 22.9035 61.6942 23.2366 62.9855 22.9995C70.5512 26.5606 76.5526 31.8911 80.9896 38.9907C86.1838 38.9271 91.519 39.5935 96.9933 40.9896C98.6987 42.6808 100.699 44.0134 102.995 44.9874C102.995 45.6538 103.328 45.9869 103.995 45.9869C103.995 46.6532 104.328 46.9863 104.995 46.9863C104.995 47.6527 105.328 47.9858 105.995 47.9858C105.995 48.6521 106.328 48.9852 106.996 48.9852C108.539 51.4117 109.539 54.0769 109.996 56.9809C114.511 58.0656 118.178 60.3977 120.999 63.9771C120.999 64.6434 121.332 64.9765 121.999 64.9765C122.295 66.8785 122.962 68.5443 124 69.9738C124.382 74.8328 123.715 79.497 121.999 83.9661C121.161 84.3076 120.827 84.974 120.999 85.965C120.332 85.965 119.999 86.2982 119.999 86.9645C119.331 86.9645 118.998 87.2976 118.998 87.9639C118.331 87.9639 117.998 88.2971 117.998 88.9634C117.331 88.9634 116.998 89.2965 116.998 89.9628C116.006 89.7913 115.34 90.1246 114.997 90.9623C113.789 91.696 112.456 92.0291 110.997 91.9618C110.997 92.9612 110.997 93.9607 110.997 94.9601C110.158 95.3016 109.824 95.968 109.996 96.959C109.329 96.959 108.996 97.2921 108.996 97.9585C108.329 97.9585 107.996 98.2916 107.996 98.9579C107.329 98.9579 106.996 99.2911 106.996 99.9574C106.003 99.7859 105.337 100.119 104.995 100.957C98.9037 102.319 94.4027 100.32 91.492 94.9601C91.159 95.6265 90.8249 96.2927 90.4918 96.959C89.0015 95.7318 87.5011 95.7318 85.9908 96.959C86.5189 95.6124 86.6859 94.2798 86.4909 92.9612C85.1186 94.3705 84.2854 96.0362 83.9903 97.9585C83.3232 97.9585 82.9901 98.2916 82.9901 98.9579C82.3229 98.9579 81.9899 99.2911 81.9899 99.9574C80.9976 99.7859 80.3315 100.119 79.9894 100.957C77.1037 101.263 74.4361 100.93 71.9876 99.9574C74.3451 100.121 76.6786 99.954 78.9892 99.4577C81.2407 98.7106 82.574 97.2114 82.9901 94.9601C83.7122 94.5428 84.2124 93.8765 84.4904 92.9612C84.9875 90.3167 85.1546 87.6514 84.9905 84.9656C86.6049 86.5393 88.6054 87.2057 90.9919 86.9645C90.9919 85.965 90.9919 84.9656 90.9919 83.9661C91.8961 83.2575 92.2292 82.2581 91.9922 80.9678C92.8303 80.6263 93.1644 79.9599 92.9924 78.9689C93.8966 78.2602 94.2297 77.2608 93.9926 75.9705C94.8308 75.629 95.1649 74.9626 94.9928 73.9716C96.4242 72.6919 97.0913 71.0261 96.9933 68.9743C98.5947 65.9258 99.5949 62.5943 99.994 58.9798C100.661 58.9798 101.327 58.9798 101.994 58.9798C101.822 59.9708 102.156 60.6372 102.995 60.9787C102.727 62.5768 103.061 63.9095 103.995 64.9765C103.758 66.2668 104.091 67.2663 104.995 67.9749C104.758 69.2652 105.091 70.2646 105.995 70.9732C105.897 73.025 106.565 74.6908 107.996 75.9705C107.996 76.97 107.996 77.9694 107.996 78.9689C108.663 79.6352 109.329 80.3014 109.996 80.9678C110.538 87.0842 112.205 87.4173 114.997 81.9672C115.665 81.9672 115.998 81.6341 115.998 80.9678C116.902 80.2592 117.235 79.2597 116.998 77.9694C118.331 75.6374 118.331 73.3053 116.998 70.9732C117.269 69.0946 116.602 67.762 114.997 66.9754C114.997 66.3091 114.664 65.976 113.997 65.976C113.997 65.3096 113.664 64.9765 112.997 64.9765C112.655 64.1388 111.989 63.8055 110.997 63.9771C109.394 62.404 107.394 61.7377 104.995 61.9781C105.236 59.5811 104.569 57.5821 102.995 55.9814C103.167 54.9904 102.833 54.324 101.994 53.9825C102.067 52.4565 101.4 51.457 99.994 50.9842C99.5209 49.5786 98.5207 48.9123 96.9933 48.9852C96.6512 48.1475 95.9851 47.8143 94.9928 47.9858C94.6508 47.1481 93.9846 46.8148 92.9924 46.9863C91.188 46.3247 89.1875 45.9915 86.991 45.9869C83.9633 45.7735 81.2967 46.4398 78.9892 47.9858C78.322 47.9858 77.6559 47.9858 76.9887 47.9858C77.2258 46.6955 76.8927 45.696 75.9885 44.9874C76.1605 43.9964 75.8264 43.33 74.9882 42.9885C75.1603 41.9975 74.8262 41.3311 73.988 40.9896C74.1601 39.9986 73.826 39.3322 72.9878 38.9907C72.9878 38.3244 72.6547 37.9913 71.9876 37.9913C71.6545 35.6592 70.3202 34.3266 67.9866 33.9934C67.9866 33.3271 67.6536 32.994 66.9864 32.994C66.9864 32.3277 66.6533 31.9945 65.9862 31.9945C65.6441 31.1567 64.9779 30.8236 63.9857 30.9951C63.6436 30.1573 62.9775 29.8241 61.9853 29.9956C56.0619 27.0032 50.0605 26.6701 43.9811 28.9962C42.6898 28.759 41.6896 29.0922 40.9804 29.9956C39.9882 29.8241 39.322 30.1573 38.98 30.9951C37.9877 30.8236 37.3216 31.1567 36.9795 31.9945C35.9873 31.8231 35.3211 32.1562 34.979 32.994C34.3119 32.994 33.9788 33.3271 33.9788 33.9934C33.3117 33.9934 32.9786 34.3266 32.9786 34.9929C32.3114 34.9929 31.9784 35.326 31.9784 35.9924C31.3112 35.9924 30.9781 36.3255 30.9781 36.9918C30.311 36.9918 29.9779 37.3249 29.9779 37.9913C29.1397 38.3328 28.8056 38.9991 28.9777 39.9902C28.1395 40.3317 27.8054 40.998 27.9774 41.9891C27.1392 42.3306 26.8052 42.9969 26.9772 43.988C26.073 44.6966 25.7399 45.696 25.977 46.9863C25.2108 49.1694 24.5437 51.5016 23.9765 53.9825C24.4186 55.2205 25.0858 56.22 25.977 56.9809C25.977 57.314 25.977 57.6472 25.977 57.9803C25.3098 57.9803 24.6437 57.9803 23.9765 57.9803C23.7415 57.384 23.2414 57.0507 22.4762 56.9809C19.6565 57.4627 17.156 58.4622 14.9745 59.9792C14.3073 59.9792 13.9742 60.3124 13.9742 60.9787C13.3074 60.9787 12.974 61.3118 12.974 61.9781C12.3071 61.9781 11.9738 62.3113 11.9738 62.9776C11.3069 62.9776 10.9735 63.3107 10.9735 63.9771C10.1351 64.3186 9.80166 64.9849 9.9733 65.976C7.41131 70.2881 7.41131 74.6191 9.9733 78.9689C9.90029 80.4949 10.5671 81.4944 11.9738 81.9672C11.9738 82.6336 12.3071 82.9667 12.974 82.9667C12.974 83.633 13.3074 83.9661 13.9742 83.9661C14.3073 85.2987 14.6414 85.2987 14.9745 83.9661C16.4058 82.6864 17.0729 81.0206 16.9749 78.9689C18.4062 77.6892 19.0734 76.0234 18.9754 73.9716C19.6425 73.3053 20.3087 72.639 20.9758 71.9727C20.0546 76.484 18.5543 80.8149 16.4748 84.9656C14.1993 94.836 18.0332 99.8333 27.9774 99.9574C28.3105 99.9574 28.6446 99.9574 28.9777 99.9574C28.9777 100.291 28.9777 100.624 28.9777 100.957C25.4989 101.272 22.1641 100.773 18.9754 99.4577C16.5478 96.7155 14.5474 93.8837 12.974 90.9623C12.6322 90.1246 11.9654 89.7913 10.9735 89.9628C10.9735 89.2965 10.6402 88.9634 9.9733 88.9634C9.30645 87.6308 8.30622 86.6314 6.97261 85.965C6.97261 85.2987 6.63924 84.9656 5.97238 84.9656C5.54018 83.7567 4.87343 82.7573 3.97192 81.9672C4.14356 80.9762 3.81009 80.3098 2.97169 79.9683C3.20905 78.678 2.87567 77.6786 1.97146 76.97C1.52136 71.3367 2.52159 66.0062 4.97215 60.9787C8.04866 57.2738 11.7161 54.2755 15.9747 51.9836C16.9749 51.9836 17.9751 51.9836 18.9754 51.9836C18.9754 49.6516 18.9754 47.3195 18.9754 44.9874C20.6228 41.6946 22.2901 38.3632 23.9765 34.9929C24.6437 34.9929 24.9768 34.6598 24.9768 33.9934C29.8399 28.7427 35.5082 24.7449 41.9807 22ZM61.9853 29.9956C61.9853 30.3288 61.9853 30.6619 61.9853 30.9951C60.3859 31.2627 59.0526 30.9296 57.9843 29.9956C53.5133 29.01 48.8452 28.6769 43.9811 28.9962C50.0605 26.6701 56.0619 27.0032 61.9853 29.9956ZM57.9843 29.9956C59.0526 30.9296 60.3859 31.2627 61.9853 30.9951C62.6524 30.9951 63.3186 30.9951 63.9857 30.9951C63.9857 31.3282 63.9857 31.6614 63.9857 31.9945C64.4588 33.4001 65.4591 34.0664 66.9864 33.9934C67.3195 33.9934 67.6536 33.9934 67.9866 33.9934C68.9869 35.6592 70.3202 36.9918 71.9876 37.9913C72.6547 37.9913 72.9878 38.3244 72.9878 38.9907C72.8157 39.9818 73.1498 40.6481 73.988 40.9896C73.816 41.9807 74.1501 42.647 74.9882 42.9885C74.8162 43.9796 75.1503 44.6459 75.9885 44.9874C75.7514 46.2777 76.0845 47.2772 76.9887 47.9858C76.9887 48.3189 76.9887 48.6521 76.9887 48.9852C78.8271 50.1629 80.4945 49.8298 81.9899 47.9858C85.4526 47.0047 89.1205 46.6715 92.9924 46.9863C93.3345 47.8241 94.0006 48.1573 94.9928 47.9858C95.3349 48.8235 96.0011 49.1568 96.9933 48.9852C97.3264 49.6516 97.6605 50.3178 97.9935 50.9842C98.3266 51.9836 98.9938 52.6499 99.994 52.9831C100.661 53.3162 101.327 53.6494 101.994 53.9825C101.994 54.6489 101.994 55.3151 101.994 55.9814C101.327 56.6478 100.661 57.314 99.994 57.9803C99.994 58.3134 99.994 58.6467 99.994 58.9798C99.6609 58.9798 99.3268 58.9798 98.9938 58.9798C97.2134 60.4689 96.5472 62.4678 96.9933 64.9765C96.9933 66.3091 96.9933 67.6418 96.9933 68.9743C95.66 68.9743 94.9928 69.6407 94.9928 70.9732C93.5615 72.2529 92.8944 73.9187 92.9924 75.9705C91.147 77.4652 90.8139 79.1309 91.9922 80.9678C92.2292 82.2581 91.8961 83.2575 90.9919 83.9661C90.6588 81.3009 90.3248 81.3009 89.9917 83.9661C88.9915 85.2987 87.9912 85.2987 86.991 83.9661C86.6949 82.0642 86.0278 80.3984 84.9905 78.9689C85.0886 76.9171 84.4214 75.2513 82.9901 73.9716C83.0881 71.9198 82.421 70.254 80.9896 68.9743C81.2267 67.684 80.8936 66.6846 79.9894 65.976C80.3185 63.2493 79.6523 60.9172 77.9889 58.9798C77.6559 58.9798 77.3218 58.9798 76.9887 58.9798C76.3216 57.6472 75.6554 57.6472 74.9882 58.9798C74.4641 60.7845 73.797 62.4503 72.9878 63.9771C73.1478 62.2788 72.9818 60.613 72.4877 58.9798C71.5345 61.91 71.0343 64.9083 70.9873 67.9749C69.556 69.2546 68.8888 70.9204 68.9869 72.9721C68.0356 74.3901 67.7026 76.0558 67.9866 77.9694C68.0847 80.0212 67.4175 81.687 65.9862 82.9667C65.6531 80.3014 65.319 80.3014 64.9859 82.9667C64.3348 83.557 63.6676 84.2233 62.9855 84.9656C62.1603 83.107 61.1601 81.4413 59.9848 79.9683C59.6517 79.9683 59.3176 79.9683 58.9846 79.9683C58.9846 78.9689 58.9846 77.9694 58.9846 76.97C58.7775 74.2308 57.7773 71.8988 55.9839 69.9738C56.1989 68.2959 55.5318 67.2964 53.9834 66.9754C53.9184 64.0488 53.2512 61.3837 51.983 58.9798C50.9827 57.6472 49.9825 57.6472 48.9823 58.9798C48.6492 58.9798 48.3151 58.9798 47.982 58.9798C46.4417 61.3168 45.7755 63.982 45.9816 66.9754C44.5502 68.2551 43.8831 69.9209 43.9811 71.9727C42.5498 73.2524 41.8826 74.9182 41.9807 76.97C41.9807 77.9694 41.9807 78.9689 41.9807 79.9683C40.6474 79.9683 39.9802 80.6346 39.9802 81.9672C39.9802 82.9667 39.9802 83.9661 39.9802 84.9656C39.6471 84.9656 39.313 84.9656 38.98 84.9656C37.7017 84.6835 36.7014 84.0172 35.9793 82.9667C35.9793 81.6341 35.3121 80.9678 33.9788 80.9678C33.9788 79.9683 33.9788 78.9689 33.9788 77.9694C34.0768 75.9176 33.4097 74.2518 31.9784 72.9721C31.6823 71.0702 31.0151 69.4044 29.9779 67.9749C29.6448 67.9749 29.3107 67.9749 28.9777 67.9749C28.9777 66.6423 28.9777 65.3096 28.9777 63.9771C29.4008 61.6971 28.7336 60.0313 26.9772 58.9798C26.6441 58.9798 26.3101 58.9798 25.977 58.9798C25.977 58.6467 25.977 58.3134 25.977 57.9803C25.977 57.6472 25.977 57.314 25.977 56.9809C26.7572 52.0612 27.7574 47.0639 28.9777 41.9891C28.9777 41.3227 28.9777 40.6565 28.9777 39.9902C29.3107 39.9902 29.6448 39.9902 29.9779 39.9902C31.7403 39.2283 32.7405 37.8957 32.9786 35.9924C34.883 35.7549 36.2173 34.7554 36.9795 32.994C36.9795 32.6609 36.9795 32.3277 36.9795 31.9945C37.9717 32.166 38.6379 31.8329 38.98 30.9951C39.6471 30.9951 40.3133 30.9951 40.9804 30.9951C46.6117 30.2036 52.28 29.8705 57.9843 29.9956ZM71.9876 37.9913C71.6545 35.6592 70.3202 34.3266 67.9866 33.9934C68.9869 35.6592 70.3202 36.9918 71.9876 37.9913ZM92.9924 46.9863C89.1205 46.6715 85.4526 47.0047 81.9899 47.9858C80.9896 47.9858 79.9894 47.9858 78.9892 47.9858C81.2967 46.4398 83.9633 45.7735 86.991 45.9869C89.1875 45.9915 91.188 46.3247 92.9924 46.9863ZM25.977 46.9863C25.977 50.3178 25.977 53.6494 25.977 56.9809C25.0858 56.22 24.4186 55.2205 23.9765 53.9825C24.5437 51.5016 25.2108 49.1694 25.977 46.9863ZM96.9933 48.9852C98.5207 48.9123 99.5209 49.5786 99.994 50.9842C99.3268 50.9842 98.6607 50.9842 97.9935 50.9842C97.6605 50.3178 97.3264 49.6516 96.9933 48.9852ZM99.994 50.9842C101.4 51.457 102.067 52.4565 101.994 53.9825C101.327 53.6494 100.661 53.3162 99.994 52.9831C99.994 52.3167 99.994 51.6505 99.994 50.9842ZM102.995 55.9814C104.569 57.5821 105.236 59.5811 104.995 61.9781C104.091 62.6868 103.758 63.6862 103.995 64.9765C103.061 63.9095 102.727 62.5768 102.995 60.9787C102.995 60.3124 102.995 59.6461 102.995 58.9798C102.995 57.9803 102.995 56.9809 102.995 55.9814ZM23.9765 57.9803C23.9765 58.3134 23.9765 58.6467 23.9765 58.9798C23.6434 58.9798 23.3094 58.9798 22.9763 58.9798C21.0609 58.6954 19.3945 59.0287 17.9751 59.9792C17.266 60.8827 16.2657 61.2159 14.9745 60.9787C14.9745 60.6456 14.9745 60.3124 14.9745 59.9792C17.156 58.4622 19.6565 57.4627 22.4762 56.9809C23.2414 57.0507 23.7415 57.384 23.9765 57.9803ZM22.9763 58.9798C23.3094 58.9798 23.6434 58.9798 23.9765 58.9798C23.7555 61.5457 23.0883 63.8777 21.9761 65.976C21.643 65.976 21.3089 65.976 20.9758 65.976C20.6918 64.0623 21.0248 62.3966 21.9761 60.9787C22.8143 60.6372 23.1483 59.9708 22.9763 58.9798ZM98.9938 58.9798C99.3268 58.9798 99.6609 58.9798 99.994 58.9798C99.5949 62.5943 98.5947 65.9258 96.9933 68.9743C96.9933 67.6418 96.9933 66.3091 96.9933 64.9765C97.9515 63.1751 98.6187 61.1762 98.9938 58.9798ZM17.9751 59.9792C19.5745 59.7116 20.9078 60.0447 21.9761 60.9787C21.0248 62.3966 20.6918 64.0623 20.9758 65.976C20.9758 66.9754 20.9758 67.9749 20.9758 68.9743C20.3087 69.6407 19.6425 70.3069 18.9754 70.9732C17.544 72.2529 16.8769 73.9187 16.9749 75.9705C16.9749 76.97 16.9749 77.9694 16.9749 78.9689C15.6416 78.9689 14.9745 79.6352 14.9745 80.9678C13.8652 80.9109 12.865 80.5778 11.9738 79.9683C11.7651 78.5474 11.265 77.2148 10.4734 75.9705C9.99051 76.918 9.82377 77.9174 9.9733 78.9689C7.41131 74.6191 7.41131 70.2881 9.9733 65.976C10.3067 65.976 10.6402 65.976 10.9735 65.976C12.3802 65.5031 13.047 64.5037 12.974 62.9776C12.974 62.6445 12.974 62.3113 12.974 61.9781C13.6411 61.9781 13.9742 61.645 13.9742 60.9787C14.3073 60.9787 14.6414 60.9787 14.9745 60.9787C16.2657 61.2159 17.266 60.8827 17.9751 59.9792ZM110.997 63.9771C109.394 62.404 107.394 61.7377 104.995 61.9781C106.71 63.2159 108.71 63.8821 110.997 63.9771ZM110.997 64.9765C111.664 64.9765 112.33 64.9765 112.997 64.9765C113.664 64.9765 113.997 65.3096 113.997 65.976C114.664 65.976 114.997 66.3091 114.997 66.9754C115.157 68.6275 115.824 69.9601 116.998 70.9732C116.998 73.3053 116.998 75.6374 116.998 77.9694C117.235 79.2597 116.902 80.2592 115.998 80.9678C115.331 80.9678 114.997 81.3009 114.997 81.9672C114.039 82.4198 113.205 83.0861 112.497 83.9661C111.645 82.896 110.811 81.8966 109.996 80.9678C109.329 80.3014 108.663 79.6352 107.996 78.9689C107.996 77.9694 107.996 76.97 107.996 75.9705C108.718 76.3878 109.218 77.0541 109.496 77.9694C110.095 75.9357 109.595 74.2699 107.996 72.9721C108.094 70.9204 107.427 69.2546 105.995 67.9749C105.662 67.9749 105.328 67.9749 104.995 67.9749C104.995 66.9754 104.995 65.976 104.995 64.9765C106.755 64.5229 108.755 64.5229 110.997 64.9765ZM116.998 70.9732C117.269 69.0946 116.602 67.762 114.997 66.9754C115.157 68.6275 115.824 69.9601 116.998 70.9732ZM20.9758 68.9743C20.9758 69.9738 20.9758 70.9732 20.9758 71.9727C20.3087 72.639 19.6425 73.3053 18.9754 73.9716C18.9754 72.9721 18.9754 71.9727 18.9754 70.9732C19.6425 70.3069 20.3087 69.6407 20.9758 68.9743ZM96.9933 68.9743C97.0913 71.0261 96.4242 72.6919 94.9928 73.9716C94.9928 72.9721 94.9928 71.9727 94.9928 70.9732C94.9928 69.6407 95.66 68.9743 96.9933 68.9743ZM105.995 70.9732C106.663 71.6396 107.329 72.3058 107.996 72.9721C107.996 73.9716 107.996 74.971 107.996 75.9705C106.565 74.6908 105.897 73.025 105.995 70.9732ZM18.9754 73.9716C19.0734 76.0234 18.4062 77.6892 16.9749 78.9689C16.9749 77.9694 16.9749 76.97 16.9749 75.9705C17.6421 75.3042 18.3082 74.6379 18.9754 73.9716ZM9.9733 78.9689C10.6402 79.302 11.3069 79.6352 11.9738 79.9683C11.9738 80.6346 11.9738 81.3009 11.9738 81.9672C10.5671 81.4944 9.90029 80.4949 9.9733 78.9689ZM16.9749 78.9689C17.0729 81.0206 16.4058 82.6864 14.9745 83.9661C14.9745 82.9667 14.9745 81.9672 14.9745 80.9678C14.9745 79.6352 15.6416 78.9689 16.9749 78.9689ZM109.996 80.9678C110.811 81.8966 111.645 82.896 112.497 83.9661C113.205 83.0861 114.039 82.4198 114.997 81.9672C112.205 87.4173 110.538 87.0842 109.996 80.9678ZM84.9905 78.9689C86.0278 80.3984 86.6949 82.0642 86.991 83.9661C87.9912 86.6314 88.9915 86.6314 89.9917 83.9661C90.3248 81.3009 90.6588 81.3009 90.9919 83.9661C90.9919 84.9656 90.9919 85.965 90.9919 86.9645C88.6054 87.2057 86.6049 86.5393 84.9905 84.9656C84.9905 83.9661 84.9905 82.9667 84.9905 81.9672C84.9905 80.9678 84.9905 79.9683 84.9905 78.9689ZM65.9862 82.9667C65.9862 84.2992 65.9862 85.6319 65.9862 86.9645C64.0707 87.2488 62.4043 86.9156 60.985 85.965C62.3183 85.965 63.6526 85.965 64.9859 85.965C64.9859 84.9656 64.9859 83.9661 64.9859 82.9667C65.319 80.3014 65.6531 80.3014 65.9862 82.9667ZM33.9788 80.9678C35.3121 80.9678 35.9793 81.6341 35.9793 82.9667C35.9793 83.9661 35.9793 84.9656 35.9793 85.965C37.2706 86.2022 38.2708 85.8691 38.98 84.9656C39.313 84.9656 39.6471 84.9656 39.9802 84.9656C38.928 86.7206 37.2606 87.387 34.979 86.9645C34.646 84.9656 34.3119 82.9667 33.9788 80.9678ZM41.9807 79.9683C42.1527 80.9594 41.8186 81.6257 40.9804 81.9672C40.6474 81.9672 40.3133 81.9672 39.9802 81.9672C39.9802 80.6346 40.6474 79.9683 41.9807 79.9683ZM56.9841 74.971C57.6513 75.6374 58.3174 76.3036 58.9846 76.97C58.9846 77.9694 58.9846 78.9689 58.9846 79.9683C57.5532 78.6886 56.8861 77.0228 56.9841 74.971ZM68.9869 72.9721C69.3199 72.9721 69.654 72.9721 69.9871 72.9721C70.0851 75.0239 69.418 76.6897 67.9866 77.9694C67.7026 76.0558 68.0356 74.3901 68.9869 72.9721ZM29.9779 67.9749C31.0151 69.4044 31.6823 71.0702 31.9784 72.9721C31.9784 73.9716 31.9784 74.971 31.9784 75.9705C30.547 74.6908 29.8799 73.025 29.9779 70.9732C29.9779 69.9738 29.9779 68.9743 29.9779 67.9749ZM53.9834 66.9754C53.9184 64.0488 53.2512 61.3837 51.983 58.9798C51.7769 61.9732 52.4431 64.6384 53.9834 66.9754ZM25.977 58.9798C26.3101 58.9798 26.6441 58.9798 26.9772 58.9798C27.5013 60.7845 28.1685 62.4503 28.9777 63.9771C28.9777 65.3096 28.9777 66.6423 28.9777 67.9749C27.5313 65.2222 26.5311 62.2238 25.977 58.9798ZM38.98 93.9607C38.4028 95.2333 37.7367 95.2333 36.9795 93.9607C37.4496 92.9982 38.1168 92.9982 38.98 93.9607ZM66.9864 96.959C66.6533 96.959 66.3193 96.959 65.9862 96.959C65.319 96.959 64.9859 96.6259 64.9859 95.9596C65.117 95.2211 64.9499 94.5547 64.4858 93.9607C63.4856 95.2932 62.4854 95.2932 61.4851 93.9607C61.021 94.5547 60.854 95.2211 60.985 95.9596C60.985 96.6259 60.6519 96.959 59.9848 96.959C59.9848 96.6259 59.9848 96.2927 59.9848 95.9596C59.9848 94.9601 59.9848 93.9607 59.9848 92.9612C62.0893 92.6625 64.0897 92.9956 65.9862 93.9607C66.6133 94.877 66.9474 95.8764 66.9864 96.959ZM85.9908 96.959C85.6577 97.9585 84.9905 98.6248 83.9903 98.9579C83.9903 98.6248 83.9903 98.2916 83.9903 97.9585C84.2854 96.0362 85.1186 94.3705 86.4909 92.9612C86.6859 94.2798 86.5189 95.6124 85.9908 96.959ZM39.9802 95.9596C40.3133 95.9596 40.6474 95.9596 40.9804 95.9596C41.8186 96.3011 42.1527 96.9674 41.9807 97.9585C42.0457 98.3964 41.8796 98.7297 41.4805 98.9579C40.4413 98.2145 39.9412 97.2151 39.9802 95.9596ZM67.9866 97.9585C68.9869 98.2916 69.654 98.9579 69.9871 99.9574C69.3199 101.29 68.6538 101.29 67.9866 99.9574C67.9866 99.2911 67.9866 98.6248 67.9866 97.9585Z"
            fill="#010101" />
        <path fill-rule="evenodd" clip-rule="evenodd"
            d="M62.9854 23C62.9854 22.6667 62.9854 22.3333 62.9854 22C63.6524 22 64.3184 22 64.9854 22C64.6434 22.8382 63.9774 23.1716 62.9854 23Z"
            fill="black" />
        <path fill-rule="evenodd" clip-rule="evenodd"
            d="M67.9861 24.0001C67.2471 24.1311 66.5801 23.9644 65.9861 23.5001C66.9231 22.8084 67.5891 22.975 67.9861 24.0001Z"
            fill="black" />
        <path fill-rule="evenodd" clip-rule="evenodd"
            d="M67.9866 23.999C69.3196 24.6657 69.3196 24.6657 67.9866 23.999Z" fill="black" />
        <path fill-rule="evenodd" clip-rule="evenodd"
            d="M43.9812 28.9961C48.8453 28.6768 53.5133 29.01 57.9844 29.9955C52.2801 29.8704 46.6118 30.2035 40.9805 30.995C40.9805 30.6619 40.9805 30.3287 40.9805 29.9955C42.2718 30.2327 43.272 29.8996 43.9812 28.9961Z"
            fill="black" />
        <path fill-rule="evenodd" clip-rule="evenodd"
            d="M24.9763 33.994C24.3093 33.994 23.9763 34.3271 23.9763 34.9935C22.7633 33.9969 22.9303 32.9975 24.4763 31.9951C24.9403 32.5892 25.1073 33.2555 24.9763 33.994Z"
            fill="black" />
        <path fill-rule="evenodd" clip-rule="evenodd"
            d="M63.9856 31.9951C64.6526 31.9951 65.3186 31.9951 65.9856 31.9951C66.6526 31.9951 66.9856 32.3283 66.9856 32.9946C66.9856 33.3277 66.9856 33.6609 66.9856 33.994C65.4586 34.067 64.4586 33.4006 63.9856 31.9951Z"
            fill="black" />
        <path fill-rule="evenodd" clip-rule="evenodd"
            d="M34.9785 32.9941C35.6455 32.9941 36.3115 32.9941 36.9785 32.9941C36.2165 34.7556 34.8825 35.755 32.9785 35.9925C32.9785 35.6594 32.9785 35.3262 32.9785 34.993C33.6455 34.993 33.9785 34.6599 33.9785 33.9936C34.6455 33.9936 34.9785 33.6605 34.9785 32.9941Z"
            fill="black" />
        <path fill-rule="evenodd" clip-rule="evenodd"
            d="M31.9778 35.9922C32.3108 35.9922 32.6448 35.9922 32.9778 35.9922C32.7398 37.8955 31.7398 39.2281 29.9778 39.99C29.9778 39.3237 29.9778 38.6574 29.9778 37.9911C30.6448 37.9911 30.9778 37.658 30.9778 36.9916C31.6448 36.9916 31.9778 36.6585 31.9778 35.9922Z"
            fill="black" />
        <path fill-rule="evenodd" clip-rule="evenodd"
            d="M80.9895 38.9918C81.1855 36.8462 82.1855 36.6796 83.9895 38.4918C83.0415 38.9746 82.0415 39.1413 80.9895 38.9918Z"
            fill="black" />
        <path fill-rule="evenodd" clip-rule="evenodd"
            d="M84.9905 37.9916C86.0915 36.8933 87.4245 36.7266 88.9905 37.4916C87.6975 37.9816 86.3635 38.1483 84.9905 37.9916Z"
            fill="black" />
        <path fill-rule="evenodd" clip-rule="evenodd"
            d="M94.9928 38.9915C93.2935 39.1517 91.6261 38.985 89.9917 38.4915C91.8791 37.7119 93.5465 37.8786 94.9928 38.9915Z"
            fill="black" />
        <path fill-rule="evenodd" clip-rule="evenodd"
            d="M94.9927 38.9898C96.5957 38.8017 97.9297 39.3014 98.9927 40.4889C98.3987 40.953 97.7317 41.1196 96.9927 40.9887C96.3257 40.3223 95.6597 39.6561 94.9927 38.9898Z"
            fill="black" />
        <path fill-rule="evenodd" clip-rule="evenodd"
            d="M18.9747 44.9876C18.1847 46.0955 17.6847 47.4282 17.4747 48.9854C16.7687 46.5156 17.1017 44.1835 18.4747 41.9893C18.9577 42.9367 19.1237 43.9362 18.9747 44.9876Z"
            fill="black" />
        <path fill-rule="evenodd" clip-rule="evenodd"
            d="M27.9771 41.9893C28.3101 41.9893 28.6441 41.9893 28.9771 41.9893C27.7571 47.0641 26.7571 52.0614 25.9771 56.9811C25.9771 53.6496 25.9771 50.318 25.9771 46.9865C26.8811 46.2779 27.2141 45.2785 26.9771 43.9882C27.8151 43.6467 28.1491 42.9803 27.9771 41.9893Z"
            fill="black" />
        <path fill-rule="evenodd" clip-rule="evenodd"
            d="M102.995 44.9876C105.159 44.3697 106.826 45.3691 107.996 47.986C107.872 48.5924 107.539 48.9255 106.996 48.9854C106.328 48.9854 105.995 48.6523 105.995 47.986C105.328 47.986 104.995 47.6529 104.995 46.9865C104.328 46.9865 103.995 46.6534 103.995 45.9871C103.328 45.9871 102.995 45.654 102.995 44.9876Z"
            fill="black" />
        <path fill-rule="evenodd" clip-rule="evenodd"
            d="M78.9892 47.9863C79.9895 47.9863 80.9897 47.9863 81.9899 47.9863C80.4946 49.8313 78.8272 50.1646 76.9888 48.9863C77.981 49.1579 78.6472 48.8245 78.9892 47.9863Z"
            fill="black" />
        <path fill-rule="evenodd" clip-rule="evenodd"
            d="M15.974 51.9841C14.095 52.0909 13.762 51.5909 14.974 50.4841C18.349 49.8525 18.683 50.3525 15.974 51.9841Z"
            fill="black" />
        <path fill-rule="evenodd" clip-rule="evenodd"
            d="M97.9934 50.9844C98.6604 50.9844 99.3264 50.9844 99.9934 50.9844C99.9934 51.6507 99.9934 52.3169 99.9934 52.9833C98.9934 52.6502 98.3264 51.9838 97.9934 50.9844Z"
            fill="black" />
        <path fill-rule="evenodd" clip-rule="evenodd"
            d="M110.997 53.9824C111.786 54.2652 112.453 54.7652 112.997 55.4824C111.681 56.0105 111.014 55.5105 110.997 53.9824Z"
            fill="black" />
        <path fill-rule="evenodd" clip-rule="evenodd"
            d="M101.994 55.9814C102.327 55.9814 102.661 55.9814 102.994 55.9814C102.994 56.9809 102.994 57.9804 102.994 58.9798C102.661 58.9798 102.327 58.9798 101.994 58.9798C101.652 58.1421 100.986 57.8088 99.9939 57.9804C100.661 57.314 101.327 56.6478 101.994 55.9814Z"
            fill="black" />
        <path fill-rule="evenodd" clip-rule="evenodd"
            d="M4.97176 60.9794C2.57986 61.8467 2.41316 61.1805 4.47176 58.9805C4.93606 59.5745 5.10276 60.2409 4.97176 60.9794Z"
            fill="black" />
        <path fill-rule="evenodd" clip-rule="evenodd"
            d="M17.9751 59.9795C19.3944 59.0289 21.0608 58.6957 22.9762 58.98C23.1483 59.9711 22.8142 60.6374 21.976 60.9789C20.9078 60.0449 19.5745 59.7118 17.9751 59.9795Z"
            fill="black" />
        <path fill-rule="evenodd" clip-rule="evenodd"
            d="M98.9933 58.9805C98.6183 61.1769 97.9513 63.1758 96.9933 64.9772C96.5473 62.4685 97.2133 60.4696 98.9933 58.9805Z"
            fill="#141414" />
        <path fill-rule="evenodd" clip-rule="evenodd"
            d="M77.9888 58.9805C79.6518 60.9179 80.3178 63.2499 79.9888 65.9766C79.6558 65.9766 79.3218 65.9766 78.9888 65.9766C79.2568 64.3785 78.9228 63.0458 77.9888 61.9788C77.9888 60.9794 77.9888 59.9799 77.9888 58.9805Z"
            fill="#1D1D1D" />
        <path fill-rule="evenodd" clip-rule="evenodd"
            d="M121.999 64.9759C121.332 64.9759 120.999 64.6428 120.999 63.9765C121.246 61.5026 121.912 61.5026 122.999 63.9765C122.875 64.5828 122.542 64.916 121.999 64.9759Z"
            fill="black" />
        <path fill-rule="evenodd" clip-rule="evenodd"
            d="M11.9734 62.9775C12.3067 62.9775 12.6401 62.9775 12.9734 62.9775C13.0464 64.5036 12.3797 65.5031 10.9734 65.9759C10.9734 65.3096 10.9734 64.6433 10.9734 63.977C11.6401 63.977 11.9734 63.6439 11.9734 62.9775Z"
            fill="black" />
        <path fill-rule="evenodd" clip-rule="evenodd"
            d="M104.995 61.9775C106.709 63.2153 108.71 63.8815 110.996 63.9764C110.996 64.3096 110.996 64.6428 110.996 64.9759C108.755 64.5222 106.754 64.5222 104.995 64.9759C104.662 64.9759 104.328 64.9759 103.995 64.9759C103.758 63.6856 104.091 62.6862 104.995 61.9775Z"
            fill="#151515" />
        <path fill-rule="evenodd" clip-rule="evenodd"
            d="M27.9774 99.9573C18.0331 99.8332 14.1992 94.8359 16.4748 84.9655C18.5542 80.8149 20.0546 76.484 20.9758 71.9726C22.5592 69.0868 24.0595 66.0884 25.4768 62.9775C27.4173 69.4612 29.7508 75.7911 32.4784 81.9672C35.6592 89.3644 34.1588 95.3611 27.9774 99.9573Z"
            fill="#EEECEC" />
        <path fill-rule="evenodd" clip-rule="evenodd"
            d="M107.996 78.9688C108.97 82.3948 109.637 85.8929 109.996 89.4631C109.192 98.5249 104.524 101.523 95.9931 98.4581C92.3642 94.6677 91.198 90.1702 92.4923 84.9655C95.607 77.7422 98.4406 70.4129 100.994 62.9775C102.961 68.5649 105.294 73.8954 107.996 78.9688Z"
            fill="#EFECEA" />
        <path fill-rule="evenodd" clip-rule="evenodd"
            d="M125 69.9739C124.667 69.9739 124.333 69.9739 124 69.9739C124.333 65.9761 124.667 65.9761 125 69.9739Z"
            fill="black" />
        <path fill-rule="evenodd" clip-rule="evenodd"
            d="M84.9906 84.9655C85.1546 87.6514 84.9876 90.3166 84.4905 92.9611C84.2124 93.8764 83.7123 94.5428 82.9901 94.9601C82.574 97.2113 81.2407 98.7105 78.9892 99.4576C76.6787 99.9539 74.3451 100.121 71.9876 99.9573C67.3045 95.6354 65.8042 90.305 67.4866 83.9661C70.4312 77.0802 73.0989 70.0841 75.4884 62.9775C78.4141 70.4824 81.5818 77.8118 84.9906 84.9655Z"
            fill="#EEECEC" />
        <path fill-rule="evenodd" clip-rule="evenodd"
            d="M105.995 67.9756C107.426 69.2553 108.093 70.9211 107.995 72.9729C107.328 72.3065 106.662 71.6403 105.995 70.9739C105.995 69.9745 105.995 68.975 105.995 67.9756Z"
            fill="#070707" />
        <path fill-rule="evenodd" clip-rule="evenodd"
            d="M125 69.9736C126.138 72.7756 126.305 75.774 125.5 78.9687C125.002 75.9887 124.835 72.9904 125 69.9736Z"
            fill="black" />
        <path fill-rule="evenodd" clip-rule="evenodd"
            d="M80.9895 68.9736C82.4205 70.2533 83.0875 71.9191 82.9895 73.9709C82.6565 73.9709 82.3225 73.9709 81.9895 73.9709C82.1615 72.9798 81.8275 72.3135 80.9895 71.972C80.9895 70.9725 80.9895 69.9731 80.9895 68.9736Z"
            fill="#190F0F" />
        <path fill-rule="evenodd" clip-rule="evenodd"
            d="M94.9923 70.9727C94.9923 71.9721 94.9923 72.9716 94.9923 73.971C94.1543 74.3125 93.8203 74.9789 93.9923 75.9699C93.6593 75.9699 93.3253 75.9699 92.9923 75.9699C92.8943 73.9181 93.5613 72.2524 94.9923 70.9727Z"
            fill="black" />
        <path fill-rule="evenodd" clip-rule="evenodd"
            d="M18.9747 70.9727C18.9747 71.9721 18.9747 72.9716 18.9747 73.971C18.3077 74.6374 17.6417 75.3036 16.9747 75.9699C16.8767 73.9181 17.5437 72.2524 18.9747 70.9727Z"
            fill="#232323" />
        <path fill-rule="evenodd" clip-rule="evenodd"
            d="M107.996 72.9727C109.595 74.2704 110.095 75.9362 109.496 77.9699C109.218 77.0546 108.718 76.3883 107.996 75.971C107.996 74.9716 107.996 73.9721 107.996 72.9727Z"
            fill="#171717" />
        <path fill-rule="evenodd" clip-rule="evenodd"
            d="M11.9732 79.9685C11.3065 79.6354 10.6399 79.3022 9.97318 78.9691C9.82368 77.9176 9.99038 76.9182 10.4732 75.9707C11.2646 77.215 11.7646 78.5476 11.9732 79.9685Z"
            fill="black" />
        <path fill-rule="evenodd" clip-rule="evenodd"
            d="M82.99 73.9717C84.421 75.2514 85.088 76.9172 84.99 78.9689C84.657 78.9689 84.323 78.9689 83.99 78.9689C84.162 77.9779 83.828 77.3116 82.99 76.97C82.99 75.9706 82.99 74.9711 82.99 73.9717Z"
            fill="#202020" />
        <path fill-rule="evenodd" clip-rule="evenodd"
            d="M1.9711 76.9697C1.7338 78.26 2.0671 79.2595 2.9711 79.9681C2.7995 80.9591 3.1329 81.6255 3.9711 81.967C3.223 84.2007 2.3897 83.8676 1.4711 80.9675C0.706101 79.4027 0.872801 78.07 1.9711 76.9697Z"
            fill="black" />
        <path fill-rule="evenodd" clip-rule="evenodd"
            d="M92.992 75.9707C92.992 76.9702 92.992 77.9696 92.992 78.9691C92.154 79.3106 91.82 79.9769 91.992 80.968C90.814 79.1311 91.147 77.4654 92.992 75.9707Z"
            fill="#202020" />
        <path fill-rule="evenodd" clip-rule="evenodd"
            d="M11.9736 79.9683C12.8646 80.5777 13.8646 80.9108 14.9736 80.9677C14.9736 81.9672 14.9736 82.9666 14.9736 83.9661C14.6406 83.9661 14.3066 83.9661 13.9736 83.9661C13.3069 83.9661 12.9736 83.633 12.9736 82.9666C12.3069 82.9666 11.9736 82.6335 11.9736 81.9672C11.9736 81.3008 11.9736 80.6346 11.9736 79.9683Z"
            fill="black" />
        <path fill-rule="evenodd" clip-rule="evenodd"
            d="M121.999 85.9653C121.999 85.2989 121.999 84.6327 121.999 83.9664C124.686 83.4061 124.686 84.0724 121.999 85.9653Z"
            fill="black" />
        <path fill-rule="evenodd" clip-rule="evenodd"
            d="M86.991 83.9663C87.991 85.2989 88.991 85.2989 89.991 83.9663C88.991 86.6316 87.991 86.6316 86.991 83.9663Z"
            fill="black" />
        <path fill-rule="evenodd" clip-rule="evenodd"
            d="M5.97217 84.9658C6.63887 84.9658 6.97217 85.2989 6.97217 85.9653C6.72547 88.4391 6.05877 88.4391 4.97217 85.9653C5.09577 85.3589 5.42907 85.0258 5.97217 84.9658Z"
            fill="black" />
        <path fill-rule="evenodd" clip-rule="evenodd"
            d="M23.9765 58.9805C24.6437 58.9805 25.3098 58.9805 25.977 58.9805C26.5311 62.2245 27.5313 65.2229 28.9777 67.9756C28.7406 69.2658 29.0737 70.2653 29.9779 70.9739C29.8799 73.0257 30.547 74.6915 31.9784 75.9712C31.8063 76.9622 32.1404 77.6286 32.9786 77.9701C32.7415 79.2604 33.0746 80.2598 33.9788 80.9684C34.3119 82.9674 34.646 84.9663 34.979 86.9652C37.2606 87.3876 38.928 86.7213 39.9802 84.9663C40.8844 84.2577 41.2175 83.2582 40.9804 81.9679C41.8186 81.6264 42.1527 80.9601 41.9807 79.969C42.8849 79.2604 43.2179 78.2609 42.9809 76.9706C43.8191 76.6291 44.1532 75.9628 43.9811 74.9717C44.8853 74.2631 45.2184 73.2637 44.9813 71.9734C45.8195 71.6319 46.1536 70.9655 45.9816 69.9745C46.8858 69.2658 47.2189 68.2664 46.9818 66.9761C47.916 65.9091 48.2501 64.5764 47.982 62.9783C48.9163 61.9113 49.2503 60.5786 48.9823 58.9805C49.9825 58.9805 50.9827 58.9805 51.983 58.9805C51.7769 61.9739 52.4431 64.6391 53.9834 66.9761C54.0784 69.2605 54.7456 71.2595 55.9839 72.9728C55.8118 73.9639 56.1459 74.6302 56.9841 74.9717C56.8861 77.0235 57.5532 78.6893 58.9846 79.969C58.7475 81.2593 59.0806 82.2587 59.9848 82.9674C59.7477 84.2577 60.0808 85.2571 60.985 85.9657C62.4043 86.9163 64.0707 87.2495 65.9862 86.9652C65.9862 85.6326 65.9862 84.2999 65.9862 82.9674C67.4175 81.6877 68.0847 80.0219 67.9866 77.9701C69.418 76.6904 70.0851 75.0246 69.9871 72.9728C70.8253 72.6313 71.1594 71.965 70.9873 70.9739C71.8915 70.2653 72.2246 69.2658 71.9876 67.9756C72.9218 66.9085 73.2558 65.5759 72.9878 63.9777C73.797 62.451 74.4641 60.7852 74.9882 58.9805C75.6554 58.9805 76.3215 58.9805 76.9887 58.9805C76.7516 60.2708 77.0847 61.2702 77.9889 61.9788C77.7209 63.577 78.0549 64.9096 78.9892 65.9766C79.0842 68.2611 79.7513 70.26 80.9896 71.9734C80.8176 72.9644 81.1517 73.6308 81.9899 73.9723C81.7528 75.2626 82.0859 76.262 82.9901 76.9706C82.818 77.9617 83.1521 78.628 83.9903 78.9695C83.7533 80.2598 84.0863 81.2593 84.9905 81.9679C84.9905 82.9674 84.9905 83.9668 84.9905 84.9663C81.5818 77.8126 78.414 70.4832 75.4884 62.9783C73.0988 70.0848 70.4312 77.081 67.4865 83.9668C65.8041 90.3057 67.3045 95.6361 71.9876 99.9581C71.3204 99.9581 70.6542 99.9581 69.9871 99.9581C69.654 98.9586 68.9869 98.2923 67.9866 97.9592C67.9866 97.2928 67.6536 96.9597 66.9864 96.9597C66.9474 95.8771 66.6133 94.8776 65.9862 93.9613C64.0897 92.9963 62.0893 92.6632 59.9848 92.9619C59.9848 93.9613 59.9848 94.9608 59.9848 95.9603C59.3176 95.9603 58.9846 96.2934 58.9846 96.9597C58.6515 96.9597 58.3174 96.9597 57.9843 96.9597C59.0116 93.0159 59.1786 89.018 58.4844 84.9663C55.8238 77.6468 53.1562 70.3175 50.4826 62.9783C47.0128 71.5479 43.8461 80.2099 40.9804 88.9641C41.3465 92.7343 42.6798 96.0659 44.9813 98.9586C43.8721 98.9017 42.8719 98.5686 41.9807 97.9592C42.1527 96.9681 41.8186 96.3018 40.9804 95.9603C40.6474 93.295 40.3133 93.295 39.9802 95.9603C38.1878 95.8263 36.5214 96.1594 34.979 96.9597C34.646 94.2945 34.3119 94.2945 33.9788 96.9597C33.3117 96.9597 32.9786 97.2928 32.9786 97.9592C32.3114 97.9592 31.9784 98.2923 31.9784 98.9586C31.3112 98.9586 30.9781 99.2917 30.9781 99.9581C30.311 99.9581 29.6448 99.9581 28.9777 99.9581C28.6446 99.9581 28.3105 99.9581 27.9774 99.9581C34.1589 95.3619 35.6592 89.3652 32.4785 81.9679C29.7508 75.7919 27.4173 69.4619 25.4769 62.9783C24.0595 66.0892 22.5592 69.0875 20.9758 71.9734C20.9758 70.9739 20.9758 69.9745 20.9758 68.975C21.88 68.2664 22.2131 67.2669 21.9761 65.9766C23.0883 63.8784 23.7555 61.5464 23.9765 58.9805ZM65.9862 82.9674C65.9862 84.2999 65.9862 85.6326 65.9862 86.9652C64.0707 87.2495 62.4043 86.9163 60.985 85.9657C62.3183 85.9657 63.6526 85.9657 64.9859 85.9657C64.9859 84.9663 64.9859 83.9668 64.9859 82.9674C65.319 80.3021 65.6531 80.3021 65.9862 82.9674ZM33.9788 80.9684C35.3121 80.9684 35.9793 81.6348 35.9793 82.9674C35.9793 83.9668 35.9793 84.9663 35.9793 85.9657C37.2706 86.2029 38.2708 85.8698 38.98 84.9663C39.313 84.9663 39.6471 84.9663 39.9802 84.9663C38.928 86.7213 37.2606 87.3876 34.979 86.9652C34.646 84.9663 34.3119 82.9674 33.9788 80.9684ZM41.9807 79.969C42.1527 80.9601 41.8186 81.6264 40.9804 81.9679C40.6474 81.9679 40.3133 81.9679 39.9802 81.9679C39.9802 80.6353 40.6474 79.969 41.9807 79.969ZM56.9841 74.9717C57.6513 75.6381 58.3174 76.3043 58.9846 76.9706C58.9846 77.9701 58.9846 78.9695 58.9846 79.969C57.5532 78.6893 56.8861 77.0235 56.9841 74.9717ZM68.9869 72.9728C69.3199 72.9728 69.654 72.9728 69.9871 72.9728C70.0851 75.0246 69.418 76.6904 67.9866 77.9701C67.7026 76.0564 68.0356 74.3907 68.9869 72.9728ZM29.9779 67.9756C31.0151 69.4051 31.6823 71.0709 31.9784 72.9728C31.9784 73.9723 31.9784 74.9717 31.9784 75.9712C30.547 74.6915 29.8799 73.0257 29.9779 70.9739C29.9779 69.9745 29.9779 68.975 29.9779 67.9756ZM51.983 58.9805C53.2512 61.3844 53.9184 64.0495 53.9834 66.9761C52.4431 64.6391 51.7769 61.9739 51.983 58.9805ZM25.977 58.9805C26.3101 58.9805 26.6441 58.9805 26.9772 58.9805C27.5013 60.7852 28.1685 62.451 28.9777 63.9777C28.9777 65.3103 28.9777 66.643 28.9777 67.9756C27.5313 65.2229 26.5311 62.2245 25.977 58.9805ZM38.98 93.9613C38.1168 92.9989 37.4496 92.9989 36.9795 93.9613C37.7367 95.234 38.4028 95.234 38.98 93.9613ZM66.9864 96.9597C66.6533 96.9597 66.3192 96.9597 65.9862 96.9597C65.319 96.9597 64.9859 96.6266 64.9859 95.9603C65.117 95.2218 64.9499 94.5554 64.4858 93.9613C63.4856 95.2939 62.4854 95.2939 61.4851 93.9613C61.021 94.5554 60.854 95.2218 60.985 95.9603C60.985 96.6266 60.6519 96.9597 59.9848 96.9597C59.9848 96.6266 59.9848 96.2934 59.9848 95.9603C59.9848 94.9608 59.9848 93.9613 59.9848 92.9619C62.0893 92.6632 64.0897 92.9963 65.9862 93.9613C66.6133 94.8776 66.9474 95.8771 66.9864 96.9597ZM39.9802 95.9603C40.3133 95.9603 40.6474 95.9603 40.9804 95.9603C41.8186 96.3018 42.1527 96.9681 41.9807 97.9592C42.0457 98.3971 41.8796 98.7303 41.4805 98.9586C40.4413 98.2152 39.9412 97.2158 39.9802 95.9603Z"
            fill="#101211" />
        <path fill-rule="evenodd" clip-rule="evenodd"
            d="M59.9849 79.9683C61.1601 81.4413 62.1604 83.1069 62.9856 84.9655C63.6677 84.2232 64.3349 83.5569 64.986 82.9666C64.986 83.9661 64.986 84.9655 64.986 85.965C63.6527 85.965 62.3184 85.965 60.9851 85.965C61.2221 84.6747 60.8891 83.6752 59.9849 82.9666C59.9849 81.9672 59.9849 80.9677 59.9849 79.9683Z"
            fill="#101010" />
        <path fill-rule="evenodd" clip-rule="evenodd"
            d="M35.9792 82.9668C36.7012 84.0173 37.7012 84.6837 38.9792 84.9657C38.2702 85.8692 37.2702 86.2023 35.9792 85.9652C35.9792 84.9657 35.9792 83.9663 35.9792 82.9668Z"
            fill="black" />
        <path fill-rule="evenodd" clip-rule="evenodd"
            d="M31.9783 72.9727C33.4093 74.2524 34.0763 75.9181 33.9783 77.9699C33.6453 77.9699 33.3113 77.9699 32.9783 77.9699C33.1503 76.9789 32.8163 76.3125 31.9783 75.971C31.9783 74.9716 31.9783 73.9721 31.9783 72.9727Z"
            fill="#232323" />
        <path fill-rule="evenodd" clip-rule="evenodd"
            d="M43.9806 71.9727C43.9806 72.9721 43.9806 73.9716 43.9806 74.971C43.1426 75.3125 42.8086 75.9789 42.9806 76.9699C42.6476 76.9699 42.3136 76.9699 41.9806 76.9699C41.8826 74.9181 42.5496 73.2524 43.9806 71.9727Z"
            fill="#232323" />
        <path fill-rule="evenodd" clip-rule="evenodd"
            d="M55.9839 69.9736C57.7769 71.8987 58.7769 74.2307 58.9839 76.9698C58.3169 76.3035 57.6509 75.6372 56.9839 74.9709C57.1559 73.9798 56.8219 73.3135 55.9839 72.972C55.9839 71.9725 55.9839 70.9731 55.9839 69.9736Z"
            fill="#202020" />
        <path fill-rule="evenodd" clip-rule="evenodd"
            d="M70.9867 67.9756C70.9867 68.975 70.9867 69.9745 70.9867 70.9739C70.1487 71.3155 69.8147 71.9818 69.9867 72.9729C69.6537 72.9729 69.3197 72.9729 68.9867 72.9729C68.8887 70.9211 69.5557 69.2553 70.9867 67.9756Z"
            fill="#171717" />
        <path fill-rule="evenodd" clip-rule="evenodd"
            d="M45.9809 66.9756C45.9809 67.975 45.9809 68.9745 45.9809 69.9739C45.1429 70.3155 44.8089 70.9818 44.9809 71.9729C44.6479 71.9729 44.3139 71.9729 43.9809 71.9729C43.8829 69.9211 44.5499 68.2553 45.9809 66.9756Z"
            fill="#070F03" />
        <path fill-rule="evenodd" clip-rule="evenodd"
            d="M57.9844 96.959C53.9955 99.8998 49.6615 100.566 44.9814 98.9579C42.6799 96.0652 41.3466 92.7336 40.9805 88.9633C43.8461 80.2091 47.0129 71.5472 50.4827 62.9775C53.1563 70.3167 55.8239 77.646 58.4845 84.9655C59.1787 89.0173 59.0116 93.0151 57.9844 96.959Z"
            fill="#EEEBEA" />
        <path fill-rule="evenodd" clip-rule="evenodd"
            d="M72.9873 63.9777C72.0533 65.0448 71.7193 66.3774 71.9873 67.9756C71.6543 67.9756 71.3203 67.9756 70.9873 67.9756C71.0343 64.909 71.5343 61.9107 72.4873 58.9805C72.9813 60.6137 73.1473 62.2795 72.9873 63.9777Z"
            fill="#2E332D" />
        <path fill-rule="evenodd" clip-rule="evenodd"
            d="M47.9813 58.9805C47.9813 60.313 47.9813 61.6457 47.9813 62.9783C47.0473 64.0453 46.7133 65.378 46.9813 66.9761C46.6483 66.9761 46.3143 66.9761 45.9813 66.9761C45.7753 63.9826 46.4413 61.3175 47.9813 58.9805Z"
            fill="#323631" />
        <path fill-rule="evenodd" clip-rule="evenodd"
            d="M26.9771 58.9805C28.7331 60.032 29.4001 61.6978 28.9771 63.9777C28.1681 62.451 27.5011 60.7852 26.9771 58.9805Z"
            fill="#101010" />
        <path fill-rule="evenodd" clip-rule="evenodd"
            d="M30.9782 89.9629C28.9937 90.6182 26.9933 91.2846 24.9768 91.9618C23.4214 91.7399 22.0871 91.0736 20.9759 89.9629C20.0097 91.8578 19.6766 93.8567 19.9756 95.9596C17.6421 89.4508 19.9756 85.9527 26.9773 85.4653C29.1127 86.3412 30.4471 87.8403 30.9782 89.9629Z"
            fill="#F4C9B0" />
        <path fill-rule="evenodd" clip-rule="evenodd"
            d="M120.999 85.9648C121.332 85.9648 121.666 85.9648 121.999 85.9648C121.814 86.6349 121.48 86.6349 120.999 85.9648Z"
            fill="black" />
        <path fill-rule="evenodd" clip-rule="evenodd"
            d="M45.9814 85.9648C46.9777 85.8791 47.8109 86.2123 48.482 86.9643C48.7331 88.8962 49.2332 90.7285 49.9824 92.4613C52.4329 91.3362 54.4334 92.0025 55.9837 94.4602C55.3756 95.3296 54.5424 95.8293 53.4832 95.9594C48.7951 94.247 46.2945 90.9155 45.9814 85.9648Z"
            fill="#E46420" />
        <path fill-rule="evenodd" clip-rule="evenodd"
            d="M119.999 86.9644C120.332 86.9644 120.666 86.9644 120.999 86.9644C120.814 87.6345 120.48 87.6345 119.999 86.9644Z"
            fill="black" />
        <path fill-rule="evenodd" clip-rule="evenodd"
            d="M50.9827 85.9648C54.7185 86.0106 56.0518 87.6764 54.9836 90.9621C52.552 90.1025 51.2187 88.4367 50.9827 85.9648Z"
            fill="#EEA678" />
        <path fill-rule="evenodd" clip-rule="evenodd"
            d="M103.995 91.962C102.396 88.9788 100.062 88.3126 96.9932 89.9631C99.0166 88.0957 101.35 86.4299 103.995 84.9658C105.215 85.3525 105.882 86.1854 105.995 87.4645C105.081 88.8701 104.415 90.3693 103.995 91.962Z"
            fill="#EB8C53" />
        <path fill-rule="evenodd" clip-rule="evenodd"
            d="M118.998 87.9639C119.331 87.9639 119.665 87.9639 119.998 87.9639C119.813 88.634 119.479 88.634 118.998 87.9639Z"
            fill="black" />
        <path fill-rule="evenodd" clip-rule="evenodd"
            d="M9.97285 88.9634C10.6396 88.9634 10.9729 89.2965 10.9729 89.9628C10.9729 90.296 10.9729 90.6292 10.9729 90.9623C8.01325 90.4306 7.67995 89.7642 9.97285 88.9634Z"
            fill="black" />
        <path fill-rule="evenodd" clip-rule="evenodd"
            d="M117.998 88.9634C118.331 88.9634 118.665 88.9634 118.998 88.9634C118.813 89.6335 118.479 89.6335 117.998 88.9634Z"
            fill="black" />
        <path fill-rule="evenodd" clip-rule="evenodd"
            d="M103.995 91.9618C103.45 95.4044 101.449 96.5704 97.9933 95.4599C95.8608 93.8404 95.5277 92.0081 96.993 89.9629C100.062 88.3124 102.396 88.9787 103.995 91.9618Z"
            fill="#E35D16" />
        <path fill-rule="evenodd" clip-rule="evenodd"
            d="M116.998 89.9629C117.331 89.9629 117.665 89.9629 117.998 89.9629C117.813 90.633 117.479 90.633 116.998 89.9629Z"
            fill="black" />
        <path fill-rule="evenodd" clip-rule="evenodd"
            d="M10.9734 90.9624C11.6401 90.9624 12.3067 90.9624 12.9734 90.9624C13.8854 92.1999 14.0524 93.5325 13.4734 94.9602C12.8112 93.4771 11.9779 92.1446 10.9734 90.9624Z"
            fill="#040404" />
        <path fill-rule="evenodd" clip-rule="evenodd"
            d="M114.997 90.9624C115.664 90.9624 116.33 90.9624 116.997 90.9624C116.33 92.2957 115.664 92.2957 114.997 90.9624Z"
            fill="black" />
        <path fill-rule="evenodd" clip-rule="evenodd"
            d="M97.9935 90.9624C99.3265 90.9624 100.66 90.9624 101.993 90.9624C102.271 92.8078 101.604 94.1405 99.9935 94.9602C98.3825 94.1405 97.7155 92.8078 97.9935 90.9624Z"
            fill="#F1A97F" />
        <path fill-rule="evenodd" clip-rule="evenodd"
            d="M30.9783 89.9629C31.2343 92.2541 30.9012 94.4197 29.978 96.4593C26.4502 97.2664 23.1165 97.0998 19.9757 95.9596C19.6767 93.8568 20.0097 91.8579 20.976 89.9629C22.0872 91.0736 23.4215 91.7399 24.9769 91.9618C26.9933 91.2846 28.9938 90.6182 30.9783 89.9629Z"
            fill="#E7702F" />
        <path fill-rule="evenodd" clip-rule="evenodd"
            d="M64.9849 95.9594C63.6519 95.9594 62.3179 95.9594 60.9849 95.9594C60.8539 95.2209 61.0209 94.5545 61.4849 93.9604C62.4849 95.293 63.4849 95.293 64.4849 93.9604C64.9489 94.5545 65.1159 95.2209 64.9849 95.9594Z"
            fill="black" />
        <path fill-rule="evenodd" clip-rule="evenodd"
            d="M69.9871 86.9644C69.9871 89.2964 69.9871 91.6285 69.9871 93.9605C73.988 93.9605 77.9889 93.9605 81.9899 93.9605C81.9899 92.9611 81.9899 91.9616 81.9899 90.9622C80.9896 90.9622 79.9894 90.9622 78.9892 90.9622C78.9892 89.9627 78.9892 88.9633 78.9892 87.9638C80.2805 88.201 81.2807 87.8679 81.9899 86.9644C82.9631 89.4109 83.2962 92.0762 82.9901 94.96C78.322 94.96 73.6549 94.96 68.9869 94.96C68.6808 92.0762 69.0139 89.4109 69.9871 86.9644Z"
            fill="#EB9560" />
        <path fill-rule="evenodd" clip-rule="evenodd"
            d="M69.9871 86.9644C73.988 86.9644 77.9889 86.9644 81.9898 86.9644C81.2807 87.8679 80.2804 88.201 78.9891 87.9638C78.9891 88.9633 78.9891 89.9627 78.9891 90.9622C79.9894 90.9622 80.9896 90.9622 81.9898 90.9622C81.9898 91.9616 81.9898 92.9611 81.9898 93.9605C77.9889 93.9605 73.988 93.9605 69.9871 93.9605C69.9871 91.6285 69.9871 89.2964 69.9871 86.9644Z"
            fill="#E35B10" />
        <path fill-rule="evenodd" clip-rule="evenodd"
            d="M110.997 96.9592C110.997 96.2929 110.997 95.6267 110.997 94.9603C111.709 93.7223 112.709 93.2226 113.997 93.4611C113.334 94.9788 112.334 96.1448 110.997 96.9592Z"
            fill="#171818" />
        <path fill-rule="evenodd" clip-rule="evenodd"
            d="M33.9788 96.959C34.3118 96.959 34.6458 96.959 34.9788 96.959C34.7938 97.6291 34.4598 97.6291 33.9788 96.959Z"
            fill="black" />
        <path fill-rule="evenodd" clip-rule="evenodd"
            d="M65.9861 96.959C66.3191 96.959 66.6531 96.959 66.9861 96.959C67.6531 96.959 67.9861 97.2921 67.9861 97.9584C67.9861 98.6248 67.9861 99.291 67.9861 99.9573C66.5801 99.4845 65.9131 98.4851 65.9861 96.959Z"
            fill="#2F2F2F" />
        <path fill-rule="evenodd" clip-rule="evenodd"
            d="M109.996 96.959C110.329 96.959 110.663 96.959 110.996 96.959C110.811 97.6291 110.477 97.6291 109.996 96.959Z"
            fill="black" />
        <path fill-rule="evenodd" clip-rule="evenodd"
            d="M58.9846 96.959C59.3176 96.959 59.6516 96.959 59.9846 96.959C60.1566 97.95 59.8226 98.6164 58.9846 98.9579C58.9846 98.2916 58.9846 97.6253 58.9846 96.959Z"
            fill="#4D4D4D" />
        <path fill-rule="evenodd" clip-rule="evenodd"
            d="M108.996 97.9585C109.329 97.9585 109.663 97.9585 109.996 97.9585C109.996 99.9574 108.996 100.957 106.996 100.957C106.996 100.624 106.996 100.291 106.996 99.9574C107.663 99.9574 107.996 99.6243 107.996 98.9579C108.663 98.9579 108.996 98.6248 108.996 97.9585Z"
            fill="black" />
        <path fill-rule="evenodd" clip-rule="evenodd"
            d="M57.9844 98.958C58.3174 98.958 58.6514 98.958 58.9844 98.958C58.7994 99.6281 58.4654 99.6281 57.9844 98.958Z"
            fill="black" />
        <path fill-rule="evenodd" clip-rule="evenodd"
            d="M82.99 98.958C83.323 98.958 83.657 98.958 83.99 98.958C83.805 99.6281 83.471 99.6281 82.99 98.958Z"
            fill="black" />
        <path fill-rule="evenodd" clip-rule="evenodd"
            d="M32.978 97.9585C33.311 97.9585 33.645 97.9585 33.978 97.9585C33.978 99.9574 32.978 100.957 30.978 100.957C30.978 100.624 30.978 100.291 30.978 99.9574C31.645 99.9574 31.978 99.6243 31.978 98.9579C32.645 98.9579 32.978 98.6248 32.978 97.9585Z"
            fill="#1B1B1B" />
        <path fill-rule="evenodd" clip-rule="evenodd"
            d="M57.9842 96.959C57.9842 97.6253 57.9842 98.2916 57.9842 98.9579C54.1733 100.767 50.1724 101.266 45.9814 100.457C45.4253 100.075 45.0922 99.575 44.9812 98.9579C49.6613 100.566 53.9953 99.8998 57.9842 96.959Z"
            fill="#0C0E0C" />
        <path fill-rule="evenodd" clip-rule="evenodd"
            d="M81.9897 99.9575C82.3227 99.9575 82.6567 99.9575 82.9897 99.9575C82.8047 100.628 82.4707 100.628 81.9897 99.9575Z"
            fill="black" />
        <path fill-rule="evenodd" clip-rule="evenodd"
            d="M28.9775 101.957C28.9775 101.624 28.9775 101.29 28.9775 100.957C29.6445 100.957 30.3105 100.957 30.9775 100.957C30.6355 101.795 29.9695 102.129 28.9775 101.957Z"
            fill="#2A2A2A" />
        <path fill-rule="evenodd" clip-rule="evenodd"
            d="M79.9893 101.957C79.9893 101.624 79.9893 101.29 79.9893 100.957C80.6563 100.957 81.3223 100.957 81.9893 100.957C81.6473 101.795 80.9813 102.129 79.9893 101.957Z"
            fill="black" />
        <path fill-rule="evenodd" clip-rule="evenodd"
            d="M104.995 101.957C104.995 101.624 104.995 101.29 104.995 100.957C105.662 100.957 106.328 100.957 106.995 100.957C106.653 101.795 105.987 102.129 104.995 101.957Z"
            fill="#2A2A2A" />
    </g>
    <defs>
        <clipPath id="clip0_5607_868">
            <rect width="125" height="125" fill="white" />
        </clipPath>
    </defs>
</svg>