<svg xmlns="http://www.w3.org/2000/svg" viewBox="0 0 32 32">
  <defs>
    <linearGradient id="a" x1="3" x2="28" y1="0" y2="0" gradientUnits="userSpaceOnUse">
      <stop offset="0" stop-color="#ff6f4a"/>
      <stop offset="1" stop-color="#c2211b"/>
    </linearGradient>
    <linearGradient id="b" x1="3" x2="28" y1="0" y2="0" gradientUnits="userSpaceOnUse">
      <stop offset="0" stop-color="#ff5e3f"/>
      <stop offset="1" stop-color="#d62a22"/>
    </linearGradient>
    <linearGradient id="c" x1="3" x2="28" y1="0" y2="0" gradientUnits="userSpaceOnUse">
      <stop offset="0" stop-color="#ff4f37"/>
      <stop offset="1" stop-color="#b61c17"/>
    </linearGradient>
  </defs>
  <path fill="url(#a)" d="M3 3h25c0 1.78-.59 3.38-1.76 4.8-1.17 1.42-2.83 2.34-4.98 2.76L3 14.04V3z"/>
  <path fill="url(#b)" d="M3 10h25c0 1.78-.59 3.38-1.76 4.8-1.17 1.42-2.83 2.34-4.98 2.76L3 21.04V10z"/>
  <path fill="url(#c)" d="M3 17h25c0 1.78-.59 3.38-1.76 4.8-1.17 1.42-2.83 2.34-4.98 2.76L3 28.04V17z"/>
</svg>
