<svg width="32" height="32" viewBox="0 0 32 32" fill="none" xmlns="http://www.w3.org/2000/svg">
    <g clip-path="url(#clip0_5614_371)">
        <path fill-rule="evenodd" clip-rule="evenodd"
            d="M15.253 12.3924C14.5267 12.3924 13.8003 12.3924 13.074 12.3924C8.854 11.6742 4.49597 11.4323 0 11.6666C0 10.6989 0 9.73111 0 8.76338C1.13972 6.78308 2.83449 5.45243 5.08433 4.77143C10.89 4.40874 16.7006 4.28777 22.5163 4.40853C22.0679 8.96581 19.6468 11.6271 15.253 12.3924Z"
            fill="#DC1736" />
        <path fill-rule="evenodd" clip-rule="evenodd"
            d="M15.2529 12.3928C19.6176 12.2722 23.9756 12.3932 28.3269 12.7557C30.7652 14.3609 31.9758 16.6593 31.9586 19.6509C29.7796 19.6509 27.6006 19.6509 25.4216 19.6509C23.4847 19.6509 21.5478 19.6509 19.6109 19.6509C18.6703 18.9335 17.7019 18.2077 16.7056 17.4735C16.7056 16.9896 16.4635 16.7477 15.9793 16.7477C15.9793 16.2638 15.9793 15.78 15.9793 15.2961C15.9793 14.8122 15.7372 14.5703 15.2529 14.5703C15.2529 13.8444 15.2529 13.1186 15.2529 12.3928Z"
            fill="#F3B542" />
        <path fill-rule="evenodd" clip-rule="evenodd"
            d="M0 12.3926C4.358 12.3926 8.71599 12.3926 13.074 12.3926C13.5582 13.3603 14.2846 14.0861 15.253 14.57C15.7372 14.57 15.9793 14.8119 15.9793 15.2958C15.9793 15.7797 15.9793 16.2635 15.9793 16.7474C16.4636 16.7474 16.7057 16.9893 16.7057 17.4732C16.7057 18.1991 16.7057 18.9249 16.7057 19.6507C16.4636 19.6507 16.2214 19.6507 15.9793 19.6507C11.8564 19.7712 7.74046 19.6502 3.63166 19.2878C2.25024 18.0323 1.03969 16.7017 0 15.2958C0 14.3281 0 13.3603 0 12.3926Z"
            fill="#42BDDC" />
        <path fill-rule="evenodd" clip-rule="evenodd"
            d="M15.9794 19.6514C16.2215 19.6514 16.4636 19.6514 16.7057 19.6514C17.6741 19.6514 18.6426 19.6514 19.611 19.6514C21.548 19.6514 23.4848 19.6514 25.4217 19.6514C27.4459 20.3603 29.6249 20.6022 31.9587 20.3772C32.0725 21.374 31.9514 22.3418 31.5955 23.2804C30.3555 24.3963 29.266 25.606 28.327 26.9095C22.0321 26.9095 15.7373 26.9095 9.44238 26.9095C10.1383 23.0725 12.3173 20.6532 15.9794 19.6514Z"
            fill="#63B489" />
    </g>
    <defs>
        <clipPath id="clip0_5614_371">
            <rect width="32" height="32" fill="white" />
        </clipPath>
    </defs>
</svg>