<svg width="32" height="32" viewBox="0 0 32 32" fill="none" xmlns="http://www.w3.org/2000/svg">
    <path fill-rule="evenodd" clip-rule="evenodd"
        d="M14.8438 2.78125C14.8907 2.71415 14.9532 2.70374 15.0312 2.75C14.972 2.78017 14.9095 2.79059 14.8438 2.78125Z"
        fill="#F9FA00" />
    <path fill-rule="evenodd" clip-rule="evenodd"
        d="M16.9688 2.78099C17.0131 2.83749 17.0756 2.85832 17.1563 2.84349C17.2006 2.89999 17.2631 2.92082 17.3438 2.90599C17.7408 3.10807 18.1575 3.27474 18.5938 3.40599C19.3243 3.7331 20.0743 4.02477 20.8438 4.28099C20.8881 4.33749 20.9506 4.35832 21.0313 4.34349C21.0527 4.39587 21.0943 4.41671 21.1563 4.40599C21.3922 4.50256 21.6318 4.60673 21.8751 4.71849C22.0166 4.63344 22.152 4.64386 22.2813 4.74974C22.2396 4.77057 22.198 4.7914 22.1563 4.81224C22.4126 4.97364 22.6835 5.03614 22.9688 4.99974C23.1355 5.0414 23.1355 5.08307 22.9688 5.12474C23.109 5.19575 23.2548 5.24783 23.4063 5.28099C23.4506 5.33749 23.5131 5.35832 23.5938 5.34349C23.6152 5.39587 23.6568 5.41671 23.7188 5.40599C23.7631 5.46249 23.8256 5.48332 23.9063 5.46849C24.0406 5.54575 24.1865 5.60825 24.3438 5.65599C24.5601 5.77569 24.6643 5.96319 24.6563 6.21849C24.6146 6.21849 24.5938 6.23932 24.5938 6.28099C24.5521 6.28099 24.5313 6.3018 24.5313 6.34349C24.4896 6.34349 24.4688 6.3643 24.4688 6.40599C24.4271 6.40599 24.4063 6.4268 24.4063 6.46849C24.3443 6.45774 24.3027 6.47861 24.2813 6.53099C24.2193 6.52024 24.1777 6.54111 24.1563 6.59349C23.9222 6.62117 23.7972 6.68367 23.7813 6.78099C23.7396 6.69767 23.698 6.69767 23.6563 6.78099C23.5943 6.77024 23.5527 6.79111 23.5313 6.84349C23.4506 6.82867 23.3881 6.84949 23.3438 6.90599C23.2818 6.89524 23.2402 6.91611 23.2188 6.96849C23.1381 6.95367 23.0756 6.97449 23.0313 7.03099C22.9506 7.01617 22.8881 7.03699 22.8438 7.09349C22.7818 7.08274 22.7402 7.10361 22.7188 7.15599C22.6381 7.14117 22.5756 7.16199 22.5313 7.21849C22.4693 7.20774 22.4277 7.22861 22.4063 7.28099C22.3256 7.26617 22.2631 7.28699 22.2188 7.34349C22.1381 7.32867 22.0756 7.34949 22.0313 7.40599C21.9693 7.39524 21.9277 7.41611 21.9063 7.46849C21.6168 7.53699 21.346 7.64117 21.0938 7.78099C21.0318 7.77024 20.9902 7.79111 20.9688 7.84349C20.7165 7.8788 20.4874 7.96217 20.2813 8.09349C20.2193 8.08274 20.1777 8.10361 20.1563 8.15599C20.0756 8.14117 20.0131 8.16199 19.9688 8.21849C19.9068 8.20774 19.8652 8.22861 19.8438 8.28099C19.7631 8.26617 19.7006 8.28699 19.6563 8.34349C19.5756 8.32867 19.5131 8.34949 19.4688 8.40599C19.4068 8.39524 19.3652 8.41611 19.3438 8.46849C19.2155 8.46236 19.1113 8.50405 19.0313 8.59349C18.9506 8.57867 18.8881 8.59949 18.8438 8.65599C18.7818 8.64524 18.7402 8.66611 18.7188 8.71849C18.6381 8.70367 18.5756 8.72449 18.5313 8.78099C18.4693 8.77024 18.4277 8.79111 18.4063 8.84349C18.3256 8.82867 18.2631 8.84949 18.2188 8.90599C18.1381 8.89117 18.0756 8.91199 18.0313 8.96849C17.9693 8.95774 17.9277 8.97861 17.9063 9.03099C17.8256 9.01617 17.7631 9.03699 17.7188 9.09349C17.6568 9.08274 17.6152 9.10361 17.5938 9.15599C17.451 9.16192 17.326 9.20361 17.2188 9.28099C17.1568 9.27024 17.1152 9.29111 17.0938 9.34349C16.8921 9.35449 16.7046 9.39617 16.5313 9.46849C15.984 9.4878 15.4423 9.44611 14.9063 9.34349C14.8263 9.25405 14.7221 9.21236 14.5938 9.21849C14.5463 9.1628 14.4838 9.12111 14.4063 9.09349C14.3065 9.15505 14.2023 9.16542 14.0938 9.12474C14.1563 9.10392 14.2188 9.08305 14.2813 9.06224C14.0778 8.97011 13.8695 8.89724 13.6563 8.84349C13.635 8.79111 13.5933 8.77024 13.5313 8.78099C13.487 8.72449 13.4245 8.70367 13.3438 8.71849C13.1945 8.62349 13.0278 8.56099 12.8438 8.53099C12.8225 8.47861 12.7808 8.45774 12.7188 8.46849C12.4585 8.34917 12.1876 8.24505 11.9063 8.15599C11.757 8.06099 11.5903 7.99849 11.4063 7.96849C10.8833 7.72449 10.3416 7.51617 9.78133 7.34349C9.60195 7.20011 9.39364 7.11674 9.15633 7.09349C9.07633 7.00405 8.97214 6.96236 8.84383 6.96849C8.82245 6.91611 8.78083 6.89524 8.71883 6.90599C8.67452 6.84949 8.61202 6.82867 8.53133 6.84349C8.38195 6.74849 8.21527 6.68599 8.03133 6.65599C8.00995 6.60361 7.96833 6.58274 7.90633 6.59349C7.27414 6.28911 7.25327 5.95576 7.84383 5.59349C7.90583 5.60421 7.94745 5.58337 7.96883 5.53099C10.2193 4.69772 12.3651 3.86439 14.4063 3.03099C14.4683 3.04171 14.51 3.02087 14.5313 2.96849C15.324 2.65359 16.1365 2.59109 16.9688 2.78099Z"
        fill="#C1D40B" />
    <path fill-rule="evenodd" clip-rule="evenodd"
        d="M16.9688 2.78165C17.105 2.70075 17.23 2.72158 17.3438 2.84415C17.2812 2.84415 17.2188 2.84415 17.1562 2.84415C17.1119 2.78765 17.0494 2.76682 16.9688 2.78165Z"
        fill="#87860C" />
    <path fill-rule="evenodd" clip-rule="evenodd"
        d="M17.3438 2.90625C17.3438 2.88542 17.3438 2.86458 17.3438 2.84375C17.5104 2.86458 17.5104 2.88542 17.3438 2.90625Z"
        fill="#F9FA00" />
    <path fill-rule="evenodd" clip-rule="evenodd"
        d="M14.5315 2.96861C14.4695 2.95788 14.4279 2.97872 14.4065 3.03111C14.291 3.04772 14.2494 3.02689 14.2815 2.96861C14.3749 2.89328 14.4582 2.89328 14.5315 2.96861Z"
        fill="#9DB300" />
    <path fill-rule="evenodd" clip-rule="evenodd"
        d="M17.5312 2.96851C17.5561 2.90445 17.5977 2.89403 17.6562 2.93726C17.6191 2.96628 17.5774 2.9767 17.5312 2.96851Z"
        fill="#A4A400" />
    <path fill-rule="evenodd" clip-rule="evenodd"
        d="M18.5938 3.40601C18.6186 3.34195 18.6602 3.33153 18.7188 3.37476C18.6816 3.40378 18.6399 3.4142 18.5938 3.40601Z"
        fill="#AEAE00" />
    <path fill-rule="evenodd" clip-rule="evenodd"
        d="M19.2812 3.65601C19.3061 3.59195 19.3477 3.58153 19.4062 3.62476C19.3691 3.65378 19.3274 3.6642 19.2812 3.65601Z"
        fill="#F9FA00" />
    <path fill-rule="evenodd" clip-rule="evenodd"
        d="M19.7812 3.84351C19.8061 3.77945 19.8477 3.76903 19.9062 3.81226C19.8691 3.84128 19.8274 3.8517 19.7812 3.84351Z"
        fill="#E4E400" />
    <path fill-rule="evenodd" clip-rule="evenodd"
        d="M11.3438 4.15601C11.3686 4.09195 11.4102 4.08153 11.4688 4.12476C11.4316 4.15378 11.3899 4.1642 11.3438 4.15601Z"
        fill="#D5FA00" />
    <path fill-rule="evenodd" clip-rule="evenodd"
        d="M20.8438 4.28101C20.8686 4.21695 20.9102 4.20653 20.9688 4.24976C20.9316 4.27878 20.8899 4.2892 20.8438 4.28101Z"
        fill="#8CA500" />
    <path fill-rule="evenodd" clip-rule="evenodd"
        d="M10.8438 4.34351C10.8686 4.27945 10.9102 4.26903 10.9688 4.31226C10.9316 4.34128 10.8899 4.3517 10.8438 4.34351Z"
        fill="#9BCE00" />
    <path fill-rule="evenodd" clip-rule="evenodd"
        d="M21.0312 4.34389C21.1156 4.26286 21.1989 4.27328 21.2812 4.37514C21.2441 4.40416 21.2024 4.41458 21.1562 4.40639C21.1349 4.354 21.0932 4.33316 21.0312 4.34389Z"
        fill="#B6B60B" />
    <path fill-rule="evenodd" clip-rule="evenodd"
        d="M22.3438 4.84351C22.3686 4.77945 22.4102 4.76903 22.4688 4.81226C22.4316 4.84128 22.3899 4.8517 22.3438 4.84351Z"
        fill="#8B8B00" />
    <path fill-rule="evenodd" clip-rule="evenodd"
        d="M23.4062 5.28101C23.4311 5.21695 23.4727 5.20653 23.5312 5.24976C23.4941 5.27878 23.4524 5.2892 23.4062 5.28101Z"
        fill="#E4E400" />
    <path fill-rule="evenodd" clip-rule="evenodd"
        d="M8.28125 5.34351C8.30606 5.27945 8.34769 5.26903 8.40625 5.31226C8.36913 5.34128 8.32744 5.3517 8.28125 5.34351Z"
        fill="#F9FA00" />
    <path fill-rule="evenodd" clip-rule="evenodd"
        d="M23.5938 5.34384C23.7086 5.27019 23.8128 5.29102 23.9062 5.40634C23.8438 5.40634 23.7812 5.40634 23.7188 5.40634C23.6974 5.35395 23.6557 5.33311 23.5938 5.34384Z"
        fill="#B8CB14" />
    <path fill-rule="evenodd" clip-rule="evenodd"
        d="M23.9062 5.46875C23.9062 5.44792 23.9062 5.42708 23.9062 5.40625C24.0729 5.42708 24.0729 5.44792 23.9062 5.46875Z"
        fill="#E0FA00" />
    <path fill-rule="evenodd" clip-rule="evenodd"
        d="M7.96888 5.53125C7.90688 5.52052 7.86526 5.54136 7.84388 5.59375C7.72644 5.60042 7.70563 5.56917 7.78138 5.5C7.85944 5.45374 7.92194 5.46415 7.96888 5.53125Z"
        fill="#A5B500" />
    <path fill-rule="evenodd" clip-rule="evenodd"
        d="M24.3438 5.59375C24.4271 5.63542 24.4271 5.63542 24.3438 5.59375Z" fill="#A7A800" />
    <path fill-rule="evenodd" clip-rule="evenodd"
        d="M24.4688 5.65625C24.5521 5.69792 24.5521 5.69792 24.4688 5.65625Z" fill="#7DFA00" />
    <path fill-rule="evenodd" clip-rule="evenodd"
        d="M7.28102 5.90625C7.35059 5.99665 7.36102 6.10082 7.31227 6.21875C7.2814 6.11662 7.27102 6.01245 7.28102 5.90625Z"
        fill="#CDCD00" />
    <path fill-rule="evenodd" clip-rule="evenodd"
        d="M24.7189 6.21875C24.7091 6.13291 24.7195 6.04958 24.7501 5.96875C24.798 6.06661 24.7875 6.14994 24.7189 6.21875Z"
        fill="#DFDF00" />
    <path fill-rule="evenodd" clip-rule="evenodd"
        d="M24.6562 6.21875C24.6771 6.21875 24.6979 6.21875 24.7188 6.21875C24.7072 6.26063 24.6863 6.26063 24.6562 6.21875Z"
        fill="#BABB00" />
    <path fill-rule="evenodd" clip-rule="evenodd"
        d="M7.34375 6.28125C7.42706 6.32294 7.42706 6.32294 7.34375 6.28125Z" fill="#7DFA00" />
    <path fill-rule="evenodd" clip-rule="evenodd"
        d="M24.5938 6.28125C24.6146 6.28125 24.6354 6.28125 24.6562 6.28125C24.6447 6.32313 24.6238 6.32313 24.5938 6.28125Z"
        fill="#A7A800" />
    <path fill-rule="evenodd" clip-rule="evenodd"
        d="M24.5312 6.34375C24.5521 6.34375 24.5729 6.34375 24.5938 6.34375C24.5822 6.38563 24.5613 6.38563 24.5312 6.34375Z"
        fill="#7DFA00" />
    <path fill-rule="evenodd" clip-rule="evenodd"
        d="M24.4688 6.40625C24.4896 6.40625 24.5104 6.40625 24.5312 6.40625C24.5197 6.44813 24.4988 6.44813 24.4688 6.40625Z"
        fill="#7DFA00" />
    <path fill-rule="evenodd" clip-rule="evenodd"
        d="M24.4062 6.46875C24.4271 6.46875 24.4479 6.46875 24.4688 6.46875C24.4572 6.51063 24.4363 6.51063 24.4062 6.46875Z"
        fill="#A7A800" />
    <path fill-rule="evenodd" clip-rule="evenodd"
        d="M24.2812 6.59375C24.2812 6.57294 24.2812 6.55206 24.2812 6.53125C24.3229 6.53125 24.3646 6.53125 24.4062 6.53125C24.3849 6.58362 24.3432 6.6045 24.2812 6.59375Z"
        fill="#F9FA00" />
    <path fill-rule="evenodd" clip-rule="evenodd"
        d="M24.1562 6.65625C24.1562 6.63544 24.1562 6.61456 24.1562 6.59375C24.1979 6.59375 24.2396 6.59375 24.2812 6.59375C24.2599 6.64612 24.2182 6.667 24.1562 6.65625Z"
        fill="#959500" />
    <path fill-rule="evenodd" clip-rule="evenodd"
        d="M7.90625 6.59352C7.92763 6.6459 7.96925 6.66677 8.03125 6.65602C7.94694 6.73708 7.86362 6.72665 7.78125 6.62477C7.81837 6.59577 7.86006 6.58533 7.90625 6.59352Z"
        fill="#97970F" />
    <path fill-rule="evenodd" clip-rule="evenodd"
        d="M24.1562 6.65602C24.1314 6.72008 24.0898 6.73052 24.0312 6.68727C24.0684 6.65827 24.1101 6.64783 24.1562 6.65602Z"
        fill="#E0FA00" />
    <path fill-rule="evenodd" clip-rule="evenodd"
        d="M8.53125 6.84412C8.48431 6.91118 8.42181 6.92162 8.34375 6.87537C8.403 6.84518 8.4655 6.83481 8.53125 6.84412Z"
        fill="#D0D000" />
    <path fill-rule="evenodd" clip-rule="evenodd"
        d="M23.6562 6.78125C23.6979 6.78125 23.7396 6.78125 23.7812 6.78125C23.7164 6.90744 23.633 6.92831 23.5312 6.84375C23.5932 6.8545 23.6349 6.83362 23.6562 6.78125Z"
        fill="#B3CD00" />
    <path fill-rule="evenodd" clip-rule="evenodd"
        d="M23.3438 6.96875C23.3438 6.94794 23.3438 6.92706 23.3438 6.90625C23.5104 6.92706 23.5104 6.94794 23.3438 6.96875Z"
        fill="#92A500" />
    <path fill-rule="evenodd" clip-rule="evenodd"
        d="M8.71875 6.90602C8.74013 6.9584 8.78175 6.97927 8.84375 6.96852C8.75944 7.04958 8.67612 7.03915 8.59375 6.93727C8.63087 6.90827 8.67256 6.89783 8.71875 6.90602Z"
        fill="#98AB11" />
    <path fill-rule="evenodd" clip-rule="evenodd"
        d="M23.2188 7.03125C23.2188 7.01044 23.2188 6.98956 23.2188 6.96875C23.2604 6.96875 23.3021 6.96875 23.3438 6.96875C23.3224 7.02112 23.2807 7.042 23.2188 7.03125Z"
        fill="#E9E900" />
    <path fill-rule="evenodd" clip-rule="evenodd"
        d="M23.0312 7.03125C23.0938 7.03125 23.1562 7.03125 23.2188 7.03125C23.1562 7.11456 23.0938 7.11456 23.0312 7.03125Z"
        fill="#B9B900" />
    <path fill-rule="evenodd" clip-rule="evenodd"
        d="M9.15627 7.09375C9.15627 7.11456 9.15627 7.13544 9.15627 7.15625C8.98958 7.13544 8.98958 7.11456 9.15627 7.09375Z"
        fill="#D8D800" />
    <path fill-rule="evenodd" clip-rule="evenodd"
        d="M9.15625 7.15602C9.20244 7.14783 9.24413 7.15827 9.28125 7.18727C9.22269 7.23052 9.18106 7.22008 9.15625 7.15602Z"
        fill="#A5A500" />
    <path fill-rule="evenodd" clip-rule="evenodd"
        d="M22.8438 7.09352C22.8899 7.08533 22.9316 7.09577 22.9688 7.12477C22.9023 7.19902 22.8189 7.23027 22.7188 7.21852C22.7188 7.19771 22.7188 7.17683 22.7188 7.15602C22.7807 7.16677 22.8224 7.1459 22.8438 7.09352Z"
        fill="#C3C20C" />
    <path fill-rule="evenodd" clip-rule="evenodd"
        d="M22.5312 7.28125C22.5312 7.26044 22.5312 7.23956 22.5312 7.21875C22.5938 7.21875 22.6562 7.21875 22.7188 7.21875C22.6744 7.27525 22.6119 7.29606 22.5312 7.28125Z"
        fill="#E4E400" />
    <path fill-rule="evenodd" clip-rule="evenodd"
        d="M22.4062 7.34375C22.4062 7.32294 22.4062 7.30206 22.4062 7.28125C22.4479 7.28125 22.4896 7.28125 22.5312 7.28125C22.5099 7.33362 22.4682 7.3545 22.4062 7.34375Z"
        fill="#959500" />
    <path fill-rule="evenodd" clip-rule="evenodd"
        d="M9.78125 7.34352C9.75644 7.40758 9.71481 7.41802 9.65625 7.37477C9.69337 7.34577 9.73506 7.33533 9.78125 7.34352Z"
        fill="#DDDE00" />
    <path fill-rule="evenodd" clip-rule="evenodd"
        d="M22.2188 7.40625C22.2188 7.38544 22.2188 7.36456 22.2188 7.34375C22.2812 7.34375 22.3438 7.34375 22.4062 7.34375C22.3619 7.40025 22.2994 7.42106 22.2188 7.40625Z"
        fill="#90B517" />
    <path fill-rule="evenodd" clip-rule="evenodd"
        d="M22.0312 7.46875C22.0312 7.44794 22.0312 7.42706 22.0312 7.40625C22.0938 7.40625 22.1562 7.40625 22.2188 7.40625C22.1744 7.46275 22.1119 7.48356 22.0312 7.46875Z"
        fill="#8E8D13" />
    <path fill-rule="evenodd" clip-rule="evenodd"
        d="M21.9062 7.53125C21.9062 7.51044 21.9062 7.48956 21.9062 7.46875C21.9479 7.46875 21.9896 7.46875 22.0312 7.46875C22.0099 7.52112 21.9682 7.542 21.9062 7.53125Z"
        fill="#CFCF00" />
    <path fill-rule="evenodd" clip-rule="evenodd"
        d="M21.9062 7.53102C21.8814 7.59508 21.8398 7.60552 21.7812 7.56227C21.8184 7.53327 21.8601 7.52283 21.9062 7.53102Z"
        fill="#7DFA00" />
    <path fill-rule="evenodd" clip-rule="evenodd"
        d="M21.0938 7.84375C21.0938 7.82294 21.0938 7.80206 21.0938 7.78125C21.2604 7.80206 21.2604 7.82294 21.0938 7.84375Z"
        fill="#AEFA00" />
    <path fill-rule="evenodd" clip-rule="evenodd"
        d="M20.9688 7.84375C21.0104 7.84375 21.0521 7.84375 21.0938 7.84375C21.0521 7.92706 21.0104 7.92706 20.9688 7.84375Z"
        fill="#A7A800" />
    <path fill-rule="evenodd" clip-rule="evenodd"
        d="M11.4063 7.96875C11.4063 7.98956 11.4063 8.01044 11.4063 8.03125C11.2396 8.01044 11.2396 7.98956 11.4063 7.96875Z"
        fill="#B5DE00" />
    <path fill-rule="evenodd" clip-rule="evenodd"
        d="M11.4062 8.03102C11.4524 8.02283 11.4941 8.03327 11.5312 8.06227C11.4727 8.10552 11.4311 8.09508 11.4062 8.03102Z"
        fill="#9FC300" />
    <path fill-rule="evenodd" clip-rule="evenodd"
        d="M20.2812 8.15625C20.2812 8.13544 20.2812 8.11456 20.2812 8.09375C20.4479 8.11456 20.4479 8.13544 20.2812 8.15625Z"
        fill="#DDDE00" />
    <path fill-rule="evenodd" clip-rule="evenodd"
        d="M20.1562 8.21875C20.1562 8.19794 20.1562 8.17706 20.1562 8.15625C20.1979 8.15625 20.2396 8.15625 20.2812 8.15625C20.2599 8.20862 20.2182 8.2295 20.1562 8.21875Z"
        fill="#B0E400" />
    <path fill-rule="evenodd" clip-rule="evenodd"
        d="M11.9062 8.15662C11.9324 8.20175 11.974 8.233 12.0312 8.25037C11.9194 8.28287 11.8153 8.26206 11.7188 8.18787C11.778 8.15768 11.8405 8.14731 11.9062 8.15662Z"
        fill="#99E500" />
    <path fill-rule="evenodd" clip-rule="evenodd"
        d="M19.9688 8.28125C19.9688 8.26044 19.9688 8.23956 19.9688 8.21875C20.0312 8.21875 20.0938 8.21875 20.1562 8.21875C20.1119 8.27525 20.0494 8.29606 19.9688 8.28125Z"
        fill="#C1FA00" />
    <path fill-rule="evenodd" clip-rule="evenodd"
        d="M19.8438 8.34375C19.8438 8.32294 19.8438 8.30206 19.8438 8.28125C19.8854 8.28125 19.9271 8.28125 19.9688 8.28125C19.9474 8.33362 19.9057 8.3545 19.8438 8.34375Z"
        fill="#E4E400" />
    <path fill-rule="evenodd" clip-rule="evenodd"
        d="M19.6562 8.40625C19.6562 8.38544 19.6562 8.36456 19.6562 8.34375C19.7188 8.34375 19.7812 8.34375 19.8438 8.34375C19.7994 8.40025 19.7369 8.42106 19.6562 8.40625Z"
        fill="#DADA00" />
    <path fill-rule="evenodd" clip-rule="evenodd"
        d="M19.4688 8.46875C19.4688 8.44794 19.4688 8.42706 19.4688 8.40625C19.5312 8.40625 19.5938 8.40625 19.6562 8.40625C19.6119 8.46275 19.5494 8.48356 19.4688 8.46875Z"
        fill="#9A9A00" />
    <path fill-rule="evenodd" clip-rule="evenodd"
        d="M12.7188 8.46912C12.7401 8.5215 12.7818 8.54237 12.8438 8.53162C12.7444 8.60168 12.6402 8.59125 12.5312 8.50037C12.5905 8.47018 12.653 8.45981 12.7188 8.46912Z"
        fill="#D5E500" />
    <path fill-rule="evenodd" clip-rule="evenodd"
        d="M19.3438 8.53125C19.3438 8.51044 19.3438 8.48956 19.3438 8.46875C19.3854 8.46875 19.4271 8.46875 19.4688 8.46875C19.4474 8.52112 19.4057 8.542 19.3438 8.53125Z"
        fill="#B2B200" />
    <path fill-rule="evenodd" clip-rule="evenodd"
        d="M19.3438 8.53102C19.3189 8.59508 19.2773 8.60552 19.2188 8.56227C19.2559 8.53327 19.2976 8.52283 19.3438 8.53102Z"
        fill="#E0FA00" />
    <path fill-rule="evenodd" clip-rule="evenodd"
        d="M19.0312 8.65625C19.0312 8.63544 19.0312 8.61456 19.0312 8.59375C19.1979 8.61456 19.1979 8.63544 19.0312 8.65625Z"
        fill="#DDDE00" />
    <path fill-rule="evenodd" clip-rule="evenodd"
        d="M18.8438 8.65625C18.9062 8.65625 18.9688 8.65625 19.0312 8.65625C18.9378 8.77156 18.8336 8.79237 18.7188 8.71875C18.7807 8.7295 18.8224 8.70862 18.8438 8.65625Z"
        fill="#A7CD00" />
    <path fill-rule="evenodd" clip-rule="evenodd"
        d="M13.3438 8.71912C13.2968 8.78618 13.2343 8.79662 13.1562 8.75037C13.2155 8.72018 13.278 8.70981 13.3438 8.71912Z"
        fill="#D4FB00" />
    <path fill-rule="evenodd" clip-rule="evenodd"
        d="M18.5312 8.84375C18.5312 8.82294 18.5312 8.80206 18.5312 8.78125C18.6979 8.80206 18.6979 8.82294 18.5312 8.84375Z"
        fill="#98E500" />
    <path fill-rule="evenodd" clip-rule="evenodd"
        d="M13.5312 8.78102C13.5526 8.8334 13.5943 8.85427 13.6562 8.84352C13.5719 8.92458 13.4886 8.91415 13.4062 8.81227C13.4434 8.78327 13.4851 8.77283 13.5312 8.78102Z"
        fill="#ABC500" />
    <path fill-rule="evenodd" clip-rule="evenodd"
        d="M18.4062 8.90625C18.4062 8.88544 18.4062 8.86456 18.4062 8.84375C18.4479 8.84375 18.4896 8.84375 18.5312 8.84375C18.5099 8.89612 18.4682 8.917 18.4062 8.90625Z"
        fill="#D8E900" />
    <path fill-rule="evenodd" clip-rule="evenodd"
        d="M18.2188 8.96875C18.2188 8.94794 18.2188 8.92706 18.2188 8.90625C18.2812 8.90625 18.3438 8.90625 18.4062 8.90625C18.3619 8.96275 18.2994 8.98356 18.2188 8.96875Z"
        fill="#B9B900" />
    <path fill-rule="evenodd" clip-rule="evenodd"
        d="M18.0312 8.96875C18.0938 8.96875 18.1562 8.96875 18.2188 8.96875C18.1388 9.05819 18.0346 9.09987 17.9062 9.09375C17.9062 9.07294 17.9062 9.05206 17.9062 9.03125C17.9682 9.042 18.0099 9.02112 18.0312 8.96875Z"
        fill="#BBD012" />
    <path fill-rule="evenodd" clip-rule="evenodd"
        d="M17.7188 9.15625C17.7188 9.13544 17.7188 9.11456 17.7188 9.09375C17.7812 9.09375 17.8438 9.09375 17.9062 9.09375C17.8619 9.15025 17.7994 9.17106 17.7188 9.15625Z"
        fill="#B9B900" />
    <path fill-rule="evenodd" clip-rule="evenodd"
        d="M17.5938 9.21875C17.5938 9.19794 17.5938 9.17706 17.5938 9.15625C17.6354 9.15625 17.6771 9.15625 17.7188 9.15625C17.6974 9.20862 17.6557 9.2295 17.5938 9.21875Z"
        fill="#E9E900" />
    <path fill-rule="evenodd" clip-rule="evenodd"
        d="M14.5938 9.21852C14.5689 9.28258 14.5273 9.29302 14.4688 9.24977C14.5059 9.22077 14.5476 9.21033 14.5938 9.21852Z"
        fill="#F9FA00" />
    <path fill-rule="evenodd" clip-rule="evenodd"
        d="M17.5938 9.21852C17.5689 9.28258 17.5273 9.29302 17.4688 9.24977C17.5059 9.22077 17.5476 9.21033 17.5938 9.21852Z"
        fill="#8CA500" />
    <path fill-rule="evenodd" clip-rule="evenodd"
        d="M17.2188 9.28162C17.2845 9.27231 17.347 9.28268 17.4062 9.31287C17.3109 9.37593 17.2067 9.40718 17.0938 9.40662C17.0938 9.38581 17.0938 9.36493 17.0938 9.34412C17.1557 9.35487 17.1974 9.334 17.2188 9.28162Z"
        fill="#92BF10" />
    <path fill-rule="evenodd" clip-rule="evenodd"
        d="M14.9063 9.34375C14.9063 9.36456 14.9063 9.38544 14.9063 9.40625C14.7396 9.38544 14.7396 9.36456 14.9063 9.34375Z"
        fill="#A8FA00" />
    <path fill-rule="evenodd" clip-rule="evenodd"
        d="M14.9062 9.40662C14.972 9.39731 15.0345 9.40768 15.0938 9.43787C15.0157 9.48412 14.9532 9.47368 14.9062 9.40662Z"
        fill="#D9D900" />
    <path fill-rule="evenodd" clip-rule="evenodd"
        d="M17.0938 9.40662C17.0468 9.47368 16.9843 9.48412 16.9062 9.43787C16.9655 9.40768 17.028 9.39731 17.0938 9.40662Z"
        fill="#D9D900" />
    <path fill-rule="evenodd" clip-rule="evenodd"
        d="M16.5312 9.46876C16.888 9.46826 16.9088 9.49951 16.5938 9.56251C16.2188 9.60419 15.8438 9.60419 15.4688 9.56251C15.8343 9.55169 16.1884 9.52044 16.5312 9.46876Z"
        fill="#D4E400" />
    <path fill-rule="evenodd" clip-rule="evenodd"
        d="M10.0938 9.65641C10.1781 9.57534 10.2614 9.58578 10.3438 9.68766C10.3066 9.71666 10.2649 9.72709 10.2188 9.71891C10.1974 9.66653 10.1557 9.64566 10.0938 9.65641Z"
        fill="#173D9F" />
    <path fill-rule="evenodd" clip-rule="evenodd"
        d="M21.6562 9.71889C21.7251 9.65027 21.8084 9.63983 21.9062 9.68764C21.8254 9.71827 21.7421 9.7287 21.6562 9.71889Z"
        fill="#1334AD" />
    <path fill-rule="evenodd" clip-rule="evenodd"
        d="M10.5938 9.78102C10.5476 9.78921 10.5059 9.77877 10.4688 9.74977C10.5273 9.70652 10.5689 9.71696 10.5938 9.78102Z"
        fill="#26BEDE" />
    <path fill-rule="evenodd" clip-rule="evenodd"
        d="M10.0938 9.65625C10.1151 9.70862 10.1568 9.7295 10.2188 9.71875C10.3259 9.79613 10.4509 9.83781 10.5938 9.84375C10.6151 9.89612 10.6568 9.917 10.7188 9.90625C10.7631 9.96275 10.8256 9.98356 10.9062 9.96875C10.9276 10.0211 10.9693 10.042 11.0312 10.0312C11.0756 10.0877 11.1381 10.1086 11.2188 10.0938C11.2631 10.1502 11.3256 10.1711 11.4062 10.1562C11.4276 10.2086 11.4693 10.2295 11.5312 10.2188C11.6112 10.3082 11.7154 10.3499 11.8438 10.3438C11.8881 10.4002 11.9506 10.4211 12.0312 10.4062C12.1112 10.4957 12.2154 10.5374 12.3438 10.5312C12.3651 10.5836 12.4068 10.6045 12.4688 10.5938C12.5131 10.6502 12.5756 10.6711 12.6562 10.6562C12.7006 10.7127 12.7631 10.7336 12.8438 10.7188C12.8651 10.7711 12.9068 10.792 12.9688 10.7812C13.0131 10.8377 13.0756 10.8586 13.1562 10.8438C13.1776 10.8961 13.2193 10.917 13.2812 10.9062C13.3256 10.9627 13.3881 10.9836 13.4688 10.9688C13.5131 11.0252 13.5756 11.0461 13.6562 11.0312C13.6776 11.0836 13.7193 11.1045 13.7812 11.0938C13.8256 11.1502 13.8881 11.1711 13.9688 11.1562C13.9901 11.2086 14.0318 11.2295 14.0938 11.2188C14.1381 11.2752 14.2006 11.2961 14.2812 11.2812C14.3256 11.3377 14.3881 11.3586 14.4688 11.3438C14.5355 11.4021 14.6188 11.423 14.7188 11.4062C14.9729 11.5011 15.2437 11.5532 15.5312 11.5625C15.8553 11.6135 16.1678 11.6031 16.4688 11.5312C16.7771 11.5482 17.0687 11.5065 17.3438 11.4062C17.4244 11.4211 17.4869 11.4002 17.5312 11.3438C17.7979 11.2965 18.0479 11.2132 18.2812 11.0938C18.3432 11.1045 18.3849 11.0836 18.4062 11.0312C18.7427 10.9541 19.0552 10.8291 19.3438 10.6562C19.4244 10.6711 19.4869 10.6502 19.5312 10.5938C19.6119 10.6086 19.6744 10.5877 19.7188 10.5312C19.7807 10.542 19.8224 10.5211 19.8438 10.4688C19.9721 10.4749 20.0763 10.4332 20.1562 10.3438C20.2369 10.3586 20.2994 10.3377 20.3438 10.2812C20.4244 10.2961 20.4869 10.2752 20.5312 10.2188C20.5932 10.2295 20.6349 10.2086 20.6562 10.1562C20.7369 10.1711 20.7994 10.1502 20.8438 10.0938C20.9057 10.1045 20.9474 10.0836 20.9688 10.0312C21.2301 9.95456 21.4905 9.87125 21.75 9.78125C21.9934 9.8875 22.2122 10.0334 22.4062 10.2188C22.4062 10.2604 22.4271 10.2812 22.4688 10.2812C22.4688 10.3229 22.4896 10.3438 22.5312 10.3438C22.5312 10.3854 22.5521 10.4062 22.5938 10.4062C22.5938 10.4479 22.6146 10.4688 22.6562 10.4688C22.8665 10.7411 23.0749 11.0119 23.2812 11.2812C23.4491 11.617 23.6158 11.9503 23.7812 12.2812C23.808 12.4866 23.8705 12.6741 23.9688 12.8438C24.0006 13.1494 24.0631 13.4411 24.1562 13.7188C24.2358 15.0107 24.2358 16.3024 24.1562 17.5938C24.0998 17.6381 24.0789 17.7006 24.0938 17.7812C24.0164 17.8884 23.9747 18.0134 23.9688 18.1562C23.9164 18.1776 23.8955 18.2193 23.9062 18.2812C23.8329 18.3446 23.7912 18.4279 23.7812 18.5312C23.7289 18.5526 23.708 18.5943 23.7188 18.6562C23.6664 18.6776 23.6455 18.7193 23.6562 18.7812C23.6146 18.7812 23.5938 18.8021 23.5938 18.8438C23.5414 18.8651 23.5205 18.9068 23.5312 18.9688C23.4896 18.9688 23.4688 18.9896 23.4688 19.0312C23.3411 19.0987 23.2578 19.2029 23.2188 19.3438C23.1771 19.3438 23.1562 19.3646 23.1562 19.4062C23.1146 19.4062 23.0938 19.4271 23.0938 19.4688C23.0521 19.4688 23.0312 19.4896 23.0312 19.5312C22.9896 19.5312 22.9688 19.5521 22.9688 19.5938C22.9271 19.5938 22.9062 19.6146 22.9062 19.6562C22.8646 19.6562 22.8438 19.6771 22.8438 19.7188C22.7029 19.7578 22.5987 19.8411 22.5312 19.9688C22.4896 19.9688 22.4688 19.9896 22.4688 20.0312C22.4068 20.0205 22.3651 20.0414 22.3438 20.0938C22.3021 20.0938 22.2812 20.1146 22.2812 20.1562C22.2193 20.1455 22.1776 20.1664 22.1562 20.2188C22.1146 20.2188 22.0938 20.2396 22.0938 20.2812C21.9168 20.3174 21.771 20.4007 21.6562 20.5312C21.5943 20.5205 21.5526 20.5414 21.5312 20.5938C21.4693 20.583 21.4276 20.6039 21.4062 20.6562C21.3443 20.6455 21.3026 20.6664 21.2812 20.7188C21.1529 20.7126 21.0487 20.7543 20.9688 20.8438C20.8881 20.8289 20.8256 20.8498 20.7812 20.9062C20.7193 20.8955 20.6776 20.9164 20.6562 20.9688C20.2409 21.0621 19.8242 21.1559 19.4062 21.25C17.2812 21.2708 15.1562 21.2917 13.0312 21.3125C12.9539 21.327 12.8914 21.3582 12.8438 21.4062C12.8021 21.4062 12.7812 21.4271 12.7812 21.4688C12.7289 21.4901 12.708 21.5318 12.7188 21.5938C12.6354 22.0104 12.6354 22.4271 12.7188 22.8438C12.7118 22.8823 12.691 22.9136 12.6562 22.9375C12.6969 23.2573 12.7802 23.5594 12.9062 23.8438C13.1509 24.4985 13.63 24.8318 14.3438 24.8438C17.104 24.9062 19.8748 24.927 22.6562 24.9062C22.723 24.9646 22.8063 24.9855 22.9062 24.9688C22.9556 25.0251 23.0181 25.0667 23.0938 25.0938C23.0938 25.1354 23.1146 25.1562 23.1562 25.1562C23.2195 25.242 23.282 25.3253 23.3438 25.4062C23.4008 26.4883 23.4216 27.5716 23.4062 28.6562C23.3462 28.7666 23.3253 28.8916 23.3438 29.0312C23.2914 29.0526 23.2705 29.0943 23.2812 29.1562C23.2396 29.1562 23.2188 29.1771 23.2188 29.2188C23.1771 29.2188 23.1562 29.2396 23.1562 29.2812C23.0943 29.2705 23.0526 29.2914 23.0312 29.3438C22.9506 29.3289 22.8881 29.3498 22.8438 29.4062C19.677 29.4167 16.5104 29.4062 13.3438 29.375C12.7521 29.3219 12.1688 29.2282 11.5938 29.0938C11.4505 28.9833 11.2839 28.9208 11.0938 28.9062C11.0138 28.8168 10.9096 28.7751 10.7812 28.7812C10.4796 28.5783 10.1671 28.3908 9.84375 28.2188C9.79612 28.1086 9.71275 28.0461 9.59375 28.0312C9.57294 27.9688 9.53125 27.9271 9.46875 27.9062C9.46875 27.8646 9.44794 27.8438 9.40625 27.8438C9.38544 27.7812 9.34375 27.7396 9.28125 27.7188C9.26044 27.6562 9.21875 27.6146 9.15625 27.5938C9.13544 27.5312 9.09375 27.4896 9.03125 27.4688C9.03125 27.4271 9.01044 27.4062 8.96875 27.4062C8.8835 27.3006 8.80019 27.1964 8.71875 27.0938C8.60844 26.8932 8.48344 26.7057 8.34375 26.5312C8.31319 26.4378 8.27156 26.3544 8.21875 26.2812C8.19175 26.2056 8.15006 26.1431 8.09375 26.0938C8.10856 26.0131 8.08775 25.9506 8.03125 25.9062C8.042 25.8443 8.02112 25.8026 7.96875 25.7812C7.98356 25.7006 7.96275 25.6381 7.90625 25.5938C7.92106 25.5131 7.90025 25.4506 7.84375 25.4062C7.85856 25.3256 7.83775 25.2631 7.78125 25.2188C7.798 25.1188 7.77713 25.0355 7.71875 24.9688C7.62944 24.3987 7.54613 23.8362 7.46875 23.2812C7.46906 20.4479 7.46906 17.6146 7.46875 14.7812C7.54331 14.3689 7.585 13.9523 7.59375 13.5312C7.65213 13.4645 7.673 13.3812 7.65625 13.2812C7.74456 13.1113 7.78625 12.9238 7.78125 12.7188C7.89169 12.5755 7.95419 12.4089 7.96875 12.2188C8.16 11.8155 8.36831 11.4197 8.59375 11.0312C8.63544 11.0312 8.65625 11.0104 8.65625 10.9688C8.718 10.8878 8.7805 10.8045 8.84375 10.7188C8.88544 10.7188 8.90625 10.6979 8.90625 10.6562C9.09375 10.4271 9.30206 10.2188 9.53125 10.0312C9.57294 10.0312 9.59375 10.0104 9.59375 9.96875C9.7615 9.86294 9.92819 9.75875 10.0938 9.65625ZM10.5938 9.78125C10.7127 9.79975 10.8169 9.84144 10.9062 9.90625C10.8438 9.90625 10.7812 9.90625 10.7188 9.90625C10.6568 9.917 10.6151 9.89612 10.5938 9.84375C10.5938 9.82294 10.5938 9.80206 10.5938 9.78125ZM20.9688 9.96875C20.9688 9.98956 20.9688 10.0104 20.9688 10.0312C20.9474 10.0836 20.9057 10.1045 20.8438 10.0938C20.7812 10.0938 20.7188 10.0938 20.6562 10.0938C20.7456 10.0289 20.8498 9.98725 20.9688 9.96875ZM11.5312 10.1562C11.4896 10.1562 11.4479 10.1562 11.4062 10.1562C11.3256 10.1711 11.2631 10.1502 11.2188 10.0938C11.3336 10.0201 11.4378 10.0409 11.5312 10.1562ZM20.3438 10.2812C20.2994 10.3377 20.2369 10.3586 20.1562 10.3438C19.9939 10.3299 19.9939 10.2987 20.1562 10.25C20.2343 10.2037 20.2968 10.2142 20.3438 10.2812ZM12.3438 10.4688C12.4627 10.4873 12.5669 10.5289 12.6562 10.5938C12.5938 10.5938 12.5312 10.5938 12.4688 10.5938C12.4068 10.6045 12.3651 10.5836 12.3438 10.5312C12.3438 10.5104 12.3438 10.4896 12.3438 10.4688ZM19.5312 10.5938C19.4869 10.6502 19.4244 10.6711 19.3438 10.6562C19.1814 10.6424 19.1814 10.6112 19.3438 10.5625C19.4218 10.5162 19.4843 10.5267 19.5312 10.5938ZM12.6562 10.5938C12.7846 10.5876 12.8888 10.6293 12.9688 10.7188C12.9271 10.7188 12.8854 10.7188 12.8438 10.7188C12.7631 10.7336 12.7006 10.7127 12.6562 10.6562C12.6562 10.6354 12.6562 10.6146 12.6562 10.5938ZM12.9688 10.7188C13.0971 10.7126 13.2013 10.7543 13.2812 10.8438C13.2396 10.8438 13.1979 10.8438 13.1562 10.8438C13.0756 10.8586 13.0131 10.8377 12.9688 10.7812C12.9688 10.7604 12.9688 10.7396 12.9688 10.7188ZM13.7812 11.0312C13.7396 11.0312 13.6979 11.0312 13.6562 11.0312C13.5756 11.0461 13.5131 11.0252 13.4688 10.9688C13.5836 10.8951 13.6878 10.9159 13.7812 11.0312ZM18.4062 10.9688C18.4062 10.9896 18.4062 11.0104 18.4062 11.0312C18.3849 11.0836 18.3432 11.1045 18.2812 11.0938C18.2155 11.1031 18.153 11.0927 18.0938 11.0625C18.1971 11.0245 18.3013 10.9932 18.4062 10.9688ZM13.7812 11.0312C13.9096 11.0251 14.0138 11.0668 14.0938 11.1562C14.0521 11.1562 14.0104 11.1562 13.9688 11.1562C13.8881 11.1711 13.8256 11.1502 13.7812 11.0938C13.7812 11.0729 13.7812 11.0521 13.7812 11.0312ZM17.6562 13.2188C17.7822 13.3078 17.928 13.3494 18.0938 13.3438C18.0938 13.3646 18.0938 13.3854 18.0938 13.4062C18.2121 13.5742 18.2538 13.5742 18.2188 13.4062C18.3394 13.4232 18.4227 13.4857 18.4688 13.5938C18.4688 13.6354 18.4896 13.6562 18.5312 13.6562C18.5312 13.6979 18.5521 13.7188 18.5938 13.7188C18.5938 13.7604 18.6146 13.7812 18.6562 13.7812C18.6455 13.8432 18.6664 13.8849 18.7188 13.9062C18.708 13.9682 18.7289 14.0099 18.7812 14.0312C18.7664 14.1119 18.7873 14.1744 18.8438 14.2188C18.9058 14.3796 18.9579 14.5463 19 14.7188C19.0417 15.3021 19.0417 15.8854 19 16.4688C18.9509 16.5781 18.8989 16.6823 18.8438 16.7812C18.7914 16.8026 18.7705 16.8443 18.7812 16.9062C18.7396 16.9062 18.7188 16.9271 18.7188 16.9688C18.6146 17.0312 18.5312 17.1146 18.4688 17.2188C18.4271 17.2188 18.4062 17.2396 18.4062 17.2812C18.3443 17.2705 18.3026 17.2914 18.2812 17.3438C18.2396 17.3438 18.2188 17.3646 18.2188 17.4062C18.0904 17.4001 17.9862 17.4418 17.9062 17.5312C17.7851 17.6352 17.6392 17.6768 17.4688 17.6562C17.5381 17.6069 17.6214 17.5756 17.7188 17.5625C17.4956 17.5345 17.2872 17.5658 17.0938 17.6562C17.0938 17.6771 17.0938 17.6979 17.0938 17.7188C15.7188 17.7188 14.3438 17.7188 12.9688 17.7188C12.9688 17.6979 12.9688 17.6771 12.9688 17.6562C12.9479 17.5938 12.9062 17.5521 12.8438 17.5312C12.7815 16.6673 12.7607 15.7923 12.7812 14.9062C12.7933 14.6081 12.8453 14.3165 12.9375 14.0312C12.9811 13.9568 13.0332 13.8943 13.0938 13.8438C13.1461 13.8224 13.167 13.7807 13.1562 13.7188C13.1979 13.7188 13.2188 13.6979 13.2188 13.6562C13.2604 13.6562 13.2812 13.6354 13.2812 13.5938C13.3229 13.5938 13.3438 13.5729 13.3438 13.5312C13.4057 13.542 13.4474 13.5211 13.4688 13.4688C13.5642 13.4733 13.6267 13.4316 13.6562 13.3438C13.7562 13.3605 13.8395 13.3396 13.9062 13.2812C14.0671 13.2192 14.2338 13.1671 14.4062 13.125C15.3854 13.0833 16.3646 13.0833 17.3438 13.125C17.4614 13.1374 17.5655 13.1686 17.6562 13.2188ZM17.6562 13.2188C17.822 13.2131 17.9678 13.2547 18.0938 13.3438C17.928 13.3494 17.7822 13.3078 17.6562 13.2188ZM13.4688 13.4688C13.5642 13.4733 13.6267 13.4316 13.6562 13.3438C13.5608 13.3392 13.4983 13.3809 13.4688 13.4688ZM12.7812 14.9062C12.7607 15.7923 12.7815 16.6673 12.8438 17.5312C12.8438 17.5729 12.8438 17.6146 12.8438 17.6562C12.8052 17.6493 12.7739 17.6285 12.75 17.5938C12.6983 16.6871 12.7087 15.7913 12.7812 14.9062ZM18.7188 16.9688C18.6979 17.1146 18.6146 17.1979 18.4688 17.2188C18.5312 17.1146 18.6146 17.0312 18.7188 16.9688ZM18.2188 17.4062C18.1388 17.4957 18.0346 17.5374 17.9062 17.5312C17.9862 17.4418 18.0904 17.4001 18.2188 17.4062Z"
        fill="#005D9C" />
    <path fill-rule="evenodd" clip-rule="evenodd"
        d="M10.9062 9.9692C10.9062 9.94839 10.9062 9.92752 10.9062 9.9067C11.0064 9.89495 11.0898 9.9262 11.1562 10.0005C11.1191 10.0295 11.0774 10.0399 11.0312 10.0317C11.0099 9.97933 10.9682 9.95845 10.9062 9.9692Z"
        fill="#1A597F" />
    <path fill-rule="evenodd" clip-rule="evenodd"
        d="M20.9688 9.96852C20.9936 9.90446 21.0352 9.89402 21.0938 9.93727C21.0566 9.96627 21.0149 9.97671 20.9688 9.96852Z"
        fill="#007D7C" />
    <path fill-rule="evenodd" clip-rule="evenodd"
        d="M9.59355 9.96875C9.55187 9.96875 9.53105 9.98956 9.53105 10.0312C9.37637 10.0158 9.37637 9.97419 9.53105 9.90625C9.56899 9.914 9.5898 9.93481 9.59355 9.96875Z"
        fill="#294B72" />
    <path fill-rule="evenodd" clip-rule="evenodd"
        d="M11.5312 10.2188C11.5312 10.1979 11.5312 10.1771 11.5312 10.1562C11.6979 10.1771 11.6979 10.1979 11.5312 10.2188Z"
        fill="#097485" />
    <path fill-rule="evenodd" clip-rule="evenodd"
        d="M20.6562 10.0942C20.6562 10.115 20.6562 10.1359 20.6562 10.1567C20.5943 10.146 20.5526 10.1668 20.5312 10.2192C20.4851 10.2274 20.4434 10.217 20.4062 10.188C20.4727 10.1137 20.5561 10.0825 20.6562 10.0942Z"
        fill="#18577D" />
    <path fill-rule="evenodd" clip-rule="evenodd"
        d="M12.0312 10.3434C11.9688 10.3434 11.9062 10.3434 11.8438 10.3434C11.8176 10.2983 11.776 10.2671 11.7188 10.2497C11.8459 10.2122 11.9501 10.2435 12.0312 10.3434Z"
        fill="#165860" />
    <path fill-rule="evenodd" clip-rule="evenodd"
        d="M22.4062 10.2191C22.5415 10.1804 22.6456 10.2429 22.7188 10.4066C22.711 10.4445 22.6902 10.4653 22.6562 10.4691C22.6146 10.4691 22.5938 10.4483 22.5938 10.4066C22.5521 10.4066 22.5312 10.3858 22.5312 10.3441C22.4896 10.3441 22.4688 10.3233 22.4688 10.2816C22.4271 10.2816 22.4062 10.2608 22.4062 10.2191Z"
        fill="#3443C2" />
    <path fill-rule="evenodd" clip-rule="evenodd"
        d="M12.0312 10.4062C12.0312 10.3854 12.0312 10.3646 12.0312 10.3438C12.1979 10.3646 12.1979 10.3854 12.0312 10.4062Z"
        fill="#152EDE" />
    <path fill-rule="evenodd" clip-rule="evenodd"
        d="M12.3438 10.4685C12.2976 10.4767 12.2559 10.4663 12.2188 10.4373C12.2773 10.394 12.3189 10.4045 12.3438 10.4685Z"
        fill="#166E8B" />
    <path fill-rule="evenodd" clip-rule="evenodd"
        d="M19.8439 10.4687C19.7819 10.458 19.7403 10.4789 19.7189 10.5312C19.6014 10.5379 19.5806 10.5067 19.6564 10.4375C19.7344 10.3912 19.7969 10.4017 19.8439 10.4687Z"
        fill="#2299B8" />
    <path fill-rule="evenodd" clip-rule="evenodd"
        d="M8.90643 10.6562C8.86474 10.6562 8.84393 10.6771 8.84393 10.7188C8.76812 10.6564 8.77855 10.5939 8.87518 10.5312C8.90418 10.5684 8.91462 10.6101 8.90643 10.6562Z"
        fill="#294B83" />
    <path fill-rule="evenodd" clip-rule="evenodd"
        d="M13.2812 10.9062C13.2812 10.8854 13.2812 10.8646 13.2812 10.8438C13.4479 10.8646 13.4479 10.8854 13.2812 10.9062Z"
        fill="#166E8B" />
    <path fill-rule="evenodd" clip-rule="evenodd"
        d="M18.4062 10.9685C18.4311 10.9045 18.4727 10.894 18.5312 10.9373C18.4941 10.9663 18.4524 10.9767 18.4062 10.9685Z"
        fill="#007D7C" />
    <path fill-rule="evenodd" clip-rule="evenodd"
        d="M8.65643 10.9688C8.61474 10.9688 8.59393 10.9896 8.59393 11.0312C8.51812 10.9689 8.52855 10.9064 8.62518 10.8438C8.65418 10.8809 8.66462 10.9226 8.65643 10.9688Z"
        fill="#1D4F88" />
    <path fill-rule="evenodd" clip-rule="evenodd"
        d="M14.0938 11.2188C14.0938 11.1979 14.0938 11.1771 14.0938 11.1562C14.2604 11.1771 14.2604 11.1979 14.0938 11.2188Z"
        fill="#0050A8" />
    <path fill-rule="evenodd" clip-rule="evenodd"
        d="M14.2812 11.2808C14.4346 11.2093 14.5804 11.2301 14.7188 11.3433C14.6354 11.3433 14.5521 11.3433 14.4688 11.3433C14.4244 11.2868 14.3619 11.266 14.2812 11.2808Z"
        fill="#25366B" />
    <path fill-rule="evenodd" clip-rule="evenodd"
        d="M23.3438 11.2813C23.3229 11.2813 23.3021 11.2813 23.2812 11.2813C23.3021 11.1146 23.3229 11.1146 23.3438 11.2813Z"
        fill="#165F99" />
    <path fill-rule="evenodd" clip-rule="evenodd"
        d="M23.3438 11.2812C23.4271 11.3229 23.4271 11.3229 23.3438 11.2812Z" fill="#0050A8" />
    <path fill-rule="evenodd" clip-rule="evenodd"
        d="M14.7188 11.4062C14.7188 11.3854 14.7188 11.3646 14.7188 11.3438C14.9688 11.3646 14.9688 11.3854 14.7188 11.4062Z"
        fill="#126098" />
    <path fill-rule="evenodd" clip-rule="evenodd"
        d="M17.5315 11.3438C17.4508 11.3289 17.3883 11.3498 17.344 11.4062C17.037 11.3853 17.0579 11.3436 17.4065 11.2812C17.4637 11.2839 17.5054 11.3047 17.5315 11.3438Z"
        fill="#21659A" />
    <path fill-rule="evenodd" clip-rule="evenodd"
        d="M16.4688 11.5312C16.0079 11.5385 15.5495 11.5073 15.0938 11.4375C15.6148 11.4744 16.1356 11.4639 16.6562 11.4062C16.7604 11.4167 16.8646 11.4271 16.9688 11.4375C16.7897 11.4489 16.6231 11.4802 16.4688 11.5312Z"
        fill="#224E7F" />
    <path fill-rule="evenodd" clip-rule="evenodd"
        d="M7.96875 12.2188C7.94794 12.2188 7.92706 12.2188 7.90625 12.2188C7.92706 12.0521 7.94794 12.0521 7.96875 12.2188Z"
        fill="#004A99" />
    <path fill-rule="evenodd" clip-rule="evenodd"
        d="M23.8438 12.2813C23.8229 12.2813 23.8021 12.2813 23.7812 12.2813C23.8021 12.1146 23.8229 12.1146 23.8438 12.2813Z"
        fill="#0C7DA6" />
    <path fill-rule="evenodd" clip-rule="evenodd"
        d="M7.90602 12.2188C7.91421 12.2649 7.90377 12.3066 7.87477 12.3438C7.83152 12.2852 7.84196 12.2436 7.90602 12.2188Z"
        fill="#1C7DA5" />
    <path fill-rule="evenodd" clip-rule="evenodd"
        d="M23.8435 12.2812C23.9076 12.3061 23.918 12.3477 23.8748 12.4062C23.8458 12.3691 23.8353 12.3274 23.8435 12.2812Z"
        fill="#0F527D" />
    <path fill-rule="evenodd" clip-rule="evenodd"
        d="M7.78125 12.7188C7.76044 12.7188 7.73956 12.7188 7.71875 12.7188C7.73956 12.5521 7.76044 12.5521 7.78125 12.7188Z"
        fill="#045D9C" />
    <path fill-rule="evenodd" clip-rule="evenodd"
        d="M24.0312 12.8438C24.0104 12.8438 23.9896 12.8438 23.9688 12.8438C23.9896 12.5938 24.0104 12.5938 24.0312 12.8438Z"
        fill="#2B69BB" />
    <path fill-rule="evenodd" clip-rule="evenodd"
        d="M7.71889 12.7188C7.7287 12.8046 7.71827 12.8879 7.68764 12.9688C7.63983 12.8709 7.65027 12.7876 7.71889 12.7188Z"
        fill="#2A547A" />
    <path fill-rule="evenodd" clip-rule="evenodd"
        d="M24.0311 12.8438C24.0982 12.8907 24.1086 12.9532 24.0624 13.0312C24.0322 12.972 24.0218 12.9095 24.0311 12.8438Z"
        fill="#1246BC" />
    <path fill-rule="evenodd" clip-rule="evenodd"
        d="M7.65613 13.2812C7.59775 13.348 7.57688 13.4313 7.59363 13.5312C7.52219 13.3707 7.53263 13.2041 7.62488 13.0312C7.6555 13.1121 7.66594 13.1954 7.65613 13.2812Z"
        fill="#1E5E88" />
    <path fill-rule="evenodd" clip-rule="evenodd"
        d="M18.0938 13.4062C18.1354 13.4062 18.1771 13.4062 18.2188 13.4062C18.2538 13.5742 18.2121 13.5742 18.0938 13.4062Z"
        fill="#1B5273" />
    <path fill-rule="evenodd" clip-rule="evenodd"
        d="M24.2188 13.7188C24.1979 13.7188 24.1771 13.7188 24.1562 13.7188C24.1771 13.3021 24.1979 13.3021 24.2188 13.7188Z"
        fill="#146EA1" />
    <path fill-rule="evenodd" clip-rule="evenodd"
        d="M24.2187 13.7188C24.2895 13.8729 24.3 14.0396 24.2499 14.2188C24.2188 14.0534 24.2084 13.8867 24.2187 13.7188Z"
        fill="#2E7E99" />
    <path fill-rule="evenodd" clip-rule="evenodd"
        d="M24.2813 14.4688C24.3538 15.3329 24.3642 16.2079 24.3125 17.0938C24.2813 16.219 24.2708 15.344 24.2813 14.4688Z"
        fill="#12798B" />
    <path fill-rule="evenodd" clip-rule="evenodd"
        d="M24.2186 17.5938C24.2085 17.4671 24.2189 17.3421 24.2498 17.2188C24.2991 17.357 24.2887 17.482 24.2186 17.5938Z"
        fill="#335998" />
    <path fill-rule="evenodd" clip-rule="evenodd"
        d="M12.8438 17.5312C12.9062 17.5521 12.9479 17.5938 12.9688 17.6562C12.9271 17.6562 12.8854 17.6562 12.8438 17.6562C12.8438 17.6146 12.8438 17.5729 12.8438 17.5312Z"
        fill="#154672" />
    <path fill-rule="evenodd" clip-rule="evenodd"
        d="M17.4688 17.6564C17.3438 17.6564 17.2188 17.6564 17.0938 17.6564C17.2872 17.5659 17.4956 17.5347 17.7188 17.5627C17.6214 17.5758 17.5381 17.607 17.4688 17.6564Z"
        fill="#2A6DA6" />
    <path fill-rule="evenodd" clip-rule="evenodd"
        d="M24.1562 17.5938C24.1771 17.5938 24.1979 17.5938 24.2188 17.5938C24.2336 17.6744 24.2127 17.7369 24.1562 17.7812C24.1562 17.7188 24.1562 17.6562 24.1562 17.5938Z"
        fill="#0976A2" />
    <path fill-rule="evenodd" clip-rule="evenodd"
        d="M24.0938 17.7812C24.1146 17.7812 24.1354 17.7812 24.1562 17.7812C24.1354 18.0312 24.1146 18.0312 24.0938 17.7812Z"
        fill="#153D7B" />
    <path fill-rule="evenodd" clip-rule="evenodd"
        d="M24.031 18.1562C24.0228 18.1101 24.0333 18.0684 24.0623 18.0312C24.1055 18.0898 24.0951 18.1314 24.031 18.1562Z"
        fill="#007D7C" />
    <path fill-rule="evenodd" clip-rule="evenodd"
        d="M23.9688 18.1562C23.9896 18.1562 24.0104 18.1562 24.0312 18.1562C24.042 18.2182 24.0211 18.2599 23.9688 18.2812C23.9688 18.2396 23.9688 18.1979 23.9688 18.1562Z"
        fill="#0B7D91" />
    <path fill-rule="evenodd" clip-rule="evenodd"
        d="M23.9062 18.2812C23.9271 18.2812 23.9479 18.2812 23.9688 18.2812C23.9479 18.4479 23.9271 18.4479 23.9062 18.2812Z"
        fill="#152EDE" />
    <path fill-rule="evenodd" clip-rule="evenodd"
        d="M23.8438 18.4688C23.9271 18.5104 23.9271 18.5104 23.8438 18.4688Z" fill="#0050A8" />
    <path fill-rule="evenodd" clip-rule="evenodd"
        d="M23.7812 18.5312C23.8021 18.5312 23.8229 18.5312 23.8438 18.5312C23.8545 18.5932 23.8336 18.6349 23.7812 18.6562C23.7812 18.6146 23.7812 18.5729 23.7812 18.5312Z"
        fill="#1FB7CF" />
    <path fill-rule="evenodd" clip-rule="evenodd"
        d="M23.7188 18.6562C23.7396 18.6562 23.7604 18.6562 23.7812 18.6562C23.792 18.7182 23.7711 18.7599 23.7188 18.7812C23.7188 18.7396 23.7188 18.6979 23.7188 18.6562Z"
        fill="#122B2A" />
    <path fill-rule="evenodd" clip-rule="evenodd"
        d="M23.6562 18.7812C23.6771 18.7812 23.6979 18.7812 23.7188 18.7812C23.7072 18.8231 23.6863 18.8231 23.6562 18.7812Z"
        fill="#003D7D" />
    <path fill-rule="evenodd" clip-rule="evenodd"
        d="M23.5938 18.8438C23.6146 18.8438 23.6354 18.8438 23.6562 18.8438C23.667 18.9057 23.6461 18.9474 23.5938 18.9688C23.5938 18.9271 23.5938 18.8854 23.5938 18.8438Z"
        fill="#151E37" />
    <path fill-rule="evenodd" clip-rule="evenodd"
        d="M23.5312 18.9688C23.5521 18.9688 23.5729 18.9688 23.5938 18.9688C23.5822 19.0106 23.5613 19.0106 23.5312 18.9688Z"
        fill="#007D7C" />
    <path fill-rule="evenodd" clip-rule="evenodd"
        d="M23.4688 19.0312C23.4896 19.0312 23.5104 19.0312 23.5312 19.0312C23.5197 19.0731 23.4988 19.0731 23.4688 19.0312Z"
        fill="#0050A8" />
    <path fill-rule="evenodd" clip-rule="evenodd"
        d="M23.2188 19.3438C23.3021 19.3854 23.3021 19.3854 23.2188 19.3438Z" fill="#0050A8" />
    <path fill-rule="evenodd" clip-rule="evenodd"
        d="M23.1562 19.4062C23.1771 19.4062 23.1979 19.4062 23.2188 19.4062C23.2072 19.4481 23.1863 19.4481 23.1562 19.4062Z"
        fill="#007CBB" />
    <path fill-rule="evenodd" clip-rule="evenodd"
        d="M23.0938 19.4688C23.1146 19.4688 23.1354 19.4688 23.1562 19.4688C23.1447 19.5106 23.1238 19.5106 23.0938 19.4688Z"
        fill="#007CBB" />
    <path fill-rule="evenodd" clip-rule="evenodd"
        d="M23.0312 19.5312C23.0521 19.5312 23.0729 19.5312 23.0938 19.5312C23.0822 19.5731 23.0613 19.5731 23.0312 19.5312Z"
        fill="#007D7C" />
    <path fill-rule="evenodd" clip-rule="evenodd"
        d="M22.9688 19.5938C22.9896 19.5938 23.0104 19.5938 23.0312 19.5938C23.0197 19.6356 22.9988 19.6356 22.9688 19.5938Z"
        fill="#007CBB" />
    <path fill-rule="evenodd" clip-rule="evenodd"
        d="M22.9062 19.6562C22.9271 19.6562 22.9479 19.6562 22.9688 19.6562C22.9572 19.6981 22.9363 19.6981 22.9062 19.6562Z"
        fill="#0050A8" />
    <path fill-rule="evenodd" clip-rule="evenodd"
        d="M22.8438 19.7188C22.8646 19.7188 22.8854 19.7188 22.9062 19.7188C22.8947 19.7606 22.8738 19.7606 22.8438 19.7188Z"
        fill="#007CBB" />
    <path fill-rule="evenodd" clip-rule="evenodd"
        d="M22.5312 19.9688C22.6146 20.0104 22.6146 20.0104 22.5312 19.9688Z" fill="#003D7D" />
    <path fill-rule="evenodd" clip-rule="evenodd"
        d="M22.4688 20.0312C22.4896 20.0312 22.5104 20.0312 22.5312 20.0312C22.5197 20.0731 22.4988 20.0731 22.4688 20.0312Z"
        fill="#0050A8" />
    <path fill-rule="evenodd" clip-rule="evenodd"
        d="M22.3438 20.1562C22.3438 20.1354 22.3438 20.1146 22.3438 20.0938C22.3854 20.0938 22.4271 20.0938 22.4688 20.0938C22.4474 20.1461 22.4057 20.167 22.3438 20.1562Z"
        fill="#007D7C" />
    <path fill-rule="evenodd" clip-rule="evenodd"
        d="M22.2812 20.1562C22.3021 20.1562 22.3229 20.1562 22.3438 20.1562C22.3322 20.1981 22.3113 20.1981 22.2812 20.1562Z"
        fill="#0050A8" />
    <path fill-rule="evenodd" clip-rule="evenodd"
        d="M22.1562 20.2188C22.1979 20.2188 22.2396 20.2188 22.2812 20.2188C22.2362 20.3364 22.1737 20.3572 22.0938 20.2812C22.1354 20.2812 22.1562 20.2604 22.1562 20.2188Z"
        fill="#1A3959" />
    <path fill-rule="evenodd" clip-rule="evenodd"
        d="M21.6562 20.5312C21.7396 20.5729 21.7396 20.5729 21.6562 20.5312Z" fill="#007CBB" />
    <path fill-rule="evenodd" clip-rule="evenodd"
        d="M21.5312 20.6562C21.5312 20.6354 21.5312 20.6146 21.5312 20.5938C21.5729 20.5938 21.6146 20.5938 21.6562 20.5938C21.6349 20.6461 21.5932 20.667 21.5312 20.6562Z"
        fill="#166E8B" />
    <path fill-rule="evenodd" clip-rule="evenodd"
        d="M21.4062 20.7188C21.4062 20.6979 21.4062 20.6771 21.4062 20.6562C21.4479 20.6562 21.4896 20.6562 21.5312 20.6562C21.5099 20.7086 21.4682 20.7295 21.4062 20.7188Z"
        fill="#3643D0" />
    <path fill-rule="evenodd" clip-rule="evenodd"
        d="M21.2812 20.7812C21.2812 20.7604 21.2812 20.7396 21.2812 20.7188C21.3229 20.7188 21.3646 20.7188 21.4062 20.7188C21.3849 20.7711 21.3432 20.792 21.2812 20.7812Z"
        fill="#132331" />
    <path fill-rule="evenodd" clip-rule="evenodd"
        d="M21.2812 20.781C21.2564 20.8451 21.2148 20.8555 21.1562 20.8123C21.1934 20.7833 21.2351 20.7728 21.2812 20.781Z"
        fill="#166E8B" />
    <path fill-rule="evenodd" clip-rule="evenodd"
        d="M20.9688 20.9062C20.9688 20.8854 20.9688 20.8646 20.9688 20.8438C21.1354 20.8646 21.1354 20.8854 20.9688 20.9062Z"
        fill="#152EDE" />
    <path fill-rule="evenodd" clip-rule="evenodd"
        d="M20.7812 20.9062C20.8438 20.9062 20.9062 20.9062 20.9688 20.9062C20.8753 21.0216 20.7711 21.0424 20.6562 20.9688C20.7182 20.9795 20.7599 20.9586 20.7812 20.9062Z"
        fill="#22488D" />
    <path fill-rule="evenodd" clip-rule="evenodd"
        d="M12.8438 21.4688C12.8438 21.4479 12.8438 21.4271 12.8438 21.4062C13.0938 21.4271 13.0938 21.4479 12.8438 21.4688Z"
        fill="#1A78B1" />
    <path fill-rule="evenodd" clip-rule="evenodd"
        d="M12.7812 21.4688C12.8021 21.4688 12.8229 21.4688 12.8438 21.4688C12.788 21.9244 12.7671 22.3828 12.7812 22.8438C12.7604 22.8438 12.7396 22.8438 12.7188 22.8438C12.7188 22.4271 12.7188 22.0104 12.7188 21.5938C12.7711 21.5724 12.792 21.5307 12.7812 21.4688Z"
        fill="#115092" />
    <path fill-rule="evenodd" clip-rule="evenodd"
        d="M12.7812 22.8438C12.852 22.9979 12.8625 23.1646 12.8124 23.3438C12.7813 23.1784 12.7709 23.0117 12.7812 22.8438Z"
        fill="#2962BF" />
    <path fill-rule="evenodd" clip-rule="evenodd"
        d="M7.46895 23.2812C7.47926 23.4906 7.46883 23.6989 7.4377 23.9062C7.39358 23.614 7.3727 23.3223 7.3752 23.0312C7.38833 23.1286 7.41958 23.2119 7.46895 23.2812Z"
        fill="#244CB7" />
    <path fill-rule="evenodd" clip-rule="evenodd"
        d="M12.9688 23.8438C12.9479 23.8438 12.9271 23.8438 12.9062 23.8438C12.9271 23.6771 12.9479 23.6771 12.9688 23.8438Z"
        fill="#045D9C" />
    <path fill-rule="evenodd" clip-rule="evenodd"
        d="M12.9685 23.8438C13.0326 23.8686 13.043 23.9102 12.9998 23.9688C12.9708 23.9316 12.9603 23.8899 12.9685 23.8438Z"
        fill="#1E7DCF" />
    <path fill-rule="evenodd" clip-rule="evenodd"
        d="M14.3438 24.8438C14.2744 24.7944 14.1911 24.7631 14.0938 24.75C16.925 24.7692 19.7584 24.7901 22.5938 24.8125C19.8438 24.8438 17.0938 24.8542 14.3438 24.8438Z"
        fill="#20A4C1" />
    <path fill-rule="evenodd" clip-rule="evenodd"
        d="M22.6562 24.9061C22.7823 24.8202 22.9073 24.8306 23.0312 24.9373C22.9941 24.9663 22.9524 24.9768 22.9062 24.9686C22.8395 24.9102 22.7562 24.8893 22.6562 24.9061Z"
        fill="#2A4A81" />
    <path fill-rule="evenodd" clip-rule="evenodd"
        d="M7.71873 24.9688C7.71873 25.0521 7.71873 25.1354 7.71873 25.2188C7.63542 25.1354 7.63542 25.0521 7.71873 24.9688Z"
        fill="#1CA9A9" />
    <path fill-rule="evenodd" clip-rule="evenodd"
        d="M23.0938 25.0938C23.0975 25.0598 23.1183 25.039 23.1562 25.0312C23.2358 25.0786 23.2358 25.1202 23.1562 25.1562C23.1146 25.1562 23.0938 25.1354 23.0938 25.0938Z"
        fill="#314576" />
    <path fill-rule="evenodd" clip-rule="evenodd"
        d="M7.71897 25.2188C7.73979 25.2188 7.76066 25.2188 7.78147 25.2188C7.78147 25.2812 7.78147 25.3438 7.78147 25.4062C7.72497 25.3619 7.70416 25.2994 7.71897 25.2188Z"
        fill="#0A7089" />
    <path fill-rule="evenodd" clip-rule="evenodd"
        d="M23.3435 25.4062C23.3353 25.3601 23.3458 25.3184 23.3748 25.2812C23.418 25.3398 23.4076 25.3814 23.3435 25.4062Z"
        fill="#007D7C" />
    <path fill-rule="evenodd" clip-rule="evenodd"
        d="M7.78147 25.4062C7.80229 25.4062 7.82316 25.4062 7.84397 25.4062C7.84397 25.4688 7.84397 25.5312 7.84397 25.5938C7.78747 25.5494 7.76666 25.4869 7.78147 25.4062Z"
        fill="#1A5267" />
    <path fill-rule="evenodd" clip-rule="evenodd"
        d="M7.84397 25.5938C7.86479 25.5938 7.88566 25.5938 7.90647 25.5938C7.90647 25.6562 7.90647 25.7188 7.90647 25.7812C7.84997 25.7369 7.82916 25.6744 7.84397 25.5938Z"
        fill="#24638E" />
    <path fill-rule="evenodd" clip-rule="evenodd"
        d="M23.4688 28.6562C23.4583 27.6977 23.4688 26.7394 23.5 25.7812C23.5518 26.7504 23.5413 27.7087 23.4688 28.6562Z"
        fill="#17F2F7" />
    <path fill-rule="evenodd" clip-rule="evenodd"
        d="M7.90606 25.7812C7.92687 25.7812 7.94775 25.7812 7.96856 25.7812C7.96856 25.8229 7.96856 25.8646 7.96856 25.9062C7.91619 25.8849 7.89531 25.8432 7.90606 25.7812Z"
        fill="#097485" />
    <path fill-rule="evenodd" clip-rule="evenodd"
        d="M7.96897 25.9062C7.98979 25.9062 8.01066 25.9062 8.03147 25.9062C8.03147 25.9688 8.03147 26.0312 8.03147 26.0938C7.97497 26.0494 7.95416 25.9869 7.96897 25.9062Z"
        fill="#2225A1" />
    <path fill-rule="evenodd" clip-rule="evenodd"
        d="M8.03125 26.0938C8.05206 26.0938 8.07294 26.0938 8.09375 26.0938C8.07294 26.2604 8.05206 26.2604 8.03125 26.0938Z"
        fill="#152EDE" />
    <path fill-rule="evenodd" clip-rule="evenodd"
        d="M8.21873 26.2812C8.22805 26.347 8.21767 26.4095 8.18748 26.4688C8.14123 26.3907 8.15167 26.3282 8.21873 26.2812Z"
        fill="#2C497A" />
    <path fill-rule="evenodd" clip-rule="evenodd"
        d="M8.34352 26.5312C8.35171 26.5774 8.34127 26.6191 8.31227 26.6562C8.26902 26.5977 8.27946 26.5561 8.34352 26.5312Z"
        fill="#1328CE" />
    <path fill-rule="evenodd" clip-rule="evenodd"
        d="M8.53125 26.9688C8.61456 27.0104 8.61456 27.0104 8.53125 26.9688Z" fill="#007D7C" />
    <path fill-rule="evenodd" clip-rule="evenodd"
        d="M8.71852 27.0938C8.72671 27.1399 8.71627 27.1816 8.68727 27.2188C8.64402 27.1602 8.65446 27.1186 8.71852 27.0938Z"
        fill="#151E37" />
    <path fill-rule="evenodd" clip-rule="evenodd"
        d="M8.96853 27.4062C9.01021 27.4062 9.03103 27.4271 9.03103 27.4688C9.03103 27.5104 9.03103 27.5521 9.03103 27.5938C8.9134 27.5487 8.89259 27.4862 8.96853 27.4062Z"
        fill="#1B424B" />
    <path fill-rule="evenodd" clip-rule="evenodd"
        d="M9.03125 27.5938C9.07294 27.5938 9.11456 27.5938 9.15625 27.5938C9.15625 27.6354 9.15625 27.6771 9.15625 27.7188C9.09375 27.6979 9.05206 27.6562 9.03125 27.5938Z"
        fill="#4DC4FC" />
    <path fill-rule="evenodd" clip-rule="evenodd"
        d="M9.15625 27.7188C9.19794 27.7188 9.23956 27.7188 9.28125 27.7188C9.28125 27.7604 9.28125 27.8021 9.28125 27.8438C9.21875 27.8229 9.17706 27.7812 9.15625 27.7188Z"
        fill="#4DC4FC" />
    <path fill-rule="evenodd" clip-rule="evenodd"
        d="M9.28125 27.8438C9.32294 27.8438 9.36456 27.8438 9.40625 27.8438C9.44794 27.8438 9.46875 27.8646 9.46875 27.9062C9.38881 27.9822 9.32631 27.9614 9.28125 27.8438Z"
        fill="#223676" />
    <path fill-rule="evenodd" clip-rule="evenodd"
        d="M9.59391 28.0312C9.59391 28.0521 9.59391 28.0729 9.59391 28.0938C9.55203 28.0637 9.55203 28.0428 9.59391 28.0312Z"
        fill="#007D7C" />
    <path fill-rule="evenodd" clip-rule="evenodd"
        d="M9.59375 28.0938C9.67706 28.1354 9.67706 28.1354 9.59375 28.0938Z" fill="#007CFA" />
    <path fill-rule="evenodd" clip-rule="evenodd"
        d="M9.84391 28.2188C9.84391 28.2396 9.84391 28.2604 9.84391 28.2812C9.80203 28.2512 9.80203 28.2303 9.84391 28.2188Z"
        fill="#007CBB" />
    <path fill-rule="evenodd" clip-rule="evenodd"
        d="M9.84375 28.2812C9.92706 28.3229 9.92706 28.3229 9.84375 28.2812Z" fill="#007CFA" />
    <path fill-rule="evenodd" clip-rule="evenodd"
        d="M23.4062 28.6562C23.4271 28.6562 23.4479 28.6562 23.4688 28.6562C23.4479 29.0729 23.4271 29.0729 23.4062 28.6562Z"
        fill="#215398" />
    <path fill-rule="evenodd" clip-rule="evenodd"
        d="M10.7812 28.781C10.7564 28.8451 10.7148 28.8555 10.6562 28.8123C10.6934 28.7833 10.7351 28.7728 10.7812 28.781Z"
        fill="#2386C3" />
    <path fill-rule="evenodd" clip-rule="evenodd"
        d="M11.0938 28.9062C11.0938 28.9271 11.0938 28.9479 11.0938 28.9688C10.9271 28.9479 10.9271 28.9271 11.0938 28.9062Z"
        fill="#056EB4" />
    <path fill-rule="evenodd" clip-rule="evenodd"
        d="M11.0938 28.9685C11.1399 28.9603 11.1816 28.9708 11.2188 28.9998C11.1602 29.043 11.1186 29.0326 11.0938 28.9685Z"
        fill="#1E7DCF" />
    <path fill-rule="evenodd" clip-rule="evenodd"
        d="M11.5938 29.0938C11.5938 29.1146 11.5938 29.1354 11.5938 29.1562C11.4271 29.1354 11.4271 29.1146 11.5938 29.0938Z"
        fill="#045D9C" />
    <path fill-rule="evenodd" clip-rule="evenodd"
        d="M23.3438 29.0312C23.4271 29.0729 23.4271 29.1146 23.3438 29.1562C23.3438 29.1146 23.3438 29.0729 23.3438 29.0312Z"
        fill="#26BEDE" />
    <path fill-rule="evenodd" clip-rule="evenodd"
        d="M11.5938 29.1559C11.6796 29.1461 11.7629 29.1565 11.8438 29.1872C11.7459 29.235 11.6626 29.2245 11.5938 29.1559Z"
        fill="#2A547A" />
    <path fill-rule="evenodd" clip-rule="evenodd"
        d="M23.2812 29.1562C23.3021 29.1562 23.3229 29.1562 23.3438 29.1562C23.3322 29.1981 23.3113 29.1981 23.2812 29.1562Z"
        fill="#0050A8" />
    <path fill-rule="evenodd" clip-rule="evenodd"
        d="M23.2188 29.2188C23.2396 29.2188 23.2604 29.2188 23.2812 29.2188C23.2697 29.2606 23.2488 29.2606 23.2188 29.2188Z"
        fill="#0050A8" />
    <path fill-rule="evenodd" clip-rule="evenodd"
        d="M23.1562 29.2812C23.1771 29.2812 23.1979 29.2812 23.2188 29.2812C23.2072 29.3231 23.1863 29.3231 23.1562 29.2812Z"
        fill="#007D7C" />
    <path fill-rule="evenodd" clip-rule="evenodd"
        d="M23.0312 29.4062C23.0312 29.3854 23.0312 29.3646 23.0312 29.3438C23.0729 29.3438 23.1146 29.3438 23.1562 29.3438C23.1349 29.3961 23.0932 29.417 23.0312 29.4062Z"
        fill="#122B2A" />
    <path fill-rule="evenodd" clip-rule="evenodd"
        d="M22.8438 29.4062C22.9062 29.4062 22.9688 29.4062 23.0312 29.4062C23.0051 29.4514 22.9635 29.4826 22.9062 29.5C19.6771 29.5417 16.4479 29.5417 13.2188 29.5C13.0938 29.4792 12.9688 29.4583 12.8438 29.4375C16.1861 29.4878 19.5194 29.4774 22.8438 29.4062Z"
        fill="#054180" />
</svg>