<svg width="710" height="710" viewBox="0 0 710 710" fill="none" xmlns="http://www.w3.org/2000/svg">
<path fill-rule="evenodd" clip-rule="evenodd" d="M530.985 254.664C795.244 389.311 246.951 418.488 237.924 312.392C239.37 274.479 314.599 242.182 411.674 249.086C411.674 249.086 335.702 247.916 318.663 284.191C295.02 334.704 579.522 354.635 530.985 254.664Z" fill="url(#paint0_radial_1705_2)"/>
<path fill-rule="evenodd" clip-rule="evenodd" d="M199.937 326.434C171.682 330.764 154.917 348.707 154.526 373.592C154.331 394.109 172.073 424.495 222.721 415.406L222.174 413.69C174.691 408.151 162.576 346.912 204.431 340.476C203.024 335.406 201.539 330.803 199.937 326.434Z" fill="url(#paint1_radial_1705_2)"/>
<path fill-rule="evenodd" clip-rule="evenodd" d="M41 263.518C87.4271 263.869 184.814 218.115 216.86 368.56C232.805 443.373 267.273 493.73 309.441 523.335C338.829 504.105 390.336 514.52 395.417 555.593C422.17 558.37 449.21 555.513 474.788 547.206C483.581 521.385 515.47 503.169 542.279 509.254C587.69 469.819 618.837 403.197 606.683 325.927C610.279 363.138 576.513 416.264 554.277 443.412C509.999 497.435 420.193 515.534 356.298 494.12C162.422 428.746 325.307 184.883 41 263.518Z" fill="url(#paint2_radial_1705_2)"/>
<path fill-rule="evenodd" clip-rule="evenodd" d="M430.353 148.997C430.822 155.511 438.169 160.972 444.617 163.898C446.213 164.751 447.572 165.984 448.574 167.488C449.576 168.992 450.19 170.72 450.362 172.518C451.964 179.656 447.158 193.464 430.392 193.542C414.096 195.258 397.096 176.028 403.505 153.366C408.898 131.328 438.247 115.336 462.125 126.725C485.964 136.789 501.987 167.213 494.249 191.397C487.566 212.265 460.758 223.498 441.843 237.852C401.629 269.057 400.34 299.286 399.715 297.609C400.183 299.169 412.533 268.589 445.282 244.795C460.523 233.718 494.288 224.434 504.879 194.985C515.47 165.536 506.051 129.3 470.879 113.385C438.99 99.0311 395.103 114.399 384.591 147.281C381.82 155.2 380.863 163.637 381.79 171.974C382.716 180.31 385.503 188.333 389.945 195.453C394.297 202.121 400.18 207.655 407.107 211.597C414.033 215.538 421.802 217.773 429.767 218.116C436.97 218.66 444.201 217.498 450.87 214.726C457.538 211.954 463.457 207.649 468.144 202.162C475.697 192.933 479.306 181.106 478.187 169.241C477.728 163.08 475.809 157.116 472.589 151.84C469.368 146.565 464.938 142.128 459.663 138.895C452.121 134.682 441.452 133.005 434.73 139.597C433.326 140.723 432.201 142.157 431.442 143.787C430.683 145.417 430.31 147.2 430.353 148.997Z" fill="url(#paint3_radial_1705_2)"/>
<path fill-rule="evenodd" clip-rule="evenodd" d="M487.684 580.245C512.734 623.541 581.28 586.642 566.899 544.71C556.816 555.944 542.396 558.401 527.819 560.859C512.617 563.433 497.18 566.046 487.332 579.542L487.723 580.245H487.684ZM563.616 537.338C554.55 549.04 540.168 551.458 525.826 553.877C510.467 556.49 494.875 559.103 483.971 572.053C469.863 530.239 538.253 493.496 563.265 536.714L563.616 537.338Z" fill="url(#paint4_radial_1705_2)"/>
<path fill-rule="evenodd" clip-rule="evenodd" d="M386.079 562.458C386.079 512.452 308.232 510.229 299.673 553.72C314.055 549.001 327.772 554.11 341.645 559.259C355.519 564.408 370.76 570.064 386.079 563.16V562.341V562.458ZM298.931 561.756C312.648 556.139 326.287 561.171 339.926 566.28C354.542 571.702 369.353 577.202 385.297 571.429C376.544 614.647 298.931 612.385 298.931 562.458V561.756Z" fill="url(#paint5_radial_1705_2)"/>
<defs>
<radialGradient id="paint0_radial_1705_2" cx="0" cy="0" r="1" gradientUnits="userSpaceOnUse" gradientTransform="translate(515.314 330.452) scale(73.1187 72.9796)">
<stop stop-color="#5A2D13"/>
<stop offset="0.38" stop-color="#5A2D13"/>
<stop offset="1" stop-color="#150000"/>
</radialGradient>
<radialGradient id="paint1_radial_1705_2" cx="0" cy="0" r="1" gradientUnits="userSpaceOnUse" gradientTransform="translate(190.675 374.489) scale(47.2087 47.1189)">
<stop stop-color="#5A2D13"/>
<stop offset="0.38" stop-color="#5A2D13"/>
<stop offset="1" stop-color="#150000"/>
</radialGradient>
<radialGradient id="paint2_radial_1705_2" cx="0" cy="0" r="1" gradientUnits="userSpaceOnUse" gradientTransform="translate(234.133 417.785) scale(310.647 310.056)">
<stop stop-color="#5A2D13"/>
<stop offset="0.38" stop-color="#5A2D13"/>
<stop offset="1" stop-color="#150000"/>
</radialGradient>
<radialGradient id="paint3_radial_1705_2" cx="0" cy="0" r="1" gradientUnits="userSpaceOnUse" gradientTransform="translate(445.086 202.825) scale(97.3483 97.1632)">
<stop stop-color="#5A2D13"/>
<stop offset="0.38" stop-color="#5A2D13"/>
<stop offset="1" stop-color="#150000"/>
</radialGradient>
<radialGradient id="paint4_radial_1705_2" cx="0" cy="0" r="1" gradientUnits="userSpaceOnUse" gradientTransform="translate(522.856 560.976) scale(58.6591 58.5476)">
<stop stop-color="#5A2D13"/>
<stop offset="0.38" stop-color="#5A2D13"/>
<stop offset="1" stop-color="#150000"/>
</radialGradient>
<radialGradient id="paint5_radial_1705_2" cx="0" cy="0" r="1" gradientUnits="userSpaceOnUse" gradientTransform="translate(345.944 561.678) scale(53.0707 52.9697)">
<stop stop-color="#5A2D13"/>
<stop offset="0.38" stop-color="#5A2D13"/>
<stop offset="1" stop-color="#150000"/>
</radialGradient>
</defs>
</svg>
