<svg width="32" height="32" viewBox="0 0 32 32" fill="none" xmlns="http://www.w3.org/2000/svg">
    <g clip-path="url(#clip0_5603_164)">
        <path fill-rule="evenodd" clip-rule="evenodd"
            d="M-0.0710449 -0.0712891C10.5956 -0.0712891 21.2623 -0.0712891 31.929 -0.0712891C31.929 10.5954 31.929 21.262 31.929 31.9287C21.2623 31.9287 10.5956 31.9287 -0.0710449 31.9287C-0.0710449 21.262 -0.0710449 10.5954 -0.0710449 -0.0712891Z"
            fill="#14AF96" />
        <path fill-rule="evenodd" clip-rule="evenodd"
            d="M21.5467 12.729C22.5074 12.6404 23.4081 12.7352 24.2489 13.0135C22.9119 14.208 21.6792 15.488 20.5511 16.8535C21.1708 17.6146 21.7871 18.3733 22.4 19.129C22.4 19.2239 22.3527 19.2712 22.2578 19.2712C20.1939 17.9902 17.9894 17.0421 15.6445 16.4268C15.5734 13.4405 15.5496 10.4538 15.5734 7.4668C16.3318 7.4668 17.0904 7.4668 17.8489 7.4668C17.8016 10.4076 17.8489 13.3468 17.9911 16.2846C19.2344 15.1361 20.4196 13.9509 21.5467 12.729Z"
            fill="#F3F8F7" />
        <path fill-rule="evenodd" clip-rule="evenodd"
            d="M12.5868 12.7291C11.5912 12.5395 10.5957 12.5395 9.6001 12.7291C10.0786 12.5102 10.6001 12.4154 11.1645 12.4446C11.5438 12.4683 11.9231 12.492 12.3023 12.5157C12.4326 12.5553 12.5274 12.6264 12.5868 12.7291Z"
            fill="#BFE6E0" />
        <path fill-rule="evenodd" clip-rule="evenodd"
            d="M12.5867 12.7291C13.3604 12.8551 13.9767 13.2344 14.4356 13.8669C13.9615 14.2936 13.4874 14.7202 13.0134 15.1469C12.0095 14.1528 10.9428 14.058 9.81338 14.8625C9.7025 15.1308 9.72621 15.3679 9.88449 15.5736C9.50002 15.8026 9.07335 15.9448 8.60449 16.0002C8.22522 16.0002 7.84598 16.0002 7.46671 16.0002C7.32543 14.6978 7.79951 13.7022 8.88893 13.0136C9.10609 13.024 9.24831 12.9291 9.3156 12.7291C9.41042 12.7291 9.50522 12.7291 9.60004 12.7291C10.5956 12.5395 11.5912 12.5395 12.5867 12.7291Z"
            fill="#F4F8F8" />
        <path fill-rule="evenodd" clip-rule="evenodd"
            d="M21.5466 12.7286C22.4681 12.5877 23.4163 12.5403 24.3911 12.5864C24.4248 12.77 24.3774 12.9122 24.2489 13.013C23.408 12.7348 22.5073 12.64 21.5466 12.7286Z"
            fill="#65C8BA" />
        <path fill-rule="evenodd" clip-rule="evenodd"
            d="M9.31558 12.7293C9.2483 12.9293 9.10608 13.0241 8.88892 13.0137C8.9562 12.8137 9.09842 12.7189 9.31558 12.7293Z"
            fill="#94D4CD" />
        <path fill-rule="evenodd" clip-rule="evenodd"
            d="M9.88449 15.5732C10.0131 15.6741 10.0605 15.8163 10.0267 15.9999C9.55265 15.9999 9.07856 15.9999 8.60449 15.9999C9.07336 15.9444 9.50002 15.8022 9.88449 15.5732Z"
            fill="#7ECFC2" />
        <path fill-rule="evenodd" clip-rule="evenodd"
            d="M10.169 17.5649C9.93197 17.6598 9.69494 17.7545 9.4579 17.8493C9.38066 17.8408 9.33325 17.7934 9.31567 17.7071C9.58533 17.5697 9.86977 17.5224 10.169 17.5649Z"
            fill="#88D3C7" />
        <path fill-rule="evenodd" clip-rule="evenodd"
            d="M10.1688 17.5646C11.5942 17.5173 13.0164 17.5647 14.4355 17.7068C15.1988 19.8304 14.4877 21.2053 12.3021 21.8312C11.1121 21.8604 9.92696 21.8129 8.74657 21.689C8.13044 21.4755 7.60897 21.12 7.18213 20.6223C7.64637 20.0105 8.21526 19.5838 8.8888 19.3423C9.81536 20.3545 10.9057 20.5441 12.1599 19.9112C12.5759 19.3856 12.5285 18.9115 12.0177 18.489C11.1835 18.1856 10.3302 17.9723 9.45768 17.849C9.69473 17.7541 9.93175 17.6594 10.1688 17.5646Z"
            fill="#F3F8F7" />
        <path fill-rule="evenodd" clip-rule="evenodd"
            d="M16.7111 17.9908C16.3318 17.9435 15.9527 17.8959 15.5734 17.8486C15.5269 19.1545 15.5744 20.4345 15.7156 21.6886C15.7156 21.7359 15.7156 21.7835 15.7156 21.8308C15.435 20.5117 15.3401 19.1368 15.4311 17.7064C15.9046 17.6658 16.3313 17.7607 16.7111 17.9908Z"
            fill="#4DBEAD" />
        <path fill-rule="evenodd" clip-rule="evenodd"
            d="M16.7112 17.9909C17.1137 18.0567 17.493 18.1514 17.849 18.2753C17.849 19.4131 17.849 20.5509 17.849 21.6886C17.1379 21.6886 16.4267 21.6886 15.7156 21.6886C15.5744 20.4345 15.5269 19.1545 15.5734 17.8486C15.9527 17.896 16.3319 17.9435 16.7112 17.9909Z"
            fill="#F4F8F7" />
        <path fill-rule="evenodd" clip-rule="evenodd"
            d="M24.5332 21.5468C23.6118 21.6877 22.6636 21.7351 21.6888 21.689C20.8636 20.7442 20.0576 19.7723 19.271 18.7734C21.2243 19.3234 22.9783 20.2479 24.5332 21.5468Z"
            fill="#F3F7F7" />
        <path fill-rule="evenodd" clip-rule="evenodd"
            d="M22.4 19.1289C22.608 19.2652 22.7975 19.431 22.9689 19.6267C22.6606 19.6621 22.4235 19.5436 22.2578 19.2711C22.3527 19.2711 22.4 19.2238 22.4 19.1289Z"
            fill="#A5DCD3" />
        <path fill-rule="evenodd" clip-rule="evenodd"
            d="M17.8489 18.2754C17.9901 19.4345 18.0375 20.6196 17.9911 21.8309C17.2327 21.8309 16.474 21.8309 15.7156 21.8309C15.7156 21.7836 15.7156 21.7361 15.7156 21.6887C16.4267 21.6887 17.1378 21.6887 17.8489 21.6887C17.8489 20.5509 17.8489 19.4132 17.8489 18.2754Z"
            fill="#A9DBD6" />
        <path fill-rule="evenodd" clip-rule="evenodd"
            d="M24.5334 21.5469C24.6106 21.5554 24.658 21.6028 24.6756 21.6891C23.6579 21.8767 22.6623 21.8767 21.689 21.6891C22.6638 21.7352 23.612 21.6878 24.5334 21.5469Z"
            fill="#B5DFDD" />
        <path fill-rule="evenodd" clip-rule="evenodd"
            d="M8.74658 21.6885C9.92697 21.8124 11.1122 21.8599 12.3021 21.8307C11.0998 22.2386 9.91465 22.1912 8.74658 21.6885Z"
            fill="#B7E3DC" />
    </g>
    <defs>
        <clipPath id="clip0_5603_164">
            <rect width="32" height="32" rx="16" fill="white" />
        </clipPath>
    </defs>
</svg>