<svg width="32" height="32" viewBox="0 0 32 32" fill="none" xmlns="http://www.w3.org/2000/svg">
    <g clip-path="url(#clip0_5600_45)">
        <path fill-rule="evenodd" clip-rule="evenodd"
            d="M-0.0400391 -0.0400391C10.6266 -0.0400391 21.2933 -0.0400391 31.96 -0.0400391C31.96 10.6266 31.96 21.2933 31.96 31.96C21.2933 31.96 10.6266 31.96 -0.0400391 31.96C-0.0400391 21.2933 -0.0400391 10.6266 -0.0400391 -0.0400391Z"
            fill="#19A7F2" />
        <path fill-rule="evenodd" clip-rule="evenodd"
            d="M17.88 6.99984C17.5234 7.11306 17.15 7.19306 16.76 7.23984C16.8726 7.03467 17.0459 6.90133 17.28 6.83984C17.4582 6.96892 17.6582 7.02224 17.88 6.99984Z"
            fill="#43AEE3" />
        <path fill-rule="evenodd" clip-rule="evenodd"
            d="M18.84 8.20008C18.84 8.22672 18.84 8.25344 18.84 8.28008C18.3582 8.28024 17.8782 8.30688 17.4 8.36008C16.9395 8.20808 16.5662 8.30136 16.28 8.64008C16.0881 8.69696 15.9015 8.6836 15.72 8.60008C15.6317 8.69056 15.6583 8.75728 15.8 8.80008C15.5061 9.02864 15.1861 9.202 14.84 9.32008C14.84 9.40008 14.84 9.48008 14.84 9.56008C14.6022 9.74456 14.3888 9.95792 14.2 10.2001C13.7883 10.5584 13.4683 10.9851 13.24 11.4801C12.8982 11.8976 12.6848 12.3776 12.6 12.9201C12.6 12.9467 12.6 12.9734 12.6 13.0001C12.4964 13.1984 12.4164 13.4118 12.36 13.6401C12.3023 13.6735 12.2623 13.7268 12.24 13.8001C12.1673 14.5802 12.2073 15.3535 12.36 16.1201C12.2063 16.4974 12.313 16.7642 12.68 16.9201C12.8439 17.2742 13.0306 17.6209 13.24 17.9601C13.3956 18.299 13.609 18.5923 13.88 18.8401C13.96 18.9734 14.0667 19.0801 14.2 19.1601C14.4232 19.4903 14.7166 19.7303 15.08 19.8801C15.1179 19.9926 15.1979 20.0459 15.32 20.0401C15.8232 20.4751 16.4099 20.7418 17.08 20.8401C17.6406 21.034 18.2272 21.114 18.84 21.0801C19.2786 21.2151 19.4252 21.5085 19.28 21.9601C19.2499 22.0754 19.1832 22.1554 19.08 22.2001C18.8922 22.2137 18.7055 22.2403 18.52 22.2801C17.5951 22.1914 16.6883 22.0048 15.8 21.7201C15.4703 21.6188 15.1503 21.4855 14.84 21.3201C14.6931 21.153 14.5065 21.0464 14.28 21.0001C14.1979 20.8646 14.0911 20.7579 13.96 20.6801C13.9367 20.5882 13.8701 20.5348 13.76 20.5201C13.22 20.7266 12.86 21.0999 12.68 21.6401C12.36 21.9867 12.04 22.3334 11.72 22.6801C11.2667 23.0801 10.84 23.5067 10.44 23.9601C10.1467 24.2267 9.85338 24.4934 9.56002 24.7601C9.31802 24.7902 9.07802 24.8036 8.84002 24.8001C8.77738 24.6306 8.67074 24.5106 8.52002 24.4401C8.52002 24.4134 8.52002 24.3867 8.52002 24.3601C8.67282 24.0579 8.89946 23.8179 9.20002 23.6401C9.23922 23.5366 9.25258 23.4299 9.24002 23.3201C9.3529 23.127 9.5129 22.9936 9.72002 22.9201C9.92554 22.8484 10.0855 22.7151 10.2 22.5201C10.3067 22.4134 10.4134 22.4134 10.52 22.5201C10.5962 22.3965 10.6228 22.2631 10.6 22.1201C10.7431 22.1429 10.8764 22.1162 11 22.0401C10.9402 21.8868 10.9402 21.7268 11 21.5601C11.2318 21.4627 11.4451 21.3294 11.64 21.1601C11.6934 21.1867 11.7467 21.2134 11.8 21.2401C11.8762 21.1165 11.9028 20.9831 11.88 20.8401C12.0231 20.8629 12.1564 20.8362 12.28 20.7601C12.2534 20.7067 12.2267 20.6534 12.2 20.6001C12.2765 20.4741 12.3299 20.3407 12.36 20.2001C12.5182 20.015 12.6782 19.8283 12.84 19.6401C12.2607 18.9078 11.8074 18.1078 11.48 17.2401C11.428 17.0853 11.4014 16.9253 11.4 16.7601C11.2539 15.6009 11.2007 14.4275 11.24 13.2401C11.2755 12.7425 11.3822 12.2625 11.56 11.8001C11.7923 11.4159 12.0056 11.0159 12.2 10.6001C12.4108 10.3086 12.6241 10.0153 12.84 9.72008C12.92 9.66672 13 9.61344 13.08 9.56008C13.2451 9.53912 13.3518 9.44576 13.4 9.28008C13.5334 9.25344 13.6667 9.22672 13.8 9.20008C13.7239 9.14264 13.7107 9.076 13.76 9.00008C14.0571 8.80256 14.3104 8.56256 14.52 8.28008C14.5467 8.28008 14.5734 8.28008 14.6 8.28008C14.8651 8.17392 15.1318 8.17392 15.4 8.28008C15.4534 8.25344 15.5067 8.22672 15.56 8.20008C15.48 8.14672 15.4 8.09344 15.32 8.04008C15.453 7.97394 15.5596 7.88061 15.64 7.76008C16.031 7.73618 16.3776 7.60285 16.68 7.36008C17.2702 7.28245 17.8568 7.18912 18.44 7.08008C18.6635 7.10573 18.8635 7.18573 19.04 7.32008C19.0927 7.44872 19.0527 7.54205 18.92 7.60008C18.9734 7.62674 19.0267 7.65341 19.08 7.68008C19.0061 7.74808 19.0061 7.82808 19.08 7.92008C18.9965 8.014 18.9165 8.10736 18.84 8.20008Z"
            fill="#F5F9F9" />
        <path fill-rule="evenodd" clip-rule="evenodd"
            d="M18.8401 8.28013C18.8401 8.25349 18.8401 8.22677 18.8401 8.20013C18.9913 8.21637 19.1113 8.16309 19.2001 8.04013C19.4494 7.55917 19.3294 7.22585 18.8401 7.04013C18.6016 7.00029 18.3616 6.98696 18.1201 7.00013C18.5118 6.78219 18.8985 6.80885 19.2801 7.08013C19.5537 7.46943 19.5404 7.84277 19.2401 8.20013C19.1144 8.26485 18.9811 8.29157 18.8401 8.28013Z"
            fill="#40A7DB" />
        <path fill-rule="evenodd" clip-rule="evenodd"
            d="M17.8801 7.00003C17.9601 7.00003 18.0401 7.00003 18.1201 7.00003C18.3615 6.98686 18.6015 7.00019 18.8401 7.04003C19.3294 7.22575 19.4494 7.55907 19.2001 8.04003C19.1113 8.16299 18.9913 8.21627 18.8401 8.20003C18.9166 8.10731 18.9966 8.01395 19.0801 7.92003C19.0062 7.82803 19.0062 7.74803 19.0801 7.68003C19.0267 7.65336 18.9735 7.62669 18.9201 7.60003C19.0527 7.542 19.0927 7.44867 19.0401 7.32003C18.8636 7.18568 18.6636 7.10568 18.4401 7.08003C17.8569 7.18907 17.2703 7.2824 16.6801 7.36003C16.3777 7.60279 16.0311 7.73613 15.6401 7.76003C15.5597 7.88056 15.4531 7.97389 15.3201 8.04003C15.4001 8.09339 15.4801 8.14667 15.5601 8.20003C15.5067 8.22667 15.4535 8.25339 15.4001 8.28003C15.1319 8.17387 14.8652 8.17387 14.6001 8.28003C15.2282 7.76256 15.9482 7.4159 16.7601 7.24003C17.1501 7.19324 17.5235 7.11324 17.8801 7.00003Z"
            fill="#E1F7F9" />
        <path fill-rule="evenodd" clip-rule="evenodd"
            d="M17.4001 8.3597C16.8494 8.52554 16.3161 8.7389 15.8001 8.9997C15.5592 9.09322 15.3458 9.22658 15.1601 9.3997C15.0351 9.41834 14.9285 9.4717 14.8401 9.5597C14.8401 9.4797 14.8401 9.3997 14.8401 9.3197C15.1862 9.20162 15.5062 9.02826 15.8001 8.7997C15.6584 8.7569 15.6318 8.69018 15.7201 8.5997C15.9015 8.68322 16.0882 8.69658 16.2801 8.6397C16.5662 8.30098 16.9396 8.2077 17.4001 8.3597Z"
            fill="#E2F8FA" />
        <path fill-rule="evenodd" clip-rule="evenodd"
            d="M18.84 8.28027C18.8312 8.32963 18.8045 8.36963 18.76 8.40027C18.4684 8.42875 18.1884 8.49539 17.92 8.60027C17.8934 8.54691 17.8667 8.49363 17.84 8.44027C17.2408 8.57251 16.6675 8.75923 16.12 9.00027C16.0134 9.00027 15.9067 9.00027 15.8 9.00027C16.316 8.73947 16.8494 8.52611 17.4 8.36027C17.8782 8.30707 18.3582 8.28043 18.84 8.28027Z"
            fill="#3CA7E4" />
        <path fill-rule="evenodd" clip-rule="evenodd"
            d="M14.5201 8.28027C14.3105 8.56275 14.0571 8.80275 13.7601 9.00027C13.7107 9.07619 13.724 9.14283 13.8001 9.20027C13.6667 9.22691 13.5334 9.25363 13.4001 9.28027C13.3518 9.44595 13.2452 9.53931 13.0801 9.56027C13.1294 9.42195 13.2094 9.30195 13.3201 9.20027C13.6889 8.84379 14.0889 8.53707 14.5201 8.28027Z"
            fill="#DBF5F9" />
        <path fill-rule="evenodd" clip-rule="evenodd"
            d="M15.8001 9C15.9067 9 16.0135 9 16.1201 9C16.2717 9.09624 16.4317 9.18952 16.6001 9.28C16.3835 9.37024 16.1835 9.49024 16.0001 9.64C15.9735 9.61336 15.9467 9.58664 15.9201 9.56C15.6367 9.6232 15.3967 9.75656 15.2001 9.96C15.1055 9.86152 15.0122 9.86152 14.9201 9.96C15.0283 10.0419 15.0817 10.1486 15.0801 10.28C14.8315 10.29 14.6715 10.1834 14.6001 9.96C14.8801 9.8752 15.0667 9.68856 15.1601 9.4C15.4547 9.44504 15.7081 9.44504 15.9201 9.4C15.9691 9.2404 15.9291 9.10704 15.8001 9Z"
            fill="#1BA5F7" />
        <path fill-rule="evenodd" clip-rule="evenodd"
            d="M15.7999 9C15.929 9.10704 15.969 9.2404 15.9199 9.4C15.7079 9.44504 15.4546 9.44504 15.1599 9.4C15.3457 9.22688 15.559 9.09352 15.7999 9Z"
            fill="#30ACE6" />
        <path fill-rule="evenodd" clip-rule="evenodd"
            d="M12.84 9.71973C12.624 10.0149 12.4108 10.3083 12.2 10.5997C12.2008 10.1426 12.4141 9.84933 12.84 9.71973Z"
            fill="#3DA7DC" />
        <path fill-rule="evenodd" clip-rule="evenodd"
            d="M15.16 9.40039C15.0666 9.68895 14.88 9.87559 14.6 9.96039C14.4862 10.0744 14.3528 10.1544 14.2 10.2004C14.3888 9.95823 14.6021 9.74487 14.84 9.56039C14.9284 9.47239 15.035 9.41903 15.16 9.40039Z"
            fill="#3DA9DE" />
        <path fill-rule="evenodd" clip-rule="evenodd"
            d="M17.72 10.44C17.9182 10.3869 18.1316 10.3603 18.36 10.36C18.6364 10.3537 18.903 10.3937 19.16 10.48C18.6759 10.5397 18.1959 10.5263 17.72 10.44Z"
            fill="#1EA2FA" />
        <path fill-rule="evenodd" clip-rule="evenodd"
            d="M19.24 10.6002C19.8862 10.4729 20.1795 10.7395 20.12 11.4002C20.2481 11.443 20.2881 11.523 20.24 11.6402C19.9785 11.5749 19.7251 11.4949 19.48 11.4002C19.4926 11.2903 19.4792 11.1836 19.44 11.0802C18.9533 11.1715 18.4599 11.1849 17.96 11.1202C17.918 11.0648 17.8647 11.0248 17.8 11.0002C17.6445 11.0553 17.4845 11.0953 17.32 11.1202C17.1847 11.4474 16.958 11.5941 16.64 11.5602C16.5211 11.4999 16.5077 11.4333 16.6 11.3602C16.776 11.3231 16.9627 11.2831 17.16 11.2402C17.1537 11.1258 17.1803 11.0191 17.24 10.9202C16.9934 10.9391 16.7534 10.8991 16.52 10.8002C16.608 10.7183 16.7147 10.6783 16.84 10.6802C17.2082 10.8283 17.5815 10.8549 17.96 10.7602C18.3555 11.0175 18.7823 11.0709 19.24 10.9202C19.24 10.8135 19.24 10.7068 19.24 10.6002Z"
            fill="#1BA6F7" />
        <path fill-rule="evenodd" clip-rule="evenodd"
            d="M17.8799 11.3199C18.2652 11.2279 18.6652 11.2147 19.0799 11.2799C19.1244 11.3106 19.151 11.3506 19.1599 11.3999C19.0799 11.3999 18.9999 11.3999 18.9199 11.3999C18.5892 11.3211 18.2424 11.2945 17.8799 11.3199Z"
            fill="#59BAEC" />
        <path fill-rule="evenodd" clip-rule="evenodd"
            d="M18.92 11.4004C19 11.4004 19.08 11.4004 19.16 11.4004C19.2922 11.4132 19.3989 11.4665 19.48 11.5604C19.7768 11.7362 19.7768 11.9095 19.48 12.0804C19.6242 12.1314 19.7309 12.2246 19.8 12.3604C19.4821 12.4954 19.1621 12.5221 18.84 12.4404C18.7687 12.3916 18.6887 12.365 18.6 12.3604C18.5478 12.2624 18.4545 12.209 18.32 12.2004C18.1487 12.2494 17.9887 12.2494 17.84 12.2004C17.7334 12.3604 17.6 12.4938 17.44 12.6004C17.3284 12.4692 17.2084 12.3492 17.08 12.2404C17.1558 12.2018 17.2358 12.1885 17.32 12.2004C17.3424 11.9694 17.2358 11.8494 17 11.8404C17.2029 11.7617 17.4029 11.6684 17.6 11.5604C17.7266 11.6827 17.8732 11.7227 18.04 11.6804C17.9222 11.6236 17.8688 11.5303 17.88 11.4004C18.2266 11.4004 18.5734 11.4004 18.92 11.4004Z"
            fill="#F7F9F7" />
        <path fill-rule="evenodd" clip-rule="evenodd"
            d="M17.8799 11.3199C18.2425 11.2944 18.5892 11.3211 18.9199 11.3999C18.5733 11.3999 18.2266 11.3999 17.8799 11.3999C17.8687 11.5298 17.9221 11.6231 18.0399 11.6799C17.8731 11.7222 17.7265 11.6822 17.5999 11.5599C17.4028 11.6679 17.2028 11.7611 16.9999 11.8399C17.2357 11.8488 17.3423 11.9688 17.3199 12.1999C17.2358 12.1879 17.1558 12.2012 17.0799 12.2399C17.2083 12.3487 17.3283 12.4687 17.4399 12.5999C17.5999 12.4932 17.7333 12.3599 17.8399 12.1999C17.9886 12.2488 18.1486 12.2488 18.3199 12.1999C18.4544 12.2085 18.5478 12.2619 18.5999 12.3599C18.0285 12.2451 17.6551 12.4585 17.4799 12.9999C17.5906 13.4839 17.884 13.7773 18.3599 13.8799C18.3873 13.9469 18.4406 13.9736 18.5199 13.9599C18.9361 14.1879 19.3627 14.4012 19.7999 14.5999C19.7999 14.6265 19.7999 14.6532 19.7999 14.6799C19.5898 14.6325 19.3764 14.6059 19.1599 14.5999C19.1599 14.5199 19.1599 14.4399 19.1599 14.3599C18.9978 14.3728 18.8378 14.3595 18.6799 14.3199C18.4371 14.0785 18.1438 13.9452 17.7999 13.9199C17.6565 13.6963 17.4831 13.4963 17.2799 13.3199C17.0794 13.5499 17.0394 13.8033 17.1599 14.0799C17.0914 14.135 17.0381 14.2016 16.9999 14.2799C17.0818 14.388 17.1618 14.4947 17.2399 14.5999C17.0596 14.5267 16.8996 14.42 16.7599 14.2799C16.0485 13.2912 16.1551 12.3979 17.0799 11.5999C17.3305 11.4573 17.5971 11.364 17.8799 11.3199Z"
            fill="#EDF8F9" />
        <path fill-rule="evenodd" clip-rule="evenodd"
            d="M19.4801 11.5596C19.7214 11.5869 19.9346 11.6801 20.1201 11.8396C20.2525 11.9551 20.3058 12.1018 20.2801 12.2796C20.1492 12.3795 20.0558 12.5129 20.0001 12.6796C19.9358 12.7839 19.8424 12.8373 19.7201 12.8396C19.4104 12.7245 19.117 12.5911 18.8401 12.4396C19.1622 12.5213 19.4822 12.4946 19.8001 12.3596C19.731 12.2238 19.6243 12.1305 19.4801 12.0796C19.7769 11.9087 19.7769 11.7354 19.4801 11.5596Z"
            fill="#EAF8F9" />
        <path fill-rule="evenodd" clip-rule="evenodd"
            d="M13.2401 11.4805C13.2529 11.6164 13.2396 11.7497 13.2001 11.8805C12.9918 12.2291 12.7918 12.5758 12.6001 12.9205C12.6849 12.378 12.8983 11.898 13.2401 11.4805Z"
            fill="#42ABE2" />
        <path fill-rule="evenodd" clip-rule="evenodd"
            d="M11.56 11.7998C11.3821 12.2622 11.2755 12.7422 11.24 13.2398C11.1758 13.356 11.1358 13.4892 11.12 13.6398C11.08 14.1992 11.0667 14.7592 11.08 15.3198C10.9792 14.4511 10.9924 13.5711 11.12 12.6798C11.2612 12.3705 11.4079 12.0772 11.56 11.7998Z"
            fill="#4BABE4" />
        <path fill-rule="evenodd" clip-rule="evenodd"
            d="M20.28 12.2803C20.2423 12.4233 20.2157 12.57 20.2 12.7203C20.214 12.8529 20.2673 12.9596 20.36 13.0403C19.9756 13.3416 19.6422 13.3016 19.36 12.9203C19.3293 12.9648 19.2893 12.9914 19.24 13.0003C19.2395 12.8128 19.1461 12.706 18.96 12.6803C18.7143 12.7041 18.4743 12.7041 18.24 12.6803C18.0449 12.7657 17.8716 12.8724 17.72 13.0003C17.6428 13.098 17.6561 13.2046 17.76 13.3203C18.0109 13.4648 18.2375 13.6381 18.44 13.8403C18.4217 13.8722 18.395 13.8855 18.36 13.8803C17.8841 13.7777 17.5907 13.4844 17.48 13.0003C17.6552 12.4589 18.0285 12.2456 18.6 12.3603C18.6887 12.3648 18.7687 12.3915 18.84 12.4403C19.1169 12.5918 19.4103 12.7252 19.72 12.8403C19.8423 12.838 19.9357 12.7846 20 12.6803C20.0557 12.5136 20.1491 12.3802 20.28 12.2803Z"
            fill="#30A8E7" />
        <path fill-rule="evenodd" clip-rule="evenodd"
            d="M19.24 12.9997C19.1816 13.1233 19.0749 13.1899 18.92 13.1997C18.8499 13.3266 18.7699 13.4466 18.68 13.5597C18.3323 13.4128 18.0123 13.2262 17.72 12.9997C17.8716 12.8718 18.0449 12.7651 18.24 12.6797C18.4743 12.7035 18.7143 12.7035 18.96 12.6797C19.1461 12.7054 19.2395 12.8122 19.24 12.9997Z"
            fill="#18A8F3" />
        <path fill-rule="evenodd" clip-rule="evenodd"
            d="M19.8 14.6803C19.9334 14.7603 20.04 14.867 20.12 15.0003C20.1027 15.1748 20.1694 15.3081 20.32 15.4003C20.3734 15.827 20.3734 16.2537 20.32 16.6803C20.1619 16.9184 20.0151 17.1584 19.88 17.4003C19.8534 17.4537 19.8267 17.507 19.8 17.5603C19.5616 17.6262 19.3483 17.7329 19.16 17.8803C18.3215 18.0466 17.5215 17.9399 16.76 17.5603C16.6027 17.4009 16.4427 17.2409 16.28 17.0803C16.3963 16.7654 16.5696 16.4988 16.8 16.2803C16.9972 16.3724 17.1972 16.4524 17.4 16.5203C17.6507 16.7596 17.9575 16.8662 18.32 16.8403C18.4667 16.827 18.6134 16.8137 18.76 16.8003C18.8754 16.7702 18.9554 16.7035 19 16.6003C19.2627 16.3519 19.2894 16.0852 19.08 15.8003C19.0018 15.5621 18.8418 15.4021 18.6 15.3203C18.1163 15.1246 17.663 14.8846 17.24 14.6003C17.1619 14.4951 17.0819 14.3885 17 14.2803C17.0382 14.2021 17.0915 14.1354 17.16 14.0803C17.0395 13.8038 17.0795 13.5504 17.28 13.3203C17.4832 13.4967 17.6566 13.6967 17.8 13.9203C18.1439 13.9457 18.4372 14.079 18.68 14.3203C18.8379 14.3599 18.9979 14.3733 19.16 14.3603C19.16 14.4403 19.16 14.5203 19.16 14.6003C19.3765 14.6063 19.5899 14.633 19.8 14.6803Z"
            fill="#F4F9F8" />
        <path fill-rule="evenodd" clip-rule="evenodd"
            d="M11.2399 13.2402C11.2006 14.4277 11.2538 15.601 11.3999 16.7602C11.2554 16.369 11.1488 15.969 11.0799 15.5602C11.0799 15.4802 11.0799 15.4002 11.0799 15.3202C11.0666 14.7596 11.0799 14.1996 11.1199 13.6402C11.1358 13.4897 11.1758 13.3564 11.2399 13.2402Z"
            fill="#E5F9FA" />
        <path fill-rule="evenodd" clip-rule="evenodd"
            d="M18.52 13.96C18.936 14.0612 19.336 14.2079 19.72 14.4C19.7802 14.4536 19.8069 14.5203 19.8 14.6C19.3628 14.4013 18.9362 14.188 18.52 13.96Z"
            fill="#4BA8DB" />
        <path fill-rule="evenodd" clip-rule="evenodd"
            d="M12.6 13C12.4574 13.8715 12.404 14.7515 12.44 15.64C12.3606 14.988 12.3339 14.3214 12.36 13.64C12.4164 13.4117 12.4964 13.1983 12.6 13Z"
            fill="#44A8DC" />
        <path fill-rule="evenodd" clip-rule="evenodd"
            d="M16.76 14.2803C16.8997 14.4204 17.0597 14.5271 17.24 14.6003C17.663 14.8845 18.1163 15.1245 18.6 15.3203C18.6446 15.5243 18.7512 15.6843 18.92 15.8003C18.8537 15.8668 18.787 15.8402 18.72 15.7203C18.6934 15.7736 18.6666 15.8269 18.64 15.8803C18.575 15.7254 18.535 15.5654 18.52 15.4003C18.3866 15.4003 18.2534 15.4003 18.12 15.4003C18.12 15.3203 18.12 15.2403 18.12 15.1603C17.951 15.0983 17.791 15.0983 17.64 15.1603C17.41 15.0704 17.17 15.0038 16.92 14.9603C17.0252 14.8487 16.9985 14.7687 16.84 14.7203C16.8666 14.6936 16.8934 14.6669 16.92 14.6403C16.8334 14.5339 16.7801 14.4139 16.76 14.2803Z"
            fill="#2FA8E6" />
        <path fill-rule="evenodd" clip-rule="evenodd"
            d="M18.92 15.7998C18.9733 15.7998 19.0266 15.7998 19.08 15.7998C19.0328 15.9011 18.9928 16.0077 18.96 16.1198C18.9333 16.0931 18.9066 16.0664 18.88 16.0398C18.8205 16.1951 18.8339 16.3417 18.92 16.4798C18.7628 16.5297 18.6295 16.4897 18.52 16.3598C18.4266 16.2264 18.3333 16.0931 18.24 15.9598C18.1248 16.0742 18.098 16.2075 18.16 16.3598C18.297 16.4859 18.417 16.6192 18.52 16.7598C18.4133 16.7598 18.3066 16.7598 18.2 16.7598C18.047 16.4914 17.807 16.3714 17.48 16.3998C17.0724 16.0216 17.1391 15.9283 17.68 16.1198C17.9897 16.0336 18.0831 15.847 17.96 15.5598C17.8817 15.5979 17.8151 15.6512 17.76 15.7198C17.7063 15.6596 17.6396 15.6329 17.56 15.6398C17.5949 15.5139 17.6749 15.4205 17.8 15.3598C17.7295 15.3031 17.6762 15.2364 17.64 15.1598C17.791 15.0978 17.951 15.0978 18.12 15.1598C18.12 15.2398 18.12 15.3198 18.12 15.3998C18.2533 15.3998 18.3866 15.3998 18.52 15.3998C18.5349 15.5649 18.5749 15.7249 18.64 15.8798C18.6666 15.8264 18.6933 15.7731 18.72 15.7198C18.787 15.8397 18.8536 15.8663 18.92 15.7998Z"
            fill="#19A6F7" />
        <path fill-rule="evenodd" clip-rule="evenodd"
            d="M18.6001 15.3203C18.8419 15.4021 19.0019 15.5621 19.0801 15.8003C19.0267 15.8003 18.9735 15.8003 18.9201 15.8003C18.7513 15.6843 18.6447 15.5243 18.6001 15.3203Z"
            fill="#50AFDE" />
        <path fill-rule="evenodd" clip-rule="evenodd"
            d="M18.2001 16.7596C17.9472 16.6415 17.6805 16.5615 17.4001 16.5196C17.1973 16.4517 16.9973 16.3717 16.8001 16.2796C16.5697 16.4981 16.3964 16.7647 16.2801 17.0796C16.4427 17.2401 16.6027 17.4001 16.7601 17.5596C16.6661 17.5421 16.5861 17.5687 16.5201 17.6396C16.6073 17.7283 16.6073 17.8083 16.5201 17.8796C16.355 17.7025 16.2217 17.4625 16.1201 17.1596C16.0554 17.1842 16.0021 17.2242 15.9601 17.2796C16.0622 17.4769 16.0622 17.6769 15.9601 17.8796C15.8337 17.6573 15.7271 17.4173 15.6401 17.1596C15.5412 17.2193 15.4345 17.2459 15.3201 17.2396C15.3771 16.7879 15.5771 16.7612 15.9201 17.1596C15.9467 17.1329 15.9734 17.1062 16.0001 17.0796C16.1613 16.8793 16.2546 16.6793 16.2801 16.4796C16.2685 16.4178 16.2418 16.3645 16.2001 16.3196C16.5702 16.3168 16.8636 16.1701 17.0801 15.8796C16.9734 15.8262 16.8667 15.7729 16.7601 15.7196C16.7734 15.6929 16.7867 15.6662 16.8001 15.6396C17.0748 15.7172 17.3281 15.7172 17.5601 15.6396C17.6397 15.6327 17.7064 15.6594 17.7601 15.7196C17.8152 15.651 17.8818 15.5977 17.9601 15.5596C18.0832 15.8468 17.9898 16.0334 17.6801 16.1196C17.1392 15.9281 17.0725 16.0214 17.4801 16.3996C17.8071 16.3712 18.0471 16.4912 18.2001 16.7596Z"
            fill="#22A8EE" />
        <path fill-rule="evenodd" clip-rule="evenodd"
            d="M20.1199 15C20.1942 15.1149 20.2875 15.2215 20.3999 15.32C20.5016 15.7403 20.5416 16.167 20.5199 16.6C20.345 16.8958 20.1316 17.1626 19.8799 17.4C20.015 17.1581 20.1617 16.9181 20.3199 16.68C20.3732 16.2534 20.3732 15.8266 20.3199 15.4C20.1692 15.3078 20.1026 15.1745 20.1199 15Z"
            fill="#DCF7F9" />
        <path fill-rule="evenodd" clip-rule="evenodd"
            d="M12.36 13.6396C12.3339 14.321 12.3606 14.9876 12.44 15.6396C12.5196 16.0656 12.5996 16.4922 12.68 16.9196C12.313 16.7637 12.2063 16.497 12.36 16.1196C12.2073 15.3531 12.1673 14.5798 12.24 13.7996C12.2623 13.7264 12.3023 13.6731 12.36 13.6396Z"
            fill="#D7F4F9" />
        <path fill-rule="evenodd" clip-rule="evenodd"
            d="M19.0799 15.7998C19.2892 16.0847 19.2626 16.3514 18.9999 16.5998C18.8112 16.58 18.6512 16.6333 18.5199 16.7598C18.4169 16.6192 18.2969 16.4859 18.1599 16.3598C18.098 16.2076 18.1247 16.0742 18.2399 15.9598C18.3332 16.0932 18.4265 16.2264 18.5199 16.3598C18.6294 16.4897 18.7628 16.5297 18.9199 16.4798C18.8338 16.3417 18.8204 16.1951 18.8799 16.0398C18.9065 16.0664 18.9332 16.0932 18.9599 16.1198C18.9927 16.0077 19.0327 15.9011 19.0799 15.7998Z"
            fill="#22A9ED" />
        <path fill-rule="evenodd" clip-rule="evenodd"
            d="M17.3999 16.5195C17.6803 16.5615 17.947 16.6415 18.1999 16.7595C18.3065 16.7595 18.4133 16.7595 18.5199 16.7595C18.6513 16.6331 18.8113 16.5798 18.9999 16.5995C18.9553 16.7027 18.8753 16.7694 18.7599 16.7995C18.6133 16.8129 18.4665 16.8262 18.3199 16.8395C17.9573 16.8655 17.6506 16.7588 17.3999 16.5195Z"
            fill="#3FA2D6" />
        <path fill-rule="evenodd" clip-rule="evenodd"
            d="M11.0801 15.5596C11.149 15.9683 11.2556 16.3683 11.4001 16.7596C11.4014 16.9248 11.4281 17.0848 11.4801 17.2396C11.3492 17.1397 11.2558 17.0063 11.2001 16.8396C11.1337 16.4149 11.0937 15.9883 11.0801 15.5596Z"
            fill="#4FACDD" />
        <path fill-rule="evenodd" clip-rule="evenodd"
            d="M20.52 16.5996C20.5751 17.1563 20.3351 17.4763 19.8 17.5596C19.8267 17.5062 19.8534 17.453 19.88 17.3996C20.1318 17.1622 20.3452 16.8954 20.52 16.5996Z"
            fill="#39AAE2" />
        <path fill-rule="evenodd" clip-rule="evenodd"
            d="M19.7999 17.5596C19.6618 17.8421 19.4485 17.9487 19.1599 17.8796C19.3482 17.7321 19.5615 17.6254 19.7999 17.5596Z"
            fill="#3EAADE" />
        <path fill-rule="evenodd" clip-rule="evenodd"
            d="M13.24 17.96C13.3197 17.9532 13.3863 17.9799 13.44 18.04C13.6073 18.2992 13.7539 18.566 13.88 18.84C13.609 18.5923 13.3956 18.2989 13.24 17.96Z"
            fill="#50AADD" />
        <path fill-rule="evenodd" clip-rule="evenodd"
            d="M14.2 19.1602C14.5175 19.371 14.8108 19.611 15.08 19.8802C14.7165 19.7304 14.4232 19.4904 14.2 19.1602Z"
            fill="#4DB0DF" />
        <path fill-rule="evenodd" clip-rule="evenodd"
            d="M15.3201 20.0399C15.456 20.0271 15.5893 20.0403 15.7201 20.0799C15.9515 20.3227 16.2315 20.496 16.5601 20.5999C16.7011 20.5619 16.8345 20.5085 16.9601 20.4399C17.0094 20.5158 16.9961 20.5824 16.9201 20.6399C17.0205 20.6732 17.0739 20.7399 17.0801 20.8399C16.4099 20.7416 15.8233 20.4749 15.3201 20.0399Z"
            fill="#45AAE1" />
        <path fill-rule="evenodd" clip-rule="evenodd"
            d="M13.9599 20.6795C13.8861 20.6153 13.8061 20.6019 13.7199 20.6395C13.3838 20.9891 13.0371 21.3225 12.6799 21.6395C12.8599 21.0994 13.2199 20.7261 13.7599 20.5195C13.87 20.5343 13.9367 20.5876 13.9599 20.6795Z"
            fill="#D9F6FA" />
        <path fill-rule="evenodd" clip-rule="evenodd"
            d="M12.36 20.2002C12.3298 20.3408 12.2765 20.4742 12.2 20.6002C12.2266 20.6536 12.2534 20.7068 12.28 20.7602C12.1564 20.8364 12.023 20.863 11.88 20.8402C11.9028 20.9832 11.8762 21.1166 11.8 21.2402C11.7466 21.2136 11.6934 21.1868 11.64 21.1602C11.4451 21.3295 11.2318 21.4628 11 21.5602C11.4266 21.0802 11.88 20.6268 12.36 20.2002Z"
            fill="#DCF5FA" />
        <path fill-rule="evenodd" clip-rule="evenodd"
            d="M13.96 20.68C14.0911 20.7578 14.1978 20.8644 14.28 21C14.1933 20.9968 14.1133 20.9701 14.04 20.92C13.9567 21.1192 13.8901 21.1192 13.84 20.92C13.6543 21.2656 13.3877 21.5323 13.04 21.72C12.9782 21.7084 12.9249 21.6817 12.88 21.64C12.5259 22.0347 12.1392 22.3813 11.72 22.68C12.04 22.3333 12.36 21.9866 12.68 21.64C13.0371 21.3229 13.3838 20.9896 13.72 20.64C13.8061 20.6024 13.8861 20.6157 13.96 20.68Z"
            fill="#2CA5E7" />
        <path fill-rule="evenodd" clip-rule="evenodd"
            d="M18.8401 21.0799C19.0234 21.0594 19.1968 21.0861 19.3601 21.1599C19.3958 21.3874 19.4358 21.614 19.4801 21.8399C19.4226 22.2039 19.2093 22.3773 18.8401 22.3599C18.9201 22.3066 19.0001 22.2533 19.0801 22.1999C19.1833 22.1553 19.2499 22.0753 19.2801 21.9599C19.4253 21.5083 19.2786 21.215 18.8401 21.0799Z"
            fill="#45A9DC" />
        <path fill-rule="evenodd" clip-rule="evenodd"
            d="M15.8 21.7197C16.6884 22.0044 17.5951 22.1911 18.52 22.2797C18.7055 22.24 18.8922 22.2133 19.08 22.1997C19 22.2531 18.92 22.3064 18.84 22.3597C18.52 22.3597 18.2 22.3597 17.88 22.3597C17.4695 22.2419 17.0428 22.1485 16.6 22.0797C16.3017 22.0122 16.035 21.8922 15.8 21.7197Z"
            fill="#D4F5F9" />
        <path fill-rule="evenodd" clip-rule="evenodd"
            d="M14.84 21.3203C15.1503 21.4858 15.4703 21.619 15.8 21.7203C16.035 21.8928 16.3017 22.0128 16.6 22.0803C17.0427 22.1491 17.4694 22.2425 17.88 22.3603C17.6582 22.3379 17.4582 22.3913 17.28 22.5203C17.22 22.4702 17.1533 22.4302 17.08 22.4003C17.1066 22.3737 17.1334 22.347 17.16 22.3203C16.5466 22.1741 15.9866 22.2407 15.48 22.5203C15.4266 22.4937 15.3734 22.467 15.32 22.4403C15.3466 22.4137 15.3734 22.387 15.4 22.3603C16.2594 22.0693 16.2327 21.9226 15.32 21.9203C15.3869 21.8209 15.3602 21.7275 15.24 21.6403C15.0772 21.597 14.9172 21.5437 14.76 21.4803C14.789 21.4257 14.8157 21.3723 14.84 21.3203Z"
            fill="#2CA6E7" />
        <path fill-rule="evenodd" clip-rule="evenodd"
            d="M11 21.5596C10.9401 21.7263 10.9401 21.8863 11 22.0396C10.8764 22.1157 10.743 22.1424 10.6 22.1196C10.6228 22.2626 10.5961 22.396 10.52 22.5196C10.4133 22.4129 10.3066 22.4129 10.2 22.5196C10.0855 22.7146 9.92549 22.8479 9.71997 22.9196C10.0903 22.4158 10.5169 21.9625 11 21.5596Z"
            fill="#E3F7FA" />
        <path fill-rule="evenodd" clip-rule="evenodd"
            d="M9.2399 23.3203C9.25246 23.4302 9.2391 23.5369 9.1999 23.6403C8.89934 23.8182 8.6727 24.0582 8.5199 24.3603C8.51142 24.1111 8.59142 23.8978 8.7599 23.7203C8.9199 23.587 9.0799 23.4537 9.2399 23.3203Z"
            fill="#D2F4FA" />
        <path fill-rule="evenodd" clip-rule="evenodd"
            d="M11.7199 22.6797C11.7131 22.7594 11.7398 22.826 11.7999 22.8797C11.7199 22.9063 11.6399 22.933 11.5599 22.9597C11.4459 23.0686 11.3793 23.1886 11.3599 23.3197C11.3333 23.293 11.3066 23.2663 11.2799 23.2397C11.0321 23.5282 10.7521 23.7682 10.4399 23.9597C10.8399 23.5063 11.2666 23.0797 11.7199 22.6797Z"
            fill="#37A1DC" />
        <path fill-rule="evenodd" clip-rule="evenodd"
            d="M8.75988 23.7197C8.5914 23.8972 8.5114 24.1105 8.51988 24.3597C8.51988 24.3864 8.51988 24.4131 8.51988 24.4397C8.52908 24.6355 8.60908 24.7955 8.75988 24.9197C8.47708 24.9152 8.29044 24.7819 8.19988 24.5197C8.08724 24.4603 7.98059 24.3936 7.87988 24.3197C8.12044 24.4293 8.28044 24.3493 8.35988 24.0797C8.34828 24.018 8.32164 23.9646 8.27988 23.9197C8.41252 23.7867 8.57252 23.72 8.75988 23.7197Z"
            fill="#2EABEB" />
        <path fill-rule="evenodd" clip-rule="evenodd"
            d="M8.52002 24.4404C8.67074 24.511 8.77738 24.631 8.84002 24.8004C9.07802 24.8039 9.31802 24.7906 9.56002 24.7604C9.33186 24.9907 9.06522 25.044 8.76002 24.9204C8.60922 24.7962 8.52922 24.6362 8.52002 24.4404Z"
            fill="#D5F6F9" />
    </g>
    <defs>
        <clipPath id="clip0_5600_45">
            <rect width="32" height="32" fill="white" />
        </clipPath>
    </defs>
</svg>