<svg width="32" height="32" viewBox="0 0 32 32" fill="none" xmlns="http://www.w3.org/2000/svg">
    <g clip-path="url(#clip0_5624_536)">
        <path fill-rule="evenodd" clip-rule="evenodd"
            d="M-0.0800781 -0.0800781C10.5866 -0.0800781 21.2532 -0.0800781 31.9199 -0.0800781C31.9199 10.5866 31.9199 21.2532 31.9199 31.9199C21.2532 31.9199 10.5866 31.9199 -0.0800781 31.9199C-0.0800781 21.2532 -0.0800781 10.5866 -0.0800781 -0.0800781Z"
            fill="#CE501F" />
        <path fill-rule="evenodd" clip-rule="evenodd"
            d="M19.12 4.39993C18.687 4.38791 18.2603 4.33458 17.84 4.23993C16.5883 4.05495 15.3084 4.02828 14 4.15993C13.802 4.19706 13.642 4.27706 13.52 4.39993C13.4133 4.39993 13.3066 4.39993 13.2 4.39993C13.2724 4.24658 13.3791 4.11325 13.52 3.99993C15.0133 3.89325 16.5067 3.89325 18 3.99993C18.4166 4.06237 18.79 4.19572 19.12 4.39993Z"
            fill="#B85734" />
        <path fill-rule="evenodd" clip-rule="evenodd"
            d="M17.84 4.24023C16.3955 4.21135 14.9555 4.26469 13.52 4.40023C13.642 4.27736 13.802 4.19736 14 4.16023C15.3084 4.02858 16.5883 4.05525 17.84 4.24023Z"
            fill="#EBC6B7" />
        <path fill-rule="evenodd" clip-rule="evenodd"
            d="M17.84 4.24003C18.2604 4.33469 18.6871 4.38801 19.12 4.40003C19.9453 4.79131 20.7986 5.13797 21.68 5.44003C22.3824 5.8967 23.0759 6.35003 23.76 6.80003C24.7456 7.8364 25.5989 8.9564 26.32 10.16C27.2066 12.441 27.3666 14.7876 26.8 17.2C26.5348 17.7263 26.268 18.2597 26 18.8C25.6588 19.0546 25.3922 19.3746 25.2 19.76C23.4677 21.3728 21.4412 22.3861 19.12 22.8C17.09 22.8623 15.17 22.4623 13.36 21.6C13.0667 21.3067 12.7734 21.0133 12.48 20.72C12.3603 20.3456 12.4403 20.0256 12.72 19.76C12.88 19.4933 13.0934 19.28 13.36 19.12C13.6086 18.8184 13.9286 18.6584 14.32 18.64C14.6036 18.9264 14.9236 19.1397 15.28 19.28C15.8739 19.7304 16.5138 19.837 17.2 19.6C17.5479 19.56 17.8146 19.4 18 19.12C18.2356 18.8613 18.3423 18.5413 18.32 18.16C18.3183 17.9128 18.265 17.6995 18.16 17.52C17.9322 16.6221 17.6122 15.7688 17.2 14.96C17.1213 14.5891 16.9613 14.2691 16.72 14C16.6324 13.596 16.4724 13.2227 16.24 12.88C15.8134 13.36 15.3867 13.84 14.96 14.32C14.8597 14.4667 14.8063 14.6267 14.8 14.8C14.1938 15.3681 13.6605 16.0082 13.2 16.72C12.9889 16.9507 12.7223 17.0573 12.4 17.04C12.4 17.3067 12.4 17.5733 12.4 17.84C11.5207 18.8543 10.7207 19.9208 10 21.04C9.85233 21.1685 9.69233 21.1952 9.52004 21.12C8.68616 20.2754 8.31283 19.2888 8.40004 18.16C10.464 15.6865 12.4907 13.1798 14.48 10.64C14.6394 10.6538 14.7727 10.6004 14.88 10.48C14.9596 10.0567 14.9863 9.63 14.96 9.20003C16.0941 9.15275 17.2141 9.20609 18.32 9.36003C18.5333 9.7867 18.7468 10.2134 18.96 10.64C19.254 11.5459 19.6272 12.3993 20.08 13.2C20.3023 13.9111 20.569 14.6044 20.88 15.28C21.04 15.8134 21.2 16.3467 21.36 16.88C21.2965 17.7535 21.3765 18.6067 21.6 19.44C21.8516 19.7743 22.1448 19.7743 22.48 19.44C22.6287 19.2498 22.682 19.0365 22.64 18.8C23.529 18.8447 23.9823 18.4179 24 17.52C24.3487 17.4215 24.642 17.2347 24.88 16.96C24.4852 16.7059 24.4586 16.4125 24.8 16.08C24.9068 14.8534 24.9068 13.6267 24.8 12.4C24.6816 12.109 24.4949 11.8957 24.24 11.76C24.1474 11.3071 23.9341 10.9337 23.6 10.64C23.4536 10.2794 23.2404 9.95937 22.96 9.68003C22.8 9.3067 22.5333 9.04003 22.16 8.88003C21.3 8.07752 20.2868 7.54419 19.12 7.28003C18.7444 7.02448 18.3178 6.86448 17.84 6.80003C17.4812 6.59016 17.0544 6.4835 16.56 6.48003C16.1032 6.48043 15.6765 6.53377 15.28 6.64003C14.8501 6.61377 14.4234 6.64045 14 6.72003C13.8535 6.76457 13.7468 6.84457 13.68 6.96003C13.2963 6.92153 12.9763 7.02821 12.72 7.28003C11.7676 7.43509 10.9676 7.86176 10.32 8.56003C10.2134 8.56003 10.16 8.61336 10.16 8.72003C9.63777 8.97509 9.2111 9.34843 8.88004 9.84003C8.77337 10 8.66672 10.16 8.56004 10.32C7.59264 11.3487 7.00596 12.5754 6.80004 14C6.59979 15.2574 6.59979 16.5375 6.80004 17.84C7.04708 18.7146 7.34041 19.5679 7.68004 20.4C8.00678 20.9504 8.40678 21.4304 8.88004 21.84C8.88004 21.8933 8.88004 21.9467 8.88004 22C9.14672 22.3733 9.46672 22.6933 9.84004 22.96C12.7117 25.2743 15.9117 25.861 19.44 24.72C20.6341 24.4821 21.7541 24.0554 22.8 23.44C23.4181 23.249 23.8981 22.8757 24.24 22.32C24.4978 21.7519 24.8711 21.2719 25.36 20.88C25.5186 21.9701 25.572 23.0901 25.52 24.24C25.32 24.5047 25.1066 24.7714 24.88 25.04C24.1837 25.3877 23.5437 25.8144 22.96 26.32C22.0592 26.5487 21.2058 26.8687 20.4 27.28C19.5311 27.3165 18.6778 27.4498 17.84 27.68C16.5612 27.76 15.2811 27.7866 14 27.76C12.1627 27.3015 10.4561 26.5547 8.88004 25.52C7.411 24.372 6.23768 22.9853 5.36004 21.36C4.94196 20.1856 4.54196 19.0123 4.16004 17.84C4.08009 16.5611 4.05342 15.2811 4.08004 14C4.97883 10.1288 7.1655 7.19552 10.64 5.20003C11.3635 4.97006 12.0568 4.70339 12.72 4.40003C12.88 4.40003 13.04 4.40003 13.2 4.40003C13.3067 4.40003 13.4134 4.40003 13.52 4.40003C14.9555 4.26449 16.3956 4.21115 17.84 4.24003Z"
            fill="#F8F6F3" />
        <path fill-rule="evenodd" clip-rule="evenodd"
            d="M12.7199 4.39987C12.0566 4.70323 11.3633 4.9699 10.6399 5.19987C11.2103 4.65352 11.9036 4.38686 12.7199 4.39987Z"
            fill="#BF6441" />
        <path fill-rule="evenodd" clip-rule="evenodd"
            d="M15.28 6.64047C15.6765 6.53421 16.1032 6.48087 16.56 6.48047C17.0544 6.48394 17.4811 6.5906 17.84 6.80047C16.9925 6.67655 16.1392 6.6232 15.28 6.64047Z"
            fill="#F7D6C4" />
        <path fill-rule="evenodd" clip-rule="evenodd"
            d="M15.2799 6.63965C16.1391 6.62239 16.9924 6.67573 17.8399 6.79965C18.3177 6.8641 18.7443 7.0241 19.1199 7.27965C18.5766 7.03624 18.0699 7.08957 17.5999 7.43965C17.3982 7.3982 17.2382 7.29152 17.1199 7.11965C16.9017 7.24098 16.715 7.16098 16.5599 6.87965C15.5954 6.77716 14.6354 6.80383 13.6799 6.95965C13.7467 6.8442 13.8534 6.7642 13.9999 6.71965C14.4233 6.64007 14.85 6.6134 15.2799 6.63965Z"
            fill="#C25831" />
        <path fill-rule="evenodd" clip-rule="evenodd"
            d="M23.76 6.7998C24.0755 6.95196 24.3955 7.11196 24.72 7.2798C24.9554 7.70156 25.2219 8.10156 25.52 8.4798C25.6718 8.57856 25.8051 8.5519 25.92 8.3998C26.0563 8.99009 26.1896 9.57675 26.32 10.1598C25.5989 8.95617 24.7456 7.83617 23.76 6.7998Z"
            fill="#BD5E37" />
        <path fill-rule="evenodd" clip-rule="evenodd"
            d="M12.7201 7.28027C12.4843 7.46829 12.2176 7.62829 11.9201 7.76027C11.9536 7.85403 12.0069 7.93403 12.0801 8.00027C11.4291 8.01845 10.8425 8.20512 10.3201 8.56027C10.9676 7.862 11.7676 7.43533 12.7201 7.28027Z"
            fill="#C15C39" />
        <path fill-rule="evenodd" clip-rule="evenodd"
            d="M19.1201 7.28034C20.2868 7.5445 21.3001 8.07782 22.1601 8.88034C22.1601 9.04034 22.1601 9.20034 22.1601 9.36034C22.4516 9.41326 22.7183 9.51994 22.9601 9.68034C23.2404 9.95968 23.4537 10.2797 23.6001 10.6403C23.7039 11.3262 23.7307 12.0195 23.6801 12.7203C23.7334 12.507 23.7868 12.2937 23.8401 12.0803C24.3471 13.3031 24.5071 14.5831 24.3201 15.9203C24.1396 16.2155 24.0596 16.5355 24.0801 16.8803C23.7575 17.0333 23.4643 17.2467 23.2001 17.5203C23.1339 17.4472 23.0539 17.3938 22.9601 17.3603C22.499 17.6591 22.2857 18.0858 22.3201 18.6403C22.1068 18.6403 21.8934 18.6403 21.6801 18.6403C21.6801 18.2671 21.6801 17.8936 21.6801 17.5203C21.495 16.7739 21.4683 16.0272 21.6001 15.2803C21.5508 15.4096 21.4708 15.5163 21.3601 15.6003C21.2377 15.4224 21.0777 15.3158 20.8801 15.2803C20.5691 14.6047 20.3023 13.9114 20.0801 13.2003C19.8668 12.347 19.6534 11.4937 19.4401 10.6403C19.2801 10.6403 19.1201 10.6403 18.9601 10.6403C18.7468 10.2137 18.5334 9.78701 18.3201 9.36034C17.2123 9.04621 16.039 8.93955 14.8001 9.04034C14.8747 9.62626 14.768 10.1596 14.4801 10.6403C12.4908 13.1801 10.4641 15.6868 8.40009 18.1603C8.24675 18.0879 8.11342 17.9813 8.00009 17.8403C7.88145 18.3303 7.90813 18.8103 8.08009 19.2803C7.89909 19.457 7.76576 19.4037 7.68009 19.1203C7.62677 19.2271 7.57342 19.3336 7.52009 19.4403C7.43549 18.8082 7.19549 18.2749 6.80009 17.8403C6.59984 16.5378 6.59984 15.2577 6.80009 14.0003C7.05558 13.8024 7.24225 13.5357 7.36009 13.2003C7.40982 12.8714 7.48982 12.5514 7.60009 12.2403C8.16029 12.1386 8.32029 11.8453 8.08009 11.3603C8.30499 11.0439 8.46499 10.6972 8.56009 10.3203C8.66677 10.1603 8.77342 10.0003 8.88009 9.84034C9.40651 9.58056 9.83317 9.20723 10.1601 8.72034C10.1601 8.61366 10.2134 8.56034 10.3201 8.56034C10.8425 8.20518 11.4291 8.01851 12.0801 8.00034C12.0069 7.9341 11.9536 7.8541 11.9201 7.76034C12.2176 7.62835 12.4843 7.46835 12.7201 7.28034C12.9764 7.02851 13.2964 6.92184 13.6801 6.96034C14.6356 6.80451 15.5956 6.77784 16.5601 6.88034C16.7151 7.16166 16.9019 7.24166 17.1201 7.12034C17.2383 7.29221 17.3983 7.39888 17.6001 7.44034C18.07 7.09026 18.5767 7.03693 19.1201 7.28034Z"
            fill="#CD5021" />
        <path fill-rule="evenodd" clip-rule="evenodd"
            d="M18.32 9.35965C17.2141 9.20572 16.0941 9.15237 14.96 9.19965C14.9862 9.62962 14.9596 10.0563 14.88 10.4797C14.7727 10.6 14.6393 10.6534 14.48 10.6397C14.7679 10.1589 14.8746 9.62557 14.8 9.03965C16.0389 8.93887 17.2121 9.04553 18.32 9.35965Z"
            fill="#F3CBB2" />
        <path fill-rule="evenodd" clip-rule="evenodd"
            d="M10.1599 8.71973C9.83295 9.20662 9.4063 9.57995 8.87988 9.83973C9.21094 9.34813 9.63761 8.97478 10.1599 8.71973Z"
            fill="#BC5F3D" />
        <path fill-rule="evenodd" clip-rule="evenodd"
            d="M22.1599 8.87988C22.5332 9.03988 22.7999 9.30655 22.9599 9.67988C22.7182 9.51948 22.4514 9.41281 22.1599 9.35988C22.1599 9.19988 22.1599 9.03988 22.1599 8.87988Z"
            fill="#CA7C63" />
        <path fill-rule="evenodd" clip-rule="evenodd"
            d="M18.96 10.6396C19.12 10.6396 19.28 10.6396 19.44 10.6396C19.6532 11.493 19.8667 12.3463 20.08 13.1996C19.6272 12.3989 19.2539 11.5456 18.96 10.6396Z"
            fill="#C65836" />
        <path fill-rule="evenodd" clip-rule="evenodd"
            d="M8.56005 10.3203C8.46494 10.6972 8.30494 11.0438 8.08005 11.3603C8.32024 11.8453 8.16024 12.1386 7.60005 12.2403C7.48978 12.5514 7.40978 12.8714 7.36005 13.2003C7.24221 13.5357 7.05554 13.8023 6.80005 14.0003C7.00597 12.5756 7.59264 11.349 8.56005 10.3203Z"
            fill="#BF5A34" />
        <path fill-rule="evenodd" clip-rule="evenodd"
            d="M23.6001 10.6396C23.9342 10.9333 24.1475 11.3067 24.2401 11.7596C24.7535 13.1744 24.8335 14.6144 24.4801 16.0796C24.4203 16.3982 24.287 16.6649 24.0801 16.8796C24.0596 16.5348 24.1396 16.2148 24.3201 15.9196C24.5071 14.5824 24.3471 13.3024 23.8401 12.0796C23.7868 12.293 23.7334 12.5063 23.6801 12.7196C23.7307 12.0188 23.7039 11.3255 23.6001 10.6396Z"
            fill="#C25F3B" />
        <path fill-rule="evenodd" clip-rule="evenodd"
            d="M16.72 13.9999C16.4519 13.8905 16.3452 13.6772 16.4 13.3599C16.212 13.3248 16.052 13.3782 15.92 13.5199C15.9136 14.2847 15.5403 14.7114 14.8 14.7999C14.8064 14.6266 14.8597 14.4666 14.96 14.3199C15.3867 13.8399 15.8134 13.3599 16.24 12.8799C16.4724 13.2225 16.6324 13.5959 16.72 13.9999Z"
            fill="#C8603F" />
        <path fill-rule="evenodd" clip-rule="evenodd"
            d="M20.8799 15.2803C21.0775 15.3157 21.2375 15.4224 21.3599 15.6003C21.4706 15.5162 21.5506 15.4096 21.5999 15.2803C21.468 16.0272 21.4948 16.7739 21.6799 17.5203C21.5732 17.307 21.4666 17.0936 21.3599 16.8803C21.1999 16.347 21.0399 15.8136 20.8799 15.2803Z"
            fill="#C45F35" />
        <path fill-rule="evenodd" clip-rule="evenodd"
            d="M17.2 14.96C17.6121 15.7687 17.9321 16.622 18.16 17.52C17.5603 16.7896 17.2403 15.9363 17.2 14.96Z"
            fill="#C26141" />
        <path fill-rule="evenodd" clip-rule="evenodd"
            d="M13.1999 16.7197C12.9424 17.0541 12.7291 17.4274 12.5599 17.8397C12.5066 17.8397 12.4532 17.8397 12.3999 17.8397C12.3999 17.573 12.3999 17.3064 12.3999 17.0397C12.7221 17.057 12.9888 16.9504 13.1999 16.7197Z"
            fill="#EDC7B7" />
        <path fill-rule="evenodd" clip-rule="evenodd"
            d="M26.8 17.2002C26.8354 17.8991 26.5686 18.4325 26 18.8002C26.268 18.2599 26.5347 17.7264 26.8 17.2002Z"
            fill="#B85D3A" />
        <path fill-rule="evenodd" clip-rule="evenodd"
            d="M18.16 17.5195C18.265 17.6991 18.3182 17.9123 18.32 18.1595C18.3422 18.5408 18.2355 18.8608 18 19.1195C18.1131 18.5938 18.1664 18.0605 18.16 17.5195Z"
            fill="#B26141" />
        <path fill-rule="evenodd" clip-rule="evenodd"
            d="M4.08001 14C4.05339 15.2811 4.08006 16.5611 4.16001 17.84C4.54193 19.0123 4.94193 20.1856 5.36001 21.36C4.87651 20.9013 4.47651 20.368 4.16001 19.76C4.12676 19.2003 3.99342 18.667 3.76001 18.16C3.85796 16.7494 3.96463 15.3628 4.08001 14Z"
            fill="#C05B33" />
        <path fill-rule="evenodd" clip-rule="evenodd"
            d="M12.4 17.8398C12.4533 17.8398 12.5067 17.8398 12.56 17.8398C12.14 18.5899 11.7933 19.3366 11.52 20.0798C11.4708 19.9506 11.3908 19.8438 11.28 19.7598C10.9697 20.1018 10.7031 20.475 10.48 20.8798C10.348 21.0216 10.188 21.0749 10 21.0398C10.7207 19.9206 11.5207 18.8541 12.4 17.8398Z"
            fill="#C75833" />
        <path fill-rule="evenodd" clip-rule="evenodd"
            d="M24.24 11.7598C24.4948 11.8954 24.6816 12.1088 24.8 12.3998C24.9067 13.6264 24.9067 14.8531 24.8 16.0798C24.4585 16.4122 24.4851 16.7057 24.88 16.9598C24.6419 17.2345 24.3486 17.4212 24 17.5198C23.9822 18.4177 23.5289 18.8444 22.64 18.7998C22.6819 19.0362 22.6286 19.2495 22.48 19.4398C22.1448 19.774 21.8515 19.774 21.6 19.4398C21.3764 18.6065 21.2964 17.7532 21.36 16.8798C21.4667 17.093 21.5732 17.3065 21.68 17.5198C21.68 17.893 21.68 18.2665 21.68 18.6398C21.68 18.7998 21.68 18.9598 21.68 19.1198C21.8483 19.1436 22.0083 19.117 22.16 19.0398C22.8972 18.3839 23.5372 17.6639 24.08 16.8798C24.2868 16.665 24.4201 16.3983 24.48 16.0798C24.8334 14.6145 24.7534 13.1745 24.24 11.7598Z"
            fill="#F4EADE" />
        <path fill-rule="evenodd" clip-rule="evenodd"
            d="M24.0799 16.8799C23.5372 17.664 22.8972 18.384 22.1599 19.0399C22.0083 19.1172 21.8483 19.1437 21.6799 19.1199C21.6799 18.9599 21.6799 18.7999 21.6799 18.6399C21.8932 18.6399 22.1067 18.6399 22.3199 18.6399C22.2855 18.0853 22.4988 17.6586 22.9599 17.3599C23.0537 17.3933 23.1337 17.4468 23.1999 17.5199C23.4641 17.2463 23.7574 17.0328 24.0799 16.8799Z"
            fill="#C75835" />
        <path fill-rule="evenodd" clip-rule="evenodd"
            d="M15.28 19.2803C15.8998 19.482 16.5399 19.5888 17.2 19.6003C16.5138 19.8372 15.8739 19.7307 15.28 19.2803Z"
            fill="#CA7F61" />
        <path fill-rule="evenodd" clip-rule="evenodd"
            d="M6.80005 17.8398C7.19544 18.2744 7.43544 18.8077 7.52005 19.4398C7.57338 19.3331 7.62672 19.2266 7.68005 19.1198C7.76571 19.4032 7.89904 19.4565 8.08005 19.2798C7.90808 18.8098 7.88141 18.3298 8.00005 17.8398C8.11338 17.9808 8.2467 18.0874 8.40005 18.1598C8.31283 19.2886 8.68616 20.2752 9.52005 21.1198C9.69234 21.195 9.85234 21.1683 10 21.0398C9.98085 21.2136 9.87418 21.3203 9.68005 21.3598C9.43118 21.3243 9.21786 21.2176 9.04005 21.0398C8.88774 21.287 8.83442 21.5538 8.88005 21.8398C8.40678 21.4302 8.00678 20.9502 7.68005 20.3998C7.34042 19.5677 7.04709 18.7144 6.80005 17.8398Z"
            fill="#C85831" />
        <path fill-rule="evenodd" clip-rule="evenodd"
            d="M8.87988 22C9.35265 22.1528 9.67265 22.4728 9.83988 22.96C9.46655 22.6933 9.14655 22.3733 8.87988 22Z"
            fill="#B66643" />
        <path fill-rule="evenodd" clip-rule="evenodd"
            d="M12.72 19.7598C12.4403 20.0254 12.3603 20.3454 12.48 20.7198C12.7734 21.013 13.0667 21.3065 13.36 21.5998C15.17 22.462 17.09 22.862 19.12 22.7998C17.2354 23.0113 15.3688 22.8246 13.52 22.2398C13.2898 22.0812 13.1298 21.8679 13.04 21.5998C12.1239 21.3663 11.8572 20.8063 12.24 19.9198C12.3867 19.8194 12.5467 19.766 12.72 19.7598Z"
            fill="#C55A36" />
        <path fill-rule="evenodd" clip-rule="evenodd"
            d="M25.2001 19.7598C25.2033 20.0226 25.0966 20.2359 24.8801 20.3998C24.9868 20.453 25.0934 20.5065 25.2001 20.5598C25.5217 20.4218 25.8417 20.3418 26.1601 20.3198C26.0291 21.7206 25.9491 23.134 25.9201 24.5598C25.5947 24.7777 25.248 24.9377 24.8801 25.0398C25.1067 24.7711 25.3201 24.5044 25.5201 24.2398C25.7312 23.0914 25.7312 21.9182 25.5201 20.7198C25.423 20.7396 25.3697 20.7929 25.3601 20.8798C24.8712 21.2716 24.4979 21.7516 24.2401 22.3198C23.7086 22.6393 23.2286 23.0126 22.8001 23.4398C21.7542 24.0551 20.6342 24.4818 19.4401 24.7198C19.6843 24.459 20.0043 24.3257 20.4001 24.3198C20.1932 24.2414 19.9798 24.2146 19.7601 24.2398C19.7259 23.9767 19.7793 23.7367 19.9201 23.5198C20.6012 23.622 21.2945 23.702 22.0001 23.7598C21.8755 23.1202 21.5022 22.6937 20.8801 22.4798C20.3281 22.7556 19.7414 22.8623 19.1201 22.7998C21.4412 22.3858 23.4678 21.3726 25.2001 19.7598Z"
            fill="#C8532A" />
        <path fill-rule="evenodd" clip-rule="evenodd"
            d="M25.3601 20.8797C25.3697 20.7928 25.423 20.7396 25.5201 20.7197C25.7311 21.9181 25.7311 23.0914 25.5201 24.2397C25.5721 23.0898 25.5187 21.9698 25.3601 20.8797Z"
            fill="#F9AD87" />
        <path fill-rule="evenodd" clip-rule="evenodd"
            d="M16.72 14C16.9613 14.2691 17.1213 14.5891 17.2 14.96C17.2404 15.9363 17.5604 16.7896 18.16 17.52C18.1664 18.061 18.1132 18.5943 18 19.12C17.8146 19.4 17.5479 19.56 17.2 19.6C16.5399 19.5885 15.8998 19.4818 15.28 19.28C14.9236 19.1397 14.6036 18.9264 14.32 18.64C13.8138 18.3695 13.4938 18.5295 13.36 19.12C13.0934 19.28 12.88 19.4933 12.72 19.76C12.5467 19.7663 12.3867 19.8197 12.24 19.92C11.8572 20.8066 12.1239 21.3666 13.04 21.6C13.1298 21.8682 13.2898 22.0815 13.52 22.24C15.3688 22.8248 17.2354 23.0115 19.12 22.8C19.7413 22.8626 20.328 22.7559 20.88 22.48C21.5021 22.6939 21.8754 23.1205 22 23.76C21.2944 23.7023 20.6012 23.6223 19.92 23.52C19.7792 23.737 19.7258 23.977 19.76 24.24C19.9797 24.2149 20.1932 24.2416 20.4 24.32C20.0042 24.3259 19.6842 24.4592 19.44 24.72C15.9117 25.861 12.7117 25.2743 9.84004 22.96C9.67281 22.4728 9.35281 22.1528 8.88004 22C8.88004 21.9467 8.88004 21.8933 8.88004 21.84C8.83441 21.5539 8.88773 21.2872 9.04004 21.04C9.21785 21.2178 9.43117 21.3245 9.68004 21.36C9.87417 21.3205 9.98084 21.2138 10 21.04C10.188 21.0751 10.348 21.0218 10.48 20.88C10.7031 20.4752 10.9698 20.1019 11.28 19.76C11.3908 19.844 11.4708 19.9507 11.52 20.08C11.7934 19.3368 12.14 18.5901 12.56 17.84C12.7292 17.4277 12.9425 17.0544 13.2 16.72C13.6605 16.0082 14.1938 15.3681 14.8 14.8C15.5403 14.7115 15.9136 14.2849 15.92 13.52C16.052 13.3783 16.212 13.325 16.4 13.36C16.3452 13.6773 16.4519 13.8907 16.72 14Z"
            fill="#CD5021" />
        <path fill-rule="evenodd" clip-rule="evenodd"
            d="M14.3201 18.6402C13.9286 18.6586 13.6086 18.8186 13.3601 19.1202C13.4939 18.5296 13.8139 18.3696 14.3201 18.6402Z"
            fill="#EDBBA8" />
        <path fill-rule="evenodd" clip-rule="evenodd"
            d="M24.24 22.3203C23.8981 22.876 23.4181 23.2493 22.8 23.4403C23.2285 23.0131 23.7085 22.6398 24.24 22.3203Z"
            fill="#F0D1C1" />
        <path fill-rule="evenodd" clip-rule="evenodd"
            d="M24.88 25.04C24.6905 25.2301 24.6905 25.4168 24.88 25.6C24.6596 25.9919 24.3662 26.0719 24 25.84C23.7641 26.2266 23.4176 26.3866 22.96 26.32C23.5436 25.8144 24.1836 25.3877 24.88 25.04Z"
            fill="#C45D3D" />
        <path fill-rule="evenodd" clip-rule="evenodd"
            d="M8.87988 25.5195C10.4559 26.5543 12.1626 27.301 13.9999 27.7595C13.2995 27.6882 12.6328 27.7949 11.9999 28.0795C11.9199 28.0263 11.8399 27.9728 11.7599 27.9195C12.417 27.6109 12.3903 27.3975 11.6799 27.2795C11.4156 27.3371 11.149 27.3904 10.8799 27.4395C10.5786 27.2551 10.4453 26.9885 10.4799 26.6395C9.65369 26.6784 9.12036 26.3051 8.87988 25.5195Z"
            fill="#C5572F" />
        <path fill-rule="evenodd" clip-rule="evenodd"
            d="M22.9599 26.3203C22.9085 26.568 22.7485 26.6747 22.4799 26.6403C22.4799 26.8003 22.4799 26.9603 22.4799 27.1203C21.7809 27.115 21.0876 27.1683 20.3999 27.2803C21.2057 26.869 22.0591 26.549 22.9599 26.3203Z"
            fill="#C15B33" />
        <path fill-rule="evenodd" clip-rule="evenodd"
            d="M20.4 27.2803C19.6928 27.5308 18.9461 27.7176 18.16 27.8403C16.7451 27.9721 15.3584 27.9454 14 27.7603C15.2811 27.7868 16.5611 27.7603 17.84 27.6803C18.6778 27.45 19.531 27.3168 20.4 27.2803Z"
            fill="#B96040" />
    </g>
    <defs>
        <clipPath id="clip0_5624_536">
            <rect width="32" height="32" fill="white" />
        </clipPath>
    </defs>
</svg>