<svg width="32" height="32" viewBox="0 0 32 32" fill="none" xmlns="http://www.w3.org/2000/svg">
    <path fill-rule="evenodd" clip-rule="evenodd"
        d="M1.26872 0.00176598C11.0895 -0.00294212 20.9104 0.00176598 30.7312 0.0158621C31.4129 0.124233 31.831 0.514244 31.9858 1.18584C32.0047 11.0625 32.0047 20.9392 31.9858 30.8159C31.8883 31.327 31.6018 31.6887 31.1259 31.9013C31.0256 31.941 30.9224 31.9692 30.8158 31.9858C20.9386 32.0047 11.0613 32.0047 1.18414 31.9858C0.525516 31.8347 0.135503 31.4259 0.0140976 30.7595C-0.0046992 20.9298 -0.0046992 11.1001 0.0140976 1.27042C0.136622 0.551176 0.554832 0.128293 1.26872 0.00176598Z"
        fill="#3E83F3" />
    <path fill-rule="evenodd" clip-rule="evenodd"
        d="M18.5515 0.283691C18.5683 0.290317 18.5777 0.304413 18.5797 0.32598C17.706 4.61413 16.8415 8.90405 15.9859 13.1957C18.5974 13.6663 21.21 14.1315 23.8238 14.5912C18.9479 15.32 14.0703 16.0436 9.19118 16.762C8.8537 16.8156 8.51538 16.8532 8.17621 16.8748C11.641 11.3477 15.0994 5.81732 18.5515 0.283691Z"
        fill="#F9F9FA" />
    <path fill-rule="evenodd" clip-rule="evenodd"
        d="M12.9973 31.6896C12.9785 31.6896 12.9691 31.6803 12.9691 31.6614C13.8278 27.6849 14.6877 23.7098 15.5489 19.7361C15.567 19.6236 15.5811 19.5108 15.5912 19.3978C13.1179 18.888 10.6462 18.3665 8.17621 17.8331C13.2297 17.061 18.2858 16.3186 23.3445 15.606C19.8986 20.9704 16.4496 26.3317 12.9973 31.6896Z"
        fill="#F9F9FA" />
    <path fill-rule="evenodd" clip-rule="evenodd"
        d="M12.9691 31.6616C12.9691 31.6805 12.9785 31.6898 12.9973 31.6898C12.9893 31.7121 12.9752 31.731 12.955 31.7462C12.9342 31.711 12.9389 31.6828 12.9691 31.6616Z"
        fill="#99BDF8" />
</svg>