<svg width="32" height="32" viewBox="0 0 32 32" fill="none" xmlns="http://www.w3.org/2000/svg">
    <rect width="32" height="32" fill="#FAFAFA" />
    <path fill-rule="evenodd" clip-rule="evenodd"
        d="M15.8125 1.6875C16.0541 1.83021 16.2416 2.03854 16.375 2.3125C17.2715 4.10609 18.2298 5.85609 19.25 7.5625C21.2935 6.72804 23.3352 5.89471 25.375 5.0625C25.027 7.28179 24.5895 9.49012 24.0625 11.6875C26.22 12.3925 28.345 13.1425 30.4375 13.9375C28.6725 15.3058 26.9225 16.7016 25.1875 18.125C26.3959 20 27.6041 21.875 28.8125 23.75C26.521 23.7739 24.2292 23.753 21.9375 23.6875C21.6971 25.9116 21.3639 28.1199 20.9375 30.3125C19.2709 28.8541 17.6041 27.3959 15.9375 25.9375C14.2709 27.3959 12.6041 28.8541 10.9375 30.3125C10.5112 28.1199 10.1778 25.9116 9.9375 23.6875C7.68596 23.771 5.43596 23.771 3.1875 23.6875C4.32945 21.8166 5.49612 19.9625 6.6875 18.125C4.95553 16.7054 3.20553 15.3096 1.4375 13.9375C1.46366 13.8642 1.50533 13.8018 1.5625 13.75C3.67649 13.1149 5.75982 12.4065 7.8125 11.625C7.27817 9.45338 6.84067 7.26588 6.5 5.0625C8.5295 5.91971 10.5712 6.75305 12.625 7.5625C13.7525 5.64085 14.815 3.68251 15.8125 1.6875Z"
        fill="black" />
</svg>