<svg xmlns="http://www.w3.org/2000/svg" viewBox="0 0 42 42">
  <defs>
    <linearGradient id="a" x1="0" x2="1" y1="0" y2="0" gradientUnits="userSpaceOnUse" gradientTransform="matrix(-.0000402 -918.907 -918.907 .0000402 858.809 1614.34)">
      <stop offset="0" stop-color="#97d9f6"/>
      <stop offset=".66199914" stop-color="#0f80cc"/>
      <stop offset=".920245" stop-color="#0f80cc"/>
      <stop offset="1" stop-color="#0f80cc"/>
    </linearGradient>
  </defs>
  <g transform="translate(-56.578 -61.354)">
    <path fill="#0f80cc" d="m79.199 96.73-.032-.42s-.772-5.206-1.692-6.76c-.145-.246.016-1.258.422-2.756.237.41 1.239 2.165 1.44 2.73.226.64.274.823.274.823s-.549-2.826-1.451-4.475c.198-.667.434-1.404.701-2.192.341.599 1.159 2.049 1.339 2.553.036.103.067.191.094.271l.026-.145c-.206-.875-.611-2.399-1.166-3.524 1.231-6.408 5.43-14.974 9.735-18.795H60.806c-1.882 0-3.422 1.54-3.422 3.422v30.97c0 1.882 1.54 3.422 3.422 3.422h18.496c-.133-1.614-.178-3.4-.103-5.123"/>
    <g transform="matrix(.03527778 0 0 -.03527778 42.829 121.987)">
      <path fill="url(#a)" d="m994.055 997.609c6.725-11.629 35.115-61.371 40.815-77.398 6.42-18.121 7.77-23.313 7.77-23.313s-15.57 80.114-41.12 126.862c5.6 18.9 12.29 39.79 19.86 62.12 8.85-15.53 28.96-51.2 36.23-68.1.27 3.19.54 6.38.82 9.54-6.44 24.75-16.22 57.15-28.74 82.54 32.14 167.25 135.59 386.25 247.04 504.48H509.602c-37.883 0-68.711-30.82-68.711-68.71V731.789c173.738 66.68 383.23 127.633 563.529 125.02-6.693 25.812-14.315 49.152-22.318 62.679-4.122 6.981.449 35.653 11.953 78.121"/>
    </g>
    <path fill="#003b57" d="m95.439 63.025c-1.923-1.715-4.252-1.026-6.55 1.014-.341.303-.682.639-1.021.998-3.931 4.171-7.581 11.897-8.715 17.797.442.896.787 2.039 1.014 2.912.058.224.111.434.153.613.1.423.153.698.153.698s-.035-.133-.18-.553c-.027-.08-.058-.168-.094-.272-.016-.042-.037-.094-.061-.15-.256-.596-.966-1.854-1.278-2.402-.267.788-.503 1.525-.701 2.191.902 1.649 1.451 4.476 1.451 4.476s-.048-.183-.274-.823c-.201-.565-1.203-2.32-1.44-2.73-.406 1.498-.567 2.51-.422 2.756.282.477.551 1.301.787 2.211.533 2.052.904 4.549.904 4.549s.012.165.032.42c-.074 1.723-.03 3.509.104 5.123.177 2.137.509 3.973.933 4.955l.288-.157c-.623-1.935-.876-4.472-.765-7.398.168-4.472 1.197-9.865 3.098-15.486 3.212-8.485 7.67-15.293 11.749-18.544-3.718 3.358-8.75 14.226-10.256 18.251-1.687 4.507-2.882 8.737-3.603 12.789 1.243-3.799 5.262-5.432 5.262-5.432s1.971-2.431 4.274-5.903c-1.38.314-3.645.853-4.404 1.172-1.119.47-1.421.63-1.421.63s3.626-2.208 6.737-3.208c4.278-6.738 8.939-16.31 4.245-20.497"/>
  </g>
</svg>
