<svg width="32" height="32" viewBox="0 0 32 32" fill="none" xmlns="http://www.w3.org/2000/svg">
    <g clip-path="url(#clip0_5884_1442)">
        <path d="M0 0H32V32H0V0Z" fill="white" />
        <path
            d="M2.26074 24.8949C2.33482 24.8594 2.4 24.8149 2.45926 24.7646C2.45037 24.7616 2.44148 24.7616 2.43556 24.7586C2.37037 24.806 2.30519 24.8535 2.24 24.9068C2.24593 24.9038 2.25482 24.8979 2.26074 24.8949ZM1.6237 15.7098C2.48889 15.4549 3.3037 15.1498 4.21926 15.2001C4.06815 15.1498 3.8637 15.2001 3.70963 15.2001C2.99852 15.1498 2.28444 15.3542 1.52 15.5053C1.01037 15.606 0.554074 15.8105 0.0444444 15.9112C0.0266667 15.9172 0.0148148 15.929 0 15.9349V16.1483C0.518519 15.9172 1.07556 15.8727 1.6237 15.7098Z"
            fill="#000091" />
        <path
            d="M0.503704 17.1852C0.453333 17.2859 0.34963 17.2356 0.299259 17.2356C0.554074 17.3896 0.859259 17.2859 1.11407 17.4904C0.962963 17.6415 0.808889 17.4904 0.654815 17.4904C2.23407 17.9496 3.91111 18.3052 5.23556 19.3215C4.11556 19.8815 2.94519 20.1363 1.72444 20.3911C1.57037 20.3911 1.46963 20.3911 1.31852 20.3407C1.31852 20.3911 1.31852 20.4919 1.26815 20.4919C1.0637 20.4919 0.912593 20.4919 0.758519 20.5926C0.554074 20.6933 0.248889 20.7467 0.0977778 20.5926C0.0474074 20.5422 0.251852 20.5926 0.302222 20.4919H0V23.2474C0.115556 23.2504 0.234074 23.2652 0.34963 23.3422C0.225185 23.4104 0.118519 23.4844 0 23.5556V30.4711C0.343704 30.1244 1.00741 29.5437 2.17778 28.8444C3.34222 28.1481 4.72296 27.5407 6.07407 26.8741C6.71407 26.56 8.17482 25.8874 8.66963 25.3926C8.96 25.1022 9.5763 24.4533 9.8637 24.1422H9.85778C10.397 23.5319 10.9274 22.9452 11.5556 22.4089C11.7481 22.237 11.9319 22.0889 12.1096 21.9674C12.16 21.917 12.16 21.8163 12.2104 21.763C11.9556 21.8637 11.8044 22.0681 11.5496 22.1689C11.4993 22.1689 11.4489 22.1185 11.4993 22.0681L12.0415 21.6593H12.0059C11.9556 21.6593 11.9556 21.6089 11.9556 21.5585C11.2948 21.4578 10.7852 21.9141 10.3259 22.323C10.2252 22.3733 10.1215 22.2726 10.0711 22.2726C9.30667 22.5274 8.74667 23.1881 7.98519 23.4933V23.3926C7.68 23.4933 7.3837 23.68 7.06963 23.7481C6.61037 23.8489 6.20444 23.7985 5.79852 23.7985C5.18222 23.8607 4.56593 23.997 3.94667 24.1274C3.92889 24.1333 3.91111 24.1363 3.89333 24.1393C3.56148 24.2311 3.25037 24.3526 2.94519 24.5215C2.93333 24.5274 2.92148 24.5333 2.90963 24.5422C2.88296 24.5748 2.85926 24.6044 2.83556 24.6311C2.72593 24.7526 2.63111 24.8622 2.48593 24.9363C2.17185 25.0963 1.91704 25.3719 1.64148 25.597C1.62074 25.6119 1.59111 25.6207 1.55852 25.6237C1.28593 25.8844 1.0163 26.1511 0.737778 26.4089C0.717037 26.4267 0.64 26.4385 0.583704 26.4267C0.583704 26.4237 0.586667 26.4237 0.586667 26.4207C0.595556 26.4059 0.607407 26.3881 0.616296 26.3733C0.660741 26.3022 0.702222 26.2311 0.746667 26.16C0.797037 26.08 0.847407 26 0.897778 25.923C0.965926 25.8163 1.03704 25.7126 1.11407 25.6119C1.13481 25.5852 1.12889 25.5615 1.11111 25.5437C1.0963 25.5259 1.06963 25.517 1.04 25.517C1.29481 25.2711 1.59704 25.0607 1.89333 24.88V24.8711C1.85778 24.883 1.81037 24.8563 1.83704 24.8207C1.86963 24.7763 1.89333 24.7289 1.92593 24.6815L1.9437 24.637C1.93185 24.6222 1.91704 24.6104 1.90519 24.5956C1.82222 24.6489 1.7363 24.6993 1.66519 24.7615C1.5437 24.8711 1.44889 25.0963 1.26222 25.0933C1.25037 25.0933 1.21481 25.0904 1.18519 25.0815C1.16444 25.0785 1.1437 25.0726 1.13185 25.0637L1.13778 25.0519C1.14074 25.0459 1.1437 25.043 1.14667 25.037L1.15259 25.0252C1.16148 25.0104 1.16741 24.9956 1.1763 24.9807C1.18519 24.9659 1.19111 24.9511 1.2 24.9363C1.20593 24.9244 1.21185 24.9126 1.22074 24.9007C1.23259 24.88 1.24444 24.8563 1.2563 24.8356L1.28296 24.7911C1.3037 24.7526 1.32741 24.717 1.34815 24.6785L1.38074 24.6252C1.39852 24.5956 1.4163 24.563 1.43407 24.5333C1.46074 24.4919 1.43407 24.4563 1.39556 24.4415C1.49037 24.32 1.60593 24.2163 1.74519 24.1393H1.73037C1.92593 24.0415 2.12148 23.923 2.31407 23.8133C2.34074 23.7896 2.37037 23.7659 2.39704 23.7393C2.10667 23.837 1.84593 23.9704 1.58815 24.1393C1.58815 24.1393 1.52 24.1659 1.50222 24.1867C1.50222 24.1867 1.44296 24.2074 1.37481 24.1393C1.36889 24.1304 1.36296 24.1185 1.36296 24.1007C1.41333 24 1.56741 23.9467 1.66815 23.8459C1.71852 23.8459 1.76889 23.8459 1.76889 23.8963C3.39852 22.6252 5.63852 22.9304 7.52 22.2667C7.67407 22.1659 7.82519 22.0622 7.97926 21.9615C8.23407 21.8607 8.43852 21.6059 8.7437 21.4519C9.14963 21.1467 9.45481 20.7911 9.60889 20.2815C9.60889 20.2311 9.55852 20.1807 9.55852 20.1807C8.89778 20.8919 8.13333 21.4548 7.31852 21.8607C6.24889 22.4207 5.07852 22.32 3.95852 22.4711C4.00889 22.3704 4.11259 22.3704 4.21333 22.3704C4.21333 22.2163 4.31407 22.1659 4.41778 22.0652H4.57185C4.62222 22.0652 4.62222 21.9644 4.67259 21.9644C4.77333 21.9644 4.92741 21.9141 4.87704 21.9141C4.72296 21.7096 4.41778 22.0681 4.16593 21.9141C4.26667 21.8133 4.2163 21.6593 4.31704 21.6089H4.52148C4.52148 21.5081 4.62222 21.4044 4.62222 21.4044C5.38667 20.9452 6.09778 20.5896 6.81185 20.1837C6.65778 20.1837 6.55704 20.3378 6.40593 20.2341C6.50667 20.2341 6.40593 20.08 6.50667 20.08C7.06667 19.9259 7.52593 19.6207 8.08296 19.4193C7.87852 19.4193 7.72741 19.5733 7.52296 19.4193C7.6237 19.3689 7.67704 19.2681 7.82815 19.2681V19.1141C7.82815 19.0637 7.87852 19.0637 7.92889 19.0637C7.87852 19.0637 7.82815 19.0133 7.82815 19.0133C7.87852 18.9126 8.03259 18.963 8.13333 18.8593C8.08296 18.8593 7.97926 18.8593 7.97926 18.8089C8.13333 18.6044 8.38519 18.5541 8.64 18.5037C8.58963 18.403 8.43556 18.5037 8.43556 18.403C8.43556 18.3526 8.48593 18.3526 8.5363 18.3526H8.44444C8.3437 18.3022 8.39407 18.1985 8.39407 18.1481C8.69926 17.7926 8.69926 17.3333 8.85333 16.9274C8.80296 16.9274 8.75259 16.9274 8.75259 16.877C8.24296 17.437 7.42815 17.6415 6.66667 17.843H6.41185C6.15704 17.9437 5.80148 17.9437 5.54667 17.7926C5.34222 17.6919 5.24148 17.5378 5.03704 17.3867C4.63111 17.1319 4.22222 16.9274 3.76593 16.7763C2.53926 16.3881 1.27111 16.1896 0 16.2193V17.0193C0.168889 17.0578 0.334815 17.1022 0.503704 17.1852ZM1.16444 21.4104C1.0637 21.4104 0.859259 21.4607 0.90963 21.36C0.96 21.1052 1.31556 21.1052 1.52 21.0044C1.62074 20.9541 1.77481 20.8504 1.87556 20.9037C1.9763 21.0578 2.13037 21.0044 2.23111 21.1081C1.92889 21.4104 1.52296 21.2593 1.16444 21.4104ZM0 13.8459C0.293333 13.8311 0.598519 13.8815 0.859259 13.9793C0.705185 14.1837 0.453333 14.1333 0.248889 14.2844C0.198519 14.2844 0.148148 14.2844 0.0948148 14.2341C0.148148 14.1837 0.148148 14.1333 0.148148 14.08C0.103704 14.1304 0.0503704 14.1689 0 14.2133V15.3422C0.340741 15.0726 0.72 14.8711 1.16444 14.8415C2.08 14.6874 2.94519 14.8415 3.86074 14.9422C4.52148 14.9926 5.13185 15.1467 5.79556 15.2978C6.05037 15.2978 6.10074 15.7037 6.30519 15.757C6.61037 15.8578 6.91556 15.757 7.22074 15.9615C7.22074 15.8607 7.17037 15.757 7.22074 15.6563C7.42519 15.4519 7.68 15.7067 7.88148 15.6059C8.28741 15.3511 7.52593 14.8948 7.32148 14.5363C7.32148 14.4859 7.37185 14.4356 7.37185 14.4356C7.77778 14.7911 8.08296 15.2 8.59259 15.4548C8.84741 15.5556 9.45778 15.7096 9.35704 15.4044C9.10222 14.8444 8.59259 14.3852 8.18667 13.8785V13.6741C8.08593 13.6741 8.08593 13.6237 8.03259 13.5733V13.3689C7.82815 13.2681 7.87852 13.0637 7.77778 12.9096C7.62667 12.6548 7.72741 12.2993 7.62667 11.9941C7.52593 11.6889 7.47259 11.4341 7.42222 11.1289C7.27111 10.2637 7.06667 9.49926 6.96296 8.68444C6.86222 7.71852 7.52296 6.95407 7.98222 6.08889C8.33778 5.47852 8.74667 4.86815 9.40741 4.45926C9.56148 3.84889 9.96741 3.33926 10.3733 2.82963C10.7793 2.33185 12 1.58519 12.3763 1.20593C13.1259 0.465185 13.9526 0 13.9526 0H0V13.8459Z"
            fill="#000091" />
        <path
            d="M19.2236 0C20.1214 0 22.3288 0.660741 23.2236 1.15259C23.5822 1.35111 24.2844 1.71259 24.474 1.81333C24.8473 2.00889 25.2118 2.25481 25.4459 2.62815C25.5466 2.78222 25.7007 3.08741 25.597 3.28889C25.4962 3.5437 25.4459 3.94963 25.191 4.05333C24.8859 4.20741 24.477 4.20741 24.1214 4.15407C23.917 4.15407 23.7155 4.1037 23.511 4.05333C24.2755 4.35852 24.9866 4.71407 25.4962 5.42815C25.5466 5.52889 25.751 5.58222 25.9555 5.58222C26.0059 5.58222 26.0059 5.68296 26.0059 5.73333C25.9051 5.83407 25.8014 5.88741 25.8518 6.03852H26.0059C26.2607 5.93778 26.2103 5.42815 26.5659 5.57926C26.8207 5.73037 26.9214 6.08889 26.7703 6.3437C26.5659 6.54815 26.3644 6.69926 26.1599 6.85333C26.1096 6.95407 26.1096 7.10815 26.1599 7.20889C26.311 7.41333 26.3644 7.61481 26.4147 7.81926C26.5688 8.17481 26.6192 8.5837 26.7703 8.93926C26.9747 9.7037 27.1762 10.4652 27.1259 11.2296C27.1259 11.6356 26.9214 11.9941 27.0755 12.4C27.1762 12.8059 27.431 13.1111 27.6355 13.4696C27.8399 13.7748 28.0414 13.9793 28.1955 14.2844C28.5007 14.7941 29.0607 15.3037 28.8059 15.9141C28.6518 16.2696 28.0947 16.2193 27.7362 16.4237C27.431 16.6785 27.6859 17.0844 27.837 17.3393C28.0918 17.7985 27.5318 18.1037 27.1762 18.2548C27.277 18.4089 27.4814 18.3556 27.5318 18.4593C27.5822 18.7141 27.837 18.8652 27.6859 19.12C27.4814 19.4252 26.871 19.5793 27.1762 20.0356C27.3807 20.3911 27.2473 20.7881 27.1259 21.1556C26.9747 21.6148 26.5659 21.8163 26.2103 21.92C25.9051 22.0207 25.5496 22.0207 25.2444 21.9704C25.1436 21.92 25.0399 21.8696 24.9392 21.8696C24.074 21.7689 23.2088 21.5141 22.3436 21.5141C22.0888 21.5644 21.834 21.6148 21.6325 21.7185C21.4014 21.8874 21.197 22.0711 21.0162 22.2637L21.0103 22.2696C20.9718 22.3111 20.9362 22.3526 20.9007 22.3941C20.8799 22.4207 20.8562 22.4474 20.8355 22.4711L20.791 22.5244C20.6429 22.7111 20.5096 22.9067 20.391 23.1111C20.3822 23.123 20.3762 23.1378 20.3673 23.1496C20.3525 23.1733 20.3407 23.197 20.3288 23.2207C20.1629 23.5289 20.0355 23.8459 19.9436 24.1541C19.597 25.3185 19.8281 26.4948 20.071 26.7378C20.1392 26.8059 24.4325 28.5481 25.5733 29.1585C27.1318 29.9941 28.0947 31.1881 28.5036 32H31.9999V0H19.2236Z"
            fill="#E1000F" />
        <path
            d="M26.5157 10.9219C26.4653 10.7679 26.0564 10.7679 25.8016 10.6671C25.5468 10.5664 25.2416 10.6671 24.9364 10.7175C24.6816 10.7175 24.4268 10.8716 24.172 10.9219C23.8164 11.0227 23.5112 11.2271 23.2061 11.4316C23.5616 11.2805 23.9201 11.2271 24.3261 11.1264C24.6312 11.1264 24.892 11.0523 25.1912 11.1264C25.3957 11.1768 25.7009 11.1768 25.7009 11.2805C25.6001 11.6864 24.9868 11.7901 24.6816 12.196H24.5305C24.3764 12.2968 24.4298 12.5516 24.2757 12.5516C24.1216 12.5012 23.9705 12.5516 23.8164 12.6019C24.0209 12.8064 24.2757 12.9575 24.5809 12.9071C24.6312 12.9071 24.7349 13.0079 24.7349 13.1116C24.7349 13.1116 24.7853 13.1116 24.8357 13.0612C24.8861 13.0612 24.9364 13.0612 24.9364 13.1116V13.316C24.7823 13.5205 24.5305 13.4168 24.3261 13.4701C24.732 13.5708 25.1409 13.5708 25.4964 13.4701C25.8016 13.3694 25.4964 12.8597 25.7009 12.6049C25.6001 12.6049 25.7009 12.4538 25.6001 12.4538C25.7009 12.3531 25.8046 12.199 25.9053 12.1486C26.0061 12.1486 26.1601 12.0982 26.2105 11.9945C26.2105 11.8938 26.0061 11.8405 26.0594 11.7397C26.3616 11.5323 26.6164 11.2271 26.5157 10.9219Z"
            fill="#808080" />
    </g>
    <defs>
        <clipPath id="clip0_5884_1442">
            <rect width="32" height="32" fill="white" />
        </clipPath>
    </defs>
</svg>