<svg width="32" height="32" viewBox="0 0 32 32" fill="none" xmlns="http://www.w3.org/2000/svg">
    <g clip-path="url(#clip0_5584_547)">
        <path fill-rule="evenodd" clip-rule="evenodd"
            d="M10.0741 6.08406C9.95342 6.3659 9.8415 6.6556 9.73835 6.9532C9.72235 7.20371 9.70259 7.4539 9.67909 7.70381C9.68908 7.87274 9.71543 8.03733 9.7581 8.19764C9.7306 8.36096 9.70425 8.52554 9.67909 8.69147C9.8351 10.2135 9.97337 11.7279 10.0939 13.2347C10.3763 15.2945 10.5804 17.362 10.7062 19.4371C10.6599 20.0375 10.5677 20.6301 10.4297 21.2149C10.2821 21.4704 10.1241 21.7206 9.95563 21.9655C9.7976 21.8339 9.65274 21.689 9.52106 21.531C9.6527 21.4322 9.76466 21.3137 9.85686 21.1754C10.0958 20.3613 10.1748 19.5317 10.0939 18.6865C10.0065 17.706 9.8748 16.7315 9.69884 15.7631C9.43553 14.5782 9.17218 13.393 8.90872 12.2075C8.61759 11.033 8.14352 9.93994 7.48649 8.92851C6.80236 8.13246 6.05835 7.395 5.25439 6.71616C6.14905 5.79519 7.05769 4.88654 7.98032 3.99023C8.69226 4.67584 9.39022 5.37378 10.0741 6.08406Z"
            fill="#D357E1" />
        <path fill-rule="evenodd" clip-rule="evenodd"
            d="M24.2569 4.26656C24.1441 4.47877 24.0585 4.70264 24.0001 4.93816C23.8059 5.98464 23.5821 7.025 23.3285 8.05915C23.1804 8.6137 23.0026 9.15363 22.7952 9.6789C23.015 8.87598 23.1664 8.0595 23.2495 7.22952C23.2758 6.8213 23.2758 6.41304 23.2495 6.00483C23.2325 5.82519 23.1996 5.65397 23.1507 5.49125C23.1313 5.39965 23.0918 5.32064 23.0322 5.25421C22.9631 5.20841 22.9236 5.14257 22.9137 5.05668C23.2481 4.70251 23.5905 4.35354 23.9408 4.00977C24.0714 4.05379 24.1768 4.13938 24.2569 4.26656Z"
            fill="#E65D96" />
        <path fill-rule="evenodd" clip-rule="evenodd"
            d="M24.2569 4.2666C24.4808 4.46413 24.6915 4.67483 24.889 4.8987C24.6255 5.21435 24.4214 5.56991 24.2766 5.96537C23.9423 6.94698 23.6263 7.93463 23.3285 8.92833C22.9934 9.91452 22.572 10.8627 22.0643 11.7728C21.8822 12.0458 21.6912 12.3092 21.4915 12.5629C21.7967 12.0577 22.0601 11.531 22.2816 10.9827C22.4761 10.557 22.6473 10.1224 22.7952 9.67895C23.0026 9.15367 23.1803 8.61374 23.3285 8.05919C23.582 7.02504 23.8059 5.98469 24.0001 4.93821C24.0585 4.70269 24.1441 4.47882 24.2569 4.2666Z"
            fill="#E65D8F" />
        <path fill-rule="evenodd" clip-rule="evenodd"
            d="M24.8889 4.89893C25.0206 5.00428 25.1391 5.1228 25.2445 5.25448C24.9518 5.61537 24.7081 6.01043 24.5136 6.43967C24.0489 7.57432 23.6144 8.72 23.2099 9.8767C22.6657 11.2544 21.9085 12.4923 20.9383 13.5903C20.8724 13.5508 20.8198 13.4981 20.7803 13.4323C20.9269 13.3252 21.0454 13.1935 21.1358 13.0372C21.2183 12.9943 21.2709 12.9285 21.2939 12.8397C21.3887 12.7687 21.4545 12.6765 21.4914 12.5631C21.6912 12.3094 21.8821 12.046 22.0642 11.773C22.572 10.8629 22.9934 9.91475 23.3284 8.92856C23.6262 7.93486 23.9423 6.9472 24.2766 5.96559C24.4213 5.57014 24.6254 5.21458 24.8889 4.89893Z"
            fill="#E65D88" />
        <path fill-rule="evenodd" clip-rule="evenodd"
            d="M22.9136 5.05664C22.9235 5.14253 22.963 5.20837 23.0321 5.25417C23.0306 5.35645 23.0701 5.43547 23.1506 5.49121C23.2662 7.99254 22.6143 10.2707 21.1951 12.3258C20.9712 12.6088 20.7407 12.8854 20.5037 13.1554C20.4379 13.1159 20.3852 13.0632 20.3457 12.9974C21.355 11.9278 22.0596 10.6768 22.4593 9.24429C22.6473 8.54504 22.7592 7.83392 22.7951 7.11096C22.7952 6.72309 22.7491 6.34122 22.6568 5.96528C22.578 5.82756 22.4924 5.69589 22.4 5.57022C22.558 5.38586 22.7292 5.21467 22.9136 5.05664Z"
            fill="#E05D9B" />
        <path fill-rule="evenodd" clip-rule="evenodd"
            d="M23.032 5.25439C23.0916 5.32082 23.1311 5.39984 23.1505 5.49143C23.07 5.43569 23.0305 5.35668 23.032 5.25439Z"
            fill="#E05D95" />
        <path fill-rule="evenodd" clip-rule="evenodd"
            d="M25.2444 5.25439C25.3629 5.34657 25.4683 5.45193 25.5605 5.57044C25.1831 5.9947 24.8737 6.46877 24.6321 6.99267C24.1451 8.15111 23.6578 9.30998 23.1703 10.4692C22.799 11.2518 22.3776 12.0024 21.9061 12.7211C21.6579 13.0812 21.3748 13.4104 21.0568 13.7087C21.0041 13.6824 20.9646 13.6429 20.9382 13.5902C21.9085 12.4922 22.6657 11.2544 23.2098 9.87662C23.6143 8.71992 24.0489 7.57424 24.5135 6.43958C24.7081 6.01035 24.9517 5.61528 25.2444 5.25439Z"
            fill="#E65D82" />
        <path fill-rule="evenodd" clip-rule="evenodd"
            d="M23.1506 5.49121C23.1995 5.65394 23.2324 5.82516 23.2493 6.00479C23.2757 6.41301 23.2757 6.82127 23.2493 7.22948C23.1663 8.05947 23.0148 8.87594 22.795 9.67887C22.6472 10.1224 22.476 10.5569 22.2814 10.9826C21.8492 11.8338 21.3092 12.6108 20.6617 13.3134C20.5958 13.2739 20.5432 13.2213 20.5037 13.1554C20.7407 12.8854 20.9711 12.6088 21.195 12.3258C22.6142 10.2707 23.2661 7.99254 23.1506 5.49121Z"
            fill="#E15D96" />
        <path fill-rule="evenodd" clip-rule="evenodd"
            d="M22.3999 5.57031C22.4922 5.69598 22.5778 5.82766 22.6567 5.96537C22.7489 6.34131 22.795 6.72318 22.795 7.11105C22.7591 7.83402 22.6471 8.54513 22.4591 9.24439C22.0594 10.6769 21.3549 11.9279 20.3456 12.9975C20.2929 12.9711 20.2534 12.9316 20.2271 12.879C21.5953 11.3511 22.3459 9.55352 22.4789 7.48636C22.442 7.02999 22.3433 6.58886 22.1826 6.16291C22.1227 6.09416 22.0634 6.02835 22.0048 5.96537C22.1233 5.82051 22.255 5.68883 22.3999 5.57031Z"
            fill="#E05DA1" />
        <path fill-rule="evenodd" clip-rule="evenodd"
            d="M25.5606 5.57031C25.6396 5.62299 25.7055 5.68883 25.7581 5.76784C25.6757 5.81071 25.623 5.87652 25.6001 5.96537C25.5176 6.00824 25.465 6.07406 25.4421 6.16291C25.2016 6.4372 24.9975 6.74009 24.8297 7.07155C24.2681 8.27376 23.7282 9.48526 23.21 10.7061C22.839 11.4615 22.4176 12.1858 21.9458 12.879C21.6981 13.2035 21.4413 13.5195 21.1754 13.8271C21.1227 13.8008 21.0832 13.7612 21.0569 13.7086C21.3749 13.4102 21.6581 13.081 21.9063 12.7209C22.3777 12.0023 22.7991 11.2517 23.1705 10.4691C23.6579 9.30985 24.1452 8.15097 24.6322 6.99253C24.8738 6.46864 25.1833 5.99457 25.5606 5.57031Z"
            fill="#E65D7C" />
        <path fill-rule="evenodd" clip-rule="evenodd"
            d="M25.7581 5.76807C25.7845 5.76807 25.7976 5.78122 25.7976 5.80757C25.7318 5.86023 25.666 5.91294 25.6001 5.9656C25.623 5.87675 25.6757 5.81093 25.7581 5.76807Z"
            fill="#E6647C" />
        <path fill-rule="evenodd" clip-rule="evenodd"
            d="M25.7974 5.80762C25.8369 5.82077 25.8633 5.84712 25.8764 5.88663C25.7071 6.04011 25.5557 6.21129 25.4221 6.40021C25.2038 6.75829 24.9866 7.11385 24.7703 7.46688C24.8466 7.23501 24.9454 7.01113 25.0666 6.79527C25.2025 6.58889 25.3276 6.3782 25.4419 6.16317C25.4648 6.07432 25.5174 6.00851 25.5999 5.96564C25.6658 5.91298 25.7316 5.86028 25.7974 5.80762Z"
            fill="#EC647D" />
        <path fill-rule="evenodd" clip-rule="evenodd"
            d="M25.8767 5.88623C25.9688 5.95209 26.0478 6.0311 26.1137 6.12327C25.7269 6.53022 25.3911 6.97794 25.1063 7.46648C24.4694 8.72696 23.8439 9.99116 23.2297 11.2591C23.5041 10.5655 23.7675 9.86754 24.0199 9.16524C24.2592 8.59434 24.5094 8.0281 24.7705 7.46648C24.9868 7.11345 25.2041 6.75789 25.4223 6.39981C25.5559 6.21089 25.7073 6.03971 25.8767 5.88623Z"
            fill="#EC6476" />
        <path fill-rule="evenodd" clip-rule="evenodd"
            d="M22.0049 5.96533C22.0635 6.0283 22.1227 6.09412 22.1827 6.16286C22.3433 6.58882 22.4421 7.02994 22.479 7.48632C22.346 9.55348 21.5954 11.351 20.2271 12.8789C20.1613 12.8394 20.1086 12.7867 20.0691 12.7209C21.3867 11.3166 22.0846 9.65082 22.1629 7.72336C22.0986 7.4147 22.0393 7.1052 21.9851 6.79496C21.8932 6.61797 21.7944 6.44679 21.6888 6.28138C21.781 6.16286 21.8864 6.0575 22.0049 5.96533Z"
            fill="#E05DA7" />
        <path fill-rule="evenodd" clip-rule="evenodd"
            d="M10.074 6.08398C10.1794 6.163 10.2715 6.25516 10.3506 6.36053C10.2507 6.62644 10.1388 6.88979 10.0148 7.15065C9.99915 7.68509 9.9662 8.21842 9.91599 8.75065C10.0398 11.4942 10.2703 14.2399 10.6074 16.9877C10.6715 17.757 10.7176 18.5274 10.7456 19.2988C10.7346 19.9586 10.6293 20.5972 10.4296 21.2148C10.5676 20.63 10.6597 20.0374 10.7061 19.4371C10.5802 17.3619 10.3761 15.2945 10.0938 13.2346C9.97324 11.7278 9.83496 10.2134 9.67896 8.69139C9.70412 8.52547 9.73047 8.36088 9.75797 8.19756C9.7153 8.03725 9.68895 7.87267 9.67896 7.70374C9.70246 7.45382 9.72221 7.20363 9.73821 6.95312C9.84136 6.65552 9.95329 6.36582 10.074 6.08398Z"
            fill="#D357DA" />
        <path fill-rule="evenodd" clip-rule="evenodd"
            d="M26.1136 6.12354C26.1926 6.1762 26.2585 6.24205 26.3111 6.32107C25.6935 7.06465 25.1602 7.86793 24.7111 8.73094C24.0428 10.1994 23.2922 11.6216 22.4593 12.9976C22.2733 13.2651 22.0692 13.5153 21.8469 13.7482C22.0272 13.454 22.2182 13.1643 22.4198 12.8791C22.542 12.6587 22.654 12.4349 22.7556 12.2075C22.9136 11.8914 23.0716 11.5754 23.2296 11.2593C23.8438 9.99143 24.4693 8.72723 25.1062 7.46675C25.391 6.97821 25.7268 6.53049 26.1136 6.12354Z"
            fill="#EC6470" />
        <path fill-rule="evenodd" clip-rule="evenodd"
            d="M25.442 6.16309C25.3277 6.37812 25.2026 6.5888 25.0667 6.79518C24.9454 7.01105 24.8467 7.23493 24.7704 7.46679C24.5093 8.02841 24.2591 8.59465 24.0197 9.16556C23.4657 10.5106 22.7876 11.788 21.9852 12.9977C21.7484 13.3068 21.4916 13.5965 21.2148 13.8668C21.1884 13.8668 21.1753 13.8536 21.1753 13.8273C21.4412 13.5197 21.698 13.2036 21.9457 12.8791C22.4174 12.186 22.8389 11.4617 23.2099 10.7063C23.7281 9.48544 24.268 8.27394 24.8296 7.07173C24.9974 6.74027 25.2015 6.43738 25.442 6.16309Z"
            fill="#E7647D" />
        <path fill-rule="evenodd" clip-rule="evenodd"
            d="M21.689 6.28125C21.7946 6.44666 21.8933 6.61784 21.9853 6.79483C22.0395 7.10507 22.0987 7.41456 22.1631 7.72323C22.0848 9.65069 21.3869 11.3165 20.0692 12.7208C20.0297 12.7076 20.0034 12.6812 19.9902 12.6417C20.4809 12.1219 20.8628 11.5293 21.1359 10.864C21.313 10.4696 21.4579 10.0614 21.5705 9.63927C21.6279 9.48951 21.6739 9.33148 21.7088 9.1652C21.7436 8.74284 21.7765 8.32143 21.8075 7.901C21.765 7.43033 21.6069 7.00891 21.3334 6.63681C21.4388 6.50513 21.5573 6.38661 21.689 6.28125Z"
            fill="#E05DAF" />
        <path fill-rule="evenodd" clip-rule="evenodd"
            d="M26.3112 6.3208C26.4034 6.38666 26.4824 6.46567 26.5482 6.55784C26.2905 6.79618 26.0601 7.05953 25.8569 7.34796C25.6175 7.67969 25.3936 8.02206 25.1853 8.37512C24.5814 9.51709 23.9888 10.6628 23.4075 11.8122C22.9357 12.7247 22.3497 13.5543 21.6495 14.301C21.5836 14.2615 21.531 14.2089 21.4915 14.143C21.531 14.1299 21.5573 14.1035 21.5705 14.064C21.6919 13.9823 21.784 13.8769 21.847 13.748C22.0693 13.515 22.2734 13.2648 22.4594 12.9973C23.2923 11.6214 24.0429 10.1992 24.7112 8.73068C25.1603 7.86767 25.6936 7.06439 26.3112 6.3208Z"
            fill="#EC6469" />
        <path fill-rule="evenodd" clip-rule="evenodd"
            d="M10.3506 6.36035C10.9168 6.90028 11.4699 7.45337 12.0098 8.01961C11.8668 8.20896 11.7154 8.39334 11.5555 8.5727C11.4675 8.86354 11.3489 9.14008 11.2 9.40233C10.9694 10.3992 10.8312 11.4066 10.7852 12.4245C10.8112 14.2896 10.91 16.1662 11.0814 18.0542C11.1633 19.1078 11.0843 20.1482 10.8444 21.1752C10.6803 21.5563 10.4762 21.9119 10.2321 22.2418C10.1267 22.1628 10.0345 22.0707 9.95552 21.9653C10.124 21.7203 10.282 21.4701 10.4296 21.2147C10.6293 20.5971 10.7347 19.9584 10.7456 19.2986C10.7176 18.5272 10.6715 17.7568 10.6074 16.9875C10.2703 14.2397 10.0399 11.4941 9.91602 8.75047C9.96623 8.21825 9.99918 7.68491 10.0148 7.15047C10.1388 6.88962 10.2507 6.62627 10.3506 6.36035Z"
            fill="#D45CDA" />
        <path fill-rule="evenodd" clip-rule="evenodd"
            d="M26.5482 6.55811C26.6403 6.62396 26.7194 6.70297 26.7852 6.79514C26.3369 7.25669 25.9352 7.75712 25.5803 8.29638C25.3432 8.69144 25.1062 9.0865 24.8692 9.48156C24.2998 10.5808 23.7204 11.6738 23.1309 12.7606C22.7555 13.3794 22.3143 13.9457 21.8074 14.4593C21.7416 14.4198 21.6889 14.3672 21.6494 14.3013C22.3496 13.5546 22.9356 12.725 23.4074 11.8124C23.9888 10.663 24.5814 9.51735 25.1852 8.37539C25.3935 8.02232 25.6174 7.67996 25.8568 7.34823C26.06 7.05979 26.2905 6.79645 26.5482 6.55811Z"
            fill="#EC6463" />
        <path fill-rule="evenodd" clip-rule="evenodd"
            d="M21.3333 6.63721C21.6068 7.00932 21.7648 7.43073 21.8073 7.9014C21.7763 8.32183 21.7434 8.74324 21.7086 9.1656C21.6738 9.33188 21.6277 9.48991 21.5703 9.63968C21.6481 9.06312 21.6679 8.48373 21.6296 7.9014C21.5821 7.65358 21.5031 7.41655 21.3925 7.19029C21.3276 7.05356 21.242 6.93504 21.1357 6.83474C21.1884 6.75573 21.2543 6.68987 21.3333 6.63721Z"
            fill="#E05DB4" />
        <path fill-rule="evenodd" clip-rule="evenodd"
            d="M5.25437 6.71582C6.05832 7.39465 6.80234 8.13212 7.48647 8.92817C8.14349 9.9396 8.61757 11.0326 8.90869 12.2072C9.17216 13.3926 9.4355 14.5778 9.69881 15.7627C9.87477 16.7311 10.0065 17.7056 10.0939 18.6862C10.1748 19.5313 10.0958 20.361 9.85684 21.1751C9.76463 21.3134 9.65267 21.4319 9.52104 21.5306C9.42887 21.4648 9.34986 21.3858 9.284 21.2936C9.55126 21.0081 9.68953 20.6658 9.69881 20.2664C9.7706 19.3636 9.70474 18.4682 9.50128 17.58C9.06679 15.473 8.46105 13.4187 7.684 11.4171C7.23473 10.3891 6.62895 9.46731 5.86671 8.65162C5.45056 8.21674 5.02255 7.79533 4.58276 7.38743C4.79345 7.15039 5.01733 6.92651 5.25437 6.71582Z"
            fill="#D357E7" />
        <path fill-rule="evenodd" clip-rule="evenodd"
            d="M26.7852 6.79492C26.8642 6.84758 26.93 6.91344 26.9827 6.99245C26.584 7.35824 26.235 7.76646 25.9358 8.21714C25.4373 8.93315 24.9962 9.68377 24.6123 10.469C24.1591 11.2962 23.7048 12.1258 23.2493 12.9579C22.8684 13.5494 22.4404 14.1025 21.9654 14.6171C21.8995 14.5776 21.8469 14.525 21.8074 14.4591C22.3143 13.9455 22.7554 13.3792 23.1308 12.7604C23.7203 11.6736 24.2997 10.5806 24.8691 9.48134C25.1061 9.08628 25.3432 8.69122 25.5802 8.29616C25.9352 7.7569 26.3368 7.25647 26.7852 6.79492Z"
            fill="#EC645C" />
        <path fill-rule="evenodd" clip-rule="evenodd"
            d="M21.1359 6.83447C21.2422 6.93478 21.3278 7.0533 21.3927 7.19003C21.5032 7.41628 21.5822 7.65332 21.6297 7.90114C21.668 8.48346 21.6482 9.06286 21.5705 9.63941C21.4579 10.0615 21.313 10.4698 21.1359 10.8641C20.7959 11.4777 20.3877 12.044 19.9112 12.5629C19.8453 12.5234 19.7927 12.4707 19.7532 12.4048C20.6006 11.5269 21.1603 10.4865 21.4322 9.28386C21.4848 8.81073 21.498 8.33666 21.4717 7.86163C21.4057 7.51153 21.2674 7.19548 21.0569 6.91348C21.07 6.87398 21.0964 6.84763 21.1359 6.83447Z"
            fill="#DA5DB5" />
        <path fill-rule="evenodd" clip-rule="evenodd"
            d="M21.0567 6.91357C21.2672 7.19557 21.4055 7.51162 21.4715 7.86172C21.4978 8.33674 21.4846 8.81082 21.432 9.28394C21.1601 10.4866 20.6004 11.5269 19.753 12.4049C19.6871 12.3654 19.6345 12.3128 19.595 12.2469C20.6992 11.1342 21.2326 9.79101 21.195 8.21728C21.1534 7.83193 21.0152 7.48953 20.7802 7.19012C20.8592 7.08475 20.9513 6.99259 21.0567 6.91357Z"
            fill="#D95DBA" />
        <path fill-rule="evenodd" clip-rule="evenodd"
            d="M26.9827 6.99268C27.0486 7.03218 27.1012 7.08484 27.1407 7.1507C26.5969 7.78023 26.0899 8.43868 25.6197 9.12601C25.047 10.0736 24.5005 11.0349 23.9802 12.01C24.18 11.4919 24.3907 10.9783 24.6123 10.4692C24.9962 9.68399 25.4373 8.93338 25.9358 8.21737C26.235 7.76668 26.584 7.35846 26.9827 6.99268Z"
            fill="#F26457" />
        <path fill-rule="evenodd" clip-rule="evenodd"
            d="M27.1407 7.15039C27.2197 7.20305 27.2855 7.26891 27.3382 7.34792C26.646 8.11339 26.0205 8.92987 25.4617 9.7973C24.8484 10.8657 24.2558 11.9456 23.6839 13.0368C23.4984 13.3559 23.2943 13.6588 23.0715 13.9455C23.2902 13.5344 23.4878 13.113 23.6641 12.6813C23.7695 12.4574 23.8748 12.2335 23.9802 12.0096C24.5004 11.0346 25.047 10.0733 25.6197 9.1257C26.0898 8.43837 26.5968 7.77992 27.1407 7.15039Z"
            fill="#F26451" />
        <path fill-rule="evenodd" clip-rule="evenodd"
            d="M20.7802 7.18994C21.0152 7.48936 21.1535 7.83176 21.195 8.2171C21.2326 9.79083 20.6993 11.134 19.595 12.2467C19.5292 12.2072 19.4765 12.1546 19.437 12.0887C20.2326 11.2746 20.7264 10.3001 20.9185 9.16525C21.0024 8.53769 20.8773 7.9583 20.5432 7.42698C20.609 7.33481 20.6881 7.2558 20.7802 7.18994Z"
            fill="#D95DC0" />
        <path fill-rule="evenodd" clip-rule="evenodd"
            d="M27.3383 7.34814C27.4305 7.414 27.5095 7.49301 27.5753 7.58518C26.5549 8.63889 25.6923 9.81092 24.9877 11.1012C24.4519 12.2128 23.8461 13.2795 23.1704 14.3012C22.9465 14.5843 22.716 14.8608 22.479 15.1309C22.4 15.0782 22.3342 15.0123 22.2815 14.9333C22.5734 14.6257 22.8367 14.2965 23.0716 13.9457C23.2944 13.659 23.4985 13.3562 23.684 13.037C24.2559 11.9458 24.8485 10.8659 25.4617 9.79753C26.0206 8.93009 26.6461 8.11362 27.3383 7.34814Z"
            fill="#F2644A" />
        <path fill-rule="evenodd" clip-rule="evenodd"
            d="M4.58272 7.3877C5.0225 7.7956 5.45051 8.21701 5.86667 8.65189C6.6289 9.46758 7.23469 10.3894 7.68395 11.4173C8.461 13.4189 9.06675 15.4733 9.50123 17.5803C9.70469 18.4684 9.77055 19.3639 9.69877 20.2667C9.68948 20.666 9.55121 21.0084 9.28395 21.2939C9.21809 21.2544 9.16543 21.2017 9.12593 21.1358C9.3316 20.8552 9.45667 20.5392 9.50123 20.1877C9.57922 19.3884 9.55287 18.5983 9.42222 17.8173C9.10586 16.1308 8.64494 14.4847 8.03951 12.8791C7.66052 11.9363 7.1601 11.0672 6.53827 10.2716C5.76202 9.43613 4.95214 8.63285 4.10864 7.86177C4.25351 7.69059 4.41154 7.53256 4.58272 7.3877Z"
            fill="#CD57E7" />
        <path fill-rule="evenodd" clip-rule="evenodd"
            d="M20.5432 7.42725C20.8773 7.95856 21.0024 8.53796 20.9185 9.16552C20.7264 10.3004 20.2326 11.2748 19.437 12.089C19.358 12.0363 19.2922 11.9705 19.2395 11.8914C19.668 11.4558 19.9972 10.9553 20.2272 10.3902C20.6104 9.70213 20.6961 8.97782 20.4839 8.21737C20.4286 8.04058 20.3429 7.88255 20.2272 7.7433C20.3193 7.62478 20.4247 7.51941 20.5432 7.42725Z"
            fill="#D95DC8" />
        <path fill-rule="evenodd" clip-rule="evenodd"
            d="M27.5753 7.58496C27.6543 7.63762 27.7202 7.70348 27.7728 7.78249C26.7685 8.80665 25.9059 9.93913 25.1852 11.18C24.7281 12.1075 24.2409 13.0162 23.7234 13.9059C23.398 14.3959 23.0359 14.8569 22.637 15.2887C22.5712 15.2492 22.5185 15.1965 22.479 15.1306C22.716 14.8606 22.9464 14.5841 23.1704 14.301C23.8461 13.2793 24.4519 12.2126 24.9876 11.101C25.6923 9.8107 26.5549 8.63867 27.5753 7.58496Z"
            fill="#F26443" />
        <path fill-rule="evenodd" clip-rule="evenodd"
            d="M20.2271 7.74316C20.3429 7.88242 20.4285 8.04045 20.4839 8.21724C20.696 8.97769 20.6104 9.702 20.2271 10.3901C20.3192 10.1333 20.3917 9.86998 20.4444 9.59995C20.5429 8.97927 20.4178 8.41299 20.0691 7.90119C20.1086 7.83533 20.1613 7.78267 20.2271 7.74316Z"
            fill="#D95DCE" />
        <path fill-rule="evenodd" clip-rule="evenodd"
            d="M27.7728 7.78271C27.8518 7.83538 27.9176 7.90123 27.9703 7.98025C26.925 9.00563 26.0361 10.1513 25.3036 11.4173C24.8508 12.3228 24.3768 13.2183 23.8814 14.1037C23.5695 14.5932 23.2074 15.0409 22.795 15.4469C22.7291 15.4074 22.6765 15.3547 22.637 15.2889C23.0358 14.8571 23.398 14.3962 23.7234 13.9062C24.2408 13.0164 24.728 12.1077 25.1851 11.1802C25.9059 9.93936 26.7684 8.80687 27.7728 7.78271Z"
            fill="#F2643D" />
        <path fill-rule="evenodd" clip-rule="evenodd"
            d="M4.10861 7.86182C4.95211 8.6329 5.76199 9.43618 6.53824 10.2717C7.16007 11.0672 7.6605 11.9364 8.03948 12.8791C8.64491 14.4847 9.10583 16.1308 9.42219 17.8174C9.55284 18.5983 9.57919 19.3885 9.50121 20.1877C9.45664 20.5392 9.33157 20.8553 9.1259 21.1359C8.88886 20.9252 8.66498 20.7013 8.45429 20.4643C8.54658 20.4049 8.61899 20.3259 8.67158 20.2272C8.82324 19.5618 8.84959 18.8902 8.75059 18.2124C8.66391 17.7472 8.55855 17.2863 8.43454 16.8297C8.12947 15.9694 7.81342 15.1135 7.48639 14.2618C6.73364 12.8101 5.75258 11.5262 4.54318 10.41C4.00997 9.94664 3.49639 9.46596 3.00244 8.96799C3.358 8.58608 3.72671 8.21737 4.10861 7.86182Z"
            fill="#CD57ED" />
        <path fill-rule="evenodd" clip-rule="evenodd"
            d="M20.0692 7.90137C20.4179 8.41317 20.543 8.97945 20.4445 9.60013C20.3918 9.87016 20.3193 10.1335 20.2272 10.3903C19.9973 10.9554 19.6681 11.4558 19.2396 11.8915C19.1737 11.852 19.121 11.7993 19.0815 11.7335C19.3045 11.4508 19.5218 11.1611 19.7334 10.8643C19.9352 10.5136 20.0932 10.1448 20.2075 9.75816C20.35 9.24932 20.3236 8.74889 20.1285 8.25692C20.0746 8.17064 20.0154 8.09163 19.9507 8.01989C19.977 7.96722 20.0165 7.92772 20.0692 7.90137Z"
            fill="#D45DCE" />
        <path fill-rule="evenodd" clip-rule="evenodd"
            d="M27.9705 7.98047C28.0495 8.03313 28.1153 8.09899 28.168 8.178C27.8563 8.50302 27.5403 8.83226 27.2199 9.16565C27.1277 9.17881 27.075 9.23151 27.0618 9.32368C26.3927 9.92097 25.8462 10.6189 25.4223 11.4175C25.3168 11.6484 25.2313 11.8855 25.1655 12.1286C25.1256 12.2373 25.086 12.3427 25.047 12.4447C24.5878 13.4426 24.0281 14.3775 23.368 15.2496C23.2626 15.4011 23.1375 15.5327 22.9927 15.6447C22.9137 15.592 22.8478 15.5261 22.7952 15.4471C23.2076 15.0412 23.5697 14.5934 23.8816 14.1039C24.377 13.2185 24.851 12.323 25.3038 11.4175C26.0363 10.1515 26.9252 9.00585 27.9705 7.98047Z"
            fill="#F36437" />
        <path fill-rule="evenodd" clip-rule="evenodd"
            d="M12.01 8.01953C12.326 8.30923 12.6289 8.61212 12.9186 8.92817C12.7999 9.1114 12.6616 9.28262 12.5038 9.44175C12.1073 10.1052 11.8308 10.8163 11.6742 11.5751C11.519 12.55 11.4202 13.531 11.3779 14.5183C11.4216 15.9053 11.4611 17.3012 11.4964 18.706C11.5156 19.5994 11.4036 20.4751 11.1606 21.3331C11.0684 21.5438 10.9762 21.7545 10.884 21.9652C10.7484 22.145 10.6232 22.3294 10.5087 22.5183C10.4034 22.4393 10.3112 22.3471 10.2322 22.2418C10.4763 21.9118 10.6804 21.5562 10.8445 21.1751C11.0844 20.1481 11.1635 19.1078 11.0816 18.0541C10.9101 16.1661 10.8113 14.2896 10.7853 12.4245C10.8313 11.4066 10.9696 10.3991 11.2001 9.40225C11.3491 9.14001 11.4676 8.86346 11.5556 8.57262C11.7155 8.39326 11.8669 8.20888 12.01 8.01953Z"
            fill="#D35DD4" />
        <path fill-rule="evenodd" clip-rule="evenodd"
            d="M19.9507 8.01953C20.0154 8.09127 20.0746 8.17029 20.1285 8.25657C20.3236 8.74854 20.35 9.24896 20.2075 9.7578C20.0932 10.1444 19.9352 10.5132 19.7334 10.864C19.5218 11.1607 19.3045 11.4504 19.0816 11.7331C19.0026 11.6804 18.9367 11.6146 18.884 11.5356C19.3199 11.0331 19.6557 10.4668 19.8914 9.83682C19.9612 9.57686 19.9875 9.31352 19.9705 9.04669C19.9399 8.90261 19.9135 8.75774 19.8914 8.61212C19.8474 8.48349 19.7749 8.37817 19.6742 8.29607C19.7532 8.19071 19.8453 8.09854 19.9507 8.01953Z"
            fill="#D35DD4" />
        <path fill-rule="evenodd" clip-rule="evenodd"
            d="M28.1679 8.17773C28.2601 8.24359 28.3391 8.3226 28.405 8.41477C27.3764 9.38366 26.4876 10.4635 25.7383 11.6543C25.3857 12.3595 25.0367 13.0575 24.6914 13.7481C24.8039 13.3114 24.9224 12.8768 25.047 12.4444C25.086 12.3424 25.1255 12.2371 25.1655 12.1284C25.7035 11.1295 26.3356 10.1945 27.0618 9.32341C27.1276 9.28391 27.1803 9.23125 27.2198 9.16539C27.5402 8.832 27.8562 8.50275 28.1679 8.17773Z"
            fill="#FA6432" />
        <path fill-rule="evenodd" clip-rule="evenodd"
            d="M19.6742 8.29639C19.775 8.37848 19.8474 8.4838 19.8915 8.61244C19.9135 8.75806 19.9399 8.90293 19.9705 9.047C19.9875 9.31383 19.9612 9.57718 19.8915 9.83713C19.6558 10.4671 19.32 11.0334 18.8841 11.5359C18.805 11.4832 18.7392 11.4174 18.6865 11.3384C18.7106 11.3032 18.7238 11.2637 18.726 11.2198C18.726 11.1935 18.7392 11.1803 18.7655 11.1803C18.8609 11.1246 18.9268 11.0456 18.9631 10.9433C18.9631 10.9169 18.9762 10.9038 19.0026 10.9038C19.0747 10.8387 19.1274 10.7597 19.1606 10.6668C19.2297 10.621 19.2692 10.5551 19.2791 10.4692C19.3437 10.4199 19.3899 10.354 19.4174 10.2717C19.489 10.0895 19.5482 9.9052 19.5952 9.71861C19.6264 9.6748 19.6461 9.62213 19.6544 9.56058C19.7379 9.1769 19.6655 8.83454 19.4371 8.53342C19.503 8.44126 19.582 8.36224 19.6742 8.29639Z"
            fill="#D45CDA" />
        <path fill-rule="evenodd" clip-rule="evenodd"
            d="M28.405 8.41504C28.484 8.4677 28.5498 8.53356 28.6025 8.61257C27.7257 9.45607 26.9291 10.3647 26.2124 11.3385C26.0939 11.536 25.9753 11.7336 25.8568 11.9311C25.3907 13.0347 24.8507 14.1013 24.2371 15.1311C23.9799 15.4615 23.7231 15.7907 23.4667 16.1187C23.4272 16.1056 23.4009 16.0792 23.3877 16.0397C23.9012 15.4739 24.2831 14.8287 24.5334 14.1039C24.586 13.9854 24.6387 13.8669 24.6914 13.7484C25.0367 13.0578 25.3857 12.3598 25.7383 11.6545C26.4875 10.4638 27.3764 9.38393 28.405 8.41504Z"
            fill="#FA642B" />
        <path fill-rule="evenodd" clip-rule="evenodd"
            d="M19.437 8.5332C19.6653 8.83432 19.7378 9.17668 19.6543 9.56036C19.646 9.62191 19.6262 9.67458 19.595 9.71839C19.6864 9.30318 19.6205 8.92131 19.3975 8.57271C19.3975 8.54636 19.4106 8.5332 19.437 8.5332Z"
            fill="#D357DA" />
        <path fill-rule="evenodd" clip-rule="evenodd"
            d="M19.3975 8.57275C19.6205 8.92136 19.6864 9.30322 19.595 9.71843C19.475 9.95918 19.3697 10.2094 19.279 10.4691C19.2098 10.5148 19.1703 10.5807 19.1604 10.6666C19.0687 10.718 19.016 10.797 19.0024 10.9036C18.9761 10.9036 18.9629 10.9168 18.9629 10.9431C18.8675 10.9989 18.8017 11.0779 18.7654 11.1802C18.739 11.1802 18.7259 11.1933 18.7259 11.2197C18.6864 11.2328 18.66 11.2592 18.6469 11.2987C18.5283 11.2065 18.423 11.1011 18.3308 10.9826C18.6347 10.6121 18.8783 10.2039 19.0617 9.75794C19.1132 9.49084 19.0802 9.24061 18.9629 9.00732C19.0946 8.8493 19.2395 8.70443 19.3975 8.57275Z"
            fill="#D357E1" />
        <path fill-rule="evenodd" clip-rule="evenodd"
            d="M28.6024 8.6123C28.6945 8.67816 28.7735 8.75717 28.8394 8.84934C28.0235 9.63243 27.2531 10.4621 26.5283 11.3382C26.4229 11.4963 26.3176 11.6543 26.2122 11.8123C25.7482 12.8482 25.2609 13.8754 24.7505 14.8938C24.4542 15.4219 24.092 15.8959 23.6641 16.316C23.5851 16.2633 23.5192 16.1975 23.4666 16.1185C23.723 15.7905 23.9798 15.4612 24.2369 15.1308C24.8506 14.1011 25.3905 13.0344 25.8567 11.9308C25.9752 11.7333 26.0937 11.5358 26.2122 11.3382C26.9289 10.3644 27.7256 9.4558 28.6024 8.6123Z"
            fill="#F96424" />
        <path fill-rule="evenodd" clip-rule="evenodd"
            d="M28.8396 8.84961C28.9318 8.91547 29.0108 8.99448 29.0767 9.08665C28.1649 9.91276 27.3287 10.8082 26.568 11.7731C26.4626 11.9574 26.3573 12.1418 26.252 12.3262C25.8385 13.5016 25.3118 14.6209 24.6717 15.6842C24.4496 16.0049 24.206 16.3078 23.9408 16.5928C23.8355 16.5138 23.7433 16.4216 23.6643 16.3163C24.0922 15.8962 24.4544 15.4221 24.7507 14.8941C25.2611 13.8757 25.7484 12.8485 26.2125 11.8126C26.3178 11.6545 26.4231 11.4965 26.5285 11.3385C27.2534 10.4623 28.0237 9.6327 28.8396 8.84961Z"
            fill="#F9641E" />
        <path fill-rule="evenodd" clip-rule="evenodd"
            d="M12.9184 8.92822C13.0238 9.00724 13.116 9.0994 13.195 9.20477C12.6994 9.77362 12.3241 10.4189 12.069 11.1406C11.738 12.4626 11.5865 13.8059 11.6147 15.1702C11.6443 16.4675 11.6839 17.7647 11.7332 19.0616C11.7292 19.744 11.6766 20.4221 11.5752 21.0961C11.4241 21.7144 11.1476 22.2675 10.7456 22.7554C10.6534 22.6895 10.5744 22.6105 10.5085 22.5183C10.6231 22.3294 10.7482 22.1451 10.8839 21.9653C10.976 21.7546 11.0682 21.5438 11.1604 21.3332C11.4034 20.4752 11.5154 19.5994 11.4962 18.706C11.4609 17.3012 11.4214 15.9053 11.3777 14.5183C11.42 13.5311 11.5188 12.55 11.674 11.5751C11.8306 10.8163 12.1072 10.1052 12.5036 9.4418C12.6615 9.28267 12.7997 9.11145 12.9184 8.92822Z"
            fill="#D45DCE" />
        <path fill-rule="evenodd" clip-rule="evenodd"
            d="M3.0025 8.96777C3.49645 9.46575 4.01003 9.94642 4.54324 10.4097C5.75264 11.526 6.7337 12.8099 7.48645 14.2616C7.81348 15.1133 8.12953 15.9692 8.4346 16.8295C8.55861 17.2861 8.66397 17.747 8.75065 18.2122C8.84965 18.89 8.8233 19.5616 8.67164 20.227C8.61905 20.3256 8.54664 20.4047 8.45435 20.4641C8.0988 20.1349 7.7564 19.7925 7.42719 19.4369C7.49186 19.3652 7.55112 19.2862 7.60497 19.1999C7.6604 18.6255 7.62089 18.0592 7.48645 17.5011C7.3658 17.0711 7.22093 16.6497 7.05188 16.2369C6.77534 15.7365 6.4988 15.2361 6.22225 14.7357C5.90289 14.4165 5.61315 14.0741 5.35312 13.7085C5.01838 13.3738 4.68258 13.038 4.34571 12.7011C3.40953 11.9436 2.47454 11.1864 1.54077 10.4295C2.01485 9.92908 2.50208 9.44185 3.0025 8.96777Z"
            fill="#CD57F3" />
        <path fill-rule="evenodd" clip-rule="evenodd"
            d="M18.963 9.00732C19.0803 9.24061 19.1132 9.49084 19.0617 9.75794C18.8784 10.2039 18.6348 10.6121 18.3309 10.9826C18.265 10.9431 18.2124 10.8905 18.1729 10.8246C18.3848 10.5391 18.5758 10.2362 18.7457 9.91597C18.7767 9.68885 18.7701 9.46496 18.7259 9.24436C18.7918 9.15219 18.8708 9.07318 18.963 9.00732Z"
            fill="#D357E7" />
        <path fill-rule="evenodd" clip-rule="evenodd"
            d="M29.0765 9.08643C29.1555 9.13909 29.2213 9.20494 29.274 9.28396C28.9582 9.60641 28.6487 9.93561 28.3456 10.2716C28.2504 10.3861 28.1648 10.5046 28.0888 10.6272C27.8898 10.8262 27.7054 11.0369 27.5357 11.2593C27.2451 11.5304 26.9883 11.8333 26.7654 12.1679C26.296 13.3384 25.7956 14.4973 25.2641 15.6445C24.9926 16.1197 24.6699 16.5542 24.2962 16.9482C24.1646 16.8428 24.046 16.7243 23.9407 16.5926C24.2058 16.3076 24.4495 16.0047 24.6715 15.684C25.3116 14.6207 25.8384 13.5014 26.2518 12.3259C26.3571 12.1416 26.4625 11.9572 26.5678 11.7728C27.3285 10.808 28.1647 9.91254 29.0765 9.08643Z"
            fill="#F96418" />
        <path fill-rule="evenodd" clip-rule="evenodd"
            d="M24.0198 9.16553C23.7674 9.86783 23.504 10.5657 23.2297 11.2594C23.0716 11.5754 22.9136 11.8915 22.7556 12.2075C22.3527 12.8543 21.8917 13.4601 21.3729 14.0248C21.307 13.9853 21.2543 13.9326 21.2148 13.8668C21.4916 13.5965 21.7484 13.3068 21.9852 12.9976C22.7876 11.788 23.4658 10.5106 24.0198 9.16553Z"
            fill="#E76476" />
        <path fill-rule="evenodd" clip-rule="evenodd"
            d="M27.2198 9.16553C27.1803 9.23138 27.1276 9.28405 27.0618 9.32355C27.0749 9.23138 27.1276 9.17868 27.2198 9.16553Z"
            fill="#F96437" />
        <path fill-rule="evenodd" clip-rule="evenodd"
            d="M13.1949 9.20508C13.3266 9.31044 13.4451 9.42896 13.5505 9.56063C13.2715 9.97312 13.0016 10.3945 12.7406 10.8248C12.1491 12.2795 11.8594 13.794 11.8715 15.368C11.8389 16.4232 11.8455 17.4767 11.8912 18.5285C11.8713 19.1893 11.812 19.8477 11.7135 20.5038C11.6847 20.7105 11.6387 20.9081 11.5752 21.0964C11.6766 20.4225 11.7292 19.7443 11.7332 19.0619C11.6838 17.765 11.6443 16.4679 11.6147 15.1705C11.5865 13.8062 11.738 12.463 12.069 11.1409C12.3241 10.4192 12.6994 9.77393 13.1949 9.20508Z"
            fill="#D95DCE" />
        <path fill-rule="evenodd" clip-rule="evenodd"
            d="M18.7259 9.24463C18.7701 9.46523 18.7767 9.68911 18.7457 9.91623C18.5758 10.2365 18.3848 10.5394 18.1728 10.8249C18.0807 10.759 18.0016 10.68 17.9358 10.5878C18.0146 10.4304 18.1134 10.2856 18.2321 10.1533C18.2405 10.0246 18.2602 9.89948 18.2913 9.77796C18.2694 9.76283 18.2562 9.74308 18.2518 9.7187C18.3967 9.54752 18.5547 9.3895 18.7259 9.24463Z"
            fill="#CD57E7" />
        <path fill-rule="evenodd" clip-rule="evenodd"
            d="M29.2741 9.28418C29.3267 9.31053 29.3662 9.35004 29.3926 9.4027C28.9699 9.82541 28.5354 10.2336 28.0889 10.6274C28.1648 10.5048 28.2504 10.3863 28.3457 10.2718C28.6487 9.93583 28.9582 9.60663 29.2741 9.28418Z"
            fill="#F96A18" />
        <path fill-rule="evenodd" clip-rule="evenodd"
            d="M27.0618 9.32324C26.3356 10.1944 25.7035 11.1293 25.1655 12.1282C25.2313 11.885 25.3168 11.648 25.4223 11.4171C25.8462 10.6185 26.3927 9.92054 27.0618 9.32324Z"
            fill="#F96437" />
        <path fill-rule="evenodd" clip-rule="evenodd"
            d="M29.3925 9.40234C29.511 9.49451 29.6164 9.59987 29.7086 9.71839C28.9746 10.4061 28.2437 11.104 27.516 11.8122C27.3711 12.0098 27.2263 12.2073 27.0814 12.4048C26.6283 13.5664 26.1675 14.7252 25.6987 15.8814C25.5538 16.1447 25.409 16.4081 25.2641 16.6715C25.0912 16.9129 24.9002 17.1367 24.6913 17.3431C24.6386 17.3167 24.5991 17.2772 24.5728 17.2246C24.9373 16.8254 25.2336 16.3777 25.4616 15.8814C25.9086 14.8434 26.3168 13.7899 26.6863 12.7209C26.8183 12.4561 26.95 12.1927 27.0814 11.9307C27.2336 11.7046 27.3851 11.4807 27.5357 11.2591C27.7054 11.0368 27.8897 10.826 28.0888 10.627C28.5353 10.2333 28.9699 9.82506 29.3925 9.40234Z"
            fill="#F96A12" />
        <path fill-rule="evenodd" clip-rule="evenodd"
            d="M13.5505 9.56055C13.7876 9.77123 14.0115 9.99511 14.2221 10.2322C13.7151 10.7713 13.3266 11.3902 13.0567 12.0889C12.6799 13.1913 12.456 14.3238 12.3851 15.4865C12.3341 16.8298 12.2814 18.173 12.2271 19.5161C12.1902 20.5988 11.9137 21.6129 11.3975 22.5581C11.2639 22.7112 11.1388 22.8692 11.0221 23.0322C10.9168 22.9531 10.8246 22.861 10.7456 22.7556C11.1476 22.2677 11.4241 21.7147 11.5752 21.0963C11.6387 20.908 11.6848 20.7105 11.7135 20.5038C11.812 19.8476 11.8713 19.1892 11.8913 18.5284C11.8456 17.4766 11.839 16.4231 11.8715 15.368C11.8595 13.7939 12.1492 12.2794 12.7407 10.8247C13.0016 10.3944 13.2716 9.97303 13.5505 9.56055Z"
            fill="#D95DC8" />
        <path fill-rule="evenodd" clip-rule="evenodd"
            d="M18.2518 9.71875C18.2562 9.74313 18.2693 9.76288 18.2913 9.77801C18.2601 9.89953 18.2404 10.0246 18.232 10.1533C18.1133 10.2856 18.0145 10.4305 17.9357 10.5879C17.8312 10.5097 17.739 10.4175 17.6592 10.3113C17.8444 10.0998 18.0419 9.9023 18.2518 9.71875Z"
            fill="#CD57ED" />
        <path fill-rule="evenodd" clip-rule="evenodd"
            d="M19.5951 9.71875C19.5482 9.90534 19.4889 10.0897 19.4173 10.2718C19.3898 10.3542 19.3437 10.42 19.2791 10.4694C19.3698 10.2097 19.4751 9.9595 19.5951 9.71875Z"
            fill="#D357DA" />
        <path fill-rule="evenodd" clip-rule="evenodd"
            d="M29.7087 9.71875C29.8404 9.82411 29.9589 9.94263 30.0642 10.0743C29.4586 10.6469 28.8463 11.2132 28.2272 11.7731C27.753 12.2469 27.3974 12.8 27.1605 13.4323C26.7546 14.7291 26.3332 16.0196 25.8963 17.3039C25.716 17.5593 25.5777 17.8358 25.4815 18.1336C25.205 17.8834 24.9416 17.62 24.6914 17.3434C24.9004 17.1371 25.0913 16.9132 25.2642 16.6718C25.4091 16.4084 25.5539 16.1451 25.6988 15.8817C26.1676 14.7256 26.6285 13.5667 27.0815 12.4052C27.2264 12.2076 27.3712 12.0101 27.5161 11.8126C28.2439 11.1044 28.9747 10.4064 29.7087 9.71875Z"
            fill="#F96A0B" />
        <path fill-rule="evenodd" clip-rule="evenodd"
            d="M30.0642 10.0742C30.2353 10.2191 30.3934 10.3771 30.5382 10.5483C29.8712 11.1691 29.2062 11.8012 28.5432 12.4446C27.9243 13.233 27.5424 14.1285 27.3975 15.131C27.3528 15.4858 27.3396 15.8413 27.358 16.1977C27.3845 16.3033 27.4306 16.3955 27.4963 16.4742C26.8919 17.0984 26.2795 17.7173 25.6592 18.331C25.5918 18.2703 25.5325 18.2044 25.4814 18.1335C25.5776 17.8358 25.7159 17.5592 25.8963 17.3038C26.3332 16.0195 26.7545 14.729 27.1605 13.4322C27.3973 12.7999 27.7529 12.2468 28.2271 11.773C28.8462 11.2131 29.4585 10.6469 30.0642 10.0742Z"
            fill="#F96A05" />
        <path fill-rule="evenodd" clip-rule="evenodd"
            d="M14.2222 10.2319C14.3802 10.3636 14.5251 10.5085 14.6568 10.6665C13.9586 11.4567 13.4647 12.3654 13.1753 13.3924C13.0191 13.9909 12.9006 14.5967 12.8197 15.2097C12.6946 16.5742 12.6156 17.9306 12.5827 19.2788C12.5457 20.509 12.2428 21.6679 11.6741 22.7554C11.535 22.9293 11.3968 23.1006 11.2593 23.269C11.1671 23.2031 11.0881 23.1241 11.0222 23.0319C11.1389 22.869 11.264 22.7109 11.3975 22.5579C11.9138 21.6126 12.1903 20.5986 12.2272 19.5159C12.2815 18.1728 12.3342 16.8295 12.3852 15.4863C12.4561 14.3236 12.6799 13.1911 13.0568 12.0887C13.3267 11.39 13.7152 10.771 14.2222 10.2319Z"
            fill="#D95DC0" />
        <path fill-rule="evenodd" clip-rule="evenodd"
            d="M1.54075 10.4297C2.47452 11.1865 3.40951 11.9438 4.34569 12.7013C4.68256 13.0382 5.01836 13.374 5.3531 13.7087C5.61313 14.0743 5.90286 14.4167 6.22223 14.7359C6.49877 15.2363 6.77532 15.7367 7.05186 16.2371C7.22091 16.6499 7.36578 17.0713 7.48643 17.5013C7.62087 18.0594 7.66037 18.6257 7.60495 19.2001C7.5511 19.2863 7.49184 19.3654 7.42717 19.4371C4.95282 16.9825 2.48368 14.52 0.019763 12.0494C-0.00658765 12.0099 -0.00658765 11.9704 0.019763 11.9309C0.52157 11.4225 1.02855 10.9221 1.54075 10.4297Z"
            fill="#CD57FA" />
        <path fill-rule="evenodd" clip-rule="evenodd"
            d="M19.2789 10.4692C19.269 10.5551 19.2295 10.621 19.1604 10.6668C19.1703 10.5809 19.2098 10.515 19.2789 10.4692Z"
            fill="#D357DA" />
        <path fill-rule="evenodd" clip-rule="evenodd"
            d="M24.6122 10.4692C24.3906 10.9783 24.1799 11.4919 23.9801 12.01C23.8748 12.2339 23.7695 12.4577 23.6641 12.6816C23.2185 13.4272 22.7049 14.1251 22.1234 14.7754C22.0575 14.7359 22.0048 14.6832 21.9653 14.6174C22.4403 14.1027 22.8683 13.5496 23.2493 12.9581C23.7047 12.126 24.159 11.2964 24.6122 10.4692Z"
            fill="#ED6457" />
        <path fill-rule="evenodd" clip-rule="evenodd"
            d="M30.5384 10.5483C31.0308 11.021 31.5181 11.5017 32.0001 11.9903C30.5041 13.4929 29.0029 14.9876 27.4964 16.4743C27.4307 16.3955 27.3846 16.3034 27.3581 16.1977C27.3397 15.8414 27.3529 15.4858 27.3976 15.1311C27.5426 14.1285 27.9245 13.2331 28.5433 12.4446C29.2063 11.8012 29.8713 11.1691 30.5384 10.5483Z"
            fill="#F96A00" />
        <path fill-rule="evenodd" clip-rule="evenodd"
            d="M14.6568 10.6665C14.8017 10.785 14.9334 10.9167 15.0519 11.0616C14.3641 11.8441 13.8702 12.7396 13.5704 13.748C13.2694 14.9011 13.085 16.0731 13.0173 17.264C12.9857 18.5914 12.854 19.9083 12.6222 21.2147C12.4235 22.0729 12.0482 22.8367 11.4963 23.506C11.4041 23.4402 11.3251 23.3611 11.2593 23.269C11.3968 23.1006 11.5351 22.9293 11.6741 22.7554C12.2428 21.6679 12.5457 20.509 12.5827 19.2788C12.6156 17.9306 12.6947 16.5742 12.8198 15.2097C12.9006 14.5967 13.0191 13.9909 13.1753 13.3924C13.4647 12.3654 13.9586 11.4567 14.6568 10.6665Z"
            fill="#D95DBA" />
        <path fill-rule="evenodd" clip-rule="evenodd"
            d="M19.1605 10.6665C19.1273 10.7595 19.0746 10.8385 19.0024 10.9035C19.0161 10.797 19.0687 10.7179 19.1605 10.6665Z"
            fill="#D357DA" />
        <path fill-rule="evenodd" clip-rule="evenodd"
            d="M21.1358 10.8643C20.8627 11.5296 20.4808 12.1222 19.9901 12.642C19.9506 12.6289 19.9243 12.6025 19.9111 12.563C20.3876 12.0441 20.7958 11.4779 21.1358 10.8643Z"
            fill="#D95DAE" />
        <path fill-rule="evenodd" clip-rule="evenodd"
            d="M18.9629 10.9434C18.9266 11.0456 18.8607 11.1247 18.7654 11.1804C18.8017 11.0781 18.8675 10.9991 18.9629 10.9434Z"
            fill="#D357DA" />
        <path fill-rule="evenodd" clip-rule="evenodd"
            d="M22.2814 10.9829C22.0599 11.5313 21.7965 12.058 21.4913 12.5632C21.3964 12.6341 21.3306 12.7263 21.2937 12.8397C21.2113 12.8826 21.1586 12.9484 21.1357 13.0372C21.0453 13.1935 20.9268 13.3252 20.7801 13.4323C20.7275 13.4059 20.688 13.3664 20.6616 13.3138C21.3092 12.6112 21.8491 11.8342 22.2814 10.9829Z"
            fill="#E15D8F" />
        <path fill-rule="evenodd" clip-rule="evenodd"
            d="M15.0519 11.0615C15.1441 11.1274 15.2231 11.2064 15.2889 11.2986C14.7072 11.9609 14.266 12.7115 13.9655 13.5504C13.6223 14.5893 13.4314 15.6559 13.3926 16.7504C13.355 17.3959 13.3155 18.0411 13.2741 18.6862C13.2005 19.7486 13.0359 20.8021 12.7803 21.8467C12.56 22.5575 12.211 23.1896 11.7334 23.743C11.6412 23.6771 11.5622 23.5981 11.4963 23.506C12.0482 22.8367 12.4235 22.0728 12.6223 21.2146C12.854 19.9082 12.9857 18.5914 13.0173 17.264C13.085 16.0731 13.2694 14.901 13.5704 13.7479C13.8703 12.7395 14.3641 11.844 15.0519 11.0615Z"
            fill="#DA5DB5" />
        <path fill-rule="evenodd" clip-rule="evenodd"
            d="M18.726 11.2197C18.7237 11.2635 18.7106 11.303 18.6865 11.3382C18.6601 11.3382 18.647 11.3251 18.647 11.2987C18.6601 11.2592 18.6865 11.2329 18.726 11.2197Z"
            fill="#D357DA" />
        <path fill-rule="evenodd" clip-rule="evenodd"
            d="M27.5359 11.2593C27.3853 11.4809 27.2338 11.7047 27.0816 11.9309C26.9501 12.1928 26.8185 12.4562 26.6865 12.721C26.317 13.79 25.9088 14.8435 25.4618 15.8815C25.2338 16.3778 24.9375 16.8256 24.5729 17.2247C24.4676 17.1457 24.3754 17.0535 24.2964 16.9482C24.6701 16.5543 24.9927 16.1197 25.2643 15.6445C25.7958 14.4973 26.2962 13.3384 26.7655 12.1679C26.9885 11.8333 27.2453 11.5304 27.5359 11.2593Z"
            fill="#F96411" />
        <path fill-rule="evenodd" clip-rule="evenodd"
            d="M15.2889 11.2988C15.3415 11.3252 15.381 11.3647 15.4074 11.4173C14.5301 12.4478 13.9573 13.633 13.6889 14.9729C13.5803 15.5694 13.4815 16.162 13.3926 16.7507C13.4313 15.6562 13.6223 14.5895 13.9654 13.5507C14.266 12.7118 14.7071 11.9611 15.2889 11.2988Z"
            fill="#E05DB4" />
        <path fill-rule="evenodd" clip-rule="evenodd"
            d="M15.4074 11.4175C15.5523 11.536 15.684 11.6677 15.8025 11.8125C15.4852 12.2027 15.1889 12.611 14.9136 13.0372C14.3136 14.2185 13.9448 15.4695 13.8074 16.7903C13.686 17.8422 13.5806 18.8957 13.4914 19.9508C13.3941 21.1773 13.0649 22.3361 12.5037 23.4274C12.3296 23.6209 12.165 23.8184 12.0099 24.02C11.9572 23.9936 11.9177 23.9541 11.8914 23.9014C12.6029 22.973 13.0177 21.9196 13.1358 20.7409C13.209 20.0578 13.2551 19.3731 13.2741 18.6866C13.3154 18.0415 13.3549 17.3963 13.3926 16.7508C13.4815 16.1622 13.5803 15.5696 13.6889 14.973C13.9573 13.6331 14.5301 12.448 15.4074 11.4175Z"
            fill="#E05DAF" />
        <path fill-rule="evenodd" clip-rule="evenodd"
            d="M15.8024 11.8125C15.9209 11.9047 16.0262 12.01 16.1184 12.1285C15.335 13.0234 14.7886 14.0505 14.4789 15.21C14.1188 16.7171 13.8949 18.2447 13.8073 19.7927C13.7248 20.9257 13.4747 22.0187 13.0567 23.0718C12.9513 23.2824 12.846 23.4932 12.7406 23.7039C12.5655 23.8852 12.4141 24.0828 12.2863 24.2965C12.1809 24.2174 12.0888 24.1253 12.0098 24.0199C12.1649 23.8183 12.3294 23.6208 12.5036 23.4273C13.0648 22.3361 13.394 21.1772 13.4912 19.9508C13.5805 18.8956 13.6859 17.8421 13.8073 16.7903C13.9447 15.4694 14.3135 14.2184 14.9135 13.0372C15.1888 12.6109 15.4851 12.2027 15.8024 11.8125Z"
            fill="#E05DA7" />
        <path fill-rule="evenodd" clip-rule="evenodd"
            d="M16.1185 12.1284C16.237 12.2206 16.3424 12.3259 16.4345 12.4445C15.6792 13.243 15.1458 14.178 14.8345 15.2494C14.6181 15.9741 14.4601 16.7115 14.3605 17.4618C14.2193 18.9029 14.035 20.3384 13.8074 21.7679C13.642 22.5466 13.3654 23.284 12.9777 23.9803C12.835 24.1747 12.6836 24.3591 12.5234 24.5334C12.4312 24.4675 12.3522 24.3885 12.2864 24.2963C12.4141 24.0826 12.5656 23.8851 12.7407 23.7037C12.8461 23.493 12.9514 23.2823 13.0567 23.0716C13.4747 22.0186 13.7249 20.9256 13.8074 19.7926C13.8949 18.2445 14.1188 16.7169 14.479 15.2099C14.7886 14.0504 15.3351 13.0232 16.1185 12.1284Z"
            fill="#E05DA1" />
        <path fill-rule="evenodd" clip-rule="evenodd"
            d="M22.7555 12.2075C22.6539 12.4349 22.5419 12.6588 22.4197 12.8791C22.2181 13.1643 22.0272 13.454 21.8469 13.7483C21.7255 13.83 21.6333 13.9354 21.5703 14.0643C21.5572 14.1038 21.5308 14.1302 21.4913 14.1433C21.4387 14.117 21.3992 14.0775 21.3728 14.0248C21.8917 13.4601 22.3526 12.8544 22.7555 12.2075Z"
            fill="#E76470" />
        <path fill-rule="evenodd" clip-rule="evenodd"
            d="M16.4345 12.4443C16.5399 12.5233 16.6321 12.6155 16.7111 12.7209C16.3774 13.0715 16.0811 13.4534 15.8222 13.8666C15.2128 15.076 14.8177 16.3534 14.637 17.6987C14.4827 19.1795 14.2852 20.6544 14.0444 22.1233C13.8352 22.9764 13.506 23.7796 13.0568 24.5332C12.962 24.6213 12.8763 24.7135 12.8 24.8098C12.6946 24.7308 12.6024 24.6386 12.5234 24.5332C12.6836 24.3589 12.835 24.1745 12.9778 23.9801C13.3654 23.2839 13.642 22.5464 13.8074 21.7678C14.035 20.3382 14.2194 18.9028 14.3605 17.4616C14.4601 16.7114 14.6181 15.9739 14.8345 15.2493C15.1459 14.1779 15.6792 13.2429 16.4345 12.4443Z"
            fill="#E05D9B" />
        <path fill-rule="evenodd" clip-rule="evenodd"
            d="M25.047 12.4443C24.9224 12.8767 24.8039 13.3113 24.6914 13.748C24.6388 13.8666 24.5861 13.9851 24.5334 14.1036C24.1664 14.7453 23.7318 15.3379 23.2297 15.8814C23.1375 15.8155 23.0585 15.7365 22.9927 15.6443C23.1375 15.5324 23.2626 15.4007 23.368 15.2493C24.0281 14.3772 24.5877 13.4422 25.047 12.4443Z"
            fill="#F36431" />
        <path fill-rule="evenodd" clip-rule="evenodd"
            d="M21.4915 12.563C21.4546 12.6764 21.3888 12.7686 21.2939 12.8395C21.3308 12.7261 21.3967 12.6339 21.4915 12.563Z"
            fill="#E65D8E" />
        <path fill-rule="evenodd" clip-rule="evenodd"
            d="M23.6643 12.6816C23.4879 13.1134 23.2904 13.5347 23.0717 13.9458C22.8368 14.2967 22.5734 14.6259 22.2816 14.9335C22.2157 14.894 22.163 14.8413 22.1235 14.7755C22.7051 14.1252 23.2187 13.4272 23.6643 12.6816Z"
            fill="#ED6451" />
        <path fill-rule="evenodd" clip-rule="evenodd"
            d="M16.7112 12.7212C16.8033 12.787 16.8823 12.8661 16.9482 12.9582C16.1291 13.8457 15.5891 14.886 15.3284 16.0792C15.1744 16.6914 15.0559 17.3103 14.9729 17.936C14.7875 19.3664 14.5966 20.8017 14.4 22.2422C14.2086 23.0992 13.9057 23.9157 13.4914 24.6916C13.3716 24.844 13.2465 24.9889 13.1161 25.1261C12.9976 25.034 12.8922 24.9286 12.8 24.8101C12.8764 24.7138 12.962 24.6216 13.0568 24.5335C13.506 23.78 13.8352 22.9767 14.0445 22.1237C14.2852 20.6547 14.4828 19.1799 14.6371 17.699C14.8178 16.3537 15.2128 15.0763 15.8223 13.8669C16.0812 13.4537 16.3775 13.0718 16.7112 12.7212Z"
            fill="#E15D96" />
        <path fill-rule="evenodd" clip-rule="evenodd"
            d="M21.2938 12.8394C21.2709 12.9282 21.2182 12.994 21.1357 13.0369C21.1587 12.948 21.2113 12.8822 21.2938 12.8394Z"
            fill="#E65D8E" />
        <path fill-rule="evenodd" clip-rule="evenodd"
            d="M16.9481 12.958C16.9876 12.9712 17.014 12.9975 17.0271 13.037C16.5148 13.5867 16.1 14.2057 15.7827 14.8938C15.6184 15.2886 15.467 15.6837 15.3284 16.079C15.5891 14.8858 16.129 13.8454 16.9481 12.958Z"
            fill="#E65D95" />
        <path fill-rule="evenodd" clip-rule="evenodd"
            d="M17.0273 13.0371C17.1194 13.103 17.1985 13.182 17.2643 13.2741C16.538 14.1072 16.0047 15.0554 15.6643 16.1186C15.4792 16.7546 15.3343 17.3999 15.2297 18.0544C15.0773 19.158 14.9455 20.2642 14.8347 21.3729C14.7484 22.1355 14.6035 22.8861 14.4001 23.6248C14.208 24.0825 14.0237 24.5434 13.847 25.0075C13.7527 25.1441 13.6408 25.2626 13.5112 25.363C13.6224 25.1941 13.7343 25.0229 13.847 24.8495C14.4045 23.6069 14.7074 22.3032 14.7557 20.9383C14.8133 19.9362 14.8857 18.9354 14.973 17.9359C15.056 17.3102 15.1745 16.6912 15.3285 16.0791C15.4671 15.6837 15.6185 15.2887 15.7828 14.8939C16.1001 14.2057 16.5149 13.5868 17.0273 13.0371Z"
            fill="#E65D8F" />
        <path fill-rule="evenodd" clip-rule="evenodd"
            d="M17.2643 13.2739C17.3564 13.3398 17.4355 13.4188 17.5013 13.511C16.4051 14.8545 15.7401 16.3953 15.5062 18.1332C15.3354 19.3943 15.1905 20.6585 15.0717 21.9258C14.9681 23.0513 14.6916 24.1311 14.2421 25.1653C14.1126 25.3932 13.9612 25.6039 13.7877 25.7974C13.6692 25.7052 13.5638 25.5999 13.4717 25.4813C13.4958 25.4461 13.5089 25.4066 13.5112 25.3628C13.6408 25.2623 13.7527 25.1438 13.847 25.0073C14.0236 24.5432 14.208 24.0823 14.4001 23.6245C14.6035 22.8859 14.7483 22.1352 14.8346 21.3727C14.9455 20.264 15.0772 19.1578 15.2297 18.0542C15.3343 17.3997 15.4791 16.7544 15.6643 16.1184C16.0046 15.0551 16.538 14.107 17.2643 13.2739Z"
            fill="#E65D88" />
        <path fill-rule="evenodd" clip-rule="evenodd"
            d="M17.5012 13.5112C17.6065 13.5902 17.6987 13.6824 17.7777 13.7878C16.9842 14.6498 16.4246 15.6506 16.0987 16.7902C15.7039 18.4416 15.4735 20.1074 15.4074 21.7878C15.3215 22.5731 15.2095 23.3567 15.0715 24.1384C14.8924 24.6363 14.7212 25.1367 14.558 25.6396C14.4241 25.8193 14.299 26.0036 14.1827 26.1927C14.0378 26.0742 13.9061 25.9425 13.7876 25.7976C13.961 25.6042 14.1125 25.3935 14.2419 25.1656C14.6914 24.1314 14.968 23.0515 15.0715 21.926C15.1904 20.6587 15.3353 19.3945 15.5061 18.1335C15.74 16.3955 16.405 14.8548 17.5012 13.5112Z"
            fill="#E65D82" />
        <path fill-rule="evenodd" clip-rule="evenodd"
            d="M21.8469 13.748C21.7839 13.877 21.6917 13.9824 21.5703 14.0641C21.6333 13.9351 21.7255 13.8298 21.8469 13.748Z"
            fill="#EC646F" />
        <path fill-rule="evenodd" clip-rule="evenodd"
            d="M17.7777 13.7876C17.804 13.7876 17.8172 13.8008 17.8172 13.8271C17.2141 14.4903 16.7466 15.2409 16.4147 16.079C16.136 16.891 15.9253 17.7206 15.7826 18.5678C15.6261 19.7624 15.5076 20.9608 15.4271 22.1629C15.3467 22.8232 15.2545 23.4816 15.1505 24.1382C15.0411 24.515 14.9094 24.8838 14.7555 25.2444C14.7064 25.6453 14.5418 25.9877 14.2616 26.2715C14.2221 26.2584 14.1958 26.232 14.1826 26.1925C14.299 26.0035 14.4241 25.8191 14.5579 25.6395C14.7212 25.1365 14.8924 24.6361 15.0715 24.1382C15.2095 23.3565 15.3215 22.5729 15.4073 21.7876C15.4734 20.1072 15.7039 18.4414 16.0987 16.7901C16.4245 15.6504 16.9842 14.6496 17.7777 13.7876Z"
            fill="#E65D7C" />
        <path fill-rule="evenodd" clip-rule="evenodd"
            d="M17.8173 13.8271C17.9094 13.893 17.9885 13.972 18.0543 14.0642C17.8944 14.2117 17.743 14.3697 17.6 14.5383C16.6772 15.9235 16.1373 17.4511 15.9802 19.121C15.8224 20.6586 15.7039 22.1993 15.6247 23.7432C15.4902 24.5971 15.3059 25.4399 15.0716 26.2716C14.9651 26.4367 14.8531 26.5948 14.7358 26.7457C14.5646 26.6008 14.4066 26.4428 14.2617 26.2716C14.5419 25.9877 14.7065 25.6453 14.7555 25.2444C14.9095 24.8838 15.0412 24.5151 15.1506 24.1383C15.2546 23.4817 15.3468 22.8233 15.4272 22.163C15.5077 20.9608 15.6262 19.7625 15.7827 18.5679C15.9254 17.7206 16.1361 16.891 16.4148 16.079C16.7467 15.2409 17.2142 14.4903 17.8173 13.8271Z"
            fill="#E6647C" />
        <path fill-rule="evenodd" clip-rule="evenodd"
            d="M18.0544 14.064C18.0807 14.064 18.0939 14.0771 18.0939 14.1035C17.2435 15.0803 16.6969 16.2128 16.4544 17.501C16.326 18.0737 16.2535 18.6532 16.2371 19.2393C16.1944 19.62 16.1681 20.0018 16.1581 20.385C16.1092 20.8479 16.0697 21.3154 16.0395 21.7874C16.0527 21.8006 16.0659 21.8138 16.079 21.8269C16.0164 23.347 15.944 24.868 15.8618 26.3899C15.7116 26.7419 15.5733 27.0975 15.447 27.4566C15.1968 27.2327 14.9597 26.9956 14.7358 26.7454C14.8532 26.5945 14.9651 26.4365 15.0716 26.2714C15.3059 25.4397 15.4902 24.5969 15.6247 23.743C15.704 22.1991 15.8225 20.6584 15.9803 19.1208C16.1373 17.4509 16.6773 15.9233 17.6 14.538C17.743 14.3695 17.8944 14.2115 18.0544 14.064Z"
            fill="#E76476" />
        <path fill-rule="evenodd" clip-rule="evenodd"
            d="M18.0939 14.1035C18.1597 14.143 18.2124 14.1957 18.2519 14.2615C17.3984 15.2441 16.8255 16.3766 16.5334 17.6591C16.4125 18.1873 16.3137 18.7141 16.2371 19.2393C16.2535 18.6532 16.3259 18.0738 16.4543 17.501C16.6969 16.2128 17.2434 15.0803 18.0939 14.1035Z"
            fill="#EC6475" />
        <path fill-rule="evenodd" clip-rule="evenodd"
            d="M24.5334 14.1035C24.2831 14.8283 23.9012 15.4735 23.3878 16.0393C23.3219 15.9998 23.2692 15.9472 23.2297 15.8813C23.7319 15.3378 24.1664 14.7452 24.5334 14.1035Z"
            fill="#F2642A" />
        <path fill-rule="evenodd" clip-rule="evenodd"
            d="M18.2519 14.2617C18.3441 14.3276 18.4231 14.4066 18.4889 14.4988C17.6147 15.4703 17.0418 16.6028 16.7704 17.8963C16.4785 19.3117 16.3403 20.7536 16.3556 22.2222C16.3665 23.0175 16.3863 23.8142 16.4149 24.6123C16.45 24.8214 16.4566 25.0256 16.4346 25.2247C16.4712 25.4037 16.5173 25.5815 16.5729 25.758C16.586 25.9424 16.5992 26.1267 16.6124 26.3111C16.7492 26.5453 16.8742 26.7823 16.9877 27.0222C16.8955 27.1407 16.7902 27.2461 16.6716 27.3383C16.6198 27.0256 16.5079 26.7359 16.3358 26.4691C16.2874 25.6171 16.2413 24.7809 16.1976 23.9605C16.212 23.8355 16.2252 23.7104 16.2371 23.5852C16.1744 22.5195 16.1481 21.4529 16.1581 20.3852C16.1681 20.002 16.1945 19.6202 16.2371 19.2395C16.3138 18.7143 16.4125 18.1875 16.5334 17.6592C16.8256 16.3768 17.3984 15.2443 18.2519 14.2617Z"
            fill="#EC6470" />
        <path fill-rule="evenodd" clip-rule="evenodd"
            d="M18.489 14.4985C18.5811 14.5644 18.6602 14.6434 18.726 14.7356C17.8669 15.6502 17.3072 16.7301 17.047 17.9751C16.7724 19.224 16.6473 20.4882 16.6717 21.7677C16.6818 22.8429 16.7805 23.9096 16.968 24.9677C17.0602 25.2578 17.1524 25.5475 17.2445 25.8368C17.3798 26.0155 17.5049 26.1998 17.6198 26.3899C17.4223 26.6138 17.2116 26.8245 16.9877 27.022C16.8743 26.7821 16.7492 26.545 16.6124 26.3109C16.5993 26.1265 16.5861 25.9422 16.5729 25.7578C16.5173 25.5813 16.4712 25.4035 16.4347 25.2245C16.4566 25.0253 16.4501 24.8212 16.4149 24.6121C16.3863 23.814 16.3665 23.0173 16.3556 22.222C16.3403 20.7534 16.4786 19.3115 16.7705 17.8961C17.0419 16.6026 17.6147 15.47 18.489 14.4985Z"
            fill="#EC6469" />
        <path fill-rule="evenodd" clip-rule="evenodd"
            d="M18.726 14.7358C18.8182 14.8017 18.8972 14.8807 18.963 14.9729C18.1601 15.8675 17.6268 16.9078 17.363 18.0939C16.9556 20.0457 16.9293 21.9815 17.284 23.9013C17.4266 24.6267 17.7097 25.2851 18.1334 25.8766C17.9754 26.061 17.8042 26.2321 17.6198 26.3902C17.5049 26.2001 17.3798 26.0157 17.2445 25.8371C17.1524 25.5478 17.0602 25.2581 16.968 24.9679C16.7805 23.9099 16.6818 22.8432 16.6717 21.7679C16.6473 20.4885 16.7724 19.2243 17.047 17.9753C17.3072 16.7303 17.8669 15.6505 18.726 14.7358Z"
            fill="#EC6463" />
        <path fill-rule="evenodd" clip-rule="evenodd"
            d="M18.9631 14.9727C19.0552 15.0385 19.1343 15.1175 19.2001 15.2097C18.8426 15.569 18.5528 15.9772 18.331 16.4344C18.2397 16.5372 18.1673 16.6557 18.1137 16.7899C17.4512 18.4251 17.201 20.1238 17.3631 21.8862C17.4345 22.9154 17.6715 23.9031 18.0742 24.8492C18.2168 25.0695 18.3682 25.2802 18.5285 25.4813C18.41 25.6262 18.2783 25.7578 18.1334 25.8764C17.7097 25.2849 17.4266 24.6265 17.2841 23.9011C16.9293 21.9813 16.9556 20.0455 17.3631 18.0936C17.6268 16.9076 18.1601 15.8672 18.9631 14.9727Z"
            fill="#EC645C" />
        <path fill-rule="evenodd" clip-rule="evenodd"
            d="M19.2 15.21C19.279 15.2626 19.3448 15.3285 19.3975 15.4075C18.4825 16.4447 17.936 17.6562 17.758 19.0421C17.7012 19.4286 17.6551 19.8105 17.6197 20.1877C17.5633 18.8939 17.8003 17.6429 18.3308 16.4347C18.5527 15.9775 18.8424 15.5693 19.2 15.21Z"
            fill="#F26457" />
        <path fill-rule="evenodd" clip-rule="evenodd"
            d="M19.3976 15.4072C19.4898 15.4731 19.5688 15.5521 19.6347 15.6443C18.9184 16.4047 18.4377 17.3001 18.1927 18.3307C17.7677 20.1538 17.873 21.9447 18.5087 23.7035C18.6009 23.8879 18.6931 24.0722 18.7853 24.2566C18.9339 24.4362 19.0721 24.6206 19.2001 24.8097C19.1737 24.8624 19.1342 24.9019 19.0816 24.9282C18.9626 24.7438 18.8243 24.5726 18.6668 24.4146C18.3948 23.9413 18.1841 23.4409 18.0347 22.9134C17.9143 22.3404 17.7892 21.7741 17.6594 21.2146C17.6247 20.8736 17.6115 20.5312 17.6199 20.1875C17.6553 19.8103 17.7013 19.4284 17.7581 19.0418C17.9362 17.656 18.4827 16.4445 19.3976 15.4072Z"
            fill="#F26451" />
        <path fill-rule="evenodd" clip-rule="evenodd"
            d="M19.6347 15.6445C19.7268 15.7104 19.8059 15.7894 19.8717 15.8816C18.9331 16.9638 18.4129 18.228 18.3112 19.6742C18.2181 20.8807 18.3761 22.0527 18.7853 23.1902C18.9929 23.6456 19.2497 24.067 19.5557 24.4544C19.4503 24.5861 19.3318 24.7046 19.2001 24.81C19.0721 24.6209 18.9339 24.4365 18.7853 24.2569C18.6931 24.0725 18.6009 23.8882 18.5088 23.7038C17.873 21.945 17.7677 20.154 18.1927 18.331C18.4378 17.3004 18.9184 16.4049 19.6347 15.6445Z"
            fill="#F2644A" />
        <path fill-rule="evenodd" clip-rule="evenodd"
            d="M19.8715 15.8813C19.9637 15.9472 20.0427 16.0262 20.1086 16.1184C19.6041 16.6394 19.2288 17.2451 18.9827 17.9357C18.4503 19.5403 18.4634 21.1468 19.0222 22.7554C19.2254 23.2677 19.5086 23.7286 19.8715 24.1381C19.7794 24.2567 19.674 24.362 19.5555 24.4542C19.2496 24.0668 18.9928 23.6454 18.7851 23.19C18.376 22.0525 18.2179 20.8805 18.311 19.6739C18.4128 18.2277 18.933 16.9635 19.8715 15.8813Z"
            fill="#F26443" />
        <path fill-rule="evenodd" clip-rule="evenodd"
            d="M20.1086 16.1187C20.2008 16.1845 20.2798 16.2635 20.3456 16.3557C20.1745 16.4939 20.0231 16.6519 19.8913 16.8298C18.8355 18.5424 18.6248 20.3597 19.2592 22.2816C19.4653 22.8656 19.7616 23.3923 20.1481 23.8619C20.0691 23.9672 19.9769 24.0594 19.8716 24.1384C19.5086 23.7288 19.2254 23.268 19.0222 22.7557C18.4634 21.1471 18.4503 19.5405 18.9827 17.9359C19.2288 17.2454 19.6041 16.6396 20.1086 16.1187Z"
            fill="#F2643D" />
        <path fill-rule="evenodd" clip-rule="evenodd"
            d="M20.3457 16.3555C20.3721 16.3555 20.3852 16.3686 20.3852 16.395C19.5046 17.3775 19.1227 18.5232 19.2395 19.832C19.2395 19.9637 19.2395 20.0954 19.2395 20.2271C19.2871 21.2073 19.5439 22.1291 20.0099 22.9925C20.1527 23.1869 20.3041 23.3713 20.4642 23.5456C20.3721 23.6641 20.2667 23.7695 20.1482 23.8616C19.7617 23.3921 19.4654 22.8654 19.2593 22.2814C18.6249 20.3595 18.8356 18.5422 19.8914 16.8295C20.0232 16.6517 20.1746 16.4937 20.3457 16.3555Z"
            fill="#F26437" />
        <path fill-rule="evenodd" clip-rule="evenodd"
            d="M20.3852 16.395C20.4511 16.4345 20.5037 16.4872 20.5432 16.553C19.7266 17.4892 19.292 18.5822 19.2395 19.8321C19.1227 18.5232 19.5046 17.3775 20.3852 16.395Z"
            fill="#F96437" />
        <path fill-rule="evenodd" clip-rule="evenodd"
            d="M18.3309 16.4346C17.8004 17.6428 17.5634 18.8938 17.6198 20.1877C17.6114 20.5314 17.6246 20.8738 17.6593 21.2148C17.6758 22.3973 17.9457 23.5166 18.4692 24.5728C18.6322 24.7419 18.7704 24.9263 18.884 25.1259C18.7786 25.2576 18.6601 25.3761 18.5284 25.4815C18.3681 25.2804 18.2167 25.0697 18.0741 24.8494C17.6714 23.9033 17.4344 22.9156 17.363 21.8864C17.2009 20.124 17.4511 18.4252 18.1136 16.7901C18.1672 16.6559 18.2396 16.5374 18.3309 16.4346Z"
            fill="#EC6456" />
        <path fill-rule="evenodd" clip-rule="evenodd"
            d="M20.5432 16.5532C20.6486 16.6322 20.7407 16.7244 20.8197 16.8298C19.608 18.2991 19.3117 19.9451 19.9309 21.768C20.1341 22.3069 20.4173 22.7941 20.7802 23.2298C20.7802 23.2561 20.7671 23.2693 20.7407 23.2693C19.9694 22.3917 19.469 21.3777 19.2395 20.2273C19.2395 20.0956 19.2395 19.9639 19.2395 19.8322C19.292 18.5824 19.7266 17.4894 20.5432 16.5532Z"
            fill="#F96431" />
        <path fill-rule="evenodd" clip-rule="evenodd"
            d="M20.8197 16.8296C20.9118 16.8954 20.9909 16.9745 21.0567 17.0666C19.952 18.3833 19.682 19.8583 20.2468 21.4913C20.4156 21.8157 20.5737 22.1449 20.7209 22.479C20.8407 22.6314 20.9658 22.7763 21.0962 22.9135C21.004 23.0321 20.8987 23.1374 20.7802 23.2296C20.4172 22.794 20.134 22.3067 19.9308 21.7679C19.3116 19.945 19.6079 18.2989 20.8197 16.8296Z"
            fill="#F9642A" />
        <path fill-rule="evenodd" clip-rule="evenodd"
            d="M21.0567 17.0669C21.1621 17.1459 21.2542 17.2381 21.3332 17.3434C20.5436 18.2168 20.2407 19.2373 20.4246 20.4052C20.4606 20.7064 20.5198 21.0027 20.6024 21.2941C20.7736 21.6365 20.9448 21.9788 21.116 22.3212C21.2096 22.4215 21.3084 22.5137 21.4123 22.5978C21.3201 22.7163 21.2147 22.8216 21.0962 22.9138C20.9658 22.7766 20.8407 22.6317 20.7209 22.4792C20.5737 22.1452 20.4156 21.816 20.2468 21.4916C19.682 19.8585 19.952 18.3836 21.0567 17.0669Z"
            fill="#F96424" />
        <path fill-rule="evenodd" clip-rule="evenodd"
            d="M21.3333 17.3433C21.4387 17.4223 21.5308 17.5144 21.6098 17.6198C21.4809 17.7952 21.3427 17.9664 21.195 18.1334C21.04 18.4536 20.9083 18.7828 20.8 19.121C20.7113 20.0684 20.8825 20.9638 21.3135 21.8075C21.4432 21.9757 21.5815 22.1337 21.7284 22.2815C21.6362 22.4001 21.5308 22.5054 21.4123 22.5976C21.3084 22.5135 21.2096 22.4213 21.116 22.321C20.9448 21.9786 20.7736 21.6363 20.6024 21.2939C20.5199 21.0025 20.4606 20.7062 20.4246 20.405C20.2408 19.2371 20.5436 18.2166 21.3333 17.3433Z"
            fill="#F9641E" />
        <path fill-rule="evenodd" clip-rule="evenodd"
            d="M21.6099 17.6196C21.7416 17.725 21.8601 17.8435 21.9655 17.9752C21.6252 18.4778 21.3882 19.0243 21.2543 19.6147C21.2609 20.4842 21.5506 21.2414 22.1235 21.8863C22.005 22.0312 21.8733 22.1628 21.7284 22.2814C21.5815 22.1336 21.4433 21.9755 21.3136 21.8073C20.8826 20.9637 20.7114 20.0682 20.8 19.1209C20.9084 18.7827 21.0401 18.4534 21.1951 18.1332C21.3427 17.9662 21.481 17.795 21.6099 17.6196Z"
            fill="#F96418" />
        <path fill-rule="evenodd" clip-rule="evenodd"
            d="M14.9728 17.936C14.8855 18.9355 14.8131 19.9364 14.7555 20.9385C14.7072 22.3034 14.4043 23.6071 13.8468 24.8496C13.7341 25.023 13.6222 25.1943 13.511 25.3632C13.5088 25.407 13.4956 25.4465 13.4715 25.4817C13.3398 25.3764 13.2213 25.2578 13.116 25.1262C13.2464 24.9889 13.3715 24.844 13.4913 24.6916C13.9056 23.9157 14.2085 23.0993 14.3999 22.2422C14.5965 20.8018 14.7874 19.3664 14.9728 17.936Z"
            fill="#E15D8F" />
        <path fill-rule="evenodd" clip-rule="evenodd"
            d="M21.9655 17.9751C22.0577 18.041 22.1367 18.12 22.2025 18.2121C22.0284 18.5209 21.8637 18.837 21.7087 19.1603C21.6477 19.4057 21.6016 19.6427 21.5704 19.8714C21.6584 20.4054 21.8362 20.9058 22.1038 21.3726C22.1975 21.4597 22.2831 21.5519 22.3606 21.6492C22.2947 21.7413 22.2157 21.8204 22.1235 21.8862C21.5507 21.2413 21.261 20.4841 21.2544 19.6146C21.3882 19.0243 21.6252 18.4777 21.9655 17.9751Z"
            fill="#F96411" />
        <path fill-rule="evenodd" clip-rule="evenodd"
            d="M22.2024 18.2124C22.2814 18.2651 22.3473 18.3309 22.3999 18.4099C21.779 19.1555 21.6802 19.972 22.1036 20.8593C22.1892 21.1092 22.3406 21.3067 22.558 21.4519C22.5053 21.5309 22.4394 21.5968 22.3604 21.6494C22.283 21.5521 22.1974 21.4599 22.1036 21.3729C21.8361 20.9061 21.6583 20.4057 21.5703 19.8717C21.6015 19.643 21.6476 19.406 21.7086 19.1606C21.8636 18.8372 22.0282 18.5212 22.2024 18.2124Z"
            fill="#F96A11" />
        <path fill-rule="evenodd" clip-rule="evenodd"
            d="M22.4 18.4097C22.5844 18.5677 22.7555 18.7389 22.9136 18.9232C22.7552 19.2527 22.663 19.5951 22.637 19.9504C22.7689 20.293 22.9005 20.6354 23.0321 20.9776C22.8872 21.1487 22.7292 21.3068 22.558 21.4516C22.3407 21.3065 22.1892 21.1089 22.1037 20.8591C21.6803 19.9717 21.779 19.1553 22.4 18.4097Z"
            fill="#F96A0B" />
        <path fill-rule="evenodd" clip-rule="evenodd"
            d="M13.2741 18.6865C13.2551 19.373 13.2091 20.0577 13.1359 20.7408C13.0178 21.9195 12.603 22.9729 11.8914 23.9013C11.8256 23.8618 11.7729 23.8092 11.7334 23.7433C12.211 23.1899 12.56 22.5578 12.7803 21.847C13.0359 20.8024 13.2005 19.7489 13.2741 18.6865Z"
            fill="#D95DAE" />
        <path fill-rule="evenodd" clip-rule="evenodd"
            d="M22.9135 18.9233C23.2891 19.266 23.6446 19.6281 23.9802 20.0098C23.6842 20.3518 23.3681 20.6745 23.032 20.9777C22.9005 20.6355 22.7688 20.2931 22.637 19.9505C22.6629 19.5952 22.7551 19.2528 22.9135 18.9233Z"
            fill="#F96A05" />
        <path fill-rule="evenodd" clip-rule="evenodd"
            d="M19.2395 20.2271C19.469 21.3775 19.9694 22.3915 20.7407 23.269C20.6617 23.3744 20.5696 23.4666 20.4642 23.5456C20.304 23.3713 20.1526 23.1869 20.0099 22.9925C19.5438 22.1291 19.287 21.2073 19.2395 20.2271Z"
            fill="#F26431" />
        <path fill-rule="evenodd" clip-rule="evenodd"
            d="M16.1581 20.3853C16.1481 21.4529 16.1745 22.5196 16.2371 23.5853C16.2253 23.7105 16.2121 23.8356 16.1976 23.9606C16.2414 24.781 16.2875 25.6172 16.3359 26.4692C16.5079 26.736 16.6198 27.0257 16.6717 27.3383C16.4619 27.5745 16.238 27.7984 16.0001 28.0099C15.8017 27.8379 15.6174 27.6536 15.447 27.4569C15.5734 27.0978 15.7116 26.7422 15.8618 26.3902C15.944 24.8683 16.0165 23.3473 16.0791 21.8272C16.066 21.8141 16.0528 21.8009 16.0396 21.7877C16.0698 21.3157 16.1093 20.8482 16.1581 20.3853Z"
            fill="#E6646F" />
        <path fill-rule="evenodd" clip-rule="evenodd"
            d="M17.6592 21.2148C17.789 21.7743 17.9141 22.3406 18.0345 22.9136C18.1839 23.4411 18.3946 23.9415 18.6666 24.4148C18.8241 24.5728 18.9624 24.744 19.0814 24.9284C19.0287 25.0074 18.9629 25.0733 18.8839 25.126C18.7703 24.9263 18.6321 24.742 18.4691 24.5729C17.9456 23.5166 17.6757 22.3973 17.6592 21.2148Z"
            fill="#EC6450" />
    </g>
    <defs>
        <clipPath id="clip0_5584_547">
            <rect width="32" height="32" fill="white" />
        </clipPath>
    </defs>
</svg>