<svg width="32" height="32" viewBox="0 0 32 32" fill="none" xmlns="http://www.w3.org/2000/svg">
    <g clip-path="url(#clip0_5858_296)">
        <path fill-rule="evenodd" clip-rule="evenodd"
            d="M-0.0712891 -0.0712891C10.5954 -0.0712891 21.262 -0.0712891 31.9287 -0.0712891C31.9287 10.5954 31.9287 21.262 31.9287 31.9287C21.262 31.9287 10.5954 31.9287 -0.0712891 31.9287C-0.0712891 21.262 -0.0712891 10.5954 -0.0712891 -0.0712891Z"
            fill="#3E3EFA" />
        <path fill-rule="evenodd" clip-rule="evenodd"
            d="M15.4308 5.90219C18.3161 5.68751 21.0183 6.28009 23.5375 7.67997C23.9885 8.01297 24.4151 8.36853 24.8175 8.74664C24.3931 9.24223 23.9427 9.71631 23.4664 10.1689C21.9188 8.91017 20.1411 8.17535 18.133 7.96442C15.0708 7.66595 12.3686 8.49559 10.0264 10.4533C9.60192 10.1001 9.19896 9.72082 8.81746 9.31553C8.72968 9.18055 8.75338 9.06202 8.88858 8.95997C10.7998 7.35167 12.9805 6.3324 15.4308 5.90219Z"
            fill="#F6F6FA" />
        <path fill-rule="evenodd" clip-rule="evenodd"
            d="M15.5729 11.4492C16.9061 11.4163 18.2336 11.4874 19.5552 11.6625C20.3249 11.8817 21.036 12.2135 21.6885 12.6581C21.3746 13.2622 21.0428 13.8548 20.6929 14.4359C19.1905 13.6079 17.5787 13.2997 15.8574 13.5114C14.9783 13.6066 14.291 14.0096 13.7952 14.7203C13.6314 15.336 13.7499 15.8811 14.1507 16.3559C15.629 16.9078 17.1461 17.3345 18.7018 17.6359C20.3432 18.2341 21.0307 19.3956 20.7641 21.1203C20.1534 23.1039 18.8022 24.2179 16.7107 24.4625C14.7175 24.7016 12.7738 24.512 10.8796 23.8937C10.4055 23.7044 9.9788 23.4435 9.59961 23.1114C9.95516 22.4952 10.3107 21.8788 10.6663 21.2625C12.766 22.5983 15.0178 22.9065 17.4218 22.187C18.4876 21.5675 18.6772 20.7615 17.9907 19.7692C16.2912 19.23 14.5845 18.7085 12.8707 18.2048C11.5764 17.3931 11.0786 16.2316 11.3774 14.7203C11.6782 13.7151 12.2708 12.9329 13.1552 12.3737C13.9402 11.9626 14.7461 11.6545 15.5729 11.4492Z"
            fill="#F6F6FA" />
    </g>
    <defs>
        <clipPath id="clip0_5858_296">
            <rect width="32" height="32" fill="white" />
        </clipPath>
    </defs>
</svg>