<svg width="32" height="32" viewBox="0 0 32 32" fill="none" xmlns="http://www.w3.org/2000/svg">
    <rect width="32" height="32" fill="black" />
    <path fill-rule="evenodd" clip-rule="evenodd"
        d="M16.712 2.40936C15.3673 2.40936 14.0225 2.40936 12.6777 2.40936C13.4774 2.30559 14.2913 2.25839 15.1196 2.26777C15.6268 2.27957 16.134 2.29136 16.6413 2.30317C16.6806 2.33025 16.7042 2.36565 16.712 2.40936Z"
        fill="#474747" />
    <path fill-rule="evenodd" clip-rule="evenodd"
        d="M23.3652 2.90465C22.6386 2.79098 21.9072 2.72018 21.1711 2.69226C21.1475 2.69226 21.1239 2.69226 21.1003 2.69226C20.27 2.52277 19.4207 2.45198 18.5523 2.47987C18.1377 2.50268 17.7366 2.47909 17.3491 2.40907C18.2704 2.43261 19.1905 2.40901 20.1094 2.33828C20.4284 2.23006 20.7587 2.18286 21.1003 2.19669C21.3727 2.18732 21.6323 2.22272 21.8789 2.30288C20.0937 2.46515 20.0937 2.53595 21.8789 2.51527C21.8553 2.49167 21.8317 2.46807 21.8081 2.44447C22.0009 2.42539 22.1896 2.39 22.3743 2.33828C22.6919 2.4307 23.0104 2.4307 23.3298 2.33828C23.3652 2.36187 23.4006 2.38548 23.436 2.40907C23.374 2.46223 23.3032 2.49763 23.2236 2.51527C22.844 2.52734 22.4665 2.56274 22.0912 2.62146C22.3953 2.68005 22.7019 2.71545 23.0113 2.72766C23.1522 2.75411 23.2702 2.81311 23.3652 2.90465Z"
        fill="#2B2B2B" />
    <path fill-rule="evenodd" clip-rule="evenodd"
        d="M12.4654 2.40918C12.5362 2.40918 12.607 2.40918 12.6778 2.40918C14.0225 2.40918 15.3673 2.40918 16.7121 2.40918C16.9244 2.40918 17.1367 2.40918 17.3491 2.40918C17.7366 2.47919 18.1377 2.50279 18.5523 2.47998C18.5523 2.50357 18.5523 2.52718 18.5523 2.55077C16.1459 2.55077 13.7394 2.55077 11.333 2.55077C11.7105 2.50357 12.088 2.45638 12.4654 2.40918Z"
        fill="#CDCDCD" />
    <path fill-rule="evenodd" clip-rule="evenodd"
        d="M9.98828 2.55128C9.98828 2.57488 9.98828 2.59848 9.98828 2.62208C9.77594 2.62208 9.56361 2.62208 9.35128 2.62208C9.06576 2.6224 8.78266 2.646 8.50195 2.69287C8.55596 2.63851 8.62673 2.60311 8.71428 2.58668C9.13831 2.55132 9.56298 2.53951 9.98828 2.55128Z"
        fill="#3A3A3A" />
    <path fill-rule="evenodd" clip-rule="evenodd"
        d="M12.4655 2.40943C12.088 2.45663 11.7105 2.50383 11.333 2.55103C10.8845 2.56994 10.4362 2.59354 9.98828 2.62182C9.98828 2.59823 9.98828 2.57462 9.98828 2.55103C10.8069 2.42599 11.6326 2.3788 12.4655 2.40943Z"
        fill="#6B6B6B" />
    <path fill-rule="evenodd" clip-rule="evenodd"
        d="M11.3329 2.55078C13.7393 2.55078 16.1458 2.55078 18.5522 2.55078C19.3998 2.62612 20.2491 2.67331 21.1002 2.69236C21.1237 2.69236 21.1474 2.69236 21.1709 2.69236C21.8902 2.81529 22.6215 2.90968 23.365 2.97552C23.5588 2.96854 23.7475 2.99214 23.9313 3.04631C23.9608 3.0974 24.008 3.13279 24.0728 3.1525C24.3786 3.18782 24.6853 3.19963 24.9929 3.1879C25.384 3.29549 25.785 3.34268 26.1961 3.32948C26.1961 3.35307 26.1961 3.37667 26.1961 3.40027C26.204 3.44397 26.2276 3.47937 26.2669 3.50645C26.7265 3.53802 27.1747 3.59701 27.6117 3.68343C27.789 3.77189 27.9778 3.81908 28.1779 3.82501C28.2619 4.00024 28.4035 4.07103 28.6026 4.03738C28.6997 4.10899 28.794 4.17981 28.8857 4.24975C28.9191 4.34928 28.9899 4.3965 29.098 4.39133C29.1391 4.55054 29.2334 4.66848 29.3811 4.74529C29.4283 4.74529 29.4519 4.76886 29.4519 4.81608C29.4519 4.91044 29.4047 4.95766 29.3103 4.95766C29.1923 4.86329 29.0744 4.76886 28.9564 4.67449C28.8967 4.51458 28.7787 4.44379 28.6026 4.46212C28.5469 4.34858 28.4525 4.30136 28.3194 4.32054C28.2959 4.32054 28.2722 4.32054 28.2487 4.32054C28.0827 4.13826 27.8704 4.06747 27.6117 4.10817C27.5645 4.10817 27.5173 4.10817 27.4701 4.10817C27.4647 4.0197 27.4175 3.96071 27.3286 3.93119C26.8127 3.91764 26.3173 3.82325 25.8422 3.64803C25.4655 3.61268 25.088 3.60089 24.7098 3.61264C24.3718 3.49602 24.018 3.44883 23.6482 3.47106C23.6246 3.47106 23.6009 3.47106 23.5774 3.47106C23.4188 3.41694 23.2537 3.35796 23.0819 3.29408C22.6685 3.29075 22.2674 3.24356 21.8787 3.1525C21.4311 3.11714 20.9828 3.10534 20.534 3.1171C20.4867 3.1171 20.4396 3.1171 20.3924 3.1171C20.1409 3.0641 19.8814 3.00511 19.6138 2.94013C18.7412 2.90474 17.8683 2.89295 16.9951 2.90473C15.2491 2.89294 13.5032 2.90473 11.7576 2.94013C11.4099 2.95584 11.0796 3.01484 10.7667 3.1171C10.1274 3.13511 9.49036 3.1823 8.8557 3.25869C8.33697 3.23244 7.84153 3.30323 7.36938 3.47106C6.94471 3.51825 6.52005 3.56544 6.09539 3.61264C5.5773 3.67125 5.05829 3.73024 4.53829 3.78961C4.49894 3.8167 4.47537 3.85209 4.46751 3.8958C4.20648 3.9157 3.94694 3.95109 3.68896 4.00199C3.64961 4.02907 3.62604 4.06447 3.61818 4.10817C3.39658 4.06625 3.23146 4.13704 3.12274 4.32054C3.09917 4.32054 3.07553 4.32054 3.05196 4.32054C2.87743 4.37703 2.73587 4.4714 2.6273 4.6037C2.40166 4.64108 2.23654 4.75909 2.13186 4.95766C1.69729 5.20337 1.39054 5.55732 1.21176 6.01951C1.14098 6.01951 1.0702 6.01951 0.999424 6.01951C0.938202 6.33496 0.843785 6.64176 0.716315 6.93979C0.716315 7.03415 0.716315 7.12859 0.716315 7.22295C0.529321 7.41352 0.458544 7.64946 0.503983 7.93086C0.503983 8.07244 0.503983 8.21402 0.503983 8.3556C0.389536 8.64159 0.330579 8.94833 0.32704 9.27587C0.268649 9.99617 0.280468 10.7041 0.362428 11.3996C0.362428 11.4468 0.362428 11.494 0.362428 11.5412C0.374177 11.8488 0.362358 12.1556 0.32704 12.4614C0.313026 12.3282 0.277637 12.2103 0.220874 12.1075C0.220874 12.0603 0.220874 12.0131 0.220874 11.9659C0.197305 11.6355 0.173665 11.3052 0.150097 10.9748C0.127306 9.79109 0.174515 8.61129 0.291651 7.43532C0.291651 7.41175 0.291651 7.3881 0.291651 7.36453C0.399728 7.10169 0.470505 6.81852 0.503983 6.51505C0.58658 6.39704 0.669106 6.2791 0.751703 6.16109C0.773078 5.90929 0.843855 5.67335 0.964035 5.45319C1.24424 5.04317 1.56274 4.66558 1.91953 4.32054C1.9913 4.23743 2.08564 4.19029 2.20264 4.17896C2.48858 4.0134 2.77169 3.84823 3.05196 3.68343C3.07553 3.68343 3.09917 3.68343 3.12274 3.68343C3.46304 3.59967 3.79329 3.50528 4.11362 3.40027C4.31088 3.33113 4.52321 3.30753 4.75062 3.32948C4.9437 3.35279 5.10889 3.30561 5.24606 3.1879C5.67936 3.23731 6.08038 3.16652 6.44927 2.97552C6.56726 2.97552 6.68517 2.97552 6.80316 2.97552C7.15096 2.98531 7.48128 2.93811 7.79404 2.83394C7.9828 2.83394 8.1715 2.83394 8.36026 2.83394C9.25361 2.73861 10.1501 2.67962 11.0498 2.65697C11.1601 2.6421 11.2544 2.60671 11.3329 2.55078Z"
        fill="#F3F3F3" />
    <path fill-rule="evenodd" clip-rule="evenodd"
        d="M18.5522 2.55132C18.5522 2.52772 18.5522 2.50412 18.5522 2.48052C19.4206 2.45263 20.2699 2.52342 21.1002 2.69291C20.2492 2.67385 19.3999 2.62666 18.5522 2.55132Z"
        fill="#A7A7A7" />
    <path fill-rule="evenodd" clip-rule="evenodd"
        d="M9.35144 2.62207C9.02325 2.70437 8.69293 2.77517 8.36056 2.83446C8.17179 2.83446 7.9831 2.83446 7.79434 2.83446C7.69999 2.83446 7.60558 2.83446 7.51123 2.83446C7.51123 2.81086 7.51123 2.78726 7.51123 2.76366C7.84487 2.77406 8.17519 2.75047 8.50211 2.69287C8.78281 2.64599 9.06592 2.62239 9.35144 2.62207Z"
        fill="#737373" />
    <path fill-rule="evenodd" clip-rule="evenodd"
        d="M11.333 2.55078C11.2545 2.60671 11.1602 2.64211 11.0499 2.65698C10.1502 2.67963 9.2537 2.73863 8.36035 2.83397C8.69272 2.77468 9.02304 2.70388 9.35123 2.62158C9.56357 2.62158 9.7759 2.62158 9.98823 2.62158C10.4362 2.59329 10.8844 2.56969 11.333 2.55078Z"
        fill="#BDBDBD" />
    <path fill-rule="evenodd" clip-rule="evenodd"
        d="M21.1709 2.69238C21.907 2.7203 22.6384 2.7911 23.365 2.90477C23.365 2.92837 23.365 2.95197 23.365 2.97557C22.6215 2.90972 21.8901 2.81532 21.1709 2.69238Z"
        fill="#969696" />
    <path fill-rule="evenodd" clip-rule="evenodd"
        d="M7.51104 2.76333C7.51104 2.78692 7.51104 2.81053 7.51104 2.83412C7.32228 2.85772 7.13359 2.88132 6.94482 2.90492C7.1103 2.79593 7.29906 2.74873 7.51104 2.76333Z"
        fill="#434343" />
    <path fill-rule="evenodd" clip-rule="evenodd"
        d="M7.511 2.83398C7.60534 2.83398 7.69976 2.83398 7.7941 2.83398C7.48134 2.93816 7.15102 2.98536 6.80322 2.97558C6.80322 2.95198 6.80322 2.92838 6.80322 2.90478C6.85043 2.90478 6.89757 2.90478 6.94478 2.90478C7.13354 2.88118 7.32223 2.85758 7.511 2.83398Z"
        fill="#959595" />
    <path fill-rule="evenodd" clip-rule="evenodd"
        d="M16.995 2.90481C16.995 2.92841 16.995 2.95201 16.995 2.97561C15.2962 2.96382 13.5976 2.97561 11.899 3.01101C11.7658 3.02503 11.6479 3.06043 11.5452 3.1172C11.4744 3.1172 11.4036 3.1172 11.3328 3.1172C11.1441 3.1172 10.9554 3.1172 10.7666 3.1172C11.0795 3.01493 11.4098 2.95593 11.7575 2.94021C13.5031 2.90481 15.249 2.89302 16.995 2.90481Z"
        fill="#B7B7B7" />
    <path fill-rule="evenodd" clip-rule="evenodd"
        d="M16.9951 2.97561C16.9951 2.95201 16.9951 2.92841 16.9951 2.90481C17.8684 2.89302 18.7413 2.90482 19.6139 2.94021C19.8814 3.0052 20.1409 3.06419 20.3924 3.1172C20.0129 3.11915 19.6355 3.09555 19.26 3.0464C18.5177 2.976 17.7628 2.9524 16.9951 2.97561Z"
        fill="#D1D1D1" />
    <path fill-rule="evenodd" clip-rule="evenodd"
        d="M16.9953 2.97543C17.7629 2.95222 18.5179 2.97582 19.2601 3.04622C19.0242 3.04622 18.7883 3.04622 18.5524 3.04622C18.2928 3.04622 18.0333 3.04622 17.7738 3.04622C16.3347 3.04622 14.8955 3.04622 13.4564 3.04622C12.8183 3.04629 12.1813 3.06988 11.5454 3.11702C11.6482 3.06025 11.7661 3.02485 11.8993 3.01082C13.5978 2.97543 15.2965 2.96363 16.9953 2.97543Z"
        fill="#707070" />
    <path fill-rule="evenodd" clip-rule="evenodd"
        d="M23.3652 2.97586C23.3652 2.95227 23.3652 2.92866 23.3652 2.90507C23.6989 2.88194 24.0291 2.90554 24.3561 2.97586C24.4087 3.02413 24.4558 3.07133 24.4977 3.11746C24.3061 3.11214 24.1174 3.08854 23.9315 3.04666C23.7477 2.99248 23.559 2.96888 23.3652 2.97586Z"
        fill="#6A6A6A" />
    <path fill-rule="evenodd" clip-rule="evenodd"
        d="M6.80333 2.90476C6.80333 2.92836 6.80333 2.95196 6.80333 2.97556C6.68535 2.97556 6.56743 2.97556 6.44945 2.97556C6.18778 3.01151 5.92824 3.05871 5.6709 3.11715C5.76588 3.02561 5.88387 2.96661 6.02478 2.94016C6.28326 2.90486 6.54273 2.89306 6.80333 2.90476Z"
        fill="#4C4C4C" />
    <path fill-rule="evenodd" clip-rule="evenodd"
        d="M13.4564 3.04688C14.8955 3.04688 16.3347 3.04688 17.7738 3.04688C17.798 3.10622 17.8451 3.12982 17.9153 3.11767C16.4885 3.18827 15.0493 3.21187 13.5979 3.18847C13.3608 3.20015 13.1249 3.18835 12.8901 3.15307C13.0929 3.14012 13.2816 3.10472 13.4564 3.04688Z"
        fill="#0B0B0B" />
    <path fill-rule="evenodd" clip-rule="evenodd"
        d="M18.5522 3.04688C18.7881 3.04688 19.0241 3.04688 19.26 3.04688C19.6355 3.09602 20.0129 3.11963 20.3925 3.11767C20.4397 3.11767 20.4868 3.11767 20.534 3.11767C20.534 3.14127 20.534 3.16487 20.534 3.18847C19.8596 3.18748 19.1989 3.14028 18.5522 3.04688Z"
        fill="#676767" />
    <path fill-rule="evenodd" clip-rule="evenodd"
        d="M6.44921 2.97559C6.08032 3.16659 5.6793 3.23739 5.246 3.18798C5.15165 3.18798 5.05724 3.18798 4.96289 3.18798C5.18407 3.11864 5.41997 3.09503 5.67066 3.11718C5.92801 3.05874 6.18755 3.01154 6.44921 2.97559Z"
        fill="#A0A0A0" />
    <path fill-rule="evenodd" clip-rule="evenodd"
        d="M13.4564 3.04688C13.2817 3.10472 13.093 3.14012 12.8902 3.15307C13.125 3.18835 13.3609 3.20015 13.598 3.18847C15.0964 3.23567 16.6063 3.28286 18.1277 3.33006C16.241 3.40084 14.3535 3.42444 12.4656 3.40086C12.4656 3.33006 12.4656 3.25926 12.4656 3.18847C11.2123 3.2436 9.96195 3.31439 8.71436 3.40086C8.71436 3.37726 8.71436 3.35366 8.71436 3.33006C8.76156 3.33006 8.8087 3.33006 8.85591 3.33006C9.6908 3.25165 10.5166 3.18086 11.3331 3.11767C11.4039 3.11767 11.4747 3.11767 11.5454 3.11767C12.1814 3.07054 12.8184 3.04694 13.4564 3.04688Z"
        fill="#242424" />
    <path fill-rule="evenodd" clip-rule="evenodd"
        d="M20.5342 3.18848C20.5342 3.16489 20.5342 3.14128 20.5342 3.11769C20.983 3.10592 21.4313 3.11772 21.8789 3.15309C22.2677 3.24415 22.6688 3.29135 23.0822 3.29468C23.2539 3.35856 23.4191 3.41755 23.5776 3.47167C23.2692 3.46555 22.9625 3.44195 22.6575 3.40087C22.5632 3.40087 22.4687 3.40087 22.3744 3.40087C22.1771 3.33173 21.9648 3.30813 21.7374 3.33008C21.4767 3.20619 21.1936 3.15899 20.8881 3.18848C20.7701 3.18848 20.6522 3.18848 20.5342 3.18848Z"
        fill="#BDBDBD" />
    <path fill-rule="evenodd" clip-rule="evenodd"
        d="M23.9312 3.04688C24.1171 3.08876 24.3058 3.11235 24.4974 3.11767C24.6625 3.11767 24.8277 3.11767 24.9928 3.11767C24.9928 3.14127 24.9928 3.16487 24.9928 3.18847C24.6852 3.2002 24.3785 3.1884 24.0727 3.15307C24.0079 3.13336 23.9607 3.09796 23.9312 3.04688Z"
        fill="#C1C1C1" />
    <path fill-rule="evenodd" clip-rule="evenodd"
        d="M10.7669 3.11719C10.9557 3.11719 11.1444 3.11719 11.3332 3.11719C10.5166 3.18037 9.69085 3.25117 8.85596 3.32958C8.85596 3.30598 8.85596 3.28238 8.85596 3.25878C9.49062 3.18238 10.1276 3.13519 10.7669 3.11719Z"
        fill="#7D7D7D" />
    <path fill-rule="evenodd" clip-rule="evenodd"
        d="M20.8882 3.18819C21.1937 3.1587 21.4768 3.2059 21.7375 3.32979C21.4357 3.34082 21.1526 3.29362 20.8882 3.18819Z"
        fill="#787878" />
    <path fill-rule="evenodd" clip-rule="evenodd"
        d="M24.9932 3.18798C24.9932 3.16439 24.9932 3.14078 24.9932 3.11719C25.4044 3.17176 25.8055 3.24255 26.1964 3.32958C25.7852 3.34278 25.3842 3.29559 24.9932 3.18798Z"
        fill="#707070" />
    <path fill-rule="evenodd" clip-rule="evenodd"
        d="M4.96303 3.18848C4.89225 3.23568 4.82147 3.28287 4.75069 3.33007C4.52329 3.30812 4.31096 3.33172 4.1137 3.40087C4.04292 3.40087 3.97214 3.40087 3.90137 3.40087C3.90922 3.35716 3.93279 3.32176 3.97214 3.29467C4.30367 3.26387 4.63398 3.22848 4.96303 3.18848Z"
        fill="#656565" />
    <path fill-rule="evenodd" clip-rule="evenodd"
        d="M4.96331 3.18848C5.05765 3.18848 5.15207 3.18848 5.24642 3.18848C5.10925 3.3062 4.94406 3.35339 4.75098 3.33007C4.82175 3.28287 4.89253 3.23568 4.96331 3.18848Z"
        fill="#AEAEAE" />
    <path fill-rule="evenodd" clip-rule="evenodd"
        d="M8.85595 3.25923C8.85595 3.28283 8.85595 3.30643 8.85595 3.33003C8.80874 3.33003 8.76161 3.33003 8.7144 3.33003C8.26546 3.37142 7.81722 3.41861 7.36963 3.47162C7.84178 3.30378 8.33722 3.23298 8.85595 3.25923Z"
        fill="#B3B3B3" />
    <path fill-rule="evenodd" clip-rule="evenodd"
        d="M17.7739 3.04688C18.0335 3.04688 18.2929 3.04688 18.5525 3.04688C19.1992 3.14028 19.8598 3.18748 20.5342 3.18847C20.6522 3.18847 20.7701 3.18847 20.8881 3.18847C21.1525 3.29389 21.4357 3.34109 21.7375 3.33006C21.9649 3.30811 22.1772 3.33171 22.3744 3.40086C21.7561 3.38247 21.1427 3.42966 20.5342 3.54245C20.3927 3.53065 20.2511 3.51885 20.1096 3.50705C20.3058 3.46983 20.4945 3.41083 20.6758 3.33006C19.7545 3.26995 18.8344 3.19915 17.9155 3.11767C17.8453 3.12982 17.7981 3.10622 17.7739 3.04688Z"
        fill="#282828" />
    <path fill-rule="evenodd" clip-rule="evenodd"
        d="M26.1963 3.40068C26.1963 3.37709 26.1963 3.35348 26.1963 3.32989C26.4124 3.30233 26.6011 3.34952 26.7625 3.47148C26.571 3.46616 26.3822 3.44257 26.1963 3.40068Z"
        fill="#757575" />
    <path fill-rule="evenodd" clip-rule="evenodd"
        d="M3.9016 3.40039C3.97237 3.40039 4.04315 3.40039 4.11393 3.40039C3.79359 3.50542 3.46334 3.59981 3.12305 3.68358C3.12305 3.65998 3.12305 3.63638 3.12305 3.61278C3.3719 3.50922 3.63144 3.43842 3.9016 3.40039Z"
        fill="#A5A5A5" />
    <path fill-rule="evenodd" clip-rule="evenodd"
        d="M22.6572 3.40039C22.9623 3.44147 23.269 3.46506 23.5773 3.47119C23.6009 3.47119 23.6245 3.47119 23.6481 3.47119C23.6481 3.49478 23.6481 3.51839 23.6481 3.54198C23.2975 3.56869 22.9673 3.52149 22.6572 3.40039Z"
        fill="#595959" />
    <path fill-rule="evenodd" clip-rule="evenodd"
        d="M26.1963 3.40039C26.3822 3.44227 26.571 3.46587 26.7625 3.47119C27.0545 3.47628 27.3376 3.52348 27.6118 3.61278C27.6118 3.63638 27.6118 3.65998 27.6118 3.68358C27.1749 3.59715 26.7266 3.53815 26.2671 3.50659C26.2277 3.4795 26.2041 3.4441 26.1963 3.40039Z"
        fill="#B0B0B0" />
    <path fill-rule="evenodd" clip-rule="evenodd"
        d="M3.12295 3.61264C3.12295 3.63623 3.12295 3.65984 3.12295 3.68343C3.09938 3.68343 3.07574 3.68343 3.05218 3.68343C2.97368 3.68746 2.90291 3.71106 2.83984 3.75423C2.88818 3.63554 2.9826 3.58834 3.12295 3.61264Z"
        fill="#676767" />
    <path fill-rule="evenodd" clip-rule="evenodd"
        d="M8.71446 3.33008C8.71446 3.35367 8.71446 3.37728 8.71446 3.40087C7.84348 3.50965 6.97058 3.60405 6.0957 3.68406C6.0957 3.66046 6.0957 3.63686 6.0957 3.61326C6.52037 3.56606 6.94503 3.51887 7.36969 3.47167C7.81729 3.41866 8.26552 3.37147 8.71446 3.33008Z"
        fill="#656565" />
    <path fill-rule="evenodd" clip-rule="evenodd"
        d="M23.6484 3.54196C23.6484 3.51836 23.6484 3.49476 23.6484 3.47116C24.0182 3.44893 24.3721 3.49613 24.7101 3.61275C24.7101 3.63635 24.7101 3.65995 24.7101 3.68355C24.3467 3.69825 23.9928 3.65105 23.6484 3.54196Z"
        fill="#7F7F7F" />
    <path fill-rule="evenodd" clip-rule="evenodd"
        d="M24.71 3.68359C24.71 3.66 24.71 3.63639 24.71 3.6128C25.0882 3.60105 25.4656 3.61284 25.8424 3.6482C26.3175 3.82343 26.8129 3.91782 27.3287 3.93138C27.4176 3.9609 27.4648 4.01989 27.4703 4.10837C27.054 3.99647 26.6294 3.92568 26.1963 3.89598C26.023 3.82709 25.8343 3.80349 25.6301 3.82519C25.5042 3.69467 25.339 3.64747 25.1346 3.68359C25.0638 3.68359 24.9931 3.68359 24.9223 3.68359C24.8515 3.68359 24.7807 3.68359 24.71 3.68359Z"
        fill="#CDCDCD" />
    <path fill-rule="evenodd" clip-rule="evenodd"
        d="M27.6118 3.68345C27.6118 3.65986 27.6118 3.63625 27.6118 3.61266C27.8347 3.60665 28.0235 3.67745 28.178 3.82505C27.9779 3.81911 27.7892 3.77192 27.6118 3.68345Z"
        fill="#5D5D5D" />
    <path fill-rule="evenodd" clip-rule="evenodd"
        d="M6.09565 3.61328C6.09565 3.63688 6.09565 3.66048 6.09565 3.68408C5.80362 3.68918 5.52051 3.73638 5.24632 3.82567C4.98339 3.82022 4.72392 3.84382 4.46777 3.89647C4.47563 3.85276 4.4992 3.81736 4.53855 3.79027C5.05855 3.7309 5.57756 3.6719 6.09565 3.61328Z"
        fill="#B1B1B1" />
    <path fill-rule="evenodd" clip-rule="evenodd"
        d="M3.05192 3.68359C2.77164 3.84841 2.48854 4.0136 2.2026 4.17917C2.19651 4.10866 2.22015 4.04967 2.27337 4.00218C2.45485 3.90334 2.64361 3.82075 2.83959 3.75439C2.90265 3.71122 2.97343 3.68762 3.05192 3.68359Z"
        fill="#A4A4A4" />
    <path fill-rule="evenodd" clip-rule="evenodd"
        d="M25.1348 3.68362C25.3392 3.6475 25.5043 3.6947 25.6302 3.82521C25.4425 3.83162 25.2774 3.78442 25.1348 3.68362Z"
        fill="#808080" />
    <path fill-rule="evenodd" clip-rule="evenodd"
        d="M24.9224 3.68359C24.9931 3.68359 25.0639 3.68359 25.1347 3.68359C25.2773 3.78439 25.4424 3.83159 25.6301 3.82519C25.8343 3.80349 26.0231 3.82709 26.1964 3.89598C25.8888 3.90771 25.5821 3.89591 25.2762 3.86058C25.1353 3.83414 25.0173 3.77513 24.9224 3.68359Z"
        fill="#464646" />
    <path fill-rule="evenodd" clip-rule="evenodd"
        d="M28.1782 3.8252C28.3229 3.89657 28.4644 3.96737 28.6029 4.03758C28.4038 4.07124 28.2622 4.00044 28.1782 3.8252Z"
        fill="#8C8C8C" />
    <path fill-rule="evenodd" clip-rule="evenodd"
        d="M4.46749 3.89648C4.39671 3.94368 4.32594 3.99088 4.25516 4.03808C4.18438 4.03808 4.1136 4.03808 4.04283 4.03808C3.89667 4.03929 3.75512 4.06289 3.61816 4.10887C3.62602 4.06516 3.64959 4.02977 3.68894 4.00268C3.94692 3.95178 4.20646 3.91639 4.46749 3.89648Z"
        fill="#989898" />
    <path fill-rule="evenodd" clip-rule="evenodd"
        d="M5.24625 3.82499C4.93186 3.93048 4.60154 4.00128 4.25537 4.03738C4.32615 3.99018 4.39693 3.94298 4.4677 3.89578C4.72385 3.84314 4.98332 3.81953 5.24625 3.82499Z"
        fill="#5C5C5C" />
    <path fill-rule="evenodd" clip-rule="evenodd"
        d="M26.1963 3.89648C26.6294 3.92618 27.054 3.99697 27.4703 4.10887C27.5175 4.10887 27.5646 4.10887 27.6118 4.10887C27.6826 4.15609 27.7534 4.20325 27.8242 4.25047C27.2797 4.12732 26.7371 4.00933 26.1963 3.89648Z"
        fill="#616161" />
    <path fill-rule="evenodd" clip-rule="evenodd"
        d="M4.04283 4.03711C3.92944 4.14854 3.78789 4.19576 3.61816 4.1787C3.61816 4.15513 3.61816 4.1315 3.61816 4.10791C3.75512 4.06192 3.89667 4.03833 4.04283 4.03711Z"
        fill="#4D4D4D" />
    <path fill-rule="evenodd" clip-rule="evenodd"
        d="M3.61849 4.10838C3.61849 4.13197 3.61849 4.1556 3.61849 4.17917C3.4339 4.17209 3.26871 4.21931 3.12305 4.32076C3.23176 4.13725 3.39688 4.06645 3.61849 4.10838Z"
        fill="#AAAAAA" />
    <path fill-rule="evenodd" clip-rule="evenodd"
        d="M27.6118 4.1088C27.8705 4.06809 28.0828 4.13889 28.2488 4.32119C28.1027 4.31999 27.9611 4.29641 27.8241 4.2504C27.7534 4.20317 27.6826 4.15602 27.6118 4.1088Z"
        fill="#BBBBBB" />
    <path fill-rule="evenodd" clip-rule="evenodd"
        d="M28.8857 4.25038C28.9938 4.24521 29.0646 4.29244 29.0981 4.39198C28.99 4.39714 28.9192 4.34992 28.8857 4.25038Z"
        fill="#787878" />
    <path fill-rule="evenodd" clip-rule="evenodd"
        d="M27.8242 4.25C27.9612 4.29602 28.1027 4.31959 28.2489 4.3208C28.2725 4.3208 28.2961 4.3208 28.3197 4.3208C28.3197 4.34437 28.3197 4.36802 28.3197 4.39159C28.1762 4.40306 28.0346 4.39124 27.895 4.35619C27.8556 4.32908 27.8321 4.29368 27.8242 4.25Z"
        fill="#4F4F4F" />
    <path fill-rule="evenodd" clip-rule="evenodd"
        d="M28.3198 4.39136C28.3198 4.36778 28.3198 4.34414 28.3198 4.32056C28.4529 4.30138 28.5472 4.3486 28.6029 4.46216C28.5086 4.43858 28.4142 4.41494 28.3198 4.39136Z"
        fill="#A7A7A7" />
    <path fill-rule="evenodd" clip-rule="evenodd"
        d="M3.05211 4.32031C2.95634 4.47875 2.81479 4.57313 2.62744 4.6035C2.73601 4.47118 2.87757 4.37681 3.05211 4.32031Z"
        fill="#828282" />
    <path fill-rule="evenodd" clip-rule="evenodd"
        d="M28.3198 4.3916C28.4142 4.41518 28.5086 4.43882 28.6029 4.4624C28.6501 4.50962 28.6973 4.55677 28.7445 4.60399C28.5523 4.61206 28.4107 4.54127 28.3198 4.3916Z"
        fill="#484848" />
    <path fill-rule="evenodd" clip-rule="evenodd"
        d="M29.0981 4.3916C29.2459 4.46842 29.3402 4.58636 29.3813 4.74558C29.2335 4.66877 29.1392 4.55082 29.0981 4.3916Z"
        fill="#8B8B8B" />
    <path fill-rule="evenodd" clip-rule="evenodd"
        d="M28.6025 4.46279C28.7787 4.44445 28.8967 4.51525 28.9564 4.67518C28.8779 4.67114 28.8072 4.64757 28.7441 4.60438C28.6969 4.55716 28.6497 4.51001 28.6025 4.46279Z"
        fill="#9E9E9E" />
    <path fill-rule="evenodd" clip-rule="evenodd"
        d="M1.91987 4.32031C1.56308 4.66535 1.24458 5.04294 0.964376 5.45296C0.844196 5.67312 0.773419 5.90906 0.752044 6.16086C0.669447 6.27887 0.586921 6.39681 0.504324 6.51482C0.470846 6.8183 0.400069 7.10146 0.291992 7.3643C0.293195 7.21812 0.316764 7.07654 0.362769 6.93956C0.476225 6.18154 0.771154 5.4972 1.24749 4.88664C1.44326 4.65466 1.66741 4.46593 1.91987 4.32031Z"
        fill="#929292" />
    <path fill-rule="evenodd" clip-rule="evenodd"
        d="M2.62728 4.60352C2.48353 4.74667 2.31833 4.86468 2.13184 4.9575C2.23652 4.75891 2.40164 4.6409 2.62728 4.60352Z"
        fill="#929292" />
    <path fill-rule="evenodd" clip-rule="evenodd"
        d="M29.4521 4.81641C29.5796 4.91517 29.6032 5.03311 29.5229 5.17039C29.427 5.12168 29.3562 5.05088 29.3105 4.958C29.4049 4.958 29.4521 4.91078 29.4521 4.81641Z"
        fill="#727272" />
    <path fill-rule="evenodd" clip-rule="evenodd"
        d="M2.132 4.95801C1.94592 5.17965 1.74541 5.39202 1.53039 5.59512C1.41028 5.81967 1.28054 6.03204 1.14111 6.23224C1.14515 6.15373 1.16872 6.08294 1.21189 6.01986C1.39067 5.55767 1.69742 5.20372 2.132 4.95801Z"
        fill="#676767" />
    <path fill-rule="evenodd" clip-rule="evenodd"
        d="M16.8538 5.59504C16.4327 5.59673 16.0198 5.54958 15.6152 5.45344C15.3429 5.47164 15.0715 5.49528 14.8013 5.52424C15.0514 5.41465 15.3227 5.3675 15.6152 5.38265C16.0448 5.40636 16.4577 5.47716 16.8538 5.59504Z"
        fill="#B8B8B8" />
    <path fill-rule="evenodd" clip-rule="evenodd"
        d="M17.7739 5.87836C17.4676 5.79567 17.1609 5.70129 16.8538 5.59517C16.4577 5.47729 16.0448 5.4065 15.6152 5.38278C15.3226 5.36763 15.0513 5.41478 14.8012 5.52437C14.7777 5.52437 14.754 5.52437 14.7304 5.52437C14.7069 5.52437 14.6832 5.52437 14.6597 5.52437C14.7196 5.42059 14.814 5.36154 14.9428 5.34738C15.9581 5.21266 16.9018 5.38965 17.7739 5.87836Z"
        fill="#606060" />
    <path fill-rule="evenodd" clip-rule="evenodd"
        d="M16.8537 5.59471C16.8591 5.68319 16.9063 5.74216 16.9952 5.77168C17.3302 5.87872 17.6605 5.9849 17.9861 6.09024C18.0436 6.19593 18.1379 6.24315 18.2692 6.23182C18.4421 6.24697 18.56 6.17618 18.6231 6.01945C18.7376 5.98136 18.8555 5.95779 18.977 5.94866C19.0185 6.38289 19.0656 6.80763 19.1186 7.22289C19.1141 7.55581 19.1377 7.88619 19.1893 8.21395C19.2125 8.59445 19.189 8.97198 19.1186 9.3466C19.0771 9.36139 19.0417 9.38504 19.0124 9.41739C18.9389 9.33173 18.8563 9.26094 18.7647 9.20502C18.7456 8.93191 18.6512 8.69596 18.4816 8.49711C18.5007 8.36403 18.4535 8.26966 18.34 8.21395C18.336 8.13545 18.3124 8.06466 18.2692 8.00158C18.2546 7.6632 18.0895 7.45083 17.7738 7.36447C17.585 7.03409 17.3256 6.77457 16.9952 6.58577C16.8038 6.48999 16.615 6.39563 16.429 6.30261C16.2779 6.1703 16.0891 6.12309 15.8628 6.16103C15.4611 6.14928 15.06 6.1611 14.6596 6.19642C14.6202 6.22354 14.5967 6.25893 14.5888 6.30261C14.3942 6.42048 14.2054 6.53848 14.0226 6.65656C13.881 6.65656 13.8103 6.72735 13.8103 6.86893C13.6687 6.86893 13.5979 6.93972 13.5979 7.08131C13.4354 7.16859 13.341 7.31017 13.3148 7.50605C13.2317 7.57783 13.1846 7.67219 13.1733 7.78921C12.9617 8.34293 12.9146 8.90926 13.0317 9.48818C13.0147 9.65794 13.0619 9.79952 13.1733 9.91292C13.1611 9.98315 13.1847 10.0303 13.244 10.0545C13.2198 10.1949 13.267 10.2893 13.3856 10.3377C13.4328 10.5265 13.5507 10.6444 13.7395 10.6916C13.7954 10.7554 13.8662 10.8026 13.9518 10.8332C14.064 11.0554 14.2528 11.1734 14.518 11.1872C14.7002 11.295 14.889 11.3895 15.0843 11.4703C15.1078 11.4703 15.1315 11.4703 15.155 11.4703C15.3146 11.6034 15.5034 11.6742 15.7212 11.6827C15.8346 11.7941 15.9762 11.8413 16.1459 11.8243C16.1695 11.8243 16.1931 11.8243 16.2167 11.8243C16.2502 11.9238 16.3209 11.971 16.429 11.9658C16.5234 11.9658 16.6178 11.9658 16.7121 11.9658C16.7961 12.1411 16.9377 12.2118 17.1368 12.1782C17.1851 12.2969 17.2795 12.3441 17.4199 12.3198C17.4587 12.4636 17.553 12.5344 17.703 12.5322C17.821 12.5794 17.9389 12.6265 18.0569 12.6738C18.0904 12.7733 18.1612 12.8205 18.2692 12.8153C18.5504 13.0494 18.81 13.309 19.0478 13.594C19.192 13.8082 19.3336 14.0206 19.4724 14.2311C19.586 14.2869 19.6332 14.3812 19.614 14.5143C19.6958 14.6788 19.7666 14.844 19.8263 15.0098C19.9196 15.525 19.9904 16.0442 20.0387 16.5672C19.9913 17.0395 19.9442 17.5114 19.8971 17.983C19.8263 17.983 19.7555 17.983 19.6848 17.983C19.696 18.2239 19.6723 18.4599 19.614 18.6909C19.5309 18.7627 19.4838 18.8571 19.4724 18.9741C19.2852 19.2987 19.0611 19.6055 18.8001 19.8944C18.4806 20.1412 18.1621 20.3772 17.8446 20.6023C17.6876 20.6104 17.546 20.6575 17.4199 20.7439C16.531 20.8746 15.6345 20.9218 14.7304 20.8854C14.5842 20.8842 14.4427 20.8607 14.3057 20.8147C14.1012 20.6566 13.8653 20.5622 13.5979 20.5315C13.4989 20.4331 13.3809 20.3623 13.244 20.3191C13.2106 20.2196 13.1398 20.1724 13.0317 20.1775C12.9549 20.0298 12.837 19.9354 12.6778 19.8944C12.5157 19.7642 12.3506 19.7406 12.1824 19.8236C12.0408 19.8236 11.9701 19.8944 11.9701 20.036C11.8645 20.2194 11.6993 20.2902 11.4746 20.2483C11.4746 19.9416 11.4746 19.6348 11.4746 19.3281C11.5399 19.0758 11.5635 18.8162 11.5454 18.5494C11.5953 18.1318 11.6425 17.707 11.6869 17.2751C11.7911 16.9623 11.8383 16.6319 11.8285 16.2841C11.9743 16.1913 12.1276 16.1913 12.2885 16.2841C12.3121 16.5672 12.3358 16.8504 12.3593 17.1335C12.3619 17.3087 12.4209 17.4503 12.5363 17.5583C12.5598 17.6527 12.5835 17.7471 12.607 17.8415C12.5734 18.0406 12.6442 18.1822 12.8194 18.2662C12.8362 18.401 12.907 18.4954 13.0317 18.5494C13.0317 18.5966 13.0317 18.6437 13.0317 18.6909C13.0265 18.799 13.0738 18.8698 13.1733 18.9033C13.2912 19.1629 13.4799 19.3516 13.7395 19.4696C13.8103 19.4932 13.8575 19.5404 13.881 19.6112C14.1181 19.7693 14.3775 19.8873 14.6596 19.9652C14.813 20.1075 15.0017 20.1901 15.2258 20.2129C15.6295 20.2616 16.0305 20.2498 16.429 20.1775C16.7145 20.1763 16.9741 20.1055 17.2076 19.9652C17.3256 19.8708 17.4435 19.7764 17.5615 19.682C17.6962 19.6652 17.7906 19.5944 17.8446 19.4696C18.0387 19.3465 18.1803 19.1813 18.2692 18.9741C18.2928 18.8797 18.3164 18.7853 18.34 18.6909C18.3636 18.6909 18.3872 18.6909 18.4108 18.6909C18.5023 18.5959 18.5613 18.4779 18.5877 18.337C18.6349 17.7707 18.6349 17.2043 18.5877 16.638C18.5376 16.5756 18.4786 16.5285 18.4108 16.4964C18.3422 16.075 18.1534 15.7211 17.8446 15.4346C17.7502 15.3166 17.6558 15.1986 17.5615 15.0806C17.5075 14.9559 17.4131 14.8851 17.2783 14.8683C17.2244 14.7435 17.13 14.6727 16.9952 14.6559C16.9469 14.5372 16.8525 14.49 16.7121 14.5143C16.6281 14.3391 16.4866 14.2683 16.2875 14.3019C16.2633 14.2426 16.2161 14.219 16.1459 14.2311C16.0075 14.1609 15.8659 14.0901 15.7212 14.0188C15.4963 13.876 15.2604 13.7462 15.0135 13.6294C14.8978 13.5945 14.7798 13.5827 14.6596 13.594C14.6124 13.594 14.5652 13.594 14.518 13.594C14.518 13.5705 14.518 13.5468 14.518 13.5232C14.2649 13.389 14.0053 13.2593 13.7395 13.1339C13.648 13.0992 13.5536 13.0874 13.4564 13.0985C13.3358 12.8768 13.1471 12.7588 12.8902 12.7445C12.7985 12.6746 12.7042 12.6038 12.607 12.5322C12.4891 12.367 12.3475 12.2254 12.1824 12.1074C12.1875 11.9993 12.1403 11.9285 12.0408 11.8951C12.0408 11.8478 12.0408 11.8007 12.0408 11.7535C11.9892 11.5405 11.8947 11.3517 11.7577 11.1872C11.7486 11.0657 11.725 10.9477 11.6869 10.8332C11.6668 10.1216 11.6905 9.41371 11.7577 8.70949C11.8525 8.40162 11.9468 8.09488 12.0408 7.78921C12.1001 7.765 12.1238 7.71785 12.1116 7.64763C12.2111 7.61414 12.2583 7.54335 12.2532 7.43526C12.5397 7.16951 12.7756 6.86278 12.9609 6.51498C13.0553 6.46776 13.1261 6.39697 13.1733 6.30261C13.3579 6.23585 13.4995 6.11785 13.5979 5.94866C13.661 5.90548 13.7318 5.8819 13.8103 5.87787C14.1368 5.79695 14.4435 5.67895 14.7304 5.52392C14.7539 5.52392 14.7776 5.52392 14.8011 5.52392C15.0714 5.49496 15.3427 5.47132 15.6151 5.45312C16.0197 5.54926 16.4326 5.5964 16.8537 5.59471Z"
        fill="#F6F6F6" />
    <path fill-rule="evenodd" clip-rule="evenodd"
        d="M14.6594 5.52441C14.683 5.52441 14.7066 5.52441 14.7302 5.52441C14.4433 5.67946 14.1366 5.79748 13.8101 5.8784C13.8421 5.81057 13.8893 5.75153 13.9516 5.70141C14.1725 5.58756 14.4084 5.52859 14.6594 5.52441Z"
        fill="#A0A0A0" />
    <path fill-rule="evenodd" clip-rule="evenodd"
        d="M16.8535 5.59473C17.1607 5.70085 17.4674 5.79522 17.7736 5.87791C17.8307 5.96485 17.9014 6.03565 17.986 6.0903C17.6603 5.98496 17.33 5.87876 16.9951 5.77172C16.9062 5.7422 16.859 5.68322 16.8535 5.59473Z"
        fill="#CDCDCD" />
    <path fill-rule="evenodd" clip-rule="evenodd"
        d="M18.9769 5.94928C18.8555 5.95841 18.7375 5.98199 18.623 6.02007C18.7206 5.87161 18.8386 5.84804 18.9769 5.94928Z"
        fill="#8E8E8E" />
    <path fill-rule="evenodd" clip-rule="evenodd"
        d="M13.598 5.94922C13.4996 6.11842 13.358 6.23644 13.1733 6.3032C13.27 6.13612 13.4115 6.0181 13.598 5.94922Z"
        fill="#797979" />
    <path fill-rule="evenodd" clip-rule="evenodd"
        d="M15.8629 6.16162C15.8629 6.1852 15.8629 6.20884 15.8629 6.23242C15.5797 6.23242 15.2966 6.23242 15.0135 6.23242C14.8674 6.23362 14.7258 6.2572 14.5889 6.30321C14.5967 6.25953 14.6203 6.22413 14.6596 6.19702C15.06 6.16169 15.4611 6.14987 15.8629 6.16162Z"
        fill="#808080" />
    <path fill-rule="evenodd" clip-rule="evenodd"
        d="M15.8628 6.23192C15.8628 6.20834 15.8628 6.18469 15.8628 6.16112C16.0891 6.12317 16.2779 6.17039 16.429 6.30271C16.2453 6.24855 16.0565 6.22491 15.8628 6.23192Z"
        fill="#B3B3B3" />
    <path fill-rule="evenodd" clip-rule="evenodd"
        d="M18.6233 6.01953C18.5602 6.17627 18.4423 6.24707 18.2694 6.23192C18.1381 6.24325 18.0438 6.19603 17.9863 6.09033C18.0795 6.11305 18.174 6.13663 18.2694 6.16112C18.3881 6.11249 18.5061 6.06527 18.6233 6.01953Z"
        fill="#939393" />
    <path fill-rule="evenodd" clip-rule="evenodd"
        d="M15.0133 6.23242C14.6943 6.39511 14.3641 6.53671 14.0225 6.6572C14.2053 6.53911 14.394 6.42109 14.5887 6.30322C14.7256 6.2572 14.8672 6.23363 15.0133 6.23242Z"
        fill="#565656" />
    <path fill-rule="evenodd" clip-rule="evenodd"
        d="M13.1733 6.30273C13.1261 6.39711 13.0553 6.4679 12.9609 6.51512C12.9609 6.37353 13.0317 6.30273 13.1733 6.30273Z"
        fill="#7E7E7E" />
    <path fill-rule="evenodd" clip-rule="evenodd"
        d="M1.21175 6.01953C1.16858 6.08261 1.14501 6.1534 1.14097 6.2319C1.00791 6.39154 0.937134 6.58033 0.92864 6.79823C0.857863 6.84544 0.787086 6.89259 0.716309 6.93981C0.843778 6.64178 0.938195 6.33497 0.999418 6.01953C1.07019 6.01953 1.14097 6.01953 1.21175 6.01953Z"
        fill="#BABABA" />
    <path fill-rule="evenodd" clip-rule="evenodd"
        d="M14.0224 6.65723C13.9752 6.7516 13.9044 6.82239 13.8101 6.86962C13.8101 6.72802 13.8809 6.65723 14.0224 6.65723Z"
        fill="#7C7C7C" />
    <path fill-rule="evenodd" clip-rule="evenodd"
        d="M16.9951 6.58594C17.3254 6.77475 17.5849 7.03429 17.7737 7.3647C17.4906 7.12873 17.231 6.86912 16.9951 6.58594Z"
        fill="#818181" />
    <path fill-rule="evenodd" clip-rule="evenodd"
        d="M18.9771 5.94922C19.0207 5.95708 19.0561 5.98065 19.0832 6.02001C19.1184 6.18354 19.1302 6.34869 19.1186 6.51554C19.1186 6.75149 19.1186 6.9875 19.1186 7.22345C19.0657 6.80819 19.0185 6.38345 18.9771 5.94922Z"
        fill="#A9A9A9" />
    <path fill-rule="evenodd" clip-rule="evenodd"
        d="M13.81 6.86914C13.7628 6.96351 13.692 7.03431 13.5977 7.08153C13.5977 6.93994 13.6685 6.86914 13.81 6.86914Z"
        fill="#898989" />
    <path fill-rule="evenodd" clip-rule="evenodd"
        d="M12.9607 6.51558C12.7754 6.86338 12.5394 7.17011 12.2529 7.43586C12.4121 7.14576 12.5891 6.8626 12.7838 6.58637C12.8313 6.53314 12.8902 6.5095 12.9607 6.51558Z"
        fill="#939393" />
    <path fill-rule="evenodd" clip-rule="evenodd"
        d="M13.5981 7.08203C13.5677 7.26943 13.4733 7.41102 13.3149 7.50681C13.3411 7.31092 13.4355 7.16932 13.5981 7.08203Z"
        fill="#7F7F7F" />
    <path fill-rule="evenodd" clip-rule="evenodd"
        d="M0.71644 7.22363C0.684936 7.47786 0.614139 7.71383 0.504051 7.9316C0.458599 7.65018 0.529396 7.41422 0.71644 7.22363Z"
        fill="#BEBEBE" />
    <path fill-rule="evenodd" clip-rule="evenodd"
        d="M17.7739 7.36426C18.0897 7.45063 18.2548 7.66302 18.2694 8.00143C18.2458 8.00143 18.2222 8.00143 18.1986 8.00143C18.057 7.78904 17.9155 7.57665 17.7739 7.36426Z"
        fill="#CCCCCC" />
    <path fill-rule="evenodd" clip-rule="evenodd"
        d="M12.2533 7.43555C12.2585 7.54365 12.2113 7.61445 12.1117 7.64794C12.1065 7.53983 12.1538 7.46903 12.2533 7.43555Z"
        fill="#7F7F7F" />
    <path fill-rule="evenodd" clip-rule="evenodd"
        d="M0.92857 6.79883C0.808532 7.26555 0.714186 7.73751 0.645461 8.21464C0.598252 8.26185 0.551115 8.309 0.503906 8.35622C0.503906 8.21464 0.503906 8.07306 0.503906 7.93148C0.613965 7.71372 0.684742 7.47778 0.716238 7.22357C0.716238 7.12921 0.716238 7.03477 0.716238 6.94041C0.787015 6.89319 0.857793 6.84605 0.92857 6.79883Z"
        fill="#616161" />
    <path fill-rule="evenodd" clip-rule="evenodd"
        d="M13.3149 7.50586C13.3341 7.63896 13.2869 7.73333 13.1733 7.78905C13.1847 7.67202 13.2318 7.57765 13.3149 7.50586Z"
        fill="#888888" />
    <path fill-rule="evenodd" clip-rule="evenodd"
        d="M19.1187 6.51562C19.1844 6.74038 19.2434 6.9764 19.2956 7.22353C19.3101 7.92457 19.3691 8.62065 19.4725 9.31185C19.4723 9.47898 19.4487 9.63232 19.4018 9.77199C19.4135 9.48783 19.4017 9.20467 19.3664 8.9225C19.35 8.83493 19.3146 8.76414 19.2602 8.71013C19.2602 8.54497 19.2602 8.37975 19.2602 8.2146C19.2794 7.86532 19.2322 7.53501 19.1187 7.22353C19.1187 6.98758 19.1187 6.75157 19.1187 6.51562Z"
        fill="#474747" />
    <path fill-rule="evenodd" clip-rule="evenodd"
        d="M19.1187 7.22363C19.2323 7.53511 19.2795 7.86542 19.2603 8.2147C19.2367 8.2147 19.2131 8.2147 19.1895 8.2147C19.1379 7.88694 19.1142 7.55656 19.1187 7.22363Z"
        fill="#9A9A9A" />
    <path fill-rule="evenodd" clip-rule="evenodd"
        d="M18.1986 8.00195C18.2222 8.00195 18.2458 8.00195 18.2694 8.00195C18.3126 8.06503 18.3362 8.13583 18.3402 8.21434C18.2407 8.18086 18.1935 8.11006 18.1986 8.00195Z"
        fill="#868686" />
    <path fill-rule="evenodd" clip-rule="evenodd"
        d="M0.362699 6.94043C0.316694 7.07741 0.293125 7.21899 0.291922 7.36517C0.291922 7.38875 0.291922 7.41239 0.291922 7.43596C0.25172 7.72627 0.180943 8.00944 0.0795898 8.28545C0.120428 7.85872 0.179457 7.43398 0.256533 7.01122C0.283641 6.97186 0.319029 6.94829 0.362699 6.94043Z"
        fill="#5C5C5C" />
    <path fill-rule="evenodd" clip-rule="evenodd"
        d="M18.3398 8.21387C18.4534 8.26958 18.5006 8.36396 18.4814 8.49705C18.3983 8.42527 18.3512 8.33089 18.3398 8.21387Z"
        fill="#9E9E9E" />
    <path fill-rule="evenodd" clip-rule="evenodd"
        d="M12.0409 7.78906C11.9469 8.09474 11.8526 8.40147 11.7578 8.70934C11.7342 8.70934 11.7106 8.70934 11.687 8.70934C11.687 8.66212 11.687 8.61497 11.687 8.56776C11.7213 8.25621 11.8393 7.99662 12.0409 7.78906Z"
        fill="#7C7C7C" />
    <path fill-rule="evenodd" clip-rule="evenodd"
        d="M18.4814 8.49707C18.6511 8.69594 18.7454 8.9319 18.7646 9.20503C18.6301 8.99137 18.5357 8.75541 18.4814 8.49707Z"
        fill="#949494" />
    <path fill-rule="evenodd" clip-rule="evenodd"
        d="M13.1735 7.78906C13.061 8.34222 13.0138 8.90854 13.0319 9.48803C12.9147 8.90911 12.9619 8.34279 13.1735 7.78906Z"
        fill="#7B7B7B" />
    <path fill-rule="evenodd" clip-rule="evenodd"
        d="M11.687 8.56836C11.687 8.61558 11.687 8.66273 11.687 8.70995C11.6398 8.82797 11.5927 8.94592 11.5454 9.06393C11.5093 8.85947 11.5565 8.69431 11.687 8.56836Z"
        fill="#494949" />
    <path fill-rule="evenodd" clip-rule="evenodd"
        d="M19.1894 8.21387C19.213 8.21387 19.2366 8.21387 19.2602 8.21387C19.2602 8.37902 19.2602 8.54425 19.2602 8.7094C19.2434 9.00828 19.267 9.30326 19.331 9.59428C19.2684 9.74698 19.1504 9.80594 18.9771 9.77126C18.8246 9.62139 18.7538 9.4326 18.7648 9.20493C18.8564 9.26086 18.939 9.33165 19.0125 9.4173C19.0418 9.38495 19.0772 9.36131 19.1187 9.34651C19.1891 8.97189 19.2127 8.59437 19.1894 8.21387Z"
        fill="#D7D7D7" />
    <path fill-rule="evenodd" clip-rule="evenodd"
        d="M19.2602 8.70996C19.3145 8.76397 19.3499 8.83476 19.3663 8.92233C19.4016 9.2045 19.4135 9.48766 19.4017 9.77182C19.2602 9.86618 19.1186 9.86618 18.9771 9.77182C19.1503 9.8065 19.2683 9.74754 19.3309 9.59484C19.267 9.30382 19.2434 9.00884 19.2602 8.70996Z"
        fill="#848484" />
    <path fill-rule="evenodd" clip-rule="evenodd"
        d="M0.645738 8.21387C0.660035 8.39006 0.624646 8.55529 0.539572 8.7094C0.504184 9.84184 0.492364 10.9745 0.504184 12.1073C0.480615 12.1073 0.456975 12.1073 0.433406 12.1073C0.455064 11.9031 0.431495 11.7143 0.362629 11.541C0.362629 11.4938 0.362629 11.4467 0.362629 11.3994C0.338352 10.3805 0.385561 9.36584 0.504184 8.35545C0.551392 8.30823 0.59853 8.26108 0.645738 8.21387Z"
        fill="#373737" />
    <path fill-rule="evenodd" clip-rule="evenodd"
        d="M11.6868 8.70996C11.7104 8.70996 11.734 8.70996 11.7576 8.70996C11.6903 9.41418 11.6667 10.1221 11.6868 10.8337C11.5732 10.3308 11.5259 9.81167 11.5452 9.27628C11.5452 9.20549 11.5452 9.1347 11.5452 9.06391C11.5924 8.94591 11.6396 8.82797 11.6868 8.70996Z"
        fill="#C5C5C5" />
    <path fill-rule="evenodd" clip-rule="evenodd"
        d="M11.5453 9.27637C11.526 9.81176 11.5732 10.3309 11.6868 10.8338C11.7249 10.9482 11.7485 11.0662 11.7576 11.1877C11.6999 11.1219 11.641 11.0512 11.5807 10.9753C11.478 10.399 11.4662 9.83264 11.5453 9.27637Z"
        fill="#6A6A6A" />
    <path fill-rule="evenodd" clip-rule="evenodd"
        d="M0.291821 7.43555C0.174653 8.61152 0.127432 9.79131 0.150228 10.9751C0.0798568 10.2327 0.0562107 9.47757 0.079432 8.70977C0.079432 8.56819 0.079432 8.42661 0.079432 8.28503C0.180813 8.00902 0.251609 7.72586 0.291821 7.43555Z"
        fill="#C7C7C7" />
    <path fill-rule="evenodd" clip-rule="evenodd"
        d="M13.0317 9.48828C13.1432 9.6017 13.1904 9.74329 13.1733 9.91306C13.0619 9.79964 13.0147 9.65805 13.0317 9.48828Z"
        fill="#8D8D8D" />
    <path fill-rule="evenodd" clip-rule="evenodd"
        d="M0.503954 8.35547C0.3853 9.36586 0.338078 10.3805 0.362361 11.3995C0.280379 10.7039 0.268556 9.99604 0.326963 9.27574C0.330503 8.9482 0.389477 8.64146 0.503954 8.35547Z"
        fill="#A5A5A5" />
    <path fill-rule="evenodd" clip-rule="evenodd"
        d="M13.244 10.0547C13.3271 10.1265 13.3742 10.2208 13.3856 10.3379C13.2669 10.2895 13.2197 10.1951 13.244 10.0547Z"
        fill="#AEAEAE" />
    <path fill-rule="evenodd" clip-rule="evenodd"
        d="M13.3857 10.3379C13.5273 10.4323 13.6453 10.5503 13.7396 10.6919C13.5509 10.6447 13.433 10.5267 13.3857 10.3379Z"
        fill="#9D9D9D" />
    <path fill-rule="evenodd" clip-rule="evenodd"
        d="M13.9517 10.833C14.1338 10.9409 14.3226 11.0353 14.5179 11.1162C14.5179 11.1398 14.5179 11.1634 14.5179 11.187C14.2526 11.1733 14.0638 11.0552 13.9517 10.833Z"
        fill="#AEAEAE" />
    <path fill-rule="evenodd" clip-rule="evenodd"
        d="M14.5181 11.187C14.5181 11.1634 14.5181 11.1398 14.5181 11.1162C14.7504 11.1729 14.939 11.2909 15.0843 11.4702C14.889 11.3893 14.7002 11.2949 14.5181 11.187Z"
        fill="#717171" />
    <path fill-rule="evenodd" clip-rule="evenodd"
        d="M11.7575 11.1875C11.8946 11.3521 11.989 11.5409 12.0406 11.7539C11.9934 11.7303 11.9463 11.7067 11.8991 11.6831C11.7977 11.5374 11.7505 11.3721 11.7575 11.1875Z"
        fill="#B9B9B9" />
    <path fill-rule="evenodd" clip-rule="evenodd"
        d="M0.0794673 8.70996C0.056246 9.47775 0.079892 10.2329 0.150264 10.9753C0.173839 11.3056 0.197485 11.6359 0.22106 11.9663C0.132635 11.7832 0.0618389 11.5944 0.00867081 11.4C-0.0146212 10.4908 0.00902479 9.59406 0.0794673 8.70996Z"
        fill="#7C7C7C" />
    <path fill-rule="evenodd" clip-rule="evenodd"
        d="M15.1548 11.4707C15.3726 11.4792 15.5614 11.55 15.721 11.6831C15.5032 11.6746 15.3144 11.6038 15.1548 11.4707Z"
        fill="#929292" />
    <path fill-rule="evenodd" clip-rule="evenodd"
        d="M15.7212 11.6831C15.8909 11.666 16.0325 11.7132 16.1459 11.8247C15.9761 11.8417 15.8346 11.7945 15.7212 11.6831Z"
        fill="#7F7F7F" />
    <path fill-rule="evenodd" clip-rule="evenodd"
        d="M11.8993 11.6826C11.9465 11.7062 11.9937 11.7298 12.0409 11.7534C12.0409 11.8006 12.0409 11.8478 12.0409 11.895C11.9414 11.8615 11.8941 11.7907 11.8993 11.6826Z"
        fill="#707070" />
    <path fill-rule="evenodd" clip-rule="evenodd"
        d="M16.2168 11.8246C16.3249 11.8194 16.3957 11.8667 16.4292 11.9662C16.3211 11.9714 16.2503 11.9241 16.2168 11.8246Z"
        fill="#949494" />
    <path fill-rule="evenodd" clip-rule="evenodd"
        d="M12.0409 11.8955C12.1404 11.929 12.1877 11.9998 12.1825 12.1079C12.083 12.0744 12.0357 12.0036 12.0409 11.8955Z"
        fill="#737373" />
    <path fill-rule="evenodd" clip-rule="evenodd"
        d="M16.7119 11.9658C16.8566 12.0372 16.9981 12.108 17.1366 12.1782C16.9375 12.2118 16.7959 12.141 16.7119 11.9658Z"
        fill="#6F6F6F" />
    <path fill-rule="evenodd" clip-rule="evenodd"
        d="M12.1821 12.1074C12.3473 12.2254 12.4888 12.367 12.6068 12.5322C12.3945 12.4614 12.2529 12.3198 12.1821 12.1074Z"
        fill="#626262" />
    <path fill-rule="evenodd" clip-rule="evenodd"
        d="M17.1367 12.1787C17.2537 12.19 17.3481 12.2372 17.4198 12.3203C17.2795 12.3446 17.1851 12.2974 17.1367 12.1787Z"
        fill="#838383" />
    <path fill-rule="evenodd" clip-rule="evenodd"
        d="M18.057 12.6738C17.939 12.6266 17.8211 12.5794 17.7031 12.5322C17.6559 12.485 17.6087 12.4378 17.5615 12.3906C17.7496 12.4145 17.9147 12.3673 18.057 12.249C18.0107 12.3777 18.0107 12.5193 18.057 12.6738Z"
        fill="#343434" />
    <path fill-rule="evenodd" clip-rule="evenodd"
        d="M0.00878906 11.3994C0.0619572 11.5938 0.132754 11.7826 0.221178 11.9657C0.221178 12.013 0.221178 12.0601 0.221178 12.1073C0.221178 12.2961 0.221178 12.4848 0.221178 12.6736C0.150878 12.2573 0.0800811 11.8325 0.00878906 11.3994Z"
        fill="#434343" />
    <path fill-rule="evenodd" clip-rule="evenodd"
        d="M17.4199 12.3205C17.4901 12.3083 17.5373 12.332 17.5615 12.3913C17.6087 12.4385 17.6558 12.4857 17.703 12.5329C17.5531 12.5351 17.4587 12.4643 17.4199 12.3205Z"
        fill="#AEAEAE" />
    <path fill-rule="evenodd" clip-rule="evenodd"
        d="M18.0566 12.6742C18.1647 12.669 18.2355 12.7163 18.269 12.8158C18.1609 12.821 18.0901 12.7738 18.0566 12.6742Z"
        fill="#6D6D6D" />
    <path fill-rule="evenodd" clip-rule="evenodd"
        d="M12.8901 12.7451C13.1471 12.7593 13.3358 12.8774 13.4564 13.0991C13.2643 12.9807 13.0756 12.8628 12.8901 12.7451Z"
        fill="#A8A8A8" />
    <path fill-rule="evenodd" clip-rule="evenodd"
        d="M0.22117 12.7451C0.332604 12.8585 0.379825 13.0001 0.362763 13.1699C0.251329 13.0565 0.204108 12.9149 0.22117 12.7451Z"
        fill="#424242" />
    <path fill-rule="evenodd" clip-rule="evenodd"
        d="M0.433594 12.1074C0.457169 12.1074 0.480815 12.1074 0.50439 12.1074C0.596213 12.4782 0.643434 12.8557 0.645983 13.2401C0.622408 13.2401 0.598762 13.2401 0.575187 13.2401C0.575187 13.1457 0.575187 13.0513 0.575187 12.9569C0.482939 12.6821 0.435718 12.3989 0.433594 12.1074Z"
        fill="#585858" />
    <path fill-rule="evenodd" clip-rule="evenodd"
        d="M18.269 12.8154C18.406 12.8614 18.5476 12.885 18.6937 12.8862C18.7031 13.1266 18.7739 13.1502 18.906 12.957C18.9923 13.0381 19.0867 13.1089 19.1891 13.1694C19.2835 13.2874 19.2835 13.4053 19.1891 13.5233C19.2691 13.6028 19.3163 13.6972 19.3307 13.8065C19.2364 13.7357 19.1419 13.6649 19.0476 13.5941C18.8098 13.3091 18.5502 13.0495 18.269 12.8154Z"
        fill="#2C2C2C" />
    <path fill-rule="evenodd" clip-rule="evenodd"
        d="M0.575169 12.9575C0.575169 13.0519 0.575169 13.1463 0.575169 13.2407C0.584443 13.3027 0.560868 13.3499 0.504372 13.3823C0.423169 13.2219 0.411346 13.0568 0.468974 12.8867C0.496089 12.9261 0.531487 12.9497 0.575169 12.9575Z"
        fill="#D1D1D1" />
    <path fill-rule="evenodd" clip-rule="evenodd"
        d="M13.4565 13.0988C13.5537 13.0877 13.6481 13.0995 13.7397 13.1342C14.0055 13.2595 14.265 13.3893 14.5182 13.5235C14.1109 13.4906 13.7571 13.349 13.4565 13.0988Z"
        fill="#AFAFAF" />
    <path fill-rule="evenodd" clip-rule="evenodd"
        d="M0.362746 11.541C0.431612 11.7143 0.455181 11.9031 0.433523 12.1073C0.435647 12.3989 0.482855 12.682 0.575078 12.9568C0.531408 12.949 0.49602 12.9254 0.468912 12.886C0.411299 13.0561 0.423119 13.2212 0.5043 13.3816C0.560781 13.3492 0.58435 13.302 0.575078 13.24C0.598647 13.24 0.622286 13.24 0.645855 13.24C0.722648 13.8067 0.864203 14.3495 1.07052 14.8682C1.0948 15.0085 1.04759 15.103 0.928964 15.1513C0.832919 14.8657 0.738502 14.5825 0.645855 14.3018C0.570619 13.9154 0.476202 13.5378 0.362746 13.1692C0.379803 12.9994 0.332595 12.8579 0.221191 12.7445C0.221191 12.7209 0.221191 12.6972 0.221191 12.6737C0.221191 12.4849 0.221191 12.2961 0.221191 12.1073C0.277955 12.2101 0.313343 12.3281 0.327357 12.4613C0.362675 12.1554 0.374495 11.8487 0.362746 11.541Z"
        fill="#949494" />
    <path fill-rule="evenodd" clip-rule="evenodd"
        d="M14.5181 13.5947C14.5653 13.5947 14.6124 13.5947 14.6596 13.5947C14.7955 13.6347 14.9135 13.7055 15.0135 13.8071C14.8173 13.7888 14.6522 13.718 14.5181 13.5947Z"
        fill="#737373" />
    <path fill-rule="evenodd" clip-rule="evenodd"
        d="M14.6597 13.594C14.7799 13.5827 14.8979 13.5944 15.0136 13.6294C15.2605 13.7462 15.4964 13.876 15.7213 14.0188C15.4728 13.9888 15.2369 13.918 15.0136 13.8064C14.9135 13.7048 14.7956 13.634 14.6597 13.594Z"
        fill="#B6B6B6" />
    <path fill-rule="evenodd" clip-rule="evenodd"
        d="M19.0479 13.5947C19.1422 13.6655 19.2366 13.7363 19.331 13.8071C19.4429 13.9234 19.49 14.065 19.4725 14.2319C19.3337 14.0213 19.1921 13.809 19.0479 13.5947Z"
        fill="#8A8A8A" />
    <path fill-rule="evenodd" clip-rule="evenodd"
        d="M15.7212 14.0195C15.8659 14.0909 16.0074 14.1617 16.1459 14.2319C15.9468 14.2655 15.8052 14.1948 15.7212 14.0195Z"
        fill="#6E6E6E" />
    <path fill-rule="evenodd" clip-rule="evenodd"
        d="M16.2876 14.3021C16.4867 14.2684 16.6282 14.3392 16.7123 14.5145C16.5676 14.4431 16.426 14.3723 16.2876 14.3021Z"
        fill="#8C8C8C" />
    <path fill-rule="evenodd" clip-rule="evenodd"
        d="M16.7119 14.515C16.8523 14.4907 16.9467 14.5379 16.995 14.6566C16.878 14.6452 16.7837 14.5981 16.7119 14.515Z"
        fill="#A7A7A7" />
    <path fill-rule="evenodd" clip-rule="evenodd"
        d="M19.6138 14.5146C19.7973 14.6234 19.8681 14.7886 19.8262 15.0102C19.7664 14.8443 19.6956 14.6792 19.6138 14.5146Z"
        fill="#8D8D8D" />
    <path fill-rule="evenodd" clip-rule="evenodd"
        d="M16.9951 14.6562C17.1299 14.6731 17.2243 14.7439 17.2782 14.8686C17.1435 14.8518 17.049 14.781 16.9951 14.6562Z"
        fill="#8A8A8A" />
    <path fill-rule="evenodd" clip-rule="evenodd"
        d="M0.645886 14.3018C0.738534 14.5824 0.832951 14.8656 0.928995 15.1512C0.928995 15.1985 0.928995 15.2456 0.928995 15.2928C0.893465 15.1098 0.810868 14.9447 0.681275 14.7973C0.646099 14.6338 0.63435 14.4686 0.645886 14.3018Z"
        fill="#424242" />
    <path fill-rule="evenodd" clip-rule="evenodd"
        d="M17.2783 14.8682C17.4131 14.885 17.5075 14.9558 17.5614 15.0806C17.4267 15.0637 17.3323 14.9929 17.2783 14.8682Z"
        fill="#919191" />
    <path fill-rule="evenodd" clip-rule="evenodd"
        d="M31.2215 12.6738C31.2215 12.7682 31.2215 12.8626 31.2215 12.957C31.2105 13.5603 31.1633 14.1502 31.08 14.7268C30.9705 15.2364 30.8761 15.7555 30.7969 16.2841C30.7733 16.2841 30.7496 16.2841 30.7261 16.2841C30.855 15.1063 30.9848 13.9265 31.1153 12.7446C31.1425 12.7053 31.1778 12.6817 31.2215 12.6738Z"
        fill="#A4688B" />
    <path fill-rule="evenodd" clip-rule="evenodd"
        d="M31.646 15.3643C31.764 15.3643 31.8819 15.3643 31.9999 15.3643C31.9999 15.4351 31.9999 15.5059 31.9999 15.5766C31.8509 15.5978 31.7094 15.5742 31.5752 15.5059C31.6009 15.4575 31.6245 15.4103 31.646 15.3643Z"
        fill="#532846" />
    <path fill-rule="evenodd" clip-rule="evenodd"
        d="M31.0799 14.7266C31.0391 15.395 30.9566 16.0557 30.8322 16.7087C30.7661 16.8048 30.7071 16.8993 30.6553 16.9919C30.7362 16.7665 30.7833 16.5305 30.7968 16.284C30.876 15.7554 30.9704 15.2363 31.0799 14.7266Z"
        fill="#D8B7CB" />
    <path fill-rule="evenodd" clip-rule="evenodd"
        d="M17.8447 15.4346C18.1536 15.7211 18.3424 16.075 18.4109 16.4964C18.5124 16.6421 18.5596 16.8073 18.5525 16.992C18.5289 16.992 18.5053 16.992 18.4817 16.992C18.3855 16.7711 18.3265 16.5351 18.3048 16.2841C18.1047 16.0253 17.9514 15.7422 17.8447 15.4346Z"
        fill="#555555" />
    <path fill-rule="evenodd" clip-rule="evenodd"
        d="M31.2924 15.7178C31.2988 15.9055 31.2516 16.0707 31.1508 16.2133C31.1275 16.0202 31.1747 15.855 31.2924 15.7178Z"
        fill="#CDA9C3" />
    <path fill-rule="evenodd" clip-rule="evenodd"
        d="M12.5363 17.5589C12.4209 17.4509 12.3619 17.3093 12.3593 17.1342C12.3358 16.851 12.3121 16.5678 12.2885 16.2847C12.1276 16.1919 11.9743 16.1919 11.8285 16.2847C11.7813 16.379 11.7341 16.4735 11.6869 16.5678C11.67 16.4286 11.6936 16.2988 11.7577 16.1785C11.965 16.1235 12.1656 16.1353 12.3593 16.2139C12.4231 16.6623 12.4821 17.1107 12.5363 17.5589Z"
        fill="#696969" />
    <path fill-rule="evenodd" clip-rule="evenodd"
        d="M20.0386 15.5762C20.0823 15.584 20.1177 15.6076 20.1448 15.647C20.192 16.2841 20.192 16.9212 20.1448 17.5583C20.1177 17.5977 20.0823 17.6212 20.0386 17.6291C20.1311 16.9439 20.1311 16.2596 20.0386 15.5762Z"
        fill="#3A3A3A" />
    <path fill-rule="evenodd" clip-rule="evenodd"
        d="M19.8262 15.0098C19.8698 15.0176 19.9052 15.0412 19.9323 15.0806C19.9635 15.248 19.9989 15.4132 20.0385 15.5761C20.131 16.2595 20.131 16.9438 20.0385 17.629C19.9913 17.747 19.9442 17.865 19.8969 17.983C19.944 17.5114 19.9912 17.0395 20.0385 16.5672C19.9902 16.0442 19.9195 15.525 19.8262 15.0098Z"
        fill="#878787" />
    <path fill-rule="evenodd" clip-rule="evenodd"
        d="M31.1508 16.5674C31.0637 16.961 31.0047 17.3622 30.9738 17.7708C30.9467 17.8102 30.9113 17.8338 30.8677 17.8416C30.9137 17.7046 30.9372 17.5631 30.9385 17.4169C30.9303 17.1062 31.0011 16.8231 31.1508 16.5674Z"
        fill="#C090AE" />
    <path fill-rule="evenodd" clip-rule="evenodd"
        d="M11.8286 16.2842C11.8384 16.632 11.7912 16.9624 11.687 17.2752C11.687 17.0393 11.687 16.8033 11.687 16.5673C11.7342 16.473 11.7814 16.3785 11.8286 16.2842Z"
        fill="#C4C4C4" />
    <path fill-rule="evenodd" clip-rule="evenodd"
        d="M18.4813 16.9927C18.5049 16.9927 18.5285 16.9927 18.5521 16.9927C18.5831 17.5695 18.5359 18.1358 18.4106 18.6917C18.387 18.6917 18.3633 18.6917 18.3398 18.6917C18.384 18.4461 18.3132 18.2454 18.1274 18.09C18.1303 17.6918 18.1303 17.2906 18.1274 16.8865C18.2155 16.8543 18.2744 16.8897 18.3044 16.9927C18.3868 18.5022 18.4458 18.5022 18.4813 16.9927Z"
        fill="#272727" />
    <path fill-rule="evenodd" clip-rule="evenodd"
        d="M11.687 16.5674C11.687 16.8033 11.687 17.0393 11.687 17.2753C11.6425 17.7072 11.5953 18.1319 11.5454 18.5495C11.5454 18.3607 11.5454 18.172 11.5454 17.9832C11.5469 17.4966 11.594 17.0246 11.687 16.5674Z"
        fill="#696969" />
    <path fill-rule="evenodd" clip-rule="evenodd"
        d="M18.4106 16.4971C18.4785 16.5291 18.5375 16.5763 18.5876 16.6387C18.6349 17.205 18.6349 17.7713 18.5876 18.3376C18.5612 18.4786 18.5022 18.5966 18.4106 18.6916C18.536 18.1357 18.5832 17.5693 18.5522 16.9926C18.5593 16.808 18.5121 16.6428 18.4106 16.4971Z"
        fill="#999999" />
    <path fill-rule="evenodd" clip-rule="evenodd"
        d="M30.726 16.2842C30.7495 16.2842 30.7732 16.2842 30.7968 16.2842C30.7832 16.5307 30.7361 16.7667 30.6552 16.9921C30.6511 17.2161 30.604 17.4284 30.5136 17.6292C30.4901 17.6292 30.4664 17.6292 30.4429 17.6292C30.5242 17.1777 30.6185 16.7293 30.726 16.2842Z"
        fill="#C18EAD" />
    <path fill-rule="evenodd" clip-rule="evenodd"
        d="M30.9383 17.417C30.9371 17.5632 30.9135 17.7048 30.8675 17.8417C30.8014 18.0651 30.7542 18.3011 30.726 18.5496C30.6836 18.7851 30.5892 18.9975 30.4429 19.1868C30.5214 18.8627 30.5804 18.5324 30.6198 18.1957C30.6955 17.9202 30.8017 17.6607 30.9383 17.417Z"
        fill="#D8B6CA" />
    <path fill-rule="evenodd" clip-rule="evenodd"
        d="M31.8583 17.1338C31.7862 17.7155 31.6917 18.2819 31.5752 18.8328C31.5879 18.5698 31.5643 18.3102 31.5044 18.0541C31.6553 17.7546 31.7733 17.4479 31.8583 17.1338Z"
        fill="#482A3C" />
    <path fill-rule="evenodd" clip-rule="evenodd"
        d="M12.6072 17.8418C12.6545 17.9126 12.7016 17.9834 12.7488 18.0542C12.792 18.1173 12.8156 18.1881 12.8196 18.2666C12.6444 18.1825 12.5736 18.0409 12.6072 17.8418Z"
        fill="#969696" />
    <path fill-rule="evenodd" clip-rule="evenodd"
        d="M19.8969 17.9834C19.7931 18.1779 19.7342 18.3903 19.7199 18.6206C19.6928 18.6599 19.6574 18.6835 19.6138 18.6914C19.6721 18.4603 19.6957 18.2242 19.6845 17.9834C19.7553 17.9834 19.8261 17.9834 19.8969 17.9834Z"
        fill="#C7C7C7" />
    <path fill-rule="evenodd" clip-rule="evenodd"
        d="M30.4428 17.6289C30.4664 17.6289 30.49 17.6289 30.5136 17.6289C30.4882 17.9595 30.3938 18.2662 30.2305 18.5492C30.2595 18.274 30.3303 18.0145 30.4428 17.7705C30.4428 17.7233 30.4428 17.6761 30.4428 17.6289Z"
        fill="#E0C2D3" />
    <path fill-rule="evenodd" clip-rule="evenodd"
        d="M12.7485 18.0537C12.8738 18.192 12.9682 18.3572 13.0316 18.5493C12.9069 18.4953 12.8362 18.4009 12.8193 18.2661C12.8153 18.1876 12.7917 18.1168 12.7485 18.0537Z"
        fill="#474747" />
    <path fill-rule="evenodd" clip-rule="evenodd"
        d="M30.4431 17.7705C30.3306 18.0145 30.2598 18.274 30.2308 18.5492C30.1431 18.9606 29.9779 19.3381 29.7354 19.6818C29.9694 19.0926 30.1464 18.4791 30.2662 17.8413C30.3137 17.788 30.3726 17.7644 30.4431 17.7705Z"
        fill="#B37B9D" />
    <path fill-rule="evenodd" clip-rule="evenodd"
        d="M20.0389 17.6289C20.0504 17.7958 20.0387 17.9609 20.0035 18.1244C19.8773 18.2904 19.8065 18.4792 19.7912 18.6908C19.7288 18.8687 19.6226 19.0103 19.4727 19.1155C19.4727 19.0683 19.4727 19.0211 19.4727 18.9739C19.5862 18.9182 19.6334 18.8238 19.6142 18.6908C19.6579 18.6829 19.6933 18.6593 19.7204 18.62C19.7346 18.3897 19.7936 18.1773 19.8973 17.9829C19.9445 17.8649 19.9917 17.7469 20.0389 17.6289Z"
        fill="#454545" />
    <path fill-rule="evenodd" clip-rule="evenodd"
        d="M13.0316 18.6914C13.1312 18.7249 13.1784 18.7957 13.1732 18.9038C13.0737 18.8703 13.0265 18.7995 13.0316 18.6914Z"
        fill="#9D9D9D" />
    <path fill-rule="evenodd" clip-rule="evenodd"
        d="M30.7261 18.5498C30.7397 18.8782 30.6335 19.1614 30.4076 19.3993C30.3893 19.7098 30.3068 19.993 30.1599 20.2488C30.1529 20.055 30.1765 19.8662 30.2307 19.6825C30.2753 19.5101 30.3461 19.3449 30.443 19.1869C30.5894 18.9976 30.6837 18.7853 30.7261 18.5498Z"
        fill="#A5698B" />
    <path fill-rule="evenodd" clip-rule="evenodd"
        d="M19.6142 18.6914C19.6334 18.8245 19.5862 18.9189 19.4727 18.9746C19.484 18.8576 19.5311 18.7632 19.6142 18.6914Z"
        fill="#A9A9A9" />
    <path fill-rule="evenodd" clip-rule="evenodd"
        d="M11.5456 17.9834C11.5456 18.1722 11.5456 18.3609 11.5456 18.5497C11.5637 18.8165 11.5401 19.0761 11.4748 19.3284C11.4512 19.3284 11.4275 19.3284 11.404 19.3284C11.3746 18.8617 11.4218 18.4134 11.5456 17.9834Z"
        fill="#606060" />
    <path fill-rule="evenodd" clip-rule="evenodd"
        d="M13.1733 18.9033C13.3857 19.0685 13.5744 19.2573 13.7396 19.4697C13.48 19.3517 13.2913 19.1629 13.1733 18.9033Z"
        fill="#A4A4A4" />
    <path fill-rule="evenodd" clip-rule="evenodd"
        d="M18.2694 18.9746C18.1804 19.1818 18.0389 19.3471 17.8447 19.4702C17.9337 19.263 18.0752 19.0977 18.2694 18.9746Z"
        fill="#909090" />
    <path fill-rule="evenodd" clip-rule="evenodd"
        d="M17.8446 19.4697C17.7907 19.5945 17.6963 19.6653 17.5615 19.6821C17.6155 19.5574 17.7099 19.4866 17.8446 19.4697Z"
        fill="#8F8F8F" />
    <path fill-rule="evenodd" clip-rule="evenodd"
        d="M29.7351 19.682C29.7311 19.7605 29.7075 19.8313 29.6644 19.8944C29.6172 19.9652 29.57 20.036 29.5228 20.1068C29.4791 20.0989 29.4437 20.0753 29.4166 20.036C29.3047 19.6889 29.4108 19.5709 29.7351 19.682Z"
        fill="#6E3656" />
    <path fill-rule="evenodd" clip-rule="evenodd"
        d="M12.1821 19.8238C12.3504 19.7409 12.5155 19.7644 12.6776 19.8946C12.7011 19.9419 12.7248 19.989 12.7483 20.0362C12.5765 19.927 12.3878 19.8562 12.1821 19.8238Z"
        fill="#626262" />
    <path fill-rule="evenodd" clip-rule="evenodd"
        d="M13.8809 19.6113C14.1902 19.6749 14.4733 19.7929 14.7302 19.9653C14.7066 19.9653 14.683 19.9653 14.6594 19.9653C14.3774 19.8874 14.1179 19.7694 13.8809 19.6113Z"
        fill="#626262" />
    <path fill-rule="evenodd" clip-rule="evenodd"
        d="M17.5614 19.6826C17.4434 19.777 17.3255 19.8714 17.2075 19.9658C17.1603 19.9658 17.1131 19.9658 17.0659 19.9658C17.1806 19.7929 17.3458 19.6985 17.5614 19.6826Z"
        fill="#767676" />
    <path fill-rule="evenodd" clip-rule="evenodd"
        d="M12.6777 19.8945C12.8369 19.9356 12.9548 20.03 13.0316 20.1777C12.9211 20.1612 12.8267 20.114 12.7485 20.0361C12.7249 19.9889 12.7013 19.9418 12.6777 19.8945Z"
        fill="#B2B2B2" />
    <path fill-rule="evenodd" clip-rule="evenodd"
        d="M12.1826 19.8242C12.1354 19.9186 12.0646 19.9894 11.9702 20.0366C11.9702 19.895 12.041 19.8242 12.1826 19.8242Z"
        fill="#919191" />
    <path fill-rule="evenodd" clip-rule="evenodd"
        d="M17.0662 19.9658C17.1134 19.9658 17.1605 19.9658 17.2077 19.9658C16.9743 20.1062 16.7147 20.177 16.4292 20.1782C16.4292 20.1546 16.4292 20.131 16.4292 20.1074C16.6415 20.0602 16.8539 20.013 17.0662 19.9658Z"
        fill="#AAAAAA" />
    <path fill-rule="evenodd" clip-rule="evenodd"
        d="M19.4726 18.9746C19.4726 19.0218 19.4726 19.069 19.4726 19.1162C19.1319 19.8346 18.5893 20.3301 17.8447 20.6028C18.1623 20.3777 18.4808 20.1417 18.8002 19.8949C19.0612 19.606 19.2854 19.2993 19.4726 18.9746Z"
        fill="#878787" />
    <path fill-rule="evenodd" clip-rule="evenodd"
        d="M14.6597 19.9658C14.6832 19.9658 14.7069 19.9658 14.7304 19.9658C15.2812 20.0975 15.8475 20.1447 16.4291 20.1074C16.4291 20.131 16.4291 20.1546 16.4291 20.1782C16.0306 20.2505 15.6296 20.2622 15.2259 20.2136C15.0018 20.1908 14.813 20.1082 14.6597 19.9658Z"
        fill="#888888" />
    <path fill-rule="evenodd" clip-rule="evenodd"
        d="M11.404 19.3281C11.4276 19.3281 11.4512 19.3281 11.4748 19.3281C11.4748 19.6349 11.4748 19.9417 11.4748 20.2484C11.6995 20.2902 11.8647 20.2194 11.9702 20.036C11.9037 20.3525 11.7149 20.4469 11.404 20.3192C11.325 19.9907 11.325 19.6603 11.404 19.3281Z"
        fill="#7F7F7F" />
    <path fill-rule="evenodd" clip-rule="evenodd"
        d="M13.0317 20.1781C13.1398 20.1729 13.2106 20.2202 13.2441 20.3197C13.136 20.3249 13.0652 20.2777 13.0317 20.1781Z"
        fill="#A0A0A0" />
    <path fill-rule="evenodd" clip-rule="evenodd"
        d="M13.2441 20.3193C13.381 20.3625 13.499 20.4333 13.598 20.5317C13.4258 20.5478 13.3079 20.477 13.2441 20.3193Z"
        fill="#8A8A8A" />
    <path fill-rule="evenodd" clip-rule="evenodd"
        d="M30.2307 19.6826C30.1766 19.8664 30.153 20.0552 30.16 20.2489C30.0656 20.2489 30.0184 20.2962 30.0184 20.3905C29.9482 20.529 29.8774 20.6706 29.8061 20.8153C29.8061 20.8388 29.8061 20.8625 29.8061 20.8861C29.7514 20.9706 29.6807 21.0414 29.5938 21.0984C29.736 20.7533 29.8658 20.3993 29.983 20.0366C30.0324 19.889 30.115 19.771 30.2307 19.6826Z"
        fill="#E7CDDD" />
    <path fill-rule="evenodd" clip-rule="evenodd"
        d="M29.6644 19.8945C29.6755 19.9917 29.6637 20.0862 29.629 20.1777C29.4895 20.3494 29.3834 20.5382 29.3105 20.744C29.287 20.744 29.2633 20.744 29.2397 20.744C29.3065 20.5203 29.4009 20.3079 29.5229 20.1069C29.5701 20.0361 29.6172 19.9653 29.6644 19.8945Z"
        fill="#B684A4" />
    <path fill-rule="evenodd" clip-rule="evenodd"
        d="M13.5977 20.5322C13.865 20.563 14.1009 20.6573 14.3054 20.8154C14.2111 20.8154 14.1167 20.8154 14.0223 20.8154C13.8617 20.7414 13.7201 20.647 13.5977 20.5322Z"
        fill="#8C8C8C" />
    <path fill-rule="evenodd" clip-rule="evenodd"
        d="M30.0181 20.3906C30.0517 20.5898 29.9809 20.7314 29.8057 20.8154C29.877 20.6707 29.9478 20.5291 30.0181 20.3906Z"
        fill="#B17899" />
    <path fill-rule="evenodd" clip-rule="evenodd"
        d="M14.0225 20.8145C14.1168 20.8145 14.2112 20.8145 14.3056 20.8145C14.4425 20.8605 14.5841 20.884 14.7302 20.8852C14.7774 20.9325 14.8246 20.9796 14.8718 21.0268C14.5722 20.9934 14.2891 20.9226 14.0225 20.8145Z"
        fill="#545454" />
    <path fill-rule="evenodd" clip-rule="evenodd"
        d="M17.8445 20.6025C17.697 20.8295 17.4847 20.9239 17.2075 20.8857C17.2783 20.8385 17.3491 20.7914 17.4199 20.7441C17.546 20.6578 17.6875 20.6106 17.8445 20.6025Z"
        fill="#6C6C6C" />
    <path fill-rule="evenodd" clip-rule="evenodd"
        d="M17.42 20.7441C17.3492 20.7914 17.2785 20.8385 17.2077 20.8857C17.1841 20.8857 17.1605 20.8857 17.1369 20.8857C16.9366 20.9185 16.7478 20.9657 16.5707 21.0273C16.0045 21.0273 15.4382 21.0273 14.872 21.0273C14.8248 20.9801 14.7777 20.933 14.7305 20.8857C15.6346 20.9221 16.5311 20.8749 17.42 20.7441Z"
        fill="#CCCCCC" />
    <path fill-rule="evenodd" clip-rule="evenodd"
        d="M17.1365 20.8857C17.1287 20.9294 17.1051 20.9648 17.0658 20.9919C16.9023 21.0271 16.7371 21.0389 16.5703 21.0273C16.7475 20.9657 16.9362 20.9185 17.1365 20.8857Z"
        fill="#696969" />
    <path fill-rule="evenodd" clip-rule="evenodd"
        d="M27.4701 22.018C27.3758 22.018 27.2814 22.018 27.187 22.018C27.187 21.9472 27.187 21.8765 27.187 21.8057C27.3948 21.7415 27.6071 21.6944 27.824 21.6641C27.824 21.7349 27.824 21.8057 27.824 21.8765C27.6626 21.8465 27.5446 21.8937 27.4701 22.018Z"
        fill="#5F274D" />
    <path fill-rule="evenodd" clip-rule="evenodd"
        d="M29.4519 21.5225C29.3039 21.8424 29.1387 22.1492 28.9564 22.4427C28.8254 22.6039 28.7074 22.769 28.6025 22.9383C28.6303 22.8194 28.6657 22.7014 28.7087 22.5843C28.8372 22.365 28.9788 22.1526 29.1334 21.9472C29.0685 21.7066 29.1747 21.565 29.4519 21.5225Z"
        fill="#E6C8DA" />
    <path fill-rule="evenodd" clip-rule="evenodd"
        d="M29.2396 20.7441C29.2632 20.7441 29.2869 20.7441 29.3104 20.7441C29.2731 20.9375 29.2142 21.1263 29.1335 21.3105C28.6813 21.8633 28.2803 22.4532 27.9303 23.0802C27.7604 23.238 27.607 23.4032 27.4702 23.5758C27.4742 23.4973 27.4978 23.4265 27.541 23.3634C27.541 23.3398 27.541 23.3162 27.541 23.2926C27.6563 23.213 27.7625 23.1185 27.8595 23.0094C28.206 22.3802 28.6071 21.7903 29.0627 21.2397C29.0974 21.1481 29.1092 21.0537 29.0981 20.9565C29.1976 20.923 29.2448 20.8522 29.2396 20.7441Z"
        fill="#CFABC2" />
    <path fill-rule="evenodd" clip-rule="evenodd"
        d="M1.56587 22.1602C1.75414 22.4193 1.94283 22.6789 2.13209 22.9389C2.03123 22.8305 1.98409 22.854 1.99053 23.0096C1.80255 22.7765 1.61386 22.5405 1.42432 22.3017C1.42432 22.2074 1.47152 22.1602 1.56587 22.1602Z"
        fill="#929292" />
    <path fill-rule="evenodd" clip-rule="evenodd"
        d="M27.5409 23.2922C27.5409 23.3158 27.5409 23.3394 27.5409 23.363C27.392 23.3841 27.2504 23.3606 27.1162 23.2922C27.2605 23.1044 27.402 23.1044 27.5409 23.2922Z"
        fill="#552A47" />
    <path fill-rule="evenodd" clip-rule="evenodd"
        d="M2.48584 23.293C2.6567 23.3929 2.77468 23.5345 2.83973 23.7177C2.66887 23.6179 2.55088 23.4763 2.48584 23.293Z"
        fill="#787878" />
    <path fill-rule="evenodd" clip-rule="evenodd"
        d="M28.5321 23.0801C28.5321 23.1273 28.5321 23.1744 28.5321 23.2217C28.3831 23.4006 28.2179 23.5657 28.0366 23.7172C28.1506 23.4658 28.3158 23.2535 28.5321 23.0801Z"
        fill="#C69AB5" />
    <path fill-rule="evenodd" clip-rule="evenodd"
        d="M2.13188 22.9388C2.266 23.0431 2.38392 23.1611 2.48577 23.2928C2.55081 23.4761 2.6688 23.6176 2.83965 23.7175C2.91043 23.8119 2.98121 23.9063 3.05199 24.0007C3.00478 24.0007 2.98121 24.0243 2.98121 24.0715C2.83965 23.9535 2.6981 23.8355 2.55654 23.7175C2.36778 23.4816 2.17909 23.2456 1.99033 23.0096C1.98389 22.854 2.03102 22.8304 2.13188 22.9388Z"
        fill="#C7C7C7" />
    <path fill-rule="evenodd" clip-rule="evenodd"
        d="M2.83984 23.7178C3.16577 23.9256 3.44888 24.1852 3.68917 24.4965C3.45794 24.3601 3.24561 24.1949 3.05218 24.001C2.9814 23.9066 2.91062 23.8121 2.83984 23.7178Z"
        fill="#6F6F6F" />
    <path fill-rule="evenodd" clip-rule="evenodd"
        d="M2.55664 23.7178C2.6982 23.8358 2.83975 23.9537 2.9813 24.0717C3.26441 24.3785 3.54752 24.6853 3.83063 24.992C3.33519 24.638 2.91053 24.2133 2.55664 23.7178Z"
        fill="#6A6A6A" />
    <path fill-rule="evenodd" clip-rule="evenodd"
        d="M31.4336 11.6123C31.4219 11.873 31.4337 12.1325 31.469 12.391C31.4961 12.3516 31.5315 12.3281 31.5752 12.3202C31.5017 13.4586 31.4074 14.5912 31.2921 15.7182C31.1744 15.8553 31.1272 16.0206 31.1505 16.2137C31.1505 16.3317 31.1505 16.4496 31.1505 16.5676C31.0008 16.8233 30.93 17.1065 30.9382 17.4171C30.8016 17.6609 30.6954 17.9204 30.6197 18.1958C30.5803 18.5325 30.5213 18.8629 30.4427 19.1869C30.3458 19.3449 30.2751 19.5101 30.2304 19.6824C30.1146 19.7708 30.032 19.8888 29.9827 20.0364C29.8655 20.3991 29.7357 20.7531 29.5934 21.0982C29.5134 21.2267 29.4663 21.3683 29.4519 21.523C29.1747 21.5655 29.0685 21.7071 29.1334 21.9477C28.9788 22.1531 28.8372 22.3655 28.7087 22.5848C28.6657 22.7019 28.6303 22.8199 28.6025 22.9388C28.5432 22.963 28.5196 23.0101 28.5318 23.0804C28.3155 23.2537 28.1503 23.4661 28.0363 23.7175C27.9582 23.8512 27.8638 23.9691 27.7532 24.0714C27.6285 24.1254 27.5577 24.2198 27.5409 24.3546C26.953 24.8954 26.3868 25.4617 25.8422 26.0536C25.8186 26.0536 25.795 26.0536 25.7714 26.0536C25.7729 25.9372 25.7256 25.8429 25.6299 25.7704C25.6517 25.7132 25.6871 25.666 25.736 25.6288C25.8103 25.7008 25.8929 25.7126 25.9838 25.6642C25.8894 25.617 25.8894 25.5698 25.9838 25.5226C25.8923 25.4879 25.7978 25.4761 25.7007 25.4872C25.9422 25.2226 26.1781 24.963 26.4084 24.7085C26.6712 24.5166 26.8835 24.2807 27.0454 24.0006C27.2593 23.9283 27.4009 23.7867 27.4701 23.5759C27.6069 23.4034 27.7603 23.2381 27.9301 23.0804C28.2801 22.4533 28.6812 21.8634 29.1334 21.3106C29.214 21.1264 29.273 20.9376 29.3103 20.7443C29.3831 20.5385 29.4893 20.3497 29.6288 20.1779C29.6635 20.0864 29.6753 19.992 29.6642 19.8948C29.7074 19.8317 29.7309 19.7609 29.735 19.6824C29.9775 19.3387 30.1427 18.9612 30.2304 18.5498C30.3938 18.2668 30.4881 17.9601 30.5135 17.6295C30.6038 17.4287 30.651 17.2164 30.6551 16.9924C30.7069 16.8998 30.7659 16.8054 30.832 16.7092C30.9564 16.0562 31.0389 15.3955 31.0797 14.7271C31.1631 14.1506 31.2103 13.5606 31.2213 12.9573C31.338 12.5254 31.4088 12.077 31.4336 11.6123Z"
        fill="#F6F1F5" />
    <path fill-rule="evenodd" clip-rule="evenodd"
        d="M27.4701 23.5762C27.4009 23.787 27.2593 23.9286 27.0454 24.001C27.1599 23.8392 27.3015 23.6976 27.4701 23.5762Z"
        fill="#CCAEC4" />
    <path fill-rule="evenodd" clip-rule="evenodd"
        d="M27.7534 24.0713C27.7366 24.2061 27.6658 24.3005 27.541 24.3545C27.5579 24.2197 27.6287 24.1252 27.7534 24.0713Z"
        fill="#C59DB9" />
    <path fill-rule="evenodd" clip-rule="evenodd"
        d="M27.0457 24.001C26.8837 24.281 26.6714 24.517 26.4087 24.7089C26.5727 24.427 26.785 24.1911 27.0457 24.001Z"
        fill="#C69AB5" />
    <path fill-rule="evenodd" clip-rule="evenodd"
        d="M26.0547 24.0713C26.0547 24.3545 26.0547 24.6376 26.0547 24.9208C26.0311 24.9916 25.9839 25.0388 25.9131 25.0624C25.9422 24.7199 25.9894 24.3895 26.0547 24.0713Z"
        fill="#6C3856" />
    <path fill-rule="evenodd" clip-rule="evenodd"
        d="M3.83057 24.6377C4.01381 24.7028 4.15536 24.8208 4.25523 24.9917C4.07199 24.9266 3.93043 24.8086 3.83057 24.6377Z"
        fill="#5F5F5F" />
    <path fill-rule="evenodd" clip-rule="evenodd"
        d="M4.25537 24.9912C4.41455 25.0323 4.53246 25.1266 4.60926 25.2744C4.45008 25.2333 4.33216 25.139 4.25537 24.9912Z"
        fill="#5E5E5E" />
    <path fill-rule="evenodd" clip-rule="evenodd"
        d="M4.18457 25.2744C4.34375 25.3155 4.46166 25.4098 4.53846 25.5576C4.37928 25.5165 4.26136 25.4222 4.18457 25.2744Z"
        fill="#ABABAB" />
    <path fill-rule="evenodd" clip-rule="evenodd"
        d="M3.05222 24.001C3.24566 24.1949 3.45799 24.3601 3.68922 24.4965C3.71279 24.5673 3.76 24.6145 3.83077 24.6381C3.93064 24.809 4.07219 24.927 4.25544 24.992C4.33223 25.1398 4.45014 25.2341 4.60932 25.2752C4.70919 25.4461 4.85074 25.5641 5.03399 25.6292C5.11078 25.7769 5.22869 25.8713 5.38787 25.9123C5.4418 26.0371 5.53622 26.1078 5.67098 26.1247C5.7155 26.3015 5.83349 26.3958 6.02487 26.4079C6.18822 26.4994 6.35342 26.5937 6.52031 26.691C6.66059 26.8777 6.84928 26.9721 7.08653 26.9742C7.08653 27.0214 7.1101 27.045 7.1573 27.045C7.25632 27.1434 7.37431 27.2142 7.51119 27.2573C7.53476 27.2573 7.5584 27.2573 7.58197 27.2573C7.61403 27.3252 7.66117 27.3842 7.72352 27.4343C7.90471 27.4615 8.06991 27.5205 8.21896 27.6113C8.21896 27.6349 8.21896 27.6585 8.21896 27.6821C8.06566 27.6765 7.9241 27.6293 7.7943 27.5405C7.70845 27.558 7.66124 27.6052 7.65274 27.6821C7.58968 27.6389 7.51891 27.6153 7.44041 27.6113C7.41684 27.6113 7.3932 27.6113 7.36964 27.6113C7.26021 27.4514 7.11866 27.3217 6.94497 27.2219C6.85346 27.1873 6.75904 27.1754 6.66186 27.1865C6.62839 27.087 6.55761 27.0398 6.44953 27.045C6.31987 26.992 6.20188 26.9212 6.09565 26.8326C6.05827 26.7462 6.01107 26.6636 5.95409 26.5848C5.75528 26.4912 5.56659 26.385 5.38787 26.2663C5.07801 26.0639 4.7949 25.8279 4.53855 25.5584C4.46175 25.4106 4.34384 25.3163 4.18466 25.2752C4.06667 25.1808 3.94876 25.0864 3.83077 24.992C3.54766 24.6853 3.26455 24.3785 2.98145 24.0718C2.98145 24.0245 3.00501 24.001 3.05222 24.001Z"
        fill="#E2E2E2" />
    <path fill-rule="evenodd" clip-rule="evenodd"
        d="M26.4088 24.708C26.1784 24.9625 25.9425 25.2221 25.7011 25.4867C25.5948 25.5753 25.4768 25.6461 25.3472 25.6991C25.5087 25.5135 25.6738 25.3247 25.8426 25.1328C25.8898 25.1328 25.9134 25.1092 25.9134 25.062C25.9842 25.0384 26.0314 24.9912 26.0549 24.9204C26.1846 24.8674 26.3026 24.7966 26.4088 24.708Z"
        fill="#B5A6AD" />
    <path fill-rule="evenodd" clip-rule="evenodd"
        d="M4.60938 25.2744C4.79262 25.3395 4.93417 25.4575 5.03404 25.6284C4.8508 25.5633 4.70924 25.4453 4.60938 25.2744Z"
        fill="#616161" />
    <path fill-rule="evenodd" clip-rule="evenodd"
        d="M27.5409 24.3545C27.0474 24.9897 26.4812 25.556 25.8423 26.0535C26.3868 25.4617 26.9531 24.8953 27.5409 24.3545Z"
        fill="#C398B2" />
    <path fill-rule="evenodd" clip-rule="evenodd"
        d="M5.03369 25.6289C5.19287 25.67 5.31078 25.7643 5.38758 25.9121C5.2284 25.871 5.11048 25.7767 5.03369 25.6289Z"
        fill="#727272" />
    <path fill-rule="evenodd" clip-rule="evenodd"
        d="M5.3877 25.9121C5.52246 25.929 5.61687 25.9998 5.6708 26.1245C5.53604 26.1076 5.44163 26.0369 5.3877 25.9121Z"
        fill="#747474" />
    <path fill-rule="evenodd" clip-rule="evenodd"
        d="M25.3468 25.6992C25.0811 25.9858 24.7744 26.2218 24.4267 26.4072C24.4206 26.3367 24.4443 26.2777 24.4975 26.2302C24.7737 26.0354 25.0568 25.8584 25.3468 25.6992Z"
        fill="#979797" />
    <path fill-rule="evenodd" clip-rule="evenodd"
        d="M5.6709 26.124C5.74911 26.2019 5.84345 26.2491 5.95401 26.2656C5.97758 26.3128 6.00122 26.36 6.02478 26.4072C5.8334 26.3952 5.71542 26.3008 5.6709 26.124Z"
        fill="#BABABA" />
    <path fill-rule="evenodd" clip-rule="evenodd"
        d="M5.3877 26.2656C5.56641 26.3844 5.7551 26.4905 5.95391 26.5842C6.01089 26.663 6.0581 26.7456 6.09547 26.832C5.81462 26.7056 5.57872 26.5167 5.3877 26.2656Z"
        fill="#888888" />
    <path fill-rule="evenodd" clip-rule="evenodd"
        d="M5.9541 26.2656C6.19411 26.3385 6.3828 26.4801 6.52032 26.6904C6.35343 26.5931 6.18823 26.4988 6.02488 26.4072C6.00131 26.36 5.97767 26.3128 5.9541 26.2656Z"
        fill="#606060" />
    <path fill-rule="evenodd" clip-rule="evenodd"
        d="M24.2855 26.4785C24.1689 26.6078 24.0274 26.7022 23.8608 26.7617C23.953 26.5973 24.0945 26.5029 24.2855 26.4785Z"
        fill="#989898" />
    <path fill-rule="evenodd" clip-rule="evenodd"
        d="M6.52002 26.6904C6.73292 26.7421 6.92168 26.8366 7.08624 26.9736C6.84899 26.9715 6.6603 26.8771 6.52002 26.6904Z"
        fill="#6D6D6D" />
    <path fill-rule="evenodd" clip-rule="evenodd"
        d="M25.7007 26.1953C25.6771 26.2425 25.6535 26.2897 25.6299 26.3369C25.1568 26.6455 24.685 26.9523 24.2144 27.2572C24.6718 26.8513 25.1672 26.4974 25.7007 26.1953Z"
        fill="#848484" />
    <path fill-rule="evenodd" clip-rule="evenodd"
        d="M23.8609 26.7617C23.4573 27.141 22.9854 27.4006 22.4453 27.5405C22.6056 27.3546 22.8179 27.2602 23.0823 27.2573C23.0823 27.1865 23.0823 27.1157 23.0823 27.0449C23.3506 26.979 23.6101 26.8846 23.8609 26.7617Z"
        fill="#969696" />
    <path fill-rule="evenodd" clip-rule="evenodd"
        d="M6.44922 27.0443C6.55732 27.0392 6.62812 27.0864 6.66161 27.1859C6.5535 27.1911 6.48271 27.1439 6.44922 27.0443Z"
        fill="#747474" />
    <path fill-rule="evenodd" clip-rule="evenodd"
        d="M7.15723 27.0448C7.33339 27.0265 7.45138 27.0973 7.51111 27.2572C7.37423 27.214 7.25624 27.1432 7.15723 27.0448Z"
        fill="#616161" />
    <path fill-rule="evenodd" clip-rule="evenodd"
        d="M6.66162 27.1857C6.7588 27.1746 6.85322 27.1864 6.94473 27.2211C7.11842 27.3208 7.25997 27.4506 7.36939 27.6105C7.11311 27.4942 6.87721 27.3526 6.66162 27.1857Z"
        fill="#A0A0A0" />
    <path fill-rule="evenodd" clip-rule="evenodd"
        d="M7.58203 27.2568C7.73109 27.3477 7.89628 27.4066 8.07747 27.4338C8.13983 27.484 8.18696 27.543 8.21903 27.6108C8.06997 27.52 7.90478 27.461 7.72359 27.4338C7.66123 27.3837 7.61409 27.3247 7.58203 27.2568Z"
        fill="#696969" />
    <path fill-rule="evenodd" clip-rule="evenodd"
        d="M24.2145 27.2568C24.1825 27.3247 24.1353 27.3837 24.073 27.4338C23.7782 27.5586 23.4951 27.6885 23.2236 27.8232C23.5249 27.5957 23.8552 27.4069 24.2145 27.2568Z"
        fill="#808080" />
    <path fill-rule="evenodd" clip-rule="evenodd"
        d="M25.701 25.4874C25.7982 25.4763 25.8926 25.4881 25.9841 25.5228C25.8898 25.5701 25.8898 25.6172 25.9841 25.6644C25.8933 25.7128 25.8107 25.701 25.7364 25.629C25.6874 25.6662 25.6521 25.7134 25.6303 25.7706C25.726 25.8431 25.7732 25.9375 25.7718 26.0538C25.7125 26.078 25.6889 26.1251 25.701 26.1953C25.1676 26.4974 24.6721 26.8514 24.2147 27.2572C23.8554 27.4072 23.5251 27.596 23.2238 27.8235C23.0082 27.8395 22.8431 27.9338 22.7284 28.1067C22.5728 28.0798 22.4548 28.127 22.3745 28.2483C22.1567 28.2568 21.9679 28.3276 21.8083 28.4606C21.7002 28.4555 21.6294 28.5027 21.596 28.6022C21.5724 28.6022 21.5487 28.6022 21.5252 28.6022C21.3682 28.6103 21.2266 28.6574 21.1005 28.7438C20.8729 28.7328 20.6841 28.8036 20.5343 28.9562C20.4641 28.944 20.4169 28.9676 20.3927 29.027C20.204 29.0505 20.0153 29.0742 19.8265 29.0978C19.2965 29.177 18.7775 29.2715 18.2694 29.3809C18.169 29.4482 18.0511 29.4718 17.9155 29.4517C16.3348 29.5426 14.7541 29.5426 13.1735 29.4517C12.7533 29.3711 12.3287 29.3239 11.8995 29.3101C11.8995 29.2865 11.8995 29.2629 11.8995 29.2393C11.8699 29.1882 11.8227 29.1528 11.7579 29.1331C11.5469 29.0979 11.3345 29.0861 11.1209 29.0978C10.9086 29.0034 10.6963 28.909 10.4839 28.8146C9.9969 28.59 9.47782 28.4248 8.92682 28.3191C8.78838 28.2488 8.64683 28.178 8.50216 28.1067C8.21063 27.9783 7.92752 27.8367 7.65283 27.6819C7.66133 27.6051 7.70853 27.5578 7.79439 27.5404C7.92419 27.6291 8.06575 27.6763 8.21905 27.6819C8.34751 27.7619 8.48907 27.8091 8.64371 27.8235C8.66728 27.8235 8.69092 27.8235 8.71449 27.8235C8.7084 27.894 8.73204 27.953 8.78527 28.0005C9.05925 28.1075 9.34236 28.1665 9.6346 28.1775C9.64245 28.2212 9.66602 28.2565 9.70537 28.2837C9.96647 28.344 10.226 28.4029 10.4839 28.4606C10.5311 28.4606 10.5783 28.4606 10.6255 28.4606C10.8651 28.654 11.1482 28.7248 11.4748 28.673C11.4984 28.673 11.522 28.673 11.5456 28.673C11.5534 28.7167 11.577 28.7521 11.6164 28.7792C11.8036 28.8144 11.9924 28.8262 12.1826 28.8146C12.2534 28.8146 12.3241 28.8146 12.3949 28.8146C12.3888 28.8851 12.4125 28.9441 12.4657 28.9916C13.9476 29.155 15.4339 29.2021 16.9247 29.1331C17.0579 29.1191 17.1758 29.0837 17.2785 29.027C17.4367 29.0478 17.5783 29.0242 17.7032 28.9562C17.7504 28.9562 17.7976 28.9562 17.8448 28.9562C18.052 28.9516 18.2408 28.9044 18.411 28.8146C18.5761 28.8146 18.7413 28.8146 18.9064 28.8146C19.2047 28.7263 19.5114 28.6673 19.8265 28.6376C19.9023 28.5773 19.9731 28.5183 20.0389 28.4606C20.0624 28.4606 20.0861 28.4606 20.1096 28.4606C20.3557 28.402 20.5916 28.3312 20.8174 28.2483C21.0307 28.124 21.2666 28.0297 21.5252 27.9651C21.8638 27.8766 22.1705 27.735 22.4453 27.5404C22.9854 27.4005 23.4573 27.1409 23.8608 26.7617C24.0274 26.7022 24.1689 26.6078 24.2855 26.4785C24.3097 26.4192 24.3568 26.3955 24.427 26.4077C24.7748 26.2224 25.0815 25.9864 25.3471 25.6998C25.4768 25.6469 25.5948 25.5761 25.701 25.4874Z"
        fill="#F2F2F2" />
    <path fill-rule="evenodd" clip-rule="evenodd"
        d="M8.21875 27.6811C8.21875 27.6576 8.21875 27.6339 8.21875 27.6104C8.3734 27.6248 8.51495 27.6719 8.64341 27.7519C8.64341 27.7755 8.64341 27.7992 8.64341 27.8227C8.48877 27.8083 8.34721 27.7611 8.21875 27.6811Z"
        fill="#969696" />
    <path fill-rule="evenodd" clip-rule="evenodd"
        d="M8.64355 27.8227C8.64355 27.7992 8.64355 27.7755 8.64355 27.752C8.8418 27.8416 9.05413 27.9006 9.28055 27.9289C9.3199 27.9561 9.34347 27.9915 9.35133 28.0351C9.11974 28.0082 8.90741 27.9374 8.71433 27.8227C8.69076 27.8227 8.66712 27.8227 8.64355 27.8227Z"
        fill="#636363" />
    <path fill-rule="evenodd" clip-rule="evenodd"
        d="M25.7715 27.0443C25.6786 27.5071 25.6786 27.9791 25.7715 28.4601C25.7463 28.5325 25.6991 28.5797 25.6299 28.6017C25.6299 28.2713 25.6299 27.941 25.6299 27.6106C25.6299 27.1859 25.6299 26.7611 25.6299 26.3364C25.6535 26.2892 25.6771 26.242 25.7007 26.1948C25.7444 26.187 25.7798 26.1634 25.8069 26.124C25.7863 26.4266 25.7745 26.7333 25.7715 27.0443Z"
        fill="#49273D" />
    <path fill-rule="evenodd" clip-rule="evenodd"
        d="M22.445 27.5403C22.1702 27.735 21.8635 27.8766 21.5249 27.9651C21.5249 27.9415 21.5249 27.9179 21.5249 27.8943C21.7307 27.8214 21.9194 27.7152 22.0911 27.5757C22.2068 27.5407 22.3248 27.529 22.445 27.5403Z"
        fill="#7D7D7D" />
    <path fill-rule="evenodd" clip-rule="evenodd"
        d="M7.44043 27.6104C7.51892 27.6144 7.5897 27.638 7.65276 27.6811C7.92745 27.8359 8.21056 27.9775 8.50209 28.1059C8.5493 28.1767 8.59643 28.2475 8.64364 28.3183C8.29804 28.1263 7.94415 27.9493 7.58198 27.7873C7.51963 27.7372 7.47249 27.6782 7.44043 27.6104Z"
        fill="#747474" />
    <path fill-rule="evenodd" clip-rule="evenodd"
        d="M8.71431 27.8232C8.90739 27.9379 9.11973 28.0087 9.35131 28.0356C9.44566 28.0829 9.54007 28.13 9.63442 28.1772C9.34218 28.1663 9.05907 28.1073 8.78509 28.0002C8.73187 27.9527 8.70823 27.8938 8.71431 27.8232Z"
        fill="#C3C3C3" />
    <path fill-rule="evenodd" clip-rule="evenodd"
        d="M21.5251 27.8936C21.5251 27.9171 21.5251 27.9408 21.5251 27.9644C21.2666 28.0289 21.0307 28.1233 20.8173 28.2475C20.7701 28.2475 20.723 28.2475 20.6758 28.2475C20.6973 28.2015 20.7209 28.1543 20.7466 28.1059C21.0139 28.0423 21.2734 27.9715 21.5251 27.8936Z"
        fill="#454545" />
    <path fill-rule="evenodd" clip-rule="evenodd"
        d="M23.2235 27.8232C23.0772 27.9435 22.912 28.0379 22.728 28.1064C22.8428 27.9335 23.0079 27.8392 23.2235 27.8232Z"
        fill="#8E8E8E" />
    <path fill-rule="evenodd" clip-rule="evenodd"
        d="M22.7284 28.106C22.6272 28.1794 22.5092 28.2266 22.3745 28.2475C22.4548 28.1263 22.5728 28.0791 22.7284 28.106Z"
        fill="#929292" />
    <path fill-rule="evenodd" clip-rule="evenodd"
        d="M8.50195 28.1064C8.64662 28.1778 8.78818 28.2486 8.92662 28.3188C8.85584 28.3188 8.78506 28.3188 8.71428 28.3188C8.69072 28.3188 8.66708 28.3188 8.64351 28.3188C8.5963 28.248 8.54916 28.1772 8.50195 28.1064Z"
        fill="#A5A5A5" />
    <path fill-rule="evenodd" clip-rule="evenodd"
        d="M20.6756 28.2483C20.7228 28.2483 20.7699 28.2483 20.8171 28.2483C20.5914 28.3313 20.3555 28.402 20.1094 28.4607C20.1094 28.4371 20.1094 28.4134 20.1094 28.3899C20.2804 28.2859 20.4691 28.2387 20.6756 28.2483Z"
        fill="#8E8E8E" />
    <path fill-rule="evenodd" clip-rule="evenodd"
        d="M8.71436 28.3184C8.78513 28.3184 8.85591 28.3184 8.92669 28.3184C9.0267 28.42 9.14468 28.4907 9.28057 28.5307C9.04481 28.5649 8.85612 28.4941 8.71436 28.3184Z"
        fill="#4D4D4D" />
    <path fill-rule="evenodd" clip-rule="evenodd"
        d="M9.63428 28.1768C9.92602 28.2175 10.2091 28.2883 10.4836 28.3891C10.4836 28.4127 10.4836 28.4364 10.4836 28.4599C10.2257 28.4022 9.96615 28.3433 9.70505 28.283C9.6657 28.2558 9.64213 28.2204 9.63428 28.1768Z"
        fill="#868686" />
    <path fill-rule="evenodd" clip-rule="evenodd"
        d="M22.3743 28.248C22.2628 28.2936 22.1684 28.3644 22.0912 28.4604C21.9969 28.4604 21.9025 28.4604 21.8081 28.4604C21.9677 28.3273 22.1565 28.2565 22.3743 28.248Z"
        fill="#A4A4A4" />
    <path fill-rule="evenodd" clip-rule="evenodd"
        d="M10.4839 28.4604C10.4839 28.4369 10.4839 28.4132 10.4839 28.3896C10.8639 28.4255 11.2413 28.4846 11.6163 28.5666C11.6812 28.5863 11.7283 28.6217 11.7579 28.6728C11.6871 28.6728 11.6163 28.6728 11.5455 28.6728C11.522 28.6728 11.4983 28.6728 11.4748 28.6728C11.1984 28.6037 10.9153 28.5329 10.6254 28.4604C10.5782 28.4604 10.5311 28.4604 10.4839 28.4604Z"
        fill="#3D3D3D" />
    <path fill-rule="evenodd" clip-rule="evenodd"
        d="M20.1092 28.39C20.1092 28.4136 20.1092 28.4372 20.1092 28.4608C20.0856 28.4608 20.062 28.4608 20.0384 28.4608C19.8923 28.462 19.7507 28.4856 19.6138 28.5316C19.6216 28.4879 19.6452 28.4525 19.6845 28.4254C19.8242 28.3903 19.9657 28.3785 20.1092 28.39Z"
        fill="#4C4C4C" />
    <path fill-rule="evenodd" clip-rule="evenodd"
        d="M8.92676 28.3184C9.47776 28.4241 9.99684 28.5894 10.4839 28.8139C10.3895 28.8139 10.2951 28.8139 10.2007 28.8139C9.88869 28.7407 9.58201 28.6463 9.28064 28.5307C9.14475 28.4907 9.02677 28.42 8.92676 28.3184Z"
        fill="#CCCCCC" />
    <path fill-rule="evenodd" clip-rule="evenodd"
        d="M21.8081 28.4603C21.7746 28.5599 21.7038 28.6071 21.5957 28.6019C21.6292 28.5024 21.7 28.4552 21.8081 28.4603Z"
        fill="#8A8A8A" />
    <path fill-rule="evenodd" clip-rule="evenodd"
        d="M10.6255 28.46C10.9153 28.5325 11.1984 28.6033 11.4748 28.6724C11.1482 28.7242 10.8651 28.6534 10.6255 28.46Z"
        fill="#A0A0A0" />
    <path fill-rule="evenodd" clip-rule="evenodd"
        d="M20.0387 28.46C19.9729 28.5177 19.9022 28.5766 19.8264 28.637C19.5113 28.6667 19.2046 28.7257 18.9062 28.8139C19.0175 28.7299 19.1355 28.6591 19.2601 28.6016C19.3816 28.5924 19.4996 28.5688 19.614 28.5308C19.751 28.4847 19.8925 28.4612 20.0387 28.46Z"
        fill="#B9B9B9" />
    <path fill-rule="evenodd" clip-rule="evenodd"
        d="M21.808 28.46C21.9024 28.46 21.9968 28.46 22.0911 28.46C21.9315 28.5931 21.7428 28.6639 21.5249 28.6724C21.5249 28.6488 21.5249 28.6251 21.5249 28.6016C21.5485 28.6016 21.5721 28.6016 21.5957 28.6016C21.7038 28.6067 21.7745 28.5595 21.808 28.46Z"
        fill="#404040" />
    <path fill-rule="evenodd" clip-rule="evenodd"
        d="M9.28027 28.5312C9.58164 28.6468 9.88832 28.7412 10.2004 28.8144C10.2004 28.838 10.2004 28.8617 10.2004 28.8852C10.0288 28.907 9.86369 28.8834 9.70494 28.8144C9.5149 28.7779 9.37335 28.6835 9.28027 28.5312Z"
        fill="#373737" />
    <path fill-rule="evenodd" clip-rule="evenodd"
        d="M11.5454 28.6729C11.6162 28.6729 11.687 28.6729 11.7577 28.6729C11.8993 28.7201 12.0409 28.7672 12.1824 28.8144C11.9922 28.8261 11.8035 28.8142 11.6162 28.779C11.5768 28.7519 11.5533 28.7165 11.5454 28.6729Z"
        fill="#838383" />
    <path fill-rule="evenodd" clip-rule="evenodd"
        d="M21.5248 28.6016C21.5248 28.6251 21.5248 28.6488 21.5248 28.6724C21.3963 28.7524 21.2547 28.7995 21.1001 28.814C21.1001 28.7904 21.1001 28.7667 21.1001 28.7432C21.2262 28.6568 21.3678 28.6096 21.5248 28.6016Z"
        fill="#757575" />
    <path fill-rule="evenodd" clip-rule="evenodd"
        d="M19.2602 28.6016C19.1355 28.6591 19.0176 28.7299 18.9063 28.814C18.7412 28.814 18.576 28.814 18.4109 28.814C18.1989 28.7994 18.0101 28.8465 17.8446 28.9555C17.7974 28.9555 17.7503 28.9555 17.7031 28.9555C17.6559 28.9555 17.6087 28.9555 17.5615 28.9555C17.6873 28.8777 17.8288 28.8186 17.9862 28.7786C18.4182 28.7597 18.8429 28.7007 19.2602 28.6016Z"
        fill="#606060" />
    <path fill-rule="evenodd" clip-rule="evenodd"
        d="M18.4109 28.8141C18.2407 28.9039 18.052 28.9511 17.8447 28.9557C18.0102 28.8467 18.199 28.7995 18.4109 28.8141Z"
        fill="#9B9B9B" />
    <path fill-rule="evenodd" clip-rule="evenodd"
        d="M21.1004 28.7433C21.1004 28.7669 21.1004 28.7905 21.1004 28.8141C20.9971 28.8093 20.9028 28.8329 20.8173 28.8849C20.7229 28.9085 20.6285 28.9321 20.5342 28.9557C20.684 28.8031 20.8728 28.7323 21.1004 28.7433Z"
        fill="#A5A5A5" />
    <path fill-rule="evenodd" clip-rule="evenodd"
        d="M12.8901 28.8848C14.1165 28.926 15.3433 28.9496 16.5706 28.9556C15.8047 29.026 15.0261 29.0496 14.2349 29.0264C13.7761 28.9878 13.3279 28.9406 12.8901 28.8848Z"
        fill="#4B4B4B" />
    <path fill-rule="evenodd" clip-rule="evenodd"
        d="M20.8172 28.8848C20.7169 29.0128 20.5753 29.06 20.3926 29.0264C20.4168 28.967 20.4639 28.9434 20.5341 28.9556C20.6285 28.932 20.7229 28.9083 20.8172 28.8848Z"
        fill="#4B4B4B" />
    <path fill-rule="evenodd" clip-rule="evenodd"
        d="M10.2007 28.8852C10.2007 28.8617 10.2007 28.838 10.2007 28.8145C10.295 28.8145 10.3894 28.8145 10.4838 28.8145C10.6961 28.9088 10.9085 29.0033 11.1208 29.0976C10.8038 29.0706 10.4972 28.9998 10.2007 28.8852Z"
        fill="#8E8E8E" />
    <path fill-rule="evenodd" clip-rule="evenodd"
        d="M16.5705 28.9561C16.9008 28.9561 17.2311 28.9561 17.5614 28.9561C17.6086 28.9561 17.6557 28.9561 17.7029 28.9561C17.578 29.0241 17.4365 29.0477 17.2783 29.0269C16.2526 29.1094 15.2381 29.1094 14.2349 29.0269C15.0261 29.0501 15.8046 29.0265 16.5705 28.9561Z"
        fill="#8F8F8F" />
    <path fill-rule="evenodd" clip-rule="evenodd"
        d="M12.3945 28.8145C12.5577 28.8494 12.7228 28.8729 12.8899 28.8852C13.3277 28.941 13.7759 28.9883 14.2347 29.0268C15.2379 29.1094 16.2524 29.1094 17.2781 29.0268C17.1754 29.0836 17.0574 29.119 16.9242 29.133C15.4335 29.202 13.9472 29.1548 12.4653 28.9914C12.412 28.9439 12.3884 28.885 12.3945 28.8145Z"
        fill="#C4C4C4" />
    <path fill-rule="evenodd" clip-rule="evenodd"
        d="M11.4038 29.168C11.5709 29.1803 11.736 29.2039 11.8992 29.2388C11.8992 29.2623 11.8992 29.286 11.8992 29.3096C11.7115 29.3159 11.5464 29.2688 11.4038 29.168Z"
        fill="#737373" />
    <path fill-rule="evenodd" clip-rule="evenodd"
        d="M11.1206 29.0971C11.3342 29.0854 11.5465 29.0973 11.7576 29.1325C11.8224 29.1522 11.8696 29.1876 11.8992 29.2387C11.7359 29.2038 11.5708 29.1802 11.4037 29.1679C11.2905 29.1869 11.1962 29.1633 11.1206 29.0971Z"
        fill="#AEAEAE" />
    <path fill-rule="evenodd" clip-rule="evenodd"
        d="M19.8261 29.0977C19.4636 29.2565 19.0861 29.3509 18.6937 29.3808C18.5522 29.3808 18.4106 29.3808 18.269 29.3808C18.7771 29.2714 19.2961 29.1769 19.8261 29.0977Z"
        fill="#C2C2C2" />
    <path fill-rule="evenodd" clip-rule="evenodd"
        d="M20.3924 29.0264C19.7854 29.2987 19.1485 29.4638 18.4814 29.5219C18.5522 29.4747 18.623 29.4276 18.6938 29.3803C19.0862 29.3504 19.4637 29.256 19.8262 29.0972C20.015 29.0736 20.2037 29.0499 20.3924 29.0264Z"
        fill="#4F4F4F" />
    <path fill-rule="evenodd" clip-rule="evenodd"
        d="M11.8994 29.3096C12.3286 29.3233 12.7533 29.3705 13.1734 29.4512C13.1734 29.4747 13.1734 29.4984 13.1734 29.522C12.7343 29.4885 12.3096 29.4177 11.8994 29.3096Z"
        fill="#6F6F6F" />
    <path fill-rule="evenodd" clip-rule="evenodd"
        d="M18.2694 29.3809C18.411 29.3809 18.5525 29.3809 18.6941 29.3809C18.6233 29.4281 18.5525 29.4752 18.4817 29.5225C18.293 29.5225 18.1043 29.5225 17.9155 29.5225C17.9155 29.4989 17.9155 29.4752 17.9155 29.4517C18.0511 29.4718 18.169 29.4482 18.2694 29.3809Z"
        fill="#787878" />
    <path fill-rule="evenodd" clip-rule="evenodd"
        d="M13.1733 29.522C13.1733 29.4984 13.1733 29.4747 13.1733 29.4512C14.7539 29.5421 16.3347 29.5421 17.9154 29.4512C17.9154 29.4747 17.9154 29.4984 17.9154 29.522C17.8918 29.522 17.8682 29.522 17.8446 29.522C16.7129 29.5733 15.5805 29.5969 14.4473 29.5928C14.0947 29.5536 13.7408 29.53 13.3857 29.522C13.3149 29.522 13.2441 29.522 13.1733 29.522Z"
        fill="#CACACA" />
    <path fill-rule="evenodd" clip-rule="evenodd"
        d="M13.3857 29.5225C13.7409 29.5305 14.0948 29.5541 14.4474 29.5933C14.4474 29.6168 14.4474 29.6405 14.4474 29.6641C14.4238 29.6641 14.4002 29.6641 14.3766 29.6641C14.0274 29.6832 13.6972 29.636 13.3857 29.5225Z"
        fill="#5D5D5D" />
    <path fill-rule="evenodd" clip-rule="evenodd"
        d="M17.8446 29.5225C17.8446 29.546 17.8446 29.5697 17.8446 29.5933C16.7131 29.6516 15.5807 29.6752 14.4473 29.6641C14.4473 29.6405 14.4473 29.6168 14.4473 29.5933C15.5804 29.5974 16.7128 29.5738 17.8446 29.5225Z"
        fill="#868686" />
    <path fill-rule="evenodd" clip-rule="evenodd"
        d="M17.8446 29.5928C17.8524 29.6365 17.876 29.6719 17.9153 29.699C18.2247 29.7111 18.5314 29.7465 18.8354 29.8052C18.8119 29.8287 18.7882 29.8524 18.7647 29.876C17.3613 29.7727 15.8985 29.7019 14.3765 29.6636C14.4 29.6636 14.4237 29.6636 14.4472 29.6636C15.5807 29.6747 16.7131 29.6511 17.8446 29.5928Z"
        fill="#272727" />
</svg>