<svg width="32" height="32" viewBox="0 0 32 32" fill="none" xmlns="http://www.w3.org/2000/svg">
    <path
        d="M15.663 0.00111542C19.2881 -0.0370953 22.9886 0.903648 25.8369 3.25178C25.9155 3.31565 25.994 3.37951 26.0749 3.44531C26.2444 3.58406 26.4136 3.7232 26.5825 3.86264C26.7209 3.97654 26.86 4.08969 27.0009 4.20045C27.4171 4.53571 27.7378 4.93318 28.0695 5.35109C28.2358 5.55943 28.4068 5.76032 28.5834 5.95985C28.8024 6.22446 28.8024 6.22446 28.8024 6.40462C28.8618 6.40462 28.9211 6.40462 28.9822 6.40462C29.0924 6.55734 29.0924 6.55734 29.2181 6.77621C29.2657 6.85877 29.3133 6.94133 29.3623 7.02639C29.4148 7.11848 29.4673 7.21056 29.5214 7.30543C29.5785 7.40216 29.6356 7.49889 29.6944 7.59855C30.6293 9.19804 31.3386 10.8791 31.6781 12.7103C31.6903 12.7722 31.7024 12.8341 31.715 12.8979C32.2121 15.4973 32.0458 18.1911 31.3186 20.7275C31.2951 20.8105 31.2715 20.8935 31.2472 20.979C31.1019 21.4867 30.9327 21.9658 30.6875 22.4349C30.6026 22.6132 30.5542 22.7777 30.5042 22.9683C30.3342 23.5 30.0224 23.9396 29.7151 24.3997C29.5957 24.5793 29.4804 24.7619 29.3725 24.9487C29.2518 25.1415 29.2518 25.1415 29.072 25.2316C29.0424 25.3208 29.0127 25.41 28.9822 25.5018C28.9229 25.5018 28.8635 25.5018 28.8024 25.5018C28.7431 25.6802 28.6838 25.8586 28.6227 26.0423C28.5634 26.0423 28.5041 26.0423 28.443 26.0423C28.419 26.095 28.395 26.1478 28.3703 26.2021C28.2615 26.4059 28.1416 26.5575 27.988 26.7292C27.8441 26.8907 27.731 27.0194 27.6342 27.2134C27.5749 27.2134 27.5156 27.2134 27.4545 27.2134C27.4545 27.2728 27.4545 27.3323 27.4545 27.3935C27.3952 27.3935 27.3359 27.3935 27.2748 27.3935C27.2748 27.453 27.2748 27.5124 27.2748 27.5737C27.2099 27.6109 27.145 27.648 27.0782 27.6863C26.8086 27.836 26.8086 27.836 26.6064 28.1086C26.3711 28.3904 26.153 28.5617 25.8369 28.7448C25.7776 28.7448 25.7183 28.7448 25.6572 28.7448C25.6224 28.8289 25.6224 28.8289 25.587 28.9147C25.4381 29.1734 25.2337 29.2359 24.9702 29.3567C24.6481 29.5222 24.3655 29.7377 24.0751 29.9531C23.8579 30.0973 23.6536 30.1842 23.4106 30.2761C23.2639 30.3499 23.1179 30.425 22.9725 30.5013C22.6139 30.6832 22.2719 30.8023 21.8829 30.9067C21.7552 30.9601 21.6279 31.0147 21.501 31.07C21.0466 31.2569 20.5823 31.3845 20.1081 31.5091C20.0347 31.5284 19.9614 31.5478 19.8858 31.5676C19.5047 31.6657 19.1273 31.7496 18.7377 31.8075C18.6376 31.8242 18.5375 31.841 18.4344 31.8582C18.0831 31.9007 17.7432 31.8976 17.3897 31.8976C17.2996 31.9122 17.2094 31.9269 17.1166 31.9419C16.6555 32.0012 16.2027 32.0007 15.7384 31.9989C15.6495 31.9993 15.5605 31.9996 15.4688 32C14.5714 31.9988 13.7176 31.8774 12.8347 31.7231C12.7443 31.7078 12.6539 31.6925 12.5607 31.6768C12.1188 31.6 11.7005 31.5153 11.2789 31.3571C11.2167 31.337 11.1545 31.3169 11.0904 31.2962C10.0398 30.9549 9.00394 30.558 8.04382 30.0059C8.01417 29.9464 7.98451 29.887 7.95396 29.8257C7.72684 29.7667 7.72684 29.7667 7.50464 29.7357C7.50464 29.6762 7.50464 29.6167 7.50464 29.5555C7.44347 29.5332 7.38231 29.5109 7.31929 29.4879C6.76471 29.2514 6.39547 28.9955 5.97694 28.5646C5.85855 28.5018 5.73888 28.4412 5.61749 28.3844C5.47146 28.2493 5.47146 28.2493 5.3479 28.1142C5.28859 28.0547 5.22927 27.9953 5.16817 27.934C5.10549 27.8153 5.04509 27.6954 4.98844 27.5737C4.89947 27.5737 4.81051 27.5737 4.71885 27.5737C4.6009 27.433 4.6009 27.433 4.44925 27.2134C4.20589 26.915 3.95855 26.629 3.67979 26.3632C3.44558 26.1164 3.28769 25.8657 3.12025 25.5712C3.00765 25.3849 3.00765 25.3849 2.74183 25.2316C2.68005 24.9951 2.68005 24.9951 2.65197 24.7812C2.59266 24.7812 2.53335 24.7812 2.47224 24.7812C2.44293 24.7193 2.41363 24.6574 2.38343 24.5936C2.34416 24.5125 2.30489 24.4313 2.26443 24.3477C2.20657 24.227 2.20657 24.227 2.14754 24.1038C2.03886 23.883 2.03886 23.883 1.88999 23.7537C1.73604 23.592 1.67642 23.4599 1.59887 23.2512C1.57258 23.1818 1.54628 23.1123 1.51919 23.0408C1.49266 22.9686 1.46614 22.8963 1.4388 22.8219C1.38555 22.6797 1.33219 22.5376 1.27873 22.3954C1.25294 22.3266 1.22716 22.2578 1.20059 22.1869C1.09288 21.9071 0.973734 21.6332 0.854687 21.3581C0.638922 20.822 0.549399 20.3317 0.522962 19.7535C0.513811 19.6885 0.504659 19.6235 0.495231 19.5565C0.43592 19.5267 0.37661 19.497 0.315502 19.4664C0.281452 19.2669 0.281452 19.2669 0.264954 19.0216C0.246485 18.6911 0.246485 18.6911 0.135774 18.3854C-0.0791989 16.7892 -0.0154085 15.1098 0.163856 13.5154C0.174427 13.4196 0.184997 13.3239 0.195888 13.2252C0.265816 12.6628 0.390485 12.1601 0.585095 11.6293C0.625276 11.5055 0.664726 11.3814 0.703392 11.257C0.721985 11.1975 0.740577 11.1379 0.759733 11.0765C0.778094 11.0174 0.796454 10.9583 0.815372 10.8974C0.83408 10.8376 0.852788 10.7778 0.872063 10.7162C0.991859 10.3315 1.10508 9.94539 1.21414 9.55746C1.27345 9.55746 1.33276 9.55746 1.39387 9.55746C1.40349 9.49406 1.4131 9.43066 1.42301 9.36534C1.62569 8.50335 2.19521 7.63004 2.74183 6.94511C2.82793 6.79264 2.91397 6.64014 2.99879 6.48696C3.18566 6.17263 3.3947 5.86489 3.64048 5.59389C3.69979 5.59389 3.7591 5.59389 3.8202 5.59389C3.8202 5.53444 3.8202 5.47498 3.8202 5.41373C3.87952 5.41373 3.93883 5.41373 3.99993 5.41373C4.01824 5.36635 4.03654 5.31897 4.0554 5.27016C5.42713 2.87743 8.97471 1.28235 11.4801 0.544066C12.8671 0.196116 14.2371 0.0335663 15.663 0.00111542Z"
        fill="#E01525" />
    <path
        d="M8.58301 13.7016C10.6593 13.6934 12.7356 13.6868 14.8119 13.6829C15.7759 13.681 16.74 13.6785 17.704 13.6744C18.5442 13.6708 19.3845 13.6685 20.2247 13.6677C20.6696 13.6672 21.1145 13.6661 21.5595 13.6635C21.9783 13.661 22.397 13.6603 22.8159 13.6608C22.9695 13.6607 23.1232 13.66 23.2769 13.6586C23.4869 13.6568 23.6967 13.6573 23.9067 13.6582C24.0829 13.6577 24.0829 13.6577 24.2627 13.6572C24.6336 13.7092 24.8287 13.8278 25.118 14.0619C25.2509 14.3282 25.2133 14.5792 25.2079 14.8726C25.0003 14.8726 24.7927 14.8726 24.5788 14.8726C24.5492 14.724 24.5195 14.5754 24.489 14.4222C24.4 14.4222 24.311 14.4222 24.2194 14.4222C24.1589 14.8239 24.1546 15.0369 24.37 15.3892C24.499 15.5604 24.6292 15.7308 24.7603 15.9005C25.1558 16.4189 25.2575 16.8809 25.2405 17.5332C25.2079 17.7552 25.2079 17.7552 25.0394 17.9917C24.6848 18.2217 24.4618 18.2168 24.0364 18.2165C23.9706 18.2165 23.9047 18.2166 23.8369 18.2167C23.6151 18.2168 23.3934 18.2163 23.1717 18.2159C23.0132 18.2158 22.8547 18.2158 22.6962 18.2159C22.2649 18.2159 21.8336 18.2154 21.4023 18.2148C20.9519 18.2142 20.5016 18.2141 20.0512 18.214C19.198 18.2138 18.3447 18.213 17.4915 18.2121C16.5203 18.2111 15.549 18.2106 14.5778 18.2102C12.5796 18.2092 10.5813 18.2076 8.58301 18.2056C8.58301 16.7193 8.58301 15.2329 8.58301 13.7016Z"
        fill="#FEFBFB" />
    <path
        d="M8.8776 20.0861C8.96897 20.0861 9.06034 20.0862 9.15448 20.0863C9.25895 20.0862 9.36342 20.0861 9.47105 20.0859C9.64451 20.0864 9.64451 20.0864 9.82147 20.0869C9.94366 20.0869 10.0659 20.0869 10.188 20.0869C10.5208 20.0869 10.8535 20.0874 11.1862 20.088C11.5335 20.0886 11.8808 20.0886 12.2282 20.0887C12.8863 20.089 13.5445 20.0898 14.2026 20.0907C14.9518 20.0917 15.7009 20.0922 16.45 20.0926C17.9914 20.0936 19.5327 20.0952 21.0741 20.0971C21.0741 21.5835 21.0741 23.0698 21.0741 24.6012C16.9521 24.6012 12.83 24.6012 8.58301 24.6012C8.58301 20.102 8.58301 20.102 8.8776 20.0861Z"
        fill="#FEFBFB" />
    <path
        d="M8.67285 7.39551C11.4011 7.39551 14.1294 7.39551 16.9404 7.39551C16.9404 8.85212 16.9404 10.3087 16.9404 11.8095C14.2121 11.8095 11.4838 11.8095 8.67285 11.8095C8.67285 10.3529 8.67285 8.89626 8.67285 7.39551Z"
        fill="#FEFEFE" />
</svg>