<svg width="32" height="32" viewBox="0 0 32 32" fill="none" xmlns="http://www.w3.org/2000/svg">
    <g clip-path="url(#clip0_5559_395)">
        <path fill-rule="evenodd" clip-rule="evenodd"
            d="M-0.03125 -0.03125C10.6354 -0.03125 21.3021 -0.03125 31.9688 -0.03125C31.9688 10.6354 31.9688 21.3021 31.9688 31.9688C21.3021 31.9688 10.6354 31.9688 -0.03125 31.9688C-0.03125 21.3021 -0.03125 10.6354 -0.03125 -0.03125Z"
            fill="#F9F9F9" />
        <path fill-rule="evenodd" clip-rule="evenodd"
            d="M15.9062 3.28125C15.9062 3.34375 15.9062 3.40625 15.9062 3.46875C15.7421 3.50573 15.5754 3.52656 15.4062 3.53125C15.5696 3.44806 15.7363 3.36473 15.9062 3.28125Z"
            fill="#6D9DCC" />
        <path fill-rule="evenodd" clip-rule="evenodd"
            d="M15.9062 3.28125C16.5122 3.58394 17.1372 3.85477 17.7812 4.09375C17.8462 4.22069 17.9503 4.30403 18.0938 4.34375C18.4457 4.47806 18.779 4.64472 19.0938 4.84375C19.2395 4.9583 19.4062 5.04163 19.5938 5.09375C19.7051 5.27217 19.8717 5.35551 20.0938 5.34375C20.247 5.49386 20.4345 5.59802 20.6562 5.65625C21.2877 5.89911 21.8919 6.19078 22.4688 6.53125C22.7032 6.7735 22.9949 6.91931 23.3438 6.96875C23.8641 7.18731 24.3641 7.43731 24.8438 7.71875C24.8576 7.79594 24.8993 7.85844 24.9688 7.90625C25.2761 8.04969 25.5886 8.17469 25.9062 8.28125C26.0124 8.27125 26.1166 8.28163 26.2188 8.3125C26.4336 8.48206 26.6628 8.6175 26.9062 8.71875C27.1156 8.85831 27.3447 8.9625 27.5938 9.03125C27.6771 9.09375 27.7604 9.15625 27.8438 9.21875C27.7449 9.33144 27.6199 9.41475 27.4688 9.46875C27.1215 9.59 26.809 9.75669 26.5312 9.96875C25.8211 10.2725 25.1127 10.5954 24.4062 10.9375C24.2288 11.043 24.0621 11.1576 23.9062 11.2812C23.3854 11.4279 22.9063 11.6571 22.4688 11.9688C21.8673 12.3112 21.2423 12.6237 20.5938 12.9062C20.3871 12.9262 20.2204 13.0096 20.0938 13.1562C19.7459 13.3406 19.3918 13.5073 19.0312 13.6562C18.4146 13.9242 17.8105 14.2158 17.2188 14.5312C17.1493 14.5791 17.1076 14.6416 17.0938 14.7188C16.6784 14.8118 16.2826 14.9577 15.9062 15.1562C15.8443 15.167 15.8026 15.1461 15.7812 15.0938C15.6584 14.9367 15.4918 14.8534 15.2812 14.8438C14.0267 14.2894 12.7976 13.6852 11.5938 13.0312C11.5061 12.9418 11.4019 12.8689 11.2812 12.8125C11.2004 12.7819 11.1171 12.7714 11.0312 12.7812C10.2918 12.4219 9.56256 12.0469 8.84375 11.6562C8.698 11.483 8.5105 11.3788 8.28125 11.3438C7.613 10.9649 6.9255 10.6316 6.21875 10.3438C6.11343 10.1989 5.96759 10.1364 5.78125 10.1562C5.23081 9.87069 4.66831 9.59988 4.09375 9.34375C4.09375 9.28125 4.09375 9.21875 4.09375 9.15625C4.2064 9.09637 4.3314 9.05469 4.46875 9.03125C4.63127 8.97075 4.7771 8.88744 4.90625 8.78125C5.68164 8.35188 6.47331 7.95606 7.28125 7.59375C7.45038 7.58906 7.61706 7.56825 7.78125 7.53125C7.78125 7.46875 7.78125 7.40625 7.78125 7.34375C8.48981 6.98925 9.19813 6.63506 9.90625 6.28125C10.0935 6.23311 10.2602 6.14977 10.4062 6.03125C10.9754 5.76959 11.5379 5.49876 12.0938 5.21875C12.4089 5.1243 12.7214 5.02014 13.0312 4.90625C13.0312 4.84375 13.0312 4.78125 13.0312 4.71875C13.1426 4.64253 13.2676 4.60086 13.4062 4.59375C13.5272 4.55316 13.6522 4.53233 13.7812 4.53125C13.7812 4.46875 13.7812 4.40625 13.7812 4.34375C13.9437 4.21058 14.1312 4.12725 14.3438 4.09375C14.5066 4.08621 14.6316 4.02371 14.7188 3.90625C14.7188 3.86458 14.7396 3.84375 14.7812 3.84375C15.0111 3.77048 15.2194 3.66632 15.4062 3.53125C15.5754 3.52656 15.7421 3.50573 15.9062 3.46875C15.9062 3.40625 15.9062 3.34375 15.9062 3.28125Z"
            fill="#337DBB" />
        <path fill-rule="evenodd" clip-rule="evenodd"
            d="M15.4062 3.53125C15.2194 3.66632 15.0111 3.77048 14.7812 3.84375C14.9318 3.64344 15.1401 3.53927 15.4062 3.53125Z"
            fill="#CADCEC" />
        <path fill-rule="evenodd" clip-rule="evenodd"
            d="M14.7188 3.90625C14.6316 4.02371 14.5066 4.08621 14.3438 4.09375C14.4309 3.97629 14.5559 3.91379 14.7188 3.90625Z"
            fill="#7BA5D1" />
        <path fill-rule="evenodd" clip-rule="evenodd"
            d="M17.7812 4.09375C17.9266 4.13404 18.0308 4.21737 18.0938 4.34375C17.9503 4.30403 17.8462 4.22069 17.7812 4.09375Z"
            fill="#B8D0E5" />
        <path fill-rule="evenodd" clip-rule="evenodd"
            d="M13.7812 4.34375C13.7812 4.40625 13.7812 4.46875 13.7812 4.53125C13.6522 4.53233 13.5272 4.55316 13.4062 4.59375C13.4833 4.45022 13.6083 4.36689 13.7812 4.34375Z"
            fill="#6799CB" />
        <path fill-rule="evenodd" clip-rule="evenodd"
            d="M19.0938 4.84375C19.2409 4.86487 19.3867 4.89612 19.5312 4.9375C19.5782 4.97942 19.5991 5.03151 19.5938 5.09375C19.4062 5.04163 19.2395 4.9583 19.0938 4.84375Z"
            fill="#BBD0E6" />
        <path fill-rule="evenodd" clip-rule="evenodd"
            d="M13.0312 4.71875C13.0312 4.78125 13.0312 4.84375 13.0312 4.90625C12.7214 5.02014 12.4089 5.1243 12.0938 5.21875C12.4038 5.05249 12.7163 4.88583 13.0312 4.71875Z"
            fill="#6094C9" />
        <path fill-rule="evenodd" clip-rule="evenodd"
            d="M19.5938 5.09375C19.7803 5.14536 19.9469 5.22869 20.0938 5.34375C19.8717 5.35551 19.7051 5.27217 19.5938 5.09375Z"
            fill="#6C9DCB" />
        <path fill-rule="evenodd" clip-rule="evenodd"
            d="M20.0938 5.34375C20.3155 5.40198 20.503 5.50614 20.6562 5.65625C20.4345 5.59802 20.247 5.49386 20.0938 5.34375Z"
            fill="#6EA0CD" />
        <path fill-rule="evenodd" clip-rule="evenodd"
            d="M10.4062 6.03125C10.2602 6.14977 10.0935 6.23311 9.90622 6.28125C9.90085 6.21901 9.92172 6.16692 9.96872 6.125C10.1166 6.09753 10.2624 6.06628 10.4062 6.03125Z"
            fill="#BCD1E6" />
        <path fill-rule="evenodd" clip-rule="evenodd"
            d="M22.4688 6.53125C22.8013 6.61419 23.0929 6.76 23.3438 6.96875C22.9949 6.91931 22.7032 6.7735 22.4688 6.53125Z"
            fill="#6A9BCB" />
        <path fill-rule="evenodd" clip-rule="evenodd"
            d="M7.78125 7.34375C7.78125 7.40625 7.78125 7.46875 7.78125 7.53125C7.61706 7.56825 7.45038 7.58906 7.28125 7.59375C7.42806 7.47869 7.59469 7.39537 7.78125 7.34375Z"
            fill="#6799CA" />
        <path fill-rule="evenodd" clip-rule="evenodd"
            d="M24.8438 7.71875C25.2456 7.82581 25.5998 8.01331 25.9062 8.28125C25.5886 8.17469 25.2761 8.04969 24.9688 7.90625C24.8993 7.85844 24.8576 7.79594 24.8438 7.71875Z"
            fill="#5B91C6" />
        <path fill-rule="evenodd" clip-rule="evenodd"
            d="M26.9062 8.71875C27.1647 8.76306 27.3939 8.86719 27.5938 9.03125C27.3447 8.9625 27.1156 8.85831 26.9062 8.71875Z"
            fill="#B8D0E6" />
        <path fill-rule="evenodd" clip-rule="evenodd"
            d="M4.90625 8.78125C4.7771 8.88744 4.63127 8.97075 4.46875 9.03125C4.46875 8.96875 4.46875 8.90625 4.46875 8.84375C4.61893 8.847 4.76476 8.82619 4.90625 8.78125Z"
            fill="#82ADD4" />
        <path fill-rule="evenodd" clip-rule="evenodd"
            d="M4.09375 9.15625C4.09375 9.21875 4.09375 9.28125 4.09375 9.34375C4.66831 9.59988 5.23081 9.87069 5.78125 10.1562C5.90176 10.2684 6.0476 10.3309 6.21875 10.3438C6.9255 10.6316 7.613 10.9649 8.28125 11.3438C8.43869 11.5011 8.62619 11.6052 8.84375 11.6562C9.56256 12.0469 10.2918 12.4219 11.0312 12.7812C11.1908 12.9115 11.3783 12.9948 11.5938 13.0312C12.7976 13.6852 14.0267 14.2894 15.2812 14.8438C15.4079 14.9904 15.5746 15.0738 15.7812 15.0938C15.8026 15.1461 15.8443 15.167 15.9062 15.1562C15.9062 15.1771 15.9062 15.1979 15.9062 15.2188C15.9062 19.6979 15.9062 24.1771 15.9062 28.6562C15.8204 28.6661 15.7371 28.6556 15.6562 28.625C14.3099 27.9919 12.9766 27.3252 11.6562 26.625C11.5076 26.5931 11.3618 26.5514 11.2188 26.5C9.99238 25.7931 8.72156 25.1681 7.40625 24.625C6.68769 24.1869 5.93769 23.8015 5.15625 23.4688C4.83733 23.2624 4.53525 23.0332 4.25 22.7812C4.17689 22.5934 4.10397 22.4059 4.03125 22.2188C4.01042 20.0417 3.98958 17.8646 3.96875 15.6875C3.96876 13.4892 4.01043 11.3121 4.09375 9.15625Z"
            fill="#C7E6F9" />
        <path fill-rule="evenodd" clip-rule="evenodd"
            d="M27.8438 9.21875C27.9405 9.23881 27.9822 9.30131 27.9688 9.40625C27.9261 13.6885 27.8844 17.9802 27.8438 22.2812C27.8402 22.4621 27.7881 22.6288 27.6875 22.7812C27.5013 22.9153 27.3242 23.0611 27.1562 23.2188C25.937 23.8388 24.7078 24.4429 23.4688 25.0312C23.4134 25.0828 23.3926 25.1453 23.4062 25.2188C23.0863 25.2937 22.7738 25.3979 22.4688 25.5312C20.9482 26.3115 19.4274 27.0823 17.9062 27.8438C17.6845 27.902 17.497 28.0061 17.3438 28.1562C17.0084 28.251 16.6959 28.3968 16.4062 28.5938C16.2877 28.6541 16.1628 28.6749 16.0312 28.6562C16.0727 24.1557 16.0311 19.6766 15.9062 15.2188C15.9062 15.1979 15.9062 15.1771 15.9062 15.1562C16.2826 14.9577 16.6784 14.8118 17.0938 14.7188C17.0897 14.7461 17.1001 14.767 17.125 14.7812C17.2188 14.7292 17.2917 14.6562 17.3438 14.5625C17.5551 14.5515 17.7634 14.5203 17.9688 14.4688C18.0628 14.3849 18.1045 14.2807 18.0938 14.1562C18.4118 14.0702 18.7243 13.9661 19.0312 13.8438C19.0312 13.7812 19.0312 13.7188 19.0312 13.6562C19.3918 13.5073 19.7459 13.3406 20.0938 13.1562C20.3137 13.1713 20.4803 13.0879 20.5938 12.9062C21.2423 12.6237 21.8673 12.3112 22.4688 11.9688C22.7329 11.9295 22.9516 11.8461 23.125 11.7188C23.1458 11.7396 23.1667 11.7604 23.1875 11.7812C23.2166 11.6918 23.2687 11.6189 23.3438 11.5625C23.5692 11.5327 23.7567 11.439 23.9062 11.2812C24.0621 11.1576 24.2288 11.043 24.4062 10.9375C25.1127 10.5954 25.8211 10.2725 26.5312 9.96875C26.7327 9.89125 26.9306 9.80794 27.125 9.71875C27.1458 9.73956 27.1667 9.76044 27.1875 9.78125C27.2942 9.68519 27.3879 9.581 27.4688 9.46875C27.6199 9.41475 27.7449 9.33144 27.8438 9.21875Z"
            fill="#55C7EC" />
        <path fill-rule="evenodd" clip-rule="evenodd"
            d="M27.4688 9.46875C27.3879 9.581 27.2942 9.68519 27.1875 9.78125C27.1667 9.76044 27.1458 9.73956 27.125 9.71875C26.9306 9.80794 26.7327 9.89125 26.5312 9.96875C26.809 9.75669 27.1215 9.59 27.4688 9.46875Z"
            fill="#49A8D9" />
        <path fill-rule="evenodd" clip-rule="evenodd"
            d="M5.78125 10.1559C5.96759 10.1361 6.11343 10.1986 6.21875 10.3434C6.0476 10.3306 5.90176 10.2681 5.78125 10.1559Z"
            fill="#76AAD4" />
        <path fill-rule="evenodd" clip-rule="evenodd"
            d="M8.28125 11.3438C8.5105 11.3788 8.698 11.483 8.84375 11.6562C8.62619 11.6052 8.43869 11.5011 8.28125 11.3438Z"
            fill="#6299CA" />
        <path fill-rule="evenodd" clip-rule="evenodd"
            d="M23.9062 11.2812C23.7567 11.439 23.5692 11.5327 23.3438 11.5625C23.2687 11.6189 23.2166 11.6918 23.1875 11.7812C23.1667 11.7604 23.1458 11.7396 23.125 11.7188C22.9516 11.8461 22.7329 11.9295 22.4688 11.9688C22.9063 11.6571 23.3854 11.4279 23.9062 11.2812Z"
            fill="#49A8D9" />
        <path fill-rule="evenodd" clip-rule="evenodd"
            d="M11.0312 12.7809C11.1171 12.7711 11.2004 12.7815 11.2812 12.8122C11.4019 12.8685 11.5061 12.9415 11.5938 13.0309C11.3783 12.9945 11.1908 12.9112 11.0312 12.7809Z"
            fill="#74A9D2" />
        <path fill-rule="evenodd" clip-rule="evenodd"
            d="M20.5938 12.9062C20.4803 13.0879 20.3137 13.1713 20.0938 13.1562C20.2204 13.0096 20.3871 12.9262 20.5938 12.9062Z"
            fill="#48A7D8" />
        <path fill-rule="evenodd" clip-rule="evenodd"
            d="M27.9688 9.40625C27.9792 13.6771 27.9688 17.9479 27.9375 22.2188C27.9136 22.2535 27.8823 22.2743 27.8438 22.2812C27.8844 17.9802 27.9261 13.6885 27.9688 9.40625Z"
            fill="#6FCEED" />
        <path fill-rule="evenodd" clip-rule="evenodd"
            d="M19.0313 13.6562C19.0313 13.7188 19.0313 13.7812 19.0313 13.8438C18.7243 13.9661 18.4118 14.0702 18.0938 14.1562C18.1045 14.2807 18.0628 14.3849 17.9688 14.4688C17.7634 14.5203 17.5551 14.5515 17.3438 14.5625C17.2917 14.6562 17.2188 14.7292 17.125 14.7812C17.1001 14.767 17.0897 14.7461 17.0938 14.7188C17.1076 14.6416 17.1493 14.5791 17.2188 14.5312C17.8105 14.2158 18.4146 13.9242 19.0313 13.6562Z"
            fill="#4DB7E2" />
        <path fill-rule="evenodd" clip-rule="evenodd"
            d="M15.2812 14.8438C15.4918 14.8534 15.6584 14.9367 15.7812 15.0938C15.5746 15.0738 15.4079 14.9904 15.2812 14.8438Z"
            fill="#649ACC" />
        <path fill-rule="evenodd" clip-rule="evenodd"
            d="M15.9062 15.2188C16.0311 19.6766 16.0727 24.1557 16.0312 28.6562C15.9896 28.6562 15.9479 28.6562 15.9062 28.6562C15.9062 24.1771 15.9062 19.6979 15.9062 15.2188Z"
            fill="#97D8F2" />
        <path fill-rule="evenodd" clip-rule="evenodd"
            d="M17.9062 27.8438C17.7658 28.0246 17.5783 28.1288 17.3438 28.1562C17.497 28.0061 17.6845 27.902 17.9062 27.8438Z"
            fill="#C5EAF8" />
    </g>
    <defs>
        <clipPath id="clip0_5559_395">
            <rect width="32" height="32" fill="white" />
        </clipPath>
    </defs>
</svg>