<svg width="32" height="32" viewBox="0 0 32 32" fill="none" xmlns="http://www.w3.org/2000/svg">
    <g clip-path="url(#clip0_5851_142)">
        <path fill-rule="evenodd" clip-rule="evenodd"
            d="M10.8221 3.58293C10.8221 3.47449 10.8221 3.36604 10.8221 3.2576C11.0802 1.95189 11.7674 0.939765 12.8836 0.221215C12.9692 0.190548 13.0416 0.136327 13.1006 0.0585517C10.2973 -0.0314663 7.51254 -0.0133889 4.74611 0.112773C3.74297 0.298589 2.92922 0.804657 2.30486 1.63097C1.98631 2.17045 1.7874 2.74881 1.70811 3.36604C1.67195 3.36604 1.63577 3.36604 1.59961 3.36604C1.75327 1.70405 2.62127 0.601544 4.20361 0.0585517C7.3449 -0.118632 10.4914 -0.154787 13.6431 -0.0498906C12.1458 0.740318 11.2054 1.95126 10.8221 3.58293Z"
            fill="#E0E1E7" />
        <path fill-rule="evenodd" clip-rule="evenodd"
            d="M17.2236 0.00377091C18.6337 -0.0685168 20.0622 -0.104661 21.5094 -0.104671C23.159 -0.11724 24.8046 -0.0630188 26.4461 0.0579921C27.6025 0.292477 28.1088 0.997352 27.9651 2.17262C26.6187 2.59109 25.2805 3.04292 23.9506 3.52815C22.6129 3.58236 21.2748 3.60042 19.9361 3.58237C19.6503 1.92289 18.7461 0.73002 17.2236 0.00377091Z"
            fill="#DCDDE4" />
        <path fill-rule="evenodd" clip-rule="evenodd"
            d="M4.74609 0.112431C7.51252 -0.0137686 10.2973 -0.0318513 13.1006 0.0581935C13.0416 0.135991 12.9692 0.190229 12.8836 0.220905C10.1898 0.11268 7.47726 0.0765257 4.74609 0.112431Z"
            fill="#4E5F7F" />
        <path fill-rule="evenodd" clip-rule="evenodd"
            d="M25.4701 0.112407C22.9558 0.0765237 20.4603 0.112678 17.9836 0.220882C17.898 0.190205 17.8256 0.135968 17.7666 0.0581698C20.3529 -0.0318424 22.9208 -0.0137597 25.4701 0.112407Z"
            fill="#4E5F7F" />
        <path fill-rule="evenodd" clip-rule="evenodd"
            d="M4.74565 0.113023C7.47682 0.0771286 10.1893 0.113272 12.8832 0.221465C11.7669 0.940015 11.0798 1.95214 10.8217 3.25785C8.91314 3.36474 6.99627 3.40089 5.07116 3.36629C5.03513 9.89116 5.07126 16.3977 5.17966 22.8859C6.44553 22.8859 7.71129 22.8859 8.97716 22.8859C7.88076 23.9274 6.79576 24.9937 5.72216 26.085C3.76073 26.2795 2.45873 25.4301 1.81615 23.5366C1.70809 16.8208 1.67192 10.0974 1.70765 3.36629C1.78695 2.74906 1.98586 2.1707 2.3044 1.63122C2.92877 0.804907 3.74252 0.298839 4.74565 0.113023Z"
            fill="#0D3E64" />
        <path fill-rule="evenodd" clip-rule="evenodd"
            d="M25.4699 0.113011C26.1321 0.110929 26.7468 0.273592 27.3144 0.601002C27.7468 0.992912 27.8914 1.46283 27.7484 2.01075C26.4394 2.45894 25.1374 2.92887 23.8424 3.4205C22.5771 3.47471 21.3112 3.49278 20.0449 3.47472C19.7939 2.10372 19.1068 1.0193 17.9834 0.221453C20.4601 0.113282 22.9556 0.0771381 25.4699 0.113011Z"
            fill="#123F65" />
        <path fill-rule="evenodd" clip-rule="evenodd"
            d="M1.59944 3.36621C1.63559 3.36621 1.67176 3.36621 1.70791 3.36621C1.67219 10.0973 1.70835 16.8208 1.81639 23.5365C1.78024 23.5365 1.74407 23.5365 1.70791 23.5365C1.59954 16.8314 1.56338 10.108 1.59944 3.36621Z"
            fill="#F9F9F9" />
        <path fill-rule="evenodd" clip-rule="evenodd"
            d="M10.8226 3.25781C10.8226 3.36625 10.8226 3.4747 10.8226 3.58314C8.97808 3.58314 7.13358 3.58314 5.28908 3.58314C5.18069 9.99902 5.14456 16.4333 5.18058 22.8859C5.07219 16.3977 5.03606 9.89112 5.07208 3.36625C6.9972 3.40085 8.91407 3.3647 10.8226 3.25781Z"
            fill="#B6B7C6" />
        <path fill-rule="evenodd" clip-rule="evenodd"
            d="M5.28898 3.58301C5.28898 9.98111 5.28898 16.3792 5.28898 22.7773C6.66378 22.7592 8.03815 22.7773 9.41198 22.8315C9.35296 22.9093 9.28059 22.9635 9.19498 22.9942C9.15787 22.9033 9.08561 22.8671 8.97798 22.8858C7.71211 22.8858 6.44635 22.8858 5.18048 22.8858C5.14446 16.4332 5.18059 9.99889 5.28898 3.58301Z"
            fill="#F9FAF9" />
        <path fill-rule="evenodd" clip-rule="evenodd"
            d="M28.6162 2.82411C29.1599 2.80612 29.7024 2.82419 30.2437 2.87834C30.8408 3.03279 31.0397 3.37619 30.8404 3.90854C27.8928 6.27619 24.9453 8.64389 21.9977 11.0115C20.7499 12.3309 19.5022 13.6502 18.2544 14.9697C17.8217 15.673 17.4058 16.3779 17.0067 17.0843C15.814 17.2805 14.6205 17.4251 13.4262 17.5181C12.6626 16.0336 11.8128 14.6057 10.8764 13.2346C9.71904 11.7887 8.56178 10.3428 7.40441 8.89689C7.39454 7.6048 8.02753 6.82758 9.30316 6.56538C10.1466 6.3221 10.8158 6.55706 11.3104 7.27025C12.6556 8.91109 13.9214 10.6101 15.1079 12.367C17.0107 9.99541 19.1626 7.88078 21.5637 6.02316C23.7331 4.54112 26.084 3.47477 28.6162 2.82411Z"
            fill="#E7F2EC" />
        <path fill-rule="evenodd" clip-rule="evenodd"
            d="M28.7248 2.9325C29.1964 2.91453 29.6665 2.93261 30.1353 2.98672C30.5465 3.07025 30.7454 3.30522 30.7321 3.6916C27.9244 6.02806 25.0853 8.32339 22.2148 10.5777C20.5639 12.166 19.0268 13.8469 17.6036 15.6203C17.3864 16.0369 17.2236 16.4707 17.1153 16.9216C16.0438 17.0261 14.9768 17.1707 13.9146 17.3553C13.7518 17.3192 13.5891 17.283 13.4263 17.2469C11.8918 14.2146 9.95681 11.4675 7.62157 9.00527C7.53281 7.89851 8.02106 7.1575 9.08632 6.7822C9.59084 6.57514 10.0971 6.57514 10.6053 6.7822C12.2247 8.66455 13.7256 10.6345 15.1081 12.6923C16.9707 10.2524 19.1226 8.10162 21.5638 6.23999C23.7756 4.75045 26.1626 3.64796 28.7248 2.9325Z"
            fill="#17AF76" />
        <path fill-rule="evenodd" clip-rule="evenodd"
            d="M14.5116 0.330012C16.8831 0.0467609 18.4563 1.02274 19.2313 3.25796C19.6148 5.7282 18.6203 7.3368 16.2476 8.08364C12.9913 8.26301 11.418 6.72676 11.5278 3.47484C11.9165 1.83957 12.9111 0.791294 14.5116 0.330012Z"
            fill="#E8F2EC" />
        <path fill-rule="evenodd" clip-rule="evenodd"
            d="M14.7281 0.4375C17.7117 0.437261 19.1765 1.91931 19.1224 4.88364C18.5137 7.04602 17.0851 8.07618 14.8366 7.97425C12.5533 7.39158 11.4863 5.92766 11.6359 3.58233C12.0352 1.89998 13.066 0.851696 14.7281 0.4375Z"
            fill="#18AF76" />
        <path fill-rule="evenodd" clip-rule="evenodd"
            d="M27.9651 7.16113C28.0915 12.6011 28.1096 18.0594 28.0193 23.5359C27.4787 25.305 26.2852 26.2809 24.4388 26.4639C24.2143 26.3804 24.0336 26.2358 23.8963 26.0301C23.0695 24.9736 22.2557 23.9071 21.4551 22.8311C22.4309 22.7768 23.4074 22.7588 24.3846 22.7768C24.3665 18.5113 24.3846 14.2459 24.4388 9.98063C25.6033 9.0143 26.7787 8.07454 27.9651 7.16113Z"
            fill="#E6E8ED" />
        <path fill-rule="evenodd" clip-rule="evenodd"
            d="M27.7478 7.48633C27.8924 10.0517 27.9648 12.6544 27.9648 15.2942C27.9799 18.1174 27.9256 20.9369 27.802 23.7527C27.183 25.3891 26.0075 26.2024 24.2758 26.1926C23.4232 25.1418 22.5914 24.0755 21.7803 22.9936C22.7178 22.8854 23.6582 22.8493 24.6013 22.8851C24.5832 18.5835 24.6013 14.2819 24.6555 9.9805C25.7067 9.16382 26.7374 8.3325 27.7478 7.48633Z"
            fill="#0D3E64" />
        <path fill-rule="evenodd" clip-rule="evenodd"
            d="M16.7899 17.8968C17.0033 17.8709 17.2023 17.907 17.3866 18.0052C17.9915 19.2512 18.6787 20.4441 19.4481 21.5838C20.6726 23.2056 21.9385 24.796 23.2456 26.3553C23.391 27.6964 22.7942 28.5458 21.4554 28.9037C20.8838 29.0195 20.3413 28.9472 19.8279 28.6868C18.3937 26.8559 17.0012 24.9942 15.6506 23.102C14.643 24.4347 13.5941 25.736 12.5041 27.006C10.8915 28.5813 9.02884 29.7923 6.91635 30.6388C5.47937 31.3524 3.9604 31.7681 2.35934 31.8859C1.90532 31.9215 1.52556 31.777 1.22009 31.4521C1.14277 31.1295 1.23319 30.8584 1.49134 30.6388C4.10909 28.4926 6.69501 26.3056 9.2491 24.078C10.2296 23.062 11.17 22.0138 12.0701 20.9332C12.6639 20.1255 13.1883 19.2761 13.6434 18.3848C14.7113 18.2454 15.7601 18.0828 16.7899 17.8968Z"
            fill="#DFE0E7" />
        <path fill-rule="evenodd" clip-rule="evenodd"
            d="M16.2476 18.1141C16.6031 18.0833 16.9466 18.1195 17.2783 18.2226C17.8472 19.3965 18.4982 20.517 19.2313 21.5843C20.4558 23.2061 21.7217 24.7965 23.0288 26.3558C23.2486 27.1672 23.0135 27.8359 22.3236 28.362C21.6427 28.7947 20.9195 28.9032 20.1536 28.6873C18.5278 26.8097 17.0268 24.8396 15.6508 22.7772C14.3275 24.6051 12.8628 26.322 11.2566 27.9282C9.27383 29.3891 7.10383 30.5097 4.74655 31.2899C3.72312 31.6351 2.67428 31.7435 1.60005 31.6152C1.40205 31.4562 1.3478 31.2575 1.4373 31.0188C2.94026 29.6091 4.51351 28.2897 6.15705 27.0606C8.56619 25.1228 10.7181 22.9358 12.6128 20.4999C13.0353 19.8541 13.4151 19.1853 13.7521 18.4937C14.6027 18.388 15.4346 18.2614 16.2476 18.1141Z"
            fill="#0F3F64" />
        <path fill-rule="evenodd" clip-rule="evenodd"
            d="M8.97751 22.8856C9.08514 22.867 9.15741 22.9032 9.19451 22.9941C8.02249 24.1471 6.82899 25.2858 5.61401 26.41C4.0155 26.4385 2.80391 25.7697 1.97926 24.4038C1.83377 24.1303 1.74335 23.8411 1.70801 23.5363C1.74417 23.5363 1.78034 23.5363 1.81651 23.5363C2.45909 25.4298 3.76109 26.2792 5.72251 26.0847C6.79612 24.9934 7.88112 23.9271 8.97751 22.8856Z"
            fill="#E4E6EB" />
    </g>
    <defs>
        <clipPath id="clip0_5851_142">
            <rect width="32" height="32" fill="white" />
        </clipPath>
    </defs>
</svg>