<svg width="32" height="32" viewBox="0 0 32 32" fill="none" xmlns="http://www.w3.org/2000/svg">
    <path
        d="M32 16C32 7.16345 24.8366 0 16 0C7.16341 0 0 7.16345 0 16C0 24.8366 7.16341 32 16 32C24.8366 32 32 24.8366 32 16Z"
        fill="#0079FF" />
    <path
        d="M16 5.86621C21.5964 5.86621 26.1334 10.3985 26.1334 15.9896C26.1334 21.5808 21.5965 26.1131 16 26.1131C14.9897 26.1131 14.0142 25.9648 13.0934 25.6897L9.64309 27.7329V23.873C7.3402 22.0172 5.86664 19.1756 5.86664 15.9897C5.86664 10.3987 10.4035 5.86621 16 5.86621ZM20.9054 17.6246C20.5927 17.5288 20.2635 17.7164 20.1713 18.032C19.6335 19.8975 17.9184 21.2004 16.0001 21.2004C14.0817 21.2004 12.3653 19.8974 11.8281 18.032C11.7366 17.7164 11.4115 17.5289 11.0935 17.6246C10.7787 17.7177 10.5991 18.0509 10.6905 18.3679C11.3739 20.7405 13.5583 22.3995 16 22.3995C18.4419 22.3995 20.6249 20.7405 21.3097 18.3679C21.4011 18.0509 21.22 17.7177 20.9054 17.6246Z"
        fill="url(#paint0_linear_5562_639)" />
    <defs>
        <linearGradient id="paint0_linear_5562_639" x1="9.00152" y1="9.54663" x2="23.8891"
            y2="21.4439" gradientUnits="userSpaceOnUse">
            <stop stop-color="white" />
            <stop offset="1" stop-color="#E8F3FF" />
        </linearGradient>
    </defs>
</svg>