<svg width="32" height="32" viewBox="0 0 32 32" fill="none" xmlns="http://www.w3.org/2000/svg">
    <g clip-path="url(#clip0_5642_113)">
        <path fill-rule="evenodd" clip-rule="evenodd"
            d="M-0.0888672 -0.0888672C10.5778 -0.0888672 21.2445 -0.0888672 31.9111 -0.0888672C31.9111 10.5778 31.9111 21.2445 31.9111 31.9111C21.2445 31.9111 10.5778 31.9111 -0.0888672 31.9111C-0.0888672 21.2445 -0.0888672 10.5778 -0.0888672 -0.0888672Z"
            fill="#F9F9F9" />
        <path fill-rule="evenodd" clip-rule="evenodd"
            d="M23.7329 4.71089C24.2628 4.65443 24.6778 4.83221 24.9773 5.24422C25.2123 8.67598 25.2123 12.113 24.9773 15.5553C24.7974 15.9777 24.4715 16.1555 23.9995 16.0887C23.5275 16.1555 23.2017 15.9777 23.0218 15.5553C22.9224 14.9432 22.6852 14.4099 22.3106 13.9553C21.684 12.8823 20.8545 11.9935 19.8218 11.2887C19.5492 10.9784 19.1937 10.8007 18.7551 10.7553C18.4957 10.7673 18.2587 10.7081 18.044 10.5776C17.9697 10.4493 17.8513 10.3604 17.6884 10.3109C16.444 10.1924 15.1995 10.1924 13.9551 10.3109C13.8562 10.3789 13.797 10.4678 13.7773 10.5776C12.9273 10.7132 12.2162 11.0688 11.644 11.6442C11.1837 11.8077 10.8281 12.104 10.5773 12.5331C9.63153 13.5353 9.00931 14.7205 8.71064 16.0887C8.19818 16.584 7.63521 16.7026 7.02175 16.4442C6.70186 15.9101 6.58333 15.3175 6.6662 14.6664C6.74988 14.2969 6.86838 13.9414 7.02175 13.5998C7.6215 13.0237 8.03631 12.3126 8.2662 11.4664C8.8769 10.7664 9.52876 10.0849 10.2218 9.422C11.058 8.91608 11.9469 8.53089 12.8884 8.26645C13.3916 8.18417 13.8657 8.06565 14.3106 7.91089C15.5298 7.6908 16.7743 7.6908 18.044 7.91089C18.6554 8.21388 19.3071 8.45091 19.9995 8.622C20.9178 8.94867 21.6882 9.482 22.3106 10.222C22.4367 10.3827 22.6145 10.442 22.844 10.3998C22.9915 8.77174 23.0804 7.11249 23.1106 5.422C23.3553 5.20776 23.5626 4.97073 23.7329 4.71089Z"
            fill="#1D414D" />
        <path fill-rule="evenodd" clip-rule="evenodd"
            d="M22.8449 5.42236C22.8449 7.08162 22.8449 8.74089 22.8449 10.4001C22.6153 10.4423 22.4376 10.3831 22.3115 10.2224C22.6059 8.66021 22.7837 7.06021 22.8449 5.42236Z"
            fill="#869E9E" />
        <path fill-rule="evenodd" clip-rule="evenodd"
            d="M23.7336 4.71094C23.5633 4.97078 23.356 5.20781 23.1114 5.42205C23.0812 7.11254 22.9923 8.77179 22.8447 10.3998C22.8447 8.74057 22.8447 7.0813 22.8447 5.42205C23.0376 5.05104 23.3338 4.81401 23.7336 4.71094Z"
            fill="#40626A" />
        <path fill-rule="evenodd" clip-rule="evenodd"
            d="M24.9775 5.24463C25.2143 6.89965 25.3329 8.61816 25.3331 10.4002C25.3329 12.1822 25.2143 13.9007 24.9775 15.5557C25.2126 12.1134 25.2126 8.67638 24.9775 5.24463Z"
            fill="#8D9FA5" />
        <path fill-rule="evenodd" clip-rule="evenodd"
            d="M14.3109 7.91117C13.8659 8.06592 13.3918 8.18445 12.8887 8.26672C12.9084 8.15696 12.9676 8.06807 13.0664 8.00005C13.4771 7.91177 13.8919 7.88213 14.3109 7.91117Z"
            fill="#82979C" />
        <path fill-rule="evenodd" clip-rule="evenodd"
            d="M18.0449 7.91113C18.5903 7.91944 19.1237 8.00832 19.6449 8.1778C19.8015 8.30372 19.9199 8.45186 20.0005 8.62224C19.308 8.45115 18.6563 8.21412 18.0449 7.91113Z"
            fill="#B6C1C5" />
        <path fill-rule="evenodd" clip-rule="evenodd"
            d="M18.044 10.5777C16.6183 10.3535 15.196 10.3535 13.7773 10.5777C13.797 10.468 13.8563 10.3791 13.9551 10.3111C15.1996 10.1925 16.444 10.1925 17.6885 10.3111C17.8513 10.3606 17.9697 10.4494 18.044 10.5777Z"
            fill="#92A4A7" />
        <path fill-rule="evenodd" clip-rule="evenodd"
            d="M18.7559 10.7554C19.1944 10.8007 19.55 10.9785 19.8225 11.2887C19.3839 11.2434 19.0284 11.0656 18.7559 10.7554Z"
            fill="#668185" />
        <path fill-rule="evenodd" clip-rule="evenodd"
            d="M11.6448 11.6445C11.394 12.0737 11.0384 12.37 10.5781 12.5334C10.8289 12.1043 11.1845 11.808 11.6448 11.6445Z"
            fill="#A7B4B9" />
        <path fill-rule="evenodd" clip-rule="evenodd"
            d="M8.26691 11.4668C8.03702 12.313 7.62221 13.0241 7.02246 13.6001C7.2911 12.7995 7.70591 12.0883 8.26691 11.4668Z"
            fill="#698287" />
        <path fill-rule="evenodd" clip-rule="evenodd"
            d="M22.3115 13.9556C22.6861 14.4101 22.9233 14.9434 23.0226 15.5556C22.6241 15.0966 22.3869 14.5632 22.3115 13.9556Z"
            fill="#698287" />
        <path fill-rule="evenodd" clip-rule="evenodd"
            d="M6.667 14.6665C6.58414 15.3175 6.70267 15.9101 7.02256 16.4443C6.84551 16.4595 6.69737 16.4003 6.57811 16.2665C6.43509 15.6982 6.46473 15.1649 6.667 14.6665Z"
            fill="#8A9DA3" />
        <path fill-rule="evenodd" clip-rule="evenodd"
            d="M12.3557 16.0889C14.3171 15.834 15.1763 16.6636 14.9334 18.5778C13.9109 19.851 12.8442 19.9102 11.7334 18.7555C11.2611 17.7042 11.4686 16.8153 12.3557 16.0889Z"
            fill="#25D286" />
        <path fill-rule="evenodd" clip-rule="evenodd"
            d="M19.6441 16.4444C18.8479 16.1858 18.0775 16.245 17.333 16.6222C17.3468 16.4 17.4653 16.2519 17.6886 16.1778C18.2811 16.0592 18.8738 16.0592 19.4663 16.1778C19.5652 16.2458 19.6244 16.3347 19.6441 16.4444Z"
            fill="#6FE3AE" />
        <path fill-rule="evenodd" clip-rule="evenodd"
            d="M19.6443 16.4445C20.2803 16.8715 20.4878 17.4641 20.2665 18.2222C19.3225 19.9694 18.1964 20.0878 16.8887 18.5778C16.7702 18.0445 16.7702 17.5111 16.8887 16.9778C17.0146 16.8213 17.1628 16.7027 17.3331 16.6222C18.0777 16.2451 18.848 16.1858 19.6443 16.4445Z"
            fill="#22D184" />
        <path fill-rule="evenodd" clip-rule="evenodd"
            d="M24.9781 18.5779C23.9276 18.1361 23.2165 18.4325 22.8447 19.4668C22.9795 18.2918 23.6314 17.9066 24.8003 18.3112C24.8991 18.3793 24.9583 18.4682 24.9781 18.5779Z"
            fill="#70E3B2" />
        <path fill-rule="evenodd" clip-rule="evenodd"
            d="M22.8448 19.4667C23.2165 18.4324 23.9277 18.136 24.9781 18.5778C25.0967 18.5778 25.1559 18.637 25.1559 18.7556C25.1874 19.4194 25.1282 20.0713 24.9781 20.7111C23.6685 24.1819 21.1796 26.2855 17.5115 27.0223C11.8849 27.4409 8.21086 24.9817 6.48926 19.6445C6.65251 18.4416 7.30437 18.0861 8.44481 18.5778C8.58053 18.7945 8.75831 18.9723 8.97815 19.1111C9.92938 22.405 12.0923 24.242 15.467 24.6223C19.0887 24.5213 21.5479 22.8029 22.8448 19.4667Z"
            fill="#1BD082" />
        <path fill-rule="evenodd" clip-rule="evenodd"
            d="M25.1553 18.7554C25.3582 19.3136 25.3879 19.9061 25.2442 20.5331C25.1761 20.632 25.0872 20.6912 24.9775 20.7109C25.1276 20.0711 25.1868 19.4192 25.1553 18.7554Z"
            fill="#89E7C0" />
    </g>
    <defs>
        <clipPath id="clip0_5642_113">
            <rect width="32" height="32" fill="white" />
        </clipPath>
    </defs>
</svg>