<svg width="32" height="32" viewBox="0 0 32 32" fill="none" xmlns="http://www.w3.org/2000/svg">
    <g clip-path="url(#clip0_5625_615)">
        <path fill-rule="evenodd" clip-rule="evenodd"
            d="M-0.0710449 -0.0712891C10.5956 -0.0712891 21.2623 -0.0712891 31.929 -0.0712891C31.929 10.5954 31.929 21.262 31.929 31.9287C21.2623 31.9287 10.5956 31.9287 -0.0710449 31.9287C-0.0710449 21.262 -0.0710449 10.5954 -0.0710449 -0.0712891Z"
            fill="#B5A1F2" />
        <path fill-rule="evenodd" clip-rule="evenodd"
            d="M17.5645 11.3063C19.283 12.4808 21.0845 13.5238 22.969 14.4352C23.1586 15.4307 23.1586 16.4263 22.969 17.4218C22.495 17.6589 22.0208 17.8959 21.5468 18.1329C21.3572 18.1329 21.1675 18.1329 20.9779 18.1329C21.0235 17.347 20.9762 16.5884 20.8357 15.8574C18.3947 14.5185 15.9769 13.1437 13.5823 11.7329C13.1486 11.4212 12.6745 11.1842 12.1601 11.0218C12.0313 10.8135 11.8417 10.6713 11.5912 10.5952C11.1152 10.8357 10.6411 11.0727 10.169 11.3063C9.93194 11.3063 9.69492 11.3063 9.45787 11.3063C9.41824 10.5817 9.46564 9.87058 9.6001 9.17294C9.66449 9.03663 9.75931 8.91812 9.88454 8.81738C10.3983 8.65532 10.8724 8.41829 11.3068 8.10627C11.4964 8.01145 11.686 8.01145 11.8757 8.10627C13.7152 9.28645 15.6115 10.3531 17.5645 11.3063Z"
            fill="#030208" />
        <path fill-rule="evenodd" clip-rule="evenodd"
            d="M17.5645 11.3071C15.6115 10.3539 13.7151 9.28724 11.8756 8.10707C11.686 8.01225 11.4963 8.01225 11.3067 8.10707C10.8723 8.41909 10.3982 8.65612 9.8845 8.81818C9.75927 8.91892 9.66445 9.03743 9.60005 9.17374C9.41257 9.56591 9.31777 10.0163 9.31561 10.5248C9.33931 10.9752 9.36301 11.4256 9.38672 11.876C9.69491 11.7354 9.95565 11.5458 10.1689 11.3071C10.641 11.0735 11.1151 10.8365 11.5912 10.596C11.8416 10.6721 12.0312 10.8143 12.1601 11.0226C11.8608 10.9801 11.5764 11.0275 11.3067 11.1648C11.0057 11.6517 10.6027 12.031 10.0978 12.3026C9.70326 12.1339 9.324 11.9442 8.96005 11.7337C8.84188 10.7821 8.86559 9.8339 9.03116 8.88929C9.17338 8.81818 9.31561 8.74707 9.45783 8.67596C9.3781 8.45331 9.47292 8.26367 9.74227 8.10707C11.105 7.54678 12.3376 7.76012 13.4401 8.74707C13.7624 8.86287 14.0942 8.93398 14.4356 8.9604C14.5711 9.23848 14.7609 9.4755 15.0045 9.67151C15.7138 10.0972 16.4724 10.4053 17.2801 10.596C17.4311 10.8124 17.526 11.0494 17.5645 11.3071Z"
            fill="#AB9DD7" />
        <path fill-rule="evenodd" clip-rule="evenodd"
            d="M9.60012 9.17285C9.46566 9.87049 9.41826 10.5816 9.4579 11.3062C9.69494 11.3062 9.93197 11.3062 10.169 11.3062C9.95572 11.5449 9.69498 11.7345 9.38678 11.8751C9.36308 11.4247 9.33938 10.9743 9.31567 10.524C9.31784 10.0154 9.41264 9.56503 9.60012 9.17285Z"
            fill="#0A0622" />
        <path fill-rule="evenodd" clip-rule="evenodd"
            d="M17.5645 11.3066C18.558 11.4633 19.4114 11.89 20.1245 12.5866C20.8172 12.7474 21.4335 13.0556 21.9733 13.5111C22.7156 13.4277 23.1423 13.7358 23.2533 14.4355C23.1585 14.4355 23.0638 14.4355 22.9689 14.4355C21.0845 13.5242 19.2829 12.4812 17.5645 11.3066Z"
            fill="#AEA1D8" />
        <path fill-rule="evenodd" clip-rule="evenodd"
            d="M12.0177 13.44C11.8637 13.4344 11.7214 13.387 11.591 13.2978C10.8446 13.7065 10.1098 14.1332 9.3866 14.5778C9.31558 15.3823 9.29187 16.1883 9.31549 16.9956C9.17327 16.9956 9.03105 16.9956 8.88882 16.9956C8.84193 16.0899 8.88935 15.1891 9.03105 14.2933C9.48235 14.0397 9.95642 13.8264 10.4533 13.6533C10.6994 13.0938 11.1261 12.9042 11.7333 13.0845C11.9119 13.1437 12.0067 13.2623 12.0177 13.44Z"
            fill="#AE9ED9" />
        <path fill-rule="evenodd" clip-rule="evenodd"
            d="M12.0178 13.4404C12.4179 13.4473 12.7971 13.5421 13.1556 13.7249C13.756 14.0777 14.2776 14.5044 14.72 15.0049C13.7789 14.5344 12.8782 14.013 12.0178 13.4404Z"
            fill="#A9A0D0" />
        <path fill-rule="evenodd" clip-rule="evenodd"
            d="M12.0177 13.4401C12.8781 14.0126 13.7788 14.534 14.7199 15.0045C15.9049 15.787 17.1376 16.4981 18.4177 17.1379C18.4651 17.1379 18.5126 17.1379 18.5599 17.1379C18.6069 18.0907 18.5595 19.0388 18.4177 19.9823C18.2185 20.1275 18.0287 20.2697 17.8488 20.409C17.4998 20.5124 17.168 20.6546 16.8533 20.8356C16.6692 20.6155 16.5744 20.331 16.5688 19.9823C16.5772 19.6422 16.6247 19.3103 16.711 18.9867C16.4829 18.7479 16.3881 18.4635 16.4266 18.1334C16.0918 18.0853 15.76 18.0142 15.431 17.9201C15.546 17.8763 15.6408 17.8052 15.7155 17.7067C15.3915 17.6051 15.2019 17.4391 15.1466 17.209C14.4709 17.0841 13.8072 16.9181 13.1555 16.7112C12.6576 16.4388 12.1362 16.2017 11.591 16.0001C10.8774 16.309 10.2137 16.6883 9.59993 17.1379C9.4589 17.1623 9.36408 17.1148 9.31548 16.9956C9.29186 16.1884 9.31557 15.3824 9.38659 14.5779C10.1098 14.1332 10.8446 13.7066 11.591 13.2979C11.7214 13.3871 11.8637 13.4345 12.0177 13.4401Z"
            fill="#030207" />
        <path fill-rule="evenodd" clip-rule="evenodd"
            d="M14.72 15.0043C15.2597 14.993 15.6864 15.2063 16 15.6443C16.2844 15.6917 16.5689 15.7392 16.8533 15.7866C16.9423 15.8932 17.0134 16.0118 17.0666 16.1421C17.114 16.0948 17.1615 16.0473 17.2089 15.9999C17.2621 16.1302 17.3332 16.2488 17.4222 16.3554C17.9396 16.4197 18.2715 16.6806 18.4177 17.1377C17.1376 16.498 15.905 15.7868 14.72 15.0043Z"
            fill="#A798CE" />
        <path fill-rule="evenodd" clip-rule="evenodd"
            d="M13.1557 16.7111C13.8423 17.2204 14.5534 17.6946 15.289 18.1333C14.7268 18.1114 14.2053 17.9692 13.7245 17.7067C13.6896 17.2843 13.4526 17.0947 13.0134 17.1378C12.2112 16.3351 11.3579 16.2166 10.4534 16.7822C10.2826 16.9106 10.164 17.0765 10.0979 17.28C9.95405 17.161 9.78813 17.1136 9.6001 17.1378C10.2139 16.6882 10.8776 16.3089 11.5912 16C12.1363 16.2017 12.6578 16.4388 13.1557 16.7111Z"
            fill="#AA9FD1" />
        <path fill-rule="evenodd" clip-rule="evenodd"
            d="M13.0133 17.1378C13.4524 17.0947 13.6894 17.2843 13.7244 17.7067C14.2052 17.9693 14.7266 18.1115 15.2888 18.1334C15.6136 18.2009 15.8981 18.3432 16.1421 18.56C16.0952 19.4657 16.1427 20.3666 16.2844 21.2623C16.3707 21.2446 16.4181 21.1973 16.4266 21.12C16.5987 21.0586 16.7409 20.9637 16.8533 20.8356C17.168 20.6546 17.4998 20.5123 17.8488 20.4089C17.8488 20.646 17.8488 20.883 17.8488 21.12C17.5415 21.1664 17.2808 21.3086 17.0666 21.5467C16.7517 21.1474 16.5384 21.1947 16.4266 21.6889C16.4636 21.9289 16.5584 22.1422 16.711 22.3289C16.3506 22.4023 16.0426 22.5683 15.7866 22.8267C15.5805 22.0472 15.5094 21.2412 15.5733 20.4089C15.3837 20.4089 15.194 20.4089 15.0044 20.4089C15.0509 21.1263 15.0035 21.8374 14.8621 22.5423C14.6829 21.6373 14.7067 20.7366 14.9333 19.84C15.1941 19.6985 15.3601 19.4852 15.431 19.2C15.3437 18.9814 15.3437 18.7919 15.431 18.6312C15.2722 18.3621 15.0351 18.2436 14.7199 18.2756C14.6285 18.6774 14.4388 19.0329 14.151 19.3423C14.2165 19.5273 14.264 19.7169 14.2933 19.9112C14.2601 20.8919 14.118 21.8164 13.8666 22.6845C13.9135 21.7316 13.8661 20.7835 13.7244 19.84C13.3752 19.5845 12.9959 19.3949 12.5866 19.2712C12.2544 18.8921 11.8278 18.7026 11.3066 18.7023C10.9787 18.7724 10.6468 18.8197 10.311 18.8445C10.5007 18.6407 10.714 18.451 10.951 18.2756C11.0217 17.9471 11.0454 17.6153 11.0221 17.28C11.9357 17.1091 12.6942 17.3698 13.2977 18.0623C12.91 18.0882 12.5307 18.1593 12.1599 18.2756C12.1836 18.323 12.2073 18.3705 12.231 18.4178C12.8338 18.5977 13.4264 18.7873 14.0088 18.9867C13.9995 18.1988 13.6676 17.5826 13.0133 17.1378Z"
            fill="#B2A1E4" />
        <path fill-rule="evenodd" clip-rule="evenodd"
            d="M13.1555 16.7109C13.8072 16.9179 14.4709 17.0838 15.1466 17.2087C15.202 17.4388 15.3915 17.6048 15.7155 17.7065C15.6409 17.8049 15.546 17.876 15.4311 17.9198C15.76 18.014 16.0918 18.0851 16.4266 18.1332C16.3881 18.4633 16.4829 18.7477 16.7111 18.9865C16.6247 19.31 16.5772 19.642 16.5689 19.982C16.5744 20.3308 16.6693 20.6152 16.8533 20.8354C16.7409 20.9635 16.5987 21.0584 16.4266 21.1198C16.3318 20.2665 16.237 19.4132 16.1422 18.5598C15.8981 18.3429 15.6137 18.2007 15.2889 18.1332C14.5533 17.6944 13.8422 17.2202 13.1555 16.7109Z"
            fill="#0A0716" />
        <path fill-rule="evenodd" clip-rule="evenodd"
            d="M13.5823 11.7334C15.9769 13.1442 18.3946 14.519 20.8356 15.8578C20.7887 16.7635 20.8362 17.6643 20.9778 18.5601C21.1771 18.4149 21.3668 18.2726 21.5467 18.1334C22.0207 17.8963 22.4949 17.6594 22.9689 17.4223C23.2478 16.4855 23.3427 15.4899 23.2534 14.4356C23.3241 15.3117 23.4663 16.1888 23.6801 17.0667C23.4669 17.7525 22.9927 18.1318 22.2578 18.2045C21.9715 19.1536 21.4026 19.3669 20.5512 18.8445C20.4089 18.6549 20.2667 18.4652 20.1245 18.2756C20.1683 18.1607 20.2394 18.0658 20.3378 17.9912C20.4327 17.2801 20.4327 16.569 20.3378 15.8578C19.8297 15.7189 19.2845 15.5767 18.7023 15.4312C18.7135 15.2278 18.6662 15.0381 18.5601 14.8623C17.6003 14.7384 16.8417 14.288 16.2845 13.5112C15.567 13.1292 14.8321 12.7737 14.0801 12.4445C13.7705 12.3001 13.6046 12.063 13.5823 11.7334Z"
            fill="#B2A3E0" />
        <path fill-rule="evenodd" clip-rule="evenodd"
            d="M20.8356 15.8574C20.9761 16.5884 21.0235 17.3471 20.9778 18.133C21.1674 18.133 21.3571 18.133 21.5467 18.133C21.3668 18.2722 21.1771 18.4144 20.9778 18.5596C20.8362 17.6639 20.7887 16.7631 20.8356 15.8574Z"
            fill="#241D42" />
        <path fill-rule="evenodd" clip-rule="evenodd"
            d="M22.969 14.4355C23.0639 14.4355 23.1586 14.4355 23.2534 14.4355C23.3428 15.4898 23.2479 16.4854 22.969 17.4222C23.1586 16.4267 23.1586 15.4311 22.969 14.4355Z"
            fill="#6B6086" />
        <path fill-rule="evenodd" clip-rule="evenodd"
            d="M18.56 17.1377C18.7756 17.8488 18.9653 18.5835 19.1289 19.3421C18.9131 19.6556 18.7235 19.9875 18.56 20.3377C18.3276 20.408 18.0905 20.4316 17.8489 20.4088C18.0288 20.2696 18.2185 20.1273 18.4178 19.9821C18.5596 19.0386 18.6069 18.0906 18.56 17.1377Z"
            fill="#AEA1D7" />
        <path fill-rule="evenodd" clip-rule="evenodd"
            d="M12.5866 19.2708C12.9959 19.3945 13.3751 19.5841 13.7243 19.8396C13.8661 20.7831 13.9135 21.7312 13.8666 22.6841C13.3949 22.9169 12.9208 23.154 12.4443 23.3952C12.2409 23.4064 12.0513 23.3591 11.8754 23.253C11.7342 22.5959 11.6868 21.9323 11.7332 21.2619C11.5496 21.2282 11.4074 21.2755 11.3066 21.4041C10.9028 21.6772 10.4761 21.9142 10.0266 22.1152C9.87207 22.0981 9.77727 22.0033 9.74211 21.8308C9.53047 21.2016 9.55417 20.5853 9.81322 19.9819C10.3039 19.8879 10.7542 19.627 11.1643 19.1996C11.6462 19.1059 12.1203 19.1297 12.5866 19.2708Z"
            fill="#010104" />
        <path fill-rule="evenodd" clip-rule="evenodd"
            d="M11.3068 18.7021C10.7233 19.1135 10.107 19.4928 9.45786 19.8399C9.31617 20.7356 9.26875 21.6365 9.31564 22.5421C9.09554 22.0395 9.00072 21.4944 9.0312 20.9066C9.0786 20.5037 9.12601 20.1006 9.17342 19.6977C9.6033 19.4443 9.98255 19.1598 10.3112 18.8444C10.647 18.8196 10.9788 18.7723 11.3068 18.7021Z"
            fill="#AA9DD1" />
        <path fill-rule="evenodd" clip-rule="evenodd"
            d="M16.1423 18.5596C16.2371 19.4129 16.3318 20.2662 16.4267 21.1196C16.4182 21.1968 16.3708 21.2442 16.2845 21.2618C16.1428 20.3661 16.0953 19.4652 16.1423 18.5596Z"
            fill="#7D749F" />
        <path fill-rule="evenodd" clip-rule="evenodd"
            d="M11.3067 18.7021C11.8279 18.7024 12.2545 18.892 12.5867 19.271C12.1204 19.13 11.6463 19.1062 11.1645 19.1999C10.7544 19.6273 10.304 19.8881 9.81336 19.9821C9.5543 20.5856 9.53061 21.2018 9.74225 21.831C9.77741 22.0036 9.87221 22.0984 10.0267 22.1155C9.83707 22.2577 9.64743 22.3999 9.4578 22.5421C9.4104 22.5421 9.36298 22.5421 9.31558 22.5421C9.26869 21.6365 9.31611 20.7356 9.4578 19.8399C10.107 19.4928 10.7233 19.1135 11.3067 18.7021Z"
            fill="#080418" />
        <path fill-rule="evenodd" clip-rule="evenodd"
            d="M11.3066 21.4047C11.4075 21.2761 11.5497 21.2288 11.7333 21.2625C11.6869 21.9329 11.7343 22.5965 11.8755 23.2536C12.0513 23.3597 12.241 23.407 12.4444 23.3958C12.24 23.57 12.003 23.7122 11.7333 23.8225C11.6012 23.6534 11.5538 23.4638 11.5911 23.2536C11.676 22.5718 11.5812 21.9555 11.3066 21.4047Z"
            fill="#231D3A" />
        <path fill-rule="evenodd" clip-rule="evenodd"
            d="M11.3067 21.4043C11.5812 21.9551 11.676 22.5714 11.5911 23.2532C11.4963 23.3005 11.4015 23.348 11.3067 23.3954C11.563 21.8685 11.1363 21.6078 10.0267 22.6132C9.80398 22.722 9.61434 22.6982 9.45776 22.5421C9.64739 22.3999 9.83703 22.2576 10.0267 22.1154C10.4762 21.9144 10.9029 21.6774 11.3067 21.4043Z"
            fill="#ADA4D0" />
        <path fill-rule="evenodd" clip-rule="evenodd"
            d="M13.8666 22.6846C13.9072 22.9389 13.8598 23.1759 13.7244 23.3957C13.3009 23.4658 12.969 23.6791 12.7288 24.0357C12.2585 24.198 11.8081 24.2691 11.3777 24.249C11.3073 23.9684 11.2836 23.684 11.3066 23.3957C11.4014 23.3483 11.4962 23.3008 11.5911 23.2535C11.5538 23.4637 11.6012 23.6532 11.7333 23.8223C12.003 23.7121 12.24 23.5699 12.4444 23.3957C12.9209 23.1545 13.3949 22.9174 13.8666 22.6846Z"
            fill="#B09FDE" />
    </g>
    <defs>
        <clipPath id="clip0_5625_615">
            <rect width="32" height="32" fill="white" />
        </clipPath>
    </defs>
</svg>