<svg width="32" height="32" viewBox="0 0 32 32" fill="none" xmlns="http://www.w3.org/2000/svg">
    <g clip-path="url(#clip0_5612_45)">
        <path fill-rule="evenodd" clip-rule="evenodd"
            d="M4.94434 -0.0556641C12.2407 -0.0556641 19.5369 -0.0556641 26.8332 -0.0556641C29.4874 0.635558 31.1911 2.30222 31.9443 4.94434C31.9443 12.2407 31.9443 19.5369 31.9443 26.8332C31.2531 29.4874 29.5864 31.1911 26.9443 31.9443C19.648 31.9443 12.3518 31.9443 5.05545 31.9443C2.40122 31.2531 0.697521 29.5864 -0.0556641 26.9443C-0.0556641 19.648 -0.0556641 12.3518 -0.0556641 5.05545C0.635558 2.40122 2.30222 0.697521 4.94434 -0.0556641Z"
            fill="#F9F9F9" />
        <path fill-rule="evenodd" clip-rule="evenodd"
            d="M16.2779 8.16635C16.9626 8.86964 17.6292 9.59186 18.2779 10.333C18.2119 10.3846 18.1378 10.4031 18.0557 10.3886C17.7933 10.3692 17.5341 10.3322 17.2779 10.2775C17.0788 10.1876 16.8566 10.132 16.6112 10.1108C16.0927 9.55524 15.5742 8.99968 15.0557 8.44413C15.1574 8.41319 15.2314 8.35764 15.2779 8.27746C15.5991 8.17718 15.9324 8.14014 16.2779 8.16635Z"
            fill="#FA3A4A" />
        <path fill-rule="evenodd" clip-rule="evenodd"
            d="M16.2778 8.16705C16.7079 8.13205 17.1154 8.16909 17.5001 8.27816C17.4179 8.26361 17.3438 8.28213 17.2778 8.33372C18.1527 9.26379 19.0045 10.2082 19.8334 11.167C19.2615 10.8437 18.6688 10.5844 18.0556 10.3893C18.1377 10.4038 18.2118 10.3853 18.2778 10.3337C17.6292 9.59256 16.9625 8.87034 16.2778 8.16705Z"
            fill="#FA553C" />
        <path fill-rule="evenodd" clip-rule="evenodd"
            d="M17.5001 8.27824C17.6482 8.27824 17.7964 8.27824 17.9445 8.27824C21.0716 11.8676 24.1456 15.4972 27.1667 19.1671C27.1524 19.3578 27.1154 19.543 27.0556 19.7227C25.4392 17.6419 23.7541 15.6049 22.0001 13.6116C21.9557 13.6369 21.9373 13.674 21.9445 13.7227C21.4472 12.7062 20.7435 11.8545 19.8334 11.1671C19.0045 10.2083 18.1527 9.26387 17.2778 8.3338C17.3438 8.28221 17.4179 8.26369 17.5001 8.27824Z"
            fill="#FA6233" />
        <path fill-rule="evenodd" clip-rule="evenodd"
            d="M15.2778 8.27734C15.2313 8.35752 15.1573 8.41308 15.0556 8.44401C15.5741 8.99957 16.0926 9.55512 16.6111 10.1107C16.8564 10.1319 17.0787 10.1874 17.2778 10.2773C16.5331 10.2591 15.7923 10.2961 15.0556 10.3885C14.5 9.90698 13.9814 9.38845 13.5 8.8329C14.0408 8.51703 14.6333 8.33184 15.2778 8.27734Z"
            fill="#FA1966" />
        <path fill-rule="evenodd" clip-rule="evenodd"
            d="M13.5 8.83301C13.9815 9.38856 14.5 9.90709 15.0556 10.3886C14.7178 10.5937 14.3475 10.7418 13.9445 10.833C13.389 10.3885 12.8705 9.90704 12.3889 9.38856C12.7278 9.14505 13.0981 8.95986 13.5 8.83301Z"
            fill="#FA0D78" />
        <path fill-rule="evenodd" clip-rule="evenodd"
            d="M20.7222 9.38867C22.1076 10.1934 23.1076 11.3416 23.7222 12.8331C22.6814 11.7184 21.6814 10.5703 20.7222 9.38867Z"
            fill="#FA9C22" />
        <path fill-rule="evenodd" clip-rule="evenodd"
            d="M12.3889 9.38867C12.8705 9.90715 13.3891 10.3886 13.9445 10.8331C13.6186 11.0715 13.2853 11.3122 12.9445 11.5553C15.1831 12.4792 16.5534 14.1274 17.0556 16.4998C15.1681 14.39 13.2422 12.316 11.2778 10.2776C11.6134 9.94243 11.9838 9.64613 12.3889 9.38867Z"
            fill="#FA1493" />
        <path fill-rule="evenodd" clip-rule="evenodd"
            d="M18.6111 8.50024C18.8976 8.48845 19.1569 8.56252 19.3889 8.72246C20.826 10.4382 22.289 12.1419 23.7778 13.8336C23.9606 14.0063 23.9976 14.1915 23.8889 14.3891C25.0132 15.6787 26.0688 17.012 27.0555 18.3891C24.2682 15.0766 21.4533 11.7803 18.6111 8.50024Z"
            fill="#FA7A23" />
        <path fill-rule="evenodd" clip-rule="evenodd"
            d="M17.2777 10.278C17.5339 10.3327 17.7932 10.3697 18.0555 10.3891C18.6687 10.5842 19.2614 10.8435 19.8333 11.1668C20.7434 11.8542 21.4471 12.706 21.9444 13.7224C22.2018 14.4743 22.3315 15.2521 22.3333 16.0557C23.7935 16.2007 24.7009 16.9785 25.0555 18.3891C25.0625 18.9116 25.0254 19.4302 24.9444 19.9446C24.7878 20.2193 24.6026 20.4785 24.3888 20.7224C24.1239 20.9874 23.8277 21.2096 23.4999 21.3891C23.2147 21.4974 22.9185 21.5715 22.6111 21.6113C20.0925 21.6113 17.5741 21.6113 15.0555 21.6113C14.2036 21.6113 13.3518 21.6113 12.4999 21.6113C12.1666 21.6113 11.8333 21.6113 11.4999 21.6113C11.0925 21.6113 10.6851 21.6113 10.2777 21.6113C9.39591 21.4481 8.61813 21.0777 7.94439 20.5002C7.76141 20.1698 7.53919 19.8735 7.27772 19.6113C7.1863 19.335 7.07519 19.0756 6.94439 18.8335C6.91978 18.5483 6.8457 18.289 6.72217 18.0557C6.72217 17.8335 6.72217 17.6113 6.72217 17.3891C6.72408 17.1596 6.76111 16.9374 6.83328 16.7224C6.87827 16.3652 6.98938 16.0318 7.16661 15.7224C7.30616 15.3317 7.52838 14.9984 7.83328 14.7224C7.94743 14.5342 8.09559 14.3861 8.27772 14.278C8.63528 13.9694 9.04269 13.7472 9.49995 13.6113C10.1848 13.4166 10.8885 13.3426 11.6111 13.3891C13.8148 14.0221 14.9815 15.5035 15.1111 17.8335C15.4186 18.4637 15.9186 18.6675 16.6111 18.4446C17.1393 17.9578 17.2874 17.3837 17.0555 16.7224C17.0555 16.6483 17.0555 16.5743 17.0555 16.5002C16.5533 14.1278 15.1829 12.4796 12.9444 11.5557C13.2852 11.3126 13.6185 11.0719 13.9444 10.8335C14.3474 10.7423 14.7177 10.5942 15.0555 10.3891C15.7923 10.2967 16.5331 10.2597 17.2777 10.278Z"
            fill="#F9F9F9" />
        <path fill-rule="evenodd" clip-rule="evenodd"
            d="M11.2778 10.2773C13.2421 12.3158 15.168 14.3898 17.0555 16.4996C17.0555 16.5737 17.0555 16.6477 17.0555 16.7218C17.0738 17.0203 17.0552 17.3167 17 17.6107C15.0219 15.2112 12.8922 12.9519 10.6111 10.8329C10.8289 10.6489 11.0511 10.4637 11.2778 10.2773Z"
            fill="#FA02A0" />
        <path fill-rule="evenodd" clip-rule="evenodd"
            d="M10.6112 10.833C12.8923 12.952 15.0219 15.2113 17.0001 17.6108C17.0553 17.3168 17.0738 17.0205 17.0556 16.7219C17.2875 17.3832 17.1394 17.9573 16.6112 18.4441C15.9187 18.667 15.4187 18.4632 15.1112 17.833C14.9816 15.503 13.8149 14.0216 11.6112 13.3886C10.9946 12.7801 10.3649 12.169 9.72228 11.5552C9.57859 11.5008 9.43043 11.4822 9.27783 11.4997C9.79063 11.4267 10.2351 11.2045 10.6112 10.833Z"
            fill="#FA15AF" />
        <path fill-rule="evenodd" clip-rule="evenodd"
            d="M9.27772 11.5005C9.43032 11.483 9.57848 11.5016 9.72217 11.556C10.3648 12.1698 10.9945 12.7809 11.6111 13.3894C10.8885 13.3429 10.1848 13.4169 9.49995 13.6116C9.08119 13.137 8.63675 12.674 8.16661 12.2227C8.02292 12.1683 7.87477 12.1497 7.72217 12.1671C8.18785 11.8385 8.70637 11.6163 9.27772 11.5005Z"
            fill="#FA0FC8" />
        <path fill-rule="evenodd" clip-rule="evenodd"
            d="M7.72217 12.1665C7.87477 12.1491 8.02292 12.1676 8.16661 12.2221C8.63675 12.6734 9.08119 13.1364 9.49995 13.6109C9.04269 13.7468 8.63528 13.9691 8.27772 14.2776C7.72369 13.8715 7.20517 13.4271 6.72217 12.9443C6.99085 12.6057 7.32418 12.3465 7.72217 12.1665Z"
            fill="#EF1AD4" />
        <path fill-rule="evenodd" clip-rule="evenodd"
            d="M27.0555 19.7224C27.0258 19.9963 26.9517 20.2557 26.8333 20.5002C26.2348 19.7916 25.6423 19.0879 25.0555 18.3891C24.701 16.9786 23.7935 16.2008 22.3333 16.0558C22.3315 15.2521 22.2018 14.4743 21.9444 13.7224C21.9372 13.6738 21.9556 13.6367 22 13.6113C23.754 15.6047 25.4391 17.6417 27.0555 19.7224Z"
            fill="#FA523D" />
        <path fill-rule="evenodd" clip-rule="evenodd"
            d="M6.7223 12.9443C7.2053 13.4271 7.72383 13.8716 8.27786 14.2777C8.09573 14.3858 7.94757 14.5339 7.83341 14.7221C7.64971 14.5993 7.46453 14.5809 7.27786 14.6666C7.1348 14.5099 7.00517 14.3432 6.88897 14.1666C6.48943 14.1717 6.24869 13.9494 6.16675 13.4999C6.31489 13.2777 6.50008 13.0924 6.7223 12.9443Z"
            fill="#D338D4" />
        <path fill-rule="evenodd" clip-rule="evenodd"
            d="M6.16661 13.5C6.24855 13.9496 6.48928 14.1718 6.88883 14.1667C7.00503 14.3433 7.13466 14.51 7.27772 14.6667C7.46438 14.581 7.64957 14.5994 7.83327 14.7222C7.52837 14.9982 7.30615 15.3316 7.16661 15.7222C6.57292 15.6138 6.01736 15.3916 5.49994 15.0556C5.40153 14.9639 5.36449 14.8528 5.38883 14.7222C5.56522 14.2574 5.82447 13.85 6.16661 13.5Z"
            fill="#BB5FDA" />
        <path fill-rule="evenodd" clip-rule="evenodd"
            d="M19.3889 8.72266C19.8998 8.82992 20.3442 9.05215 20.7222 9.38932C21.6815 10.571 22.6815 11.7191 23.7222 12.8338C24.0078 13.3019 24.1745 13.8204 24.2222 14.3893C25.8808 15.2253 26.8624 16.5587 27.1667 18.3893C27.1297 18.3893 27.0926 18.3893 27.0556 18.3893C26.0688 17.0122 25.0132 15.6789 23.8889 14.3893C23.9977 14.1917 23.9607 14.0065 23.7778 13.8338C22.289 12.1421 20.826 10.4384 19.3889 8.72266Z"
            fill="#FA8622" />
        <path fill-rule="evenodd" clip-rule="evenodd"
            d="M17.9443 8.27734C18.1983 8.2879 18.4206 8.36197 18.611 8.49957C21.4532 11.7797 24.2681 15.0759 27.0554 18.3885C27.0924 18.3885 27.1296 18.3885 27.1666 18.3885C27.1666 18.6477 27.1666 18.907 27.1666 19.1662C24.1454 15.4963 21.0714 11.8667 17.9443 8.27734Z"
            fill="#FA6E2A" />
        <path fill-rule="evenodd" clip-rule="evenodd"
            d="M5.38881 14.7227C5.36447 14.8532 5.40151 14.9643 5.49992 15.056C6.01734 15.392 6.5729 15.6142 7.16659 15.7227C6.98935 16.0321 6.87824 16.3654 6.83325 16.7227C6.76465 16.735 6.7091 16.772 6.66659 16.8338C6.10622 16.4803 5.49511 16.2951 4.83325 16.2782C4.84984 15.6899 5.03502 15.1713 5.38881 14.7227Z"
            fill="#A77EDA" />
        <path fill-rule="evenodd" clip-rule="evenodd"
            d="M4.83345 16.2773C5.4953 16.2942 6.10641 16.4795 6.66678 16.8329C6.70929 16.7711 6.76485 16.7341 6.83345 16.7218C6.76128 16.9368 6.72425 17.159 6.72233 17.3885C6.34895 17.2348 5.96006 17.1237 5.55567 17.0551C5.24136 17.0916 4.96358 17.2027 4.72233 17.3885C4.68758 16.9949 4.72462 16.6246 4.83345 16.2773Z"
            fill="#9C8EDA" />
        <path fill-rule="evenodd" clip-rule="evenodd"
            d="M6.72232 17.389C6.72232 17.6112 6.72232 17.8334 6.72232 18.0557C5.59022 17.8657 5.1643 18.3472 5.44455 19.5001C5.53479 20.0287 5.70146 20.5287 5.94455 21.0001C5.91917 21.0444 5.88212 21.0629 5.83343 21.0557C5.03533 19.977 4.66496 18.7548 4.72232 17.389C4.96357 17.2032 5.24135 17.0921 5.55566 17.0557C5.96005 17.1242 6.34893 17.2353 6.72232 17.389Z"
            fill="#939ADA" />
        <path fill-rule="evenodd" clip-rule="evenodd"
            d="M6.72227 18.0559C6.84581 18.2892 6.91988 18.5485 6.9445 18.8337C6.37643 18.7717 6.08014 19.0309 6.05561 19.6115C6.16461 20.5126 6.46091 21.3459 6.9445 22.1115C6.91912 22.1558 6.88207 22.1743 6.83338 22.1671C6.42095 21.8658 6.08762 21.4955 5.83338 21.0559C5.88207 21.0632 5.91912 21.0447 5.9445 21.0004C5.70141 20.5289 5.53474 20.0289 5.4445 19.5004C5.16425 18.3475 5.59017 17.8659 6.72227 18.0559Z"
            fill="#8CA6DA" />
        <path fill-rule="evenodd" clip-rule="evenodd"
            d="M6.94455 18.8332C7.07535 19.0753 7.18646 19.3346 7.27789 19.611C7.15285 19.792 7.00471 19.9586 6.83344 20.111C6.9361 20.2054 6.9361 20.3165 6.83344 20.4443C7.0137 21.2306 7.27295 21.99 7.61122 22.7221C7.29231 22.6184 7.03304 22.4332 6.83344 22.1665C6.88213 22.1737 6.91918 22.1553 6.94455 22.111C6.46096 21.3454 6.16466 20.5121 6.05566 19.611C6.0802 19.0304 6.37649 18.7712 6.94455 18.8332Z"
            fill="#83B3DA" />
        <path fill-rule="evenodd" clip-rule="evenodd"
            d="M25.0554 18.3887C25.6422 19.0874 26.2348 19.7911 26.8332 20.4998C26.7751 20.8751 26.627 21.2084 26.3888 21.4998C25.9091 20.9894 25.4277 20.4709 24.9443 19.9442C25.0253 19.4298 25.0624 18.9112 25.0554 18.3887Z"
            fill="#FA394D" />
        <path fill-rule="evenodd" clip-rule="evenodd"
            d="M7.2777 19.6113C7.53916 19.8736 7.76139 20.1699 7.94436 20.5002C7.67056 20.6477 7.55945 20.8883 7.61103 21.2224C7.74041 21.8512 7.9256 22.4623 8.16659 23.0558C7.92503 23.028 7.73985 22.9169 7.61103 22.7224C7.27276 21.9903 7.01351 21.231 6.83325 20.4447C6.93591 20.3169 6.93591 20.2058 6.83325 20.1113C7.00452 19.959 7.15266 19.7923 7.2777 19.6113Z"
            fill="#7BBFDA" />
        <path fill-rule="evenodd" clip-rule="evenodd"
            d="M24.9445 19.9443C25.4278 20.471 25.9092 20.9896 26.3889 21.4999C26.2092 21.8648 25.95 22.1611 25.6111 22.3888C25.1616 21.865 24.7542 21.3094 24.3889 20.7221C24.6027 20.4782 24.7879 20.219 24.9445 19.9443Z"
            fill="#FA1662" />
        <path fill-rule="evenodd" clip-rule="evenodd"
            d="M7.94447 20.5C8.61822 21.0776 9.396 21.4479 10.2778 21.6111C10.8986 22.3069 11.5283 23.0107 12.1667 23.7222C11.8704 23.7222 11.5741 23.7222 11.2778 23.7222C10.8057 23.027 10.1761 22.5456 9.38892 22.2778C9.25147 22.284 9.14036 22.3396 9.05559 22.4444C9.07923 22.7949 9.19034 23.1468 9.38892 23.5C8.92846 23.4692 8.52105 23.3211 8.1667 23.0556C7.92571 22.4621 7.74052 21.851 7.61114 21.2222C7.55956 20.8881 7.67067 20.6474 7.94447 20.5Z"
            fill="#72CFDA" />
        <path fill-rule="evenodd" clip-rule="evenodd"
            d="M24.3889 20.7227C24.7542 21.31 25.1616 21.8655 25.6111 22.3893C25.4566 22.6549 25.2343 22.8401 24.9444 22.9449C24.7344 22.9674 24.5678 22.8934 24.4444 22.7227C24.1484 22.2608 23.8337 21.8163 23.5 21.3893C23.8278 21.2099 24.124 20.9877 24.3889 20.7227Z"
            fill="#FA0B74" />
        <path fill-rule="evenodd" clip-rule="evenodd"
            d="M12.5001 21.6113C13.352 21.6113 14.2038 21.6113 15.0557 21.6113C15.0557 21.6483 15.0557 21.6854 15.0557 21.7224C15.0187 21.7224 14.9816 21.7224 14.9446 21.7224C14.6112 21.7224 14.2779 21.7224 13.9446 21.7224C13.6827 21.7043 13.4234 21.7228 13.1668 21.778C13.6996 22.4194 14.2181 23.0676 14.7223 23.7224C14.389 23.7224 14.0557 23.7224 13.7223 23.7224C13.2334 23.026 12.6779 22.3779 12.0557 21.778C12.2288 21.7547 12.3769 21.6991 12.5001 21.6113Z"
            fill="#AA85DC" />
        <path fill-rule="evenodd" clip-rule="evenodd"
            d="M13.9445 21.7225C14.5055 22.3574 15.024 23.0241 15.5001 23.7225C15.2409 23.7225 14.9815 23.7225 14.7223 23.7225C14.2181 23.0677 13.6995 22.4195 13.1667 21.7781C13.4234 21.7229 13.6826 21.7044 13.9445 21.7225Z"
            fill="#B565DA" />
        <path fill-rule="evenodd" clip-rule="evenodd"
            d="M15.9443 21.7227C16.4999 21.7227 17.0554 21.7227 17.611 21.7227C18.1813 22.3292 18.6628 22.9959 19.0554 23.7227C18.4999 23.7227 17.9443 23.7227 17.3888 23.7227C16.9073 23.056 16.4258 22.3893 15.9443 21.7227Z"
            fill="#F506D1" />
        <path fill-rule="evenodd" clip-rule="evenodd"
            d="M17.6111 21.7217C18.2418 21.7033 18.8714 21.7219 19.5 21.7773C20.0083 22.4139 20.4898 23.0621 20.9444 23.7217C20.3148 23.7217 19.6852 23.7217 19.0555 23.7217C18.6629 22.995 18.1814 22.3283 17.6111 21.7217Z"
            fill="#FA00BB" />
        <path fill-rule="evenodd" clip-rule="evenodd"
            d="M15.0557 21.7224C15.0557 21.6854 15.0557 21.6483 15.0557 21.6113C17.5742 21.6113 20.0927 21.6113 22.6112 21.6113C22.2249 21.7028 21.8174 21.7583 21.389 21.778C21.8334 22.3706 22.2779 22.9632 22.7223 23.5558C22.9039 23.6107 23.0891 23.6291 23.2779 23.6113C22.5209 23.7214 21.7431 23.7586 20.9446 23.7224C20.4899 23.0628 20.0084 22.4146 19.5001 21.778C18.8716 21.7226 18.2419 21.704 17.6112 21.7224C17.0557 21.7224 16.5001 21.7224 15.9446 21.7224C15.6482 21.7224 15.352 21.7224 15.0557 21.7224Z"
            fill="#FA24A8" />
        <path fill-rule="evenodd" clip-rule="evenodd"
            d="M23.5 21.3887C23.8337 21.8157 24.1485 22.2601 24.4445 22.722C24.5678 22.8928 24.7345 22.9668 24.9445 22.9442C24.4568 23.317 23.9012 23.5392 23.2778 23.6109C23.089 23.6287 22.9038 23.6102 22.7222 23.5553C22.2778 22.9628 21.8334 22.3701 21.3889 21.7776C21.8174 21.7579 22.2248 21.7023 22.6111 21.6109C22.9186 21.5711 23.2148 21.497 23.5 21.3887Z"
            fill="#FA088D" />
        <path fill-rule="evenodd" clip-rule="evenodd"
            d="M11.5001 21.6113C11.8334 21.6113 12.1667 21.6113 12.5001 21.6113C12.3768 21.6991 12.2287 21.7547 12.0556 21.778C12.6778 22.3779 13.2334 23.026 13.7223 23.7224C13.4631 23.7224 13.2037 23.7224 12.9445 23.7224C12.4123 23.0601 11.8567 22.412 11.2778 21.778C11.3796 21.7471 11.4536 21.6916 11.5001 21.6113Z"
            fill="#929FDA" />
        <path fill-rule="evenodd" clip-rule="evenodd"
            d="M11.2779 23.7218C10.619 23.7631 9.98936 23.689 9.389 23.4996C9.19042 23.1463 9.07931 22.7945 9.05566 22.444C9.14044 22.3391 9.25155 22.2836 9.389 22.2773C10.1761 22.5451 10.8058 23.0266 11.2779 23.7218Z"
            fill="#63E6DA" />
        <path fill-rule="evenodd" clip-rule="evenodd"
            d="M10.2778 21.6113C10.6852 21.6113 11.0926 21.6113 11.5001 21.6113C11.4536 21.6916 11.3796 21.7471 11.2778 21.778C11.8567 22.412 12.4123 23.0601 12.9445 23.7224C12.6853 23.7224 12.4259 23.7224 12.1667 23.7224C11.5283 23.0109 10.8986 22.3071 10.2778 21.6113Z"
            fill="#83B6DA" />
        <path fill-rule="evenodd" clip-rule="evenodd"
            d="M14.9443 21.7227C14.9813 21.7227 15.0184 21.7227 15.0554 21.7227C15.3518 21.7227 15.648 21.7227 15.9443 21.7227C16.4258 22.3893 16.9073 23.056 17.3888 23.7227C17.0924 23.7227 16.7962 23.7227 16.4999 23.7227C15.9813 23.056 15.4629 22.3893 14.9443 21.7227Z"
            fill="#DA2DD4" />
        <path fill-rule="evenodd" clip-rule="evenodd"
            d="M13.9443 21.7227C14.2777 21.7227 14.611 21.7227 14.9443 21.7227C15.4629 22.3893 15.9813 23.056 16.4999 23.7227C16.1666 23.7227 15.8332 23.7227 15.4999 23.7227C15.0238 23.0242 14.5053 22.3575 13.9443 21.7227Z"
            fill="#C848D6" />
    </g>
    <defs>
        <clipPath id="clip0_5612_45">
            <rect width="32" height="32" fill="white" />
        </clipPath>
    </defs>
</svg>