<svg width="32" height="32" viewBox="0 0 32 32" fill="none" xmlns="http://www.w3.org/2000/svg">
    <g clip-path="url(#clip0_5615_382)">
        <path fill-rule="evenodd" clip-rule="evenodd"
            d="M-0.0178223 -0.0175781C10.6488 -0.0175781 21.3155 -0.0175781 31.9822 -0.0175781C31.9822 10.6491 31.9822 21.3158 31.9822 31.9824C21.3155 31.9824 10.6488 31.9824 -0.0178223 31.9824C-0.0178223 21.3158 -0.0178223 10.6491 -0.0178223 -0.0175781Z"
            fill="#F9F9F9" />
        <path fill-rule="evenodd" clip-rule="evenodd"
            d="M10.3644 11.9288C12.1323 11.8316 13.4775 12.5309 14.4 14.0266C15.1346 15.5799 15.016 17.0613 14.0444 18.471C12.8672 19.851 11.3917 20.3191 9.61774 19.8755C8.01827 19.3072 7.07605 18.1872 6.79107 16.5155C6.63367 14.6853 7.33884 13.3046 8.90663 12.3733C9.37162 12.1422 9.85756 11.9941 10.3644 11.9288Z"
            fill="black" />
        <path fill-rule="evenodd" clip-rule="evenodd"
            d="M25.1555 12.0713C25.1614 13.4699 25.1555 14.8684 25.1377 16.2668C25.1152 16.4681 25.0974 16.6696 25.0844 16.8713C24.585 19.1293 23.1746 20.1782 20.8533 20.018C19.203 19.7784 18.166 18.848 17.7422 17.2268C17.7066 16.9898 17.671 16.7528 17.6355 16.5157C17.6177 15.0343 17.6118 13.5528 17.6177 12.0713C18.1392 12.0713 18.6607 12.0713 19.1822 12.0713C19.1762 13.5528 19.1822 15.0343 19.1999 16.5157C19.322 17.1569 19.6242 17.6961 20.1066 18.1335C20.9137 18.666 21.7315 18.6779 22.5599 18.1691C23.143 17.6848 23.4807 17.0626 23.5733 16.3024C23.5821 14.8918 23.5999 13.4814 23.6266 12.0713C24.1362 12.0713 24.6459 12.0713 25.1555 12.0713Z"
            fill="#010101" />
        <path fill-rule="evenodd" clip-rule="evenodd"
            d="M25.1556 12.0713C25.197 13.4875 25.2029 14.9097 25.1734 16.338C25.1669 16.5245 25.1372 16.7023 25.0845 16.8713C25.0975 16.6696 25.1153 16.4681 25.1378 16.2668C25.1556 14.8684 25.1615 13.4699 25.1556 12.0713Z"
            fill="#BCBCBC" />
    </g>
    <defs>
        <clipPath id="clip0_5615_382">
            <rect width="32" height="32" fill="white" />
        </clipPath>
    </defs>
</svg>