<svg width="32" height="32" viewBox="0 0 32 32" fill="none" xmlns="http://www.w3.org/2000/svg">
    <g clip-path="url(#clip0_5717_274)">
        <path fill-rule="evenodd" clip-rule="evenodd"
            d="M-0.0712891 -0.0710449C10.5954 -0.0710449 21.262 -0.0710449 31.9287 -0.0710449C31.9287 10.5956 31.9287 21.2623 31.9287 31.929C21.262 31.929 10.5954 31.929 -0.0712891 31.929C-0.0712891 21.2623 -0.0712891 10.5956 -0.0712891 -0.0710449Z"
            fill="#F9F9F9" />
        <path fill-rule="evenodd" clip-rule="evenodd"
            d="M17.7064 7.46656C18.1075 7.43065 18.4866 7.50176 18.8442 7.67989C19.4863 8.34576 20.1499 8.98576 20.8353 9.59989C21.4732 9.03319 22.0894 8.44059 22.6842 7.82211C23.8538 7.22182 24.6123 7.55368 24.9597 8.81767C24.9177 9.08621 24.8465 9.34696 24.7464 9.59989C24.0805 10.242 23.4405 10.9057 22.8264 11.591C23.5401 12.3283 24.2274 13.0868 24.8886 13.8666C24.9606 15.2155 24.3206 15.7608 22.9686 15.5021C22.2813 14.8148 21.5938 14.1273 20.9064 13.4399C20.2145 14.1794 19.4796 14.8668 18.702 15.5021C17.3109 15.723 16.7183 15.1303 16.9242 13.7243C17.566 12.9879 18.206 12.2531 18.8442 11.5199C18.206 10.7867 17.566 10.0519 16.9242 9.31545C16.721 8.49057 16.9817 7.87428 17.7064 7.46656Z"
            fill="#A2CE37" />
        <path fill-rule="evenodd" clip-rule="evenodd"
            d="M10.3114 11.1643C13.5924 10.965 15.6545 12.4347 16.4981 15.5732C16.5929 18.6547 16.5929 21.7361 16.4981 24.8177C16.0988 25.7979 15.4115 26.0586 14.4358 25.5999C14.1774 25.3439 14.0115 25.0358 13.9381 24.6754C13.8907 21.6414 13.8432 18.6072 13.7958 15.5732C12.8531 13.8211 11.5019 13.4181 9.74251 14.3643C8.62703 15.4458 8.46112 16.6547 9.24473 17.991C9.88958 18.7596 10.7192 19.1151 11.7336 19.0577C12.5194 19.4728 12.7801 20.1128 12.5158 20.9777C12.1543 21.5022 11.6566 21.7391 11.0225 21.6888C8.81586 21.4491 7.27512 20.3114 6.40029 18.2754C5.59133 14.7249 6.89504 12.3546 10.3114 11.1643Z"
            fill="#291850" />
    </g>
    <defs>
        <clipPath id="clip0_5717_274">
            <rect width="32" height="32" fill="white" />
        </clipPath>
    </defs>
</svg>