<svg width="32" height="32" viewBox="0 0 32 32" fill="none" xmlns="http://www.w3.org/2000/svg">
    <path
        d="M8.52 7.89129C9.87834 7.88947 11.2367 7.88814 12.595 7.88733C13.2262 7.88694 13.8574 7.88641 14.4887 7.88552C17.4753 7.88139 20.4594 7.89224 23.4453 7.96772C23.4536 10.6058 23.4541 13.244 23.4251 15.882C23.4225 16.1196 23.4204 16.3573 23.4188 16.5949C23.4024 18.8569 23.2827 20.8645 21.6083 22.5657C21.5151 22.6617 21.5151 22.6617 21.42 22.7595C20.0367 24.1013 18.1428 24.6294 16.2505 24.7058C16.1787 24.7089 16.1069 24.7121 16.0329 24.7153C14.0356 24.7592 11.7708 24.275 10.2804 22.8715C10.2276 22.8264 10.1748 22.7814 10.1205 22.735C9.01799 21.7398 8.64285 20.2447 8.52 18.8207C8.48333 18.0341 8.49227 17.246 8.49672 16.4587C8.49818 16.1565 8.49829 15.8543 8.49856 15.552C8.49927 14.9823 8.50115 14.4126 8.50347 13.8428C8.50605 13.1931 8.5073 12.5434 8.50845 11.8937C8.51083 10.5595 8.51486 9.22542 8.52 7.89129ZM15.9444 8.04415C15.297 8.5392 14.6534 9.03887 14.013 9.54284C13.745 9.7536 13.4767 9.96392 13.2084 10.1743C12.983 10.351 12.7578 10.528 12.533 10.7054C12.4423 10.7769 12.3516 10.8484 12.2609 10.9198C12.2171 10.9543 12.1732 10.9888 12.1281 11.0244C11.7507 11.3205 11.3664 11.6066 10.9794 11.8901C10.8986 11.9536 10.8986 11.9536 10.8162 12.0185C10.8162 12.0437 10.8162 12.0689 10.8162 12.0949C11.5487 12.0949 12.2812 12.0949 13.0359 12.0949C13.0294 12.4413 13.023 12.7877 13.0164 13.1446C13.0125 13.3675 13.0087 13.5905 13.0049 13.8134C12.999 14.1652 12.993 14.517 12.9862 14.8688C12.9518 16.4534 12.9518 16.4534 12.9877 18.0376C12.9904 18.0965 12.9932 18.1554 12.996 18.2161C13.0435 19.0071 13.3206 19.6324 13.8778 20.1964C14.6503 20.8516 15.4903 20.9612 16.4801 20.8843C17.1588 20.7721 17.8368 20.4497 18.2693 19.905C18.339 19.8002 18.4061 19.6934 18.4702 19.585C18.5149 19.5112 18.5149 19.5112 18.5605 19.436C19.0325 18.5328 18.9514 17.3456 18.9444 16.3511C18.9441 16.2294 18.9439 16.1078 18.9437 15.9862C18.9431 15.6706 18.9416 15.355 18.9399 15.0393C18.9383 14.7155 18.9377 14.3916 18.9369 14.0677C18.9353 13.4356 18.9326 12.8035 18.9294 12.1713C19.5861 12.1713 20.2428 12.1713 20.9195 12.1713C20.3581 11.6108 19.7696 11.0942 19.1528 10.5956C18.91 10.3976 18.6707 10.1959 18.4319 9.9931C18.0578 9.67577 17.6806 9.36267 17.2997 9.05355C17.1537 8.93473 17.0085 8.81502 16.8637 8.69469C16.7892 8.63292 16.7148 8.57114 16.638 8.5075C16.571 8.45164 16.504 8.39577 16.435 8.33822C16.2748 8.2156 16.1281 8.12546 15.9444 8.04415Z"
        fill="#724EF5" />
    <path
        d="M15.9252 0.000156274C16.0088 7.8918e-05 16.0088 7.8918e-05 16.094 0C17.0545 0.00140503 17.9851 0.0623235 18.9294 0.248552C18.996 0.261668 19.0626 0.274784 19.1311 0.288297C21.9838 0.871457 24.5792 2.17247 26.7206 4.14496C26.8677 4.27937 27.0179 4.40694 27.1718 4.53338C27.4674 4.78544 27.7109 5.07321 27.9611 5.36933C28.0251 5.44184 28.0892 5.51435 28.1551 5.58906C28.997 6.54822 29.6618 7.60617 30.2573 8.73222C30.3028 8.81784 30.3483 8.90345 30.3951 8.99166C31.0921 10.3916 31.5475 11.929 31.7881 13.4708C31.8137 13.6191 31.8137 13.6191 31.8398 13.7703C32.4658 18.0097 31.2234 22.2662 28.7028 25.6825C28.5169 25.927 28.3189 26.1586 28.1142 26.3874C28.0637 26.4446 28.0637 26.4446 28.0122 26.5029C26.8367 27.8291 25.5164 28.9523 23.9682 29.8242C23.8759 29.8762 23.7839 29.9287 23.6922 29.9819C20.5406 31.8062 16.369 32.4675 12.8062 31.6611C12.7027 31.6383 12.7027 31.6383 12.597 31.615C10.5203 31.1463 8.48071 30.3327 6.75957 29.0625C6.67926 29.0038 6.59894 28.9452 6.5162 28.8848C5.96841 28.4782 5.45607 28.0399 4.96294 27.569C4.8841 27.4937 4.80489 27.4189 4.72532 27.3444C4.01687 26.6796 3.41985 25.9547 2.85604 25.1646C2.8245 25.1204 2.79297 25.0762 2.76048 25.0307C0.896157 22.3743 -0.0132862 19.246 0.000146627 16.0217C0.000311582 15.9505 0.000476537 15.8794 0.000646491 15.8061C0.0044588 14.7826 0.0266734 13.7852 0.253685 12.783C0.268078 12.7158 0.28247 12.6486 0.297299 12.5793C0.972772 9.49338 2.52639 6.86841 4.69299 4.60503C4.74164 4.55331 4.79028 4.50158 4.84039 4.44829C7.19735 2.00486 10.6215 0.518086 13.9543 0.0956931C14.0094 0.0884886 14.0646 0.0812842 14.1214 0.0738614C14.7211 0.00426878 15.3222 0.0006605 15.9252 0.000156274ZM5.7286 5.10343C5.64721 5.18198 5.5653 5.25999 5.48298 5.33757C3.16494 7.52382 1.69236 10.4929 1.17216 13.6237C1.16331 13.6744 1.15445 13.7252 1.14533 13.7775C0.527196 17.4479 1.51128 21.4128 3.63515 24.453C4.51081 25.6602 5.50482 26.7695 6.68303 27.6867C6.72597 27.7202 6.76892 27.7536 6.81316 27.788C9.96143 30.2189 13.9784 31.3089 17.9296 30.806C20.5244 30.4382 22.9801 29.4497 25.0526 27.8396C25.1172 27.7896 25.1172 27.7896 25.1832 27.7386C26.288 26.872 27.3087 25.8562 28.1142 24.706C28.1458 24.6613 28.1774 24.6166 28.21 24.5706C30.4787 21.3467 31.3792 17.3461 30.7309 13.458C30.4736 12.0448 30.0463 10.7102 29.4154 9.42009C29.389 9.36563 29.3627 9.31117 29.3356 9.25506C27.9542 6.42942 25.6136 4.14196 22.8329 2.69429C22.783 2.6681 22.733 2.64191 22.6815 2.61492C17.1812 -0.227219 10.1721 0.807156 5.7286 5.10343Z"
        fill="#724EF5" />
</svg>