<svg width="32" height="32" viewBox="0 0 32 32" fill="none" xmlns="http://www.w3.org/2000/svg">
    <path
        d="M15.7986 0.171443C17.0418 0.224035 18.2852 0.245732 19.5295 0.266159C21.3675 0.297437 23.2053 0.339194 25.042 0.411042C25.2377 0.418588 25.4335 0.425676 25.6293 0.432245C27.6423 0.501218 29.4542 0.705113 30.9119 2.07119C31.9835 3.24796 32.0043 4.76178 31.9968 6.22078C31.9973 6.39631 31.998 6.57184 31.9989 6.74737C32.0006 7.21991 32 7.69242 31.9987 8.16497C31.9977 8.66202 31.9987 9.15908 31.9993 9.65613C32 10.4905 31.999 11.3248 31.9972 12.1592C31.9951 13.1206 31.9958 14.082 31.9979 15.0434C31.9997 15.8723 31.9999 16.7012 31.9989 17.5301C31.9983 18.0237 31.9982 18.5172 31.9995 19.0108C32.0006 19.475 31.9998 19.9393 31.9976 20.4035C31.9971 20.5728 31.9972 20.7421 31.9981 20.9113C32.0054 22.4882 31.8314 23.8362 30.6532 25.048C29.9069 25.7279 28.8748 26.1925 27.8098 26.2371C27.2149 26.2281 26.6235 26.1763 26.0314 26.1259C20.2462 25.5409 20.2462 25.5409 15.0714 27.4241C13.4771 28.6861 12.1268 30.2085 10.9266 31.7861C10.8633 31.8567 10.7999 31.9273 10.7347 32C10.6493 32 10.5639 32 10.476 32C10.476 30.0947 10.476 28.1894 10.476 26.2263C8.63038 26.2449 8.63037 26.2449 6.78484 26.2688C5.01386 26.2841 3.41548 26.2351 2.06882 25.048C0.846794 23.8776 0.571196 22.6045 0.50318 21.0309C0.494621 20.8679 0.485937 20.7049 0.477139 20.5419C0.400273 19.049 0.360263 17.5544 0.328817 16.0601C0.307339 15.0603 0.275895 14.0627 0.217594 13.064C-0.217409 5.42786 -0.21741 5.42786 2.31431 2.72866C5.80108 -0.624496 11.1581 -0.0288604 15.7986 0.171443Z"
        fill="#09A0DB" />
    <path
        d="M17.46 8.31633C18.6231 8.30175 19.7862 8.28717 20.9845 8.27214C21.3485 8.26571 21.7125 8.25927 22.0876 8.25264C22.3807 8.25057 22.6739 8.24877 22.9671 8.24729C23.1155 8.24367 23.264 8.24006 23.4169 8.23633C24.7307 8.23557 25.7871 8.61395 26.7725 9.41362C27.5432 10.1934 27.7673 11.0526 27.7426 12.0795C27.7412 12.1828 27.7398 12.2861 27.7384 12.3925C27.7051 13.4264 27.4516 14.2716 26.6432 15.0326C26.5151 15.091 26.5151 15.091 26.3845 15.1505C26.6047 15.6804 26.8747 16.1833 27.1494 16.691C27.2488 16.8759 27.3482 17.0609 27.4475 17.2459C27.6037 17.5361 27.7601 17.8262 27.9168 18.1163C28.0683 18.3971 28.2192 18.6781 28.3701 18.9592C28.4174 19.0464 28.4647 19.1335 28.5134 19.2233C28.842 19.8369 28.842 19.8369 28.842 20.0993C27.8176 20.0993 26.7932 20.0993 25.7378 20.0993C25.5164 19.6983 25.295 19.2973 25.0668 18.8842C24.9984 18.7607 24.9301 18.6371 24.8596 18.5099C24.4896 17.8377 24.1424 17.1618 23.8213 16.4691C23.6761 16.1757 23.6761 16.1757 23.2803 15.9753C22.955 15.932 22.955 15.932 22.5917 15.9265C22.4718 15.9223 22.352 15.9181 22.2286 15.9138C22.0768 15.9098 21.925 15.9058 21.7686 15.9016C21.0444 15.8798 21.0444 15.8798 20.3055 15.8574C20.3055 17.2573 20.3055 18.6571 20.3055 20.0993C19.3664 20.0993 18.4274 20.0993 17.46 20.0993C17.46 16.2109 17.46 12.3225 17.46 8.31633Z"
        fill="#F9FCFE" />
    <path
        d="M9.05291 8.31593C9.05338 8.40041 9.05385 8.48489 9.05434 8.57192C9.05926 9.3727 9.06664 10.1734 9.07669 10.9742C9.08178 11.3857 9.08595 11.7972 9.08796 12.2088C9.09031 12.6833 9.09678 13.1576 9.10343 13.6321C9.10359 13.7781 9.10375 13.9241 9.10391 14.0745C9.12118 15.0164 9.20298 15.954 9.93348 16.678C11.0739 17.6227 11.9019 17.3104 13.7092 17.3888C13.7092 14.3948 13.7092 11.4007 13.7092 8.31593C14.6909 8.31593 15.6726 8.31593 16.684 8.31593C16.684 12.2043 16.684 16.0927 16.684 20.0989C9.24157 20.0989 9.24157 20.0989 7.46848 18.604C5.89882 17.0942 6.00743 15.2215 5.9875 13.276C5.98321 12.9696 5.97615 12.6633 5.96628 12.357C5.87435 9.48414 5.87435 9.48414 6.62574 8.6975C7.31347 8.14965 8.19229 8.28213 9.05291 8.31593Z"
        fill="#FAFDFE" />
    <path
        d="M5.82013 0.657227C5.94817 0.69611 6.07622 0.734994 6.20815 0.775057C6.36533 1.09975 6.49727 1.41195 6.62042 1.74715C6.65569 1.83722 6.69095 1.9273 6.72728 2.0201C6.90238 2.48304 7.04434 2.87164 6.9842 3.36732C6.8127 3.60125 6.8127 3.60125 6.57243 3.82575C6.48491 3.9089 6.39738 3.99205 6.30721 4.07772C6.21316 4.16408 6.11912 4.25044 6.02222 4.33941C5.92793 4.42828 5.83363 4.51714 5.73648 4.6087C5.14764 5.16182 4.55241 5.70993 3.94519 6.24632C3.73822 6.42443 3.73822 6.42443 3.62133 6.66655C2.79579 6.61751 2.1264 6.35389 1.42253 5.95957C1.37985 5.88181 1.33717 5.80404 1.29319 5.72391C1.0806 5.63889 0.865006 5.55972 0.646484 5.48825C1.22 4.8625 1.82545 4.28069 2.46029 3.70654C2.5568 3.61878 2.65331 3.53103 2.75275 3.44061C3.05814 3.16306 3.36398 2.88592 3.66983 2.60879C3.87819 2.41956 4.08652 2.23031 4.29481 2.04104C4.80291 1.57945 5.31137 1.11821 5.82013 0.657227Z"
        fill="#CBEEF8" />
    <path
        d="M20.3057 10.437C21.146 10.4225 21.146 10.4225 22.0033 10.4076C22.2661 10.4012 22.2661 10.4012 22.5343 10.3946C23.9744 10.3825 23.9744 10.3825 24.5739 10.9084C24.9553 11.2675 25.015 11.5179 25.0104 12.013C24.9898 12.6536 24.8753 13.1164 24.3555 13.5758C23.9498 13.7936 23.6544 13.7764 23.1855 13.7708C23.018 13.7697 22.8504 13.7685 22.6778 13.7674C22.5014 13.7644 22.3251 13.7614 22.1488 13.7584C21.9704 13.7566 21.7921 13.755 21.6137 13.7535C21.1777 13.7494 20.7417 13.743 20.3057 13.7363C20.3057 12.6475 20.3057 11.5588 20.3057 10.437Z"
        fill="#05A5DF" />
</svg>