<svg width="32" height="32" viewBox="0 0 32 32" fill="none" xmlns="http://www.w3.org/2000/svg">
    <g clip-path="url(#clip0_5786_84)">
        <path
            d="M0.924857 5.83105C0.5976 5.83105 0.540686 6.25834 0.455314 6.68562C0.156514 8.32353 0 11.813 0 15.3025C0 18.7919 0.142286 22.8938 0.569143 24.432C0.725657 24.9733 0.996 25.0587 1.50823 25.1442C3.17297 25.4433 8.02491 25.5999 12.8626 25.5999C17.7146 25.5999 22.5523 25.4433 24.217 25.1442C24.5301 25.0872 24.7577 25.016 24.9285 24.8593C24.6439 24.7169 24.3878 24.5887 24.0747 24.3893C23.5341 24.0617 22.9365 23.6772 22.3104 23.2499C21.0583 22.3953 19.6781 21.3983 18.3549 20.4156C17.0458 19.4328 15.7937 18.4786 14.8119 17.7095C13.8302 16.9404 13.1187 16.3707 10.9275 14.6188C8.73634 12.867 4.42509 9.13536 1.63629 6.44349C1.20943 6.00197 1.0956 5.83105 0.924857 5.83105Z"
            fill="#2199B8" />
        <path
            d="M24.9277 24.8593C25.0273 24.7596 25.0985 24.6314 25.1554 24.432C25.5822 22.8938 25.7245 18.7919 25.7245 15.3025C25.7245 11.813 25.568 8.30929 25.2692 6.68562C25.1838 6.25834 25.1269 5.83105 24.7997 5.83105C24.6147 5.83105 24.5151 5.98772 24.0598 6.42925C21.2852 9.12112 16.9597 12.8527 12.8477 16.157C13.1038 16.3564 13.8152 16.9404 14.797 17.7095C15.7787 18.4786 17.0166 19.4328 18.3399 20.4156C19.6489 21.3983 21.0291 22.3953 22.2954 23.2499C22.9215 23.6772 23.5191 24.0617 24.0598 24.3893C24.4013 24.5887 24.6574 24.7169 24.9277 24.8593Z"
            fill="#FFBE09" />
        <path
            d="M30.7057 8.2948C29.9516 9.02118 29.0551 9.84726 28.0876 10.7161C28.1445 12.0834 28.173 13.4649 28.173 15.3022C28.173 17.1395 28.1303 19.1762 28.0449 20.7144C29.354 21.6402 30.5065 22.4093 31.3744 22.8936C31.474 22.8081 31.5452 22.6515 31.6021 22.3808C31.8866 21.099 32.0005 18.0795 32.0005 15.3165C32.0005 12.5534 31.9009 9.87574 31.659 8.57965C31.5594 7.9957 31.4882 7.81055 31.2606 7.81055C31.1467 7.82479 30.976 8.03843 30.7057 8.2948Z"
            fill="#FFBE09" />
    </g>
    <defs>
        <clipPath id="clip0_5786_84">
            <rect width="32" height="32" fill="white" />
        </clipPath>
    </defs>
</svg>