<svg width="32" height="32" viewBox="0 0 32 32" fill="none" xmlns="http://www.w3.org/2000/svg">
    <g clip-path="url(#clip0_5779_75)">
        <path fill-rule="evenodd" clip-rule="evenodd"
            d="M-0.0703125 -0.0712891C10.5964 -0.0712891 21.263 -0.0712891 31.9297 -0.0712891C31.9297 10.5954 31.9297 21.262 31.9297 31.9287C21.263 31.9287 10.5964 31.9287 -0.0703125 31.9287C-0.0703125 21.262 -0.0703125 10.5954 -0.0703125 -0.0712891Z"
            fill="#F9F9F9" />
        <path fill-rule="evenodd" clip-rule="evenodd"
            d="M25.2438 14.1509C23.6567 12.4928 22.0449 10.8572 20.4082 9.24422C20.5152 9.14882 20.5627 9.0303 20.5504 8.88866C21.0192 8.34856 21.517 7.82707 22.0438 7.32422C22.2092 7.57811 22.304 7.86256 22.3282 8.17755C23.1342 8.22495 23.5608 8.65162 23.6082 9.45755C24.4142 9.50495 24.8408 9.93162 24.8882 10.7376C25.6942 10.785 26.1208 11.2116 26.1682 12.0176C26.3578 12.2072 26.5475 12.2072 26.7371 12.0176C26.8556 12.1361 26.9742 12.2546 27.0926 12.3731C26.495 12.9946 25.8786 13.5872 25.2438 14.1509Z"
            fill="#18A8F3" />
        <path fill-rule="evenodd" clip-rule="evenodd"
            d="M20.5504 8.88867C20.5626 9.03031 20.5151 9.14882 20.4082 9.24423C22.0449 10.8572 23.6567 12.4928 25.2438 14.1509C24.7697 14.7198 24.2482 15.2413 23.6793 15.7153C22.0962 14.061 20.4843 12.4255 18.8438 10.8087C18.9507 10.7133 18.9982 10.5948 18.986 10.4531C19.46 9.88423 19.9815 9.36274 20.5504 8.88867Z"
            fill="#14A2F3" />
        <path fill-rule="evenodd" clip-rule="evenodd"
            d="M14.1503 13.8669C13.1143 15.2594 12.0476 16.6343 10.9503 17.9913C10.8817 18.1262 10.858 18.2684 10.8792 18.418C10.5948 18.7973 10.2629 19.1291 9.88367 19.4136C8.09255 17.8598 6.38589 16.2005 4.76367 14.4358C5.19034 14.0565 5.61701 13.6773 6.04367 13.298C7.25797 14.0224 8.22983 13.7854 8.95923 12.5869C9.11918 11.8901 9.00067 11.2501 8.60367 10.6669C9.00663 10.2639 9.4096 9.86097 9.81256 9.45801C11.2872 10.9089 12.7332 12.3785 14.1503 13.8669Z"
            fill="#F9C007" />
        <path fill-rule="evenodd" clip-rule="evenodd"
            d="M18.9865 10.4531C18.9987 10.5948 18.9512 10.7133 18.8443 10.8087C20.4848 12.4255 22.0968 14.061 23.6798 15.7153C23.0161 16.4738 22.305 17.1849 21.5465 17.8487C19.9634 16.1944 18.3515 14.5588 16.7109 12.942C16.8991 12.826 16.9938 12.66 16.9954 12.4442C17.6116 11.7331 18.2754 11.0694 18.9865 10.4531Z"
            fill="#149CF3" />
        <path fill-rule="evenodd" clip-rule="evenodd"
            d="M16.9946 12.4443C16.993 12.6601 16.8983 12.8261 16.7101 12.9421C18.3507 14.5589 19.9626 16.1945 21.5457 17.8488C20.882 18.6073 20.1708 19.3184 19.4124 19.9821C17.8092 18.4502 16.2212 16.8858 14.6479 15.2888C14.6202 15.1012 14.6439 14.9115 14.719 14.7199C14.719 14.6725 14.719 14.625 14.719 14.5777C15.4775 13.8666 16.2361 13.1554 16.9946 12.4443Z"
            fill="#1496F3" />
        <path fill-rule="evenodd" clip-rule="evenodd"
            d="M14.1517 13.8667C14.4485 14.021 14.6381 14.258 14.7206 14.5778C14.7206 14.6252 14.7206 14.6727 14.7206 14.72C13.9621 15.3838 13.251 16.0949 12.5873 16.8534C12.0184 17.3749 11.4495 17.8963 10.8806 18.4178C10.8593 18.2682 10.883 18.126 10.9517 17.9911C12.049 16.6341 13.1156 15.2592 14.1517 13.8667Z"
            fill="#DA8520" />
        <path fill-rule="evenodd" clip-rule="evenodd"
            d="M14.7196 14.7202C14.6445 14.9118 14.6207 15.1015 14.6485 15.2891C16.2217 16.8861 17.8098 18.4506 19.4129 19.9824C18.7491 20.7409 18.038 21.452 17.2796 22.1158C15.6764 20.5839 14.0883 19.0195 12.5151 17.4224C12.4874 17.2348 12.5111 17.0451 12.5862 16.8535C13.2499 16.0951 13.9611 15.384 14.7196 14.7202Z"
            fill="#188FF3" />
        <path fill-rule="evenodd" clip-rule="evenodd"
            d="M12.587 16.8535C12.5119 17.0451 12.4881 17.2348 12.5159 17.4224C14.0891 19.0194 15.6772 20.5839 17.2803 22.1157C16.5248 22.9661 15.7189 23.7721 14.8625 24.5335C14.4144 24.1566 13.9877 23.7536 13.5825 23.3246C14.4157 22.2281 14.2735 21.2799 13.1559 20.4802C12.86 20.3566 12.5518 20.2855 12.2314 20.2668C11.7589 20.3772 11.3085 20.4957 10.8803 20.6224C10.4612 20.276 10.1294 19.873 9.88477 19.4135C10.264 19.1291 10.5959 18.7973 10.8803 18.418C11.4492 17.8964 12.0181 17.375 12.587 16.8535Z"
            fill="#1F89F3" />
    </g>
    <defs>
        <clipPath id="clip0_5779_75">
            <rect width="32" height="32" fill="white" />
        </clipPath>
    </defs>
</svg>