<svg width="32" height="32" viewBox="0 0 32 32" fill="none" xmlns="http://www.w3.org/2000/svg">
    <g clip-path="url(#clip0_5871_454)">
        <path fill-rule="evenodd" clip-rule="evenodd"
            d="M-0.0712891 -0.0712891C10.5954 -0.0712891 21.262 -0.0712891 31.9287 -0.0712891C31.9287 10.5954 31.9287 21.262 31.9287 31.9287C21.262 31.9287 10.5954 31.9287 -0.0712891 31.9287C-0.0712891 21.262 -0.0712891 10.5954 -0.0712891 -0.0712891Z"
            fill="#F9F9F9" />
        <path fill-rule="evenodd" clip-rule="evenodd"
            d="M13.7248 15.8582C14.8839 15.9994 16.0691 16.0468 17.2804 16.0004C17.2804 13.8671 17.2804 11.7338 17.2804 9.60044C17.6407 8.52002 18.3519 8.21187 19.4137 8.676C19.7727 8.9438 19.9624 9.29936 19.9826 9.74266C19.4589 9.71915 18.9375 9.74286 18.4181 9.81377C18.2997 9.93229 18.1811 10.0508 18.0626 10.1693C17.9677 14.1042 17.9677 18.0389 18.0626 21.9738C18.1337 22.2345 18.2997 22.4004 18.5604 22.4716C19.0321 22.5424 19.5061 22.5661 19.9826 22.5427C19.6391 23.4793 18.9754 23.7875 17.9915 23.4671C17.7308 23.3011 17.5174 23.0878 17.3515 22.8271C17.2804 20.7892 17.2566 18.7506 17.2804 16.7116C16.0952 16.7116 14.9099 16.7116 13.7248 16.7116C13.7485 18.6084 13.7248 20.5048 13.6537 22.4004C13.3866 23.3997 12.7466 23.7553 11.7337 23.4671C11.0998 23.1714 10.8153 22.6737 10.8804 21.9738C11.6845 22.7866 12.3719 22.6917 12.9426 21.6893C13.0374 17.9442 13.0374 14.199 12.9426 10.4538C12.5283 9.71573 11.9357 9.5498 11.1648 9.956C11.0843 10.0975 10.9895 10.216 10.8804 10.3116C10.7766 8.9694 11.3929 8.37682 12.7292 8.53377C13.0313 8.69331 13.292 8.90664 13.5115 9.17377C13.7204 11.3883 13.7915 13.6164 13.7248 15.8582Z"
            fill="#F08D1C" />
        <path fill-rule="evenodd" clip-rule="evenodd"
            d="M17.2802 9.59961C17.2802 11.7329 17.2802 13.8663 17.2802 15.9996C16.0689 16.046 14.8837 15.9986 13.7246 15.8574C14.8624 15.8574 16.0002 15.8574 17.1379 15.8574C17.0912 13.7464 17.1385 11.6605 17.2802 9.59961Z"
            fill="#FACEB1" />
        <path fill-rule="evenodd" clip-rule="evenodd"
            d="M10.8801 10.3111C10.9892 10.2155 11.084 10.097 11.1645 9.95555C11.9354 9.54935 12.528 9.71528 12.9423 10.4533C13.0371 14.1985 13.0371 17.9437 12.9423 21.6889C12.3716 22.6913 11.6842 22.7861 10.8801 21.9733C8.60626 18.566 6.25959 15.2 3.84006 11.8756C3.32856 11.3194 3.23374 10.7031 3.55562 10.0267C4.03623 9.68206 4.53401 9.65835 5.04895 9.95555C6.96278 12.6691 8.85907 15.395 10.7378 18.1333C10.88 15.5277 10.9274 12.9202 10.8801 10.3111Z"
            fill="#1E2A50" />
        <path fill-rule="evenodd" clip-rule="evenodd"
            d="M19.9824 9.74228C21.7845 9.71859 23.586 9.7423 25.3868 9.81339C27.3601 10.2287 28.2372 11.4376 28.0179 13.4401C27.7709 14.4356 27.1784 15.123 26.2401 15.5023C28.7235 16.561 29.4108 18.3388 28.3024 20.8356C27.444 21.7744 26.3774 22.3197 25.1024 22.4712C23.3964 22.5423 21.6897 22.566 19.9824 22.5423C19.5059 22.5657 19.0319 22.542 18.5601 22.4712C18.2994 22.4001 18.1335 22.2341 18.0624 21.9734C17.9675 18.0385 17.9675 14.1038 18.0624 10.1689C18.1808 10.0504 18.2994 9.93191 18.4179 9.81339C18.9373 9.74248 19.4587 9.71877 19.9824 9.74228Z"
            fill="#192A51" />
        <path fill-rule="evenodd" clip-rule="evenodd"
            d="M19.9824 11.4493C21.5949 11.4256 23.2069 11.4493 24.818 11.5204C25.9384 12.0908 26.2466 12.9679 25.7424 14.1515C25.523 14.4186 25.2623 14.632 24.9602 14.7915C23.3099 14.9923 21.6505 15.0635 19.9824 15.0049C19.9824 13.8197 19.9824 12.6345 19.9824 11.4493Z"
            fill="#F5F5F6" />
        <path fill-rule="evenodd" clip-rule="evenodd"
            d="M19.9824 16.7111C21.7372 16.6873 23.4912 16.7111 25.2446 16.7822C26.6472 17.3852 27.0502 18.4045 26.4535 19.8399C26.1172 20.3191 25.6668 20.6273 25.1024 20.7644C23.3965 20.8355 21.6898 20.8593 19.9824 20.8355C19.9824 19.4606 19.9824 18.0859 19.9824 16.7111Z"
            fill="#F5F5F6" />
    </g>
    <defs>
        <clipPath id="clip0_5871_454">
            <rect width="32" height="32" fill="white" />
        </clipPath>
    </defs>
</svg>