<svg width="32" height="32" viewBox="0 0 32 32" fill="none" xmlns="http://www.w3.org/2000/svg">
    <g clip-path="url(#clip0_5798_310)">
        <path
            d="M29.3362 17.3157L25.3127 15.0116L24.6187 14.7119L8.15918 14.8243V23.1696H29.3362V17.3157Z"
            fill="white" />
        <path
            d="M22.0117 22.4018C22.2086 21.7274 22.1336 21.1092 21.8054 20.6503C21.5052 20.2288 20.9988 19.9853 20.3892 19.9572L8.84407 19.8073C8.80895 19.8075 8.77432 19.7991 8.74324 19.7827C8.71216 19.7664 8.68559 19.7427 8.66588 19.7137C8.64716 19.6831 8.63499 19.6491 8.63014 19.6136C8.6253 19.5781 8.62789 19.542 8.63774 19.5076C8.65866 19.4509 8.69539 19.4014 8.74358 19.3649C8.79178 19.3284 8.84942 19.3064 8.90972 19.3015L20.558 19.1517C21.9367 19.0861 23.4372 17.9715 23.9625 16.6041L24.6283 14.8713C24.6576 14.8001 24.6641 14.7216 24.6471 14.6465C24.2856 13.0345 23.4062 11.5846 22.143 10.518C20.8798 9.45133 19.3021 8.82636 17.6502 8.73831C15.9983 8.65026 14.3629 9.10395 12.9932 10.0303C11.6235 10.9566 10.5946 12.3047 10.0633 13.8692C9.58027 13.5067 9.00947 13.279 8.40935 13.2093C7.80922 13.1396 7.20133 13.2304 6.6479 13.4724C6.09447 13.7145 5.6154 14.099 5.25972 14.5868C4.90404 15.0745 4.68453 15.6479 4.62368 16.2482C4.58495 16.6466 4.61348 17.0487 4.70809 17.4377C3.44634 17.4733 2.24833 17.9993 1.36902 18.9037C0.489704 19.808 -0.00147818 21.0194 3.34175e-06 22.28C0.00162072 22.5149 0.0172797 22.7494 0.0468966 22.9825C0.0549112 23.0366 0.0819615 23.0861 0.123204 23.1222C0.164446 23.1582 0.217188 23.1784 0.271984 23.1792H21.5803C21.6416 23.178 21.701 23.1574 21.7499 23.1204C21.7987 23.0833 21.8346 23.0318 21.8523 22.9731L22.0117 22.4018Z"
            fill="#F38020" />
        <path
            d="M25.6885 14.9932C25.5853 14.9932 25.4728 14.9932 25.3696 15.0025C25.3314 15.0046 25.2948 15.0183 25.2646 15.0417C25.2345 15.0651 25.2122 15.0972 25.2008 15.1337L24.7506 16.6978C24.5536 17.3722 24.6287 17.9903 24.9569 18.4493C25.257 18.8708 25.7635 19.1143 26.3731 19.1424L28.8303 19.2922C28.8654 19.292 28.9001 19.3005 28.9311 19.3168C28.9622 19.3332 28.9888 19.3569 29.0085 19.3859C29.0269 19.4166 29.0389 19.4506 29.0437 19.4861C29.0486 19.5215 29.0462 19.5575 29.0366 19.592C29.0157 19.6486 28.979 19.6982 28.9308 19.7347C28.8826 19.7712 28.825 19.7932 28.7647 19.798L26.2043 19.9479C24.8163 20.0134 23.325 21.128 22.7998 22.4955L22.6123 22.9732C22.6033 22.9942 22.5999 23.0172 22.6023 23.0399C22.6047 23.0627 22.6128 23.0844 22.626 23.1031C22.6391 23.1219 22.6568 23.137 22.6774 23.147C22.6979 23.157 22.7207 23.1617 22.7436 23.1605H31.5407C31.5916 23.1611 31.6413 23.1449 31.682 23.1144C31.7227 23.0839 31.7522 23.0409 31.7658 22.9919C31.9204 22.4368 31.9993 21.8634 32.0003 21.2872C31.9961 19.6176 31.3294 18.0177 30.1464 16.838C28.9633 15.6583 27.3603 14.9949 25.6885 14.9932Z"
            fill="#FAAE40" />
    </g>
    <defs>
        <clipPath id="clip0_5798_310">
            <rect width="32" height="32" fill="white" />
        </clipPath>
    </defs>
</svg>