<svg width="32" height="32" viewBox="0 0 32 32" fill="none" xmlns="http://www.w3.org/2000/svg">
    <g clip-path="url(#clip0_5654_296)">
        <rect width="32" height="32" fill="black" />
        <path fill-rule="evenodd" clip-rule="evenodd"
            d="M9.0668 -0.533203C11.5556 -0.533203 14.0446 -0.533203 16.5335 -0.533203C20.6884 0.950506 23.7106 3.79495 25.6001 8.00013C27.3193 5.24926 28.9193 5.24926 30.4001 8.00013C28.8193 10.1152 27.0415 12.0709 25.0668 13.8668C25.7476 15.6873 25.7476 17.6428 25.0668 19.7335C24.3556 19.7335 24.0001 20.089 24.0001 20.8001C23.289 20.8001 22.9335 21.1557 22.9335 21.8668C22.2223 21.8668 21.8668 22.2223 21.8668 22.9335C21.1556 22.9335 20.8001 23.289 20.8001 24.0001C20.089 24.0001 19.7335 24.3557 19.7335 25.0668C10.2982 27.9809 3.54267 25.1365 -0.533203 16.5335C-0.533203 14.0446 -0.533203 11.5557 -0.533203 9.0668C0.889019 4.08902 4.08902 0.889019 9.0668 -0.533203ZM22.9335 10.1335C22.8695 10.7128 22.5139 11.0683 21.8668 11.2001C20.7489 10.2584 19.5044 9.54726 18.1335 9.0668C16.04 10.2672 14.0844 11.6894 12.2668 13.3335C11.224 12.825 10.3352 12.1139 9.60013 11.2001C3.33265 16.8183 2.0882 15.3961 5.8668 6.93346C8.57506 4.22379 11.7751 3.3349 15.4668 4.2668C18.4615 5.67071 20.9503 7.62627 22.9335 10.1335ZM22.9335 15.4668C20.6894 17.1721 18.5561 19.1276 16.5335 21.3335C12.6719 22.2302 9.11632 21.5191 5.8668 19.2001C7.11124 17.9557 8.35568 16.7113 9.60013 15.4668C10.3881 16.6126 11.4547 17.3238 12.8001 17.6001C14.2489 15.7989 16.0267 14.3767 18.1335 13.3335C19.317 14.9727 20.917 15.6839 22.9335 15.4668Z"
            fill="#F9FAF9" />
        <path fill-rule="evenodd" clip-rule="evenodd"
            d="M25.0667 19.7334C27.856 20.7466 29.9893 22.5243 31.4667 25.0667C31.4667 26.4889 31.4667 27.9112 31.4667 29.3334C30.4001 29.6889 29.6889 30.4001 29.3334 31.4667C27.9112 31.4667 26.4889 31.4667 25.0667 31.4667C22.5243 29.9893 20.7466 27.856 19.7334 25.0667C20.4445 25.0667 20.8001 24.7112 20.8001 24.0001C21.5112 24.0001 21.8667 23.6445 21.8667 22.9334C22.5779 22.9334 22.9334 22.5779 22.9334 21.8667C23.6445 21.8667 24.0001 21.5112 24.0001 20.8001C24.7112 20.8001 25.0667 20.4445 25.0667 19.7334Z"
            fill="#F9FAF9" />
    </g>
    <defs>
        <clipPath id="clip0_5654_296">
            <rect width="32" height="32" fill="white" />
        </clipPath>
    </defs>
</svg>