<svg width="32" height="32" viewBox="0 0 32 32" fill="none" xmlns="http://www.w3.org/2000/svg">
    <path fill-rule="evenodd" clip-rule="evenodd"
        d="M14.5487 0.0487975C19.8174 -0.31735 24.2599 1.37702 27.876 5.13193C27.8225 5.43082 27.6608 5.67287 27.3914 5.85809C28.537 6.44014 28.537 6.80322 27.3914 6.94734C27.1449 7.20137 27.1045 7.48375 27.2702 7.79453C27.3727 7.44207 27.5746 7.32104 27.876 7.43144C28.7827 8.15431 29.5499 9.0015 30.178 9.97301C30.5817 9.76964 30.6221 9.89067 30.2991 10.3361C29.9475 10.2725 29.6245 10.3129 29.3299 10.4571C29.6529 10.7282 29.774 11.0509 29.6934 11.4253C29.477 11.1322 29.2751 11.1322 29.0876 11.4253C29.4525 11.7272 29.816 11.7272 30.178 11.4253C31.1606 11.8404 31.6857 12.5665 31.753 13.6038C31.9408 14.8859 32.0215 16.1769 31.9953 17.4767C31.8214 19.6907 31.1754 21.7079 30.0568 23.528C30.0074 22.791 30.0074 22.1051 30.0568 21.4706C29.4983 21.5457 28.933 21.4247 28.3606 21.1075C28.1491 20.0743 28.0684 19.0254 28.1183 17.9608C27.1457 18.0009 26.1764 17.9605 25.2105 17.8398C25.3722 17.7591 25.5335 17.6784 25.6952 17.5977C25.3133 17.4913 24.99 17.2896 24.7259 16.9926C24.5909 17.4359 24.3486 17.7587 23.999 17.9608C24.0407 17.7208 23.9597 17.5594 23.7567 17.4767C23.6968 16.7493 23.9391 16.1442 24.4836 15.6613C24.2539 15.5444 24.0116 15.5041 23.7567 15.5403C23.8749 14.7631 23.7133 14.0773 23.272 13.4828C24.771 13.4595 24.8519 13.1771 23.5143 12.6356C23.3527 12.676 23.1913 12.7163 23.0297 12.7566C23.3195 12.915 23.3195 13.036 23.0297 13.1197C22.7874 13.039 22.6258 12.8777 22.5451 12.6356C23.0404 12.4988 23.4441 12.2567 23.7567 11.9094C24.0719 11.5743 24.0719 11.2112 23.7567 10.8202C23.2994 10.6315 22.8955 10.6718 22.5451 10.9412C22.3848 11.2359 22.2233 11.5587 22.0605 11.9094C21.939 11.3878 21.6966 10.9844 21.3335 10.6992C19.9622 10.4332 18.5891 10.1105 17.2142 9.73096C16.8674 9.84632 16.5443 10.0077 16.2449 10.2151C14.9157 10.3765 13.6234 10.5378 12.3679 10.6992C11.6459 12.931 10.919 15.1902 10.1871 17.4767C9.87132 16.2866 9.46748 15.157 8.97548 14.0879C8.84054 12.9588 8.51746 11.91 8.00623 10.9412C8.00623 10.8606 8.00623 10.7799 8.00623 10.6992C6.67711 10.4989 5.30399 10.3779 3.88688 10.3361C4.07582 10.0764 4.03542 9.79399 3.76573 9.4889C3.01206 9.77293 2.97166 9.6519 3.64457 9.12582C3.35345 8.90737 3.15151 8.62496 3.03878 8.27863C2.95802 8.35931 2.87723 8.44001 2.79647 8.52069C2.71571 8.27863 2.63492 8.03658 2.55415 7.79453C2.27239 8.22664 2.11084 8.71075 2.06953 9.24685C2.00207 9.02518 1.88091 8.8638 1.70605 8.76274C3.42331 5.27281 6.08877 2.77159 9.70243 1.25907C11.3801 1.00147 12.9956 0.598052 14.5487 0.0487975Z"
        fill="#0E4AF7" />
    <path fill-rule="evenodd" clip-rule="evenodd"
        d="M14.5484 0.0488281C12.9953 0.598083 11.3798 1.0015 9.70215 1.2591C11.1973 0.482269 12.8127 0.0788452 14.5484 0.0488281Z"
        fill="#3053D6" />
    <path fill-rule="evenodd" clip-rule="evenodd"
        d="M27.8756 5.13184C29.8658 7.2516 31.1583 9.75284 31.7527 12.6355C31.7527 12.9582 31.7527 13.281 31.7527 13.6037C31.6853 12.5664 31.1602 11.8403 30.1776 11.4252C29.8156 11.7271 29.4521 11.7271 29.0872 11.4252C29.2748 11.1321 29.4766 11.1321 29.693 11.4252C29.7737 11.0508 29.6525 10.7281 29.3295 10.457C29.6242 10.3128 29.9472 10.2724 30.2988 10.336C30.6218 9.89057 30.5813 9.76954 30.1776 9.97292C29.5495 9.00141 28.7824 8.15422 27.8756 7.43135C27.5742 7.32095 27.3723 7.44198 27.2699 7.79443C27.1041 7.48366 27.1446 7.20128 27.391 6.94724C28.5367 6.80312 28.5367 6.44004 27.391 5.858C27.6605 5.67278 27.8221 5.43072 27.8756 5.13184Z"
        fill="#1F4EEC" />
    <path fill-rule="evenodd" clip-rule="evenodd"
        d="M8.00588 10.6991C6.78365 10.6198 5.57208 10.7005 4.37117 10.9411C5.16002 12.6758 5.8062 14.4508 6.30968 16.2663C6.46801 17.3464 6.75072 18.3953 7.15778 19.413C7.24909 19.7621 7.45101 20.0042 7.76357 20.1392C7.69793 20.5942 7.85948 20.9169 8.2482 21.1074C9.5772 21.3862 10.9503 21.4265 12.3675 21.2284C12.5023 21.1358 12.583 21.0148 12.6099 20.8653C12.9195 20.9337 13.1618 21.095 13.3368 21.3495C14.0366 21.473 14.6019 21.3116 15.033 20.8653C15.6867 20.135 16.4944 19.6509 17.4561 19.413C18.1657 19.3973 18.8118 19.2359 19.3947 18.9289C19.4775 18.726 19.639 18.6453 19.8793 18.6869C21.0101 18.6869 22.1409 18.6869 23.2717 18.6869C22.8304 19.2575 22.2649 19.3382 21.5755 18.9289C21.1841 19.0872 20.7803 19.2082 20.3639 19.292C21.4139 19.4534 22.4641 19.4534 23.514 19.292C23.9749 19.2438 24.3384 19.0421 24.6044 18.6869C24.5916 19.4554 24.7934 20.1009 25.2102 20.6233C25.9127 21.0628 26.6396 21.1435 27.391 20.8653C27.6903 20.9189 27.9326 21.0803 28.118 21.3495C28.2651 21.3195 28.3457 21.2389 28.3603 21.1074C28.9326 21.4246 29.498 21.5456 30.0565 21.4705C30.0071 22.105 30.0071 22.7909 30.0565 23.5279C28.1836 27.2561 25.2759 29.7572 21.3332 31.0316C20.0582 31.1788 18.8062 31.4208 17.5773 31.7578C17.1659 31.4593 16.6813 31.2979 16.1234 31.2737C14.7144 31.4414 13.3009 31.522 11.8829 31.5157C5.59079 29.8293 1.79452 25.795 0.494141 19.413C0.609916 17.0583 0.609916 14.7185 0.494141 12.3935C0.574911 11.9094 0.655692 11.4252 0.736455 10.9411C0.875761 10.1153 1.19884 9.38918 1.70571 8.76265C1.88057 8.86371 2.00172 9.02508 2.06918 9.24676C2.1105 8.71066 2.27205 8.22655 2.55381 7.79443C2.63458 8.03649 2.71536 8.27854 2.79613 8.5206C2.87689 8.43992 2.95768 8.35922 3.03844 8.27854C3.15117 8.62487 3.35311 8.90728 3.64423 9.12573C2.97132 9.65181 3.01171 9.77284 3.76538 9.48881C4.03508 9.7939 4.07547 10.0763 3.88654 10.336C5.30364 10.3778 6.67677 10.4989 8.00588 10.6991Z"
        fill="#0E4AF7" />
    <path fill-rule="evenodd" clip-rule="evenodd"
        d="M21.3338 10.6992C19.8799 10.6992 18.426 10.6992 16.9721 10.6992C15.938 14.0401 14.8073 17.3482 13.5797 20.6234C13.3607 20.795 13.2799 21.0371 13.3374 21.3495C13.1624 21.0951 12.9201 20.9337 12.6105 20.8654C12.7679 20.397 12.8486 19.9129 12.8528 19.4131C13.8336 16.5656 14.8836 13.7416 16.0029 10.9412C14.802 10.7006 13.5904 10.6199 12.3682 10.6992C13.6237 10.5378 14.916 10.3765 16.2452 10.2151C16.5446 10.0077 16.8677 9.84632 17.2145 9.73096C18.5894 10.1105 19.9625 10.4332 21.3338 10.6992Z"
        fill="#224EE6" />
    <path fill-rule="evenodd" clip-rule="evenodd"
        d="M23.7566 11.9095C22.8077 12.3361 22.4038 12.0134 22.545 10.9412C22.8954 10.6719 23.2993 10.6315 23.7566 10.8202C24.0718 11.2113 24.0718 11.5743 23.7566 11.9095Z"
        fill="#0E4AF7" />
    <path fill-rule="evenodd" clip-rule="evenodd"
        d="M21.333 10.6992C21.6961 10.9844 21.9385 11.3878 22.06 11.9095C22.2228 11.5587 22.3843 11.236 22.5446 10.9413C22.4034 12.0134 22.8072 12.3362 23.7562 11.9095C23.4436 12.2568 23.0399 12.4988 22.5446 12.6357C22.6253 12.8777 22.7869 13.0391 23.0292 13.1198C23.319 13.0361 23.319 12.9151 23.0292 12.7567C23.1908 12.7163 23.3522 12.676 23.5138 12.6357C24.8514 13.1771 24.7705 13.4596 23.2715 13.4828C23.7128 14.0773 23.8744 14.7631 23.7562 15.5403C24.0111 15.5041 24.2534 15.5445 24.4831 15.6613C23.9386 16.1442 23.6963 16.7494 23.7562 17.4767C22.8652 15.2781 22.0574 13.0189 21.333 10.6992Z"
        fill="#2450EB" />
    <path fill-rule="evenodd" clip-rule="evenodd"
        d="M0.252123 12.3936C0.332893 12.3936 0.413666 12.3936 0.494437 12.3936C0.610212 14.7186 0.610212 17.0584 0.494437 19.4131C0.118387 18.2268 -0.0431567 16.9762 0.00980834 15.6613C0.0241606 14.5602 0.104931 13.471 0.252123 12.3936Z"
        fill="#194CE1" />
    <path fill-rule="evenodd" clip-rule="evenodd"
        d="M21.3332 10.6992C22.0575 13.0189 22.8653 15.2781 23.7563 17.4767C23.7563 17.7995 23.7563 18.1222 23.7563 18.4449C22.4172 18.3672 21.1249 18.4478 19.8793 18.687C19.639 18.6455 19.4774 18.7262 19.3946 18.9291C18.6689 18.8791 18.0227 19.0405 17.4561 19.4132C16.4944 19.651 15.6867 20.1351 15.033 20.8655C14.4243 21.2718 13.9396 21.1911 13.5791 20.6234C14.8066 17.3483 15.9374 14.0402 16.9715 10.6992C18.4254 10.6992 19.8793 10.6992 21.3332 10.6992Z"
        fill="#E6EBF3" />
    <path fill-rule="evenodd" clip-rule="evenodd"
        d="M19.8797 16.5085C19.7657 16.7974 19.5234 16.9588 19.1527 16.9926C18.7821 16.9588 18.5398 16.7974 18.4258 16.5085C19.0146 13.3338 19.4992 13.3338 19.8797 16.5085Z"
        fill="#204CE2" />
    <path fill-rule="evenodd" clip-rule="evenodd"
        d="M6.30957 16.2666C6.93171 17.483 7.41634 18.774 7.76346 20.1395C7.4509 20.0045 7.24897 19.7624 7.15767 19.4133C6.75061 18.3955 6.4679 17.3466 6.30957 16.2666Z"
        fill="#3B5ED0" />
    <path fill-rule="evenodd" clip-rule="evenodd"
        d="M18.4253 16.5083C18.5393 16.7972 18.7816 16.9585 19.1522 16.9924C19.5229 16.9585 19.7652 16.7972 19.8792 16.5083C20.0982 16.6799 20.179 16.922 20.1215 17.2345C19.4753 17.2345 18.8292 17.2345 18.183 17.2345C18.1255 16.922 18.2062 16.6799 18.4253 16.5083Z"
        fill="#0E4AF7" />
    <path fill-rule="evenodd" clip-rule="evenodd"
        d="M8.00581 10.6994C8.00581 10.7801 8.00581 10.8608 8.00581 10.9414C8.12917 12.0694 8.45225 13.1183 8.97507 14.0881C9.46706 15.1572 9.8709 16.2868 10.1866 17.4769C10.9185 15.1904 11.6455 12.9312 12.3675 10.6994C13.5897 10.6201 14.8013 10.7008 16.0022 10.9414C14.8829 13.7418 13.8329 16.5658 12.8521 19.4133C12.6145 19.8723 12.3722 20.3564 12.1252 20.8657C10.8428 21.1064 9.55047 21.1871 8.24812 21.1077C7.8594 20.9172 7.69785 20.5945 7.76349 20.1395C7.41638 18.774 6.93175 17.483 6.30961 16.2666C5.80613 14.4511 5.15995 12.6761 4.37109 10.9414C5.572 10.7008 6.78358 10.6201 8.00581 10.6994Z"
        fill="#E5EAF4" />
    <path fill-rule="evenodd" clip-rule="evenodd"
        d="M8.00586 10.9414C8.51709 11.9101 8.84017 12.959 8.97512 14.0881C8.4523 13.1182 8.12922 12.0693 8.00586 10.9414Z"
        fill="#0E4AF7" />
    <path fill-rule="evenodd" clip-rule="evenodd"
        d="M28.3606 21.1076C28.3461 21.2391 28.2654 21.3197 28.1183 21.3496C27.9329 21.0805 27.6906 20.9191 27.3914 20.8655C28.1217 19.9291 28.041 19.1222 27.1491 18.445C26.9191 18.2871 26.6366 18.2064 26.301 18.2029C25.8144 18.1562 25.4509 18.3176 25.2105 18.6871C24.9164 19.3235 24.9164 19.969 25.2105 20.6235C24.7938 20.1011 24.5919 19.4556 24.6048 18.6871C24.3387 19.0423 23.9752 19.244 23.5143 19.2922C22.4644 19.4536 21.4143 19.4536 20.3643 19.2922C20.7806 19.2084 21.1845 19.0874 21.5758 18.9291C22.2653 19.3384 22.8308 19.2577 23.272 18.6871C23.5143 18.6871 23.7567 18.6871 23.999 18.6871C23.999 18.445 23.999 18.2029 23.999 17.9609C24.3486 17.7588 24.5909 17.436 24.7259 16.9927C24.99 17.2897 25.3133 17.4914 25.6952 17.5978C25.5335 17.6785 25.3722 17.7592 25.2105 17.8399C26.1764 17.9606 27.1457 18.001 28.1183 17.9609C28.0684 19.0255 28.1491 20.0744 28.3606 21.1076Z"
        fill="#1F50E6" />
    <path fill-rule="evenodd" clip-rule="evenodd"
        d="M23.7569 17.4766C23.96 17.5593 24.0409 17.7206 23.9992 17.9607C23.9992 18.2027 23.9992 18.4448 23.9992 18.6868C23.7569 18.6868 23.5146 18.6868 23.2723 18.6868C22.1415 18.6868 21.0107 18.6868 19.8799 18.6868C21.1255 18.4477 22.4178 18.367 23.7569 18.4448C23.7569 18.122 23.7569 17.7993 23.7569 17.4766Z"
        fill="#0E4AF7" />
    <path fill-rule="evenodd" clip-rule="evenodd"
        d="M27.1485 18.4448C26.4853 18.4209 25.839 18.5016 25.21 18.6868C25.4503 18.3173 25.8138 18.1559 26.3004 18.2027C26.636 18.2062 26.9185 18.2868 27.1485 18.4448Z"
        fill="#0E4AF7" />
    <path fill-rule="evenodd" clip-rule="evenodd"
        d="M19.3946 18.9288C18.8118 19.2357 18.1656 19.3971 17.4561 19.4129C18.0227 19.0402 18.6688 18.8789 19.3946 18.9288Z"
        fill="#0E4AF7" />
    <path fill-rule="evenodd" clip-rule="evenodd"
        d="M27.1494 18.445C28.0413 19.1223 28.122 19.9291 27.3917 20.8656C26.6403 21.1437 25.9133 21.063 25.2109 20.6235C24.9167 19.969 24.9167 19.3235 25.2109 18.6871C25.8399 18.5018 26.4862 18.4211 27.1494 18.445Z"
        fill="#E0E9F1" />
    <path fill-rule="evenodd" clip-rule="evenodd"
        d="M12.852 19.4131C12.8479 19.9129 12.7671 20.397 12.6097 20.8654C12.5829 21.0149 12.5021 21.1359 12.3674 21.2285C10.9502 21.4266 9.57704 21.3862 8.24805 21.1075C9.55039 21.1869 10.8427 21.1062 12.1251 20.8654C12.3721 20.3561 12.6144 19.872 12.852 19.4131Z"
        fill="#0E4AF7" />
    <path fill-rule="evenodd" clip-rule="evenodd"
        d="M13.5796 20.6235C13.9401 21.1912 14.4248 21.2719 15.0335 20.8656C14.6024 21.3118 14.037 21.4732 13.3373 21.3497C13.2798 21.0372 13.3605 20.7952 13.5796 20.6235Z"
        fill="#0E4AF7" />
    <path fill-rule="evenodd" clip-rule="evenodd"
        d="M21.3331 31.0317C20.5648 31.5684 19.6763 31.8508 18.6676 31.8789C16.7291 32.0404 14.7906 32.0404 12.8521 31.8789C12.4745 31.8281 12.1514 31.7071 11.8828 31.5158C13.3008 31.5221 14.7143 31.4415 16.1233 31.2738C16.6812 31.298 17.1658 31.4594 17.5772 31.7579C18.8061 31.421 20.0581 31.1789 21.3331 31.0317Z"
        fill="#264EE1" />
</svg>