<svg width="32" height="32" viewBox="0 0 32 32" fill="none" xmlns="http://www.w3.org/2000/svg">
    <g clip-path="url(#clip0_5716_247)">
        <path fill-rule="evenodd" clip-rule="evenodd"
            d="M-0.0996094 -0.108154C10.5671 -0.108154 21.2338 -0.108154 31.9004 -0.108154C31.9004 10.5585 31.9004 21.2252 31.9004 31.8918C21.2338 31.8918 10.5671 31.8918 -0.0996094 31.8918C-0.0996094 21.2252 -0.0996094 10.5585 -0.0996094 -0.108154Z"
            fill="#F7F7F7" />
        <path fill-rule="evenodd" clip-rule="evenodd"
            d="M7.69968 20.8648C8.05328 21.9909 8.65328 22.928 9.49968 23.6756C9.56634 23.8919 9.69968 24.0361 9.89968 24.1081C10.1818 24.63 10.5818 24.9904 11.0997 25.1892C11.5641 25.657 12.0974 26.0175 12.6997 26.2702C14.8837 27.4906 17.217 27.8869 19.6997 27.4594C20.0979 27.3786 20.4313 27.1984 20.6997 26.9189C21.1423 26.4086 21.6755 26.0121 22.2997 25.7297C22.7247 25.2462 23.0579 24.7057 23.2997 24.1081C23.8627 23.2512 24.2627 22.3143 24.4997 21.2973C24.4523 21.0181 24.5189 20.8019 24.6997 20.6486C25.3669 19.5532 25.6337 18.328 25.4997 16.9729C25.4963 16.2349 25.3629 15.5863 25.0997 15.027C25.1861 14.2967 25.0527 13.6481 24.6997 13.081C23.9619 9.78723 22.1619 8.85028 19.2997 10.2702C17.5434 12.182 16.71 14.4883 16.7997 17.1892C15.7566 18.1663 14.8899 18.0221 14.1997 16.7567C14.2337 13.3016 13.6337 9.9863 12.3997 6.81077C11.6933 5.25702 10.5266 4.57233 8.89968 4.75672C8.15738 4.21337 7.92404 3.45661 8.19968 2.48645C8.40128 2.10612 8.70128 1.85386 9.09968 1.72969C11.8241 1.27451 13.7907 2.39162 14.9997 5.08104C15.5244 6.2692 15.9577 7.49443 16.2997 8.75672C18.156 6.63471 20.4227 5.87795 23.0997 6.48645C25.1831 7.29737 26.6165 8.84693 27.3997 11.1351C28.7247 16.2467 28.2581 21.1476 25.9997 25.8378C22.9831 30.4132 18.9497 31.8906 13.8997 30.2702C9.16246 28.7524 5.9958 25.473 4.39968 20.4324C3.85302 13.8162 6.61968 10.8252 12.6997 11.4594C13.4997 12.3964 13.4997 13.3333 12.6997 14.2702C11.5725 14.4983 10.4392 14.7145 9.29968 14.9189C7.90228 15.5258 7.23562 16.6429 7.29968 18.2702C7.30582 19.1669 7.43916 20.0318 7.69968 20.8648Z"
            fill="#050405" />
        <path fill-rule="evenodd" clip-rule="evenodd"
            d="M24.6996 13.081C25.0526 13.648 25.186 14.2967 25.0996 15.0269C25.1328 16.3262 25.0994 17.6235 24.9996 18.9188C24.96 19.3257 24.86 19.686 24.6996 19.9999C24.9238 17.9094 24.9238 15.8193 24.6996 13.7296C23.3956 13.2991 22.0624 13.191 20.6996 13.4053C20.4838 13.612 20.2506 13.7922 19.9996 13.9458C19.9372 14.5532 19.6372 14.9136 19.0996 15.0269C19.2036 14.1543 19.6036 13.4696 20.2996 12.9729C21.7718 12.8251 23.2386 12.8612 24.6996 13.081Z"
            fill="#C24691" />
        <path fill-rule="evenodd" clip-rule="evenodd"
            d="M24.6998 20C24.6998 20.2162 24.6998 20.4325 24.6998 20.6487C24.519 20.802 24.4524 21.0182 24.4998 21.2973C24.0754 21.8046 23.7086 22.3812 23.3998 23.027C23.301 23.3803 23.2678 23.7408 23.2998 24.1081C22.4998 24.1081 22.0998 24.5406 22.0998 25.4054C21.4914 25.7948 20.7246 26.1553 19.7998 26.4865C19.5546 26.4552 19.3213 26.3832 19.0998 26.2703C18.5019 26.603 17.8686 26.8193 17.1998 26.9189C16.3195 26.7099 15.4195 26.6379 14.4998 26.7027C13.9194 26.4696 13.3194 26.3256 12.6998 26.2703C12.3731 25.5574 11.8398 25.197 11.0998 25.1892C10.8176 24.6673 10.4176 24.3068 9.8998 24.1081C9.6998 24.0361 9.56646 23.8919 9.4998 23.6757C8.96844 22.6997 8.56844 21.6547 8.2998 20.5406C8.73404 18.4544 9.93404 17.7337 11.8998 18.3784C13.4611 18.9523 15.0611 19.4207 16.6998 19.7838C17.0664 19.7653 17.333 19.6212 17.4998 19.3514C17.7468 19.3035 17.9468 19.1593 18.0998 18.9189C18.5581 17.6502 18.8914 16.3529 19.0998 15.027C19.6374 14.9137 19.9374 14.5534 19.9998 13.946C20.2508 13.7923 20.484 13.6121 20.6998 13.4054C22.0626 13.1911 23.3958 13.2992 24.6998 13.7297C24.924 15.8194 24.924 17.9095 24.6998 20Z"
            fill="#F027A2" />
        <path fill-rule="evenodd" clip-rule="evenodd"
            d="M25.1002 15.0271C25.3634 15.5864 25.4968 16.235 25.5002 16.973C25.6342 18.3281 25.3674 19.5533 24.7002 20.6487C24.7002 20.4325 24.7002 20.2163 24.7002 20.0001C24.8606 19.6862 24.9606 19.3258 25.0002 18.919C25.1 17.6237 25.1334 16.3264 25.1002 15.0271Z"
            fill="#260514" />
        <path fill-rule="evenodd" clip-rule="evenodd"
            d="M19.1 15.0271C18.8916 16.3529 18.5583 17.6502 18.1 18.919C17.947 19.1594 17.747 19.3036 17.5 19.3514C18.0193 18.0996 18.4193 16.8023 18.7 15.4595C18.8333 15.3154 18.9667 15.1713 19.1 15.0271Z"
            fill="#CD4798" />
        <path fill-rule="evenodd" clip-rule="evenodd"
            d="M18.7004 15.4595C18.4197 16.8023 18.0197 18.0996 17.5004 19.3514C16.1848 19.6083 14.9848 19.32 13.9004 18.4865C14.8597 18.8418 15.993 19.058 17.3004 19.1351C17.268 18.6968 17.3013 18.2644 17.4004 17.8379C17.8926 17.0541 18.3259 16.2613 18.7004 15.4595Z"
            fill="#F9D5F4" />
        <path fill-rule="evenodd" clip-rule="evenodd"
            d="M13.9002 18.4865C14.9846 19.3201 16.1846 19.6084 17.5002 19.3514C17.3334 19.6212 17.0668 19.7654 16.7002 19.7838C15.0615 19.4208 13.4615 18.9523 11.9002 18.3784C9.93444 17.7337 8.73444 18.4545 8.3002 20.5406C8.56884 21.6548 8.96884 22.6997 9.5002 23.6757C8.6538 22.9281 8.0538 21.991 7.7002 20.8649C7.80776 19.7706 8.27444 18.8697 9.1002 18.1622C10.7203 17.9979 12.3203 18.106 13.9002 18.4865Z"
            fill="#C14890" />
        <path fill-rule="evenodd" clip-rule="evenodd"
            d="M24.4999 21.2974C24.2629 22.3144 23.8629 23.2513 23.2999 24.1082C23.2679 23.7408 23.3011 23.3804 23.3999 23.0271C23.7087 22.3813 24.0755 21.8046 24.4999 21.2974Z"
            fill="#A73B7C" />
        <path fill-rule="evenodd" clip-rule="evenodd"
            d="M9.90039 24.1082C10.4182 24.3069 10.8182 24.6673 11.1004 25.1892C10.5826 24.9905 10.1826 24.6301 9.90039 24.1082Z"
            fill="#772457" />
        <path fill-rule="evenodd" clip-rule="evenodd"
            d="M11.0996 25.1892C11.8396 25.197 12.3729 25.5574 12.6996 26.2703C12.0973 26.0175 11.564 25.6571 11.0996 25.1892Z"
            fill="#8E2C66" />
        <path fill-rule="evenodd" clip-rule="evenodd"
            d="M23.3 24.1082C23.0582 24.7058 22.725 25.2463 22.3 25.7298C21.6758 26.0122 21.1426 26.4087 20.7 26.919C19.1246 27.338 17.5246 27.4461 15.9 27.2433C15.3792 27.159 14.9125 26.9786 14.5 26.7027C15.4197 26.6379 16.3197 26.7099 17.2 26.919C17.8688 26.8193 18.5021 26.6031 19.1 26.2703C19.3215 26.3832 19.5548 26.4552 19.8 26.4865C20.7248 26.1553 21.4916 25.7949 22.1 25.4055C22.1 24.5406 22.5 24.1082 23.3 24.1082Z"
            fill="#D53596" />
        <path fill-rule="evenodd" clip-rule="evenodd"
            d="M12.7002 26.2703C13.3198 26.3256 13.9198 26.4696 14.5002 26.7027C14.9127 26.9786 15.3794 27.1589 15.9002 27.2432C17.5248 27.446 19.1248 27.3379 20.7002 26.9189C20.4318 27.1985 20.0984 27.3786 19.7002 27.4595C17.2175 27.8869 14.8842 27.4906 12.7002 26.2703Z"
            fill="#83215D" />
    </g>
    <defs>
        <clipPath id="clip0_5716_247">
            <rect width="32" height="32" fill="white" />
        </clipPath>
    </defs>
</svg>