<svg width="32" height="32" viewBox="0 0 32 32" fill="none" xmlns="http://www.w3.org/2000/svg">
    <g clip-path="url(#clip0_5597_1040)">
        <path
            d="M0 0C10.56 0 21.12 0 32 0C32 10.56 32 21.12 32 32C21.44 32 10.88 32 0 32C0 21.44 0 10.88 0 0Z"
            fill="#FEFEFE" />
        <path
            d="M18.8444 11.022C18.8444 11.55 18.8444 12.078 18.8444 12.622C18.9417 12.3915 19.0391 12.1609 19.1395 11.9234C19.4689 11.3986 19.6369 11.2276 20.2394 11.0538C20.8723 10.9947 21.4867 10.9884 22.1221 10.9998C22.3381 10.9913 22.5541 10.9828 22.7766 10.9741C24.3033 10.9791 24.3033 10.9791 24.9278 11.5784C25.3266 12.1982 25.6245 12.6706 25.5643 13.4227C25.4054 13.9188 25.1982 14.3344 24.9416 14.788C24.7918 15.0544 24.7918 15.0544 24.639 15.3262C24.5307 15.5155 24.4225 15.7047 24.311 15.8998C24.1996 16.0966 24.0882 16.2935 23.9733 16.4963C22.8807 18.4193 21.7548 20.3224 20.6221 22.222C20.2806 22.7956 19.94 23.3697 19.5999 23.9442C19.5255 24.0689 19.4511 24.1936 19.3744 24.322C19.0894 24.8036 18.8441 25.2449 18.6666 25.7776C16.9652 25.7776 15.2639 25.7776 13.511 25.7776C13.335 25.3669 13.159 24.9562 12.9777 24.5331C12.8097 24.2124 12.6365 23.8944 12.4575 23.5796C12.3598 23.4072 12.2621 23.2347 12.1614 23.0571C12.0604 22.8805 11.9595 22.7039 11.8555 22.522C11.7566 22.3475 11.6577 22.173 11.5558 21.9932C11.0907 21.175 10.6194 20.3615 10.1325 19.556C9.43412 18.3991 8.77967 17.2177 8.12074 16.038C7.52519 14.9722 7.52519 14.9722 6.85685 13.9519C6.57769 13.5109 6.57769 13.5109 6.66658 12.9887C6.96721 12.3749 7.30318 11.7919 7.64435 11.1998C11.9297 10.7796 11.9297 10.7796 12.992 11.4243C13.5451 12.021 13.814 12.74 14.0795 13.4992C14.3104 14.0938 14.6602 14.6034 15.011 15.1331C15.3331 15.6445 15.6192 16.1134 15.8395 16.6762C15.9622 17.0963 15.9622 17.0963 16.3555 17.2442C16.4239 17.0122 16.4239 17.0122 16.4937 16.7755C16.7154 16.1654 16.9893 15.6861 17.3444 15.1442C17.5097 14.8895 17.5097 14.8895 17.6784 14.6296C17.9555 14.222 17.9555 14.222 18.1332 14.0442C18.2074 13.6162 18.2074 13.6162 18.1332 13.1553C17.8269 12.8315 17.8269 12.8315 17.4221 12.5887C17.1801 12.4294 16.9416 12.2642 16.711 12.0887C16.711 11.9713 16.711 11.854 16.711 11.7331C16.966 11.6134 17.2217 11.4951 17.4777 11.3776C17.6912 11.2786 17.6912 11.2786 17.9089 11.1776C18.311 11.022 18.311 11.022 18.8444 11.022Z"
            fill="#32388F" />
        <path
            d="M18.8444 11.0225C18.8444 11.5505 18.8444 12.0785 18.8444 12.6225C18.9418 12.392 19.0392 12.1614 19.1396 11.9239C19.469 11.3991 19.637 11.2281 20.2395 11.0543C20.8724 10.9952 21.4867 10.9889 22.1222 11.0003C22.3382 10.9918 22.5542 10.9833 22.7767 10.9746C24.3034 10.9796 24.3034 10.9796 24.9278 11.5789C25.3266 12.1987 25.6245 12.6711 25.5643 13.4232C25.4054 13.9193 25.1983 14.3349 24.9416 14.7885C24.7918 15.0549 24.7918 15.0549 24.639 15.3267C24.5308 15.516 24.4226 15.7053 24.3111 15.9003C24.1996 16.0972 24.0882 16.294 23.9734 16.4968C22.8807 18.4199 21.7549 20.3229 20.6222 22.2225C20.2807 22.7961 19.94 23.3703 19.6 23.9447C19.5255 24.0694 19.4511 24.1941 19.3744 24.3225C19.0895 24.8041 18.8442 25.2454 18.6666 25.7781C16.9653 25.7781 15.264 25.7781 13.5111 25.7781C13.3351 25.3674 13.1591 24.9567 12.9777 24.5336C12.8473 24.2909 12.712 24.0507 12.5694 23.8149C12.4981 23.6938 12.4269 23.5727 12.3534 23.4479C12.205 23.1986 12.0555 22.95 11.9048 22.702C11.8345 22.5816 11.7641 22.4612 11.6916 22.3371C11.6271 22.2296 11.5625 22.1221 11.496 22.0113C11.2995 21.4761 11.5018 21.0963 11.7284 20.5975C11.7924 20.4738 11.8563 20.35 11.9222 20.2225C11.9866 20.0969 12.051 19.9714 12.1173 19.842C12.1666 19.7476 12.2159 19.6531 12.2666 19.5559C12.8787 19.8049 13.1198 20.0516 13.4361 20.6274C13.514 20.7682 13.5919 20.909 13.6722 21.0541C13.751 21.2014 13.8299 21.3486 13.9111 21.5003C13.9927 21.6469 14.0742 21.7934 14.1583 21.9444C14.7555 23.0384 14.7555 23.0384 14.7555 23.6447C15.6355 23.6447 16.5155 23.6447 17.4222 23.6447C17.5395 23.2927 17.6569 22.9407 17.7777 22.5781C17.9457 22.2516 18.1231 21.9298 18.3083 21.6128C18.4681 21.3376 18.4681 21.3376 18.6311 21.0569C18.7455 20.8622 18.8599 20.6675 18.9777 20.467C19.1568 20.1595 19.3359 19.852 19.5149 19.5445C19.7621 19.1205 20.0102 18.6972 20.2583 18.2738C20.6774 17.5579 21.0948 16.8411 21.5126 16.1245C21.7308 15.7506 21.9492 15.3768 22.1678 15.0032C22.266 14.8354 22.3641 14.6676 22.4652 14.4947C22.5948 14.2735 22.5948 14.2735 22.727 14.0479C22.8618 13.8136 22.9902 13.5754 23.1111 13.3336C22.9804 13.3402 22.8497 13.3467 22.715 13.3534C22.1138 13.3795 21.5127 13.3955 20.9111 13.4114C20.7055 13.4218 20.5 13.4323 20.2882 13.443C18.9087 13.4703 18.1107 13.2407 17.0148 12.3934C16.7111 12.0892 16.7111 12.0892 16.7111 11.7336C16.9661 11.6139 17.2218 11.4957 17.4777 11.3781C17.6912 11.2791 17.6912 11.2791 17.909 11.1781C18.3111 11.0225 18.3111 11.0225 18.8444 11.0225Z"
            fill="#3F3473" />
        <path
            d="M9.06665 13.3337C9.85753 13.2386 10.5906 13.1946 11.3778 13.3337C11.9109 13.7854 12.2071 14.2793 12.4444 14.9337C12.4444 15.1684 12.4444 15.403 12.4444 15.6448C12.5618 15.6448 12.6791 15.6448 12.8 15.6448C12.8953 15.8465 12.9907 16.0481 13.0889 16.2559C13.4525 16.991 13.893 17.6487 14.3694 18.3149C14.5778 18.667 14.5778 18.667 14.5778 19.2004C14.6951 19.2004 14.8124 19.2004 14.9333 19.2004C15.0062 19.3395 15.0791 19.4786 15.1542 19.6219C15.2499 19.8018 15.3457 19.9817 15.4444 20.167C15.5393 20.3465 15.6342 20.5259 15.7319 20.7108C15.9567 21.1739 15.9567 21.1739 16.3555 21.3337C16.4016 21.2092 16.4476 21.0846 16.4951 20.9563C16.7312 20.3973 17.0148 19.8947 17.3229 19.3719C17.4413 19.1694 17.5596 18.967 17.6816 18.7583C17.869 18.4395 18.0566 18.1208 18.2446 17.8022C18.427 17.4926 18.6083 17.1822 18.7896 16.8719C18.9524 16.5955 18.9524 16.5955 19.1184 16.3135C19.3386 15.8968 19.4946 15.576 19.5555 15.1115C19.3853 14.7321 19.3853 14.7321 19.1222 14.3781C18.6666 13.7203 18.6666 13.7203 18.6666 13.3337C20.1333 13.3337 21.6 13.3337 23.1111 13.3337C22.8172 14.2154 22.4863 14.9094 22.0111 15.6893C21.8521 15.9549 21.6933 16.2206 21.5347 16.4865C21.447 16.6333 21.3593 16.78 21.2689 16.9313C20.7006 17.8902 20.1455 18.8568 19.5889 19.8226C19.4762 20.0177 19.3635 20.2127 19.2474 20.4137C18.6293 21.4856 18.0197 22.5613 17.4222 23.6448C16.5422 23.6448 15.6622 23.6448 14.7555 23.6448C14.5905 23.3038 14.4255 22.9628 14.2555 22.6115C13.5101 21.1033 12.6619 19.6569 11.8085 18.208C11.5578 17.782 11.3086 17.3552 11.0597 16.9281C10.9028 16.6596 10.7459 16.3911 10.5889 16.1226C10.5176 16.0005 10.4464 15.8784 10.373 15.7526C10.054 15.2095 9.72882 14.6782 9.37151 14.1594C9.06665 13.6893 9.06665 13.6893 9.06665 13.3337Z"
            fill="#F6F9F8" />
        <path
            d="M13.9846 13.4368C14.063 13.5787 14.1414 13.7205 14.2221 13.8667C14.3379 14.0461 14.4536 14.2255 14.5728 14.4104C14.6954 14.6086 14.818 14.8069 14.9444 15.0111C15.0674 15.2089 15.1905 15.4067 15.3173 15.6104C15.6444 16.1778 15.6444 16.1778 15.8437 16.684C15.9633 17.0972 15.9633 17.0972 16.3555 17.2444C16.4242 17.0107 16.4242 17.0107 16.4944 16.7722C16.7753 16.0013 17.2028 15.3924 17.661 14.7167C17.9645 14.207 18.1441 13.7231 18.311 13.1556C18.9674 13.7416 19.3539 14.3243 19.7332 15.1111C19.6615 15.694 19.4 16.142 19.1089 16.6458C19.0181 16.804 18.9272 16.9621 18.8336 17.125C18.6904 17.3711 18.6904 17.3711 18.5444 17.6222C18.4523 17.7822 18.3603 17.9421 18.2655 18.1069C17.6409 19.1897 17.0018 20.2634 16.3555 21.3333C15.7386 21.1277 15.6715 21.0032 15.3444 20.4667C15.2667 20.3425 15.189 20.2182 15.1089 20.0903C14.9332 19.7333 14.9332 19.7333 14.9332 19.2C14.8159 19.2 14.6986 19.2 14.5777 19.2C14.5197 19.0779 14.4617 18.9557 14.402 18.8299C14.2855 18.5896 14.2855 18.5896 14.1666 18.3444C14.0903 18.1856 14.0139 18.0268 13.9353 17.8632C13.7157 17.4235 13.7157 17.4235 13.4055 17.1389C12.9928 16.7263 12.9356 16.1976 12.7999 15.6444C12.6826 15.6444 12.5652 15.6444 12.4444 15.6444C12.3674 15.4611 12.2904 15.2778 12.211 15.0889C11.9556 14.4917 11.6738 13.9115 11.3777 13.3333C11.7512 13.2843 12.1254 13.2409 12.4999 13.2C12.7082 13.1752 12.9165 13.1505 13.1312 13.125C13.6888 13.1556 13.6888 13.1556 13.9846 13.4368Z"
            fill="#81C241" />
        <path
            d="M12.2666 19.5557C12.8787 19.8047 13.1198 20.0514 13.4361 20.6272C13.514 20.768 13.5919 20.9088 13.6722 21.0539C13.7904 21.2748 13.7904 21.2748 13.9111 21.5001C13.9927 21.6467 14.0742 21.7932 14.1583 21.9442C14.7555 23.0382 14.7555 23.0382 14.7555 23.6446C14.8729 23.6446 14.9902 23.6446 15.1111 23.6446C15.2601 23.9033 15.4081 24.1627 15.5555 24.4223C15.638 24.5667 15.7205 24.7111 15.8055 24.8598C16 25.2446 16 25.2446 16 25.6001C16.88 25.6001 17.76 25.6001 18.6666 25.6001C18.6666 25.6588 18.6666 25.7174 18.6666 25.7779C16.9653 25.7779 15.264 25.7779 13.5111 25.7779C13.2471 25.1619 13.2471 25.1619 12.9777 24.5334C12.8473 24.2907 12.712 24.0505 12.5694 23.8147C12.4981 23.6936 12.4269 23.5725 12.3534 23.4477C12.205 23.1984 12.0555 22.9498 11.9048 22.7018C11.7993 22.5212 11.7993 22.5212 11.6916 22.3369C11.6271 22.2294 11.5625 22.1219 11.496 22.0111C11.2995 21.4759 11.5018 21.0961 11.7284 20.5973C11.8243 20.4117 11.8243 20.4117 11.9222 20.2223C11.9866 20.0967 12.051 19.9712 12.1173 19.8418C12.1666 19.7474 12.2159 19.6529 12.2666 19.5557Z"
            fill="#72358E" />
        <path
            d="M21.4587 11.0363C21.6777 11.0389 21.8967 11.0414 22.1223 11.044C22.3405 11.0369 22.5588 11.0298 22.7837 11.0225C24.3313 11.0241 24.3313 11.0241 24.8821 11.5021C25.313 12.1558 25.4223 12.5374 25.4223 13.3329C22.1663 13.2449 22.1663 13.2449 18.8445 13.1551C19.1982 11.3867 19.7153 11.0611 21.4587 11.0363Z"
            fill="#292456" />
        <path
            d="M7.64453 11.2C8.4517 11.1483 9.25844 11.1168 10.0668 11.0889C10.2952 11.074 10.5237 11.0591 10.7591 11.0438C11.4241 11.0266 11.9781 11.0313 12.6223 11.2C13.156 11.7249 13.4479 12.2726 13.689 12.9778C13.689 13.0951 13.689 13.2125 13.689 13.3334C12.1636 13.3334 10.6383 13.3334 9.06675 13.3334C9.00809 13.0987 8.94942 12.864 8.88898 12.6223C8.77164 12.6223 8.65431 12.6223 8.53342 12.6223C8.27375 12.1516 8.17786 11.9299 8.17786 11.3778C8.00186 11.3191 7.82586 11.2605 7.64453 11.2Z"
            fill="#1A9B88" />
        <path
            d="M18.311 13.1553C18.9674 13.7413 19.3539 14.324 19.7332 15.1108C19.6344 16.0307 18.9606 16.8368 18.4888 17.5997C17.7848 17.5411 17.0808 17.4824 16.3555 17.4219C16.5221 16.5887 16.7176 16.1473 17.1444 15.4331C17.2541 15.2472 17.3639 15.0613 17.477 14.8699C17.7777 14.3997 17.7777 14.3997 18.1332 14.0442C18.2484 13.5872 18.2484 13.5872 18.311 13.1553Z"
            fill="#24B397" />
        <path
            d="M11.5055 17.4502C11.7842 17.8512 11.9996 18.26 12.2111 18.7002C12.3276 18.9405 12.3276 18.9405 12.4465 19.1856C12.5335 19.3688 12.5335 19.3688 12.6222 19.5558C12.5049 19.5558 12.3875 19.5558 12.2667 19.5558C12.2502 19.7483 12.2502 19.7483 12.2333 19.9446C12.0457 20.594 11.6836 20.8746 11.2 21.3335C10.3901 20.0617 9.63682 18.8241 9.06665 17.4224C9.41066 17.3781 9.75523 17.3382 10.1 17.3002C10.3877 17.2662 10.3877 17.2662 10.6812 17.2314C11.2 17.2446 11.2 17.2446 11.5055 17.4502Z"
            fill="#31509E" />
        <path
            d="M12.2667 19.5557C12.8991 19.8089 13.1487 20.0863 13.4778 20.6779C13.5559 20.8129 13.6341 20.9478 13.7146 21.0869C13.9012 21.6077 13.8535 21.8772 13.6889 22.4001C13.3667 22.9001 13.3667 22.9001 12.9778 23.289C12.7431 23.289 12.5084 23.289 12.2667 23.289C12.1121 23.0388 11.9609 22.7865 11.8111 22.5334C11.6843 22.3231 11.6843 22.3231 11.5549 22.1084C11.3477 21.6178 11.3624 21.4647 11.5556 20.9779C11.6714 20.723 11.7937 20.471 11.9222 20.2223C11.9866 20.0967 12.051 19.9712 12.1174 19.8418C12.1666 19.7474 12.2159 19.6529 12.2667 19.5557Z"
            fill="#57348D" />
        <path
            d="M7.64455 11.3779C7.82055 11.3779 7.99655 11.3779 8.17788 11.3779C8.43755 11.8486 8.53344 12.0703 8.53344 12.6224C8.65077 12.6224 8.7681 12.6224 8.88899 12.6224C9.00633 13.033 9.12366 13.4437 9.24455 13.8668C9.06855 13.8668 8.89255 13.8668 8.71121 13.8668C8.44997 14.181 8.44997 14.181 8.23344 14.5779C8.15575 14.7099 8.07806 14.8419 7.99802 14.9779C7.94004 15.0806 7.88206 15.1833 7.82233 15.289C6.83548 14.098 6.83548 14.098 6.57788 13.5113C6.73649 12.683 7.12627 12.0376 7.64455 11.3779Z"
            fill="#3D3274" />
        <path
            d="M13.9937 13.4514C14.0691 13.5884 14.1444 13.7255 14.2221 13.8667C14.3184 14.0138 14.4146 14.1609 14.5138 14.3125C14.6082 14.466 14.7026 14.6196 14.7999 14.7778C14.8962 14.9322 14.9924 15.0867 15.0916 15.2458C15.1567 15.3774 15.2217 15.5089 15.2888 15.6444C15.2301 15.7618 15.1715 15.8791 15.111 16C14.9937 15.9413 14.8764 15.8827 14.7555 15.8222C14.7555 15.6462 14.7555 15.4702 14.7555 15.2889C13.9928 15.2889 13.2301 15.2889 12.4444 15.2889C12.0924 14.6436 11.7404 13.9982 11.3777 13.3333C11.7512 13.2843 12.1254 13.2409 12.4999 13.2C12.7082 13.1753 12.9165 13.1505 13.1312 13.125C13.6888 13.1556 13.6888 13.1556 13.9937 13.4514Z"
            fill="#8AC451" />
        <path
            d="M7.64453 11.2C8.4517 11.1483 9.25844 11.1168 10.0668 11.0889C10.2952 11.074 10.5237 11.0591 10.7591 11.0438C11.4241 11.0266 11.9781 11.0313 12.6223 11.2C13.156 11.7249 13.4479 12.2726 13.689 12.9778C13.689 13.0951 13.689 13.2125 13.689 13.3334C12.1636 13.3334 10.6383 13.3334 9.06675 13.3334C9.06675 13.2747 9.06675 13.216 9.06675 13.1556C9.94675 13.0969 10.8268 13.0383 11.7334 12.9778C11.7921 12.7431 11.8508 12.5085 11.9112 12.2667C12.189 11.8667 12.189 11.8667 12.4445 11.5556C12.3215 11.5577 12.1984 11.5597 12.0716 11.5618C10.5871 11.5755 9.12383 11.491 7.64453 11.3778C7.64453 11.3191 7.64453 11.2605 7.64453 11.2Z"
            fill="#3DAE9D" />
        <path
            d="M14.7557 23.8223C15.5427 24.0846 15.6293 24.5157 16.0001 25.2445C16.0001 25.3618 16.0001 25.4792 16.0001 25.6C16.8801 25.6 17.7601 25.6 18.6668 25.6C18.6668 25.6587 18.6668 25.7174 18.6668 25.7778C16.9655 25.7778 15.2641 25.7778 13.5112 25.7778C13.5699 25.6605 13.6286 25.5432 13.689 25.4223C13.8063 25.4809 13.9237 25.5396 14.0446 25.6C14.0629 25.4717 14.0812 25.3434 14.1001 25.2112C14.233 24.6676 14.45 24.2875 14.7557 23.8223Z"
            fill="#BF539C" />
        <path
            d="M12.4443 15.2891C13.207 15.2891 13.9697 15.2891 14.7554 15.2891C14.5724 16.2043 14.3389 16.6454 13.8666 17.4224C13.2723 17.0857 13.159 16.8996 12.9332 16.2335C12.8892 16.0392 12.8452 15.8448 12.7999 15.6446C12.6826 15.6446 12.5652 15.6446 12.4443 15.6446C12.4443 15.5273 12.4443 15.41 12.4443 15.2891Z"
            fill="#AED048" />
        <path
            d="M13.8667 17.4219C14.5707 17.4219 15.2747 17.4219 16 17.4219C16 17.6565 16 17.8912 16 18.133C15.8827 18.133 15.7654 18.133 15.6445 18.133C15.4685 18.661 15.2925 19.189 15.1111 19.733C15.0525 19.557 14.9938 19.381 14.9334 19.1997C14.816 19.1997 14.6987 19.1997 14.5778 19.1997C14.4584 18.9705 14.3401 18.7407 14.2223 18.5108C14.1563 18.3829 14.0903 18.255 14.0223 18.1233C13.8667 17.7774 13.8667 17.7774 13.8667 17.4219Z"
            fill="#CFD831" />
        <path
            d="M11.2 17.2441C11.3173 17.3615 11.4347 17.4788 11.5555 17.5997C11.4382 17.5997 11.3209 17.5997 11.2 17.5997C11.1523 17.7207 11.1047 17.8417 11.0555 17.9664C10.8159 18.5592 10.5644 19.1459 10.3111 19.733C9.71911 19.0522 9.41274 18.2441 9.06665 17.4219C9.41454 17.3826 9.76276 17.3461 10.1111 17.3108C10.4019 17.2799 10.4019 17.2799 10.6986 17.2483C10.8641 17.2469 11.0295 17.2456 11.2 17.2441Z"
            fill="#56B5E4" />
        <path
            d="M12.2666 19.5557C12.8309 19.7503 12.9758 19.908 13.2888 20.4334C13.511 20.9779 13.511 20.9779 13.511 21.5112C13.2223 21.5458 12.9334 21.5789 12.6444 21.6112C12.4835 21.6298 12.3226 21.6483 12.1569 21.6675C11.7332 21.689 11.7332 21.689 11.3777 21.5112C11.4254 21.4196 11.473 21.3279 11.5221 21.2334C11.7908 20.6821 12.0276 20.1205 12.2666 19.5557Z"
            fill="#34368E" />
        <path
            d="M10.1334 15.2891C11.2 16.6605 11.2 16.6605 11.2 17.4224C10.4374 17.4224 9.67469 17.4224 8.88892 17.4224C9.00625 17.3637 9.12358 17.3051 9.24447 17.2446C9.26647 17.1493 9.28847 17.054 9.31114 16.9557C9.47522 16.3322 9.80363 15.8422 10.1334 15.2891Z"
            fill="#3081C0" />
        <path
            d="M18.311 13.1553C18.966 13.7401 19.3493 14.3288 19.7332 15.1108C19.6746 15.2868 19.6159 15.4628 19.5555 15.6442C19.5555 15.5268 19.5555 15.4095 19.5555 15.2886C18.8515 15.2886 18.1475 15.2886 17.4221 15.2886C17.7777 14.3997 17.7777 14.3997 18.1332 14.0442C18.2484 13.5872 18.2484 13.5872 18.311 13.1553Z"
            fill="#8AC55A" />
        <path
            d="M16.1777 17.4219C16.8817 17.4219 17.5857 17.4219 18.3111 17.4219C18.1382 18.2864 17.9248 18.6802 17.4222 19.3774C16.798 18.9821 16.5826 18.654 16.3555 17.9552C16.2968 17.7792 16.2382 17.6032 16.1777 17.4219Z"
            fill="#53B74E" />
        <path
            d="M14.5778 15.8223C14.9889 15.8445 14.9889 15.8445 15.4667 16C15.7667 16.5223 15.7667 16.5223 16 17.0667C16.1174 17.184 16.2347 17.3014 16.3556 17.4223C15.5343 17.4223 14.7129 17.4223 13.8667 17.4223C14.0293 16.7719 14.2231 16.3775 14.5778 15.8223Z"
            fill="#82B249" />
        <path
            d="M11.1999 17.5996C11.7333 17.7774 11.7333 17.7774 11.9798 18.1836C12.1939 18.6408 12.408 19.098 12.6221 19.5552C11.8595 19.4965 11.0968 19.4378 10.311 19.3774C10.5745 18.7187 10.8281 18.1911 11.1999 17.5996Z"
            fill="#3183C0" />
        <path
            d="M11.3777 13.333C12.1404 13.333 12.903 13.333 13.6888 13.333C13.3955 13.9197 13.1021 14.5063 12.7999 15.1108C11.8643 14.643 11.7978 14.2632 11.3777 13.333Z"
            fill="#53B751" />
        <path
            d="M15.1111 19.5557C15.7564 19.5557 16.4018 19.5557 17.0666 19.5557C16.9114 20.3318 16.7731 20.698 16.3555 21.3334C15.5685 21.0711 15.4819 20.64 15.1111 19.9112C15.1111 19.7939 15.1111 19.6766 15.1111 19.5557Z"
            fill="#51AB50" />
        <path
            d="M9.95556 15.1113C10.0142 15.2873 10.0729 15.4633 10.1333 15.6447C9.90685 16.007 9.66922 16.3626 9.42222 16.7113C9.36356 16.8873 9.30489 17.0633 9.24444 17.2447C8.81869 17.1125 8.58528 16.9832 8.36736 16.5884C8.23605 16.2774 8.11725 15.9612 8 15.6447C8.17778 15.4669 8.17778 15.4669 8.58403 15.4495C8.82843 15.4526 8.82843 15.4526 9.07778 15.4558C9.24117 15.4574 9.40457 15.459 9.57292 15.4606C9.69919 15.4627 9.82546 15.4648 9.95556 15.4669C9.95556 15.3496 9.95556 15.2322 9.95556 15.1113Z"
            fill="#314E9C" />
        <path
            d="M18.6667 11.2002C18.6081 11.7869 18.5494 12.3735 18.489 12.978C17.7095 12.8889 17.2801 12.6254 16.7112 12.0891C16.7112 11.9718 16.7112 11.8544 16.7112 11.7335C17.4583 11.3165 17.7798 11.2002 18.6667 11.2002Z"
            fill="#322E5B" />
        <path
            d="M14.7556 23.8226C14.5185 24.4152 14.2815 25.0078 14.0444 25.6004C13.5111 25.4226 13.5111 25.4226 13.2111 25.0115C12.9778 24.5338 12.9778 24.5338 12.9778 23.8226C13.5614 23.5308 14.1201 23.7304 14.7556 23.8226Z"
            fill="#932E7E" />
        <path
            d="M8.17773 11.3779C8.82307 11.3779 9.4684 11.3779 10.1333 11.3779C9.83996 11.9646 9.54662 12.5513 9.2444 13.1557C9.12707 13.1557 9.00973 13.1557 8.88885 13.1557C8.88885 12.9797 8.88885 12.8037 8.88885 12.6224C8.77151 12.6224 8.65418 12.6224 8.53329 12.6224C8.27362 12.1517 8.17773 11.93 8.17773 11.3779Z"
            fill="#127061" />
        <path
            d="M7.6445 11.3779C8.12576 11.9714 8.26882 12.3919 8.35562 13.1557C7.88628 13.1557 7.41695 13.1557 6.93339 13.1557C6.87473 13.3317 6.81606 13.5077 6.75562 13.689C6.57784 13.1557 6.57784 13.1557 6.79381 12.7147C6.89487 12.5559 6.99594 12.3971 7.10006 12.2335C7.20066 12.0733 7.30127 11.9131 7.40492 11.7481C7.48398 11.6259 7.56305 11.5038 7.6445 11.3779Z"
            fill="#583B8B" />
        <path
            d="M17.6001 15.6445C18.1281 15.6445 18.6561 15.6445 19.2001 15.6445C19.2001 16.4145 19.0284 16.7593 18.6668 17.4223C18.4321 17.3636 18.1974 17.305 17.9557 17.2445C17.9557 16.7752 17.9557 16.3059 17.9557 15.8223C17.8383 15.7636 17.721 15.705 17.6001 15.6445Z"
            fill="#23A8AC" />
        <path
            d="M15.8223 8.71094C16.7023 8.88694 16.7023 8.88694 17.6 9.06649C17.2825 9.70152 17.0548 10.0325 16.5334 10.4887C16.416 10.4887 16.2987 10.4887 16.1778 10.4887C15.9438 9.84521 15.8223 9.40504 15.8223 8.71094Z"
            fill="#3A84BA" />
        <path
            d="M10.4888 11.5557C11.1341 11.5557 11.7794 11.5557 12.4443 11.5557C12.2073 12.0297 11.9703 12.5038 11.7332 12.9779C11.4985 12.9779 11.2639 12.9779 11.0221 12.9779C10.4888 11.9557 10.4888 11.9557 10.4888 11.5557Z"
            fill="#19A8AD" />
        <path
            d="M18.3111 11.0225C18.4871 11.0225 18.6631 11.0225 18.8444 11.0225C18.8444 11.7265 18.8444 12.4305 18.8444 13.1558C20.3111 13.1558 21.7777 13.1558 23.2889 13.1558C23.2302 13.5665 23.1715 13.9771 23.1111 14.4002C22.9937 14.4002 22.8764 14.4002 22.7555 14.4002C22.8729 14.0482 22.9902 13.6962 23.1111 13.3336C22.9729 13.3354 22.8348 13.3373 22.6924 13.3392C22.069 13.3466 21.4456 13.3512 20.8222 13.3558C20.6047 13.3588 20.3872 13.3618 20.1632 13.3648C19.8521 13.3665 19.8521 13.3665 19.5347 13.3683C19.3429 13.3702 19.1511 13.372 18.9535 13.3739C18.4889 13.3336 18.4889 13.3336 18.1333 12.978C18.2506 12.978 18.368 12.978 18.4889 12.978C18.4937 12.7188 18.4971 12.4595 18.5 12.2002C18.502 12.0559 18.5041 11.9115 18.5062 11.7627C18.5146 11.3692 18.5146 11.3692 18.3111 11.0225Z"
            fill="#565477" />
        <path
            d="M13.5111 7.82227C14.0355 8.06572 14.4933 8.33396 14.9333 8.71115C14.9333 8.82849 14.9333 8.94582 14.9333 9.06671C14.4053 9.18404 13.8773 9.30138 13.3333 9.42227C13.316 8.32852 13.316 8.32852 13.3333 8.00004C13.392 7.94138 13.4507 7.88271 13.5111 7.82227Z"
            fill="#72BDE0" />
        <path
            d="M17.2446 15.2889C17.7848 15.2368 17.7848 15.2368 18.4223 15.2556C18.6336 15.2604 18.8449 15.2652 19.0626 15.2701C19.2253 15.2763 19.388 15.2825 19.5557 15.2889C19.5557 15.4649 19.5557 15.6409 19.5557 15.8222C19.4228 15.8099 19.2898 15.7975 19.1529 15.7847C18.6176 15.7553 18.131 15.7441 17.6001 15.8222C17.1311 16.3251 17.1311 16.3251 16.889 16.8889C16.7717 16.8889 16.6543 16.8889 16.5334 16.8889C16.7217 16.2839 16.8906 15.8198 17.2446 15.2889Z"
            fill="#36AB91" />
        <path
            d="M7.82224 11.3779C7.93957 11.3779 8.05691 11.3779 8.17779 11.3779C8.43746 11.8486 8.53335 12.0703 8.53335 12.6224C8.65068 12.6224 8.76802 12.6224 8.88891 12.6224C9.00624 13.033 9.12357 13.4437 9.24446 13.8668C9.14454 13.8104 9.04463 13.7541 8.94168 13.696C8.50633 13.499 8.16288 13.442 7.68891 13.4002C7.54682 13.3869 7.40474 13.3736 7.25835 13.3599C7.1511 13.3512 7.04385 13.3425 6.93335 13.3335C6.93335 13.2748 6.93335 13.2162 6.93335 13.1557C7.40268 13.1557 7.87202 13.1557 8.35557 13.1557C8.17957 12.569 8.00357 11.9824 7.82224 11.3779Z"
            fill="#39417A" />
        <path
            d="M15.2889 6.22266C15.3475 6.69199 15.4062 7.16132 15.4667 7.64488C14.4444 7.48932 14.4444 7.48932 14.0444 7.28932C14.0444 7.17199 14.0444 7.05466 14.0444 6.93377C14.8392 6.22266 14.8392 6.22266 15.2889 6.22266Z"
            fill="#815395" />
        <path
            d="M16.1778 11.2002C16.1778 11.6695 16.1778 12.1389 16.1778 12.6224C15.3333 12.4669 15.3333 12.4669 14.9333 12.2669C15.1438 11.6356 15.4678 11.2002 16.1778 11.2002Z"
            fill="#4E5091" />
        <path
            d="M14.4001 23.1113C14.5174 23.1113 14.6348 23.1113 14.7556 23.1113C14.7556 23.2873 14.7556 23.4633 14.7556 23.6447C14.873 23.7033 14.9903 23.762 15.1112 23.8224C14.4072 23.8224 13.7032 23.8224 12.9779 23.8224C12.9192 23.9398 12.8605 24.0571 12.8001 24.178C12.7414 24.002 12.6828 23.826 12.6223 23.6447C13.1938 23.3589 13.7665 23.4567 14.4001 23.4669C14.4001 23.3496 14.4001 23.2322 14.4001 23.1113Z"
            fill="#803184" />
        <path
            d="M9.06665 13.333C9.82932 13.333 10.592 13.333 11.3778 13.333C11.3778 13.509 11.3778 13.685 11.3778 13.8663C11.2018 13.8077 11.0258 13.749 10.8444 13.6886C10.4297 13.6812 10.0147 13.6812 9.59998 13.6886C9.42398 13.6886 9.24798 13.6886 9.06665 13.6886C9.06665 13.5712 9.06665 13.4539 9.06665 13.333Z"
            fill="#CDEFED" />
        <path
            d="M12.0889 6.22266C12.4334 6.3671 12.4334 6.3671 12.8 6.57821C12.8587 6.75421 12.9174 6.93021 12.9778 7.11155C12.6258 7.11155 12.2738 7.11155 11.9111 7.11155C11.9698 6.81821 12.0285 6.52488 12.0889 6.22266Z"
            fill="#A16595" />
        <path
            d="M9.6001 6.75586C9.89343 6.75586 10.1868 6.75586 10.489 6.75586C10.489 7.04919 10.489 7.34253 10.489 7.64475C10.313 7.64475 10.137 7.64475 9.95565 7.64475C9.83832 7.35141 9.72099 7.05808 9.6001 6.75586Z"
            fill="#CD6FA6" />
        <path
            d="M17.2446 15.2891C17.3668 15.5891 17.3668 15.5891 17.4223 16.0002C17.189 16.4891 17.189 16.4891 16.889 16.8891C16.7717 16.8891 16.6543 16.8891 16.5334 16.8891C16.7217 16.2841 16.8906 15.82 17.2446 15.2891Z"
            fill="#53BCAB" />
        <path
            d="M8.71115 13.6885C8.88715 13.7471 9.06315 13.8058 9.24449 13.8663C8.94059 14.474 8.43006 14.9846 7.82227 15.2885C8.04434 14.6735 8.29787 14.1957 8.71115 13.6885Z"
            fill="#303081" />
        <path
            d="M18.3112 21.6885C18.4285 21.6885 18.5458 21.6885 18.6667 21.6885C18.5578 22.215 18.4438 22.4672 18.1334 22.9329C18.0161 22.9329 17.8987 22.9329 17.7778 22.9329C18.1112 22.0885 18.1112 22.0885 18.3112 21.6885Z"
            fill="#554D7E" />
        <path
            d="M14.0445 16.7109C14.1618 16.8283 14.2791 16.9456 14.4 17.0665C14.8721 17.167 15.3407 17.1977 15.8223 17.2443C15.8223 17.3029 15.8223 17.3616 15.8223 17.422C15.1769 17.422 14.5316 17.422 13.8667 17.422C13.9254 17.1874 13.984 16.9527 14.0445 16.7109Z"
            fill="#8CB335" />
        <path
            d="M18.3111 13.1553C18.5458 13.3899 18.7805 13.6246 19.0222 13.8664C18.9636 13.9837 18.9049 14.1011 18.8445 14.2219C18.3889 14.3331 18.3889 14.3331 17.9556 14.3997C18.0729 13.9891 18.1902 13.5784 18.3111 13.1553Z"
            fill="#9AC270" />
    </g>
    <defs>
        <clipPath id="clip0_5597_1040">
            <rect width="32" height="32" fill="white" />
        </clipPath>
    </defs>
</svg>