<svg width="32" height="32" viewBox="0 0 32 32" fill="none" xmlns="http://www.w3.org/2000/svg">
    <path fill-rule="evenodd" clip-rule="evenodd"
        d="M18.6763 0.296645C17.0154 0.122059 15.3556 0.122059 13.6973 0.296645C14.415 0.0710279 15.1716 -0.0258925 15.9671 0.00588465C16.9042 -0.0129726 17.8073 0.0839479 18.6763 0.296645Z"
        fill="#B2B2B2" />
    <path fill-rule="evenodd" clip-rule="evenodd"
        d="M18.6763 0.296955C25.6099 1.82565 29.9788 5.99322 31.7828 12.7996C32.793 20.0233 30.279 25.6688 24.2411 29.7364C17.5397 33.254 11.2427 32.6725 5.35002 27.9918C-0.0858009 22.5664 -1.37937 16.2909 1.4693 9.16513C4.07701 4.20113 8.15298 1.24508 13.6972 0.296955C15.3555 0.122369 17.0153 0.122369 18.6763 0.296955Z"
        fill="#212120" />
    <path fill-rule="evenodd" clip-rule="evenodd"
        d="M15.4547 2.3322C15.5914 2.17699 15.6403 1.98314 15.6011 1.75068C15.8452 1.75068 16.0892 1.75068 16.3333 1.75068C16.3572 2.09331 16.3329 2.43254 16.2601 2.76834C16.2311 2.49478 16.1579 2.25247 16.0404 2.04144C15.8036 2.1998 15.6816 2.44211 15.6743 2.76834C15.5645 2.85932 15.4424 2.93201 15.3082 2.98641C14.8283 2.95716 14.3401 2.93292 13.8438 2.91372C13.8759 3.08454 13.8271 3.22992 13.6973 3.34986C13.5761 3.21688 13.4297 3.11996 13.258 3.0591C12.8433 3.3549 12.4039 3.40337 11.94 3.20448C11.895 2.85208 11.9438 2.51286 12.0865 2.18682C12.2829 2.4056 12.527 2.50251 12.8187 2.47758C12.8187 2.3322 12.8187 2.18682 12.8187 2.04144C13.2354 2.08632 13.4551 2.32862 13.4777 2.76834C13.6834 2.31493 13.7567 1.83033 13.6973 1.31454C14.0909 1.29068 14.4814 1.31492 14.8689 1.38723C14.9822 1.73687 15.0555 2.10032 15.0885 2.47758C15.2583 2.63255 15.3803 2.5841 15.4547 2.3322Z"
        fill="#D5D5D5" />
    <path fill-rule="evenodd" clip-rule="evenodd"
        d="M16.0399 2.04161C16.1573 2.25264 16.2305 2.49495 16.2595 2.76851C16.3323 2.43271 16.3566 2.09348 16.3328 1.75085C16.0886 1.75085 15.8447 1.75085 15.6005 1.75085C15.6398 1.98331 15.5909 2.17716 15.4541 2.33237C15.4541 2.09006 15.4541 1.84777 15.4541 1.60547C15.7958 1.60547 16.1375 1.60547 16.4792 1.60547C16.4792 2.04161 16.4792 2.47775 16.4792 2.91389C16.3328 2.91389 16.1863 2.91389 16.0399 2.91389C16.0399 2.62313 16.0399 2.33237 16.0399 2.04161Z"
        fill="#9D9D9D" />
    <path fill-rule="evenodd" clip-rule="evenodd"
        d="M14.1367 1.75C14.2832 1.75 14.4296 1.75 14.576 1.75C14.576 2.04076 14.576 2.33152 14.576 2.62228C14.4296 2.62228 14.2832 2.62228 14.1367 2.62228C14.1367 2.33152 14.1367 2.04076 14.1367 1.75Z"
        fill="#1A1A19" />
    <path fill-rule="evenodd" clip-rule="evenodd"
        d="M18.2368 1.45989C18.5337 1.43632 18.8266 1.46054 19.1155 1.53258C19.2514 1.58897 19.3491 1.6859 19.4084 1.82334C19.253 2.37799 19.253 2.93529 19.4084 3.49521C19.2619 3.49521 19.1155 3.49521 18.9691 3.49521C18.9691 3.34983 18.9691 3.20445 18.9691 3.05907C18.5933 3.03645 18.2272 3.0849 17.8707 3.20445C17.6285 3.03678 17.4089 2.84295 17.2117 2.62293C17.0473 2.88301 16.8521 2.93148 16.626 2.76831C16.6592 2.45269 16.708 2.13769 16.7724 1.82334C17.1107 1.75114 17.4523 1.72691 17.7975 1.75065C17.7738 2.04538 17.7982 2.33614 17.8707 2.62293C18.167 2.29302 18.289 1.90535 18.2368 1.45989Z"
        fill="#D6D6D6" />
    <path fill-rule="evenodd" clip-rule="evenodd"
        d="M18.5302 1.89551C18.6767 1.89551 18.8231 1.89551 18.9696 1.89551C18.9696 2.18627 18.9696 2.47703 18.9696 2.76779C18.7531 2.80588 18.5579 2.75742 18.3838 2.62241C18.5023 2.39403 18.5512 2.15173 18.5302 1.89551Z"
        fill="#31322F" />
    <path fill-rule="evenodd" clip-rule="evenodd"
        d="M11.94 3.20444C11.792 3.57053 11.5967 3.57053 11.3542 3.20444C11.0641 3.29245 11.0153 3.43783 11.2078 3.64058C11.087 3.76934 10.9405 3.8178 10.7685 3.78596C10.785 3.41541 10.6873 3.0762 10.4756 2.7683C10.7016 2.60512 10.8969 2.65359 11.0614 2.91368C11.1911 2.79374 11.2399 2.64836 11.2078 2.47754C11.3542 2.47754 11.5007 2.47754 11.6471 2.47754C11.6328 2.77599 11.7304 3.01829 11.94 3.20444Z"
        fill="#D4D4D4" />
    <path fill-rule="evenodd" clip-rule="evenodd"
        d="M20.5796 3.49537C19.6272 3.54805 19.3831 3.1846 19.8474 2.40503C20.1317 2.29702 20.4001 2.32126 20.6529 2.47772C20.7343 2.82442 20.71 3.16363 20.5796 3.49537Z"
        fill="#D4D4D4" />
    <path fill-rule="evenodd" clip-rule="evenodd"
        d="M9.88944 2.91309C10.2856 3.08603 10.5297 3.40102 10.6216 3.85806C10.5728 3.93075 10.524 4.00344 10.4752 4.07613C10.3532 3.93075 10.2311 3.78537 10.1091 3.63999C10.0948 3.94809 9.97278 4.19039 9.743 4.36689C9.54774 4.07613 9.35248 3.78537 9.15723 3.49461C9.37794 3.31451 9.5488 3.36298 9.66977 3.63999C9.75877 3.39945 9.83199 3.15716 9.88944 2.91309Z"
        fill="#DBDBDB" />
    <path fill-rule="evenodd" clip-rule="evenodd"
        d="M20.5801 3.49448C20.8738 3.25121 21.1667 3.00891 21.4587 2.76758C22.2043 2.80128 22.3507 3.09204 21.8981 3.63986C21.9468 3.68831 21.9957 3.73678 22.0445 3.78524C22.2839 3.66454 22.5281 3.64031 22.7767 3.71255C22.6555 3.57957 22.509 3.48264 22.3374 3.42179C22.7414 3.27969 23.0343 3.40085 23.216 3.78524C22.8993 4.81757 22.4355 4.86602 21.8248 3.93062C21.7642 3.99711 21.691 4.04557 21.6052 4.076C21.5485 3.75168 21.5242 3.41247 21.532 3.05834C21.3795 3.36148 21.1598 3.60379 20.873 3.78524C20.7233 3.73356 20.6256 3.63663 20.5801 3.49448Z"
        fill="#DBDBDB" />
    <path fill-rule="evenodd" clip-rule="evenodd"
        d="M7.98563 5.094C7.61039 3.96203 7.75683 3.86512 8.42496 4.80324C8.47377 4.75479 8.52259 4.70632 8.5714 4.65786C8.33136 4.45201 8.20933 4.20972 8.2053 3.93097C8.25411 3.88251 8.30293 3.83404 8.35174 3.78559C8.5118 4.05442 8.70705 4.29671 8.93751 4.51248C8.68351 3.37346 8.85436 3.34923 9.45006 4.43979C9.06226 4.94857 8.57413 5.16664 7.98563 5.094Z"
        fill="#DEDEDE" />
    <path fill-rule="evenodd" clip-rule="evenodd"
        d="M6.81459 22.9756C6.93014 22.9344 7.02778 22.8617 7.10747 22.7575C6.67084 22.6851 6.23151 22.6608 5.78949 22.6848C5.9266 22.4705 6.12187 22.3251 6.37526 22.2487C6.45479 22.2399 6.5036 22.1915 6.5217 22.1033C6.14293 21.9608 5.75243 21.9124 5.35016 21.9579C5.55726 21.732 5.80132 21.538 6.08238 21.3764C5.69186 21.2794 5.30135 21.1826 4.91084 21.0856C5.15491 20.916 5.39897 20.7465 5.64305 20.5768C5.25253 20.4798 4.86203 20.383 4.47151 20.286C4.7644 20.0922 5.05728 19.8983 5.35016 19.7045C4.07404 19.545 4.02523 19.2543 5.20372 18.8322C4.85304 18.7332 4.51134 18.612 4.17863 18.4688C4.46469 18.2855 4.75757 18.1159 5.05728 17.96C3.81434 17.7542 3.76553 17.4635 4.91084 17.0877C4.56784 16.9174 4.22613 16.7478 3.88574 16.5788C4.20154 16.3913 4.54325 16.2701 4.91084 16.2154C4.61113 16.0594 4.31824 15.8899 4.03218 15.7066C4.38398 15.5503 4.72568 15.3806 5.05728 15.1977C4.63611 15.1341 4.24559 14.9887 3.88574 14.7616C4.2649 14.5876 4.65541 14.4422 5.05728 14.3255C3.8778 13.9101 3.92663 13.6193 5.20372 13.4532C4.88681 13.3203 4.59392 13.1506 4.32507 12.9443C4.67099 12.8322 5.01269 12.711 5.35016 12.5809C4.38521 12.119 4.48285 11.8525 5.64305 11.7813C5.39897 11.5875 5.15491 11.3936 4.91084 11.1998C5.29263 11.0808 5.68313 11.0081 6.08238 10.9817C5.12549 10.4029 5.27193 10.1607 6.5217 10.2548C6.30435 10.026 6.06029 9.8322 5.78949 9.6733C6.18001 9.62484 6.57051 9.57637 6.96103 9.52792C6.76578 9.33408 6.57051 9.14023 6.37526 8.9464C6.76578 8.89794 7.15628 8.84947 7.5468 8.80102C7.31814 8.66422 7.12289 8.49462 6.96103 8.29219C7.2929 8.17382 7.63459 8.10113 7.98612 8.07412C7.83968 7.92874 7.69324 7.78336 7.5468 7.63798C7.88849 7.58953 8.2302 7.54106 8.57189 7.4926C8.44644 7.39242 8.34882 7.27127 8.27901 7.12915C8.57189 7.03223 8.86478 6.93532 9.15766 6.83839C9.08785 6.69627 8.99023 6.57512 8.86478 6.47494C9.25036 6.51175 9.64086 6.51175 10.0363 6.47494C9.91086 6.37476 9.81324 6.25361 9.74343 6.11149C10.0893 6.04254 10.431 5.99408 10.7685 5.96611C10.6495 5.7751 10.5031 5.6055 10.3292 5.45728C10.7275 5.47685 11.118 5.5253 11.5007 5.60266C11.3155 5.40823 11.2423 5.19016 11.2811 4.94845C11.5729 5.2215 11.8902 5.26996 12.2329 5.09383C12.0134 4.88975 12.0623 4.79284 12.3794 4.80307C12.6738 4.9284 12.9667 5.00109 13.258 5.02114C13.1604 4.87576 13.0628 4.73038 12.9652 4.585C13.2388 4.58445 13.5072 4.65714 13.7706 4.80307C13.8438 4.75462 13.917 4.70615 13.9903 4.65769C13.8307 4.49652 13.8307 4.35114 13.9903 4.22155C14.2101 4.40349 14.4542 4.54887 14.7225 4.65769C14.8201 4.51231 14.9177 4.36693 15.0153 4.22155C15.2955 4.34847 15.5641 4.49385 15.8208 4.65769C15.7823 4.4468 15.8067 4.25297 15.894 4.07617C16.1138 4.25811 16.3579 4.40349 16.6262 4.51231C16.9564 4.19425 17.2738 4.2427 17.5781 4.65769C17.6269 4.51231 17.6758 4.36693 17.7245 4.22155C17.9568 4.3489 18.1764 4.49428 18.3835 4.65769C18.4849 4.58132 18.5581 4.48441 18.6032 4.36693C18.8354 4.49428 19.0551 4.63966 19.2622 4.80307C19.3635 4.7267 19.4367 4.62979 19.4818 4.51231C19.726 4.75462 19.9699 4.99691 20.214 5.23921C20.2592 5.12173 20.3324 5.02482 20.4337 4.94845C24.3569 6.68772 26.9196 9.78915 28.1219 14.2528C28.5558 18.3297 27.3355 21.8188 24.4609 24.7201C23.6279 25.3543 22.798 25.9842 21.9714 26.6101C21.9226 26.5616 21.8737 26.5131 21.8249 26.4647C21.654 26.6343 21.4833 26.8039 21.3124 26.9735C21.1734 27.0632 21.0514 27.0391 20.9463 26.9008C20.7642 27.24 20.5203 27.337 20.214 27.1916C19.9278 27.3301 19.6836 27.5241 19.4818 27.7731C19.4367 27.6556 19.3635 27.5587 19.2622 27.4823C19.0551 27.6457 18.8354 27.7911 18.6032 27.9185C18.5544 27.8215 18.5055 27.7247 18.4567 27.6277C18.2245 27.7551 18.0048 27.9005 17.7978 28.0639C17.7001 27.9669 17.6025 27.8701 17.5049 27.7731C17.2851 27.9551 17.0409 28.1005 16.7727 28.2092C16.7125 28.0985 16.6882 27.9531 16.6994 27.7731C16.4427 27.9369 16.1741 28.0823 15.894 28.2092C15.8211 28.0489 15.7723 27.9035 15.7476 27.7731C15.4547 27.9185 15.1618 28.0639 14.8689 28.2092C14.7816 28.0325 14.7572 27.8387 14.7957 27.6277C14.539 27.7916 14.2704 27.9369 13.9903 28.0639C13.8129 27.9513 13.8129 27.8302 13.9903 27.7004C13.6452 27.6779 13.3035 27.6779 12.9652 27.7004C13.0321 27.6402 13.0809 27.5675 13.1116 27.4823C12.7776 27.3828 12.4359 27.3586 12.0865 27.4097C12.3051 27.2416 12.2807 27.1203 12.0133 27.0462C11.7551 27.1153 11.511 27.2122 11.2811 27.337C11.209 27.1845 11.2334 27.0391 11.3543 26.9008C11.0726 26.7834 10.7798 26.7107 10.4756 26.6828C10.5426 26.6226 10.5914 26.5499 10.6221 26.4647C10.3315 26.2894 10.0386 26.2894 9.74343 26.4647C9.58327 26.2658 9.63209 26.0961 9.88987 25.9559C9.54818 25.9074 9.20647 25.8589 8.86478 25.8105C9.01122 25.6651 9.15766 25.5197 9.3041 25.3743C8.96241 25.3259 8.6207 25.2774 8.27901 25.229C8.40446 25.1288 8.50208 25.0077 8.57189 24.8655C8.24002 24.7472 7.89833 24.6745 7.5468 24.6474C7.69324 24.5021 7.83968 24.3567 7.98612 24.2113C6.73636 24.3055 6.58991 24.0632 7.5468 23.4844C7.15628 23.436 6.76578 23.3874 6.37526 23.339C6.50316 23.1871 6.6496 23.066 6.81459 22.9756Z"
        fill="#DC191F" />
    <path fill-rule="evenodd" clip-rule="evenodd"
        d="M7.98595 5.09452C7.97338 5.23931 8.02221 5.36045 8.13239 5.45797C7.86241 5.62983 7.59394 5.79944 7.32696 5.9668C7.0567 5.7557 6.83704 5.48917 6.66797 5.16721C7.05487 4.52152 7.4942 4.49729 7.98595 5.09452Z"
        fill="#D2D2D2" />
    <path fill-rule="evenodd" clip-rule="evenodd"
        d="M25.1199 4.5127C25.3899 4.61503 25.4632 4.80886 25.3396 5.09422C25.093 5.36336 24.8245 5.60566 24.5341 5.82111C24.4854 5.77266 24.4365 5.72419 24.3877 5.67573C24.6356 5.28552 24.8797 4.89784 25.1199 4.5127Z"
        fill="#DDDDDD" />
    <path fill-rule="evenodd" clip-rule="evenodd"
        d="M18.383 6.25705C18.2386 6.90689 18.1899 7.58534 18.2366 8.29236C17.4273 8.24564 16.6462 8.29409 15.8935 8.43774C14.6329 8.34691 13.4126 8.51653 12.2325 8.94657C11.3558 9.988 10.6236 11.1268 10.0358 12.363C9.56593 12.5502 9.10221 12.5502 8.64462 12.363C8.5716 11.8321 8.54719 11.2991 8.5714 10.7638C7.27828 10.3856 7.27828 10.1676 8.5714 10.1096C8.4435 9.95769 8.29705 9.83655 8.13207 9.74616C8.44414 9.62785 8.78585 9.55516 9.15717 9.52809C9.07747 9.42383 8.97984 9.35114 8.86428 9.31002C8.86428 9.2131 8.81547 9.16464 8.71784 9.16464C8.99156 9.06802 9.28444 8.9711 9.59649 8.87388C9.57839 8.78568 9.52958 8.73723 9.45005 8.7285C9.45005 8.63158 9.40124 8.58312 9.30361 8.58312C9.57732 8.4865 9.87021 8.38958 10.1823 8.29236C10.1642 8.20416 10.1154 8.15571 10.0358 8.14698C9.95629 8.13826 9.90748 8.08981 9.88938 8.0016C10.171 7.88417 10.4639 7.81148 10.768 7.78353C10.6216 7.63815 10.4751 7.49277 10.3287 7.34739C10.7143 7.3842 11.1048 7.3842 11.5002 7.34739C11.1613 7.14859 11.1613 7.02743 11.5002 6.98394C12.3136 7.19792 12.4112 7.0283 11.7931 6.47512C12.1759 6.55247 12.5664 6.60093 12.9647 6.6205C12.8392 6.52031 12.7416 6.39917 12.6718 6.25705C12.9417 6.21994 13.2346 6.19571 13.5504 6.18436C13.3731 6.05456 13.3731 5.93341 13.5504 5.82091C13.8306 5.94782 14.0991 6.0932 14.3559 6.25705C14.3683 6.02668 14.3926 5.83284 14.4291 5.67553C14.6574 5.75892 14.8771 5.85583 15.0881 5.96629C15.1368 5.82091 15.1858 5.67553 15.2345 5.53015C15.4455 5.64061 15.6652 5.73752 15.8935 5.82091C15.9183 5.69056 15.967 5.54518 16.0399 5.38477C16.2598 5.56671 16.5039 5.71209 16.7722 5.82091C16.8451 5.66049 16.8939 5.51511 16.9186 5.38477C17.1384 5.56671 17.3825 5.71209 17.6508 5.82091C17.8394 5.53385 18.0836 5.53385 18.383 5.82091C18.493 5.69355 18.5662 5.54817 18.6027 5.38477C18.9064 5.66856 19.2237 5.93509 19.5546 6.18436C19.1671 6.25667 18.7765 6.2809 18.383 6.25705Z"
        fill="#201F1F" />
    <path fill-rule="evenodd" clip-rule="evenodd"
        d="M5.78979 5.09375C6.31406 5.37108 6.75339 5.75876 7.10777 6.25679C6.85014 6.4391 6.63048 6.39063 6.44878 6.11141C6.37807 6.24923 6.35366 6.39461 6.37555 6.54755C6.17443 6.52477 5.97916 6.549 5.78979 6.62024C5.96364 6.76845 6.11008 6.93805 6.22911 7.12907C6.15589 7.17752 6.08267 7.22599 6.00945 7.27445C5.57512 7.01304 5.20901 6.67383 4.91113 6.25679C5.243 6.13842 5.58469 6.06573 5.93623 6.03872C5.80105 5.74203 5.75224 5.42703 5.78979 5.09375Z"
        fill="#DADADA" />
    <path fill-rule="evenodd" clip-rule="evenodd"
        d="M4.32511 6.69375C4.7651 6.65742 5.03357 6.85126 5.13054 7.27527C5.26129 7.09919 5.38332 7.09919 5.49665 7.27527C5.3014 7.51758 5.3014 7.75987 5.49665 8.00217C5.31856 8.08881 5.12331 8.11304 4.91088 8.07486C5.28109 8.26617 5.28109 8.43578 4.91088 8.58369C4.71274 8.41137 4.54189 8.21754 4.39833 8.00217C4.26451 8.1699 4.14248 8.14566 4.03223 7.92948C4.22748 7.68718 4.22748 7.44489 4.03223 7.20258C4.22594 7.08397 4.32356 6.91435 4.32511 6.69375Z"
        fill="#D6D6D6" />
    <path fill-rule="evenodd" clip-rule="evenodd"
        d="M26.5839 6.40234C26.9299 6.63248 26.9299 6.89902 26.5839 7.20193C26.8807 7.12956 27.1736 7.1538 27.4625 7.27462C27.0633 7.54571 26.624 7.69109 26.1445 7.71076C26.2494 7.26035 26.3958 6.82421 26.5839 6.40234Z"
        fill="#D8D8D8" />
    <path fill-rule="evenodd" clip-rule="evenodd"
        d="M27.1702 7.56543C28.0698 7.64193 28.265 8.05383 27.756 8.80116C26.7162 8.7651 26.521 8.35319 27.1702 7.56543Z"
        fill="#DBDBDA" />
    <path fill-rule="evenodd" clip-rule="evenodd"
        d="M27.1701 8.00195C27.3653 8.00195 27.5607 8.00195 27.7559 8.00195C27.7966 8.27038 27.6989 8.46423 27.463 8.58347C27.2271 8.46423 27.1294 8.27038 27.1701 8.00195Z"
        fill="#2E2E2E" />
    <path fill-rule="evenodd" clip-rule="evenodd"
        d="M10.0359 8.14746C10.1154 8.15618 10.1642 8.20464 10.1823 8.29284C9.87027 8.39006 9.57738 8.48698 9.30367 8.5836C9.22414 8.57488 9.17533 8.52642 9.15723 8.43822C9.46928 8.34101 9.76216 8.24408 10.0359 8.14746Z"
        fill="#6F1F1F" />
    <path fill-rule="evenodd" clip-rule="evenodd"
        d="M18.3831 6.25684C18.3831 6.98374 18.3831 7.71064 18.3831 8.43753C17.5532 8.43753 16.7234 8.43753 15.8936 8.43753C16.6463 8.29388 17.4274 8.24543 18.2366 8.29215C18.1899 7.58513 18.2387 6.90668 18.3831 6.25684Z"
        fill="#581F1F" />
    <path fill-rule="evenodd" clip-rule="evenodd"
        d="M9.44994 8.72852C9.52947 8.73724 9.57828 8.78569 9.59638 8.8739C9.28433 8.97111 8.99145 9.06804 8.71773 9.16466C8.6382 9.15593 8.58939 9.10748 8.57129 9.01928C8.88334 8.92206 9.17623 8.82514 9.44994 8.72852Z"
        fill="#7A1E1F" />
    <path fill-rule="evenodd" clip-rule="evenodd"
        d="M28.7807 9.60136C28.5977 9.59011 28.4757 9.4932 28.4146 9.3106C28.3428 9.49861 28.3184 9.69246 28.3414 9.89212C27.6502 9.93486 27.4062 9.6441 27.6092 9.01984C27.8237 9.18102 27.9701 9.10833 28.0485 8.80177C28.6079 8.75201 28.8519 9.01853 28.7807 9.60136Z"
        fill="#CECECE" />
    <path fill-rule="evenodd" clip-rule="evenodd"
        d="M13.258 8.87417C14.4664 8.82826 15.6624 8.87672 16.8458 9.01955C16.9435 9.16493 16.9435 9.31031 16.8458 9.45569C16.452 10.517 15.9395 11.5104 15.3082 12.436C13.6973 12.5329 12.0864 12.5329 10.4756 12.436C10.9305 11.5087 11.443 10.6122 12.0132 9.74645C12.3532 9.32554 12.7682 9.03478 13.258 8.87417Z"
        fill="#211F1F" />
    <path fill-rule="evenodd" clip-rule="evenodd"
        d="M8.86498 9.31055C8.98054 9.35166 9.07817 9.42435 9.15787 9.52862C8.78655 9.55569 8.44484 9.62838 8.13277 9.74669C8.05324 9.73796 8.00443 9.68951 7.98633 9.60131C8.29838 9.50409 8.59127 9.40717 8.86498 9.31055Z"
        fill="#861D1F" />
    <path fill-rule="evenodd" clip-rule="evenodd"
        d="M17.7978 9.30996C18.9249 9.26187 20.0475 9.31032 21.166 9.45534C21.3057 10.2701 21.3546 11.0939 21.3124 11.9268C20.5786 11.9027 19.8464 11.9269 19.1158 11.9995C18.6317 12.4802 18.1434 12.9648 17.6514 13.4533C17.3131 13.5255 16.9715 13.5497 16.6263 13.526C16.5468 11.9889 16.9373 10.5835 17.7978 9.30996Z"
        fill="#1F1F1F" />
    <path fill-rule="evenodd" clip-rule="evenodd"
        d="M28.7813 9.60059C29.0141 9.61922 29.2093 9.71615 29.367 9.89135C29.29 10.148 29.2412 10.3903 29.2206 10.6182C29.0768 10.5251 28.9303 10.4282 28.7813 10.3275C28.5645 10.5439 28.4425 10.7862 28.4152 11.0544C28.1142 10.884 28.0165 10.6417 28.1223 10.3275C28.4223 10.151 28.642 9.90872 28.7813 9.60059Z"
        fill="#D3D3D3" />
    <path fill-rule="evenodd" clip-rule="evenodd"
        d="M2.27441 10.1826C2.76255 10.328 3.2507 10.4734 3.73884 10.6188C3.73884 10.7641 3.73884 10.9095 3.73884 11.0549C3.2507 10.9095 2.76255 10.7641 2.27441 10.6188C2.27441 10.4734 2.27441 10.328 2.27441 10.1826Z"
        fill="#D9D9D9" />
    <path fill-rule="evenodd" clip-rule="evenodd"
        d="M29.2204 10.6183C29.3664 10.614 29.4641 10.6867 29.5133 10.8364C29.4418 11.0667 29.2954 11.2363 29.074 11.3452C29.3181 11.4422 29.5621 11.5391 29.8062 11.636C29.3774 11.7791 28.9381 11.8275 28.4882 11.7814C28.4664 11.6284 28.4907 11.4831 28.5614 11.3452C28.8114 11.1217 29.0311 10.8794 29.2204 10.6183Z"
        fill="#D0D0D0" />
    <path fill-rule="evenodd" clip-rule="evenodd"
        d="M7.69306 11.4907C7.49065 11.6037 7.19777 11.7006 6.81441 11.7815C6.73488 11.7727 6.68607 11.7243 6.66797 11.6361C6.99639 11.4945 7.33809 11.446 7.69306 11.4907Z"
        fill="#831E1F" />
    <path fill-rule="evenodd" clip-rule="evenodd"
        d="M29.0739 11.9265C29.8769 11.8258 30.1698 12.1407 29.9526 12.8715C30.5895 13.1643 30.6627 13.5278 30.1723 13.9618C29.8073 13.7196 29.49 13.768 29.2204 14.1072C29.0572 13.9294 29.0328 13.7356 29.1472 13.5257C29.3681 13.44 29.5878 13.343 29.8062 13.2349C28.833 13.1493 28.5891 12.7131 29.0739 11.9265Z"
        fill="#CACACA" />
    <path fill-rule="evenodd" clip-rule="evenodd"
        d="M6.81412 11.7815C7.19747 11.7006 7.49036 11.6037 7.69277 11.4907C7.53555 11.2894 7.3403 11.1198 7.107 10.9819C7.44869 10.8849 7.7904 10.8849 8.1321 10.9819C7.9811 11.6228 7.88347 12.277 7.83921 12.9445C8.43787 12.7002 9.07244 12.6033 9.74296 12.6537C9.4833 13.9938 9.38567 15.3507 9.45008 16.7244C9.09163 16.664 8.89636 16.8094 8.86431 17.1605C8.98562 17.5936 9.08325 18.0297 9.15719 18.4689C10.2311 18.4689 11.305 18.4689 12.3789 18.4689C12.2842 19.3748 12.5771 20.126 13.2576 20.7223C12.7249 20.8266 12.188 20.8993 11.6467 20.9404C10.006 20.9645 8.34627 20.8918 6.66767 20.7223C6.88747 20.5403 7.13153 20.3949 7.39988 20.2862C7.0492 20.1872 6.70751 20.0659 6.37479 19.9227C6.6163 19.8285 6.81155 19.6832 6.96056 19.4866C6.66767 19.3655 6.37479 19.2443 6.0819 19.1231C7.02258 18.6988 6.92494 18.4564 5.78902 18.3963C6.97236 17.9662 6.92355 17.6755 5.64258 17.524C5.91748 17.3517 6.21036 17.2063 6.52123 17.0878C6.22835 16.9425 5.93546 16.7971 5.64258 16.6517C5.93546 16.5063 6.22835 16.3609 6.52123 16.2156C6.22835 16.0702 5.93546 15.9248 5.64258 15.7794C5.98427 15.634 6.32598 15.4887 6.66767 15.3433C6.35681 15.2248 6.06392 15.0794 5.78902 14.9071C6.0819 14.786 6.37479 14.6648 6.66767 14.5437C6.39882 14.3374 6.10594 14.1678 5.78902 14.0349C6.11336 13.8831 6.45505 13.7862 6.81412 13.7441C6.57004 13.5745 6.32598 13.4049 6.0819 13.2353C6.35555 13.0719 6.64843 12.9508 6.96056 12.8718C6.76531 12.7264 6.57004 12.5811 6.37479 12.4357C6.72632 12.4087 7.06802 12.336 7.39988 12.2176C7.20192 12.0687 7.00667 11.9233 6.81412 11.7815Z"
        fill="#211F1F" />
    <path fill-rule="evenodd" clip-rule="evenodd"
        d="M1.83492 12.6543C2.23122 12.6652 2.62172 12.7137 3.00646 12.7997C3.07165 13.8576 2.63233 14.0999 1.68848 13.5266C1.98136 13.4297 2.27425 13.3327 2.56713 13.2358C2.22337 13.1412 1.9793 12.9474 1.83492 12.6543Z"
        fill="#D6D6D6" />
    <path fill-rule="evenodd" clip-rule="evenodd"
        d="M30.0983 15.2708C29.7888 15.1457 29.618 14.9034 29.5858 14.5439C29.5568 14.8175 29.4836 15.0597 29.3661 15.2708C29.0769 14.3806 29.3942 14.0898 30.318 14.3985C30.4558 14.7603 30.3826 15.0511 30.0983 15.2708Z"
        fill="#DEDEDE" />
    <path fill-rule="evenodd" clip-rule="evenodd"
        d="M1.68848 13.9619C2.04225 14.1754 2.43277 14.2723 2.86001 14.2527C2.86001 14.3981 2.86001 14.5434 2.86001 14.6888C2.46371 14.6779 2.07321 14.6295 1.68848 14.5434C1.68848 14.3496 1.68848 14.1557 1.68848 13.9619Z"
        fill="#C7C7C6" />
    <path fill-rule="evenodd" clip-rule="evenodd"
        d="M2.4209 14.835C2.97884 15.0173 2.97884 15.1626 2.4209 15.2711C2.4209 15.1257 2.4209 14.9803 2.4209 14.835Z"
        fill="#C1C1C0" />
    <path fill-rule="evenodd" clip-rule="evenodd"
        d="M30.0984 15.2708C30.1961 15.3678 30.2936 15.4646 30.3913 15.5616C30.0007 15.5616 29.6103 15.5616 29.2197 15.5616C29.2685 15.4646 29.3174 15.3678 29.3662 15.2708C29.4836 15.0598 29.5568 14.8176 29.5858 14.5439C29.618 14.9035 29.7888 15.1458 30.0984 15.2708Z"
        fill="#5E5E5D" />
    <path fill-rule="evenodd" clip-rule="evenodd"
        d="M29.2197 15.5615C29.6103 15.5615 30.0007 15.5615 30.3913 15.5615C30.4147 15.8085 30.3904 16.0509 30.318 16.2884C29.9606 16.0049 29.5945 15.7626 29.2197 15.5615Z"
        fill="#EBEBEB" />
    <path fill-rule="evenodd" clip-rule="evenodd"
        d="M1.54297 15.416C3.05411 15.778 3.05411 15.9718 1.54297 15.9975C1.54297 15.8037 1.54297 15.6098 1.54297 15.416Z"
        fill="#CDCDCD" />
    <path fill-rule="evenodd" clip-rule="evenodd"
        d="M29.2197 16.2881C29.3662 16.2881 29.5126 16.2881 29.6591 16.2881C29.6591 16.4335 29.6591 16.5788 29.6591 16.7242C29.5126 16.7242 29.3662 16.7242 29.2197 16.7242C29.2197 16.5788 29.2197 16.4335 29.2197 16.2881Z"
        fill="#C3C3C2" />
    <path fill-rule="evenodd" clip-rule="evenodd"
        d="M1.68861 16.2881C1.88387 16.2881 2.07913 16.2881 2.27438 16.2881C2.27992 17.239 2.37755 17.239 2.56727 16.2881C2.89045 17.2512 2.57315 17.542 1.61539 17.1604C1.51616 16.8554 1.54058 16.5646 1.68861 16.2881Z"
        fill="#E0E0E0" />
    <path fill-rule="evenodd" clip-rule="evenodd"
        d="M30.0984 17.7424C30.0984 17.597 30.0984 17.4516 30.0984 17.3063C29.8055 17.3063 29.5126 17.3063 29.2197 17.3063C29.2197 17.1609 29.2197 17.0155 29.2197 16.8701C29.6103 16.8701 30.0007 16.8701 30.3913 16.8701C30.4608 17.2455 30.3631 17.5362 30.0984 17.7424Z"
        fill="#CCCCCC" />
    <path fill-rule="evenodd" clip-rule="evenodd"
        d="M2.5676 17.4512C2.89123 17.59 2.94004 17.8081 2.71405 18.1054C2.38014 18.1362 2.08726 18.2573 1.83539 18.4688C1.28143 18.2143 1.28143 17.9235 1.83539 17.5966C2.18451 17.9974 2.42859 17.9488 2.5676 17.4512Z"
        fill="#E1E1E1" />
    <path fill-rule="evenodd" clip-rule="evenodd"
        d="M30.099 17.7423C30.1435 17.8368 30.1923 17.9337 30.2454 18.033C29.1428 18.163 29.0941 18.4052 30.099 18.7599C29.7705 18.9015 29.4288 18.9501 29.0739 18.9053C28.8784 18.0288 29.22 17.6411 30.099 17.7423Z"
        fill="#E2E2E2" />
    <path fill-rule="evenodd" clip-rule="evenodd"
        d="M2.27464 18.4691C2.51537 18.438 2.73504 18.4865 2.93363 18.6145C3.13926 19.6384 2.79755 19.8807 1.90853 19.3414C1.76705 18.9285 1.88908 18.6377 2.27464 18.4691Z"
        fill="#CFCFCE" />
    <path fill-rule="evenodd" clip-rule="evenodd"
        d="M22.484 19.0508C23.802 19.0508 25.12 19.0508 26.438 19.0508C26.4916 19.4004 26.5893 19.7396 26.7309 20.0684C26.7045 20.2217 26.6557 20.3671 26.5844 20.5046C26.0231 20.6838 25.4617 20.6838 24.9003 20.5046C24.7051 20.6015 24.5098 20.6984 24.3146 20.7953C23.4388 20.7725 22.5602 20.7725 21.6786 20.7953C21.2711 20.6786 21.2468 20.4605 21.6054 20.1411C21.8943 20.0692 22.1872 20.0449 22.484 20.0684C22.484 19.7293 22.484 19.39 22.484 19.0508Z"
        fill="#231F1F" />
    <path fill-rule="evenodd" clip-rule="evenodd"
        d="M2.12793 19.7773C2.52423 19.7882 2.91473 19.8367 3.29947 19.9227C3.23039 20.4047 2.96192 20.744 2.49404 20.9404C2.38989 20.669 2.46311 20.4509 2.7137 20.2862C2.52432 20.2149 2.32905 20.1907 2.12793 20.2135C2.12793 20.0681 2.12793 19.9227 2.12793 19.7773Z"
        fill="#D8D8D8" />
    <path fill-rule="evenodd" clip-rule="evenodd"
        d="M16.04 20.0686C16.6279 20.0445 17.2136 20.0687 17.7973 20.1413C17.9135 20.299 18.0112 20.4687 18.0902 20.6501C17.5045 20.8439 16.9187 20.8439 16.3329 20.6501C16.1674 20.487 16.0698 20.2931 16.04 20.0686Z"
        fill="#1E1F1F" />
    <path fill-rule="evenodd" clip-rule="evenodd"
        d="M28.3418 20.6494C28.8382 20.7254 29.3263 20.8467 29.8062 21.0129C29.8731 21.0731 29.922 21.1457 29.9526 21.2309C29.7221 21.3954 29.478 21.4196 29.2204 21.3036C28.988 21.1783 28.7439 21.0813 28.4882 21.0129C28.3781 20.9153 28.3292 20.7942 28.3418 20.6494Z"
        fill="#CCCCCC" />
    <path fill-rule="evenodd" clip-rule="evenodd"
        d="M3.30004 20.6494C3.70181 20.7326 3.82384 20.9748 3.66614 21.3763C3.3774 21.4933 3.15774 21.6873 3.00715 21.9578C2.32375 21.8609 2.22613 21.5701 2.71427 21.0856C2.8953 21.194 3.09055 21.2424 3.30004 21.2309C3.30004 21.0371 3.30004 20.8432 3.30004 20.6494Z"
        fill="#D3D3D3" />
    <path fill-rule="evenodd" clip-rule="evenodd"
        d="M5.34961 21.9579C5.75187 21.9124 6.14237 21.9608 6.52115 22.1033C6.50305 22.1916 6.45424 22.24 6.3747 22.2487C6.03301 22.1517 5.6913 22.0549 5.34961 21.9579Z"
        fill="#651F1F" />
    <path fill-rule="evenodd" clip-rule="evenodd"
        d="M3.88549 22.83C3.32182 22.9 3.02893 22.6576 3.00684 22.1031C3.32677 22.0467 3.59524 21.9013 3.81227 21.667C4.16822 21.8394 4.33906 22.1302 4.32482 22.5393C4.07897 22.508 3.93253 22.605 3.88549 22.83Z"
        fill="#D5D5D5" />
    <path fill-rule="evenodd" clip-rule="evenodd"
        d="M5.78906 22.6847C6.23108 22.6607 6.67041 22.685 7.10704 22.7574C7.02735 22.8617 6.92972 22.9343 6.81416 22.9755C6.47246 22.8785 6.13076 22.7817 5.78906 22.6847Z"
        fill="#771F1F" />
    <path fill-rule="evenodd" clip-rule="evenodd"
        d="M3.88598 22.8302C4.76273 22.7541 5.05561 23.1176 4.76463 23.9205C3.85058 24.0547 3.5577 23.6913 3.88598 22.8302Z"
        fill="#E1E1E1" />
    <path fill-rule="evenodd" clip-rule="evenodd"
        d="M4.17811 23.1211C4.67025 23.2233 4.71906 23.4172 4.32456 23.7026C4.01082 23.5664 3.96201 23.3726 4.17811 23.1211Z"
        fill="#2F2F2E" />
    <path fill-rule="evenodd" clip-rule="evenodd"
        d="M27.1694 23.1211C27.5455 23.1348 27.7652 23.3287 27.8284 23.7026C27.9592 23.5266 28.0812 23.5266 28.1945 23.7026C27.9993 23.945 27.9993 24.1872 28.1945 24.4295C28.0812 24.6056 27.9592 24.6056 27.8284 24.4295C27.8669 24.6405 27.8425 24.8343 27.7552 25.011C27.3721 24.911 27.0792 24.6929 26.8766 24.3568C26.8123 23.9303 26.91 23.5183 27.1694 23.1211Z"
        fill="#D9D9D9" />
    <path fill-rule="evenodd" clip-rule="evenodd"
        d="M5.05736 23.9932C5.20381 23.9932 5.35025 23.9932 5.49669 23.9932C5.45514 24.4805 5.28429 24.9166 4.98414 25.3016C4.73475 25.0331 4.75916 24.7664 5.05736 24.502C4.88579 24.4507 4.71495 24.4748 4.54482 24.5747C4.38976 24.5558 4.26773 24.4831 4.17871 24.3566C4.50419 24.2743 4.79708 24.1531 5.05736 23.9932Z"
        fill="#DDDDDD" />
    <path fill-rule="evenodd" clip-rule="evenodd"
        d="M24.2412 26.465C24.4642 26.0486 24.806 25.8063 25.2663 25.7381C25.2342 25.5673 25.283 25.4219 25.4127 25.302C25.6052 25.4202 25.7761 25.5655 25.9253 25.7381C25.9971 25.5501 26.0215 25.3562 25.9985 25.1566C26.5226 25.1179 26.5715 24.9241 26.145 24.5751C26.1937 24.5267 26.2426 24.4781 26.2914 24.4297C26.682 24.7689 27.0724 25.1082 27.4629 25.4473C27.4063 25.6247 27.2843 25.7217 27.0968 25.7381C26.5406 25.491 26.3697 25.6363 26.5843 26.1742C26.5761 26.3541 26.5029 26.4995 26.3646 26.6104C26.029 26.4228 25.7361 26.1805 25.486 25.8835C25.3946 26.169 25.4678 26.4114 25.7056 26.6104C25.5239 26.9948 25.231 27.1159 24.827 26.9738C24.6505 26.7738 24.4553 26.6043 24.2412 26.465Z"
        fill="#D6D6D6" />
    <path fill-rule="evenodd" clip-rule="evenodd"
        d="M7.25365 26.0293C7.5063 26.0792 7.57952 26.2245 7.47332 26.4654C7.23527 26.8475 6.94239 27.1867 6.59466 27.4831C6.49327 27.4068 6.42005 27.3098 6.375 27.1923C6.7314 26.8404 7.02428 26.4526 7.25365 26.0293Z"
        fill="#D5D5D5" />
    <path fill-rule="evenodd" clip-rule="evenodd"
        d="M24.2408 26.4648C24.3845 26.754 24.5309 27.0448 24.6802 27.3371C24.6314 27.4341 24.5825 27.5309 24.5337 27.6279C23.9392 26.8234 23.8415 26.8718 24.2408 27.7733C24.1921 27.8217 24.1432 27.8702 24.0944 27.9186C23.3527 27.1234 23.255 27.1718 23.8015 28.064C23.3685 28.0773 23.0756 27.8349 22.9229 27.3371C23.2951 26.9351 23.7344 26.6444 24.2408 26.4648Z"
        fill="#D5D5D5" />
    <path fill-rule="evenodd" clip-rule="evenodd"
        d="M22.3373 27.4824C22.7999 27.543 23.0928 27.8095 23.2159 28.282C22.9723 28.5389 22.8014 28.4662 22.7034 28.0639C22.6981 28.4188 22.5761 28.7096 22.3373 28.9362C21.93 28.6177 21.7836 28.23 21.898 27.7732C22.0882 27.859 22.2102 28.0043 22.2641 28.2093C22.3364 27.9718 22.3607 27.7294 22.3373 27.4824Z"
        fill="#D8D8D8" />
    <path fill-rule="evenodd" clip-rule="evenodd"
        d="M10.4752 28.5001C9.4236 29.2254 9.10632 28.9831 9.52331 27.7732C10.099 27.6389 10.4163 27.8813 10.4752 28.5001Z"
        fill="#D0D0D0" />
    <path fill-rule="evenodd" clip-rule="evenodd"
        d="M21.3118 28.0645C21.7854 28.3269 21.9318 28.7146 21.7511 29.2275C21.6012 29.0308 21.4059 28.9338 21.1653 28.9367C21.2037 29.1516 21.1549 29.3454 21.0189 29.5183C20.7313 29.1522 20.6338 28.7646 20.726 28.3552C21.1489 28.7858 21.3441 28.6889 21.3118 28.0645Z"
        fill="#DFDFDF" />
    <path fill-rule="evenodd" clip-rule="evenodd"
        d="M10.4753 28.5007C10.5713 28.3876 10.6933 28.2908 10.8414 28.21C10.9146 28.2584 10.9878 28.3069 11.061 28.3553C10.6499 29.1929 10.7475 29.2656 11.3539 28.5734C11.5201 28.4645 11.6666 28.4887 11.7932 28.6461C11.5555 28.9792 11.287 29.2699 10.9878 29.5184C10.3448 29.4048 10.174 29.0655 10.4753 28.5007Z"
        fill="#DEDEDD" />
    <path fill-rule="evenodd" clip-rule="evenodd"
        d="M16.3328 29.2269C16.3328 29.5177 16.3328 29.8084 16.3328 30.0992C16.4792 30.0992 16.6257 30.0992 16.7721 30.0992C16.7721 29.9054 16.7721 29.7115 16.7721 29.5177C17.0055 29.0862 17.3473 28.9408 17.7972 29.0815C18.1599 29.0341 18.4773 28.8887 18.7491 28.6454C19.0073 28.7144 19.2514 28.8114 19.4813 28.9361C19.7352 28.6525 20.0526 28.5071 20.4332 28.5C20.8073 29.5268 20.5389 29.8176 19.6277 29.3723C19.5557 29.5248 19.58 29.6702 19.701 29.8084C19.5801 29.9372 19.4337 29.9856 19.2616 29.9538C19.2788 29.6654 19.1811 29.4232 18.9687 29.2269C18.8711 29.663 18.7735 30.0992 18.6759 30.5353C18.3468 30.6624 18.0052 30.7109 17.6508 30.6807C17.5641 30.2988 17.5153 29.9111 17.5043 29.5177C17.3579 29.5177 17.2114 29.5177 17.065 29.5177C17.065 29.8084 17.065 30.0992 17.065 30.3899C16.7233 30.3899 16.3816 30.3899 16.0399 30.3899C15.9614 29.925 16.0591 29.5373 16.3328 29.2269Z"
        fill="#D6D6D6" />
    <path fill-rule="evenodd" clip-rule="evenodd"
        d="M17.9443 29.373C18.0908 29.373 18.2372 29.373 18.3837 29.373C18.3837 29.6638 18.3837 29.9546 18.3837 30.2453C18.2372 30.2453 18.0908 30.2453 17.9443 30.2453C17.9443 29.9546 17.9443 29.6638 17.9443 29.373Z"
        fill="#1D1E1C" />
    <path fill-rule="evenodd" clip-rule="evenodd"
        d="M16.333 29.2275C16.4505 29.4386 16.5237 29.6808 16.5527 29.9544C16.5866 29.7746 16.6599 29.6292 16.7723 29.5183C16.7723 29.7121 16.7723 29.906 16.7723 30.0998C16.6259 30.0998 16.4795 30.0998 16.333 30.0998C16.333 29.8091 16.333 29.5183 16.333 29.2275Z"
        fill="#868685" />
    <path fill-rule="evenodd" clip-rule="evenodd"
        d="M11.9399 28.6453C12.3535 28.5844 12.6708 28.7298 12.8918 29.0815C12.9456 28.8765 13.0677 28.7311 13.2579 28.6453C13.6365 29.0424 14.0758 29.1392 14.5759 28.9361C14.8173 29.1114 15.037 29.3052 15.2348 29.5176C15.4008 29.2689 15.6204 29.1962 15.8938 29.2995C15.7962 29.6387 15.6986 29.978 15.601 30.3172C15.312 30.3892 15.0191 30.4134 14.7223 30.3899C14.7661 30.084 14.7173 29.7932 14.5759 29.5176C14.2975 29.8415 14.151 30.2292 14.1365 30.6806C13.7402 30.6697 13.3497 30.6213 12.965 30.5353C13.0202 30.0955 13.0446 29.6594 13.0382 29.2268C12.7739 29.9606 12.3346 30.106 11.7202 29.663C11.6485 29.475 11.6241 29.2811 11.647 29.0815C11.9416 29.1562 12.2345 29.1803 12.5257 29.1542C12.2593 29.0466 12.0641 28.8769 11.9399 28.6453Z"
        fill="#D6D6D6" />
    <path fill-rule="evenodd" clip-rule="evenodd"
        d="M13.5507 29.373C13.6972 29.373 13.8436 29.373 13.9901 29.373C13.9413 29.6638 13.8924 29.9546 13.8436 30.2453C13.6972 30.2453 13.5507 30.2453 13.4043 30.2453C13.4068 29.9451 13.4556 29.6544 13.5507 29.373Z"
        fill="#20201E" />
</svg>