<svg width="32" height="32" viewBox="0 0 32 32" fill="none" xmlns="http://www.w3.org/2000/svg">
    <g clip-path="url(#clip0_5629_1797)">
        <path fill-rule="evenodd" clip-rule="evenodd"
            d="M-0.071167 -0.0712891C1.06661 -0.0712891 2.20439 -0.0712891 3.34217 -0.0712891C1.55634 0.339665 0.418562 1.43004 -0.071167 3.19982C-0.071167 2.10945 -0.071167 1.01908 -0.071167 -0.0712891Z"
            fill="#FAF5F5" />
        <path fill-rule="evenodd" clip-rule="evenodd"
            d="M3.34217 -0.0712891C11.7333 -0.0712891 20.1244 -0.0712891 28.5155 -0.0712891C30.3644 0.355378 31.5022 1.49316 31.9288 3.34204C31.9288 11.7332 31.9288 20.1243 31.9288 28.5154C31.5022 30.3643 30.3644 31.502 28.5155 31.9287C20.1244 31.9287 11.7333 31.9287 3.34217 31.9287C1.55812 31.5195 0.420332 30.4293 -0.071167 28.6576C-0.071167 20.1716 -0.071167 11.6858 -0.071167 3.19982C0.418562 1.43004 1.55634 0.339665 3.34217 -0.0712891Z"
            fill="#FA5756" />
        <path fill-rule="evenodd" clip-rule="evenodd"
            d="M28.5155 -0.0712891C29.6533 -0.0712891 30.7911 -0.0712891 31.9288 -0.0712891C31.9288 1.06649 31.9288 2.20427 31.9288 3.34204C31.5022 1.49316 30.3644 0.355378 28.5155 -0.0712891Z"
            fill="#FAF5F5" />
        <path fill-rule="evenodd" clip-rule="evenodd"
            d="M9.45774 7.32429C11.9607 7.18881 13.5488 8.32659 14.2222 10.7376C14.1387 13.5329 15.1579 15.8322 17.28 17.6354C18.9991 18.4186 19.9947 19.746 20.2666 21.6176C19.8835 24.5356 18.2242 25.863 15.2889 25.5998C12.917 24.6987 10.997 23.2054 9.52886 21.1198C7.18035 18.0565 6.08998 14.5958 6.25774 10.7376C6.72436 9.01532 7.79103 7.87755 9.45774 7.32429Z"
            fill="#FAF9F9" />
        <path fill-rule="evenodd" clip-rule="evenodd"
            d="M21.5466 7.32473C23.9971 7.23984 25.538 8.37762 26.1689 10.7381C26.0975 14.0326 24.4146 15.526 21.12 15.2181C18.8094 14.3198 17.885 12.6368 18.3466 10.1692C18.9548 8.68284 20.0215 7.73469 21.5466 7.32473Z"
            fill="#FAF8F8" />
        <path fill-rule="evenodd" clip-rule="evenodd"
            d="M-0.071167 28.6582C0.420332 30.4299 1.55812 31.5201 3.34217 31.9293C2.20439 31.9293 1.06661 31.9293 -0.071167 31.9293C-0.071167 30.8389 -0.071167 29.7486 -0.071167 28.6582Z"
            fill="#FAF6F6" />
        <path fill-rule="evenodd" clip-rule="evenodd"
            d="M31.9288 28.5156C31.9288 29.6534 31.9288 30.7912 31.9288 31.929C30.7911 31.929 29.6533 31.929 28.5155 31.929C30.3644 31.5023 31.5022 30.3645 31.9288 28.5156Z"
            fill="#FAF5F5" />
    </g>
    <defs>
        <clipPath id="clip0_5629_1797">
            <rect width="32" height="32" fill="white" />
        </clipPath>
    </defs>
</svg>