<svg width="32" height="32" viewBox="0 0 32 32" fill="none" xmlns="http://www.w3.org/2000/svg">
    <path
        d="M30.1402 1.61809C31.1858 2.73467 31.4138 3.60317 31.362 5.086C31.3543 5.21278 31.3466 5.33956 31.3387 5.47018C30.6775 5.68874 30.6775 5.68874 30.0851 5.47018C29.1491 5.19 28.5486 5.30657 27.5916 5.47018C28.1762 6.49715 28.1762 6.49715 28.7953 7.5038C30.9875 10.9575 31.7507 15.0918 30.8577 19.0949C30.4612 20.6789 29.8909 22.1597 29.1346 23.6105C28.386 23.1995 27.8414 22.8078 27.3023 22.1489C27.1895 22.0128 27.0767 21.8767 26.9605 21.7365C26.8778 21.6337 26.7952 21.5309 26.71 21.4249C28.1717 23.5109 29.9411 25.1693 32 26.6703C31.8932 27.5936 31.3856 27.9842 30.705 28.5827C30.5101 28.7574 30.3152 28.9321 30.1144 29.112C29.5754 29.5116 29.5754 29.5116 28.9141 29.5116C28.9141 29.6558 28.9141 29.8001 28.9141 29.9487C28.461 30.1568 28.006 30.3609 27.5503 30.5634C27.2971 30.6775 27.044 30.7916 26.7832 30.9092C24.4639 31.8232 22.1596 32.0248 19.6842 31.9977C19.5391 31.9967 19.394 31.9958 19.2445 31.9948C17.1019 31.9785 15.1035 31.886 13.0441 31.26C12.7893 31.1857 12.5344 31.1113 12.2718 31.0347C8.75374 29.9012 5.02564 27.7913 2.90499 24.7033C2.70782 24.3063 2.70782 24.3063 2.68457 23.8291C2.91517 23.3118 3.14993 22.8619 3.44225 22.3811C3.52184 22.2465 3.60144 22.1119 3.68344 21.9732C4.32145 20.9194 5.04472 19.9581 5.84445 19.0182C6.24341 18.5615 6.24341 18.5615 6.65207 17.928C5.42887 19.0924 4.31455 20.261 3.34582 21.6435C3.27308 21.4992 3.20034 21.355 3.1254 21.2064C3.3999 20.4795 3.79244 19.8016 4.15861 19.1164C4.26842 18.9105 4.37824 18.7045 4.49138 18.4924C6.15064 15.4481 8.15372 12.7273 10.6196 10.2785C10.7631 10.1336 10.9065 9.98884 11.0544 9.83964C13.764 7.29548 17.2113 5.99995 20.9103 6.07378C21.5418 6.11882 22.1268 6.2022 22.7425 6.34441C19.4373 5.40805 16.4223 6.21945 13.466 7.80431C11.6687 8.82534 10.0769 10.1191 8.63582 11.5898C8.49034 11.5177 8.34487 11.4456 8.19498 11.3713C11.5047 6.83838 14.8421 3.15195 20.0975 0.880457C20.2816 0.797064 20.4657 0.71367 20.6554 0.627749C23.4653 -0.431802 27.7147 -0.181365 30.1402 1.61809ZM23.6241 6.78153C23.6969 6.92578 23.7696 7.07003 23.8446 7.21865C23.99 7.14652 24.1355 7.0744 24.2854 7.00009C24.0672 6.92796 23.849 6.85584 23.6241 6.78153ZM24.9466 7.87432C25.1671 8.31144 25.1671 8.31144 25.1671 8.31144L24.9466 7.87432ZM25.1671 8.31144C25.3875 8.74855 25.3875 8.74855 25.3875 8.74855L25.1671 8.31144ZM25.3875 8.74855C25.3693 8.95591 25.3511 9.16327 25.3324 9.37691C25.1671 10.0599 25.1671 10.0599 24.7124 10.3604C24.5011 10.428 24.5011 10.428 24.2854 10.497C24.8309 10.6052 24.8309 10.6052 25.3875 10.7156C25.7133 10.0694 25.6212 9.46055 25.6079 8.74855C25.5351 8.74855 25.4624 8.74855 25.3875 8.74855ZM22.3016 9.84134C22.3016 9.91347 22.3016 9.98559 22.3016 10.0599C22.7381 10.0599 23.1745 10.0599 23.6241 10.0599C23.6241 9.98778 23.6241 9.91565 23.6241 9.84134C23.1877 9.84134 22.7513 9.84134 22.3016 9.84134ZM20.3179 10.9341C20.3906 11.0784 20.4634 11.2226 20.5383 11.3713C20.611 11.227 20.6838 11.0828 20.7587 10.9341C20.6132 10.9341 20.4678 10.9341 20.3179 10.9341ZM19.6566 11.8084C19.8771 12.2455 19.8771 12.2455 19.8771 12.2455L19.6566 11.8084ZM19.4362 12.2455C19.6566 12.6826 19.6566 12.6826 19.6566 12.6826L19.4362 12.2455ZM19.2158 12.6826C19.4362 13.1197 19.4362 13.1197 19.4362 13.1197L19.2158 12.6826ZM18.9954 13.3383C19.2158 13.994 19.2158 13.994 19.2158 13.994L18.9954 13.3383ZM18.775 14.2125C18.775 14.7174 18.775 15.2222 18.775 15.7424C18.8477 15.7424 18.9204 15.7424 18.9954 15.7424C18.9954 15.2375 18.9954 14.7327 18.9954 14.2125C18.9227 14.2125 18.8499 14.2125 18.775 14.2125ZM9.95831 16.1795C11.8131 16.0713 11.8131 16.0713 13.7054 15.961C13.7054 15.8889 13.7054 15.8167 13.7054 15.7424C13.2049 15.7306 12.7044 15.7221 12.2038 15.7151C11.9251 15.71 11.6463 15.705 11.3592 15.6997C10.5901 15.6821 10.5901 15.6821 9.95831 16.1795ZM7.97457 16.8352C7.90183 16.9795 7.82909 17.1237 7.75415 17.2723C7.97236 17.2002 8.19057 17.1281 8.4154 17.0538C8.26992 16.9816 8.12445 16.9095 7.97457 16.8352ZM15.4687 17.0538C15.6891 17.4909 15.6891 17.4909 15.6891 17.4909L15.4687 17.0538ZM7.31332 17.2723C7.24058 17.4166 7.16784 17.5608 7.0929 17.7094C7.31111 17.6373 7.52933 17.5652 7.75415 17.4909C7.60867 17.4188 7.4632 17.3466 7.31332 17.2723ZM18.775 17.2723C18.9954 17.928 18.9954 17.928 18.9954 17.928L18.775 17.2723ZM15.6891 17.4909C15.5437 17.7794 15.3982 18.0679 15.2483 18.3651C15.4665 18.293 15.6847 18.2209 15.9096 18.1466C15.8368 17.9302 15.7641 17.7138 15.6891 17.4909ZM13.7054 18.3651C13.7054 18.4372 13.7054 18.5094 13.7054 18.5837C14.0691 18.5837 14.4328 18.5837 14.8075 18.5837C14.8075 18.5115 14.8075 18.4394 14.8075 18.3651C14.4438 18.3651 14.0801 18.3651 13.7054 18.3651ZM12.8237 18.8022C12.463 19.2306 12.463 19.2306 12.1625 19.6765C12.2352 19.8207 12.308 19.965 12.3829 20.1136C12.6738 19.6808 12.9648 19.2481 13.2646 18.8022C13.1191 18.8022 12.9736 18.8022 12.8237 18.8022ZM11.9421 20.1136C12.1625 20.7693 12.1625 20.7693 12.1625 20.7693L11.9421 20.1136ZM26.0487 20.5507C26.2691 20.9878 26.2691 20.9878 26.2691 20.9878L26.0487 20.5507ZM11.7216 20.7693C11.7216 21.1299 11.7216 21.4905 11.7216 21.862C11.7944 21.862 11.8671 21.862 11.9421 21.862C11.9421 21.5014 11.9421 21.1408 11.9421 20.7693C11.8693 20.7693 11.7966 20.7693 11.7216 20.7693ZM19.8771 20.9878C20.0975 21.4249 20.0975 21.4249 20.0975 21.4249L19.8771 20.9878ZM11.5012 21.862C11.574 22.6554 11.6467 23.4488 11.7216 24.2662C11.7944 24.2662 11.8671 24.2662 11.9421 24.2662C11.8693 23.4728 11.7966 22.6795 11.7216 21.862C11.6489 21.862 11.5762 21.862 11.5012 21.862ZM20.5383 22.0806C20.7587 22.5177 20.7587 22.5177 20.7587 22.5177L20.5383 22.0806ZM20.9791 22.7363C21.1996 23.1734 21.1996 23.1734 21.1996 23.1734L20.9791 22.7363ZM21.8608 23.8291C21.9335 24.0454 22.0063 24.2618 22.0812 24.4847C22.0812 24.2684 22.0812 24.052 22.0812 23.8291C22.0085 23.8291 21.9357 23.8291 21.8608 23.8291ZM11.9421 24.2662C12.1625 24.9219 12.1625 24.9219 12.1625 24.9219L11.9421 24.2662ZM12.1625 24.9219C12.3829 25.359 12.3829 25.359 12.3829 25.359L12.1625 24.9219ZM12.3829 25.359C12.6033 25.7961 12.6033 25.7961 12.6033 25.7961L12.3829 25.359ZM12.6033 25.7961C12.8237 26.2332 12.8237 26.2332 12.8237 26.2332L12.6033 25.7961ZM13.0441 26.4518C13.2646 26.8889 13.2646 26.8889 13.2646 26.8889L13.0441 26.4518Z"
        fill="#1CC6EC" />
    <path
        d="M30.1405 1.61809C31.1862 2.73467 31.4141 3.60317 31.3623 5.086C31.3546 5.21278 31.347 5.33956 31.339 5.47018C30.6778 5.68874 30.6778 5.68874 30.0854 5.47018C29.1494 5.19 28.5489 5.30657 27.592 5.47018C28.1766 6.49715 28.1766 6.49715 28.7956 7.5038C30.9879 10.9575 31.751 15.0918 30.8581 19.0949C30.4615 20.6789 29.8913 22.1597 29.1349 23.6105C27.989 22.9756 27.3045 22.2106 26.4899 21.2064C26.3407 21.0252 26.1915 20.8441 26.0379 20.6574C24.0426 18.1052 23.3606 15.5545 23.3903 12.3821C23.3913 12.1795 23.3923 11.9769 23.3933 11.7682C23.3959 11.2716 23.3995 10.7751 23.4041 10.2785C23.5495 10.2063 23.695 10.1342 23.8449 10.0599C24.365 10.2644 24.88 10.4825 25.3878 10.7156C25.4705 9.69115 25.4946 8.95645 25.0158 8.02458C23.8601 6.69272 22.7299 6.11149 20.9795 5.9073C16.6775 5.6026 12.882 7.8018 9.73823 10.497C9.36279 10.8545 8.99894 11.2195 8.63615 11.5898C8.49067 11.5177 8.3452 11.4456 8.19531 11.3713C11.505 6.83837 14.8424 3.15195 20.0978 0.880457C20.2819 0.797064 20.466 0.71367 20.6557 0.627749C23.4657 -0.431802 27.715 -0.181365 30.1405 1.61809Z"
        fill="#EFF5F7" />
    <path
        d="M19.2159 0.661963C18.6896 1.24928 18.1437 1.55402 17.4388 1.90501C16.1357 2.59528 15.043 3.42405 13.9259 4.37745C13.7418 4.53072 13.5577 4.68398 13.368 4.84189C11.988 6.02441 10.8417 7.31139 9.73804 8.74862C9.56614 8.97034 9.39424 9.19207 9.21713 9.42051C6.5467 12.9475 4.59694 16.8387 2.9033 20.9014C2.61636 21.5887 2.32044 22.2719 2.02346 22.9549C1.87798 22.9549 1.73251 22.9549 1.58263 22.9549C-0.29577 18.4194 -0.634558 13.965 1.2873 9.37612C2.22033 7.30246 3.44921 5.70993 5.10929 4.15889C5.28375 3.99521 5.4582 3.83152 5.63795 3.66287C9.29877 0.509263 14.5634 -0.64644 19.2159 0.661963Z"
        fill="#F1F5F6" />
    <path
        d="M30.1405 1.61809C31.1862 2.73467 31.4141 3.60317 31.3623 5.086C31.3546 5.21278 31.347 5.33956 31.339 5.47018C30.6778 5.68874 30.6778 5.68874 30.0854 5.47018C28.6094 5.02834 27.3762 5.48076 26.0491 6.12585C25.3854 6.56456 25.2489 6.74631 24.947 7.4372C24.5081 7.22153 24.0717 7.00346 23.64 6.77385C21.3443 5.57169 19.0155 5.74569 16.5592 6.42541C13.51 7.4034 10.849 9.33146 8.63615 11.5898C8.49067 11.5177 8.3452 11.4456 8.19531 11.3713C11.505 6.83838 14.8424 3.15195 20.0978 0.880457C20.2819 0.797064 20.466 0.71367 20.6557 0.627749C23.4657 -0.431802 27.715 -0.181365 30.1405 1.61809Z"
        fill="#2AD8EF" />
    <path
        d="M23.1831 10.0596C23.3286 10.1317 23.4741 10.2038 23.624 10.2781C23.6163 10.5632 23.6086 10.8484 23.6007 11.1421C23.5605 13.2892 23.6014 15.2112 24.2852 17.272C24.3735 17.5813 24.4609 17.8909 24.547 18.2009C24.6061 18.3992 24.6652 18.5975 24.7261 18.8019C24.5078 18.7298 24.2896 18.6577 24.0648 18.5833C23.8243 18.0674 23.6407 17.593 23.4724 17.0534C23.4238 16.8988 23.3752 16.7442 23.3251 16.5848C22.7134 14.4524 22.7675 12.2283 23.1831 10.0596Z"
        fill="#44C9E7" />
    <path
        d="M24.285 7.65527C24.9462 7.87383 24.9462 7.87383 25.208 8.24265C25.4296 8.8682 25.4172 9.40118 25.3871 10.0594C24.7446 10.2364 24.4038 10.3257 23.7753 10.0731C23.6525 9.99644 23.5298 9.91981 23.4033 9.84086C23.6215 9.76873 23.8397 9.69661 24.0646 9.6223C24.4356 9.25436 24.4332 8.81189 24.5054 8.31095C24.4327 8.09458 24.3599 7.8782 24.285 7.65527Z"
        fill="#34CBE8" />
    <path
        d="M10.1791 8.74805C10.2518 8.8923 10.3245 9.03654 10.3995 9.18516C10.3267 9.32941 10.254 9.47366 10.1791 9.62228C10.3245 9.6944 10.47 9.76653 10.6199 9.84084C10.3416 10.0978 10.0611 10.3523 9.77956 10.6058C9.62357 10.7478 9.46758 10.8898 9.30687 11.0361C8.85656 11.3707 8.85656 11.3707 8.19531 11.3707C8.84995 10.5053 9.50459 9.63976 10.1791 8.74805Z"
        fill="#32CAE5" />
    <path
        d="M26.7103 5.46973C26.9285 5.54185 27.1467 5.61397 27.3716 5.68828C27.1248 5.90814 26.8765 6.1264 26.6277 6.34396C26.4896 6.46567 26.3515 6.58738 26.2092 6.71278C25.8286 6.99963 25.8286 6.99963 25.3878 6.99963C25.4605 7.36026 25.5333 7.72088 25.6082 8.09243C25.39 8.20061 25.39 8.20061 25.1674 8.31098C24.9057 7.94217 24.9057 7.94217 24.7266 7.43675C25.126 6.44665 25.7796 5.96964 26.7103 5.46973Z"
        fill="#CFF8FC" />
    <path
        d="M11.0604 7.65527C11.2059 7.65527 11.3513 7.65527 11.5012 7.65527C11.5739 8.08802 11.6467 8.52076 11.7216 8.96662C10.9226 9.6223 10.9226 9.6223 10.1787 9.6223C10.5644 8.14703 10.5644 8.14703 11.0604 7.65527Z"
        fill="#23D5E8" />
    <path
        d="M4.4475 18.584C4.66571 18.8725 4.88392 19.161 5.10875 19.4582C4.52685 20.1795 3.94495 20.9007 3.34542 21.6438C3.27268 21.4996 3.19994 21.3553 3.125 21.2067C3.39277 20.5903 3.39277 20.5903 3.77247 19.868C3.89721 19.6285 4.02194 19.3891 4.15045 19.1423C4.24848 18.9581 4.3465 18.7738 4.4475 18.584Z"
        fill="#2CC2E1" />
    <path
        d="M24.726 5.68848C24.7987 5.83272 24.8715 5.97697 24.9464 6.12559C25.0919 6.12559 25.2374 6.12559 25.3872 6.12559C25.3872 5.98134 25.3872 5.8371 25.3872 5.68848C25.6782 5.7606 25.9691 5.83272 26.2689 5.90703C26.1325 5.99719 25.9961 6.08735 25.8556 6.18023C25.3723 6.57489 25.1827 6.87067 24.9464 7.43694C24.8009 7.43694 24.6555 7.43694 24.5056 7.43694C24.3678 6.93153 24.3678 6.93153 24.2852 6.34415C24.4306 6.12778 24.5761 5.91141 24.726 5.68848Z"
        fill="#3ED3E3" />
    <path
        d="M14.491 5.01953C14.7569 5.02629 14.7569 5.02629 15.0283 5.03319C14.9555 5.32169 14.8828 5.61018 14.8079 5.90742C14.3714 5.97955 13.935 6.05167 13.4854 6.12598C13.7331 5.03786 13.7331 5.03786 14.491 5.01953Z"
        fill="#2ED3F9" />
    <path
        d="M24.9469 19.2393C25.5474 19.7535 25.7876 20.2501 26.049 20.9877C25.6853 20.9156 25.3216 20.8435 24.9469 20.7692C24.7167 20.0843 24.741 19.8972 24.9469 19.2393Z"
        fill="#2DBFDE" />
    <path
        d="M12.8238 5.68848C12.9692 5.68848 13.1147 5.68848 13.2646 5.68848C13.1919 6.0491 13.1191 6.40972 13.0442 6.78127C12.6078 6.85339 12.1713 6.92552 11.7217 6.99983C12.0779 6.55371 12.4459 6.11669 12.8238 5.68848Z"
        fill="#2CD6DF" />
    <path
        d="M7.53372 13.7754C7.6792 13.9196 7.82467 14.0639 7.97456 14.2125C7.82908 14.2125 7.68361 14.2125 7.53372 14.2125C7.51554 14.3432 7.49735 14.474 7.47862 14.6086C7.26822 15.2171 6.96696 15.4 6.43164 15.7424C6.70698 14.9864 7.02132 14.399 7.53372 13.7754Z"
        fill="#28CCEC" />
    <path
        d="M24.2852 7.65527C24.5034 7.7274 24.7216 7.79952 24.9464 7.87383C24.9464 8.30658 24.9464 8.73932 24.9464 9.18518C24.7282 9.25731 24.51 9.32943 24.2852 9.40374C24.3261 9.23695 24.367 9.07016 24.4091 8.89832C24.5559 8.29135 24.5559 8.29135 24.2852 7.65527Z"
        fill="#28D3E5" />
</svg>