<svg width="32" height="32" viewBox="0 0 32 32" fill="none" xmlns="http://www.w3.org/2000/svg">
    <g clip-path="url(#clip0_5675_5091)">
        <path fill-rule="evenodd" clip-rule="evenodd"
            d="M11.1199 -0.0849609C14.6399 -0.0849609 18.1599 -0.0849609 21.6799 -0.0849609C21.7866 0.0285143 21.8932 0.141989 21.9999 0.255465C21.8018 0.308232 21.8018 0.393339 21.9999 0.510784C22.3805 0.632687 22.7005 0.831267 22.9599 1.10653C23.0268 1.22935 23.1333 1.31446 23.2799 1.36185C22.8047 1.48743 22.3781 1.68601 21.9999 1.95759C22.3944 2.06372 22.7677 2.20556 23.1199 2.38312C23.0632 2.6598 23.0632 2.97186 23.1199 3.31929C23.497 3.2915 23.8703 3.31987 24.2399 3.4044C24.4532 3.57461 24.4532 3.74483 24.2399 3.91504C24.3916 3.99722 24.5516 4.02559 24.7199 4.00015C24.7199 3.7732 24.7199 3.54624 24.7199 3.31929C25.321 3.28294 25.4277 3.45315 25.0399 3.82993C25.3024 4.34454 25.5157 4.88355 25.6799 5.44695C25.5245 6.31022 25.4711 7.18966 25.5199 8.08525C25.9466 8.08525 26.3732 8.08525 26.7999 8.08525C26.7999 7.63135 26.7999 7.17746 26.7999 6.72355C27.3405 6.75388 27.8471 6.75388 28.3199 6.72355C28.3466 6.83703 28.3732 6.95049 28.3999 7.06398C28.1687 7.3666 28.0087 7.70702 27.9199 8.08525C28.0245 8.25609 28.1578 8.42631 28.3199 8.59589C28.5924 8.28146 28.5656 7.9694 28.2399 7.65972C28.7564 7.7867 29.2896 7.92854 29.8399 8.08525C29.8402 8.482 29.7069 8.82243 29.4399 9.10653C29.2799 8.99305 29.1199 8.87958 28.9599 8.7661C28.9589 9.15909 28.9324 9.52787 28.8799 9.87249C28.9615 10.1833 29.0949 10.2117 29.2799 9.95759C29.3332 10.0711 29.3866 10.1845 29.4399 10.298C29.6578 10.0555 29.8978 9.91368 30.1599 9.87249C29.9892 9.45935 30.0959 9.37424 30.4799 9.61717C30.4893 10.051 30.3293 10.3914 29.9999 10.6384C30.1186 10.7724 30.2519 10.8858 30.3999 10.9789C30.5599 10.7519 30.7199 10.7519 30.8799 10.9789C30.9336 11.8353 31.0136 12.6864 31.1199 13.5321C30.9516 13.5066 30.7916 13.535 30.6399 13.6172C30.7421 14.1306 30.7421 14.6129 30.6399 15.064C30.8546 15.5558 31.2279 16.038 31.7599 16.5108C31.5765 16.6206 31.4165 16.7624 31.2799 16.9363C31.0573 16.7415 30.844 16.7415 30.6399 16.9363C30.7594 16.9766 30.8927 17.0333 31.0399 17.1065C31.0245 17.4267 31.0512 17.7103 31.1199 17.9576C31.0949 18.3944 31.1484 18.8199 31.2799 19.2342C31.08 19.9283 30.9733 20.6376 30.9599 21.3618C30.6093 21.5908 30.3959 21.9312 30.3199 22.3831C30.0365 22.2921 29.9832 22.1501 30.1599 21.9576C30.008 21.8526 29.8748 21.8808 29.7599 22.0427C29.6794 22.841 29.5727 23.6354 29.4399 24.4257C29.2135 24.0068 28.9735 23.6097 28.7199 23.2342C28.4888 23.593 28.3823 23.9901 28.3999 24.4257C27.8562 24.3712 27.3228 24.4279 26.7999 24.5959C26.9599 24.7661 27.1199 24.9363 27.2799 25.1065C27.5095 24.783 27.7762 24.7263 28.0799 24.9363C28.3634 25.0674 28.5234 25.2943 28.5599 25.6172C28.1796 25.9113 27.9128 26.3084 27.7599 26.8087C27.4882 26.6076 27.2215 26.6076 26.9599 26.8087C27.2444 27.0173 27.4044 27.3011 27.4399 27.6597C26.9599 27.7164 26.7466 27.4895 26.7999 26.9789C26.5866 26.9789 26.3732 26.9789 26.1599 26.9789C26.265 27.5475 26.0517 27.888 25.5199 28.0001C25.4242 28.2206 25.3442 28.4475 25.2799 28.681C25.1552 28.239 25.0752 28.239 25.0399 28.681C24.8266 28.681 24.6132 28.681 24.3999 28.681C24.4608 29.0967 24.3541 29.2102 24.0799 29.0214C23.9506 28.6941 23.8706 28.3537 23.8399 28.0001C23.808 29.0837 23.5948 29.1973 23.1999 28.3406C23.0138 28.6444 22.9071 28.9848 22.8799 29.3618C22.5429 29.057 22.1429 28.9435 21.6799 29.0214C21.6799 29.2483 21.6799 29.4754 21.6799 29.7023C21.4077 29.7816 21.1677 29.7816 20.9599 29.7023C20.7032 30.1264 20.4898 30.5804 20.3199 31.064C20.1581 31.2064 19.9714 31.2631 19.7599 31.2342C19.7599 31.4611 19.7599 31.6881 19.7599 31.915C16.7732 31.915 13.7866 31.915 10.7999 31.915C10.936 31.5399 10.776 31.313 10.3199 31.2342C9.8844 31.4112 9.69773 31.241 9.75989 30.7235C9.92169 30.866 10.1083 30.9227 10.3199 30.8938C10.3199 30.6669 10.3199 30.4398 10.3199 30.2129C9.99552 30.1853 9.67552 30.2138 9.35989 30.298C9.28281 30.4696 9.25614 30.6682 9.27989 30.8938C8.73224 30.6842 8.17224 30.514 7.59989 30.3831C7.63493 30.1831 7.5816 30.0129 7.43989 29.8725C7.16304 29.783 6.94969 29.6127 6.79989 29.3618C6.29699 28.993 5.76365 28.7093 5.19989 28.5108C4.82656 28.0568 4.45321 27.603 4.07989 27.1491C3.94526 26.8293 3.89193 26.4888 3.91989 26.1278C4.14877 26.1144 4.36209 26.171 4.55989 26.298C4.73125 27.0762 5.18459 27.5302 5.91989 27.6597C6.46918 27.3835 7.02918 27.1564 7.59989 26.9789C7.59989 26.5818 7.59989 26.1845 7.59989 25.7874C7.17321 25.7874 6.74656 25.7874 6.31989 25.7874C6.34614 26.2447 6.31947 26.6987 6.23989 27.1491C5.95057 27.083 5.68392 27.083 5.43989 27.1491C5.08579 26.8015 4.97912 26.4044 5.11989 25.9576C4.95808 26.1001 4.77142 26.1567 4.55989 26.1278C4.52733 25.8061 4.634 25.5508 4.87989 25.3618C4.7843 25.0403 4.73097 24.7283 4.71989 24.4257C3.70576 24.2561 3.43909 24.6534 3.91989 25.6172C3.83989 25.6738 3.75989 25.7307 3.67989 25.7874C3.42403 25.6902 3.23736 25.52 3.11989 25.2767C2.93699 25.2073 2.77699 25.0938 2.63989 24.9363C2.3888 24.0701 1.96213 23.3326 1.35989 22.7235C1.13273 21.8483 0.999401 20.9406 0.959886 20.0001C0.853219 20.227 0.746553 20.227 0.639886 20.0001C0.560612 19.6643 0.533947 19.3239 0.559886 18.9789C0.631987 18.195 0.845321 17.4575 1.19989 16.7661C0.98395 16.2604 1.06395 15.8633 1.43989 15.5746C1.77571 15.4407 2.12237 15.384 2.47989 15.4044C2.47989 15.0072 2.47989 14.6101 2.47989 14.2129C2.16513 14.1722 1.87181 14.2289 1.59989 14.3831C1.45353 14.2422 1.34686 14.072 1.27989 13.8725C1.22655 13.986 1.17322 14.0994 1.11989 14.2129C1.06655 13.986 1.01322 13.759 0.959886 13.5321C0.906553 13.5888 0.853219 13.6455 0.799886 13.7023C0.779721 13.266 0.753054 12.8688 0.719886 12.5108C0.719886 12.4541 0.719886 12.3973 0.719886 12.3406C1.16755 11.6261 1.40755 11.7396 1.43989 12.681C1.49322 12.4541 1.54655 12.2271 1.59989 12.0001C1.62894 12.4642 1.70894 12.9181 1.83989 13.3618C1.96486 13.1527 2.04486 12.9258 2.07989 12.681C2.08032 13.4269 2.42699 13.7106 3.11989 13.5321C3.11989 12.6243 3.11989 11.7165 3.11989 10.8087C2.8379 10.7844 2.57123 10.8411 2.31989 10.9789C2.07192 9.70898 1.69859 9.70898 1.19989 10.9789C1.05818 10.8384 1.00484 10.6682 1.03989 10.4682C1.27943 9.29856 1.75944 8.27729 2.47989 7.4044C2.7392 7.45323 2.8992 7.62345 2.95989 7.91504C3.61688 8.20947 3.85688 7.98253 3.67989 7.23419C3.21893 6.94197 3.21893 6.60154 3.67989 6.21291C3.78656 6.43986 3.89321 6.66682 3.99989 6.89376C4.16169 6.75136 4.34835 6.69461 4.55989 6.72355C4.55989 6.32639 4.55989 5.92922 4.55989 5.53206C4.34656 5.53206 4.13321 5.53206 3.91989 5.53206C3.91989 5.30512 3.91989 5.07815 3.91989 4.85121C3.97321 4.85121 4.02656 4.85121 4.07989 4.85121C4.29321 4.85121 4.50656 4.85121 4.71989 4.85121C4.82656 5.53206 4.93321 5.53206 5.03989 4.85121C5.66305 5.19461 6.32973 5.42158 7.03989 5.53206C7.2327 5.43483 7.41936 5.32135 7.59989 5.19163C7.49321 5.1349 7.38656 5.07815 7.27989 5.02142C6.96734 5.13301 6.64734 5.18975 6.31989 5.19163C6.62361 4.57788 6.94361 3.95378 7.27989 3.31929C7.04542 2.90316 7.12542 2.56273 7.51989 2.29802C7.84752 2.89196 8.27419 2.94869 8.79989 2.46823C8.96781 2.64135 9.15446 2.66973 9.35989 2.55334C8.89955 2.36154 8.41955 2.24806 7.91989 2.21291C7.72609 2.06095 7.72609 1.91911 7.91989 1.78738C8.59848 1.36786 9.29181 1.14091 9.99989 1.10653C10.2104 1.53682 10.3971 1.53682 10.5599 1.10653C10.6799 1.21304 10.8133 1.29815 10.9599 1.36185C10.7585 1.51903 10.5451 1.66087 10.3199 1.78738C10.3466 1.84411 10.3732 1.90086 10.3999 1.95759C10.8266 1.95759 11.2532 1.95759 11.6799 1.95759C11.9674 1.67579 12.3141 1.50558 12.7199 1.44695C12.7732 1.33348 12.8266 1.22 12.8799 1.10653C12.688 0.923587 12.5013 0.753374 12.3199 0.59589C11.9424 0.690964 11.569 0.917916 11.1999 1.27674C11.2408 1.03592 11.3208 0.7806 11.4399 0.510784C11.3801 0.246923 11.2735 0.048342 11.1199 -0.0849609Z"
            fill="#0076E1" />
        <path fill-rule="evenodd" clip-rule="evenodd"
            d="M10.1601 0.0849609C10.1873 0.309994 10.134 0.508575 10.0001 0.680706C8.82519 1.05967 7.70519 1.54194 6.64014 2.12751C6.85346 1.90057 7.06681 1.67361 7.28014 1.44666C8.19497 0.903706 9.15497 0.449805 10.1601 0.0849609Z"
            fill="#307CBA" />
        <path fill-rule="evenodd" clip-rule="evenodd"
            d="M22.0001 0.254883C22.7468 0.595308 23.4934 0.935734 24.2401 1.27616C24.675 1.68336 25.1017 2.08052 25.5201 2.46765C24.7064 1.94562 23.8531 1.49173 22.9601 1.10595C22.7008 0.830685 22.3808 0.632105 22.0001 0.510202C21.802 0.392757 21.802 0.30765 22.0001 0.254883Z"
            fill="#2476B9" />
        <path fill-rule="evenodd" clip-rule="evenodd"
            d="M10.1601 -0.0849609C10.4801 -0.0849609 10.8001 -0.0849609 11.1201 -0.0849609C11.2737 0.048342 11.3803 0.246923 11.4401 0.510784C11.321 0.7806 11.241 1.03592 11.2001 1.27674C11.5692 0.917916 11.9426 0.690964 12.3201 0.59589C12.5015 0.753374 12.6882 0.923587 12.8801 1.10653C12.8267 1.22 12.7734 1.33348 12.7201 1.44695C12.3143 1.50558 11.9676 1.67579 11.6801 1.95759C11.2534 1.95759 10.8267 1.95759 10.4001 1.95759C10.3734 1.90086 10.3467 1.84411 10.3201 1.78738C10.5453 1.66087 10.7587 1.51903 10.9601 1.36185C10.8135 1.29815 10.6801 1.21304 10.5601 1.10653C10.3973 1.53682 10.2106 1.53682 10.0001 1.10653C9.292 1.14091 8.59867 1.36786 7.92008 1.78738C7.72629 1.91911 7.72629 2.06095 7.92008 2.21291C8.41974 2.24806 8.89974 2.36154 9.36008 2.55334C9.15465 2.66973 8.968 2.64135 8.80008 2.46823C8.27438 2.94869 7.84771 2.89196 7.52008 2.29802C7.12561 2.56273 7.04561 2.90316 7.28008 3.31929C6.94381 3.95378 6.62381 4.57788 6.32008 5.19163C6.64753 5.18975 6.96753 5.13301 7.28008 5.02142C7.38675 5.07815 7.49341 5.1349 7.60008 5.19163C7.41955 5.32135 7.23289 5.43483 7.04008 5.53206C6.32992 5.42158 5.66325 5.19461 5.04008 4.85121C4.93341 5.53206 4.82675 5.53206 4.72008 4.85121C4.50675 4.85121 4.29341 4.85121 4.08008 4.85121C4.67062 4.33773 5.15062 3.71363 5.52008 2.97887C5.80344 2.56435 6.17678 2.28066 6.64008 2.1278C7.70513 1.54223 8.82513 1.05996 10.0001 0.680996C10.1339 0.508865 10.1873 0.310285 10.1601 0.0852518C10.1601 0.0285143 10.1601 -0.0282234 10.1601 -0.0849609Z"
            fill="#087ADA" />
        <path fill-rule="evenodd" clip-rule="evenodd"
            d="M5.83986 2.80859C5.99986 2.80859 6.15986 2.80859 6.31986 2.80859C6.21594 3.14512 6.21594 3.45719 6.31986 3.74476C6.0151 4.24362 5.6951 4.27198 5.35986 3.82987C5.58113 3.52012 5.74113 3.17969 5.83986 2.80859Z"
            fill="#0574E7" />
        <path fill-rule="evenodd" clip-rule="evenodd"
            d="M26 2.80859C26.509 3.16463 26.989 3.56179 27.44 4.00008C27.7669 4.18381 27.9802 4.46749 28.08 4.85115C28.08 4.90788 28.08 4.96463 28.08 5.02136C27.6578 4.63613 27.1778 4.29571 26.64 4.00008C26.4003 3.5994 26.1869 3.20224 26 2.80859Z"
            fill="#2F7DC4" />
        <path fill-rule="evenodd" clip-rule="evenodd"
            d="M5.51977 2.97852C5.15031 3.71327 4.67031 4.33738 4.07977 4.85086C4.02644 4.85086 3.97309 4.85086 3.91977 4.85086C3.86644 4.85086 3.81309 4.85086 3.75977 4.85086C4.29309 4.17 4.87977 3.54589 5.51977 2.97852Z"
            fill="#3080C3" />
        <path fill-rule="evenodd" clip-rule="evenodd"
            d="M3.75983 4.85059C3.77151 5.11048 3.66484 5.2807 3.43983 5.36122C3.42815 5.10133 3.53482 4.93111 3.75983 4.85059Z"
            fill="#5F9DC2" />
        <path fill-rule="evenodd" clip-rule="evenodd"
            d="M22.96 1.10645C23.853 1.49222 24.7062 1.94612 25.52 2.46815C25.7643 2.45572 25.9243 2.5692 26 2.80857C26.1869 3.20222 26.4003 3.59938 26.64 4.00006C27.1778 4.29569 27.6578 4.63611 28.08 5.02134C29.1934 6.09557 29.9934 7.40052 30.48 8.93623C30.48 9.16318 30.48 9.39014 30.48 9.61708C30.096 9.37416 29.9893 9.45926 30.16 9.8724C29.8979 9.91359 29.6579 10.0554 29.44 10.2979C29.3867 10.1845 29.3333 10.071 29.28 9.95751C29.095 10.2116 28.9616 10.1832 28.88 9.8724C28.9325 9.52779 28.959 9.15901 28.96 8.76602C29.12 8.8795 29.28 8.99296 29.44 9.10645C29.707 8.82234 29.8403 8.48192 29.84 8.08517C29.2898 7.92845 28.7565 7.78662 28.24 7.65964C28.5658 7.96932 28.5925 8.28137 28.32 8.59581C28.1579 8.42622 28.0246 8.25601 27.92 8.08517C28.0088 7.70694 28.1688 7.36651 28.4 7.06389C28.3733 6.95041 28.3467 6.83695 28.32 6.72347C27.8472 6.7538 27.3406 6.7538 26.8 6.72347C26.8 7.17737 26.8 7.63126 26.8 8.08517C26.3733 8.08517 25.9467 8.08517 25.52 8.08517C25.4712 7.18958 25.5246 6.31014 25.68 5.44687C25.5158 4.88347 25.3026 4.34445 25.04 3.82985C25.4278 3.45307 25.3211 3.28285 24.72 3.31921C24.72 3.54616 24.72 3.77312 24.72 4.00006C24.5517 4.02551 24.3917 3.99713 24.24 3.91496C24.4533 3.74474 24.4533 3.57453 24.24 3.40432C23.8704 3.31979 23.4971 3.29142 23.12 3.31921C23.0634 2.97177 23.0634 2.65972 23.12 2.38304C22.7678 2.20548 22.3946 2.06364 22 1.95751C22.3782 1.68593 22.8048 1.48735 23.28 1.36176C23.1334 1.31437 23.0269 1.22927 22.96 1.10645Z"
            fill="#077ADD" />
        <path fill-rule="evenodd" clip-rule="evenodd"
            d="M3.75998 4.85059C3.81331 4.85059 3.86665 4.85059 3.91998 4.85059C3.91998 5.07753 3.91998 5.30449 3.91998 5.53144C4.13331 5.53144 4.34665 5.53144 4.55998 5.53144C4.55998 5.92859 4.55998 6.32577 4.55998 6.72293C4.34844 6.69399 4.16179 6.75074 3.99998 6.89314C3.89331 6.66619 3.78665 6.43923 3.67998 6.21229C3.21902 6.60092 3.21902 6.94134 3.67998 7.23356C3.85697 7.98191 3.61697 8.20885 2.95998 7.91442C2.89929 7.62282 2.73929 7.45261 2.47998 7.40378C2.56497 7.05585 2.75163 6.77217 3.03998 6.55271C3.11838 6.33259 3.14505 6.10563 3.11998 5.87186C3.1083 5.61196 3.21497 5.44175 3.43998 5.36122C3.66499 5.2807 3.77166 5.11048 3.75998 4.85059Z"
            fill="#087AD8" />
        <path fill-rule="evenodd" clip-rule="evenodd"
            d="M30.48 8.93652C30.7557 9.53246 30.9691 10.1566 31.12 10.8089C30.847 10.4494 30.6337 10.0522 30.48 9.61737C30.48 9.39043 30.48 9.16347 30.48 8.93652Z"
            fill="#357DBB" />
        <path fill-rule="evenodd" clip-rule="evenodd"
            d="M9.52006 11.4895C9.23933 11.2505 8.91933 11.0802 8.56006 10.9789C8.48761 10.8157 8.38094 10.6739 8.24006 10.5533C8.38216 10.261 8.27549 10.0624 7.92006 9.95759C7.39113 10.0705 6.85779 10.1556 6.32006 10.2129C6.07115 10.3355 5.91115 10.5341 5.84006 10.8087C5.43697 10.8678 5.14365 11.0948 4.96006 11.4895C4.88025 12.168 4.85358 12.8489 4.88006 13.5321C4.78128 13.5132 4.70128 13.4565 4.64006 13.3618C4.53339 12.5675 4.53339 11.7732 4.64006 10.9789C4.98803 10.8504 5.3347 10.7086 5.68006 10.5533C5.07389 10.0694 4.86056 9.44525 5.04006 8.681C5.43545 8.56078 5.8088 8.61751 6.16006 8.85121C6.00677 9.04653 6.06011 9.21674 6.32006 9.36185C5.93747 9.47953 5.93747 9.64975 6.32006 9.87249C6.69339 9.98597 7.06673 9.98597 7.44006 9.87249C7.46648 9.68238 7.51981 9.48379 7.60006 9.27674C6.12805 8.98901 6.12805 8.73369 7.60006 8.51078C7.28006 8.45405 6.96006 8.3973 6.64006 8.34057C6.48797 8.21844 6.46131 8.07659 6.56006 7.91504C7.08283 7.98232 7.56283 8.15254 8.00006 8.42568C8.15598 8.02098 8.26264 8.07771 8.32006 8.59589C8.72905 8.71829 8.91573 9.00198 8.88006 9.44695C9.04006 9.44695 9.20006 9.44695 9.36006 9.44695C9.40473 9.89254 9.51141 10.3181 9.68006 10.7235C9.55077 10.7759 9.44411 10.861 9.36006 10.9789C9.46041 11.1349 9.51376 11.3051 9.52006 11.4895Z"
            fill="#0379DB" />
        <path fill-rule="evenodd" clip-rule="evenodd"
            d="M8.55984 10.9783C8.14373 10.7265 7.6904 10.5563 7.19984 10.4677C6.74826 10.5997 6.29493 10.7131 5.83984 10.8081C5.91093 10.5335 6.07093 10.3349 6.31984 10.2124C6.85757 10.155 7.39092 10.0699 7.91984 9.95703C8.27527 10.0619 8.38194 10.2605 8.23984 10.5528C8.38072 10.6733 8.4874 10.8152 8.55984 10.9783Z"
            fill="#2C7BC3" />
        <path fill-rule="evenodd" clip-rule="evenodd"
            d="M25.5202 10.6384C24.4773 10.4792 23.5706 10.7628 22.8002 11.4895C22.7895 11.2412 22.8427 11.0142 22.9602 10.8086C23.7088 10.2047 24.5621 9.97779 25.5202 10.1278C25.5202 10.298 25.5202 10.4682 25.5202 10.6384Z"
            fill="#297CC1" />
        <path fill-rule="evenodd" clip-rule="evenodd"
            d="M15.2799 9.95732C15.699 10.003 16.0989 9.94626 16.4799 9.78711C16.8162 10.0586 17.0562 10.399 17.1999 10.8084C14.8156 9.94022 13.6423 10.848 13.6799 13.5318C13.4973 12.9973 13.4707 12.43 13.5999 11.8297C13.9001 11.0842 14.3001 10.4034 14.7999 9.78711C14.9465 9.89387 15.1065 9.95062 15.2799 9.95732Z"
            fill="#2679C4" />
        <path fill-rule="evenodd" clip-rule="evenodd"
            d="M0.720215 12.3405C0.789152 11.6874 0.89582 11.0633 1.04021 10.4681C1.00517 10.6681 1.05851 10.8384 1.20021 10.9788C1.69892 9.70889 2.07225 9.70889 2.32021 10.9788C2.57156 10.841 2.83823 10.7843 3.12022 10.8086C3.12022 11.7164 3.12022 12.6242 3.12022 13.532C2.42732 13.7105 2.08065 13.4268 2.08021 12.6809C2.04519 12.9257 1.96519 13.1526 1.84021 13.3618C1.70927 12.918 1.62927 12.4641 1.60021 12.0001C1.54688 12.227 1.49355 12.454 1.44021 12.6809C1.40788 11.7395 1.16788 11.626 0.720215 12.3405Z"
            fill="#007CDF" />
        <path fill-rule="evenodd" clip-rule="evenodd"
            d="M22.32 13.8722C23.0116 15.0908 24.0251 15.5731 25.36 15.319C25.4803 15.2048 25.5337 15.063 25.52 14.8935C25.5732 14.8935 25.6267 14.8935 25.68 14.8935C26.259 14.871 26.659 14.5873 26.88 14.0424C26.9867 13.3048 26.9867 12.5672 26.88 11.8297C26.6129 11.5456 26.4796 11.2051 26.48 10.8084C26.2667 10.8084 26.0532 10.8084 25.84 10.8084C25.6812 10.8376 25.5747 10.7808 25.52 10.6382C25.52 10.468 25.52 10.2977 25.52 10.1275C24.5619 9.97756 23.7086 10.2045 22.96 10.8084C22.9361 10.6293 22.9627 10.4591 23.04 10.2977C23.0932 10.3545 23.1467 10.4112 23.2 10.468C23.4451 10.1169 23.7651 9.88997 24.16 9.78711C24.6427 9.83494 25.1492 9.83494 25.68 9.78711C25.6419 10.3998 25.8019 10.4565 26.16 9.95732C26.5428 10.672 27.1296 10.9557 27.92 10.8084C27.92 10.6382 27.92 10.468 27.92 10.2977C28.2153 10.2505 28.4288 10.3639 28.56 10.6382C28.428 10.7889 28.268 10.8457 28.08 10.8084C28.1051 11.0422 28.0784 11.2691 28 11.4892C27.3772 12.0097 27.084 12.6906 27.12 13.5318C27.3315 13.5607 27.5182 13.504 27.68 13.3616C27.9768 13.9543 28.0835 14.5784 28 15.2339C27.7363 15.4411 27.443 15.5829 27.12 15.6595C26.7243 16.4174 26.1377 16.616 25.36 16.2552C25.5857 15.9969 25.559 15.77 25.28 15.5743C24.5958 15.7661 23.9558 15.7661 23.36 15.5743C23.1344 15.1686 22.8144 14.8849 22.4 14.7233C22.3209 14.4451 22.2944 14.1614 22.32 13.8722Z"
            fill="#037ADB" />
        <path fill-rule="evenodd" clip-rule="evenodd"
            d="M9.84003 16.2555C9.90435 17.4487 10.4644 18.2997 11.52 18.8087C11.7484 19.184 11.8284 19.5528 11.76 19.9151C12.1499 20.1491 12.5766 20.2342 13.04 20.1704C13.0061 20.7687 13.0061 21.336 13.04 21.8725C12.2461 22.778 11.2861 23.0616 10.16 22.7236C9.97953 21.8019 9.81953 20.9224 9.68003 20.0853C9.90246 19.0706 9.82246 18.0778 9.44003 17.1065C8.96137 16.7448 8.6147 16.2626 8.40003 15.6597C8.0771 15.5738 7.7571 15.4887 7.44003 15.4044C7.32257 15.1988 7.26925 14.9719 7.28003 14.7236C6.84827 14.7293 6.44827 14.6159 6.08003 14.3831C5.15182 13.2981 5.12515 12.1917 6.00003 11.064C8.17477 10.5092 9.24142 11.4454 9.20003 13.8725C9.18272 14.0328 9.12939 14.1747 9.04003 14.298C9.27341 15.0008 9.54008 15.6533 9.84003 16.2555Z"
            fill="#F7F8F6" />
        <path fill-rule="evenodd" clip-rule="evenodd"
            d="M17.2001 10.8085C17.4729 11.2411 17.7129 11.6951 17.9201 12.1702C17.9734 13.078 18.0268 13.9858 18.0801 14.8936C18.1185 15.2939 18.2518 15.6343 18.4801 15.9149C18.4801 15.9716 18.4801 16.0284 18.4801 16.0851C18.7239 16.5232 18.9374 16.9771 19.1201 17.4468C18.7414 17.3483 18.4481 17.1214 18.2401 16.766C17.7716 15.2815 17.5582 13.7496 17.6001 12.1702C17.1276 11.9245 16.8876 11.5274 16.8801 10.9787C16.2401 10.9787 15.6001 10.9787 14.9601 10.9787C14.9432 11.4227 14.7565 11.7632 14.4001 12C14.3467 11.9433 14.2934 11.8865 14.2401 11.8298C14.0126 12.2605 13.9593 12.7144 14.0801 13.1915C14.5154 13.7953 14.9154 14.4195 15.2801 15.0639C14.8909 14.8511 14.5176 14.5957 14.1601 14.2979C14.0716 13.9783 13.9116 13.7229 13.6801 13.5319C13.6425 10.8482 14.8159 9.94036 17.2001 10.8085Z"
            fill="#D5F2F8" />
        <path fill-rule="evenodd" clip-rule="evenodd"
            d="M19.1199 17.4466C19.1199 17.787 19.1199 18.1275 19.1199 18.4679C19.7358 18.5336 20.2691 18.7606 20.7199 19.1487C20.6961 19.3278 20.7227 19.498 20.7999 19.6594C21.3279 19.931 21.5679 20.385 21.5199 21.0211C21.4166 21.5515 21.2566 22.0621 21.0399 22.553C20.7732 22.6665 20.5067 22.7799 20.2399 22.8934C19.7323 22.6432 19.2523 22.473 18.7999 22.3828C18.6892 22.2934 18.6092 22.1799 18.5599 22.0423C18.5327 20.8968 18.426 19.762 18.2399 18.6381C17.7678 17.4061 17.2078 16.2429 16.5599 15.1487C16.3404 15.0804 16.1271 14.9952 15.9199 14.8934C15.7222 15.0204 15.5088 15.0771 15.2799 15.0636C14.9153 14.4192 14.5153 13.7951 14.0799 13.1913C13.9591 12.7141 14.0125 12.2602 14.2399 11.8296C14.2933 11.8863 14.3466 11.9431 14.3999 11.9998C14.7564 11.7629 14.943 11.4225 14.9599 10.9785C15.5999 10.9785 16.2399 10.9785 16.8799 10.9785C16.8875 11.5271 17.1275 11.9243 17.5999 12.17C17.558 13.7494 17.7715 15.2813 18.2399 16.7657C18.4479 17.1212 18.7412 17.348 19.1199 17.4466Z"
            fill="#F8F9F6" />
        <path fill-rule="evenodd" clip-rule="evenodd"
            d="M25.52 10.6386C25.5747 10.7813 25.6813 10.8381 25.84 10.8089C26.6043 11.6548 26.8443 12.676 26.56 13.8727C26.4467 14.0226 26.3133 14.136 26.16 14.2131C26 14.4401 25.84 14.667 25.68 14.894C25.6267 14.894 25.5733 14.894 25.52 14.894C23.8589 15.3723 22.8456 14.7198 22.48 12.9365C22.5382 12.4393 22.6449 11.957 22.8 11.4897C23.5704 10.7631 24.4771 10.4794 25.52 10.6386Z"
            fill="#CBEFF7" />
        <path fill-rule="evenodd" clip-rule="evenodd"
            d="M26.1601 14.2126C25.6133 14.4839 25.0533 14.7109 24.4801 14.8934C24.2934 14.865 24.1069 14.8367 23.9201 14.8083C23.78 14.5385 23.5667 14.3683 23.2801 14.2977C23.1091 13.8204 22.8958 13.3665 22.6401 12.936C22.8398 12.5258 22.9998 12.1003 23.1201 11.6594C23.6909 11.4996 24.2241 11.2727 24.7201 10.9785C24.9966 10.9939 25.2632 11.0506 25.5201 11.1487C26.0192 11.5891 26.3392 12.1281 26.4801 12.7657C26.4832 13.2888 26.3766 13.7711 26.1601 14.2126Z"
            fill="#F6F9F5" />
        <path fill-rule="evenodd" clip-rule="evenodd"
            d="M0.560078 11.1494C0.500821 11.9872 0.340821 12.7815 0.0800781 13.5324C0.105072 12.6862 0.265072 11.8919 0.560078 11.1494Z"
            fill="#5593C1" />
        <path fill-rule="evenodd" clip-rule="evenodd"
            d="M3.11992 5.87207C3.14499 6.10584 3.11832 6.3328 3.03992 6.55292C2.75157 6.77238 2.56491 7.05605 2.47992 7.40399C1.75947 8.27687 1.27947 9.29815 1.03992 10.4678C0.895527 11.063 0.788859 11.6871 0.719922 12.3402C0.719922 12.3969 0.719922 12.4536 0.719922 12.5104C0.598527 13.2518 0.331859 13.9326 -0.0800781 14.5529C-0.0800781 14.326 -0.0800781 14.099 -0.0800781 13.8721C0.0540412 13.8139 0.107375 13.7004 0.0799219 13.5316C0.340664 12.7808 0.500664 11.9865 0.559922 11.1487C0.881066 10.1256 1.20107 9.10433 1.51992 8.08484C1.93701 7.25517 2.47034 6.51759 3.11992 5.87207Z"
            fill="#2E7DBF" />
        <path fill-rule="evenodd" clip-rule="evenodd"
            d="M8.56006 10.9785C8.91932 11.0799 9.23932 11.2501 9.52006 11.4892C9.65886 12.5543 9.76553 13.6324 9.84006 14.7232C9.84903 15.0874 9.95569 15.3711 10.1601 15.5743C10.1601 15.9147 10.1601 16.2551 10.1601 16.5955C10.0534 16.4821 9.94673 16.3686 9.84006 16.2551C9.78673 15.9147 9.73339 15.5743 9.68006 15.2338C9.64972 14.405 9.54305 13.6106 9.36006 12.8509C9.30918 12.1187 9.04251 11.4946 8.56006 10.9785Z"
            fill="#317AB9" />
        <path fill-rule="evenodd" clip-rule="evenodd"
            d="M17.2002 10.8086C17.4429 10.8104 17.6296 10.9239 17.7602 11.149C17.8687 11.6201 18.1087 11.9889 18.4802 12.2554C18.5023 12.8312 18.4488 13.4269 18.3202 14.0426C18.356 14.6688 18.4095 15.2929 18.4802 15.915C18.2519 15.6344 18.1186 15.294 18.0802 14.8937C18.0269 13.9859 17.9735 13.0781 17.9202 12.1703C17.713 11.6951 17.473 11.2412 17.2002 10.8086Z"
            fill="#2679C0" />
        <path fill-rule="evenodd" clip-rule="evenodd"
            d="M31.1201 10.8086C31.1734 10.8086 31.2268 10.8086 31.2801 10.8086C31.3334 11.0355 31.3868 11.2625 31.4401 11.4894C31.5547 12.3147 31.7147 13.1091 31.9201 13.8724C31.9201 14.0994 31.9201 14.3263 31.9201 14.5533C31.5699 14.2598 31.3832 13.8626 31.3601 13.3618C31.2142 12.5169 31.1342 11.6659 31.1201 10.8086Z"
            fill="#2E81C4" />
        <path fill-rule="evenodd" clip-rule="evenodd"
            d="M8.55978 10.9784C9.04223 11.4945 9.3089 12.1186 9.35978 12.8508C9.29943 13.6937 9.4061 14.4881 9.67978 15.2337C9.73311 15.5742 9.78645 15.9146 9.83978 16.255C9.53983 15.6528 9.27316 15.0003 9.03978 14.2976C9.12914 14.1742 9.18247 14.0324 9.19978 13.872C9.24117 11.4449 8.17452 10.5088 5.99978 11.0635C5.1249 12.1912 5.15157 13.2976 6.07978 14.3827C6.44802 14.6154 6.84802 14.7289 7.27978 14.7231C7.269 14.9714 7.32233 15.1983 7.43978 15.4039C5.1474 14.5561 4.61407 13.0242 5.83978 10.8082C6.29487 10.7132 6.7482 10.5998 7.19978 10.4678C7.69034 10.5564 8.14367 10.7266 8.55978 10.9784Z"
            fill="#D3F4F8" />
        <path fill-rule="evenodd" clip-rule="evenodd"
            d="M9.36011 12.8506C9.5431 13.6104 9.64977 14.4047 9.68011 15.2336C9.40643 14.4879 9.29975 13.6936 9.36011 12.8506Z"
            fill="#91C5E1" />
        <path fill-rule="evenodd" clip-rule="evenodd"
            d="M19.1198 16.7663C18.9969 16.6365 18.9169 16.4663 18.8798 16.2556C18.7725 16.1276 18.6392 16.0708 18.4798 16.0854C18.4798 16.0287 18.4798 15.9719 18.4798 15.9152C18.4091 15.2932 18.3557 14.669 18.3198 14.0429C18.4235 14.383 18.5568 14.7234 18.7198 15.0641C18.7797 14.9082 18.8597 14.7663 18.9598 14.6386C18.8121 14.2912 18.7589 13.9224 18.7998 13.5322C19.0131 13.5322 19.2265 13.5322 19.4398 13.5322C19.5029 14.6391 19.3963 15.7171 19.1198 16.7663Z"
            fill="#047AD7" />
        <path fill-rule="evenodd" clip-rule="evenodd"
            d="M22.8001 11.4893C22.645 11.9566 22.5383 12.4388 22.4801 12.9361C22.8457 14.7194 23.859 15.3719 25.5201 14.8935C25.5338 15.063 25.4804 15.2049 25.3601 15.319C24.0252 15.5731 23.0118 15.0908 22.3201 13.8722C22.3201 13.702 22.3201 13.5318 22.3201 13.3616C22.2689 12.7831 22.3222 12.2158 22.4801 11.6595C22.5894 11.5977 22.6961 11.541 22.8001 11.4893Z"
            fill="#2576B8" />
        <path fill-rule="evenodd" clip-rule="evenodd"
            d="M25.8402 10.8086C26.0535 10.8086 26.2669 10.8086 26.4802 10.8086C26.4799 11.2053 26.6131 11.5458 26.8802 11.8299C26.9869 12.5675 26.9869 13.3051 26.8802 14.0426C26.6592 14.5875 26.2592 14.8712 25.6802 14.8937C25.8402 14.6668 26.0002 14.4398 26.1602 14.2128C26.3135 14.1358 26.4469 14.0223 26.5602 13.8724C26.8445 12.6758 26.6045 11.6545 25.8402 10.8086Z"
            fill="#3782C5" />
        <path fill-rule="evenodd" clip-rule="evenodd"
            d="M15.2801 9.95751C15.1067 9.9508 14.9467 9.89405 14.8001 9.7873C14.3003 10.4036 13.9003 11.0844 13.6001 11.8298C13.4709 12.4301 13.4975 12.9975 13.6801 13.532C14.0314 14.5868 14.6714 15.3811 15.6001 15.915C15.4267 15.9217 15.2667 15.9784 15.1201 16.0852C14.5378 15.1218 14.1644 15.1786 14.0001 16.2554C13.4143 16.1163 12.9876 15.7475 12.7201 15.149C12.7864 14.6204 12.9464 14.592 13.2001 15.0639C13.9548 14.7634 13.9548 14.3663 13.2001 13.8724C12.9836 14.0742 12.7969 14.3011 12.6401 14.5533C12.6137 13.5051 12.587 12.4554 12.5601 11.4043C12.684 10.995 12.764 10.5694 12.8001 10.1277C12.8417 9.7673 13.0017 9.4836 13.2801 9.27666C13.3601 9.36176 13.4401 9.44687 13.5201 9.53198C13.2391 10.4231 13.0258 11.3309 12.8801 12.2554C12.8194 12.6837 12.8994 13.1092 13.1201 13.532C13.4042 13.0119 13.4309 12.4729 13.2001 11.915C13.5905 11.4024 13.7772 10.8066 13.7601 10.1277C14.1904 9.83875 14.5638 9.49833 14.8801 9.10645C14.9601 9.13482 15.0401 9.16318 15.1201 9.19155C14.9876 9.34725 14.8276 9.46073 14.6401 9.53198C14.9312 9.56609 15.1445 9.70793 15.2801 9.95751Z"
            fill="#037ADC" />
        <path fill-rule="evenodd" clip-rule="evenodd"
            d="M13.6802 13.5322C13.9117 13.7232 14.0717 13.9786 14.1602 14.2982C14.5177 14.596 14.891 14.8513 15.2802 15.0641C15.9612 15.4706 16.5746 15.9812 17.1202 16.5961C17.5597 17.4452 17.7997 18.353 17.8402 19.3195C17.8402 20.1138 17.8402 20.9081 17.8402 21.7024C17.7335 20.8206 17.6269 19.9127 17.5202 18.979C17.3533 18.3729 17.14 17.8056 16.8802 17.2769C16.6418 16.974 16.3218 16.8605 15.9202 16.9365C15.9961 16.497 15.8894 16.1565 15.6002 15.9152C14.6715 15.3813 14.0315 14.587 13.6802 13.5322Z"
            fill="#2677BC" />
        <path fill-rule="evenodd" clip-rule="evenodd"
            d="M30.48 9.61719C30.6338 10.052 30.847 10.4492 31.12 10.8087C31.1341 11.6659 31.2141 12.517 31.36 13.3619C31.383 13.8627 31.5698 14.2598 31.92 14.5534C31.92 15.4044 31.92 16.2555 31.92 17.1065C31.6885 17.4305 31.4218 17.7142 31.12 17.9576C31.0514 17.7103 31.0246 17.4267 31.04 17.1065C30.8928 17.0334 30.7595 16.9766 30.64 16.9363C30.8442 16.7415 31.0574 16.7415 31.28 16.9363C31.4166 16.7624 31.5766 16.6206 31.76 16.5108C31.228 16.038 30.8547 15.5558 30.64 15.064C30.7422 14.6129 30.7422 14.1306 30.64 13.6172C30.7917 13.535 30.9517 13.5066 31.12 13.5321C31.0138 12.6864 30.9338 11.8354 30.88 10.9789C30.72 10.7519 30.56 10.7519 30.4 10.9789C30.252 10.8859 30.1187 10.7724 30 10.6385C30.3294 10.3915 30.4894 10.051 30.48 9.61719Z"
            fill="#067ADB" />
        <path fill-rule="evenodd" clip-rule="evenodd"
            d="M0.719922 12.5107C0.75309 12.8688 0.779757 13.266 0.799922 13.7022C0.853255 13.6455 0.906589 13.5888 0.959922 13.532C1.01325 13.759 1.06659 13.9859 1.11992 14.2129C1.17325 14.0994 1.22659 13.9859 1.27992 13.8724C1.3469 14.072 1.45357 14.2422 1.59992 14.3831C1.87184 14.2289 2.16517 14.1721 2.47992 14.2129C2.47992 14.61 2.47992 15.0072 2.47992 15.4044C2.1224 15.384 1.77575 15.4407 1.43992 15.5746C1.06399 15.8632 0.983986 16.2604 1.19992 16.7661C0.845357 17.4575 0.632023 18.195 0.559922 18.9788C0.586176 18.5215 0.559509 18.0675 0.479922 17.6171C0.231903 17.4314 0.045236 17.2045 -0.0800781 16.9363C-0.0800781 16.1419 -0.0800781 15.3476 -0.0800781 14.5533C0.331859 13.933 0.598527 13.2521 0.719922 12.5107Z"
            fill="#027ADB" />
        <path fill-rule="evenodd" clip-rule="evenodd"
            d="M6.95988 15.915C7.74219 15.9907 8.16886 16.4446 8.23988 17.2767C7.77203 16.5561 7.5587 16.6696 7.59988 17.6171C6.74655 17.6171 5.89321 17.6171 5.03988 17.6171C5.06156 17.0978 5.00823 16.5871 4.87988 16.0852C4.88715 15.6274 5.10047 15.4005 5.51988 15.4043C5.57321 15.7448 5.62655 16.0852 5.67988 16.4256C6.22547 16.4329 6.75879 16.3478 7.27988 16.1703C7.13335 16.1229 7.02668 16.0378 6.95988 15.915Z"
            fill="#017CDF" />
        <path fill-rule="evenodd" clip-rule="evenodd"
            d="M5.84001 10.8086C4.6143 13.0246 5.14763 14.5565 7.44001 15.4043C9.10758 17.1134 9.74758 19.2127 9.36001 21.7022C9.30668 21.7022 9.25334 21.7022 9.20001 21.7022C9.06766 20.7686 8.98766 19.804 8.96001 18.8086C8.85388 18.2069 8.61388 17.6963 8.24001 17.2767C8.16899 16.4446 7.74232 15.9907 6.96001 15.915C6.69662 15.5318 6.34995 15.2481 5.92001 15.0639C5.52928 14.5668 5.18262 14.0562 4.88001 13.532C4.85353 12.8488 4.8802 12.1679 4.96001 11.4894C5.1436 11.0947 5.43692 10.8678 5.84001 10.8086Z"
            fill="#327DBE" />
        <path fill-rule="evenodd" clip-rule="evenodd"
            d="M15.6002 15.915C15.8894 16.1564 15.9961 16.4968 15.9202 16.9363C16.3218 16.8603 16.6418 16.9738 16.8802 17.2767C16.6594 17.2027 16.4994 17.3445 16.4002 17.7023C16.5069 18.0994 16.6135 18.4967 16.7202 18.8938C16.6362 19.0115 16.5295 19.0967 16.4002 19.1491C16.2675 19.9945 16.1875 20.8456 16.1602 21.7023C16.1242 20.5588 16.0175 19.424 15.8402 18.298C15.7266 18.0473 15.54 17.9338 15.2802 17.9576C15.1744 18.4662 15.0677 18.9768 14.9602 19.4895C15.4044 20.0805 15.5377 20.7613 15.3602 21.5321C15.1432 21.6818 14.9032 21.7387 14.6402 21.7023C14.7185 22.7567 14.5052 22.8134 14.0002 21.8725C13.8908 21.9343 13.7842 21.991 13.6802 22.0427C14.1053 21.3547 14.1053 20.6738 13.6802 20.0001C13.99 19.2827 14.0967 18.4885 14.0002 17.6172C14.4268 17.6172 14.8535 17.6172 15.2802 17.6172C15.2802 17.3903 15.2802 17.1632 15.2802 16.9363C15.4402 16.9363 15.6002 16.9363 15.7602 16.9363C15.6414 16.5624 15.588 16.222 15.6002 15.915Z"
            fill="#007CDF" />
        <path fill-rule="evenodd" clip-rule="evenodd"
            d="M22.9599 10.8089C22.8425 11.0145 22.7892 11.2414 22.7999 11.4897C22.6959 11.5415 22.5892 11.5982 22.4799 11.6599C22.322 12.2163 22.2687 12.7836 22.3199 13.3621C22.1897 12.9994 22.1097 12.6022 22.0799 12.1706C22.0201 12.3265 21.9401 12.4684 21.8399 12.5961C22.1156 13.1762 21.9556 13.5734 21.3599 13.7876C21.6065 14.2839 21.873 14.7661 22.1599 15.2344C22.1106 15.372 22.0306 15.4854 21.9199 15.5748C21.6894 15.4455 21.4494 15.3321 21.1999 15.2344C20.9866 14.7805 20.7732 14.3266 20.5599 13.8727C20.3234 14.6179 20.3769 15.3271 20.7199 16.0004C20.3009 16.3893 20.3542 16.7013 20.8799 16.9365C21.2938 16.926 21.7204 16.8693 22.1599 16.7663C22.4359 16.854 22.7026 16.9675 22.9599 17.1068C22.6188 17.2937 22.2722 17.4639 21.9199 17.6174C21.5466 17.6174 21.1732 17.6174 20.7999 17.6174C20.5977 17.2588 20.3044 17.0885 19.9199 17.1068C20.0306 15.7752 20.1372 14.4419 20.2399 13.1068C20.2257 12.4354 20.119 11.7829 19.9199 11.1493C20.0231 10.9542 20.1564 10.784 20.3199 10.6387C20.567 11.3292 20.8335 12.01 21.1199 12.6812C21.3478 12.035 21.4278 11.3541 21.3599 10.6387C21.5732 10.6387 21.7866 10.6387 21.9999 10.6387C21.9985 10.9465 22.0785 11.2302 22.2399 11.4897C22.411 11.1651 22.651 10.9381 22.9599 10.8089Z"
            fill="#017CDC" />
        <path fill-rule="evenodd" clip-rule="evenodd"
            d="M10.1602 15.5742C10.3123 15.8157 10.3657 16.0994 10.3202 16.4253C10.6522 16.3915 10.9722 16.3631 11.2802 16.3402C11.1533 16.5249 11.0466 16.7235 10.9602 16.9359C11.3304 17.5841 11.7571 18.1798 12.2402 18.7232C12.4218 18.8506 12.5818 18.8224 12.7202 18.638C12.5377 18.4806 12.5377 18.3386 12.7202 18.2125C12.3891 18.1574 12.3358 18.0154 12.5602 17.787C12.8635 17.6226 13.1835 17.5659 13.5202 17.6168C13.5934 18.1094 13.4867 18.5349 13.2002 18.8934C13.3205 19.0076 13.3739 19.1494 13.3602 19.3189C13.0975 19.0498 12.7775 18.9364 12.4002 18.9785C11.4969 18.358 10.7502 17.5637 10.1602 16.5955C10.1602 16.2551 10.1602 15.9146 10.1602 15.5742Z"
            fill="#127AD8" />
        <path fill-rule="evenodd" clip-rule="evenodd"
            d="M18.48 16.0852C18.6393 16.0706 18.7726 16.1274 18.88 16.2555C18.9171 16.4661 18.9971 16.6363 19.12 16.7661C19.2334 16.92 19.3934 16.9767 19.6 16.9363C19.5566 17.2563 19.6633 17.4832 19.92 17.6172C19.9733 17.8441 20.0267 18.0711 20.08 18.298C19.76 18.0143 19.44 17.7307 19.12 17.447C18.9373 16.9773 18.7238 16.5234 18.48 16.0852Z"
            fill="#2C78B6" />
        <path fill-rule="evenodd" clip-rule="evenodd"
            d="M19.9199 17.6172C20.3468 18.0032 20.8268 18.3152 21.3599 18.5534C21.8988 18.6458 22.4321 18.6174 22.9599 18.4683C22.9599 18.6385 22.9599 18.8087 22.9599 18.9789C22.7999 18.9789 22.6399 18.9789 22.4799 18.9789C22.5574 19.8056 22.6641 20.6284 22.7999 21.447C22.5321 21.7629 22.3721 22.1317 22.3199 22.5534C22.5138 23.1576 22.7806 23.7249 23.1199 24.2555C22.9842 24.559 22.771 24.6441 22.4799 24.5108C22.3498 24.2871 22.1898 24.0885 21.9999 23.9151C22.1825 23.7576 22.1825 23.6157 21.9999 23.4895C21.793 23.4061 21.5796 23.3777 21.3599 23.4044C22.3026 22.3448 22.5694 21.0967 22.1599 19.6597C21.6457 18.9035 20.9522 18.4497 20.0799 18.298C20.0266 18.0711 19.9732 17.8441 19.9199 17.6172Z"
            fill="#0A78D5" />
        <path fill-rule="evenodd" clip-rule="evenodd"
            d="M-0.0800781 16.9365C0.045236 17.2048 0.231903 17.4317 0.479922 17.6174C0.559509 18.0678 0.586176 18.5217 0.559922 18.9791C0.533983 19.3241 0.560648 19.6645 0.639922 20.0004C0.746589 20.2272 0.853255 20.2272 0.959922 20.0004C0.999437 20.9408 1.13277 21.8485 1.35992 22.7238C1.14279 22.5382 0.982792 22.3112 0.879922 22.0429C0.879922 21.9294 0.879922 21.816 0.879922 21.7025C0.443738 20.4089 0.123737 19.1038 -0.0800781 17.7876C-0.0800781 17.5038 -0.0800781 17.2203 -0.0800781 16.9365Z"
            fill="#2679C1" />
        <path fill-rule="evenodd" clip-rule="evenodd"
            d="M7.43994 15.4043C7.75701 15.4886 8.07701 15.5737 8.39994 15.6596C8.61461 16.2624 8.96129 16.7447 9.43994 17.1064C9.82237 18.0777 9.90237 19.0705 9.67994 20.0851C9.81945 20.9223 9.97945 21.8017 10.1599 22.7234C9.89327 22.383 9.62661 22.0426 9.35994 21.7022C9.74751 19.2126 9.10751 17.1134 7.43994 15.4043Z"
            fill="#E3F7F8" />
        <path fill-rule="evenodd" clip-rule="evenodd"
            d="M9.83984 16.2549C9.94652 16.3684 10.0532 16.4818 10.1598 16.5953C10.7499 17.5635 11.4966 18.3579 12.3998 18.9783C13.4868 19.6956 13.8068 20.7168 13.3598 22.0421C13.3598 22.0988 13.3598 22.1556 13.3598 22.2123C12.4563 23.2653 11.3897 23.4923 10.1598 22.8932C10.1598 22.8365 10.1598 22.7796 10.1598 22.723C11.2859 23.061 12.2459 22.7774 13.0398 21.8719C13.0059 21.3354 13.0059 20.7681 13.0398 20.1698C12.5764 20.2336 12.1497 20.1485 11.7598 19.9145C11.8282 19.5522 11.7482 19.1834 11.5198 18.8081C10.4642 18.2991 9.90416 17.4481 9.83984 16.2549Z"
            fill="#E0F6F8" />
        <path fill-rule="evenodd" clip-rule="evenodd"
            d="M19.1198 17.4467C19.4398 17.7305 19.7598 18.0141 20.0798 18.2978C20.7564 18.7616 21.3697 19.3291 21.9198 19.9999C22.3668 22.4182 21.4335 23.4679 19.1198 23.1489C18.9135 22.8422 18.6468 22.6435 18.3198 22.5531C18.3473 22.3843 18.2939 22.2709 18.1598 22.2127C18.0753 21.2224 17.9686 20.258 17.8398 19.3191C17.7993 18.3526 17.5593 17.4449 17.1198 16.5957C16.5742 15.9808 15.9608 15.4702 15.2798 15.0638C15.5087 15.0772 15.722 15.0205 15.9198 14.8936C16.127 14.9954 16.3403 15.0805 16.5598 15.1489C17.2076 16.2431 17.7676 17.4062 18.2398 18.6382C18.4259 19.7622 18.5326 20.897 18.5598 22.0425C18.6091 22.18 18.6891 22.2936 18.7998 22.3829C19.2521 22.4731 19.7321 22.6433 20.2398 22.8936C20.5065 22.78 20.7731 22.6667 21.0398 22.5531C21.2564 22.0622 21.4164 21.5516 21.5198 21.0212C21.5678 20.3851 21.3278 19.9312 20.7998 19.6595C20.7225 19.4982 20.6959 19.3279 20.7198 19.1489C20.2689 18.7608 19.7356 18.5337 19.1198 18.468C19.1198 18.1276 19.1198 17.7872 19.1198 17.4467Z"
            fill="#E1F7F9" />
        <path fill-rule="evenodd" clip-rule="evenodd"
            d="M31.92 17.1064C31.92 17.3902 31.92 17.6738 31.92 17.9575C31.6836 18.5929 31.5502 19.2738 31.52 20.0001C31.3451 20.4782 31.1584 20.9321 30.96 21.3618C30.9734 20.6375 31.0801 19.9282 31.28 19.2341C31.1484 18.8198 31.095 18.3943 31.12 17.9575C31.4217 17.7141 31.6884 17.4304 31.92 17.1064Z"
            fill="#247AC1" />
        <path fill-rule="evenodd" clip-rule="evenodd"
            d="M20.0798 18.2979C20.9521 18.4495 21.6456 18.9033 22.1598 19.6596C22.5693 21.0965 22.3025 22.3447 21.3598 23.4042C20.5494 23.3564 19.7494 23.4131 18.9598 23.5744C18.5881 23.3525 18.3749 23.0121 18.3198 22.5532C18.6469 22.6436 18.9136 22.8422 19.1198 23.1489C21.4336 23.4679 22.3669 22.4182 21.9198 20C21.3697 19.3292 20.7565 18.7617 20.0798 18.2979Z"
            fill="#307CBA" />
        <path fill-rule="evenodd" clip-rule="evenodd"
            d="M12.3999 18.9783C12.7772 18.9362 13.0972 19.0496 13.3599 19.3187C13.536 19.5068 13.6426 19.7337 13.6799 19.9995C14.1051 20.6732 14.1051 21.3541 13.6799 22.0421C13.5732 22.0421 13.4666 22.0421 13.3599 22.0421C13.8069 20.7168 13.4869 19.6955 12.3999 18.9783Z"
            fill="#307BC3" />
        <path fill-rule="evenodd" clip-rule="evenodd"
            d="M17.8398 19.3193C17.9686 20.2582 18.0754 21.2227 18.1598 22.213C18.0157 22.0785 17.909 21.9083 17.8398 21.7023C17.8398 20.9079 17.8398 20.1137 17.8398 19.3193Z"
            fill="#7EB3D9" />
        <path fill-rule="evenodd" clip-rule="evenodd"
            d="M13.3602 22.2129C13.3602 22.3264 13.3602 22.4398 13.3602 22.5533C13.066 22.7249 12.8527 22.9802 12.7202 23.3193C12.0031 23.5748 11.2831 23.603 10.5602 23.4044C10.3505 23.2971 10.2172 23.1269 10.1602 22.8937C11.39 23.4929 12.4567 23.2658 13.3602 22.2129Z"
            fill="#3F89C6" />
        <path fill-rule="evenodd" clip-rule="evenodd"
            d="M9.19992 21.7026C9.25325 21.7026 9.30659 21.7026 9.35992 21.7026C9.62659 22.043 9.89325 22.3835 10.1599 22.7239C10.1599 22.7806 10.1599 22.8374 10.1599 22.8941C10.217 23.1273 10.3503 23.2975 10.5599 23.4047C11.2828 23.6034 12.0028 23.5751 12.7199 23.3196C12.8524 22.9806 13.0657 22.7252 13.3599 22.5537C13.2595 23.1763 13.4728 23.6018 13.9999 23.8303C13.8965 24.1041 13.7631 24.3595 13.5999 24.5962C13.1978 24.3668 12.9044 24.0264 12.7199 23.5749C12.5599 23.6601 12.3999 23.7452 12.2399 23.8303C11.5727 23.8856 10.9327 23.9138 10.3199 23.9154C10.2882 23.3562 10.0216 23.0725 9.51992 23.0643C9.54618 23.5217 9.51951 23.9756 9.43992 24.426C9.17984 23.9787 8.85984 23.5816 8.47992 23.2345C8.29325 22.7523 8.10659 22.2699 7.91992 21.7877C8.04144 20.9149 8.12144 20.0354 8.15992 19.1494C8.18728 20.0061 8.26728 20.8572 8.39992 21.7026C8.82168 22.7554 9.08834 22.7554 9.19992 21.7026Z"
            fill="#0D79D5" />
        <path fill-rule="evenodd" clip-rule="evenodd"
            d="M30.9598 21.3613C30.9571 21.7128 30.9038 22.0532 30.7998 22.3826C30.4011 23.0041 30.0811 23.6849 29.8398 24.4252C29.152 25.6093 28.352 26.6873 27.4398 27.6592C27.4043 27.3006 27.2443 27.0168 26.9598 26.8081C27.2214 26.6071 27.4881 26.6071 27.7598 26.8081C27.9128 26.3079 28.1795 25.9108 28.5598 25.6166C28.5233 25.2938 28.3633 25.0669 28.0798 24.9358C27.7761 24.7258 27.5094 24.7824 27.2798 25.106C27.1198 24.9358 26.9598 24.7656 26.7998 24.5954C27.3227 24.4274 27.8561 24.3707 28.3998 24.4252C28.3822 23.9896 28.4888 23.5925 28.7198 23.2337C28.9734 23.6092 29.2134 24.0063 29.4398 24.4252C29.5726 23.6349 29.6793 22.8405 29.7598 22.0422C29.8747 21.8803 30.008 21.8521 30.1598 21.9571C29.9832 22.1496 30.0364 22.2915 30.3198 22.3826C30.3958 21.9307 30.6092 21.5903 30.9598 21.3613Z"
            fill="#1479D3" />
        <path fill-rule="evenodd" clip-rule="evenodd"
            d="M4.07981 27.1491C4.02648 27.1491 3.97314 27.1491 3.91981 27.1491C3.81314 27.1491 3.75981 27.0924 3.75981 26.9789C3.82725 26.4416 3.64058 26.0444 3.19981 25.7874C3.12256 25.6261 3.09589 25.4559 3.11981 25.2768C3.23728 25.52 3.42395 25.6902 3.67981 25.7874C3.75981 25.7307 3.83981 25.6739 3.91981 25.6172C3.43901 24.6535 3.70568 24.2562 4.71981 24.4257C4.7309 24.7284 4.78423 25.0404 4.87981 25.3619C4.63392 25.5508 4.52725 25.8062 4.55981 26.1279C4.77135 26.1568 4.958 26.1001 5.11981 25.9576C4.97904 26.4044 5.08571 26.8016 5.43981 27.1491C5.68384 27.0831 5.9505 27.0831 6.23981 27.1491C6.31939 26.6987 6.34607 26.2448 6.31981 25.7874C6.74648 25.7874 7.17314 25.7874 7.59981 25.7874C7.59981 26.1845 7.59981 26.5818 7.59981 26.9789C7.02911 27.1564 6.46911 27.3835 5.91981 27.6598C5.18451 27.5302 4.73117 27.0763 4.55981 26.2981C4.36202 26.1711 4.14869 26.1144 3.91981 26.1279C3.89186 26.4889 3.94519 26.8293 4.07981 27.1491Z"
            fill="#027BDE" />
        <path fill-rule="evenodd" clip-rule="evenodd"
            d="M1.35986 22.7236C1.9621 23.3327 2.38878 24.0702 2.63986 24.9364C2.77697 25.0938 2.93697 25.2074 3.11986 25.2768C3.09594 25.4559 3.12262 25.6261 3.19986 25.7875C3.64063 26.0445 3.8273 26.4416 3.75986 26.979C3.63636 26.7757 3.47636 26.6055 3.27986 26.4683C2.55658 25.27 1.91658 24.0217 1.35986 22.7236Z"
            fill="#2677B9" />
        <path fill-rule="evenodd" clip-rule="evenodd"
            d="M27.4399 27.6594C26.9023 28.2313 26.3689 28.7988 25.8399 29.3615C25.4007 29.7135 24.9207 29.9971 24.3999 30.2126C24.4836 29.6376 24.6969 29.1269 25.0399 28.6806C25.0753 28.2386 25.1553 28.2386 25.2799 28.6806C25.3442 28.4471 25.4242 28.2202 25.5199 27.9998C26.0517 27.8876 26.265 27.5472 26.1599 26.9785C26.3732 26.9785 26.5866 26.9785 26.7999 26.9785C26.7466 27.4892 26.9599 27.716 27.4399 27.6594Z"
            fill="#187AD3" />
        <path fill-rule="evenodd" clip-rule="evenodd"
            d="M5.2002 28.5107C5.76396 28.7092 6.2973 28.993 6.8002 29.3618C6.95 29.6127 7.16335 29.7829 7.4402 29.8724C7.58191 30.0129 7.63524 30.1831 7.6002 30.3831C6.7704 30.0112 6.02373 29.5005 5.3602 28.8512C5.30687 28.7376 5.25352 28.6243 5.2002 28.5107Z"
            fill="#357FC2" />
        <path fill-rule="evenodd" clip-rule="evenodd"
            d="M10.8001 31.9145C10.5868 31.9145 10.3734 31.9145 10.1601 31.9145C9.27736 31.4682 8.42403 30.9575 7.6001 30.3825C8.17245 30.5134 8.73245 30.6837 9.2801 30.8932C9.25635 30.6677 9.28303 30.469 9.3601 30.2974C9.67573 30.2132 9.99573 30.1848 10.3201 30.2123C10.3201 30.4392 10.3201 30.6663 10.3201 30.8932C10.1086 30.9221 9.92191 30.8654 9.7601 30.723C9.69794 31.2404 9.88461 31.4106 10.3201 31.2336C10.7762 31.3124 10.9362 31.5393 10.8001 31.9145Z"
            fill="#1D7CD2" />
        <path fill-rule="evenodd" clip-rule="evenodd"
            d="M25.0398 28.6809C24.6967 29.1271 24.4834 29.6378 24.3998 30.2128C24.3998 30.3263 24.3465 30.383 24.2398 30.383C23.5676 30.4858 22.9276 30.6843 22.3198 30.9787C22.0201 31.1634 21.7534 31.3903 21.5198 31.6596C21.5562 31.7275 21.6097 31.7557 21.6798 31.7447C21.6798 31.8014 21.6798 31.8582 21.6798 31.9149C21.0398 31.9149 20.3998 31.9149 19.7598 31.9149C19.7598 31.688 19.7598 31.4609 19.7598 31.234C19.9713 31.263 20.158 31.2063 20.3198 31.0638C20.4897 30.5803 20.7031 30.1263 20.9598 29.7021C21.1676 29.7814 21.4076 29.7814 21.6798 29.7021C21.6798 29.4752 21.6798 29.2482 21.6798 29.0213C22.1428 28.9433 22.5428 29.0569 22.8798 29.3617C22.907 28.9847 23.0137 28.6443 23.1998 28.3404C23.5946 29.1971 23.8079 29.0836 23.8398 28C23.8705 28.3535 23.9505 28.694 24.0798 29.0213C24.354 29.21 24.4607 29.0965 24.3998 28.6809C24.613 28.6809 24.8265 28.6809 25.0398 28.6809Z"
            fill="#037ADE" />
        <path fill-rule="evenodd" clip-rule="evenodd"
            d="M24.24 30.3828C23.8619 30.7539 23.4352 31.0376 22.96 31.2339C22.5333 31.4041 22.1067 31.5743 21.68 31.7445C21.6099 31.7556 21.5565 31.7273 21.52 31.6594C21.7536 31.3901 22.0203 31.1632 22.32 30.9786C22.9279 30.6841 23.5679 30.4856 24.24 30.3828Z"
            fill="#277AC0" />
    </g>
    <defs>
        <clipPath id="clip0_5675_5091">
            <rect width="32" height="32" fill="white" />
        </clipPath>
    </defs>
</svg>