<svg width="32" height="32" viewBox="0 0 32 32" fill="none" xmlns="http://www.w3.org/2000/svg">
    <path fill-rule="evenodd" clip-rule="evenodd"
        d="M3.44599 0C11.7784 0 20.1108 0 28.4431 0C30.3252 0.497946 31.4829 1.70549 31.9165 3.62264C31.9796 7.74718 32.0069 11.8729 31.9985 16C32.0069 20.1271 31.9796 24.2528 31.9165 28.3774C31.4583 30.2711 30.3005 31.4787 28.4431 32C20.1108 32 11.7784 32 3.44599 32C1.61106 31.476 0.462398 30.2868 0 28.4322C0 20.1441 0 11.8559 0 3.56775C0.462398 1.71321 1.61106 0.523958 3.44599 0ZM7.76716 10.4837C8.06713 10.4467 8.34062 10.5107 8.58763 10.6758C9.51751 11.6089 10.4474 12.542 11.3772 13.4751C11.7474 13.7079 12.1303 13.7262 12.5259 13.53C13.5338 12.4635 14.5913 11.4573 15.6984 10.5111C16.0002 10.4405 16.2737 10.4954 16.5189 10.6758C17.4958 11.6146 18.4621 12.5661 19.4179 13.53C19.8099 13.7238 20.1928 13.7056 20.5666 13.4751C21.5147 12.5237 22.4628 11.5723 23.4109 10.6209C23.7391 10.438 24.0673 10.438 24.3954 10.6209C25.3694 11.5433 26.3266 12.4855 27.2671 13.4477C27.5224 13.8136 27.5224 14.1795 27.2671 14.5455C24.9774 16.8614 22.6709 19.1576 20.3478 21.434C20.0461 21.5568 19.7543 21.5385 19.4726 21.3791C18.4896 20.4476 17.5233 19.4962 16.5736 18.5249C16.2034 18.2921 15.8205 18.2738 15.4249 18.47C14.4171 19.5365 13.3596 20.5427 12.2524 21.4889C11.9506 21.5595 11.6771 21.5046 11.4319 21.3242C9.16197 19.0463 6.89199 16.7684 4.62201 14.4906C4.43968 14.1612 4.43968 13.8319 4.62201 13.5026C5.63152 12.4436 6.67992 11.4373 7.76716 10.4837Z"
        fill="#1963E7" />
</svg>