<svg width="32" height="32" viewBox="0 0 32 32" fill="none" xmlns="http://www.w3.org/2000/svg">
    <path fill-rule="evenodd" clip-rule="evenodd"
        d="M0 0C10.6667 0 21.3333 0 32 0C32 10.6667 32 21.3333 32 32C21.3333 32 10.6667 32 0 32C0 21.3333 0 10.6667 0 0Z"
        fill="#F9F9F9" />
    <path fill-rule="evenodd" clip-rule="evenodd"
        d="M14.8017 0.955078C18.941 0.955078 23.0802 0.955078 27.2196 0.955078C27.0119 1.81178 27.0119 2.76542 27.2196 3.81599C26.0678 3.98922 25.3514 3.5124 25.0703 2.38553C24.3189 3.67948 23.284 4.07686 21.9658 3.57758C21.8066 3.7365 21.6474 3.89548 21.4882 4.0544C22.2462 4.46561 23.0422 4.7835 23.8763 5.00804C23.7171 5.16696 23.5579 5.32593 23.3987 5.48486C23.9355 5.60368 24.4131 5.84209 24.8315 6.20008C24.7519 6.35901 24.6723 6.51798 24.5927 6.6769C22.5538 6.22378 20.4046 6.46219 18.1449 7.39213C18.7581 7.71818 19.3153 7.63869 19.8166 7.15372C20.1473 7.40419 20.3861 7.72204 20.533 8.10736C18.842 9.08031 17.0907 9.95456 15.2793 10.7299C15.2026 11.7984 15.521 12.8312 16.2345 13.8292C16.2345 13.988 16.2345 14.1472 16.2345 14.306C15.603 14.3871 15.0459 14.2283 14.5628 13.8292C14.1791 9.50067 14.2587 5.2093 14.8017 0.955078Z"
        fill="#17D6F4" />
    <path fill-rule="evenodd" clip-rule="evenodd"
        d="M27.2197 0.955078C27.5145 1.00786 27.7533 1.16679 27.9361 1.4319C28.3294 5.64855 28.2498 9.78099 27.6973 13.8292C27.7766 10.964 27.697 8.10297 27.4585 5.24645C27.1504 5.79288 26.7524 6.2697 26.2644 6.6769C26.7902 7.86318 26.4719 8.81682 25.3092 9.53781C24.9506 9.12012 24.7118 8.6433 24.5928 8.10736C24.013 8.84586 23.2965 9.40216 22.4435 9.77622C22.5224 10.3088 22.6816 10.8653 22.9211 11.4451C22.0026 11.8304 21.0473 12.0688 20.0555 12.1603C20.8515 12.3191 21.6475 12.4784 22.4435 12.6371C20.3827 13.2031 18.3131 13.6003 16.2346 13.8292C15.5211 12.8312 15.2027 11.7984 15.2794 10.7299C17.0908 9.95455 18.8421 9.08031 20.5331 8.10736C20.3862 7.72204 20.1474 7.40419 19.8167 7.15372C19.3154 7.63869 18.7582 7.71818 18.145 7.39213C20.4047 6.46219 22.5539 6.22378 24.5928 6.6769C24.6724 6.51798 24.752 6.35901 24.8316 6.20008C24.4132 5.84209 23.9356 5.60368 23.3988 5.48486C23.5579 5.32593 23.7172 5.16696 23.8764 5.00804C23.0423 4.7835 22.2463 4.46561 21.4883 4.0544C21.6475 3.89548 21.8067 3.7365 21.9659 3.57758C23.2841 4.07686 24.319 3.67948 25.0704 2.38553C25.3515 3.5124 26.0679 3.98922 27.2197 3.81599C27.0119 2.76542 27.0119 1.81178 27.2197 0.955078Z"
        fill="#1FCCF8" />
    <path fill-rule="evenodd" clip-rule="evenodd"
        d="M27.6972 13.8293C27.6972 13.9881 27.6972 14.1474 27.6972 14.3061C23.8763 14.3061 20.0554 14.3061 16.2345 14.3061C16.2345 14.1474 16.2345 13.9881 16.2345 13.8293C18.313 13.6004 20.3826 13.2033 22.4435 12.6373C21.6474 12.4785 20.8514 12.3192 20.0554 12.1605C21.0472 12.0689 22.0025 11.8305 22.9211 11.4452C22.6815 10.8654 22.5223 10.309 22.4435 9.77636C23.2965 9.4023 24.0129 8.84599 24.5927 8.10749C24.7117 8.64344 24.9505 9.12026 25.3091 9.53795C26.4718 8.81695 26.7902 7.86332 26.2643 6.67704C26.7523 6.26984 27.1504 5.79302 27.4584 5.24658C27.6969 8.10311 27.7766 10.9641 27.6972 13.8293Z"
        fill="#0DBDF3" />
    <path fill-rule="evenodd" clip-rule="evenodd"
        d="M4.77182 14.3062C7.63749 14.3062 10.5032 14.3062 13.3688 14.3062C13.7938 15.3943 13.8734 16.5067 13.6076 17.6439C12.6524 18.9156 11.538 20.028 10.2644 20.9816C9.78263 21.7088 9.54383 22.5036 9.54794 23.3657C7.9807 23.3276 6.54786 23.6456 5.24943 24.3193C4.95455 24.2664 4.71574 24.1076 4.53301 23.8425C4.1545 20.6254 4.23412 17.4465 4.77182 14.3062Z"
        fill="#1BD2F6" />
    <path fill-rule="evenodd" clip-rule="evenodd"
        d="M13.3689 14.3062C14.3056 17.447 14.624 20.7847 14.3241 24.3193C11.2993 24.3193 8.27437 24.3193 5.24951 24.3193C6.54795 23.6456 7.98078 23.3276 9.54802 23.3657C9.54391 22.5036 9.78272 21.7088 10.2644 20.9816C11.5381 20.028 12.6525 18.9156 13.6077 17.6439C13.8735 16.5067 13.7938 15.3943 13.3689 14.3062Z"
        fill="#18BFEE" />
    <path fill-rule="evenodd" clip-rule="evenodd"
        d="M21.0107 30.518C21.0107 30.8361 20.8515 30.9949 20.5331 30.9949C18.4949 31.1365 16.5048 30.9777 14.5629 30.518C14.1682 28.5912 14.2477 26.6839 14.8017 24.7962C16.6847 24.2717 18.5952 24.1921 20.5331 24.5578C20.9933 26.4965 21.1525 28.4834 21.0107 30.518Z"
        fill="#24C2EB" />
</svg>