<svg width="32" height="32" viewBox="0 0 32 32" fill="none" xmlns="http://www.w3.org/2000/svg">
    <g clip-path="url(#clip0_5594_1025)">
        <rect width="32" height="32" rx="16" fill="black" />
        <path fill-rule="evenodd" clip-rule="evenodd"
            d="M21.3288 0.894968C21.097 0.893043 20.8725 0.855757 20.6552 0.783097C19.9504 0.616891 19.2393 0.467734 18.5224 0.335615C17.9799 0.234976 17.4187 0.160403 16.8385 0.111873C16.3146 0.111873 15.7908 0.111873 15.2669 0.111873C14.7414 0.130735 14.2175 0.168021 13.6953 0.223744C13.5082 0.223744 13.3212 0.223744 13.134 0.223744C13.3733 0.132704 13.6351 0.0767684 13.9198 0.0559381C15.2669 -0.018646 16.614 -0.018646 17.9611 0.0559381C19.1308 0.202656 20.2534 0.482333 21.3288 0.894968Z"
            fill="#B2B2B2" />
        <path fill-rule="evenodd" clip-rule="evenodd"
            d="M15.2669 0.112305C15.7908 0.112305 16.3146 0.112305 16.8385 0.112305C16.9242 0.19821 17.0364 0.254145 17.1753 0.280111C17.6228 0.335912 18.0718 0.35456 18.5224 0.336046C19.2394 0.468165 19.9504 0.617322 20.6553 0.783528C20.868 0.978329 21.1299 1.0902 21.4411 1.11914C22.07 1.37172 22.7062 1.61411 23.3494 1.8463C23.7507 2.17679 24.1998 2.41917 24.6965 2.57346C25.807 3.45482 26.892 4.38707 27.952 5.37022C28.2106 5.85093 28.5474 6.26116 28.9623 6.6008C29.001 6.90263 29.1506 7.12637 29.4113 7.27202C29.9419 8.32976 30.4658 9.37385 30.9829 10.4044C30.986 10.7865 31.0983 11.1222 31.3197 11.4112C31.3374 11.8969 31.4497 12.3443 31.6564 12.7537C31.7061 13.1625 31.7435 13.5727 31.7687 13.9843C31.8607 14.6887 31.8981 15.3973 31.8809 16.1098C31.7824 16.5389 31.7076 16.9864 31.6564 17.4522C31.6564 17.4895 31.6564 17.5269 31.6564 17.5641C31.4191 17.7078 31.3069 17.9315 31.3197 18.2353C30.7262 19.1372 30.0152 19.9389 29.1868 20.6406C28.9439 20.7549 28.7193 20.8854 28.5132 21.0321C28.1468 21.1243 27.7726 21.1617 27.3907 21.144C26.9906 20.8336 26.7287 20.4235 26.6049 19.9134C26.5954 19.3412 26.4832 18.8191 26.2681 18.3472C26.2385 17.5205 26.276 16.7001 26.3804 15.8861C26.5571 15.7068 26.6319 15.4831 26.6049 15.2148C26.7502 14.7735 26.9 14.326 27.0539 13.8724C27.6831 13.2422 27.6457 12.6269 26.9416 12.0265C26.1657 11.7373 25.5483 11.9424 25.0894 12.6418C24.8285 12.9752 24.6601 13.3481 24.5843 13.7605C24.3733 13.9166 24.2611 14.1403 24.2475 14.4317C24.1356 14.4284 24.0607 14.4843 24.023 14.5995C23.7958 14.9991 23.646 15.4281 23.5739 15.8861C22.9173 17.263 22.2251 18.6427 21.4972 20.0253C21.1704 20.4157 20.871 20.8258 20.5991 21.2558C20.3041 21.559 19.9861 21.8201 19.6449 22.0389C19.0767 22.0642 18.5154 22.0269 17.9611 21.9271C17.8862 21.7779 17.774 21.6661 17.6243 21.5915C17.5558 21.4918 17.5185 21.3799 17.5121 21.2558C17.4941 21.0709 17.4193 20.9218 17.2876 20.8084C17.1466 19.8774 17.1466 18.9452 17.2876 18.0116C17.2876 17.9743 17.2876 17.937 17.2876 17.8997C17.4673 17.5585 17.5795 17.1855 17.6243 16.781C18.0274 16.0772 18.3642 15.3315 18.6346 14.5436C18.8531 14.4838 18.9653 14.3346 18.9714 14.0961C19.1679 13.9665 19.2801 13.78 19.3082 13.5368C19.5046 13.4071 19.6169 13.2206 19.6449 12.9774C19.8102 12.7965 19.8851 12.5728 19.8695 12.3062C19.8599 12.1011 19.785 11.952 19.6449 11.8587C19.6449 11.635 19.5327 11.5231 19.3082 11.5231C19.2 11.31 19.0128 11.1981 18.7469 11.1875C18.1102 11.2802 17.6424 11.6158 17.3437 12.1943C16.8614 13.0622 16.3938 13.9385 15.9405 14.8233C15.2547 16.5324 14.5438 18.2292 13.8076 19.9134C13.4397 20.2677 13.1217 20.6779 12.8534 21.144C12.6192 21.4342 12.3386 21.6579 12.0115 21.8152C11.8401 21.807 11.7278 21.8817 11.6747 22.0389C11.2631 22.0389 10.8515 22.0389 10.4399 22.0389C9.91789 21.7825 9.58112 21.3724 9.42958 20.8084C9.36671 20.551 9.31058 20.29 9.26119 20.0253C9.2182 19.9631 9.16207 19.9258 9.09281 19.9134C9.00435 18.9839 8.96697 18.0516 8.98055 17.1166C8.98055 17.0794 8.98055 17.042 8.98055 17.0048C9.07136 16.8338 9.14624 16.6474 9.20506 16.4454C9.30688 16.2041 9.38164 15.9431 9.42958 15.6623C9.42958 15.5877 9.42958 15.5132 9.42958 15.4386C9.67149 15.2017 9.78375 14.9034 9.76635 14.5436C9.84964 14.2662 9.9619 14.0052 10.1031 13.7605C10.299 13.589 10.4113 13.3653 10.4399 13.0893C10.5003 12.9084 10.5377 12.7219 10.5521 12.5299C10.8328 12.195 11.0573 11.8221 11.2257 11.4112C11.4221 11.2816 11.5344 11.0951 11.5625 10.8519C11.8742 10.5777 12.0987 10.2421 12.236 9.84505C13.0862 8.82937 14.003 7.8599 14.9863 6.93641C15.1525 6.41274 15.0215 6.00252 14.5934 5.70583C14.3409 5.2861 13.9668 5.15554 13.4708 5.31429C13.368 5.34539 13.2932 5.40132 13.2463 5.48209C12.5054 6.01516 11.8506 6.64902 11.2818 7.38389C10.3039 8.60664 9.42452 9.89315 8.64378 11.2434C8.42286 11.7401 8.23572 12.2436 8.08249 12.7537C7.97057 12.7503 7.8957 12.8063 7.85798 12.9215C7.54344 13.6244 7.31892 14.3515 7.18444 15.103C6.97744 15.302 6.90267 15.563 6.95992 15.8861C6.87865 16.175 6.78514 16.4733 6.67928 16.781C6.5869 17.733 6.60553 18.6654 6.73541 19.5778C6.76235 20.0946 6.87461 20.5794 7.07218 21.0321C7.10956 21.2558 7.14706 21.4796 7.18444 21.7033C7.17624 21.8742 7.25112 21.986 7.40895 22.0389C7.54299 22.4711 7.80488 22.8067 8.19475 23.0458C8.61448 23.7041 9.21314 24.133 9.99086 24.3323C11.0832 24.4941 12.1309 24.3635 13.1341 23.9407C13.3055 23.9489 13.4177 23.8743 13.4708 23.717C14.1004 23.1826 14.6804 22.586 15.2108 21.9271C15.2373 22.1082 15.3308 22.2201 15.4914 22.2627C15.466 22.5349 15.5782 22.7212 15.8282 22.822C16.0976 23.4261 16.5467 23.8363 17.1753 24.0526C17.2284 24.2099 17.3407 24.2845 17.5121 24.2764C18.443 24.5653 19.3786 24.5653 20.3185 24.2764C20.4899 24.2845 20.6022 24.2099 20.6553 24.0526C21.8588 23.4126 22.7568 22.4804 23.3494 21.2558C23.5792 21.0265 23.7663 20.7655 23.9107 20.4728C23.9792 20.3731 24.0166 20.2612 24.023 20.1371C24.1349 20.1338 24.2098 20.1897 24.2475 20.3049C24.5621 21.7539 25.3853 22.7794 26.7171 23.3814C26.7641 23.4622 26.8388 23.5181 26.9416 23.5492C27.3891 23.605 27.8381 23.6237 28.2887 23.6051C28.5355 23.5632 28.76 23.4886 28.9623 23.3814C29.4995 23.121 30.0047 22.7853 30.4777 22.3746C30.5526 22.4864 30.5526 22.5983 30.4777 22.7102C29.4773 24.6763 28.1863 26.429 26.6049 27.9681C25.9812 28.3351 25.4199 28.7826 24.921 29.3105C24.5594 29.3548 24.2601 29.504 24.023 29.758C23.7789 29.786 23.5918 29.8979 23.4617 30.0936C22.7786 30.309 22.1424 30.6073 21.5533 30.9886C21.2181 31.0337 20.9188 31.1455 20.6553 31.3242C20.2219 31.3587 19.8104 31.4333 19.4204 31.5479C19.1188 31.5296 18.8194 31.5483 18.5224 31.6039C18.46 31.6467 18.4226 31.7027 18.4101 31.7717C18.0282 31.754 17.654 31.7914 17.2876 31.8836C16.2006 31.8871 15.1155 31.8499 14.0321 31.7717C13.845 31.7717 13.658 31.7717 13.4708 31.7717C13.4584 31.7027 13.421 31.6467 13.3586 31.6039C13.0238 31.5482 12.687 31.5295 12.3483 31.5479C11.9972 31.427 11.6231 31.3525 11.2257 31.3242C10.787 31.1388 10.338 30.9523 9.8786 30.7648C9.75119 30.5732 9.56406 30.4986 9.31732 30.5411C8.75424 30.186 8.15557 29.8877 7.52121 29.6461C7.3911 29.4504 7.20397 29.3385 6.95992 29.3105C6.87439 29.1134 6.72463 29.0015 6.5109 28.9749C6.20736 28.5804 5.83309 28.2634 5.38833 28.024C4.57256 27.2675 3.82414 26.4659 3.14319 25.6188C2.95112 25.2807 2.72661 24.9824 2.46965 24.7238C2.16858 23.9937 1.81306 23.2851 1.40321 22.5983C1.15086 21.7312 0.832721 20.9108 0.449027 20.1371C0.387174 19.7672 0.349792 19.3943 0.336771 19.0184C0.351813 18.818 0.314431 18.6316 0.224514 18.4591C0.243148 17.9356 0.224401 17.4137 0.168385 16.8929C0.137178 16.7904 0.0810494 16.7159 0 16.6692C0 16.1098 0 15.5504 0 14.9911C0.218452 14.4434 0.293327 13.8468 0.224514 13.2012C0.316901 12.845 0.391776 12.4721 0.449027 12.0825C0.62572 11.9032 0.700595 11.6795 0.673541 11.4112C0.646936 11.2668 0.684318 11.1549 0.785798 11.0756C0.96249 10.8964 1.03737 10.6727 1.01031 10.4044C1.07071 10.2235 1.10809 10.037 1.12257 9.84505C1.12257 9.80779 1.12257 9.77043 1.12257 9.73318C1.26042 9.64301 1.37268 9.53114 1.45934 9.39756C1.5542 9.26656 1.62896 9.11733 1.68385 8.95008C1.69025 8.82602 1.72763 8.71415 1.79611 8.61447C1.95394 8.56156 2.02882 8.44968 2.02062 8.27886C2.058 8.12973 2.0955 7.9805 2.13288 7.83138C2.32933 7.70172 2.44159 7.51523 2.46965 7.27202C3.4501 5.93651 4.57267 4.72462 5.83736 3.63623C6.97306 2.73498 8.20788 2.00782 9.54183 1.45475C9.71325 1.46292 9.82551 1.38833 9.8786 1.23101C9.95348 1.23101 10.0282 1.23101 10.1031 1.23101C10.5281 1.15028 10.9024 1.00113 11.2257 0.783528C11.3006 0.783528 11.3753 0.783528 11.4502 0.783528C11.8422 0.789569 12.179 0.677699 12.4605 0.447916C12.5354 0.447916 12.6101 0.447916 12.685 0.447916C13.0238 0.425117 13.3606 0.387831 13.6953 0.336046C14.247 0.351506 14.7709 0.276922 15.2669 0.112305Z"
            fill="#FAFAFA" />
        <path fill-rule="evenodd" clip-rule="evenodd"
            d="M15.2669 0.112305C14.7708 0.276922 14.2469 0.351506 13.6953 0.336046C13.6953 0.298759 13.6953 0.261462 13.6953 0.224175C14.2175 0.168453 14.7414 0.131166 15.2669 0.112305Z"
            fill="#2A2A2A" />
        <path fill-rule="evenodd" clip-rule="evenodd"
            d="M16.8386 0.112305C17.4188 0.160834 17.9801 0.235407 18.5225 0.336046C18.0719 0.35456 17.6228 0.335912 17.1754 0.280111C17.0365 0.254145 16.9243 0.19821 16.8386 0.112305Z"
            fill="#313131" />
        <path fill-rule="evenodd" clip-rule="evenodd"
            d="M13.1341 0.223633C13.3212 0.223633 13.5082 0.223633 13.6954 0.223633C13.6954 0.260919 13.6954 0.298217 13.6954 0.335503C13.3606 0.387288 13.0238 0.424575 12.6851 0.447374C12.8347 0.37279 12.9844 0.298217 13.1341 0.223633Z"
            fill="#666666" />
        <path fill-rule="evenodd" clip-rule="evenodd"
            d="M13.134 0.223633C12.9844 0.298217 12.8346 0.37279 12.685 0.447374C12.6101 0.447374 12.5353 0.447374 12.4605 0.447374C12.0888 0.49022 11.752 0.602091 11.4502 0.782986C11.3753 0.782986 11.3005 0.782986 11.2256 0.782986C10.8933 0.8751 10.5565 0.949673 10.2153 1.00673C11.1301 0.57748 12.1029 0.316452 13.134 0.223633Z"
            fill="#CECECE" />
        <path fill-rule="evenodd" clip-rule="evenodd"
            d="M12.4605 0.447266C12.179 0.677048 11.8422 0.788918 11.4502 0.782877C11.7521 0.601983 12.0888 0.490112 12.4605 0.447266Z"
            fill="#404040" />
        <path fill-rule="evenodd" clip-rule="evenodd"
            d="M11.2256 0.783203C10.9023 1.0008 10.528 1.14996 10.103 1.23069C10.1404 1.1561 10.1779 1.08153 10.2153 1.00694C10.5564 0.94989 10.8932 0.875317 11.2256 0.783203Z"
            fill="#565656" />
        <path fill-rule="evenodd" clip-rule="evenodd"
            d="M20.6553 0.783203C20.8725 0.855863 21.097 0.89315 21.3288 0.895074C21.3662 0.969658 21.4037 1.04423 21.4411 1.11881C21.1299 1.08987 20.868 0.978003 20.6553 0.783203Z"
            fill="#515151" />
        <path fill-rule="evenodd" clip-rule="evenodd"
            d="M10.2153 1.00684C10.178 1.08142 10.1405 1.15599 10.1031 1.23058C10.0282 1.23058 9.95344 1.23058 9.87857 1.23058C9.80369 1.23058 9.72893 1.23058 9.65405 1.23058C9.81458 1.11451 10.0017 1.03994 10.2153 1.00684Z"
            fill="#E6E6E6" />
        <path fill-rule="evenodd" clip-rule="evenodd"
            d="M9.654 1.23047C9.72888 1.23047 9.80364 1.23047 9.87852 1.23047C9.82542 1.38779 9.71316 1.46238 9.54175 1.45421C9.57913 1.37963 9.61662 1.30505 9.654 1.23047Z"
            fill="#717171" />
        <path fill-rule="evenodd" clip-rule="evenodd"
            d="M21.3289 0.894531C22.4411 1.22035 23.4889 1.68649 24.472 2.29291C24.5709 2.37215 24.6457 2.46537 24.6966 2.57259C24.1998 2.4183 23.7508 2.17592 23.3495 1.84543C22.7062 1.61324 22.0701 1.37085 21.4411 1.11827C21.4037 1.04369 21.3662 0.969115 21.3289 0.894531Z"
            fill="#AEAEAE" />
        <path fill-rule="evenodd" clip-rule="evenodd"
            d="M24.6965 2.57324C24.8562 2.59658 25.0058 2.65251 25.1456 2.74105C25.7274 3.16165 26.2887 3.60913 26.8294 4.0835C27.2716 4.46714 27.6457 4.89601 27.952 5.37001C26.8921 4.38685 25.807 3.4546 24.6965 2.57324Z"
            fill="#B6B6B6" />
        <path fill-rule="evenodd" clip-rule="evenodd"
            d="M9.65417 1.23047C9.61678 1.30505 9.57929 1.37963 9.54191 1.45421C8.20796 2.00728 6.97313 2.73443 5.83743 3.63569C4.57275 4.72408 3.45018 5.93597 2.46973 7.27148C4.21094 4.49267 6.60572 2.479 9.65417 1.23047Z"
            fill="#CBCBCB" />
        <path fill-rule="evenodd" clip-rule="evenodd"
            d="M14.5934 5.70493C14.2508 5.51721 13.8767 5.44259 13.4709 5.48119C13.396 5.48119 13.3212 5.48119 13.2463 5.48119C13.2933 5.40041 13.368 5.34448 13.4709 5.31338C13.9668 5.15463 14.341 5.28519 14.5934 5.70493Z"
            fill="#7A7A7A" />
        <path fill-rule="evenodd" clip-rule="evenodd"
            d="M27.9519 5.37012C28.4153 5.68224 28.7521 6.09247 28.9622 6.60069C28.5473 6.26105 28.2105 5.85083 27.9519 5.37012Z"
            fill="#ACACAC" />
        <path fill-rule="evenodd" clip-rule="evenodd"
            d="M28.9622 6.60059C29.2228 6.74624 29.3725 6.96998 29.4112 7.27181C29.1505 7.12615 29.0009 6.90241 28.9622 6.60059Z"
            fill="#BBBBBB" />
        <path fill-rule="evenodd" clip-rule="evenodd"
            d="M13.2463 5.48145C13.3212 5.48145 13.396 5.48145 13.4708 5.48145C11.2097 7.56492 9.41355 9.98871 8.08252 12.753C8.23575 12.2429 8.42288 11.7395 8.6438 11.2428C9.42455 9.8925 10.304 8.60599 11.2818 7.38325C11.8506 6.64837 12.5054 6.01451 13.2463 5.48145Z"
            fill="#B0B0B0" />
        <path fill-rule="evenodd" clip-rule="evenodd"
            d="M2.46958 7.27148C2.44152 7.51469 2.32926 7.70118 2.13281 7.83084C2.16088 7.58763 2.27313 7.40114 2.46958 7.27148Z"
            fill="#CDCDCD" />
        <path fill-rule="evenodd" clip-rule="evenodd"
            d="M29.4114 7.27148C30.1714 8.18949 30.6951 9.23358 30.983 10.4039C30.4659 9.37331 29.942 8.32922 29.4114 7.27148Z"
            fill="#BDBDBD" />
        <path fill-rule="evenodd" clip-rule="evenodd"
            d="M2.13291 7.83105C2.09553 7.98018 2.05804 8.12941 2.02066 8.27854C1.94578 8.31579 1.87102 8.35315 1.79614 8.39041C1.82421 8.1472 1.93646 7.96071 2.13291 7.83105Z"
            fill="#D0D0D0" />
        <path fill-rule="evenodd" clip-rule="evenodd"
            d="M14.5935 5.70508C15.0216 6.00176 15.1526 6.41199 14.9864 6.93565C14.0031 7.85915 13.0863 8.82862 12.2361 9.84429C12.8569 8.79975 13.6613 7.90479 14.6496 7.1594C14.7907 6.9342 14.8843 6.69189 14.9302 6.43224C14.8416 6.17695 14.7293 5.93464 14.5935 5.70508Z"
            fill="#BDBDBD" />
        <path fill-rule="evenodd" clip-rule="evenodd"
            d="M2.02066 8.27832C2.02885 8.44915 1.95398 8.56102 1.79614 8.61393C1.79614 8.53931 1.79614 8.46481 1.79614 8.39019C1.87102 8.35294 1.94578 8.31557 2.02066 8.27832Z"
            fill="#5A5A5A" />
        <path fill-rule="evenodd" clip-rule="evenodd"
            d="M1.796 8.39062C1.796 8.46524 1.796 8.53975 1.796 8.61437C1.72752 8.71404 1.69014 8.82591 1.68374 8.94998C1.60887 8.94998 1.5341 8.94998 1.45923 8.94998C1.52771 8.73362 1.63996 8.54713 1.796 8.39062Z"
            fill="#C9C9C9" />
        <path fill-rule="evenodd" clip-rule="evenodd"
            d="M1.45923 8.94922C1.5341 8.94922 1.60887 8.94922 1.68374 8.94922C1.62885 9.11647 1.55409 9.2657 1.45923 9.3967C1.45923 9.28483 1.45923 9.17296 1.45923 9.06109C1.45923 9.02384 1.45923 8.98647 1.45923 8.94922Z"
            fill="#535353" />
        <path fill-rule="evenodd" clip-rule="evenodd"
            d="M1.45933 9.06152C1.45933 9.17339 1.45933 9.28526 1.45933 9.39714C1.37267 9.53071 1.26041 9.64258 1.12256 9.73275C1.17779 9.47332 1.29005 9.24958 1.45933 9.06152Z"
            fill="#CACACA" />
        <path fill-rule="evenodd" clip-rule="evenodd"
            d="M1.12266 9.84473C1.10818 10.0367 1.0708 10.2232 1.0104 10.4041C0.935527 10.4787 0.860764 10.5532 0.785889 10.6278C0.809126 10.3212 0.921383 10.0602 1.12266 9.84473Z"
            fill="#C9C9C9" />
        <path fill-rule="evenodd" clip-rule="evenodd"
            d="M12.236 9.84473C12.0988 10.2418 11.8742 10.5774 11.5625 10.8516C11.6998 10.4545 11.9243 10.1189 12.236 9.84473Z"
            fill="#CCCCCC" />
        <path fill-rule="evenodd" clip-rule="evenodd"
            d="M30.9829 10.4043C31.2043 10.6934 31.3165 11.029 31.3197 11.4111C31.0983 11.1221 30.9861 10.7864 30.9829 10.4043Z"
            fill="#909090" />
        <path fill-rule="evenodd" clip-rule="evenodd"
            d="M1.0104 10.4043C1.03746 10.6726 0.962581 10.8963 0.785889 11.0755C0.785889 10.9636 0.785889 10.8518 0.785889 10.7399C0.785889 10.7027 0.785889 10.6653 0.785889 10.628C0.860764 10.5534 0.935527 10.4789 1.0104 10.4043Z"
            fill="#4A4A4A" />
        <path fill-rule="evenodd" clip-rule="evenodd"
            d="M11.5624 10.8516C11.5343 11.0948 11.422 11.2813 11.2256 11.4109C11.2537 11.1677 11.3659 10.9812 11.5624 10.8516Z"
            fill="#C2C2C2" />
        <path fill-rule="evenodd" clip-rule="evenodd"
            d="M19.3081 11.5225C19.5326 11.5225 19.6449 11.6343 19.6449 11.8581C19.4952 11.7835 19.383 11.6716 19.3081 11.5225Z"
            fill="#C4C4C4" />
        <path fill-rule="evenodd" clip-rule="evenodd"
            d="M31.3196 11.4111C31.5697 11.8112 31.6819 12.2587 31.6564 12.7536C31.4496 12.3442 31.3373 11.8968 31.3196 11.4111Z"
            fill="#A5A5A5" />
        <path fill-rule="evenodd" clip-rule="evenodd"
            d="M27.0539 13.8722C27.2507 13.5639 27.3442 13.2283 27.3345 12.8653C26.9981 12.0746 26.4556 11.8882 25.7068 12.306C25.3031 12.7783 24.929 13.263 24.5842 13.7603C24.6601 13.3478 24.8285 12.975 25.0894 12.6416C25.5483 11.9422 26.1657 11.7371 26.9416 12.0263C27.6457 12.6267 27.6831 13.242 27.0539 13.8722Z"
            fill="#B1B1B1" />
        <path fill-rule="evenodd" clip-rule="evenodd"
            d="M11.2258 11.4111C11.0574 11.822 10.8329 12.1949 10.5522 12.5298C10.6643 12.0818 10.8888 11.7088 11.2258 11.4111Z"
            fill="#CACACA" />
        <path fill-rule="evenodd" clip-rule="evenodd"
            d="M19.645 11.8584C19.7851 11.9517 19.86 12.1008 19.8695 12.3059C19.8851 12.5725 19.8103 12.7962 19.645 12.9771C19.7715 12.6016 19.7715 12.2286 19.645 11.8584Z"
            fill="#ACACAC" />
        <path fill-rule="evenodd" clip-rule="evenodd"
            d="M10.5521 12.5293C10.5376 12.7213 10.5002 12.9078 10.4398 13.0886C10.365 13.1259 10.2902 13.1633 10.2153 13.2005C10.2706 12.9411 10.3828 12.7174 10.5521 12.5293Z"
            fill="#C1C1C1" />
        <path fill-rule="evenodd" clip-rule="evenodd"
            d="M19.3082 11.5231C18.7961 11.3379 18.3283 11.4124 17.905 11.7469C16.5785 13.8686 15.4934 16.106 14.6495 18.4591C14.3842 18.9627 14.1035 19.4475 13.8076 19.9134C14.5438 18.2292 15.2547 16.5325 15.9405 14.8233C16.3938 13.9385 16.8615 13.0622 17.3437 12.1943C17.6424 11.6159 18.1102 11.2802 18.7469 11.1875C19.0129 11.1981 19.2 11.31 19.3082 11.5231Z"
            fill="#B3B3B3" />
        <path fill-rule="evenodd" clip-rule="evenodd"
            d="M19.6449 12.9766C19.6168 13.2198 19.5046 13.4063 19.3081 13.5359C19.3362 13.2927 19.4484 13.1062 19.6449 12.9766Z"
            fill="#B8B8B8" />
        <path fill-rule="evenodd" clip-rule="evenodd"
            d="M31.6565 12.7529C31.7375 12.7997 31.7937 12.8742 31.8249 12.9767C31.8969 13.4231 31.9531 13.8706 31.9933 14.3191C31.9184 14.2072 31.8436 14.0954 31.7688 13.9835C31.7436 13.5719 31.7061 13.1617 31.6565 12.7529Z"
            fill="#BFBFBF" />
        <path fill-rule="evenodd" clip-rule="evenodd"
            d="M10.4398 13.0889C10.4112 13.3649 10.2989 13.5886 10.103 13.7601C10.1634 13.5792 10.2008 13.3927 10.2153 13.2007C10.2902 13.1635 10.3649 13.1261 10.4398 13.0889Z"
            fill="#3E3E3E" />
        <path fill-rule="evenodd" clip-rule="evenodd"
            d="M19.3082 13.5361C19.2801 13.7793 19.1679 13.9658 18.9714 14.0955C18.9995 13.8523 19.1118 13.6658 19.3082 13.5361Z"
            fill="#B8B8B8" />
        <path fill-rule="evenodd" clip-rule="evenodd"
            d="M24.5843 13.7598C24.5887 14.0494 24.4765 14.2731 24.2476 14.431C24.2611 14.1396 24.3734 13.9158 24.5843 13.7598Z"
            fill="#C9C9C9" />
        <path fill-rule="evenodd" clip-rule="evenodd"
            d="M10.2153 13.2012C10.2008 13.3931 10.1634 13.5796 10.103 13.7605C9.96181 14.0052 9.84956 14.2662 9.76626 14.5436C9.69139 14.6182 9.61662 14.6927 9.54175 14.7674C9.7025 14.2105 9.92701 13.6885 10.2153 13.2012Z"
            fill="#C8C8C8" />
        <path fill-rule="evenodd" clip-rule="evenodd"
            d="M18.9713 14.0957C18.9652 14.3342 18.853 14.4833 18.6345 14.5432C18.6612 14.3302 18.7735 14.1809 18.9713 14.0957Z"
            fill="#B5B5B5" />
        <path fill-rule="evenodd" clip-rule="evenodd"
            d="M8.08258 12.7531C7.74749 13.6245 7.46685 14.5195 7.24065 15.438C7.19766 15.5002 7.14153 15.5374 7.07227 15.5498C7.10965 15.4007 7.14714 15.2515 7.18452 15.1024C7.31901 14.3509 7.54352 13.6238 7.85806 12.9209C7.89578 12.8057 7.97066 12.7497 8.08258 12.7531Z"
            fill="#9F9F9F" />
        <path fill-rule="evenodd" clip-rule="evenodd"
            d="M24.2475 14.4308C24.2265 14.6617 24.1704 14.8854 24.0791 15.102C23.9614 15.4026 23.793 15.6636 23.574 15.8851C23.646 15.4271 23.7958 14.9982 24.023 14.5986C24.0607 14.4834 24.1356 14.4275 24.2475 14.4308Z"
            fill="#AEAEAE" />
        <path fill-rule="evenodd" clip-rule="evenodd"
            d="M9.76646 14.543C9.78386 14.9027 9.6716 15.2011 9.42969 15.4379C9.49008 15.257 9.52746 15.0706 9.54194 14.8786C9.54194 14.8413 9.54194 14.804 9.54194 14.7667C9.61682 14.6921 9.69158 14.6176 9.76646 14.543Z"
            fill="#4D4D4D" />
        <path fill-rule="evenodd" clip-rule="evenodd"
            d="M27.0539 13.8721C26.9 14.3257 26.7503 14.7732 26.6049 15.2145C26.53 15.2891 26.4552 15.3636 26.3804 15.4383C26.4242 14.83 26.6487 14.3079 27.0539 13.8721Z"
            fill="#B2B2B2" />
        <path fill-rule="evenodd" clip-rule="evenodd"
            d="M31.7688 13.9834C31.8437 14.0953 31.9184 14.2071 31.9933 14.319C31.9933 14.9156 31.9933 15.5123 31.9933 16.1089C31.9559 16.1089 31.9184 16.1089 31.8811 16.1089C31.8982 15.3964 31.8608 14.6878 31.7688 13.9834Z"
            fill="#6F6F6F" />
        <path fill-rule="evenodd" clip-rule="evenodd"
            d="M7.18454 15.1025C7.14716 15.2517 7.10966 15.4009 7.07228 15.55C7.07228 15.6619 7.07228 15.7738 7.07228 15.8856C7.0349 15.8856 6.99741 15.8856 6.96003 15.8856C6.90277 15.5626 6.97754 15.3016 7.18454 15.1025Z"
            fill="#5C5C5C" />
        <path fill-rule="evenodd" clip-rule="evenodd"
            d="M9.54185 14.8789C9.52737 15.0709 9.48999 15.2574 9.42959 15.4383C9.42959 15.5129 9.42959 15.5874 9.42959 15.662C9.35472 15.6993 9.27995 15.7366 9.20508 15.7739C9.25032 15.4398 9.36257 15.1416 9.54185 14.8789Z"
            fill="#C8C8C8" />
        <path fill-rule="evenodd" clip-rule="evenodd"
            d="M26.6049 15.2148C26.6319 15.4831 26.5571 15.7069 26.3804 15.8861C26.3804 15.8114 26.3804 15.7369 26.3804 15.6623C26.3804 15.5877 26.3804 15.5132 26.3804 15.4386C26.4552 15.364 26.53 15.2895 26.6049 15.2148Z"
            fill="#555555" />
        <path fill-rule="evenodd" clip-rule="evenodd"
            d="M6.95987 15.8857C6.99725 15.8857 7.03474 15.8857 7.07213 15.8857C6.80653 17.0258 6.69427 18.1818 6.73535 19.3537C6.73535 19.4283 6.73535 19.5029 6.73535 19.5775C6.60547 18.6651 6.58684 17.7327 6.67923 16.7807C6.78508 16.473 6.87859 16.1747 6.95987 15.8857Z"
            fill="#929292" />
        <path fill-rule="evenodd" clip-rule="evenodd"
            d="M18.6346 14.543C18.3642 15.3309 18.0274 16.0766 17.6243 16.7804C17.7889 15.9504 18.1257 15.2046 18.6346 14.543Z"
            fill="#B5B5B5" />
        <path fill-rule="evenodd" clip-rule="evenodd"
            d="M9.42959 15.6621C9.38166 15.9429 9.3069 16.2039 9.20508 16.4452C9.20508 16.3333 9.20508 16.2215 9.20508 16.1096C9.20508 15.9977 9.20508 15.8859 9.20508 15.774C9.27995 15.7367 9.35472 15.6994 9.42959 15.6621Z"
            fill="#5F5F5F" />
        <path fill-rule="evenodd" clip-rule="evenodd"
            d="M9.20493 16.1094C9.20493 16.2212 9.20493 16.3331 9.20493 16.445C9.14611 16.647 9.07123 16.8334 8.98042 17.0043C8.95729 16.6693 9.03205 16.3709 9.20493 16.1094Z"
            fill="#C2C2C2" />
        <path fill-rule="evenodd" clip-rule="evenodd"
            d="M31.881 16.1094C31.9184 16.1094 31.9559 16.1094 31.9933 16.1094C32.0116 16.3731 31.9929 16.634 31.9371 16.8925C31.926 17.1333 31.8324 17.3197 31.6565 17.4518C31.7077 16.986 31.7824 16.5385 31.881 16.1094Z"
            fill="#A0A0A0" />
        <path fill-rule="evenodd" clip-rule="evenodd"
            d="M17.6242 16.7803C17.5794 17.1848 17.4672 17.5578 17.2875 17.899C17.2673 17.4754 17.3795 17.1026 17.6242 16.7803Z"
            fill="#B7B7B7" />
        <path fill-rule="evenodd" clip-rule="evenodd"
            d="M31.6564 17.5635C31.6607 17.8531 31.5485 18.0769 31.3196 18.2347C31.3068 17.9309 31.419 17.7071 31.6564 17.5635Z"
            fill="#AEAEAE" />
        <path fill-rule="evenodd" clip-rule="evenodd"
            d="M26.3805 15.6621C26.3805 15.7367 26.3805 15.8112 26.3805 15.8859C26.2761 16.6999 26.2386 17.5203 26.2682 18.347C26.3056 18.7199 26.3431 19.0928 26.3805 19.4657C26.2994 19.4189 26.2433 19.3444 26.2121 19.242C26.1694 18.6997 26.1133 18.1591 26.0437 17.6198C26.0792 16.9371 26.1914 16.2844 26.3805 15.6621Z"
            fill="#BDBDBD" />
        <path fill-rule="evenodd" clip-rule="evenodd"
            d="M26.2681 18.3467C26.4832 18.8185 26.5954 19.3407 26.6048 19.9129C26.53 19.8383 26.4552 19.7637 26.3803 19.6891C26.3803 19.6145 26.3803 19.54 26.3803 19.4654C26.3429 19.0925 26.3054 18.7195 26.2681 18.3467Z"
            fill="#323232" />
        <path fill-rule="evenodd" clip-rule="evenodd"
            d="M23.574 15.8857C22.995 17.6734 22.1906 19.3515 21.1605 20.9199C20.7325 21.4412 20.2273 21.8515 19.645 22.1505C19.645 22.1132 19.645 22.0759 19.645 22.0386C19.9862 21.8198 20.3042 21.5587 20.5992 21.2555C20.8711 20.8255 21.1705 20.4154 21.4973 20.025C22.2251 18.6423 22.9174 17.2626 23.574 15.8857Z"
            fill="#B4B4B4" />
        <path fill-rule="evenodd" clip-rule="evenodd"
            d="M31.3196 18.2354C31.167 18.7256 30.9237 19.1731 30.5899 19.5778C29.9992 20.3363 29.2695 20.8956 28.4009 21.2559C28.4383 21.1812 28.4758 21.1067 28.5131 21.0321C28.7192 20.8855 28.9438 20.7549 29.1867 20.6406C30.0151 19.9389 30.7261 19.1373 31.3196 18.2354Z"
            fill="#B1B1B1" />
        <path fill-rule="evenodd" clip-rule="evenodd"
            d="M17.2875 18.0107C17.1465 18.9443 17.1465 19.8765 17.2875 20.8075C17.2875 20.9194 17.2875 21.0312 17.2875 21.1431C17.2013 21.0578 17.1452 20.9459 17.1191 20.8075C17.0443 19.9872 17.0443 19.1667 17.1191 18.3464C17.1452 18.208 17.2013 18.0961 17.2875 18.0107Z"
            fill="#B9B9B9" />
        <path fill-rule="evenodd" clip-rule="evenodd"
            d="M8.98047 17.1162C8.96689 18.0512 9.00427 18.9834 9.09273 19.913C9.1657 20.1294 9.20308 20.3532 9.20499 20.5842C9.0448 20.3998 8.95129 20.1761 8.92434 19.913C8.83196 18.961 8.85059 18.0286 8.98047 17.1162Z"
            fill="#AEAEAE" />
        <path fill-rule="evenodd" clip-rule="evenodd"
            d="M6.73535 19.3535C6.91698 19.8856 7.02924 20.4449 7.07212 21.0316C6.87455 20.5788 6.76229 20.0941 6.73535 19.5773C6.73535 19.5026 6.73535 19.4281 6.73535 19.3535Z"
            fill="#BBBBBB" />
        <path fill-rule="evenodd" clip-rule="evenodd"
            d="M26.3804 19.6895C26.4552 19.7641 26.53 19.8386 26.6049 19.9132C26.7287 20.4233 26.9906 20.8334 27.3907 21.1438C27.3907 21.181 27.3907 21.2184 27.3907 21.2556C27.0773 21.261 26.8715 21.1119 26.7733 20.8082C26.5647 20.4645 26.4338 20.0916 26.3804 19.6895Z"
            fill="#BFBFBF" />
        <path fill-rule="evenodd" clip-rule="evenodd"
            d="M24.023 20.1367C24.0167 20.2608 23.9793 20.3727 23.9108 20.4723C23.8359 20.5096 23.7612 20.5469 23.6863 20.5842C23.6923 20.3457 23.8046 20.1966 24.023 20.1367Z"
            fill="#D3D3D3" />
        <path fill-rule="evenodd" clip-rule="evenodd"
            d="M9.09277 19.9131C9.16204 19.9255 9.21816 19.9628 9.26116 20.025C9.31055 20.2896 9.36668 20.5506 9.42954 20.8081C9.35467 20.7708 9.27991 20.7334 9.20503 20.6962C9.20503 20.6589 9.20503 20.6216 9.20503 20.5843C9.20312 20.3533 9.16574 20.1296 9.09277 19.9131Z"
            fill="#505050" />
        <path fill-rule="evenodd" clip-rule="evenodd"
            d="M23.9106 20.4727C23.7663 20.7654 23.5792 21.0264 23.3494 21.2558C23.4027 21.0002 23.5149 20.7765 23.6861 20.5845C23.761 20.5473 23.8358 20.5099 23.9106 20.4727Z"
            fill="#AEAEAE" />
        <path fill-rule="evenodd" clip-rule="evenodd"
            d="M9.20508 20.6963C9.27995 20.7335 9.35472 20.7709 9.42959 20.8082C9.58114 21.3722 9.91791 21.7823 10.4399 22.0387C10.4399 22.076 10.4399 22.1134 10.4399 22.1506C9.74492 21.9054 9.33328 21.4207 9.20508 20.6963Z"
            fill="#BCBCBC" />
        <path fill-rule="evenodd" clip-rule="evenodd"
            d="M13.8076 19.9131C13.386 20.9484 12.6751 21.7129 11.6748 22.2064C11.2417 22.297 10.8301 22.2784 10.4399 22.1505C10.4399 22.1132 10.4399 22.0759 10.4399 22.0386C10.8516 22.0386 11.2631 22.0386 11.6748 22.0386C11.8462 22.0468 11.9584 21.9722 12.0115 21.8149C12.3387 21.6576 12.6193 21.4339 12.8535 21.1437C13.1218 20.6776 13.4398 20.2674 13.8076 19.9131Z"
            fill="#B0B0B0" />
        <path fill-rule="evenodd" clip-rule="evenodd"
            d="M17.2876 20.8076C17.4194 20.9211 17.4942 21.0702 17.5121 21.2551C17.4372 21.2178 17.3625 21.1805 17.2876 21.1432C17.2876 21.0314 17.2876 20.9195 17.2876 20.8076Z"
            fill="#5A5A5A" />
        <path fill-rule="evenodd" clip-rule="evenodd"
            d="M28.5132 21.0312C28.4758 21.1059 28.4383 21.1804 28.4009 21.255C28.3636 21.255 28.3261 21.255 28.2887 21.255C27.9893 21.255 27.69 21.255 27.3906 21.255C27.3906 21.2177 27.3906 21.1804 27.3906 21.1431C27.7725 21.1608 28.1468 21.1234 28.5132 21.0312Z"
            fill="#626262" />
        <path fill-rule="evenodd" clip-rule="evenodd"
            d="M7.07227 21.0312C7.27354 21.2467 7.3858 21.5077 7.40904 21.8143C7.33416 21.7771 7.2594 21.7397 7.18452 21.7025C7.14714 21.4787 7.10965 21.255 7.07227 21.0312Z"
            fill="#C4C4C4" />
        <path fill-rule="evenodd" clip-rule="evenodd"
            d="M27.3906 21.2559C27.69 21.2559 27.9893 21.2559 28.2887 21.2559C27.9893 21.5542 27.69 21.5542 27.3906 21.2559Z"
            fill="#C5C5C5" />
        <path fill-rule="evenodd" clip-rule="evenodd"
            d="M17.2875 21.1436C17.3623 21.1808 17.4371 21.2182 17.512 21.2554C17.5184 21.3795 17.5558 21.4914 17.6242 21.591C17.3535 21.5693 17.2412 21.4202 17.2875 21.1436Z"
            fill="#C6C6C6" />
        <path fill-rule="evenodd" clip-rule="evenodd"
            d="M17.6243 21.5908C17.7739 21.6654 17.8862 21.7773 17.961 21.9264C17.7365 21.9264 17.6243 21.8146 17.6243 21.5908Z"
            fill="#B6B6B6" />
        <path fill-rule="evenodd" clip-rule="evenodd"
            d="M7.18444 21.7031C7.25932 21.7404 7.33408 21.7777 7.40896 21.815C7.40896 21.8896 7.40896 21.9641 7.40896 22.0387C7.25112 21.9858 7.17625 21.874 7.18444 21.7031Z"
            fill="#525252" />
        <path fill-rule="evenodd" clip-rule="evenodd"
            d="M12.0116 21.8151C11.9585 21.9723 11.8462 22.047 11.6748 22.0388C11.7279 21.8815 11.8402 21.8069 12.0116 21.8151Z"
            fill="#5C5C5C" />
        <path fill-rule="evenodd" clip-rule="evenodd"
            d="M17.9612 21.9268C18.5155 22.0265 19.0768 22.0639 19.645 22.0386C19.645 22.0759 19.645 22.1132 19.645 22.1505C19.2172 22.2786 18.7682 22.2973 18.298 22.2064C18.1361 22.1643 18.0238 22.0711 17.9612 21.9268Z"
            fill="#979797" />
        <path fill-rule="evenodd" clip-rule="evenodd"
            d="M15.4913 22.2627C15.6878 22.3924 15.8 22.5788 15.8281 22.822C15.5781 22.7213 15.4658 22.5349 15.4913 22.2627Z"
            fill="#C6C6C6" />
        <path fill-rule="evenodd" clip-rule="evenodd"
            d="M7.40894 21.8145C7.64995 22.2344 7.91185 22.6445 8.19473 23.045C7.80487 22.806 7.54297 22.4704 7.40894 22.0382C7.40894 21.9636 7.40894 21.8891 7.40894 21.8145Z"
            fill="#BEBEBE" />
        <path fill-rule="evenodd" clip-rule="evenodd"
            d="M15.4915 22.2619C15.3308 22.2193 15.2373 22.1074 15.2108 21.9263C14.6804 22.5852 14.1004 23.1819 13.4709 23.7163C13.396 23.7163 13.3212 23.7163 13.2463 23.7163C13.8977 23.1603 14.4963 22.545 15.0424 21.8704C15.3386 21.8135 15.4883 21.944 15.4915 22.2619Z"
            fill="#C5C5C5" />
        <path fill-rule="evenodd" clip-rule="evenodd"
            d="M23.3493 21.2559C22.7567 22.4804 21.8587 23.4126 20.6552 24.0526C20.5803 24.0526 20.5055 24.0526 20.4307 24.0526C20.8167 23.8407 21.1909 23.5984 21.5532 23.3255C22.1787 22.6471 22.7774 21.9572 23.3493 21.2559Z"
            fill="#C4C4C4" />
        <path fill-rule="evenodd" clip-rule="evenodd"
            d="M27.1661 23.3812C27.0165 23.3812 26.8668 23.3812 26.7171 23.3812C25.3853 22.7793 24.5621 21.7537 24.2475 20.3048C24.2097 20.1896 24.1349 20.1336 24.0229 20.137C24.0461 19.9078 24.1396 19.8704 24.3036 20.0251C24.66 21.6776 25.6142 22.7963 27.1661 23.3812Z"
            fill="#C9C9C9" />
        <path fill-rule="evenodd" clip-rule="evenodd"
            d="M0.448975 20.1367C0.832669 20.9104 1.1508 21.7308 1.40316 22.5979C1.81301 23.2846 2.16853 23.9932 2.4696 24.7234C1.46445 23.3527 0.790909 21.8238 0.448975 20.1367Z"
            fill="#ADADAD" />
        <path fill-rule="evenodd" clip-rule="evenodd"
            d="M26.717 23.3809C26.8667 23.3809 27.0164 23.3809 27.1661 23.3809C27.5732 23.4971 27.9849 23.4971 28.4009 23.3809C28.3635 23.4555 28.326 23.53 28.2886 23.6046C27.838 23.6232 27.389 23.6045 26.9416 23.5487C26.8387 23.5176 26.764 23.4616 26.717 23.3809Z"
            fill="#A5A5A5" />
        <path fill-rule="evenodd" clip-rule="evenodd"
            d="M28.4011 23.3809C28.5882 23.3809 28.7752 23.3809 28.9624 23.3809C28.7601 23.488 28.5356 23.5626 28.2888 23.6046C28.3262 23.53 28.3637 23.4555 28.4011 23.3809Z"
            fill="#585858" />
        <path fill-rule="evenodd" clip-rule="evenodd"
            d="M13.2463 23.7168C13.3212 23.7168 13.3959 23.7168 13.4708 23.7168C13.4177 23.8741 13.3054 23.9487 13.134 23.9405C13.1714 23.8659 13.2089 23.7914 13.2463 23.7168Z"
            fill="#535353" />
        <path fill-rule="evenodd" clip-rule="evenodd"
            d="M15.8281 22.8213C17.0946 24.1904 18.6287 24.6006 20.4307 24.0519C20.3933 24.1265 20.3558 24.201 20.3184 24.2756C19.3785 24.5646 18.4429 24.5646 17.512 24.2756C17.4589 24.1183 17.3466 24.0437 17.1752 24.0519C16.5466 23.8355 16.0975 23.4254 15.8281 22.8213Z"
            fill="#BBBBBB" />
        <path fill-rule="evenodd" clip-rule="evenodd"
            d="M8.19482 23.0449C9.71489 24.4068 11.3987 24.6306 13.2464 23.7161C13.209 23.7908 13.1715 23.8653 13.1341 23.9399C12.131 24.3626 11.0833 24.4932 9.99093 24.3314C9.21322 24.1322 8.61455 23.7033 8.19482 23.0449Z"
            fill="#BBBBBB" />
        <path fill-rule="evenodd" clip-rule="evenodd"
            d="M17.1753 24.0524C17.3467 24.0442 17.459 24.1188 17.5121 24.2761C17.3406 24.2843 17.2284 24.2097 17.1753 24.0524Z"
            fill="#5B5B5B" />
        <path fill-rule="evenodd" clip-rule="evenodd"
            d="M20.4309 24.0518C20.5057 24.0518 20.5805 24.0518 20.6554 24.0518C20.6023 24.209 20.49 24.2837 20.3186 24.2755C20.356 24.2009 20.3935 24.1264 20.4309 24.0518Z"
            fill="#5E5E5E" />
        <path fill-rule="evenodd" clip-rule="evenodd"
            d="M26.605 27.9672C28.1865 26.4281 29.4774 24.6754 30.4778 22.7093C30.5527 22.5974 30.5527 22.4856 30.4778 22.3737C30.0048 22.7845 29.4996 23.1201 28.9624 23.3805C28.7752 23.3805 28.5882 23.3805 28.4011 23.3805C29.2466 23.1078 29.995 22.6603 30.6462 22.0381C30.7585 22.0753 30.8334 22.15 30.8707 22.2618C29.9446 24.5601 28.5227 26.4619 26.605 27.9672Z"
            fill="#B3B3B3" />
        <path fill-rule="evenodd" clip-rule="evenodd"
            d="M2.46973 24.7236C2.72668 24.9822 2.9512 25.2805 3.14327 25.6186C2.79999 25.4236 2.57547 25.1252 2.46973 24.7236Z"
            fill="#CBCBCB" />
        <path fill-rule="evenodd" clip-rule="evenodd"
            d="M3.14331 25.6182C3.82426 26.4652 4.57268 27.2669 5.38845 28.0234C5.83321 28.2628 6.20747 28.5797 6.51102 28.9743C5.12655 28.1166 4.00398 26.9979 3.14331 25.6182Z"
            fill="#C4C4C4" />
        <path fill-rule="evenodd" clip-rule="evenodd"
            d="M26.6048 27.9678C26.1814 28.575 25.6201 29.0225 24.9209 29.3102C25.4198 28.7823 25.9811 28.3348 26.6048 27.9678Z"
            fill="#B1B1B1" />
        <path fill-rule="evenodd" clip-rule="evenodd"
            d="M6.51099 28.9746C6.72472 29.0012 6.87447 29.1131 6.96001 29.3102C6.74628 29.2836 6.59653 29.1717 6.51099 28.9746Z"
            fill="#C7C7C7" />
        <path fill-rule="evenodd" clip-rule="evenodd"
            d="M6.95996 29.3105C7.20401 29.3385 7.39114 29.4504 7.52125 29.6462C7.2772 29.6182 7.09007 29.5063 6.95996 29.3105Z"
            fill="#C8C8C8" />
        <path fill-rule="evenodd" clip-rule="evenodd"
            d="M24.921 29.3105C24.6431 29.6172 24.3063 29.8409 23.9106 29.9818C23.948 29.9072 23.9855 29.8326 24.0229 29.758C24.26 29.504 24.5594 29.3548 24.921 29.3105Z"
            fill="#B4B4B4" />
        <path fill-rule="evenodd" clip-rule="evenodd"
            d="M24.023 29.7578C23.9856 29.8324 23.9481 29.9069 23.9107 29.9816C23.8723 30.0753 23.7975 30.1127 23.6862 30.0934C23.6113 30.0934 23.5365 30.0934 23.4617 30.0934C23.5918 29.8977 23.7789 29.7858 24.023 29.7578Z"
            fill="#828282" />
        <path fill-rule="evenodd" clip-rule="evenodd"
            d="M7.52124 29.6455C8.1556 29.887 8.75427 30.1854 9.31735 30.5405C9.31735 30.5777 9.31735 30.6151 9.31735 30.6523C8.64504 30.4296 8.04627 30.094 7.52124 29.6455Z"
            fill="#B4B4B4" />
        <path fill-rule="evenodd" clip-rule="evenodd"
            d="M23.4616 30.0928C23.5365 30.0928 23.6112 30.0928 23.6861 30.0928C23.2034 30.4231 22.6796 30.7028 22.1145 30.9318C21.9311 30.9871 21.7439 31.0056 21.5532 30.9877C22.1423 30.6065 22.7785 30.3081 23.4616 30.0928Z"
            fill="#B7B7B7" />
        <path fill-rule="evenodd" clip-rule="evenodd"
            d="M9.31738 30.6527C9.31738 30.6155 9.31738 30.5781 9.31738 30.5409C9.56412 30.4984 9.75126 30.573 9.87867 30.7646C9.69715 30.7044 9.51002 30.6672 9.31738 30.6527Z"
            fill="#545454" />
        <path fill-rule="evenodd" clip-rule="evenodd"
            d="M9.31738 30.6523C9.51002 30.6668 9.69715 30.704 9.87867 30.7642C10.338 30.9517 10.787 31.1382 11.2257 31.3236C10.5491 31.1903 9.91291 30.9666 9.31738 30.6523Z"
            fill="#C0C0C0" />
        <path fill-rule="evenodd" clip-rule="evenodd"
            d="M21.5533 30.9883C21.3157 31.2294 21.0163 31.3412 20.6553 31.3239C20.9189 31.1452 21.2181 31.0334 21.5533 30.9883Z"
            fill="#C7C7C7" />
        <path fill-rule="evenodd" clip-rule="evenodd"
            d="M11.2256 31.3242C11.623 31.3525 11.9971 31.427 12.3482 31.548C12.3482 31.5852 12.3482 31.6226 12.3482 31.6598C11.9312 31.6498 11.557 31.5379 11.2256 31.3242Z"
            fill="#B1B1B1" />
        <path fill-rule="evenodd" clip-rule="evenodd"
            d="M12.3481 31.6598C12.3481 31.6225 12.3481 31.5852 12.3481 31.5479C12.6869 31.5294 13.0237 31.5481 13.3585 31.6038C13.4209 31.6467 13.4583 31.7026 13.4707 31.7716C13.1758 31.7054 12.8764 31.6682 12.5727 31.6598C12.4978 31.6598 12.423 31.6598 12.3481 31.6598Z"
            fill="#3E3E3E" />
        <path fill-rule="evenodd" clip-rule="evenodd"
            d="M19.4205 31.5478C19.4205 31.5851 19.4205 31.6225 19.4205 31.6597C19.3456 31.6597 19.2708 31.6597 19.196 31.6597C18.9262 31.6539 18.6643 31.6911 18.4102 31.7716C18.4226 31.7026 18.46 31.6466 18.5224 31.6038C18.8194 31.5482 19.1188 31.5295 19.4205 31.5478Z"
            fill="#404040" />
        <path fill-rule="evenodd" clip-rule="evenodd"
            d="M20.6552 31.3242C20.2976 31.5898 19.8859 31.7017 19.4204 31.6598C19.4204 31.6226 19.4204 31.5852 19.4204 31.548C19.8104 31.4333 20.2219 31.3587 20.6552 31.3242Z"
            fill="#B6B6B6" />
        <path fill-rule="evenodd" clip-rule="evenodd"
            d="M12.5728 31.6592C12.8765 31.6676 13.1759 31.7048 13.4708 31.7711C13.6579 31.7711 13.845 31.7711 14.0321 31.7711C14.2192 31.8457 14.4062 31.9202 14.5934 31.9948C13.8811 32.0257 13.2076 31.9138 12.5728 31.6592Z"
            fill="#BCBCBC" />
        <path fill-rule="evenodd" clip-rule="evenodd"
            d="M19.196 31.6598C19.149 31.7405 19.0743 31.7965 18.9715 31.8276C18.416 31.945 17.8547 32.001 17.2876 31.9954C17.2876 31.9581 17.2876 31.9208 17.2876 31.8835C17.654 31.7913 18.0283 31.754 18.4102 31.7716C18.6643 31.6912 18.9262 31.654 19.196 31.6598Z"
            fill="#B8B8B8" />
        <path fill-rule="evenodd" clip-rule="evenodd"
            d="M14.0322 31.7715C15.1156 31.8497 16.2007 31.8869 17.2877 31.8834C17.2877 31.9206 17.2877 31.958 17.2877 31.9952C16.3896 31.9952 15.4916 31.9952 14.5935 31.9952C14.4064 31.9206 14.2194 31.8461 14.0322 31.7715Z"
            fill="#616161" />
    </g>
    <defs>
        <clipPath id="clip0_5594_1025">
            <rect width="32" height="32" rx="16" fill="white" />
        </clipPath>
    </defs>
</svg>