<svg width="32" height="32" viewBox="0 0 32 32" fill="none" xmlns="http://www.w3.org/2000/svg">
    <path fill-rule="evenodd" clip-rule="evenodd"
        d="M0 7.03917C2.34593 11.0304 4.40206 15.1891 6.16836 19.5154C6.56253 20.4898 7.23009 21.2096 8.17107 21.6747C9.25369 21.8785 9.92125 21.4253 10.1738 20.3151C10.6951 18.4596 11.1757 16.5935 11.6157 14.7168C12.1958 12.7003 13.2372 10.9674 14.74 9.51842C16.0365 8.56221 17.4251 8.40226 18.9056 9.03856C20.1217 9.93229 21.1096 11.0253 21.8696 12.3176C22.8748 14.3778 23.8361 16.4571 24.7535 18.5557C25.1142 19.1357 25.6216 19.3223 26.2756 19.1155C29.8241 15.2084 30.919 10.7031 29.5601 5.59961C31.809 8.50756 32.5033 11.7599 31.6429 15.3566C30.8303 18.3976 29.2015 20.8769 26.7563 22.7944C24.6999 23.5417 23.1778 22.9286 22.1901 20.9549C21.3303 18.4323 20.3157 15.9797 19.1459 13.5972C18.4477 12.4082 17.4597 12.0617 16.1819 12.5575C14.8986 13.2526 14.0174 14.2923 13.5383 15.6765C12.9778 17.7273 12.5505 19.8067 12.2566 21.9146C11.8597 23.588 11.0319 25.0009 9.77325 26.1533C7.25923 27.1257 5.47013 26.3526 4.40597 23.8341C3.55182 20.1039 2.69734 16.3717 1.8425 12.6375C1.33914 10.7301 0.724967 8.86397 0 7.03917Z"
        fill="#19BB69" />
</svg>