<svg width="32" height="32" viewBox="0 0 32 32" fill="none" xmlns="http://www.w3.org/2000/svg">
    <path fill-rule="evenodd" clip-rule="evenodd"
        d="M0 0C3.28205 0 6.5641 0 9.84615 0C13.4017 4.9153 16.9573 9.8306 20.5128 14.7459C16.904 14.5772 13.3485 14.8503 9.84615 15.5651C7.16706 10.4849 3.88501 5.84269 0 1.63843C0 1.09229 0 0.546144 0 0Z"
        fill="#0050CE" />
    <path fill-rule="evenodd" clip-rule="evenodd"
        d="M18.8718 0.819277C24.4029 0.729323 26.1807 3.18698 24.2051 8.19222C20.5392 10.3389 17.9409 9.38312 16.4103 5.32497C16.9224 3.61685 17.7429 2.11496 18.8718 0.819277Z"
        fill="#00E0C0" />
    <path fill-rule="evenodd" clip-rule="evenodd"
        d="M20.5128 14.7456C20.5128 15.0186 20.5128 15.2917 20.5128 15.5648C19.107 18.3174 17.7396 21.0481 16.4103 23.757C14.1111 26.1948 11.923 28.789 9.84615 31.5395C6.57545 31.9481 3.2934 32.0847 0 31.9491C0 31.1299 0 30.3107 0 29.4915C3.88501 25.2872 7.16706 20.645 9.84615 15.5648C13.3485 14.8499 16.904 14.5769 20.5128 14.7456Z"
        fill="#05DDC1" />
    <path fill-rule="evenodd" clip-rule="evenodd"
        d="M20.5128 15.5649C24.9254 20.2606 28.7544 25.4489 32 31.1301C28.7517 32.0803 25.4696 32.2167 22.1539 31.5397C20.1316 28.9941 18.2171 26.3999 16.4103 23.7571C17.7396 21.0482 19.107 18.3175 20.5128 15.5649Z"
        fill="#0051CD" />
</svg>