<svg width="32" height="32" viewBox="0 0 32 32" fill="none" xmlns="http://www.w3.org/2000/svg">
    <path
        d="M17.4756 0H8.87283L0 16L8.87283 32L10.6281 28.8482L3.51054 16L10.6281 3.17189H15.7203L17.4756 0Z"
        fill="#446CB3" />
    <path d="M11.4191 10.8607L13.1551 7.72896L10.6283 3.17188L8.87305 6.30362L11.4191 10.8607Z"
        fill="#D24D57" />
    <path d="M21.3721 3.17188L23.1274 6.3237L10.6283 28.8482L8.87305 25.6963L21.3721 3.17188Z"
        fill="#D24D57" />
    <path
        d="M14.5437 32L16.2797 28.8482H21.372L28.4895 16L21.372 3.17189L23.1272 0L32 16L23.1272 32H14.5437Z"
        fill="#446CB3" />
    <path d="M20.5425 21.0791L18.7874 24.2309L21.372 28.8482L23.1273 25.7164L20.5425 21.0791Z"
        fill="#D24D57" />
</svg>