<svg width="32" height="32" viewBox="0 0 32 32" fill="none" xmlns="http://www.w3.org/2000/svg">
    <path fill-rule="evenodd" clip-rule="evenodd"
        d="M29.0019 2.44491C29.0253 2.56461 28.9897 2.66648 28.8951 2.75053C28.6476 2.56553 28.4161 2.36179 28.2007 2.1393C28.171 2.23261 28.1176 2.30046 28.0405 2.34304C28.0736 2.01573 28.0381 1.71012 27.9337 1.4262C27.8731 0.923464 27.7485 0.448081 27.5598 0C28.2902 0.679747 28.7708 1.49476 29.0019 2.44491Z"
        fill="#F0CB0F" />
    <path fill-rule="evenodd" clip-rule="evenodd"
        d="M29.0021 2.44477C29.2245 3.03451 29.26 3.64574 29.1089 4.27846C28.5222 4.07533 28.1305 3.68486 27.9338 3.10694C27.9872 2.95413 28.0407 2.80132 28.0941 2.64852C28.2078 2.84167 28.2968 2.85868 28.3611 2.69945C28.2528 2.53228 28.146 2.4134 28.0407 2.3429C28.1178 2.30032 28.1712 2.23247 28.2009 2.13916C28.4162 2.36165 28.6477 2.56539 28.8952 2.75039C28.9899 2.66634 29.0254 2.56447 29.0021 2.44477Z"
        fill="#EDB418" />
    <path fill-rule="evenodd" clip-rule="evenodd"
        d="M27.9339 1.42627C28.0382 1.71019 28.0738 2.0158 28.0407 2.34311C28.146 2.41361 28.2528 2.53249 28.3611 2.69966C28.2968 2.85889 28.2079 2.84187 28.0941 2.64873C28.0407 2.80153 27.9873 2.95434 27.9339 3.10715C28.1305 3.68506 28.5222 4.07554 29.1089 4.27867C29.1025 4.56809 29.0313 4.83967 28.8952 5.09364C28.4229 4.67729 28.0312 4.20186 27.7202 3.66744C27.8924 2.93091 27.9637 2.18389 27.9339 1.42627Z"
        fill="#E39D1D" />
    <path fill-rule="evenodd" clip-rule="evenodd"
        d="M21.8451 6.41782C21.8816 6.50319 21.9528 6.53721 22.0587 6.51969C22.1772 6.60017 22.3196 6.65111 22.486 6.6725C24.5869 8.54011 26.6876 10.4078 28.7885 12.2754C28.9571 12.3869 29.1351 12.4718 29.3226 12.5301C29.7887 13.1802 30.2159 13.8594 30.6044 14.5675C30.5385 14.5788 30.4851 14.6128 30.4442 14.6694C26.7027 11.3727 22.9639 8.07883 19.228 4.78788C19.1983 4.88119 19.1449 4.94904 19.0677 4.99162C18.8008 3.2594 19.3172 1.76525 20.6167 0.509277C19.9061 2.16428 20.0129 3.79422 20.9371 5.39911C21.2163 5.76482 21.5191 6.10446 21.8451 6.41782Z"
        fill="#E1234F" />
    <path fill-rule="evenodd" clip-rule="evenodd"
        d="M27.7202 3.66748C28.0311 4.2019 28.4229 4.67733 28.8952 5.09368C28.7573 5.6284 28.5081 6.10384 28.1475 6.51988C27.7904 6.35495 27.4699 6.13419 27.1861 5.85772C27.2349 5.81554 27.2706 5.76461 27.2929 5.70491C27.1172 5.58307 26.9392 5.4812 26.7588 5.39929C27.1658 4.86039 27.4862 4.28319 27.7202 3.66748Z"
        fill="#E68228" />
    <path fill-rule="evenodd" clip-rule="evenodd"
        d="M22.0586 6.51971C22.634 6.51004 23.2037 6.56097 23.7677 6.67252C25.1244 7.93247 26.513 9.15492 27.9338 10.3399C28.1083 10.3902 28.2864 10.4071 28.4679 10.3908C28.3719 10.4579 28.2651 10.5257 28.1474 10.5946C28.5673 11.2259 28.959 11.8711 29.3224 12.5301C29.135 12.4719 28.9569 12.3869 28.7883 12.2754C26.6875 10.4078 24.5867 8.54013 22.4859 6.67252C22.3195 6.65113 22.1771 6.60019 22.0586 6.51971Z"
        fill="#E4304A" />
    <path fill-rule="evenodd" clip-rule="evenodd"
        d="M21.845 6.41797C23.1268 6.41797 24.4087 6.41797 25.6905 6.41797C25.502 6.51587 25.2884 6.54989 25.0496 6.51984C24.7626 6.50313 24.4777 6.52015 24.195 6.57078C24.4087 6.6047 24.6223 6.63872 24.836 6.67265C26.1534 7.82716 27.4709 8.98177 28.7884 10.1363C28.7171 10.1702 28.646 10.2042 28.5747 10.2381C28.8574 10.2888 29.1423 10.3058 29.4293 10.2891C29.1316 10.3886 28.8111 10.4225 28.4679 10.391C28.2864 10.4073 28.1083 10.3903 27.9338 10.34C26.5131 9.15505 25.1244 7.93259 23.7678 6.67265C23.2037 6.5611 22.6341 6.51016 22.0586 6.51984C21.9526 6.53736 21.8815 6.50334 21.845 6.41797Z"
        fill="#E44343" />
    <path fill-rule="evenodd" clip-rule="evenodd"
        d="M25.0496 6.51988C25.3617 6.59058 25.6821 6.67544 26.011 6.77456C26.6451 7.36348 27.3217 7.88985 28.0406 8.35357C28.7345 8.93046 29.3755 9.5586 29.9634 10.2382C29.7889 10.2885 29.6108 10.3054 29.4293 10.2891C29.1423 10.3058 28.8574 10.2888 28.5747 10.2382C28.646 10.2043 28.7171 10.1702 28.7884 10.1363C27.471 8.98181 26.1534 7.8272 24.836 6.67269C24.6224 6.63877 24.4087 6.60474 24.1951 6.57082C24.4777 6.52019 24.7626 6.50317 25.0496 6.51988Z"
        fill="#E7513D" />
    <path fill-rule="evenodd" clip-rule="evenodd"
        d="M26.7587 5.39941C26.9391 5.48132 27.1171 5.58319 27.2928 5.70503C27.2705 5.76472 27.2348 5.81566 27.186 5.85784C27.4698 6.13431 27.7903 6.35507 28.1474 6.52C27.9271 6.90497 27.6778 7.27853 27.3996 7.64059C27.6157 7.88029 27.8294 8.11795 28.0406 8.35369C27.3217 7.88997 26.645 7.3636 26.011 6.77468C25.682 6.67556 25.3616 6.5907 25.0496 6.52C25.2883 6.55005 25.5019 6.51603 25.6905 6.41813C26.0851 6.10976 26.4411 5.77023 26.7587 5.39941Z"
        fill="#E66235" />
    <path fill-rule="evenodd" clip-rule="evenodd"
        d="M30.6043 14.5677C31.1045 15.2631 31.2824 16.0442 31.1384 16.9108C31.1363 17.8522 31.0652 17.8522 30.9248 16.9108C27.5476 13.9283 24.165 10.9401 20.7768 7.9461C20.6134 7.7611 20.4354 7.69315 20.2427 7.74236C20.5387 7.51141 20.8236 7.25674 21.0972 6.97832C20.7992 7.00206 20.4966 7.05299 20.1893 7.13113C20.071 7.12247 19.9642 7.08844 19.8688 7.02926C19.4847 6.38818 19.2176 5.709 19.0676 4.99183C19.1448 4.94925 19.1982 4.8814 19.2279 4.78809C22.9638 8.07904 26.7026 11.373 30.4441 14.6696C30.485 14.613 30.5384 14.579 30.6043 14.5677Z"
        fill="#E00D58" />
    <path fill-rule="evenodd" clip-rule="evenodd"
        d="M17.7859 9.88135C18.5277 10.6568 19.3111 11.4038 20.1359 12.1225C20.4188 12.2792 20.7037 12.4151 20.9905 12.53C20.2783 12.53 19.5662 12.53 18.8541 12.53C18.8987 12.4565 18.9699 12.4055 19.0677 12.3772C18.8248 12.3293 18.6112 12.2274 18.4268 12.0716C17.903 11.5884 17.3689 11.13 16.8245 10.6963C17.0808 10.3497 17.4013 10.078 17.7859 9.88135Z"
        fill="#B40093" />
    <path fill-rule="evenodd" clip-rule="evenodd"
        d="M16.8244 10.6963C17.3689 11.13 17.903 11.5884 18.4267 12.0716C18.6111 12.2274 18.8248 12.3293 19.0677 12.3772C18.9698 12.4055 18.8987 12.4564 18.854 12.53C18.3188 12.5469 17.7846 12.5299 17.2517 12.479C16.7347 12.1674 16.2718 11.8109 15.863 11.4094C16.155 11.1304 16.4754 10.8926 16.8244 10.6963Z"
        fill="#AA00A0" />
    <path fill-rule="evenodd" clip-rule="evenodd"
        d="M18.3198 13.9562C17.6077 13.9562 16.8956 13.9562 16.1834 13.9562C16.1209 13.4453 16.0497 12.936 15.9698 12.4281C15.9525 12.2216 15.9703 12.0179 16.0232 11.8169C16.9289 12.4434 17.8013 13.1056 18.6403 13.8034C18.5082 13.827 18.4013 13.878 18.3198 13.9562Z"
        fill="#840090" />
    <path fill-rule="evenodd" clip-rule="evenodd"
        d="M15.8629 11.4097C16.2717 11.8111 16.7346 12.1677 17.2516 12.4793C17.7845 12.5302 18.3186 12.5472 18.8539 12.5303C19.5661 12.5303 20.2782 12.5303 20.9904 12.5303C21.1658 12.6913 21.3794 12.7592 21.6313 12.734C21.6154 12.8412 21.6331 12.943 21.6847 13.0396C22.2945 13.4683 22.8108 13.9776 23.2336 14.5677C23.0302 14.5919 22.8877 14.6938 22.8063 14.8733C22.4915 15.0038 22.2422 15.2075 22.0586 15.4845C21.7228 15.662 21.4024 15.8657 21.0972 16.0958C20.7003 15.9824 20.6292 15.7956 20.8835 15.5355C20.8592 15.4948 20.8235 15.4779 20.7767 15.4845C21.204 15.0091 21.6668 14.5677 22.1654 14.1602C22.2234 14.1541 22.259 14.1202 22.2722 14.0583C20.9567 13.9566 19.6392 13.9226 18.3198 13.9565C18.4013 13.8782 18.5081 13.8273 18.6403 13.8036C17.8013 13.1058 16.9289 12.4437 16.0232 11.8172C15.9703 12.0181 15.9524 12.2219 15.9697 12.4284C15.8769 12.1753 15.8057 11.9036 15.7561 11.6134C15.7607 11.5201 15.7963 11.4521 15.8629 11.4097Z"
        fill="#9D0082" />
    <path fill-rule="evenodd" clip-rule="evenodd"
        d="M20.2426 7.74206C20.4353 7.69286 20.6134 7.76081 20.7767 7.94581C24.165 10.9398 27.5476 13.928 30.9248 16.9105C31.0651 17.8519 31.1363 17.8519 31.1384 16.9105C31.2438 17.4 31.2795 17.9093 31.2452 18.4386C29.1484 16.6938 27.1011 14.894 25.103 13.0394C24.995 13.1246 24.8703 13.1586 24.7291 13.1412C24.7647 12.8356 24.6223 12.6998 24.3018 12.7338C24.2622 12.3882 24.0842 12.1166 23.7677 11.9188C22.5739 10.899 21.3989 9.86323 20.2426 8.81171C20.0012 8.62957 19.752 8.47676 19.4949 8.35329C19.7441 8.14955 19.9934 7.94581 20.2426 7.74206Z"
        fill="#D50067" />
    <path fill-rule="evenodd" clip-rule="evenodd"
        d="M19.495 8.35352C19.7521 8.47698 20.0013 8.62979 20.2427 8.81194C21.3989 9.86345 22.574 10.8992 23.7678 11.919C24.0843 12.1168 24.2623 12.3884 24.3019 12.734C24.6224 12.7001 24.7648 12.8359 24.7292 13.1415C24.8704 13.1588 24.9951 13.1249 25.1031 13.0396C27.1012 14.8943 29.1485 16.694 31.2453 18.4388C31.263 18.8815 31.2452 19.3229 31.1919 19.7631C28.3272 17.2584 25.6032 14.7965 23.0201 12.3774C22.767 12.3228 22.5534 12.2039 22.3791 12.0209C21.2328 11.0123 20.1112 9.99354 19.0143 8.96474C18.9271 9.09952 18.8024 9.16737 18.6404 9.16849C18.8896 8.86287 19.1745 8.59118 19.495 8.35352Z"
        fill="#CD0071" />
    <path fill-rule="evenodd" clip-rule="evenodd"
        d="M31.2453 18.4389C31.3512 19.0989 31.3868 19.7781 31.3522 20.4763C28.3022 18.0098 25.3469 15.4291 22.486 12.7341C22.2186 12.5849 21.9337 12.4661 21.6314 12.3775C21.7027 12.3436 21.7738 12.3096 21.8451 12.2757C20.7947 11.3418 19.7442 10.4081 18.6938 9.4742C18.6422 9.37763 18.6245 9.27576 18.6404 9.16859C18.8025 9.16747 18.9271 9.09962 19.0143 8.96484C20.1112 9.99364 21.2329 11.0124 22.3792 12.021C22.5534 12.204 22.767 12.3229 23.0201 12.3775C25.6032 14.7966 28.3272 17.2585 31.1919 19.7632C31.2452 19.323 31.2631 18.8816 31.2453 18.4389Z"
        fill="#C4007A" />
    <path fill-rule="evenodd" clip-rule="evenodd"
        d="M16.1833 13.9565C16.8955 13.9565 17.6076 13.9565 18.3198 13.9565C19.6391 13.9227 20.9567 13.9566 22.2722 14.0584C22.2589 14.1202 22.2233 14.1541 22.1653 14.1603C20.1713 14.0923 18.1774 14.0245 16.1833 13.9565Z"
        fill="#5C055D" />
    <path fill-rule="evenodd" clip-rule="evenodd"
        d="M18.6402 9.16846C18.6243 9.27563 18.642 9.3775 18.6936 9.47407C19.744 10.4079 20.7945 11.3417 21.8449 12.2755C21.7736 12.3095 21.7025 12.3435 21.6312 12.3774C21.9335 12.4659 22.2184 12.5848 22.4858 12.734C25.3467 15.429 28.302 18.0097 31.352 20.4762C31.4525 20.9417 31.488 21.4172 31.4588 21.9024C31.3767 21.8247 31.3233 21.7228 31.2985 21.5968C31.263 21.6647 31.2273 21.7326 31.1917 21.8005C28.5034 19.4405 25.8151 17.0805 23.1267 14.7204C23.1861 14.6814 23.2217 14.6305 23.2335 14.5676C22.8107 13.9776 22.2945 13.4682 21.6846 13.0396C21.633 12.943 21.6153 12.8411 21.6312 12.734C21.3793 12.7591 21.1657 12.6913 20.9903 12.5302C20.7035 12.4153 20.4186 12.2794 20.1357 12.1227C19.3108 11.404 18.5275 10.657 17.7856 9.88156C18.0067 9.56851 18.2916 9.33084 18.6402 9.16846Z"
        fill="#BC0083" />
    <path fill-rule="evenodd" clip-rule="evenodd"
        d="M14.9016 14.9748C16.4155 14.8398 17.9467 14.8398 19.4949 14.9748C19.4817 15.0367 19.4461 15.0706 19.3881 15.0767C17.9115 14.9753 16.416 14.9413 14.9016 14.9748Z"
        fill="#440B56" />
    <path fill-rule="evenodd" clip-rule="evenodd"
        d="M23.2336 14.5674C23.2218 14.6302 23.1862 14.6812 23.1268 14.7202C25.8152 17.0802 28.5035 19.4402 31.1918 21.8003C31.2274 21.7323 31.2631 21.6645 31.2987 21.5965C31.3234 21.7225 31.3769 21.8244 31.4589 21.9021C31.4589 22.0379 31.4589 22.1738 31.4589 22.3096C31.476 22.4827 31.4582 22.6525 31.4055 22.819C31.3725 22.69 31.3191 22.5711 31.2452 22.4624C28.4707 20.0544 25.6933 17.6434 22.9132 15.2295C22.8238 15.1266 22.7882 15.0077 22.8064 14.873C22.8878 14.6935 23.0303 14.5916 23.2336 14.5674Z"
        fill="#B7008F" />
    <path fill-rule="evenodd" clip-rule="evenodd"
        d="M14.9015 14.9749C16.4159 14.9414 17.9114 14.9753 19.388 15.0768C18.7437 15.9281 18.1027 16.777 17.4652 17.6236C17.0095 17.0699 16.4932 16.5605 15.9163 16.0955C15.7548 16.1726 15.6123 16.2745 15.489 16.4011C15.233 15.9808 14.9303 15.6072 14.5811 15.2805C14.6523 15.1447 14.7591 15.0428 14.9015 14.9749Z"
        fill="#8E00C2" />
    <path fill-rule="evenodd" clip-rule="evenodd"
        d="M22.8064 14.873C22.7882 15.0077 22.8238 15.1266 22.9132 15.2296C25.6933 17.6434 28.4707 20.0544 31.2453 22.4625C31.3191 22.5712 31.3725 22.69 31.4055 22.819C31.4583 22.6526 31.476 22.4827 31.4589 22.3097C31.567 23.1747 31.6382 24.0575 31.6725 24.9583C31.6014 24.7008 31.5302 24.4292 31.4589 24.1433C30.4815 23.3302 29.5201 22.4982 28.5747 21.6475C28.4734 21.5983 28.3666 21.5814 28.2543 21.5966C28.3585 21.4626 28.4653 21.3268 28.5747 21.1891C28.5569 21.1552 28.5391 21.1211 28.5213 21.0872C28.4103 21.2105 28.2857 21.3123 28.1474 21.3928C26.0705 19.4974 23.9696 17.6128 21.845 15.739C21.9391 15.6668 22.0102 15.5819 22.0586 15.4843C22.2422 15.2073 22.4916 15.0035 22.8064 14.873Z"
        fill="#AF0097" />
    <path fill-rule="evenodd" clip-rule="evenodd"
        d="M22.0587 15.4844C22.0103 15.582 21.9392 15.6669 21.845 15.7391C23.9697 17.6129 26.0706 19.4975 28.1475 21.3929C27.9308 21.6331 27.7171 21.8709 27.5066 22.106C25.2329 20.2072 23.0609 18.2717 20.9905 16.2993C21.0261 16.2314 21.0617 16.1636 21.0973 16.0956C21.4025 15.8656 21.723 15.6618 22.0587 15.4844Z"
        fill="#A500A5" />
    <path fill-rule="evenodd" clip-rule="evenodd"
        d="M20.9903 16.2993C23.0607 18.2716 25.2327 20.2072 27.5064 22.106C27.2572 22.4116 26.9723 22.6833 26.6519 22.921C24.3774 21.0238 22.1342 19.0883 19.9221 17.1143C20.235 16.7948 20.591 16.5231 20.9903 16.2993Z"
        fill="#9B00B2" />
    <path fill-rule="evenodd" clip-rule="evenodd"
        d="M14.5811 15.2808C14.9303 15.6075 15.233 15.981 15.4891 16.4013C15.6124 16.2747 15.7549 16.1728 15.9164 16.0957C16.4932 16.5608 17.0096 17.0701 17.4653 17.6238C17.1956 18.0716 16.8751 18.4791 16.5039 18.8463C16.5108 18.8016 16.4931 18.7676 16.4505 18.7444C16.3025 18.8515 16.1957 18.9873 16.13 19.1519C15.633 18.5252 15.0455 17.9819 14.3675 17.5219C14.1513 17.7112 13.9198 17.881 13.6731 18.0313C13.5767 17.9089 13.4521 17.824 13.2992 17.7766C13.4008 17.7035 13.4186 17.6186 13.3527 17.5219C13.147 17.3814 12.9511 17.2285 12.7651 17.0635C12.8974 16.9932 12.8974 16.9423 12.7651 16.9107C13.3456 16.3447 13.951 15.8014 14.5811 15.2808Z"
        fill="#7D05D5" />
    <path fill-rule="evenodd" clip-rule="evenodd"
        d="M19.9222 17.1143C22.1343 19.0882 24.3775 21.0238 26.6519 22.9209C26.3641 23.2292 26.0792 23.5348 25.7974 23.8378C23.5778 21.8745 21.3346 19.9219 19.0676 17.9802C19.148 17.9118 19.1836 17.827 19.1744 17.7255C19.3597 17.4504 19.609 17.2467 19.9222 17.1143Z"
        fill="#9100BE" />
    <path fill-rule="evenodd" clip-rule="evenodd"
        d="M20.7768 15.4843C20.8236 15.4777 20.8593 15.4946 20.8836 15.5352C20.6293 15.7954 20.7004 15.9822 21.0973 16.0955C21.0617 16.1635 21.026 16.2313 20.9904 16.2993C20.5911 16.5231 20.2351 16.7948 19.9222 17.1142C19.609 17.2467 19.3597 17.4504 19.1745 17.7255C18.7196 17.9591 18.328 18.2647 17.9994 18.6423C17.6035 18.8652 17.2474 19.1369 16.9312 19.4573C16.6445 19.6298 16.3596 19.7996 16.0767 19.9666C17.6077 18.4386 19.1745 16.9444 20.7768 15.4843Z"
        fill="#720097" />
    <path fill-rule="evenodd" clip-rule="evenodd"
        d="M19.1745 17.7256C19.1837 17.827 19.1481 17.9119 19.0677 17.9803C21.3347 19.922 23.5779 21.8746 25.7975 23.8379C25.5126 24.1774 25.1921 24.483 24.8361 24.7547C22.4528 22.8214 20.174 20.784 17.9995 18.6424C18.3281 18.2648 18.7197 17.9592 19.1745 17.7256Z"
        fill="#8602CB" />
    <path fill-rule="evenodd" clip-rule="evenodd"
        d="M17.9994 18.6426C20.1738 20.7841 22.4527 22.8215 24.8359 24.7549C24.5915 25.1579 24.2711 25.4974 23.8746 25.7736C21.6455 23.8236 19.4023 21.871 17.1448 19.916C16.9505 19.7718 16.8794 19.619 16.9312 19.4575C17.2474 19.1372 17.6034 18.8655 17.9994 18.6426Z"
        fill="#7E05D7" />
    <path fill-rule="evenodd" clip-rule="evenodd"
        d="M10.7355 18.7441C10.9273 18.8759 11.1054 19.0287 11.2696 19.2026C11.1983 19.2365 11.1272 19.2705 11.056 19.3044C11.2874 19.4912 11.5188 19.678 11.7503 19.8647C11.9681 19.6229 12.2173 19.4191 12.498 19.2535C15.4748 21.9227 18.4836 24.5544 21.5244 27.1485C21.7316 27.2944 21.874 27.4811 21.9517 27.7088C21.3454 28.3243 20.7402 28.9356 20.1358 29.5425C18.8144 28.4858 17.5681 27.3652 16.397 26.1808C16.5146 25.7272 16.6393 25.2858 16.7709 24.8564C16.2686 25.3525 15.7524 25.828 15.222 26.2826C13.4082 24.8038 11.6278 23.2757 9.88092 21.6984C10.1106 21.4284 10.3598 21.1737 10.6287 20.9344C10.0299 20.8974 9.56708 20.6088 9.23999 20.0685C9.67144 19.555 10.17 19.1136 10.7355 18.7441Z"
        fill="#630CF5" />
    <path fill-rule="evenodd" clip-rule="evenodd"
        d="M5.92864 23.0228C6.17069 23.4238 6.49116 23.7633 6.89003 24.0416C6.92912 24.4217 7.10709 24.7273 7.42414 24.9584C8.27871 25.7054 9.13328 26.4525 9.98785 27.1996C10.2881 27.2586 10.5729 27.3265 10.8424 27.4033C10.3601 27.3889 10.0397 27.5927 9.88103 28.0145C9.72913 27.9932 9.58673 27.9423 9.45374 27.8617C8.48957 27.01 7.52818 26.161 6.56956 25.3149C6.70277 25.1627 6.70277 25.0099 6.56956 24.8565C5.85952 24.3661 5.23633 23.7889 4.70019 23.1247C4.65928 23.1813 4.60587 23.2153 4.53996 23.2266C4.46871 23.2266 4.43314 23.1927 4.43314 23.1247C4.45653 23.005 4.42096 22.9031 4.32632 22.8191C3.36161 21.9329 2.40022 21.0501 1.44214 20.1704C1.52973 20.0034 1.61871 19.8335 1.70919 19.6611C1.7986 19.5076 1.92326 19.4566 2.08307 19.5083C3.24208 20.6645 4.38154 21.836 5.50135 23.0228C5.64107 23.1375 5.78357 23.1375 5.92864 23.0228Z"
        fill="#305DEC" />
    <path fill-rule="evenodd" clip-rule="evenodd"
        d="M12.7652 16.9106C12.8974 16.9422 12.8974 16.9932 12.7652 17.0635C12.9512 17.2285 13.1471 17.3813 13.3527 17.5219C13.4186 17.6185 13.4009 17.7034 13.2993 17.7766C13.4522 17.8239 13.5767 17.9089 13.6732 18.0312C13.9198 17.881 14.1513 17.7112 14.3675 17.5219C15.0455 17.9818 15.633 18.5251 16.1301 19.1518C16.1958 18.9872 16.3026 18.8514 16.4505 18.7443C16.4932 18.7676 16.5109 18.8016 16.5039 18.8462C16.104 19.4384 15.6767 20.0157 15.2221 20.578C15.2399 20.6119 15.2577 20.646 15.2755 20.6799C15.5287 20.4212 15.7957 20.1836 16.0767 19.9668C16.3596 19.7997 16.6445 19.6299 16.9312 19.4574C16.8794 19.6189 16.9506 19.7717 17.1449 19.9159C19.4023 21.8709 21.6456 23.8234 23.8746 25.7735C23.2307 26.4214 22.5898 27.0665 21.9518 27.709C21.8741 27.4813 21.7317 27.2946 21.5246 27.1487C18.4837 24.5546 15.4749 21.9229 12.4981 19.2537C12.2174 19.4193 11.9682 19.6231 11.7504 19.8649C11.5189 19.6782 11.2875 19.4914 11.0561 19.3046C11.1273 19.2707 11.1985 19.2367 11.2697 19.2028C11.1055 19.0289 10.9274 18.876 10.7356 18.7443C11.3447 18.0615 12.0213 17.4503 12.7652 16.9106Z"
        fill="#6F05E8" />
    <path fill-rule="evenodd" clip-rule="evenodd"
        d="M9.23996 20.0688C9.56704 20.6092 10.0299 20.8978 10.6286 20.9348C10.3598 21.1741 10.1106 21.4287 9.88088 21.6988C11.6277 23.2761 13.4081 24.8041 15.222 26.283C15.1406 26.4625 14.9981 26.5644 14.7947 26.5886C14.5781 26.6051 14.3645 26.5881 14.1537 26.5377C12.517 25.1465 10.9147 23.7203 9.34678 22.2591C9.4536 22.0893 9.56042 21.9195 9.66724 21.7497C9.63167 21.6988 9.59599 21.6479 9.56042 21.5969C9.23964 21.5373 8.91917 21.4694 8.59903 21.3932C8.47223 21.2894 8.36541 21.1705 8.27856 21.0366C8.56346 21.1046 8.84824 21.1724 9.13314 21.2404C8.8805 21.0581 8.70243 20.8374 8.59903 20.5782C8.81267 20.4084 9.02631 20.2387 9.23996 20.0688Z"
        fill="#5128F8" />
    <path fill-rule="evenodd" clip-rule="evenodd"
        d="M28.2543 21.5967C28.3667 21.5815 28.4735 21.5984 28.5748 21.6476C29.5202 22.4984 30.4815 23.3303 31.459 24.1435C31.5303 24.4293 31.6015 24.7009 31.6726 24.9584C31.6726 25.1961 31.6726 25.4339 31.6726 25.6715C30.3236 24.623 29.0061 23.5363 27.7202 22.4117C27.8983 22.14 28.0763 21.8684 28.2543 21.5967Z"
        fill="#A400A5" />
    <path fill-rule="evenodd" clip-rule="evenodd"
        d="M1.0148 20.7817C1.03713 20.9266 1.09054 21.0624 1.17504 21.1892C2.00066 22.0278 2.87296 22.8088 3.79216 23.5323C3.54465 23.9037 3.25976 24.2433 2.93759 24.551C2.82521 24.5662 2.71839 24.5492 2.61712 24.5C2.1469 23.9963 1.6662 23.5039 1.17504 23.0229C1.13946 23.0909 1.10379 23.1587 1.06821 23.2267C1.02559 23.2034 1.00786 23.1694 1.0148 23.1248C1.1401 22.6474 1.31818 22.189 1.54891 21.7495C1.01074 21.8531 0.494476 22.0399 0 22.3098C0.279872 21.7786 0.618175 21.2692 1.0148 20.7817Z"
        fill="#2174E7" />
    <path fill-rule="evenodd" clip-rule="evenodd"
        d="M1.44218 20.1704C2.40026 21.0501 3.36165 21.9329 4.32635 22.8191C4.421 22.9031 4.45657 23.005 4.43318 23.1247C4.36374 23.0937 4.29249 23.0598 4.21953 23.0228C4.07458 23.1946 3.93218 23.3643 3.79225 23.5322C2.87305 22.8087 2.00075 22.0277 1.17512 21.1891C1.09063 21.0623 1.03722 20.9265 1.01489 20.7816C1.11904 20.5478 1.26144 20.3441 1.44218 20.1704Z"
        fill="#2867E9" />
    <path fill-rule="evenodd" clip-rule="evenodd"
        d="M8.59904 20.5781C8.70244 20.8373 8.88052 21.058 9.13315 21.2403C8.84826 21.1723 8.56347 21.1045 8.27858 21.0365C8.36542 21.1704 8.47224 21.2893 8.59904 21.3931C8.91918 21.4693 9.23965 21.5372 9.56043 21.5968C9.596 21.6478 9.63168 21.6987 9.66725 21.7496C9.56043 21.9195 9.45361 22.0892 9.34679 22.259C10.9147 23.7202 12.517 25.1464 14.1538 26.5376C14.3645 26.588 14.5782 26.605 14.7947 26.5885C14.3156 26.7193 13.8172 26.8212 13.2992 26.8942C11.8068 25.5562 10.2935 24.2318 8.75927 22.9212C8.78491 22.7208 8.87389 22.5341 9.02633 22.3609C8.75874 22.0377 8.45601 21.7491 8.11835 21.495C8.066 21.3632 8.04816 21.2274 8.06493 21.0875C8.20733 20.8837 8.3854 20.7139 8.59904 20.5781Z"
        fill="#4B34F7" />
    <path fill-rule="evenodd" clip-rule="evenodd"
        d="M8.06493 21.0874C8.04816 21.2273 8.066 21.3632 8.11834 21.4949C8.456 21.7491 8.75873 22.0377 9.02632 22.3608C8.87389 22.534 8.7849 22.7207 8.75927 22.9211C10.2935 24.2318 11.8068 25.5561 13.2992 26.8941C13.1106 26.992 12.897 27.026 12.6582 26.9959C12.4672 27.025 12.2892 26.9911 12.1241 26.8941C10.7688 25.7371 9.45126 24.5487 8.17175 23.3286C8.26607 23.2218 8.33732 23.1029 8.38539 22.972C8.0457 22.6141 7.67182 22.2915 7.26377 22.0042C7.15257 22.1887 7.02801 22.2228 6.88989 22.1061C7.28161 21.7666 7.67321 21.4269 8.06493 21.0874Z"
        fill="#453EF5" />
    <path fill-rule="evenodd" clip-rule="evenodd"
        d="M27.7202 22.4116C29.0061 23.5363 30.3235 24.6229 31.6726 25.6715C31.7711 26.8244 31.8422 27.9789 31.8862 29.1351C31.8151 28.8103 31.7438 28.4706 31.6726 28.1164C29.9922 26.7169 28.3543 25.2907 26.7588 23.8378C27.0793 23.3624 27.3997 22.8871 27.7202 22.4116Z"
        fill="#9700B3" />
    <path fill-rule="evenodd" clip-rule="evenodd"
        d="M12.6584 26.9961C12.391 27.0848 12.1061 27.1527 11.8038 27.1998C11.5719 27.1239 11.3226 27.1069 11.0561 27.1489C9.86203 26.095 8.68699 25.0254 7.53097 23.94C7.67337 23.7362 7.67337 23.5325 7.53097 23.3287C7.20538 23.0182 6.88492 22.7126 6.56958 22.4119C6.64083 22.2761 6.74765 22.1742 6.89004 22.1063C7.02816 22.2229 7.15272 22.1889 7.26392 22.0044C7.67198 22.2917 8.04585 22.6143 8.38554 22.9722C8.33747 23.1031 8.26622 23.222 8.1719 23.3287C9.45141 24.5488 10.7689 25.7373 12.1243 26.8942C12.2893 26.9912 12.4674 27.0251 12.6584 26.9961Z"
        fill="#3D4AF5" />
    <path fill-rule="evenodd" clip-rule="evenodd"
        d="M2.93749 24.551C2.26217 25.5656 1.53215 26.5503 0.747654 27.5053C1.06449 26.3094 1.43836 25.121 1.86928 23.9398C1.39756 24.081 0.934698 24.3187 0.480601 24.6529C0.445029 24.619 0.409351 24.5849 0.373779 24.551C0.569262 24.0569 0.782905 23.5816 1.01471 23.1248C1.00776 23.1694 1.0255 23.2035 1.06812 23.2267C1.10369 23.1587 1.13937 23.0909 1.17494 23.0229C1.6661 23.504 2.1468 23.9963 2.61703 24.5001C2.71829 24.5493 2.82512 24.5662 2.93749 24.551Z"
        fill="#1689E2" />
    <path fill-rule="evenodd" clip-rule="evenodd"
        d="M6.56939 22.4116C6.88473 22.7123 7.2052 23.018 7.53079 23.3285C7.67318 23.5322 7.67318 23.7359 7.53079 23.9397C8.68681 25.0251 9.86184 26.0948 11.0559 27.1486C11.3224 27.1067 11.5717 27.1237 11.8036 27.1996C11.4881 27.2781 11.1676 27.3461 10.8422 27.4033C10.5727 27.3265 10.288 27.2587 9.98768 27.1996C9.13311 26.4526 8.27854 25.7054 7.42397 24.9584C7.10692 24.7274 6.92896 24.4217 6.88986 24.0416C6.49099 23.7634 6.17052 23.4238 5.92847 23.0228C6.10654 22.7852 6.32018 22.5814 6.56939 22.4116Z"
        fill="#3657F5" />
    <path fill-rule="evenodd" clip-rule="evenodd"
        d="M26.7589 23.8379C28.3544 25.2908 29.9922 26.717 31.6727 28.1165C31.7439 28.4707 31.8151 28.8103 31.8863 29.1352C31.8863 29.305 31.8863 29.4747 31.8863 29.6446C31.816 29.736 31.7449 29.8379 31.6727 29.9502C30.0536 28.4912 28.4157 27.048 26.7589 25.6206C26.5154 25.3707 26.2306 25.1839 25.9043 25.0603C26.1892 24.6529 26.474 24.2454 26.7589 23.8379Z"
        fill="#8B00C5" />
    <path fill-rule="evenodd" clip-rule="evenodd"
        d="M9.88086 28.0148C9.80096 28.2015 9.69414 28.3713 9.5604 28.5242C9.44471 28.5282 9.33789 28.5622 9.23994 28.6261C8.3154 27.914 7.42515 27.167 6.5694 26.3849C6.41515 25.5892 5.98787 24.9439 5.28754 24.4493C5.21597 24.2669 5.14472 24.0971 5.0739 23.94C4.85438 23.7306 4.67642 23.493 4.53979 23.2269C4.6057 23.2156 4.65911 23.1816 4.70003 23.125C5.23616 23.7892 5.85936 24.3664 6.5694 24.8568C6.70261 25.0102 6.70261 25.163 6.5694 25.3152C7.52802 26.1613 8.48941 27.0103 9.45358 27.862C9.58657 27.9426 9.72896 27.9935 9.88086 28.0148Z"
        fill="#296EF5" />
    <path fill-rule="evenodd" clip-rule="evenodd"
        d="M25.9042 25.0605C26.2305 25.1841 26.5153 25.3709 26.7588 25.6208C28.4156 27.0482 30.0535 28.4914 31.6726 29.9504C31.7448 29.8381 31.8159 29.7362 31.8862 29.6448C31.9808 30.3535 32.0165 31.0666 31.993 31.7841C31.8411 31.7628 31.6987 31.7118 31.5657 31.6313C30.1086 30.3437 28.6488 29.0534 27.1861 27.7601C27.086 27.6896 27.0148 27.7067 26.9724 27.8111C26.5123 27.0705 26.0495 26.3234 25.5837 25.5699C25.7187 25.4141 25.8255 25.2444 25.9042 25.0605Z"
        fill="#8205D0" />
    <path fill-rule="evenodd" clip-rule="evenodd"
        d="M5.07397 23.9399C5.1448 24.097 5.21605 24.2668 5.28762 24.4493C5.98794 24.9439 6.41522 25.5891 6.56947 26.3849C7.42522 27.1669 8.31547 27.9139 9.24001 28.626C9.33796 28.5622 9.44478 28.5281 9.56047 28.5242C9.42673 28.6771 9.31991 28.8469 9.24001 29.0335C9.09334 29.0495 8.95084 29.0325 8.81272 28.9826C7.50672 27.8559 6.26044 26.6844 5.07397 25.468C5.07397 24.9587 5.07397 24.4493 5.07397 23.9399Z"
        fill="#2477F2" />
    <path fill-rule="evenodd" clip-rule="evenodd"
        d="M16.3972 26.1812C17.5682 27.3656 18.8145 28.4862 20.1359 29.5429C19.6701 30.021 19.2071 30.4963 18.7472 30.9691C18.6349 30.9843 18.528 30.9674 18.4268 30.9182C17.5149 30.0654 16.5891 29.2334 15.6494 28.4223C15.8591 27.653 16.1083 26.906 16.3972 26.1812Z"
        fill="#5424F8" />
    <path fill-rule="evenodd" clip-rule="evenodd"
        d="M5.07395 25.4678C6.26042 26.6841 7.5067 27.8556 8.8127 28.9823C8.95082 29.0323 9.09332 29.0493 9.23999 29.0333C8.98938 29.3767 8.74017 29.7162 8.49224 30.052C8.24078 29.9997 8.02714 29.8809 7.85131 29.6954C7.24264 29.0809 6.60171 28.5036 5.92852 27.9636C5.81647 27.9135 5.70965 27.9304 5.60806 28.0146C5.32413 27.7631 5.07491 27.4914 4.86031 27.1996C4.82997 26.5968 4.90122 26.0195 5.07395 25.4678Z"
        fill="#1B87F2" />
    <path fill-rule="evenodd" clip-rule="evenodd"
        d="M31.993 31.7838C31.5897 31.9188 31.1445 31.9866 30.6577 31.9875C30.2126 31.9536 29.7676 31.9196 29.3225 31.8857C28.5365 30.5218 27.7532 29.1636 26.9724 27.8108C27.0148 27.7064 27.086 27.6894 27.1861 27.7599C28.6488 29.0531 30.1086 30.3434 31.5657 31.631C31.6987 31.7116 31.8411 31.7625 31.993 31.7838Z"
        fill="#7B05DA" />
    <path fill-rule="evenodd" clip-rule="evenodd"
        d="M12.7652 29.3387C12.6275 29.4407 12.4851 29.4237 12.3379 29.2878C11.9267 28.9127 11.535 28.5222 11.1628 28.1163C11.2806 28.0474 11.3874 27.9796 11.4833 27.9125C11.9229 27.7655 12.3857 27.6637 12.872 27.6069C12.8576 28.1857 12.822 28.763 12.7652 29.3387Z"
        fill="#2841B9" />
    <path fill-rule="evenodd" clip-rule="evenodd"
        d="M4.86037 27.1997C5.07498 27.4916 5.32419 27.7633 5.60812 28.0147C5.70971 27.9305 5.81653 27.9136 5.92858 27.9637C6.60177 28.5038 7.2427 29.0811 7.85137 29.6956C8.0272 29.8811 8.24084 29.9998 8.4923 30.0521C8.28741 30.5455 8.00263 30.987 7.63773 31.3764C7.64467 31.3318 7.62694 31.2978 7.58432 31.2746C7.55141 31.3569 7.498 31.4248 7.42408 31.4783C6.52582 30.5894 5.60011 29.8084 4.64673 29.1353C4.67119 28.4836 4.74244 27.8383 4.86037 27.1997Z"
        fill="#129CF3" />
    <path fill-rule="evenodd" clip-rule="evenodd"
        d="M11.4833 27.9126C11.3874 27.9796 11.2805 28.0475 11.1628 28.1163C11.535 28.5223 11.9267 28.9128 12.3379 29.2879C12.4851 29.4238 12.6275 29.4408 12.7651 29.3388C12.713 29.9538 12.6418 30.565 12.5515 31.1725C11.8102 30.4487 11.0446 29.7356 10.2548 29.0332C10.1653 29.1859 10.0763 29.2198 9.98779 29.1351C10.1962 28.7552 10.4454 28.3986 10.7355 28.0654C10.9748 27.9659 11.224 27.9149 11.4833 27.9126Z"
        fill="#214EB4" />
    <path fill-rule="evenodd" clip-rule="evenodd"
        d="M15.6493 28.4224C16.589 29.2335 17.5148 30.0654 18.4267 30.9182C18.5279 30.9674 18.6348 30.9843 18.7471 30.9691C18.5335 31.2408 18.2843 31.4785 17.9994 31.6822C17.8837 31.6862 17.7769 31.7202 17.6789 31.7841C17.1963 31.3408 16.6979 30.9163 16.1834 30.5107C15.8334 30.229 15.5486 29.9063 15.3289 29.5429C15.3744 29.1429 15.4812 28.7694 15.6493 28.4224Z"
        fill="#463DF8" />
    <path fill-rule="evenodd" clip-rule="evenodd"
        d="M12.5514 31.1725C12.5514 31.4442 12.5514 31.7158 12.5514 31.9875C11.812 32.0193 11.082 31.9853 10.3616 31.8856C10.0382 31.266 9.73562 30.6378 9.45361 30.001C9.56642 29.6655 9.74449 29.3769 9.98772 29.1351C10.0763 29.2198 10.1653 29.1859 10.2548 29.0332C11.0445 29.7356 11.8101 30.4487 12.5514 31.1725Z"
        fill="#195CB4" />
    <path fill-rule="evenodd" clip-rule="evenodd"
        d="M4.64662 29.1353C5.6 29.8084 6.52571 30.5894 7.42397 31.4783C7.49789 31.4248 7.5513 31.3569 7.5842 31.2746C7.62683 31.2978 7.64456 31.3318 7.63761 31.3764C7.57245 31.5734 7.46563 31.7433 7.31715 31.8858C7.05341 31.8026 6.76862 31.7516 6.46258 31.733C5.87698 31.2934 5.34288 30.801 4.86026 30.2558C4.78634 30.3093 4.73293 30.3773 4.70003 30.4596C4.67524 30.3336 4.62183 30.2317 4.53979 30.154C4.57537 29.8144 4.61104 29.4748 4.64662 29.1353Z"
        fill="#08ACF3" />
    <path fill-rule="evenodd" clip-rule="evenodd"
        d="M15.3289 29.5425C15.5487 29.9059 15.8335 30.2285 16.1835 30.5103C16.698 30.9158 17.1964 31.3403 17.679 31.7837C17.777 31.7198 17.8838 31.6858 17.9995 31.6818C17.9511 31.7794 17.8799 31.8643 17.7858 31.9365C16.6826 31.9874 15.5788 32.0043 14.4744 31.9874C14.6985 31.1424 14.9834 30.3274 15.3289 29.5425Z"
        fill="#3C50F7" />
    <path fill-rule="evenodd" clip-rule="evenodd"
        d="M4.53981 30.1538C4.62185 30.2315 4.67526 30.3334 4.70005 30.4594C4.73295 30.3771 4.78636 30.3092 4.86028 30.2557C5.3429 30.8008 5.877 31.2932 6.4626 31.7328C6.76864 31.7515 7.05343 31.8024 7.31717 31.8856C6.33954 31.9869 5.34258 32.0208 4.32617 31.9875C4.36238 31.3718 4.43363 30.7606 4.53981 30.1538Z"
        fill="#02B8F1" />
</svg>