<svg width="32" height="32" viewBox="0 0 32 32" fill="none" xmlns="http://www.w3.org/2000/svg">
    <g clip-path="url(#clip0_5580_45)">
        <path fill-rule="evenodd" clip-rule="evenodd"
            d="M-0.0800781 -0.0800781C0.0265886 -0.0800781 0.133255 -0.0800781 0.239922 -0.0800781C5.03016 2.36848 9.83016 4.82181 14.6399 7.27992C12.4615 8.4625 10.2481 9.5825 7.99992 10.6399C5.56339 9.46167 3.13672 8.26167 0.719922 7.03992C0.391866 6.72551 0.1252 6.37883 -0.0800781 5.99992C-0.0800781 3.97325 -0.0800781 1.94659 -0.0800781 -0.0800781Z"
            fill="#242424" />
        <path fill-rule="evenodd" clip-rule="evenodd"
            d="M31.5999 -0.0800781C31.7066 -0.0800781 31.8132 -0.0800781 31.9199 -0.0800781C31.9199 1.94659 31.9199 3.97325 31.9199 5.99992C31.639 6.57477 31.2122 7.02811 30.6399 7.35992C28.055 8.62571 25.495 9.93239 22.9599 11.2799C25.9055 12.8594 28.8922 14.3527 31.9199 15.7599C31.9199 17.8932 31.9199 20.0266 31.9199 22.1599C31.6391 22.6375 31.2658 23.0375 30.7999 23.3599C25.8839 26.1367 21.0305 28.9902 16.2399 31.9199C16.0266 31.9199 15.8132 31.9199 15.5999 31.9199C10.8093 28.9902 5.956 26.1367 1.03992 23.3599C0.574047 23.0375 0.200714 22.6375 -0.0800781 22.1599C-0.0800781 20.0799 -0.0800781 17.9999 -0.0800781 15.9199C5.22165 18.9177 10.5016 21.9577 15.7599 25.0399C15.9199 25.4666 16.0799 25.4666 16.2399 25.0399C19.306 23.178 22.3994 21.338 25.5199 19.5199C20.0799 16.7466 14.6399 13.9732 9.19992 11.1999C16.7012 7.476 24.1679 3.716 31.5999 -0.0800781Z"
            fill="#D31925" />
        <path fill-rule="evenodd" clip-rule="evenodd"
            d="M15.7598 25.04C15.9198 25.04 16.0798 25.04 16.2398 25.04C16.0798 25.4668 15.9198 25.4668 15.7598 25.04Z"
            fill="#D11D2B" />
    </g>
    <defs>
        <clipPath id="clip0_5580_45">
            <rect width="32" height="32" fill="white" />
        </clipPath>
    </defs>
</svg>