<svg width="32" height="32" viewBox="0 0 32 32" fill="none" xmlns="http://www.w3.org/2000/svg">
    <g clip-path="url(#clip0_5874_469)">
        <path fill-rule="evenodd" clip-rule="evenodd"
            d="M-0.0712891 -0.0712891C10.5954 -0.0712891 21.262 -0.0712891 31.9287 -0.0712891C31.9287 10.5954 31.9287 21.262 31.9287 31.9287C21.262 31.9287 10.5954 31.9287 -0.0712891 31.9287C-0.0712891 21.262 -0.0712891 10.5954 -0.0712891 -0.0712891Z"
            fill="#3DF982" />
        <path fill-rule="evenodd" clip-rule="evenodd"
            d="M17.4224 22.5421C16.026 22.4007 14.6037 22.3534 13.1558 22.3999C13.2025 20.6679 13.1551 18.9612 13.0135 17.2799C10.7373 14.6985 8.50918 12.0674 6.3291 9.38654C8.03577 9.29172 9.74243 9.29172 11.4491 9.38654C12.68 10.9253 13.96 12.4187 15.2891 13.8665C16.5509 12.3657 17.8309 10.8724 19.1291 9.38654C20.8358 9.29172 22.5424 9.29172 24.2491 9.38654C22.0616 12.0308 19.8571 14.662 17.6358 17.2799C17.6117 19.0587 17.5406 20.8127 17.4224 22.5421Z"
            fill="#003D44" />
        <path fill-rule="evenodd" clip-rule="evenodd"
            d="M21.5469 16.142C24.2692 15.9965 25.6203 17.2765 25.6002 19.982C24.9368 21.9245 23.5857 22.7541 21.5469 22.4709C19.2624 21.4017 18.6698 19.7187 19.7691 17.422C20.2884 16.8686 20.881 16.4419 21.5469 16.142Z"
            fill="#003E44" />
        <path fill-rule="evenodd" clip-rule="evenodd"
            d="M13.0137 17.2803C13.1552 18.9616 13.2026 20.6683 13.1559 22.4003C14.6039 22.3538 16.0261 22.4011 17.4226 22.5425C15.953 22.5425 14.4833 22.5425 13.0137 22.5425C13.0137 20.7885 13.0137 19.0343 13.0137 17.2803Z"
            fill="#002A41" />
    </g>
    <defs>
        <clipPath id="clip0_5874_469">
            <rect width="32" height="32" fill="white" />
        </clipPath>
    </defs>
</svg>