<svg width="32" height="32" viewBox="0 0 32 32" fill="none" xmlns="http://www.w3.org/2000/svg">
    <g clip-path="url(#clip0_5881_562)">
        <path fill-rule="evenodd" clip-rule="evenodd"
            d="M14.1509 -0.0712891C15.0991 -0.0712891 16.0472 -0.0712891 16.9954 -0.0712891C18.4273 0.097217 19.8495 0.405364 21.262 0.853155C27.6616 3.43977 31.2172 8.15681 31.9287 15.0043C31.9287 15.5732 31.9287 16.142 31.9287 16.7109C31.1348 24.0254 27.2473 28.8846 20.2665 31.2887C19.0667 31.5359 17.8814 31.7492 16.7109 31.9287C15.905 31.9287 15.0991 31.9287 14.2932 31.9287C7.82633 30.8913 3.34633 27.3358 0.853155 21.262C0.405364 19.8495 0.097217 18.4273 -0.0712891 16.9954C-0.0712891 16.2843 -0.0712891 15.5732 -0.0712891 14.862C1.1046 6.48972 5.84534 1.51194 14.1509 -0.0712891Z"
            fill="#E71A25" />
        <path fill-rule="evenodd" clip-rule="evenodd"
            d="M12.0179 7.89366C16.996 7.86995 21.9737 7.89366 26.9512 7.96477C27.0307 8.06784 27.0781 8.18636 27.0934 8.32032C26.9133 8.66784 26.6999 8.9997 26.4534 9.31588C23.6328 12.6107 20.8119 15.9055 17.9912 19.2003C16.8061 19.2952 15.6208 19.2952 14.4357 19.2003C14.291 19.0511 14.2673 18.8852 14.3646 18.7025C16.0651 16.5749 17.8193 14.4891 19.6268 12.4448C20.0307 12.0962 20.0543 11.7406 19.6979 11.3781C17.5172 11.2833 15.3364 11.2833 13.1557 11.3781C12.966 11.6151 12.7764 11.8522 12.5868 12.0892C11.449 12.184 10.3112 12.184 9.17345 12.0892C8.91992 11.9375 8.84881 11.7242 8.96011 11.4492C10.0478 10.3126 11.067 9.12742 12.0179 7.89366Z"
            fill="#F9F8F7" />
        <path fill-rule="evenodd" clip-rule="evenodd"
            d="M14.0088 12.4444C15.1002 12.4207 16.1906 12.4445 17.2799 12.5155C17.4327 12.6206 17.5275 12.7628 17.5644 12.9422C15.6937 15.1924 13.8211 17.4442 11.9466 19.6977C11.8293 20.0108 11.9004 20.2715 12.1599 20.48C14.2459 20.5748 16.3317 20.5748 18.4177 20.48C18.7437 20.2965 19.0281 20.0594 19.271 19.7689C20.4088 19.674 21.5466 19.674 22.6844 19.7689C22.8343 19.9663 22.8579 20.1796 22.7555 20.4089C21.7892 21.6125 20.7699 22.774 19.6977 23.8933C14.7673 23.9882 9.83696 23.9882 4.90659 23.8933C4.72898 23.579 4.75267 23.2709 4.9777 22.9689C8.01791 19.4789 11.0283 15.9707 14.0088 12.4444Z"
            fill="#F9F7F7" />
    </g>
    <defs>
        <clipPath id="clip0_5881_562">
            <rect width="32" height="32" fill="white" />
        </clipPath>
    </defs>
</svg>