<svg width="32" height="32" viewBox="0 0 32 32" fill="none" xmlns="http://www.w3.org/2000/svg">
    <g clip-path="url(#clip0_5815_901)">
        <path fill-rule="evenodd" clip-rule="evenodd"
            d="M5.58366 0.91639C5.24791 1.15369 4.85903 1.2648 4.41699 1.24972C4.75274 1.01242 5.14163 0.901312 5.58366 0.91639Z"
            fill="#333333" />
        <path fill-rule="evenodd" clip-rule="evenodd"
            d="M3.91699 1.41692C3.86144 1.52803 3.80588 1.63914 3.75033 1.75025C3.63921 1.75025 3.52811 1.75025 3.41699 1.75025C3.49584 1.51586 3.66251 1.40475 3.91699 1.41692Z"
            fill="#020202" />
        <path fill-rule="evenodd" clip-rule="evenodd"
            d="M5.58301 0.916666C12.6388 0.888889 19.6943 0.916668 26.7497 0.999999C27.0815 1.06227 27.3593 1.20116 27.583 1.41667C27.657 1.68553 27.8237 1.87997 28.083 2C19.9065 2.11042 11.7398 2.11042 3.58301 2C3.67567 1.93623 3.73122 1.8529 3.74967 1.75C3.80522 1.63889 3.86079 1.52778 3.91634 1.41667C4.06484 1.31504 4.23151 1.25948 4.41634 1.25C4.85837 1.26508 5.24726 1.15397 5.58301 0.916666Z"
            fill="#929292" />
        <path fill-rule="evenodd" clip-rule="evenodd"
            d="M5.75 1.08292C12.5976 1.00149 19.4308 1.08482 26.25 1.33292C19.8645 1.59891 13.4756 1.65446 7.08333 1.49958C6.47222 1.44403 5.86112 1.38847 5.25 1.33292C5.45625 1.29423 5.62292 1.2109 5.75 1.08292Z"
            fill="#A7A7A7" />
        <path fill-rule="evenodd" clip-rule="evenodd"
            d="M3.41699 1.74992C3.33814 1.98431 3.17148 2.09542 2.91699 2.08326C2.99584 1.84887 3.16251 1.73776 3.41699 1.74992Z"
            fill="#020202" />
        <path fill-rule="evenodd" clip-rule="evenodd"
            d="M27.5837 1.41699C27.8592 1.44359 28.0813 1.5547 28.2503 1.75033C28.2217 1.91559 28.2773 2.02671 28.417 2.08366C28.4235 2.26419 28.4792 2.43086 28.5837 2.58366C27.4182 2.73311 26.2515 2.70534 25.0837 2.50033C18.917 2.38921 12.7503 2.38921 6.58366 2.50033C5.19496 2.65311 3.80608 2.79199 2.41699 2.91699C2.65449 2.67999 2.82116 2.40221 2.91699 2.08366C3.17148 2.09583 3.33814 1.98471 3.41699 1.75033C3.52811 1.75033 3.63921 1.75033 3.75033 1.75033C3.73188 1.85323 3.67633 1.93656 3.58366 2.00033C11.7404 2.11074 19.9072 2.11074 28.0837 2.00033C27.8243 1.88029 27.6577 1.68586 27.5837 1.41699Z"
            fill="#808380" />
        <path fill-rule="evenodd" clip-rule="evenodd"
            d="M28.2503 1.75C29.7343 2.65817 30.5955 3.9915 30.8337 5.75C30.9448 12.5833 30.9448 19.4167 30.8337 26.25C30.7098 27.1492 30.4043 27.9825 29.917 28.75C30.5532 29.0683 31.2198 29.2905 31.917 29.4167C31.917 30.0833 31.917 30.75 31.917 31.4167C31.5292 31.4442 31.1682 31.5552 30.8337 31.75C30.5705 31.5333 30.3762 31.589 30.2503 31.9167C20.8058 31.9167 11.3614 31.9167 1.91699 31.9167C1.80588 31.6945 1.69478 31.6945 1.58366 31.9167C1.47255 31.9167 1.36144 31.9167 1.25033 31.9167C1.12457 31.589 0.930126 31.5333 0.666992 31.75C0.421911 31.6222 0.171911 31.5112 -0.0830078 31.4167C-0.0830078 30.75 -0.0830078 30.0833 -0.0830078 29.4167C0.552437 29.3067 1.16355 29.1123 1.75033 28.8333C1.28401 28.1505 0.978452 27.4005 0.833659 26.5833C0.722547 19.5278 0.722547 12.4722 0.833659 5.41667C1.09237 4.0219 1.78681 2.91078 2.91699 2.08333C2.82116 2.40188 2.65449 2.67967 2.41699 2.91667C2.30588 2.91667 2.25033 2.97222 2.25033 3.08333C2.00459 3.23938 1.83793 3.46162 1.75033 3.75C1.61062 3.80695 1.55506 3.91807 1.58366 4.08333C1.42791 4.26127 1.37236 4.4835 1.41699 4.75C1.25847 4.98645 1.20291 5.26422 1.25033 5.58333C1.09458 5.76127 1.03902 5.9835 1.08366 6.25C1.08366 7.08333 1.08366 7.91667 1.08366 8.75C1.08366 9.36112 1.08366 9.97222 1.08366 10.5833C1.03009 11.5044 1.08565 12.3932 1.25033 13.25C1.25033 17.1945 1.25033 21.1388 1.25033 25.0833C1.56954 27.1327 2.68064 28.6048 4.58366 29.5C5.01721 29.6533 5.46164 29.7645 5.91699 29.8333C12.4725 29.9445 19.0282 29.9445 25.5837 29.8333C26.574 29.7627 27.4628 29.4293 28.2503 28.8333C28.8892 28.0833 29.5282 27.3333 30.167 26.5833C30.2147 26.0593 30.298 25.5038 30.417 24.9167C30.417 20.8612 30.417 16.8055 30.417 12.75C30.417 11.9722 30.417 11.1944 30.417 10.4167C30.582 9.39257 30.6375 8.33702 30.5837 7.25C30.5837 6.86112 30.5837 6.47222 30.5837 6.08333C30.4932 5.43738 30.3265 4.82628 30.0837 4.25C30.0837 4.13888 30.0282 4.08333 29.917 4.08333C29.9565 3.86817 29.901 3.7015 29.7503 3.58333C29.4248 2.97995 28.9805 2.47995 28.417 2.08333C28.2773 2.02638 28.2217 1.91527 28.2503 1.75Z"
            fill="#010000" />
        <path fill-rule="evenodd" clip-rule="evenodd"
            d="M1.41644 4.75C1.57803 4.93822 1.77247 5.10488 1.99977 5.25C2.90097 5.6228 3.81764 5.95613 4.74977 6.25C8.32966 6.0557 11.9963 5.94458 15.7498 5.91667C19.0844 5.92402 22.4178 5.97957 25.7498 6.08333C27.2646 6.11013 28.6813 5.7768 29.9998 5.08333C30.0636 5.176 30.1469 5.23155 30.2498 5.25C30.2548 5.4162 30.1714 5.52732 29.9998 5.58333C28.6619 6.22182 27.2453 6.55515 25.7498 6.58333C19.1109 6.36165 12.472 6.36165 5.83311 6.58333C5.07376 6.57792 4.32376 6.49458 3.58311 6.33333C2.82614 6.03925 2.04836 5.78925 1.24977 5.58333C1.20236 5.26422 1.25791 4.98645 1.41644 4.75Z"
            fill="#363936" />
        <path fill-rule="evenodd" clip-rule="evenodd"
            d="M1.75013 3.75C1.77134 4.21202 2.02134 4.43423 2.50013 4.41667C2.73941 4.40685 2.96163 4.3513 3.16679 4.25C4.04258 4.61447 4.95924 4.78113 5.91679 4.75C12.5002 4.52832 19.0835 4.52832 25.6668 4.75C26.5903 4.76913 27.4791 4.60247 28.3335 4.25C28.6321 4.33945 28.9376 4.39502 29.2501 4.41667C29.5556 4.40243 29.7778 4.29132 29.9168 4.08333C30.028 4.08333 30.0835 4.13888 30.0835 4.25C30.0835 4.36112 30.0835 4.47222 30.0835 4.58333C29.5791 4.76278 29.0791 4.76278 28.5835 4.58333C28.1898 4.89375 27.7453 5.08818 27.2501 5.16667C19.5835 5.27778 11.9168 5.27778 4.25013 5.16667C3.41099 4.80895 2.52211 4.61452 1.58346 4.58333C1.58346 4.41667 1.58346 4.25 1.58346 4.08333C1.55486 3.91807 1.61042 3.80695 1.75013 3.75Z"
            fill="#484B49" />
        <path fill-rule="evenodd" clip-rule="evenodd"
            d="M29.75 3.58301C29.9007 3.70117 29.9562 3.86784 29.9167 4.08301C29.7777 4.29099 29.5555 4.40211 29.25 4.41634C28.9375 4.39469 28.632 4.33912 28.3333 4.24967C27.479 4.60214 26.5902 4.76881 25.6667 4.74967C19.0833 4.52799 12.5001 4.52799 5.91667 4.74967C4.95912 4.78081 4.04245 4.61414 3.16667 4.24967C2.9615 4.35097 2.73928 4.40652 2.5 4.41634C2.02122 4.43391 1.77122 4.21169 1.75 3.74967C10.306 3.76201 18.8617 3.76201 27.4167 3.74967C28.05 3.74221 28.6612 3.85331 29.25 4.08301C29.586 4.08036 29.7527 3.91369 29.75 3.58301Z"
            fill="#515252" />
        <path fill-rule="evenodd" clip-rule="evenodd"
            d="M29.75 3.58334C29.7527 3.91402 29.586 4.08069 29.25 4.08334C28.6612 3.85364 28.05 3.74254 27.4167 3.75C18.8617 3.76234 10.306 3.76234 1.75 3.75C1.8376 3.46162 2.00427 3.23939 2.25 3.08334C2.3587 3.28752 2.55315 3.39862 2.83333 3.41667C3.8411 3.12052 4.86888 2.92607 5.91667 2.83334C12.5278 2.72222 19.1388 2.72222 25.75 2.83334C26.5278 2.94445 27.3055 3.05555 28.0833 3.16667C28.5208 3.74929 29.0765 3.88817 29.75 3.58334Z"
            fill="#5E5F5E" />
        <path fill-rule="evenodd" clip-rule="evenodd"
            d="M28.4167 2.08301C28.9802 2.47962 29.4245 2.97962 29.75 3.58301C29.0765 3.88784 28.5208 3.74896 28.0833 3.16634C27.3055 3.05522 26.5278 2.94412 25.75 2.83301C19.1388 2.72189 12.5278 2.72189 5.91667 2.83301C4.86888 2.92574 3.8411 3.12019 2.83333 3.41634C2.55315 3.39829 2.3587 3.28719 2.25 3.08301C2.25 2.97189 2.30555 2.91634 2.41667 2.91634C3.80575 2.79134 5.19463 2.65246 6.58333 2.49967C12.75 2.38856 18.9167 2.38856 25.0833 2.49967C26.2512 2.70469 27.4178 2.73246 28.5833 2.58301C28.4788 2.43021 28.4232 2.26354 28.4167 2.08301Z"
            fill="#727272" />
        <path fill-rule="evenodd" clip-rule="evenodd"
            d="M1.58295 4.08301C1.58295 4.24967 1.58295 4.41634 1.58295 4.58301C2.5216 4.61419 3.41048 4.80862 4.24961 5.16634C11.9163 5.27746 19.5829 5.27746 27.2496 5.16634C27.7448 5.08786 28.1893 4.89342 28.5829 4.58301C29.0786 4.76246 29.5786 4.76246 30.0829 4.58301C30.1384 4.80522 30.1941 5.02746 30.2496 5.24967C30.1468 5.23122 30.0634 5.17567 29.9996 5.08301C28.6811 5.77647 27.2644 6.10981 25.7496 6.08301C22.4176 5.97924 19.0843 5.92369 15.7496 5.91634C11.9962 5.94426 8.3295 6.05537 4.74961 6.24967C3.81748 5.95581 2.90081 5.62247 1.99961 5.24967C1.77231 5.10456 1.57787 4.93789 1.41628 4.74967C1.37165 4.48317 1.4272 4.26094 1.58295 4.08301Z"
            fill="#3F4241" />
        <path fill-rule="evenodd" clip-rule="evenodd"
            d="M30.0833 4.25C30.3261 4.82628 30.4928 5.43738 30.5833 6.08333C30.2448 6.64858 29.7448 7.06525 29.0833 7.33333C27.9166 7.41667 26.7499 7.5 25.5833 7.58333C19.0278 7.36112 12.4722 7.36112 5.91661 7.58333C4.88882 7.36043 3.83327 7.22155 2.74994 7.16667C2.63882 7.11112 2.52772 7.05555 2.41661 7C2.91661 6.94445 3.41661 6.88888 3.91661 6.83333C2.96454 6.78803 2.10344 6.48247 1.33327 5.91667C1.25588 6.01573 1.2281 6.12685 1.24994 6.25C1.19438 6.25 1.13883 6.25 1.08327 6.25C1.03864 5.9835 1.09419 5.76127 1.24994 5.58333C2.04852 5.78925 2.82631 6.03925 3.58327 6.33333C4.32392 6.49458 5.07392 6.57792 5.83327 6.58333C12.4722 6.36165 19.1111 6.36165 25.7499 6.58333C27.2454 6.55515 28.6621 6.22182 29.9999 5.58333C30.1716 5.52732 30.2549 5.4162 30.2499 5.25C30.1944 5.02778 30.1388 4.80555 30.0833 4.58333C30.0833 4.47222 30.0833 4.36112 30.0833 4.25Z"
            fill="#2E2F2F" />
        <path fill-rule="evenodd" clip-rule="evenodd"
            d="M30.5837 6.08366C30.5837 6.47254 30.5837 6.86144 30.5837 7.25033C30.5282 7.25033 30.4725 7.25033 30.417 7.25033C30.4389 7.10426 30.3834 6.99314 30.2504 6.91699C29.8272 7.20038 29.3829 7.45038 28.917 7.66699C27.7489 7.72959 26.5822 7.81293 25.417 7.91699C18.9725 7.69478 12.5282 7.69478 6.0837 7.91699C4.79425 7.84786 3.51647 7.70898 2.25037 7.50033C1.67699 7.24976 1.34365 6.83309 1.25037 6.25033C1.22854 6.12718 1.25631 6.01606 1.3337 5.91699C2.10387 6.48279 2.96497 6.78836 3.91704 6.83366C3.41704 6.88921 2.91704 6.94478 2.41704 7.00033C2.52815 7.05588 2.63925 7.11144 2.75037 7.16699C3.8337 7.22188 4.88925 7.36076 5.91704 7.58366C12.4726 7.36144 19.0282 7.36144 25.5837 7.58366C26.7504 7.50033 27.917 7.41699 29.0837 7.33366C29.7452 7.06558 30.2452 6.64891 30.5837 6.08366Z"
            fill="#252B25" />
        <path fill-rule="evenodd" clip-rule="evenodd"
            d="M1.08301 6.25C1.13856 6.25 1.19412 6.25 1.24967 6.25C1.34296 6.83277 1.67629 7.24943 2.24967 7.5C3.51577 7.70865 4.79356 7.84753 6.08301 7.91667C12.5275 7.69445 18.9718 7.69445 25.4163 7.91667C26.5815 7.8126 27.7482 7.72927 28.9163 7.66667C29.3822 7.45005 29.8265 7.20005 30.2497 6.91667C30.3827 6.99282 30.4382 7.10393 30.4163 7.25C30.524 7.95877 30.2463 8.43098 29.583 8.66667C28.2038 8.85043 26.815 8.93377 25.4163 8.91667C24.2092 8.91527 23.0147 8.85972 21.833 8.75C21.7513 8.96553 21.7235 9.18777 21.7497 9.41667C24.2503 9.44443 26.7503 9.41665 29.2497 9.33333C29.5557 9.09683 29.889 8.90238 30.2497 8.75C30.3973 8.8875 30.4528 9.05417 30.4163 9.25C29.8845 9.3487 29.3845 9.54315 28.9163 9.83333C26.583 9.94445 24.2497 9.94445 21.9163 9.83333C21.8257 9.7138 21.7145 9.63047 21.583 9.58333C21.583 9.25 21.583 8.91667 21.583 8.58333C17.7208 8.5282 13.8876 8.58375 10.083 8.75C9.98629 9.4415 10.0974 10.0526 10.4163 10.5833C13.0275 10.5833 15.6386 10.5833 18.2497 10.5833C18.2497 10.6389 18.2497 10.6945 18.2497 10.75C18.1942 10.75 18.1385 10.75 18.083 10.75C15.3608 10.75 12.6386 10.75 9.91634 10.75C9.94377 10.2469 9.91601 9.74693 9.83301 9.25C7.37322 9.44278 4.90099 9.47055 2.41634 9.33333C2.02187 9.02587 1.57742 8.83143 1.08301 8.75C1.08301 7.91667 1.08301 7.08333 1.08301 6.25Z"
            fill="#1F2120" />
        <path fill-rule="evenodd" clip-rule="evenodd"
            d="M10.083 8.74976C13.8876 8.58351 17.7208 8.52796 21.583 8.5831C21.583 8.91643 21.583 9.24976 21.583 9.5831C21.583 9.74976 21.583 9.91643 21.583 10.0831C21.6225 10.2983 21.567 10.4649 21.4163 10.5831C21.4163 10.0275 21.4163 9.47198 21.4163 8.91643C17.6673 8.75018 13.8896 8.69463 10.083 8.74976Z"
            fill="#6D6D6D" />
        <path fill-rule="evenodd" clip-rule="evenodd"
            d="M10.0836 8.75009C13.8901 8.69496 17.6679 8.75051 21.4169 8.91676C17.6947 8.91676 13.9724 8.91676 10.2502 8.91676C10.209 9.48987 10.2646 10.0454 10.4169 10.5834C10.098 10.0527 9.98684 9.44159 10.0836 8.75009Z"
            fill="#A5A6A5" />
        <path fill-rule="evenodd" clip-rule="evenodd"
            d="M21.4171 8.91699C21.4171 9.47254 21.4171 10.0281 21.4171 10.5837C21.4171 10.6948 21.3616 10.7503 21.2505 10.7503C21.2505 10.2503 21.2505 9.75033 21.2505 9.25033C17.695 9.25033 14.1393 9.25033 10.5838 9.25033C10.5838 9.63921 10.5838 10.0281 10.5838 10.417C13.1686 10.3621 15.7242 10.4176 18.2505 10.5837C15.6393 10.5837 13.0282 10.5837 10.4171 10.5837C10.2648 10.0457 10.2093 9.49011 10.2505 8.91699C13.9727 8.91699 17.695 8.91699 21.4171 8.91699Z"
            fill="#DFDFDF" />
        <path fill-rule="evenodd" clip-rule="evenodd"
            d="M21.2498 10.75C20.468 11.8086 19.6902 12.8642 18.9165 13.9167C16.8385 16.2933 14.8385 18.7377 12.9165 21.25C12.9165 21.3612 12.9721 21.4167 13.0832 21.4167C13.1016 21.5195 13.1572 21.6028 13.2498 21.6667C16.0271 21.75 18.8048 21.7778 21.5832 21.75C21.5832 22.25 21.5832 22.75 21.5832 23.25C17.6943 23.25 13.8054 23.25 9.91651 23.25C9.88901 22.6917 9.91679 22.1362 9.99984 21.5833C10.4601 21.0477 10.8767 20.4922 11.2498 19.9167C11.3465 19.5418 11.5687 19.2642 11.9165 19.0833C12.7087 18.3472 13.3754 17.5138 13.9165 16.5833C15.0601 15.4656 16.0879 14.2434 16.9998 12.9167C17.3887 12.5833 17.7777 12.25 18.1665 11.9167C18.2493 11.5317 18.277 11.1428 18.2498 10.75C18.2498 10.6945 18.2498 10.6389 18.2498 10.5833C15.7236 10.4173 13.168 10.3618 10.5832 10.4167C10.5832 10.0278 10.5832 9.63888 10.5832 9.25C14.1387 9.25 17.6943 9.25 21.2498 9.25C21.2498 9.75 21.2498 10.25 21.2498 10.75Z"
            fill="#F7F7F7" />
        <path fill-rule="evenodd" clip-rule="evenodd"
            d="M30.4163 7.25C30.4718 7.25 30.5275 7.25 30.583 7.25C30.6368 8.33702 30.5813 9.39257 30.4163 10.4167C30.4163 10.25 30.4163 10.0833 30.4163 9.91667C29.9318 9.9292 29.4875 10.0681 29.083 10.3333C27.8608 10.3611 26.6385 10.3889 25.4163 10.4167C24.0995 10.4111 22.8218 10.3 21.583 10.0833C21.583 9.91667 21.583 9.75 21.583 9.58333C21.7145 9.63047 21.8257 9.7138 21.9163 9.83333C24.2497 9.94445 26.583 9.94445 28.9163 9.83333C29.3845 9.54315 29.8845 9.3487 30.4163 9.25C30.4528 9.05417 30.3973 8.8875 30.2497 8.75C29.889 8.90238 29.5557 9.09683 29.2497 9.33333C26.7503 9.41665 24.2503 9.44443 21.7497 9.41667C21.7235 9.18777 21.7513 8.96553 21.833 8.75C23.0147 8.85972 24.2092 8.91527 25.4163 8.91667C26.815 8.93377 28.2038 8.85043 29.583 8.66667C30.2463 8.43098 30.524 7.95877 30.4163 7.25Z"
            fill="#141A14" />
        <path fill-rule="evenodd" clip-rule="evenodd"
            d="M1.08301 8.75C1.57742 8.83143 2.02187 9.02587 2.41634 9.33333C4.90099 9.47055 7.37322 9.44278 9.83301 9.25C9.91601 9.74693 9.94377 10.2469 9.91634 10.75C12.6386 10.75 15.3608 10.75 18.083 10.75C18.083 10.8055 18.083 10.8611 18.083 10.9167C17.7497 11.3055 17.4163 11.6944 17.083 12.0833C17.0413 11.8463 16.9025 11.6796 16.6663 11.5833C12.4645 11.7715 8.21449 11.7992 3.91634 11.6667C3.18401 11.6162 2.46179 11.5051 1.74967 11.3333C1.45201 11.1339 1.22979 10.8839 1.08301 10.5833C1.08301 9.97222 1.08301 9.36112 1.08301 8.75Z"
            fill="#0F1410" />
        <path fill-rule="evenodd" clip-rule="evenodd"
            d="M1.0832 10.583C1.22998 10.8836 1.4522 11.1336 1.74987 11.333C2.46198 11.5048 3.1842 11.6159 3.91653 11.6663C8.21468 11.7989 12.4647 11.7711 16.6665 11.583C16.9027 11.6793 17.0415 11.846 17.0832 12.083C16.6412 12.7467 16.1412 13.3578 15.5832 13.9163C11.2354 13.9124 6.84648 13.9124 2.41653 13.9163C2.41653 13.6941 2.41653 13.4719 2.41653 13.2497C2.19432 13.2497 1.97208 13.2497 1.74987 13.2497C1.74987 13.083 1.74987 12.9163 1.74987 12.7497C1.5832 12.7497 1.41653 12.7497 1.24987 12.7497C1.24987 12.9163 1.24987 13.083 1.24987 13.2497C1.08519 12.3929 1.02963 11.504 1.0832 10.583Z"
            fill="#060C07" />
        <path fill-rule="evenodd" clip-rule="evenodd"
            d="M18.083 10.917C18.0073 11.357 17.8128 11.7459 17.4997 12.0837C16.5638 13.238 15.5916 14.3491 14.583 15.417C14.912 14.92 15.2454 14.42 15.583 13.917C16.141 13.3584 16.641 12.7473 17.083 12.0837C17.4163 11.6948 17.7497 11.3059 18.083 10.917Z"
            fill="#787978" />
        <path fill-rule="evenodd" clip-rule="evenodd"
            d="M30.417 10.417C30.417 11.1948 30.417 11.9725 30.417 12.7503C30.1948 12.7503 29.9725 12.7503 29.7503 12.7503C29.7503 12.917 29.7503 13.0837 29.7503 13.2503C29.5837 13.2503 29.417 13.2503 29.2503 13.2503C29.2787 13.4707 29.2232 13.6651 29.0837 13.8337C25.6605 13.9118 22.2717 13.9396 18.917 13.917C19.6907 12.8645 20.4685 11.8089 21.2503 10.7503C21.3615 10.7503 21.417 10.6948 21.417 10.5837C21.5677 10.4655 21.6232 10.2988 21.5837 10.0837C22.8225 10.3003 24.1002 10.4114 25.417 10.417C26.6392 10.3892 27.8615 10.3614 29.0837 10.3337C29.4882 10.0684 29.9325 9.92953 30.417 9.91699C30.417 10.0837 30.417 10.2503 30.417 10.417Z"
            fill="#090E09" />
        <path fill-rule="evenodd" clip-rule="evenodd"
            d="M15.5833 13.9167C15.2457 14.4196 14.9124 14.9196 14.5833 15.4167C13.736 16.208 13.0138 17.0968 12.4167 18.0833C11.5029 19.1268 10.5863 20.1825 9.66667 21.25C9.53135 21.9482 9.55912 22.6148 9.75 23.25C9.80555 23.25 9.86112 23.25 9.91667 23.25C13.8055 23.25 17.6945 23.25 21.5833 23.25C21.7465 22.7292 21.8022 22.1737 21.75 21.5833C18.8663 21.2523 15.9219 21.1412 12.9167 21.25C14.8387 18.7377 16.8387 16.2933 18.9167 13.9167C22.2713 13.9392 25.6602 13.9114 29.0833 13.8333C29.2228 13.6648 29.2783 13.4703 29.25 13.25C29.4167 13.25 29.5833 13.25 29.75 13.25C29.75 13.0833 29.75 12.9167 29.75 12.75C29.9722 12.75 30.1945 12.75 30.4167 12.75C30.4167 16.8055 30.4167 20.8612 30.4167 24.9167C29.6878 26.1785 28.8545 27.373 27.9167 28.5C27.4077 28.8657 26.852 29.1435 26.25 29.3333C19.3055 29.4445 12.3611 29.4445 5.41667 29.3333C4.5833 29.0693 3.8333 28.6527 3.16667 28.0833C2.48483 27.099 1.84593 26.099 1.25 25.0833C1.25 21.1388 1.25 17.1945 1.25 13.25C1.25 13.0833 1.25 12.9167 1.25 12.75C1.41667 12.75 1.58333 12.75 1.75 12.75C1.75 12.9167 1.75 13.0833 1.75 13.25C1.97222 13.25 2.19445 13.25 2.41667 13.25C2.41667 13.4722 2.41667 13.6944 2.41667 13.9167C6.84662 13.9127 11.2355 13.9127 15.5833 13.9167Z"
            fill="#060606" />
        <path fill-rule="evenodd" clip-rule="evenodd"
            d="M18.0837 10.75C18.1392 10.75 18.1948 10.75 18.2503 10.75C18.2775 11.1428 18.2498 11.5317 18.167 11.9167C17.7782 12.25 17.3892 12.5833 17.0003 12.9167C16.0884 14.2434 15.0606 15.4656 13.917 16.5833C14.1392 16.1945 14.3614 15.8056 14.5837 15.4167C15.5922 14.3488 16.5645 13.2377 17.5003 12.0833C17.8135 11.7455 18.008 11.3566 18.0837 10.9167C18.0837 10.8611 18.0837 10.8056 18.0837 10.75Z"
            fill="#C4C4C4" />
        <path fill-rule="evenodd" clip-rule="evenodd"
            d="M14.5837 15.417C14.3614 15.8059 14.1392 16.1948 13.917 16.5837C13.455 17.116 12.955 17.616 12.417 18.0837C13.0141 17.0972 13.7363 16.2083 14.5837 15.417Z"
            fill="#757675" />
        <path fill-rule="evenodd" clip-rule="evenodd"
            d="M13.917 16.583C13.3758 17.5135 12.7092 18.3468 11.917 19.083C12.0837 18.7497 12.2503 18.4163 12.417 18.083C12.955 17.6153 13.455 17.1153 13.917 16.583Z"
            fill="#C1C1C1" />
        <path fill-rule="evenodd" clip-rule="evenodd"
            d="M12.4162 18.083C12.2496 18.4163 12.0829 18.7497 11.9162 19.083C11.5684 19.2638 11.3462 19.5415 11.2496 19.9163C10.7029 20.3402 10.2307 20.8402 9.8329 21.4163C9.7498 22.025 9.72202 22.636 9.74957 23.2497C9.55869 22.6145 9.53092 21.9478 9.66624 21.2497C10.5858 20.1822 11.5025 19.1265 12.4162 18.083Z"
            fill="#767876" />
        <path fill-rule="evenodd" clip-rule="evenodd"
            d="M11.2495 19.917C10.8764 20.4925 10.4598 21.048 9.99955 21.5837C9.9165 22.1365 9.88871 22.692 9.91621 23.2503C9.86066 23.2503 9.8051 23.2503 9.74955 23.2503C9.722 22.6367 9.74978 22.0257 9.83288 21.417C10.2307 20.8408 10.7029 20.3408 11.2495 19.917Z"
            fill="#BFBFBF" />
        <path fill-rule="evenodd" clip-rule="evenodd"
            d="M12.917 21.2503C15.9223 21.1415 18.8667 21.2527 21.7503 21.5837C18.8743 21.4195 15.9854 21.3638 13.0837 21.417C12.9725 21.417 12.917 21.3615 12.917 21.2503Z"
            fill="#585353" />
        <path fill-rule="evenodd" clip-rule="evenodd"
            d="M13.083 21.4169C15.9847 21.3638 18.8737 21.4194 21.7497 21.5836C21.8018 22.1739 21.7462 22.7294 21.583 23.2503C21.583 22.7503 21.583 22.2503 21.583 21.7503C18.8047 21.7781 16.0269 21.7503 13.2497 21.6669C13.157 21.6031 13.1015 21.5198 13.083 21.4169Z"
            fill="#BABABA" />
        <path fill-rule="evenodd" clip-rule="evenodd"
            d="M30.4167 24.917C30.2977 25.5042 30.2143 26.0597 30.1667 26.5837C29.5278 27.3337 28.8888 28.0837 28.25 28.8337C27.4625 29.4297 26.5737 29.763 25.5833 29.8337C19.0278 29.9448 12.4722 29.9448 5.91667 29.8337C5.46132 29.7648 5.01688 29.6537 4.58333 29.5003C2.68032 28.6052 1.56921 27.133 1.25 25.0837C1.84593 26.0993 2.48483 27.0993 3.16667 28.0837C3.8333 28.653 4.5833 29.0697 5.41667 29.3337C12.3611 29.4448 19.3055 29.4448 26.25 29.3337C26.852 29.1438 27.4077 28.866 27.9167 28.5003C28.8545 27.3733 29.6878 26.1788 30.4167 24.917Z"
            fill="#050006" />
    </g>
    <defs>
        <clipPath id="clip0_5815_901">
            <rect width="32" height="32" fill="white" />
        </clipPath>
    </defs>
</svg>