<svg xmlns="http://www.w3.org/2000/svg" viewBox="0 0 32 32" fill="none">
  <g transform="translate(0 2)">
    <path d="M18.585 28C14.3678 28 11.7333 23.4518 13.8466 19.8197L14.1706 19.2681H23.6475C25.9017 23.1433 23.0886 28 18.585 28Z" fill="#FCB614"/>
    <path d="M15.1098 12.6444C15.4292 12.6444 15.6311 12.9903 15.4714 13.2661L13.0811 17.3796L11.9775 19.2634L8.16419 25.8264C7.38463 27.1726 5.9382 28 4.37907 28C1.01191 28 -1.09198 24.3679 0.593951 21.4698L1.87601 19.2681L2.42546 18.3239L2.97491 17.3796L5.60477 12.8501C5.67991 12.7239 5.8161 12.6444 5.96638 12.6444H15.1098Z" fill="#399FD8"/>
    <path d="M18.7541 8.1803L18.4347 8.72721H8.95784C6.70368 4.85209 9.51199 0 14.0156 0C18.2328 0 20.8674 4.54825 18.7541 8.1803Z" fill="#EF5124"/>
    <path d="M28.2216 0C31.5888 0 33.6926 3.63205 32.0067 6.53022L30.7294 8.72721L30.1799 9.67613L29.6351 10.6157L27.0006 15.1452C26.9255 15.2715 26.7893 15.3509 26.639 15.3509H17.4955C17.1762 15.3509 16.9742 15.005 17.1339 14.7292L19.5243 10.611L20.6185 8.72254L24.4318 2.16427C25.2207 0.827379 26.6625 0 28.2216 0Z" fill="#7FB942"/>
  </g>
</svg>
