<svg xmlns="http://www.w3.org/2000/svg" width="95" height="25" fill="#B1884C">
<path d="M65.48 20.62h-48.9l3.9 3.94 45-3.94ZM21.12 4.64v.58a4.9 4.9 0 0 0-2.84-.93c-3.43 0-6.03 3.17-6.03 7.06 0 3.9 2.6 7.06 6.03 7.06a4.9 4.9 0 0 0 2.84-.93v.6h3.01V4.63l-3.01.01Zm-2.84 10.54c-1.7 0-2.93-1.68-2.93-3.81 0-2.14 1.24-3.82 2.93-3.82 1.69 0 2.88 1.69 2.88 3.82s-1.19 3.81-2.88 3.81ZM45.24 4.64v7.9c0 1.49-1 2.74-2.47 2.74-1.46 0-2.46-1.25-2.46-2.74v-7.9h-3.02v7.9c0 3.24 2.19 5.89 5.39 5.89.91-.02 1.8-.3 2.56-.84v.5h3V4.65l-3-.01ZM73.3 18.1v-7.91c0-1.48 1-2.74 2.46-2.74 1.47 0 2.47 1.26 2.47 2.74v7.9h3.01v-7.9c0-3.24-2.19-5.88-5.38-5.88-.92.01-1.81.3-2.57.83v-.5h-3v13.45h3Z"/>
<path d="M3.58 18.1v-5.22h2.2l3.88 5.21h3.95l-4.67-6.28a5.79 5.79 0 0 0 2.14-6.5 5.66 5.66 0 0 0-5.44-4.03H.41V18.1h3.16Zm0-13.62h2.05c.68 0 1.34.27 1.82.76a2.62 2.62 0 0 1 0 3.69c-.48.48-1.14.76-1.82.76H3.58V4.48ZM56.36 14.91c-.3.2-.64.32-1 .32-.5 0-1.42-.38-1.42-1.65V7.82h2.57v-3.2h-2.57V1.28h-3.01v3.36h-1.58v3.2h1.58v5.8c0 3.01 2.23 4.8 4.47 4.8a6.16 6.16 0 0 0 2.95-.84l-1.99-2.69ZM31.61 10.94l5.17-6.3h-4.22l-3.61 4.69V.17h-3.1V18.1h3.1v-5.52l4.44 5.52h4.22l-6-7.15Z"/>
<path d="M63.32 4.3c-3.47 0-6 3.1-6 7.07 0 4.16 3.14 7.07 6.29 7.07 1.57 0 3.62-.55 5.33-3.02l-2.65-1.55c-2.06 3.07-5.48 1.51-5.88-1.56h8.68c.74-4.85-2.34-8.01-5.77-8.01Zm2.63 5.33h-5.42c.63-3.15 4.83-3.33 5.42 0ZM88.17 14.97v-3.44h-3.3V8.54h3.3V5.1h3.1v3.44h3.3v2.99h-3.3v3.44h-3.1Z"/>
</svg>
