<svg width="820" height="224" xmlns="http://www.w3.org/2000/svg" xmlns:svg="http://www.w3.org/2000/svg" fill="#FFF">
<path d="m543.7,190.61l-406.6,0l32.39,32.39l374.21,-32.39z" />
<path d="m174.77,59.61l0,4.9c-7.55,-4.81 -14.32,-7.61 -23.59,-7.61c-28.48,0 -50.13,25.98 -50.13,57.88s21.64,57.87 50.13,57.87c9.27,0 16.04,-2.79 23.59,-7.61l0,4.89l25.04,0l0,-110.32l-25.04,0zm-23.59,86.47c-14.04,0 -24.33,-13.83 -24.33,-31.3s10.28,-31.29 24.33,-31.29s23.97,13.83 23.97,31.29s-9.91,31.3 -23.97,31.3z" />
<path d="m375.35,59.61l0,64.81c0,12.16 -8.35,22.42 -20.52,22.42s-20.52,-10.26 -20.52,-22.42l0,-64.81l-25.04,0l0,64.81c0,26.6 18.2,48.23 44.78,48.23c12.32,0 21.28,-6.81 21.28,-6.81l0,4.1l25.04,0l0,-110.33l-25.04,0l0.01,0l0.01,0z" />
<path d="m608.67,169.94l0,-64.81c0,-12.16 8.35,-22.42 20.52,-22.42s20.52,10.26 20.52,22.42l0,64.81l25.04,0l0,-64.81c0,-26.6 -18.2,-48.23 -44.78,-48.23c-12.32,0 -21.28,6.81 -21.28,6.81l0,-4.1l-25.04,0l0,110.33l25.04,0l-0.01,0l-0.01,0z" />
<path d="m28.88,169.94l0,-42.75l18.52,0l32.07,42.75l32.78,0l-38.75,-51.58c12.08,-8.67 20.01,-22.76 20.01,-38.73c0,-26.22 -21.32,-47.51 -47.54,-47.51l-43.28,0l0,137.82l26.19,0zm0,-111.66l17.09,0c11.76,0 21.37,9.56 21.37,21.35s-9.61,21.37 -21.37,21.37l-17.09,0l0,-42.73l0,0.01z" />
<path d="m467.88,143.83c-2.25,1.53 -5.09,2.71 -8.37,2.71c-4.09,0 -11.8,-3.13 -11.8,-13.53l0,-47.22l21.41,0l0,-26.19l-21.41,0l0,-27.48l-25.04,0l0,27.49l-13.25,0l0,26.19l13.25,0l0,47.59c0,24.63 18.55,39.36 37.23,39.36c6.95,0 16.62,-2.28 24.49,-6.94l-16.51,-21.96l0,0l0,-0.02z" />
<path d="m262.06,111.33l42.95,-51.72l-35.1,0l-30.04,38.43l0,-75.04l-25.78,0l0,146.94l25.78,0l0,-45.32l36.93,45.32l35.08,0l-49.82,-58.61z" />
<path d="m525.72,56.81c-28.98,0 -49.77,25.47 -49.77,57.96c0,34.17 26.1,57.97 52.26,57.97c13.21,0 30.13,-4.53 44.35,-24.69l-22.12,-12.77c-17.11,25.21 -45.61,12.41 -48.91,-12.8l72.12,0.02c6.17,-39.63 -19.45,-65.69 -47.94,-65.69l0.01,0zm21.86,43.72l-45.1,0c5.27,-25.84 40.22,-27.32 45.1,0z" />
<path d="m749.83,125.15l-40.64,0l0,-25.86l40.64,0l0,-41.13l26.84,0l0,41.13l40.64,0l0,25.86l-40.64,0l0,41.37l-26.84,0l0,-41.37z" />
</svg>
