<svg width="144" height="144" viewBox="0 0 144 144" fill="none" xmlns="http://www.w3.org/2000/svg">
<rect width="144" height="144" fill="white"/>
<circle cx="72" cy="71.9999" r="58.9091" fill="#536DFE" fill-opacity="0.2"/>
<path d="M95.968 61.1512C93.4979 61.1512 91.4983 59.147 91.4983 56.6769V32.9347C91.4983 23.3166 83.6717 15.4899 74.0535 15.4899H69.4842C59.8661 15.4899 52.0395 23.3166 52.0395 32.9347V56.6769C52.0395 59.147 50.0399 61.1512 47.5652 61.1512C45.0951 61.1512 43.0909 59.147 43.0909 56.6769V32.9347C43.0954 18.3853 54.9349 6.5459 69.4842 6.5459H74.049C88.5984 6.5459 100.438 18.3853 100.438 32.9347V56.6769C100.438 59.147 98.4382 61.1512 95.968 61.1512Z" fill="#004FC4"/>
<g filter="url(#filter0_d_5858_9055)">
<path d="M111.218 103.757C111.218 107.991 107.784 111.425 103.549 111.425H40.941C36.7065 111.421 33.2727 107.991 33.2727 103.757V51.305C33.2727 47.0705 36.7065 43.6367 40.941 43.6367H103.549C107.784 43.6367 111.218 47.0705 111.218 51.305V103.757Z" fill="url(#paint0_linear_5858_9055)"/>
</g>
<circle opacity="0.378185" cx="72" cy="77.4543" r="26.1818" fill="#E6E6E6"/>
<g filter="url(#filter1_d_5858_9055)">
<circle cx="90.9439" cy="77.2882" r="24" transform="rotate(8 90.9439 77.2882)" fill="white"/>
</g>
<path fill-rule="evenodd" clip-rule="evenodd" d="M93.8933 57.6487C82.9607 56.1122 72.8409 63.738 71.3044 74.6706C69.768 85.6032 77.3938 95.723 88.3263 97.2594C99.2589 98.7959 109.379 91.1701 110.915 80.2375C112.452 69.305 104.826 59.1852 93.8933 57.6487ZM91.1417 91.5964L87.1806 91.0397L87.7373 87.0786L91.6984 87.6353L91.1417 91.5964ZM95.3599 78.3948L97.3985 76.8232C98.686 75.853 99.6217 74.3688 99.8667 72.6259C100.482 68.2489 97.4349 64.2055 93.0579 63.5903C88.6809 62.9752 84.6375 66.0221 84.0224 70.3991L87.9834 70.9558C88.2896 68.7772 90.3226 67.2452 92.5012 67.5514C94.6798 67.8576 96.2118 69.8906 95.9056 72.0692C95.7525 73.1585 95.1776 74.0875 94.3446 74.6975L91.538 76.8478C89.9088 78.0932 88.7392 79.9485 88.4331 82.1271L88.2939 83.1174L92.255 83.6741C92.6725 80.7033 93.7307 79.6402 95.3599 78.3948Z" fill="#B4C8FF"/>
<path fill-rule="evenodd" clip-rule="evenodd" d="M97.597 52.4216C97.2621 52.3201 96.9327 52.3548 96.6644 52.497C96.3632 52.6537 96.1349 52.9456 96.0591 53.3236L94.8907 59.0946C94.7426 59.8136 95.196 60.5742 95.8965 60.7931C96.6033 61.0139 97.29 60.6078 97.4343 59.8911L98.6027 54.1201C98.7509 53.4011 98.2974 52.6405 97.597 52.4216ZM66.6024 91.0575C66.3397 90.9052 66.136 90.6441 66.0448 90.3063C65.8597 89.5962 66.2649 88.8088 66.9534 88.5538L72.4678 86.4899C73.1523 86.233 73.8603 86.6006 74.0472 87.3171C74.2323 88.0272 73.8271 88.8146 73.1387 89.0695L67.6242 91.1334C67.2634 91.2693 66.8949 91.2301 66.6024 91.0575ZM106.055 91.7031C106.036 91.4 106.141 91.0858 106.372 90.8229C106.861 90.2757 107.741 90.1775 108.335 90.6098L113.105 94.0607C113.698 94.4886 113.784 95.2817 113.29 95.834C112.801 96.3811 111.921 96.4793 111.328 96.047L106.557 92.5962C106.244 92.3708 106.073 92.0422 106.055 91.7031Z" fill="#FF5C5C"/>
<defs>
<filter id="filter0_d_5858_9055" x="28.2727" y="41.6367" width="87.9449" height="77.7881" filterUnits="userSpaceOnUse" color-interpolation-filters="sRGB">
<feFlood flood-opacity="0" result="BackgroundImageFix"/>
<feColorMatrix in="SourceAlpha" type="matrix" values="0 0 0 0 0 0 0 0 0 0 0 0 0 0 0 0 0 0 127 0" result="hardAlpha"/>
<feOffset dy="3"/>
<feGaussianBlur stdDeviation="2.5"/>
<feColorMatrix type="matrix" values="0 0 0 0 0.164706 0 0 0 0 0.243137 0 0 0 0 0.321569 0 0 0 0.12 0"/>
<feBlend mode="normal" in2="BackgroundImageFix" result="effect1_dropShadow_5858_9055"/>
<feBlend mode="normal" in="SourceGraphic" in2="effect1_dropShadow_5858_9055" result="shape"/>
</filter>
<filter id="filter1_d_5858_9055" x="64.5891" y="52.1092" width="52.7097" height="52.7096" filterUnits="userSpaceOnUse" color-interpolation-filters="sRGB">
<feFlood flood-opacity="0" result="BackgroundImageFix"/>
<feColorMatrix in="SourceAlpha" type="matrix" values="0 0 0 0 0 0 0 0 0 0 0 0 0 0 0 0 0 0 127 0" result="hardAlpha"/>
<feOffset dy="1.17593"/>
<feGaussianBlur stdDeviation="1.17593"/>
<feColorMatrix type="matrix" values="0 0 0 0 0.054902 0 0 0 0 0.117647 0 0 0 0 0.243137 0 0 0 0.08 0"/>
<feBlend mode="normal" in2="BackgroundImageFix" result="effect1_dropShadow_5858_9055"/>
<feBlend mode="normal" in="SourceGraphic" in2="effect1_dropShadow_5858_9055" result="shape"/>
</filter>
<linearGradient id="paint0_linear_5858_9055" x1="33.2727" y1="43.6367" x2="33.2727" y2="111.425" gradientUnits="userSpaceOnUse">
<stop stop-color="#5B8DEF"/>
<stop offset="1" stop-color="#0063F7"/>
</linearGradient>
</defs>
</svg>
