<svg width="24" height="24" viewBox="0 0 24 24" fill="none" xmlns="http://www.w3.org/2000/svg">
<path fill-rule="evenodd" clip-rule="evenodd" d="M9.9053 22V13.502H7V10.125H9.9053V7.46426C9.9053 4.57344 11.7083 3 14.3409 3C15.6023 3 16.6856 3.09277 17 3.13359V6.1543H15.1742C13.7424 6.1543 13.4659 6.82227 13.4659 7.79824V10.125H16.697L16.2538 13.502H13.4659V22" fill="#1877F2"/>
<path d="M9.9053 22V13.502H7V10.125H9.9053V7.46426C9.9053 4.57344 11.7083 3 14.3409 3C15.6023 3 16.6856 3.09277 17 3.13359V6.1543H15.1742C13.7424 6.1543 13.4659 6.82227 13.4659 7.79824V10.125H16.697L16.2538 13.502H13.4659V22" fill="white"/>
</svg>
