<svg width="16" height="16" viewBox="0 0 16 16" fill="none" xmlns="http://www.w3.org/2000/svg">
<path fill-rule="evenodd" clip-rule="evenodd" d="M1.33337 8.00065C1.33337 4.32065 4.32004 1.33398 8.00004 1.33398C11.68 1.33398 14.6667 4.32065 14.6667 8.00065C14.6667 11.6807 11.68 14.6673 8.00004 14.6673C4.32004 14.6673 1.33337 11.6807 1.33337 8.00065ZM8.66671 7.33398V11.334H7.33337V7.33398H8.66671ZM8.00004 13.334C5.06004 13.334 2.66671 10.9407 2.66671 8.00065C2.66671 5.06065 5.06004 2.66732 8.00004 2.66732C10.94 2.66732 13.3334 5.06065 13.3334 8.00065C13.3334 10.9407 10.94 13.334 8.00004 13.334ZM8.66671 4.66732V6.00065H7.33337V4.66732H8.66671Z" fill="#9E9E9E"/>
</svg>
