<svg width="20" height="20" viewBox="0 0 20 20" fill="none" xmlns="http://www.w3.org/2000/svg">
<g id="Icon/insights-graph">
<path id="Combined Shape" fill-rule="evenodd" clip-rule="evenodd" d="M9.16667 14.9993H10.8333C11.2933 14.9993 11.6667 14.626 11.6667 14.166V2.49935C11.6667 2.03935 11.2933 1.66602 10.8333 1.66602H9.16667C8.70667 1.66602 8.33333 2.03935 8.33333 2.49935V14.166C8.33333 14.626 8.70667 14.9993 9.16667 14.9993ZM5 14.9993H3.33333C2.87333 14.9993 2.5 14.626 2.5 14.166V6.66602C2.5 6.20602 2.87333 5.83268 3.33333 5.83268H5C5.46 5.83268 5.83333 6.20602 5.83333 6.66602V14.166C5.83333 14.626 5.46 14.9993 5 14.9993ZM20 16.666H0V18.3327H20V16.666ZM14.1667 14.166V9.99935C14.1667 9.53935 14.54 9.16602 15 9.16602H16.6667C17.1267 9.16602 17.5 9.53935 17.5 9.99935V14.166C17.5 14.626 17.1267 14.9993 16.6667 14.9993H15C14.54 14.9993 14.1667 14.626 14.1667 14.166Z" fill="black" fill-opacity="0.6"/>
</g>
</svg>
