<svg width="264" height="264" viewBox="0 0 264 264" fill="none" xmlns="http://www.w3.org/2000/svg">
<rect width="264" height="264" fill="none"/>
<circle cx="132" cy="132" r="108" fill="#536DFE" fill-opacity="0.2"/>
<path d="M54.8577 101.636L41.4259 132.315C21.5681 123.158 8.91398 104.594 6.4469 84.2585L39.7174 80.5599C40.9286 89.8447 46.7744 97.6691 54.8577 101.636Z" fill="#FF5C5C"/>
<path d="M122.756 101.419C109.407 131.9 74.1544 145.968 43.5741 133.252L57.0123 102.573C60.0914 103.772 63.4446 104.429 66.9444 104.429C82.1102 104.429 94.401 92.1276 94.401 76.9569C94.401 66.4414 88.4979 57.3032 79.8217 52.6927L93.2727 21.9879C122.776 36.1191 135.978 71.2177 122.756 101.419Z" fill="#004FC4"/>
<path d="M91.1314 21.025L77.7059 51.6852C74.4037 50.2759 70.7636 49.4915 66.9451 49.4915C51.7793 49.4915 39.4821 61.7926 39.4821 76.9633C39.4821 77.3842 39.4949 77.805 39.514 78.2195L6.20524 81.9309C5.40201 72.1806 6.93835 62.0987 11.133 52.5078C24.5968 21.7583 60.3598 7.70995 91.1314 21.025Z" fill="url(#paint0_linear)"/>
<g filter="url(#filter0_d)">
<path d="M30 80C30 73.3726 35.3726 68 42 68H234C240.627 68 246 73.3726 246 80V200C246 206.627 240.627 212 234 212H42C35.3726 212 30 206.627 30 200V80Z" fill="white"/>
</g>
<path fill-rule="evenodd" clip-rule="evenodd" d="M41.9517 76.0003C44.1605 75.9743 45.9737 77.7424 45.9997 79.9508C46.0275 82.161 44.259 83.9719 42.0501 83.9997C39.8394 84.0257 38.0281 82.2576 38.0003 80.0492C37.9743 77.839 39.7428 76.0281 41.9517 76.0003ZM52.619 76.0003C54.8278 75.9743 56.641 77.7424 56.667 79.9508C56.6948 82.161 54.9263 83.9719 52.7174 83.9997C50.5067 84.0257 48.6954 82.2576 48.6676 80.0492C48.6416 77.839 50.4101 76.0281 52.619 76.0003ZM67.3337 79.9508C67.3077 77.7424 65.4945 75.9743 63.2857 76.0003C61.0768 76.0281 59.3083 77.839 59.3343 80.0492C59.3621 82.2576 61.1734 84.0257 63.3841 83.9997C65.593 83.9719 67.3615 82.161 67.3337 79.9508Z" fill="#D9D9D9"/>
<path d="M65.8871 100H57C54.7909 100 53 101.791 53 104V191.934C53 194.144 54.7909 195.934 57 195.934H65.8871C68.0962 195.934 69.8871 194.144 69.8871 191.934V104C69.8871 101.791 68.0962 100 65.8871 100Z" fill="#D9D9D9"/>
<path d="M65.8871 171.951H57C54.7909 171.951 53 173.742 53 175.951V191.934C53 194.144 54.7909 195.934 57 195.934H65.8871C68.0962 195.934 69.8871 194.144 69.8871 191.934V175.951C69.8871 173.742 68.0962 171.951 65.8871 171.951Z" fill="#3CC196"/>
<path d="M91.4695 100H82.576C80.3669 100 78.576 101.791 78.576 104V191.934C78.576 194.144 80.3669 195.934 82.576 195.934H91.4695C93.6786 195.934 95.4695 194.144 95.4695 191.934V104C95.4695 101.791 93.6786 100 91.4695 100Z" fill="#D9D9D9"/>
<path d="M91.4695 160.064H82.576C80.3669 160.064 78.576 161.855 78.576 164.064V191.934C78.576 194.144 80.3669 195.934 82.576 195.934H91.4695C93.6786 195.934 95.4695 194.144 95.4695 191.934V164.064C95.4695 161.855 93.6786 160.064 91.4695 160.064Z" fill="#3CC196"/>
<path d="M117.045 100H108.152C105.943 100 104.152 101.791 104.152 104V191.934C104.152 194.144 105.943 195.934 108.152 195.934H117.045C119.255 195.934 121.045 194.144 121.045 191.934V104C121.045 101.791 119.255 100 117.045 100Z" fill="#D9D9D9"/>
<path d="M117.039 136.081H108.152C105.943 136.081 104.152 137.871 104.152 140.081V191.934C104.152 194.144 105.943 195.934 108.152 195.934H117.039C119.248 195.934 121.039 194.144 121.039 191.934V140.081C121.039 137.871 119.248 136.081 117.039 136.081Z" fill="#3CC196"/>
<path d="M142.615 100H133.728C131.519 100 129.728 101.791 129.728 104V191.934C129.728 194.144 131.519 195.934 133.728 195.934H142.615C144.824 195.934 146.615 194.144 146.615 191.934V104C146.615 101.791 144.824 100 142.615 100Z" fill="#D9D9D9"/>
<path d="M142.615 147.967H133.728C131.519 147.967 129.728 149.758 129.728 151.967V191.934C129.728 194.143 131.519 195.934 133.728 195.934H142.615C144.824 195.934 146.615 194.143 146.615 191.934V151.967C146.615 149.758 144.824 147.967 142.615 147.967Z" fill="#3CC196"/>
<path d="M168.204 100H159.31C157.101 100 155.31 101.791 155.31 104V191.934C155.31 194.144 157.101 195.934 159.31 195.934H168.204C170.413 195.934 172.204 194.144 172.204 191.934V104C172.204 101.791 170.413 100 168.204 100Z" fill="#D9D9D9"/>
<path d="M168.204 123.984H159.31C157.101 123.984 155.31 125.774 155.31 127.984V191.934C155.31 194.144 157.101 195.934 159.31 195.934H168.204C170.413 195.934 172.204 194.143 172.204 191.934V127.984C172.204 125.774 170.413 123.984 168.204 123.984Z" fill="#3CC196"/>
<path d="M193.774 100H184.886C182.677 100 180.886 101.791 180.886 104V191.934C180.886 194.144 182.677 195.934 184.886 195.934H193.774C195.983 195.934 197.774 194.144 197.774 191.934V104C197.774 101.791 195.983 100 193.774 100Z" fill="#3CC196"/>
<path d="M219.349 100H210.462C208.253 100 206.462 101.791 206.462 104V191.934C206.462 194.144 208.253 195.934 210.462 195.934H219.349C221.559 195.934 223.349 194.144 223.349 191.934V104C223.349 101.791 221.559 100 219.349 100Z" fill="#D9D9D9"/>
<path d="M219.349 117.046H210.462C208.253 117.046 206.462 118.836 206.462 121.046V191.934C206.462 194.144 208.253 195.934 210.462 195.934H219.349C221.559 195.934 223.349 194.144 223.349 191.934V121.046C223.349 118.836 221.559 117.046 219.349 117.046Z" fill="#3CC196"/>
<path d="M65.8871 171.951H57C54.7909 171.951 53 173.742 53 175.951V191.934C53 194.144 54.7909 195.934 57 195.934H65.8871C68.0962 195.934 69.8871 194.144 69.8871 191.934V175.951C69.8871 173.742 68.0962 171.951 65.8871 171.951Z" fill="#3CC196"/>
<path d="M117.039 136.081H108.152C105.943 136.081 104.152 137.871 104.152 140.081V191.934C104.152 194.143 105.943 195.934 108.152 195.934H117.039C119.248 195.934 121.039 194.143 121.039 191.934V140.081C121.039 137.871 119.248 136.081 117.039 136.081Z" fill="#3CC196"/>
<path d="M142.615 147.967H133.728C131.519 147.967 129.728 149.758 129.728 151.967V191.934C129.728 194.143 131.519 195.934 133.728 195.934H142.615C144.824 195.934 146.615 194.143 146.615 191.934V151.967C146.615 149.758 144.824 147.967 142.615 147.967Z" fill="#3CC196"/>
<path d="M168.204 123.984H159.31C157.101 123.984 155.31 125.774 155.31 127.984V191.934C155.31 194.144 157.101 195.934 159.31 195.934H168.204C170.413 195.934 172.204 194.143 172.204 191.934V127.984C172.204 125.774 170.413 123.984 168.204 123.984Z" fill="#3CC196"/>
<path d="M253.112 248H216.447C212.887 248 210 244.949 210 241.186V205.167C210 202.313 212.187 200 214.888 200H253.112C255.811 200 258 202.313 258 205.167V242.835C258 245.687 255.811 248 253.112 248Z" fill="#FFCC00"/>
<path fill-rule="evenodd" clip-rule="evenodd" d="M247.935 221.6C248.361 221.6 248.853 221.915 248.902 222.338L248.901 222.338C249.027 223.468 249.027 224.607 248.901 225.737C248.847 226.176 248.463 226.498 248.021 226.475H247.836C246.454 226.454 245.206 227.296 244.708 228.584C244.21 229.873 244.568 231.336 245.604 232.25C245.931 232.549 245.968 233.049 245.69 233.393C244.975 234.282 244.162 235.087 243.267 235.793C242.923 236.063 242.43 236.022 242.136 235.7C241.182 234.702 239.725 234.365 238.43 234.845C237.146 235.378 236.329 236.654 236.382 238.043C236.397 238.481 236.073 238.856 235.638 238.904C235.091 238.967 234.541 238.998 233.99 238.996C233.414 238.996 232.836 238.964 232.263 238.898C231.823 238.845 231.501 238.461 231.525 238.019C231.607 236.614 230.796 235.311 229.5 234.764C228.194 234.264 226.718 234.599 225.756 235.613C225.458 235.939 224.956 235.978 224.613 235.7C223.733 234.993 222.937 234.187 222.24 233.3C221.968 232.957 222.009 232.461 222.332 232.165C223.357 231.225 223.691 229.748 223.169 228.458C222.661 227.205 221.438 226.389 220.086 226.4C219.657 226.4 219.146 226.1 219.108 225.662C218.976 224.53 218.976 223.386 219.108 222.254C219.149 221.815 219.532 221.489 219.971 221.516C221.366 221.561 222.653 220.768 223.236 219.5C223.779 218.197 223.438 216.692 222.387 215.75C222.063 215.45 222.026 214.952 222.3 214.608C223.014 213.717 223.827 212.912 224.723 212.208C225.067 211.937 225.56 211.978 225.855 212.3C226.815 213.294 228.273 213.624 229.569 213.143C230.855 212.611 231.674 211.336 231.623 209.945C231.612 209.51 231.935 209.138 232.367 209.09C233.489 208.967 234.62 208.971 235.74 209.099C236.178 209.152 236.502 209.537 236.478 209.979C236.4 211.381 237.208 212.683 238.5 213.236C239.802 213.737 241.277 213.404 242.238 212.393C242.535 212.064 243.035 212.025 243.381 212.3C244.261 213.009 245.059 213.814 245.76 214.7C246.034 215.045 245.993 215.541 245.667 215.837C244.635 216.757 244.285 218.223 244.792 219.509C245.298 220.796 246.553 221.63 247.935 221.6ZM230.488 227.566C231.425 228.505 232.698 229.031 234.023 229.031L234.023 229.031C235.35 229.03 236.621 228.502 237.559 227.565C238.496 226.627 239.024 225.356 239.025 224.031C239.025 222.704 238.497 221.431 237.56 220.494C236.623 219.556 235.35 219.029 234.023 219.029C232.698 219.029 231.425 219.556 230.488 220.494C229.55 221.431 229.023 222.704 229.023 224.031C229.023 225.356 229.55 226.629 230.488 227.566Z" fill="white"/>
<defs>
<filter id="filter0_d" x="25.6882" y="65.8441" width="224.624" height="152.624" filterUnits="userSpaceOnUse" color-interpolation-filters="sRGB">
<feFlood flood-opacity="0" result="BackgroundImageFix"/>
<feColorMatrix in="SourceAlpha" type="matrix" values="0 0 0 0 0 0 0 0 0 0 0 0 0 0 0 0 0 0 127 0"/>
<feOffset dy="2.15588"/>
<feGaussianBlur stdDeviation="2.15588"/>
<feColorMatrix type="matrix" values="0 0 0 0 0.054902 0 0 0 0 0.117647 0 0 0 0 0.243137 0 0 0 0.08 0"/>
<feBlend mode="normal" in2="BackgroundImageFix" result="effect1_dropShadow"/>
<feBlend mode="normal" in="SourceGraphic" in2="effect1_dropShadow" result="shape"/>
</filter>
<linearGradient id="paint0_linear" x1="6" y1="16" x2="6" y2="81.9309" gradientUnits="userSpaceOnUse">
<stop stop-color="#5B8DEF"/>
<stop offset="1" stop-color="#0063F7"/>
</linearGradient>
</defs>
</svg>
