<svg width="20" height="20" viewBox="0 0 20 20" fill="none" xmlns="http://www.w3.org/2000/svg">
<path fill-rule="evenodd" clip-rule="evenodd" d="M9.16667 15.0001H10.8333C11.2933 15.0001 11.6667 14.6267 11.6667 14.1667V2.50008C11.6667 2.04008 11.2933 1.66675 10.8333 1.66675H9.16667C8.70667 1.66675 8.33333 2.04008 8.33333 2.50008V14.1667C8.33333 14.6267 8.70667 15.0001 9.16667 15.0001ZM5 15.0001H3.33333C2.87333 15.0001 2.5 14.6267 2.5 14.1667V6.66675C2.5 6.20675 2.87333 5.83342 3.33333 5.83342H5C5.46 5.83342 5.83333 6.20675 5.83333 6.66675V14.1667C5.83333 14.6267 5.46 15.0001 5 15.0001ZM20 16.6667H0V18.3334H20V16.6667ZM14.1667 14.1667V10.0001C14.1667 9.54008 14.54 9.16675 15 9.16675H16.6667C17.1267 9.16675 17.5 9.54008 17.5 10.0001V14.1667C17.5 14.6267 17.1267 15.0001 16.6667 15.0001H15C14.54 15.0001 14.1667 14.6267 14.1667 14.1667Z" fill="white"/>
</svg>
