<svg width="32" height="32" viewBox="0 0 32 32" fill="none" xmlns="http://www.w3.org/2000/svg">
    <path fill-rule="evenodd" clip-rule="evenodd" d="M5.20657 8.56415C7.02966 8.87446 8.62002 7.98231 9.00791 6.43075C9.51217 4.37492 8.07697 2.62941 5.90478 2.6682C4.46958 2.62941 3.34469 3.32762 2.87923 4.49129C2.18102 6.35317 3.26712 8.25384 5.20657 8.56415ZM28.9068 28.1526C27.2776 28.1139 25.6873 28.1139 24.0581 28.1526C23.709 28.1526 23.6314 28.0751 23.6314 27.726V19.076C23.6314 18.4166 23.5926 17.7572 23.3987 17.1365C22.8169 15.1195 20.4895 14.3825 18.8216 15.7401C17.9294 16.4383 17.5803 17.4081 17.5803 18.5717V26.7175C17.5803 26.8324 17.5761 26.9474 17.5719 27.0637C17.5632 27.3007 17.5543 27.5434 17.5803 27.8035C17.6191 28.1139 17.464 28.1914 17.1924 28.1526H12.2274C11.9171 28.1526 11.8395 28.0751 11.8395 27.7648C11.8783 25.321 11.8783 22.8773 11.8783 20.3948C11.8783 17.3693 11.8783 14.3437 11.8395 11.357C11.8395 11.0079 11.9171 10.9303 12.2274 10.9303H17.1924C17.5027 10.9303 17.5803 11.0079 17.5803 11.3182V13.2964L17.7743 13.1025C19.287 10.8915 21.4204 10.2709 23.9417 10.6588C26.8509 11.1242 28.7128 13.1412 29.1783 16.2444C29.2946 16.9814 29.3334 17.7184 29.3334 18.4554V27.726C29.3334 28.0363 29.2559 28.1526 28.9068 28.1526ZM8.73635 19.5415V27.6872C8.73635 28.0363 8.65877 28.1526 8.30967 28.1526C7.22357 28.1268 6.13748 28.1354 5.05138 28.144C4.50833 28.1483 3.96528 28.1526 3.42224 28.1526C3.11192 28.1526 3.03434 28.0751 3.03434 27.7648V11.3182C3.03434 11.0467 3.11192 10.9303 3.42224 10.9303H8.42604C8.77514 10.9303 8.81393 11.0467 8.81393 11.357C8.73635 14.0722 8.73635 16.7874 8.73635 19.5415Z" fill="#0077B5"/>
    <path fill-rule="evenodd" clip-rule="evenodd" d="M5.20657 8.56415C7.02966 8.87446 8.62002 7.98231 9.00791 6.43075C9.51217 4.37492 8.07697 2.62941 5.90478 2.6682C4.46958 2.62941 3.34469 3.32762 2.87923 4.49129C2.18102 6.35317 3.26712 8.25384 5.20657 8.56415ZM28.9068 28.1526C27.2776 28.1139 25.6873 28.1139 24.0581 28.1526C23.709 28.1526 23.6314 28.0751 23.6314 27.726V19.076C23.6314 18.4166 23.5926 17.7572 23.3987 17.1365C22.8169 15.1195 20.4895 14.3825 18.8216 15.7401C17.9294 16.4383 17.5803 17.4081 17.5803 18.5717V26.7175C17.5803 26.8324 17.5761 26.9474 17.5719 27.0637C17.5632 27.3007 17.5543 27.5434 17.5803 27.8035C17.6191 28.1139 17.464 28.1914 17.1924 28.1526H12.2274C11.9171 28.1526 11.8395 28.0751 11.8395 27.7648C11.8783 25.321 11.8783 22.8773 11.8783 20.3948C11.8783 17.3693 11.8783 14.3437 11.8395 11.357C11.8395 11.0079 11.9171 10.9303 12.2274 10.9303H17.1924C17.5027 10.9303 17.5803 11.0079 17.5803 11.3182V13.2964L17.7743 13.1025C19.287 10.8915 21.4204 10.2709 23.9417 10.6588C26.8509 11.1242 28.7128 13.1412 29.1783 16.2444C29.2946 16.9814 29.3334 17.7184 29.3334 18.4554V27.726C29.3334 28.0363 29.2559 28.1526 28.9068 28.1526ZM8.73635 19.5415V27.6872C8.73635 28.0363 8.65877 28.1526 8.30967 28.1526C7.22357 28.1268 6.13748 28.1354 5.05138 28.144C4.50833 28.1483 3.96528 28.1526 3.42224 28.1526C3.11192 28.1526 3.03434 28.0751 3.03434 27.7648V11.3182C3.03434 11.0467 3.11192 10.9303 3.42224 10.9303H8.42604C8.77514 10.9303 8.81393 11.0467 8.81393 11.357C8.73635 14.0722 8.73635 16.7874 8.73635 19.5415Z" fill="white"/>
</svg>
