<svg width="32" height="32" viewBox="0 0 32 32" fill="none" xmlns="http://www.w3.org/2000/svg">
<path fill-rule="evenodd" clip-rule="evenodd" d="M25.5999 7.06693C23.5381 7.06693 21.8666 8.7384 21.8666 10.8003H21.8665V14.0142L21.8694 14.0142H22.4546C23.5472 14.0142 24.4361 14.8985 24.4361 15.9911V24.6799C24.4389 25.7734 23.5518 26.6595 22.4592 26.6595L10.138 26.6669C9.04545 26.6669 8.15656 25.7799 8.15656 24.6873V16.0004C8.15376 14.9078 9.0408 14.0217 10.1334 14.0189L10.3417 14.018L19.7332 14.0149V10.667H19.7347C19.8056 7.48847 22.4044 4.93359 25.5999 4.93359C28.84 4.93359 31.4666 7.56019 31.4666 10.8003H29.3332C29.3332 8.7384 27.6618 7.06693 25.5999 7.06693Z" fill="#B4C8FF"/>
</svg>
