<svg width="32" height="32" viewBox="0 0 32 32" fill="none" xmlns="http://www.w3.org/2000/svg">
<path fill-rule="evenodd" clip-rule="evenodd" d="M21.8693 14.0135H22.4545L22.4545 14.0136C23.5471 14.0136 24.436 14.8978 24.436 15.9904V24.6793C24.4388 25.7728 23.5518 26.6589 22.4592 26.6589L10.138 26.6663C9.04539 26.6663 8.1565 25.7793 8.1565 24.6867V15.9997C8.1537 14.9072 9.04074 14.021 10.1333 14.0183L10.3417 14.0173L10.337 11.0996C10.3352 7.92193 12.9212 5.33579 16.0999 5.33301C19.2776 5.3304 21.8638 7.91648 21.8665 11.0951L21.8693 14.0135ZM12.4609 11.1005L12.4655 14.0182L19.7452 14.0137L19.7405 11.096C19.7405 9.09032 18.1073 7.45699 16.0999 7.45699C14.0915 7.45983 12.4609 9.09306 12.4609 11.1005Z" fill="#B4C8FF"/>
</svg>
