<svg width="12" height="12" viewBox="0 0 12 12" fill="none" xmlns="http://www.w3.org/2000/svg">
<g id="Icon/lock">
<path id="Shape" fill-rule="evenodd" clip-rule="evenodd" d="M8.20102 5.2552H8.42047L8.42048 5.25522C8.8302 5.25522 9.16354 5.58682 9.16354 5.99654V9.25485C9.16459 9.66492 8.83195 9.99722 8.42222 9.99722L3.80178 9.99999C3.39205 9.99999 3.05872 9.66735 3.05872 9.25763V6.00003C3.05767 5.5903 3.39031 5.25801 3.80004 5.25697L3.87816 5.25662L3.87643 4.16249C3.87571 2.97085 4.84549 2.00104 6.03749 2C7.22914 1.99902 8.19894 2.9688 8.19998 4.1608L8.20102 5.2552ZM4.67287 4.1628L4.67461 5.25694L7.40447 5.25525L7.40274 4.16112C7.40274 3.40899 6.79027 2.79649 6.03749 2.79649C5.28433 2.79756 4.67287 3.41002 4.67287 4.1628Z" fill="#9E9E9E"/>
</g>
</svg>
