<svg width="24" height="24" viewBox="0 0 24 24" fill="none" xmlns="http://www.w3.org/2000/svg">
<path fill-rule="evenodd" clip-rule="evenodd" d="M19.1999 5.29995C17.6535 5.29995 16.3999 6.55355 16.3999 8.09995H16.3998V10.5104L16.402 10.5104H16.8409C17.6604 10.5104 18.3271 11.1736 18.3271 11.9931V18.5097C18.3292 19.3298 17.6639 19.9944 16.8444 19.9944L7.60355 20C6.7841 20 6.11744 19.3347 6.11744 18.5152V12C6.11534 11.1806 6.78062 10.516 7.60007 10.5139L7.75632 10.5132L14.7998 10.5109V8H14.801C14.8541 5.61611 16.8032 3.69995 19.1999 3.69995C21.6299 3.69995 23.5999 5.6699 23.5999 8.09995H21.9999C21.9999 6.55355 20.7463 5.29995 19.1999 5.29995Z" fill="#9E9E9E"/>
</svg>
