<svg width="86" height="24" viewBox="0 0 86 24" fill="none" xmlns="http://www.w3.org/2000/svg">
<g filter="url(#filter0_d_1087_37314)">
<path d="M11.9608 23.1893L11.4671 22.9898C7.29838 21.4182 4.42726 18.8082 2.68271 15.4638C1.77184 13.7176 1.21463 11.8587 0.94277 9.97197C0.755967 8.67551 0.722651 7.52145 0.77834 6.58939C0.783252 6.50718 0.788569 6.43379 0.794017 6.36941C0.797585 6.32725 0.800159 6.30045 0.802916 6.27389L0.920217 5.32388L1.5458 5.16351L1.82233 5.09263C4.65003 4.35386 6.94743 3.47305 8.75943 2.52791C9.40866 2.18927 9.95372 1.86341 10.3996 1.56036C10.563 1.44926 10.7039 1.3474 10.8224 1.25633C10.9031 1.19437 10.9638 1.14484 10.9992 1.114C11.5517 0.630604 12.364 0.62932 12.9179 1.11015C12.96 1.14615 13.0198 1.19468 13.0994 1.25566C13.2189 1.34729 13.36 1.44918 13.5235 1.56025C13.9702 1.86374 14.515 2.18946 15.1637 2.52797C16.9756 3.47333 19.2718 4.35394 22.095 5.09154L23.0013 5.32388L23.1177 6.26467C23.1214 6.30045 23.1239 6.32725 23.1275 6.36941C23.133 6.43379 23.1383 6.50718 23.1432 6.58939C23.1989 7.52145 23.1656 8.67551 22.9788 9.97197C22.7069 11.8587 22.1497 13.7176 21.2388 15.4638C19.4943 18.8082 16.6232 21.4182 12.4544 22.9898L11.9608 23.1893Z" fill="white"/>
</g>
<mask id="mask0_1087_37314" style="mask-type:luminance" maskUnits="userSpaceOnUse" x="0" y="0" width="24" height="24">
<path d="M11.9608 23.1893L11.4671 22.9898C7.29838 21.4182 4.42726 18.8082 2.68271 15.4638C1.77184 13.7176 1.21463 11.8587 0.94277 9.97197C0.755967 8.67551 0.722651 7.52145 0.77834 6.58939C0.783252 6.50718 0.788569 6.43379 0.794017 6.36941C0.797585 6.32725 0.800159 6.30045 0.802916 6.27389L0.920217 5.32388L1.5458 5.16351L1.82233 5.09263C4.65003 4.35386 6.94743 3.47305 8.75943 2.52791C9.40866 2.18927 9.95372 1.86341 10.3996 1.56036C10.563 1.44926 10.7039 1.3474 10.8224 1.25633C10.9031 1.19437 10.9638 1.14484 10.9992 1.114C11.5517 0.630604 12.364 0.62932 12.9179 1.11015C12.96 1.14615 13.0198 1.19468 13.0994 1.25566C13.2189 1.34729 13.36 1.44918 13.5235 1.56025C13.9702 1.86374 14.515 2.18946 15.1637 2.52797C16.9756 3.47333 19.2718 4.35394 22.095 5.09154L23.0013 5.32388L23.1177 6.26467C23.1214 6.30045 23.1239 6.32725 23.1275 6.36941C23.133 6.43379 23.1383 6.50718 23.1432 6.58939C23.1989 7.52145 23.1656 8.67551 22.9788 9.97197C22.7069 11.8587 22.1497 13.7176 21.2388 15.4638C19.4943 18.8082 16.6232 21.4182 12.4544 22.9898L11.9608 23.1893Z" fill="white"/>
</mask>
<g mask="url(#mask0_1087_37314)">
<path fill-rule="evenodd" clip-rule="evenodd" d="M11.9805 22.1576L22.1977 6.0874L32.6878 13.8904L19.6707 27.7236L11.9805 22.1576Z" fill="url(#paint0_linear_1087_37314)"/>
</g>
<path d="M22.1762 6.37097C22.1883 6.48692 23.3915 17.8625 12.1093 22.1088L11.9609 22.1688L11.8125 22.1088C0.5304 17.8625 1.73361 6.48692 1.74565 6.37097L1.78174 6.07908L2.06249 6.00711C8.62803 4.29178 11.3393 2.07265 11.624 1.82475C11.8206 1.65282 12.1013 1.65282 12.2978 1.82475C12.5866 2.07265 15.2938 4.29178 21.8594 6.00711L22.1401 6.07908L22.1762 6.37097Z" fill="#FF5252"/>
<mask id="mask1_1087_37314" style="mask-type:luminance" maskUnits="userSpaceOnUse" x="1" y="1" width="22" height="22">
<path d="M22.1762 6.37097C22.1883 6.48692 23.3915 17.8625 12.1093 22.1088L11.9609 22.1688L11.8125 22.1088C0.5304 17.8625 1.73361 6.48692 1.74565 6.37097L1.78174 6.07908L2.06249 6.00711C8.62803 4.29178 11.3393 2.07265 11.624 1.82475C11.8206 1.65282 12.1013 1.65282 12.2978 1.82475C12.5866 2.07265 15.2938 4.29178 21.8594 6.00711L22.1401 6.07908L22.1762 6.37097Z" fill="white"/>
</mask>
<g mask="url(#mask1_1087_37314)">
<path fill-rule="evenodd" clip-rule="evenodd" d="M15.1728 15.2933C17.0716 13.3945 17.0748 10.319 15.1799 8.42409C15.1438 8.38799 15.1073 8.35257 15.0703 8.31784L15.1448 8.24337L22.8496 15.9482L15.9431 22.8547L8.8881 15.7997C10.7859 17.1768 13.4587 17.0074 15.1728 15.2933Z" fill="url(#paint1_linear_1087_37314)"/>
<path fill-rule="evenodd" clip-rule="evenodd" d="M22.3193 1.44029V22.1685H11.9336C11.9336 22.1685 12.0052 12.7933 11.9336 1.44029C11.9292 0.742327 22.3193 1.44029 22.3193 1.44029Z" fill="url(#paint2_linear_1087_37314)"/>
</g>
<g filter="url(#filter1_d_1087_37314)">
<path fill-rule="evenodd" clip-rule="evenodd" d="M15.4076 8.53793C16.3404 9.45432 16.8438 10.6811 16.8438 11.9818C16.8438 13.2825 16.3404 14.5093 15.4076 15.4257C14.46 16.3864 13.2163 16.8594 11.9579 16.8594C10.7142 16.8594 9.45569 16.3864 8.50813 15.4257C7.57537 14.5093 7.07197 13.2825 7.07197 11.9818C7.07197 10.6811 7.57537 9.45432 8.50813 8.53793C10.4033 6.63124 13.5125 6.63124 15.4076 8.53793ZM14.5784 14.5979C15.2743 13.9032 15.6593 12.9721 15.6593 11.9818C15.6593 11.1984 15.4076 10.4446 14.9634 9.82381L9.7962 14.9822C10.418 15.4256 11.1731 15.6769 11.9578 15.6769C12.9498 15.6769 13.8826 15.2926 14.5784 14.5979ZM14.1195 8.98133L8.95227 14.1397C8.5081 13.519 8.2564 12.7652 8.2564 11.9818C8.2564 10.9915 8.64135 10.0603 9.33722 9.36563C10.0331 8.67094 10.9658 8.28665 11.9578 8.28665C12.7425 8.28665 13.4976 8.53792 14.1195 8.98133Z" fill="white"/>
</g>
<path d="M30.8555 16.5491V7.82182H34.3498C34.9918 7.82182 35.5273 7.91699 35.9563 8.10733C36.3853 8.29767 36.7077 8.56188 36.9237 8.89995C37.1396 9.23517 37.2475 9.62154 37.2475 10.059C37.2475 10.3999 37.1793 10.6997 37.043 10.9582C36.9066 11.2139 36.7191 11.4241 36.4805 11.5889C36.2447 11.7508 35.9748 11.8659 35.6708 11.934V12.0193C36.0032 12.0335 36.3143 12.1272 36.604 12.3005C36.8967 12.4738 37.1339 12.7167 37.3157 13.0292C37.4975 13.3389 37.5884 13.7082 37.5884 14.1372C37.5884 14.6002 37.4734 15.0136 37.2433 15.3772C37.016 15.738 36.6793 16.0235 36.2333 16.2338C35.7873 16.444 35.2376 16.5491 34.5842 16.5491H30.8555ZM32.7006 15.0406H34.2049C34.7191 15.0406 35.0941 14.9426 35.3299 14.7465C35.5657 14.5477 35.6836 14.2835 35.6836 13.9539C35.6836 13.7124 35.6254 13.4994 35.5089 13.3147C35.3924 13.1301 35.2262 12.9852 35.0103 12.8801C34.7972 12.7749 34.543 12.7224 34.2475 12.7224H32.7006V15.0406ZM32.7006 11.4738H34.0685C34.3214 11.4738 34.5458 11.4298 34.7418 11.3417C34.9407 11.2508 35.0969 11.123 35.2106 10.9582C35.3271 10.7934 35.3853 10.596 35.3853 10.3659C35.3853 10.0505 35.2731 9.79625 35.0487 9.60307C34.8271 9.40989 34.5117 9.3133 34.1026 9.3133H32.7006V11.4738Z" fill="white"/>
<path d="M40.5703 7.82182V16.5491H38.755V7.82182H40.5703Z" fill="white"/>
<path d="M44.9819 16.6769C44.32 16.6769 43.7475 16.5363 43.2646 16.2551C42.7844 15.971 42.4137 15.5761 42.1523 15.0704C41.891 14.5619 41.7603 13.9724 41.7603 13.3019C41.7603 12.6258 41.891 12.0349 42.1523 11.5292C42.4137 11.0207 42.7844 10.6258 43.2646 10.3445C43.7475 10.0605 44.32 9.91841 44.9819 9.91841C45.6438 9.91841 46.2148 10.0605 46.695 10.3445C47.1779 10.6258 47.5501 11.0207 47.8114 11.5292C48.0728 12.0349 48.2035 12.6258 48.2035 13.3019C48.2035 13.9724 48.0728 14.5619 47.8114 15.0704C47.5501 15.5761 47.1779 15.971 46.695 16.2551C46.2148 16.5363 45.6438 16.6769 44.9819 16.6769ZM44.9904 15.2707C45.2915 15.2707 45.543 15.1855 45.7447 15.015C45.9464 14.8417 46.0984 14.6059 46.2006 14.3076C46.3058 14.0093 46.3583 13.6698 46.3583 13.2892C46.3583 12.9085 46.3058 12.569 46.2006 12.2707C46.0984 11.9724 45.9464 11.7366 45.7447 11.5633C45.543 11.39 45.2915 11.3034 44.9904 11.3034C44.6864 11.3034 44.4308 11.39 44.2234 11.5633C44.0188 11.7366 43.864 11.9724 43.7589 12.2707C43.6566 12.569 43.6055 12.9085 43.6055 13.2892C43.6055 13.6698 43.6566 14.0093 43.7589 14.3076C43.864 14.6059 44.0188 14.8417 44.2234 15.015C44.4308 15.1855 44.6864 15.2707 44.9904 15.2707Z" fill="white"/>
<path d="M52.3413 16.6769C51.6708 16.6769 51.0941 16.5349 50.6111 16.2508C50.131 15.9639 49.7617 15.5661 49.5032 15.0576C49.2475 14.5491 49.1197 13.9639 49.1197 13.3019C49.1197 12.6315 49.2489 12.0434 49.5075 11.5377C49.7688 11.0292 50.1396 10.6329 50.6197 10.3488C51.0998 10.0619 51.6708 9.91841 52.3327 9.91841C52.9038 9.91841 53.4038 10.0221 53.8327 10.2295C54.2617 10.4369 54.6012 10.7281 54.8512 11.1031C55.1012 11.4781 55.239 11.9184 55.2646 12.4241H53.5515C53.5032 12.0974 53.3754 11.8346 53.168 11.6357C52.9634 11.434 52.695 11.3332 52.3626 11.3332C52.0813 11.3332 51.8356 11.4099 51.6254 11.5633C51.418 11.7139 51.256 11.934 51.1396 12.2238C51.0231 12.5136 50.9648 12.8644 50.9648 13.2764C50.9648 13.694 51.0217 14.0491 51.1353 14.3417C51.2518 14.6343 51.4151 14.8573 51.6254 15.0107C51.8356 15.1642 52.0813 15.2409 52.3626 15.2409C52.57 15.2409 52.756 15.1982 52.9208 15.113C53.0884 15.0278 53.2262 14.9042 53.3342 14.7423C53.445 14.5775 53.5174 14.3801 53.5515 14.1499H55.2646C55.2361 14.6499 55.0998 15.0903 54.8555 15.471C54.614 15.8488 54.2802 16.1443 53.854 16.3573C53.4279 16.5704 52.9237 16.6769 52.3413 16.6769Z" fill="white"/>
<path d="M58.0717 14.6656L58.076 12.488H58.3402L60.4368 10.0036H62.5206L59.7038 13.2934H59.2734L58.0717 14.6656ZM56.4268 16.5491V7.82182H58.2422V16.5491H56.4268ZM60.5178 16.5491L58.5916 13.6982L59.8018 12.4156L62.6442 16.5491H60.5178Z" fill="white"/>
<path d="M68.1797 10.3318C68.1456 9.98802 67.9993 9.72097 67.7408 9.53063C67.4822 9.34029 67.1314 9.24512 66.6882 9.24512C66.3871 9.24512 66.1328 9.28773 65.9254 9.37296C65.718 9.45534 65.5589 9.5704 65.4482 9.71813C65.3402 9.86586 65.2862 10.0335 65.2862 10.221C65.2805 10.3772 65.3132 10.5136 65.3842 10.6301C65.4581 10.7465 65.5589 10.8474 65.6868 10.9326C65.8146 11.015 65.9624 11.0874 66.13 11.1499C66.2976 11.2096 66.4766 11.2607 66.6669 11.3034L67.451 11.4909C67.8317 11.5761 68.1811 11.6897 68.4993 11.8318C68.8175 11.9738 69.093 12.1485 69.326 12.3559C69.5589 12.5633 69.7393 12.8076 69.8672 13.0889C69.9979 13.3701 70.0646 13.6926 70.0675 14.0562C70.0646 14.5903 69.9283 15.0534 69.6584 15.4454C69.3913 15.8346 69.005 16.1372 68.4993 16.3531C67.9964 16.5661 67.3899 16.6727 66.6797 16.6727C65.9751 16.6727 65.3615 16.5647 64.8388 16.3488C64.3189 16.1329 63.9126 15.8133 63.62 15.39C63.3303 14.9639 63.1783 14.4369 63.1641 13.809H64.9496C64.9695 14.1017 65.0533 14.346 65.201 14.542C65.3516 14.7352 65.5518 14.8815 65.8018 14.9809C66.0547 15.0775 66.3402 15.1258 66.6584 15.1258C66.9709 15.1258 67.2422 15.0803 67.4723 14.9894C67.7053 14.8985 67.8857 14.7721 68.0135 14.6102C68.1413 14.4482 68.2053 14.2622 68.2053 14.0519C68.2053 13.8559 68.147 13.6911 68.0305 13.5576C67.9169 13.4241 67.7493 13.3105 67.5277 13.2167C67.3089 13.123 67.0405 13.0377 66.7223 12.961L65.772 12.7224C65.0362 12.5434 64.4553 12.2636 64.0291 11.8829C63.603 11.5022 63.3913 10.9894 63.3942 10.3445C63.3913 9.81614 63.532 9.35449 63.816 8.95961C64.103 8.56472 64.4964 8.25648 64.9964 8.03489C65.4964 7.8133 66.0646 7.7025 66.701 7.7025C67.3487 7.7025 67.9141 7.8133 68.397 8.03489C68.8828 8.25648 69.2607 8.56472 69.5305 8.95961C69.8004 9.35449 69.9396 9.81188 69.9482 10.3318H68.1797Z" fill="white"/>
<path d="M71.2745 16.5491V10.0036H73.0898V16.5491H71.2745ZM72.1907 9.15989C71.9208 9.15989 71.6893 9.0704 71.4961 8.89142C71.3029 8.70961 71.2063 8.49228 71.2063 8.23944C71.2063 7.98944 71.3029 7.77495 71.4961 7.59597C71.6893 7.41415 71.9194 7.32324 72.1864 7.32324C72.4592 7.32324 72.6907 7.41415 72.881 7.59597C73.0742 7.77495 73.1708 7.98944 73.1708 8.23944C73.1708 8.49228 73.0742 8.70961 72.881 8.89142C72.6907 9.0704 72.4606 9.15989 72.1907 9.15989Z" fill="white"/>
<path d="M78.0256 10.0036V11.3673H74.0838V10.0036H78.0256ZM74.9787 8.43546H76.794V14.5377C76.794 14.7053 76.8196 14.836 76.8707 14.9298C76.9219 15.0207 76.9929 15.0846 77.0838 15.1215C77.1776 15.1585 77.2855 15.1769 77.4077 15.1769C77.4929 15.1769 77.5781 15.1698 77.6634 15.1556C77.7486 15.1386 77.8139 15.1258 77.8594 15.1173L78.1449 16.4681C78.054 16.4965 77.9261 16.5292 77.7614 16.5661C77.5966 16.6059 77.3963 16.6301 77.1605 16.6386C76.723 16.6556 76.3395 16.5974 76.0099 16.4639C75.6832 16.3303 75.429 16.123 75.2472 15.8417C75.0653 15.5605 74.9759 15.2053 74.9787 14.7764V8.43546Z" fill="white"/>
<path d="M82.1207 16.6769C81.4474 16.6769 80.8679 16.5406 80.3821 16.2678C79.8992 15.9923 79.527 15.6031 79.2656 15.1002C79.0043 14.5945 78.8736 13.9965 78.8736 13.3062C78.8736 12.6329 79.0043 12.042 79.2656 11.5335C79.527 11.0249 79.8949 10.6286 80.3693 10.3445C80.8466 10.0605 81.4062 9.91841 82.0483 9.91841C82.4801 9.91841 82.8821 9.98802 83.2543 10.1272C83.6293 10.2636 83.956 10.4695 84.2344 10.7451C84.5156 11.0207 84.7344 11.3673 84.8906 11.7849C85.0469 12.1997 85.125 12.6855 85.125 13.2423V13.7409H79.598V12.6159H83.4162C83.4162 12.3545 83.3594 12.123 83.2457 11.9213C83.1321 11.7195 82.9744 11.5619 82.7727 11.4482C82.5739 11.3318 82.3423 11.2735 82.0781 11.2735C81.8026 11.2735 81.5582 11.3374 81.3452 11.4653C81.1349 11.5903 80.9702 11.7593 80.8509 11.9724C80.7315 12.1826 80.6705 12.417 80.6676 12.6755V13.7451C80.6676 14.069 80.7273 14.3488 80.8466 14.5846C80.9688 14.8204 81.1406 15.0022 81.3622 15.1301C81.5838 15.2579 81.8466 15.3218 82.1506 15.3218C82.3523 15.3218 82.5369 15.2934 82.7045 15.2366C82.8722 15.1798 83.0156 15.0945 83.1349 14.9809C83.2543 14.8673 83.3452 14.7281 83.4077 14.5633L85.0867 14.6741C85.0014 15.0775 84.8267 15.4298 84.5625 15.7309C84.3011 16.0292 83.9631 16.2622 83.5483 16.4298C83.1364 16.5946 82.6605 16.6769 82.1207 16.6769Z" fill="white"/>
<defs>
<filter id="filter0_d_1087_37314" x="0.00390625" y="0.000488281" width="23.9141" height="23.939" filterUnits="userSpaceOnUse" color-interpolation-filters="sRGB">
<feFlood flood-opacity="0" result="BackgroundImageFix"/>
<feColorMatrix in="SourceAlpha" type="matrix" values="0 0 0 0 0 0 0 0 0 0 0 0 0 0 0 0 0 0 127 0" result="hardAlpha"/>
<feOffset/>
<feGaussianBlur stdDeviation="0.375"/>
<feColorMatrix type="matrix" values="0 0 0 0 0 0 0 0 0 0 0 0 0 0 0 0 0 0 0.174423 0"/>
<feBlend mode="normal" in2="BackgroundImageFix" result="effect1_dropShadow_1087_37314"/>
<feBlend mode="normal" in="SourceGraphic" in2="effect1_dropShadow_1087_37314" result="shape"/>
</filter>
<filter id="filter1_d_1087_37314" x="6.32031" y="6.35791" width="11.2734" height="11.2515" filterUnits="userSpaceOnUse" color-interpolation-filters="sRGB">
<feFlood flood-opacity="0" result="BackgroundImageFix"/>
<feColorMatrix in="SourceAlpha" type="matrix" values="0 0 0 0 0 0 0 0 0 0 0 0 0 0 0 0 0 0 127 0" result="hardAlpha"/>
<feOffset/>
<feGaussianBlur stdDeviation="0.375"/>
<feColorMatrix type="matrix" values="0 0 0 0 0 0 0 0 0 0 0 0 0 0 0 0 0 0 0.174423 0"/>
<feBlend mode="normal" in2="BackgroundImageFix" result="effect1_dropShadow_1087_37314"/>
<feBlend mode="normal" in="SourceGraphic" in2="effect1_dropShadow_1087_37314" result="shape"/>
</filter>
<linearGradient id="paint0_linear_1087_37314" x1="30.6052" y1="8.44757" x2="12.1646" y2="8.44757" gradientUnits="userSpaceOnUse">
<stop stop-opacity="0.01"/>
<stop offset="1" stop-opacity="0.0518286"/>
</linearGradient>
<linearGradient id="paint1_linear_1087_37314" x1="17.6846" y1="16.1002" x2="16.1316" y2="14.1169" gradientUnits="userSpaceOnUse">
<stop stop-opacity="0.01"/>
<stop offset="1" stop-opacity="0.0518286"/>
</linearGradient>
<linearGradient id="paint2_linear_1087_37314" x1="21.2748" y1="3.3905" x2="12.0259" y2="3.3905" gradientUnits="userSpaceOnUse">
<stop stop-opacity="0.01"/>
<stop offset="1" stop-opacity="0.0518286"/>
</linearGradient>
</defs>
</svg>
