<svg width="144" height="144" viewBox="0 0 144 144" fill="none" xmlns="http://www.w3.org/2000/svg">
<rect width="144" height="144" fill="white"/>
<circle cx="72" cy="71.9999" r="58.9091" fill="#536DFE" fill-opacity="0.2"/>
<path d="M113.003 44.7246C112.7 44.7049 112.401 44.5614 112.169 44.2992C111.688 43.7452 111.702 42.8598 112.205 42.3256L116.229 38.0271C116.728 37.4929 117.526 37.5077 118.011 38.0667C118.493 38.6207 118.479 39.5061 117.976 40.0403L113.952 44.3388C113.689 44.6208 113.341 44.7494 113.003 44.7246Z" fill="#FF5C5C"/>
<path d="M110.156 42.2633C109.477 42.2226 108.943 41.6526 108.957 40.9649L109.02 37.6352C109.034 36.9295 109.618 36.3685 110.323 36.3821C111.015 36.4047 111.59 36.9793 111.576 37.685L111.513 41.0147C111.5 41.7205 110.916 42.2814 110.21 42.2679C110.192 42.2633 110.174 42.2633 110.156 42.2633Z" fill="#FF5C5C"/>
<path d="M114.784 47.6182C114.105 47.5775 113.571 47.0075 113.585 46.3198C113.598 45.6141 114.182 45.0531 114.888 45.0666L118.222 45.13C118.919 45.1526 119.489 45.7272 119.475 46.4329C119.462 47.1387 118.878 47.6996 118.172 47.6861L114.842 47.6227C114.82 47.6227 114.802 47.6227 114.784 47.6182Z" fill="#FF5C5C"/>
<path d="M96.9921 61.1512C94.5219 61.1512 92.5223 59.147 92.5223 56.6769V32.9347C92.5223 23.3166 84.6957 15.4899 75.0776 15.4899H70.5083C60.8901 15.4899 53.0635 23.3166 53.0635 32.9347V56.6769C53.0635 59.147 51.0639 61.1512 48.5892 61.1512C46.1191 61.1512 44.115 59.147 44.115 56.6769V32.9347C44.1195 18.3853 55.9589 6.5459 70.5083 6.5459H75.073C89.6224 6.5459 101.462 18.3853 101.462 32.9347V56.6769C101.462 59.147 99.4622 61.1512 96.9921 61.1512Z" fill="#004FC4"/>
<g filter="url(#filter0_dd_5637_9059)">
<path d="M111.763 103.757C111.763 107.991 108.329 111.425 104.095 111.425H41.4863C37.2517 111.421 33.818 107.991 33.818 103.757V51.305C33.818 47.0705 37.2517 43.6367 41.4863 43.6367H104.095C108.329 43.6367 111.763 47.0705 111.763 51.305V103.757Z" fill="url(#paint0_linear_5637_9059)"/>
</g>
<rect opacity="0.378185" x="45.2728" y="66.5459" width="54.5455" height="21.8182" rx="10.6364" fill="#E6E6E6"/>
<g filter="url(#filter1_d_5637_9059)">
<path fill-rule="evenodd" clip-rule="evenodd" d="M58.5247 83.4714L58.331 79.2755L61.9305 81.5511L63.0316 79.6614L59.2098 77.7439L63.0301 75.8234L61.9275 73.9346L58.3298 76.213L58.5202 72.0169L56.3267 72.0178L56.5204 76.2137L52.9208 73.9381L51.8198 75.8278L55.6415 77.7453L51.8213 79.6658L52.9238 81.5546L56.5216 79.2762L56.3312 83.4723L58.5247 83.4714ZM73.3738 83.4657L73.1801 79.2697L76.7796 81.5453L77.8807 79.6557L74.0589 77.7381L77.8792 75.8176L76.7766 73.9288L73.1789 76.2072L73.3693 72.0111L71.1757 72.012L71.3694 76.2079L67.7699 73.9324L66.6688 75.822L70.4906 77.7395L66.6704 79.6601L67.7729 81.5488L71.3706 79.2704L71.1802 83.4665L73.3738 83.4657ZM88.2236 83.4598L88.0299 79.2639L91.6294 81.5394L92.7305 79.6498L88.9087 77.7323L92.7289 75.8117L91.6264 73.923L88.0287 76.2014L88.2191 72.0053L86.0255 72.0061L86.2192 76.2021L82.6197 73.9265L81.5186 75.8161L85.3404 77.7337L81.5201 79.6542L82.6227 81.543L86.2204 79.2646L86.03 83.4607L88.2236 83.4598Z" fill="white"/>
</g>
<defs>
<filter id="filter0_dd_5637_9059" x="32.7271" y="41.4549" width="80.1267" height="72.1517" filterUnits="userSpaceOnUse" color-interpolation-filters="sRGB">
<feFlood flood-opacity="0" result="BackgroundImageFix"/>
<feColorMatrix in="SourceAlpha" type="matrix" values="0 0 0 0 0 0 0 0 0 0 0 0 0 0 0 0 0 0 127 0" result="hardAlpha"/>
<feOffset dy="1.09091"/>
<feGaussianBlur stdDeviation="0.545455"/>
<feColorMatrix type="matrix" values="0 0 0 0 0 0 0 0 0 0 0 0 0 0 0 0 0 0 0.469597 0"/>
<feBlend mode="normal" in2="BackgroundImageFix" result="effect1_dropShadow_5637_9059"/>
<feColorMatrix in="SourceAlpha" type="matrix" values="0 0 0 0 0 0 0 0 0 0 0 0 0 0 0 0 0 0 127 0" result="hardAlpha"/>
<feOffset dy="-1.09091"/>
<feGaussianBlur stdDeviation="0.545455"/>
<feColorMatrix type="matrix" values="0 0 0 0 0 0 0 0 0 0 0 0 0 0 0 0 0 0 0.185094 0"/>
<feBlend mode="normal" in2="effect1_dropShadow_5637_9059" result="effect2_dropShadow_5637_9059"/>
<feBlend mode="normal" in="SourceGraphic" in2="effect2_dropShadow_5637_9059" result="shape"/>
</filter>
<filter id="filter1_d_5637_9059" x="51.2743" y="72.0049" width="42.0016" height="12.5587" filterUnits="userSpaceOnUse" color-interpolation-filters="sRGB">
<feFlood flood-opacity="0" result="BackgroundImageFix"/>
<feColorMatrix in="SourceAlpha" type="matrix" values="0 0 0 0 0 0 0 0 0 0 0 0 0 0 0 0 0 0 127 0" result="hardAlpha"/>
<feOffset dy="0.545455"/>
<feGaussianBlur stdDeviation="0.272727"/>
<feColorMatrix type="matrix" values="0 0 0 0 0 0 0 0 0 0 0 0 0 0 0 0 0 0 0.116805 0"/>
<feBlend mode="normal" in2="BackgroundImageFix" result="effect1_dropShadow_5637_9059"/>
<feBlend mode="normal" in="SourceGraphic" in2="effect1_dropShadow_5637_9059" result="shape"/>
</filter>
<linearGradient id="paint0_linear_5637_9059" x1="33.818" y1="43.6367" x2="33.818" y2="111.425" gradientUnits="userSpaceOnUse">
<stop stop-color="#5B8DEF"/>
<stop offset="1" stop-color="#0063F7"/>
</linearGradient>
</defs>
</svg>
