<svg width="72" height="72" viewBox="0 0 72 72" fill="none" xmlns="http://www.w3.org/2000/svg">
<circle cx="36" cy="36" r="29.4545" fill="#536DFE" fill-opacity="0.2"/>
<path d="M51.4091 47.4547C66.1364 75.8184 27.9546 74.3184 14.1818 61.6365C31.3637 35.5911 4.36366 18.2729 14.1819 12.5456C24.0001 6.81835 64.7728 59.7274 63.4091 9.81836" stroke="#263238" stroke-width="0.75" stroke-miterlimit="10" stroke-dasharray="4 4"/>
<rect x="59.0327" y="4.36377" width="8.72727" height="8.72727" rx="4.36364" transform="rotate(8 59.0327 4.36377)" fill="#F46B07"/>
<path fill-rule="evenodd" clip-rule="evenodd" d="M62.2488 10.8744L62.7889 10.9503C62.938 10.9713 63.076 10.8673 63.0969 10.7182L63.6283 6.9372C63.6493 6.78812 63.5453 6.65013 63.3962 6.62917L62.8561 6.55326C62.707 6.53231 62.569 6.6363 62.548 6.78538L62.0166 10.5664C61.9957 10.7155 62.0997 10.8535 62.2488 10.8744ZM60.8984 10.6846L60.3582 10.6087C60.2092 10.5878 60.1052 10.4498 60.1261 10.3007L60.4677 7.87005C60.4887 7.72097 60.6267 7.61698 60.7758 7.63793L61.3159 7.71385C61.465 7.7348 61.569 7.87279 61.548 8.02187L61.2064 10.4525C61.1855 10.6016 61.0475 10.7056 60.8984 10.6846ZM65.6838 11.908L59.202 10.9971L59.1261 11.5372L65.6079 12.4482L65.6838 11.908ZM63.9072 10.8321L64.0969 9.48173C64.1179 9.33265 64.2559 9.22866 64.405 9.24961L64.9451 9.32553C65.0942 9.34648 65.1982 9.48448 65.1772 9.63356L64.9875 10.9839C64.9665 11.133 64.8285 11.237 64.6794 11.216L64.1393 11.1401C63.9902 11.1192 63.8862 10.9812 63.9072 10.8321Z" fill="white"/>
<rect x="6.54541" y="6.54541" width="13.0909" height="13.0909" rx="6.54545" fill="#FFBE00"/>
<path d="M13.3265 9.60716L14.308 11.6904L16.5025 12.0251C16.551 12.0324 16.5965 12.0538 16.634 12.0868C16.6714 12.1199 16.6993 12.1633 16.7145 12.2121C16.7296 12.2609 16.7314 12.3131 16.7197 12.363C16.7079 12.4128 16.6831 12.4582 16.648 12.494L15.0597 14.1143L15.4346 16.4045C15.4429 16.4551 15.4375 16.5071 15.419 16.5546C15.4005 16.6022 15.3698 16.6434 15.3301 16.6735C15.2905 16.7037 15.2436 16.7217 15.1948 16.7254C15.1459 16.7291 15.097 16.7184 15.0537 16.6945L13.0911 15.6149L11.1282 16.6955C11.0848 16.7193 11.036 16.7299 10.9871 16.7261C10.9383 16.7223 10.8914 16.7043 10.8518 16.6741C10.8122 16.6439 10.7815 16.6028 10.763 16.5553C10.7445 16.5077 10.7391 16.4558 10.7473 16.4052L11.1222 14.1162L9.53393 12.4959C9.49883 12.4601 9.474 12.4148 9.46225 12.365C9.4505 12.3151 9.4523 12.2629 9.46744 12.2141C9.48258 12.1653 9.51046 12.1219 9.54792 12.0888C9.58539 12.0558 9.63093 12.0344 9.67941 12.027L11.8739 11.6907L12.8554 9.60749C12.8771 9.56147 12.9106 9.52272 12.9522 9.49562C12.9939 9.46852 13.0419 9.45414 13.0909 9.4541C13.1398 9.45407 13.1879 9.46838 13.2295 9.49542C13.2712 9.52247 13.3048 9.56117 13.3265 9.60716Z" fill="white"/>
<rect x="10.9092" y="56.8511" width="8.72727" height="8.72727" rx="4.36364" transform="rotate(-8 10.9092 56.8511)" fill="#00CFDE"/>
<g clip-path="url(#clip0_4747_4937)">
<path fill-rule="evenodd" clip-rule="evenodd" d="M18.0916 58.6421L17.5526 58.7178C17.5918 58.603 17.6056 58.481 17.593 58.3603C17.5554 58.1492 17.4363 57.9612 17.2614 57.837C17.0866 57.7127 16.8699 57.6621 16.6581 57.6961C16.4067 57.7425 16.1726 57.8564 15.9808 58.0255C15.789 58.1946 15.6467 58.4126 15.5692 58.6562C15.4287 58.4439 15.2332 58.2737 15.0035 58.1638C14.7739 58.0539 14.5186 58.0085 14.2652 58.0324L14.2395 58.036C14.0302 58.0657 13.8406 58.1755 13.7106 58.3421C13.5805 58.5088 13.5201 58.7194 13.5421 58.9296L13.5442 58.9445C13.5648 59.0588 13.6097 59.1673 13.6759 59.2627L13.1405 59.3379C13.0808 59.3463 13.0269 59.378 12.9907 59.4262C12.9544 59.4743 12.9387 59.5349 12.9471 59.5946L13.042 60.2697C13.0504 60.3294 13.0821 60.3833 13.1303 60.4196C13.1784 60.4559 13.239 60.4715 13.2987 60.4631L18.2497 59.7673C18.3094 59.7589 18.3633 59.7272 18.3996 59.679C18.4359 59.6309 18.4516 59.5703 18.4432 59.5106L18.3483 58.8355C18.3399 58.7758 18.3081 58.7219 18.26 58.6856C18.2119 58.6494 18.1513 58.6337 18.0916 58.6421ZM16.7283 58.1452C16.8199 58.1299 16.9139 58.1502 16.991 58.202C17.0681 58.2537 17.1224 58.333 17.1429 58.4236C17.1527 58.5162 17.1263 58.6089 17.0693 58.6825C17.0123 58.7561 16.929 58.8048 16.837 58.8184L15.9487 58.9432C16.0488 58.6402 16.2722 58.2093 16.7283 58.1452ZM13.9933 58.8738C13.9861 58.7809 14.0149 58.6888 14.0736 58.6165C14.1324 58.5442 14.2167 58.4972 14.3091 58.4852C14.775 58.4216 15.1022 58.771 15.2839 59.0367L14.4062 59.16C14.3139 59.1737 14.2198 59.1517 14.1431 59.0986C14.0665 59.0454 14.0129 58.9651 13.9933 58.8738ZM16.2877 60.502L16.6673 63.2026L17.7925 63.0445C17.9716 63.0193 18.1333 62.924 18.2421 62.7796C18.3509 62.6352 18.3979 62.4535 18.3728 62.2744L18.0881 60.249L16.2877 60.502ZM13.5871 60.8816L15.3875 60.6286L15.7671 63.3291L14.6418 63.4873C14.4628 63.5124 14.281 63.4654 14.1366 63.3566C13.9922 63.2478 13.897 63.0861 13.8718 62.907L13.5871 60.8816Z" fill="white"/>
</g>
<g filter="url(#filter0_dd_4747_4937)">
<path fill-rule="evenodd" clip-rule="evenodd" d="M46.0466 63.017L19.1209 59.2328C17.6069 59.02 16.5676 57.5094 16.7995 55.859L22.7917 13.2229C23.0236 11.5722 24.439 10.4069 25.9531 10.6197L52.8788 14.4038C54.3931 14.6166 55.4324 16.127 55.2004 17.7777L49.2083 60.4138C48.9764 62.0641 47.561 63.2298 46.0466 63.017Z" fill="url(#paint0_linear_4747_4937)"/>
</g>
<g filter="url(#filter1_d_4747_4937)">
<ellipse cx="37.2905" cy="27.6358" rx="12" ry="12" transform="rotate(8 37.2905 27.6358)" fill="white"/>
</g>
<path fill-rule="evenodd" clip-rule="evenodd" d="M38.6822 17.733C33.2159 16.9648 28.156 20.7777 27.3878 26.244C26.6196 31.7103 30.4325 36.7702 35.8988 37.5384C41.365 38.3066 46.4249 34.4937 47.1932 29.0275C47.9614 23.5612 44.1485 18.5013 38.6822 17.733ZM38.2647 20.7038C39.9086 20.9349 41.049 22.4483 40.818 24.0922C40.587 25.736 39.0735 26.8765 37.4297 26.6455C35.7858 26.4144 34.6454 24.901 34.8764 23.2571C35.1074 21.6133 36.6209 20.4728 38.2647 20.7038ZM30.795 30.742C31.8024 32.8426 33.8128 34.4177 36.2884 34.7657C38.7641 35.1136 41.1308 34.1536 42.6782 32.412C42.9254 30.4372 39.1359 28.8039 37.1652 28.527C35.1847 28.2486 31.1016 28.7755 30.795 30.742Z" fill="#B4C8FF"/>
<rect opacity="0.378185" x="22.2014" y="40.938" width="26.1818" height="6.54546" rx="3.27273" transform="rotate(8 22.2014 40.938)" fill="#E6E6E6"/>
<rect opacity="0.32" x="23.7126" y="43.3535" width="11.7818" height="2.18182" transform="rotate(7.99999 23.7126 43.3535)" fill="#D9D9D9"/>
<rect opacity="0.378185" x="20.9868" y="49.5806" width="26.1818" height="6.54546" rx="3.27273" transform="rotate(8 20.9868 49.5806)" fill="#E6E6E6"/>
<rect opacity="0.32" x="22.498" y="51.9961" width="22.5164" height="2.18182" transform="rotate(8 22.498 51.9961)" fill="#D9D9D9"/>
<g filter="url(#filter2_dd_4747_4937)">
<rect x="43.6365" y="36" width="17.4545" height="17.4545" rx="8.72727" fill="#3CC196"/>
</g>
<path d="M55.2273 45.1365L52.7727 45.1365L52.7727 47.591L51.9545 47.591L51.9545 45.1365L49.5 45.1365L49.5 44.3183L51.9545 44.3183L51.9545 41.8638L52.7727 41.8638L52.7727 44.3183L55.2273 44.3183L55.2273 45.1365Z" fill="white"/>
<defs>
<filter id="filter0_dd_4747_4937" x="15.7671" y="8.59473" width="40.4658" height="56.4473" filterUnits="userSpaceOnUse" color-interpolation-filters="sRGB">
<feFlood flood-opacity="0" result="BackgroundImageFix"/>
<feColorMatrix in="SourceAlpha" type="matrix" values="0 0 0 0 0 0 0 0 0 0 0 0 0 0 0 0 0 0 127 0" result="hardAlpha"/>
<feOffset dy="1"/>
<feGaussianBlur stdDeviation="0.5"/>
<feColorMatrix type="matrix" values="0 0 0 0 0 0 0 0 0 0 0 0 0 0 0 0 0 0 0.469597 0"/>
<feBlend mode="normal" in2="BackgroundImageFix" result="effect1_dropShadow_4747_4937"/>
<feColorMatrix in="SourceAlpha" type="matrix" values="0 0 0 0 0 0 0 0 0 0 0 0 0 0 0 0 0 0 127 0" result="hardAlpha"/>
<feOffset dy="-1"/>
<feGaussianBlur stdDeviation="0.5"/>
<feColorMatrix type="matrix" values="0 0 0 0 0 0 0 0 0 0 0 0 0 0 0 0 0 0 0.185094 0"/>
<feBlend mode="normal" in2="effect1_dropShadow_4747_4937" result="effect2_dropShadow_4747_4937"/>
<feBlend mode="normal" in="SourceGraphic" in2="effect2_dropShadow_4747_4937" result="shape"/>
</filter>
<filter id="filter1_d_4747_4937" x="20.9773" y="13.4784" width="32.6264" height="32.6264" filterUnits="userSpaceOnUse" color-interpolation-filters="sRGB">
<feFlood flood-opacity="0" result="BackgroundImageFix"/>
<feColorMatrix in="SourceAlpha" type="matrix" values="0 0 0 0 0 0 0 0 0 0 0 0 0 0 0 0 0 0 127 0" result="hardAlpha"/>
<feOffset dy="2.15588"/>
<feGaussianBlur stdDeviation="2.15588"/>
<feColorMatrix type="matrix" values="0 0 0 0 0.054902 0 0 0 0 0.117647 0 0 0 0 0.243137 0 0 0 0.08 0"/>
<feBlend mode="normal" in2="BackgroundImageFix" result="effect1_dropShadow_4747_4937"/>
<feBlend mode="normal" in="SourceGraphic" in2="effect1_dropShadow_4747_4937" result="shape"/>
</filter>
<filter id="filter2_dd_4747_4937" x="35.2046" y="31.7841" width="34.3183" height="34.3183" filterUnits="userSpaceOnUse" color-interpolation-filters="sRGB">
<feFlood flood-opacity="0" result="BackgroundImageFix"/>
<feColorMatrix in="SourceAlpha" type="matrix" values="0 0 0 0 0 0 0 0 0 0 0 0 0 0 0 0 0 0 127 0" result="hardAlpha"/>
<feOffset dy="4.21594"/>
<feGaussianBlur stdDeviation="4.21594"/>
<feColorMatrix type="matrix" values="0 0 0 0 0 0 0 0 0 0 0 0 0 0 0 0 0 0 0.32 0"/>
<feBlend mode="normal" in2="BackgroundImageFix" result="effect1_dropShadow_4747_4937"/>
<feColorMatrix in="SourceAlpha" type="matrix" values="0 0 0 0 0 0 0 0 0 0 0 0 0 0 0 0 0 0 127 0" result="hardAlpha"/>
<feOffset/>
<feGaussianBlur stdDeviation="1.05398"/>
<feColorMatrix type="matrix" values="0 0 0 0 0 0 0 0 0 0 0 0 0 0 0 0 0 0 0.04 0"/>
<feBlend mode="normal" in2="effect1_dropShadow_4747_4937" result="effect2_dropShadow_4747_4937"/>
<feBlend mode="normal" in="SourceGraphic" in2="effect2_dropShadow_4747_4937" result="shape"/>
</filter>
<linearGradient id="paint0_linear_4747_4937" x1="23.2117" y1="10.2344" x2="16.3795" y2="58.8475" gradientUnits="userSpaceOnUse">
<stop stop-color="#5B8DEF"/>
<stop offset="1" stop-color="#0063F7"/>
</linearGradient>
<clipPath id="clip0_4747_4937">
<rect width="6.54545" height="6.54545" fill="white" transform="translate(12.1414 57.7798) rotate(-8)"/>
</clipPath>
</defs>
</svg>
