<svg width="264" height="264" viewBox="0 0 264 264" fill="none" xmlns="http://www.w3.org/2000/svg">
<rect width="264" height="264" fill="white"/>
<circle cx="132" cy="132" r="108" fill="#536DFE" fill-opacity="0.2"/>
<path d="M188.5 174C242.5 278 102.5 272.5 52 226C115 130.5 16 67 52 46C88.0001 25 237.5 219 232.5 36" stroke="#263238" stroke-width="0.75" stroke-miterlimit="10" stroke-dasharray="4 4"/>
<rect x="216.453" y="16" width="32" height="32" rx="8" transform="rotate(8 216.453 16)" fill="#F46B07"/>
<path fill-rule="evenodd" clip-rule="evenodd" d="M228.245 39.8735L230.226 40.1518C230.772 40.2287 231.278 39.8474 231.355 39.3007L233.304 25.437C233.381 24.8904 232.999 24.3844 232.453 24.3075L230.472 24.0292C229.925 23.9524 229.419 24.3337 229.343 24.8803L227.394 38.744C227.317 39.2907 227.699 39.7967 228.245 39.8735ZM223.294 39.1776L221.313 38.8993C220.767 38.8224 220.385 38.3165 220.462 37.7698L221.715 28.8574C221.792 28.3108 222.298 27.9295 222.844 28.0063L224.825 28.2847C225.371 28.3615 225.753 28.8675 225.676 29.4141L224.423 38.3265C224.347 38.8732 223.841 39.2544 223.294 39.1776ZM240.84 43.6633L217.074 40.3231L216.796 42.3037L240.562 45.6438L240.84 43.6633ZM234.326 39.7183L235.022 34.7669C235.099 34.2203 235.605 33.839 236.151 33.9158L238.132 34.1942C238.679 34.271 239.06 34.777 238.983 35.3236L238.287 40.2749C238.21 40.8216 237.704 41.2029 237.158 41.126L235.177 40.8477C234.631 40.7709 234.249 40.2649 234.326 39.7183Z" fill="white"/>
<rect x="24" y="24" width="48" height="48" rx="8" fill="#FFBE00"/>
<path d="M48.8641 35.228L52.4627 42.8666L60.5093 44.0936C60.6871 44.1204 60.8541 44.1989 60.9914 44.3201C61.1288 44.4413 61.231 44.6004 61.2865 44.7793C61.3421 44.9583 61.3487 45.1499 61.3056 45.3326C61.2625 45.5153 61.1714 45.6816 61.0428 45.8129L55.219 51.754L56.5936 60.1516C56.624 60.3371 56.6042 60.5277 56.5365 60.7021C56.4688 60.8764 56.3559 61.0274 56.2106 61.138C56.0654 61.2486 55.8934 61.3144 55.7143 61.328C55.5352 61.3416 55.356 61.3024 55.197 61.2149L48.0009 57.2562L40.8036 61.2186C40.6445 61.3057 40.4653 61.3445 40.2863 61.3307C40.1072 61.3168 39.9354 61.2509 39.7902 61.1402C39.645 61.0295 39.5322 60.8785 39.4645 60.7043C39.3968 60.5301 39.3769 60.3395 39.407 60.154L40.7817 51.7613L34.9579 45.8201C34.8292 45.6889 34.7382 45.5225 34.6951 45.3399C34.652 45.1572 34.6586 44.9655 34.7141 44.7866C34.7696 44.6076 34.8719 44.4486 35.0092 44.3274C35.1466 44.2062 35.3136 44.1277 35.4913 44.1009L43.5379 42.8678L47.1365 35.2292C47.2161 35.0604 47.3392 34.9184 47.4917 34.819C47.6443 34.7196 47.8203 34.6669 48 34.6667C48.1796 34.6666 48.3557 34.7191 48.5084 34.8183C48.6611 34.9174 48.7843 35.0593 48.8641 35.228V35.228Z" fill="white"/>
<rect x="40" y="208.454" width="32" height="32" rx="8" transform="rotate(-8 40 208.454)" fill="#00CFDE"/>
<g clip-path="url(#clip0_1606_1891)">
<path fill-rule="evenodd" clip-rule="evenodd" d="M66.3354 215.019L64.3591 215.297C64.5027 214.876 64.5533 214.429 64.5072 213.986C64.3692 213.212 63.9326 212.523 63.2915 212.067C62.6503 211.612 61.8559 211.426 61.0792 211.55C60.1573 211.721 59.2989 212.138 58.5957 212.758C57.8925 213.378 57.3708 214.178 57.0864 215.071C56.5714 214.292 55.8546 213.668 55.0124 213.265C54.1703 212.863 53.2346 212.696 52.3051 212.784L52.2111 212.797C51.4437 212.906 50.7484 213.308 50.2716 213.919C49.7947 214.531 49.5734 215.303 49.654 216.074L49.6617 216.128C49.737 216.547 49.9017 216.945 50.1446 217.295L48.1815 217.571C47.9626 217.601 47.765 217.718 47.632 217.894C47.499 218.071 47.4415 218.293 47.4723 218.512L47.8202 220.987C47.8509 221.206 47.9674 221.404 48.1439 221.537C48.3204 221.67 48.5425 221.727 48.7613 221.696L66.9152 219.145C67.1341 219.114 67.3318 218.998 67.4648 218.821C67.5978 218.645 67.6552 218.423 67.6244 218.204L67.2765 215.728C67.2458 215.51 67.1293 215.312 66.9528 215.179C66.7763 215.046 66.5542 214.988 66.3354 215.019ZM61.3368 213.197C61.6726 213.141 62.0171 213.216 62.2998 213.405C62.5824 213.595 62.7817 213.886 62.8569 214.218C62.8927 214.557 62.7959 214.898 62.5869 215.167C62.3778 215.437 62.0726 215.616 61.735 215.666L58.478 216.123C58.8453 215.012 59.6641 213.432 61.3368 213.197ZM51.3082 215.869C51.2819 215.528 51.3873 215.19 51.6028 214.925C51.8183 214.66 52.1273 214.488 52.4661 214.444C54.1743 214.211 55.3743 215.492 56.0405 216.466L52.8223 216.918C52.4838 216.968 52.1389 216.888 51.8577 216.693C51.5765 216.498 51.38 216.203 51.3082 215.869ZM59.7211 221.839L61.1128 231.741L65.2387 231.161C65.8952 231.069 66.4882 230.72 66.8872 230.19C67.2862 229.661 67.4586 228.994 67.3663 228.338L66.3225 220.911L59.7211 221.839ZM49.819 223.231L56.4204 222.303L57.8121 232.205L53.6862 232.785C53.0296 232.877 52.3633 232.705 51.8338 232.306C51.3043 231.907 50.955 231.314 50.8627 230.657L49.819 223.231Z" fill="white"/>
</g>
<g filter="url(#filter0_dd_1606_1891)">
<path fill-rule="evenodd" clip-rule="evenodd" d="M168.838 231.062L70.11 217.186C64.5585 216.406 60.7478 210.867 61.5983 204.816L83.5693 48.4833C84.42 42.4308 89.6096 38.1579 95.1611 38.9381L193.889 52.8133C199.441 53.5937 203.252 59.1316 202.402 65.1841L180.43 221.516C179.58 227.568 174.39 231.842 168.838 231.062" fill="url(#paint0_linear_1606_1891)"/>
</g>
<g filter="url(#filter1_d_1606_1891)">
<circle cx="136.731" cy="101.331" r="44" transform="rotate(8 136.731 101.331)" fill="white"/>
</g>
<path fill-rule="evenodd" clip-rule="evenodd" d="M141.834 65.021C121.791 62.2041 103.238 76.1848 100.421 96.2278C97.6045 116.271 111.585 134.824 131.628 137.641C151.671 140.458 170.224 126.477 173.041 106.434C175.858 86.3908 161.877 67.8378 141.834 65.021ZM140.303 75.9139C146.331 76.761 150.512 82.3104 149.665 88.3378C148.818 94.3652 143.269 98.5469 137.242 97.6998C131.214 96.8527 127.032 91.3034 127.879 85.276C128.727 79.2485 134.276 75.0668 140.303 75.9139ZM112.914 112.72C116.608 120.423 123.98 126.198 133.057 127.474C142.135 128.75 150.812 125.23 156.486 118.844C157.393 111.603 143.498 105.614 136.272 104.599C129.01 103.578 114.039 105.51 112.914 112.72Z" fill="#B4C8FF"/>
<rect opacity="0.378185" x="81.4053" y="150.105" width="96" height="24" rx="4" transform="rotate(8 81.4053 150.105)" fill="#E6E6E6"/>
<rect opacity="0.32" x="86.9463" y="158.963" width="43.2" height="8" transform="rotate(8 86.9463 158.963)" fill="#D9D9D9"/>
<rect opacity="0.378185" x="76.9521" y="181.794" width="96" height="24" rx="4" transform="rotate(8 76.9521 181.794)" fill="#E6E6E6"/>
<rect opacity="0.32" x="82.4932" y="190.651" width="82.56" height="8" transform="rotate(8 82.4932 190.651)" fill="#D9D9D9"/>
<g filter="url(#filter2_dd_1606_1891)">
<rect x="160" y="132" width="64" height="64" rx="32" fill="#3CC196"/>
</g>
<path d="M202.5 165.5L193.5 165.5L193.5 174.5L190.5 174.5L190.5 165.5L181.5 165.5L181.5 162.5L190.5 162.5L190.5 153.5L193.5 153.5L193.5 162.5L202.5 162.5L202.5 165.5Z" fill="white"/>
<defs>
<filter id="filter0_dd_1606_1891" x="60.4795" y="36.8462" width="143.041" height="196.307" filterUnits="userSpaceOnUse" color-interpolation-filters="sRGB">
<feFlood flood-opacity="0" result="BackgroundImageFix"/>
<feColorMatrix in="SourceAlpha" type="matrix" values="0 0 0 0 0 0 0 0 0 0 0 0 0 0 0 0 0 0 127 0" result="hardAlpha"/>
<feOffset dy="1"/>
<feGaussianBlur stdDeviation="0.5"/>
<feColorMatrix type="matrix" values="0 0 0 0 0 0 0 0 0 0 0 0 0 0 0 0 0 0 0.469597 0"/>
<feBlend mode="normal" in2="BackgroundImageFix" result="effect1_dropShadow_1606_1891"/>
<feColorMatrix in="SourceAlpha" type="matrix" values="0 0 0 0 0 0 0 0 0 0 0 0 0 0 0 0 0 0 127 0" result="hardAlpha"/>
<feOffset dy="-1"/>
<feGaussianBlur stdDeviation="0.5"/>
<feColorMatrix type="matrix" values="0 0 0 0 0 0 0 0 0 0 0 0 0 0 0 0 0 0 0.185094 0"/>
<feBlend mode="normal" in2="effect1_dropShadow_1606_1891" result="effect2_dropShadow_1606_1891"/>
<feBlend mode="normal" in="SourceGraphic" in2="effect2_dropShadow_1606_1891" result="shape"/>
</filter>
<filter id="filter1_d_1606_1891" x="88.4138" y="55.1696" width="96.6352" height="96.6345" filterUnits="userSpaceOnUse" color-interpolation-filters="sRGB">
<feFlood flood-opacity="0" result="BackgroundImageFix"/>
<feColorMatrix in="SourceAlpha" type="matrix" values="0 0 0 0 0 0 0 0 0 0 0 0 0 0 0 0 0 0 127 0" result="hardAlpha"/>
<feOffset dy="2.15588"/>
<feGaussianBlur stdDeviation="2.15588"/>
<feColorMatrix type="matrix" values="0 0 0 0 0.054902 0 0 0 0 0.117647 0 0 0 0 0.243137 0 0 0 0.08 0"/>
<feBlend mode="normal" in2="BackgroundImageFix" result="effect1_dropShadow_1606_1891"/>
<feBlend mode="normal" in="SourceGraphic" in2="effect1_dropShadow_1606_1891" result="shape"/>
</filter>
<filter id="filter2_dd_1606_1891" x="151.568" y="127.784" width="80.8638" height="80.8638" filterUnits="userSpaceOnUse" color-interpolation-filters="sRGB">
<feFlood flood-opacity="0" result="BackgroundImageFix"/>
<feColorMatrix in="SourceAlpha" type="matrix" values="0 0 0 0 0 0 0 0 0 0 0 0 0 0 0 0 0 0 127 0" result="hardAlpha"/>
<feOffset dy="4.21594"/>
<feGaussianBlur stdDeviation="4.21594"/>
<feColorMatrix type="matrix" values="0 0 0 0 0 0 0 0 0 0 0 0 0 0 0 0 0 0 0.32 0"/>
<feBlend mode="normal" in2="BackgroundImageFix" result="effect1_dropShadow_1606_1891"/>
<feColorMatrix in="SourceAlpha" type="matrix" values="0 0 0 0 0 0 0 0 0 0 0 0 0 0 0 0 0 0 127 0" result="hardAlpha"/>
<feOffset/>
<feGaussianBlur stdDeviation="1.05398"/>
<feColorMatrix type="matrix" values="0 0 0 0 0 0 0 0 0 0 0 0 0 0 0 0 0 0 0.04 0"/>
<feBlend mode="normal" in2="effect1_dropShadow_1606_1891" result="effect2_dropShadow_1606_1891"/>
<feBlend mode="normal" in="SourceGraphic" in2="effect2_dropShadow_1606_1891" result="shape"/>
</filter>
<linearGradient id="paint0_linear_1606_1891" x1="85.1094" y1="37.5254" x2="60.0582" y2="215.774" gradientUnits="userSpaceOnUse">
<stop stop-color="#5B8DEF"/>
<stop offset="1" stop-color="#0063F7"/>
</linearGradient>
<clipPath id="clip0_1606_1891">
<rect width="24" height="24" fill="white" transform="translate(44.5176 211.858) rotate(-8)"/>
</clipPath>
</defs>
</svg>
