<svg width="232" height="152" viewBox="0 0 232 152" fill="none" xmlns="http://www.w3.org/2000/svg">
<g clip-path="url(#clip0_9078_5058)">
<g opacity="0.8" filter="url(#filter0_f_9078_5058)">
<path fill-rule="evenodd" clip-rule="evenodd" d="M165.557 202.874C165.989 217.511 160.003 230.438 154.072 241.338C148.614 251.371 141.177 256.706 133.58 261.653C125.448 266.948 116.949 275.332 108.625 270.933C100.292 266.53 97.7997 249.534 91.5413 239.438C83.3586 226.239 66.983 221.742 66.4335 202.874C65.8919 184.281 82.8148 178.847 89.3342 163.662C95.9844 148.171 93.8501 121.055 104.548 114.093C115.122 107.212 126.252 122.987 135.661 133.515C143.012 141.738 146.729 155.098 151.877 167.044C156.96 178.835 165.13 188.418 165.557 202.874Z" fill="url(#paint0_linear_9078_5058)"/>
</g>
<circle cx="91.3843" cy="91.3843" r="89.3843" transform="matrix(1 0 0 -1 24.6156 167.384)" stroke="white" stroke-width="4"/>
<circle cx="91.3843" cy="91.3843" r="89.3843" transform="matrix(1 0 0 -1 24.6156 167.384)" stroke="url(#paint1_radial_9078_5058)" stroke-width="4"/>
<path d="M175.3 51.563H175.767C176.282 51.563 176.7 51.7755 176.7 52.0377V75.6115C176.7 75.8737 176.282 76.0863 175.767 76.0863H175.3V51.563Z" fill="black"/>
<path d="M175.3 51.563H175.767C176.282 51.563 176.7 51.7755 176.7 52.0377V75.6115C176.7 75.8737 176.282 76.0863 175.767 76.0863H175.3V51.563Z" fill="url(#paint2_linear_9078_5058)" fill-opacity="0.8"/>
<path d="M175.3 51.563H175.767C176.282 51.563 176.7 51.7755 176.7 52.0377V75.6115C176.7 75.8737 176.282 76.0863 175.767 76.0863H175.3V51.563Z" fill="url(#paint3_linear_9078_5058)" fill-opacity="0.8"/>
<path d="M175.3 51.563H175.767C176.282 51.563 176.7 51.7755 176.7 52.0377V75.6115C176.7 75.8737 176.282 76.0863 175.767 76.0863H175.3V51.563Z" fill="#536DFE" fill-opacity="0.08"/>
<path d="M175.3 89.3794H175.767C176.282 89.3794 176.7 89.5919 176.7 89.8541V101.739C176.7 102.001 176.282 102.214 175.767 102.214H175.3V89.3794Z" fill="black"/>
<path d="M175.3 89.3794H175.767C176.282 89.3794 176.7 89.5919 176.7 89.8541V101.739C176.7 102.001 176.282 102.214 175.767 102.214H175.3V89.3794Z" fill="url(#paint4_linear_9078_5058)" fill-opacity="0.8"/>
<path d="M175.3 89.3794H175.767C176.282 89.3794 176.7 89.5919 176.7 89.8541V101.739C176.7 102.001 176.282 102.214 175.767 102.214H175.3V89.3794Z" fill="url(#paint5_linear_9078_5058)" fill-opacity="0.8"/>
<path d="M175.3 89.3794H175.767C176.282 89.3794 176.7 89.5919 176.7 89.8541V101.739C176.7 102.001 176.282 102.214 175.767 102.214H175.3V89.3794Z" fill="#536DFE" fill-opacity="0.08"/>
<rect x="55.3" y="16" width="120" height="188.281" rx="12" fill="black"/>
<rect x="55.3" y="16" width="120" height="188.281" rx="12" fill="url(#paint6_linear_9078_5058)" fill-opacity="0.8"/>
<rect x="55.3" y="16" width="120" height="188.281" rx="12" fill="url(#paint7_linear_9078_5058)" fill-opacity="0.8"/>
<rect x="55.3" y="16" width="120" height="188.281" rx="12" fill="#536DFE" fill-opacity="0.08"/>
<rect x="57.3" y="18" width="116" height="179.532" rx="12" fill="white"/>
<path d="M159.523 32.0392H162.05V34.5662H159.523V32.0392Z" fill="#212121"/>
<path d="M156.996 32.0392H159.523V34.5662H156.996V32.0392Z" fill="#212121"/>
<path d="M154.469 32.0392H156.996V34.5662H154.469V32.0392Z" fill="#212121"/>
<path d="M151.942 32.0392H154.469V34.5662H151.942V32.0392Z" fill="#212121"/>
<path d="M149.415 32.0392H151.942V34.5662H149.415V32.0392Z" fill="#212121"/>
<path d="M146.888 32.0392H149.415V34.5662H146.888V32.0392Z" fill="#212121"/>
<path d="M144.361 32.0392H146.888V34.5662H144.361V32.0392Z" fill="#212121"/>
<path d="M139.307 32.0392H141.834V34.5662H139.307V32.0392Z" fill="#212121"/>
<path d="M134.253 32.0392H136.78V34.5662H134.253V32.0392Z" fill="#212121"/>
<path d="M126.672 32.0392H129.199V34.5662H126.672V32.0392Z" fill="#212121"/>
<path d="M108.982 32.0392H111.509V34.5662H108.982V32.0392Z" fill="#212121"/>
<path d="M106.455 32.0392H108.982V34.5662H106.455V32.0392Z" fill="#212121"/>
<path d="M103.928 32.0392H106.455V34.5662H103.928V32.0392Z" fill="#212121"/>
<path d="M98.8744 32.0392H101.401V34.5662H98.8744V32.0392Z" fill="#212121"/>
<path d="M96.3474 32.0392H98.8744V34.5662H96.3474V32.0392Z" fill="#212121"/>
<path d="M88.7664 32.0392H91.2934V34.5662H88.7664V32.0392Z" fill="#212121"/>
<path d="M83.7124 32.0392H86.2394V34.5662H83.7124V32.0392Z" fill="#212121"/>
<path d="M81.1854 32.0392H83.7124V34.5662H81.1854V32.0392Z" fill="#212121"/>
<path d="M78.6583 32.0392H81.1854V34.5662H78.6583V32.0392Z" fill="#212121"/>
<path d="M76.1313 32.0392H78.6583V34.5662H76.1313V32.0392Z" fill="#212121"/>
<path d="M73.6043 32.0392H76.1313V34.5662H73.6043V32.0392Z" fill="#212121"/>
<path d="M71.0773 32.0392H73.6043V34.5662H71.0773V32.0392Z" fill="#212121"/>
<path d="M68.5503 32.0392H71.0773V34.5662H68.5503L68.5503 32.0392Z" fill="#212121"/>
<path d="M159.523 34.5662H162.05V37.0932H159.523V34.5662Z" fill="#212121"/>
<path d="M144.361 34.5662H146.888V37.0932H144.361V34.5662Z" fill="#212121"/>
<path d="M134.253 34.5662H136.78V37.0932H134.253V34.5662Z" fill="#212121"/>
<path d="M124.145 34.5662H126.672V37.0932H124.145V34.5662Z" fill="#212121"/>
<path d="M116.564 34.5662H119.091V37.0932H116.564V34.5662Z" fill="#212121"/>
<path d="M114.036 34.5662H116.564V37.0932H114.036V34.5662Z" fill="#212121"/>
<path d="M111.509 34.5662H114.036V37.0932H111.509V34.5662Z" fill="#212121"/>
<path d="M108.982 34.5662H111.509V37.0932H108.982V34.5662Z" fill="#212121"/>
<path d="M96.3474 34.5662H98.8744V37.0932H96.3474V34.5662Z" fill="#212121"/>
<path d="M93.8204 34.5662H96.3474V37.0932H93.8204V34.5662Z" fill="#212121"/>
<path d="M91.2934 34.5662H93.8204V37.0932H91.2934V34.5662Z" fill="#212121"/>
<path d="M83.7124 34.5662H86.2394V37.0932H83.7124V34.5662Z" fill="#212121"/>
<path d="M68.5503 34.5662H71.0773V37.0932H68.5503V34.5662Z" fill="#212121"/>
<path d="M159.523 37.0932H162.05V39.6202H159.523V37.0932Z" fill="#212121"/>
<path d="M154.469 37.0932H156.996V39.6202H154.469V37.0932Z" fill="#212121"/>
<path d="M151.942 37.0932H154.469V39.6202H151.942V37.0932Z" fill="#212121"/>
<path d="M149.415 37.0932H151.942V39.6202H149.415V37.0932Z" fill="#212121"/>
<path d="M144.361 37.0932H146.888V39.6202H144.361V37.0932Z" fill="#212121"/>
<path d="M136.78 37.0932H139.307V39.6202H136.78V37.0932Z" fill="#212121"/>
<path d="M131.726 37.0932H134.253V39.6202H131.726V37.0932Z" fill="#212121"/>
<path d="M129.199 37.0932H131.726V39.6202H129.199V37.0932Z" fill="#212121"/>
<path d="M126.672 37.0932H129.199V39.6202H126.672V37.0932Z" fill="#212121"/>
<path d="M124.145 37.0932H126.672V39.6202H124.145V37.0932Z" fill="#212121"/>
<path d="M121.618 37.0932H124.145V39.6202H121.618V37.0932Z" fill="#212121"/>
<path d="M116.564 37.0932H119.091V39.6202H116.564V37.0932Z" fill="#212121"/>
<path d="M106.455 37.0932H108.982V39.6202H106.455V37.0932Z" fill="#212121"/>
<path d="M103.928 37.0932H106.455V39.6202H103.928V37.0932Z" fill="#212121"/>
<path d="M98.8744 37.0932H101.401V39.6202H98.8744V37.0932Z" fill="#212121"/>
<path d="M93.8204 37.0932H96.3474V39.6202H93.8204V37.0932Z" fill="#212121"/>
<path d="M91.2934 37.0932H93.8204V39.6202H91.2934V37.0932Z" fill="#212121"/>
<path d="M88.7664 37.0932H91.2934V39.6202H88.7664V37.0932Z" fill="#212121"/>
<path d="M83.7124 37.0932H86.2394V39.6202H83.7124V37.0932Z" fill="#212121"/>
<path d="M78.6583 37.0932H81.1854V39.6202H78.6583V37.0932Z" fill="#212121"/>
<path d="M76.1313 37.0932H78.6583V39.6202H76.1313V37.0932Z" fill="#212121"/>
<path d="M73.6043 37.0932H76.1313V39.6202H73.6043V37.0932Z" fill="#212121"/>
<path d="M68.5503 37.0932H71.0773V39.6202H68.5503V37.0932Z" fill="#212121"/>
<path d="M159.523 39.6202H162.05V42.1472H159.523V39.6202Z" fill="#212121"/>
<path d="M154.469 39.6202H156.996V42.1472H154.469V39.6202Z" fill="#212121"/>
<path d="M151.942 39.6202H154.469V42.1472H151.942V39.6202Z" fill="#212121"/>
<path d="M149.415 39.6202H151.942V42.1472H149.415V39.6202Z" fill="#212121"/>
<path d="M144.361 39.6202H146.888V42.1472H144.361V39.6202Z" fill="#212121"/>
<path d="M134.253 39.6202H136.78V42.1472H134.253V39.6202Z" fill="#212121"/>
<path d="M131.726 39.6202H134.253V42.1472H131.726V39.6202Z" fill="#212121"/>
<path d="M129.199 39.6202H131.726V42.1472H129.199V39.6202Z" fill="#212121"/>
<path d="M126.672 39.6202H129.199V42.1472H126.672V39.6202Z" fill="#212121"/>
<path d="M124.145 39.6202H126.672V42.1472H124.145V39.6202Z" fill="#212121"/>
<path d="M119.091 39.6202H121.618V42.1472H119.091V39.6202Z" fill="#212121"/>
<path d="M108.982 39.6202H111.509V42.1472H108.982V39.6202Z" fill="#212121"/>
<path d="M103.928 39.6202H106.455V42.1472H103.928V39.6202Z" fill="#212121"/>
<path d="M98.8744 39.6202H101.401V42.1472H98.8744V39.6202Z" fill="#212121"/>
<path d="M96.3474 39.6202H98.8744V42.1472H96.3474V39.6202Z" fill="#212121"/>
<path d="M93.8204 39.6202H96.3474V42.1472H93.8204V39.6202Z" fill="#212121"/>
<path d="M83.7124 39.6202H86.2394V42.1472H83.7124V39.6202Z" fill="#212121"/>
<path d="M78.6583 39.6202H81.1854V42.1472H78.6583V39.6202Z" fill="#212121"/>
<path d="M76.1313 39.6202H78.6583V42.1472H76.1313V39.6202Z" fill="#212121"/>
<path d="M73.6043 39.6202H76.1313V42.1472H73.6043V39.6202Z" fill="#212121"/>
<path d="M68.5503 39.6202H71.0773V42.1472H68.5503V39.6202Z" fill="#212121"/>
<path d="M159.523 42.1472H162.05V44.6742H159.523V42.1472Z" fill="#212121"/>
<path d="M154.469 42.1472H156.996V44.6742H154.469V42.1472Z" fill="#212121"/>
<path d="M151.942 42.1472H154.469V44.6742H151.942V42.1472Z" fill="#212121"/>
<path d="M149.415 42.1472H151.942V44.6742H149.415V42.1472Z" fill="#212121"/>
<path d="M144.361 42.1472H146.888V44.6742H144.361V42.1472Z" fill="#212121"/>
<path d="M139.307 42.1472H141.834V44.6742H139.307V42.1472Z" fill="#212121"/>
<path d="M134.253 42.1472H136.78V44.6742H134.253V42.1472Z" fill="#212121"/>
<path d="M131.726 42.1472H134.253V44.6742H131.726V42.1472Z" fill="#212121"/>
<path d="M129.199 42.1472H131.726V44.6742H129.199V42.1472Z" fill="#212121"/>
<path d="M126.672 42.1472H129.199V44.6742H126.672V42.1472Z" fill="#212121"/>
<path d="M121.618 42.1472H124.145V44.6742H121.618V42.1472Z" fill="#212121"/>
<path d="M116.564 42.1472H119.091V44.6742H116.564V42.1472Z" fill="#212121"/>
<path d="M111.509 42.1472H114.036V44.6742H111.509V42.1472Z" fill="#212121"/>
<path d="M101.401 42.1472H103.928V44.6742H101.401V42.1472Z" fill="#212121"/>
<path d="M83.7124 42.1472H86.2394V44.6742H83.7124V42.1472Z" fill="#212121"/>
<path d="M78.6583 42.1472H81.1854V44.6742H78.6583V42.1472Z" fill="#212121"/>
<path d="M76.1313 42.1472H78.6583V44.6742H76.1313V42.1472Z" fill="#212121"/>
<path d="M73.6043 42.1472H76.1313V44.6742H73.6043V42.1472Z" fill="#212121"/>
<path d="M68.5503 42.1472H71.0773V44.6742H68.5503V42.1472Z" fill="#212121"/>
<path d="M159.523 44.6742H162.05V47.2012H159.523V44.6742Z" fill="#212121"/>
<path d="M144.361 44.6742H146.888V47.2012H144.361V44.6742Z" fill="#212121"/>
<path d="M139.307 44.6742H141.834V47.2012H139.307V44.6742Z" fill="#212121"/>
<path d="M136.78 44.6742H139.307V47.2012H136.78V44.6742Z" fill="#212121"/>
<path d="M131.726 44.6742H134.253V47.2012H131.726V44.6742Z" fill="#212121"/>
<path d="M126.672 44.6742H129.199V47.2012H126.672V44.6742Z" fill="#212121"/>
<path d="M124.145 44.6742H126.672V47.2012H124.145V44.6742Z" fill="#212121"/>
<path d="M108.982 44.6742H111.509V47.2012H108.982V44.6742Z" fill="#212121"/>
<path d="M106.455 44.6742H108.982V47.2012H106.455V44.6742Z" fill="#212121"/>
<path d="M103.928 44.6742H106.455V47.2012H103.928V44.6742Z" fill="#212121"/>
<path d="M91.2934 44.6742H93.8204V47.2012H91.2934V44.6742Z" fill="#212121"/>
<path d="M88.7664 44.6742H91.2934V47.2012H88.7664V44.6742Z" fill="#212121"/>
<path d="M83.7124 44.6742H86.2394V47.2012H83.7124V44.6742Z" fill="#212121"/>
<path d="M68.5503 44.6742H71.0773V47.2012H68.5503V44.6742Z" fill="#212121"/>
<path d="M159.523 47.2012H162.05V49.7283H159.523V47.2012Z" fill="#212121"/>
<path d="M156.996 47.2012H159.523V49.7283H156.996V47.2012Z" fill="#212121"/>
<path d="M154.469 47.2012H156.996V49.7283H154.469V47.2012Z" fill="#212121"/>
<path d="M151.942 47.2012H154.469V49.7283H151.942V47.2012Z" fill="#212121"/>
<path d="M149.415 47.2012H151.942V49.7283H149.415V47.2012Z" fill="#212121"/>
<path d="M146.888 47.2012H149.415V49.7283H146.888V47.2012Z" fill="#212121"/>
<path d="M144.361 47.2012H146.888V49.7283H144.361V47.2012Z" fill="#212121"/>
<path d="M139.307 47.2012H141.834V49.7283H139.307V47.2012Z" fill="#212121"/>
<path d="M134.253 47.2012H136.78V49.7283H134.253V47.2012Z" fill="#212121"/>
<path d="M129.199 47.2012H131.726V49.7283H129.199V47.2012Z" fill="#212121"/>
<path d="M124.145 47.2012H126.672V49.7283H124.145V47.2012Z" fill="#212121"/>
<path d="M119.091 47.2012H121.618V49.7283H119.091V47.2012Z" fill="#212121"/>
<path d="M114.036 47.2012H116.564V49.7283H114.036V47.2012Z" fill="#212121"/>
<path d="M108.982 47.2012H111.509V49.7283H108.982V47.2012Z" fill="#212121"/>
<path d="M103.928 47.2012H106.455V49.7283H103.928V47.2012Z" fill="#212121"/>
<path d="M98.8744 47.2012H101.401V49.7283H98.8744V47.2012Z" fill="#212121"/>
<path d="M93.8204 47.2012H96.3474V49.7283H93.8204V47.2012Z" fill="#212121"/>
<path d="M88.7664 47.2012H91.2934V49.7283H88.7664V47.2012Z" fill="#212121"/>
<path d="M83.7124 47.2012H86.2394V49.7283H83.7124V47.2012Z" fill="#212121"/>
<path d="M81.1854 47.2012H83.7124V49.7283H81.1854V47.2012Z" fill="#212121"/>
<path d="M78.6583 47.2012H81.1854V49.7283H78.6583V47.2012Z" fill="#212121"/>
<path d="M76.1313 47.2012H78.6583V49.7283H76.1313V47.2012Z" fill="#212121"/>
<path d="M73.6043 47.2012H76.1313V49.7283H73.6043V47.2012Z" fill="#212121"/>
<path d="M71.0773 47.2012H73.6043V49.7283H71.0773V47.2012Z" fill="#212121"/>
<path d="M68.5503 47.2012H71.0773V49.7283H68.5503V47.2012Z" fill="#212121"/>
<path d="M134.253 49.7283H136.78V52.2553H134.253V49.7283Z" fill="#212121"/>
<path d="M126.672 49.7283H129.199V52.2553H126.672V49.7283Z" fill="#212121"/>
<path d="M124.145 49.7283H126.672V52.2553H124.145V49.7283Z" fill="#212121"/>
<path d="M119.091 49.7283H121.618V52.2553H119.091V49.7283Z" fill="#212121"/>
<path d="M111.509 49.7283H114.036V52.2553H111.509V49.7283Z" fill="#212121"/>
<path d="M106.455 49.7283H108.982V52.2553H106.455V49.7283Z" fill="#212121"/>
<path d="M103.928 49.7283H106.455V52.2553H103.928V49.7283Z" fill="#212121"/>
<path d="M98.8744 49.7283H101.401V52.2553H98.8744V49.7283Z" fill="#212121"/>
<path d="M93.8204 49.7283H96.3474V52.2553H93.8204V49.7283Z" fill="#212121"/>
<path d="M88.7664 49.7283H91.2934V52.2553H88.7664V49.7283Z" fill="#212121"/>
<path d="M156.996 52.2553H159.523V54.7823H156.996V52.2553Z" fill="#212121"/>
<path d="M154.469 52.2553H156.996V54.7823H154.469V52.2553Z" fill="#212121"/>
<path d="M151.942 52.2553H154.469V54.7823H151.942V52.2553Z" fill="#212121"/>
<path d="M149.415 52.2553H151.942V54.7823H149.415V52.2553Z" fill="#212121"/>
<path d="M146.888 52.2553H149.415V54.7823H146.888V52.2553Z" fill="#212121"/>
<path d="M144.361 52.2553H146.888V54.7823H144.361V52.2553Z" fill="#212121"/>
<path d="M141.834 52.2553H144.361V54.7823H141.834V52.2553Z" fill="#212121"/>
<path d="M136.78 52.2553H139.307V54.7823H136.78V52.2553Z" fill="#212121"/>
<path d="M134.253 52.2553H136.78V54.7823H134.253V52.2553Z" fill="#212121"/>
<path d="M124.145 52.2553H126.672V54.7823H124.145V52.2553Z" fill="#212121"/>
<path d="M114.036 52.2553H116.564V54.7823H114.036V52.2553Z" fill="#212121"/>
<path d="M108.982 52.2553H111.509V54.7823H108.982V52.2553Z" fill="#212121"/>
<path d="M103.928 52.2553H106.455V54.7823H103.928V52.2553Z" fill="#212121"/>
<path d="M98.8744 52.2553H101.401V54.7823H98.8744V52.2553Z" fill="#212121"/>
<path d="M81.1854 52.2553H83.7124V54.7823H81.1854V52.2553Z" fill="#212121"/>
<path d="M78.6583 52.2553H81.1854V54.7823H78.6583V52.2553Z" fill="#212121"/>
<path d="M68.5503 52.2553H71.0773V54.7823H68.5503V52.2553Z" fill="#212121"/>
<path d="M156.996 54.7823H159.523V57.3093H156.996V54.7823Z" fill="#212121"/>
<path d="M154.469 54.7823H156.996V57.3093H154.469V54.7823Z" fill="#212121"/>
<path d="M151.942 54.7823H154.469V57.3093H151.942V54.7823Z" fill="#212121"/>
<path d="M149.415 54.7823H151.942V57.3093H149.415V54.7823Z" fill="#212121"/>
<path d="M141.834 54.7823H144.361V57.3093H141.834V54.7823Z" fill="#212121"/>
<path d="M136.78 54.7823H139.307V57.3093H136.78V54.7823Z" fill="#212121"/>
<path d="M129.199 54.7823H131.726V57.3093H129.199V54.7823Z" fill="#212121"/>
<path d="M124.145 54.7823H126.672V57.3093H124.145V54.7823Z" fill="#212121"/>
<path d="M121.618 54.7823H124.145V57.3093H121.618V54.7823Z" fill="#212121"/>
<path d="M119.091 54.7823H121.618V57.3093H119.091V54.7823Z" fill="#212121"/>
<path d="M111.509 54.7823H114.036V57.3093H111.509V54.7823Z" fill="#212121"/>
<path d="M106.455 54.7823H108.982V57.3093H106.455V54.7823Z" fill="#212121"/>
<path d="M101.401 54.7823H103.928V57.3093H101.401V54.7823Z" fill="#212121"/>
<path d="M96.3474 54.7823H98.8744V57.3093H96.3474V54.7823Z" fill="#212121"/>
<path d="M93.8204 54.7823H96.3474V57.3093H93.8204V54.7823Z" fill="#212121"/>
<path d="M91.2934 54.7823H93.8204V57.3093H91.2934V54.7823Z" fill="#212121"/>
<path d="M88.7664 54.7823H91.2934V57.3093H88.7664V54.7823Z" fill="#212121"/>
<path d="M86.2394 54.7823H88.7664V57.3093H86.2394V54.7823Z" fill="#212121"/>
<path d="M156.996 57.3093H159.523V59.8363H156.996V57.3093Z" fill="#212121"/>
<path d="M154.469 57.3093H156.996V59.8363H154.469V57.3093Z" fill="#212121"/>
<path d="M151.942 57.3093H154.469V59.8363H151.942V57.3093Z" fill="#212121"/>
<path d="M149.415 57.3093H151.942V59.8363H149.415V57.3093Z" fill="#212121"/>
<path d="M146.888 57.3093H149.415V59.8363H146.888V57.3093Z" fill="#212121"/>
<path d="M144.361 57.3093H146.888V59.8363H144.361V57.3093Z" fill="#212121"/>
<path d="M129.199 57.3093H131.726V59.8363H129.199V57.3093Z" fill="#212121"/>
<path d="M126.672 57.3093H129.199V59.8363H126.672V57.3093Z" fill="#212121"/>
<path d="M121.618 57.3093H124.145V59.8363H121.618V57.3093Z" fill="#212121"/>
<path d="M116.564 57.3093H119.091V59.8363H116.564V57.3093Z" fill="#212121"/>
<path d="M111.509 57.3093H114.036V59.8363H111.509V57.3093Z" fill="#212121"/>
<path d="M108.982 57.3093H111.509V59.8363H108.982V57.3093Z" fill="#212121"/>
<path d="M103.928 57.3093H106.455V59.8363H103.928V57.3093Z" fill="#212121"/>
<path d="M98.8744 57.3093H101.401V59.8363H98.8744V57.3093Z" fill="#212121"/>
<path d="M96.3474 57.3093H98.8744V59.8363H96.3474V57.3093Z" fill="#212121"/>
<path d="M93.8204 57.3093H96.3474V59.8363H93.8204V57.3093Z" fill="#212121"/>
<path d="M83.7124 57.3093H86.2394V59.8363H83.7124V57.3093Z" fill="#212121"/>
<path d="M78.6583 57.3093H81.1854V59.8363H78.6583V57.3093Z" fill="#212121"/>
<path d="M76.1313 57.3093H78.6583V59.8363H76.1313V57.3093Z" fill="#212121"/>
<path d="M73.6043 57.3093H76.1313V59.8363H73.6043V57.3093Z" fill="#212121"/>
<path d="M71.0773 57.3093H73.6043V59.8363H71.0773V57.3093Z" fill="#212121"/>
<path d="M68.5503 57.3093H71.0773V59.8363H68.5503V57.3093Z" fill="#212121"/>
<path d="M154.469 59.8363H156.996V62.3633H154.469V59.8363Z" fill="#212121"/>
<path d="M151.942 59.8363H154.469V62.3633H151.942V59.8363Z" fill="#212121"/>
<path d="M141.834 59.8363H144.361V62.3633H141.834V59.8363Z" fill="#212121"/>
<path d="M139.307 59.8363H141.834V62.3633H139.307V59.8363Z" fill="#212121"/>
<path d="M134.253 59.8363H136.78V62.3633H134.253V59.8363Z" fill="#212121"/>
<path d="M119.091 59.8363H121.618V62.3633H119.091V59.8363Z" fill="#212121"/>
<path d="M116.564 59.8363H119.091V62.3633H116.564V59.8363Z" fill="#212121"/>
<path d="M114.036 59.8363H116.564V62.3633H114.036V59.8363Z" fill="#212121"/>
<path d="M108.982 59.8363H111.509V62.3633H108.982V59.8363Z" fill="#212121"/>
<path d="M106.455 59.8363H108.982V62.3633H106.455V59.8363Z" fill="#212121"/>
<path d="M103.928 59.8363H106.455V62.3633H103.928V59.8363Z" fill="#212121"/>
<path d="M101.401 59.8363H103.928V62.3633H101.401V59.8363Z" fill="#212121"/>
<path d="M93.8204 59.8363H96.3474V62.3633H93.8204V59.8363Z" fill="#212121"/>
<path d="M88.7664 59.8363H91.2934V62.3633H88.7664V59.8363Z" fill="#212121"/>
<path d="M83.7124 59.8363H86.2394V62.3633H83.7124V59.8363Z" fill="#212121"/>
<path d="M71.0773 59.8363H73.6043V62.3633H71.0773V59.8363Z" fill="#212121"/>
<path d="M156.996 62.3633H159.523V64.8903H156.996V62.3633Z" fill="#212121"/>
<path d="M154.469 62.3633H156.996V64.8903H154.469V62.3633Z" fill="#212121"/>
<path d="M151.942 62.3633H154.469V64.8903H151.942V62.3633Z" fill="#212121"/>
<path d="M149.415 62.3633H151.942V64.8903H149.415V62.3633Z" fill="#212121"/>
<path d="M146.888 62.3633H149.415V64.8903H146.888V62.3633Z" fill="#212121"/>
<path d="M144.361 62.3633H146.888V64.8903H144.361V62.3633Z" fill="#212121"/>
<path d="M139.307 62.3633H141.834V64.8903H139.307V62.3633Z" fill="#212121"/>
<path d="M121.618 62.3633H124.145V64.8903H121.618V62.3633Z" fill="#212121"/>
<path d="M119.091 62.3633H121.618V64.8903H119.091V62.3633Z" fill="#212121"/>
<path d="M116.564 62.3633H119.091V64.8903H116.564V62.3633Z" fill="#212121"/>
<path d="M114.036 62.3633H116.564V64.8903H114.036V62.3633Z" fill="#212121"/>
<path d="M111.509 62.3633H114.036V64.8903H111.509V62.3633Z" fill="#212121"/>
<path d="M108.982 62.3633H111.509V64.8903H108.982V62.3633Z" fill="#212121"/>
<path d="M103.928 62.3633H106.455V64.8903H103.928V62.3633Z" fill="#212121"/>
<path d="M101.401 62.3633H103.928V64.8903H101.401V62.3633Z" fill="#212121"/>
<path d="M98.8744 62.3633H101.401V64.8903H98.8744V62.3633Z" fill="#212121"/>
<path d="M96.3474 62.3633H98.8744V64.8903H96.3474V62.3633Z" fill="#212121"/>
<path d="M93.8204 62.3633H96.3474V64.8903H93.8204V62.3633Z" fill="#212121"/>
<path d="M86.2394 62.3633H88.7664V64.8903H86.2394V62.3633Z" fill="#212121"/>
<path d="M83.7124 62.3633H86.2394V64.8903H83.7124V62.3633Z" fill="#212121"/>
<path d="M78.6583 62.3633H81.1854V64.8903H78.6583V62.3633Z" fill="#212121"/>
<path d="M68.5503 62.3633H71.0773V64.8903H68.5503V62.3633Z" fill="#212121"/>
<path d="M159.523 64.8903H162.05V67.4173H159.523V64.8903Z" fill="#212121"/>
<path d="M139.307 64.8903H141.834V67.4173H139.307V64.8903Z" fill="#212121"/>
<path d="M134.253 64.8903H136.78V67.4173H134.253V64.8903Z" fill="#212121"/>
<path d="M129.199 64.8903H131.726V67.4173H129.199V64.8903Z" fill="#212121"/>
<path d="M126.672 64.8903H129.199V67.4173H126.672V64.8903Z" fill="#212121"/>
<path d="M124.145 64.8903H126.672V67.4173H124.145V64.8903Z" fill="#212121"/>
<path d="M121.618 64.8903H124.145V67.4173H121.618V64.8903Z" fill="#212121"/>
<path d="M114.036 64.8903H116.564V67.4173H114.036V64.8903Z" fill="#212121"/>
<path d="M108.982 64.8903H111.509V67.4173H108.982V64.8903Z" fill="#212121"/>
<path d="M101.401 64.8903H103.928V67.4173H101.401V64.8903Z" fill="#212121"/>
<path d="M96.3474 64.8903H98.8744V67.4173H96.3474V64.8903Z" fill="#212121"/>
<path d="M88.7664 64.8903H91.2934V67.4173H88.7664V64.8903Z" fill="#212121"/>
<path d="M86.2394 64.8903H88.7664V67.4173H86.2394V64.8903Z" fill="#212121"/>
<path d="M76.1313 64.8903H78.6583V67.4173H76.1313V64.8903Z" fill="#212121"/>
<path d="M73.6043 64.8903H76.1313V67.4173H73.6043V64.8903Z" fill="#212121"/>
<path d="M71.0773 64.8903H73.6043V67.4173H71.0773V64.8903Z" fill="#212121"/>
<path d="M159.523 67.4173H162.05V69.9444H159.523V67.4173Z" fill="#212121"/>
<path d="M144.361 67.4173H146.888V69.9444H144.361V67.4173Z" fill="#212121"/>
<path d="M139.307 67.4173H141.834V69.9444H139.307V67.4173Z" fill="#212121"/>
<path d="M126.672 67.4173H129.199V69.9444H126.672V67.4173Z" fill="#212121"/>
<path d="M124.145 67.4173H126.672V69.9444H124.145V67.4173Z" fill="#212121"/>
<path d="M121.618 67.4173H124.145V69.9444H121.618V67.4173Z" fill="#212121"/>
<path d="M116.564 67.4173H119.091V69.9444H116.564V67.4173Z" fill="#212121"/>
<path d="M114.036 67.4173H116.564V69.9444H114.036V67.4173Z" fill="#212121"/>
<path d="M111.509 67.4173H114.036V69.9444H111.509V67.4173Z" fill="#212121"/>
<path d="M108.982 67.4173H111.509V69.9444H108.982V67.4173Z" fill="#212121"/>
<path d="M103.928 67.4173H106.455V69.9444H103.928V67.4173Z" fill="#212121"/>
<path d="M91.2934 67.4173H93.8204V69.9444H91.2934V67.4173Z" fill="#212121"/>
<path d="M86.2394 67.4173H88.7664V69.9444H86.2394V67.4173Z" fill="#212121"/>
<path d="M76.1313 67.4173H78.6583V69.9444H76.1313V67.4173Z" fill="#212121"/>
<path d="M71.0773 67.4173H73.6043V69.9444H71.0773V67.4173Z" fill="#212121"/>
<path d="M68.5503 67.4173H71.0773V69.9444H68.5503V67.4173Z" fill="#212121"/>
<path d="M159.523 69.9444H162.05V72.4714H159.523V69.9444Z" fill="#212121"/>
<path d="M154.469 69.9444H156.996V72.4714H154.469V69.9444Z" fill="#212121"/>
<path d="M146.888 69.9444H149.415V72.4714H146.888V69.9444Z" fill="#212121"/>
<path d="M141.834 69.9444H144.361V72.4714H141.834V69.9444Z" fill="#212121"/>
<path d="M136.78 69.9444H139.307V72.4714H136.78V69.9444Z" fill="#212121"/>
<path d="M131.726 69.9444H134.253V72.4714H131.726V69.9444Z" fill="#212121"/>
<path d="M129.199 69.9444H131.726V72.4714H129.199V69.9444Z" fill="#212121"/>
<path d="M124.145 69.9444H126.672V72.4714H124.145V69.9444Z" fill="#212121"/>
<path d="M119.091 69.9444H121.618V72.4714H119.091V69.9444Z" fill="#212121"/>
<path d="M116.564 69.9444H119.091V72.4714H116.564V69.9444Z" fill="#212121"/>
<path d="M111.509 69.9444H114.036V72.4714H111.509V69.9444Z" fill="#212121"/>
<path d="M108.982 69.9444H111.509V72.4714H108.982V69.9444Z" fill="#212121"/>
<path d="M101.401 69.9444H103.928V72.4714H101.401V69.9444Z" fill="#212121"/>
<path d="M93.8204 69.9444H96.3474V72.4714H93.8204V69.9444Z" fill="#212121"/>
<path d="M91.2934 69.9444H93.8204V72.4714H91.2934V69.9444Z" fill="#212121"/>
<path d="M88.7664 69.9444H91.2934V72.4714H88.7664V69.9444Z" fill="#212121"/>
<path d="M86.2394 69.9444H88.7664V72.4714H86.2394V69.9444Z" fill="#212121"/>
<path d="M81.1854 69.9444H83.7124V72.4714H81.1854V69.9444Z" fill="#212121"/>
<path d="M71.0773 69.9444H73.6043V72.4714H71.0773V69.9444Z" fill="#212121"/>
<path d="M68.5503 69.9444H71.0773V72.4714H68.5503V69.9444Z" fill="#212121"/>
<path d="M159.523 72.4714H162.05V74.9984H159.523V72.4714Z" fill="#212121"/>
<path d="M156.996 72.4714H159.523V74.9984H156.996V72.4714Z" fill="#212121"/>
<path d="M154.469 72.4714H156.996V74.9984H154.469V72.4714Z" fill="#212121"/>
<path d="M151.942 72.4714H154.469V74.9984H151.942V72.4714Z" fill="#212121"/>
<path d="M149.415 72.4714H151.942V74.9984H149.415V72.4714Z" fill="#212121"/>
<path d="M146.888 72.4714H149.415V74.9984H146.888V72.4714Z" fill="#212121"/>
<path d="M144.361 72.4714H146.888V74.9984H144.361V72.4714Z" fill="#212121"/>
<path d="M139.307 72.4714H141.834V74.9984H139.307V72.4714Z" fill="#212121"/>
<path d="M136.78 72.4714H139.307V74.9984H136.78V72.4714Z" fill="#212121"/>
<path d="M134.253 72.4714H136.78V74.9984H134.253V72.4714Z" fill="#212121"/>
<path d="M131.726 72.4714H134.253V74.9984H131.726V72.4714Z" fill="#212121"/>
<path d="M129.199 72.4714H131.726V74.9984H129.199V72.4714Z" fill="#212121"/>
<path d="M121.618 72.4714H124.145V74.9984H121.618V72.4714Z" fill="#212121"/>
<path d="M119.091 72.4714H121.618V74.9984H119.091V72.4714Z" fill="#212121"/>
<path d="M111.509 72.4714H114.036V74.9984H111.509V72.4714Z" fill="#212121"/>
<path d="M106.455 72.4714H108.982V74.9984H106.455V72.4714Z" fill="#212121"/>
<path d="M103.928 72.4714H106.455V74.9984H103.928V72.4714Z" fill="#212121"/>
<path d="M101.401 72.4714H103.928V74.9984H101.401V72.4714Z" fill="#212121"/>
<path d="M98.8744 72.4714H101.401V74.9984H98.8744V72.4714Z" fill="#212121"/>
<path d="M96.3474 72.4714H98.8744V74.9984H96.3474V72.4714Z" fill="#212121"/>
<path d="M93.8204 72.4714H96.3474V74.9984H93.8204V72.4714Z" fill="#212121"/>
<path d="M86.2394 72.4714H88.7664V74.9984H86.2394V72.4714Z" fill="#212121"/>
<path d="M83.7124 72.4714H86.2394V74.9984H83.7124V72.4714Z" fill="#212121"/>
<path d="M78.6583 72.4714H81.1854V74.9984H78.6583V72.4714Z" fill="#212121"/>
<path d="M73.6043 72.4714H76.1313V74.9984H73.6043V72.4714Z" fill="#212121"/>
<path d="M159.523 74.9984H162.05V77.5254H159.523V74.9984Z" fill="#212121"/>
<path d="M156.996 74.9984H159.523V77.5254H156.996V74.9984Z" fill="#212121"/>
<path d="M151.942 74.9984H154.469V77.5254H151.942V74.9984Z" fill="#212121"/>
<path d="M146.888 74.9984H149.415V77.5254H146.888V74.9984Z" fill="#212121"/>
<path d="M141.834 74.9984H144.361V77.5254H141.834V74.9984Z" fill="#212121"/>
<path d="M139.307 74.9984H141.834V77.5254H139.307V74.9984Z" fill="#212121"/>
<path d="M131.726 74.9984H134.253V77.5254H131.726V74.9984Z" fill="#212121"/>
<path d="M126.672 74.9984H129.199V77.5254H126.672V74.9984Z" fill="#212121"/>
<path d="M124.145 74.9984H126.672V77.5254H124.145V74.9984Z" fill="#212121"/>
<path d="M121.618 74.9984H124.145V77.5254H121.618V74.9984Z" fill="#212121"/>
<path d="M114.036 74.9984H116.564V77.5254H114.036V74.9984Z" fill="#212121"/>
<path d="M111.509 74.9984H114.036V77.5254H111.509V74.9984Z" fill="#212121"/>
<path d="M88.7664 74.9984H91.2934V77.5254H88.7664V74.9984Z" fill="#212121"/>
<path d="M81.1854 74.9984H83.7124V77.5254H81.1854V74.9984Z" fill="#212121"/>
<path d="M159.523 77.5254H162.05V80.0524H159.523V77.5254Z" fill="#212121"/>
<path d="M156.996 77.5254H159.523V80.0524H156.996V77.5254Z" fill="#212121"/>
<path d="M149.415 77.5254H151.942V80.0524H149.415V77.5254Z" fill="#212121"/>
<path d="M144.361 77.5254H146.888V80.0524H144.361V77.5254Z" fill="#212121"/>
<path d="M141.834 77.5254H144.361V80.0524H141.834V77.5254Z" fill="#212121"/>
<path d="M139.307 77.5254H141.834V80.0524H139.307V77.5254Z" fill="#212121"/>
<path d="M136.78 77.5254H139.307V80.0524H136.78V77.5254Z" fill="#212121"/>
<path d="M134.253 77.5254H136.78V80.0524H134.253V77.5254Z" fill="#212121"/>
<path d="M131.726 77.5254H134.253V80.0524H131.726V77.5254Z" fill="#212121"/>
<path d="M121.618 77.5254H124.145V80.0524H121.618V77.5254Z" fill="#212121"/>
<path d="M119.091 77.5254H121.618V80.0524H119.091V77.5254Z" fill="#212121"/>
<path d="M116.564 77.5254H119.091V80.0524H116.564V77.5254Z" fill="#212121"/>
<path d="M108.982 77.5254H111.509V80.0524H108.982V77.5254Z" fill="#212121"/>
<path d="M101.401 77.5254H103.928V80.0524H101.401V77.5254Z" fill="#212121"/>
<path d="M98.8744 77.5254H101.401V80.0524H98.8744V77.5254Z" fill="#212121"/>
<path d="M96.3474 77.5254H98.8744V80.0524H96.3474V77.5254Z" fill="#212121"/>
<path d="M91.2934 77.5254H93.8204V80.0524H91.2934V77.5254Z" fill="#212121"/>
<path d="M88.7664 77.5254H91.2934V80.0524H88.7664V77.5254Z" fill="#212121"/>
<path d="M86.2394 77.5254H88.7664V80.0524H86.2394V77.5254Z" fill="#212121"/>
<path d="M78.6583 77.5254H81.1854V80.0524H78.6583V77.5254Z" fill="#212121"/>
<path d="M76.1313 77.5254H78.6583V80.0524H76.1313V77.5254Z" fill="#212121"/>
<path d="M71.0773 77.5254H73.6043V80.0524H71.0773V77.5254Z" fill="#212121"/>
<path d="M68.5503 77.5254H71.0773V80.0524H68.5503V77.5254Z" fill="#212121"/>
<path d="M159.523 80.0524H162.05V82.5794H159.523V80.0524Z" fill="#212121"/>
<path d="M156.996 80.0524H159.523V82.5794H156.996V80.0524Z" fill="#212121"/>
<path d="M149.415 80.0524H151.942V82.5794H149.415V80.0524Z" fill="#212121"/>
<path d="M146.888 80.0524H149.415V82.5794H146.888V80.0524Z" fill="#212121"/>
<path d="M141.834 80.0524H144.361V82.5794H141.834V80.0524Z" fill="#212121"/>
<path d="M134.253 80.0524H136.78V82.5794H134.253V80.0524Z" fill="#212121"/>
<path d="M131.726 80.0524H134.253V82.5794H131.726V80.0524Z" fill="#212121"/>
<path d="M126.672 80.0524H129.199V82.5794H126.672V80.0524Z" fill="#212121"/>
<path d="M116.564 80.0524H119.091V82.5794H116.564V80.0524Z" fill="#212121"/>
<path d="M114.036 80.0524H116.564V82.5794H114.036V80.0524Z" fill="#212121"/>
<path d="M106.455 80.0524H108.982V82.5794H106.455V80.0524Z" fill="#212121"/>
<path d="M103.928 80.0524H106.455V82.5794H103.928V80.0524Z" fill="#212121"/>
<path d="M101.401 80.0524H103.928V82.5794H101.401V80.0524Z" fill="#212121"/>
<path d="M93.8204 80.0524H96.3474V82.5794H93.8204V80.0524Z" fill="#212121"/>
<path d="M91.2934 80.0524H93.8204V82.5794H91.2934V80.0524Z" fill="#212121"/>
<path d="M88.7664 80.0524H91.2934V82.5794H88.7664V80.0524Z" fill="#212121"/>
<path d="M86.2394 80.0524H88.7664V82.5794H86.2394V80.0524Z" fill="#212121"/>
<path d="M81.1854 80.0524H83.7124V82.5794H81.1854V80.0524Z" fill="#212121"/>
<path d="M78.6583 80.0524H81.1854V82.5794H78.6583V80.0524Z" fill="#212121"/>
<path d="M71.0773 80.0524H73.6043V82.5794H71.0773V80.0524Z" fill="#212121"/>
<path d="M154.469 82.5794H156.996V85.1064H154.469V82.5794Z" fill="#212121"/>
<path d="M149.415 82.5794H151.942V85.1064H149.415V82.5794Z" fill="#212121"/>
<path d="M146.888 82.5794H149.415V85.1064H146.888V82.5794Z" fill="#212121"/>
<path d="M144.361 82.5794H146.888V85.1064H144.361V82.5794Z" fill="#212121"/>
<path d="M141.834 82.5794H144.361V85.1064H141.834V82.5794Z" fill="#212121"/>
<path d="M139.307 82.5794H141.834V85.1064H139.307V82.5794Z" fill="#212121"/>
<path d="M129.199 82.5794H131.726V85.1064H129.199V82.5794Z" fill="#212121"/>
<path d="M121.618 82.5794H124.145V85.1064H121.618V82.5794Z" fill="#212121"/>
<path d="M119.091 82.5794H121.618V85.1064H119.091V82.5794Z" fill="#212121"/>
<path d="M111.509 82.5794H114.036V85.1064H111.509V82.5794Z" fill="#212121"/>
<path d="M108.982 82.5794H111.509V85.1064H108.982V82.5794Z" fill="#212121"/>
<path d="M103.928 82.5794H106.455V85.1064H103.928V82.5794Z" fill="#212121"/>
<path d="M101.401 82.5794H103.928V85.1064H101.401V82.5794Z" fill="#212121"/>
<path d="M98.8744 82.5794H101.401V85.1064H98.8744V82.5794Z" fill="#212121"/>
<path d="M96.3474 82.5794H98.8744V85.1064H96.3474V82.5794Z" fill="#212121"/>
<path d="M93.8204 82.5794H96.3474V85.1064H93.8204V82.5794Z" fill="#212121"/>
<path d="M91.2934 82.5794H93.8204V85.1064H91.2934V82.5794Z" fill="#212121"/>
<path d="M86.2394 82.5794H88.7664V85.1064H86.2394V82.5794Z" fill="#212121"/>
<path d="M83.7124 82.5794H86.2394V85.1064H83.7124V82.5794Z" fill="#212121"/>
<path d="M81.1854 82.5794H83.7124V85.1064H81.1854V82.5794Z" fill="#212121"/>
<path d="M78.6583 82.5794H81.1854V85.1064H78.6583V82.5794Z" fill="#212121"/>
<path d="M76.1313 82.5794H78.6583V85.1064H76.1313V82.5794Z" fill="#212121"/>
<path d="M73.6043 82.5794H76.1313V85.1064H73.6043V82.5794Z" fill="#212121"/>
<path d="M68.5503 82.5794H71.0773V85.1064H68.5503V82.5794Z" fill="#212121"/>
<path d="M156.996 85.1064H159.523V87.6334H156.996V85.1064Z" fill="#212121"/>
<path d="M154.469 85.1064H156.996V87.6334H154.469V85.1064Z" fill="#212121"/>
<path d="M151.942 85.1064H154.469V87.6334H151.942V85.1064Z" fill="#212121"/>
<path d="M139.307 85.1064H141.834V87.6334H139.307V85.1064Z" fill="#212121"/>
<path d="M136.78 85.1064H139.307V87.6334H136.78V85.1064Z" fill="#212121"/>
<path d="M129.199 85.1064H131.726V87.6334H129.199V85.1064Z" fill="#212121"/>
<path d="M126.672 85.1064H129.199V87.6334H126.672V85.1064Z" fill="#212121"/>
<path d="M119.091 85.1064H121.618V87.6334H119.091V85.1064Z" fill="#212121"/>
<path d="M116.564 85.1064H119.091V87.6334H116.564V85.1064Z" fill="#212121"/>
<path d="M108.982 85.1064H111.509V87.6334H108.982V85.1064Z" fill="#212121"/>
<path d="M106.455 85.1064H108.982V87.6334H106.455V85.1064Z" fill="#212121"/>
<path d="M103.928 85.1064H106.455V87.6334H103.928V85.1064Z" fill="#212121"/>
<path d="M101.401 85.1064H103.928V87.6334H101.401V85.1064Z" fill="#212121"/>
<path d="M96.3474 85.1064H98.8744V87.6334H96.3474V85.1064Z" fill="#212121"/>
<path d="M83.7124 85.1064H86.2394V87.6334H83.7124V85.1064Z" fill="#212121"/>
<path d="M81.1854 85.1064H83.7124V87.6334H81.1854V85.1064Z" fill="#212121"/>
<path d="M76.1313 85.1064H78.6583V87.6334H76.1313V85.1064Z" fill="#212121"/>
<path d="M73.6043 85.1064H76.1313V87.6334H73.6043V85.1064Z" fill="#212121"/>
<path d="M159.523 87.6334H162.05V90.1604H159.523V87.6334Z" fill="#212121"/>
<path d="M156.996 87.6334H159.523V90.1604H156.996V87.6334Z" fill="#212121"/>
<path d="M154.469 87.6334H156.996V90.1604H154.469V87.6334Z" fill="#212121"/>
<path d="M151.942 87.6334H154.469V90.1604H151.942V87.6334Z" fill="#212121"/>
<path d="M144.361 87.6334H146.888V90.1604H144.361V87.6334Z" fill="#212121"/>
<path d="M141.834 87.6334H144.361V90.1604H141.834V87.6334Z" fill="#212121"/>
<path d="M139.307 87.6334H141.834V90.1604H139.307V87.6334Z" fill="#212121"/>
<path d="M134.253 87.6334H136.78V90.1604H134.253V87.6334Z" fill="#212121"/>
<path d="M129.199 87.6334H131.726V90.1604H129.199V87.6334Z" fill="#212121"/>
<path d="M124.145 87.6334H126.672V90.1604H124.145V87.6334Z" fill="#212121"/>
<path d="M119.091 87.6334H121.618V90.1604H119.091V87.6334Z" fill="#212121"/>
<path d="M116.564 87.6334H119.091V90.1604H116.564V87.6334Z" fill="#212121"/>
<path d="M114.036 87.6334H116.564V90.1604H114.036V87.6334Z" fill="#212121"/>
<path d="M111.509 87.6334H114.036V90.1604H111.509V87.6334Z" fill="#212121"/>
<path d="M106.455 87.6334H108.982V90.1604H106.455V87.6334Z" fill="#212121"/>
<path d="M103.928 87.6334H106.455V90.1604H103.928V87.6334Z" fill="#212121"/>
<path d="M98.8744 87.6334H101.401V90.1604H98.8744V87.6334Z" fill="#212121"/>
<path d="M96.3474 87.6334H98.8744V90.1604H96.3474V87.6334Z" fill="#212121"/>
<path d="M93.8204 87.6334H96.3474V90.1604H93.8204V87.6334Z" fill="#212121"/>
<path d="M91.2934 87.6334H93.8204V90.1604H91.2934V87.6334Z" fill="#212121"/>
<path d="M86.2394 87.6334H88.7664V90.1604H86.2394V87.6334Z" fill="#212121"/>
<path d="M73.6043 87.6334H76.1313V90.1604H73.6043V87.6334Z" fill="#212121"/>
<path d="M71.0773 87.6334H73.6043V90.1604H71.0773V87.6334Z" fill="#212121"/>
<path d="M68.5503 87.6334H71.0773V90.1604H68.5503V87.6334Z" fill="#212121"/>
<path d="M156.996 90.1604H159.523V92.6874H156.996V90.1604Z" fill="#212121"/>
<path d="M154.469 90.1604H156.996V92.6874H154.469V90.1604Z" fill="#212121"/>
<path d="M151.942 90.1604H154.469V92.6874H151.942V90.1604Z" fill="#212121"/>
<path d="M141.834 90.1604H144.361V92.6874H141.834V90.1604Z" fill="#212121"/>
<path d="M139.307 90.1604H141.834V92.6874H139.307V90.1604Z" fill="#212121"/>
<path d="M136.78 90.1604H139.307V92.6874H136.78V90.1604Z" fill="#212121"/>
<path d="M131.726 90.1604H134.253V92.6874H131.726V90.1604Z" fill="#212121"/>
<path d="M129.199 90.1604H131.726V92.6874H129.199V90.1604Z" fill="#212121"/>
<path d="M126.672 90.1604H129.199V92.6874H126.672V90.1604Z" fill="#212121"/>
<path d="M124.145 90.1604H126.672V92.6874H124.145V90.1604Z" fill="#212121"/>
<path d="M121.618 90.1604H124.145V92.6874H121.618V90.1604Z" fill="#212121"/>
<path d="M119.091 90.1604H121.618V92.6874H119.091V90.1604Z" fill="#212121"/>
<path d="M111.509 90.1604H114.036V92.6874H111.509V90.1604Z" fill="#212121"/>
<path d="M106.455 90.1604H108.982V92.6874H106.455V90.1604Z" fill="#212121"/>
<path d="M103.928 90.1604H106.455V92.6874H103.928V90.1604Z" fill="#212121"/>
<path d="M98.8744 90.1604H101.401V92.6874H98.8744V90.1604Z" fill="#212121"/>
<path d="M96.3474 90.1604H98.8744V92.6874H96.3474V90.1604Z" fill="#212121"/>
<path d="M86.2394 90.1604H88.7664V92.6874H86.2394V90.1604Z" fill="#212121"/>
<path d="M83.7124 90.1604H86.2394V92.6874H83.7124V90.1604Z" fill="#212121"/>
<path d="M81.1854 90.1604H83.7124V92.6874H81.1854V90.1604Z" fill="#212121"/>
<path d="M76.1313 90.1604H78.6583V92.6874H76.1313V90.1604Z" fill="#212121"/>
<path d="M71.0773 90.1604H73.6043V92.6874H71.0773V90.1604Z" fill="#212121"/>
<path d="M68.5503 90.1604H71.0773V92.6874H68.5503V90.1604Z" fill="#212121"/>
<path d="M159.523 92.6874H162.05V95.2145H159.523V92.6874Z" fill="#212121"/>
<path d="M151.942 92.6874H154.469V95.2145H151.942V92.6874Z" fill="#212121"/>
<path d="M149.415 92.6874H151.942V95.2145H149.415V92.6874Z" fill="#212121"/>
<path d="M144.361 92.6874H146.888V95.2145H144.361V92.6874Z" fill="#212121"/>
<path d="M141.834 92.6874H144.361V95.2145H141.834V92.6874Z" fill="#212121"/>
<path d="M134.253 92.6874H136.78V95.2145H134.253V92.6874Z" fill="#212121"/>
<path d="M131.726 92.6874H134.253V95.2145H131.726V92.6874Z" fill="#212121"/>
<path d="M124.145 92.6874H126.672V95.2145H124.145V92.6874Z" fill="#212121"/>
<path d="M121.618 92.6874H124.145V95.2145H121.618V92.6874Z" fill="#212121"/>
<path d="M114.036 92.6874H116.564V95.2145H114.036V92.6874Z" fill="#212121"/>
<path d="M111.509 92.6874H114.036V95.2145H111.509V92.6874Z" fill="#212121"/>
<path d="M98.8744 92.6874H101.401V95.2145H98.8744V92.6874Z" fill="#212121"/>
<path d="M93.8204 92.6874H96.3474V95.2145H93.8204V92.6874Z" fill="#212121"/>
<path d="M86.2394 92.6874H88.7664V95.2145H86.2394V92.6874Z" fill="#212121"/>
<path d="M83.7124 92.6874H86.2394V95.2145H83.7124V92.6874Z" fill="#212121"/>
<path d="M81.1854 92.6874H83.7124V95.2145H81.1854V92.6874Z" fill="#212121"/>
<path d="M78.6583 92.6874H81.1854V95.2145H78.6583V92.6874Z" fill="#212121"/>
<path d="M73.6043 92.6874H76.1313V95.2145H73.6043V92.6874Z" fill="#212121"/>
<path d="M68.5503 92.6874H71.0773V95.2145H68.5503V92.6874Z" fill="#212121"/>
<path d="M159.523 95.2145H162.05V97.7415H159.523V95.2145Z" fill="#212121"/>
<path d="M156.996 95.2145H159.523V97.7415H156.996V95.2145Z" fill="#212121"/>
<path d="M141.834 95.2145H144.361V97.7415H141.834V95.2145Z" fill="#212121"/>
<path d="M139.307 95.2145H141.834V97.7415H139.307V95.2145Z" fill="#212121"/>
<path d="M131.726 95.2145H134.253V97.7415H131.726V95.2145Z" fill="#212121"/>
<path d="M129.199 95.2145H131.726V97.7415H129.199V95.2145Z" fill="#212121"/>
<path d="M121.618 95.2145H124.145V97.7415H121.618V95.2145Z" fill="#212121"/>
<path d="M116.564 95.2145H119.091V97.7415H116.564V95.2145Z" fill="#212121"/>
<path d="M111.509 95.2145H114.036V97.7415H111.509V95.2145Z" fill="#212121"/>
<path d="M106.455 95.2145H108.982V97.7415H106.455V95.2145Z" fill="#212121"/>
<path d="M101.401 95.2145H103.928V97.7415H101.401V95.2145Z" fill="#212121"/>
<path d="M98.8744 95.2145H101.401V97.7415H98.8744V95.2145Z" fill="#212121"/>
<path d="M91.2934 95.2145H93.8204V97.7415H91.2934V95.2145Z" fill="#212121"/>
<path d="M81.1854 95.2145H83.7124V97.7415H81.1854V95.2145Z" fill="#212121"/>
<path d="M73.6043 95.2145H76.1313V97.7415H73.6043V95.2145Z" fill="#212121"/>
<path d="M71.0773 95.2145H73.6043V97.7415H71.0773V95.2145Z" fill="#212121"/>
<path d="M68.5503 95.2145H71.0773V97.7415H68.5503V95.2145Z" fill="#212121"/>
<path d="M159.523 97.7415H162.05V100.268H159.523V97.7415Z" fill="#212121"/>
<path d="M154.469 97.7415H156.996V100.268H154.469V97.7415Z" fill="#212121"/>
<path d="M151.942 97.7415H154.469V100.268H151.942V97.7415Z" fill="#212121"/>
<path d="M144.361 97.7415H146.888V100.268H144.361V97.7415Z" fill="#212121"/>
<path d="M131.726 97.7415H134.253V100.268H131.726V97.7415Z" fill="#212121"/>
<path d="M129.199 97.7415H131.726V100.268H129.199V97.7415Z" fill="#212121"/>
<path d="M126.672 97.7415H129.199V100.268H126.672V97.7415Z" fill="#212121"/>
<path d="M121.618 97.7415H124.145V100.268H121.618V97.7415Z" fill="#212121"/>
<path d="M119.091 97.7415H121.618V100.268H119.091V97.7415Z" fill="#212121"/>
<path d="M116.564 97.7415H119.091V100.268H116.564V97.7415Z" fill="#212121"/>
<path d="M114.036 97.7415H116.564V100.268H114.036V97.7415Z" fill="#212121"/>
<path d="M108.982 97.7415H111.509V100.268H108.982V97.7415Z" fill="#212121"/>
<path d="M106.455 97.7415H108.982V100.268H106.455V97.7415Z" fill="#212121"/>
<path d="M103.928 97.7415H106.455V100.268H103.928V97.7415Z" fill="#212121"/>
<path d="M96.3474 97.7415H98.8744V100.268H96.3474V97.7415Z" fill="#212121"/>
<path d="M91.2934 97.7415H93.8204V100.268H91.2934V97.7415Z" fill="#212121"/>
<path d="M88.7664 97.7415H91.2934V100.268H88.7664V97.7415Z" fill="#212121"/>
<path d="M83.7124 97.7415H86.2394V100.268H83.7124V97.7415Z" fill="#212121"/>
<path d="M81.1854 97.7415H83.7124V100.268H81.1854V97.7415Z" fill="#212121"/>
<path d="M73.6043 97.7415H76.1313V100.268H73.6043V97.7415Z" fill="#212121"/>
<path d="M71.0773 97.7415H73.6043V100.268H71.0773V97.7415Z" fill="#212121"/>
<path d="M68.5503 97.7415H71.0773V100.268H68.5503V97.7415Z" fill="#212121"/>
<path d="M159.523 100.268H162.05V102.795H159.523V100.268Z" fill="#212121"/>
<path d="M154.469 100.268H156.996V102.795H154.469V100.268Z" fill="#212121"/>
<path d="M151.942 100.268H154.469V102.795H151.942V100.268Z" fill="#212121"/>
<path d="M136.78 100.268H139.307V102.795H136.78V100.268Z" fill="#212121"/>
<path d="M126.672 100.268H129.199V102.795H126.672V100.268Z" fill="#212121"/>
<path d="M119.091 100.268H121.618V102.795H119.091V100.268Z" fill="#212121"/>
<path d="M106.455 100.268H108.982V102.795H106.455V100.268Z" fill="#212121"/>
<path d="M103.928 100.268H106.455V102.795H103.928V100.268Z" fill="#212121"/>
<path d="M101.401 100.268H103.928V102.795H101.401V100.268Z" fill="#212121"/>
<path d="M98.8744 100.268H101.401V102.795H98.8744V100.268Z" fill="#212121"/>
<path d="M86.2394 100.268H88.7664V102.795H86.2394V100.268Z" fill="#212121"/>
<path d="M71.0773 100.268H73.6043V102.795H71.0773V100.268Z" fill="#212121"/>
<path d="M159.523 102.795H162.05V105.323H159.523V102.795Z" fill="#212121"/>
<path d="M146.888 102.795H149.415V105.323H146.888V102.795Z" fill="#212121"/>
<path d="M144.361 102.795H146.888V105.323H144.361V102.795Z" fill="#212121"/>
<path d="M131.726 102.795H134.253V105.323H131.726V102.795Z" fill="#212121"/>
<path d="M126.672 102.795H129.199V105.323H126.672V102.795Z" fill="#212121"/>
<path d="M124.145 102.795H126.672V105.323H124.145V102.795Z" fill="#212121"/>
<path d="M121.618 102.795H124.145V105.323H121.618V102.795Z" fill="#212121"/>
<path d="M111.509 102.795H114.036V105.323H111.509V102.795Z" fill="#212121"/>
<path d="M101.401 102.795H103.928V105.323H101.401V102.795Z" fill="#212121"/>
<path d="M98.8744 102.795H101.401V105.323H98.8744V102.795Z" fill="#212121"/>
<path d="M96.3474 102.795H98.8744V105.323H96.3474V102.795Z" fill="#212121"/>
<path d="M93.8204 102.795H96.3474V105.323H93.8204V102.795Z" fill="#212121"/>
<path d="M91.2934 102.795H93.8204V105.323H91.2934V102.795Z" fill="#212121"/>
<path d="M88.7664 102.795H91.2934V105.323H88.7664V102.795Z" fill="#212121"/>
<path d="M86.2394 102.795H88.7664V105.323H86.2394V102.795Z" fill="#212121"/>
<path d="M83.7124 102.795H86.2394V105.323H83.7124V102.795Z" fill="#212121"/>
<path d="M81.1854 102.795H83.7124V105.323H81.1854V102.795Z" fill="#212121"/>
<path d="M78.6583 102.795H81.1854V105.323H78.6583V102.795Z" fill="#212121"/>
<path d="M73.6043 102.795H76.1313V105.323H73.6043V102.795Z" fill="#212121"/>
<path d="M71.0773 102.795H73.6043V105.323H71.0773V102.795Z" fill="#212121"/>
<path d="M139.307 105.323H141.834V107.85H139.307V105.323Z" fill="#212121"/>
<path d="M136.78 105.323H139.307V107.85H136.78V105.323Z" fill="#212121"/>
<path d="M124.145 105.323H126.672V107.85H124.145V105.323Z" fill="#212121"/>
<path d="M119.091 105.323H121.618V107.85H119.091V105.323Z" fill="#212121"/>
<path d="M114.036 105.323H116.564V107.85H114.036V105.323Z" fill="#212121"/>
<path d="M106.455 105.323H108.982V107.85H106.455V105.323Z" fill="#212121"/>
<path d="M103.928 105.323H106.455V107.85H103.928V105.323Z" fill="#212121"/>
<path d="M101.401 105.323H103.928V107.85H101.401V105.323Z" fill="#212121"/>
<path d="M96.3474 105.323H98.8744V107.85H96.3474V105.323Z" fill="#212121"/>
<path d="M91.2934 105.323H93.8204V107.85H91.2934V105.323Z" fill="#212121"/>
<path d="M88.7664 105.323H91.2934V107.85H88.7664V105.323Z" fill="#212121"/>
<path d="M78.6583 105.323H81.1854V107.85H78.6583V105.323Z" fill="#212121"/>
<path d="M159.523 107.85H162.05V110.377H159.523V107.85Z" fill="#212121"/>
<path d="M156.996 107.85H159.523V110.377H156.996V107.85Z" fill="#212121"/>
<path d="M154.469 107.85H156.996V110.377H154.469V107.85Z" fill="#212121"/>
<path d="M151.942 107.85H154.469V110.377H151.942V107.85Z" fill="#212121"/>
<path d="M149.415 107.85H151.942V110.377H149.415V107.85Z" fill="#212121"/>
<path d="M146.888 107.85H149.415V110.377H146.888V107.85Z" fill="#212121"/>
<path d="M144.361 107.85H146.888V110.377H144.361V107.85Z" fill="#212121"/>
<path d="M139.307 107.85H141.834V110.377H139.307V107.85Z" fill="#212121"/>
<path d="M136.78 107.85H139.307V110.377H136.78V107.85Z" fill="#212121"/>
<path d="M129.199 107.85H131.726V110.377H129.199V107.85Z" fill="#212121"/>
<path d="M121.618 107.85H124.145V110.377H121.618V107.85Z" fill="#212121"/>
<path d="M108.982 107.85H111.509V110.377H108.982V107.85Z" fill="#212121"/>
<path d="M106.455 107.85H108.982V110.377H106.455V107.85Z" fill="#212121"/>
<path d="M98.8744 107.85H101.401V110.377H98.8744V107.85Z" fill="#212121"/>
<path d="M96.3474 107.85H98.8744V110.377H96.3474V107.85Z" fill="#212121"/>
<path d="M93.8204 107.85H96.3474V110.377H93.8204V107.85Z" fill="#212121"/>
<path d="M88.7664 107.85H91.2934V110.377H88.7664V107.85Z" fill="#212121"/>
<path d="M83.7124 107.85H86.2394V110.377H83.7124V107.85Z" fill="#212121"/>
<path d="M78.6583 107.85H81.1854V110.377H78.6583V107.85Z" fill="#212121"/>
<path d="M76.1313 107.85H78.6583V110.377H76.1313V107.85Z" fill="#212121"/>
<path d="M71.0773 107.85H73.6043V110.377H71.0773V107.85Z" fill="#212121"/>
<path d="M68.5503 107.85H71.0773V110.377H68.5503V107.85Z" fill="#212121"/>
<path d="M159.523 110.377H162.05V112.904H159.523V110.377Z" fill="#212121"/>
<path d="M144.361 110.377H146.888V112.904H144.361V110.377Z" fill="#212121"/>
<path d="M139.307 110.377H141.834V112.904H139.307V110.377Z" fill="#212121"/>
<path d="M131.726 110.377H134.253V112.904H131.726V110.377Z" fill="#212121"/>
<path d="M129.199 110.377H131.726V112.904H129.199V110.377Z" fill="#212121"/>
<path d="M116.564 110.377H119.091V112.904H116.564V110.377Z" fill="#212121"/>
<path d="M108.982 110.377H111.509V112.904H108.982V110.377Z" fill="#212121"/>
<path d="M106.455 110.377H108.982V112.904H106.455V110.377Z" fill="#212121"/>
<path d="M103.928 110.377H106.455V112.904H103.928V110.377Z" fill="#212121"/>
<path d="M88.7664 110.377H91.2934V112.904H88.7664V110.377Z" fill="#212121"/>
<path d="M78.6583 110.377H81.1854V112.904H78.6583V110.377Z" fill="#212121"/>
<path d="M71.0773 110.377H73.6043V112.904H71.0773V110.377Z" fill="#212121"/>
<path d="M159.523 112.904H162.05V115.431H159.523V112.904Z" fill="#212121"/>
<path d="M154.469 112.904H156.996V115.431H154.469V112.904Z" fill="#212121"/>
<path d="M151.942 112.904H154.469V115.431H151.942V112.904Z" fill="#212121"/>
<path d="M149.415 112.904H151.942V115.431H149.415V112.904Z" fill="#212121"/>
<path d="M144.361 112.904H146.888V115.431H144.361V112.904Z" fill="#212121"/>
<path d="M139.307 112.904H141.834V115.431H139.307V112.904Z" fill="#212121"/>
<path d="M131.726 112.904H134.253V115.431H131.726V112.904Z" fill="#212121"/>
<path d="M129.199 112.904H131.726V115.431H129.199V112.904Z" fill="#212121"/>
<path d="M121.618 112.904H124.145V115.431H121.618V112.904Z" fill="#212121"/>
<path d="M111.509 112.904H114.036V115.431H111.509V112.904Z" fill="#212121"/>
<path d="M106.455 112.904H108.982V115.431H106.455V112.904Z" fill="#212121"/>
<path d="M101.401 112.904H103.928V115.431H101.401V112.904Z" fill="#212121"/>
<path d="M96.3474 112.904H98.8744V115.431H96.3474V112.904Z" fill="#212121"/>
<path d="M93.8204 112.904H96.3474V115.431H93.8204V112.904Z" fill="#212121"/>
<path d="M91.2934 112.904H93.8204V115.431H91.2934V112.904Z" fill="#212121"/>
<path d="M88.7664 112.904H91.2934V115.431H88.7664V112.904Z" fill="#212121"/>
<path d="M86.2394 112.904H88.7664V115.431H86.2394V112.904Z" fill="#212121"/>
<path d="M83.7124 112.904H86.2394V115.431H83.7124V112.904Z" fill="#212121"/>
<path d="M81.1854 112.904H83.7124V115.431H81.1854V112.904Z" fill="#212121"/>
<path d="M78.6583 112.904H81.1854V115.431H78.6583V112.904Z" fill="#212121"/>
<path d="M73.6043 112.904H76.1313V115.431H73.6043V112.904Z" fill="#212121"/>
<path d="M68.5503 112.904H71.0773V115.431H68.5503V112.904Z" fill="#212121"/>
<path d="M159.523 115.431H162.05V117.958H159.523V115.431Z" fill="#212121"/>
<path d="M154.469 115.431H156.996V117.958H154.469V115.431Z" fill="#212121"/>
<path d="M151.942 115.431H154.469V117.958H151.942V115.431Z" fill="#212121"/>
<path d="M149.415 115.431H151.942V117.958H149.415V115.431Z" fill="#212121"/>
<path d="M144.361 115.431H146.888V117.958H144.361V115.431Z" fill="#212121"/>
<path d="M139.307 115.431H141.834V117.958H139.307V115.431Z" fill="#212121"/>
<path d="M136.78 115.431H139.307V117.958H136.78V115.431Z" fill="#212121"/>
<path d="M134.253 115.431H136.78V117.958H134.253V115.431Z" fill="#212121"/>
<path d="M131.726 115.431H134.253V117.958H131.726V115.431Z" fill="#212121"/>
<path d="M129.199 115.431H131.726V117.958H129.199V115.431Z" fill="#212121"/>
<path d="M124.145 115.431H126.672V117.958H124.145V115.431Z" fill="#212121"/>
<path d="M116.564 115.431H119.091V117.958H116.564V115.431Z" fill="#212121"/>
<path d="M114.036 115.431H116.564V117.958H114.036V115.431Z" fill="#212121"/>
<path d="M108.982 115.431H111.509V117.958H108.982V115.431Z" fill="#212121"/>
<path d="M103.928 115.431H106.455V117.958H103.928V115.431Z" fill="#212121"/>
<path d="M98.8744 115.431H101.401V117.958H98.8744V115.431Z" fill="#212121"/>
<path d="M96.3474 115.431H98.8744V117.958H96.3474V115.431Z" fill="#212121"/>
<path d="M91.2934 115.431H93.8204V117.958H91.2934V115.431Z" fill="#212121"/>
<path d="M88.7664 115.431H91.2934V117.958H88.7664V115.431Z" fill="#212121"/>
<path d="M83.7124 115.431H86.2394V117.958H83.7124V115.431Z" fill="#212121"/>
<path d="M71.0773 115.431H73.6043V117.958H71.0773V115.431Z" fill="#212121"/>
<path d="M159.523 117.958H162.05V120.485H159.523V117.958Z" fill="#212121"/>
<path d="M154.469 117.958H156.996V120.485H154.469V117.958Z" fill="#212121"/>
<path d="M151.942 117.958H154.469V120.485H151.942V117.958Z" fill="#212121"/>
<path d="M149.415 117.958H151.942V120.485H149.415V117.958Z" fill="#212121"/>
<path d="M144.361 117.958H146.888V120.485H144.361V117.958Z" fill="#212121"/>
<path d="M139.307 117.958H141.834V120.485H139.307V117.958Z" fill="#212121"/>
<path d="M134.253 117.958H136.78V120.485H134.253V117.958Z" fill="#212121"/>
<path d="M126.672 117.958H129.199V120.485H126.672V117.958Z" fill="#212121"/>
<path d="M121.618 117.958H124.145V120.485H121.618V117.958Z" fill="#212121"/>
<path d="M119.091 117.958H121.618V120.485H119.091V117.958Z" fill="#212121"/>
<path d="M116.564 117.958H119.091V120.485H116.564V117.958Z" fill="#212121"/>
<path d="M114.036 117.958H116.564V120.485H114.036V117.958Z" fill="#212121"/>
<path d="M111.509 117.958H114.036V120.485H111.509V117.958Z" fill="#212121"/>
<path d="M103.928 117.958H106.455V120.485H103.928V117.958Z" fill="#212121"/>
<path d="M96.3474 117.958H98.8744V120.485H96.3474V117.958Z" fill="#212121"/>
<path d="M91.2934 117.958H93.8204V120.485H91.2934V117.958Z" fill="#212121"/>
<path d="M86.2394 117.958H88.7664V120.485H86.2394V117.958Z" fill="#212121"/>
<path d="M81.1854 117.958H83.7124V120.485H81.1854V117.958Z" fill="#212121"/>
<path d="M68.5503 117.958H71.0773V120.485H68.5503V117.958Z" fill="#212121"/>
<path d="M159.523 120.485H162.05V123.012H159.523V120.485Z" fill="#212121"/>
<path d="M144.361 120.485H146.888V123.012H144.361V120.485Z" fill="#212121"/>
<path d="M139.307 120.485H141.834V123.012H139.307V120.485Z" fill="#212121"/>
<path d="M136.78 120.485H139.307V123.012H136.78V120.485Z" fill="#212121"/>
<path d="M134.253 120.485H136.78V123.012H134.253V120.485Z" fill="#212121"/>
<path d="M131.726 120.485H134.253V123.012H131.726V120.485Z" fill="#212121"/>
<path d="M126.672 120.485H129.199V123.012H126.672V120.485Z" fill="#212121"/>
<path d="M124.145 120.485H126.672V123.012H124.145V120.485Z" fill="#212121"/>
<path d="M121.618 120.485H124.145V123.012H121.618V120.485Z" fill="#212121"/>
<path d="M119.091 120.485H121.618V123.012H119.091V120.485Z" fill="#212121"/>
<path d="M114.036 120.485H116.564V123.012H114.036V120.485Z" fill="#212121"/>
<path d="M111.509 120.485H114.036V123.012H111.509V120.485Z" fill="#212121"/>
<path d="M108.982 120.485H111.509V123.012H108.982V120.485Z" fill="#212121"/>
<path d="M106.455 120.485H108.982V123.012H106.455V120.485Z" fill="#212121"/>
<path d="M103.928 120.485H106.455V123.012H103.928V120.485Z" fill="#212121"/>
<path d="M98.8744 120.485H101.401V123.012H98.8744V120.485Z" fill="#212121"/>
<path d="M93.8204 120.485H96.3474V123.012H93.8204V120.485Z" fill="#212121"/>
<path d="M91.2934 120.485H93.8204V123.012H91.2934V120.485Z" fill="#212121"/>
<path d="M88.7664 120.485H91.2934V123.012H88.7664V120.485Z" fill="#212121"/>
<path d="M86.2394 120.485H88.7664V123.012H86.2394V120.485Z" fill="#212121"/>
<path d="M78.6583 120.485H81.1854V123.012H78.6583V120.485Z" fill="#212121"/>
<path d="M76.1313 120.485H78.6583V123.012H76.1313V120.485Z" fill="#212121"/>
<path d="M68.5503 120.485H71.0773V123.012H68.5503V120.485Z" fill="#212121"/>
<path d="M159.523 123.012H162.05V125.539H159.523V123.012Z" fill="#212121"/>
<path d="M156.996 123.012H159.523V125.539H156.996V123.012Z" fill="#212121"/>
<path d="M154.469 123.012H156.996V125.539H154.469V123.012Z" fill="#212121"/>
<path d="M151.942 123.012H154.469V125.539H151.942V123.012Z" fill="#212121"/>
<path d="M149.415 123.012H151.942V125.539H149.415V123.012Z" fill="#212121"/>
<path d="M146.888 123.012H149.415V125.539H146.888V123.012Z" fill="#212121"/>
<path d="M144.361 123.012H146.888V125.539H144.361V123.012Z" fill="#212121"/>
<path d="M131.726 123.012H134.253V125.539H131.726V123.012Z" fill="#212121"/>
<path d="M126.672 123.012H129.199V125.539H126.672V123.012Z" fill="#212121"/>
<path d="M124.145 123.012H126.672V125.539H124.145V123.012Z" fill="#212121"/>
<path d="M119.091 123.012H121.618V125.539H119.091V123.012Z" fill="#212121"/>
<path d="M116.564 123.012H119.091V125.539H116.564V123.012Z" fill="#212121"/>
<path d="M111.509 123.012H114.036V125.539H111.509V123.012Z" fill="#212121"/>
<path d="M103.928 123.012H106.455V125.539H103.928V123.012Z" fill="#212121"/>
<path d="M93.8204 123.012H96.3474V125.539H93.8204V123.012Z" fill="#212121"/>
<path d="M76.1313 123.012H78.6583V125.539H76.1313V123.012Z" fill="#212121"/>
<path d="M73.6043 123.012H76.1313V125.539H73.6043V123.012Z" fill="#212121"/>
<path d="M71.0773 123.012H73.6043V125.539H71.0773V123.012Z" fill="#212121"/>
<path d="M68.5503 123.012H71.0773V125.539H68.5503V123.012Z" fill="#212121"/>
<g filter="url(#filter1_d_9078_5058)">
<path d="M115.254 91.0823L114.699 90.8579C110.011 89.0906 106.783 86.1557 104.821 82.395C103.797 80.4314 103.17 78.341 102.864 76.2194C102.654 74.7615 102.617 73.4638 102.679 72.4157C102.685 72.3232 102.691 72.2407 102.697 72.1683C102.701 72.1209 102.704 72.0908 102.707 72.0609L102.839 70.9926L103.542 70.8123L103.853 70.7326C107.033 69.9018 109.617 68.9114 111.654 67.8486C112.384 67.4678 112.997 67.1013 113.499 66.7606C113.682 66.6356 113.841 66.5211 113.974 66.4187C114.065 66.349 114.133 66.2933 114.173 66.2586C114.794 65.715 115.708 65.7136 116.33 66.2543C116.378 66.2948 116.445 66.3493 116.534 66.4179C116.669 66.521 116.827 66.6355 117.011 66.7604C117.514 67.1017 118.126 67.468 118.856 67.8486C120.893 68.9117 123.475 69.9019 126.65 70.7314L127.669 70.9926L127.8 72.0505C127.804 72.0908 127.807 72.1209 127.811 72.1683C127.817 72.2407 127.823 72.3232 127.829 72.4157C127.891 73.4638 127.854 74.7615 127.644 76.2194C127.338 78.341 126.712 80.4314 125.687 82.395C123.725 86.1557 120.497 89.0906 115.809 90.8579L115.254 91.0823Z" fill="white"/>
</g>
<path d="M126.741 72.1705C126.755 72.3009 128.108 85.0926 115.421 89.8676L115.254 89.9351L115.087 89.8676C102.401 85.0926 103.754 72.3009 103.767 72.1705L103.808 71.8423L104.123 71.7613C111.506 69.8324 114.555 67.337 114.875 67.0583C115.096 66.8649 115.412 66.8649 115.633 67.0583C115.958 67.337 119.002 69.8324 126.385 71.7613L126.701 71.8423L126.741 72.1705Z" fill="#FF5252"/>
<mask id="mask0_9078_5058" style="mask-type:luminance" maskUnits="userSpaceOnUse" x="103" y="66" width="24" height="24">
<path d="M126.741 72.1705C126.755 72.3009 128.108 85.0926 115.421 89.8676L115.254 89.9351L115.087 89.8676C102.401 85.0926 103.754 72.3009 103.767 72.1705L103.808 71.8423L104.123 71.7613C111.506 69.8324 114.555 67.337 114.875 67.0583C115.096 66.8649 115.412 66.8649 115.633 67.0583C115.958 67.337 119.002 69.8324 126.385 71.7613L126.701 71.8423L126.741 72.1705Z" fill="white"/>
</mask>
<g mask="url(#mask0_9078_5058)">
<path fill-rule="evenodd" clip-rule="evenodd" d="M118.864 82.2036C121 80.0684 121.003 76.61 118.872 74.4792C118.832 74.4386 118.791 74.3988 118.749 74.3597L118.833 74.276L127.497 82.94L119.73 90.7064L111.797 82.7731C113.931 84.3216 116.937 84.1311 118.864 82.2036Z" fill="url(#paint8_linear_9078_5058)"/>
<path fill-rule="evenodd" clip-rule="evenodd" d="M126.904 66.6262V89.9351H115.225C115.225 89.9351 115.306 79.3926 115.225 66.6262C115.22 65.8413 126.904 66.6262 126.904 66.6262Z" fill="url(#paint9_linear_9078_5058)"/>
</g>
<g filter="url(#filter2_d_9078_5058)">
<path fill-rule="evenodd" clip-rule="evenodd" d="M119.133 74.6069C120.182 75.6374 120.748 77.0169 120.748 78.4795C120.748 79.9421 120.182 81.3217 119.133 82.3521C118.068 83.4325 116.669 83.9643 115.254 83.9643C113.856 83.9643 112.441 83.4325 111.375 82.3521C110.326 81.3217 109.76 79.9421 109.76 78.4795C109.76 77.0169 110.326 75.6374 111.375 74.6069C113.506 72.4628 117.002 72.4628 119.133 74.6069ZM118.201 81.4213C118.984 80.6402 119.416 79.5931 119.416 78.4795C119.416 77.5986 119.133 76.7509 118.634 76.0529L112.823 81.8535C113.523 82.3521 114.372 82.6347 115.254 82.6347C116.37 82.6347 117.419 82.2025 118.201 81.4213ZM117.685 75.1055L111.874 80.9061C111.375 80.2081 111.092 79.3604 111.092 78.4795C111.092 77.3659 111.525 76.3188 112.307 75.5376C113.09 74.7565 114.139 74.3243 115.254 74.3243C116.137 74.3243 116.986 74.6069 117.685 75.1055Z" fill="url(#paint10_linear_9078_5058)"/>
</g>
<g filter="url(#filter3_d_9078_5058)">
<rect x="61.1179" y="125.148" width="108.364" height="5.05087" rx="2.52543" fill="url(#paint11_linear_9078_5058)"/>
</g>
</g>
<rect x="0.5" y="0.5" width="231" height="151" rx="7.5" stroke="black" stroke-opacity="0.05"/>
<defs>
<filter id="filter0_f_9078_5058" x="-133.579" y="-87.5889" width="499.158" height="559.755" filterUnits="userSpaceOnUse" color-interpolation-filters="sRGB">
<feFlood flood-opacity="0" result="BackgroundImageFix"/>
<feBlend mode="normal" in="SourceGraphic" in2="BackgroundImageFix" result="shape"/>
<feGaussianBlur stdDeviation="100" result="effect1_foregroundBlur_9078_5058"/>
</filter>
<filter id="filter1_d_9078_5058" x="101.652" y="64.8499" width="27.2042" height="27.2324" filterUnits="userSpaceOnUse" color-interpolation-filters="sRGB">
<feFlood flood-opacity="0" result="BackgroundImageFix"/>
<feColorMatrix in="SourceAlpha" type="matrix" values="0 0 0 0 0 0 0 0 0 0 0 0 0 0 0 0 0 0 127 0" result="hardAlpha"/>
<feOffset/>
<feGaussianBlur stdDeviation="0.5"/>
<feColorMatrix type="matrix" values="0 0 0 0 0 0 0 0 0 0 0 0 0 0 0 0 0 0 0.174423 0"/>
<feBlend mode="normal" in2="BackgroundImageFix" result="effect1_dropShadow_9078_5058"/>
<feBlend mode="normal" in="SourceGraphic" in2="effect1_dropShadow_9078_5058" result="shape"/>
</filter>
<filter id="filter2_d_9078_5058" x="108.76" y="71.9988" width="12.9884" height="12.9655" filterUnits="userSpaceOnUse" color-interpolation-filters="sRGB">
<feFlood flood-opacity="0" result="BackgroundImageFix"/>
<feColorMatrix in="SourceAlpha" type="matrix" values="0 0 0 0 0 0 0 0 0 0 0 0 0 0 0 0 0 0 127 0" result="hardAlpha"/>
<feOffset/>
<feGaussianBlur stdDeviation="0.5"/>
<feColorMatrix type="matrix" values="0 0 0 0 0 0 0 0 0 0 0 0 0 0 0 0 0 0 0.174423 0"/>
<feBlend mode="normal" in2="BackgroundImageFix" result="effect1_dropShadow_9078_5058"/>
<feBlend mode="normal" in="SourceGraphic" in2="effect1_dropShadow_9078_5058" result="shape"/>
</filter>
<filter id="filter3_d_9078_5058" x="50.229" y="114.259" width="130.142" height="26.8286" filterUnits="userSpaceOnUse" color-interpolation-filters="sRGB">
<feFlood flood-opacity="0" result="BackgroundImageFix"/>
<feColorMatrix in="SourceAlpha" type="matrix" values="0 0 0 0 0 0 0 0 0 0 0 0 0 0 0 0 0 0 127 0" result="hardAlpha"/>
<feOffset/>
<feGaussianBlur stdDeviation="5.44444"/>
<feColorMatrix type="matrix" values="0 0 0 0 0.0666667 0 0 0 0 0.270588 0 0 0 0 1 0 0 0 0.5 0"/>
<feBlend mode="normal" in2="BackgroundImageFix" result="effect1_dropShadow_9078_5058"/>
<feBlend mode="normal" in="SourceGraphic" in2="effect1_dropShadow_9078_5058" result="shape"/>
</filter>
<linearGradient id="paint0_linear_9078_5058" x1="95.5072" y1="112.411" x2="75.4633" y2="263.267" gradientUnits="userSpaceOnUse">
<stop stop-color="#536DFE"/>
<stop offset="1" stop-color="#3CC196"/>
</linearGradient>
<radialGradient id="paint1_radial_9078_5058" cx="0" cy="0" r="1" gradientUnits="userSpaceOnUse" gradientTransform="translate(91.3843 1.19464e-05) rotate(-90) scale(170.859 156.618)">
<stop stop-color="#5B8DEF" stop-opacity="0.4"/>
<stop offset="1" stop-color="#3CC196" stop-opacity="0"/>
</radialGradient>
<linearGradient id="paint2_linear_9078_5058" x1="176.364" y1="102.262" x2="177.673" y2="102.217" gradientUnits="userSpaceOnUse">
<stop stop-color="#3CC196"/>
<stop offset="1" stop-opacity="0"/>
</linearGradient>
<linearGradient id="paint3_linear_9078_5058" x1="176.226" y1="42.7619" x2="174.323" y2="42.8633" gradientUnits="userSpaceOnUse">
<stop stop-color="#5376FE"/>
<stop offset="1" stop-opacity="0"/>
</linearGradient>
<linearGradient id="paint4_linear_9078_5058" x1="176.364" y1="115.913" x2="177.669" y2="115.828" gradientUnits="userSpaceOnUse">
<stop stop-color="#3CC196"/>
<stop offset="1" stop-opacity="0"/>
</linearGradient>
<linearGradient id="paint5_linear_9078_5058" x1="176.226" y1="84.7732" x2="174.337" y2="84.9655" gradientUnits="userSpaceOnUse">
<stop stop-color="#5376FE"/>
<stop offset="1" stop-opacity="0"/>
</linearGradient>
<linearGradient id="paint6_linear_9078_5058" x1="146.463" y1="405.248" x2="244.634" y2="367.869" gradientUnits="userSpaceOnUse">
<stop stop-color="#3CC196"/>
<stop offset="1" stop-opacity="0"/>
</linearGradient>
<linearGradient id="paint7_linear_9078_5058" x1="134.693" y1="-51.5714" x2="13.8014" y2="20.3192" gradientUnits="userSpaceOnUse">
<stop stop-color="#5376FE"/>
<stop offset="1" stop-opacity="0"/>
</linearGradient>
<linearGradient id="paint8_linear_9078_5058" x1="121.689" y1="83.1109" x2="119.942" y2="80.8808" gradientUnits="userSpaceOnUse">
<stop stop-opacity="0.01"/>
<stop offset="1" stop-opacity="0.0518286"/>
</linearGradient>
<linearGradient id="paint9_linear_9078_5058" x1="125.729" y1="68.8192" x2="115.329" y2="68.8192" gradientUnits="userSpaceOnUse">
<stop stop-opacity="0.01"/>
<stop offset="1" stop-opacity="0.0518286"/>
</linearGradient>
<linearGradient id="paint10_linear_9078_5058" x1="122.926" y1="78.4577" x2="115.333" y2="86.146" gradientUnits="userSpaceOnUse">
<stop stop-color="white"/>
<stop offset="1" stop-color="#E2E0E0"/>
</linearGradient>
<linearGradient id="paint11_linear_9078_5058" x1="61.1179" y1="128.717" x2="86.3283" y2="173.323" gradientUnits="userSpaceOnUse">
<stop stop-color="#536DFE"/>
<stop offset="1" stop-color="#3CC196"/>
</linearGradient>
<clipPath id="clip0_9078_5058">
<rect width="232" height="152" rx="8" fill="white"/>
</clipPath>
</defs>
</svg>
