<svg width="20" height="20" viewBox="0 0 20 20" fill="none" xmlns="http://www.w3.org/2000/svg">
<path fill-rule="evenodd" clip-rule="evenodd" d="M17.638 5.13918H15.9749C16.1422 4.80836 16.2358 4.44516 16.2491 4.07466C16.2251 3.41966 15.9447 2.80033 15.4684 2.35004C14.9921 1.89974 14.3581 1.65451 13.7028 1.66715C12.9222 1.70077 12.1654 1.94572 11.5132 2.37585C10.861 2.80597 10.3378 3.40513 9.99949 4.10938C9.66479 3.40711 9.14561 2.80895 8.49739 2.3788C7.84917 1.94866 7.09628 1.70268 6.31914 1.66715H6.23998C5.59404 1.66819 4.97367 1.91962 4.50928 2.3686C4.04489 2.81758 3.77267 3.42912 3.74984 4.07466V4.12049C3.76339 4.47501 3.85315 4.82246 4.01302 5.13918H2.36103C2.17686 5.13918 2.00024 5.21234 1.87001 5.34257C1.73979 5.47279 1.66663 5.64942 1.66663 5.83359V7.9168C1.66663 8.10097 1.73979 8.2776 1.87001 8.40782C2.00024 8.53805 2.17686 8.61121 2.36103 8.61121H17.638C17.8221 8.61121 17.9987 8.53805 18.129 8.40782C18.2592 8.2776 18.3324 8.10097 18.3324 7.9168V5.83359C18.3324 5.64942 18.2592 5.47279 18.129 5.34257C17.9987 5.21234 17.8221 5.13918 17.638 5.13918ZM13.7243 3.05596C14.0079 3.04861 14.2836 3.15003 14.4948 3.33945C14.7061 3.52886 14.8368 3.79191 14.8603 4.07466C14.8505 4.35889 14.7312 4.62833 14.5274 4.8267C14.3236 5.02507 14.051 5.13702 13.7666 5.13918H11.0258C11.4577 4.26492 12.3167 3.05596 13.7243 3.05596ZM5.13865 4.09757C5.15643 3.81341 5.28262 3.54693 5.49117 3.3531C5.69973 3.15928 5.97473 3.05292 6.25942 3.05596C7.69615 3.06152 8.53777 4.25798 8.97455 5.13918H6.26637C5.98124 5.14133 5.70599 5.03485 5.49653 4.84139C5.28707 4.64792 5.15911 4.38197 5.13865 4.09757ZM11.3888 9.99998V18.3328H14.8608C15.4133 18.3328 15.9432 18.1134 16.3339 17.7227C16.7245 17.332 16.944 16.8021 16.944 16.2496V9.99998H11.3888ZM3.0559 9.99998H8.61115V18.3328H5.13912C4.58662 18.3328 4.05674 18.1134 3.66606 17.7227C3.27538 17.332 3.0559 16.8021 3.0559 16.2496V9.99998Z" fill="black"/>
</svg>
