<svg width="16" height="16" viewBox="0 0 16 16" fill="none" xmlns="http://www.w3.org/2000/svg">
<g id="Icon/settings">
<path id="Shape" fill-rule="evenodd" clip-rule="evenodd" d="M14.1937 6.93381C14.3833 6.93381 14.602 7.07391 14.6234 7.26193L14.6233 7.26196C14.679 7.76403 14.679 8.27028 14.6233 8.77236C14.5993 8.96767 14.4285 9.1109 14.2321 9.10048H14.1498C13.5357 9.0911 12.9811 9.46558 12.7597 10.038C12.5384 10.6109 12.6972 11.2609 13.1576 11.6672C13.3029 11.8 13.3196 12.0224 13.1962 12.175C12.8785 12.5703 12.517 12.9281 12.1191 13.2417C11.9665 13.362 11.7472 13.3437 11.6165 13.2005C11.1925 12.7568 10.5451 12.6073 9.96955 12.8203C9.39872 13.0573 9.0357 13.6244 9.05914 14.2416C9.0659 14.4364 8.92163 14.6031 8.7284 14.6244C8.48518 14.6526 8.2409 14.6661 7.99611 14.6656C7.73986 14.6656 7.4831 14.651 7.2284 14.6218C7.03309 14.5984 6.88987 14.4276 6.90028 14.2312C6.93674 13.6067 6.57632 13.0275 6.00028 12.7843C5.42014 12.5624 4.76388 12.7114 4.33628 13.1619C4.20399 13.3067 3.98107 13.3239 3.82847 13.2004C3.43732 12.8864 3.08367 12.528 2.77378 12.1338C2.65295 11.9812 2.67117 11.7608 2.81492 11.6296C3.27013 11.2114 3.41857 10.5552 3.1868 9.98173C2.9608 9.42496 2.41757 9.06245 1.81653 9.06714C1.62591 9.06714 1.39883 8.93381 1.38164 8.73902C1.32331 8.23594 1.32331 7.72761 1.38164 7.22449C1.39987 7.02918 1.57019 6.88439 1.76549 6.89637C2.38531 6.91668 2.95719 6.56408 3.21656 6.00053C3.45771 5.42136 3.30615 4.75261 2.83896 4.33386C2.69521 4.20053 2.67854 3.97917 2.80042 3.82605C3.11761 3.43021 3.47906 3.07241 3.8775 2.75938C4.0301 2.63907 4.24937 2.6573 4.38062 2.80053C4.80719 3.2422 5.45511 3.38907 6.03115 3.17501C6.60251 2.93857 6.96658 2.3719 6.94418 1.75367C6.93898 1.56043 7.08273 1.39534 7.27491 1.37398C7.77333 1.31929 8.27593 1.32086 8.77385 1.37763C8.96863 1.40159 9.11238 1.57241 9.10197 1.76877C9.06707 2.39216 9.42645 2.9708 10.0004 3.21664C10.5791 3.43904 11.2348 3.29112 11.6619 2.84164C11.7936 2.69581 12.016 2.6781 12.1697 2.80049C12.5608 3.1156 12.9155 3.47341 13.227 3.86716C13.3489 4.02029 13.3306 4.24113 13.1858 4.37237C12.727 4.7812 12.5717 5.43276 12.7968 6.00464C13.0218 6.57652 13.5796 6.94736 14.1937 6.93381ZM6.43953 9.58543C6.85617 10.0026 7.42179 10.2365 8.01086 10.2365L8.01087 10.2365C8.60043 10.2359 9.16554 10.0015 9.58221 9.5849C9.99887 9.16825 10.2332 8.60316 10.2338 8.01409C10.2338 7.42452 9.99938 6.85889 9.58273 6.44223C9.16607 6.02556 8.60045 5.79119 8.01086 5.79119C7.42182 5.79119 6.85619 6.02558 6.43953 6.44223C6.02286 6.85888 5.78849 7.42451 5.78849 8.01409C5.78849 8.60314 6.02286 9.16876 6.43953 9.58543Z" fill="white"/>
</g>
</svg>
