<svg width="34" height="34" viewBox="0 0 34 34" fill="none" xmlns="http://www.w3.org/2000/svg">
<path d="M18.0794 1.03551L22.5777 10.5837L32.6359 12.1175C32.8581 12.1511 33.0669 12.2492 33.2386 12.4007C33.4103 12.5522 33.5381 12.751 33.6075 12.9747C33.6768 13.1984 33.6851 13.4379 33.6312 13.6663C33.5774 13.8946 33.4636 14.1026 33.3027 14.2666L26.023 21.693L27.7413 32.19C27.7792 32.4219 27.7545 32.6602 27.6699 32.8781C27.5853 33.096 27.4442 33.2847 27.2626 33.423C27.081 33.5613 26.8661 33.6436 26.6421 33.6606C26.4182 33.6776 26.1943 33.6286 25.9955 33.5192L17.0004 28.5708L8.00382 33.5237C7.80492 33.6327 7.58093 33.6812 7.35711 33.6639C7.13329 33.6466 6.91854 33.5641 6.73705 33.4258C6.55556 33.2874 6.41455 33.0987 6.32991 32.8809C6.24528 32.6631 6.22038 32.4249 6.25802 32.1931L7.97634 21.7021L0.696635 14.2757C0.53578 14.1117 0.421978 13.9037 0.36812 13.6754C0.314261 13.447 0.322498 13.2075 0.391898 12.9838C0.461298 12.7601 0.589087 12.5613 0.760792 12.4098C0.932496 12.2583 1.14126 12.1602 1.36342 12.1266L11.4217 10.5853L15.9199 1.03702C16.0194 0.826092 16.1732 0.648497 16.3639 0.524274C16.5546 0.400051 16.7747 0.334142 16.9992 0.333985C17.2238 0.333827 17.4439 0.399427 17.6348 0.523382C17.8256 0.647338 17.9796 0.824717 18.0794 1.03551Z" fill="#FFCC00"/>
</svg>
