<svg width="34" height="34" viewBox="0 0 34 34" fill="none" xmlns="http://www.w3.org/2000/svg">
<path d="M21.4469 11.1165L21.7308 11.719L22.3893 11.8195L32.4145 13.3482C32.4168 13.3577 32.4171 13.369 32.4146 13.3793C32.4127 13.3876 32.41 13.3915 32.4096 13.3921C32.4095 13.3922 32.4095 13.3922 32.4095 13.3922L25.1304 20.818L24.6871 21.2701L24.7894 21.895L26.5046 32.3726L17.6029 27.4756L17.0002 27.144L16.3975 27.4758L7.49451 32.3772L9.2099 21.9042L9.31225 21.2793L8.869 20.8271L1.58985 13.4013C1.58985 13.4013 1.58983 13.4013 1.5898 13.4012C1.58939 13.4006 1.58669 13.3967 1.58473 13.3884C1.58229 13.378 1.58253 13.3668 1.5849 13.3573L11.611 11.8208L12.2688 11.72L12.5524 11.118L17 1.67738L21.4469 11.1165ZM26.5983 32.4242L26.598 32.424L26.5983 32.4242Z" stroke="black" stroke-opacity="0.6" stroke-width="2.5"/>
</svg>
