<svg width="24" height="24" viewBox="0 0 24 24" fill="none" xmlns="http://www.w3.org/2000/svg">
<path fill-rule="evenodd" clip-rule="evenodd" d="M2 12C2 6.4772 6.4772 2 12 2C17.5228 2 22 6.4772 22 12C22 17.5228 17.5228 22 12 22C10.0254 22 8.1862 21.4254 6.6358 20.4376L2 22L3.5624 17.3642C2.5746 15.8138 2 13.9746 2 12ZM15.07 11.25L14.17 12.17C13.45 12.9 13 13.5 13 15H11V14.5C11 13.4 11.45 12.4 12.17 11.67L13.41 10.41C13.78 10.05 14 9.55 14 9C14 7.9 13.1 7 12 7C10.9 7 10 7.9 10 9H8C8 6.79 9.79 5 12 5C14.21 5 16 6.79 16 9C16 9.88 15.64 10.68 15.07 11.25ZM11 19V17H13V19H11Z" fill="#9E9E9E"/>
</svg>
