<svg width="24" height="24" viewBox="0 0 24 24" fill="none" xmlns="http://www.w3.org/2000/svg">
<path fill-rule="evenodd" clip-rule="evenodd" d="M22 5.89155C21.3019 6.21521 20.5492 6.43058 19.7633 6.52657C20.5682 6.02692 21.1844 5.23437 21.4776 4.29167C20.7249 4.75317 19.8892 5.09161 19.0035 5.27252C18.2912 4.48735 17.2785 4 16.1578 4C14.0054 4 12.2626 5.80786 12.2626 8.03784C12.2626 8.3529 12.2958 8.66056 12.3623 8.95716C9.12359 8.78732 6.25175 7.18006 4.32967 4.73471C3.99606 5.33036 3.80255 6.02692 3.80255 6.76533C3.80255 8.16583 4.48875 9.40389 5.53468 10.1263C4.89596 10.1066 4.29524 9.92201 3.76812 9.62295C3.76812 9.63895 3.76812 9.65741 3.76812 9.67341C3.76812 11.6314 5.11085 13.2657 6.89521 13.635C6.56873 13.7273 6.22326 13.7777 5.8671 13.7777C5.61541 13.7777 5.37322 13.7506 5.13222 13.7051C5.62966 15.3087 7.06855 16.4778 8.77218 16.5123C7.43658 17.5965 5.75906 18.2426 3.93077 18.2426C3.61497 18.2426 3.30749 18.2229 3 18.1848C4.72857 19.3342 6.77649 20 8.97638 20C16.1435 20 20.066 13.8429 20.066 8.50427C20.066 8.32705 20.0625 8.15476 20.0554 7.98123C20.8164 7.41635 21.4764 6.70379 21.9988 5.89278L22 5.89155Z" fill="#55ACEE"/>
<path d="M22 5.89155C21.3019 6.21521 20.5492 6.43058 19.7633 6.52657C20.5682 6.02692 21.1844 5.23437 21.4776 4.29167C20.7249 4.75317 19.8892 5.09161 19.0035 5.27252C18.2912 4.48735 17.2785 4 16.1578 4C14.0054 4 12.2626 5.80786 12.2626 8.03784C12.2626 8.3529 12.2958 8.66056 12.3623 8.95716C9.12359 8.78732 6.25175 7.18006 4.32967 4.73471C3.99606 5.33036 3.80255 6.02692 3.80255 6.76533C3.80255 8.16583 4.48875 9.40389 5.53468 10.1263C4.89596 10.1066 4.29524 9.92201 3.76812 9.62295C3.76812 9.63895 3.76812 9.65741 3.76812 9.67341C3.76812 11.6314 5.11085 13.2657 6.89521 13.635C6.56873 13.7273 6.22326 13.7777 5.8671 13.7777C5.61541 13.7777 5.37322 13.7506 5.13222 13.7051C5.62966 15.3087 7.06855 16.4778 8.77218 16.5123C7.43658 17.5965 5.75906 18.2426 3.93077 18.2426C3.61497 18.2426 3.30749 18.2229 3 18.1848C4.72857 19.3342 6.77649 20 8.97638 20C16.1435 20 20.066 13.8429 20.066 8.50427C20.066 8.32705 20.0625 8.15476 20.0554 7.98123C20.8164 7.41635 21.4764 6.70379 21.9988 5.89278L22 5.89155Z" fill="white"/>
</svg>
