<svg xmlns="http://www.w3.org/2000/svg" viewBox="0 0 512 512"><path fill="#F0F0F0" d="M256 512c141.385 0 256-114.615 256-256S397.385 0 256 0 0 114.615 0 256s114.615 256 256 256Z"/><path fill="#000" d="M34.33 128.016c-11.553 20.008-20.075 40.926-25.75 62.233L436.638 437.39c15.615-15.569 29.471-33.41 41.021-53.417L34.33 128.016Z"/><path fill="#FFDA44" d="M383.988 34.33C281.565-24.8 155.276-5.093 75.343 74.6l428.089 247.145C532.487 212.681 486.41 93.461 383.988 34.33ZM128.013 477.67c102.421 59.131 228.713 39.423 308.644-40.27L8.567 190.253C-20.486 299.32 25.59 418.54 128.013 477.67Z"/><path fill="#D80027" fill-rule="evenodd" d="M272.85 145h-33.386v33.385h-38.951c0 7.683 6.693 13.911 14.375 13.911h-.464c0 7.683 6.229 13.911 13.911 13.911 0 6.73 4.78 12.344 11.129 13.633v79.024c-31.903-7.535-55.645-36.196-55.645-70.401 0-12.456 3.149-24.177 8.695-34.41-15.697 16.053-25.388 38.005-25.388 62.231 0 26.591 11.658 50.46 30.142 66.773h-19.011v11.129H156v33.386h66.771v-11.129h66.771v11.129h66.771v-33.386h-22.256v-11.129h-19.014c18.483-16.313 30.141-40.182 30.141-66.773 0-24.226-9.69-46.178-25.388-62.231 5.546 10.235 8.695 21.954 8.695 34.41 0 34.203-23.74 62.863-55.641 70.4V219.84c6.349-1.29 11.128-6.903 11.128-13.633 7.683 0 13.911-6.228 13.911-13.911h-.463c7.68-.001 14.372-6.227 14.372-13.911H272.85V145Z" clip-rule="evenodd"/></svg>
