<svg xmlns="http://www.w3.org/2000/svg" viewBox="0 0 512 512"><path fill="#ED4135" fill-rule="evenodd" d="M497.196 342C506.781 315.121 512 286.17 512 256s-5.219-59.121-14.804-86H14.804C5.219 196.879 0 225.83 0 256s5.22 59.121 14.804 86h482.392Z" clip-rule="evenodd"/><path fill="#009543" fill-rule="evenodd" d="M497.196 342C461.866 441.081 367.215 512 256 512S50.135 441.081 14.804 342h482.392Z" clip-rule="evenodd"/><path fill="#0035AD" fill-rule="evenodd" d="M256 0C144.785 0 50.135 70.919 14.804 170h482.392C461.866 70.919 367.215 0 256 0Z" clip-rule="evenodd"/><path fill="#FAE600" d="M212.8 86.986c92.444 0 167.387 74.94 167.387 167.384 0 92.448-74.943 167.396-167.388 167.396-92.448 0-167.39-74.948-167.39-167.396 0-92.445 74.942-167.384 167.39-167.384"/><path fill="#000" d="M212.8 89.846c-90.723 0-164.53 73.805-164.53 164.524 0 90.725 73.807 164.536 164.53 164.536 90.718 0 164.526-73.81 164.526-164.536 0-90.72-73.808-164.524-164.527-164.524m0 334.778c-93.88 0-170.25-76.377-170.25-170.254 0-93.874 76.37-170.248 170.25-170.248 93.874 0 170.245 76.374 170.245 170.248 0 93.877-76.37 170.254-170.248 170.254"/><path fill="#000" fill-rule="evenodd" d="M216.08 365.981c11.043.552 20.292 3.18 25.25 7.267 12.05 9.937 35.519 35.246 36.551 36.358l.033.036c.05.05.07.12.057.197a.193.193 0 0 1-.047.092.165.165 0 0 1-.037.033l-.009.006-.009.005c-.009.006-.02.01-.03.014-.273.12-27.728 11.166-65.26 11.166l-.002.001c-23.66 0-46.246-4.317-67.134-12.825-.146.126-.2.147-.28.147a.223.223 0 0 1-.21-.147c-.057-.17-.084-.251 4.318-4.73 2.918-2.97 6.64-6.682 10.206-10.183 5.788-5.68 16.316-15.863 21.783-20.168 5.389-4.252 15.914-7 27.873-7.342l-.017-7.817c-9.035-2.103-15.958-13.434-15.958-27.048 0-13.557 6.866-24.844 15.847-27.011l-.003-1.54c-6.968 1.488-14.6 5.426-17.123 10.798-10.843 23.094-17.867 36.46-19.274 36.667l-.031.002-.052.001.003.003a.573.573 0 0 1-.423-.186.577.577 0 0 1-.108-.584c.212-.777 2.653-9.716 4.305-20.58.7-4.584 1.073-8.818 1.4-12.543l.003-.032c.498-5.621.892-10.061 2.157-12.822 1.885-4.114 6-11.435 12.43-14.21 5.217-2.25 12.876-3.144 16.678-3.465l-.006-3.08-27.455.26-.067-6.944 27.513-.264-.006-2.755c-4.955-.402-9.533-1.824-13.125-4.103-2.084-1.314-3.72-2.853-4.862-4.56-1.183-1.776-1.784-3.66-1.784-5.605 0-1.944.6-3.826 1.784-5.6 1.144-1.703 2.778-3.245 4.865-4.57 3.578-2.264 8.132-3.676 13.064-4.082l-.006-3.045h-27.986v-6.946h27.973l-.006-3.161c-3.588-.233-11.066-.893-16.019-2.533-6.064-2.014-9.967-7.35-11.754-10.353-1.195-2.01-1.575-5.277-2.05-9.413-.316-2.747-.678-5.865-1.346-9.24-1.59-8.02-3.932-14.603-4.136-15.177l-.014-.04a.217.217 0 0 1-.012-.107.208.208 0 0 1 .044-.098c.046-.058.12-.095.194-.08.2.016 2.394.963 18.23 26.863 1.863 3.054 7.857 6.753 16.838 8.128l-.01-4.966a23.092 23.092 0 0 1-6.006-1.549 22.639 22.639 0 0 1-7.193-4.676 21.74 21.74 0 0 1-4.85-6.932 21.062 21.062 0 0 1-1.777-8.497c0-2.95.598-5.807 1.778-8.496a21.753 21.753 0 0 1 4.85-6.935 22.474 22.474 0 0 1 7.195-4.672 23.194 23.194 0 0 1 5.915-1.544l-.04-19.48c-4.133 2.43-7.645 3.765-10.222 4.745l-.025.01c-1.799.682-3.102 1.176-3.792 1.737-3.67 2.99-5.532 3.224-6.016 3.224l.002.002c-.074 0-.114-.007-.114-.007a.288.288 0 0 1-.189-.108.287.287 0 0 1-.061-.209l.294-3.05c.006-.488.28-12.494.497-13.7 1.624-9.004 9.427-13.057 19.575-17.584l-.079-38.739 6.945-.016.072 35.67c7.028-3.191 14.547-7.019 21.4-12.957 2.457-2.127 2.727-2.8 2.757-2.9a.272.272 0 0 1 .03-.168.277.277 0 0 1 .122-.12.297.297 0 0 1 .215-.021.296.296 0 0 1 .171.133c.085.133 2.013 3.503-2.162 11.017-7.82 14.085-15.639 22.734-22.486 28.236l.05 24.459c1.627.285 3.215.743 4.75 1.37a22.433 22.433 0 0 1 7.196 4.672 21.798 21.798 0 0 1 4.847 6.935 21.018 21.018 0 0 1 1.78 8.495c0 2.94-.6 5.803-1.78 8.498a21.808 21.808 0 0 1-4.848 6.933 22.701 22.701 0 0 1-7.197 4.676 23.264 23.264 0 0 1-4.661 1.35l.01 4.934c8.393-1.523 13.989-4.99 15.798-7.87 16.22-25.895 18.47-26.836 18.67-26.858a.207.207 0 0 1 .192.08.225.225 0 0 1 .033.21l-.014.039c-.207.568-2.607 7.154-4.236 15.169-.687 3.36-1.054 6.464-1.378 9.206l-.004.032c-.487 4.126-.873 7.394-2.1 9.403-1.83 3-5.828 8.333-12.04 10.34-4.454 1.44-10.903 2.126-14.897 2.431l.007 3.259h26.223v6.945h-26.21l.006 3.142c4.554.503 8.745 1.874 12.082 3.986 2.085 1.325 3.72 2.867 4.86 4.57 1.186 1.774 1.784 3.656 1.784 5.6 0 1.944-.598 3.83-1.782 5.604-1.142 1.708-2.776 3.247-4.86 4.562-3.323 2.109-7.494 3.484-12.026 3.996l.006 2.795 25.527-.246.067 6.948-25.584.242.007 3.576c4.116.387 11.194 1.31 16.027 3.349 6.47 2.724 10.636 9.96 12.543 14.025 1.267 2.703 1.668 7.106 2.176 12.682l.004.045.007.079c.338 3.709.722 7.915 1.435 12.471 1.712 10.986 4.247 20.008 4.423 20.636l.01.034c.02.075.006.15-.043.2a.216.216 0 0 1-.166.077l-.003-.001c-.01 0-.018 0-.027-.007-.216-.034-2.564-1.306-19.47-36.44-1.919-3.991-7.907-8.799-16.881-10.81l.004 1.9c8.656 2.545 15.19 13.61 15.19 26.836 0 13.169-6.478 24.203-15.078 26.812l.017 8.126Zm-11.854-121.029Zm-13.264 7.943c-.892 1.336-1.451 2.736-1.672 4.175.276-1.783 1.066-3.471 2.275-5.002-.214.271-.415.547-.603.827Zm-1.702 6.802c.196 1.516.766 2.986 1.702 4.391.954 1.426 2.247 2.735 3.862 3.892-3.12-2.248-5.15-5.12-5.564-8.283Zm9.582 10.566c2.999 1.339 6.449 2.19 10.104 2.486v-.001c-3.726-.303-7.17-1.179-10.104-2.485Z" clip-rule="evenodd"/></svg>
