<svg xmlns="http://www.w3.org/2000/svg" width="48" height="48" fill="none"><g clip-path="url(#a)"><path fill="#FFDA44" d="M13.566 45.619A23.9 23.9 0 0 0 24 48c3.74 0 7.28-.856 10.435-2.381L36.522 24 34.435 2.381A23.9 23.9 0 0 0 24 0c-3.74 0-7.28.856-10.434 2.381L11.478 24z"/><path fill="#D80027" d="M34.436 45.618C42.463 41.736 48 33.515 48 24S42.464 6.264 34.436 2.382z"/><path fill="#0052B4" d="M13.565 45.618V2.382C5.537 6.264 0 14.485 0 24s5.537 17.736 13.565 21.618"/><path fill="#D80027" d="M24 32.348V24h6.26v3.13c0 .544-1.043 2.537-3.618 4.174-.976.62-1.985.82-2.642 1.044M17.738 17.74H24V24h-6.26z"/><path fill="#FF9811" d="M27.13 15.652A2.087 2.087 0 0 0 24 13.847a2.087 2.087 0 0 0-3.13 1.806h-5.218v10.434c0 3.884 3.085 6.131 5.505 7.296A2.087 2.087 0 0 0 24 36.24a2.087 2.087 0 0 0 2.844-2.858c2.418-1.165 5.503-3.411 5.503-7.296V15.652zm2.088 10.435c0 .544 0 2.198-2.576 3.836A12.6 12.6 0 0 1 24 31.169a12.6 12.6 0 0 1-2.642-1.246c-2.575-1.637-2.575-3.292-2.575-3.836v-7.304h10.435z"/></g><defs><clipPath id="a"><path fill="#fff" d="M0 0h48v48H0z"/></clipPath></defs></svg>
