<svg xmlns="http://www.w3.org/2000/svg" width="48" height="48" fill="none"><g clip-path="url(#a)"><path fill="#D80027" d="M34.435 2.381A23.9 23.9 0 0 0 24 0c-3.74 0-7.28.856-10.434 2.381L11.478 24l2.088 21.619A23.9 23.9 0 0 0 24 48c3.74 0 7.28-.856 10.435-2.381L36.522 24z"/><path fill="#000" d="M13.565 2.382C5.537 6.264 0 14.485 0 24s5.537 17.736 13.565 21.618z"/><path fill="#496E2D" d="M34.435 2.382v43.236C42.462 41.736 48 33.515 48 24S42.462 6.264 34.435 2.382"/><path fill="#FFDA44" d="M24 15.652a8.348 8.348 0 1 0 0 16.696 8.348 8.348 0 0 0 0-16.696m0 13.565a5.217 5.217 0 1 1 0-10.434 5.217 5.217 0 0 1 0 10.434"/><path fill="#FFDA44" d="M24 20.87a2.087 2.087 0 0 0-2.087 2.087v3.13h4.174v-3.13A2.087 2.087 0 0 0 24 20.87"/></g><defs><clipPath id="a"><path fill="#fff" d="M0 0h48v48H0z"/></clipPath></defs></svg>
