<svg xmlns="http://www.w3.org/2000/svg" width="48" height="48" fill="none"><g clip-path="url(#a)"><path fill="#0052B4" d="M0 24c0 1.644.166 3.25.48 4.8L24 30.26l23.52-1.46c.314-1.55.48-3.156.48-4.8s-.166-3.25-.48-4.8L24 17.74.48 19.2A24 24 0 0 0 0 24"/><path fill="#F0F0F0" d="M47.52 28.8H.48C2.704 39.755 12.39 48 24 48s21.295-8.245 23.52-19.2"/><path fill="#000" d="M.48 19.2h47.04C45.294 8.245 35.61 0 24 0 12.389 0 2.704 8.245.48 19.2"/><path fill="#FFDA44" d="M34.434 19.2h-20.87l4.264-2.006-2.27-4.129 4.63.886.586-4.678L24 12.713l3.225-3.44.587 4.678 4.63-.886-2.27 4.13z"/><path fill="#A2001D" d="M0 24c0 13.255 10.745 24 24 24L4.8 9.6A23.9 23.9 0 0 0 0 24M24 48c13.255 0 24-10.745 24-24 0-5.404-1.786-10.39-4.8-14.4z"/></g><defs><clipPath id="a"><path fill="#fff" d="M0 0h48v48H0z"/></clipPath></defs></svg>
