<svg xmlns="http://www.w3.org/2000/svg" width="48" height="48" fill="none"><g clip-path="url(#a)"><path fill="#0052B4" d="M48 24c0 13.255-10.745 24-24 24S0 37.255 0 24C0 24.006 24 .003 24 0c13.255 0 24 10.745 24 24"/><path fill="#F0F0F0" d="M23.936 24H24v-.064z"/><path fill="#F0F0F0" d="M24 12.522V0h-.004C10.743.002 0 10.747 0 24h12.522v-7.051L19.572 24h4.364l.064-.064v-4.363l-7.051-7.051z"/><path fill="#D80027" d="M12.143 3.13a24.1 24.1 0 0 0-9.012 9.012V24h6.26V9.391h14.61v-6.26z"/><path fill="#D80027" d="m24 21.049-8.527-8.527H12.52L24 24z"/><path fill="#F3F3F3" d="M40.589 27.513A5.85 5.85 0 0 0 41.739 24V13.565a5.2 5.2 0 0 1-3.13 1.044 5.21 5.21 0 0 1-4.174-2.087 5.21 5.21 0 0 1-4.174 2.087 5.2 5.2 0 0 1-3.13-1.044V24c0 1.404.46 2.564 1.15 3.513z"/><path fill="#FF9811" d="M38.416 22.064c.332-.81.59-1.995.59-2.585 0-.947-1.234-1.715-1.234-1.715s-1.236.768-1.236 1.715c0 .59.259 1.775.591 2.585l-.713 1.61a3.6 3.6 0 0 0 2.715 0zM33.59 16.852c-.869.117-2.024.486-2.535.78-.82.475-.867 1.928-.867 1.928s1.282.686 2.103.212c.51-.295 1.407-1.11 1.943-1.804l1.75-.187a3.6 3.6 0 0 0-1.357-2.352zM31.49 23.639c.535.692 1.432 1.508 1.942 1.803.82.474 2.103-.212 2.103-.212s-.047-1.453-.868-1.927c-.51-.295-1.666-.663-2.534-.78L31.096 21.1a3.6 3.6 0 0 0-1.358 2.351z"/><path fill="#338AF3" d="M28.023 27.13c1.95 3.128 6.412 4.174 6.412 4.174s4.462-1.046 6.411-4.173z"/></g><defs><clipPath id="a"><path fill="#fff" d="M0 0h48v48H0z"/></clipPath></defs></svg>
