<svg xmlns="http://www.w3.org/2000/svg" width="48" height="48" fill="none"><g clip-path="url(#a)"><path fill="#D80027" d="M24 48c13.255 0 24-10.745 24-24S37.255 0 24 0 0 10.745 0 24s10.745 24 24 24"/><path fill="#000" d="M37.565 17.813h-8.693A3.13 3.13 0 1 0 24 13.922a3.13 3.13 0 1 0-4.872 3.891h-8.693c0 2.306 2.007 4.174 4.312 4.174h-.139a4.174 4.174 0 0 0 4.174 4.174c0 .747.197 1.447.54 2.053l-3.462 3.462 2.657 2.656 3.768-3.768q.22.082.458.127l-2.277 5.141L24 39.652l3.534-3.82-2.277-5.14q.236-.046.458-.128l3.768 3.768 2.656-2.656-3.462-3.462c.343-.606.54-1.306.54-2.053a4.174 4.174 0 0 0 4.174-4.174h-.139c2.305 0 4.313-1.868 4.313-4.174"/></g><defs><clipPath id="a"><path fill="#fff" d="M0 0h48v48H0z"/></clipPath></defs></svg>
