<svg xmlns="http://www.w3.org/2000/svg" width="48" height="48" fill="none"><g clip-path="url(#a)"><path fill="#0052B4" d="M48 24c0-2.936-.528-5.748-1.493-8.348L24 14.61 1.493 15.652A24 24 0 0 0 0 24c0 2.936.528 5.748 1.493 8.348L24 33.39l22.507-1.043A24 24 0 0 0 48 24"/><path fill="#FF9811" d="M24 48c10.32 0 19.117-6.513 22.508-15.652H1.493C4.884 41.487 13.681 48 24 48"/><path fill="#D80027" d="M1.493 15.652h45.015C43.117 6.513 34.319 0 24 0S4.884 6.513 1.493 15.652"/></g><defs><clipPath id="a"><path fill="#fff" d="M0 0h48v48H0z"/></clipPath></defs></svg>
