<svg xmlns="http://www.w3.org/2000/svg" width="48" height="48" fill="none"><g clip-path="url(#a)"><path fill="#D80027" d="M0 24C0 10.745 10.745 0 24 0s24 10.745 24 24c-1.043 0-24 3.13-24 3.13z"/><path fill="#000" d="M48 24c0 13.255-10.745 24-24 24S0 37.255 0 24"/><path fill="#FFDA44" d="m20.71 19.089 2.035 1.476-.775 2.392 2.033-1.48 2.035 1.477-.778-2.39 2.033-1.48-2.514.002-.779-2.39-.775 2.391z"/><path fill="#FFDA44" d="M30 13.608a11.9 11.9 0 0 0-6-1.604v3.13a8.8 8.8 0 0 1 4.436 1.185c4.235 2.445 5.691 7.88 3.246 12.116s-7.88 5.692-12.116 3.246a8.8 8.8 0 0 1-2.964-2.796l-2.614 1.726a11.9 11.9 0 0 0 4.013 3.781C23.73 37.701 31.085 35.73 34.393 30s1.338-13.084-4.392-16.392"/><path fill="#FFDA44" d="M17.082 21.913a3.13 3.13 0 0 0 1.244 4.249l10.167 5.556c-.691 1.263-.324 2.802.94 3.493l2.746 1.502a2.61 2.61 0 0 0 3.54-1.036l1.503-2.747z"/></g><defs><clipPath id="a"><path fill="#fff" d="M0 0h48v48H0z"/></clipPath></defs></svg>
