<svg xmlns="http://www.w3.org/2000/svg" width="48" height="48" fill="none"><g clip-path="url(#a)"><path fill="#F0F0F0" d="M24 48c13.255 0 24-10.745 24-24S37.255 0 24 0 0 10.745 0 24s10.745 24 24 24"/><path fill="#338AF3" d="M24 0C14.485 0 6.264 5.537 2.382 13.565h43.237C41.737 5.537 33.515 0 24 0M24 48c9.515 0 17.737-5.537 21.619-13.565H2.382C6.264 42.463 14.485 48 24 48"/><path fill="#FFDA44" d="m31.174 24-2.931 1.379 1.56 2.839-3.182-.61-.404 3.216L24 28.459l-2.217 2.365-.403-3.215-3.183.608 1.561-2.838L16.828 24l2.93-1.379-1.56-2.838 3.182.608.404-3.215L24 19.541l2.217-2.365.404 3.216 3.183-.61-1.561 2.84z"/></g><defs><clipPath id="a"><path fill="#fff" d="M0 0h48v48H0z"/></clipPath></defs></svg>
