<svg xmlns="http://www.w3.org/2000/svg" width="48" height="48" fill="none"><g clip-path="url(#a)"><path fill="#F0F0F0" d="M24 48c13.255 0 24-10.745 24-24S37.255 0 24 0 0 10.745 0 24s10.745 24 24 24"/><path fill="#0052B4" d="M35.643 3.01A23.9 23.9 0 0 0 24 0C10.746 0 .002 10.744 0 23.997l16.696-8.345zM0 24.003C.002 37.256 10.746 48 24 48c4.225 0 8.195-1.093 11.643-3.01L16.696 32.347z"/><path fill="#D80027" d="M37.643 4.255a24 24 0 0 0-2-1.244L0 23.997v.006l35.643 20.986a24 24 0 0 0 2-1.244L4.109 24z"/><path fill="#A2001D" d="M41.74 23.105h-2.86a2.27 2.27 0 0 0-.14-3.058 2.27 2.27 0 0 0 0-3.212l-.053.054c.887-.887.94-2.38.054-3.266L25.89 26.472a2.24 2.24 0 0 0 3.188-.01l.247-.227 6.153-.559v2.646h2.087v-2.836l3.13-.284z"/><path fill="#FFDA44" d="M26.088 29.217 24 28.174l2.088-1.044h13.565v2.087z"/></g><defs><clipPath id="a"><path fill="#fff" d="M0 0h48v48H0z"/></clipPath></defs></svg>
