<svg xmlns="http://www.w3.org/2000/svg" width="48" height="48" fill="none"><g clip-path="url(#a)"><path fill="#0052B4" d="M48 24c0 13.255-10.745 24-24 24S0 37.255 0 24C0 24.006 24 .003 24 0c13.255 0 24 10.745 24 24"/><path fill="#F0F0F0" d="M24 0h-.004zM23.936 24H24v-.064z"/><path fill="#F0F0F0" d="M24 12.522V0h-.004C10.743.002 0 10.747 0 24h12.522v-7.051L19.572 24h4.364l.064-.064v-4.363l-7.051-7.051z"/><path fill="#D80027" d="M12.143 3.13a24.1 24.1 0 0 0-9.012 9.012V24h6.26V9.391h14.61v-6.26z"/><path fill="#D80027" d="m24 21.049-8.526-8.527h-2.951L24 24z"/><path fill="#F0F0F0" d="m14.475 28.174 1.317 2.754 2.974-.687-1.332 2.747 2.392 1.897-2.978.67.008 3.054-2.381-1.91-2.382 1.91.008-3.053-2.978-.671 2.392-1.897-1.332-2.747 2.975.687zM35.933 33.391l.658 1.377 1.487-.343-.666 1.373 1.196.949-1.489.335.004 1.527-1.19-.955-1.191.955.004-1.527-1.49-.335 1.197-.949-.666-1.373 1.487.343zM29.807 18.783l.658 1.377 1.487-.344-.666 1.374 1.196.948-1.489.336.004 1.526-1.19-.955-1.191.955.004-1.526-1.49-.336 1.197-.949-.666-1.373 1.487.344zM35.933 10.435l.658 1.377 1.487-.344-.666 1.374 1.196.948-1.489.336.004 1.526-1.19-.955-1.191.955.004-1.526-1.49-.336 1.197-.948-.666-1.374 1.487.344zM41.284 16.696l.659 1.377 1.487-.344-.666 1.374 1.196.948-1.49.336.005 1.526-1.19-.955-1.192.955.004-1.526-1.489-.336 1.196-.948-.666-1.374 1.488.344zM37.458 24l.518 1.594h1.677l-1.357.986.518 1.594-1.356-.985-1.356.985.518-1.594-1.356-.986h1.676z"/></g><defs><clipPath id="a"><path fill="#fff" d="M0 0h48v48H0z"/></clipPath></defs></svg>
