<svg xmlns="http://www.w3.org/2000/svg" width="48" height="48" fill="none"><g clip-path="url(#a)"><path fill="#FFDA44" d="M24 48c13.255 0 24-10.745 24-24S37.255 0 24 0 0 10.745 0 24s10.745 24 24 24"/><path fill="#338AF3" d="M24 48c7.274 0 13.792-3.237 18.193-8.348H5.807C10.207 44.763 16.726 48 24 48M48 24C48 10.745 37.255 0 24 0S0 10.745 0 24c0 2.166.289 4.265.827 6.26h46.346c.538-1.995.827-4.094.827-6.26M1.908 33.391a24 24 0 0 0 1.615 3.13h40.955a24 24 0 0 0 1.615-3.13z"/><path fill="#F0F0F0" d="m10.999 15.137-4.69-2.07L11 10.999l2.069-4.689 2.07 4.69 4.688 2.069-4.689 2.07-2.07 4.688z"/><path fill="#D80027" d="m13.068 8.894 1.277 2.896 2.896 1.278-2.896 1.278-1.277 2.896-1.279-2.896-2.895-1.278 2.895-1.278z"/></g><defs><clipPath id="a"><path fill="#fff" d="M0 0h48v48H0z"/></clipPath></defs></svg>
