<svg xmlns="http://www.w3.org/2000/svg" width="48" height="48" fill="none"><g clip-path="url(#a)"><path fill="#FFDA44" d="M47.173 30.26c.538-1.995.827-4.094.827-6.26s-.289-4.265-.827-6.26L21.913.09A23.9 23.9 0 0 0 9.391 4.96L.827 17.739A24 24 0 0 0 0 24c0 2.154.285 4.24.817 6.226l8.574 12.815a23.9 23.9 0 0 0 12.522 4.868z"/><path fill="#0052B4" d="M.827 30.26a24.02 24.02 0 0 0 8.565 12.781v-12.78zM21.913 47.909q1.032.09 2.087.091c11.089 0 20.42-7.52 23.173-17.74h-25.26zM47.173 17.74C44.42 7.52 35.09 0 24 0q-1.055.001-2.087.091V17.74zM9.392 4.959a24.02 24.02 0 0 0-8.565 12.78h8.565z"/><path fill="#D80027" d="M47.797 20.87H18.783V.57a23.8 23.8 0 0 0-6.261 2.348V20.87H.203a24.2 24.2 0 0 0 0 6.26h12.319v17.952a23.8 23.8 0 0 0 6.26 2.347V27.131h29.015a24.2 24.2 0 0 0 0-6.261"/></g><defs><clipPath id="a"><path fill="#fff" d="M0 0h48v48H0z"/></clipPath></defs></svg>
