<svg xmlns="http://www.w3.org/2000/svg" width="48" height="48" fill="none"><g clip-path="url(#a)"><path fill="#D80027" d="M48 24c0-2.936-.528-5.748-1.493-8.348L24 14.61 1.493 15.652A24 24 0 0 0 0 24c0 2.936.528 5.748 1.493 8.348L24 33.39l22.507-1.043A24 24 0 0 0 48 24"/><path fill="#6DA544" d="M24 48c10.32 0 19.117-6.513 22.508-15.652H1.493C4.884 41.487 13.681 48 24 48"/><path fill="#338AF3" d="M1.493 15.652h45.015C43.117 6.513 34.319 0 24 0S4.884 6.513 1.493 15.652"/><path fill="#F0F0F0" d="M24.522 30.783a6.783 6.783 0 1 1 3.226-12.75 8.348 8.348 0 1 0 0 11.935 6.75 6.75 0 0 1-3.226.815"/><path fill="#F0F0F0" d="m29.74 19.304.898 2.527 2.422-1.151-1.151 2.422 2.526.898-2.526.898 1.15 2.422-2.421-1.151-.898 2.527-.899-2.527-2.422 1.151 1.152-2.422L25.044 24l2.527-.898-1.152-2.422 2.422 1.151z"/></g><defs><clipPath id="a"><path fill="#fff" d="M0 0h48v48H0z"/></clipPath></defs></svg>
