<svg xmlns="http://www.w3.org/2000/svg" width="48" height="48" fill="none"><g clip-path="url(#a)"><path fill="#F0F0F0" d="M24 48c13.255 0 24-10.745 24-24S37.255 0 24 0 0 10.745 0 24s10.745 24 24 24"/><path fill="#FFDA44" d="M24 0C15.49 0 8.015 4.429 3.754 11.107L36.3 44.611C43.307 40.42 48 32.758 48 24 48 10.745 37.255 0 24 0"/><path fill="#0052B4" d="M48 24c0-6.227-2.371-11.9-6.26-16.165v32.33A23.9 23.9 0 0 0 48 24M29.98 45.176l2.514-.002.776-2.392.778 2.391h1.26a24 24 0 0 0 2.242-1.363L4.19 10.45q-.826 1.205-1.502 2.508l.296.91h2.514l-2.033 1.478.778 2.39L2.21 16.26l-1.214.883A24 24 0 0 0 0 24c0 13.255 10.745 24 24 24 2.802 0 5.492-.481 7.992-1.364zM5.353 22.956l.775-2.39-2.034-1.477 2.514-.002.775-2.391.778 2.39 2.514-.002-2.033 1.48.779 2.39-2.035-1.476zm5.177 5.218.776-2.391-2.035-1.477 2.514-.002.775-2.391.779 2.39 2.514-.001-2.033 1.479.778 2.39-2.035-1.476zm5.178 5.217L16.483 31l-2.035-1.477 2.514-.001.776-2.392.778 2.39h2.514l-2.033 1.478.778 2.39-2.034-1.476zm7.21 3.739-2.033 1.479.775-2.392-2.034-1.476 2.514-.002.775-2.391.778 2.39 2.514-.001-2.033 1.478.779 2.391zm3.144 6.696.775-2.391-2.034-1.477 2.514-.002.775-2.39.779 2.39 2.514-.002-2.033 1.479.778 2.39-2.035-1.476z"/></g><defs><clipPath id="a"><path fill="#fff" d="M0 0h48v48H0z"/></clipPath></defs></svg>
