<svg xmlns="http://www.w3.org/2000/svg" width="48" height="48" fill="none"><g clip-path="url(#a)"><path fill="#FFDA44" d="M34.435 2.381A23.9 23.9 0 0 0 24 0c-3.74 0-7.28.856-10.434 2.381L11.478 24l2.088 21.619A23.9 23.9 0 0 0 24 48c3.74 0 7.28-.856 10.435-2.381L36.522 24z"/><path fill="#0052B4" d="M13.565 2.382C5.537 6.264 0 14.485 0 24s5.537 17.736 13.565 21.618zM34.435 2.382v43.236C42.462 41.736 48 33.515 48 24S42.462 6.264 34.435 2.382"/><path fill="#000" d="m31.305 14.609 1.4.7zl-1.4-.7c-.085.169-1.913 3.888-2.212 9.57h-2.128v-8.87L24 12.522l-1.565 2.087v8.87h-2.128c-.299-5.682-2.127-9.401-2.211-9.57l-2.8 1.4c.02.038 1.922 3.91 1.922 9.735v1.565h5.217v8.87h3.13v-8.87h5.218v-1.566c0-3.01.52-5.494.958-7.046.477-1.693.96-2.682.965-2.692z"/></g><defs><clipPath id="a"><path fill="#fff" d="M0 0h48v48H0z"/></clipPath></defs></svg>
