<svg xmlns="http://www.w3.org/2000/svg" width="48" height="48" fill="none"><g clip-path="url(#a)"><path fill="#FFDA44" d="M32.348 1.493A24 24 0 0 0 24 0c-2.936 0-5.748.528-8.348 1.493L13.565 24l2.087 22.507C18.252 47.472 21.065 48 24 48s5.748-.528 8.348-1.493L34.435 24z"/><path fill="#D80027" d="M48 24c0-10.32-6.513-19.116-15.652-22.507v45.014C41.487 43.117 48 34.32 48 24"/><path fill="#000" d="M0 24c0 10.32 6.513 19.116 15.652 22.507V1.493C6.513 4.883 0 13.68 0 24"/></g><defs><clipPath id="a"><path fill="#fff" d="M0 0h48v48H0z"/></clipPath></defs></svg>
