<svg xmlns="http://www.w3.org/2000/svg" width="48" height="48" fill="none"><g clip-path="url(#a)"><path fill="#F0F0F0" d="M24 48c13.255 0 24-10.745 24-24S37.255 0 24 0 0 10.745 0 24s10.745 24 24 24"/><path fill="#D80027" d="M24 0c-4.817 0-9.301 1.42-13.06 3.862L17.112 8l-7.721 4 7.721 4-7.721 4 7.721 4-7.721 4 7.721 4-7.721 4 7.721 4-6.173 4.138A23.9 23.9 0 0 0 24 48c13.255 0 24-10.745 24-24S37.254 0 24 0"/></g><defs><clipPath id="a"><path fill="#fff" d="M0 0h48v48H0z"/></clipPath></defs></svg>
