<svg xmlns="http://www.w3.org/2000/svg" width="48" height="48" fill="none"><g clip-path="url(#a)"><path fill="#F0F0F0" d="M24 48c13.255 0 24-10.745 24-24S37.255 0 24 0 0 10.745 0 24s10.745 24 24 24"/><path fill="#D80027" d="M38.614 4.96c-8.593-6.612-20.635-6.612-29.227 0L24 19.572zM24 28.427 9.387 43.04c8.592 6.612 20.634 6.612 29.227 0z"/><path fill="#6DA544" d="M19.573 24 4.96 9.387c-6.612 8.592-6.612 20.634 0 29.227zM28.428 24 43.04 38.614c6.612-8.593 6.612-20.635 0-29.227z"/><path fill="#F0F0F0" d="M24 34.435c5.763 0 10.435-4.672 10.435-10.435S29.763 13.565 24 13.565 13.565 18.237 13.565 24 18.237 34.435 24 34.435"/><path fill="#D80027" d="m24 16.696.904 1.565h1.807l-.904 1.565.904 1.565h-1.807L24 22.957l-.904-1.566H21.29l.904-1.565-.904-1.565h1.807zM19.406 24l.904 1.565h1.807l-.903 1.565.903 1.566H20.31l-.904 1.565-.903-1.565h-1.808l.904-1.566-.904-1.565h1.808zM28.593 24l.904 1.565h1.807L30.4 27.13l.904 1.566h-1.807l-.904 1.565-.904-1.565h-1.807l.903-1.566-.903-1.565h1.807z"/></g><defs><clipPath id="a"><path fill="#fff" d="M0 0h48v48H0z"/></clipPath></defs></svg>
