<svg xmlns="http://www.w3.org/2000/svg" width="48" height="48" fill="none"><g clip-path="url(#a)"><path fill="#D80027" d="M48 24c0 13.255-10.745 24-24 24S0 37.255 0 24C0 24.006 24 .003 24 0c13.255 0 24 10.745 24 24"/><path fill="#0052B4" d="M24 11.478v8.095l-8.348-8.095zM12.522 24h7.051l-7.051-9.391-1.043 7.304z"/><path fill="#F0F0F0" d="M23.936 24H24v-.064z"/><path fill="#F0F0F0" d="M24 12.522V0h-.004C10.743.002 0 10.747 0 24h12.522v-7.051L19.572 24h4.364l.064-.064v-4.363l-7.051-7.051z"/><path fill="#D80027" d="M12.143 3.13a24.1 24.1 0 0 0-9.012 9.012v12.901h6.26V9.391h15.653v-6.26z"/><path fill="#D80027" d="m24.954 22.003-9.481-9.481H12.52l12.433 12.432z"/><path fill="#F3F3F3" d="M27.13 12.522V24c0 5.591 14.61 5.591 14.61 0V12.522z"/><path fill="#6DA544" d="M27.13 24c0 5.591 7.305 7.304 7.305 7.304S41.74 29.591 41.74 24z"/><path fill="#A2001D" d="m34.434 19.409-3.391 1.46V24l3.391 2.087L37.826 24v-3.13z"/><path fill="#338AF3" d="M31.043 17.74h6.783v3.13h-6.783z"/></g><defs><clipPath id="a"><path fill="#fff" d="M0 0h48v48H0z"/></clipPath></defs></svg>
