<svg xmlns="http://www.w3.org/2000/svg" width="48" height="48" fill="none"><g clip-path="url(#a)"><path fill="#F0F0F0" d="M24 47.997c13.253 0 23.997-10.744 23.997-23.997S37.253.004 24 .004.004 10.747.004 24 10.748 47.997 24 47.997"/><path fill="#000" d="M3.219 12.002a24 24 0 0 0-2.414 5.834l40.131 23.17a24 24 0 0 0 3.846-5.008z"/><path fill="#FFDA44" d="M35.999 3.218C26.397-2.325 14.558-.477 7.064 6.994l40.132 23.17C49.92 19.939 45.6 8.762 35.999 3.218M12.003 44.782c9.601 5.543 21.44 3.696 28.934-3.776L.805 17.836c-2.723 10.225 1.596 21.402 11.198 26.946"/><path fill="#D80027" d="M30.78 21.392a6.782 6.782 0 1 1-12.748-3.226 8.347 8.347 0 1 0 11.933 0c.52.96.816 2.058.816 3.226"/><path fill="#D80027" d="M22.434 13.567h3.13v15.65h-3.13z"/><path fill="#D80027" d="M29.216 16.697H18.783c0 .72.628 1.304 1.348 1.304h-.044c0 .72.584 1.304 1.305 1.304 0 .72.584 1.304 1.304 1.304h2.608c.72 0 1.304-.584 1.304-1.304.72 0 1.304-.584 1.304-1.304h-.043c.72 0 1.347-.584 1.347-1.304M16.695 30.26h14.607v3.13H16.695z"/><path fill="#D80027" d="M27.129 31.304h6.26v3.13h-6.26zM14.61 31.304h6.26v3.13h-6.26z"/></g><defs><clipPath id="a"><path fill="#fff" d="M0 0h48v48H0z"/></clipPath></defs></svg>
