<svg xmlns="http://www.w3.org/2000/svg" width="48" height="48" fill="none"><g clip-path="url(#a)"><path fill="#FFDA44" d="M48 24c0-2.936-.528-5.748-1.493-8.348L24 14.61 1.493 15.652A24 24 0 0 0 0 24c0 2.936.528 5.748 1.493 8.348L24 33.39l22.507-1.043A24 24 0 0 0 48 24"/><path fill="#6DA544" d="M24 48c10.319 0 19.116-6.513 22.507-15.652H1.492C4.883 41.487 13.68 48 24 48"/><path fill="#D80027" d="M1.492 15.652h45.015C43.116 6.513 34.319 0 23.999 0S4.883 6.513 1.492 15.652"/></g><defs><clipPath id="a"><path fill="#fff" d="M0 0h48v48H0z"/></clipPath></defs></svg>
