<svg xmlns="http://www.w3.org/2000/svg" width="48" height="48" fill="none"><g clip-path="url(#a)"><path fill="#F0F0F0" d="M24 48c13.255 0 24-10.745 24-24S37.255 0 24 0 0 10.745 0 24s10.745 24 24 24"/><path fill="#FFDA44" d="M7.03 7.03C1.886 12.172-.434 19.07.068 25.796L25.797.067C19.07-.433 12.173 1.887 7.03 7.03"/><path fill="#0052B4" d="M8.57 42.382c9.429 7.933 23.525 7.464 32.4-1.412 8.876-8.875 9.345-22.971 1.411-32.4z"/><path fill="#000" d="m23.914 23.033 2.068-1.12-2.068-1.12a7.31 7.31 0 0 0-6.098-6.099l-1.12-2.068-1.121 2.068a7.31 7.31 0 0 0-6.098 6.099l-2.069 1.12 2.068 1.12a7.31 7.31 0 0 0 6.099 6.099l1.12 2.068 1.12-2.068a7.31 7.31 0 0 0 6.1-6.099m-7.219 3.054a4.174 4.174 0 1 1 0-8.348 4.174 4.174 0 0 1 0 8.348"/><path fill="#D80027" d="m16.695 18.783.904 1.565h1.807l-.903 1.565.903 1.565H17.6l-.904 1.566-.903-1.566h-1.808l.904-1.565-.904-1.565h1.808z"/></g><defs><clipPath id="a"><path fill="#fff" d="M0 0h48v48H0z"/></clipPath></defs></svg>
