<svg xmlns="http://www.w3.org/2000/svg" width="48" height="48" fill="none"><g clip-path="url(#a)"><path fill="#6DA544" d="M24 48c13.255 0 24-10.745 24-24S37.255 0 24 0 0 10.745 0 24s10.745 24 24 24"/><path fill="#FFDA44" d="M24 9.391 43.826 24 24 38.609 4.174 24z"/><path fill="#F0F0F0" d="M24 32.348a8.348 8.348 0 1 0 0-16.696 8.348 8.348 0 0 0 0 16.696"/><path fill="#0052B4" d="M19.827 23.478c-1.452 0-2.853.22-4.172.63a8.347 8.347 0 0 0 15.182 4.68c-2.584-3.234-6.559-5.31-11.01-5.31M32.193 25.6a8.348 8.348 0 0 0-15.864-4.894 17.2 17.2 0 0 1 3.497-.358c4.849 0 9.235 2.015 12.367 5.251"/></g><defs><clipPath id="a"><path fill="#fff" d="M0 0h48v48H0z"/></clipPath></defs></svg>
