<svg xmlns="http://www.w3.org/2000/svg" width="48" height="48" fill="none"><g clip-path="url(#a)"><path fill="#FFDA44" d="M24 48c13.255 0 24-10.745 24-24S37.255 0 24 0 0 10.745 0 24s10.745 24 24 24"/><path fill="#338AF3" d="M14.608 15.652h31.898C43.116 6.513 34.318 0 24 0A23.92 23.92 0 0 0 7.03 7.03zM14.608 32.348h31.898C43.116 41.487 34.318 48 24 48a23.92 23.92 0 0 1-16.97-7.03z"/><path fill="#000" d="M7.03 7.03c-9.373 9.372-9.373 24.568 0 33.94L24 24z"/></g><defs><clipPath id="a"><path fill="#fff" d="M0 0h48v48H0z"/></clipPath></defs></svg>
