<svg xmlns="http://www.w3.org/2000/svg" width="48" height="48" fill="none"><g clip-path="url(#a)"><path fill="#FFDA44" d="M40.97 40.97c-9.372 9.373-24.568 9.373-33.94 0-9.373-9.372-9.373-24.568 0-33.94.003 0 21.567-6.373 30.94 3s3.007 30.934 3 30.94"/><path fill="#D80027" d="M40.97 40.97c9.373-9.372 9.373-24.568 0-33.94-9.372-9.373-24.568-9.373-33.94 0z"/><path fill="#FF9811" d="M30.273 30.276a3.65 3.65 0 0 1-3.126-.212 3.656 3.656 0 0 1-1.397-4.972l-.299-.168c3.007-.725 5.231-3.454 5.192-6.675a6.77 6.77 0 0 0-2.318-5.019l-2.191 2.245a3.65 3.65 0 0 1 1.379 2.812 3.656 3.656 0 0 1-3.608 3.697l.005.342c-2.132-2.24-5.607-2.803-8.377-1.159a6.77 6.77 0 0 0-3.187 4.518l3.04.775a3.65 3.65 0 0 1 1.745-2.6 3.656 3.656 0 0 1 5.005 1.276l.295-.175c-.875 2.966.376 6.257 3.184 7.833a6.77 6.77 0 0 0 5.506.502zM23.93 24.07"/><path fill="#FFEACF" d="m32.885 16.255-1.696 6.053-5.09-.94-3.276-6.753-8.85 3.14-.698-1.966-2.316-.286 1.745 4.918 6.09-1.558 1.732 4.878-4.211 6.213 7.145 6.095-1.354 1.587.91 2.149 3.387-3.97-4.395-4.496 3.36-3.938 7.486.54 1.705-9.236 2.052.38 1.406-1.863zm-8.887 7.908"/></g><defs><clipPath id="a"><path fill="#fff" d="M0 0h48v48H0z"/></clipPath></defs></svg>
