<svg xmlns="http://www.w3.org/2000/svg" width="48" height="48" fill="none"><g clip-path="url(#a)"><path fill="#F0F0F0" d="M1.133 16.696A24 24 0 0 0 0 24c0 2.547.398 5 1.133 7.304L24 32.348l22.867-1.044A24 24 0 0 0 48 24c0-2.547-.398-5.001-1.133-7.304L24 15.652z"/><path fill="#000" d="M48 24c0-1.424-.125-2.818-.362-4.174H.363a24.1 24.1 0 0 0 0 8.348h47.275c.237-1.356.362-2.75.362-4.174"/><path fill="#338AF3" d="M24 48c10.708 0 19.777-7.013 22.867-16.696H1.134C4.224 40.987 13.293 48 24 48M24 0C13.293 0 4.224 7.013 1.134 16.696h45.733C43.777 7.013 34.708 0 24 0"/></g><defs><clipPath id="a"><path fill="#fff" d="M0 0h48v48H0z"/></clipPath></defs></svg>
