<svg xmlns="http://www.w3.org/2000/svg" width="48" height="48" fill="none"><g clip-path="url(#a)"><path fill="#FCFCFC" d="M24 48c13.255 0 24-10.745 24-24S37.255 0 24 0 0 10.745 0 24s10.745 24 24 24"/><path fill="#A2001D" d="m9.913 22.26-2.608-4.732 2.608-4.658 2.61 4.658zM4.696 22.26l-2.61-4.732 2.61-4.658 2.608 4.658zM9.913 35.13l-2.608-4.732 2.608-4.659 2.61 4.659zM4.696 35.13l-2.61-4.732 2.61-4.659 2.608 4.659zM12.522 4.659l-.739-1.32A24 24 0 0 0 8.071 6.05l1.842 3.341zM9.913 38.609l-1.861 3.324a24 24 0 0 0 3.71 2.714l.76-1.38z"/><path fill="#6DA544" d="M14.608 30.26v15.832A23.9 23.9 0 0 0 24 48c10.319 0 19.116-6.513 22.507-15.652z"/><path fill="#A2001D" d="M46.507 32.348A24 24 0 0 0 48 24C48 10.745 37.255 0 24 0c-3.333 0-6.507.68-9.392 1.908v30.44z"/></g><defs><clipPath id="a"><path fill="#fff" d="M0 0h48v48H0z"/></clipPath></defs></svg>
