<svg xmlns="http://www.w3.org/2000/svg" width="48" height="48" fill="none"><g clip-path="url(#a)"><path fill="#0052B4" d="M48 24c0-8.237-4.15-15.504-10.473-19.826L24 3.13 10.473 4.174C4.15 8.496 0 15.764 0 24s4.15 15.504 10.473 19.826L24 44.87l13.527-1.044C43.85 39.504 48 32.237 48 24"/><path fill="#A2001D" d="M37.527 4.174A23.9 23.9 0 0 0 24 0c-5.018 0-9.676 1.54-13.527 4.174zM10.473 43.826A23.9 23.9 0 0 0 24 48c5.017 0 9.675-1.54 13.526-4.174z"/><path fill="#F0F0F0" d="M24 35.478c6.339 0 11.478-5.139 11.478-11.478 0-6.34-5.139-11.478-11.478-11.478-6.34 0-11.478 5.139-11.478 11.478 0 6.34 5.138 11.478 11.478 11.478"/><path fill="#6DA544" d="M24 33.391a9.391 9.391 0 1 0 0-18.782 9.391 9.391 0 0 0 0 18.782"/><path fill="#F0F0F0" d="M24 30.26a6.26 6.26 0 1 0 0-12.52 6.26 6.26 0 0 0 0 12.52"/><path fill="#0052B4" d="M24 22.435 20.608 24v2.609L24 28.696l3.391-2.087v-2.61z"/><path fill="#FFDA44" d="M20.608 20.87h6.783V24h-6.783z"/></g><defs><clipPath id="a"><path fill="#fff" d="M0 0h48v48H0z"/></clipPath></defs></svg>
