<svg xmlns="http://www.w3.org/2000/svg" width="48" height="48" fill="none"><g clip-path="url(#a)"><path fill="#F0F0F0" d="M24 48c13.255 0 24-10.745 24-24S37.255 0 24 0 0 10.745 0 24s10.745 24 24 24"/><path fill="#D80027" d="M48 24c0-9.515-5.538-17.737-13.565-21.619V45.62C42.462 41.737 48 33.515 48 24M0 24c0 9.515 5.537 17.737 13.565 21.619V2.38C5.537 6.263 0 14.485 0 24M28.174 27.13l4.174-2.087L30.26 24v-2.087L26.087 24l2.087-4.174h-2.087L24 16.696l-2.087 3.13h-2.087L21.913 24l-4.174-2.087V24l-2.087 1.043 4.174 2.087-1.043 2.087h4.174v3.13h2.087v-3.13h4.174z"/></g><defs><clipPath id="a"><path fill="#fff" d="M0 0h48v48H0z"/></clipPath></defs></svg>
