<svg xmlns="http://www.w3.org/2000/svg" width="48" height="48" fill="none"><g clip-path="url(#a)"><path fill="#6DA544" d="M24 48c13.255 0 24-10.745 24-24S37.255 0 24 0 0 10.745 0 24s10.745 24 24 24"/><path fill="#FFDA44" d="m36.843 34.435.658 1.377 1.488-.344-.666 1.374 1.196.948-1.49.336.005 1.526-1.191-.955-1.191.955.004-1.526-1.489-.336 1.196-.948-.666-1.374 1.487.344zM30.716 19.826l.658 1.377 1.488-.343-.666 1.373 1.196.948-1.49.336.005 1.527-1.191-.955-1.191.955.004-1.527-1.489-.335 1.196-.949-.666-1.373 1.487.343zM36.843 11.478l.658 1.377 1.488-.343-.666 1.373 1.195.949-1.489.335.004 1.527-1.19-.955-1.191.955.004-1.527-1.489-.335 1.196-.949-.666-1.373 1.487.343zM42.194 17.74l.659 1.376 1.487-.343-.666 1.373 1.196.949-1.489.335.004 1.527-1.19-.955-1.191.955.004-1.527-1.49-.335 1.197-.949-.667-1.373 1.488.343zM38.367 25.044l.518 1.594h1.677l-1.357.985.519 1.595-1.357-.986-1.356.986.518-1.595-1.356-.985h1.676z"/><path fill="#FFDA44" d="M26.609 30.783a6.783 6.783 0 1 1 3.226-12.75 8.348 8.348 0 1 0 0 11.935 6.75 6.75 0 0 1-3.226.815M15.093 9.391a4.171 4.171 0 0 0-7.229 0zM15.107 9.416l-3.628 3.628L7.85 9.416a4.174 4.174 0 1 0 7.256 0"/><path fill="#A2001D" d="M10.435 12v3.52a4.2 4.2 0 0 0 2.086 0V12z"/></g><defs><clipPath id="a"><path fill="#fff" d="M0 0h48v48H0z"/></clipPath></defs></svg>
