<svg xmlns="http://www.w3.org/2000/svg" width="48" height="49" fill="none"><g clip-path="url(#a)"><path fill="#FFDA44" d="M45.335 13.006a24 24 0 0 0-4.364-5.967 24 24 0 0 0-5.966-4.363L18.097 18.108 2.665 35.015a24 24 0 0 0 4.364 5.967 24 24 0 0 0 5.966 4.364l16.908-15.432z"/><path fill="#D80027" d="M7.03 40.982a24 24 0 0 0 3.207 2.695l33.43-33.43a24.1 24.1 0 0 0-5.903-5.903l-33.43 33.43a24 24 0 0 0 2.695 3.208"/><path fill="#338AF3" d="M7.029 7.04C-.543 14.61-1.997 25.982 2.665 35.014l32.34-32.34C25.972-1.984 14.6-.531 7.029 7.04M40.971 40.982c7.572-7.572 9.025-18.943 4.364-27.976l-32.34 32.34c9.033 4.661 20.404 3.208 27.976-4.364"/><path fill="#FFDA44" d="m12.79 7.314 1.295 3.986h4.191l-3.39 2.464 1.294 3.986-3.39-2.464L9.4 17.75l1.294-3.986-3.39-2.464h4.19z"/></g><defs><clipPath id="a"><path fill="#fff" d="M0 .01h48v48H0z"/></clipPath></defs></svg>
