<svg xmlns="http://www.w3.org/2000/svg" width="48" height="48" fill="none"><g clip-path="url(#a)"><path fill="#F0F0F0" d="M24 48c13.255 0 24-10.745 24-24S37.255 0 24 0 0 10.745 0 24s10.745 24 24 24"/><path fill="#0052B4" d="M45.081 12.522C41.98 6.838 36.647 2.547 30.261.825l-1.044 11.697zM2.918 12.522h15.864L17.74.825C11.352 2.547 6.019 6.838 2.918 12.522"/><path fill="#6DA544" d="M29.217 24v11.478H45.08A23.9 23.9 0 0 0 48 24zM18.783 24H0c0 4.158 1.058 8.069 2.918 11.478h15.864z"/><path fill="#FFDA44" d="M2.918 35.478c3.101 5.684 8.434 9.975 14.82 11.697l1.044-10.23zM30.26 47.175c6.387-1.722 11.72-6.013 14.821-11.697l-15.864 1.467z"/><path fill="#FFDA44" d="m29.217 36.945 15.864-1.467H29.217zM18.782 35.478H2.918l15.864 1.467z"/><path fill="#D80027" d="M24 0c-2.167 0-4.265.289-6.262.827v46.346c1.997.538 4.095.827 6.261.827s4.265-.289 6.261-.827V.827A24 24 0 0 0 24 0"/><path fill="#FFDA44" d="m12.909 5.217.647 1.993h2.096l-1.695 1.232.647 1.993-1.695-1.232-1.696 1.232.648-1.993-1.695-1.232h2.095z"/></g><defs><clipPath id="a"><path fill="#fff" d="M0 0h48v48H0z"/></clipPath></defs></svg>
