<svg xmlns="http://www.w3.org/2000/svg" width="48" height="49" fill="none"><g clip-path="url(#a)"><path fill="#FFDA44" d="m13.01 45.353 17.631-14.701 14.7-17.631A24.1 24.1 0 0 0 35.005 2.677L17.36 17.37 2.666 35.015A24.1 24.1 0 0 0 13.01 45.352"/><path fill="#D80027" d="M40.972 40.982c7.572-7.572 9.025-18.943 4.364-27.976l-32.34 32.34c9.033 4.661 20.404 3.208 27.976-4.364"/><path fill="#6DA544" d="M7.029 7.04C-.543 14.61-1.997 25.982 2.665 35.014l32.34-32.34C25.972-1.985 14.6-.531 7.029 7.04"/></g><defs><clipPath id="a"><path fill="#fff" d="M0 .01h48v48H0z"/></clipPath></defs></svg>
