<svg xmlns="http://www.w3.org/2000/svg" width="48" height="48" fill="none"><g clip-path="url(#a)"><path fill="#F0F0F0" d="M24 48c2.935 0 5.748-.528 8.347-1.493L33.391 24 32.348 1.493A24 24 0 0 0 24 0c-2.936 0-5.748.528-8.348 1.493L14.608 24l1.044 22.507C18.252 47.472 21.064 48 24 48"/><path fill="#FF9811" d="M0 24c0 10.32 6.513 19.116 15.652 22.507V1.493C6.513 4.883 0 13.68 0 24"/><path fill="#6DA544" d="M32.348 1.493v45.014C41.487 43.117 48 34.32 48 24S41.487 4.884 32.348 1.493"/></g><defs><clipPath id="a"><path fill="#fff" d="M0 0h48v48H0z"/></clipPath></defs></svg>
