<svg xmlns="http://www.w3.org/2000/svg" width="48" height="48" fill="none"><g clip-path="url(#a)"><path fill="#0052B4" d="M48 24c0 13.255-10.745 24-24 24S0 37.255 0 24C0 24.006 24 .003 24 0c13.255 0 24 10.745 24 24"/><path fill="#F0F0F0" d="M23.936 24H24v-.064z"/><path fill="#F0F0F0" d="M24 12.522V0h-.004C10.743.002 0 10.747 0 24h12.522v-7.051L19.572 24h4.364l.064-.064v-4.363l-7.051-7.051z"/><path fill="#D80027" d="M12.143 3.13a24.1 24.1 0 0 0-9.012 9.012V24h6.26V9.391h14.61v-6.26z"/><path fill="#D80027" d="m24 21.049-8.527-8.527H12.52L24 24z"/><path fill="#F0F0F0" d="m32.347 24 .445 1.366h1.436l-1.162.845.444 1.367-1.163-.845-1.162.845.444-1.367-1.162-.844h1.437zM26.446 26.445l1.28.652 1.016-1.016-.225 1.42 1.28.652-1.419.224-.224 1.42-.653-1.28-1.419.224 1.016-1.016zM24 32.348l1.366-.444v-1.437l.845 1.162 1.367-.444-.845 1.163.845 1.162-1.367-.444-.844 1.163v-1.437zM26.446 38.25l.652-1.28-1.016-1.015 1.42.224.652-1.28.224 1.42 1.42.224-1.28.652.224 1.42-1.016-1.017zM32.348 40.696l-.444-1.367h-1.437l1.162-.845-.444-1.366 1.163.844 1.162-.844-.444 1.366 1.162.845h-1.436zM38.25 38.25l-1.28-.651-1.016 1.015.225-1.419-1.28-.652 1.419-.225.224-1.42.653 1.281 1.419-.224-1.016 1.015zM40.695 32.348l-1.367.444v1.437l-.844-1.163-1.367.444.845-1.162-.845-1.163 1.367.444.844-1.162v1.437zM38.25 26.445l-.652 1.28 1.016 1.016-1.42-.224-.652 1.28-.224-1.42-1.42-.224 1.28-.652-.224-1.42 1.016 1.016z"/></g><defs><clipPath id="a"><path fill="#fff" d="M0 0h48v48H0z"/></clipPath></defs></svg>
