<svg xmlns="http://www.w3.org/2000/svg" width="48" height="48" fill="none"><g clip-path="url(#a)"><path fill="#F0F0F0" d="M24 48c13.255 0 24-10.745 24-24S37.255 0 24 0 0 10.745 0 24s10.745 24 24 24"/><path fill="#D80027" d="M48 24c0 13.255-10.745 24-24 24S0 37.255 0 24s24 0 24 0z"/><path fill="#0052B4" d="M0 24C0 10.745 10.745 0 24 0v24z"/><path fill="#F0F0F0" d="m14.286 8.348 1.554 4.783h5.03l-4.07 2.956 1.555 4.783-4.069-2.956-4.068 2.956 1.554-4.783-4.069-2.956h5.03z"/></g><defs><clipPath id="a"><path fill="#fff" d="M0 0h48v48H0z"/></clipPath></defs></svg>
