<svg xmlns="http://www.w3.org/2000/svg" width="48" height="48" fill="none"><g clip-path="url(#a)"><path fill="#D80027" d="M24 48c13.255 0 24-10.745 24-24S37.255 0 24 0 0 10.745 0 24s10.745 24 24 24"/><path fill="#FFDA44" d="m13.134 14.606 2.072 6.375h6.703l-5.418 3.947 2.072 6.375-5.429-3.937-5.428 3.937 2.081-6.375-5.428-3.947h6.704zM28.453 37.172l-1.584-1.95-2.344.91 1.36-2.11-1.585-1.96 2.428.647 1.369-2.109.13 2.512 2.438.647-2.353.9zM31.603 31.453l.75-2.4L30.3 27.6l2.512-.038.74-2.4.817 2.382 2.512-.028-2.016 1.5.807 2.38-2.053-1.452zM35.85 17.616l-1.106 2.259 1.8 1.753-2.484-.356-1.107 2.25-.43-2.475-2.495-.356 2.232-1.172-.432-2.485 1.8 1.754zM28.518 10.772l-.187 2.503 2.334.947-2.447.6-.178 2.512-1.322-2.137-2.447.6 1.622-1.922-1.33-2.128 2.334.947z"/></g><defs><clipPath id="a"><path fill="#fff" d="M0 0h48v48H0z"/></clipPath></defs></svg>
