<svg xmlns="http://www.w3.org/2000/svg" width="48" height="49" fill="none"><g clip-path="url(#a)"><path fill="#F0F0F0" d="M24 48.01c13.255 0 24-10.744 24-24 0-13.254-10.745-24-24-24s-24 10.746-24 24c0 13.256 10.745 24 24 24"/><path fill="#0052B4" d="M24 .01c-7.852 0-14.823 3.772-19.201 9.6H43.2C38.822 3.783 31.85.01 24 .01M24 48.01c7.852 0 14.822-3.77 19.2-9.6H4.8c4.378 5.83 11.35 9.6 19.2 9.6M0 24.01c0 1.645.166 3.25.48 4.8h47.04c.314-1.55.48-3.155.48-4.8 0-1.643-.166-3.248-.48-4.8H.48a24 24 0 0 0-.48 4.8"/><path fill="#D80027" d="M7.03 7.04c-9.373 9.373-9.373 24.569 0 33.941L24 24.011z"/><path fill="#F0F0F0" d="m9.714 17.75 1.554 4.783h5.029l-4.068 2.956 1.553 4.782-4.068-2.955-4.069 2.956L7.2 25.489l-4.068-2.956H8.16z"/></g><defs><clipPath id="a"><path fill="#fff" d="M0 .01h48v48H0z"/></clipPath></defs></svg>
