<svg xmlns="http://www.w3.org/2000/svg" width="48" height="48" fill="none"><g clip-path="url(#a)"><path fill="#F0F0F0" d="M24 48c13.255 0 24-10.745 24-24S37.255 0 24 0 0 10.745 0 24s10.745 24 24 24"/><path fill="#0052B4" d="M24 48c7.274 0 13.792-3.237 18.193-8.348H5.807C10.207 44.763 16.726 48 24 48M48 24C48 10.745 37.255 0 24 0S0 10.745 0 24c0 2.166.289 4.265.827 6.26h46.346c.538-1.995.827-4.094.827-6.26"/><path fill="#D80027" d="M1.907 33.391a24 24 0 0 0 1.615 3.13h40.955a24 24 0 0 0 1.615-3.13z"/><path fill="#FFDA44" d="m17.156 25.565.388 1.196h1.257l-1.017.739.389 1.196-1.017-.74-1.018.74.389-1.196-1.017-.74h1.257zM17.156 41.217l.388 1.196h1.257l-1.017.74.389 1.195-1.017-.74-1.018.74.389-1.196-1.017-.739h1.257zM9.87 35.924l.388 1.196h1.257l-1.017.739.389 1.195-1.018-.739-1.017.74.389-1.197-1.017-.738H9.48zM12.653 27.13l.388 1.196h1.257l-1.017.74.389 1.195-1.017-.74-1.018.74.39-1.196-1.018-.739h1.257zM8.224 32.054H9.48l.388-1.195.389 1.195h1.257l-1.017.74.389 1.195-1.018-.739-1.017.739.389-1.196zM11.636 42.554l.388-1.195-1.017-.74h1.257l.389-1.195.388 1.196H14.3l-1.018.739.389 1.195-1.017-.739zM24.439 35.924l-.389 1.196h-1.257l1.017.738-.388 1.196 1.017-.739 1.017.74-.389-1.197 1.017-.738h-1.257zM21.656 27.13l-.389 1.196H20.01l1.017.74-.389 1.195 1.017-.74 1.018.74-.389-1.196 1.017-.739h-1.257zM26.084 32.055h-1.257l-.388-1.196-.389 1.196h-1.257l1.017.739-.388 1.195 1.017-.739 1.017.739-.389-1.196zM22.673 42.554l-.389-1.195 1.017-.74h-1.257l-.389-1.195-.388 1.196H20.01l1.017.739-.389 1.195 1.018-.739z"/></g><defs><clipPath id="a"><path fill="#fff" d="M0 0h48v48H0z"/></clipPath></defs></svg>
