<svg xmlns="http://www.w3.org/2000/svg" width="48" height="49" fill="none"><g clip-path="url(#a)"><path fill="#FFDA44" d="M24 48.01c13.255 0 24-10.744 24-24 0-13.254-10.745-24-24-24s-24 10.746-24 24c0 13.256 10.745 24 24 24"/><path fill="#0052B4" d="M24 48.01c7.875 0 14.864-3.792 19.24-9.65H4.76c4.376 5.858 11.365 9.65 19.24 9.65M48 24.01c0-13.254-10.745-24-24-24s-24 10.746-24 24c0 2.839.494 5.561 1.398 8.089h45.204A24 24 0 0 0 48 24.01"/><path fill="#F0F0F0" d="m16.427 15.403 1.295 3.985h4.191l-3.39 2.464 1.295 3.985-3.39-2.463-3.391 2.464 1.295-3.986-3.39-2.464h4.19zM9.23 11.229l.777 2.391h2.515l-2.035 1.478.777 2.392-2.034-1.478-2.034 1.478.777-2.392-2.035-1.478h2.515z"/></g><defs><clipPath id="a"><path fill="#fff" d="M0 .01h48v48H0z"/></clipPath></defs></svg>
