<svg xmlns="http://www.w3.org/2000/svg" width="48" height="49" fill="none"><g clip-path="url(#a)"><path fill="#FCFCFC" d="M24 48.01c13.255 0 24-10.744 24-24 0-13.254-10.745-24-24-24s-24 10.746-24 24c0 13.256 10.745 24 24 24"/><path fill="#6DA544" d="M37.565 20.88h-3.13c0 5.763-4.673 10.435-10.435 10.435S13.565 26.643 13.565 20.88h-3.13c0 6.208 4.17 11.442 9.86 13.054a3.47 3.47 0 0 0 .363 3.79l3.411-2.734 3.411 2.734c.9-1.124.99-2.635.344-3.826 5.63-1.652 9.74-6.854 9.74-13.018"/><path fill="#FFDA44" d="M15.652 19.837s0 5.217 5.218 5.217l1.043 1.044H24s1.044-3.13 3.13-3.13c0 0 0-2.088 2.088-2.088h3.13s-1.043-4.174 4.174-7.304l-2.087-1.043s-7.305 5.217-12.522 4.173v2.087h-2.087l-1.043-1.043z"/></g><defs><clipPath id="a"><path fill="#fff" d="M0 .01h48v48H0z"/></clipPath></defs></svg>
