<svg xmlns="http://www.w3.org/2000/svg" width="48" height="49" fill="none"><g clip-path="url(#a)"><path fill="#F0F0F0" d="M24 48.01c13.255 0 24-10.744 24-24 0-13.254-10.745-24-24-24s-24 10.746-24 24c0 13.256 10.745 24 24 24"/><path fill="#D80027" d="M21.913 24.01S7.043 40.986 7.029 40.982A23.93 23.93 0 0 0 24 48.011c13.256 0 24-10.745 24-24z"/><path fill="#0052B4" d="M7.03 7.04c-9.373 9.373-9.373 24.569 0 33.941L24 24.011z"/></g><defs><clipPath id="a"><path fill="#fff" d="M0 .01h48v48H0z"/></clipPath></defs></svg>
