<svg xmlns="http://www.w3.org/2000/svg" width="48" height="49" fill="none"><g clip-path="url(#a)"><path fill="#FFDA44" d="M1.492 32.36C4.883 41.499 13.68 48.012 24 48.012s19.117-6.513 22.508-15.652l-22.508-2.087z"/><path fill="#000" d="M24 .012C13.68.012 4.882 6.525 1.491 15.664L24 17.75l22.508-2.087C43.116 6.524 34.319.012 23.999.012"/><path fill="#D80027" d="M1.493 15.664A24 24 0 0 0 0 24.012c0 2.935.528 5.747 1.493 8.347h45.014A24 24 0 0 0 48 24.012c0-2.936-.528-5.748-1.493-8.348z"/></g><defs><clipPath id="a"><path fill="#fff" d="M0 .012h48v48H0z"/></clipPath></defs></svg>
