<svg xmlns="http://www.w3.org/2000/svg" width="48" height="49" fill="none"><g clip-path="url(#a)"><path fill="#338AF3" d="M21.913 26.098S7.043 7.037 7.029 7.04A23.93 23.93 0 0 1 24 .01c13.256 0 24 10.746 24 24z"/><path fill="#6DA544" d="M21.913 24.01S7.043 40.986 7.029 40.982A23.93 23.93 0 0 0 24 48.011c13.256 0 24-10.745 24-24z"/><path fill="#F0F0F0" d="M7.03 7.04c-9.373 9.373-9.373 24.569 0 33.941L24 24.011z"/><path fill="#D80027" d="m9.714 17.75 1.554 4.782h5.03l-4.07 2.957 1.554 4.783-4.068-2.956-4.069 2.956L7.2 25.489l-4.068-2.957H8.16z"/></g><defs><clipPath id="a"><path fill="#fff" d="M0 .01h48v48H0z"/></clipPath></defs></svg>
