<svg xmlns="http://www.w3.org/2000/svg" width="48" height="49" fill="none"><g clip-path="url(#a)"><path fill="#F0F0F0" d="M24 48.01c13.255 0 24-10.744 24-24 0-13.254-10.745-24-24-24s-24 10.746-24 24c0 13.256 10.745 24 24 24"/><path fill="#D80027" d="M18.782 20.88h29.014C46.262 9.105 36.193.01 24 .01c-1.792 0-3.538.199-5.218.571zM12.522 20.88V2.93C5.932 6.525 1.214 13.12.203 20.88zM12.522 27.141H.203c1.011 7.76 5.729 14.356 12.319 17.952zM18.782 27.141v20.3c1.68.372 3.426.57 5.218.57 12.193 0 22.262-9.094 23.796-20.87z"/></g><defs><clipPath id="a"><path fill="#fff" d="M0 .01h48v48H0z"/></clipPath></defs></svg>
