<svg xmlns="http://www.w3.org/2000/svg" width="48" height="48" fill="none"><g clip-path="url(#a)"><path fill="#F0F0F0" d="M24 48c13.255 0 24-10.745 24-24S37.255 0 24 0 0 10.745 0 24s10.745 24 24 24"/><path fill="#496E2D" d="M28.695 47.54c9.488-1.883 16.962-9.356 18.844-18.844H28.695zM.46 28.696c1.883 9.487 9.357 16.961 18.845 18.843V28.696zM47.54 19.304C45.656 9.817 38.182 2.343 28.694.461v18.843zM19.305.46C9.817 2.344 2.343 9.818.46 19.305h18.844z"/><path fill="#FFDA44" d="M22.435 28.696h-3.13v18.843q1.533.305 3.13.409zM22.435 19.304V.052a24 24 0 0 0-3.13.409v18.843z"/><path fill="#000" d="M25.566.052A24 24 0 0 0 24.001 0q-.79.001-1.565.052v19.252h3.13zM22.436 47.948q.776.05 1.565.052.789-.001 1.565-.052V28.696h-3.13z"/><path fill="#FFDA44" d="M19.305 22.435v-3.13H.46a24 24 0 0 0-.408 3.13zM28.695 22.435h19.252a24 24 0 0 0-.408-3.13H28.695z"/><path fill="#000" d="M28.695 25.565h19.252Q48 24.79 48 24q-.002-.79-.053-1.565H28.695zM.052 22.435Q.002 23.21 0 24q.001.79.052 1.565h19.252v-3.13z"/><path fill="#D80027" d="M24 35.478c6.339 0 11.478-5.139 11.478-11.478 0-6.34-5.139-11.478-11.478-11.478-6.34 0-11.478 5.139-11.478 11.478 0 6.34 5.138 11.478 11.478 11.478"/><path fill="#496E2D" d="M26.615 25.28c-.854-1.707-1.963-3.437-1.963-3.437s.027-.788.027-1.258a1.28 1.28 0 0 0-2.555-.11 1.01 1.01 0 0 0-.4 1.902c.16-.375.474-.668.863-.802a1.3 1.3 0 0 0 .204.137l.164.079s-.609 1.715-.609 2.636c0 2.59 1.708 3.388 1.708 3.388v.027l-.854.854h1.708v-1.708l.853.854c.008-.016 1.618-1.034.854-2.561M24 14.609l.388 1.195h1.257l-1.017.74.388 1.195L24 17l-1.017.74.389-1.197-1.017-.739h1.257zM18.48 16.402l1.017.74 1.017-.74-.388 1.196 1.017.739h-1.257l-.389 1.196-.388-1.196h-1.257l1.017-.74zM15.068 21.098h1.258l.388-1.196.389 1.196h1.257l-1.017.739.388 1.196-1.017-.74-1.017.74.388-1.196zM15.068 26.902l1.017-.739-.388-1.196 1.017.74 1.017-.74-.388 1.196 1.017.74h-1.258l-.388 1.195-.388-1.196zM18.48 31.598l.389-1.196-1.017-.739h1.257l.388-1.196.389 1.196h1.257l-1.017.74.389 1.195-1.018-.74zM24 33.391l-.39-1.195h-1.256l1.017-.74-.389-1.195 1.017.739 1.017-.74-.388 1.197 1.017.739h-1.257zM29.52 31.598l-1.017-.74-1.017.74.389-1.196-1.018-.739h1.258l.388-1.196.389 1.196h1.257l-1.017.74zM32.932 26.902h-1.257l-.389 1.196-.388-1.196h-1.257l1.017-.739-.389-1.195 1.018.738 1.017-.738-.389 1.195zM32.932 21.098l-1.017.739.389 1.196-1.018-.74-1.017.74.389-1.196-1.017-.739h1.257l.388-1.196.39 1.196zM29.52 16.402l-.388 1.196 1.017.739h-1.257l-.389 1.196-.388-1.196h-1.258l1.018-.739-.389-1.195 1.017.738z"/></g><defs><clipPath id="a"><path fill="#fff" d="M0 0h48v48H0z"/></clipPath></defs></svg>
