<svg xmlns="http://www.w3.org/2000/svg" width="48" height="49" fill="none"><g clip-path="url(#a)"><path fill="#F0F0F0" d="M24 48.01c13.255 0 24-10.744 24-24 0-13.254-10.745-24-24-24s-24 10.746-24 24c0 13.256 10.745 24 24 24"/><path fill="#D80027" d="M.826 30.272A24.04 24.04 0 0 0 17.74 47.184V30.272z"/><path fill="#0052B4" d="M17.739.837A24.04 24.04 0 0 0 .825 17.75H17.74z"/><path fill="#D80027" d="M47.174 17.75A24.04 24.04 0 0 0 30.262.837V17.75z"/><path fill="#0052B4" d="M30.262 47.184a24.04 24.04 0 0 0 16.912-16.912H30.262z"/><path fill="#496E2D" d="M30.26 24.01a6.26 6.26 0 1 1-12.522 0c0-3.457 6.261-6.26 6.261-6.26s6.261 2.803 6.261 6.26"/><path fill="#0052B4" d="M17.738 24.01a6.26 6.26 0 1 1 12.522 0"/><path fill="#D80027" d="M20.479 20.88v3.913a3.522 3.522 0 1 0 7.043 0V20.88z"/></g><defs><clipPath id="a"><path fill="#fff" d="M0 .01h48v48H0z"/></clipPath></defs></svg>
