<svg xmlns="http://www.w3.org/2000/svg" width="48" height="48" fill="none"><g clip-path="url(#a)"><path fill="#F0F0F0" d="M24 0c13.254 0 24 10.745 24 24S37.253 48 24 48c0-1.043-3.13-24-3.13-24z"/><path fill="#496E2D" d="M24 48C10.745 48 0 37.255 0 24S10.745 0 24 0"/><path fill="#D80027" d="m29.156 19.397-1.969 2.713-3.189-1.034 1.972 2.711-1.969 2.714 3.188-1.038 1.973 2.71-.002-3.352 3.187-1.038-3.189-1.034z"/><path fill="#D80027" d="M25.99 30.783a6.783 6.783 0 1 1 3.227-12.75 8.348 8.348 0 1 0 0 11.935 6.75 6.75 0 0 1-3.226.815"/></g><defs><clipPath id="a"><path fill="#fff" d="M0 0h48v48H0z"/></clipPath></defs></svg>
