<svg xmlns="http://www.w3.org/2000/svg" width="48" height="49" fill="none"><g clip-path="url(#a)"><path fill="#FFDA44" d="M0 24.01c0-13.254 10.745-24 24-24s24 10.746 24 24l-24 2.088z"/><path fill="#D80027" d="M3.212 36.01c4.15 7.174 11.905 12 20.788 12s16.64-4.826 20.789-12L24 34.447z"/><path fill="#0052B4" d="M44.789 36.01a23.9 23.9 0 0 0 3.211-12H0c0 4.372 1.17 8.47 3.212 12z"/><path fill="#FFDA44" d="M24 32.359a8.348 8.348 0 1 0 0-16.696 8.348 8.348 0 0 0 0 16.696"/><path fill="#338AF3" d="M24 29.228a5.223 5.223 0 0 1-5.218-5.217v-3.13A5.223 5.223 0 0 1 24 15.662a5.223 5.223 0 0 1 5.217 5.217v3.13A5.223 5.223 0 0 1 24 29.229"/><path fill="#000" d="M32.348 11.49h-6.26a2.087 2.087 0 0 0-4.175 0h-6.26c0 1.152 1.003 2.086 2.156 2.086h-.07c0 1.153.935 2.087 2.087 2.087 0 1.153.935 2.087 2.087 2.087h4.174a2.087 2.087 0 0 0 2.087-2.087 2.087 2.087 0 0 0 2.087-2.087h-.07c1.153 0 2.157-.934 2.157-2.087"/></g><defs><clipPath id="a"><path fill="#fff" d="M0 .01h48v48H0z"/></clipPath></defs></svg>
