<svg xmlns="http://www.w3.org/2000/svg" width="48" height="49" fill="none"><g clip-path="url(#a)"><path fill="#000" d="M0 24.01c0 2.936.528 5.749 1.493 8.348L24 33.402l22.507-1.043A24 24 0 0 0 48 24.01c0-2.936-.528-5.748-1.493-8.348L24 14.619 1.493 15.663A24 24 0 0 0 0 24.01"/><path fill="#0052B4" d="M24 .01C13.68.01 4.882 6.525 1.491 15.664h45.015C43.116 6.523 34.319.011 23.999.011"/><path fill="#F0F0F0" d="M46.507 32.359H1.492C4.883 41.498 13.68 48.01 24 48.01s19.117-6.513 22.508-15.652"/></g><defs><clipPath id="a"><path fill="#fff" d="M0 .01h48v48H0z"/></clipPath></defs></svg>
