<svg xmlns="http://www.w3.org/2000/svg" width="48" height="49" fill="none"><g clip-path="url(#a)"><path fill="#F0F0F0" d="M24 48.01c13.255 0 24-10.744 24-24 0-13.254-10.745-24-24-24s-24 10.746-24 24c0 13.256 10.745 24 24 24"/><path fill="#D80027" d="M24 .01C13.681.01 4.884 6.525 1.493 15.664h45.015C43.117 6.523 34.319.011 24 .011"/><path fill="#000" d="M24 48.01c10.32 0 19.117-6.512 22.508-15.651H1.493C4.884 41.498 13.681 48.01 24 48.01"/><path fill="#FF9811" d="M32.348 21.402h-6.26a2.087 2.087 0 0 0-4.175 0h-6.26c0 1.153 1.003 2.087 2.156 2.087h-.07c0 1.153.935 2.087 2.087 2.087 0 1.153.935 2.087 2.087 2.087h4.174a2.087 2.087 0 0 0 2.087-2.087 2.087 2.087 0 0 0 2.087-2.087h-.07c1.153 0 2.157-.934 2.157-2.087"/></g><defs><clipPath id="a"><path fill="#fff" d="M0 .01h48v48H0z"/></clipPath></defs></svg>
