<svg xmlns="http://www.w3.org/2000/svg" width="48" height="49" fill="none"><g clip-path="url(#a)"><path fill="#338AF3" d="M21.913 21.924S7.043 40.984 7.029 40.98A23.93 23.93 0 0 0 24 48.011c13.256 0 24-10.745 24-24z"/><path fill="#6DA544" d="M21.913 24.01S7.043 7.038 7.029 7.04A23.93 23.93 0 0 1 24 .01c13.256 0 24 10.746 24 24z"/><path fill="#D80027" d="M7.03 7.04c-9.373 9.373-9.373 24.569 0 33.941-.001.004 40.97-16.97 40.97-16.97z"/><path fill="#FFDA44" d="M12.522 14.098c-4.603 0-8.348 3.745-8.348 8.347v3.13c0 4.604 3.745 8.349 8.348 8.349s8.347-3.745 8.347-8.348v-3.13c0-4.603-3.744-8.348-8.347-8.348m5.217 11.478a5.23 5.23 0 0 1-3.652 4.977v-3.412l2.215-2.214-2.214-2.214-.001-.788V20.88h-3.13v3.13l-2.214 2.214 2.214 2.213v2.116a5.23 5.23 0 0 1-3.653-4.977v-3.13a5.223 5.223 0 0 1 5.218-5.218 5.223 5.223 0 0 1 5.217 5.218z"/></g><defs><clipPath id="a"><path fill="#fff" d="M0 .01h48v48H0z"/></clipPath></defs></svg>
