<svg xmlns="http://www.w3.org/2000/svg" width="48" height="48" fill="none"><g clip-path="url(#a)"><path fill="#FFDA44" d="M0 24c0 2.936.528 5.748 1.493 8.348L24 34.435l22.507-2.087A24 24 0 0 0 48 24a24 24 0 0 0-1.453-8.241L24 13.565 1.453 15.76A24 24 0 0 0 0 24"/><path fill="#D80027" d="M24 48c10.319 0 19.116-6.513 22.507-15.652H1.492C4.883 41.488 13.68 48 24 48"/><path fill="#6DA544" d="M24 0C13.68 0 4.882 6.513 1.491 15.652h45.015C43.116 6.513 34.319 0 23.999 0"/><path fill="#0052B4" d="M24 35.478c6.339 0 11.478-5.139 11.478-11.478 0-6.34-5.139-11.478-11.478-11.478-6.34 0-11.478 5.139-11.478 11.478 0 6.34 5.138 11.478 11.478 11.478"/><path fill="#FFDA44" d="m23.998 15.112 2.072 6.377h6.716l-5.435 3.941 2.088 6.396-5.441-3.96-5.433 3.953 2.08-6.389-5.43-3.941h6.71z"/><path fill="#FFDA44" d="m32.261 25.587-6.573-2.136 4.063-5.591-1.689-1.227L24 22.225l-4.063-5.592-1.688 1.227 4.062 5.592-6.573 2.135.645 1.985 6.573-2.136v6.912h2.087v-6.912l6.573 2.136z"/></g><defs><clipPath id="a"><path fill="#fff" d="M0 0h48v48H0z"/></clipPath></defs></svg>
