<svg xmlns="http://www.w3.org/2000/svg" width="48" height="49" fill="none"><g clip-path="url(#a)"><path fill="#338AF3" d="M48 24.01c0 13.256-10.745 24-24 24s-24-10.744-24-24c0 .006 24-23.997 24-24 13.255 0 24 10.746 24 24"/><path fill="#0052B4" d="M24 11.489v8.095l-8.348-8.095zM12.522 24.01h7.051l-7.051-9.39-1.043 7.304z"/><path fill="#F0F0F0" d="M23.936 24.01H24v-.064z"/><path fill="#F0F0F0" d="M24 12.533V.01h-.004C10.743.013 0 10.757 0 24.01h12.522V16.96l7.05 7.05h4.364l.064-.064v-4.362l-7.051-7.051z"/><path fill="#D80027" d="M12.143 3.141a24.1 24.1 0 0 0-9.012 9.012V24.01h6.26V9.402h14.61v-6.26z"/><path fill="#D80027" d="m24 21.06-8.526-8.527h-2.951L24 24.01z"/><path fill="#F3F3F3" d="M27.13 15.663v8.348c0 5.59 7.305 7.304 7.305 7.304s7.304-1.713 7.304-7.304v-8.348l-7.304-2.087z"/><path fill="#D80027" d="M41.74 15.663v-3.13H27.13v3.13h6.262v6.26H27.13v2.088h6.26v6.984c.63.223 1.044.32 1.044.32s.414-.097 1.043-.32v-6.984h6.261v-2.087h-6.26v-6.261z"/></g><defs><clipPath id="a"><path fill="#fff" d="M0 .01h48v48H0z"/></clipPath></defs></svg>
