<svg xmlns="http://www.w3.org/2000/svg" width="48" height="49" fill="none"><g clip-path="url(#a)"><path fill="#0052B4" d="M48 24.012c0 13.255-10.745 24-24 24s-24-10.745-24-24c0 .005 24-23.998 24-24 13.255 0 24 10.745 24 24"/><path fill="#F0F0F0" d="M23.936 24.012H24v-.064zM24 12.533V.012h-.004C10.743.014 0 10.758 0 24.012h12.522V16.96l7.05 7.05h4.364l.064-.063v-4.363l-7.051-7.052z"/><path fill="#D80027" d="M12.143 3.142a24.1 24.1 0 0 0-9.012 9.012v11.858h6.26V9.403h14.61v-6.26z"/><path fill="#D80027" d="m24 21.06-8.527-8.527H12.52L24 24.013z"/><path fill="#FFDA44" d="M38.61 28.186v1.043H30.26v-1.043h-3.13v4.173h2.087v1.044h10.435v-1.044h2.087v-4.174z"/><path fill="#338AF3" d="M27.13 12.533v11.479c0 5.59 7.305 7.304 7.305 7.304s7.304-1.713 7.304-7.304V12.533z"/><path fill="#F3F3F3" d="M34.435 21.095c-1.826 0-1.826 1.67-3.652 1.67s-1.826-1.67-3.652-1.67v2.922c1.826 0 1.826 1.67 3.652 1.67s1.826-1.67 3.652-1.67 1.826 1.67 3.652 1.67 1.826-1.67 3.652-1.67v-2.922c-1.826 0-1.826 1.67-3.652 1.67s-1.826-1.67-3.652-1.67M34.435 15.247c-1.826 0-1.826 1.67-3.652 1.67s-1.826-1.67-3.652-1.67v2.921c1.826 0 1.826 1.67 3.652 1.67s1.826-1.67 3.652-1.67 1.826 1.67 3.652 1.67 1.826-1.67 3.652-1.67v-2.921c-1.826 0-1.826 1.67-3.652 1.67s-1.826-1.67-3.652-1.67"/></g><defs><clipPath id="a"><path fill="#fff" d="M0 .012h48v48H0z"/></clipPath></defs></svg>
