<svg xmlns="http://www.w3.org/2000/svg" width="48" height="48" fill="none"><g clip-path="url(#a)"><path fill="#338AF3" d="M24 48c13.255 0 24-10.745 24-24S37.255 0 24 0 0 10.745 0 24s10.745 24 24 24"/><path fill="#F0F0F0" d="m24 10.435 1.036 3.188h3.353l-2.712 1.971 1.035 3.189L24 16.812l-2.712 1.97 1.036-3.188-2.713-1.97h3.353zM10.436 24l3.188-1.036v-3.353l1.97 2.713 3.19-1.036L16.812 24l1.97 2.712-3.188-1.036-1.97 2.713v-3.353zM24 37.565l-1.036-3.188h-3.353l2.713-1.971-1.036-3.189L24 31.187l2.712-1.97-1.036 3.189 2.713 1.97h-3.353zM37.567 24l-3.189 1.036v3.353l-1.97-2.713-3.19 1.036L31.19 24l-1.97-2.712 3.188 1.036 1.971-2.713v3.353z"/></g><defs><clipPath id="a"><path fill="#fff" d="M0 0h48v48H0z"/></clipPath></defs></svg>
