<svg xmlns="http://www.w3.org/2000/svg" width="48" height="49" fill="none"><g clip-path="url(#a)"><path fill="#F0F0F0" d="M24 48.01c13.255 0 24-10.744 24-24 0-13.254-10.745-24-24-24s-24 10.746-24 24c0 13.256 10.745 24 24 24"/><path fill="#0052B4" d="m46.956 24.01.84-3.13a24 24 0 0 0-.623-3.13h-25.26V.102a24 24 0 0 0-3.13.48l-4.175 2.56-2.087-.212a24 24 0 0 0-3.13 2.04v12.78H.826a24 24 0 0 0-.623 3.13l.84 3.13-.84 3.131q.211 1.602.623 3.13h8.565v12.78a24 24 0 0 0 3.13 2.04l3.13-.21 3.131 2.558a24 24 0 0 0 3.13.48V30.272h25.26q.413-1.53.624-3.13z"/><path fill="#D80027" d="M47.797 20.88H18.783V.581a23.8 23.8 0 0 0-6.261 2.348V20.88H.203a24.2 24.2 0 0 0 0 6.261h12.319v17.952a23.8 23.8 0 0 0 6.26 2.347V27.142h29.015a24.2 24.2 0 0 0 0-6.262"/></g><defs><clipPath id="a"><path fill="#fff" d="M0 .01h48v48H0z"/></clipPath></defs></svg>
