<svg xmlns="http://www.w3.org/2000/svg" width="48" height="49" fill="none"><g clip-path="url(#a)"><path fill="#FFDA44" d="M46.507 32.359A24 24 0 0 0 48 24.01c0-2.936-.528-5.748-1.493-8.348L24 13.576 1.493 15.663A24 24 0 0 0 0 24.011c0 2.935.528 5.748 1.493 8.348L24 34.446z"/><path fill="#0052B4" d="M24 48.01c10.32 0 19.117-6.512 22.508-15.651H1.493C4.884 41.498 13.681 48.01 24.001 48.01"/><path fill="#6DA544" d="M24 .01C13.681.01 4.884 6.525 1.493 15.664h45.015C43.117 6.523 34.319.011 24 .011"/></g><defs><clipPath id="a"><path fill="#fff" d="M0 .01h48v48H0z"/></clipPath></defs></svg>
