<svg xmlns="http://www.w3.org/2000/svg" width="48" height="48" fill="none"><g clip-path="url(#a)"><path fill="#F0F0F0" d="M24 48c13.255 0 24-10.745 24-24S37.255 0 24 0 0 10.745 0 24s10.745 24 24 24"/><path fill="#0052B4" d="M4.96 9.388A23.9 23.9 0 0 0 .827 17.74h12.486zM47.173 17.74a23.9 23.9 0 0 0-4.135-8.352l-8.35 8.351zM.826 30.26a23.9 23.9 0 0 0 4.135 8.352l8.35-8.351zM38.61 4.961A23.9 23.9 0 0 0 30.26.827v12.485zM9.389 43.038a23.9 23.9 0 0 0 8.35 4.135V34.688zM17.74.827A23.9 23.9 0 0 0 9.388 4.96l8.35 8.35zM30.26 47.173a23.9 23.9 0 0 0 8.35-4.135l-8.35-8.35zM34.688 30.26l8.35 8.352a23.9 23.9 0 0 0 4.135-8.351z"/><path fill="#D80027" d="M47.797 20.87H27.13V.203a24.2 24.2 0 0 0-6.261 0V20.87H.203a24.2 24.2 0 0 0 0 6.261H20.87v20.667a24.2 24.2 0 0 0 6.261 0V27.13h20.667a24.2 24.2 0 0 0 0-6.261"/><path fill="#D80027" d="m30.262 30.261 10.71 10.71a24 24 0 0 0 1.41-1.541l-9.169-9.169zM17.739 30.261l-10.71 10.71q.74.738 1.541 1.41l9.169-9.169zM17.74 17.74zL7.03 7.029A24 24 0 0 0 5.62 8.57l9.168 9.17zM30.262 17.74l10.71-10.71a24 24 0 0 0-1.541-1.411l-9.17 9.169z"/></g><defs><clipPath id="a"><path fill="#fff" d="M0 0h48v48H0z"/></clipPath></defs></svg>
