<svg xmlns="http://www.w3.org/2000/svg" width="48" height="48" fill="none"><g clip-path="url(#a)"><path fill="#FFDA44" d="M24 48c13.255 0 24-10.745 24-24S37.255 0 24 0 0 10.745 0 24s10.745 24 24 24"/><path fill="#A2001D" d="M10.473 4.174A23.9 23.9 0 0 1 24 0c5.017 0 9.675 1.54 13.526 4.174L24 5.217z"/><path fill="#0052B4" d="m24 24-1.532-1.532-.407.729z"/><path fill="#496E2D" d="M7.03 7.03c-9.373 9.372-9.373 24.568 0 33.94L24 24zM40.97 7.03c9.373 9.372 9.373 24.568 0 33.94L24 24z"/><path fill="#A2001D" d="M24 32.348a8.348 8.348 0 1 0 0-16.696 8.348 8.348 0 0 0 0 16.696"/><path fill="#FFDA44" d="m24 15.652 1.871 5.76h6.057l-4.9 3.56L28.9 30.73 24 27.171l-4.9 3.56 1.872-5.76-4.899-3.56h6.056zM24 0h-.008.016z"/><path fill="#A2001D" d="M24.008 0h-.016A23.92 23.92 0 0 0 7.03 7.028H40.97A23.92 23.92 0 0 0 24.008 0M7.03 40.972A23.93 23.93 0 0 0 24 48a23.93 23.93 0 0 0 16.969-7.028z"/><path fill="#FFDA44" d="m24 2.609.388 1.195h1.257l-1.017.74.389 1.195L23.999 5l-1.017.739.389-1.196-1.017-.739h1.257zM18.18 2.609l.389 1.195h1.257l-1.017.74.388 1.195L18.18 5l-1.017.739.389-1.196-1.018-.739h1.257zM29.82 2.609l.388 1.195h1.257l-1.017.74.389 1.195L29.82 5l-1.018.739.39-1.196-1.018-.739h1.257zM24 42.26l.388 1.197h1.257l-1.017.739.389 1.195-1.018-.739-1.017.74.389-1.196-1.017-.74h1.257zM18.18 42.26l.389 1.197h1.257l-1.017.739.388 1.195-1.017-.739-1.017.74.389-1.196-1.018-.74h1.257zM29.82 42.26l.388 1.196h1.257l-1.017.74.389 1.195-1.017-.739-1.018.74.39-1.197-1.018-.739h1.257zM7.312 23.604a2.087 2.087 0 0 1-3.527 2.232c-1.116-1.763-.469-4.643-.469-4.643s2.88.647 3.996 2.41"/><path fill="#A2001D" d="M6.108 26.645a1.043 1.043 0 1 0 0-2.087 1.043 1.043 0 0 0 0 2.087"/></g><defs><clipPath id="a"><path fill="#fff" d="M0 0h48v48H0z"/></clipPath></defs></svg>
