<svg xmlns="http://www.w3.org/2000/svg" width="48" height="49" fill="none"><g clip-path="url(#a)"><path fill="#F0F0F0" d="M24 48.01c13.255 0 24-10.744 24-24 0-13.254-10.745-24-24-24s-24 10.746-24 24c0 13.256 10.745 24 24 24"/><path fill="#D80027" d="M47.797 20.88H27.13V.214a24.2 24.2 0 0 0-6.261 0V20.88H.203a24.2 24.2 0 0 0 0 6.261H20.87v20.667a24.2 24.2 0 0 0 6.261 0V27.14h20.667a24.2 24.2 0 0 0 0-6.26"/><path fill="#D80027" d="M14.609 11.489v-3.13h-3.13v3.13H8.347v3.13h3.13v3.13h3.13v-3.13h3.131v-3.13zM36.523 11.49V8.358h-3.13v3.13h-3.131v3.13h3.13v3.131h3.13v-3.13h3.131v-3.13zM14.609 33.402v-3.13h-3.13v3.13H8.347v3.13h3.13v3.131h3.13v-3.13h3.131v-3.13zM36.523 33.402v-3.13h-3.13v3.13h-3.131v3.13h3.13v3.131h3.13v-3.13h3.131v-3.13z"/></g><defs><clipPath id="a"><path fill="#fff" d="M0 .01h48v48H0z"/></clipPath></defs></svg>
