<svg xmlns="http://www.w3.org/2000/svg" width="48" height="48" fill="none"><g clip-path="url(#a)"><path fill="#F0F0F0" d="M24 48c13.255 0 24-10.745 24-24S37.255 0 24 0 0 10.745 0 24s10.745 24 24 24"/><path fill="#D80027" d="M47.797 20.87H27.13V.203a24.2 24.2 0 0 0-6.261 0V20.87H.203a24.2 24.2 0 0 0 0 6.26H20.87v20.667a24.2 24.2 0 0 0 6.261 0V27.13h20.667a24.2 24.2 0 0 0 0-6.261"/><path fill="#FFDA44" d="m30.783 25.043 1.565 1.044v-4.174l-1.565 1.044h-5.74v-5.74l1.044-1.565h-4.174l1.044 1.565v5.74h-5.74l-1.565-1.044v4.174l1.566-1.044h5.739v5.74l-1.044 1.565h4.174l-1.043-1.565v-5.74z"/></g><defs><clipPath id="a"><path fill="#fff" d="M0 0h48v48H0z"/></clipPath></defs></svg>
