<svg xmlns="http://www.w3.org/2000/svg" width="48" height="48" fill="none"><g clip-path="url(#a)"><path fill="#FFDA44" d="M0 24c0 2.936.528 5.748 1.493 8.348L24 33.39l22.507-1.043A24 24 0 0 0 48 24c0-2.936-.528-5.748-1.493-8.348L24 14.61 1.493 15.652A24 24 0 0 0 0 24"/><path fill="#D80027" d="M24 0C13.681 0 4.884 6.513 1.493 15.652h45.015C43.117 6.513 34.319 0 24 0"/><path fill="#496E2D" d="M46.508 32.348H1.493C4.884 41.487 13.681 48 24 48s19.117-6.513 22.508-15.652"/><path fill="#000" d="m24 15.652 2.072 6.377h6.706l-5.425 3.942 2.072 6.377L24 28.407l-5.425 3.94 2.072-6.376-5.424-3.942h6.705z"/></g><defs><clipPath id="a"><path fill="#fff" d="M0 0h48v48H0z"/></clipPath></defs></svg>
