<svg xmlns="http://www.w3.org/2000/svg" width="48" height="48" fill="none"><g clip-path="url(#a)"><path fill="#F9F9F9" d="M24 48c13.255 0 24-10.745 24-24S37.255 0 24 0 0 10.745 0 24s10.745 24 24 24"/><path fill="#D80027" d="M24 48c10.32 0 19.117-6.513 22.508-15.652H1.493C4.884 41.487 13.681 48 24.001 48M33.392 19.826v-3.13h1.043v-2.087h-2.087v1.043h-2.086V14.61h-2.087v2.087h1.043v3.13h-2.087v-7.304h1.044v-2.087h-2.087v1.043h-1.044v-1.043h-2.087v1.043h-1.043v-1.043h-2.087v2.087h1.043v7.304h-2.087v-3.13h1.044v-2.087H17.74v1.043h-2.087V14.61h-2.087v2.087h1.043v3.13h-2.086v8.348h22.956v-8.348z"/><path fill="#FFDA44" d="M24 27.13a3.13 3.13 0 0 0-1.043 6.083v4.352h-3.13v4.174h5.217v-8.526A3.131 3.131 0 0 0 24 27.13m0 4.174a1.043 1.043 0 1 1 0-2.087 1.043 1.043 0 0 1 0 2.087"/></g><defs><clipPath id="a"><path fill="#fff" d="M0 0h48v48H0z"/></clipPath></defs></svg>
