<svg xmlns="http://www.w3.org/2000/svg" width="48" height="48" fill="none"><g clip-path="url(#a)"><path fill="#F0F0F0" d="M0 24C0 10.745 10.745 0 24 0s24 10.745 24 24c-1.043 0-24 3.13-24 3.13z"/><path fill="#D80027" d="M48 24c0 13.255-10.745 24-24 24S0 37.255 0 24"/><path fill="#F0F0F0" d="M16.696 35.478c6.34 0 11.478-5.139 11.478-11.478 0-6.34-5.139-11.478-11.478-11.478-6.34 0-11.478 5.139-11.478 11.478 0 6.34 5.139 11.478 11.478 11.478"/><path fill="#D80027" d="M5.218 24c0-6.34 5.139-11.478 11.478-11.478 6.34 0 11.478 5.139 11.478 11.478"/></g><defs><clipPath id="a"><path fill="#fff" d="M0 0h48v48H0z"/></clipPath></defs></svg>
