<svg xmlns="http://www.w3.org/2000/svg" width="48" height="48" fill="none"><g clip-path="url(#a)"><path fill="#F0F0F0" d="M24 48c13.255 0 24-10.745 24-24S37.255 0 24 0 0 10.745 0 24s10.745 24 24 24"/><path fill="#A2001D" d="M24 0C14.08 0 5.564 6.021 1.909 14.609h44.185C42.438 6.02 33.923 0 24.001 0"/><path fill="#496E2D" d="M24 48c9.923 0 18.438-6.021 22.093-14.609H1.908C5.563 41.98 14.078 48 24.001 48"/><path fill="#0052B4" d="M47.173 17.74H.827A24 24 0 0 0 0 24c0 2.166.289 4.265.827 6.26h46.346c.538-1.995.827-4.094.827-6.26s-.289-4.265-.827-6.26"/></g><defs><clipPath id="a"><path fill="#fff" d="M0 0h48v48H0z"/></clipPath></defs></svg>
