<svg xmlns="http://www.w3.org/2000/svg" width="48" height="48" fill="none"><g clip-path="url(#a)"><path fill="#FFDA44" d="M32.349 1.493A24 24 0 0 0 24 0a24 24 0 0 0-8.348 1.493L14.609 24l1.044 22.507C18.253 47.472 21.065 48 24 48c2.936 0 5.749-.528 8.349-1.493L33.392 24z"/><path fill="#D80027" d="M0 24c0 10.319 6.513 19.116 15.652 22.507V1.493C6.513 4.883 0 13.68 0 24"/><path fill="#6DA544" d="M48 24c0-10.32-6.513-19.116-15.652-22.507v45.014C41.487 43.117 48 34.32 48 24"/></g><defs><clipPath id="a"><path fill="#fff" d="M0 0h48v48H0z"/></clipPath></defs></svg>
