<svg xmlns="http://www.w3.org/2000/svg" width="48" height="49" fill="none"><g clip-path="url(#a)"><path fill="#F0F0F0" d="M24 48.01c13.255 0 24-10.744 24-24 0-13.254-10.745-24-24-24s-24 10.746-24 24c0 13.256 10.745 24 24 24"/><path fill="#6DA544" d="M14.609 15.663h31.898C43.117 6.523 34.32.011 24 .011A23.92 23.92 0 0 0 7.03 7.04z"/><path fill="#D80027" d="M14.609 32.359h31.898C43.117 41.498 34.32 48.01 24 48.01a23.92 23.92 0 0 1-16.97-7.03z"/><path fill="#0052B4" d="M7.03 7.04c-9.373 9.373-9.373 24.569 0 33.941L24 24.011z"/><path fill="#DEDDE0" d="M28.174 19.837v5.217c0 3.195 4.174 4.174 4.174 4.174s4.174-.979 4.174-4.174v-5.217z"/><path fill="#786145" d="M31.305 24.115h2.087v3.026h-2.087z"/><path fill="#6DA544" d="M34.435 22.967a2.087 2.087 0 1 0-4.174 0 1.043 1.043 0 0 0 0 2.087h4.174a1.043 1.043 0 1 0 0-2.087"/></g><defs><clipPath id="a"><path fill="#fff" d="M0 .01h48v48H0z"/></clipPath></defs></svg>
