<svg xmlns="http://www.w3.org/2000/svg" width="48" height="48" fill="none"><g clip-path="url(#a)"><path fill="#F0F0F0" d="M24 48c13.255 0 24-10.745 24-24S37.255 0 24 0 0 10.745 0 24s10.745 24 24 24"/><path fill="#338AF3" d="M24 17.74h23.173a23.9 23.9 0 0 0-2.696-6.262H24zM9.06 42.783h29.88a24.1 24.1 0 0 0 5.537-6.261H3.522a24.1 24.1 0 0 0 5.538 6.26M8.348 5.807a24.1 24.1 0 0 0-4.826 5.671h4.826zM24 24v-6.26h-9.391V24H8.348v-6.26H.827A24 24 0 0 0 0 24c0 2.166.289 4.265.827 6.26h46.346c.538-1.995.827-4.094.827-6.26z"/><path fill="#338AF3" d="M24 0c-3.333 0-6.507.68-9.392 1.908v9.57H24v-6.26h14.94A23.9 23.9 0 0 0 24 0"/></g><defs><clipPath id="a"><path fill="#fff" d="M0 0h48v48H0z"/></clipPath></defs></svg>
