<svg xmlns="http://www.w3.org/2000/svg" width="48" height="48" fill="none"><g clip-path="url(#a)"><path fill="#F0F0F0" d="M24 48c13.255 0 24-10.745 24-24S37.255 0 24 0 0 10.745 0 24s10.745 24 24 24"/><path fill="#338AF3" d="M48 24c0-9.515-5.536-17.737-13.565-21.619v43.237C42.465 41.736 48.002 33.515 48.002 24M0 24c0 9.515 5.537 17.737 13.565 21.618V2.381C5.537 6.263 0 14.485 0 24"/><path fill="#ACABB1" d="M30.272 28.058 26.214 24l3.863-3.863-.175-2.04-1.106-1.106L24 21.787l-4.795-4.796-1.106 1.106-.175 2.04L21.787 24l-4.058 4.058 2.213 2.214L24 26.214l4.058 4.058z"/><path fill="#6DA544" d="m29.903 18.097-2.214 2.214a5.217 5.217 0 1 1-7.378 0l-2.214-2.214a8.348 8.348 0 1 0 11.805 0"/></g><defs><clipPath id="a"><path fill="#fff" d="M0 0h48v48H0z"/></clipPath></defs></svg>
