<svg xmlns="http://www.w3.org/2000/svg" width="48" height="48" fill="none"><g clip-path="url(#a)"><path fill="#D80027" d="M10.473 43.826A23.9 23.9 0 0 0 24 48c5.017 0 9.675-1.541 13.526-4.174L24 41.739zM37.527 4.174A23.9 23.9 0 0 0 24 0a23.9 23.9 0 0 0-13.527 4.174L24 6.26z"/><path fill="#0052B4" d="M48 24c0-7.942-4.755-15.917-10.473-19.826H10.473C4.15 8.496 0 15.764 0 24s4.15 15.504 10.473 19.826h27.054C43.85 39.504 48 32.237 48 24"/><path fill="#D80027" d="M22.642 39.15c-.328-.282-8.034-6.98-8.034-15.15S22.314 9.13 22.642 8.85L24 7.686l1.358 1.164c.328.281 8.033 6.98 8.033 15.15s-7.705 14.869-8.033 15.15L24 40.314z"/><path fill="#338AF3" d="M31.304 24c0-7.304-7.304-13.565-7.304-13.565S16.695 16.695 16.695 24c0 2.235.684 4.371 1.633 6.261h11.343c.949-1.89 1.633-4.026 1.633-6.26"/><path fill="#0052B4" d="M31.304 24c0 2.235-.684 4.371-1.633 6.26L24 31.305l-5.672-1.043c-.949-1.89-1.633-4.026-1.633-6.261z"/><path fill="#FFDA44" d="M24 37.565s3.519-3.016 5.672-7.304H18.329C20.482 34.549 24 37.565 24 37.565"/><path fill="#6DA544" d="M19.305 19.826h9.391L24 24.522z"/><path fill="#A2001D" d="M22.435 22.957h3.13v9.39h-3.13z"/></g><defs><clipPath id="a"><path fill="#fff" d="M0 0h48v48H0z"/></clipPath></defs></svg>
