<svg xmlns="http://www.w3.org/2000/svg" width="48" height="48" fill="none"><g clip-path="url(#a)"><path fill="#F0F0F0" d="M24 48c13.255 0 24-10.745 24-24S37.255 0 24 0 0 10.745 0 24s10.745 24 24 24"/><path fill="#6DA544" d="M24 0a23.9 23.9 0 0 0-11.686 3.035v41.93A23.9 23.9 0 0 0 24 48c13.255 0 24-10.745 24-24S37.255 0 24 0"/><path fill="#F0F0F0" d="M12.384 2.995A24 24 0 0 0 8.57 5.62L26.951 24 8.571 42.381a24.3 24.3 0 0 1 3.813 2.624L48 24z"/><path fill="#FFDA44" d="M10.357 4.255A24 24 0 0 0 8.252 5.89L24 24 8.252 42.11q1.006.875 2.105 1.636L43.892 24z"/><path fill="#000" d="M8.57 5.619q-.8.672-1.54 1.41L21.912 24 7.029 40.97a24 24 0 0 0 1.541 1.411L26.951 24z"/><path fill="#D80027" d="M7.03 7.03c-9.373 9.372-9.373 24.568 0 33.94L24 24z"/></g><defs><clipPath id="a"><path fill="#fff" d="M0 0h48v48H0z"/></clipPath></defs></svg>
