<svg xmlns="http://www.w3.org/2000/svg" width="48" height="48" fill="none"><g clip-path="url(#a)"><path fill="#D80027" d="M24 48c13.255 0 24-10.745 24-24S37.255 0 24 0 0 10.745 0 24s10.745 24 24 24"/><path fill="#F0F0F0" d="M26.478 18.156c-.546 2.269-1.515 1.836-1.99 3.815a5.218 5.218 0 0 1 2.438-10.146c-.95 3.957.04 4.302-.448 6.331M19.208 19.837c1.989 1.22 1.278 2.008 3.013 3.072a5.218 5.218 0 0 1-8.896-5.455c3.47 2.127 4.104 1.292 5.883 2.383M18.56 27.271c1.775-1.515 2.304-.595 3.852-1.916a5.217 5.217 0 0 1-7.936 6.774c3.095-2.642 2.496-3.503 4.084-4.858M25.43 30.184c-.892-2.156.146-2.376-.632-4.256a5.218 5.218 0 0 1 3.99 9.642c-1.556-3.76-2.56-3.458-3.358-5.386M30.324 24.55c-2.327.183-2.215-.872-4.243-.713a5.218 5.218 0 0 1 10.403-.816c-4.058.318-4.08 1.367-6.16 1.53"/></g><defs><clipPath id="a"><path fill="#fff" d="M0 0h48v48H0z"/></clipPath></defs></svg>
