<svg xmlns="http://www.w3.org/2000/svg" width="48" height="48" fill="none"><g clip-path="url(#a)"><path fill="#F0F0F0" d="M24 48c13.255 0 24-10.745 24-24S37.255 0 24 0 0 10.745 0 24s10.745 24 24 24"/><path fill="#338AF3" d="M24 48c9.515 0 17.737-5.537 21.619-13.565H2.382C6.264 42.463 14.485 48 24 48M24 0C14.485 0 6.264 5.537 2.382 13.565h43.237C41.737 5.537 33.515 0 24 0M14.77 15.652l.777 2.392h2.514l-2.034 1.478.777 2.391-2.034-1.478-2.034 1.478.777-2.391-2.034-1.478h2.514zM14.77 26.087l.777 2.392h2.514l-2.034 1.477.777 2.392-2.034-1.478-2.034 1.478.777-2.392-2.034-1.477h2.514zM33.231 15.652l.777 2.392h2.515l-2.035 1.477.777 2.392-2.034-1.478-2.034 1.478.777-2.392-2.035-1.477h2.515zM33.231 26.087l.777 2.392h2.515l-2.035 1.477.777 2.392-2.034-1.478-2.034 1.478.777-2.392-2.035-1.477h2.515zM24 20.87l.778 2.391h2.514l-2.034 1.478.777 2.391L24 25.653l-2.034 1.477.777-2.39-2.034-1.479h2.515z"/></g><defs><clipPath id="a"><path fill="#fff" d="M0 0h48v48H0z"/></clipPath></defs></svg>
