<svg xmlns="http://www.w3.org/2000/svg" width="48" height="48" fill="none"><g clip-path="url(#a)"><path fill="#F0F0F0" d="M48 24c0-2.936-.528-5.748-1.493-8.348L24 14.61 1.493 15.652A24 24 0 0 0 0 24c0 2.936.528 5.748 1.493 8.348L24 33.39l22.507-1.043A24 24 0 0 0 48 24"/><path fill="#0052B4" d="M24 48c10.319 0 19.116-6.513 22.507-15.652H1.492C4.883 41.488 13.68 48 24 48"/><path fill="#D80027" d="M1.492 15.652h45.015C43.116 6.513 34.319 0 23.999 0S4.883 6.513 1.492 15.652"/><path fill="#338AF3" d="M30.262 16.696h-4.174l.696-5.218 2.782-2.087 2.783 2.087v4.174zM17.74 16.696h4.173l-.696-5.218-2.782-2.087-2.783 2.087v4.174z"/><path fill="#0052B4" d="M26.782 16.696h-5.565v-5.218L24 9.391l2.782 2.087z"/><path fill="#F0F0F0" d="M15.652 15.652v11.479a8.34 8.34 0 0 0 3.357 6.687l1.46-.366 1.844 1.855a8.4 8.4 0 0 0 3.365.002l2.105-1.752 1.208.258a8.34 8.34 0 0 0 3.357-6.684V15.652z"/><path fill="#D80027" d="M15.652 15.652h3.34v3.34h-3.34zM22.33 15.652h3.34v3.34h-3.34zM29.01 15.652h3.339v3.34h-3.34z"/><path fill="#D80027" d="M18.992 18.991h3.34v3.34h-3.34zM25.67 18.991h3.339v3.34h-3.34zM15.652 22.33h3.34v3.339h-3.34zM18.992 25.669h3.34v3.339h-3.34z"/><path fill="#D80027" d="M22.33 22.33h3.34v3.339h-3.34zM29.01 22.33h3.339v3.339h-3.34zM25.67 25.669h3.339v3.339h-3.34zM22.33 29.008h3.34v3.339h-3.34zM18.99 29.008h-3.123a8.3 8.3 0 0 0 1.622 3.339h1.502zM29.01 32.347h1.501a8.3 8.3 0 0 0 1.622-3.34H29.01zM18.992 32.347v1.457a8.3 8.3 0 0 0 3.34 1.506v-2.963zM25.67 32.347v2.963a8.3 8.3 0 0 0 3.339-1.506v-1.457z"/></g><defs><clipPath id="a"><path fill="#fff" d="M0 0h48v48H0z"/></clipPath></defs></svg>
