<svg xmlns="http://www.w3.org/2000/svg" width="48" height="48" fill="none"><g clip-path="url(#a)"><path fill="#A2001D" d="M48 24c0 13.255-10.745 24-24 24S0 37.255 0 24 24 0 24 0s24 10.745 24 24"/><path fill="#0052B4" d="M0 24C0 10.745 10.745 0 24 0s24 10.745 24 24"/><path fill="#F0F0F0" d="M32.348 30.26 24 29.218l-8.348 1.044V17.739h16.696z"/><path fill="#0052B4" d="M24 29.217a4.174 4.174 0 1 0 0-8.348 4.174 4.174 0 0 0 0 8.348"/><path fill="#A2001D" d="M24 27.13a2.087 2.087 0 1 0 0-4.173 2.087 2.087 0 0 0 0 4.173"/><path fill="#6DA544" d="M20.87 19.826h6.26L24 22.956z"/><path fill="#FFDA44" d="M22.957 21.913h2.087v6.261h-2.087z"/><path fill="#6DA544" d="M27.34 27.548h-6.68l-5.008 2.713h16.696z"/></g><defs><clipPath id="a"><path fill="#fff" d="M0 0h48v48H0z"/></clipPath></defs></svg>
