<svg xmlns="http://www.w3.org/2000/svg" width="48" height="48" fill="none"><g clip-path="url(#a)"><path fill="#F0F0F0" d="M24 48c13.255 0 24-10.745 24-24S37.255 0 24 0 0 10.745 0 24s10.745 24 24 24"/><path fill="#0052B4" d="M33.037 18.783h-6.025L24 13.565l-3.012 5.218h-6.025L17.976 24l-3.013 5.217h6.025L24 34.435l3.012-5.218h6.025L30.024 24zM27.7 24l-1.85 3.205H22.15L20.299 24l1.85-3.205h3.701zM24 17.59l.688 1.193h-1.377zm-5.552 3.205h1.378l-.689 1.193zm0 6.41.69-1.193.688 1.193zM24 30.41l-.689-1.193h1.377zm5.551-3.205h-1.377l.689-1.193zm-1.377-6.41h1.377l-.689 1.193zM38.94 5.217H9.06a24.1 24.1 0 0 0-5.538 6.261h40.955a24.1 24.1 0 0 0-5.537-6.26M9.06 42.783h29.88a24.1 24.1 0 0 0 5.537-6.261H3.522a24.1 24.1 0 0 0 5.538 6.26"/></g><defs><clipPath id="a"><path fill="#fff" d="M0 0h48v48H0z"/></clipPath></defs></svg>
