<svg xmlns="http://www.w3.org/2000/svg" width="48" height="48" fill="none"><g clip-path="url(#a)"><path fill="#D80027" d="M24 48c13.255 0 24-10.745 24-24S37.255 0 24 0 0 10.745 0 24s10.745 24 24 24"/><path fill="#F0F0F0" d="m32.886 16.089-1.696 6.053-5.09-.94-3.276-6.753-8.85 3.14-.698-1.966-2.316-.285 1.745 4.917 6.09-1.558 1.731 4.878-4.21 6.214 7.145 6.094-1.354 1.588.91 2.148 3.387-3.97-4.395-4.496 3.36-3.937 7.486.539 1.705-9.235 2.052.379 1.405-1.863z"/></g><defs><clipPath id="a"><path fill="#fff" d="M0 0h48v48H0z"/></clipPath></defs></svg>
