<svg xmlns="http://www.w3.org/2000/svg" width="48" height="48" fill="none"><g clip-path="url(#a)"><path fill="#F0F0F0" d="M24 48c13.255 0 24-10.745 24-24S37.255 0 24 0 0 10.745 0 24s10.745 24 24 24"/><path fill="#FF9811" d="M24 0C14.483 0 6.262 5.537 2.38 13.565h43.238C41.736 5.537 33.514 0 23.999 0"/><path fill="#6DA544" d="M24 48c9.514 0 17.736-5.537 21.618-13.565H2.381C6.263 42.463 14.484 48 23.999 48"/><path fill="#0052B4" d="M24 32.348a8.348 8.348 0 1 0 0-16.696 8.348 8.348 0 0 0 0 16.696"/><path fill="#F0F0F0" d="M24 29.218a5.217 5.217 0 1 0 0-10.435 5.217 5.217 0 0 0 0 10.435"/><path fill="#0052B4" d="m24 17.562 1.609 3.65 3.966-.431L27.218 24l2.357 3.219-3.966-.431-1.61 3.65-1.61-3.65-3.965.431L20.78 24l-2.356-3.22 3.966.432z"/></g><defs><clipPath id="a"><path fill="#fff" d="M0 0h48v48H0z"/></clipPath></defs></svg>
