<svg xmlns="http://www.w3.org/2000/svg" width="48" height="48" fill="none"><g clip-path="url(#a)"><path fill="#F0F0F0" d="M24 48c13.255 0 24-10.745 24-24S37.255 0 24 0 0 10.745 0 24s10.745 24 24 24"/><path fill="#A2001D" d="M24 0C13.681 0 4.884 6.513 1.493 15.652h45.015C43.117 6.513 34.319 0 24 0"/><path fill="#000" d="M24 48c10.32 0 19.117-6.513 22.508-15.652H1.493C4.884 41.488 13.681 48 24 48"/><path fill="#496E2D" d="M18.26 22.435h-4.626a2.09 2.09 0 0 1 2.018-1.565v-3.13a5.223 5.223 0 0 0-5.217 5.217v2.608h7.826c.288 0 .521.234.521.522v1.043H8.349v3.13h13.565v-4.173a3.656 3.656 0 0 0-3.652-3.652M26.087 27.13v-9.39h-3.13v12.52h5.216v-3.13zM36.521 27.13v-9.39h-3.13v9.39h-1.044V24h-3.13v6.261h9.391v-3.13z"/></g><defs><clipPath id="a"><path fill="#fff" d="M0 0h48v48H0z"/></clipPath></defs></svg>
