<svg xmlns="http://www.w3.org/2000/svg" width="48" height="48" fill="none"><g clip-path="url(#a)"><path fill="#F0F0F0" d="M24 48c13.255 0 24-10.745 24-24S37.255 0 24 0 0 10.745 0 24s10.745 24 24 24"/><path fill="#D80027" d="M31.795 17.74h-3.14q.04.516.04 1.043c0 2.321-.58 4.572-1.591 6.173-.312.494-.837 1.192-1.539 1.663v-8.88h-3.13v8.88c-.702-.471-1.227-1.169-1.539-1.663-1.012-1.601-1.592-3.852-1.592-6.174q.001-.525.041-1.043h-3.14q-.03.515-.031 1.043c0 6.437 3.438 11.479 7.826 11.479s7.826-5.042 7.826-11.478q0-.529-.03-1.044"/><path fill="#6DA544" d="M9.912 11.478h3.13v2.087h3.131v-2.087h3.13v2.087h3.131v-2.087h3.13v2.087h3.13v-2.087h3.131v2.087h3.13v-2.087h3.131v2.087h7.532C41.736 5.537 33.514 0 23.999 0 14.485 0 6.263 5.537 2.381 13.565h7.531z"/><path fill="#D80027" d="M38.086 34.435v2.087h-3.13v-2.087h-3.13v2.087h-3.13v-2.087h-3.131v2.087h-3.13v-2.087h-3.131v2.087h-3.13v-2.087h-3.131v2.087h-3.13v-2.087H2.38C6.263 42.463 14.484 48 23.999 48c9.516 0 17.737-5.537 21.619-13.565z"/></g><defs><clipPath id="a"><path fill="#fff" d="M0 0h48v48H0z"/></clipPath></defs></svg>
