<svg xmlns="http://www.w3.org/2000/svg" width="48" height="48" fill="none"><g clip-path="url(#a)"><path fill="#F0F0F0" d="M24 48c13.255 0 24-10.745 24-24S37.255 0 24 0 0 10.745 0 24s10.745 24 24 24"/><path fill="#D80027" d="M43.04 38.613 28.427 24 43.04 9.387a24.3 24.3 0 0 0-4.427-4.428L24 19.573 9.385 4.959A24.2 24.2 0 0 0 4.96 9.387L19.572 24 4.96 38.613a24.3 24.3 0 0 0 4.427 4.427l14.613-14.613L38.614 43.04a24.2 24.2 0 0 0 4.427-4.427"/><path fill="#FFDA44" d="M19.826 7.304 24 8.348l4.174-1.044V3.757l-1.67.834L24 2.087 21.496 4.59l-1.67-.834z"/><path fill="#D80027" d="M19.826 7.304v2.61c0 3.194 4.174 4.173 4.174 4.173s4.174-.979 4.174-4.174V7.304z"/></g><defs><clipPath id="a"><path fill="#fff" d="M0 0h48v48H0z"/></clipPath></defs></svg>
