<svg xmlns="http://www.w3.org/2000/svg" width="48" height="48" fill="none"><g clip-path="url(#a)"><path fill="#FFDA44" d="M24 48c13.255 0 24-10.745 24-24S37.255 0 24 0 0 10.745 0 24s10.745 24 24 24"/><path fill="#6DA544" d="M38.612 4.961A23.9 23.9 0 0 0 24 0 23.9 23.9 0 0 0 9.39 4.961L24 19.573z"/><path fill="#000" d="M4.961 9.389A23.9 23.9 0 0 0 0 24C0 29.5 1.85 34.565 4.961 38.612L19.573 24z"/><path fill="#6DA544" d="M9.389 43.039A23.9 23.9 0 0 0 24 48c5.5 0 10.565-1.85 14.612-4.961L24 28.427z"/><path fill="#000" d="M43.04 38.611A23.9 23.9 0 0 0 48 24c0-5.499-1.85-10.565-4.96-14.612L28.427 24z"/></g><defs><clipPath id="a"><path fill="#fff" d="M0 0h48v48H0z"/></clipPath></defs></svg>
