<svg xmlns="http://www.w3.org/2000/svg" width="48" height="48" fill="none"><g clip-path="url(#a)"><path fill="#F0F0F0" d="M24 48c13.255 0 24-10.745 24-24S37.255 0 24 0 0 10.745 0 24s10.745 24 24 24"/><path fill="#000" d="M14.608 15.652h31.898C43.116 6.513 34.318 0 24 0A23.92 23.92 0 0 0 7.03 7.03z"/><path fill="#6DA544" d="M14.608 32.348h31.898C43.116 41.488 34.318 48 24 48a23.92 23.92 0 0 1-16.97-7.03z"/><path fill="#D80027" d="M7.03 7.03c-9.373 9.372-9.373 24.568 0 33.94L24 24z"/><path fill="#F0F0F0" d="m9.525 18.783 1.317 2.754 2.975-.688-1.332 2.747 2.392 1.897-2.978.672.008 3.052-2.382-1.91-2.381 1.91.008-3.052-2.978-.672 2.392-1.897-1.332-2.747 2.974.688z"/></g><defs><clipPath id="a"><path fill="#fff" d="M0 0h48v48H0z"/></clipPath></defs></svg>
