<svg xmlns="http://www.w3.org/2000/svg" width="48" height="48" fill="none"><g clip-path="url(#a)"><path fill="#F0F0F0" d="M24 48c13.255 0 24-10.745 24-24S37.255 0 24 0 0 10.745 0 24s10.745 24 24 24"/><path fill="#000" d="M24 0C14.485 0 6.264 5.537 2.382 13.565h43.237C41.737 5.537 33.515 0 24 0"/><path fill="#496E2D" d="M24 48c-9.515 0-17.736-5.537-21.618-13.565h43.237C41.737 42.463 33.515 48 24 48"/><path fill="#A2001D" d="M46.867 16.696H1.133A24 24 0 0 0 0 24c0 2.547.398 5.001 1.133 7.304h45.734A24 24 0 0 0 48 24c0-2.547-.398-5.001-1.133-7.304"/><path fill="#F0F0F0" d="M31.473 11.09 28.63 9.78 24 20.265 19.369 9.779l-2.843 1.312L22.276 24l-5.75 12.91 2.843 1.311 4.63-10.486 4.632 10.486 2.842-1.312L25.723 24z"/><path fill="#F0F0F0" d="M25.93 12.327c-1.1-1.202-1.93-1.892-1.93-1.892s-.83.69-1.93 1.892v23.346c1.1 1.201 1.93 1.892 1.93 1.892s.83-.69 1.93-1.892z"/><path fill="#A2001D" d="M18.782 16.804v14.392c1.163 2.06 2.586 3.749 3.652 4.868V11.936c-1.066 1.12-2.49 2.808-3.652 4.868M29.217 16.804c-1.163-2.06-2.586-3.749-3.652-4.868v24.128c1.066-1.12 2.489-2.808 3.652-4.868z"/><path fill="#000" d="M29.218 16.804v14.392c1.177-2.086 2.087-4.553 2.087-7.196s-.91-5.11-2.087-7.196M18.782 16.804v14.392c-1.177-2.086-2.087-4.553-2.087-7.196s.91-5.11 2.087-7.196"/></g><defs><clipPath id="a"><path fill="#fff" d="M0 0h48v48H0z"/></clipPath></defs></svg>
