<svg xmlns="http://www.w3.org/2000/svg" width="48" height="48" fill="none"><g clip-path="url(#a)"><path fill="#D80027" d="M24 48c13.255 0 24-10.745 24-24S37.255 0 24 0 0 10.745 0 24s10.745 24 24 24"/><path fill="#FFDA44" d="m35.737 24-4.796 2.256 2.554 4.645-5.208-.997-.66 5.261L24 31.296l-3.628 3.87-.66-5.262-5.207.997 2.554-4.645L12.263 24l4.796-2.256-2.554-4.645 5.207.997.66-5.261L24 16.704l3.628-3.87.66 5.262 5.207-.997-2.554 4.645z"/><path fill="#D80027" d="M24 31.304a7.304 7.304 0 1 0 0-14.608 7.304 7.304 0 0 0 0 14.608"/><path fill="#FFDA44" d="M20.347 24q-.265.001-.52.026a4.16 4.16 0 0 0 .976 2.657 7.3 7.3 0 0 1 1.411-2.336A5.2 5.2 0 0 0 20.347 24M22.596 27.931a4.17 4.17 0 0 0 2.808 0A5.2 5.2 0 0 0 24 25.496a5.2 5.2 0 0 0-1.404 2.435M27.614 21.914a4.171 4.171 0 0 0-7.23 0 7.26 7.26 0 0 1 3.615.982 7.26 7.26 0 0 1 3.615-.982M25.785 24.347a7.3 7.3 0 0 1 1.411 2.336c.605-.72.97-1.645.977-2.657a5.2 5.2 0 0 0-2.388.32"/></g><defs><clipPath id="a"><path fill="#fff" d="M0 0h48v48H0z"/></clipPath></defs></svg>
