<svg xmlns="http://www.w3.org/2000/svg" width="48" height="48" fill="none"><g clip-path="url(#a)"><path fill="#D80027" d="M0 24c0 4.158 1.058 8.069 2.918 11.478L24 37.565l21.082-2.087A23.9 23.9 0 0 0 48 24c0-4.158-1.058-8.068-2.918-11.478L24 10.435 2.918 12.522A23.9 23.9 0 0 0 0 24"/><path fill="#0052B4" d="M2.918 12.522h42.164C41.012 5.062 33.097 0 24 0S6.989 5.061 2.918 12.522M24 48c9.097 0 17.011-5.062 21.082-12.522H2.918C6.988 42.938 14.903 48 24 48"/><path fill="#F0F0F0" d="M32.348 28.696v-3.13h-2.087V21.39l-2.087-2.087-2.087 2.087v-4.174L24 15.13l-2.087 2.087v4.174l-2.087-2.087-2.087 2.087v4.174h-2.087v3.13h-2.087v3.131h20.87v-3.13z"/></g><defs><clipPath id="a"><path fill="#fff" d="M0 0h48v48H0z"/></clipPath></defs></svg>
