<svg xmlns="http://www.w3.org/2000/svg" width="48" height="48" fill="none"><g clip-path="url(#a)"><path fill="#D80027" d="M0 24C0 10.745 10.745 0 24 0s24 10.745 24 24"/><path fill="#FFDA44" d="m32.348 22.32-3.411 1.604 1.816 3.304-3.704-.709-.469 3.742L24 27.509l-2.58 2.752-.47-3.742-3.703.709 1.816-3.304-3.41-1.604 3.41-1.605-1.816-3.303 3.704.708.47-3.741L24 17.13l2.58-2.752.468 3.741 3.704-.708-1.816 3.303zM30.261 7.826h-4.696a1.565 1.565 0 0 0-3.13 0h-4.696c0 .864.753 1.565 1.618 1.565h-.053c0 .865.701 1.566 1.566 1.566 0 .864.7 1.565 1.565 1.565h3.13c.865 0 1.566-.7 1.566-1.565.864 0 1.565-.701 1.565-1.566h-.052c.864 0 1.617-.7 1.617-1.565"/><path fill="#F0F0F0" d="M48 24c0 13.255-10.745 24-24 24S0 37.255 0 24z"/><path fill="#0052B4" d="M24 48c7.502 0 14.199-3.443 18.6-8.834-.792-.54-1.219-1.412-2.6-1.412-2 0-2 1.829-4 1.829s-2-1.829-4-1.829-2 1.829-4 1.829-2-1.829-4-1.829-2 1.829-4 1.829-2-1.829-4-1.829-2 1.829-4 1.829-2-1.829-4-1.829c-1.382 0-1.81.872-2.6 1.412C9.8 44.557 16.497 48 24 48M44 27.061c-2 0-2-1.829-4-1.829s-2 1.829-4 1.829-2-1.829-4-1.829-2 1.829-4 1.829-2-1.829-4-1.829-2 1.829-4 1.829-2-1.829-4-1.829-2 1.829-4 1.829-2-1.829-4-1.829-2 1.829-4 1.829c-1.99 0-2-1.808-3.969-1.828q.086 1.648.385 3.23C2.01 28.697 2.15 30.26 4 30.26c2 0 2-1.828 4-1.828s2 1.828 4 1.828 2-1.828 4-1.828 2 1.828 4 1.828 2-1.828 4-1.828 2 1.828 4 1.828 2-1.828 4-1.828 2 1.828 4 1.828 2-1.828 4-1.828 2 1.828 4 1.828c1.85 0 1.99-1.564 3.584-1.798.198-1.054.33-2.132.385-3.23-1.968.02-1.98 1.828-3.97 1.828M40 31.493c-2 0-2 1.829-4 1.829s-2-1.829-4-1.829-2 1.829-4 1.829-2-1.829-4-1.829-2 1.829-4 1.829-2-1.829-4-1.829-2 1.829-4 1.829-2-1.829-4-1.829-2 1.829-4 1.829c-1.43 0-1.837-.934-2.684-1.467a24 24 0 0 0 2.179 4.623q.228.043.505.044c2 0 2-1.829 4-1.829s2 1.829 4 1.829 2-1.829 4-1.829 2 1.829 4 1.829 2-1.829 4-1.829 2 1.829 4 1.829 2-1.829 4-1.829 2 1.829 4 1.829 2-1.829 4-1.829 2 1.829 4 1.829q.275-.001.505-.044a24 24 0 0 0 2.178-4.623c-.846.533-1.254 1.467-2.683 1.467-2 0-2-1.829-4-1.829"/><path fill="#F0F0F0" d="M47.926 22.104C46 22.149 45.974 23.93 44 23.93c-2 0-2-1.828-4-1.828s-2 1.828-4 1.828-2-1.828-4-1.828-2 1.828-4 1.828-2-1.828-4-1.828-2 1.828-4 1.828-2-1.828-4-1.828-2 1.828-4 1.828-2-1.828-4-1.828-2 1.828-4 1.828c-1.974 0-2.001-1.78-3.926-1.826a24 24 0 0 0-.038 3.199C1.999 25.325 2.012 27.13 4 27.13c2 0 2-1.828 4-1.828s2 1.828 4 1.828 2-1.828 4-1.828 2 1.828 4 1.828 2-1.828 4-1.828 2 1.828 4 1.828 2-1.828 4-1.828 2 1.828 4 1.828 2-1.828 4-1.828 2 1.828 4 1.828c1.988 0 2-1.805 3.965-1.827a24.5 24.5 0 0 0-.04-3.2"/></g><defs><clipPath id="a"><path fill="#fff" d="M0 0h48v48H0z"/></clipPath></defs></svg>
