<svg xmlns="http://www.w3.org/2000/svg" width="48" height="48" fill="none"><g clip-path="url(#a)"><path fill="#F0F0F0" d="M24 48c13.255 0 24-10.745 24-24S37.255 0 24 0 0 10.745 0 24s10.745 24 24 24"/><path fill="#D80027" d="M47.999 23.93H21.982c-5.165 5.166-8.289 9.154-11.478 12.343l13.565 1.223 21.05-2.087A23.9 23.9 0 0 0 48 23.999z"/><path fill="#FFDA44" d="M10.505 12.452h34.538C40.961 5.03 33.07 0 24 0A23.92 23.92 0 0 0 7.065 6.996z"/><path fill="#0052B4" d="M11.548 35.409c-2.158 2.157-2.992 3.965-4.553 5.526A23.92 23.92 0 0 0 24 48c9.125 0 17.06-5.093 21.12-12.591z"/><path fill="#6DA544" d="M7.03 6.96c-9.373 9.372-9.373 24.569 0 33.941L24 23.931z"/><path fill="#F0F0F0" d="M6.33 23.93a7.306 7.306 0 0 1 5.74-7.134 7.304 7.304 0 1 0 0 14.269 7.306 7.306 0 0 1-5.74-7.135"/><path fill="#F0F0F0" d="m11.99 17.67.388 1.195h1.257l-1.017.74.389 1.195-1.018-.739-1.017.739.389-1.196-1.017-.739H11.6zM11.99 20.8l.388 1.196h1.257l-1.017.739.389 1.195-1.018-.738-1.017.738.389-1.195-1.017-.74H11.6z"/><path fill="#F0F0F0" d="m11.99 23.93.388 1.196h1.257l-1.017.74.389 1.195-1.018-.739-1.017.739.389-1.196-1.017-.739H11.6zM11.99 27.061l.388 1.196h1.257l-1.017.739.389 1.195-1.018-.739-1.017.74.389-1.196-1.017-.74H11.6z"/></g><defs><clipPath id="a"><path fill="#fff" d="M0 0h48v48H0z"/></clipPath></defs></svg>
