<svg xmlns="http://www.w3.org/2000/svg" width="48" height="48" fill="none"><path fill="#000" d="M24 48c13.255 0 24-10.745 24-24S37.255 0 24 0 0 10.745 0 24s10.745 24 24 24"/><mask id="a" width="48" height="48" x="0" y="0" maskUnits="userSpaceOnUse" style="mask-type:alpha"><path fill="#000" d="M24 48c13.255 0 24-10.745 24-24S37.255 0 24 0 0 10.745 0 24s10.745 24 24 24"/></mask><g mask="url(#a)"><path fill="#6DA544" d="M-12 48V0h72z"/><path fill="#D80027" d="M60 0v48h-72z"/><path fill="#FFDA44" fill-rule="evenodd" d="M71.515 6.163-10.74 61l-12.776-19.163L58.74-13z" clip-rule="evenodd"/><path fill="#000" fill-rule="evenodd" d="m63.994 5.99-72 48-7.988-11.98 72-48z" clip-rule="evenodd"/><path fill="#fff" d="m9.015 27.062 8.726 6.893-11.111-.447 9.252-6.17-3.86 10.43zM33.107 11l8.726 6.894-11.111-.448 9.252-6.169-3.86 10.43z"/></g></svg>
