<svg xmlns="http://www.w3.org/2000/svg" width="48" height="48" fill="none"><g clip-path="url(#a)"><path fill="#F0F0F0" d="M24 48c13.255 0 24-10.745 24-24S37.255 0 24 0 0 10.745 0 24s10.745 24 24 24"/><path fill="#0052B4" d="M24 0C16.726 0 10.208 3.237 5.807 8.348h36.386C37.792 3.237 31.274 0 24 0M42.193 39.652H5.807C10.207 44.763 16.726 48 24 48s13.792-3.237 18.193-8.348"/><path fill="#D80027" d="M44.477 11.478H3.523A23.9 23.9 0 0 0 0 24c0 4.589 1.289 8.876 3.523 12.522h40.954A23.9 23.9 0 0 0 48 24c0-4.589-1.289-8.876-3.523-12.522"/><path fill="#F0F0F0" d="M14.766 33.235a9.235 9.235 0 1 0 0-18.47 9.235 9.235 0 0 0 0 18.47"/><path fill="#D80027" d="m14.766 14.765 2.071 6.377h6.717l-5.436 3.942 2.089 6.396-5.441-3.96-5.433 3.952 2.08-6.389-5.43-3.94h6.71z"/></g><defs><clipPath id="a"><path fill="#fff" d="M0 0h48v48H0z"/></clipPath></defs></svg>
