<svg xmlns="http://www.w3.org/2000/svg" width="48" height="49" fill="none"><g clip-path="url(#a)"><path fill="#F0F0F0" d="M24 48.01c13.255 0 24-10.745 24-24s-10.745-24-24-24-24 10.745-24 24 10.745 24 24 24"/><path fill="#D80027" d="M32.348 24.01c0 2.087-3.738 7.304-8.348 7.304s-8.348-5.217-8.348-7.304a8.348 8.348 0 1 1 16.696 0"/><path fill="#0052B4" d="M32.348 24.01a8.348 8.348 0 1 1-16.696 0"/><path fill="#000" d="m32.848 31.389 2.213-2.214 1.475 1.476-2.213 2.213zM29.158 35.077l2.213-2.213 1.476 1.476-2.213 2.213zM37.273 35.815l2.214-2.213 1.475 1.475-2.213 2.213zM33.584 39.504l2.213-2.213 1.476 1.475-2.214 2.214zM35.06 33.602l2.214-2.213 1.475 1.475-2.213 2.213zM31.373 37.29l2.213-2.212 1.476 1.475-2.213 2.213zM37.283 16.635l-5.902-5.902 1.476-1.475 5.902 5.902zM31.38 15.16l-2.212-2.213 1.475-1.475 2.213 2.213zM35.07 18.85l-2.213-2.214 1.476-1.475 2.213 2.213zM35.807 10.733 33.593 8.52l1.476-1.476 2.213 2.213zM39.498 14.423l-2.213-2.213 1.475-1.476 2.214 2.213zM8.508 33.598l5.902 5.901-1.476 1.476-5.902-5.902zM14.41 35.072l2.213 2.213-1.475 1.476-2.213-2.214zM10.72 31.384l2.214 2.213-1.476 1.476-2.213-2.213zM12.934 29.17l5.902 5.902-1.476 1.475-5.902-5.901zM14.41 8.515l-5.902 5.902-1.475-1.476 5.902-5.901zM16.623 10.728l-5.902 5.902-1.475-1.476 5.902-5.901zM18.838 12.943l-5.902 5.902-1.475-1.476 5.902-5.902z"/></g><defs><clipPath id="a"><path fill="#fff" d="M0 .01h48v48H0z"/></clipPath></defs></svg>
