<svg xmlns="http://www.w3.org/2000/svg" width="48" height="48" fill="none"><g clip-path="url(#a)"><path fill="#F0F0F0" d="M46.507 32.348A24 24 0 0 0 48 24c0-2.936-.528-5.748-1.493-8.348L24 13.565 1.493 15.652A24 24 0 0 0 0 24c0 2.936.528 5.748 1.493 8.348L24 34.435z"/><path fill="#D80027" d="M24 48c10.32 0 19.117-6.513 22.508-15.652H1.493C4.884 41.488 13.681 48 24.001 48"/><path fill="#6DA544" d="M24 0C13.681 0 4.884 6.513 1.493 15.652h45.015C43.117 6.513 34.319 0 24 0"/><path fill="#000" d="M7.03 7.03c-9.373 9.372-9.373 24.568 0 33.94l8.622-8.622V15.652z"/></g><defs><clipPath id="a"><path fill="#fff" d="M0 0h48v48H0z"/></clipPath></defs></svg>
