<svg xmlns="http://www.w3.org/2000/svg" width="48" height="48" fill="none"><g clip-path="url(#a)"><path fill="#0052B4" d="M48 24c0 13.255-10.745 24-24 24S0 37.255 0 24C0 24.006 24 .003 24 0c13.255 0 24 10.745 24 24"/><path fill="#F0F0F0" d="M23.936 24H24v-.064z"/><path fill="#F0F0F0" d="M24 12.522V0h-.004C10.743.002 0 10.747 0 24h12.522v-7.051L19.572 24h4.364l.064-.064v-4.363l-7.051-7.051z"/><path fill="#6DA544" d="M34.436 17.74a4.174 4.174 0 1 0 0-8.349 4.174 4.174 0 0 0 0 8.348"/><path fill="#D80027" d="M12.143 3.13a24.1 24.1 0 0 0-9.012 9.012V24h6.26V9.391h14.61v-6.26z"/><path fill="#D80027" d="m24 21.049-8.527-8.527H12.52L24 24zM27.13 12.522h14.61v6.26H27.13z"/><path fill="#FFDA44" d="M27.13 28.174v4.174h2.197a7.28 7.28 0 0 0 5.108 2.087c1.99 0 3.792-.797 5.108-2.087h2.197v-4.174z"/><path fill="#338AF3" d="M27.13 17.739v6.26c0 5.592 7.305 7.305 7.305 7.305S41.74 29.591 41.74 24v-6.261z"/><path fill="#F3F3F3" d="M34.435 21.084c-1.826 0-1.826 1.67-3.652 1.67s-1.826-1.67-3.652-1.67v2.921c1.826 0 1.826 1.67 3.652 1.67s1.826-1.67 3.652-1.67 1.826 1.67 3.652 1.67 1.826-1.67 3.652-1.67v-2.921c-1.826 0-1.826 1.67-3.652 1.67s-1.826-1.67-3.652-1.67M34.435 15.235c-1.826 0-1.826 1.67-3.652 1.67s-1.826-1.67-3.652-1.67v2.922c1.826 0 1.826 1.67 3.652 1.67s1.826-1.67 3.652-1.67 1.826 1.67 3.652 1.67 1.826-1.67 3.652-1.67v-2.922c-1.826 0-1.826 1.67-3.652 1.67s-1.826-1.67-3.652-1.67"/></g><defs><clipPath id="a"><path fill="#fff" d="M0 0h48v48H0z"/></clipPath></defs></svg>
