<svg xmlns="http://www.w3.org/2000/svg" width="48" height="48" fill="none"><g clip-path="url(#a)"><path fill="#338AF3" d="M24 48c13.255 0 24-10.745 24-24S37.255 0 24 0 0 10.745 0 24s10.745 24 24 24"/><path fill="#FFDA44" d="M37.565 24.26h-27.13c0 1.874 1.63 3.392 3.504 3.392h-.113a3.39 3.39 0 0 0 3.391 3.392 3.39 3.39 0 0 0 3.392 3.39h6.782a3.39 3.39 0 0 0 3.391-3.39 3.39 3.39 0 0 0 3.392-3.392h-.113c1.873 0 3.504-1.518 3.504-3.391"/><path fill="#338AF3" d="M33.391 19.826a9.391 9.391 0 0 1-18.783 0"/><path fill="#FFDA44" d="m31.174 19.826-2.931 1.379 1.56 2.839-3.182-.61-.404 3.216L24 24.285l-2.217 2.365-.403-3.215-3.183.608 1.561-2.838-2.93-1.379 2.93-1.379-1.56-2.838 3.182.608.404-3.215L24 15.367l2.217-2.365.404 3.215 3.183-.608-1.561 2.838z"/></g><defs><clipPath id="a"><path fill="#fff" d="M0 0h48v48H0z"/></clipPath></defs></svg>
