<svg xmlns="http://www.w3.org/2000/svg" width="48" height="48" fill="none"><g clip-path="url(#a)"><path fill="#D80027" d="M45.618 13.565C41.736 5.537 33.514 0 23.999 0S6.263 5.537 2.381 13.565l21.618 2.087zM2.38 34.435C6.264 42.463 14.485 48 24 48c9.514 0 17.736-5.537 21.618-13.565l-21.619-2.087z"/><path fill="#0052B4" d="M45.619 13.565H2.38A23.9 23.9 0 0 0 0 24c0 3.74.856 7.28 2.381 10.435H45.62A23.9 23.9 0 0 0 48 24c0-3.74-.856-7.28-2.381-10.435"/><path fill="#F0F0F0" d="M24 32.348a8.348 8.348 0 1 0 0-16.696 8.348 8.348 0 0 0 0 16.696"/></g><defs><clipPath id="a"><path fill="#fff" d="M0 0h48v48H0z"/></clipPath></defs></svg>
