<svg xmlns="http://www.w3.org/2000/svg" width="48" height="48" fill="none"><g clip-path="url(#a)"><path fill="#FFDA44" d="M24 48c13.255 0 24-10.745 24-24S37.255 0 24 0 0 10.745 0 24s10.745 24 24 24"/><path fill="#FF9811" d="M18.783 4.174h-8.31q-.552.378-1.081.785L7.305 24l2.087 19.041q.53.407 1.081.785h8.31z"/><path fill="#6DA544" d="M0 24c0 7.758 3.681 14.654 9.391 19.041V4.96C3.681 9.346 0 16.243 0 24"/><path fill="#FFDA44" d="M38.61 14.631v.6l.022.004z"/><path fill="#A2001D" d="M46.088 30.26h-4.522l-1.913 2.088v4.174H35.48v-2.087h2.087V30.26h-9.391v2.608h-2.087v-4.971a3.12 3.12 0 0 1-1.044-2.333V12a3.13 3.13 0 0 1 3.13-3.13v19.304h4.175l1.432-1.194a5 5 0 0 1-.389-1.936v-3.13h-3.13v-6.262h6.26c0-1.043 1.566-2.087 1.566-2.087s1.565 1.044 1.565 2.087v6.261c1.161.014 3.005-.016 4.998 0a6.33 6.33 0 0 1-.824-3.13c0-1.842.795-3.497 2.06-4.643a24.1 24.1 0 0 0-8.36-9.966H21.915v39.652h15.614a24.05 24.05 0 0 0 9.386-12.665z"/></g><defs><clipPath id="a"><path fill="#fff" d="M0 0h48v48H0z"/></clipPath></defs></svg>
