<svg xmlns="http://www.w3.org/2000/svg" width="48" height="48" fill="none"><g clip-path="url(#a)"><path fill="#F0F0F0" d="M24 48c13.255 0 24-10.745 24-24S37.255 0 24 0 0 10.745 0 24s10.745 24 24 24"/><path fill="#F0F0F0" d="M5.486 8.727h37.029A24.1 24.1 0 0 0 37.8 4.364H10.2a24.1 24.1 0 0 0-4.714 4.363M0 24q.001 1.104.1 2.182h47.8Q48 25.104 48 24q-.001-1.104-.1-2.182H.1Q0 22.896 0 24M2.618 34.909h42.765a24 24 0 0 0 1.714-4.363H.904a24 24 0 0 0 1.714 4.363M10.2 43.636H37.8a24.1 24.1 0 0 0 4.713-4.363H5.486a24.1 24.1 0 0 0 4.714 4.363M.904 17.455h46.193a24 24 0 0 0-1.714-4.364H2.618a24 24 0 0 0-1.714 4.364"/><path fill="#D80027" d="M11.479 4.364H37.8A23.9 23.9 0 0 0 24 0c-3.131 0-8.619 1.615-12.522 4.364M22.957 13.091h22.426a24 24 0 0 0-2.868-4.364H22.957zM22.957 21.818h24.944a24 24 0 0 0-.804-4.363h-24.14zM.904 30.546h46.192c.398-1.406.67-2.866.804-4.364H.1c.135 1.498.406 2.957.804 4.364M5.486 39.273h37.028a24 24 0 0 0 2.869-4.364H2.617a24 24 0 0 0 2.869 4.364M24 48a23.9 23.9 0 0 0 13.8-4.364H10.2A23.9 23.9 0 0 0 24 48"/><path fill="#0052B4" d="M.904 17.455A24 24 0 0 0 .1 21.818H24V0C13.014 0 3.753 7.381.904 17.455"/><path fill="#F0F0F0" d="m14.286 6.26 1.554 4.784h5.03L16.8 14l1.555 4.783-4.069-2.956-4.068 2.956L11.772 14l-4.069-2.956h5.03z"/></g><defs><clipPath id="a"><path fill="#fff" d="M0 0h48v48H0z"/></clipPath></defs></svg>
