<svg xmlns="http://www.w3.org/2000/svg" width="48" height="48" fill="none"><g clip-path="url(#a)"><path fill="#F0F0F0" d="M0 24c0 3.74.856 7.28 2.381 10.435L24 35.478l21.619-1.043A23.9 23.9 0 0 0 48 24c0-3.74-.856-7.28-2.381-10.435L24 12.522 2.381 13.565A23.9 23.9 0 0 0 0 24"/><path fill="#6DA544" d="M24 48c9.514 0 17.736-5.537 21.618-13.565H2.381C6.263 42.463 14.484 48 23.999 48"/><path fill="#0052B4" d="M24 0C14.483 0 6.262 5.537 2.38 13.565h43.238C41.736 5.537 33.514 0 23.999 0"/><path fill="#000" d="M25.566 23.478V17.74h-3.13v5.74l-3.782 3.78A6.26 6.26 0 0 0 24 30.261a6.26 6.26 0 0 0 5.347-3.002z"/></g><defs><clipPath id="a"><path fill="#fff" d="M0 0h48v48H0z"/></clipPath></defs></svg>
