<svg xmlns="http://www.w3.org/2000/svg" width="48" height="48" fill="none"><g clip-path="url(#a)"><path fill="#6DA544" d="M46.507 32.348A24 24 0 0 0 48 24c0-2.936-.528-5.748-1.493-8.348L24 13.565 1.493 15.652A24 24 0 0 0 0 24c0 2.936.528 5.748 1.493 8.348L24 34.435z"/><path fill="#FFDA44" d="M46.507 15.652C43.116 6.513 34.319 0 23.999 0S4.883 6.513 1.492 15.652z"/><path fill="#D80027" d="M24 48c10.319 0 19.116-6.513 22.507-15.652H1.492C4.883 41.487 13.68 48 24 48"/></g><defs><clipPath id="a"><path fill="#fff" d="M0 0h48v48H0z"/></clipPath></defs></svg>
