<svg xmlns="http://www.w3.org/2000/svg" width="48" height="48" fill="none"><g clip-path="url(#a)"><path fill="#000" d="M2.381 13.565A23.9 23.9 0 0 0 0 24c0 3.74.856 7.28 2.381 10.435L24 36.522l21.619-2.087A23.9 23.9 0 0 0 48 24c0-3.74-.856-7.28-2.381-10.435L24 11.478z"/><path fill="#496E2D" d="M2.383 34.435C6.265 42.463 14.486 48 24 48s17.735-5.537 21.617-13.565z"/><path fill="#D80027" d="M2.383 13.565h43.235C41.736 5.537 33.516 0 24 0 14.487 0 6.265 5.537 2.383 13.565"/><path fill="#F0F0F0" d="m29.586 19.611 1.969 2.714 3.19-1.034-1.973 2.711 1.969 2.714-3.188-1.039-1.973 2.712.003-3.353-3.188-1.038 3.189-1.034z"/><path fill="#F0F0F0" d="M24.212 30.783a6.783 6.783 0 1 1 3.227-12.75 8.348 8.348 0 1 0 0 11.935 6.75 6.75 0 0 1-3.227.815"/></g><defs><clipPath id="a"><path fill="#fff" d="M0 0h48v48H0z"/></clipPath></defs></svg>
