<svg xmlns="http://www.w3.org/2000/svg" width="48" height="48" fill="none"><g clip-path="url(#a)"><path fill="#D80027" d="M24 48c13.255 0 24-10.745 24-24S37.255 0 24 0 0 10.745 0 24s10.745 24 24 24"/><path fill="#FFDA44" d="M38.183 19.696H27.348L24 9.391 20.65 19.696H9.816l8.766 6.369-3.348 10.305L24 30l8.766 6.37-3.349-10.305zm-17.147 5.571 1.132-3.484h3.663l1.133 3.484L24 27.422zm4.118-5.571h-2.308L24 16.145zm3.585 4.282-.713-2.195h3.734zm-8.766-2.195-.713 2.195-3.02-2.195zm-.77 9.123 1.154-3.551 1.867 1.356zm6.572-2.195 1.867-1.356 1.154 3.55z"/></g><defs><clipPath id="a"><path fill="#fff" d="M0 0h48v48H0z"/></clipPath></defs></svg>
