<svg xmlns="http://www.w3.org/2000/svg" width="48" height="48" fill="none"><g clip-path="url(#a)"><path fill="#FFDA44" d="M34.435 2.381A23.9 23.9 0 0 0 24 0c-3.74 0-7.28.856-10.434 2.381L11.478 24l2.088 21.619A23.9 23.9 0 0 0 24 48c3.74 0 7.28-.856 10.435-2.381L36.522 24z"/><path fill="#0052B4" d="M13.565 2.382C5.537 6.264 0 14.485 0 24s5.537 17.736 13.565 21.618z"/><path fill="#D80027" d="M34.436 2.382v43.236C42.463 41.736 48 33.515 48 24S42.463 6.264 34.436 2.382"/><path fill="#FF9811" d="M32.348 18.883h-5.74a2.609 2.609 0 1 0-5.217 0h-5.739c0 1.419 1.236 2.568 2.654 2.568h-.085a2.57 2.57 0 0 0 2.569 2.57c0 1.255.902 2.299 2.093 2.522l-2.024 4.57c.97.394 2.03.613 3.141.613a8.3 8.3 0 0 0 3.141-.614l-2.024-4.57a2.57 2.57 0 0 0 2.094-2.522 2.57 2.57 0 0 0 2.568-2.569h-.085c1.418 0 2.654-1.15 2.654-2.568"/><path fill="#0052B4" d="M24 22.435 20.61 24v3.13L24 29.217l3.392-2.087V24z"/><path fill="#D80027" d="M20.61 20.87h6.782V24h-6.783z"/></g><defs><clipPath id="a"><path fill="#fff" d="M0 0h48v48H0z"/></clipPath></defs></svg>
