<svg xmlns="http://www.w3.org/2000/svg" width="48" height="48" fill="none"><g clip-path="url(#a)"><path fill="#FFDA44" d="M24 48c13.255 0 24-10.745 24-24S37.255 0 24 0 0 10.745 0 24s10.745 24 24 24"/><path fill="#A2001D" d="M48 24c0-8.237-4.15-15.504-10.473-19.826H10.473C4.15 8.496 0 15.763 0 24s4.15 15.504 10.473 19.826h27.054C43.85 39.504 48 32.237 48 24"/><path fill="#FFDA44" d="M18.783 17.74h10.435v-4.175l-2.087 1.044-3.13-3.13-3.13 3.13-2.088-1.044zM33.392 24h-5.215a2.408 2.408 0 1 0-4.207-2.338A2.407 2.407 0 1 0 19.761 24h-5.153c0 1.596 1.39 2.89 2.986 2.89H17.5a2.89 2.89 0 0 0 2.064 2.769l-2.345 2.346 2.214 2.213 3.14-3.14a2.4 2.4 0 0 0 .381.106l-1.897 4.284a7.8 7.8 0 0 0 2.945.575 7.8 7.8 0 0 0 2.945-.575l-1.898-4.284q.198-.037.382-.106l3.14 3.14 2.213-2.214-2.345-2.345a2.89 2.89 0 0 0 2.064-2.77h-.096c1.596 0 2.986-1.293 2.986-2.889"/><path fill="#6DA544" d="m24 25.565-3.39 1.566v3.13L24 32.348l3.392-2.087v-3.13z"/><path fill="#0052B4" d="M20.61 24h6.782v4.174h-6.783z"/></g><defs><clipPath id="a"><path fill="#fff" d="M0 0h48v48H0z"/></clipPath></defs></svg>
