<svg xmlns="http://www.w3.org/2000/svg" width="48" height="48" fill="none"><g clip-path="url(#a)"><path fill="#0052B4" d="M24 48c13.255 0 24-10.745 24-24 0-4.028-.994-7.823-2.747-11.156L23.972 24.028l11.184-21.28A23.9 23.9 0 0 0 24 0C10.745 0 0 10.745 0 24a23.93 23.93 0 0 0 7.03 16.97A23.93 23.93 0 0 0 24 48"/><path fill="#F0F0F0" d="M45.228 12.87a24 24 0 0 0-4.285-5.812 24 24 0 0 0-5.812-4.285L7 40.999z"/><path fill="#FF9811" d="m7.002 40.999 38.226-28.13a24 24 0 0 0-4.285-5.811z"/><path fill="#F0F0F0" d="m20.84 14.074-2.93 1.379 1.56 2.838-3.182-.608-.404 3.215-2.217-2.365-2.217 2.365-.403-3.215-3.183.608 1.561-2.838-2.93-1.379 2.93-1.379-1.56-2.838 3.182.608.403-3.215 2.217 2.365 2.217-2.365.404 3.215 3.183-.608-1.561 2.838z"/></g><defs><clipPath id="a"><path fill="#fff" d="M0 0h48v48H0z"/></clipPath></defs></svg>
