<svg xmlns="http://www.w3.org/2000/svg" width="48" height="49" fill="none"><g clip-path="url(#a)"><path fill="#FFDA44" d="M24 48.01c13.255 0 24-10.744 24-24 0-13.254-10.745-24-24-24s-24 10.746-24 24c0 13.256 10.745 24 24 24"/><path fill="#D80027" d="M27.65 47.735a23.9 23.9 0 0 0 10.543-4.37L24 24.01zM20.35.287a23.9 23.9 0 0 0-10.543 4.37L24 24.011zM9.807 43.364a23.9 23.9 0 0 0 10.542 4.37L24 24.012z"/><path fill="#D80027" d="M4.646 9.818A23.9 23.9 0 0 0 .276 20.36L24 24.01zM.275 27.66a23.9 23.9 0 0 0 4.37 10.543L24 24.011zM47.724 20.36a23.9 23.9 0 0 0-4.37-10.542L24 24.011zM38.193 4.657A23.9 23.9 0 0 0 27.65.287L24 24.01z"/><path fill="#D80027" d="M43.354 38.204a23.9 23.9 0 0 0 4.37-10.543L24 24.01z"/><path fill="#D80027" d="M24 32.358a8.348 8.348 0 1 0 0-16.695 8.348 8.348 0 0 0 0 16.695"/><path fill="#FFDA44" d="M24 30.272a6.26 6.26 0 1 0 0-12.522 6.26 6.26 0 0 0 0 12.522"/></g><defs><clipPath id="a"><path fill="#fff" d="M0 .01h48v48H0z"/></clipPath></defs></svg>
