<svg xmlns="http://www.w3.org/2000/svg" width="48" height="48" fill="none"><g clip-path="url(#a)"><path fill="#0052B4" d="M24 48c2.936 0 5.749-.528 8.349-1.493L33.392 24 32.349 1.493A24 24 0 0 0 24 0c-2.936 0-5.748.528-8.348 1.493L14.609 24l1.044 22.507C18.253 47.472 21.065 48 24 48"/><path fill="#A2001D" d="M0 24c0 10.32 6.513 19.116 15.652 22.507V1.493C6.513 4.883 0 13.68 0 24M32.348 1.493v45.014C41.487 43.117 48 34.32 48 24S41.487 4.884 32.348 1.493"/><path fill="#FFDA44" d="M11.479 24h2.087v8.348h-2.088zM3.13 24h2.088v8.348H3.13zM8.349 29.217a2.087 2.087 0 1 0 0-4.174 2.087 2.087 0 0 0 0 4.174M8.348 20.87a1.043 1.043 0 1 0 0-2.087 1.043 1.043 0 0 0 0 2.086M6.262 30.26h4.174v2.088H6.262zM6.262 21.913h4.174V24H6.262zM8.35 12.522l.738 2.274h2.392l-1.935 1.406.739 2.274-1.935-1.405-1.934 1.405.738-2.274-1.934-1.406H7.61z"/></g><defs><clipPath id="a"><path fill="#fff" d="M0 0h48v48H0z"/></clipPath></defs></svg>
