<svg xmlns="http://www.w3.org/2000/svg" width="48" height="48" fill="none"><g clip-path="url(#a)"><path fill="#496E2D" d="M24 48c13.255 0 24-10.745 24-24S37.255 0 24 0 0 10.745 0 24s10.745 24 24 24"/><path fill="#F0F0F0" d="M28.174 23c-.589 0-1.148.117-1.667.304.284-.635.475-1.34.475-2.094 0-2.98-2.981-5.217-2.981-5.217s-2.982 2.236-2.982 5.217c0 .754.191 1.46.476 2.094a4.9 4.9 0 0 0-1.668-.305c-2.982 0-5.218 2.982-5.218 2.982s2.236 2.98 5.218 2.98c1.748 0 3.238-1.024 4.174-1.872.935.848 2.426 1.873 4.174 1.873 2.981 0 5.217-2.982 5.217-2.982S31.156 23 28.174 23"/><path fill="#FFDA44" d="m24.001 9.391.616 1.896h1.993l-1.612 1.171.615 1.895-1.612-1.171-1.612 1.171.616-1.895-1.612-1.171h1.992zM16.422 12.706l1.185 1.067 1.38-.797-.648 1.456 1.185 1.067-1.585-.167-.649 1.457-.331-1.56-1.586-.166 1.38-.797zM10.875 18.254l1.56.331.797-1.38.166 1.585 1.56.332-1.457.648.167 1.585-1.067-1.184-1.456.648.797-1.38zM31.578 12.706l-1.184 1.067-1.381-.797.648 1.456-1.184 1.067 1.585-.167.648 1.457.332-1.56 1.585-.166-1.38-.797zM37.126 18.254l-1.56.331-.797-1.38-.167 1.585-1.559.332 1.456.648-.166 1.585 1.067-1.184 1.456.648-.797-1.38z"/><path fill="#F0F0F0" d="M24 37.31c2.367 0 4.55-.79 6.302-2.12H17.697A10.4 10.4 0 0 0 24 37.31M14.434 31.049c.33.758.75 1.468 1.244 2.12H32.32c.494-.652.914-1.362 1.245-2.12z"/></g><defs><clipPath id="a"><path fill="#fff" d="M0 0h48v48H0z"/></clipPath></defs></svg>
