<svg xmlns="http://www.w3.org/2000/svg" width="48" height="48" fill="none"><g clip-path="url(#a)"><path fill="#338AF3" d="M24 48c13.255 0 24-10.745 24-24S37.255 0 24 0 0 10.745 0 24s10.745 24 24 24"/><path fill="#F3F3F3" d="M23.243 39.112a1.56 1.56 0 0 1-1.392-1.023 1.567 1.567 0 0 1-2.792-.72 1.567 1.567 0 0 1-2.589-1.27 1.564 1.564 0 0 1-2.28-1.764 1.564 1.564 0 0 1-1.88-2.184 1.566 1.566 0 0 1-1.403-2.519 1.565 1.565 0 0 1-.865-2.75 1.564 1.564 0 0 1-.293-2.867 1.57 1.57 0 0 1-.806-1.526h.001c.064-.645.51-1.16 1.092-1.341a1.566 1.566 0 0 1 .859-2.753 1.567 1.567 0 0 1 1.398-2.521 1.565 1.565 0 0 1 1.875-2.19 1.564 1.564 0 0 1 2.275-1.768 1.566 1.566 0 0 1 2.586-1.274 1.566 1.566 0 0 1 2.79-.727 1.566 1.566 0 0 1 2.878-.15 1.565 1.565 0 0 1 2.85.43 1.565 1.565 0 0 1 2.706.998 1.565 1.565 0 0 1 2.448 1.521 1.567 1.567 0 0 1 2.092 1.982 1.565 1.565 0 0 1 1.654 2.361 1.568 1.568 0 0 1 1.143 2.647 1.565 1.565 0 0 1 .585 2.823c.56.237.954.79.955 1.438v.034c0 .647-.392 1.203-.952 1.441a1.564 1.564 0 0 1-.579 2.824 1.567 1.567 0 0 1-1.137 2.65 1.566 1.566 0 0 1-1.648 2.365 1.567 1.567 0 0 1-2.088 1.987 1.567 1.567 0 0 1-2.445 1.526 1.57 1.57 0 0 1-1.019 1.398c-.607.225 0 0-.001 0a1.57 1.57 0 0 1-1.683-.395 1.566 1.566 0 0 1-2.85.437 1.57 1.57 0 0 1-1.485.88"/><path fill="#338AF3" d="M24 34.435c5.762 0 10.434-4.672 10.434-10.435s-4.672-10.435-10.435-10.435S13.565 18.237 13.565 24s4.671 10.435 10.434 10.435"/><path fill="#BDBCC1" d="M26.284 20.458c.513-.38.846-.988.846-1.675v-1.044a2.087 2.087 0 0 0-2.086-2.087h-2.087a2.087 2.087 0 0 0-2.087 2.087v1.044c0 .687.333 1.295.846 1.675l-1.89 19.194S20.87 40.696 24 40.696s4.174-1.044 4.174-1.044z"/><path fill="#F0F0F0" d="m24 15.652 1.813 5.58h5.868l-4.747 3.449 1.813 5.58L24 26.812l-4.746 3.449 1.813-5.58-4.747-3.45h5.868z"/></g><defs><clipPath id="a"><path fill="#fff" d="M0 0h48v48H0z"/></clipPath></defs></svg>
