<svg xmlns="http://www.w3.org/2000/svg" width="48" height="48" fill="none"><g clip-path="url(#a)"><path fill="#F0F0F0" d="M24 48c13.255 0 24-10.745 24-24S37.255 0 24 0 0 10.745 0 24s10.745 24 24 24"/><path fill="#0052B4" d="M47.795 20.87A23.9 23.9 0 0 0 40.97 7.03 23.9 23.9 0 0 0 27.131.205V20.87zM20.869.206a23.9 23.9 0 0 0-13.84 6.823A23.9 23.9 0 0 0 .205 20.87H20.87zM.205 27.13A23.9 23.9 0 0 0 7.03 40.97a23.9 23.9 0 0 0 13.84 6.825V27.13zM27.13 47.794a23.9 23.9 0 0 0 13.84-6.823 23.9 23.9 0 0 0 6.825-13.84H27.13z"/><path fill="#F0F0F0" d="M32.194 15.229c0-.32.26-.579.579-.579h1.24a3.56 3.56 0 0 0 3.554-3.554 3.56 3.56 0 0 0-3.554-3.554h-1.178a2.45 2.45 0 0 0-1.468-.467c-1.187 0-2.148.77-2.148 1.718 0 .94.943 1.703 2.113 1.717v.007h2.68a.58.58 0 0 1 0 1.157h-1.24a3.56 3.56 0 0 0-3.553 3.554 3.56 3.56 0 0 0 3.554 3.554h4.793v-2.975h-4.793a.58.58 0 0 1-.579-.578M13.41 15.229c0-.32.26-.579.58-.579h1.24a3.56 3.56 0 0 0 3.553-3.554 3.56 3.56 0 0 0-3.554-3.554h-1.177a2.45 2.45 0 0 0-1.469-.467c-1.186 0-2.148.77-2.148 1.718 0 .94.944 1.703 2.114 1.717v.007h2.68a.58.58 0 0 1 0 1.157h-1.24a3.56 3.56 0 0 0-3.554 3.554 3.56 3.56 0 0 0 3.554 3.554h4.794v-2.975H13.99a.58.58 0 0 1-.578-.578M32.194 37.37c0-.319.26-.578.579-.578h1.24a3.56 3.56 0 0 0 3.554-3.554 3.56 3.56 0 0 0-3.554-3.554h-1.178a2.45 2.45 0 0 0-1.468-.467c-1.187 0-2.148.77-2.148 1.719 0 .94.943 1.702 2.113 1.717v.006h2.68a.58.58 0 0 1 0 1.157h-1.24a3.56 3.56 0 0 0-3.553 3.554 3.56 3.56 0 0 0 3.554 3.555h4.794v-2.976h-4.794a.58.58 0 0 1-.579-.578M13.41 37.37c0-.319.26-.578.58-.578h1.24a3.56 3.56 0 0 0 3.553-3.554 3.56 3.56 0 0 0-3.554-3.554h-1.177a2.45 2.45 0 0 0-1.468-.467c-1.187 0-2.149.77-2.149 1.719 0 .94.944 1.702 2.114 1.717v.006h2.68a.58.58 0 0 1 0 1.157h-1.24a3.56 3.56 0 0 0-3.554 3.554 3.56 3.56 0 0 0 3.554 3.555h4.794v-2.976H13.99a.58.58 0 0 1-.578-.578"/></g><defs><clipPath id="a"><path fill="#fff" d="M0 0h48v48H0z"/></clipPath></defs></svg>
