<svg xmlns="http://www.w3.org/2000/svg" width="48" height="48" fill="none"><g clip-path="url(#a)"><path fill="#496E2D" d="M24 48c13.255 0 24-10.745 24-24S37.255 0 24 0 0 10.745 0 24s10.745 24 24 24"/><path fill="#FFDA44" d="M24 27.727a8.35 8.35 0 0 1-8.154-6.56A8.348 8.348 0 0 0 24 31.305a8.348 8.348 0 0 0 8.154-10.137A8.35 8.35 0 0 1 24 27.728"/><path fill="#FFDA44" d="m24 16.696.777 2.391h2.515l-2.034 1.478.777 2.392L24 21.478l-2.034 1.479.777-2.392-2.034-1.478h2.515z"/></g><defs><clipPath id="a"><path fill="#fff" d="M0 0h48v48H0z"/></clipPath></defs></svg>
