<svg xmlns="http://www.w3.org/2000/svg" width="48" height="48" fill="none"><g clip-path="url(#a)"><path fill="#D80027" d="M2.918 12.522 24 14.609l21.082-2.087C41.012 5.062 33.097 0 24 0S6.989 5.061 2.918 12.522"/><path fill="#FFDA44" d="M2.918 35.478 24 37.565l21.082-2.087A23.9 23.9 0 0 0 48 24l-24-2.087L0 24c0 4.158 1.058 8.069 2.918 11.478"/><path fill="#0052B4" d="M2.918 12.522A23.9 23.9 0 0 0 0 24h48c0-4.158-1.058-8.068-2.918-11.478H2.918"/><path fill="#6DA544" d="M24 48c9.097 0 17.011-5.062 21.082-12.522H2.918C6.988 42.938 14.903 48 24 48"/></g><defs><clipPath id="a"><path fill="#fff" d="M0 0h48v48H0z"/></clipPath></defs></svg>
