<svg xmlns="http://www.w3.org/2000/svg" width="48" height="48" fill="none"><g clip-path="url(#a)"><path fill="#D80027" d="M0 24c0 2.936.528 5.748 1.493 8.348L24 33.39l22.507-1.043A24 24 0 0 0 48 24c0-2.936-.528-5.748-1.493-8.348L24 14.61 1.493 15.652A24 24 0 0 0 0 24"/><path fill="#000" d="M24 0C13.68 0 4.882 6.513 1.491 15.652h45.015C43.116 6.513 34.319 0 23.999 0"/><path fill="#496E2D" d="M46.507 32.348H1.492C4.883 41.487 13.68 48 24 48s19.117-6.513 22.508-15.652"/><path fill="#D80027" d="M31.173 11.478 28.242 10.1l1.56-2.839-3.182.609-.404-3.216L24 7.02l-2.218-2.365-.403 3.216-3.183-.609 1.561 2.839-2.93 1.378z"/></g><defs><clipPath id="a"><path fill="#fff" d="M0 0h48v48H0z"/></clipPath></defs></svg>
