<svg xmlns="http://www.w3.org/2000/svg" width="48" height="48" fill="none"><g clip-path="url(#a)"><path fill="#F0F0F0" d="M24 48c13.255 0 24-10.745 24-24S37.255 0 24 0 0 10.745 0 24s10.745 24 24 24"/><path fill="#D80027" d="M48 24c0-9.515-5.536-17.737-13.565-21.619V45.62C42.465 41.737 48.002 33.515 48.002 24"/><path fill="#6DA544" d="M0 24c0 9.515 5.537 17.737 13.565 21.619V2.38C5.537 6.263 0 14.485 0 24M17.738 24a6.26 6.26 0 1 0 12.522 0v-2.087H17.738z"/><path fill="#FF9811" d="M32.348 19.826h-6.26a2.087 2.087 0 0 0-4.175 0h-6.26c0 1.153 1.003 2.087 2.156 2.087h-.07c0 1.153.935 2.087 2.087 2.087 0 1.153.935 2.087 2.087 2.087h4.174A2.087 2.087 0 0 0 28.174 24a2.087 2.087 0 0 0 2.087-2.087h-.07c1.153 0 2.157-.934 2.157-2.087"/></g><defs><clipPath id="a"><path fill="#fff" d="M0 0h48v48H0z"/></clipPath></defs></svg>
