<svg xmlns="http://www.w3.org/2000/svg" width="48" height="48" fill="none"><g clip-path="url(#a)"><path fill="#F0F0F0" d="M24 48c13.255 0 24-10.745 24-24S37.255 0 24 0 0 10.745 0 24s10.745 24 24 24"/><path fill="#D80027" d="M22.955 24H48c0-2.166-.29-4.265-.827-6.26H22.955zM22.955 11.478h21.521a24.1 24.1 0 0 0-5.538-6.26H22.955zM24 48c5.649 0 10.84-1.952 14.94-5.217H9.06A23.9 23.9 0 0 0 24 48M3.522 36.522h40.955a23.9 23.9 0 0 0 2.696-6.261H.826a23.9 23.9 0 0 0 2.696 6.26"/><path fill="#0052B4" d="M24 24V0C10.745 0 0 10.745 0 24z"/><path fill="#FFDA44" d="M15.96 20.543a5.935 5.935 0 1 1 2.823-11.156 7.304 7.304 0 1 0 0 10.443 5.9 5.9 0 0 1-2.823.713"/><path fill="#FFDA44" d="m17.633 10.435 1.054 2.203 2.38-.55L20 14.286l1.914 1.517-2.382.537.006 2.443-1.905-1.528-1.905 1.528.006-2.443-2.382-.537 1.913-1.517-1.065-2.198 2.38.55z"/></g><defs><clipPath id="a"><path fill="#fff" d="M0 0h48v48H0z"/></clipPath></defs></svg>
