<svg xmlns="http://www.w3.org/2000/svg" width="48" height="48" fill="none"><g clip-path="url(#a)"><path fill="#F0F0F0" d="M24 48c13.255 0 24-10.745 24-24S37.255 0 24 0 0 10.745 0 24s10.745 24 24 24"/><path fill="#FFDA44" d="M12.971 33.391 7.03 40.97A23.92 23.92 0 0 0 24 48c9.922 0 18.436-6.021 22.09-14.609z"/><path fill="#496E2D" d="M46.127 14.696C42.492 6.062 33.954 0 23.999 0A23.92 23.92 0 0 0 7.03 7.03l6.01 7.666z"/><path fill="#000" d="M5.217 17.652v12.609h41.956c.538-1.996.826-4.095.826-6.261 0-2.198-.296-4.326-.849-6.348z"/><path fill="#A2001D" d="M7.03 7.03c-9.373 9.372-9.373 24.568 0 33.94L24 24z"/><path fill="#FFDA44" d="m9.714 17.74 1.554 4.782h5.03l-4.07 2.956 1.554 4.783-4.068-2.956-4.069 2.956L7.2 25.478l-4.068-2.956H8.16z"/><path fill="#F0F0F0" d="M5.166 24h9.096v4.174H5.166z"/><path fill="#000" d="m15.985 19.215-1.476-1.476-4.795 4.795L4.92 17.74l-1.476 1.476 4.8 4.79-4.8 4.8 1.476 1.456 4.795-4.787 4.795 4.787 1.476-1.456-4.8-4.8z"/></g><defs><clipPath id="a"><path fill="#fff" d="M0 0h48v48H0z"/></clipPath></defs></svg>
