<svg xmlns="http://www.w3.org/2000/svg" width="48" height="48" fill="none"><g clip-path="url(#a)"><path fill="#F0F0F0" d="M24 48c13.255 0 24-10.745 24-24S37.255 0 24 0 0 10.745 0 24s10.745 24 24 24"/><path fill="#A2001D" d="M7.029 40.97a24 24 0 0 0 3.208 2.696l33.428-33.429a24.1 24.1 0 0 0-5.903-5.903L4.334 37.763c.79 1.127 1.688 2.2 2.695 3.208"/><path fill="#0052B4" d="M7.029 7.03C-.543 14.6-1.997 25.971 2.665 35.003L35.003 2.666C25.971-1.996 14.6-.542 7.03 7.029"/><path fill="#496E2D" d="M40.97 40.97c7.572-7.57 9.026-18.942 4.364-27.974L12.996 45.334c9.032 4.662 20.403 3.208 27.975-4.363"/><path fill="#FFDA44" d="m19.825 13.565-2.69 1.265 1.433 2.605-2.92-.559-.37 2.95-2.034-2.17-2.034 2.17-.37-2.95-2.92.559L9.35 14.83l-2.689-1.265 2.69-1.265-1.433-2.604 2.92.558.37-2.95 2.035 2.17 2.034-2.17.37 2.95 2.92-.558-1.432 2.604z"/></g><defs><clipPath id="a"><path fill="#fff" d="M0 0h48v48H0z"/></clipPath></defs></svg>
