<svg xmlns="http://www.w3.org/2000/svg" width="48" height="49" fill="none"><g clip-path="url(#a)"><path fill="#F0F0F0" d="M24 48.01c13.255 0 24-10.744 24-24 0-13.254-10.745-24-24-24s-24 10.746-24 24c0 13.256 10.745 24 24 24"/><path fill="#D80027" d="M48 24.01c0-10.318-6.513-19.115-15.652-22.506v45.014C41.487 43.127 48 34.33 48 24.011"/><path fill="#0052B4" d="M0 24.01c0 10.32 6.513 19.117 15.652 22.508V1.504C6.513 4.894 0 13.692 0 24.01"/></g><defs><clipPath id="a"><path fill="#fff" d="M0 .01h48v48H0z"/></clipPath></defs></svg>
