<svg xmlns="http://www.w3.org/2000/svg" width="48" height="48" fill="none"><g clip-path="url(#a)"><path fill="#F0F0F0" d="M2.381 13.565A23.9 23.9 0 0 0 0 24c0 3.74.856 7.28 2.381 10.435L24 36.522l21.619-2.087A23.9 23.9 0 0 0 48 24c0-3.74-.856-7.28-2.381-10.435L24 11.478z"/><path fill="#6DA544" d="M2.383 34.435C6.265 42.463 14.486 48 24 48s17.735-5.537 21.617-13.565z"/><path fill="#FF9811" d="M2.383 13.565h43.235C41.736 5.537 33.516 0 24 0 14.487 0 6.265 5.537 2.383 13.565M24 32.348a8.348 8.348 0 1 0 0-16.696 8.348 8.348 0 0 0 0 16.696"/></g><defs><clipPath id="a"><path fill="#fff" d="M0 0h48v48H0z"/></clipPath></defs></svg>
