<svg xmlns="http://www.w3.org/2000/svg" width="48" height="48" fill="none"><g clip-path="url(#a)"><path fill="#F0F0F0" d="M34.435 2.381A23.9 23.9 0 0 0 24 0c-3.74 0-7.28.856-10.434 2.381L11.478 24l2.088 21.619A23.9 23.9 0 0 0 24 48c3.74 0 7.28-.856 10.435-2.381L36.522 24z"/><path fill="#6DA544" d="M13.565 2.382C5.537 6.264 0 14.485 0 24s5.537 17.736 13.565 21.618zM34.436 2.382v43.236C42.463 41.736 48 33.515 48 24S42.464 6.264 34.436 2.382M30.26 31.304 24 11.478l-6.262 19.826h4.696v5.218h3.13v-5.218z"/></g><defs><clipPath id="a"><path fill="#fff" d="M0 0h48v48H0z"/></clipPath></defs></svg>
