<svg xmlns="http://www.w3.org/2000/svg" width="48" height="48" fill="none"><g clip-path="url(#a)"><path fill="#F0F0F0" d="M24 48c13.255 0 24-10.745 24-24S37.255 0 24 0 0 10.745 0 24s10.745 24 24 24"/><path fill="#338AF3" d="M24 0C14.483 0 6.262 5.537 2.38 13.565h43.238C41.736 5.537 33.514 0 23.999 0M24 48c9.514 0 17.736-5.537 21.618-13.565H2.381C6.263 42.463 14.484 48 23.999 48"/><path fill="#FFDA44" d="M24 16.696a7.304 7.304 0 1 0 0 14.608 7.304 7.304 0 0 0 0-14.608m0 11.478a4.174 4.174 0 1 1 0-8.348 4.174 4.174 0 0 1 0 8.348"/><path fill="#0052B4" d="M27.614 25.043 24 24l-3.614 1.043-1.205 2.087h9.639z"/><path fill="#338AF3" d="m24 18.783-2.41 4.174L24 24l2.41-1.043z"/><path fill="#6DA544" d="M20.385 25.043h7.23l-1.206-2.087h-4.82z"/></g><defs><clipPath id="a"><path fill="#fff" d="M0 0h48v48H0z"/></clipPath></defs></svg>
