<svg xmlns="http://www.w3.org/2000/svg" width="48" height="48" fill="none"><g clip-path="url(#a)"><path fill="#F0F0F0" d="M24 48c13.255 0 24-10.745 24-24S37.255 0 24 0 0 10.745 0 24s10.745 24 24 24"/><path fill="#D80027" d="M.826 30.26a24.02 24.02 0 0 0 8.565 12.781v-12.78zM21.912 47.909q1.032.09 2.087.091c11.089 0 20.42-7.52 23.173-17.739h-25.26zM47.172 17.74C44.418 7.52 35.088 0 24 0q-1.055.001-2.087.091V17.74zM9.39 4.959a24.02 24.02 0 0 0-8.564 12.78h8.565z"/><path fill="#0052B4" d="M47.797 20.87H18.783V.57a23.8 23.8 0 0 0-6.261 2.348V20.87H.203a24.2 24.2 0 0 0 0 6.261h12.319v17.952a23.8 23.8 0 0 0 6.26 2.347V27.131h29.015a24.2 24.2 0 0 0 0-6.261"/></g><defs><clipPath id="a"><path fill="#fff" d="M0 0h48v48H0z"/></clipPath></defs></svg>
