<svg xmlns="http://www.w3.org/2000/svg" width="48" height="48" fill="none"><g clip-path="url(#a)"><path fill="#F0F0F0" d="M24 48c13.255 0 24-10.745 24-24S37.255 0 24 0 0 10.745 0 24s10.745 24 24 24"/><path fill="#0052B4" d="M47.86 26.609v-.001M47.858 26.609v-.001L21.539.125c-1.187.12-2.349.328-3.478.616C7.678 3.384 0 24 0 24s33.6 22.484 37.433 19.89a24 24 0 0 0 2.202-1.683L24.037 26.61z"/><path fill="#D80027" d="M41.74 24 18.397.659C7.846 3.182 0 12.674 0 24c0 13.255 10.745 24 24 24 5.028 0 9.694-1.547 13.55-4.19L17.74 24z"/><path fill="#F0F0F0" d="m22.825 35.437-2.93-1.379 1.56-2.838-3.183.608-.403-3.215-2.217 2.365-2.217-2.365-.403 3.215-3.183-.608 1.56 2.838-2.93 1.379 2.93 1.379-1.56 2.838 3.183-.609.403 3.216 2.217-2.365 2.217 2.365.403-3.216 3.183.61-1.561-2.84zM20.868 13.311l-2.131-1.003 1.135-2.064-2.315.443-.293-2.34-1.613 1.72-1.612-1.72-.294 2.34-2.315-.443 1.136 2.064-2.132 1.003 5.217 1.044z"/><path fill="#F0F0F0" d="M21.912 13.311a6.26 6.26 0 1 1-12.521 0"/></g><defs><clipPath id="a"><path fill="#fff" d="M0 0h48v48H0z"/></clipPath></defs></svg>
