<svg xmlns="http://www.w3.org/2000/svg" width="48" height="48" fill="none"><g clip-path="url(#a)"><path fill="#0052B4" d="M24 48c13.255 0 24-10.745 24-24S37.255 0 24 0 0 10.745 0 24s10.745 24 24 24"/><path fill="#FFDA44" d="M24 48c13.255 0 24-10.745 24-24S37.255 0 24 0 0 10.745 0 24s10.745 24 24 24"/><path fill="#0052B4" d="M24 0C11.45 0 1.15 9.636.092 21.913h47.817C46.851 9.636 36.552 0 24 0M24 48c12.552 0 22.851-9.636 23.91-21.913H.091C1.15 38.364 11.449 48 24 48"/><path fill="#F0F0F0" d="m19.825 32.348-2.689 1.265 1.432 2.604-2.92-.558-.37 2.95-2.034-2.17-2.034 2.17-.37-2.95-2.92.558 1.431-2.604-2.689-1.265 2.69-1.265-1.433-2.605 2.92.559.37-2.95 2.035 2.17 2.034-2.17.37 2.95 2.92-.559-1.432 2.605z"/></g><defs><clipPath id="a"><path fill="#fff" d="M0 0h48v48H0z"/></clipPath></defs></svg>
