<svg xmlns="http://www.w3.org/2000/svg" width="48" height="48" fill="none"><g clip-path="url(#a)"><path fill="#FFDA44" d="M48 24c0 13.255-10.745 24-24 24S0 37.255 0 24C0 24.006 24 .003 24 0c13.255 0 24 10.745 24 24"/><path fill="#0052B4" d="M24 11.478v8.095l-8.348-8.095zM12.522 24h7.051l-7.051-9.391-1.043 7.304z"/><path fill="#F0F0F0" d="M23.936 24H24v-.064z"/><path fill="#F0F0F0" d="M24 12.522V0h-.004C10.743.002 0 10.747 0 24h12.522v-7.051L19.572 24h4.364l.064-.064v-4.363l-7.051-7.051z"/><path fill="#D80027" d="m24 21.049-8.527-8.527H12.52L24 24z"/><path fill="#D80027" d="M12.143 3.13a24 24 0 0 0-2.655 1.755h.985L7.87 6.777l.994 3.06L6.26 7.944l-.277.202a24 24 0 0 0-2.853 3.995V24h6.26V9.391h14.61v-6.26z"/><path fill="#0052B4" d="M10.252 4.327q-.389.27-.765.558L7.869 6.777 6.26 7.945l-.279.203q-.885 1.005-1.655 2.104a4.435 4.435 0 0 0 5.926-5.926"/><path fill="#FFDA44" d="m5.98 8.148.28-.203 2.602 1.891-.994-3.06 2.603-1.89h-.985A24 24 0 0 0 5.98 8.147M16.589 4.174l.518 1.594h1.676l-1.356.986.518 1.594-1.356-.986-1.356.986.518-1.594-1.356-.986h1.676zM6.26 14.609l.519 1.594h1.676l-1.356.985.518 1.595-1.356-.986-1.356.986.517-1.595-1.356-.985h1.677z"/></g><defs><clipPath id="a"><path fill="#fff" d="M0 0h48v48H0z"/></clipPath></defs></svg>
