<svg xmlns="http://www.w3.org/2000/svg" width="48" height="48" fill="none"><g clip-path="url(#a)"><path fill="#0052B4" d="M48 24c0 13.255-10.745 24-24 24S0 37.255 0 24C0 24.006 24 .003 24 0c13.255 0 24 10.745 24 24"/><path fill="#F0F0F0" d="M23.936 24H24v-.064z"/><path fill="#F0F0F0" d="M24 12.522V0h-.004C10.743.002 0 10.747 0 24h12.522v-7.051L19.572 24h4.364l.064-.064v-4.363l-7.051-7.051z"/><path fill="#D80027" d="M12.143 3.13a24.1 24.1 0 0 0-9.012 9.012V24h6.26V9.391h14.61v-6.26z"/><path fill="#D80027" d="m24 21.049-8.527-8.527H12.52L24 24zM41.562 17.809l.518 1.594h1.676l-1.356.985.518 1.594-1.356-.985-1.357.985.519-1.594-1.357-.985h1.677zM35.57 29.287l.778 2.391h2.514l-2.034 1.478.777 2.392-2.034-1.478-2.035 1.478.778-2.392-2.035-1.478h2.515zM35.796 10.504l.647 1.993h2.096l-1.696 1.232.648 1.993-1.695-1.232-1.696 1.232.648-1.993-1.695-1.232h2.095zM30.03 17.739l.777 2.392h2.514l-2.034 1.477.777 2.392-2.034-1.478L27.995 24l.778-2.392-2.035-1.477h2.515z"/></g><defs><clipPath id="a"><path fill="#fff" d="M0 0h48v48H0z"/></clipPath></defs></svg>
