<svg xmlns="http://www.w3.org/2000/svg" width="48" height="48" fill="none"><g clip-path="url(#a)"><path fill="#F0F0F0" d="M24 48c13.255 0 24-10.745 24-24S37.255 0 24 0 0 10.745 0 24s10.745 24 24 24"/><path fill="#D80027" d="M0 24c0 9.097 5.062 17.011 12.522 21.082V2.918C5.062 6.988 0 14.903 0 24"/><path fill="#D80027" d="M46.507 32.348A24 24 0 0 0 48 24c0-2.936-.528-5.748-1.493-8.348H1.493A24 24 0 0 0 0 24c0 2.936.528 5.748 1.493 8.348L24 34.435z"/><path fill="#6DA544" d="M24 48c10.319 0 19.115-6.513 22.507-15.652H1.492C4.883 41.488 13.68 48 24 48"/><path fill="#D80027" d="M0 24c0 11.089 7.52 20.42 17.74 23.173V.827C7.52 3.58 0 12.91 0 24"/><path fill="#F0F0F0" d="M14.683 10.561 12.47 8.348l-1.476 1.476-1.476-1.476-2.213 2.213 1.476 1.476-1.476 1.476 2.213 2.214 1.476-1.476 1.476 1.476 2.213-2.214-1.476-1.476z"/></g><defs><clipPath id="a"><path fill="#fff" d="M0 0h48v48H0z"/></clipPath></defs></svg>
