<svg width="48" height="48" viewBox="0 0 48 48" fill="none" xmlns="http://www.w3.org/2000/svg">
<mask id="mask0_181_2222" style="mask-type:alpha" maskUnits="userSpaceOnUse" x="0" y="0" width="48" height="48">
<circle cx="24" cy="24" r="24" fill="white"/>
</mask>
<g mask="url(#mask0_181_2222)">
<mask id="mask1_181_2222" style="mask-type:alpha" maskUnits="userSpaceOnUse" x="0" y="0" width="48" height="48">
<circle cx="24" cy="24" r="24" fill="#D9D9D9"/>
</mask>
<g mask="url(#mask1_181_2222)">
<path d="M23.5737 32.2191H-14V24.6055C-14 24.2451 -13.7099 23.9529 -13.3521 23.9529H22.9259C23.2836 23.9529 23.5737 24.2451 23.5737 24.6055L23.5737 32.2191Z" fill="#464655"/>
<path d="M22.9259 48H-13.3521C-13.7099 48 -14 47.7078 -14 47.3474V39.7338H23.5737V47.3474C23.5737 47.7078 23.2836 48 22.9259 48Z" fill="#FFE15A"/>
<path d="M23.5737 32.219H-14V39.7337H23.5737V32.219Z" fill="#FF4B55"/>
<path d="M33 24H24.4655C24.2085 24 24 23.7172 24 23.3684V0.631607C24 0.282821 24.2085 0 24.4655 0H33V24Z" fill="#73AF00"/>
<path d="M42 0H33V24H42V0Z" fill="#F5F5F5"/>
<path d="M50.5345 24H42V0H50.5345C50.7915 0 51 0.282821 51 0.631609V23.3685C51 23.7173 50.7915 24 50.5345 24Z" fill="#FF4B55"/>
<path d="M5.19127 23.9524H-3.52457C-3.78711 23.9524 -4 23.669 -4 23.3195V0.538476C-4 0.189011 -3.78711 -0.0943604 -3.52457 -0.0943604H5.19127V23.9524Z" fill="#0052B4"/>
<path d="M14.3828 -0.0939941H5.19141V23.9528H14.3828V-0.0939941Z" fill="#F5F5F5"/>
<path d="M23.0977 23.9524H14.3818V-0.0942383H23.0977C23.3602 -0.0942383 23.5731 0.189133 23.5731 0.538598V23.3196C23.5731 23.6692 23.3602 23.9524 23.0977 23.9524Z" fill="#FF4B55"/>
<path d="M60.5 48H24.2221C23.8643 48 23.5742 47.7166 23.5742 47.3671V24.5857C23.5742 24.2363 23.8643 23.9529 24.2221 23.9529H60.5C60.8578 23.9529 61.1479 24.2363 61.1479 24.5857V47.3671C61.1478 47.7166 60.8577 48 60.5 48Z" fill="#0052B4"/>
<path d="M61.1478 24.5857C61.1478 24.2363 60.8577 23.9529 60.5 23.9529H57.6016L45.6 31.6339V23.9529H39.1218V31.6339L27.1204 23.9529H24.2221C23.8643 23.9529 23.5742 24.2363 23.5742 24.5857V26.2224L33.8709 32.8123H23.5742V39.1405H33.8709L23.5742 45.7305V47.3671C23.5742 47.7166 23.8643 48 24.2221 48H27.1204L39.122 40.319V48H45.6002V40.319L57.6017 48H60.5001C60.8579 48 61.148 47.7166 61.148 47.3671V45.7305L50.8512 39.1406H61.1478V32.8124H50.8511L61.1478 26.2224V24.5857Z" fill="#F5F5F5"/>
<path d="M61.1478 34.078H44.3045V23.9529H40.4175V34.078H23.5742V37.8749H40.4175V48H44.3045V37.8749H61.1478V34.078Z" fill="#FF4B55"/>
<path d="M36.7067 39.1405L23.5928 47.4559C23.6386 47.7615 23.8966 48 24.2222 48H25.1145L39.0864 39.1406H36.7067V39.1405V39.1405Z" fill="#FF4B55"/>
<path d="M48.995 39.1405H46.6152L60.5669 47.9869C60.892 47.953 61.1487 47.6937 61.1487 47.3671V46.8468L48.995 39.1405Z" fill="#FF4B55"/>
<path d="M23.5742 25.2844L35.4465 32.8124H37.8263L23.9516 24.0146C23.73 24.1152 23.5742 24.3314 23.5742 24.5858V25.2844Z" fill="#FF4B55"/>
<path d="M47.9803 32.8124L61.1257 24.477C61.0711 24.1815 60.8187 23.953 60.5004 23.953H59.5723L45.6006 32.8124H47.9803Z" fill="#FF4B55"/>
<path fill-rule="evenodd" clip-rule="evenodd" d="M23 23V0H25V23H48V25H25V48H23V25H0V23H23Z" fill="#FFFDFB"/>
</g>
</g>
</svg>
