<svg xmlns="http://www.w3.org/2000/svg" width="48" height="49" fill="none"><g clip-path="url(#a)"><path fill="#F0F0F0" d="M24 48.01c13.255 0 24-10.744 24-24 0-13.254-10.745-24-24-24s-24 10.746-24 24c0 13.256 10.745 24 24 24"/><path fill="#D80027" d="M2.918 12.533h42.164C41.012 5.073 33.097.01 24 .01S6.989 5.072 2.918 12.533M24 48.01c9.097 0 17.011-5.06 21.082-12.521H2.918C6.988 42.949 14.903 48.011 24 48.011"/><path fill="#FFDA44" d="M32.348 24.01c0 4.611-3.738 7.305-8.348 7.305s-8.348-2.694-8.348-7.304a8.348 8.348 0 0 1 16.696 0"/><path fill="#0052B4" d="M32.348 24.01a8.348 8.348 0 1 1-16.696 0"/><path fill="#D80027" d="M18.782 21.924h2.087v4.174h-2.087zM27.13 21.924h2.087v4.174H27.13zM22.956 18.794h2.087v7.304h-2.087z"/></g><defs><clipPath id="a"><path fill="#fff" d="M0 .01h48v48H0z"/></clipPath></defs></svg>
