<svg xmlns="http://www.w3.org/2000/svg" width="48" height="48" fill="none"><g clip-path="url(#a)"><path fill="#000" d="M40.97 40.97c-9.372 9.373-24.568 9.373-33.94 0-9.373-9.372-9.373-24.568 0-33.94 9.372-9.373 23.092-7.898 32.465 1.475 9.372 9.373 10.848 23.093 1.476 32.466"/><path fill="#A2001D" d="M7.03 7.03c9.372-9.373 24.568-9.373 33.94 0 9.373 9.372 9.373 24.568 0 33.94"/><path fill="#F0F0F0" d="m18.343 32.348.389 1.196h1.257l-1.017.739.388 1.195-1.017-.739-1.017.74.388-1.196-1.017-.74h1.258zM15.132 20.87l.647 1.993h2.096l-1.696 1.231.648 1.993-1.695-1.232-1.696 1.232.648-1.993-1.695-1.231h2.095zM15.132 35.479l.647 1.992h2.096l-1.696 1.232.648 1.993-1.695-1.232-1.696 1.232.648-1.993-1.695-1.232h2.095zM21.259 26.087l.647 1.993h2.096l-1.696 1.232.648 1.992-1.695-1.231-1.696 1.232.648-1.993-1.695-1.232h2.095zM9.005 26.087l.647 1.993h2.096l-1.696 1.232.648 1.992-1.695-1.231-1.696 1.232.648-1.994-1.695-1.231h2.095z"/><path fill="#FFDA44" d="M40.176 17.771a6.2 6.2 0 0 0-3.964-1.815l4.483-3.487a8.33 8.33 0 0 0-6.514-2.421 6.23 6.23 0 0 0-1.602-2.744l-1.771 3.542a2.609 2.609 0 1 0-3.542 3.542l-3.541 1.77a6.23 6.23 0 0 0 2.745 1.604 8.32 8.32 0 0 0 2.42 6.513l3.916-5.036c.295-.29.684-.45 1.098-.45.418 0 .811.162 1.107.458s.458.689.458 1.107-.162.811-.458 1.107l1.476 1.476a3.63 3.63 0 0 0 1.07-2.583c0-.798-.255-1.557-.725-2.184a4.15 4.15 0 0 1 1.868 1.077 4.18 4.18 0 0 1 0 5.903l1.476 1.476a6.22 6.22 0 0 0 1.834-4.427 6.22 6.22 0 0 0-1.834-4.428"/></g><defs><clipPath id="a"><path fill="#fff" d="M0 0h48v48H0z"/></clipPath></defs></svg>
