<svg xmlns="http://www.w3.org/2000/svg" width="48" height="48" fill="none"><g clip-path="url(#a)"><path fill="#F0F0F0" d="M24 48c13.255 0 24-10.745 24-24S37.255 0 24 0 0 10.745 0 24s10.745 24 24 24"/><path fill="#D80027" d="M24 0v24L7.03 40.97A23.93 23.93 0 0 0 24 48c13.255 0 24-10.745 24-24S24 0 24 0"/><path fill="#0052B4" d="M24 0A23.93 23.93 0 0 0 7.03 7.03L24 24h24C48 10.745 37.255 0 24 0"/><path fill="#FFDA44" d="m16.435 24-2.931-1.379 1.56-2.838-3.182.609-.404-3.216-2.217 2.365-2.217-2.365-.403 3.216-3.183-.61 1.561 2.84L2.088 24l2.931 1.379-1.56 2.838 3.182-.608.403 3.215 2.217-2.365 2.217 2.365.404-3.215 3.182.608-1.56-2.838zM6.402 9.391l.975 1.364 1.598-.506-.995 1.348.975 1.364-1.59-.53-.996 1.349.012-1.676-1.59-.53 1.598-.506zM6.402 34.22l.975 1.364 1.598-.507-.995 1.35.975 1.363-1.59-.53-.996 1.349.012-1.677-1.59-.53 1.598-.505zM20.314 21.806l-.976 1.363-1.598-.506.996 1.349-.976 1.363 1.59-.53.996 1.35-.012-1.677 1.59-.53-1.598-.506z"/></g><defs><clipPath id="a"><path fill="#fff" d="M0 0h48v48H0z"/></clipPath></defs></svg>
