<svg xmlns="http://www.w3.org/2000/svg" width="48" height="48" fill="none"><g clip-path="url(#a)"><path fill="#F0F0F0" d="M24 48c13.255 0 24-10.745 24-24S37.255 0 24 0 0 10.745 0 24s10.745 24 24 24"/><path fill="#F0F0F0" d="M0 24c0 9.097 5.061 17.011 12.522 21.082V2.918C5.062 6.988 0 14.903 0 24"/><path fill="#496E2D" d="M24 0a23.9 23.9 0 0 0-11.478 2.918v42.164A23.9 23.9 0 0 0 24 48c13.255 0 24-10.745 24-24S37.255 0 24 0"/><path fill="#F0F0F0" d="M34.261 27.97a6.783 6.783 0 1 1-4.852-12.225 8.348 8.348 0 1 0 6.99 9.674 6.75 6.75 0 0 1-2.138 2.55M34.132 15.652l1.71 1.844 2.282-1.057-1.225 2.196 1.71 1.843-2.467-.486-1.224 2.196-.3-2.496-2.468-.486 2.282-1.057z"/></g><defs><clipPath id="a"><path fill="#fff" d="M0 0h48v48H0z"/></clipPath></defs></svg>
