<svg xmlns="http://www.w3.org/2000/svg" width="48" height="48" fill="none"><g clip-path="url(#a)"><path fill="#0052B4" d="M48 24c0 13.255-10.745 24-24 24S0 37.255 0 24C0 24.006 24 .003 24 0c13.255 0 24 10.745 24 24"/><path fill="#F0F0F0" d="M23.936 24H24v-.064z"/><path fill="#F0F0F0" d="M24 12.522V0h-.004C10.743.002 0 10.747 0 24h12.522v-7.051L19.572 24h4.364l.064-.064v-4.363l-7.051-7.051z"/><path fill="#D80027" d="M12.143 3.13a24.1 24.1 0 0 0-9.012 9.012V24h6.26V9.391h14.61v-6.26z"/><path fill="#D80027" d="m24 21.049-8.527-8.527H12.52L24 24z"/><path fill="#ACABB1" d="m37.566 14.609-3.13 1.043-3.13-1.043L30.261 12l1.043-2.609h6.261L36.522 12z"/><path fill="#338AF3" d="M27.13 14.609v11.478c0 5.591 7.305 7.304 7.305 7.304s7.304-1.713 7.304-7.304V14.609z"/><path fill="#6DA544" d="M27.79 28.806c1.795 3.447 6.645 4.585 6.645 4.585s4.85-1.138 6.646-4.585L34.435 17.74z"/><path fill="#FFDA44" d="M41.74 25.97 34.435 14.61 27.131 25.97v.116c0 1.035.25 1.936.658 2.72l6.646-10.34 6.646 10.339a5.8 5.8 0 0 0 .658-2.72z"/></g><defs><clipPath id="a"><path fill="#fff" d="M0 0h48v48H0z"/></clipPath></defs></svg>
