<svg xmlns="http://www.w3.org/2000/svg" width="48" height="48" fill="none"><g clip-path="url(#a)"><path fill="#F0F0F0" d="M24 48c13.255 0 24-10.745 24-24S37.255 0 24 0 0 10.745 0 24s10.745 24 24 24"/><path fill="#D80027" d="M24 0C16.148 0 9.177 3.77 4.799 9.6H43.2C38.822 3.77 31.85 0 24 0M24 48c7.852 0 14.822-3.77 19.2-9.6H4.8c4.378 5.83 11.35 9.6 19.2 9.6M0 24c0 1.644.166 3.25.48 4.8h47.04c.314-1.55.48-3.156.48-4.8s-.166-3.25-.48-4.8H.48A24 24 0 0 0 0 24"/><path fill="#0052B4" d="M7.03 7.03c-9.373 9.372-9.373 24.568 0 33.94L24 24z"/><path fill="#F0F0F0" d="m9.714 17.739 1.554 4.783h5.03l-4.07 2.956 1.554 4.783-4.068-2.956-4.069 2.956L7.2 25.478l-4.068-2.956H8.16z"/></g><defs><clipPath id="a"><path fill="#fff" d="M0 0h48v48H0z"/></clipPath></defs></svg>
