<svg xmlns="http://www.w3.org/2000/svg" width="48" height="48" fill="none"><g clip-path="url(#a)"><path fill="#6DA544" d="M0 24c0 10.32 6.513 19.116 15.652 22.507L17.739 24 15.652 1.493C6.513 4.883 0 13.68 0 24"/><path fill="#D80027" d="M48 24C48 10.745 37.255 0 24 0a24 24 0 0 0-8.348 1.493v45.014C18.252 47.472 21.065 48 24 48c13.255 0 24-10.745 24-24"/><path fill="#FFDA44" d="M15.653 32.348a8.348 8.348 0 1 0 0-16.696 8.348 8.348 0 0 0 0 16.696"/><path fill="#D80027" d="M10.957 19.826v5.218a4.696 4.696 0 1 0 9.391 0v-5.218z"/><path fill="#F0F0F0" d="M15.653 26.609a1.567 1.567 0 0 1-1.565-1.566v-2.087h3.13v2.088c0 .863-.702 1.565-1.565 1.565"/></g><defs><clipPath id="a"><path fill="#fff" d="M0 0h48v48H0z"/></clipPath></defs></svg>
