<svg xmlns="http://www.w3.org/2000/svg" width="48" height="48" fill="none"><g clip-path="url(#a)"><path fill="#F0F0F0" d="M24 48c13.255 0 24-10.745 24-24S37.255 0 24 0 0 10.745 0 24s10.745 24 24 24"/><path fill="#D80027" d="M24 0C14.483 0 6.262 5.537 2.38 13.565h43.238C41.736 5.537 33.514 0 23.999 0"/><path fill="#0052B4" d="M24 48c9.514 0 17.736-5.537 21.618-13.565H2.381C6.263 42.463 14.484 48 23.999 48"/><path fill="#6DA544" d="m29.903 17.054-2.214 2.213a5.217 5.217 0 1 1-7.378 0l-2.214-2.213a8.348 8.348 0 1 0 11.805 0"/><path fill="#FFDA44" d="m24 19.826.778 2.392h2.514l-2.034 1.478.777 2.391L24 24.61l-2.034 1.478.777-2.391-2.034-1.478h2.515z"/></g><defs><clipPath id="a"><path fill="#fff" d="M0 0h48v48H0z"/></clipPath></defs></svg>
