<svg xmlns="http://www.w3.org/2000/svg" width="48" height="48" fill="none"><g clip-path="url(#a)"><path fill="#F0F0F0" d="M24 48c13.255 0 24-10.745 24-24S37.255 0 24 0 0 10.745 0 24s10.745 24 24 24"/><path fill="#751A46" d="M48 24C48 10.745 37.253 0 24 0c-4.696 0-9.075 1.35-12.774 3.68l5.26 2.235L9.391 8.93l7.095 3.014-7.095 3.015 7.095 3.015-7.095 3.014 7.095 3.014-7.095 3.014 7.095 3.015-7.095 3.014 7.095 3.014-7.095 3.015 7.095 3.014-5.258 2.234A23.9 23.9 0 0 0 23.999 48c13.255 0 24-10.745 24-24"/></g><defs><clipPath id="a"><path fill="#fff" d="M0 0h48v48H0z"/></clipPath></defs></svg>
