<svg xmlns="http://www.w3.org/2000/svg" width="48" height="49" fill="none"><g clip-path="url(#a)"><path fill="#FFDA44" d="M32.347 1.503A24 24 0 0 0 23.999.011c-2.935 0-5.748.528-8.348 1.492l-2.086 22.508 2.086 22.507c2.6.965 5.412 1.493 8.348 1.493s5.748-.528 8.348-1.493l2.087-22.507z"/><path fill="#D80027" d="M48 24.01c0-10.318-6.513-19.116-15.652-22.506v45.014C41.487 43.127 48 34.33 48 24.011"/><path fill="#0052B4" d="M0 24.01c0 10.32 6.513 19.117 15.652 22.508V1.504C6.513 4.894 0 13.692 0 24.01"/></g><defs><clipPath id="a"><path fill="#fff" d="M0 .01h48v48H0z"/></clipPath></defs></svg>
