<svg xmlns="http://www.w3.org/2000/svg" width="48" height="49" fill="none"><g clip-path="url(#a)"><path fill="#F0F0F0" d="M24 48.01c13.255 0 24-10.744 24-24 0-13.254-10.745-24-24-24s-24 10.746-24 24c0 13.256 10.745 24 24 24"/><path fill="#0052B4" d="M24 .01c-13.255 0-24 10.746-24 24 0 2.936.528 5.749 1.493 8.348h45.014A24 24 0 0 0 48 24.011c0-13.255-10.745-24-24-24"/><path fill="#D80027" d="M24 .01C13.68.01 4.882 6.525 1.491 15.664h45.015C43.116 6.523 34.319.011 23.999.011"/><path fill="#D80027" d="M6.205 13.576v11.972c0 6.81 8.897 8.898 8.897 8.898s8.897-2.087 8.897-8.898V13.576z"/><path fill="#FFDA44" d="M9.885 15.663H20.32v-4.174l-2.087 1.043-3.13-3.13-3.131 3.13-2.087-1.043zM21.913 27.215l-6.783-6.782-6.782 6.782 2.213 2.214 4.57-4.57 4.568 4.57z"/><path fill="#F0F0F0" d="M21.913 20.88h-3.165a2.087 2.087 0 1 0-3.645-2.028 2.086 2.086 0 1 0-3.646 2.028h-3.11c0 1.153 1.005 2.087 2.157 2.087h-.07c0 1.153.935 2.087 2.088 2.087 0 1.02.732 1.869 1.7 2.05l-1.644 3.713c.788.32 1.65.498 2.552.498s1.765-.178 2.553-.498l-1.645-3.713a2.09 2.09 0 0 0 1.701-2.05 2.087 2.087 0 0 0 2.087-2.087h-.07c1.153 0 2.157-.934 2.157-2.087"/></g><defs><clipPath id="a"><path fill="#fff" d="M0 .01h48v48H0z"/></clipPath></defs></svg>
