<svg xmlns="http://www.w3.org/2000/svg" width="48" height="49" fill="none"><g clip-path="url(#a)"><path fill="#F0F0F0" d="M24 48.01c13.255 0 24-10.744 24-24 0-13.254-10.745-24-24-24s-24 10.746-24 24c0 13.256 10.745 24 24 24"/><path fill="#0052B4" d="M46.507 32.359A24 24 0 0 0 48 24.01c0-2.936-.528-5.748-1.493-8.348H1.493A24 24 0 0 0 0 24.011c0 2.935.528 5.748 1.493 8.348L24 34.446z"/><path fill="#D80027" d="M24 48.01c10.319 0 19.116-6.512 22.507-15.651H1.492C4.883 41.498 13.68 48.01 24 48.01"/></g><defs><clipPath id="a"><path fill="#fff" d="M0 .01h48v48H0z"/></clipPath></defs></svg>
