<svg xmlns="http://www.w3.org/2000/svg" width="48" height="49" fill="none"><g clip-path="url(#a)"><path fill="#FFDA44" d="M0 24.01c0 4.159 1.058 8.07 2.918 11.479L24 37.576l21.082-2.087A23.9 23.9 0 0 0 48 24.011l-24-2.087z"/><path fill="#338AF3" d="M45.082 12.533C41.012 5.073 33.097.01 24 .01S6.989 5.072 2.918 12.533A23.9 23.9 0 0 0 0 24.01h48c0-4.158-1.058-8.069-2.918-11.478"/><path fill="#496E2D" d="M24 48.01c9.097 0 17.011-5.06 21.082-12.521H2.918C6.988 42.949 14.903 48.011 24 48.011"/><path fill="#FFDA44" d="m27.13 14.056 2.932 1.38-1.56 2.838 3.182-.609.403 3.215 2.217-2.364 2.217 2.364.403-3.215 3.183.609-1.56-2.839 2.93-1.379-2.93-1.378 1.56-2.839-3.182.609-.404-3.215-2.217 2.364-2.217-2.364-.403 3.215-3.183-.609 1.561 2.839z"/></g><defs><clipPath id="a"><path fill="#fff" d="M0 .01h48v48H0z"/></clipPath></defs></svg>
