<svg xmlns="http://www.w3.org/2000/svg" width="48" height="49" fill="none"><g clip-path="url(#a)"><path fill="#6DA544" d="M24 48.01c13.255 0 24-10.744 24-24 0-13.254-10.745-24-24-24s-24 10.746-24 24c0 13.256 10.745 24 24 24"/><path fill="#F0F0F0" d="M13.565 28.707a3.13 3.13 0 0 0 3.13 3.13h9.391a2.61 2.61 0 0 0 2.609 2.609h3.13a2.61 2.61 0 0 0 2.609-2.61v-3.13zM34.696 13.576v7.304a2.09 2.09 0 0 1-2.087 2.087v3.13a5.223 5.223 0 0 0 5.218-5.217v-7.304zM12.26 20.88a2.09 2.09 0 0 1-2.086 2.087v3.13a5.223 5.223 0 0 0 5.217-5.217v-7.304h-3.13z"/><path fill="#F0F0F0" d="M30 13.576h3.13v7.304H30zM25.305 17.75a.522.522 0 0 1-1.044 0v-4.174h-3.13v4.174a.522.522 0 0 1-1.044 0v-4.174h-3.13v4.174a3.656 3.656 0 0 0 3.652 3.652 3.63 3.63 0 0 0 2.087-.658 3.63 3.63 0 0 0 2.548.628 2.09 2.09 0 0 1-2.026 1.595v3.13a5.223 5.223 0 0 0 5.217-5.217v-7.304h-3.13z"/><path fill="#F0F0F0" d="M16.957 22.967h4.696v3.13h-4.696z"/></g><defs><clipPath id="a"><path fill="#fff" d="M0 .01h48v48H0z"/></clipPath></defs></svg>
