<svg xmlns="http://www.w3.org/2000/svg" width="48" height="49" fill="none"><g clip-path="url(#a)"><path fill="#496E2D" d="M40.97 40.982c9.002-9.001 9.357-23.371 1.07-32.799L24 24.011 8.172 42.05c9.427 8.287 23.798 7.932 32.799-1.069"/><path fill="#0052B4" d="M7.029 7.04c9-9.001 23.371-9.357 32.799-1.07L24 24.01 5.959 39.838c-8.287-9.427-7.931-23.797 1.07-32.798"/><path fill="#FFDA44" d="M39.828 5.97 5.959 39.837q.513.586 1.07 1.144.558.557 1.144 1.07L42.04 8.183q-.512-.585-1.07-1.144a24 24 0 0 0-1.143-1.07"/><path fill="#F0F0F0" d="m10.112 8.358.518 1.594h1.677l-1.356.986.518 1.594-1.357-.985-1.356.985.518-1.594-1.356-.986h1.676zM18.675 8.358l.518 1.594h1.676l-1.356.986.518 1.594-1.356-.985-1.356.985.518-1.594-1.357-.986h1.677zM10.112 16.706l.518 1.595h1.677l-1.356.985.518 1.594-1.357-.985-1.356.985.518-1.594-1.356-.986h1.676zM18.675 16.706l.518 1.595h1.676l-1.356.985.518 1.594-1.356-.985-1.356.985.518-1.594-1.357-.986h1.677zM14.394 12.532l.518 1.594h1.676l-1.356.986.518 1.594-1.356-.985-1.357.985.518-1.594-1.356-.986h1.677z"/></g><defs><clipPath id="a"><path fill="#fff" d="M0 .01h48v48H0z"/></clipPath></defs></svg>
