<svg xmlns="http://www.w3.org/2000/svg" width="48" height="49" fill="none"><g clip-path="url(#a)"><path fill="#F0F0F0" d="M24 48.01c13.255 0 24-10.744 24-24 0-13.254-10.745-24-24-24s-24 10.746-24 24c0 13.256 10.745 24 24 24"/><path fill="#FFDA44" d="M40.201 6.305A23.9 23.9 0 0 0 24.001.01q-1.535.001-3.019.188L9.392 13.576.76 30.023a23.9 23.9 0 0 0 2.51 6.086L24 24.011z"/><path fill="#6DA544" d="m43.98 37.308-33.578 6.48A23.9 23.9 0 0 0 24 48.011c8.336 0 15.678-4.251 19.98-10.703"/><path fill="#D80027" d="M40.204 6.308 3.284 36.132a24 24 0 0 0 3.438 4.535L48 24.01c0-7.009-3.005-13.315-7.796-17.703"/><path fill="#0052B4" d="M0 24.01c0 2.077.264 4.092.76 6.013L20.981.199C9.152 1.684 0 11.78 0 24.011"/></g><defs><clipPath id="a"><path fill="#fff" d="M0 .01h48v48H0z"/></clipPath></defs></svg>
