<svg xmlns="http://www.w3.org/2000/svg" width="48" height="48" fill="none"><g clip-path="url(#a)"><path fill="#FFDA44" d="M24 48c13.255 0 24-10.745 24-24S37.255 0 24 0 0 10.745 0 24s10.745 24 24 24"/><path fill="#0052B4" d="M18.783 20.87h29.014C46.263 9.094 36.194 0 24.001 0c-1.792 0-3.538.198-5.218.57zM12.522 20.87V2.917C5.932 6.514 1.214 13.11.203 20.87zM12.522 27.13H.203c1.011 7.76 5.729 14.356 12.319 17.952zM18.783 27.13v20.3c1.68.372 3.426.57 5.218.57 12.193 0 22.262-9.094 23.796-20.87z"/></g><defs><clipPath id="a"><path fill="#fff" d="M0 0h48v48H0z"/></clipPath></defs></svg>
