<svg xmlns="http://www.w3.org/2000/svg" width="48" height="49" fill="none"><g clip-path="url(#a)"><path fill="#F0F0F0" d="M24 48.01c13.255 0 24-10.744 24-24 0-13.254-10.745-24-24-24s-24 10.746-24 24c0 13.256 10.745 24 24 24"/><path fill="#D80027" d="M0 24.01c0-13.254 10.745-24 24-24s24 10.746 24 24"/><path fill="#F0F0F0" d="M14.609 12.532a7.306 7.306 0 0 1 5.74-7.134 7.304 7.304 0 1 0 0 14.269 7.306 7.306 0 0 1-5.74-7.135M24.001 5.75l.518 1.594h1.676l-1.356.985.518 1.595-1.356-.986-1.356.986.518-1.595-1.356-.985h1.676z"/><path fill="#F0F0F0" d="m19.935 8.88.518 1.594h1.676l-1.356.986.518 1.594-1.356-.985-1.357.985.518-1.594-1.356-.986h1.677zM28.067 8.88l.518 1.594h1.677l-1.357.986.519 1.594-1.357-.985-1.356.985.518-1.594-1.356-.986h1.676zM26.501 13.576l.518 1.594h1.676l-1.356.986.518 1.594-1.356-.985-1.356.985.518-1.594-1.356-.986h1.676zM21.5 13.576l.517 1.594h1.677l-1.357.985.518 1.595-1.356-.986-1.356.986.518-1.595-1.356-.985h1.676z"/></g><defs><clipPath id="a"><path fill="#fff" d="M0 .01h48v48H0z"/></clipPath></defs></svg>
