<svg xmlns="http://www.w3.org/2000/svg" width="48" height="49" fill="none"><g clip-path="url(#a)"><path fill="#F0F0F0" d="M24 48.012c13.255 0 24-10.745 24-24s-10.745-24-24-24-24 10.745-24 24 10.745 24 24 24"/><path fill="#0052B4" d="M24 48.012c13.255 0 24-10.745 24-24 0-2.936-.528-5.748-1.493-8.348H1.493A24 24 0 0 0 0 24.012c0 13.255 10.745 24 24 24"/><path fill="#D80027" d="M24 48.012c10.319 0 19.116-6.513 22.507-15.652H1.492C4.883 41.499 13.68 48.012 24 48.012"/><path fill="#F0F0F0" d="M6.207 13.577v11.972c0 6.81 8.897 8.898 8.897 8.898s8.897-2.087 8.897-8.898V13.577z"/><path fill="#D80027" d="M8.293 13.577v11.972q.001 1.2.53 2.263h12.56q.529-1.062.53-2.263V13.577z"/><path fill="#F0F0F0" d="M19.278 21.925h-3.13v-2.087h2.086V17.75h-2.087v-2.087H14.06v2.087h-2.087v2.087h2.087v2.087h-3.13v2.087h3.13v2.087h2.087v-2.087h3.13z"/><path fill="#0052B4" d="M11.669 30.725c1.345.845 2.726 1.336 3.434 1.554.707-.218 2.089-.709 3.434-1.554 1.356-.852 2.307-1.827 2.846-2.913a3.64 3.64 0 0 0-2.937-.574 3.652 3.652 0 0 0-6.687 0 3.635 3.635 0 0 0-2.937.574c.54 1.086 1.49 2.06 2.847 2.913"/></g><defs><clipPath id="a"><path fill="#fff" d="M0 .012h48v48H0z"/></clipPath></defs></svg>
