<svg xmlns="http://www.w3.org/2000/svg" width="48" height="49" fill="none"><g clip-path="url(#a)"><path fill="#F0F0F0" d="M46.507 32.358A24 24 0 0 0 48 24.01c0-2.936-.528-5.748-1.493-8.348L24 13.575 1.493 15.662A24 24 0 0 0 0 24.01c0 2.935.528 5.748 1.493 8.348L24 34.445z"/><path fill="#338AF3" d="M24 48.01c10.319 0 19.116-6.513 22.507-15.652H1.492C4.883 41.497 13.68 48.01 24 48.01"/><path fill="#6DA544" d="M24 .01C13.68.01 4.883 6.523 1.492 15.662h45.015C43.116 6.522 34.319.01 24 .01"/></g><defs><clipPath id="a"><path fill="#fff" d="M0 .01h48v48H0z"/></clipPath></defs></svg>
