<svg xmlns="http://www.w3.org/2000/svg" width="48" height="49" fill="none"><g clip-path="url(#a)"><path fill="#338AF3" d="M48 24.01c0 13.256-10.745 24-24 24s-24-10.744-24-24c1.043 0 24-3.13 24-3.13z"/><path fill="#F0F0F0" d="M0 24.01c0-13.254 10.745-24 24-24s24 10.746 24 24"/><path fill="#6DA544" d="M33.526 16.571 24 26.098l-9.527-9.527a11.4 11.4 0 0 0-1.952 6.396v3.13c0 5.027 3.249 9.309 7.756 10.859a3.47 3.47 0 0 0 .381 3.75l3.411-2.733 3.411 2.733a3.47 3.47 0 0 0 .36-3.792c4.446-1.584 7.638-5.834 7.638-10.817v-3.13c0-2.366-.72-4.567-1.952-6.396"/><path fill="#FFDA44" d="M24 34.446c-4.603 0-8.348-3.745-8.348-8.348v-3.13c0-4.604 3.745-8.348 8.348-8.348s8.348 3.744 8.348 8.347v3.13c0 4.604-3.745 8.349-8.348 8.349"/><path fill="#338AF3" d="M29.218 26.098v-3.13a5.223 5.223 0 0 0-5.217-5.218 5.223 5.223 0 0 0-5.218 5.217v3.13l5.218 1.044z"/><path fill="#6DA544" d="M18.783 26.098a5.223 5.223 0 0 0 5.218 5.217 5.223 5.223 0 0 0 5.217-5.217z"/><path fill="#FFDA44" d="M30.26 14.62a3.13 3.13 0 0 0-5.217-2.333v-1.841h1.043V8.359h-1.043V7.315h-2.087V8.36h-1.044v2.087h1.044v1.84a3.13 3.13 0 0 0-4.174 4.665v1.843h10.435v-1.842a3.12 3.12 0 0 0 1.043-2.333"/></g><defs><clipPath id="a"><path fill="#fff" d="M0 .01h48v48H0z"/></clipPath></defs></svg>
