<svg xmlns="http://www.w3.org/2000/svg" width="48" height="49" fill="none"><g clip-path="url(#a)"><path fill="#FFDA44" d="M34.435 2.392A23.9 23.9 0 0 0 24 .011c-3.74 0-7.28.855-10.434 2.381l-2.088 21.619 2.088 21.618A23.9 23.9 0 0 0 24 48.011c3.74 0 7.28-.856 10.435-2.382l2.087-21.618z"/><path fill="#496E2D" d="m24 15.663 2.072 6.377h6.706l-5.425 3.941 2.072 6.377L24 28.418l-5.425 3.94 2.072-6.377-5.424-3.941h6.705zM13.565 2.393C5.537 6.275 0 14.496 0 24.011s5.537 17.736 13.565 21.617z"/><path fill="#D80027" d="M34.436 2.393V45.63C42.463 41.747 48 33.526 48 24.01S42.463 6.275 34.436 2.393"/></g><defs><clipPath id="a"><path fill="#fff" d="M0 .01h48v48H0z"/></clipPath></defs></svg>
