<svg xmlns="http://www.w3.org/2000/svg" width="48" height="48" fill="none"><g clip-path="url(#a)"><path fill="#F0F0F0" d="M24 48c13.255 0 24-10.745 24-24S37.255 0 24 0 0 10.745 0 24s10.745 24 24 24"/><path fill="#A2001D" d="M46.507 15.652H1.493A24 24 0 0 0 0 24c0 2.936.528 5.748 1.493 8.348h45.014A24 24 0 0 0 48 24c0-2.936-.528-5.748-1.493-8.348"/><path fill="#6DA544" d="M24.07 48c8.22 0 15.473-4.134 19.799-10.435h-39.6C8.596 43.866 15.85 48 24.07 48M24.07 0c8.22 0 15.473 4.134 19.799 10.435h-39.6C8.596 4.134 15.85 0 24.07 0"/><path fill="#FFDA44" d="m24 15.652 2.072 6.377h6.706l-5.425 3.942 2.072 6.377L24 28.407l-5.425 3.94 2.073-6.376-5.425-3.942h6.705z"/></g><defs><clipPath id="a"><path fill="#fff" d="M0 0h48v48H0z"/></clipPath></defs></svg>
