<svg xmlns="http://www.w3.org/2000/svg" width="48" height="49" fill="none"><g clip-path="url(#a)"><path fill="#F0F0F0" d="M24 48.01c13.255 0 24-10.744 24-24 0-13.254-10.745-24-24-24s-24 10.746-24 24c0 13.256 10.745 24 24 24"/><path fill="#000" d="M46.127 14.706C42.492 6.073 33.954.011 23.999.011A23.92 23.92 0 0 0 7.03 7.04l6.01 7.665z"/><path fill="#496E2D" d="m13.108 33.228-6.079 7.753A23.92 23.92 0 0 0 24 48.01c9.989 0 18.551-6.103 22.165-14.783z"/><path fill="#A2001D" d="M5.217 17.663v12.609h41.956c.538-1.997.826-4.095.826-6.261 0-2.198-.296-4.326-.849-6.348z"/><path fill="#0052B4" d="M7.03 7.04c-9.373 9.373-9.373 24.569 0 33.941L24 24.011z"/><path fill="#FFDA44" d="m7.818 18.044 2.929 4.087 4.793-1.523-2.982 4.05 2.93 4.087-4.773-1.585-2.983 4.05.033-5.03-4.773-1.585 4.793-1.522z"/></g><defs><clipPath id="a"><path fill="#fff" d="M0 .01h48v48H0z"/></clipPath></defs></svg>
