<svg xmlns="http://www.w3.org/2000/svg" width="48" height="49" fill="none"><g clip-path="url(#a)"><path fill="#F0F0F0" d="M24 48.01c13.255 0 24-10.744 24-24 0-13.254-10.745-24-24-24s-24 10.746-24 24c0 13.256 10.745 24 24 24"/><path fill="#0052B4" d="M24 .01C14.485.01 6.264 5.549 2.382 13.577h43.237C41.737 5.548 33.515.011 24 .011M24 48.01c9.515 0 17.737-5.537 21.619-13.564H2.382C6.264 42.473 14.485 48.01 24 48.01"/><path fill="#FFDA44" d="M19.18 25.054 24 16.706l4.82 8.348z"/><path fill="#6DA544" d="m30.261 27.81-6.26 3.131-6.262-3.13v-4.174h12.522z"/><path fill="#FFDA44" d="m29.903 17.065-2.214 2.213a5.217 5.217 0 1 1-7.378 0l-2.214-2.213a8.348 8.348 0 1 0 11.805 0"/></g><defs><clipPath id="a"><path fill="#fff" d="M0 .01h48v48H0z"/></clipPath></defs></svg>
