<svg xmlns="http://www.w3.org/2000/svg" width="48" height="49" fill="none"><g clip-path="url(#a)"><path fill="#D80027" d="M21.913 26.098S7.043 7.037 7.029 7.04A23.93 23.93 0 0 1 24 .01c13.256 0 24 10.746 24 24z"/><path fill="#0052B4" d="M21.913 24.01S7.043 40.986 7.029 40.982A23.93 23.93 0 0 0 24 48.011c13.256 0 24-10.745 24-24z"/><path fill="#F0F0F0" d="M7.03 7.04c-9.373 9.373-9.373 24.569 0 33.941L24 24.011z"/><path fill="#FFDA44" d="M2.631 24.01a6.783 6.783 0 1 0 13.521 0zM9.392 20.88a2.087 2.087 0 1 0 0-4.174 2.087 2.087 0 0 0 0 4.174"/><path fill="#D80027" d="M4.695 18.272v6.782c0 3.595 4.696 4.696 4.696 4.696s4.696-1.101 4.696-4.696v-6.782z"/><path fill="#338AF3" d="M9.394 27.566c-.87-.314-2.61-1.115-2.61-2.512V20.36H12v4.695c0 1.402-1.74 2.201-2.607 2.512"/><path fill="#F3F3F3" d="M10.435 22.967v-1.043l-1.044-.522-1.043.522v1.043l-.522.522v2.087h3.13v-2.087z"/></g><defs><clipPath id="a"><path fill="#fff" d="M0 .01h48v48H0z"/></clipPath></defs></svg>
