<svg xmlns="http://www.w3.org/2000/svg" width="48" height="48" fill="none"><g clip-path="url(#a)"><path fill="#F0F0F0" d="M24 48c13.255 0 24-10.745 24-24S37.255 0 24 0 0 10.745 0 24s10.745 24 24 24"/><path fill="#D80027" d="M24 0C13.68 0 4.882 6.513 1.491 15.652h45.015C43.116 6.513 34.319 0 23.999 0"/><path fill="#000" d="M24 48c10.319 0 19.116-6.513 22.507-15.652H1.492C4.883 41.488 13.68 48 24 48"/><path fill="#6DA544" d="m14.34 18.261 1.294 3.986h4.191l-3.39 2.463 1.295 3.986-3.39-2.463-3.391 2.463 1.295-3.986-3.39-2.463h4.19zM33.66 18.261l1.295 3.986h4.19l-3.39 2.463 1.295 3.986-3.39-2.463-3.39 2.463 1.294-3.986-3.39-2.463h4.19z"/></g><defs><clipPath id="a"><path fill="#fff" d="M0 0h48v48H0z"/></clipPath></defs></svg>
