<svg xmlns="http://www.w3.org/2000/svg" width="48" height="48" fill="none"><g clip-path="url(#a)"><path fill="#FFDA44" d="M45.619 34.435A23.9 23.9 0 0 0 48 24c0-3.74-.856-7.28-2.381-10.435L24 12.522 2.381 13.565A23.9 23.9 0 0 0 0 24c0 3.74.856 7.28 2.381 10.435L24 35.478z"/><path fill="#000" d="M24 0C14.483 0 6.262 5.537 2.38 13.565h43.238C41.736 5.537 33.514 0 23.999 0"/><path fill="#0052B4" d="M24 48c-9.516 0-17.737-5.537-21.62-13.565h43.238C41.736 42.463 33.514 48 23.999 48"/><path fill="#A2001D" d="M46.867 16.696H1.133A24 24 0 0 0 0 24c0 2.547.398 5.001 1.133 7.304h45.734A24 24 0 0 0 48 24c0-2.547-.398-5.001-1.133-7.304"/><path fill="#FFDA44" d="M8.348 22.957h31.304v2.087H8.348zM12.522 18.783h22.956v2.087H12.521z"/><path fill="#F0F0F0" d="M35.627 24s-5.367 6.26-11.628 6.26c-6.26 0-6.26-6.26-6.26-6.26s0-6.261 6.26-6.261c6.261 0 11.628 6.26 11.628 6.26"/><path fill="#000" d="M24 30.26c-6.26 0-11.627-6.26-11.627-6.26S17.74 17.739 24 17.739"/><path fill="#F0F0F0" d="M19.826 21.913h2.087v4.174h-2.087z"/><path fill="#000" d="M26.088 21.913h2.087v4.174h-2.087z"/><path fill="#0052B4" d="M8.349 26.087a2.087 2.087 0 1 0 0-4.174 2.087 2.087 0 0 0 0 4.174M39.653 26.087a2.087 2.087 0 1 0 0-4.174 2.087 2.087 0 0 0 0 4.174"/></g><defs><clipPath id="a"><path fill="#fff" d="M0 0h48v48H0z"/></clipPath></defs></svg>
