<svg xmlns="http://www.w3.org/2000/svg" width="48" height="48" fill="none"><g clip-path="url(#a)"><path fill="#0052B4" d="M48 24c0 13.255-10.745 24-24 24S0 37.255 0 24C0 24.006 24 .003 24 0c13.255 0 24 10.745 24 24"/><path fill="#F0F0F0" d="M23.936 24H24v-.064z"/><path fill="#F0F0F0" d="M24 12.522V0h-.004C10.743.002 0 10.747 0 24h12.522v-7.051L19.572 24h4.364l.064-.064v-4.363l-7.051-7.051z"/><path fill="#D80027" d="M12.143 3.13a24.1 24.1 0 0 0-9.012 9.012V24h6.26V9.391h14.61v-6.26z"/><path fill="#D80027" d="m24 21.049-8.527-8.527H12.52L24 24z"/><path fill="#FFDA44" d="M27.13 12.522V24c0 5.591 7.305 7.304 7.305 7.304S41.74 29.591 41.74 24V12.522z"/><path fill="#FF9811" d="M33.39 16.696c0 1.152-.934 4.173-2.086 4.173-1.153 0-2.087-3.02-2.087-4.173s2.087-2.087 2.087-2.087 2.087.934 2.087 2.087"/><path fill="#A2001D" d="M38.928 18.969c.337-.822.6-2.023.6-2.621 0-.96-1.253-1.74-1.253-1.74s-1.252.78-1.252 1.74c0 .598.262 1.799.598 2.62l-.723 1.633a3.65 3.65 0 0 0 2.753 0z"/><path fill="#6DA544" d="M32.87 24s-1.044 2.087-1.044 4.174h5.218C37.044 26.087 36 24 36 24l-1.565-1.044z"/><path fill="#D80027" d="M36 24v-.522a1.565 1.565 0 0 0-3.13 0V24z"/></g><defs><clipPath id="a"><path fill="#fff" d="M0 0h48v48H0z"/></clipPath></defs></svg>
