<svg xmlns="http://www.w3.org/2000/svg" width="48" height="48" fill="none"><g clip-path="url(#a)"><path fill="#FFDA44" d="M24 0c-2.935 0-5.747.528-8.347 1.493L14.609 24l1.044 22.507C18.253 47.472 21.065 48 24 48c2.935 0 5.748-.528 8.348-1.493L33.392 24 32.349 1.493A24 24 0 0 0 24 0"/><path fill="#D80027" d="M48 24c0-10.32-6.513-19.116-15.652-22.507v45.014C41.487 43.117 48 34.32 48 24"/><path fill="#0052B4" d="M15.652 46.507V1.493C6.513 4.883 0 13.68 0 24s6.513 19.116 15.652 22.507"/></g><defs><clipPath id="a"><path fill="#fff" d="M0 0h48v48H0z"/></clipPath></defs></svg>
