<svg xmlns="http://www.w3.org/2000/svg" width="48" height="48" fill="none"><g clip-path="url(#a)"><path fill="#FFDA44" d="M24 48c13.255 0 24-10.745 24-24S37.255 0 24 0 0 10.745 0 24s10.745 24 24 24"/><path fill="#496E2D" d="M24 0c-.017 0-1.043 9.6-1.043 9.6h20.245C38.823 3.77 31.852 0 24 0M24 48c7.852 0 14.822-3.77 19.2-9.6H4.8c4.378 5.83 11.35 9.6 19.2 9.6M47.52 19.2H22.957L24 28.8h23.52c.315-1.551.48-3.156.48-4.8s-.165-3.25-.48-4.8"/><path fill="#D80027" d="M24 28.8V0C10.745 0 0 10.745 0 24c0 1.644.166 3.25.48 4.8z"/><path fill="#F0F0F0" d="m13.243 11.478 1.554 4.783h5.03l-4.07 2.956L17.313 24l-4.069-2.956L9.175 24l1.554-4.783-4.069-2.956h5.03z"/></g><defs><clipPath id="a"><path fill="#fff" d="M0 0h48v48H0z"/></clipPath></defs></svg>
