<svg xmlns="http://www.w3.org/2000/svg" width="48" height="48" fill="none"><g clip-path="url(#a)"><path fill="#F0F0F0" d="M24 48c13.255 0 24-10.745 24-24S37.255 0 24 0 0 10.745 0 24s10.745 24 24 24"/><path fill="#0052B4" d="M46.507 15.652H1.493A24 24 0 0 0 0 24c0 2.936.528 5.748 1.493 8.348h45.014A24 24 0 0 0 48 24c0-2.936-.528-5.748-1.493-8.348"/><path fill="#D80027" d="M24 0C16.726 0 10.208 3.237 5.807 8.348h36.386C37.792 3.237 31.274 0 24 0M42.193 39.652H5.807C10.207 44.763 16.726 48 24 48s13.792-3.237 18.193-8.348"/></g><defs><clipPath id="a"><path fill="#fff" d="M0 0h48v48H0z"/></clipPath></defs></svg>
