<svg xmlns="http://www.w3.org/2000/svg" width="48" height="48" fill="none"><g clip-path="url(#a)"><path fill="#F0F0F0" d="M2.381 13.565A23.9 23.9 0 0 0 0 24c0 3.74.856 7.28 2.381 10.435L24 36.522l21.619-2.087A23.9 23.9 0 0 0 48 24c0-3.74-.856-7.28-2.381-10.435L24 11.478z"/><path fill="#6DA544" d="M2.383 34.435C6.265 42.463 14.486 48 24 48s17.735-5.537 21.617-13.565z"/><path fill="#D80027" d="M2.383 13.565h43.235C41.736 5.537 33.516 0 24 0 14.487 0 6.265 5.537 2.383 13.565"/><path fill="#FFDA44" d="M19.826 30.26h8.348v-3.547l-1.67.835L24 25.044l-2.504 2.504-1.67-.835zM15.05 26.087l.389 1.196h1.257l-1.017.739.388 1.195-1.017-.739-1.017.74.389-1.196-1.018-.74h1.258zM16.255 21.913l.389 1.196H17.9l-1.017.739.388 1.196-1.017-.74-1.017.74.389-1.196-1.018-.74h1.258zM19.699 18.783l.388 1.195h1.257l-1.017.74.389 1.195-1.018-.739-1.017.74.389-1.197-1.017-.739h1.257zM32.95 26.087l-.388 1.196h-1.257l1.017.739-.389 1.195 1.017-.739 1.018.74-.389-1.196 1.017-.74H33.34zM31.745 21.913l-.388 1.196H30.1l1.017.739-.389 1.196 1.017-.74 1.018.74-.389-1.196 1.017-.74h-1.257zM28.302 18.783l-.389 1.195h-1.257l1.017.74-.388 1.195 1.017-.739 1.017.74-.389-1.197 1.018-.739H28.69zM24 17.217l.388 1.196h1.257l-1.017.739.389 1.196-1.018-.74-1.017.74.389-1.196-1.017-.739h1.257z"/></g><defs><clipPath id="a"><path fill="#fff" d="M0 0h48v48H0z"/></clipPath></defs></svg>
