<svg xmlns="http://www.w3.org/2000/svg" width="48" height="48" fill="none"><g clip-path="url(#a)"><path fill="#FFDA44" d="M24 48c13.255 0 24-10.745 24-24S37.255 0 24 0 0 10.745 0 24s10.745 24 24 24"/><path fill="#0052B4" d="M38.609 11.478a16 16 0 0 0-.313 3.235c0 6.331 3.774 11.811 9.183 14.278.34-1.61.521-3.28.521-4.991C48 10.745 37.255 0 24 0S0 10.745 0 24s10.745 24 24 24c8.22 0 15.474-4.134 19.8-10.435H13.565v-3.13H45.62q.492-1.018.888-2.087H13.565z"/><path fill="#F0F0F0" d="m17.632 12.522.518 1.594h1.676l-1.356.985.518 1.595-1.356-.986-1.356.986.518-1.595-1.357-.985h1.677zM10.821 24l.648 1.993h2.095l-1.695 1.231.647 1.993-1.695-1.231-1.695 1.231.647-1.993-1.695-1.231h2.095zM10.821 7.304l.648 1.993h2.095l-1.695 1.232.647 1.993-1.695-1.232-1.695 1.232.647-1.993-1.695-1.232h2.095zM5.604 16.696l.648 1.993h2.095L6.652 19.92l.647 1.993-1.695-1.232-1.695 1.232.648-1.993L2.86 18.69h2.096z"/></g><defs><clipPath id="a"><path fill="#fff" d="M0 0h48v48H0z"/></clipPath></defs></svg>
