<svg xmlns="http://www.w3.org/2000/svg" width="48" height="49" fill="none"><g clip-path="url(#a)"><path fill="#FFDA44" d="M24 48.012c13.255 0 24-10.745 24-24s-10.745-24-24-24-24 10.745-24 24 10.745 24 24 24"/><path fill="#D80027" d="M24 .012A23.9 23.9 0 0 0 8.57 5.63l25.865 18.38L8.57 42.394A23.9 23.9 0 0 0 24 48.012c13.255 0 24-10.745 24-24s-10.745-24-24-24"/><path fill="#000" d="M7.03 7.041c-9.373 9.373-9.373 24.569 0 33.941L24 24.012z"/><path fill="#F0F0F0" d="m6.655 18.514 3.653 3.456 4.416-2.406-2.159 4.543 3.653 3.457-4.987-.65-2.159 4.542-.923-4.944-4.987-.65 4.416-2.405z"/></g><defs><clipPath id="a"><path fill="#fff" d="M0 .012h48v48H0z"/></clipPath></defs></svg>
