<svg xmlns="http://www.w3.org/2000/svg" width="48" height="48" fill="none"><g clip-path="url(#a)"><path fill="#496E2D" d="M23.999 0c-1.792 0-3.537.198-5.217.57L17.738 24l1.044 23.43c1.68.372 3.425.57 5.217.57 13.255 0 24-10.745 24-24s-10.745-24-24-24M6.26 7.835A23.9 23.9 0 0 0 0 24c0 6.227 2.372 11.9 6.26 16.165L7.305 24z"/><path fill="#F0F0F0" d="M35.102 18.103a7.306 7.306 0 0 0-2.992-8.654 7.304 7.304 0 1 1-4.819 13.43 7.305 7.305 0 0 0 7.811-4.776M28.553 8.547l-1.026 1.326-1.578-.566.944 1.386-1.026 1.325 1.61-.47.943 1.386.05-1.675 1.61-.47-1.577-.566z"/><path fill="#F0F0F0" d="m31.323 12.867-1.026 1.326-1.578-.566.944 1.385-1.026 1.326 1.609-.47.944 1.386.05-1.676 1.61-.47-1.578-.565zM23.669 10.12l-1.027 1.326-1.577-.566.943 1.386-1.026 1.325 1.61-.47.943 1.386.051-1.675 1.61-.47-1.578-.566zM23.555 15.069l-1.026 1.326-1.578-.566.944 1.385-1.026 1.326 1.61-.47.943 1.386.051-1.676 1.61-.47-1.578-.565zM28.264 16.759l-1.026 1.325-1.578-.566.944 1.386-1.026 1.325 1.61-.47.943 1.386.051-1.675 1.61-.47-1.579-.566z"/><path fill="#D80027" d="M6.262 7.835v32.33a23.98 23.98 0 0 0 12.521 7.264V.571A23.98 23.98 0 0 0 6.262 7.835"/><path fill="#F0F0F0" d="m11.04 12.636-2.097-1.561V8.866l2.097-1.562h2.965L16.1 8.866v2.209l-2.096 1.561z"/><path fill="#FF9811" d="M12.522 7.304H11.04L8.943 8.866v1.08h3.58zM12.522 12.636h1.482l2.096-1.561V9.948h-3.579z"/><path fill="#F0F0F0" d="m11.04 40.696-2.097-1.562v-2.209l2.097-1.561h2.965l2.096 1.562v2.208l-2.096 1.562z"/><path fill="#FF9811" d="M12.522 35.364H11.04l-2.097 1.562v1.08h3.58zM12.522 40.696h1.482l2.096-1.562v-1.127h-3.579z"/><path fill="#496E2D" d="m11.04 26.666-2.097-1.562v-2.208l2.097-1.562h2.965l2.096 1.562v2.208l-2.096 1.562zM16.173 30.102h-.913v-.913h-1.604l-1.135-1.135-1.134 1.135H9.782v.913H8.87v1.826h.913v.913h1.605l1.134 1.134 1.135-1.134h1.604v-.913h.913zM16.173 16.072h-.913v-.913h-1.604l-1.135-1.135-1.134 1.135H9.782v.913H8.87v1.826h.913v.913h1.605l1.134 1.135 1.135-1.135h1.604v-.913h.913z"/><path fill="#D80027" d="M11.479 22.956h2.087v2.087h-2.088zM12.522 18.028a1.043 1.043 0 1 0 0-2.087 1.043 1.043 0 0 0 0 2.087M12.522 32.059a1.043 1.043 0 1 0 0-2.087 1.043 1.043 0 0 0 0 2.087"/></g><defs><clipPath id="a"><path fill="#fff" d="M0 0h48v48H0z"/></clipPath></defs></svg>
