<svg xmlns="http://www.w3.org/2000/svg" width="48" height="48" fill="none"><g clip-path="url(#a)"><path fill="#D80027" d="M24 48c13.255 0 24-10.745 24-24S37.255 0 24 0 0 10.745 0 24s10.745 24 24 24"/><path fill="#F0F0F0" d="m23.017 19.611 1.97 2.714 3.189-1.034L26.203 24l1.97 2.714-3.189-1.038-1.972 2.712.002-3.353-3.188-1.038 3.19-1.034z"/><path fill="#F0F0F0" d="M17.644 30.783a6.783 6.783 0 1 1 3.226-12.75 8.348 8.348 0 1 0 0 11.935 6.75 6.75 0 0 1-3.226.815"/></g><defs><clipPath id="a"><path fill="#fff" d="M0 0h48v48H0z"/></clipPath></defs></svg>
