<svg xmlns="http://www.w3.org/2000/svg" width="48" height="48" fill="none"><g clip-path="url(#a)"><path fill="#F0F0F0" d="M12.994 2.665a24 24 0 0 0-5.966 4.364 24 24 0 0 0-4.364 5.966l15.432 16.908 16.908 15.432a24 24 0 0 0 5.966-4.364 24 24 0 0 0 4.364-5.966L29.902 18.097z"/><path fill="#000" d="M40.972 40.971a24 24 0 0 0 2.695-3.208l-33.43-33.43a24.1 24.1 0 0 0-5.903 5.904l33.43 33.43a24 24 0 0 0 3.208-2.696"/><path fill="#D80027" d="M7.029 40.971c7.572 7.572 18.943 9.026 27.976 4.364l-32.34-32.34C-1.997 22.028-.543 33.4 7.029 40.971M40.972 7.029C33.4-.543 22.029-1.997 12.996 2.665l32.34 32.34c4.661-9.033 3.208-20.405-4.364-27.976"/></g><defs><clipPath id="a"><path fill="#fff" d="M0 0h48v48H0z"/></clipPath></defs></svg>
