<svg xmlns="http://www.w3.org/2000/svg" width="48" height="48" fill="none"><g clip-path="url(#a)"><path fill="#338AF3" d="M48 24c0 13.255-10.745 24-24 24S0 37.255 0 24C0 24.006 24 .003 24 0c13.255 0 24 10.745 24 24"/><path fill="#0052B4" d="M11.479 24h8.094l-7.051-8.348-1.043 3.13zM24 19.573l-8.348-8.095H24z"/><path fill="#F0F0F0" d="M23.936 24H24v-.064z"/><path fill="#F0F0F0" d="M24 12.522V0h-.004C10.743.002 0 10.747 0 24h12.522v-7.051L19.572 24h4.364l.064-.064v-4.363l-7.051-7.051z"/><path fill="#D80027" d="M12.143 3.13a24.1 24.1 0 0 0-9.012 9.012V24h6.26V9.391h14.61v-6.26z"/><path fill="#D80027" d="m24 21.049-8.527-8.527H12.52L24 24z"/><path fill="#FFDA44" d="m26.194 39.652.518 1.594h1.677l-1.356.986.518 1.594-1.357-.985-1.356.985.518-1.594L24 41.246h1.676zM39.544 29.217l.518 1.595h1.676l-1.356.985.518 1.594-1.356-.985-1.356.985.518-1.594-1.356-.985h1.676zM42.89 13.565l.518 1.595h1.676l-1.356.985.518 1.594-1.356-.985-1.357.985.519-1.594-1.357-.985h1.677zM43.718 25.044l.518 1.594h1.676l-1.356.985.518 1.595-1.356-.986-1.356.986.518-1.595-1.357-.985H43.2zM28.598 35.903l1.494.76 1.185-1.185-.262 1.656 1.493.761-1.655.262-.263 1.656-.76-1.494-1.656.263 1.185-1.186zM28.598 29.642l1.494.76 1.185-1.185-.262 1.656 1.493.761-1.655.262-.263 1.656-.76-1.494-1.656.263 1.185-1.186zM33.815 33.655l1.494.76 1.185-1.184-.262 1.655 1.493.761-1.656.263-.262 1.655-.76-1.494-1.656.263 1.185-1.185zM33.815 20.25l1.494.761 1.185-1.185-.262 1.656 1.493.76-1.656.263-.262 1.656-.76-1.494-1.656.262 1.185-1.185zM38.871 20.09l1.494.76 1.186-1.185-.263 1.656 1.494.761-1.656.262L40.864 24l-.76-1.494-1.657.263 1.185-1.186z"/></g><defs><clipPath id="a"><path fill="#fff" d="M0 0h48v48H0z"/></clipPath></defs></svg>
