<svg xmlns="http://www.w3.org/2000/svg" width="48" height="48" fill="none"><g clip-path="url(#a)"><path fill="#D80027" d="M48 24c0 13.255-10.745 24-24 24S0 37.255 0 24L24 0c13.255 0 24 10.745 24 24"/><path fill="#0052B4" d="M24 24V0C10.745 0 0 10.745 0 24z"/><path fill="#F0F0F0" d="m20.87 14.046-2.931 1.379 1.56 2.838-3.182-.609-.403 3.215-2.217-2.364-2.217 2.364-.404-3.215-3.182.609 1.56-2.839-2.93-1.378 2.93-1.379-1.56-2.839 3.182.61.404-3.216 2.217 2.365 2.217-2.365.403 3.215 3.183-.609-1.561 2.84z"/><path fill="#0052B4" d="M13.696 18.513a4.467 4.467 0 1 0 0-8.935 4.467 4.467 0 0 0 0 8.935"/><path fill="#F0F0F0" d="M13.697 16.426a2.383 2.383 0 0 1-2.38-2.38 2.383 2.383 0 0 1 2.38-2.38 2.383 2.383 0 0 1 2.38 2.38 2.383 2.383 0 0 1-2.38 2.38"/></g><defs><clipPath id="a"><path fill="#fff" d="M0 0h48v48H0z"/></clipPath></defs></svg>
