<svg xmlns="http://www.w3.org/2000/svg" width="48" height="48" fill="none"><g clip-path="url(#a)"><path fill="#FFDA44" d="M41.887 40A23.9 23.9 0 0 0 48 24a23.9 23.9 0 0 0-6.113-16L24 6.26 6.113 8A23.9 23.9 0 0 0 0 24a23.9 23.9 0 0 0 6.113 16L24 41.74z"/><path fill="#000" d="M6.113 8h35.774C37.492 3.09 31.107 0 24 0S10.508 3.09 6.113 8"/><path fill="#D80027" d="m0 24 24 2.087L48 24c0-2.805-.483-5.498-1.368-8H1.368A24 24 0 0 0 0 24"/><path fill="#000" d="M1.368 32h45.265A24 24 0 0 0 48 24H0c0 2.805.483 5.498 1.368 8"/><path fill="#D80027" d="M41.887 40H6.113c4.395 4.91 10.78 8 17.887 8s13.493-3.09 17.887-8"/><path fill="#F0F0F0" d="M32.01 24A8.01 8.01 0 0 1 24 32.009a8.01 8.01 0 0 1-8.008-8.01 8.01 8.01 0 0 1 8.009-8.008A8.01 8.01 0 0 1 32.01 24"/><path fill="#000" d="M26.934 24.408 24 23.137s.686-2.278.723-2.434q.04-.172.04-.355a1.56 1.56 0 0 0-.458-1.107l.738-.738a2.6 2.6 0 0 0-1.845-.764 2.6 2.6 0 0 0-1.844.764l.738.738a1.56 1.56 0 0 0-.391 1.561l-1.111 1.111h2.019s-.835 1.254-1.29 2.284.006 2.286 1.059 2.754l.609.27 1.013.953v1.043l-1.044 1.044h2.087v-2.087l.953-.952h1.97l.027-.06a2.087 2.087 0 0 0-1.06-2.754"/></g><defs><clipPath id="a"><path fill="#fff" d="M0 0h48v48H0z"/></clipPath></defs></svg>
