<svg xmlns="http://www.w3.org/2000/svg" width="48" height="48" fill="none"><g clip-path="url(#a)"><path fill="#F0F0F0" d="M24 48c13.255 0 24-10.745 24-24S37.255 0 24 0 0 10.745 0 24s10.745 24 24 24"/><path fill="#D80027" d="M22.955 24H48c0-2.166-.29-4.265-.827-6.261H22.955zM22.955 11.478h21.521a24.1 24.1 0 0 0-5.538-6.26H22.955zM24 48c5.648 0 10.84-1.952 14.94-5.218H9.06A23.9 23.9 0 0 0 24 48M3.522 36.522h40.955a23.9 23.9 0 0 0 2.696-6.261H.826a23.9 23.9 0 0 0 2.696 6.26"/><path fill="#0052B4" d="M11.117 3.748h2.187L11.27 5.226l.777 2.391-2.034-1.478-2.034 1.478.67-2.066a24.1 24.1 0 0 0-4.654 5.188h.7l-1.294.941a24 24 0 0 0-.581 1.026l.618 1.903-1.153-.838a24 24 0 0 0-.785 1.863l.681 2.097h2.515L2.66 19.208l.777 2.392-2.034-1.478-1.218.885Q.002 22.48 0 24h24V0c-4.741 0-9.16 1.375-12.883 3.748m.93 17.852-2.034-1.478L7.979 21.6l.777-2.392-2.035-1.477h2.515l.777-2.392.777 2.392h2.514l-2.034 1.477zm-.777-9.383.777 2.392-2.034-1.478-2.034 1.478.777-2.392L6.72 10.74h2.515l.777-2.391.777 2.391h2.514zm9.386 9.383-2.034-1.478-2.035 1.478.777-2.392-2.034-1.477h2.515l.777-2.392.776 2.392h2.515l-2.034 1.477zm-.777-9.383.777 2.392-2.034-1.478-2.035 1.478.777-2.392-2.034-1.478h2.515l.777-2.391.776 2.391h2.515zm0-6.991.777 2.391-2.034-1.478-2.035 1.478.777-2.391-2.034-1.478h2.515l.777-2.392.776 2.392h2.515z"/></g><defs><clipPath id="a"><path fill="#fff" d="M0 0h48v48H0z"/></clipPath></defs></svg>
