<svg xmlns="http://www.w3.org/2000/svg" width="48" height="48" fill="none"><g clip-path="url(#a)"><path fill="#F0F0F0" d="M24 48c13.255 0 24-10.745 24-24S37.255 0 24 0 0 10.745 0 24s10.745 24 24 24"/><path fill="#338AF3" d="M24 17.74h23.173a23.9 23.9 0 0 0-2.696-6.262H24zM9.061 42.783h29.88a24.1 24.1 0 0 0 5.537-6.261H3.523a24.1 24.1 0 0 0 5.538 6.26M24 0v5.217h14.94A23.9 23.9 0 0 0 24 0"/><path fill="#338AF3" d="M24 17.74h23.173a23.9 23.9 0 0 0-2.696-6.262H24zM0 24c0 2.166.289 4.265.827 6.26h46.346c.538-1.995.827-4.094.827-6.26z"/><path fill="#FFDA44" d="m20.87 14.046-2.931 1.378 1.56 2.84-3.182-.61-.403 3.215-2.217-2.364-2.217 2.364-.404-3.215-3.182.609 1.56-2.839-2.93-1.378 2.93-1.379-1.56-2.839 3.182.61.404-3.216 2.217 2.365 2.217-2.365.403 3.215 3.183-.609-1.561 2.84z"/></g><defs><clipPath id="a"><path fill="#fff" d="M0 0h48v48H0z"/></clipPath></defs></svg>
