<svg xmlns="http://www.w3.org/2000/svg" width="48" height="48" fill="none"><g clip-path="url(#a)"><path fill="#F0F0F0" d="M1.133 16.696A24 24 0 0 0 0 24c0 2.547.398 5 1.133 7.304L24 32.348l22.867-1.044A24 24 0 0 0 48 24c0-2.547-.398-5.001-1.133-7.304L24 15.652z"/><path fill="#D80027" d="M46.866 16.696 24 15.652 1.133 16.696Q.807 17.72.57 18.783H47.43a24 24 0 0 0-.563-2.087M.57 29.217q.236 1.062.563 2.087h.002L24 32.348l22.867-1.044q.327-1.025.563-2.087z"/><path fill="#6DA544" d="M24 48c10.707 0 19.776-7.013 22.866-16.696H1.133C4.223 40.987 13.292 48 23.999 48"/><path fill="#338AF3" d="M24 0C13.292 0 4.223 7.013 1.133 16.696h45.733C43.776 7.013 34.707 0 24 0"/><path fill="#F0F0F0" d="M10.968 9.913a4.696 4.696 0 0 1 3.689-4.586q-.486-.108-1.006-.11a4.696 4.696 0 1 0 1.006 9.283 4.7 4.7 0 0 1-3.69-4.587M17.433 12.048l.317.978h1.029l-.832.605.318.978-.832-.605-.833.605.318-.978-.832-.605h1.029zM20.716 12.048l.317.978h1.03l-.833.605.318.978-.832-.605-.833.605.318-.978-.832-.605h1.029zM23.999 12.048l.318.978h1.029l-.833.604.318.979-.832-.605-.832.605.318-.979-.833-.604h1.03zM27.282 12.048l.318.978h1.029l-.832.604.317.979-.832-.605-.832.605.318-.979-.832-.604h1.028zM30.565 12.048l.318.978h1.029l-.832.605.318.978-.833-.605-.832.605.318-.978-.832-.605h1.028zM20.716 8.633l.317.978h1.03l-.833.604.318.979-.832-.605-.833.605.318-.979-.832-.604h1.029zM23.999 8.632l.318.979h1.029l-.833.604.318.979-.832-.605-.832.605.318-.979-.833-.604h1.03zM27.282 8.632l.318.979h1.029l-.832.604.317.979-.832-.605-.832.605.318-.979-.832-.604h1.028zM30.565 8.633l.318.978h1.029l-.832.604.318.979-.833-.605-.832.605.318-.979-.832-.604h1.028zM23.999 5.217l.318.979h1.029l-.833.604.318.979L24 7.174l-.832.605.318-.979-.833-.604h1.03zM27.282 5.217l.318.979h1.029l-.832.604.317.979-.832-.605-.832.605.318-.979-.832-.604h1.028zM30.565 5.217l.318.979h1.029l-.832.604.318.979-.833-.605-.832.605.318-.979-.832-.604h1.028z"/></g><defs><clipPath id="a"><path fill="#fff" d="M0 0h48v48H0z"/></clipPath></defs></svg>
