<svg xmlns="http://www.w3.org/2000/svg" width="48" height="48" fill="none"><g clip-path="url(#a)"><path fill="#F0F0F0" d="M24 0c13.254 0 24 10.745 24 24S37.253 48 24 48c0-1.043-3.13-24-3.13-24z"/><path fill="#FFDA44" d="M24 48C10.745 48 0 37.255 0 24S10.745 0 24 0"/><path fill="#ACABB1" d="m33.19 20.884 4.51 5.967a3.131 3.131 0 1 0 1.666-1.258l-7.03-9.3-1.665 1.259-2.497 1.887 2.517 3.33zm6.494 6.86a1.044 1.044 0 1 1 1.258 1.665 1.044 1.044 0 0 1-1.258-1.665"/><path fill="#FFDA44" d="m40.927 22.769 2.517-3.33-2.498-1.887-1.665-1.259-7.03 9.3a3.131 3.131 0 1 0 1.666 1.258l4.51-5.967zm-8.79 6.437a1.043 1.043 0 1 1-1.665-1.259 1.043 1.043 0 0 1 1.665 1.259"/></g><defs><clipPath id="a"><path fill="#fff" d="M0 0h48v48H0z"/></clipPath></defs></svg>
