<svg xmlns="http://www.w3.org/2000/svg" width="48" height="48" fill="none"><g clip-path="url(#a)"><path fill="#0052B4" d="M45.619 34.435A23.9 23.9 0 0 0 48 24c0-3.74-.856-7.28-2.381-10.435L24 11.478 2.381 13.565A23.9 23.9 0 0 0 0 24c0 3.74.856 7.28 2.381 10.435L24 36.522z"/><path fill="#D80027" d="M24 48c9.514 0 17.736-5.537 21.618-13.565H2.381C6.263 42.463 14.484 48 23.999 48"/><path fill="#F0F0F0" d="m41.565 28.711-1.268.99.55 1.512-1.334-.9-1.267.991.443-1.546-1.334-.9 1.608-.056.444-1.546.55 1.511zM38.319 23.089l-.852 1.364 1.034 1.232-1.561-.388-.853 1.364-.112-1.605-1.56-.39 1.49-.602-.111-1.605 1.034 1.233zM33.345 18.916l-.334 1.573 1.393.805-1.6.168-.335 1.573-.654-1.469-1.6.168 1.195-1.076-.654-1.47 1.393.804zM27.246 16.696l.224 1.593 1.584.279-1.446.705.224 1.593-1.117-1.157-1.447.705.756-1.42-1.118-1.157 1.585.279zM20.754 16.696l.755 1.42 1.584-.28-1.117 1.158.755 1.42-1.446-.705-1.118 1.157.224-1.593-1.446-.705 1.585-.28zM14.652 18.916l1.196 1.076 1.393-.804-.654 1.47 1.195 1.076-1.6-.168-.654 1.47-.334-1.574-1.6-.168 1.393-.804zM9.68 23.089l1.491.603 1.034-1.233-.112 1.605 1.492.603-1.561.389-.113 1.604-.852-1.363-1.561.389 1.034-1.233zM6.434 28.711l1.608.056.55-1.511.443 1.546 1.608.056-1.334.9.444 1.546-1.268-.99-1.334.9.55-1.512z"/><path fill="#FFDA44" d="M45.618 13.565C41.736 5.537 33.514 0 23.999 0S6.263 5.537 2.381 13.565z"/></g><defs><clipPath id="a"><path fill="#fff" d="M0 0h48v48H0z"/></clipPath></defs></svg>
