<svg xmlns="http://www.w3.org/2000/svg" width="48" height="48" fill="none"><g clip-path="url(#a)"><path fill="#FCFCFC" d="M24 48c13.255 0 24-10.745 24-24S37.255 0 24 0 0 10.745 0 24s10.745 24 24 24"/><path fill="#FFDA44" d="M28.077 16.767a4.076 4.076 0 0 0-8.153 0h-8.967c0 2.216 1.93 4.013 4.147 4.013h-.133a4.013 4.013 0 0 0 4.013 4.014 4.01 4.01 0 0 0 3.27 3.941l-.01.024h3.513l-.01-.024a4.01 4.01 0 0 0 3.27-3.941 4.013 4.013 0 0 0 4.014-4.014h-.134c2.216 0 4.147-1.797 4.147-4.013z"/><path fill="#FFDA44" d="m22.209 28.343-2.527 5.706c1.333.542 2.79.843 4.319.843s2.986-.301 4.319-.843l-2.527-5.706z"/><path fill="#F0F0F0" d="M18.783 18.771v7.021c0 3.994 5.218 5.218 5.218 5.218s5.217-1.224 5.217-5.218v-7.02z"/><path fill="#338AF3" d="m5.82 24.169 2.822 7.892 2.793-7.892h2.13l-4.07 10.435H7.79l-4.1-10.435zM38.61 34.604V24.169h2.028v10.435z"/><path fill="#D80027" d="M20.87 21.039v8.508c.716.528 1.488.89 2.086 1.123V21.04zM27.13 21.039v8.508a9.2 9.2 0 0 1-2.087 1.123V21.04z"/><path fill="#0052B4" d="M18.783 18.771h10.435v3.31H18.783z"/></g><defs><clipPath id="a"><path fill="#fff" d="M0 0h48v48H0z"/></clipPath></defs></svg>
