<svg xmlns="http://www.w3.org/2000/svg" width="48" height="48" fill="none"><g clip-path="url(#a)"><path fill="#000" d="M48 24q-.002-1.593-.203-3.13H20.869L7.03 7.03c-9.372 9.372-9.372 24.568 0 33.94l13.84-13.84h26.928A24 24 0 0 0 48 24"/><path fill="#F0F0F0" d="m47.994 24.546-.004.139zM47.97 25.202l-.007.137zM47.937 25.725l-.015.202zM47.857 21.384q.014.12.026.241zM47.963 22.661l.008.137zM47.99 23.315l.004.14zM47.922 22.073l.015.202z"/><path fill="#D80027" d="m47.797 20.87.03.247C46.403 9.222 36.28 0 24 0A23.92 23.92 0 0 0 7.03 7.03l13.839 13.84z"/><path fill="#6DA544" d="M47.797 27.13H20.869L7.029 40.97A23.93 23.93 0 0 0 24 48c12.279 0 22.403-9.222 23.827-21.117z"/><path fill="#F0F0F0" d="m47.883 26.375-.026.24q.014-.12.026-.24"/><path fill="#000" d="M47.99 24.685"/><path fill="#FFDA44" d="M47.977 22.948h-27.99L5.61 8.573c-.465.49-.969 1.174-1.28 1.662L18.08 23.99 4.317 37.752c.273.485.866 1.202 1.283 1.669l14.386-14.386H47.98a24 24 0 0 0-.003-2.087"/><path fill="#FFDA44" d="M5.83 29.116v-2.01a3.64 3.64 0 0 0 3.638-3.638 2.577 2.577 0 0 0-2.574-2.574c-.966 0-1.753.787-1.753 1.754 0 .618.503 1.12 1.121 1.12.35 0 .634-.284.634-.633h2.01a2.647 2.647 0 0 1-2.644 2.644 3.135 3.135 0 0 1-3.131-3.131 3.77 3.77 0 0 1 3.763-3.764 4.59 4.59 0 0 1 4.585 4.584 5.655 5.655 0 0 1-5.649 5.648"/></g><defs><clipPath id="a"><path fill="#fff" d="M0 0h48v48H0z"/></clipPath></defs></svg>
