<svg xmlns="http://www.w3.org/2000/svg" width="48" height="49" fill="none"><g clip-path="url(#a)"><path fill="#D80027" d="M48 24.01c0 13.256-10.745 24-24 24s-24-10.744-24-24l24-24c13.255 0 24 10.746 24 24"/><path fill="#0052B4" d="M24 24.01v-24c-13.255 0-24 10.746-24 24z"/><path fill="#F0F0F0" d="m19.224 15.663.389 1.196h1.257l-1.018.739.39 1.195-1.018-.739-1.017.74.388-1.196-1.017-.74h1.257zM12.909 6.272l.647 1.993h2.096l-1.695 1.231.647 1.993-1.695-1.232-1.695 1.232.647-1.993-1.695-1.231h2.095zM19.17 8.359l.648 1.993h2.096l-1.696 1.231.648 1.993-1.695-1.232-1.696 1.232.648-1.993-1.695-1.231h2.095zM14.222 16.707l.647 1.992h2.095l-1.695 1.232.648 1.993-1.695-1.232-1.696 1.232.648-1.993-1.695-1.232h2.095zM8.735 11.489l.648 1.993h2.095l-1.695 1.232.647 1.992-1.695-1.231-1.695 1.231.647-1.992-1.695-1.232h2.096z"/></g><defs><clipPath id="a"><path fill="#fff" d="M0 .01h48v48H0z"/></clipPath></defs></svg>
