<svg xmlns="http://www.w3.org/2000/svg" width="48" height="48" fill="none"><g clip-path="url(#a)"><path fill="#0052B4" d="M24 48c13.255 0 24-10.745 24-24S37.255 0 24 0 0 10.745 0 24s10.745 24 24 24"/><path fill="#F0F0F0" d="m10.542 14.609.518 1.594h1.676l-1.356.986.518 1.594-1.356-.986-1.356.986.518-1.594-1.356-.986h1.676zM15.76 13.044l.518 1.594h1.676l-1.356.985.518 1.594-1.356-.985-1.357.985.518-1.594-1.356-.985h1.677zM20.976 11.478l.518 1.595h1.677l-1.356.985.518 1.594-1.357-.985-1.356.985.518-1.594-1.356-.985h1.677zM37.458 14.609l-.518 1.594h-1.676l1.356.986-.518 1.594 1.356-.986 1.356.986-.518-1.594 1.356-.986h-1.676zM32.24 13.044l-.518 1.594h-1.676l1.356.985-.518 1.595 1.356-.986 1.356.986-.518-1.595 1.356-.985h-1.676zM27.023 11.478l-.518 1.595H24.83l1.356.985-.518 1.594 1.356-.985 1.357.985-.518-1.594 1.356-.985H27.54z"/><path fill="#FFDA44" d="M28.174 25.044 24 19.826l-2.087 1.044v2.087l-3.13 2.087h-2.088v2.696a8.35 8.35 0 0 1 5.218 7.738H24v-2.087l2.087-2.086 2.087 2.086 2.087-2.086v-2.087l2.086-3.13z"/></g><defs><clipPath id="a"><path fill="#fff" d="M0 0h48v48H0z"/></clipPath></defs></svg>
