<svg xmlns="http://www.w3.org/2000/svg" width="48" height="49" fill="none"><g clip-path="url(#a)"><path fill="#F0F0F0" d="M24 48.01c13.255 0 24-10.744 24-24 0-13.254-10.745-24-24-24s-24 10.746-24 24c0 13.256 10.745 24 24 24"/><path fill="#000" d="M7.03 40.981c-9.373-9.372-9.373-24.568 0-33.94l13.84 16.97z"/><path fill="#FFDA44" d="M20.87 24.01 3.184 12.06a24 24 0 0 0-1.448 2.978l8.954 8.974-8.953 8.975a24 24 0 0 0 1.446 2.975z"/><path fill="#6DA544" d="M47.796 20.88H20.868L7.028 7.04a24 24 0 0 0-3.845 5.019L15.11 24.011 3.181 35.96a24 24 0 0 0 3.848 5.02l13.84-13.84h26.927a24.2 24.2 0 0 0 0-6.26"/><path fill="#0052B4" d="M9.389 43.05A23.9 23.9 0 0 0 24 48.01c11.088 0 20.419-7.52 23.173-17.738H22.166z"/><path fill="#D80027" d="M47.174 17.75C44.42 7.53 35.089.01 24.001.01A23.9 23.9 0 0 0 9.389 4.973L22.166 17.75z"/></g><defs><clipPath id="a"><path fill="#fff" d="M0 .01h48v48H0z"/></clipPath></defs></svg>
