<svg xmlns="http://www.w3.org/2000/svg" width="48" height="49" fill="none"><g clip-path="url(#a)"><path fill="#496E2D" d="M24 48.01c13.255 0 24-10.744 24-24 0-13.254-10.745-24-24-24s-24 10.746-24 24c0 13.256 10.745 24 24 24"/><path fill="#D80027" d="M33.391 24.01H24v24a24 24 0 0 0 8-1.367z"/><path fill="#FF9811" d="M40 41.898c4.91-4.395 8-10.78 8-17.887h-9.39z"/><path fill="#000" d="M32 24.01v22.633a24 24 0 0 0 8-4.745V24.01z"/><path fill="#FF9811" d="M44.348 15.663h-6.26a2.087 2.087 0 0 0-4.175 0h-6.26c0 1.153 1.003 2.087 2.156 2.087h-.07c0 1.152.934 2.087 2.087 2.087 0 1.152.934 2.087 2.087 2.087h4.174a2.087 2.087 0 0 0 2.087-2.087 2.087 2.087 0 0 0 2.087-2.087h-.07c1.153 0 2.157-.934 2.157-2.087"/></g><defs><clipPath id="a"><path fill="#fff" d="M0 .01h48v48H0z"/></clipPath></defs></svg>
