<svg xmlns="http://www.w3.org/2000/svg" width="48" height="48" fill="none"><g clip-path="url(#a)"><path fill="#F0F0F0" d="M24 48c13.255 0 24-10.745 24-24S37.255 0 24 0 0 10.745 0 24s10.745 24 24 24"/><path fill="#FFDA44" d="M45.703 13.744a24 24 0 0 0-4.894-6.872l-16.81-1.655L7.19 6.872l-.159.16 6.713 6.712L24 14.057zM7.031 40.969l.266.263L24 42.782l16.702-1.55a24.1 24.1 0 0 0 4.952-6.872l-31.046-.969c-2.67 2.672-5.752 5.752-7.577 7.578"/><path fill="#000" d="m47.761 20.616-27.935-.79L24 24l-4.174 4.174 27.92-.686a24.2 24.2 0 0 0 .015-6.872"/><path fill="#6DA544" d="M24 0A23.92 23.92 0 0 0 7.19 6.872h33.62A23.92 23.92 0 0 0 24 0"/><path fill="#D80027" d="M20.616 20.616h27.145a23.8 23.8 0 0 0-2.058-6.872H13.744zM13.64 34.36h32.014a23.8 23.8 0 0 0 2.093-6.872H20.512z"/><path fill="#6DA544" d="M24 48c6.493 0 12.382-2.58 16.703-6.768H7.298A23.92 23.92 0 0 0 24 48"/><path fill="#000" d="M8.57 5.619a24 24 0 0 0-1.54 1.41L24 24 7.03 40.97q.74.74 1.54 1.411L26.951 24z"/><path fill="#D80027" d="m9.65 17.74 1.553 4.782h5.03l-4.07 2.956 1.555 4.783-4.069-2.956-4.068 2.956 1.554-4.783-4.069-2.956h5.03z"/><path fill="#FFDA44" d="m13.924 24.391-4.05-1.434s-.3-2.808-.317-2.903a1.566 1.566 0 1 0-3.046.707l-1.136 1.143h2.019C7.394 24 5.83 24 5.83 26.087l.868 2.087h5.217l.87-2.087c.086-.2.14-.407.161-.613.75-.303.978-1.083.978-1.083"/></g><defs><clipPath id="a"><path fill="#fff" d="M0 0h48v48H0z"/></clipPath></defs></svg>
