<svg width="12" height="12" viewBox="0 0 12 12" fill="none" xmlns="http://www.w3.org/2000/svg">
<path d="M11.3806 0.338963C11.2992 0.257378 11.2025 0.192652 11.0961 0.148489C10.9896 0.104326 10.8755 0.0815937 10.7602 0.0815937C10.6449 0.0815937 10.5308 0.104326 10.4243 0.148489C10.3179 0.192652 10.2212 0.257378 10.1398 0.338963L5.83625 4.63367L1.53274 0.330162C1.45126 0.248684 1.35453 0.184052 1.24807 0.139957C1.14162 0.0958613 1.02752 0.0731659 0.912292 0.0731659C0.797065 0.0731659 0.682966 0.0958613 0.57651 0.139957C0.470054 0.184052 0.373325 0.248684 0.291847 0.330162C0.210369 0.41164 0.145738 0.508369 0.101642 0.614825C0.0575465 0.721281 0.0348511 0.83538 0.0348511 0.950607C0.0348511 1.06583 0.0575465 1.17993 0.101642 1.28639C0.145738 1.39285 0.210369 1.48957 0.291847 1.57105L4.59536 5.87456L0.291847 10.1781C0.210369 10.2595 0.145738 10.3563 0.101642 10.4627C0.0575465 10.5692 0.0348511 10.6833 0.0348511 10.7985C0.0348511 10.9137 0.0575465 11.0278 0.101642 11.1343C0.145738 11.2408 0.210369 11.3375 0.291847 11.419C0.373325 11.5004 0.470054 11.5651 0.57651 11.6092C0.682966 11.6533 0.797065 11.676 0.912292 11.676C1.02752 11.676 1.14162 11.6533 1.24807 11.6092C1.35453 11.5651 1.45126 11.5004 1.53274 11.419L5.83625 7.11545L10.1398 11.419C10.2212 11.5004 10.318 11.5651 10.4244 11.6092C10.5309 11.6533 10.645 11.676 10.7602 11.676C10.8754 11.676 10.9895 11.6533 11.096 11.6092C11.2024 11.5651 11.2992 11.5004 11.3806 11.419C11.4621 11.3375 11.5268 11.2408 11.5708 11.1343C11.6149 11.0278 11.6376 10.9137 11.6376 10.7985C11.6376 10.6833 11.6149 10.5692 11.5708 10.4627C11.5268 10.3563 11.4621 10.2595 11.3806 10.1781L7.07713 5.87456L11.3806 1.57105C11.7151 1.23663 11.7151 0.673387 11.3806 0.338963Z" fill="black"/>
</svg>
