<svg width="29" height="29" viewBox="0 0 29 29" fill="none" xmlns="http://www.w3.org/2000/svg">
<circle cx="14.5053" cy="14.4368" r="12.6322" transform="rotate(-90 14.5053 14.4368)" fill="white" stroke="#5B96EE" stroke-width="3.51967"/>
<circle cx="1.40357" cy="1.40357" r="2.28349" transform="matrix(-4.37114e-08 -1 -1 4.37114e-08 15.91 15.8403)" fill="#5B96EE" stroke="#5B96EE" stroke-width="1.75983"/>
<g clip-path="url(#clip0_8657_4733)">
<path d="M14.5061 26.133C20.9626 26.133 26.2026 20.8929 26.2026 14.4365C26.2026 7.98006 20.9626 2.74006 14.5061 2.74006C8.04969 2.74006 2.80968 7.98007 2.80968 14.4365C2.80968 20.8929 8.04969 26.133 14.5061 26.133ZM23.8633 14.4365C23.8633 19.6063 19.676 23.7937 14.5061 23.7937C12.3423 23.7937 10.3539 23.0568 8.77487 21.817L21.8866 8.70524C23.1264 10.2843 23.8633 12.2727 23.8633 14.4365ZM14.5061 5.07935C16.67 5.07935 18.6584 5.81622 20.2374 7.05605L7.12567 20.1678C5.88585 18.5887 5.14897 16.6003 5.14897 14.4365C5.14897 9.26667 9.3363 5.07935 14.5061 5.07935Z" fill="#E1456D"/>
</g>
<defs>
<clipPath id="clip0_8657_4733">
<rect width="28.0715" height="28.0715" fill="white" transform="translate(28.5418 28.4722) rotate(180)"/>
</clipPath>
</defs>
</svg>
