<svg width="42" height="43" viewBox="0 0 42 43" fill="none" xmlns="http://www.w3.org/2000/svg">
<circle cx="21.23" cy="21.4111" r="20.6272" fill="#F7CFC7"/>
<circle cx="21.23" cy="21.4111" r="17.3268" fill="#EA3924"/>
<path d="M21.6414 15.9329C25.307 15.9329 28.2785 18.8523 28.2785 22.4537V27.2165C28.2785 27.39 28.2084 27.5564 28.0835 27.679C27.9587 27.8017 27.7893 27.8706 27.6127 27.8706H15.6701C15.4935 27.8706 15.3242 27.8017 15.1993 27.679C15.0744 27.5564 15.0043 27.39 15.0043 27.2165V22.4537C15.0043 18.8523 17.9758 15.9329 21.6414 15.9329ZM21.0588 12.3352H22.224C22.2681 12.3352 22.3105 12.3524 22.3417 12.3831C22.3729 12.4138 22.3904 12.4553 22.3904 12.4987V14.4611C22.3904 14.5045 22.3729 14.5461 22.3417 14.5767C22.3105 14.6074 22.2681 14.6246 22.224 14.6246H21.0588C21.0147 14.6246 20.9724 14.6074 20.9411 14.5767C20.9099 14.5461 20.8924 14.5045 20.8924 14.4611V12.4987C20.8924 12.4553 20.9099 12.4138 20.9411 12.3831C20.9724 12.3524 21.0147 12.3352 21.0588 12.3352ZM14.6766 14.863C14.6921 14.8478 14.7104 14.8357 14.7306 14.8275C14.7508 14.8192 14.7725 14.815 14.7944 14.815C14.8162 14.815 14.8379 14.8192 14.8581 14.8275C14.8783 14.8357 14.8967 14.8478 14.9121 14.863L16.3244 16.2505C16.3556 16.2812 16.3731 16.3228 16.3731 16.3661C16.3731 16.4095 16.3556 16.4511 16.3244 16.4817L15.5005 17.2912C15.4693 17.3218 15.427 17.3391 15.3829 17.3391C15.3387 17.3391 15.2964 17.3218 15.2652 17.2912L13.8529 15.9036C13.8217 15.873 13.8042 15.8314 13.8042 15.788C13.8042 15.7447 13.8217 15.7031 13.8529 15.6724L14.6768 14.863H14.6766ZM28.6083 14.863L29.4322 15.6724C29.4633 15.7031 29.4808 15.7446 29.4808 15.7879C29.4808 15.8312 29.4633 15.8728 29.4322 15.9034L28.0199 17.2914C28.0044 17.3066 27.9861 17.3187 27.9659 17.3269C27.9457 17.3351 27.924 17.3394 27.9021 17.3394C27.8803 17.3394 27.8586 17.3351 27.8384 17.3269C27.8182 17.3187 27.7998 17.3066 27.7844 17.2914L26.9605 16.4819C26.945 16.4667 26.9327 16.4487 26.9243 16.4288C26.916 16.409 26.9116 16.3877 26.9116 16.3662C26.9116 16.3447 26.916 16.3235 26.9243 16.3036C26.9327 16.2837 26.945 16.2657 26.9605 16.2505L28.373 14.863C28.4042 14.8323 28.4465 14.8151 28.4906 14.8151C28.5348 14.8151 28.5771 14.8323 28.6083 14.863ZM14.9835 29.1789H28.2993C28.4759 29.1789 28.6453 29.2478 28.7701 29.3704C28.895 29.4931 28.9651 29.6595 28.9651 29.833V30.3236C28.9651 30.3669 28.9476 30.4085 28.9164 30.4392C28.8852 30.4699 28.8428 30.4871 28.7987 30.4871H14.4841C14.44 30.4871 14.3977 30.4699 14.3664 30.4392C14.3352 30.4085 14.3177 30.3669 14.3177 30.3236V29.833C14.3177 29.6595 14.3878 29.4931 14.5127 29.3704C14.6376 29.2478 14.8069 29.1789 14.9835 29.1789ZM18.0628 22.699V27.8706H19.3944V22.699H18.0628Z" fill="white"/>
</svg>
