<svg xmlns="http://www.w3.org/2000/svg" viewBox="0 0 512 512"><path fill="#FFDA44" d="M255.999 511.998c141.384 0 255.999-114.615 255.999-255.999C511.998 114.615 397.383 0 255.999 0 114.615 0 0 114.615 0 255.999c0 141.384 114.615 255.999 255.999 255.999Z"/><path fill="#000" d="M74.98 437.019a257.505 257.505 0 0 0 34.217 28.748l356.568-356.568a257.296 257.296 0 0 0-28.748-34.217 257.574 257.574 0 0 0-34.216-28.747L46.235 402.804a257.35 257.35 0 0 0 28.745 34.215Z"/><path fill="#6DA544" d="M74.981 74.98c-80.763 80.763-96.268 202.056-46.544 298.397l344.94-344.939C277.036-21.285 155.741-5.78 74.981 74.98Z"/><path fill="#D80027" d="M437.018 437.019c80.762-80.761 96.266-202.054 46.545-298.397L138.62 483.564c96.342 49.722 217.635 34.218 298.398-46.545Z"/><path fill="#F0F0F0" d="m162.77 302.008 23.898 12.177 18.966-18.965-4.196 26.489 23.897 12.178-26.491 4.195-4.196 26.491-12.176-23.898-26.49 4.196 18.965-18.965-12.177-23.898Zm139.237-139.237 23.897 12.177 18.966-18.965-4.195 26.489 23.897 12.178-26.491 4.196-4.195 26.49-12.177-23.897-26.49 4.195 18.965-18.965-12.177-23.898Z"/></svg>
