<svg xmlns="http://www.w3.org/2000/svg" viewBox="0 0 512 512"><g fill="none"><path fill="#FFFCF5" d="M252 .962C113.355.962.97 113.346.97 251.992.97 390.635 113.356 503.02 252 503.02c138.645 0 251.03-112.384 251.03-251.03C503.03 113.347 390.644.963 252 .963"/><path fill="#DAC796" d="M119.648 165.826c-2.65.2-5.26 1.23-7.49 2.296-2.255 1.065-4.03 2.155-5.516 2.544-1.644.42-3.097.62-4.64.264-1.554-.355-3.065-1.198-4.973-2.552h-.06c.445 1.643.61 2.965.445 3.964-.09.454-.223.875-.512 1.296-.256.413-.644.71-1.098.934-.545.29-1.098.42-1.932.487-.843.09-1.875.055-3.04-.036-2.03-.23-4.508-.942-7.126-1.94l-.356.486c1.908 2.454 3.296 4.42 3.585 5.774.157.743.033 1.42-.198 1.874-.223.478-.61.9-1.223 1.222-1.387.776-3.195.81-4.707.553-1.032-.165-1.362-.355-1.808-.487l-.29.42c.29.356.545.58 1 1.388.29.512.544 1.123.61 1.833.033.644-.19 1.354-.677 1.94-.322.355-.52.42-.81.545-.32.132-.677.223-1.122.322-.842.132-1.973.198-3.23.033-2.23-.223-4.904-1.065-7.546-2.287l-.355.446c1.61 2.418 2.74 4.392 3.03 5.87.29 1.586-.257 2.84-1.13 3.65-.968.933-2.39 1.355-4.255 1.19-1.94-.158-4.327-.835-7.07-1.867 1.91 2.32 3.296 4.06 4.064 5.514.387.71.652 1.32.742 1.932.133.578.033 1.23-.156 1.71-.29.742-.646 1.32-1.2 1.742-.51.453-1.122.61-1.832.81-1.52.41-3.65.642-6.846 1.12 5.515 2.1 7.2 4.84 7.456 6.49.098.613 0 1.29-.323 1.868-.29.578-.742 1.1-1.42 1.677-1.23 1.065-3.295 2.262-5.714 3.716l.132.545c2.552-.032 4.65.133 5.97.678 1.42.644 2.288 1.61 2.643 2.742a3.281 3.281 0 0 1-.13 2.23c-.29.7-.8 1.444-1.478 2.155-1.32 1.42-3.163 2.874-4.84 4.45 2.387-.03 4.807-.353 6.995.068 2.164.454 4.13 1.676 5.294 4.583.934 2.455 2.23 3.61 3.84 4.42l.546.223v.677c-.032 1.03-.057 2.006-.61 2.94-.48.742-1.71 1.453-3.287 2.097v.802l-1.23-.258c-1.777-.42-3.776-.744-6.195-.967-3.255-.356-6.996-1.454-10.16-2.998-2.096-1-3.706-2.33-5.036-3.84-.48 3.675-.257 6.97 2.23 9.414 2.286 2.264 2.517 4.78 1.865 7.004-.677 2.253-2.254 4.35-3.898 5.936 2.13-.52 3.93-.585 5.318-.29 1.388.29 2.42 1.09 2.973 2.224.643 1.262.32 2.707-.488 4.03-.834 1.328-2.064 2.617-3.163 3.583 1.486-.1 3.162-.355 4.715-.29 1.543.034 2.897.422 3.83 1.545.843 1 .975 2.33.554 3.584-.423 1.32-1.29 2.61-2.23 3.906 1.452-.487 2.972-1.065 4.392-1.297 1.412-.22 2.833-.032 4.03.976.834.71 1.132 1.77 1.255 3.03.1 1.29-.033 2.71-.256 4.1 1.356-1.323 2.81-2.355 4.263-2.908 1.445-.544 2.865-.544 4.096.2a4.827 4.827 0 0 1 2.154 2.452c.453 1.09.71 2.543.808 4.575 1.487-1.61 2.84-2.834 4.096-3.577 1.264-.742 2.585-1 4.096-.61 1.132.29 2.065 1.156 2.775 2.543.71 1.388 1.23 3.163 1.617 5.195 1-1.387 2.09-2.52 3.22-3.352 1.1-.81 2.23-1.388 3.354-1.42 1.388-.034 2.52.388 3.395 1.19.935.84 1.645 2.038 2.545 3.583.1-3.42.487-6.06 1.486-8.19.935-1.966 2.488-3.65 4.965-5.13l.42-.263.488.264c.39.19.744.356 1.19.546 6.424 3.262 14.74 9.423 21.23 17.838 6.517 8.457 11.257 19.135 10.737 31.357-.38 8.07-2.29 17.616-7.516 25.13-5.196 7.55-13.743 13.03-27.418 12.908-6.392-.066-14.708-1.354-21.455-5.516-6.704-4.16-11.775-11.098-11.576-22.354.1-5.128 1.288-10.62 3.906-14.75 2.61-4.128 6.64-6.96 12.19-7.125 3.32-.1 6.036.61 7.87 1.81 1.84 1.163 2.84 2.84 2.74 4.64-.09 2.006-.8 3.005-1.353 3.715-.322.39-.578.678-.743 1.066-.19.29-.256.736-.19 1.223.132 1 1.387 1.9 2.907 1.164 1.19-.552 2.578-1.683 3.577-3.195 1.033-1.52 1.71-3.417 1.487-5.58-.587-6.228-8.16-12.355-17.648-11.356-7.16.775-13.097 3.55-17.226 8.744-4.097 5.194-6.484 12.742-6.418 23.097.033 10.613 4.485 19.383 12.19 25.453 7.712 6.093 18.778 9.512 32.032 9.413 25.04-.124 46.617-16.45 47.26-42.967v-.678l.612-.257c.91-.388 1.52-.933 1.908-1.743.9-1.774.644-4.326-.42-6.803l-.257-.555.446-.445c.453-.52.71-1.198.874-1.908.388-2.032-.23-4.55-1.13-6.384l-.323-.62.455-.51c.642-.678 1.12-1.553 1.352-2.71.48-2.452-.165-5.648-1.486-8.068l-.42-.743.676-.545c.264-.19.388-.256.29-.19 1.097-1.164 1.518-2.65 1.485-4.195-.066-2.874-1.61-5.87-3.452-7.812l-.742-.8.942-.678c1.032-.744 1.767-1.62 2.03-2.618.77-2.867-.71-7.095-4.095-9.547l-.974-.742.843-.8c1.22-1.1 1.964-2.42 2.063-4.327v-.067c-.29-4.385-1.808-6.606-6.193-9.158l-.744-.42.29-.802c.32-.81.42-1.62.32-2.362-.19-1.352-.8-2.61-1.742-3.83-1.445-1.94-3.542-3.617-5.64-4.484l-.81-.297.257-.868c.068-.19.068-.388.068-.61.066-1-.256-2.065-.933-2.973-1.29-1.8-3.486-3.354-6.68-3.965l-1-.198.197-1c.157-.934 0-1.9-.42-2.71-.678-1.223-3.23-2.84-5.295-3.42l-.966-.255.29-.966c.356-1.166.1-2.454-.932-3.618-1.288-1.48-3.262-2.222-5.616-2.71-2.385-.48-5.127-.71-8.058-.932-5.873-.454-13.586-1.23-18.78-5.872-8.16-7.358-9.09-16.16-5.674-23.23 0-.057-.034-.09 0-.124h.066c.024-.098 0-.164.057-.255l1.84.61c-.71 3.774-.222 8.77 1.677 11.354 2.644 3.387 4.907 3.965 7.194 4.13 2.297.19 4.716-.033 7.49 1.81 3.19 2.088 5.774 2.386 7.995 1.964 2.23-.388 4.095-1.52 5.936-2.295l.546-.224.455.42c3.452 2.964 6.39 6.292 9.71 8.415 1.256.81 2.776 1.618 4.287 2.064 1.487.42 2.84.42 3.906-.257l.61-.322.555.39c.934.677 1.8 1.255 2.42 1.544v-.057c1.288.578 2.544.8 3.708.48 1.19-.29 2.288-1.066 3.353-2.157.81-.81 1.198-1.81 1.165-2.717 0-.967-.354-1.9-1.03-2.866-1.355-1.908-3.874-3.708-6.84-5.128-2.683-1.3-3.682-2.84-4.26-4.585-.61-1.81-.842-3.874-2.163-6.326-1-1.834-2.287-2.867-3.286-4.03-.453-.513-.91-1.066-1.13-1.843-.19-.8-.19-1.71.066-2.865.39-1.553 1.164-2.808 2.353-4.13 1.163-1.263 2.71-2.708 4.582-4.516-.322.066-.42.033-.487.033-.356.09-.9.19-1.545.255a6.073 6.073 0 0 1-1.743-.066c-.487-.1-.908-.125-1.354-.68-.777-.9-.942-2.03-1.066-3.03-.1-.966-.033-1.743-.033-1.743v-.066s-.71.645-1.61 1.2c-.52.29-1.033.48-1.487.61-.256.066-.487.165-.71.19-.19.033-.388.1-.743 0-.478-.124-.933-.545-1.098-.735-.223-.265-.446-.653-.61-1.264-.323-1.097-.513-2.64-.934-4.74-.743 1.744-1.586 3.13-2.676 4.13-1.098 1.03-2.485 1.643-4.45 2-1.776.29-3.783-.224-5.327-1.48-1.52-1.263-2.586-3.196-2.42-5.714.222-3.576 2.03-6.194 4.772-7.936 2.742-1.743 6.417-2.577 10.39-2.71-1.91-1.74-3.907-2.55-5.873-2.807-.777-.066-1.545-.1-2.288-.033v-.034h.006zm263.58 0c-.354.033-.775.033-1.163.066-1.966.232-3.964 1.066-5.872 2.808 3.972.132 7.647.966 10.39 2.71 2.74 1.74 4.55 4.36 4.772 7.935.165 2.485-.9 4.45-2.42 5.68-1.544 1.257-3.55 1.802-5.318 1.48-1.974-.323-3.36-.967-4.46-1.966-1.09-1-1.932-2.42-2.675-4.165-.42 2.13-.61 3.65-.933 4.773-.168.586-.39 1-.614 1.263-.165.19-.61.61-1.1.736-.354.065-.544.032-.742 0-.223-.026-.454-.125-.71-.19a7.227 7.227 0 0 1-1.486-.612c-.9-.554-1.61-1.198-1.61-1.198v.066s.064.777-.035 1.743c-.09.965-.29 2.096-1.065 3.03-.445.553-.866.577-1.353.677-.545.1-1.123.132-1.743.066-.644-.066-1.19-.19-1.544-.256-.066 0-.165.033-.487-.066 1.875 1.842 3.42 3.254 4.584 4.55 1.19 1.29 1.965 2.577 2.353 4.13.254 1.156.254 2.064.065 2.865-.223.778-.678 1.33-1.132 1.843-1 1.164-2.287 2.197-3.287 4.03-1.32 2.42-1.552 4.484-2.163 6.326-.578 1.742-1.577 3.286-4.26 4.583-2.966 1.42-5.485 3.22-6.84 5.128-.643.967-1.03 1.9-1.03 2.867-.034.908.387 1.874 1.163 2.716 1.065 1.09 2.164 1.867 3.353 2.156 1.163.29 2.42.1 3.707-.48v.06c.62-.29 1.486-.87 2.42-1.547l.553-.388.612.322c1.065.677 2.42.677 3.906.223 1.51-.412 3.03-1.22 4.286-2.03 3.32-2.123 6.26-5.45 9.71-8.415l.455-.42.544.222c1.84.775 3.706 1.906 5.936 2.294 2.22.424 4.807.126 8.003-1.963 2.766-1.843 5.185-1.653 7.48-1.81 2.288-.165 4.55-.743 7.194-4.162 1.898-2.55 2.385-7.547 1.675-11.32l1.84-.613c.058.06.034.158.058.257h.067c.033.034 0 .067 0 .09 3.385 7.07 2.485 15.905-5.674 23.23-5.193 4.674-12.906 5.418-18.78 5.905-2.93.223-5.67.454-8.057.933-2.355.487-4.33 1.197-5.65 2.71-1 1.163-1.255 2.45-.9 3.616l.29.966-.967.255c-2.064.578-4.616 2.196-5.293 3.42a4.335 4.335 0 0 0-.422 2.707l.2 1-1 .165c-3.196.644-5.39 2.196-6.68 3.964-.678.94-1 2.008-.934 3.007 0 .19 0 .42.066.61l.222.868-.81.297c-2.064.835-4.16 2.544-5.606 4.45-.942 1.224-1.553 2.513-1.743 3.834-.1.776 0 1.585.29 2.362l.32.8-.743.455c-4.384 2.553-5.936 4.774-6.192 9.16v.065c.1 1.907.842 3.195 2.03 4.326l.876.8-.973.746c-3.386 2.453-4.864 6.68-4.096 9.547.265 1 1 1.874 2.03 2.618l.944.678-.742.8c-1.84 1.942-3.42 4.94-3.484 7.813-.034 1.545.42 3.03 1.518 4.196-.1-.066.033 0 .29.19l.676.545-.42.744c-1.322 2.42-2 5.617-1.487 8.07.23 1.156.71 2.03 1.355 2.71l.422.51-.29.62c-.933 1.833-1.544 4.32-1.13 6.383.164.71.42 1.387.874 1.908l.447.446-.256.553c-1.064 2.476-1.353 5.03-.445 6.803.414.778 1.033 1.356 1.934 1.744l.61.224v.71c.644 26.518 22.23 42.81 47.26 42.968 13.255.067 24.32-3.32 32.034-9.413 7.703-6.07 12.12-14.84 12.188-25.452.033-10.355-2.32-17.903-6.45-23.098-4.096-5.194-10.034-7.97-17.193-8.745-9.48-1-17.095 5.128-17.68 11.355-.19 2.13.485 4.063 1.485 5.55 1.033 1.52 2.42 2.675 3.618 3.228 1.51.71 2.74-.165 2.898-1.164a2.207 2.207 0 0 0-.19-1.255c-.197-.356-.42-.645-.742-1.034-.552-.71-1.262-1.71-1.353-3.74-.1-1.775.9-3.45 2.707-4.65 1.867-1.163 4.584-1.873 7.87-1.774 5.583.166 9.613 2.998 12.222 7.127 2.617 4.13 3.806 9.588 3.905 14.75.2 11.222-4.905 18.192-11.61 22.354-6.714 4.13-15.03 5.45-21.42 5.517-13.677.124-22.224-5.392-27.42-12.907-5.226-7.515-7.16-17.06-7.514-25.13-.552-12.22 4.22-22.932 10.712-31.355 6.515-8.415 14.83-14.576 21.255-17.838.422-.223.8-.388 1.157-.545l.52-.265.42.264c2.454 1.48 4.03 3.13 4.964 5.13.998 2.13 1.386 4.77 1.486 8.19.867-1.545 1.61-2.775 2.543-3.617.874-.768 1.973-1.19 3.393-1.157 1.09.032 2.222.61 3.353 1.42 1.1.8 2.22 1.965 3.23 3.353.38-2.033.866-3.84 1.61-5.23.71-1.353 1.642-2.22 2.774-2.51 1.51-.387 2.84-.13 4.096.61 1.256.745 2.577 1.967 4.097 3.578.066-2.033.355-3.486.81-4.576.412-1.1 1.188-1.908 2.154-2.486 1.2-.71 2.65-.71 4.074-.164 1.478.553 2.93 1.585 4.286 2.907-.224-1.388-.356-2.808-.257-4.096.123-1.264.42-2.32 1.255-3.03 1.197-1.033 2.618-1.232 4.005-1.01 1.445.233 2.965.81 4.418 1.33-.94-1.296-1.806-2.584-2.23-3.905-.42-1.29-.29-2.61.556-3.618.933-1.09 2.287-1.478 3.83-1.544 1.554-.033 3.23.223 4.717.322-1.1-.966-2.354-2.255-3.163-3.584-.843-1.356-1.13-2.768-.488-4.03.553-1.133 1.585-1.934 2.973-2.223 1.387-.322 3.154-.23 5.318.29-1.677-1.586-3.254-3.684-3.898-5.938-.652-2.223-.42-4.774 1.866-7.004 2.488-2.443 2.71-5.74 2.23-9.413-1.33 1.51-2.94 2.84-5.035 3.84-3.164 1.543-6.905 2.64-10.16 2.963-2.45.256-4.417.58-6.192 1l-1.23.256v-.8c-1.578-.646-2.833-1.357-3.288-2.1-.545-.966-.578-1.908-.61-2.94v-.677l.544-.224c1.61-.81 2.906-1.998 3.84-4.418 1.164-2.907 3.13-4.162 5.26-4.583 2.22-.455 4.64-.1 6.994-.067-1.644-1.578-3.486-3.03-4.807-4.45-.677-.712-1.19-1.455-1.478-2.157-.298-.685-.39-1.486-.133-2.23.322-1.164 1.222-2.13 2.642-2.74 1.32-.546 3.42-.71 5.97-.678l.1-.544c-2.42-1.454-4.45-2.65-5.68-3.716-.68-.578-1.134-1.1-1.423-1.677-.322-.61-.413-1.255-.322-1.866.257-1.653 1.942-4.427 7.425-6.49-3.164-.48-5.294-.71-6.814-1.125-.702-.198-1.32-.388-1.833-.81-.554-.42-.91-1.032-1.2-1.742-.188-.478-.288-1.13-.188-1.708.1-.61.388-1.222.743-1.933.8-1.487 2.188-3.196 4.096-5.517-2.74 1.032-5.16 1.71-7.068 1.866-1.866.13-3.287-.256-4.253-1.19-.876-.84-1.42-2.063-1.132-3.65.29-1.477 1.42-3.484 3.03-5.87l-.353-.446c-2.642 1.19-5.318 2.063-7.548 2.286-1.256.132-2.387.1-3.23-.066-.445-.066-.8-.19-1.123-.29-.29-.123-.487-.222-.81-.577a2.755 2.755 0 0 1-.676-1.908c.034-.71.323-1.323.61-1.868.423-.776.71-1.032 1-1.354l-.32-.422c-.414.132-.744.322-1.776.487-1.545.255-3.32.222-4.707-.554-.612-.357-1-.778-1.256-1.257a2.815 2.815 0 0 1-.164-1.84c.29-1.356 1.677-3.32 3.584-5.774l-.39-.488c-2.575 1-5.094 1.676-7.093 1.907-1.164.123-2.23.156-3.04.065-.833-.067-1.386-.2-1.93-.488a2.943 2.943 0 0 1-1.132-.934c-.256-.42-.388-.874-.48-1.295-.164-1.032 0-2.32.447-3.964h-.06c-1.907 1.355-3.418 2.165-4.97 2.553-1.545.355-2.998.157-4.642-.264-1.486-.39-3.26-1.48-5.516-2.545-2.263-1.065-4.872-2.097-7.49-2.296-.355-.034-.735 0-1.123 0l.008.004zM252 373.574c-30.39 0-45.287 4.608-54 8.614l-1.065.413-.29-1.03c-.775-2.477-1.55-4.42-2.418-6.193-.39-.61-1.23-.966-2.552-1.123a10.239 10.239 0 0 0-1.065-.066c-1.157 0-2.643.19-4.385.578-15.707 3.295-30.258 11.165-44.032 20.9v.067s4.938 1.586 7.002 5.583c2.222 4.352 1.132 8.78 1.1 8.87.09-.067 11.477-7.705 17.605-10.9 6.582-3.42 13.196-5.807 21-7.55l.842-.197.323.874c.545 1.578.933 3.255 1.222 5.517.23 1.42.776 2.32 1.552 2.776.84.48 1.872.545 3.094.355 2.453-.32 5.417-1.675 8.258-2.773 8.968-3.452 23.676-6.128 47.806-6.128s38.837 2.675 47.805 6.127c2.84 1.098 5.805 2.452 8.258 2.774 1.23.19 2.264.125 3.098-.354.777-.454 1.322-1.354 1.553-2.775.29-2.26.678-3.94 1.223-5.515l.323-.874.842.2c7.804 1.74 14.418 4.13 21 7.547 6.128 3.196 17.515 10.834 17.606 10.9-.024-.09-1.123-4.517 1.1-8.87 2.063-3.996 7-5.58 7-5.58v-.067c-13.773-9.737-28.324-17.607-44.03-20.9-1.743-.39-3.23-.58-4.386-.58-.388 0-.71.033-1.065.066-1.32.157-2.163.48-2.552 1.123-.866 1.773-1.642 3.714-2.42 6.19l-.287 1.034-1.066-.412c-8.714-4.006-23.61-8.614-54-8.614l.003-.004z"/><path fill="#FD391F" d="M266.353 88.184c-7.127 0-12.644 2.03-16.45 6.127-3.84 4.066-5.773 9.97-5.773 17.717 0 7.738 1.932 13.708 5.772 17.837 3.807 4.13 9.29 6.194 16.417 6.194 7.1 0 12.583-2.065 16.39-6.194 3.84-4.13 5.706-10.1 5.706-17.77 0-7.714-1.9-13.618-5.706-17.714-3.773-4.13-9.2-6.195-16.36-6.195h.003zm-92.995 1.164-16.425 46.708h10.645l3.36-11.1H187.9l3.33 11.1h10.678l-16.484-46.708h-12.066zm-71.97.19v46.518h8.77v-21.61c0-2.487-.22-7.458-.61-14.874h.322l11.198 36.484h9.026l11.975-36.418h.32c-.266 5.838-.42 9.48-.455 10.835-.034 1.354-.067 2.55-.067 3.584v22h9.16v-46.52h-13.356l-11.71 35.552h-.19L114.81 89.535h-13.42l-.002.002zm99.453 0 15.42 28.747v17.77h9.8v-18.092l15.43-28.425h-10.62l-9.704 19.134-9.612-19.134H200.84zm93.35 0v8.225h12.62v38.293h9.836V97.763h12.643v-8.225h-35.1zm39.327 0v8.225h12.61v38.293h9.877V97.763h12.61v-8.225h-35.097zm42.356 0v46.518h26.74v-8.126H385.71v-12.007h15.747v-8.06H385.71V97.64h16.904v-8.102h-26.74zm-109.517 6.87c7.845 0 11.71 5.195 11.71 15.683 0 10.45-3.898 15.71-11.744 15.71-3.93 0-6.903-1.32-8.87-3.94-1.964-2.642-2.963-6.573-2.963-11.767 0-5.193 1.03-9.066 3.03-11.71 2-2.65 4.94-3.97 8.836-3.97v-.005zm-86.933.2c.157.734.454 1.766.867 3.096.387 1.288 2.13 6.995 5.26 17.028h-12.13c3.293-10.71 5.292-17.416 6.002-20.125zM194.03 257.44c-4.963 2.42-8.415 7.484-8.415 13.39 0 5.87 3.452 10.965 8.415 13.352-4.963 2.42-8.415 7.524-8.415 13.395 0 5.897 3.452 10.967 8.415 13.387-4.963 2.386-8.415 7.482-8.415 13.386 0 8.192 6.648 14.84 14.873 14.84 5.517 0 10.29-3.04 12.866-7.49.322.553.677 1.098 1.066 1.618a14.789 14.789 0 0 0 11.81 5.872c5.515 0 10.32-3.04 12.898-7.49.322.553.652 1.098 1.032 1.618a14.819 14.819 0 0 0 11.842 5.872c5.516 0 10.323-3.04 12.874-7.49.322.553.677 1.098 1.066 1.618a14.788 14.788 0 0 0 11.833 5.872c5.517 0 10.323-3.04 12.875-7.49.322.553.677 1.098 1.065 1.618 2.71 3.576 6.995 5.872 11.8 5.872 2.065 0 4.006-.42 5.78-1.165.447-.19.87-.388 1.29-.61a15.109 15.109 0 0 0 6.028-6.037 14.738 14.738 0 0 0 1.777-7.028c0-5.904-3.452-11-8.415-13.386a14.92 14.92 0 0 0 7.803-9.167c.39-1.354.612-2.74.612-4.22 0-1.486-.223-2.873-.612-4.195a14.98 14.98 0 0 0-7.803-9.2c4.963-2.386 8.415-7.48 8.415-13.352 0-5.905-3.452-10.967-8.415-13.387H194.028l.002-.003zm31.323 36.42c2.363 0 4.23 1.875 4.23 4.195a4.202 4.202 0 0 1-4.23 4.23c-2.32 0-4.186-1.876-4.186-4.23a4.184 4.184 0 0 1 4.187-4.195zm53.3 0a4.183 4.183 0 0 1 4.186 4.195c0 2.354-1.87 4.23-4.19 4.23a4.202 4.202 0 0 1-4.23-4.23c0-2.32 1.868-4.195 4.23-4.195h.003z"/><path fill="#446EC4" d="M200.486 175.703c-8.225 0-14.873 6.64-14.873 14.84 0 5.896 3.452 11 8.415 13.386-4.963 2.42-8.415 7.48-8.415 13.383 0 5.872 3.452 10.967 8.415 13.387-4.963 2.387-8.415 7.48-8.415 13.354 0 5.904 3.452 10.967 8.415 13.386h115.944c4.963-2.418 8.415-7.48 8.415-13.385 0-5.872-3.452-10.967-8.415-13.353 4.963-2.42 8.415-7.515 8.415-13.387 0-5.904-3.452-10.966-8.415-13.386 4.963-2.39 8.415-7.49 8.415-13.39 0-8.2-6.648-14.84-14.873-14.84-5.517 0-10.29 3.03-12.866 7.483-2.552-4.45-7.358-7.482-12.875-7.482-5.516 0-10.322 3.03-12.9 7.483-2.55-4.45-7.357-7.482-12.873-7.482-5.516 0-10.323 3.03-12.874 7.483-2.577-4.45-7.383-7.482-12.9-7.482-5.516 0-10.322 3.03-12.874 7.483-2.576-4.45-7.35-7.482-12.866-7.482v.003zm30.027 27.285c.033 11.875 9.62 21.454 21.487 21.454 11.875 0 21.454-9.58 21.487-21.454a24.703 24.703 0 0 1 3.287 12.33c0 13.707-11.1 24.773-24.774 24.773-13.675 0-24.774-11.063-24.774-24.77 0-4.485 1.197-8.68 3.287-12.33v-.002z"/><path fill="#4B4233" d="M119.582 164.86c-5.65.42-10.843 4.26-13.196 4.872-3.097.843-5.13.488-8.804-2.163l-2.295-1.614.743 2.676c.454 1.553.52 2.742.388 3.518-.124.777-.355 1.198-1.065 1.554-.545.29-2.222.545-4.385.322-2.164-.265-4.84-.876-7.68-2.065l-1.123 1.48c2.386 2.907 3.51 4.97 3.774 6.16.153.587.09.91-.036 1.165-.166.256-.39.545-.876.81-1.066.578-2.643.644-4.03.412a11.09 11.09 0 0 1-2.42-.61l-1.066 1.618s.777.8 1.322 1.8c.264.487.454.966.487 1.42.034.455-.1.843-.42 1.23-.132.158-.61.38-1.39.513-.74.132-1.74.165-2.896.066-2.33-.256-5.228-1.065-8.002-2.42l-1.23 1.42c2.006 2.81 2.972 4.807 3.228 6.194.256 1.355-.066 2.065-.81 2.775-.71.71-1.8 1-3.542.867-1.708-.125-4.037-.777-6.746-1.81l-3.385-1.29 2.285 2.843c1.875 2.32 3.262 4.096 3.972 5.384.677 1.322.776 2.065.48 2.808-.513 1.255-1.033 1.61-2.354 1.966-1.355.39-3.485.588-6.74 1.067l-3.77.553 3.577 1.386c5.293 2 6.614 4.542 6.813 5.674.124.91-.2 1.586-1.42 2.676-1.23 1.066-3.296 2.362-6.128 4.04l.48 1.832c3.03-.124 5.07.198 6.324.743 1.256.556 1.842 1.2 2.098 2.1.19.58.124 1-.132 1.55-.223.58-.677 1.225-1.288 1.87-1.23 1.32-3.097 2.74-4.84 4.385l-1.775 1.742h2.516c2.452-.033 4.872-.322 6.837.066 1.933.39 3.452 1.265 4.517 3.973 1.034 2.61 2.578 3.997 4.32 4.897-.033 1-.066 1.776-.48 2.453-.42.71-1.262 1.486-3.417 2.13v.033c-1.81-.42-3.84-.744-6.326-.967-3.097-.322-6.772-1.354-9.835-2.874-3.072-1.487-5.492-3.287-6.26-5.74-1.197 5.03-1.032 9.513 2.354 12.866 2.064 2.04 2.196 4.07 1.61 6.07-.578 2.03-2.13 3.997-3.708 5.516l-2.677 2.61 3.61-.933c2.066-.52 3.74-.58 4.94-.323 1.19.256 1.84.776 2.287 1.676.454.9.264 1.933-.48 3.098-.742 1.198-1.907 2.42-2.972 3.353l-2.155 1.874 2.832-.132c1.553-.1 3.23-.355 4.65-.322 1.42.066 2.485.355 3.162 1.197.644.768.71 1.545.355 2.643-.324 1.098-1.2 2.42-2.1 3.642l-1.81 2.55 2.934-1.03c1.453-.52 2.94-1.066 4.195-1.256 1.29-.2 2.32-.1 3.295.734.48.423.768 1.23.867 2.364.1 1.123-.033 2.51-.256 3.83l-.487 2.974 2.163-2.03c1.288-1.265 2.708-2.264 3.963-2.743 1.264-.455 2.263-.455 3.23.123.842.52 1.32 1.03 1.71 2.006.387.932.676 2.286.775 4.32l.034 2.417 1.61-1.808c1.52-1.61 2.775-2.776 3.906-3.453 1.126-.677 2.034-.9 3.355-.545.81.19 1.553.8 2.164 2.03.642 1.19 1.096 2.965 1.476 4.964l.454 2.23 1.356-1.875c1.907-2.61 4.26-4.286 5.772-4.32 1.23-.065 1.94.224 2.717.9.768.678 1.478 1.84 2.353 3.36l1.8 3.1.067-3.52c.066-3.42.454-5.872 1.354-7.804.84-1.81 2.23-3.295 4.58-4.716.39.197.778.354 1.167.552 6.284 3.154 14.484 9.29 20.868 17.573 6.416 8.324 11.066 18.746 10.545 30.68-.355 7.935-2.254 17.357-7.316 24.65-5.07 7.29-13.23 12.576-26.616 12.452-6.26-.066-14.452-1.387-20.934-5.392-6.483-3.997-11.29-10.546-11.1-21.48.1-5.004 1.29-10.264 3.775-14.195 2.483-3.938 6.06-6.548 11.32-6.68 3.162-.09 5.714.553 7.325 1.585 1.61 1.066 2.353 2.387 2.287 3.807-.1 1.834-.578 2.478-1.098 3.155-.29.322-.61.677-.867 1.164-.29.49-.422 1.168-.322 1.878.256 1.676 2.287 2.866 4.318 1.9 1.388-.645 2.84-1.867 3.973-3.52 1.123-1.675 1.9-3.84 1.676-6.25-.644-6.937-8.81-13.262-18.78-12.197-7.35.776-13.575 3.675-17.87 9.1-4.318 5.418-6.672 13.22-6.64 23.71.067 10.9 4.642 19.992 12.578 26.252 7.937 6.26 19.193 9.68 32.645 9.614 25.452-.157 47.583-16.904 48.227-43.966 1.1-.48 1.934-1.255 2.42-2.254 1.1-2.13.777-4.94-.354-7.614.578-.68.933-1.488 1.098-2.355.488-2.362-.256-5.004-1.23-7.003.776-.81 1.362-1.9 1.618-3.196.545-2.774-.198-6.16-1.618-8.737.132-.133.33-.2.42-.323 1.298-1.387 1.777-3.13 1.743-4.872-.068-3.196-1.71-6.392-3.71-8.49 1.165-.833 2.065-1.866 2.42-3.154.9-3.392-.776-7.934-4.45-10.62 1.353-1.253 2.254-2.863 2.32-5.06v-.066c-.256-4.674-2.13-7.383-6.673-10.025.355-.943.512-1.91.38-2.84-.223-1.555-.933-3.033-1.932-4.36-1.578-2.067-3.774-3.834-6.062-4.775.058-.256.09-.512.124-.8.066-1.232-.322-2.487-1.123-3.585-1.42-2-3.873-3.71-7.292-4.388a5.376 5.376 0 0 0-.585-3.418c-.9-1.71-3.61-3.196-5.863-3.84.445-1.487.09-3.13-1.132-4.518-1.52-1.742-3.708-2.576-6.193-3.096-2.454-.51-5.23-.71-8.16-.932-5.847-.455-13.296-1.29-18.168-5.65-8.027-7.225-8.803-15.64-5.384-22.42-.745 4.006-.323 9.2 1.873 12.165 2.8 3.584 5.51 4.318 7.93 4.517 2.42.157 4.46-.066 7.003 1.61 3.387 2.23 6.26 2.618 8.713 2.164 2.486-.455 4.418-1.644 6.16-2.354 3.353 2.9 6.26 6.26 9.77 8.48 2.585 1.644 6.524 3.618 9.29 1.876 1.008.71 1.94 1.255 2.618 1.61 1.454.644 2.966.834 4.386.487 1.42-.355 2.677-1.23 3.84-2.42.967-1.007 1.454-2.196 1.42-3.426-.032-1.19-.486-2.32-1.23-3.386-1.51-2.12-4.13-3.994-7.192-5.45-2.543-1.22-3.22-2.384-3.774-4.03-.546-1.64-.802-3.904-2.222-6.48-1.13-2.065-2.552-3.163-3.42-4.162-.874-1.032-1.32-1.743-.808-3.84.355-1.388 1-2.486 2.097-3.708 1.134-1.265 2.71-2.677 4.71-4.584l.677-.578-.545-.744-.355-.223-.197-.13h-.48c-.065 0-.065.033-.13.066-.125 0-.323 0-.513.033-.355.09-.875.222-1.42.255-.52.066-1.066 0-1.487-.066-.42-.067-.677-.158-.8-.29-.488-.578-.71-1.643-.81-2.55-.1-.9-.066-1.546-.066-1.546l.256-2.485-1.866 1.61s-.645.552-1.487 1.064c-.834.487-1.866.743-2.163.677-.356-.09-.48-.223-.612-.39-.123-.155-.29-.38-.454-.865-.255-.933-.38-2.552-.833-4.74l-.644-3.097-1.29 2.9c-.71 1.708-1.452 2.972-2.42 3.84-.94.874-2.095 1.386-3.97 1.74-1.453.257-3.23-.19-4.517-1.254-1.288-1.065-2.19-2.676-2.032-4.872.2-3.285 1.777-5.515 4.33-7.125 2.542-1.618 6.06-2.486 9.9-2.618l2.486-.125-1.81-1.618c-2.064-1.866-4.294-2.775-6.482-3.03-.843-.1-1.677-.133-2.486-.067v.033l-.006-.003zm263.614 0c-.42 0-.842 0-1.264.033-2.188.256-4.418 1.165-6.482 3.03l-1.81 1.62 2.487.123c3.84.132 7.358 1 9.9 2.618 2.553 1.61 4.13 3.84 4.33 7.127.156 2.2-.745 3.84-2.033 4.875-1.288 1.065-3.064 1.51-4.517 1.255-1.875-.323-3.03-.868-3.972-1.743-.966-.867-1.71-2.13-2.412-3.84l-1.296-2.9-.644 3.098c-.42 2.188-.578 3.807-.834 4.773-.168.454-.3.677-.457.834-.133.166-.256.3-.612.39-.29.065-1.32-.19-2.162-.678-.843-.48-1.488-1.065-1.488-1.065l-1.866-1.61.256 2.483s.033.644-.066 1.545c-.1.907-.322 1.972-.81 2.55-.123.132-.38.223-.8.29-.42.1-.966.13-1.487.065-.546-.033-1.033-.165-1.42-.223-.19-.066-.39-.033-.513-.066-.033-.033-.066-.066-.1-.066h-.51l-.2.132-.356.223-.544.744.678.577c1.998 1.932 3.575 3.32 4.707 4.583 1.1 1.222 1.775 2.32 2.097 3.708.512 2.097.066 2.84-.81 3.84-.866 1.032-2.287 2.13-3.418 4.162-1.388 2.576-1.644 4.84-2.22 6.482-.556 1.643-1.233 2.807-3.776 4.03-3.064 1.486-5.682 3.327-7.193 5.45-.742 1.065-1.196 2.196-1.23 3.42-.032 1.196.455 2.385 1.42 3.393 1.165 1.19 2.454 2.064 3.84 2.42 1.42.346 2.933.19 4.42-.488.643-.322 1.576-.875 2.584-1.61 2.766 1.742 6.738-.232 9.29-1.875 3.51-2.22 6.417-5.58 9.802-8.48 1.71.71 3.64 1.9 6.127 2.354 2.453.454 5.36.066 8.712-2.164 2.55-1.676 4.582-1.42 7.002-1.61 2.42-.2 5.16-.933 7.936-4.517 2.188-2.965 2.61-8.16 1.866-12.132 3.42 6.75 2.642 15.164-5.385 22.423-4.84 4.352-12.32 5.16-18.16 5.616-2.94.255-5.714.42-8.167.932-2.486.52-4.675 1.355-6.194 3.097-1.222 1.387-1.577 3.03-1.123 4.517-2.262.644-4.97 2.13-5.87 3.84a5.454 5.454 0 0 0-.586 3.418c-3.42.678-5.84 2.387-7.293 4.386-.8 1.098-1.19 2.353-1.122 3.617.032.256.065.512.123.8-2.254.91-4.483 2.676-6.06 4.74-1 1.355-1.71 2.808-1.93 4.36-.134.934.03 1.9.38 2.842-4.544 2.64-6.42 5.35-6.675 10.024v.066c.067 2.196.968 3.806 2.355 5.06-3.707 2.685-5.383 7.227-4.483 10.62.356 1.29 1.256 2.322 2.42 3.156-1.998 2.096-3.64 5.292-3.707 8.49-.034 1.74.454 3.516 1.742 4.87.09.124.29.223.42.322-1.42 2.61-2.162 5.962-1.617 8.736a6.52 6.52 0 0 0 1.618 3.23c-.974 1.965-1.71 4.607-1.23 7.002.165.834.52 1.677 1.098 2.354-1.13 2.642-1.45 5.45-.353 7.614.486.966 1.32 1.742 2.42 2.22.643 27.063 22.774 43.81 48.226 43.967 13.452.067 24.708-3.352 32.644-9.61 7.936-6.227 12.52-15.35 12.577-26.253.033-10.487-2.32-18.29-6.607-23.71-4.327-5.423-10.553-8.322-17.903-9.1-9.943-1.063-18.135 5.295-18.78 12.2-.222 2.41.554 4.574 1.677 6.25 1.133 1.652 2.586 2.874 3.974 3.52 2.03.965 4.062-.19 4.318-1.9.1-.71-.032-1.355-.32-1.876-.257-.485-.58-.84-.835-1.162-.554-.676-1.033-1.32-1.132-3.154-.066-1.42.677-2.74 2.287-3.773 1.61-1.066 4.163-1.71 7.325-1.62 5.26.166 8.837 2.743 11.322 6.68 2.485 3.933 3.674 9.193 3.773 14.197.19 10.933-4.615 17.482-11.1 21.48-6.48 4.004-14.672 5.325-20.932 5.39-13.385.125-21.544-5.16-26.615-12.452-5.062-7.292-6.96-16.714-7.316-24.65-.52-11.933 4.13-22.355 10.545-30.646 6.392-8.318 14.584-14.454 20.868-17.608.39-.198.777-.355 1.165-.554 2.352 1.42 3.74 2.907 4.582 4.716.9 1.932 1.288 4.385 1.354 7.804l.067 3.517 1.8-3.097c.877-1.52 1.587-2.65 2.363-3.328.767-.677 1.48-.966 2.71-.933 1.51.03 3.863 1.707 5.77 4.317l1.355 1.874.454-2.23c.38-1.997.833-3.74 1.477-4.962.62-1.198 1.354-1.842 2.163-2.032 1.32-.355 2.23-.132 3.354.545 1.13.677 2.385 1.842 3.905 3.485l1.61 1.775.032-2.42c.1-1.997.355-3.384.743-4.317.39-.942.9-1.487 1.744-1.974.966-.58 1.965-.61 3.23-.125 1.254.446 2.674 1.478 3.96 2.71l2.166 2.03-.487-2.973c-.224-1.32-.356-2.675-.257-3.83.1-1.133.388-1.942.867-2.363.973-.8 2.006-.933 3.294-.735 1.254.223 2.74.735 4.194 1.255l2.9 1.034-1.777-2.518c-.9-1.256-1.773-2.544-2.095-3.675-.356-1.096-.29-1.873.355-2.64.676-.843 1.74-1.13 3.16-1.198 1.42-.032 3.065.224 4.65.323l2.833.132-2.156-1.875c-1.065-.934-2.23-2.156-2.973-3.353-.734-1.166-.932-2.198-.478-3.098.42-.9 1.098-1.387 2.288-1.643 1.164-.257 2.873-.233 4.938.29l3.61.93-2.677-2.61c-1.61-1.52-3.13-3.486-3.707-5.484-.578-2.032-.454-4.063 1.61-6.103 3.386-3.32 3.55-7.837 2.354-12.866-.768 2.486-3.22 4.253-6.26 5.772-3.063 1.485-6.738 2.517-9.868 2.84-2.454.255-4.485.544-6.294 1v-.068c-2.155-.643-2.997-1.42-3.418-2.13-.413-.676-.446-1.453-.48-2.452 1.743-.9 3.287-2.254 4.32-4.897 1.065-2.683 2.55-3.583 4.517-3.97 1.963-.388 4.383-.1 6.802-.066h2.55l-1.807-1.71c-1.71-1.676-3.576-3.096-4.807-4.418-.61-.645-1.066-1.29-1.32-1.834-.225-.586-.29-1.007-.1-1.552.263-.932.84-1.577 2.097-2.13 1.263-.545 3.295-.867 6.325-.743l.478-1.832c-2.832-1.677-4.897-2.973-6.127-4.04-1.22-1.09-1.576-1.766-1.42-2.674.166-1.13 1.52-3.674 6.814-5.673l3.586-1.39-3.775-.553c-3.254-.48-5.384-.677-6.74-1.032-1.353-.39-1.84-.744-2.352-2-.297-.742-.198-1.452.48-2.774.71-1.32 2.096-3.093 3.97-5.38l2.288-2.875-3.382 1.322c-2.71 1-5.038 1.65-6.78 1.775-1.71.166-2.8-.156-3.51-.866-.743-.677-1.065-1.387-.81-2.775.257-1.354 1.223-3.385 3.23-6.193l-1.264-1.42c-2.774 1.387-5.64 2.163-7.97 2.42a10.25 10.25 0 0 1-2.897-.067c-.777-.133-1.256-.356-1.388-.488-.356-.412-.455-.8-.42-1.255.03-.454.23-.933.485-1.42.545-1 1.322-1.8 1.322-1.8l-1.066-1.62s-1.032.422-2.42.645c-1.387.2-2.964.133-4.03-.446-.486-.264-.742-.52-.875-.81-.123-.255-.19-.577-.066-1.163.297-1.188 1.42-3.253 3.806-6.127l-1.123-1.486c-2.84 1.164-5.516 1.808-7.68 2.04-2.163.223-3.84-.033-4.385-.322-.71-.356-.94-.777-1.065-1.553-.132-.776-.066-1.932.388-3.518l.744-2.676-2.295 1.61c-3.676 2.654-5.708 3.01-8.805 2.166-2.353-.61-7.547-4.45-13.196-4.872a7.564 7.564 0 0 0-1.223 0v-.004zm-207.484 1.908v1s-.165 36.673-.198 75.354c-.066 38.705-.033 79.352.198 87.42.256 9.513 5.417 14.996 12.742 17.64 7.317 2.617 16.74 2.65 26.253 1.84 9.744-.81 18.49-2.55 25.162-.42 3.325 1.065 6.223 3.038 8.643 6.68 1.32 1.965 2.486 4.418 3.485 7.45 1-3.032 2.163-5.485 3.484-7.45 2.42-3.642 5.318-5.615 8.646-6.68 6.674-2.13 15.42-.39 25.163.42 9.515.81 18.937.777 26.254-1.84 7.325-2.644 12.486-8.127 12.742-17.64.23-8.068.264-48.715.198-87.42-.033-38.68-.198-75.355-.198-75.355v-1H175.712zm-55.52.124c1.677-.058 3.354.23 5.03 1.164-3.097.388-5.995 1.098-8.316 2.552-2.94 1.866-5.004 4.773-5.26 8.67-.165 2.808 1.065 5.13 2.808 6.55 1.742 1.453 3.964 2.064 6.06 1.676 2.132-.355 3.742-1.123 5.005-2.288.642-.578 1.03-1.52 1.476-2.287.165.83.322 1.863.52 2.482.157.612.388 1.19.8 1.677.422.48 1.008.8 1.686 1 1.387.354 2.576-.356 3.575-.94.098-.06.098-.06.198-.126.09 1.098.355 2.485 1.288 3.576.512.654 1.222.943 1.932 1.067.454.1.91.066 1.355.066-.9.842-1.965 1.84-2.675 2.585-1.222 1.387-2.164 2.774-2.577 4.542-.652 2.55.09 4.36 1.157 5.614 1.065 1.288 2.32 2.197 3.228 3.84 1.223 2.288 1.454 4.228 2.098 6.128.646 1.94 1.934 3.773 4.84 5.16 2.834 1.355 5.196 3.13 6.385 4.84.578.842.842 1.643.875 2.32 0 .71-.23 1.322-.875 2.007-.967 1-1.966 1.61-2.932 1.864-.94.223-1.908.132-3.04-.39-2.22-1.03-6.25-4.284-9.157-10.222 0 4.385 2.32 7.58 4.65 9.612-3.296-.033-4.328-.81-7.136-2.74-3.32-2.29-6.35-5.617-10.09-8.714-3.328-2.806-7.49-4.74-9.712-6.902-1.13-1.067-1.775-2.132-1.808-3.387-.033-1.253.578-3.74 2.287-5.936-3.608 1.974-4.253 4.195-4.253 6.004.033 1.898 1.033 3.484 2.354 4.772 2.32 2.23 5.74 3.905 8.613 6.003-1.574.677-3.094 1.42-4.77 1.742-2.03.355-4.26.124-7.325-1.874-3.03-2-5.706-1.74-7.903-1.9-2.22-.196-3.996-.55-6.514-3.805-1.487-1.907-2.23-5.483-1.81-9.29.52-4.55 4.04-7.903 6.715-13.006-17.16 10.842-14.36 26.84-4.095 35.42 5.483 4.615 13.22 5.55 19.125 6.035 2.964.223 5.68.388 7.935.867 2.255.455 3.964 1.2 5.063 2.454.91 1.065 1.033 1.874.744 2.74-.254.877-1.13 1.876-2.575 2.842-2.94 1.966-10.034 4.45-16.36 4.65 7.614 1.577 13.65-.587 17.45-2.973 1.1-.678 1.94-1.454 2.55-2.288 1.967.48 4.32 1.833 4.973 3.03.676 1.29.643 2.676-.943 4.23-3.287 3.162-8.16 4.896-14.13 5.672 6.49 1.064 12.132-1.58 15.484-4.32.49-.39.81-.843 1.133-1.29 3.23.545 5.384 2.254 6.482 3.774.586.768.81 1.51.743 2.22 0 .133-.034.29-.067.423 0 .032.033.098 0 .13l-.033.125c-.158.488-.48.934-1 1.42-3.543 3.197-8.45 5.13-16.84 4.906 9.647 1.9 15.13-.743 18.136-3.42.255-.23.544-.486.734-.742 1.91.743 4.04 2.288 5.394 4.096.867 1.13 1.42 2.354 1.545 3.452.164 1.098-.034 2.065-.8 2.965-.845 1.032-2.843 2.485-5.263 3.36-2.42.867-5.36 1.51-7.87 1.74 3.642.48 6.55.09 8.547-.452 2.643-.677 4.707-1.81 5.996-3.328 4.16 2.36 5.457 4.194 5.713 8.29v.066c-.1 2.23-1.288 3.707-3.23 4.904-1.93 1.19-5.35 2.742-7.968 3.196 4.517.355 7.49-.743 9.233-1.775 3.61 2.355 4.898 5.997 4.13 8.838-.297 1.066-1.454 2.13-3.163 2.94-2.453 1.09-3.94 1.512-6.55 2.156 2.512.42 5.196.487 7.293-.388.058-.025.124-.025.19-.058 1.743 1.71 3.42 4.93 3.485 7.58.033 1.355-.29 2.512-1.197 3.453-.867.967-3.543 2.123-5.996 2.42 1.865.58 3.74.58 5.193.19 1.222 2.164 1.866 5.096 1.42 7.416-.23 1.297-.743 2.387-1.62 3.163-.833.776-2.22 1.676-5.193 2.065 2.198.454 4.097.23 5.584-.512.743 1.676 1.288 3.897.933 5.45-.77 3.32-3.71 3.386-6.063 4.162 1.966.61 3.873.388 5.195-.198.842 2.196 1.065 4.393.29 5.582-1.934 3.096-4.353 2.163-6.55 2.42 1.288.81 2.676 1.064 3.906 1.03-.842 25.775-21.843 41.49-46.328 41.647-13.09.066-23.832-3.254-31.347-9.192-7.49-5.904-11.774-14.352-11.807-24.708-.066-10.2 2.22-17.515 6.193-22.487 3.93-4.938 9.546-7.613 16.515-8.357 9.003-.933 16.096 5.038 16.617 10.488.155 1.9-.39 3.52-1.33 4.874-.9 1.355-2.156 2.387-3.156 2.866-1.065.486-1.585-.257-1.585-.447-.066-.355 0-.42.1-.62.13-.19.387-.478.71-.867.61-.776 1.42-2.097 1.543-4.327.1-2.19-1.19-4.19-3.22-5.518-2.065-1.32-4.972-2.032-8.423-1.933-4.163.133-7.516 1.743-10.093 4.163-3.518.933-6.193 2.675-7.812 4.996-1.032 1.452-1.61 3.07-1.387 4.615.132.677.42 1.23.875 1.643-1.584.94-2.708 2.682-2.84 4.97-.1 1.9.132 3.55.933 4.84.323.544.81.965 1.355 1.287-1.42 1.553-2 3.972-1.42 6.384.33 1.362.976 2.807 2.297 3.906.677.553 1.577.933 2.544 1.098-.354.867-.48 1.875-.32 2.932.296 1.874 1.485 3.906 3.517 5.747 1.808 1.61 3.707 2.71 5.648 2.965.9.13 1.743.065 2.61-.158 0 .578.166 1.255.554 1.833 1.03 1.52 3.186 2.65 7.382 3.708 3.296.843 5.905 1.62 8.1 1.33 1.034-.164 2.033-.586 2.743-1.387.355.644.9 1.156 1.544 1.512 1.74.933 4.16.908 7.48.553 2.81-.32 5.484-.552 7.36-1.742.932-.586 1.675-1.552 1.807-2.708.033-.165 0-.355 0-.52 1 .454 2.097.61 3.163.52 2.32-.265 4.64-1.52 6.738-3.006 1.578-1.065 2.932-2.42 3.353-4.195.198-.803.13-1.613-.19-2.48 1.22.157 2.486-.1 3.61-.81 2.26-1.42 4.194-4.26 6.126-8.356 1.388-2.997 2.775-6.35 2.65-9.29-.065-1.445-.52-2.865-1.675-3.84-.1-.09-.296-.156-.42-.255a5.311 5.311 0 0 0 1.486-1.158c1.355-1.65 1.9-4.038 2.156-7.07.257-2.806.645-5.416-.42-7.546-.38-.776-1-1.453-1.8-1.932a6.96 6.96 0 0 0 .742-.552c.8-.743 1.387-1.833 1.544-3.097.19-1.288.066-2.775-.29-4.64-.222-1.13-.487-2.164-.933-3.03a4.098 4.098 0 0 0-2.162-2.007 4.55 4.55 0 0 0-1.61-.29c.29-.354.58-.743.8-1.122 1.1-1.973.745-4.13-.19-6.39-.775-1.866-2.13-3.93-4.516-4.45-.775-.166-1.642-.133-2.55.065.264-.42.52-.81.677-1.23.94-2.42.133-5.03-1.9-8.193-1.254-1.9-2.616-3.418-4.03-4.45-1.452-1.033-3.004-1.578-4.582-1.355-1 .132-1.965.553-2.873 1.23.2-.71.322-1.362.39-1.973.22-2.51-.646-4.385-2.224-6.194-1.065-1.22-2.33-2.13-3.716-2.607-1.41-.488-2.93-.554-4.35.123-.422.2-.81.488-1.165.81-.024-2.222-.833-4.195-2.93-5.97-1.165-1-2.586-1.61-3.998-1.768-1.263-.165-2.52.124-3.683.8.1-2.187-.9-4.062-2.354-5.028-2-1.355-3.997-1.744-5.806-1.422-1.065.19-2.03.612-2.907 1.165.322-.975.454-1.94.298-2.907-.2-1.19-.875-2.32-1.84-3.32-1.29-1.354-2.553-2.23-3.84-2.618a5.299 5.299 0 0 0-3.61.133c.256-.81.29-1.71-.066-2.61-.455-1.26-1.454-2.45-3.23-3.713-3.42-2.51-6.515-3.097-8.836-3.832-2.32-.776-3.808-1.52-5.038-4.583-1.255-3.195-3.576-4.65-5.996-5.16-1.585-.29-3.162-.132-4.773-.033 1.1-.968 2.19-1.91 3.097-2.875.71-.743 1.354-1.51 1.742-2.42.39-.867.413-1.9.124-2.898-.413-1.388-1.478-2.684-3.154-3.386-1.033-.454-2.84-.454-4.394-.587 1.52-.932 3.262-1.865 4.196-2.707 1.486-1.288 2.32-2.808 2.064-4.45-.29-1.678-2.164-3.84-5.582-5.774 1.52-.2 3.295-.39 4.327-.677 1.676-.487 2.93-1.486 3.61-3.163.552-1.388.255-2.874-.58-4.452-.487-.966-1.577-2.287-2.485-3.485 1.552.455 3.23 1.1 4.484 1.198 2.03.16 3.84-.163 5.062-1.386 1.1-1.065 1.71-2.65 1.355-4.517-.224-1.288-1.414-3.13-2.446-4.872 2.19.834 4.45 1.775 6.35 1.965 1.322.132 2.486.1 3.485-.067 1-.157 1.874-.48 2.485-1.156.676-.81.965-1.808.9-2.675-.034-.81-.356-1.52-.678-2.164h.065c1.61.257 3.61.356 5.318-.61.71-.39 1.33-.942 1.686-1.685.355-.735.38-1.577.19-2.477-.29-1.23-1.643-3.03-2.84-4.716 2 .643 4.037 1.386 5.68 1.55 2.387.257 4.22.133 5.517-.552 1.156-.612 1.966-1.645 2.155-2.9.132-.71-.124-1.643-.223-2.486 3.096 1.776 5.805 2.387 8.712 1.61 3.485-.932 8.324-4.574 13.32-4.772h-.01zm262.36 0c.413-.033.834 0 1.255 0 4.996.198 9.835 3.84 13.32 4.773 2.907.776 5.616.165 8.712-1.61-.1.842-.358 1.775-.225 2.485.19 1.255 1 2.288 2.155 2.9 1.297.684 3.13.808 5.517.552 1.644-.165 3.683-.908 5.682-1.553-1.2 1.682-2.554 3.482-2.84 4.713-.19.9-.168 1.742.19 2.477.352.744.97 1.265 1.682 1.686 1.71.933 3.707.867 5.318.61h.067c-.355.645-.644 1.355-.71 2.165-.033.87.256 1.868.933 2.677.612.677 1.487 1 2.487 1.156 1 .2 2.163.2 3.484.066 1.9-.19 4.165-1.133 6.354-1.967-1.032 1.742-2.222 3.584-2.445 4.872-.356 1.867.255 3.452 1.354 4.517 1.222 1.224 3.03 1.546 5.062 1.39 1.255-.1 2.932-.743 4.45-1.198-.9 1.198-1.964 2.52-2.452 3.485-.834 1.577-1.13 3.063-.578 4.45.678 1.677 1.933 2.676 3.61 3.163 1.03.29 2.774.48 4.326.678-3.417 1.933-5.292 4.063-5.58 5.773-.257 1.643.577 3.163 2.063 4.45.934.843 2.676 1.776 4.196 2.71-1.553.132-3.353.132-4.385.586-1.718.7-2.75 1.997-3.163 3.385-.32 1-.264 2.03.125 2.898.355.91 1.032 1.677 1.742 2.42.907.966 1.997 1.907 3.096 2.874-1.61-.1-3.188-.256-4.773.033-2.42.51-4.74 1.93-5.995 5.16-1.23 3.064-2.717 3.807-5.037 4.583-2.32.735-5.416 1.32-8.87 3.832-1.74 1.263-2.74 2.453-3.194 3.716-.355.9-.322 1.8-.066 2.61a5.299 5.299 0 0 0-3.61-.13c-1.287.39-2.55 1.263-3.84 2.617-.965 1-1.642 2.13-1.84 3.32-.157.966-.025 1.932.297 2.907-.876-.552-1.842-.974-2.907-1.164-1.81-.322-3.807.067-5.806 1.42-1.452.967-2.45 2.842-2.352 5.03-1.164-.677-2.42-.966-3.683-.8-1.413.156-2.834.767-3.998 1.766-2.098 1.776-2.9 3.75-2.932 5.97-.355-.32-.743-.61-1.164-.81-1.42-.676-2.93-.61-4.35-.122-1.388.48-2.652 1.387-3.717 2.61-1.58 1.808-2.446 3.682-2.223 6.193.067.61.19 1.263.39 1.973-.91-.677-1.875-1.13-2.874-1.23-1.58-.223-3.13.322-4.585 1.354-1.412 1.033-2.774 2.552-4.03 4.45-2.03 3.164-2.84 5.774-1.9 8.16.158.455.414.843.678 1.264-.908-.198-1.775-.23-2.55-.066-2.388.52-3.742 2.585-4.52 4.45-.932 2.264-1.287 4.42-.19 6.393.224.38.513.77.803 1.124-.58 0-1.09.1-1.61.29a4.103 4.103 0 0 0-2.165 2.004c-.447.87-.712 1.9-.935 3.03-.355 1.867-.48 3.354-.29 4.64.19 1.266.745 2.356 1.546 3.1.232.197.488.387.744.552-.8.48-1.42 1.123-1.8 1.933-1.066 2.13-.678 4.74-.422 7.546.256 3.03.8 5.418 2.164 7.07.412.478.932.866 1.477 1.156-.125.098-.323.164-.42.255-1.158.974-1.61 2.36-1.678 3.84-.124 2.94 1.263 6.292 2.65 9.29 1.933 4.096 3.865 6.937 6.128 8.357 1.13.71 2.387.966 3.61.81-.323.833-.39 1.676-.19 2.477.42 1.775 1.774 3.13 3.352 4.195 2.097 1.487 4.418 2.74 6.746 3.007a6.34 6.34 0 0 0 3.155-.52c0 .165-.032.355 0 .52.133 1.156.876 2.122 1.81 2.708 1.874 1.19 4.55 1.42 7.358 1.743 3.32.356 5.74.38 7.48-.585a3.614 3.614 0 0 0 1.547-1.48c.71.802 1.71 1.224 2.742 1.39 2.196.288 4.814-.49 8.1-1.33 4.196-1.058 6.35-2.19 7.383-3.71a3.347 3.347 0 0 0 .553-1.832c.867.224 1.71.29 2.61.158 1.94-.256 3.84-1.354 5.647-2.965 2.032-1.84 3.23-3.874 3.518-5.748.158-1.057.034-2.065-.32-2.932.966-.165 1.866-.545 2.543-1.098 1.32-1.1 1.965-2.544 2.296-3.906.577-2.412 0-4.83-1.42-6.384a4.074 4.074 0 0 0 1.353-1.288c.8-1.288 1.032-2.94.933-4.84-.132-2.287-1.256-4.03-2.84-4.97.453-.414.742-.967.874-1.644.223-1.544-.355-3.163-1.387-4.616-1.62-2.32-4.294-4.063-7.812-4.996-2.576-2.42-5.93-4.03-10.09-4.163-3.45-.1-6.36.612-8.424 1.933-2.03 1.33-3.32 3.328-3.187 5.516.09 2.23.9 3.55 1.543 4.326.29.39.545.678.677.868.1.198.165.264.1.62-.034.19-.52.932-1.586.445-1-.48-2.254-1.51-3.154-2.867-.94-1.354-1.486-2.973-1.33-4.872.52-5.45 7.614-11.42 16.616-10.487 6.968.744 12.584 3.42 16.548 8.357 3.94 4.973 6.226 12.29 6.193 22.488-.065 10.356-4.35 18.804-11.84 24.708-7.516 5.938-18.25 9.258-31.348 9.192-24.486-.157-45.487-15.872-46.33-41.646 1.23.033 2.62-.223 3.907-1.032-2.197-.256-4.583.677-6.55-2.42-.775-1.19-.552-3.386.29-5.582 1.322.586 3.23.81 5.195.198-2.354-.776-5.294-.842-6.062-4.162-.355-1.553.19-3.774.933-5.45 1.486.743 3.385.966 5.582.48-2.974-.357-4.36-1.257-5.195-2.033-.876-.774-1.388-1.864-1.62-3.16-.445-2.32.2-5.253 1.42-7.416 1.455.387 3.33.387 5.196-.19-2.452-.3-5.128-1.455-5.995-2.42-.907-.975-1.196-2.1-1.196-3.453.067-2.65 1.743-5.87 3.486-7.58a.454.454 0 0 0 .19.058c2.097.875 4.78.81 7.292.388-2.61-.644-4.096-1.065-6.55-2.155-1.708-.81-2.865-1.874-3.162-2.94-.768-2.84.52-6.482 4.13-8.835 1.742 1.032 4.715 2.13 9.265 1.775-2.65-.454-6.07-2.006-8-3.196-1.91-1.197-3.13-2.675-3.23-4.905v-.067c.256-4.096 1.552-5.93 5.714-8.29 1.29 1.518 3.353 2.65 5.996 3.327 2 .545 4.906.933 8.548.454-2.51-.23-5.45-.874-7.87-1.74-2.42-.877-4.418-2.33-5.26-3.36-.77-.9-.967-1.87-.802-2.967.157-1.098.678-2.32 1.545-3.452 1.355-1.807 3.486-3.352 5.393-4.095.19.256.478.512.734.743 3.006 2.677 8.49 5.32 18.135 3.42-8.39.223-13.298-1.71-16.84-4.905-.52-.487-.843-.933-.966-1.42l-.067-.124c-.033-.033 0-.1 0-.13a1.897 1.897 0 0 1-.066-.424c-.065-.71.158-1.452.745-2.22 1.098-1.52 3.286-3.23 6.482-3.774.322.446.644.9 1.132 1.288 3.35 2.742 8.992 5.385 15.482 4.32-5.97-.777-10.842-2.51-14.13-5.674-1.585-1.553-1.618-2.94-.94-4.228.652-1.198 3.005-2.552 4.97-3.03.612.833 1.487 1.61 2.553 2.287 3.807 2.385 9.835 4.55 17.45 2.97-6.294-.197-13.42-2.682-16.36-4.65-1.446-.964-2.288-1.963-2.577-2.84-.29-.866-.165-1.675.743-2.74 1.1-1.255 2.81-2 5.064-2.453 2.254-.48 4.97-.644 7.936-.867 5.905-.487 13.643-1.42 19.126-6.037 10.29-8.58 13.097-24.577-4.063-35.42 2.676 5.104 6.16 8.457 6.68 13.007.422 3.807-.32 7.383-1.808 9.29-2.518 3.254-4.294 3.61-6.482 3.807-2.23.157-4.905-.1-7.936 1.9-3.065 1.998-5.295 2.23-7.326 1.874-1.642-.32-3.195-1.064-4.772-1.74 2.874-2.1 6.29-3.775 8.613-6.005 1.355-1.287 2.32-2.873 2.355-4.772.033-1.81-.645-4.03-4.253-6.005 1.71 2.197 2.32 4.683 2.287 5.938-.033 1.256-.677 2.32-1.808 3.387-2.222 2.163-6.384 4.096-9.712 6.903-3.707 3.097-6.77 6.425-10.09 8.713-2.81 1.932-3.84 2.708-7.135 2.74 2.362-2.03 4.65-5.226 4.65-9.61-2.908 5.937-6.938 9.19-9.16 10.222-1.13.52-2.064.612-3.038.39-.966-.257-1.932-.868-2.932-1.868-.644-.686-.875-1.297-.842-2.007 0-.678.264-1.48.842-2.32 1.19-1.71 3.55-3.486 6.384-4.84 2.94-1.388 4.193-3.22 4.84-5.16.64-1.9.872-3.84 2.095-6.13.908-1.642 2.163-2.55 3.228-3.84 1.066-1.254 1.81-3.063 1.19-5.614-.446-1.77-1.355-3.157-2.61-4.544-.677-.744-1.742-1.743-2.676-2.585.446 0 .9 0 1.388-.065.677-.124 1.387-.413 1.9-1.065.932-1.09 1.197-2.477 1.287-3.575.1.066.1.066.2.124.998.584 2.187 1.26 3.607.94.643-.2 1.262-.52 1.65-1 .413-.487.644-1.065.8-1.677.2-.62.356-1.65.52-2.486.447.767.835 1.708 1.48 2.286 1.263 1.165 2.906 1.933 5.004 2.288 2.097.388 4.32-.223 6.094-1.677 1.74-1.42 2.94-3.74 2.773-6.547-.255-3.9-2.286-6.806-5.26-8.672-2.32-1.453-5.22-2.163-8.315-2.55 1.255-.678 2.543-1.066 3.807-1.165h-.033l-.008-.003zm-204.875 1.874h148.646c0 .933.132 36.195.19 74.356.033 38.705.033 79.484-.19 87.354-.223 8.87-4.64 13.386-11.454 15.84-6.808 2.45-16.065 2.517-25.455 1.74-9.58-.808-18.48-2.74-25.897-.387-3.717 1.186-7.004 3.55-9.646 7.512-.678 1-1.297 2.064-1.875 3.262a25.649 25.649 0 0 0-1.876-3.262c-2.64-3.964-5.93-6.326-9.644-7.515-7.417-2.355-16.32-.422-25.898.387-9.39.776-18.647.71-25.452-1.742-6.803-2.453-11.23-6.97-11.453-15.84-.223-7.87-.223-48.648-.19-87.353.058-38.16.19-73.424.19-74.357l.004.003zm22.81 5.938c-8.78 0-15.873 7.093-15.873 15.84 0 5.738 3.13 10.61 7.68 13.385-4.55 2.772-7.68 7.67-7.68 13.383 0 5.707 3.13 10.58 7.68 13.387-4.55 2.775-7.68 7.648-7.68 13.354 0 5.74 3.13 10.612 7.68 13.386-4.55 2.776-7.68 7.648-7.68 13.388 0 5.714 3.13 10.586 7.68 13.353-4.55 2.81-7.68 7.68-7.68 13.397 0 5.707 3.13 10.58 7.68 13.387-4.55 2.775-7.68 7.64-7.68 13.386 0 8.736 7.094 15.84 15.872 15.84 5.35 0 10-2.744 12.866-6.815 2.874 4.07 7.515 6.813 12.875 6.813 5.35 0 10.033-2.742 12.9-6.813 2.872 4.07 7.522 6.813 12.873 6.813 5.35 0 10-2.742 12.874-6.813 2.866 4.07 7.548 6.813 12.9 6.813 5.36 0 10-2.742 12.874-6.813 2.865 4.07 7.515 6.813 12.866 6.813 8.778 0 15.872-7.102 15.872-15.84 0-5.746-3.13-10.61-7.68-13.385 4.55-2.808 7.68-7.68 7.68-13.387 0-5.714-3.13-10.586-7.68-13.394 4.55-2.766 7.68-7.638 7.68-13.352 0-5.74-3.13-10.612-7.68-13.387 4.55-2.773 7.68-7.646 7.68-13.385 0-5.706-3.13-10.58-7.68-13.353 4.55-2.808 7.68-7.68 7.68-13.387 0-5.714-3.13-10.61-7.68-13.386 4.55-2.776 7.68-7.648 7.68-13.387 0-8.746-7.094-15.84-15.872-15.84-5.35 0-10 2.742-12.866 6.805-2.874-4.063-7.515-6.804-12.875-6.804-5.35 0-10.033 2.74-12.9 6.804-2.872-4.063-7.522-6.804-12.873-6.804-5.35 0-10 2.74-12.874 6.804-2.866-4.063-7.548-6.804-12.9-6.804-5.36 0-10 2.74-12.874 6.804-2.865-4.063-7.515-6.804-12.866-6.804v-.002zm0 1.965c5.127 0 9.612 2.84 11.998 7l.867 1.48.876-1.48c2.386-4.16 6.87-7.003 12-7.003 5.16 0 9.61 2.84 12.03 7.002l.868 1.477.875-1.478c2.39-4.163 6.84-7.004 12-7.004s9.614 2.84 12 7.002l.876 1.477.867-1.478c2.42-4.163 6.872-7.004 12.033-7.004 5.13 0 9.613 2.84 12 7.002l.875 1.478.868-1.478c2.386-4.162 6.87-7.003 12-7.003 7.68 0 13.905 6.193 13.905 13.873 0 5.516-3.262 10.29-7.87 12.51l-1.874.876 1.873.867c4.608 2.263 7.87 7.003 7.87 12.52 0 5.483-3.262 10.256-7.87 12.51l-1.874.876 1.873.834c4.608 2.262 7.87 7.036 7.87 12.52 0 5.416-3.13 10.1-7.647 12.386h-115.55c-4.517-2.287-7.646-6.97-7.646-12.387 0-5.484 3.262-10.258 7.87-12.52l1.874-.834-1.874-.876c-4.608-2.254-7.87-7.027-7.87-12.51 0-5.517 3.262-10.257 7.87-12.52l1.874-.867-1.874-.877c-4.608-2.222-7.87-6.995-7.87-12.51 0-7.68 6.226-13.875 13.906-13.875v.01zm-83.193 19.445c-.685.033-1.33.066-1.94.132-2.998.288-3.807 1.097-6.805 3.963 3.606-1.965 8.932-3.32 11.71-1.675-1.52.62-2.2 1.676-2.645 2.972-.422 1.123-.455 2.353-.2 3.542.224 1.163.745 2.294 1.678 3.04 1.973 1.574 4.773 1.896 6.87 1.09 2.098-.77 3.973-2.778 3.65-5.52-.586-4.93-4.228-6.74-6.68-7.16-1.487-.29-3.642-.42-5.64-.387v.002zm269.42 0c-2.007-.033-4.162.1-5.65.388-2.45.42-6.093 2.23-6.68 7.16-.322 2.74 1.553 4.748 3.65 5.516 2.098.81 4.898.487 6.87-1.09.934-.743 1.455-1.874 1.678-3.04.256-1.19.223-2.42-.2-3.542-.444-1.298-1.122-2.355-2.64-2.974 2.774-1.644 8.1-.29 11.71 1.676-3-2.866-3.808-3.675-6.806-3.964a32.44 32.44 0 0 0-1.932-.133v.002zm-155.227 3.163-1.842 3.23a25.712 25.712 0 0 0-3.418 12.806c0 14.22 11.544 25.773 25.773 25.773 14.23 0 25.773-11.554 25.773-25.774 0-4.65-1.255-9.034-3.418-12.808l-1.842-3.23v3.708c-.033 11.32-9.19 20.455-20.513 20.455-11.322 0-20.48-9.133-20.513-20.454v-3.708.002zm-108.618.453c2.58-.197 4.415 1.223 4.58 3.775.132 1.965-1 3.353-2.42 3.906-1.42.513-3.23.257-4.64-.874-.42-.357-.876-1.034-1.066-1.868-.165-.842-.1-1.775.124-2.485.387-1.066 1.13-2 2.23-2.296.42-.09.8-.157 1.19-.157zm257.32 0c.33-.032.62-.032.94 0 .39 0 .77.067 1.19.158 1.1.298 1.84 1.23 2.23 2.297.22.71.29 1.643.122 2.485-.19.834-.644 1.51-1.057 1.867-1.42 1.13-3.23 1.385-4.65.873-1.42-.553-2.55-1.94-2.42-3.906.166-2.23 1.578-3.617 3.643-3.774zm-256.77 1.644c-1.164 0-2.098 1.066-2.098 2.288 0 1.263.934 2.262 2.098 2.262 1.157 0 2.156-1 2.156-2.262 0-1.222-1-2.288-2.155-2.288zm257.156 0c-1.156 0-2.155 1.066-2.155 2.288 0 1.263 1 2.262 2.156 2.262 1.164 0 2.098-1 2.098-2.262 0-1.222-.934-2.288-2.098-2.288zm-150.388 4.906c1.684 10.776 10.586 19.125 21.81 19.125 11.222 0 20.132-8.35 21.81-19.125 1.155 2.807 1.964 5.805 1.964 9.034 0 13.155-10.612 23.8-23.775 23.8-13.164 0-23.776-10.645-23.776-23.8 0-3.23.81-6.227 1.966-9.034h.002zM44.45 244.377c1.23 1.61 2.71 2.552 4.517 3.452 3.295 1.61 7.094 2.706 10.488 3.03 7.45.774 10.446 1.806 14.864 5.902 1.905 1.776 2.94 3.55 4.07 5.74 1.122 2.23 2.286 4.872 4.42 8.002 3.77 5.68 7.413 8.134 11.64 9.843 3.486 1.444 7.326 2.444 12.32 4.64-1.997 1.42-3.417 2.965-4.284 4.84-.777 1.676-1.165 3.64-1.363 5.838-.38-.512-.677-1.165-1.123-1.544-1.064-.974-2.42-1.486-4.062-1.453-2.198.066-4.262 1.743-6.104 3.84-.322-1.33-.61-2.684-1.156-3.716-.776-1.477-1.907-2.71-3.42-3.096-1.774-.446-3.417-.124-4.87.744-.967.586-1.908 1.643-2.875 2.617-.132-1.098-.223-2.295-.545-3.096-.52-1.297-1.387-2.296-2.55-2.973-1.546-.935-3.387-.868-4.998-.257-1 .39-1.874 1.223-2.807 1.933.066-.768.19-1.577.124-2.287-.092-1.42-.513-2.808-1.612-3.74-1.453-1.224-3.23-1.422-4.806-1.166-.778.132-1.455.388-2.2.62.39-.653.91-1.23 1.133-1.908.487-1.52.454-3.254-.677-4.583-1.19-1.42-2.965-1.8-4.64-1.868-.844-.033-1.62.124-2.42.19.577-.644 1.188-1.19 1.675-1.932.9-1.485 1.455-3.32.61-5.003-.71-1.446-2.03-2.387-3.64-2.742-.94-.19-2.23.1-3.36.198 1.13-1.354 2.163-2.84 2.683-4.583.735-2.543.413-5.582-2.13-8-3.23-3.098-3.006-5.55-2.907-7.483h.004zm415.1 0c.1 1.932.322 4.385-2.907 7.482-2.543 2.416-2.865 5.455-2.13 8 .52 1.74 1.552 3.23 2.683 4.582-1.13-.1-2.42-.388-3.36-.198-1.61.355-2.932 1.296-3.642 2.742-.843 1.684-.29 3.518.61 5.004.488.744 1.1 1.29 1.677 1.933-.8-.066-1.574-.223-2.42-.19-1.673.067-3.45.446-4.64 1.867-1.13 1.33-1.162 3.065-.675 4.584.223.677.743 1.255 1.132 1.908-.744-.232-1.42-.488-2.197-.62-1.578-.256-3.354-.058-4.807 1.165-1.1.933-1.52 2.32-1.61 3.74-.067.71.057 1.52.123 2.288-.933-.71-1.808-1.544-2.807-1.932-1.61-.61-3.454-.678-5 .256-1.162.674-2.03 1.673-2.55 2.97-.32.8-.412 2-.544 3.096-.967-.974-1.908-2.03-2.874-2.617-1.453-.868-3.096-1.19-4.87-.744-1.513.388-2.644 1.62-3.42 3.097-.545 1.032-.834 2.387-1.156 3.716-1.842-2.098-3.906-3.75-6.103-3.84-1.642-.034-2.997.48-4.062 1.453-.445.38-.742 1.032-1.122 1.544-.2-2.197-.587-4.162-1.364-5.84-.867-1.873-2.287-3.417-4.286-4.838 4.996-2.197 8.836-3.197 12.32-4.64 4.23-1.71 7.87-4.164 11.645-9.845 2.132-3.13 3.296-5.773 4.42-8.003 1.13-2.188 2.163-3.963 4.07-5.74 4.42-4.095 7.416-5.127 14.865-5.903 3.394-.323 7.2-1.42 10.488-3.03 1.808-.9 3.286-1.844 4.517-3.454h-.003zM71.842 246.12c2.477.81 5.16 1.32 8.29 3.583 1.578 1.157 2.29 2.098 2.545 2.775.256.71.198 1.255-.19 2-.644 1.254-2.296 2.773-3.65 4.838-.834-1.42-1.8-2.775-3.163-4.038-2.32-2.123-4.385-3.51-6.805-4.45 1.03-.58 1.806-1.224 2.293-2 .545-.933.644-1.866.677-2.71l.002.002zm360.316 0c.066.842.132 1.775.677 2.708.487.776 1.264 1.42 2.296 2-2.42.94-4.48 2.327-6.802 4.45-1.354 1.263-2.33 2.617-3.163 4.038-1.354-2.065-3.006-3.584-3.65-4.84-.388-.743-.446-1.288-.19-1.998.256-.677.967-1.618 2.552-2.775 3.122-2.262 5.806-2.774 8.283-3.584h-.002zm-345.773 9.9c.42-.032.81.034 1.23.2.9.255 1.866.866 2.965 2.03.81.835 1.197 1.545 1.32 2.288.133.71 0 1.52-.445 2.552-.81 1.965-2.775 4.74-5.46 8.48-.478-.643-.998-1.32-1.543-2.13-1.998-2.997-3.163-5.516-4.32-7.77v-.067c1.678-2.675 3.42-4.616 5.03-5.293.388-.157.81-.256 1.223-.29zm331.23 0c.413 0 .835.133 1.223.29 1.61.677 3.352 2.618 5.037 5.293v.033c-1.164 2.288-2.33 4.807-4.327 7.804-.545.81-1.065 1.487-1.544 2.13-2.684-3.74-4.65-6.515-5.46-8.48-.445-1.065-.577-1.842-.445-2.552.12-.743.51-1.453 1.32-2.287 1.1-1.162 2.063-1.773 2.963-2.062.42-.132.81-.198 1.23-.165l.002-.003zm-223.388 2.42h115.546c4.518 2.296 7.647 6.97 7.647 12.388 0 5.483-3.262 10.256-7.87 12.52l-1.874.833 1.874.878c4.608 2.255 7.87 7.028 7.87 12.52 0 5.516-3.262 10.256-7.87 12.51l-1.874.876 1.874.867c4.608 2.23 7.87 7.003 7.87 12.52 0 7.64-6.226 13.864-13.906 13.864-5.128 0-9.613-2.832-12-6.994l-.866-1.49-.876 1.488c-2.386 4.16-6.87 6.993-12 6.993-5.16 0-9.61-2.83-12.03-6.992l-.868-1.488-.875 1.486c-2.39 4.16-6.84 6.993-12 6.993s-9.614-2.834-12-6.996l-.876-1.488-.867 1.487c-2.42 4.16-6.872 6.993-12.033 6.993-5.13 0-9.613-2.832-12-6.994l-.875-1.488-.868 1.487c-2.386 4.16-6.87 6.994-12 6.994-7.68 0-13.905-6.226-13.905-13.865 0-5.517 3.262-10.29 7.87-12.52l1.874-.867-1.873-.876c-4.608-2.254-7.87-6.994-7.87-12.51 0-5.492 3.262-10.265 7.87-12.52l1.874-.875-1.873-.833c-4.608-2.264-7.87-7.037-7.87-12.52 0-5.418 3.13-10.09 7.647-12.387l.003.007zm-96.39 5.45c1.034 0 2.1.323 3.354 1.165 1.267.876 2.39 3.064.62 5.84-1.195 1.84-2.26 4.772-2.84 8.967-1.353-.454-2.65-.9-3.772-1.354-2.84-1.165-5.227-2.52-7.647-5.096 1.288-2.03 3.196-5.293 5.516-7.424 1.19-1.065 2.486-1.8 3.774-2.03.353-.067.675-.1.997-.067zm308.325 0c.322-.032.644 0 1 .034 1.287.264 2.584 1 3.773 2.064 2.32 2.13 4.228 5.393 5.516 7.424-2.42 2.577-4.803 3.93-7.644 5.096-1.123.454-2.42.9-3.774 1.354-.577-4.195-1.642-7.127-2.83-8.968-1.777-2.775-.654-4.963.61-5.84 1.255-.84 2.32-1.163 3.353-1.163h-.003zm-298.777 5.55c1.197-.066 2.452.454 3.65 1.454 2.064 1.742 2.452 3.063 2.155 5.384-.223 2.04-1.09 4.872-1.965 8.646-.1-.033-.157-.066-.256-.09a78.818 78.818 0 0 0-9.905-4.23c.678-5.87 2.42-9.066 4.22-10.354.677-.488 1.355-.744 2.098-.81h.002zm289.23 0c.743.066 1.42.322 2.098.81 1.8 1.288 3.542 4.484 4.22 10.355-2.833 1-6.03 2.255-9.902 4.228-.096.025-.154.058-.253.09-.875-3.773-1.742-6.605-1.965-8.645-.296-2.32.09-3.642 2.156-5.384 1.198-1 2.453-1.52 3.65-1.454h-.003zm-278.032 6.582c.48 0 1 .066 1.478.256 1.035.355 2.067 1.065 2.94 2.04 1.42 1.61 1.9 2.708 1.71 4.707-.163 1.866-1.13 4.64-3.03 8.803a59.253 59.253 0 0 0-8.1-5.583c.23-6.317 1.94-9.092 3.65-9.9a2.98 2.98 0 0 1 1.355-.323h-.002zm266.834 0c.454 0 .91.1 1.355.322 1.71.81 3.418 3.584 3.65 9.9a59.445 59.445 0 0 0-8.1 5.584c-1.9-4.162-2.867-6.937-3.032-8.803-.19-2 .29-3.097 1.71-4.707.875-.975 1.907-1.685 2.94-2.04.478-.19.998-.256 1.477-.256zm-160.066.355c-.93 0-1.8.487-2.35 1.197-.545.71-.867 1.61-1.1 2.676-.48 2.065-.544 4.773-.544 7.97 0 1.122.1 2.13.165 3.162a45.313 45.313 0 0 0-2.65-1.743c-2.775-1.588-5.23-2.91-7.26-3.52-1-.323-1.9-.455-2.774-.323-.9.123-1.767.61-2.22 1.42-.49.834-.49 1.767-.133 2.61.322.842.94 1.577 1.742 2.287 1.553 1.453 3.84 2.94 6.615 4.517.997.587 1.897.967 2.84 1.42-.943.49-1.843.877-2.84 1.455-2.777 1.577-5.064 3.064-6.617 4.517-.8.71-1.42 1.453-1.742 2.288-.354.81-.354 1.776.134 2.585.454.834 1.32 1.322 2.22 1.445.876.1 1.777 0 2.776-.322 2.03-.644 4.483-1.932 7.26-3.51.964-.586 1.806-1.164 2.65-1.742-.068 1.033-.167 2.032-.167 3.155 0 3.198.066 5.906.545 7.97.23 1.066.553 1.975 1.098 2.685a3.022 3.022 0 0 0 2.353 1.156c.94 0 1.81-.453 2.36-1.155.546-.71.9-1.62 1.124-2.684.487-2.064.553-4.772.553-7.97 0-1.12-.1-2.12-.2-3.153.877.578 1.71 1.156 2.685 1.743 2.767 1.577 5.22 2.865 7.25 3.51 1.008.32 1.908.42 2.775.32.876-.122 1.776-.61 2.23-1.444.48-.81.454-1.775.132-2.584-.33-.835-.975-1.578-1.743-2.288-1.553-1.453-3.84-2.94-6.615-4.517-1-.578-1.965-.966-2.907-1.454.942-.454 1.908-.834 2.907-1.42 2.775-1.577 5.062-3.064 6.615-4.517.768-.71 1.412-1.445 1.742-2.288.32-.843.346-1.776-.133-2.61-.454-.81-1.354-1.297-2.23-1.42-.867-.133-1.767 0-2.774.322-2.032.61-4.484 1.932-7.25 3.517-1.008.578-1.81 1.156-2.685 1.742.1-1.034.2-2.04.2-3.165 0-3.197-.068-5.905-.555-7.97-.223-1.065-.578-1.965-1.123-2.676-.553-.71-1.42-1.198-2.362-1.198l.003.005zm53.3 0c-.94 0-1.81.487-2.36 1.197-.546.71-.9 1.61-1.124 2.676-.487 2.065-.553 4.773-.553 7.97 0 1.122.1 2.13.2 3.162-.877-.586-1.678-1.164-2.677-1.743-2.775-1.588-5.227-2.91-7.26-3.52-.998-.323-1.906-.455-2.773-.323-.876.123-1.776.61-2.23 1.42-.48.834-.454 1.767-.124 2.61.32.842.965 1.577 1.733 2.287 1.553 1.453 3.84 2.94 6.615 4.517 1 .587 1.974.967 2.907 1.42-.933.49-1.908.877-2.907 1.455-2.775 1.577-5.062 3.064-6.615 4.517-.768.71-1.412 1.453-1.734 2.288-.33.81-.356 1.776.123 2.585.454.834 1.354 1.322 2.23 1.445.867.1 1.775 0 2.774-.322 2.032-.644 4.484-1.932 7.26-3.51.965-.586 1.8-1.164 2.675-1.742-.1 1.033-.2 2.032-.2 3.155 0 3.198.068 5.906.555 7.97.223 1.066.578 1.975 1.123 2.685a3.026 3.026 0 0 0 2.362 1.156c.932 0 1.8-.453 2.352-1.155.545-.71.867-1.62 1.1-2.684.478-2.064.544-4.772.544-7.97 0-1.12-.1-2.12-.165-3.153.844.578 1.686 1.156 2.65 1.743 2.777 1.577 5.23 2.865 7.26 3.51 1 .32 1.9.42 2.776.32.9-.122 1.766-.61 2.22-1.444.49-.81.49-1.775.132-2.584-.323-.835-.94-1.578-1.743-2.288-1.554-1.453-3.84-2.94-6.616-4.517-.998-.578-1.898-.966-2.84-1.454.942-.454 1.842-.834 2.84-1.42 2.776-1.577 5.063-3.064 6.616-4.517.8-.71 1.42-1.445 1.742-2.288.356-.843.356-1.776-.132-2.61-.454-.81-1.32-1.297-2.22-1.42-.876-.133-1.777 0-2.776.322-2.03.61-4.484 1.932-7.26 3.517a45.476 45.476 0 0 0-2.65 1.742c.067-1.034.166-2.04.166-3.165 0-3.197-.066-5.905-.545-7.97-.23-1.065-.553-1.965-1.098-2.676-.553-.71-1.42-1.198-2.353-1.198l-.003.005zm-53.3 1.998c.39 0 .557.1.81.422.29.355.556 1 .746 1.874.42 1.746.512 4.42.512 7.55 0 1.777-.124 3.486-.322 4.964-.545-.19-1.123-.322-1.743-.322-.577 0-1.188.133-1.708.323a39.436 39.436 0 0 1-.322-4.963c0-3.13.1-5.806.487-7.55.222-.874.486-1.518.742-1.873.29-.323.446-.423.8-.423v-.002zm53.3 0c.356 0 .51.1.8.422.258.355.52 1 .745 1.874.388 1.746.487 4.42.487 7.55 0 1.777-.13 3.486-.32 4.964a5.138 5.138 0 0 0-1.71-.322c-.62 0-1.198.133-1.743.323a37.633 37.633 0 0 1-.323-4.963c0-3.13.09-5.806.512-7.55.197-.874.453-1.518.742-1.873.255-.323.42-.423.81-.423v-.002zm-149.23 7.548c1-.124 2.097.166 3.23 1 1.163.81 2.385 2.196 3.55 3.972 1.9 2.93 2.287 4.74 1.643 6.383-.586 1.52-2.452 3.23-5.615 5.327a64.926 64.926 0 0 0-8.803-9.225c.9-2.485 1.9-4.294 2.9-5.45 1.097-1.296 2.13-1.875 3.095-2.007zm244.42 0c.256 0 .488-.033.744 0 .966.132 1.998.71 3.096 2.007 1 1.156 1.997 2.965 2.897 5.45a64.926 64.926 0 0 0-8.803 9.225c-3.163-2.098-5.03-3.807-5.616-5.327-.645-1.643-.257-3.452 1.643-6.383 1.166-1.776 2.397-3.163 3.55-3.972.878-.612 1.71-.934 2.488-1h.003zm-164.773 1.81c.446-.067 1.132.032 2 .288 1.708.556 4.095 1.778 6.803 3.364 1.584.9 2.94 1.866 4.16 2.8a5.046 5.046 0 0 0-1.74 2.972c-1.39-.586-2.9-1.32-4.453-2.23-2.742-1.577-4.996-2.997-6.326-4.22-.675-.62-1.09-1.23-1.253-1.618-.124-.388-.1-.545.066-.867.19-.322.322-.42.743-.487zm32.578 0c.422.065.578.164.744.486.19.32.222.476.065.864-.165.388-.587 1-1.23 1.62-1.322 1.22-3.577 2.64-6.318 4.22a42.177 42.177 0 0 1-4.45 2.162c-.233-1.197-.877-2.163-1.744-2.907 1.19-.933 2.577-1.9 4.162-2.8 2.71-1.585 5.096-2.807 6.805-3.36.865-.256 1.542-.355 1.963-.29l.002.003zm20.712 0c.42-.067 1.098.032 1.965.288 1.71.556 4.098 1.778 6.807 3.364 1.584.9 2.972 1.866 4.16 2.8-.867.743-1.51 1.71-1.743 2.906a42.418 42.418 0 0 1-4.45-2.164c-2.742-1.578-4.997-2.998-6.318-4.22-.645-.62-1.067-1.23-1.23-1.62-.16-.387-.126-.544.064-.866.166-.323.322-.422.744-.488zm32.578 0c.42.065.553.164.743.486.165.32.198.476.066.864-.165.388-.578 1-1.255 1.62-1.33 1.22-3.585 2.64-6.327 4.22a38.775 38.775 0 0 1-4.45 2.228 5.023 5.023 0 0 0-1.743-2.973c1.22-.933 2.574-1.9 4.16-2.8 2.71-1.585 5.095-2.807 6.804-3.36.876-.256 1.553-.355 2-.29v.003zm-69.583 7.126c1.81 0 3.23 1.42 3.23 3.192 0 1.81-1.42 3.23-3.23 3.23-1.765 0-3.185-1.42-3.185-3.23a3.18 3.18 0 0 1 3.187-3.195l-.002.002zm53.3 0a3.18 3.18 0 0 1 3.187 3.192c0 1.81-1.42 3.23-3.188 3.23-1.81 0-3.23-1.42-3.23-3.23 0-1.775 1.42-3.195 3.23-3.195v.002zm-58.36 4.126c.23 1.197.84 2.23 1.74 2.973a37.075 37.075 0 0 1-4.16 2.807c-2.71 1.578-5.095 2.8-6.804 3.353-.867.258-1.553.357-2 .29-.42-.065-.552-.19-.742-.486-.165-.322-.19-.48-.066-.867.165-.388.578-1 1.255-1.61 1.33-1.23 3.584-2.65 6.326-4.23 1.55-.9 3.064-1.642 4.45-2.228l.002-.004zm63.42 0c1.39.586 2.9 1.33 4.453 2.23 2.742 1.577 4.996 2.997 6.326 4.227.677.612 1.09 1.223 1.255 1.61.132.39.1.546-.066.868-.19.298-.323.42-.744.488-.446.065-1.123-.034-2-.29-1.708-.553-4.095-1.775-6.803-3.353a37.397 37.397 0 0 1-4.16-2.807 5.006 5.006 0 0 0 1.74-2.972zm-53.254.066a43.415 43.415 0 0 1 4.45 2.163c2.742 1.578 4.997 2.998 6.318 4.228.644.612 1.066 1.19 1.23 1.61.158.39.125.546-.065.868-.166.298-.322.42-.744.488-.42.065-1.098-.034-1.965-.323-1.71-.52-4.096-1.742-6.805-3.32a37.526 37.526 0 0 1-4.162-2.807c.867-.743 1.51-1.742 1.743-2.906h.002zm43.09 0c.232 1.164.876 2.163 1.743 2.907-1.19.933-2.61 1.9-4.162 2.807-2.71 1.578-5.096 2.8-6.805 3.32-.866.29-1.543.388-1.964.322-.423-.067-.58-.19-.745-.488-.19-.322-.223-.48-.066-.867.164-.42.586-1 1.23-1.61 1.32-1.23 3.576-2.65 6.317-4.23a43.808 43.808 0 0 1 4.45-2.162zm-133.706 1.94a4.365 4.365 0 0 1 1.287.025c1.486.354 2.452 1.717 3.096 3.294.842 2.033 1.032 3.453.322 4.708-.677 1.23-2.453 2.52-5.838 3.906-1.454-3.03-3.22-5.838-5.13-8.48 2.743-2.33 4.808-3.296 6.26-3.453l.002.002zm223.644 0c.223-.033.42-.033.677 0 1.455.157 3.52 1.123 6.26 3.452-1.906 2.643-3.673 5.45-5.127 8.48-3.385-1.386-5.16-2.674-5.838-3.905-.71-1.255-.52-2.675.322-4.707.644-1.577 1.61-2.94 3.097-3.262.19-.057.388-.057.61-.057zm-139.842 1.966c.52.19 1.13.32 1.71.32.62 0 1.197-.13 1.742-.32.198 1.485.322 3.162.322 4.962 0 3.13-.09 5.78-.512 7.556-.19.866-.454 1.51-.743 1.865-.254.323-.42.42-.81.42-.353 0-.51-.097-.8-.42-.255-.354-.52-1-.742-1.865-.387-1.777-.486-4.427-.486-7.557 0-1.8.133-3.477.323-4.963l-.003.003zm53.264 0a5.26 5.26 0 0 0 1.743.32 5.14 5.14 0 0 0 1.708-.32c.19 1.485.322 3.162.322 4.962 0 3.13-.1 5.78-.488 7.556-.223.866-.487 1.51-.743 1.865-.29.323-.448.42-.8.42-.39 0-.557-.097-.81-.42-.29-.354-.548-1-.746-1.865-.42-1.777-.512-4.427-.512-7.557 0-1.8.124-3.477.322-4.963l.004.003zM145.42 313.116c.39 0 .745.033.968.132.512.19.776.452 1.065 1.03.29.61.545 1.454.743 2.486.355 1.743.446 3.097.322 4.03-.132.933-.454 1.454-.875 1.875-.834.735-2.643 1.032-5.252.966a48.247 48.247 0 0 0-2.87-8.844c2.807-1.256 4.706-1.677 5.903-1.677h-.003zm213.16 0c1.196 0 3.095.42 5.903 1.677a48.334 48.334 0 0 0-2.874 8.844c-2.61.066-4.42-.23-5.255-.966-.42-.42-.743-.94-.875-1.874-.123-.933 0-2.287.323-4.03.198-1.032.454-1.874.743-2.485.29-.58.553-.842 1.065-1.032.225-.1.58-.134.97-.134v.002zM143.546 325.77c1.288-.035 2.296.056 2.973.288.93.322 1.352.834 1.674 1.478.644 1.33.512 3.716.256 6.524-.255 2.865-.81 4.897-1.675 5.93-.843.998-1.908 1.353-3.972.998.297-2.064.553-4.13.62-6.06a42.407 42.407 0 0 0-.554-9.102c.23-.033.452-.057.675-.057zm216.906 0c.223 0 .454.023.677.023a42.71 42.71 0 0 0-.555 9.134c.066 1.932.33 3.997.62 6.06-2.065.356-3.13 0-3.973-.998-.867-1.035-1.42-3.067-1.676-5.93-.256-2.81-.388-5.197.256-6.526.322-.644.743-1.156 1.676-1.478.676-.232 1.684-.323 2.972-.29l.002.004zM77.97 329.22c-.133.19-.256.38-.39.545-1.32 2.13-2.286 4.518-2.963 7.003-2.23-.908-1.875-2.907-.743-4.393.966-1.288 2.13-2.22 4.096-3.155zm348.06 0c1.974.934 3.13 1.867 4.096 3.155 1.132 1.486 1.487 3.485-.743 4.393-.677-2.485-1.643-4.872-2.964-7.003-.136-.165-.26-.355-.39-.545zm-351.967 9.737c.034-.033.067 0 .133 0-.39 1.973-.645 4.005-.678 6.003-.033.777-.066 1.487 0 2.222-2.23-.512-2.584-2.544-2.55-4.385 0-2.288 1.452-3.584 3.095-3.84zm355.74 0c.067 0 .1-.033.134 0 1.643.256 3.096 1.552 3.096 3.84.033 1.84-.322 3.873-2.55 4.385.032-.735.032-1.445 0-2.222-.034-1.998-.29-4.03-.68-6.003zm-287.32 4.195c1.708.1 2.806.454 3.417 1 .678.577.942 1.386 1 2.485.066 2.163-1.09 5.35-2.478 8.29-1.84 3.932-3.74 6.45-5.392 7.483-.834.52-1.578.743-2.288.61-.644-.065-1.32-.445-2.03-1.09.354-.454.71-.908 1.03-1.362 3.643-5.285 5.674-11.446 6.74-17.416zm219.035 0c1.066 5.97 3.097 12.13 6.74 17.416.32.454.676.908 1.03 1.363-.71.647-1.386 1.027-2.03 1.09-.71.135-1.454-.09-2.288-.61-1.65-1.03-3.55-3.55-5.392-7.48-1.388-2.94-2.544-6.13-2.478-8.29.025-1.1.322-1.91 1-2.487.61-.544 1.71-.9 3.418-.998v-.003zM73.74 349.477c.39 3.287 1.232 6.16 2.487 8.67-2.32.134-3.518-1.09-4.228-3.285-.71-2.222.352-4.484 1.74-5.385zm356.52 0c1.386.9 2.45 3.163 1.74 5.385-.71 2.196-1.907 3.42-4.227 3.286 1.263-2.51 2.097-5.384 2.486-8.67zM77.357 359.99c2.123 3.485 4.964 6.193 8.225 8.192.512.322 1.033.586 1.545.875-.9.644-1.9.834-3.03.677-1.42-.198-3.065-.875-4.65-2.295-1.8-1.614-2.577-3.455-2.8-4.776-.198-1.19.124-2.098.71-2.676v.002zm349.284 0c.588.578.91 1.486.71 2.676-.22 1.32-1 3.162-2.8 4.773-1.583 1.42-3.23 2.094-4.65 2.292-1.13.157-2.13-.033-3.03-.677.514-.29 1.035-.553 1.547-.875 3.26-2 6.102-4.706 8.225-8.19zm-293.32 3.617c1.39 1.387 1.647 2.477 1.424 3.386-.23 1.032-1.23 2.097-2.585 3.03-2 1.388-4.098 2.486-5.84 2.676-1.42.162-2.577-.19-3.576-1.547 4.32-1.81 7.804-4.45 10.578-7.548v.002zm237.357 0c2.774 3.097 6.26 5.74 10.578 7.548-1 1.354-2.155 1.71-3.576 1.544-1.744-.19-3.84-1.29-5.84-2.68-1.354-.932-2.354-1.997-2.585-3.03-.223-.91.033-2 1.42-3.385l.002.002zm-281.642 6.416c5.063 2.354 10.546 3.32 15.385 3.675-.166.942-.39 1.62-.678 1.974-.355.446-.776.644-1.52.735-1.478.198-4.03-.38-7.35-1.222-4.004-1.032-5.747-2.164-6.26-2.907-.255-.38-.288-.644-.255-1 .058-.32.223-.676.446-1.065.066-.057.165-.09.23-.19h.002zm325.93 0c.066.1.165.133.23.19.224.39.39.744.447 1.066.034.352 0 .616-.255.996-.512.743-2.255 1.875-6.26 2.907-3.32.842-5.896 1.42-7.35 1.222-.743-.09-1.164-.29-1.52-.735-.288-.354-.51-1.03-.676-1.973 4.84-.355 10.32-1.32 15.385-3.675zm-294.194 1.875c.555 1.156.745 1.965.68 2.477-.09.554-.29.942-.868 1.297-1.195.735-3.74 1.123-6.513 1.412-3.197.355-5.295.264-6.327-.29-.48-.288-.8-.61-1.03-1.188-.158-.42-.224-1.065-.257-1.776.355 0 .71.033 1.065.033 5.063.067 9.423-.644 13.255-1.965h-.004zm262.46 0c3.83 1.32 8.19 2.032 13.254 1.965.355 0 .71-.033 1.065-.033-.034.71-.1 1.355-.257 1.776-.23.578-.553.9-1.032 1.19-1.03.552-3.13.643-6.325.288-2.774-.29-5.318-.677-6.515-1.412-.58-.355-.778-.743-.87-1.297-.065-.512.125-1.32.678-2.477h.003zm-131.23.677c-30.48 0-45.584 4.64-54.453 8.67-.743-2.542-1.544-4.54-2.452-6.382-.61-.966-1.8-1.454-3.287-1.61-.388-.034-.776-.034-1.197-.034-1.255-.036-2.774.154-4.574.542-15.872 3.353-30.547 11.322-44.388 21.133l-1.618 1.156 1.84.62s4.674 1.578 6.45 5.095c2.064 3.997 1 8.226 1 8.226l-.68 2.544 2.165-1.478s11.487-7.78 17.515-10.91c6.517-3.385 13.098-5.705 20.81-7.448.513 1.52.868 3.13 1.19 5.326.232 1.643.942 2.898 2.032 3.542 1.098.643 2.387.676 3.716.487 2.676-.39 5.673-1.776 8.48-2.84 8.804-3.387 23.388-6.063 47.452-6.063 24.064 0 38.648 2.676 47.45 6.062 2.81 1.065 5.806 2.452 8.482 2.84 1.33.19 2.618.157 3.716-.487 1.09-.645 1.8-1.9 2.03-3.543.324-2.197.68-3.807 1.19-5.327 7.714 1.743 14.295 4.063 20.81 7.45 6.03 3.13 17.516 10.908 17.516 10.908l2.164 1.478-.677-2.542s-1.063-4.23 1-8.226c1.777-3.517 6.45-5.095 6.45-5.095l1.84-.62-1.615-1.156c-13.833-9.81-28.516-17.78-44.388-21.132-1.8-.387-3.32-.577-4.575-.544-.42 0-.81 0-1.196.032-1.486.157-2.676.645-3.287 1.61-.91 1.842-1.71 3.84-2.453 6.384-8.87-4.03-23.973-8.67-54.454-8.67l-.002.005zm0 2c39.194-.067 51.97 6.935 59.65 11.71 1.22.742 2.386 1.155 3.42 1.22-1.81 3.453-2.678 5.84-3.297 10.224-.19 1.26-.61 1.773-1.123 2.095-.52.322-1.33.42-2.42.264-2.165-.32-5.23-1.65-8.103-2.74-9.257-3.553-23.965-6.195-48.128-6.195-24.164 0-38.87 2.642-48.13 6.193-2.874 1.09-5.938 2.42-8.1 2.74-1.09.157-1.9.06-2.42-.264-.513-.322-.934-.834-1.124-2.098-.61-4.386-1.486-6.772-3.295-10.224 1.033-.066 2.198-.48 3.42-1.222 7.68-4.774 20.455-11.776 59.648-11.71l.003.005zm-61.39.61c.356 0 .71.033 1.008.066 1.156.127 1.676.48 1.8.68.1.157.132.42-.322 1.03-.446.646-1.42 1.48-2.84 2.32-1.768 1-2.965 2.1-3.708 3.2-.744 1.13-1.066 2.253-.71 3.285.875 1.553 1.775 3.485 2.55 5.096-7.68 1.74-14.417 4.07-21 7.49-5.648 2.93-13.964 8.613-15.904 9.9.165-1.84.1-4.417-1.42-7.423-1.644-3.188-4.22-4.542-5.905-5.285 13.327-9.222 27.325-16.646 42.322-19.81 1.686-.354 3.074-.544 4.13-.544v-.003zm122.78 0c1.067 0 2.446.19 4.13.545 14.997 3.163 28.995 10.587 42.323 19.844-1.685.71-4.26 2.064-5.904 5.252-1.52 3.006-1.587 5.583-1.42 7.424-1.934-1.288-10.258-6.97-15.907-9.9-6.582-3.42-13.32-5.75-21-7.49.776-1.612 1.676-3.544 2.552-5.097.355-1.032.033-2.155-.71-3.286-.744-1.1-1.94-2.197-3.708-3.196-1.42-.84-2.387-1.674-2.84-2.285-.455-.644-.422-.908-.323-1.065.124-.2.644-.554 1.808-.678.29-.032.646-.065 1-.065v-.002zm-53.32 2.353c-.81.066-1.487.322-2.13.677-.844.455-1.455 1.132-1.91 1.966-.445.878-.71 1.877-.742 3.04-.058 1.868.355 3.32 1.23 4.354.867 1.032 2.197 1.577 3.84 1.61 1.156.033 2.13-.09 2.9-.388v-1.156c-1 .255-1.868.387-2.644.354-1.288-.033-2.287-.454-2.964-1.288-.68-.843-.977-1.94-.944-3.427.033-1.414.388-2.58 1.098-3.388.744-.8 1.81-1.222 3.064-1.19.84.034 1.676.257 2.518.678l.578-1.097c-.9-.455-1.932-.71-3.097-.744-.29 0-.546-.035-.802 0l.004-.002zm-11.587.066-4.352 11.388h1.355l1.322-3.584 4.583-.066 1.42 3.584 1.353-.066-4.584-11.256h-1.1.003zm-6.516.157-1.288.07.222 4.773-5.927.323-.264-4.774-1.29.066.546 11.256 1.388-.057-.322-5.326 5.938-.29.322 5.32 1.288-.06-.612-11.296v-.003zm24.585.135-.81 11.29 1.324.13.355-5.358 5.937.52-.355 5.26 1.29.124.875-11.29-1.297-.1-.38 4.81-5.937-.48.356-4.773-1.355-.133h-.003zm-71.967.455c.644 1.543.966 2.707 1.19 3.773a48.773 48.773 0 0 0-4.485 2.485c-1.19.735-2.19 1-2.767.966-.585 0-.71-.198-.81-.42-.064-.224-.03-.777.48-1.545.52-.778 1.487-1.72 3.04-2.62 1.51-.834 2.64-1.71 3.353-2.64zm114.836 0c.71.932 1.84 1.807 3.353 2.64 1.554.9 2.52 1.843 3.04 2.62.512.767.545 1.32.48 1.543-.1.223-.224.388-.802.42-.585.034-1.585-.23-2.774-.965a48.88 48.88 0 0 0-4.484-2.485c.223-1.066.545-2.23 1.19-3.774zm-30.71.61-1.323 11.255 1.322.133 1.353-11.198-1.353-.19zm-29.673.066c.19.644.388 1.156.545 1.61l1.356 3.518h-3.642l1.222-3.452c.223-.61.42-1.196.52-1.675zm-26.648.223-1.034.13-2.997 11.9 1.386-.19.867-3.774 4.518-.553 1.843 3.328 1.387-.164-5.97-10.677zm61.257.32-1.842 11.165 1.297.223.736-4.64 2.362.386 1.9 5.062 1.552.322-2.165-5.583c1.577-.256 2.486-1.132 2.742-2.61.155-1.032-.067-1.908-.646-2.52-.553-.643-1.453-1.097-2.84-1.32l-3.097-.487zm-61.614 1.197c.257.61.522 1.123.745 1.544l1.775 3.33-3.65.51.875-3.672c.124-.61.19-1.23.256-1.71zm62.746.157 1.676.322c.933.165 1.643.388 2.03.81.39.388.488 1 .356 1.742-.1.71-.42 1.19-.9 1.485-.52.29-1.197.38-2.13.223l-1.776-.29.743-4.293zm-72.903.198c-.322.033-.586.124-.94.19l-3.032.61 2.42 11.1 1.288-.322-1.032-4.582 2.33-.48 3.674 4.03 1.545-.387-4.097-4.25c1.387-.843 1.874-2.04 1.552-3.486-.223-1.032-.71-1.71-1.487-2.098-.578-.29-1.32-.42-2.22-.322v-.002zm82.127.388-2.55 11 1.295.323 2.543-11.033-1.29-.29zm-81.647.8c.355 0 .677.07.94.168.513.256.836.71 1 1.453.158.704.034 1.257-.32 1.71-.356.447-.943.8-1.843 1l-1.742.39-.933-4.23 1.676-.355c.48-.133.868-.133 1.223-.133l-.003-.002z"/><path fill="#FFEF2D" d="M225.35 277.376c-2.575 0-3.03 4.517-3.03 10.843 0 1.83.133 3.606.323 5.16-1.223-.968-2.676-1.94-4.286-2.875-5.484-3.163-9.58-5.03-10.876-2.775-1.32 2.23 2.365 4.873 7.848 8.036 1.61.933 3.155 1.71 4.575 2.287a43.907 43.907 0 0 0-4.574 2.32c-5.484 3.164-9.168 5.815-7.846 8.036 1.297 2.253 5.393.386 10.877-2.777 1.61-.933 3.064-1.9 4.287-2.873a43.042 43.042 0 0 0-.322 5.16c0 6.328.455 10.845 3.03 10.845 2.62 0 3.04-4.517 3.04-10.843 0-1.833-.1-3.61-.297-5.16 1.23.973 2.684 1.94 4.26 2.872 5.517 3.163 9.613 5.03 10.902 2.775 1.295-2.22-2.355-4.874-7.87-8.037a38.862 38.862 0 0 0-4.64-2.32c1.45-.58 3.06-1.355 4.64-2.288 5.515-3.163 9.165-5.805 7.87-8.035-1.29-2.254-5.386-.387-10.9 2.776-1.58.933-3.033 1.907-4.263 2.873.198-1.554.297-3.33.297-5.16 0-6.33-.42-10.846-3.04-10.846l-.004.002zm53.3 0c-2.62 0-3.04 4.517-3.04 10.843 0 1.83.1 3.606.297 5.16-1.23-.968-2.684-1.94-4.26-2.875-5.517-3.163-9.613-5.03-10.902-2.775-1.296 2.23 2.354 4.873 7.87 8.036a33.835 33.835 0 0 0 4.64 2.287 39.015 39.015 0 0 0-4.64 2.32c-5.516 3.164-9.166 5.815-7.87 8.036 1.29 2.253 5.385.386 10.9-2.777 1.578-.933 3.032-1.9 4.262-2.873-.198 1.553-.297 3.33-.297 5.16 0 6.328.42 10.845 3.04 10.845 2.575 0 3.03-4.517 3.03-10.843 0-1.833-.133-3.61-.323-5.16 1.223.973 2.676 1.94 4.286 2.872 5.484 3.163 9.58 5.03 10.876 2.775 1.32-2.22-2.365-4.874-7.848-8.037a43.336 43.336 0 0 0-4.575-2.32c1.42-.58 2.964-1.355 4.574-2.288 5.484-3.163 9.168-5.805 7.846-8.035-1.297-2.254-5.393-.387-10.877 2.776-1.61.933-3.064 1.907-4.287 2.873.19-1.554.322-3.33.322-5.16 0-6.33-.455-10.846-3.03-10.846l.005.002zm-53.588 16.55c.776-.067 1.62.132 2.354.553 1.973 1.153 2.684 3.672 1.552 5.64-1.164 1.962-3.675 2.673-5.648 1.55-1.966-1.165-2.676-3.684-1.545-5.65.71-1.22 1.966-1.997 3.287-2.097v.003zm53.876 0c1.32.1 2.576.875 3.287 2.097 1.13 1.965.42 4.484-1.545 5.648-1.973 1.127-4.484.416-5.648-1.55-1.132-1.964-.42-4.516 1.552-5.64.735-.42 1.578-.62 2.354-.553z"/><path fill="purple" d="M425.42 181.376s-.81.355-1.9.587c-.1 2.064-.198 4.096-.33 6.127v.066c.132.223.23.38.42.578.612.71 1.454 1.065 2.453 1.222 1.033.2 2.197.166 3.485 0 1.9-.19 4.162-1.123 6.36-1.965-1.066 1.778-2.23 3.645-2.487 4.974-.32 1.867.325 3.386 1.424 4.45 1.222 1.19 2.964 1.58 5.03 1.39 1.254-.1 2.906-.678 4.45-1.133-.9 1.157-1.965 2.486-2.486 3.45-.834 1.58-1.032 3.066-.48 4.453.68 1.71 1.868 2.676 3.544 3.163 1.033.29 2.84.446 4.394.644-3.418 1.93-5.36 4.094-5.615 5.77-.256 1.677.578 3.197 2.064 4.45.934.844 2.676 1.81 4.196 2.744-1.554.132-3.33.132-4.36.578-1.71.71-2.8 1.973-3.22 3.394-.324 1-.234 1.998.155 2.865.388.91 1.032 1.646 1.742 2.42.908.94 1.974 1.94 3.03 2.876-1.577-.066-3.096-.322-4.706 0-2.42.487-4.74 1.998-5.994 5.227-1.23 3.064-2.74 3.774-5.07 4.517-2.288.767-5.384 1.386-8.803 3.897-1.775 1.263-2.774 2.453-3.228 3.708-.355.908-.322 1.742-.09 2.552-1.132-.422-2.33-.455-3.552-.067-1.288.39-2.618 1.232-3.873 2.553-1 1.032-1.61 2.19-1.843 3.386a6.576 6.576 0 0 0 .265 2.904 7.548 7.548 0 0 0-2.907-1.165c-.1-.033-.19 0-.322 0-.222.612-.486 1.256-.742 1.9.258 0 .52.033.745.066 1.322.23 2.61.908 3.808 1.998 2.353 2.13 4.195 5.393 5.45 7.424-2.42 2.575-4.773 3.962-7.614 5.127-1.124.454-2.454.834-3.775 1.32-.48-3.228-1.222-5.615-2.064-7.448-.387.9-.767 1.832-1.155 2.74.48 1.48.9 3.22 1.156 5.45-1.42.488-2.93 1.13-4.55 1.81-.7 1.445-1.412 2.93-2.155 4.385 1.643 1.19 2.775 2.485 3.485 3.964.9 1.94 1.22 4.36 1.32 7.745l.066 3.55 1.834-3.037c.875-1.545 1.552-2.71 2.295-3.386.77-.676 1.48-.965 2.743-.9 1.478.034 3.865 1.644 5.772 4.287l1.42 1.907.39-2.26c.38-1.967.866-3.74 1.477-4.93.644-1.23 1.355-1.876 2.164-2.066 1.32-.355 2.256-.1 3.388.578 1.13.677 2.386 1.842 3.873 3.452l1.578 1.84.066-2.484c.1-2.032.388-3.353.776-4.294.387-.968.866-1.48 1.71-2 .965-.578 1.964-.644 3.23-.157 1.253.48 2.673 1.477 3.96 2.74l2.165 2.065-.52-3.007c-.223-1.32-.355-2.642-.223-3.773.1-1.156.388-1.998.9-2.42.966-.8 1.998-.932 3.295-.734 1.288.224 2.775.736 4.22 1.256l2.874 1.067-1.81-2.55c-.9-1.257-1.706-2.545-2.06-3.643-.357-1.098-.323-1.875.32-2.643.678-.81 1.71-1.196 3.13-1.23 1.42-.065 3.163.224 4.716.323l2.8.165-2.123-1.908c-1.065-.934-2.263-2.098-2.973-3.287-.744-1.198-.934-2.263-.513-3.13.446-.933 1.123-1.42 2.32-1.676 1.198-.256 2.874-.166 4.972.355l3.54.9-2.642-2.644c-1.61-1.52-3.13-3.454-3.71-5.45-.61-2.034-.52-4.098 1.545-6.138 3.42-3.32 3.617-7.837 2.387-12.866-.743 2.486-3.188 4.286-6.26 5.772-3.063 1.486-6.705 2.518-9.835 2.807-2.453.257-4.55.546-6.35 1-2.13-.644-2.973-1.453-3.394-2.163-.412-.676-.445-1.453-.48-2.452 1.744-.9 3.32-2.254 4.354-4.864 1.066-2.716 2.52-3.583 4.485-3.97 1.965-.39 4.42-.133 6.837-.1h2.585l-1.84-1.74c-1.71-1.646-3.61-3.033-4.874-4.354-.61-.678-1-1.355-1.223-1.9-.23-.553-.354-.94-.164-1.486.265-.9.876-1.61 2.13-2.164 1.257-.544 3.264-.866 6.294-.742l.478-1.8c-2.832-1.685-4.864-2.973-6.094-4.072-1.222-1.057-1.545-1.734-1.42-2.642.198-1.132 1.486-3.675 6.78-5.673l3.64-1.42-3.806-.585c-3.262-.446-5.417-.61-6.772-.966-1.32-.39-1.808-.71-2.328-2-.29-.743-.19-1.486.52-2.808.71-1.32 2.064-3.062 3.964-5.35l2.23-2.907-3.386 1.323c-2.71 1.032-5.038 1.676-6.78 1.808-1.734.166-2.767-.19-3.477-.9s-1.066-1.42-.81-2.807c.256-1.354 1.222-3.386 3.23-6.193l-1.265-1.388c-2.774 1.355-5.673 2.13-8.002 2.387-1.156.132-2.122.132-2.898 0-.744-.13-1.256-.355-1.388-.487-.355-.413-.454-.8-.42-1.255.032-.456.23-1 .486-1.488.545-.966 1.322-1.742 1.322-1.742l-1.066-1.644-.002.002zm34.097 63c.132 1.933.355 4.328-2.874 7.45-2.543 2.42-2.808 5.458-2.064 8.002.484 1.742 1.516 3.262 2.65 4.65-1.134-.133-2.488-.39-3.397-.2-1.643.356-2.93 1.297-3.64 2.743-.844 1.68-.324 3.488.577 4.974.455.743 1.13 1.32 1.743 1.965-.834-.067-1.643-.29-2.486-.257-1.676.067-3.443.48-4.608 1.9-1.13 1.355-1.166 3.065-.68 4.55.224.678.71 1.322 1.067 1.966-.712-.224-1.356-.513-2.132-.645-1.61-.256-3.32-.09-4.806 1.165-1.067.9-1.52 2.286-1.645 3.707-.066.743.09 1.552.157 2.32-.9-.71-1.808-1.544-2.807-1.9-1.61-.61-3.477-.676-5.03.224-1.13.678-1.932 1.677-2.485 3.007-.32.8-.42 1.965-.577 3.03-.934-.94-1.908-1.973-2.874-2.55-1.48-.87-3.098-1.19-4.87-.745-1.515.39-2.61 1.554-3.39 3.065-.544 1.032-.833 2.387-1.155 3.716-1.842-2.13-3.94-3.75-6.136-3.806-1.643-.066-2.965.446-4.03 1.42-.42.38-.776 1.058-1.156 1.545-.198-2.198-.553-4.196-1.33-5.873-.867-1.867-2.287-3.386-4.286-4.774 4.994-2.196 8.8-3.196 12.286-4.616 4.228-1.742 7.87-4.253 11.644-9.934 2.132-3.13 3.263-5.674 4.395-7.903 1.123-2.22 2.22-4.03 4.13-5.805 4.417-4.063 7.414-5.095 14.863-5.838 3.386-.355 7.193-1.454 10.488-3.064 1.808-.9 3.22-1.842 4.45-3.485l.003-.004zm-27.326 1.743c.036.873.1 1.806.647 2.74.487.742 1.264 1.39 2.33 1.965-2.454.94-4.55 2.328-6.84 4.45-1.386 1.297-2.328 2.585-3.162 3.973-1.354-2.033-2.973-3.52-3.617-4.774-.388-.744-.42-1.29-.157-2 .223-.676.868-1.65 2.453-2.807 3.13-2.263 5.84-2.71 8.35-3.55l-.002.002zm-14.606 9.9h.067c.41.032.834.1 1.255.263 1.577.677 3.286 2.643 4.938 5.285 0 0 .033.065 0 .1-1.13 2.253-2.263 4.74-4.294 7.736-.513.81-1.066 1.52-1.545 2.164-2.684-3.74-4.65-6.548-5.46-8.513-.445-1.032-.544-1.842-.412-2.552.124-.743.512-1.42 1.32-2.22 1.1-1.166 2-1.81 2.867-2.066.452-.167.84-.2 1.26-.2l.004.002zm-6.292 59.55c-8.224.61-14.61 6.26-15.194 12.32-.223 2.42.61 4.615 1.742 6.26 1.132 1.675 2.585 2.84 3.973 3.483 2.03.934 4.03-.19 4.286-1.9.1-.71-.067-1.33-.323-1.808a6.14 6.14 0 0 0-.834-1.255c-.554-.684-1.066-1.295-1.165-3.13-.066-1.42.71-2.773 2.32-3.806 1.61-1.032 4.196-1.65 7.358-1.585 5.26.163 8.837 2.773 11.322 6.712 2.453 3.93 3.708 9.19 3.774 14.195.19 10.966-4.65 17.482-11.134 21.48-6.482 3.995-14.674 5.292-20.9 5.358-13.42.124-21.612-5.16-26.674-12.453-4.617-6.714-6.615-15.096-7.2-22.553a99.126 99.126 0 0 1-1.71 1.973c.065.702.13 1.445.23 2.155a5.68 5.68 0 0 1-2.13 0c-1.255 1.354-2.453 2.775-3.708 4.13-.132.42-.165.842-.198 1.32-.09 2.907 1.263 6.326 2.65 9.324 1.933 4.096 3.865 6.937 6.128 8.324 1.098.71 2.42.998 3.61.84-.29.868-.356 1.678-.158 2.48.42 1.774 1.742 3.13 3.32 4.194 2.097 1.486 4.45 2.74 6.77 3.006a6.227 6.227 0 0 0 3.13-.52c0 .165-.032.355 0 .52.133 1.156.876 2.122 1.81 2.708 1.874 1.19 4.55 1.42 7.358 1.743 3.32.355 5.74.38 7.514-.586a4.36 4.36 0 0 0 1.577-1.48c.677.77 1.676 1.258 2.708 1.39 2.197.29 4.782-.49 8.1-1.33 4.197-1.032 6.32-2.19 7.35-3.71.39-.576.554-1.286.587-1.897.835.256 1.677.388 2.544.256 1.94-.29 3.94-1.388 5.715-2.966 2.03-1.84 3.163-3.906 3.45-5.78.19-1.057.126-2.032-.23-2.9a5.068 5.068 0 0 0 2.454-1.163c1.32-1.065 1.998-2.51 2.33-3.872.577-2.41 0-4.806-1.39-6.35.546-.322.967-.776 1.323-1.32.768-1.29 1.065-2.974.966-4.873-.1-2.288-1.29-4.063-2.874-4.972.452-.413.807-.966.906-1.643.223-1.51-.388-3.097-1.42-4.55-1.62-2.32-4.228-4.096-7.746-5.03-2.577-2.42-5.996-3.996-10.158-4.128-3.484-.1-6.39.578-8.423 1.9-2.066 1.328-3.355 3.327-3.22 5.515.09 2.262.93 3.517 1.542 4.326.322.39.578.71.677.9.1.2.23.232.165.587-.033.19-.553.9-1.65.38-1-.446-2.223-1.445-3.123-2.8-.94-1.354-1.52-2.973-1.33-4.872.52-5.424 7.614-11.42 16.583-10.487 7.002.745 12.676 3.387 16.615 8.358 3.94 4.94 6.228 12.256 6.195 22.455-.066 10.356-4.385 18.87-11.9 24.774-7.49 5.903-18.225 9.256-31.298 9.157-20.992-.133-39.415-11.743-44.767-31.29-.52.545-1.1 1.032-1.652 1.577 5.97 19.746 25.005 31.588 46.328 31.71 13.452.068 24.708-3.32 32.644-9.577 7.903-6.26 12.577-15.385 12.61-26.26.066-10.514-2.387-18.383-6.673-23.8-4.294-5.393-10.454-8.292-17.845-9.068a22.459 22.459 0 0 0-3.642-.1l.002.004zM426 329.22c1.94.933 3.163 1.932 4.13 3.187 1.13 1.486 1.486 3.485-.744 4.393-.677-2.484-1.643-4.904-2.964-7.002a7.49 7.49 0 0 0-.423-.578zm3.807 9.736c.033 0 .133-.033.166 0 1.644.29 3.03 1.585 3.064 3.873 0 1.872-.29 3.87-2.485 4.383.032-.744 0-1.478 0-2.222-.034-2.03-.356-4.037-.745-6.035zm-68.286 4.195c1.066 6.005 3.097 12.166 6.74 17.418.354.487.643.875.998 1.33-.743.644-1.354 1.057-1.965 1.156-.742.132-1.486-.124-2.32-.644-1.65-1.034-3.518-3.52-5.36-7.45-1.387-2.94-2.576-6.128-2.485-8.324.033-1.1.297-1.908 1.008-2.486.61-.544 1.676-.9 3.385-.998zm68.675 6.36c1.387.934 2.452 3.155 1.742 5.385-.71 2.196-1.866 3.42-4.195 3.286 1.264-2.51 2.065-5.382 2.454-8.67zm-3.55 10.48c.585.578.874 1.453.676 2.643-.223 1.354-1.033 3.195-2.8 4.806-1.585 1.42-3.23 2.095-4.65 2.326-1.097.157-2.13-.033-3.03-.677.51-.29 1.066-.587 1.544-.91 3.262-2 6.136-4.706 8.26-8.19zm-55.966 3.65c2.773 3.097 6.225 5.706 10.544 7.515-1 1.354-2.09 1.71-3.543 1.577-1.71-.19-3.873-1.254-5.84-2.64-1.385-.968-2.327-2.066-2.583-3.065-.223-.942.033-2 1.42-3.386h.002zm44.254 6.35v.1c.066.066.165.09.264.156.19.39.355.678.388 1 .058.322.033.62-.23.974-.513.767-2.223 1.965-6.195 2.997-3.32.834-5.962 1.42-7.45 1.222-.742-.09-1.13-.29-1.485-.745-.29-.38-.512-1.057-.644-2 4.84-.32 10.29-1.386 15.353-3.707v.003zM383.23 371.9c3.807 1.32 8.225 2.032 13.287 2 .322-.035.644-.1 1-.1-.034.743 0 1.387-.158 1.808-.23.578-.587.9-1.1 1.156-1 .554-3.13.678-6.36.323-2.772-.29-5.25-.644-6.414-1.387-.61-.38-.842-.768-.933-1.322-.066-.512.09-1.32.677-2.477v-.002zm-61.29 2.8c-.71.553-1.42 1.13-2.13 1.65 14.094 3.42 27.415 10.48 40.033 19.26-1.685.734-4.327 2.03-5.937 5.193-1.553 3-1.586 5.576-1.388 7.45-1.932-1.32-10.29-6.97-15.97-9.933-6.55-3.42-13.255-5.682-20.968-7.424.807-1.61 1.707-3.576 2.583-5.13.355-1.03.066-2.187-.678-3.285-.586-.91-1.486-1.743-2.708-2.585-.62.42-1.23.842-1.842 1.263 1.454.867 2.42 1.743 2.9 2.478.52.743.585 1.263.486 1.486-.064.22-.22.452-.81.485-.61.033-1.61-.23-2.8-1-.806-.486-1.805-1.03-2.74-1.55-.62.387-1.196.775-1.81 1.163 1.258.676 2.42 1.42 3.455 2.064 1.255.743 2.354 1.156 3.386 1.222-1.774 3.452-2.583 5.87-3.227 10.223-.157 1.263-.61 1.775-1.123 2.064-.556.324-1.33.42-2.42.266-2.165-.322-5.23-1.62-8.103-2.71-2.643-1.03-5.838-2.005-9.48-2.806-.942.48-1.875 1-2.808 1.477 4.672.908 8.48 2.03 11.543 3.196 2.808 1.098 5.87 2.452 8.522 2.84 1.32.157 2.61.133 3.708-.52 1.098-.644 1.833-1.833 2.064-3.452.322-2.22.644-3.862 1.156-5.382 7.713 1.743 14.327 4.063 20.81 7.45 6.028 3.13 17.515 10.908 17.515 10.908l2.23 1.478-.743-2.577s-1.066-4.163 1-8.16c1.774-3.517 6.415-5.128 6.415-5.128l1.908-.587-1.65-1.222c-12.677-8.97-25.997-16.392-40.382-20.165l.003.003z"/><path fill="#44382C" d="M425.42 181.376s-.81.355-1.9.587c-.1 2.064-.198 4.096-.33 6.127v.066c.132.223.23.38.42.578.612.71 1.454 1.065 2.453 1.222 1.033.2 2.197.166 3.485 0 1.9-.19 4.162-1.123 6.36-1.965-1.066 1.778-2.23 3.645-2.487 4.974-.32 1.867.325 3.386 1.424 4.45 1.222 1.19 2.964 1.58 5.03 1.39 1.254-.1 2.906-.678 4.45-1.133-.9 1.157-1.965 2.486-2.486 3.45-.834 1.58-1.032 3.066-.48 4.453.68 1.71 1.868 2.676 3.544 3.163 1.033.29 2.84.446 4.394.644-3.418 1.93-5.36 4.094-5.615 5.77-.256 1.677.578 3.197 2.064 4.45.934.844 2.676 1.81 4.196 2.744-1.554.132-3.33.132-4.36.578-1.71.71-2.8 1.973-3.22 3.394-.324 1-.234 1.998.155 2.865.388.91 1.032 1.646 1.742 2.42.908.94 1.974 1.94 3.03 2.876-1.577-.066-3.096-.322-4.706 0-2.42.487-4.74 1.998-5.994 5.227-1.23 3.064-2.74 3.774-5.07 4.517-2.288.767-5.384 1.386-8.803 3.897-1.775 1.263-2.774 2.453-3.228 3.708-.355.908-.322 1.742-.09 2.552-1.132-.422-2.33-.455-3.552-.067-1.288.39-2.618 1.232-3.873 2.553-1 1.032-1.61 2.19-1.843 3.386a6.576 6.576 0 0 0 .265 2.904 7.548 7.548 0 0 0-2.907-1.165c-.1-.033-.19 0-.322 0-.222.612-.486 1.256-.742 1.9.258 0 .52.033.745.066 1.322.23 2.61.908 3.808 1.998 2.353 2.13 4.195 5.393 5.45 7.424-2.42 2.575-4.773 3.962-7.614 5.127-1.124.454-2.454.834-3.775 1.32-.48-3.228-1.222-5.615-2.064-7.448-.387.9-.767 1.832-1.155 2.74.48 1.48.9 3.22 1.156 5.45-1.42.488-2.93 1.13-4.55 1.81-.7 1.445-1.412 2.93-2.155 4.385 1.643 1.19 2.775 2.485 3.485 3.964.9 1.94 1.22 4.36 1.32 7.745l.066 3.55 1.834-3.037c.875-1.545 1.552-2.71 2.295-3.386.77-.676 1.48-.965 2.743-.9 1.478.034 3.865 1.644 5.772 4.287l1.42 1.907.39-2.26c.38-1.967.866-3.74 1.477-4.93.644-1.23 1.355-1.876 2.164-2.066 1.32-.355 2.256-.1 3.388.578 1.13.677 2.386 1.842 3.873 3.452l1.578 1.84.066-2.484c.1-2.032.388-3.353.776-4.294.387-.968.866-1.48 1.71-2 .965-.578 1.964-.644 3.23-.157 1.253.48 2.673 1.477 3.96 2.74l2.165 2.065-.52-3.007c-.223-1.32-.355-2.642-.223-3.773.1-1.156.388-1.998.9-2.42.966-.8 1.998-.932 3.295-.734 1.288.224 2.775.736 4.22 1.256l2.874 1.067-1.81-2.55c-.9-1.257-1.706-2.545-2.06-3.643-.357-1.098-.323-1.875.32-2.643.678-.81 1.71-1.196 3.13-1.23 1.42-.065 3.163.224 4.716.323l2.8.165-2.123-1.908c-1.065-.934-2.263-2.098-2.973-3.287-.744-1.198-.934-2.263-.513-3.13.446-.933 1.123-1.42 2.32-1.676 1.198-.256 2.874-.166 4.972.355l3.54.9-2.642-2.644c-1.61-1.52-3.13-3.454-3.71-5.45-.61-2.034-.52-4.098 1.545-6.138 3.42-3.32 3.617-7.837 2.387-12.866-.743 2.486-3.188 4.286-6.26 5.772-3.063 1.486-6.705 2.518-9.835 2.807-2.453.257-4.55.546-6.35 1-2.13-.644-2.973-1.453-3.394-2.163-.412-.676-.445-1.453-.48-2.452 1.744-.9 3.32-2.254 4.354-4.864 1.066-2.716 2.52-3.583 4.485-3.97 1.965-.39 4.42-.133 6.837-.1h2.585l-1.84-1.74c-1.71-1.646-3.61-3.033-4.874-4.354-.61-.678-1-1.355-1.223-1.9-.23-.553-.354-.94-.164-1.486.265-.9.876-1.61 2.13-2.164 1.257-.544 3.264-.866 6.294-.742l.478-1.8c-2.832-1.685-4.864-2.973-6.094-4.072-1.222-1.057-1.545-1.734-1.42-2.642.198-1.132 1.486-3.675 6.78-5.673l3.64-1.42-3.806-.585c-3.262-.446-5.417-.61-6.772-.966-1.32-.39-1.808-.71-2.328-2-.29-.743-.19-1.486.52-2.808.71-1.32 2.064-3.062 3.964-5.35l2.23-2.907-3.386 1.323c-2.71 1.032-5.038 1.676-6.78 1.808-1.734.166-2.767-.19-3.477-.9s-1.066-1.42-.81-2.807c.256-1.354 1.222-3.386 3.23-6.193l-1.265-1.388c-2.774 1.355-5.673 2.13-8.002 2.387-1.156.132-2.122.132-2.898 0-.744-.13-1.256-.355-1.388-.487-.355-.413-.454-.8-.42-1.255.032-.456.23-1 .486-1.488.545-.966 1.322-1.742 1.322-1.742l-1.066-1.644-.002.002zm34.097 63c.132 1.933.355 4.328-2.874 7.45-2.543 2.42-2.808 5.458-2.064 8.002.484 1.742 1.516 3.262 2.65 4.65-1.134-.133-2.488-.39-3.397-.2-1.643.356-2.93 1.297-3.64 2.743-.844 1.68-.324 3.488.577 4.974.455.743 1.13 1.32 1.743 1.965-.834-.067-1.643-.29-2.486-.257-1.676.067-3.443.48-4.608 1.9-1.13 1.355-1.166 3.065-.68 4.55.224.678.71 1.322 1.067 1.966-.712-.224-1.356-.513-2.132-.645-1.61-.256-3.32-.09-4.806 1.165-1.067.9-1.52 2.286-1.645 3.707-.066.743.09 1.552.157 2.32-.9-.71-1.808-1.544-2.807-1.9-1.61-.61-3.477-.676-5.03.224-1.13.678-1.932 1.677-2.485 3.007-.32.8-.42 1.965-.577 3.03-.934-.94-1.908-1.973-2.874-2.55-1.48-.87-3.098-1.19-4.87-.745-1.515.39-2.61 1.554-3.39 3.065-.544 1.032-.833 2.387-1.155 3.716-1.842-2.13-3.94-3.75-6.136-3.806-1.643-.066-2.965.446-4.03 1.42-.42.38-.776 1.058-1.156 1.545-.198-2.198-.553-4.196-1.33-5.873-.867-1.867-2.287-3.386-4.286-4.774 4.994-2.196 8.8-3.196 12.286-4.616 4.228-1.742 7.87-4.253 11.644-9.934 2.132-3.13 3.263-5.674 4.395-7.903 1.123-2.22 2.22-4.03 4.13-5.805 4.417-4.063 7.414-5.095 14.863-5.838 3.386-.355 7.193-1.454 10.488-3.064 1.808-.9 3.22-1.842 4.45-3.485l.003-.004zm-27.326 1.743c.036.873.1 1.806.647 2.74.487.742 1.264 1.39 2.33 1.965-2.454.94-4.55 2.328-6.84 4.45-1.386 1.297-2.328 2.585-3.162 3.973-1.354-2.033-2.973-3.52-3.617-4.774-.388-.744-.42-1.29-.157-2 .223-.676.868-1.65 2.453-2.807 3.13-2.263 5.84-2.71 8.35-3.55l-.002.002zm-14.606 9.9h.067c.41.032.834.1 1.255.263 1.577.677 3.286 2.643 4.938 5.285 0 0 .033.065 0 .1-1.13 2.253-2.263 4.74-4.294 7.736-.513.81-1.066 1.52-1.545 2.164-2.684-3.74-4.65-6.548-5.46-8.513-.445-1.032-.544-1.842-.412-2.552.124-.743.512-1.42 1.32-2.22 1.1-1.166 2-1.81 2.867-2.066.452-.167.84-.2 1.26-.2l.004.002zm-6.292 59.55c-8.224.61-14.61 6.26-15.194 12.32-.223 2.42.61 4.615 1.742 6.26 1.132 1.675 2.585 2.84 3.973 3.483 2.03.934 4.03-.19 4.286-1.9.1-.71-.067-1.33-.323-1.808a6.14 6.14 0 0 0-.834-1.255c-.554-.684-1.066-1.295-1.165-3.13-.066-1.42.71-2.773 2.32-3.806 1.61-1.032 4.196-1.65 7.358-1.585 5.26.163 8.837 2.773 11.322 6.712 2.453 3.93 3.708 9.19 3.774 14.195.19 10.966-4.65 17.482-11.134 21.48-6.482 3.995-14.674 5.292-20.9 5.358-13.42.124-21.612-5.16-26.674-12.453-4.617-6.714-6.615-15.096-7.2-22.553a99.126 99.126 0 0 1-1.71 1.973c.065.702.13 1.445.23 2.155a5.68 5.68 0 0 1-2.13 0c-1.255 1.354-2.453 2.775-3.708 4.13-.132.42-.165.842-.198 1.32-.09 2.907 1.263 6.326 2.65 9.324 1.933 4.096 3.865 6.937 6.128 8.324 1.098.71 2.42.998 3.61.84-.29.868-.356 1.678-.158 2.48.42 1.774 1.742 3.13 3.32 4.194 2.097 1.486 4.45 2.74 6.77 3.006a6.227 6.227 0 0 0 3.13-.52c0 .165-.032.355 0 .52.133 1.156.876 2.122 1.81 2.708 1.874 1.19 4.55 1.42 7.358 1.743 3.32.355 5.74.38 7.514-.586a4.36 4.36 0 0 0 1.577-1.48c.677.77 1.676 1.258 2.708 1.39 2.197.29 4.782-.49 8.1-1.33 4.197-1.032 6.32-2.19 7.35-3.71.39-.576.554-1.286.587-1.897.835.256 1.677.388 2.544.256 1.94-.29 3.94-1.388 5.715-2.966 2.03-1.84 3.163-3.906 3.45-5.78.19-1.057.126-2.032-.23-2.9a5.068 5.068 0 0 0 2.454-1.163c1.32-1.065 1.998-2.51 2.33-3.872.577-2.41 0-4.806-1.39-6.35.546-.322.967-.776 1.323-1.32.768-1.29 1.065-2.974.966-4.873-.1-2.288-1.29-4.063-2.874-4.972.452-.413.807-.966.906-1.643.223-1.51-.388-3.097-1.42-4.55-1.62-2.32-4.228-4.096-7.746-5.03-2.577-2.42-5.996-3.996-10.158-4.128-3.484-.1-6.39.578-8.423 1.9-2.066 1.328-3.355 3.327-3.22 5.515.09 2.262.93 3.517 1.542 4.326.322.39.578.71.677.9.1.2.23.232.165.587-.033.19-.553.9-1.65.38-1-.446-2.223-1.445-3.123-2.8-.94-1.354-1.52-2.973-1.33-4.872.52-5.424 7.614-11.42 16.583-10.487 7.002.745 12.676 3.387 16.615 8.358 3.94 4.94 6.228 12.256 6.195 22.455-.066 10.356-4.385 18.87-11.9 24.774-7.49 5.903-18.225 9.256-31.298 9.157-20.992-.133-39.415-11.743-44.767-31.29-.52.545-1.1 1.032-1.652 1.577 5.97 19.746 25.005 31.588 46.328 31.71 13.452.068 24.708-3.32 32.644-9.577 7.903-6.26 12.577-15.385 12.61-26.26.066-10.514-2.387-18.383-6.673-23.8-4.294-5.393-10.454-8.292-17.845-9.068a22.459 22.459 0 0 0-3.642-.1l.002.004zM426 329.22c1.94.933 3.163 1.932 4.13 3.187 1.13 1.486 1.486 3.485-.744 4.393-.677-2.484-1.643-4.904-2.964-7.002a7.49 7.49 0 0 0-.423-.578zm3.807 9.736c.033 0 .133-.033.166 0 1.644.29 3.03 1.585 3.064 3.873 0 1.872-.29 3.87-2.485 4.383.032-.744 0-1.478 0-2.222-.034-2.03-.356-4.037-.745-6.035zm-68.286 4.195c1.066 6.005 3.097 12.166 6.74 17.418.354.487.643.875.998 1.33-.743.644-1.354 1.057-1.965 1.156-.742.132-1.486-.124-2.32-.644-1.65-1.034-3.518-3.52-5.36-7.45-1.387-2.94-2.576-6.128-2.485-8.324.033-1.1.297-1.908 1.008-2.486.61-.544 1.676-.9 3.385-.998zm68.675 6.36c1.387.934 2.452 3.155 1.742 5.385-.71 2.196-1.866 3.42-4.195 3.286 1.264-2.51 2.065-5.382 2.454-8.67zm-3.55 10.48c.585.578.874 1.453.676 2.643-.223 1.354-1.033 3.195-2.8 4.806-1.585 1.42-3.23 2.095-4.65 2.326-1.097.157-2.13-.033-3.03-.677.51-.29 1.066-.587 1.544-.91 3.262-2 6.136-4.706 8.26-8.19zm-55.966 3.65c2.773 3.097 6.225 5.706 10.544 7.515-1 1.354-2.09 1.71-3.543 1.577-1.71-.19-3.873-1.254-5.84-2.64-1.385-.968-2.327-2.066-2.583-3.065-.223-.942.033-2 1.42-3.386h.002zm44.254 6.35v.1c.066.066.165.09.264.156.19.39.355.678.388 1 .058.322.033.62-.23.974-.513.767-2.223 1.965-6.195 2.997-3.32.834-5.962 1.42-7.45 1.222-.742-.09-1.13-.29-1.485-.745-.29-.38-.512-1.057-.644-2 4.84-.32 10.29-1.386 15.353-3.707v.003zM383.23 371.9c3.807 1.32 8.225 2.032 13.287 2 .322-.035.644-.1 1-.1-.034.743 0 1.387-.158 1.808-.23.578-.587.9-1.1 1.156-1 .554-3.13.678-6.36.323-2.772-.29-5.25-.644-6.414-1.387-.61-.38-.842-.768-.933-1.322-.066-.512.09-1.32.677-2.477v-.002zm-61.29 2.8c-.71.553-1.42 1.13-2.13 1.65 14.094 3.42 27.415 10.48 40.033 19.26-1.685.734-4.327 2.03-5.937 5.193-1.553 3-1.586 5.576-1.388 7.45-1.932-1.32-10.29-6.97-15.97-9.933-6.55-3.42-13.255-5.682-20.968-7.424.807-1.61 1.707-3.576 2.583-5.13.355-1.03.066-2.187-.678-3.285-.586-.91-1.486-1.743-2.708-2.585-.62.42-1.23.842-1.842 1.263 1.454.867 2.42 1.743 2.9 2.478.52.743.585 1.263.486 1.486-.064.22-.22.452-.81.485-.61.033-1.61-.23-2.8-1-.806-.486-1.805-1.03-2.74-1.55-.62.387-1.196.775-1.81 1.163 1.258.676 2.42 1.42 3.455 2.064 1.255.743 2.354 1.156 3.386 1.222-1.774 3.452-2.583 5.87-3.227 10.223-.157 1.263-.61 1.775-1.123 2.064-.556.324-1.33.42-2.42.266-2.165-.322-5.23-1.62-8.103-2.71-2.643-1.03-5.838-2.005-9.48-2.806-.942.48-1.875 1-2.808 1.477 4.672.908 8.48 2.03 11.543 3.196 2.808 1.098 5.87 2.452 8.522 2.84 1.32.157 2.61.133 3.708-.52 1.098-.644 1.833-1.833 2.064-3.452.322-2.22.644-3.862 1.156-5.382 7.713 1.743 14.327 4.063 20.81 7.45 6.028 3.13 17.515 10.908 17.515 10.908l2.23 1.478-.743-2.577s-1.066-4.163 1-8.16c1.774-3.517 6.415-5.128 6.415-5.128l1.908-.587-1.65-1.222c-12.677-8.97-25.997-16.392-40.382-20.165l.003.003z"/></g></svg>
