<svg width="170" height="68" viewBox="0 0 170 68" fill="none" xmlns="http://www.w3.org/2000/svg">
<path d="M0 38H170V68H0V38Z" fill="#F5F5F5"/>
<path d="M0 18.1476C0 15.9384 1.79086 14.1476 4 14.1476H166C168.209 14.1476 170 15.9384 170 18.1476V38.0794H0V18.1476Z" fill="#32302F"/>
<path d="M98 24.1306C98 21.9214 99.7909 20.1306 102 20.1306H141C143.209 20.1306 145 21.9214 145 24.1306V38.0794H98V24.1306Z" fill="#F5F5F5"/>
<path d="M47 24.1306C47 21.9214 48.7909 20.1306 51 20.1306H89C91.2091 20.1306 93 21.9214 93 24.1306V38.0794H47V24.1306Z" fill="#D6D6D6"/>
<rect x="7.5" y="24.6192" width="7" height="6.97728" rx="3.48864" stroke="#ABABAB"/>
<rect x="19.5" y="24.6192" width="7" height="6.97728" rx="3.48864" stroke="#ABABAB"/>
<rect x="31.5" y="24.6192" width="7" height="6.97728" rx="3.48864" stroke="#ABABAB"/>
<path fill-rule="evenodd" clip-rule="evenodd" d="M68.4435 8.35874C63.7082 12.097 60.6145 16.9803 58.4004 21.5628C58.1601 22.0601 57.5622 22.2685 57.0649 22.0282C56.5677 21.7879 56.3593 21.19 56.5996 20.6928C58.8822 15.9685 62.1386 10.7879 67.2042 6.78894C72.2883 2.77538 79.1345 0 88.5 0C98.0659 0 105.674 5.54674 111.099 12.0794C115.721 17.6445 118.852 24.0328 120.345 28.6439L123.89 22.922C124.181 22.4526 124.797 22.3078 125.267 22.5986C125.736 22.8895 125.881 23.5059 125.59 23.9754L120.85 31.6261C120.559 32.0955 119.943 32.2403 119.473 31.9495L111.823 27.2096C111.353 26.9187 111.208 26.3023 111.499 25.8328C111.79 25.3633 112.406 25.2185 112.876 25.5094L118.317 28.8803C116.858 24.5486 113.897 18.5791 109.56 13.3571C104.332 7.06107 97.2338 2 88.5 2C79.5657 2 73.1603 4.63511 68.4435 8.35874Z" fill="url(#paint0_linear_15671_4815)"/>
<g clip-path="url(#clip0_15671_4815)">
<path d="M56 34.0908C58.7614 34.0908 61 31.8586 61 29.105C61 26.3514 58.7614 24.1192 56 24.1192C53.2386 24.1192 51 26.3514 51 29.105C51 31.8586 53.2386 34.0908 56 34.0908Z" fill="#F0F0F0"/>
<path d="M55.7823 29.105H60.9997C60.9997 28.655 60.9396 28.219 60.8275 27.8043H55.7823V29.105Z" fill="#D80027"/>
<path d="M55.7823 26.5037H60.2659C59.9598 26.0057 59.5684 25.5655 59.1122 25.2031H55.7823V26.5037Z" fill="#D80027"/>
<path d="M56 34.0908C57.1767 34.0908 58.2583 33.6852 59.1124 33.0069H52.8876C53.7417 33.6852 54.8233 34.0908 56 34.0908Z" fill="#D80027"/>
<path d="M51.7337 31.7063H60.266C60.5117 31.3065 60.7023 30.8694 60.8276 30.4056H51.1721C51.2975 30.8694 51.488 31.3065 51.7337 31.7063Z" fill="#D80027"/>
<path d="M53.3161 24.8978H53.7717L53.3479 25.2048L53.5098 25.7016L53.086 25.3946L52.6622 25.7016L52.802 25.2725C52.4289 25.5824 52.1018 25.9456 51.8323 26.3502H51.9783L51.7085 26.5456C51.6664 26.6155 51.6261 26.6866 51.5875 26.7587L51.7163 27.154L51.476 26.9799C51.4162 27.1061 51.3616 27.2352 51.3125 27.3669L51.4544 27.8026H51.9783L51.5544 28.1096L51.7163 28.6064L51.2925 28.2994L51.0387 28.4833C51.0132 28.687 51 28.8944 51 29.105H56C56 26.3514 56 26.0268 56 24.1192C55.0123 24.1192 54.0915 24.4049 53.3161 24.8978ZM53.5098 28.6064L53.086 28.2994L52.6622 28.6064L52.8241 28.1096L52.4003 27.8026H52.9241L53.086 27.3058L53.2479 27.8026H53.7717L53.3479 28.1096L53.5098 28.6064ZM53.3479 26.6572L53.5098 27.154L53.086 26.847L52.6622 27.154L52.8241 26.6572L52.4003 26.3502H52.9241L53.086 25.8534L53.2479 26.3502H53.7717L53.3479 26.6572ZM55.3033 28.6064L54.8795 28.2994L54.4557 28.6064L54.6176 28.1096L54.1937 27.8026H54.7176L54.8795 27.3058L55.0413 27.8026H55.5652L55.1414 28.1096L55.3033 28.6064ZM55.1414 26.6572L55.3033 27.154L54.8795 26.847L54.4557 27.154L54.6176 26.6572L54.1937 26.3502H54.7176L54.8795 25.8534L55.0413 26.3502H55.5652L55.1414 26.6572ZM55.1414 25.2048L55.3033 25.7016L54.8795 25.3946L54.4557 25.7016L54.6176 25.2048L54.1937 24.8978H54.7176L54.8795 24.401L55.0413 24.8978H55.5652L55.1414 25.2048Z" fill="#0052B4"/>
</g>
<path d="M98 38.0795V34.0908C97.7037 36.159 96.0684 37.7848 94 38.0795H98Z" fill="#F5F5F5"/>
<path d="M145 38.0795V34.0908C145.296 36.159 146.932 37.7848 149 38.0795H145Z" fill="#F5F5F5"/>
<defs>
<linearGradient id="paint0_linear_15671_4815" x1="58" y1="0.999995" x2="126.916" y2="37.0585" gradientUnits="userSpaceOnUse">
<stop stop-color="#71BBFF"/>
<stop offset="1" stop-color="#FFB9F8"/>
</linearGradient>
<clipPath id="clip0_15671_4815">
<rect width="10" height="9.9716" fill="white" transform="translate(51 24.1192)"/>
</clipPath>
</defs>
</svg>
