<svg width="129" height="80" fill="none" xmlns="http://www.w3.org/2000/svg"><mask id="a" style="mask-type:alpha" maskUnits="userSpaceOnUse" x="3" y="0" width="127" height="80"><path fill-rule="evenodd" clip-rule="evenodd" d="M113.388 21.192c-1.806 2.445-10.659 12.147-11.97 13.188-.582.462-2.732 3.223-4.838 5.927-1.998 2.567-3.957 5.082-4.498 5.533-1.22 1.016-4.38 4.228-5.897 5.822 1.475 2.079 6.425-1.714 7.534-2.7.286-.254.656-.407 1.032-.562.407-.169.823-.34 1.148-.65.374-.353 1.342-1.058 1.83-1.197.214-.061.413-.12.604-.176 1.108-.328 1.911-.565 3.26-.565 3.686 0 1.951 5.4.674 6.394-1.088.847-2.383 1.271-3.58 1.663-3.005.985-5.396 1.77-2.361 8.524a.71.71 0 0 0-.042.02c.087.06.14.138.14.24 0 .323.085.672.17 1.022.106.436.212.874.156 1.265-.14.983-.957 1.554-1.748 2.107-.201.14-.401.28-.588.426-1.18.917-2.618 1.611-3.963 2.246-.252.12-.485.274-.717.429-.26.172-.517.343-.801.465-.576.246-1.243.54-1.787.855-.325.188-.651.38-.978.573-.86.507-1.729 1.019-2.608 1.47-.473.242-3.456.81-5.561 1.21-.997.19-1.797.343-2.041.406-7.703 1.4-12.602-.19-15.216-1.04-.554-.18-1.006-.327-1.36-.404-1.05-.23-2.146-.208-3.231-.186l-.408.008c-1.882.19-3.804.384-5.732.414-.173.064-.34.114-.496.14-.683 0-26.352 3.464-27.025 3.614l-.358.081c-2.622.595-14.259 3.233-14.259 1.81-1.083-.71 1.245-1.042 1.463-1.042 1.017 0 6.136-2.097 7.036-2.546 1.195-.598 3.997-1.268 6.118-1.698 2.122-.43 4.127-.896 5.517-1.42.334-.127.69-.242 1.037-.354 1.093-.353 2.083-.672 1.933-1.197-.197-.691-6.118-1.105-14.605 2.323l-.86.31h-.004v.001h-.002c-1.063.382-2.471.888-3.2 1.186-.582.238-3.256 1.55-3.819 1.831-.251.126-.953.673-1.706 1.26-.937.73-1.95 1.521-2.27 1.635-.697 0-.75-.224-.75-1 0-.038-.016-.103-.037-.19-.196-.804-.852-3.502 6.036-5.033 1.366-.342 3.127-1.482 4.33-2.261.291-.19.55-.357.762-.487.268-.163 1.036-.389 1.677-.577.377-.11.708-.207.87-.272.302-.12.751-.253 1.195-.383.57-.168 1.128-.332 1.35-.466 1.047-.628 6.295-1.744 11.302-2.81 3.242-.69 6.384-1.358 8.218-1.858.085 0 .166.001.243.004 9.07-3.536 18.22-6.792 20.305-7.209 2.873-1.183 4.26-1.68 5.244-2.033.471-.17.85-.305 1.254-.467 3.17-1.268 5.8-2.648 7.86-3.728h.002c.375-.198.731-.384 1.068-.559 1.148-.593 2.25-1.092 3.395-1.61l.125-.056.333-.15c.482-.398.993-.767 1.498-1.132.134-.097.268-.193.4-.29.61-.444.927-.703 1.258-.973.298-.244.606-.495 1.147-.898.28-.208.718-.496 1.192-.809.775-.51 1.644-1.081 2.063-1.463l.294-.266c.898-.815 1.795-1.63 2.622-2.522.624-.672 1.207-1.176 1.784-1.674.642-.554 1.277-1.102 1.95-1.868.989-.61 1.578-1.466 2.16-2.312.45-.65.894-1.296 1.513-1.819.835-.705 2.83-2.933 4.54-4.844 1.079-1.206 2.044-2.285 2.534-2.774.351-.378 4.626-5.353 6.058-7.136l-.008.004c-.145.069-.29.137-.435.202-.407.18-.767.444-1.128.708-.341.25-.682.499-1.064.68-.7.332-1.454.54-2.208.747-.396.11-.793.219-1.182.347-1.057.346-2.006.876-2.964 1.41a49.99 49.99 0 0 1-.987.543c-1.232.652-2.415 1.322-3.575 2.095-.173.116-.404.17-.61.17-.003 0 .044-.047.102-.107.086-.086.196-.198.219-.228.318-.425.836-.815 1.297-1.162.11-.082.216-.163.316-.24.493-.384.922-.832 1.35-1.28.364-.38.727-.76 1.13-1.1.63-.533 1.22-1.118 1.81-1.703.465-.46.931-.922 1.416-1.358.931-.838 1.801-1.745 2.67-2.653a74.386 74.386 0 0 1 1.777-1.814c.217-.212.457-.391.696-.57.215-.16.429-.321.627-.505.023-.021.097-.05.169-.08.089-.034.175-.069.162-.086-.31-.398-.443-.938-.572-1.462a10.097 10.097 0 0 0-.154-.582c-.076-.247-.198-.483-.319-.718-.137-.265-.273-.53-.343-.808-.096-.386-.342-.731-.58-1.064a6.986 6.986 0 0 1-.292-.43c-.186-.303-.572-1.173-.96-2.048-.394-.886-.789-1.777-.979-2.087.13 0 .336.146.488.255.041.029.078.055.109.075.54.354.935.764 1.356 1.2.12.125.243.253.371.381.394.394 1.964 1.189 3.597 2.015 1.843.933 3.766 1.907 4.168 2.39 5.185-3.618 6.335-5.105 6.885-5.815.182-.236.299-.387.475-.501.318-.378 3.004-2.446 3.436-2.693.146-.084.128-.063.076-.006a.798.798 0 0 0-.103.134c-.101.182-.224.36-.347.54-.189.274-.379.55-.498.848l-.318.786c-.2.492-.401.985-.592 1.484-.248.648-.448 1.308-.648 1.969-.225.743-.45 1.487-.744 2.213-.332.82-.837 1.515-1.343 2.212-.313.43-.626.86-.899 1.322l-.051.08c-.18.284-.68 1.068-.409 1.285.079.063.167.111.255.16.113.061.226.123.32.217.054.054.101.103.143.148.203.214.316.334.73.449.235.066.481.11.724.153.09.016.179.032.268.05.209.04.405.133.601.226.129.061.258.122.391.168 1.665.577 3.147 1.256 4.613 2.234.498.332.189.331-.181.33h-.053c-.667 0-1.451-.147-2.104-.289-.579-.126-1.235-.095-1.867-.066-.268.012-.532.025-.784.025a27.9 27.9 0 0 1-2.233-.088 27.819 27.819 0 0 0-.556-.036c-.548-.033-1.117-.067-1.631-.189a10.904 10.904 0 0 1-.724-.206 10.604 10.604 0 0 0-.728-.207c-.475-.112-1.622-.374-1.691.312-.03.306-.092.602-.155.899-.087.418-.175.837-.175 1.284v2.532c0 .296-.021.585-.042.874-.021.288-.041.575-.041.868 0 .233.006.47.012.707.013.495.026.994-.017 1.48-.024.276-.092.55-.159.824-.079.318-.158.635-.167.955-.016.552-.189.179-.301-.065l-.048-.1c-.293-.588-.435-1.256-.576-1.92a15.134 15.134 0 0 0-.251-1.059c-.08-.274-.223-.551-.368-.83-.198-.38-.397-.765-.441-1.155a4.014 4.014 0 0 0-.072-.416zM77.932 70.244c-1.327-.02-2.66-.007-4 .165-1.308.168-2.622.272-3.937.375-2.093.166-4.184.33-6.248.754.824.304 3.584 1.04 6.145 1.189 4.17-.47 6.685-1.664 8.04-2.483z" fill="#7D7D7D"/></mask><g mask="url(#a)"><g filter="url(#b)"><path d="M-214.523 178.145c6.565 6.163 13.35 12.222 19.805 18.438 6.243 5.868 19.515 1.028 58.891-17.88 90.565-43.531 181.852-86.554 272.962-129.74 15.749-7.472 26.654-15.246 24.348-17.356-16.398-15.013-32.812-30.04-48.99-45.157l-327.016 191.695z" fill="#FFB9F8"/></g><g filter="url(#c)"><path d="M-150.904 378.801c-3.696 44.338-7.426 88.661-11.143 133.034 12.949-32.239 24.513-68.762 34.842-105.619 9.266-33.101 18.196-67.72 30.769-93.381 10.618-21.687 23.015-35.519 36.132-46.072 14.443-34.566 31.623-60.184 51.728-75.93 15.034-11.764 17.648 3.066 32.645 4.869-11.242 28.692 16.327 21.14 28.23-6.676 4.875-11.392.789-9.423 6.398-18.544 3.934-6.346 3.685-21.428 8.098-25.221 20.175-17.214 31.867-92.675 52.646-104.59C98.31 11.72 69.445 78.529 45.829 71.483c-27.6 65.256-47.823 76.883-83.572 109.102-2.946 2.645-5.916 5.147-8.9 7.599l-100.064 152.591a739.512 739.512 0 0 0-4.197 38.026z" fill="#71BBFF"/></g><g filter="url(#d)"><path d="M-63.651 120.52c-1.83 2.134-3.389 2.358-5.906 4.524-4.158-.104-3.038 4.996-.211 6.721 3.981 2.429 5.165-.704 8.245-2.036 5.401-2.336 8.75-4.518 14.906-5.682 4.523-.855 14.832 2.76 19.115 4.738 6.38 2.946 12.516-6.513 16.746-9.822 6.095-4.768 9.484-10.675 17.436-12.868 7.88-2.173 16.207-1.07 24.28-1.038 8.93.036 15.585-.064 23.171-5.998 6.438-5.037 2.943-12.796 1.886-18.638-1.04-5.753-10.049-9.656-14.681-12.138-5.994-3.212-10.807-2.693-17.4-2.49-7.341.226-13.918 7.33-20.99 7.547-5.616.173-15.85-2.682-20.367 1.996-8.913 9.23-13.94 19.1-27.83 21.727-5.297 1.001-9.762 10.316-12.18 14.83-1.897 3.543-3.724 5.715-6.22 8.627z" fill="#0A9F68"/></g><g filter="url(#e)"><path d="M-31.727 28.471c-1.349 1.408-1.623 3.114-3.024 4.593-1.4 1.48-5.307 5.333-5.23 6.298.113 1.395-1.312 3.767 1.207 4.64 2.435.843 6.428.044 9.338-.32C-18.75 42.34-7.96 39.342 2.6 37.225c5.34-1.071 10.732-1.153 16.162-2.043 2.646-.433 4.069-1.427 6.92-1.435 2.738-.008 5.448-.59 8.178-1.037 6.605-1.082 12.409-.53 18.918-.378 7.187.168 17.252-2.138 24.319-3.815 22.582-5.358 38.897-17.497 57.982-27.03 7.404-3.697 13.747-8.256 21.614-11.533 8.287-3.452 17.086-4.948 26.127-6.429 15.417-2.525 32.407-4.949 47.09-9.794 6.803-2.246 12.877-4.908 17.467-9.243 4.948-4.672 2.685-13.444-2.096-17.056-2.655-2.005-9.942-2.847-13.954-3.29-4.256-.47-8.605-.581-12.972-.63-16.307-.182-33.508 3.78-48.628 9.207-18.981 6.813-36.601 5.968-56.271 8.342-9.436 1.139-18.697 3.174-27.878 5.137-6.086 1.3-11.425 5.82-16.403 8.464C55.188-17.908 45.892-7.635 30.113-2.011c-7.326 2.61-15 5.055-22.847 6.428C2.997 5.164-3.395 6.17-7.06 8.275c-6.81 3.913-15.404 8.13-19.217 13.728-1.39 2.041-3.648 4.588-5.45 6.468z" fill="#FFE665"/></g></g><path d="M2.887 40.143c-.484.663-.463 1.525-.443 2.323.024.942.028 1.888.01 2.83.793-.532 1.307-1.343 1.725-2.164.192-.38.37-.77.48-1.177.107-.407.144-.829.168-1.246.024-.38.038-.76.045-1.143.003-.28 0-.604-.394-.486-.59.176-1.242.583-1.588 1.063h-.003z" fill="#252525"/><path d="M1.633 56.215c1.124-.676 2.183.262 3.348.159 1.532-.135 2.916-.842 4.438-.846.346.584.692 1.17 1.035 1.754l-.329.324c-1.624-.6-1.755.652-2.06 1.691-2.251.007-4.506.018-6.758.024-.003-.345-.007-.69-.014-1.035.223-.035.48-.07.473-.352-.007-.283-.267-.307-.486-.342.181-.828.418-.87.35-1.377h.003z" fill="#32302F"/><path d="M5.314 41.77c-.888-.632-1.782-.3-2.674-.01-.253-.887.33-1.326.93-1.754 1.038.466 2.08.929 3.119 1.395l.62-.325v1.025c-.661-.148-1.292-.48-1.998-.331h.003z" fill="#44413F"/><path fill-rule="evenodd" clip-rule="evenodd" d="M5.447 39.714c.905.169 1.279.79 1.248 1.69l.003-.003.31-.162.31-.162c-.16-1.267-.62-2.105-2.68-2.023.051.497.39.58.809.66zm-.429 38.908-.007.154c-.022.528-.047 1.12-.706 1.158l-.294.017c-.735.045-1.172.072-1.461-.148-.16-.12-.132-.424-.108-.68.011-.119.021-.228.012-.304-.05-.388 0-.632.055-.906.04-.194.083-.403.096-.689.154.09.308.18.462.273-.287 1.564.41 1.385 1.109 1.207.31-.08.622-.16.846-.085l-.004.003zm1.455-.463c.166-.006.398.094.63.194.233.1.465.2.631.196.394.062.878-.36 1.114-.819l.083.004c.082.003.14.005.2.003.15-.006.301-.042.841-.172l.042-.01c0 .012.062.007.126.001a.406.406 0 0 1 .127-.001c.696.376.713 1.36.004 1.701-.119.058-.24.115-.362.173-.238.114-.483.231-.739.359-.548.21-1.487.217-1.73.21-.94.042-1.286-1.087-.97-1.836l.003-.004z" fill="#555250"/><path fill-rule="evenodd" clip-rule="evenodd" d="m6.694 41.404.004.002h-.004v-.002zm-1.248-1.69c.908.17 1.279.793 1.248 1.69-.518-.233-1.037-.464-1.556-.696l-1.56-.697c.267-.418.548-.818 1.06-.956.05.497.39.58.808.66zm4.247 28.913c-1.738.564-1.838 2.115-1.928 3.51l-.006.094c-.097 1.487-.069 2.98-.04 4.476.011.614.023 1.229.026 1.843l-.998.031c-.277-.362-.466-.735-.37-1.228.182-.951.128-1.69.062-2.585-.049-.656-.103-1.394-.076-2.361.02-.64.162-1.175.31-1.732a34.3 34.3 0 0 0 .091-.353c.565-.102.754-.527.945-.953.13-.294.262-.588.516-.78.15-.111.28-.247.412-.383.296-.305.59-.609 1.076-.635l-.02 1.056zM4.84 79.675c.18-.249.229-.365.293-.52.053-.126.116-.278.273-.55.051-.093.243-.95.219-1.046l-.01-.034c-.023-.087-.064-.242-.124-.29-.197-.155-.33-.17-.607-.2h-.006c-.042-.004-.086-.007-.12.01a.134.134 0 0 0-.051.052l-.004.006a2.361 2.361 0 0 0-.269.695L3.073 77.5v.003c-.287 1.565.41 1.386 1.108 1.207l.172-.043c0 .136.003.271.008.406.007.204.024.425.188.587.065.066.2.052.292.014zm3.324-20.7c.255-.953.51-1.906 1.972-1.367-.576.66-.391 1.36-.107 2.064L8.076 59.3l.09-.325zM6.78 41.954c-.472-.145-.945-.289-1.46-.181l-.003-.004c.281 2.668.974 3.124 1.488 2.734.402-.304.46-.566.515-1.184v-1.215a7.465 7.465 0 0 1-.54-.15zm-2.662 26.72c-.763-.533-1.598-1.116-2.487-1.084 0-.234.003-.472.007-.707.735-.127 1.334.191 1.932.51.44.234.88.468 1.373.525.004.111.01.225.016.345.013.285.029.6.029.977a10.318 10.318 0 0 1-.87-.567z" fill="#484543"/><path d="M1.28 57.591c.219.035.483.062.486.342.007.283-.25.321-.473.352-.003-.231-.01-.466-.013-.697v.003z" fill="#1E1E1E"/><path fill-rule="evenodd" clip-rule="evenodd" d="M2.505 44.924c.13-.176.114-.425.099-.663a2.98 2.98 0 0 1-.01-.255l.052-2.247.124-.04c.85-.275 1.703-.552 2.55.05.403.286.458.794.512 1.288.07.636.137 1.248.937 1.336.034 1.264.984 1.314 1.683 1.35.274.015.51.027.637.11v.028c-.01.818-.014 1.143-1.244 1.263l-.355.034c-1.216.118-2.412.233-3.618.192 1.207.042 2.405-.074 3.623-.192l.355-.034c1.23-.12 1.234-.445 1.244-1.263v-.028c1.268.335 1.865 1.315 2.307 2.444l.003-.007c.121.517.288 1.03.454 1.543.499 1.533.997 3.068.283 4.728-.091.213-.171.434-.252.656-.29.8-.582 1.609-1.427 2.06-.343-.583-.69-1.17-1.035-1.753l.008-.699.009-.699c.657-.467.567-1.118.477-1.768-.051-.369-.102-.737-.018-1.072-.961.452-.848 1.167-.734 1.881.061.386.123.773.014 1.118.096-.048.182-.1.257-.155l-.008.698-.009.7c-.833.001-1.625.214-2.422.428-.66.178-1.323.356-2.016.417-.462.041-.907-.082-1.345-.203-.67-.184-1.324-.364-2.003.044a3.262 3.262 0 0 1-.107-.34c-.088-.325-.165-.607-.678-1.02 2.87-.885 3.486-3.43 1.346-5.5 2.136 2.069 1.519 4.613-1.35 5.497-.168-.22-.224-.663-.284-1.132a6.968 6.968 0 0 0-.155-.904c-.418-1.554-.442-2.41-.387-4.025.065-1.98.723-2.74 2.218-3.634l.265-.232zm-.702 4.069c-.363-.334-.665-.688-.495-1.263.144-.496.517-.479.887-.461.139.006.277.013.403-.008h-.004v-.003c-.126.02-.264.014-.402.007-.37-.017-.744-.035-.888.462-.17.577.134.93.5 1.266zm4.958 21.33c-.072-1.048-.155-1.411-.262-1.877-.046-.2-.097-.418-.152-.718l-.017-.097c-.057-.333-.126-.738-.696-.704-.514.031-.675.5-.696.988-.493-.057-.933-.292-1.372-.526-.599-.318-1.197-.637-1.932-.51-.335-2.51-.545-5.025-.322-7.562l3.38-.012 3.379-.012 1.953.373c.188 1.48.034 2.949-.12 4.416-.12 1.16-.242 2.319-.195 3.484-.488.026-.784.332-1.08.638-.13.135-.26.27-.408.38-.254.191-.385.486-.516.78-.19.426-.38.85-.944.953v.007zm-4.444 5.18c.054-2.638-.313-5.238-.68-7.841l-.01-.07c.888-.033 1.724.55 2.487 1.083.302.21.592.413.87.566.32 2.144.172 3.804-.004 5.77l-.043.489h.003l.024 1.206.024 1.206-.29-.062c-.541-.117-1.085-.235-1.627-.355v.003l-.463-.272-.144-.864-.143-.86h-.004zM9.69 68.63v-.003.003zm0 0c-.044.525-.074 1.05-.104 1.577-.082 1.412-.163 2.824-.503 4.211-.139.565-.118 1.144-.096 1.722.026.705.051 1.41-.212 2.092-.23.447-.614.387-1 .326l-.032-.005c-.002-.637-.014-1.274-.026-1.91-.028-1.473-.056-2.945.04-4.41l.006-.093c.09-1.395.19-2.946 1.927-3.51z" fill="url(#f)"/><defs><filter id="b" x="-222.523" y="-21.55" width="392.314" height="228.48" filterUnits="userSpaceOnUse" color-interpolation-filters="sRGB"><feFlood flood-opacity="0" result="BackgroundImageFix"/><feBlend in="SourceGraphic" in2="BackgroundImageFix" result="shape"/><feGaussianBlur stdDeviation="4" result="effect1_foregroundBlur_1625_16218"/></filter><filter id="c" x="-170.047" y="25.356" width="297.488" height="494.479" filterUnits="userSpaceOnUse" color-interpolation-filters="sRGB"><feFlood flood-opacity="0" result="BackgroundImageFix"/><feBlend in="SourceGraphic" in2="BackgroundImageFix" result="shape"/><feGaussianBlur stdDeviation="4" result="effect1_foregroundBlur_1625_16218"/></filter><filter id="d" x="-80.293" y="57.633" width="146.208" height="83.028" filterUnits="userSpaceOnUse" color-interpolation-filters="sRGB"><feFlood flood-opacity="0" result="BackgroundImageFix"/><feBlend in="SourceGraphic" in2="BackgroundImageFix" result="shape"/><feGaussianBlur stdDeviation="4" result="effect1_foregroundBlur_1625_16218"/></filter><filter id="e" x="-48.282" y="-64.493" width="306.435" height="116.868" filterUnits="userSpaceOnUse" color-interpolation-filters="sRGB"><feFlood flood-opacity="0" result="BackgroundImageFix"/><feBlend in="SourceGraphic" in2="BackgroundImageFix" result="shape"/><feGaussianBlur stdDeviation="4" result="effect1_foregroundBlur_1625_16218"/></filter><linearGradient id="f" x1="9.611" y1="46.122" x2="3.241" y2="77.377" gradientUnits="userSpaceOnUse"><stop stop-color="#32302F"/><stop offset=".062" stop-color="#454342"/><stop offset="1" stop-color="#32302F"/></linearGradient></defs></svg>
