<svg width="145" height="105" viewBox="0 0 145 105" fill="none" xmlns="http://www.w3.org/2000/svg">
<path d="M67.0591 54.4487C68.6305 53.6859 68.6305 51.3137 67.0591 50.551C58.5223 46.4073 42.0039 36.174 42.0039 18.1249C42.0039 16.3088 57.2529 14.3184 72.5019 14.2582C87.7509 14.1981 103 16.0683 103 18.1249C103 36.174 86.4816 46.4073 77.9448 50.551C76.3734 51.3137 76.3734 53.6859 77.9448 54.4487C86.4816 58.5923 103 68.8257 103 86.8748C103 88.6908 87.7509 90.6813 72.5019 90.7414C57.2529 90.8015 42.0039 88.9313 42.0039 86.8748C42.0039 68.8257 58.5223 58.5923 67.0591 54.4487Z" fill="url(#paint0_linear_23488_28680)"/>
<mask id="mask0_23488_28680" style="mask-type:alpha" maskUnits="userSpaceOnUse" x="44" y="37" width="57" height="52">
<path d="M89.9329 39.9104C89.9329 38.3063 82.1304 37.0059 72.5055 37.0059C62.8806 37.0059 55.078 38.3063 55.078 39.9104C55.078 41.8468 64.3677 47.0864 67.9094 48.8055C69.3589 49.5091 72.0214 51.0446 72.0214 56.3697C72.0214 58.3002 71.7033 60.1035 71.4361 61.618C70.9663 64.2811 70.6539 66.0516 72.5055 66.0516C74.357 66.0516 74.0447 64.2811 73.5749 61.618C73.3077 60.1035 72.9896 58.3002 72.9896 56.3697C72.9896 51.0446 76.2668 49.2119 77.104 48.8055C80.6457 47.0864 89.9807 41.8468 89.9807 39.9104H89.9329Z" fill="#D9D9D9"/>
<path d="M50.371 69.4401C46.8743 73.0709 44.8738 77.9637 44.1642 83.4365C43.958 85.0266 44.9307 86.5234 46.4939 86.88C47.9481 87.2117 49.458 87.3945 50.915 87.5709L50.9178 87.5713C51.2075 87.6063 51.4951 87.6412 51.7797 87.6769C57.4038 88.3821 64.9443 88.8312 72.4985 88.8014C80.0518 88.7716 87.5963 88.2632 93.2276 87.5422C93.4881 87.5088 93.7504 87.476 94.014 87.4431C95.4639 87.2618 96.9535 87.0756 98.4008 86.7635C100.017 86.4149 101.047 84.8826 100.822 83.2443C100.083 77.855 97.7342 73.2797 94.6412 69.4401C91.0072 66.0136 89.4448 65.6078 86.3917 67.0076C76.8623 71.3767 77.2371 66.6837 72.4985 67.0076C69.7225 67.1973 67.6263 70.9303 64.5179 70.8928C61.3142 70.854 58.8991 69.9127 56.9095 69.1373C54.2618 68.1053 52.3675 67.367 50.371 69.4401Z" fill="#D9D9D9"/>
</mask>
<g mask="url(#mask0_23488_28680)">
<g filter="url(#filter0_f_23488_28680)">
<path d="M32.6782 47.1894C31.2878 48.1802 30.798 49.9432 31.3838 51.8553C34.1332 60.83 36.9073 69.805 39.6315 78.7794C42.5388 88.2954 45.3138 89.893 52.6524 89.7411C69.5224 89.3435 86.6954 89.8639 103.787 90.1186C106.739 90.1543 108.273 87.3815 107.21 83.9277C100.68 62.7026 94.1438 41.4594 87.6385 20.2297C86.3027 15.8701 80.4579 13.1444 77.2878 15.4033L32.6782 47.1894Z" fill="#FFB9F8"/>
</g>
<g filter="url(#filter1_f_23488_28680)">
<path d="M51.5841 63.7952C51.4532 63.9627 51.3221 64.0991 51.1883 64.2174C50.1161 65.1645 47.886 65.7468 48.6153 67.0202C48.8557 67.4399 49.2549 67.8462 49.7192 68.0868C51.5426 69.0319 51.8438 67.8342 53.0535 67.3338C55.1747 66.4563 56.4444 65.6308 58.9557 65.2053C60.801 64.8927 65.3553 66.3137 67.2769 67.0867C70.1395 68.2381 72.124 64.6316 73.6929 63.377C75.9538 61.5691 77.007 59.3153 80.2084 58.5012C83.3806 57.6946 86.9454 58.1455 90.3366 58.1852C94.0882 58.2292 96.8755 58.2132 99.6892 55.9632C102.077 54.0536 100.125 51.0662 99.3156 48.8224C98.5189 46.6126 94.4933 45.0856 92.3933 44.1181C89.6763 42.8662 87.6881 43.0489 84.9324 43.1045C81.865 43.1664 79.5482 45.8683 76.5931 45.928C74.2457 45.9753 69.7709 44.8456 68.167 46.6242C65.0024 50.1338 63.5094 53.9018 57.8422 54.8621C55.6811 55.2282 54.389 58.7854 53.6563 60.5081C53.0812 61.8603 52.4499 62.6871 51.5841 63.7952Z" fill="#71BBFF"/>
</g>
<g filter="url(#filter2_f_23488_28680)">
<path d="M65.9455 80.4509C66.1263 80.3391 66.2965 80.2565 66.463 80.192C67.7968 79.6748 70.0906 79.9009 69.8474 78.4537C69.7673 77.9767 69.5334 77.4573 69.1812 77.0708C67.7979 75.5527 67.1007 76.5719 65.7925 76.6224C63.4987 76.711 62.0217 77.0456 59.5184 76.5751C57.679 76.2293 53.8987 73.319 52.3637 71.9283C50.0771 69.8567 46.9664 72.5527 45.06 73.1864C42.313 74.0994 40.5444 75.849 37.2592 75.504C34.0039 75.1621 30.8158 73.5045 27.6483 72.2927C24.1441 70.9522 21.5237 70.0019 18.105 71.1382C15.2034 72.1026 16.0005 75.5814 15.9824 77.9665C15.9645 80.3155 19.2121 83.1421 20.8471 84.7771C22.9624 86.8924 24.8908 87.4097 27.4952 88.3118C30.3942 89.3161 33.5034 87.5837 36.2963 88.5512C38.5148 89.3197 42.3215 91.9293 44.442 90.8162C48.6263 88.6198 51.3319 85.602 56.9808 86.6639C59.135 87.0688 61.5791 84.1793 62.8631 82.8169C63.8709 81.7476 64.7495 81.1906 65.9455 80.4509Z" fill="#71BBFF"/>
</g>
<g filter="url(#filter3_f_23488_28680)">
<path d="M107.651 81.8118C107.938 81.3595 107.953 80.7263 108.25 80.2501C108.548 79.7739 109.387 78.5492 109.338 78.1765C109.268 77.6379 109.544 76.8229 108.898 76.3332C108.275 75.8599 107.32 75.9149 106.617 75.8724C104.037 75.7164 101.482 76.1854 98.9566 76.3332C97.6795 76.408 96.3591 76.1028 95.0543 76.1028C94.4184 76.1028 94.1003 76.393 93.4008 76.218C92.7291 76.05 92.0822 76.1028 91.4264 76.1028C89.8393 76.1028 88.3979 75.5301 86.7959 75.066C85.0274 74.5537 82.629 74.8041 80.9471 75.002C75.5722 75.6345 71.9453 79.2424 67.5578 81.6838C65.8558 82.6308 64.4407 83.9725 62.6119 84.7302C60.6856 85.5284 58.5729 85.5495 56.4004 85.5495C52.6956 85.5495 48.6019 85.4128 45.1495 86.3431C43.5496 86.7742 42.1419 87.4098 41.1499 88.7751C40.0808 90.2467 40.9081 93.7309 42.1931 95.4057C42.9066 96.3356 44.7208 97.1113 45.7191 97.5306C46.7779 97.9752 47.8485 98.289 48.9216 98.5802C52.9285 99.6673 57.0263 99.2313 60.568 98.1066C65.0142 96.6946 69.3641 98.1164 74.1169 98.4394C76.3971 98.5943 78.6062 98.3966 80.7982 98.2218C82.2512 98.1059 83.4212 96.717 84.5606 96.0201C87.7621 94.0619 89.7245 90.7271 93.4221 89.5688C95.1387 89.031 96.9458 88.5783 98.8288 88.5447C99.853 88.5265 101.39 88.5424 102.224 87.9687C103.774 86.9023 105.752 85.8318 106.514 83.9366C106.792 83.2455 107.267 82.4157 107.651 81.8118Z" fill="#FFE665"/>
</g>
<g filter="url(#filter4_f_23488_28680)">
<path d="M59.9649 95.8411C59.6276 95.6583 59.3247 95.5564 59.0236 95.4872C57.6314 95.1673 55.3701 95.6161 55.3255 94.1483C55.3063 93.5166 55.5538 92.7325 56.0158 92.163C57.5082 90.3237 58.3784 91.4512 59.888 91.4229C62.535 91.3732 64.2577 91.6609 67.1089 90.9537C69.204 90.434 73.3644 86.8332 75.0398 85.1305C77.5358 82.5941 81.2957 85.4927 83.5326 86.0963C86.7559 86.966 88.9078 88.8637 92.6677 88.2492C96.3933 87.6404 99.9545 85.5212 103.522 83.9166C107.468 82.1415 110.422 80.8741 114.434 81.9565C117.838 82.8752 117.15 86.9334 117.329 89.6784C117.505 92.3819 113.952 95.8512 112.178 97.8417C109.882 100.417 107.696 101.14 104.757 102.351C101.485 103.699 97.7905 101.91 94.6387 103.208C92.1351 104.24 87.9245 107.496 85.4093 106.355C80.4463 104.102 77.1316 100.806 70.6975 102.402C68.2439 103.011 65.2388 99.8455 63.6704 98.3616C62.4393 97.197 61.3908 96.6137 59.9649 95.8411Z" fill="#0A9F68"/>
</g>
<g filter="url(#filter5_f_23488_28680)">
<path d="M27.0016 67.6363C26.9001 68.0063 26.7641 68.2954 26.6056 68.5606C25.873 69.7869 23.984 71.1085 25.0126 72.1566C25.4552 72.6077 26.1925 72.9717 26.9233 73.0323C29.2839 73.2281 29.0723 71.8197 30.1375 70.7496C32.0053 68.8734 32.9899 67.4308 35.4737 65.8623C37.2989 64.7097 42.7773 64.1989 45.1659 64.1679C48.7241 64.1218 49.2341 59.4017 50.3466 57.3694C51.9497 54.4409 52.0693 51.5742 55.115 49.2856C58.1329 47.0178 62.1273 45.914 65.7542 44.4498C69.7667 42.83 72.7261 41.5747 74.7212 37.9301C76.4144 34.8368 73.0091 32.5246 71.1513 30.4959C69.3216 28.498 64.3588 28.6611 61.6939 28.5643C58.246 28.439 56.2111 29.5166 53.3029 30.8C50.0657 32.2285 48.8002 36.1335 45.6816 37.5098C43.2043 38.603 37.9397 39.3885 37.0229 41.9941C35.2139 47.1352 35.2988 51.8089 29.6937 55.3484C27.5563 56.6982 27.7613 61.0581 27.7468 63.2172C27.7355 64.9118 27.4308 66.0723 27.0016 67.6363Z" fill="#FFE665"/>
</g>
</g>
<ellipse cx="72.4978" cy="39.9143" rx="17.4274" ry="2.90457" fill="url(#paint1_linear_23488_28680)"/>
<path d="M61.8494 69.2019C61.2439 69.8073 57.9348 68.6892 56.9166 67.671C55.8984 66.6528 55.5638 65.3365 56.1693 64.7311C56.7748 64.1256 58.091 64.4602 59.1092 65.4784C60.1274 66.4966 60.8812 68.4757 61.8494 69.2019Z" fill="#FFB9F8"/>
<ellipse cx="72.5019" cy="18.6137" rx="30.498" ry="4.35686" fill="url(#paint2_linear_23488_28680)"/>
<ellipse cx="88.2867" cy="68.8172" rx="1.93638" ry="1.21024" transform="rotate(-19.8125 88.2867 68.8172)" fill="#E9E8E8"/>
<ellipse cx="51.6893" cy="70.8523" rx="1.93638" ry="0.774081" transform="rotate(-43.3636 51.6893 70.8523)" fill="#E9E8E8"/>
<defs>
<filter id="filter0_f_23488_28680" x="27.2679" y="10.7185" width="84.1518" height="83.2731" filterUnits="userSpaceOnUse" color-interpolation-filters="sRGB">
<feFlood flood-opacity="0" result="BackgroundImageFix"/>
<feBlend mode="normal" in="SourceGraphic" in2="BackgroundImageFix" result="shape"/>
<feGaussianBlur stdDeviation="1.93638" result="effect1_foregroundBlur_23488_28680"/>
</filter>
<filter id="filter1_f_23488_28680" x="44.5999" y="39.1892" width="60.1088" height="33.1232" filterUnits="userSpaceOnUse" color-interpolation-filters="sRGB">
<feFlood flood-opacity="0" result="BackgroundImageFix"/>
<feBlend mode="normal" in="SourceGraphic" in2="BackgroundImageFix" result="shape"/>
<feGaussianBlur stdDeviation="1.93638" result="effect1_foregroundBlur_23488_28680"/>
</filter>
<filter id="filter2_f_23488_28680" x="12.0218" y="66.7598" width="61.7182" height="28.2013" filterUnits="userSpaceOnUse" color-interpolation-filters="sRGB">
<feFlood flood-opacity="0" result="BackgroundImageFix"/>
<feBlend mode="normal" in="SourceGraphic" in2="BackgroundImageFix" result="shape"/>
<feGaussianBlur stdDeviation="1.93638" result="effect1_foregroundBlur_23488_28680"/>
</filter>
<filter id="filter3_f_23488_28680" x="34.851" y="68.954" width="80.298" height="36.0621" filterUnits="userSpaceOnUse" color-interpolation-filters="sRGB">
<feFlood flood-opacity="0" result="BackgroundImageFix"/>
<feBlend mode="normal" in="SourceGraphic" in2="BackgroundImageFix" result="shape"/>
<feGaussianBlur stdDeviation="2.90457" result="effect1_foregroundBlur_23488_28680"/>
</filter>
<filter id="filter4_f_23488_28680" x="51.4515" y="77.6836" width="69.7572" height="32.7831" filterUnits="userSpaceOnUse" color-interpolation-filters="sRGB">
<feFlood flood-opacity="0" result="BackgroundImageFix"/>
<feBlend mode="normal" in="SourceGraphic" in2="BackgroundImageFix" result="shape"/>
<feGaussianBlur stdDeviation="1.93638" result="effect1_foregroundBlur_23488_28680"/>
</filter>
<filter id="filter5_f_23488_28680" x="20.8382" y="24.6817" width="58.2143" height="52.2419" filterUnits="userSpaceOnUse" color-interpolation-filters="sRGB">
<feFlood flood-opacity="0" result="BackgroundImageFix"/>
<feBlend mode="normal" in="SourceGraphic" in2="BackgroundImageFix" result="shape"/>
<feGaussianBlur stdDeviation="1.93638" result="effect1_foregroundBlur_23488_28680"/>
</filter>
<linearGradient id="paint0_linear_23488_28680" x1="72.5019" y1="14.2568" x2="72.5019" y2="90.7439" gradientUnits="userSpaceOnUse">
<stop stop-color="#F5F5F5"/>
<stop offset="0.499432" stop-color="#E9E8E8"/>
<stop offset="1" stop-color="#F5F5F5"/>
</linearGradient>
<linearGradient id="paint1_linear_23488_28680" x1="72.4978" y1="37.0098" x2="72.4978" y2="47.4178" gradientUnits="userSpaceOnUse">
<stop stop-color="white" stop-opacity="0"/>
<stop offset="1" stop-color="white"/>
</linearGradient>
<linearGradient id="paint2_linear_23488_28680" x1="72.5019" y1="17" x2="72.5019" y2="23" gradientUnits="userSpaceOnUse">
<stop stop-color="white" stop-opacity="0"/>
<stop offset="1" stop-color="white"/>
</linearGradient>
</defs>
</svg>
