<svg width="288" height="110" viewBox="0 0 288 110" fill="none" xmlns="http://www.w3.org/2000/svg">
<mask id="mask0_1625_16599" style="mask-type:alpha" maskUnits="userSpaceOnUse" x="0" y="0" width="288" height="110">
<rect width="288" height="110" fill="#D9D9D9"/>
</mask>
<g mask="url(#mask0_1625_16599)">
<mask id="mask1_1625_16599" style="mask-type:alpha" maskUnits="userSpaceOnUse" x="0" y="0" width="163" height="110">
<path d="M27.2508 97.5C12.7632 99.5506 2.35501 108 0 110V0C43.3994 13 35.2349 51.1017 67.6223 62C94.3684 71 108.498 60.5 130.198 60.5C147.558 60.5 159.299 67.5 163 71C123.638 68.5 101.433 104.5 73.678 107C54.5803 108.72 37.8483 96 27.2508 97.5Z" fill="#32302F"/>
</mask>
<g mask="url(#mask1_1625_16599)">
<g filter="url(#filter0_f_1625_16599)">
<path d="M-89.6387 -141.745C-94.949 -116.652 -100.043 -91.4046 -105.462 -66.3882C-110.52 -42.5108 -99.36 -30.0166 -60.4971 -2.99644C28.9452 59.0514 118.018 123.486 207.229 187.253C222.659 198.258 236.634 200.133 238.43 191.439C251.21 129.607 264.002 67.7149 276.998 6.03744L-89.6387 -141.745Z" fill="#FFE665"/>
</g>
<g filter="url(#filter1_f_1625_16599)">
<path d="M-15.5464 22.3144C-16.9183 37.162 -186.26 -30.9001 -187.722 -16.1007C-189.032 -1.97274 -161.195 40.8406 -128.99 57.8123C-54.8855 96.7896 19.1912 137.183 93.302 177.18C106.118 184.083 116.873 185.51 117.316 180.365C120.466 143.772 152.228 189.852 155.557 153.356L81.2717 82.4095L-15.5464 22.3144Z" fill="#71BBFF"/>
</g>
<g filter="url(#filter2_f_1625_16599)">
<path d="M-103.434 -14.0021C-143.157 -11.0244 -182.872 -8.08067 -222.629 -5.11712C-192.112 2.23128 -158.034 7.67788 -123.858 11.9305C-93.1661 15.7393 -61.1878 19.0183 -36.537 26.9687C-15.7038 33.6811 -1.52141 43.1762 9.88156 53.8134C42.6908 62.212 68.0376 74.4396 85.1374 90.8052C97.9143 103.045 85.2412 107.611 86.0375 121.775C58.9228 115.496 69.979 139.966 96.4252 146.984C107.256 149.859 104.868 146.354 113.812 150.238C120.04 152.968 133.312 150.559 137.362 154.103C155.769 170.322 224.236 170.261 238.061 187.806C260.25 164.032 176.459 146.579 178.917 123.666C116.925 107.503 123.668 90.7738 89.5379 62.2829C86.7345 59.9335 84.0534 57.5416 81.4146 55.1299L-69.2022 -15.6035C-80.5508 -15.3807 -91.9728 -14.8516 -103.434 -14.0021Z" fill="#FFB9F8"/>
</g>
</g>
<g filter="url(#filter3_f_1625_16599)">
<ellipse cx="161.723" cy="106.732" rx="9.18133" ry="0.834667" fill="url(#paint0_linear_1625_16599)"/>
</g>
<g filter="url(#filter4_f_1625_16599)">
<ellipse cx="133.344" cy="106.732" rx="9.18133" ry="0.834667" fill="url(#paint1_linear_1625_16599)"/>
</g>
<path d="M162.459 73.5541C162.784 73.1201 162.801 73.0616 162.993 72.5525C163.143 72.1518 162.901 71.1085 163.193 70.7997C163.644 70.3239 164.512 70.4408 164.946 70.9332C165.38 71.4257 165.447 72.1685 165.271 72.8029C165.096 73.4372 164.72 73.9965 164.345 74.539C163.836 75.2902 163.327 76.033 162.809 76.7842C162.525 77.2016 162.233 77.6273 161.841 77.9528C161.449 78.2783 160.939 78.4953 160.439 78.4202C160.155 78.3785 159.896 78.2532 159.646 78.1114C158.444 77.4436 157.342 76.4003 157.058 75.0565C156.866 74.1467 157.542 71.0167 158.678 71.1753C159.671 71.3172 159.921 74.539 160.389 75.2318C160.931 74.6809 161.983 74.1801 162.459 73.5541Z" fill="#2A2A2D"/>
<path d="M158.692 87.7267C159.11 87.877 159.594 88.0856 159.686 88.5197C159.727 88.7033 159.686 88.8953 159.644 89.0705C158.993 92.042 159.761 93.6445 159.452 96.666C159.41 97.0416 158.909 98.2018 159.135 98.5023C159.293 98.7109 160.211 98.9029 160.47 98.8946C162.073 98.8528 162.306 99.4788 163.851 99.5623C164.076 99.5707 164.335 99.5623 164.493 99.3954C164.677 99.1867 164.593 98.8445 164.393 98.6442C164.193 98.4439 163.926 98.3437 163.684 98.2101C162.64 97.6259 162.014 97.3254 161.998 96.1235C161.981 94.9216 162.357 93.7614 162.64 92.5928C163.049 90.9152 163.291 89.2041 163.35 87.4763C163.367 86.8837 163.358 86.2661 163.066 85.7569C162.807 85.3062 162.357 85.0057 161.914 84.7219C159.777 83.328 157.624 81.9759 155.446 80.6571C154.845 80.2899 154.219 79.9226 153.526 79.7891C152.833 79.6555 152.04 79.8141 151.589 80.3566C151.139 80.8992 151.122 81.7088 151.372 82.3682C152.391 85.0558 156.18 86.7919 158.676 87.7184L158.692 87.7267Z" fill="#3C3C41"/>
<path d="M153.769 88.8367C154.153 89.0621 154.596 89.3542 154.604 89.7966C154.604 89.9802 154.537 90.1639 154.462 90.3308C153.285 93.1353 153.753 94.8547 152.918 97.776C152.809 98.1433 152.108 99.1866 152.284 99.5205C152.4 99.7542 153.268 100.105 153.527 100.146C155.105 100.397 155.23 101.048 156.732 101.407C156.958 101.457 157.208 101.499 157.392 101.357C157.609 101.19 157.584 100.831 157.425 100.597C157.266 100.363 157.016 100.222 156.807 100.046C155.881 99.2784 155.322 98.8778 155.522 97.6926C155.722 96.5073 156.298 95.4306 156.791 94.3372C157.492 92.7597 158.034 91.1154 158.402 89.4294C158.527 88.8534 158.627 88.2358 158.427 87.6849C158.251 87.1924 157.859 86.8168 157.484 86.4579C155.631 84.7051 153.753 82.9857 151.85 81.2997C151.324 80.8323 150.773 80.3565 150.113 80.1061C149.454 79.8557 148.644 79.8641 148.102 80.3148C147.559 80.7655 147.401 81.5584 147.526 82.2512C148.043 85.0807 151.466 87.4679 153.753 88.82L153.769 88.8367Z" fill="#2A2A2D"/>
<path d="M152.809 83.4699C152.976 83.3113 153.126 83.1276 153.26 82.944C154.119 81.8089 154.754 80.5402 155.538 79.355C157.091 77.0095 159.678 75.4237 159.453 72.2603C159.445 72.0934 159.436 71.9264 159.428 71.7678C159.395 70.8831 158.668 70.232 157.784 70.1486C157.784 70.1486 157.775 70.1486 157.767 70.1486C156.924 70.0651 155.547 70.0568 154.704 69.99C154.103 69.9483 152.358 70.3072 151.858 70.808C150.956 71.7094 150.831 73.095 150.597 74.347C150.272 76.0998 149.621 77.7941 148.694 79.3132C148.335 79.9058 147.91 80.5569 148.043 81.233C148.177 81.9424 148.869 82.3931 149.537 82.6686C150.397 83.0191 151.332 84.2544 152.342 83.787C152.517 83.7036 152.676 83.5867 152.817 83.4532L152.809 83.4699Z" fill="#2C2A26"/>
<path d="M154.92 65.583C154.962 65.3159 155.029 65.0321 155.196 64.8318C155.321 64.6899 155.496 64.598 155.672 64.5229C156.515 64.1473 157.575 63.9303 158.284 64.573C158.668 64.9152 158.868 65.4411 158.985 65.9586C159.152 66.7014 159.177 67.486 159.052 68.2372C159.01 68.4709 158.952 68.7213 158.777 68.8632C158.626 68.9884 158.426 69.0134 158.267 69.1219C157.858 69.3974 157.892 70.0317 157.9 70.5576C157.9 70.6911 157.9 70.8247 157.833 70.9415C157.758 71.0667 157.633 71.1251 157.5 71.1752C156.565 71.5174 154.612 71.2587 154.87 69.9149C154.987 69.2889 155.271 69.0886 155.179 68.3707C155.054 67.3942 154.77 66.6012 154.92 65.5913V65.583Z" fill="#3C3C41"/>
<path d="M156.924 65.224C156.957 65.5829 157.091 65.9251 157.083 66.284C157.074 66.7431 156.832 67.1521 156.657 67.5777C156.398 68.1954 156.281 68.8715 156.306 69.5476C156.315 69.848 156.356 70.1569 156.29 70.449C156.223 70.7411 156.006 71.0333 155.705 71.075C155.321 71.1334 154.988 70.7662 154.904 70.3906C154.821 70.015 154.904 69.6227 154.921 69.2387C154.954 68.5209 154.754 67.8198 154.67 67.1103C154.587 66.4009 154.629 65.6246 155.063 65.057C155.347 64.6814 155.981 64.2474 156.473 64.2641C157.341 64.2892 156.874 64.5312 156.924 65.224Z" fill="#2C2A26"/>
<path d="M157.458 81.3832C156.198 80.6487 154.962 79.8224 154.061 78.6705C153.644 78.128 153.301 77.527 152.968 76.9261C152.6 76.275 152.241 75.6156 152.041 74.8895C151.924 74.4722 151.874 74.0381 151.732 73.6291C151.582 73.1951 151.332 72.7611 151.373 72.302C151.398 72.0349 151.524 71.7762 151.699 71.5675C152.25 70.9165 153.318 70.7829 154.011 71.2754C154.295 71.484 154.512 71.7678 154.72 72.0516C155.588 73.2201 155.705 75.7742 156.348 77.0847C156.707 77.8108 158.034 78.1781 158.819 79.0211C159.77 80.0477 161.773 81.2413 162.124 81.3331C162.558 81.45 163.034 81.3498 163.468 81.475C164.177 81.6837 164.703 82.5935 164.661 83.3196C164.603 84.2544 164.027 83.9206 163.326 83.7119C161.247 83.0776 159.344 82.4849 157.45 81.3832H157.458Z" fill="#3C3C41"/>
<path d="M170.687 106.523C166.303 106.523 162.75 102.969 162.75 98.5856C162.75 94.2018 166.303 90.648 170.687 90.648C175.071 90.648 178.625 94.2018 178.625 98.5856C178.625 102.969 175.071 106.523 170.687 106.523Z" stroke="#2A2A2D" stroke-width="2" stroke-miterlimit="10"/>
<path d="M141.282 106.523C136.898 106.523 133.344 102.969 133.344 98.5856C133.344 94.2018 136.898 90.648 141.282 90.648C145.665 90.648 149.219 94.2018 149.219 98.5856C149.219 102.969 145.665 106.523 141.282 106.523Z" stroke="#2A2A2D" stroke-width="2" stroke-miterlimit="10"/>
<path d="M149.063 86.5164C147.408 86.5164 146.066 86.1352 146.066 85.665C146.066 85.1948 147.408 84.8136 149.063 84.8136C150.718 84.8136 152.059 85.1948 152.059 85.665C152.059 86.1352 150.718 86.5164 149.063 86.5164Z" fill="#2A2A2D"/>
<path d="M171.087 99.2367L164.693 81.7421" stroke="#2A2A2D" stroke-miterlimit="10" stroke-linecap="round"/>
<path d="M166.229 86.5997H150.028" stroke="#2A2A2D" stroke-miterlimit="10" stroke-linecap="round"/>
<path d="M166.229 86.5997L154.159 97.3753" stroke="#2A2A2D" stroke-miterlimit="10" stroke-linecap="round"/>
<path d="M150.028 86.5997L154.811 96.2401" stroke="#2A2A2D" stroke-miterlimit="10" stroke-linecap="round"/>
<path d="M153.024 98.8277L140.796 98.5856" stroke="#2A2A2D" stroke-miterlimit="10" stroke-linecap="round"/>
<path d="M150.028 86.5997L140.796 98.5856" stroke="#2A2A2D" stroke-miterlimit="10" stroke-linecap="round"/>
<path d="M164.778 81.4165L164.452 83.7619" stroke="#2A2A2D" stroke-miterlimit="10" stroke-linecap="round"/>
</g>
<defs>
<filter id="filter0_f_1625_16599" x="-122.604" y="-157.745" width="415.602" height="370.652" filterUnits="userSpaceOnUse" color-interpolation-filters="sRGB">
<feFlood flood-opacity="0" result="BackgroundImageFix"/>
<feBlend mode="normal" in="SourceGraphic" in2="BackgroundImageFix" result="shape"/>
<feGaussianBlur stdDeviation="8" result="effect1_foregroundBlur_1625_16599"/>
</filter>
<filter id="filter1_f_1625_16599" x="-203.766" y="-34.2206" width="375.323" height="233.676" filterUnits="userSpaceOnUse" color-interpolation-filters="sRGB">
<feFlood flood-opacity="0" result="BackgroundImageFix"/>
<feBlend mode="normal" in="SourceGraphic" in2="BackgroundImageFix" result="shape"/>
<feGaussianBlur stdDeviation="8" result="effect1_foregroundBlur_1625_16599"/>
</filter>
<filter id="filter2_f_1625_16599" x="-238.629" y="-31.6035" width="496.435" height="235.409" filterUnits="userSpaceOnUse" color-interpolation-filters="sRGB">
<feFlood flood-opacity="0" result="BackgroundImageFix"/>
<feBlend mode="normal" in="SourceGraphic" in2="BackgroundImageFix" result="shape"/>
<feGaussianBlur stdDeviation="8" result="effect1_foregroundBlur_1625_16599"/>
</filter>
<filter id="filter3_f_1625_16599" x="150.542" y="103.897" width="22.3628" height="5.66933" filterUnits="userSpaceOnUse" color-interpolation-filters="sRGB">
<feFlood flood-opacity="0" result="BackgroundImageFix"/>
<feBlend mode="normal" in="SourceGraphic" in2="BackgroundImageFix" result="shape"/>
<feGaussianBlur stdDeviation="1" result="effect1_foregroundBlur_1625_16599"/>
</filter>
<filter id="filter4_f_1625_16599" x="122.163" y="103.897" width="22.3628" height="5.66933" filterUnits="userSpaceOnUse" color-interpolation-filters="sRGB">
<feFlood flood-opacity="0" result="BackgroundImageFix"/>
<feBlend mode="normal" in="SourceGraphic" in2="BackgroundImageFix" result="shape"/>
<feGaussianBlur stdDeviation="1" result="effect1_foregroundBlur_1625_16599"/>
</filter>
<linearGradient id="paint0_linear_1625_16599" x1="170.904" y1="107.567" x2="168.178" y2="115.085" gradientUnits="userSpaceOnUse">
<stop stop-color="#32302F" stop-opacity="0.7"/>
<stop offset="1" stop-color="#C9D1DB" stop-opacity="0"/>
</linearGradient>
<linearGradient id="paint1_linear_1625_16599" x1="142.525" y1="107.567" x2="139.799" y2="115.085" gradientUnits="userSpaceOnUse">
<stop stop-color="#32302F" stop-opacity="0.7"/>
<stop offset="1" stop-color="#C9D1DB" stop-opacity="0"/>
</linearGradient>
</defs>
</svg>
