<svg width="144" height="136" viewBox="0 0 144 136" fill="none" xmlns="http://www.w3.org/2000/svg">
<mask id="mask0_3948_2085" style="mask-type:alpha" maskUnits="userSpaceOnUse" x="14" y="28" width="120" height="80">
<rect x="14.5039" y="28.3335" width="119" height="79.3333" rx="6.34667" fill="#FF6400"/>
</mask>
<g mask="url(#mask0_3948_2085)">
<g filter="url(#filter0_f_3948_2085)">
<path d="M-67.5815 24.0118C-67.3962 38.923 -67.0488 53.8691 -66.9445 68.7628C-66.7721 82.9527 -57.7326 87.2371 -28.6383 93.1525C38.3016 106.691 105.347 121.617 172.385 136.147C183.977 138.647 193.305 136.492 193.213 131.335C192.559 94.6628 191.904 57.9542 191.412 21.3166L-67.5815 24.0118Z" fill="#FFB9F8"/>
</g>
<g filter="url(#filter1_f_3948_2085)">
<path d="M-111.587 184.254C-113.961 206.15 -116.358 228.038 -118.745 249.95C-110.428 234.03 -102.999 215.994 -96.3648 197.793C-90.4135 181.446 -84.6773 164.35 -76.6014 151.678C-69.7807 140.968 -61.8183 134.138 -53.3928 128.926C-44.1151 111.857 -34.6585 116.476 -21.7446 108.699C-12.0875 102.89 -2.48516 114.935 7.14748 115.826C-0.0736747 129.995 62.7375 120.34 70.383 106.603C73.5143 100.978 53.6967 87.213 57.2998 82.7086C59.8267 79.5747 25.4123 70.7981 28.2471 68.9249C41.206 60.4239 48.7159 23.1587 62.0629 17.2747C48.4897 2.97794 29.9489 35.9703 14.7799 32.4909C-2.94854 64.7164 -15.9383 70.4582 -38.9011 86.3691C-40.7934 87.6752 -42.7009 88.9106 -44.6171 90.1213L-108.891 165.476C-109.993 171.672 -110.896 177.938 -111.587 184.254Z" fill="#71BBFF"/>
</g>
<g filter="url(#filter2_f_3948_2085)">
<path d="M-73.2232 115.144C-74.4455 116.281 -74.5168 117.377 -75.7835 118.568C-77.0502 119.758 -80.6158 122.914 -80.4152 123.486C-80.1254 124.312 -81.3055 126.051 -78.5884 126.06C-75.9623 126.069 -71.9268 124.756 -68.9577 123.93C-58.0597 120.899 -47.2592 116.838 -36.5873 113.36C-31.1905 111.601 -25.6173 110.433 -20.105 108.767C-17.4188 107.954 -16.0697 107.054 -13.1177 106.458C-10.2828 105.886 -7.54912 104.97 -4.77832 104.132C1.92671 102.105 8.00602 101.238 14.766 99.9809C22.2285 98.5934 32.3653 95.1035 39.4743 92.6181C62.1923 84.6756 77.5767 73.9032 96.1544 64.1441C103.361 60.3584 109.362 56.2677 117.101 52.6421C125.253 48.8232 134.179 46.0884 143.357 43.3131C159.008 38.5803 176.301 33.5831 190.902 27.5898C197.668 24.8125 203.626 21.9326 207.84 18.3423C212.382 14.4724 208.947 9.6008 203.547 8.39273C200.548 7.72195 192.897 8.71968 188.687 9.28161C184.222 9.87758 179.704 10.7113 175.175 11.5868C158.266 14.8557 140.947 20.8325 125.965 27.2707C107.157 35.3532 88.8046 38.4908 68.731 44.0129C59.1008 46.6621 49.7645 49.8206 40.5008 52.9185C34.3606 54.9718 29.3939 58.8297 24.5684 61.471C11.0095 68.8929 2.66207 77.0741 -12.9789 83.7687C-20.2405 86.8767 -27.8824 89.9555 -35.8383 92.4181C-40.1656 93.7576 -46.66 95.6945 -50.1919 97.7356C-56.7572 101.53 -65.1324 105.878 -68.3843 110.077C-69.5701 111.608 -71.591 113.626 -73.2232 115.144Z" fill="#FFE665"/>
</g>
<g filter="url(#filter3_f_3948_2085)">
<path d="M119.088 49.7332C119.346 49.2746 119.258 48.769 119.524 48.2878C119.79 47.8067 120.557 46.5435 120.439 46.2661C120.269 45.8651 120.454 45.1238 119.629 44.9634C118.831 44.8083 117.738 45.1874 116.92 45.4008C113.916 46.1842 111.044 47.4527 108.154 48.4571C106.692 48.965 105.118 49.1877 103.612 49.6463C102.878 49.8697 102.558 50.2109 101.722 50.3184C100.919 50.4216 100.181 50.6907 99.4243 50.9212C97.5925 51.4789 95.8348 51.5326 93.9096 51.7286C91.7842 51.9451 89.057 52.9859 87.1482 53.7334C81.0483 56.1222 77.4544 60.2492 72.7912 63.7212C70.9822 65.068 69.5692 66.6261 67.5828 67.8678C65.4904 69.1757 63.0554 69.9348 60.5479 70.6983C56.2718 72.0002 51.5242 73.3308 47.6921 75.2795C45.9163 76.1825 44.3959 77.1797 43.4752 78.6077C42.4828 80.1469 44.0098 82.6108 45.768 83.4833C46.7443 83.9677 48.9656 83.9435 50.1867 83.9241C51.4818 83.9036 52.769 83.7755 54.0555 83.6285C58.8588 83.08 63.517 81.2952 67.4202 79.1614C72.3202 76.4827 77.5744 76.0781 83.1132 74.6633C85.7704 73.9845 88.2878 73.0519 90.7892 72.1433C92.4472 71.5411 93.5696 70.0319 94.7702 69.0806C98.144 66.4073 99.8614 63.0812 103.939 60.866C105.832 59.8376 107.843 58.8447 110.011 58.1564C111.191 57.7821 112.968 57.2544 113.836 56.5079C115.449 55.1202 117.557 53.5788 118.125 51.8126C118.332 51.1686 118.744 50.3456 119.088 49.7332Z" fill="#0A9F68"/>
</g>
<g filter="url(#filter4_f_3948_2085)">
<path d="M237.973 40.2151C239.578 38.005 241.491 37.5341 243.963 35.176C249.306 34.5436 246.131 30.2177 241.932 29.1811C236.019 27.7212 235.58 30.7052 232.105 32.4227C226.012 35.4342 222.483 37.9521 215.025 40.0561C209.545 41.6022 195.149 40.1942 189.006 39.1869C179.855 37.6864 175.26 47.1402 170.994 50.8104C164.846 56.0992 162.542 61.926 153.143 65.2554C143.829 68.5544 132.823 69.028 122.508 70.4056C111.097 71.9296 102.638 73.1779 94.9869 79.7599C88.4929 85.3462 95.6095 91.6158 98.9577 96.6102C102.255 101.529 115.088 103.419 121.85 104.812C130.599 106.615 136.564 105.317 144.911 103.988C154.203 102.509 160.166 95.0655 169.117 93.6405C176.227 92.5085 190.266 93.2571 194.43 88.3233C202.648 78.5881 205.685 68.9628 222.515 64.2147C228.933 62.4041 231.445 53.3685 232.985 48.946C234.195 45.475 235.784 43.2309 237.973 40.2151Z" fill="#71BBFF"/>
</g>
<g filter="url(#filter5_f_3948_2085)">
<path d="M105.437 82.1273C106.103 81.9698 106.704 82.2607 107.401 82.1012C108.098 81.9416 109.953 81.4355 110.257 81.6823C110.698 82.0389 111.691 82.0739 111.596 83.1632C111.503 84.2159 110.637 85.4469 110.076 86.3937C108.019 89.8686 105.402 93.0042 103.109 96.2584C101.949 97.904 101.105 99.7925 99.9916 101.511C99.4488 102.349 98.9074 102.626 98.473 103.633C98.0558 104.6 97.4545 105.426 96.8946 106.29C95.5397 108.38 94.8418 110.559 93.9057 112.896C92.8723 115.476 90.5921 118.513 88.9723 120.631C83.796 127.402 77.3456 130.414 71.3304 135C68.9971 136.778 66.5417 137.986 64.2761 140.024C61.8897 142.171 60.0666 144.944 58.212 147.805C55.0494 152.685 51.6817 158.144 47.8697 162.237C46.1032 164.133 44.3105 165.676 42.1945 166.315C39.9136 167.004 37.3807 164.21 36.9207 161.698C36.6652 160.304 37.4928 157.535 37.9552 156.015C38.4457 154.403 39.0678 152.839 39.7133 151.283C42.1231 145.474 46.0266 140.289 50.0956 136.174C55.2038 131.009 57.5953 124.584 61.3523 118.165C63.1548 115.086 65.2244 112.273 67.2582 109.471C68.6063 107.614 70.8963 106.752 72.5168 105.592C77.0703 102.333 81.8458 101.379 86.0792 97.0753C88.0446 95.0771 90.0081 92.9184 91.6468 90.4544C92.538 89.1143 93.8356 87.0816 95.0806 86.264C97.3949 84.7443 100.079 82.6623 102.491 82.5855C103.371 82.5574 104.548 82.3376 105.437 82.1273Z" fill="#FFB9F8"/>
</g>
</g>
<rect x="102.365" y="56.6951" width="19.4367" height="19.4367" rx="2.57833" stroke="#FFFDFB" stroke-width="1.19"/>
<rect x="26.2083" y="92.3958" width="19.4367" height="5.15667" rx="1.785" stroke="#FFFDFB" stroke-width="1.19"/>
<rect x="51.595" y="92.3958" width="19.4367" height="5.15667" rx="1.785" stroke="#FFFDFB" stroke-width="1.19"/>
<rect x="76.9817" y="92.3958" width="19.4367" height="5.15667" rx="1.785" stroke="#FFFDFB" stroke-width="1.19"/>
<rect x="102.368" y="92.3958" width="19.4367" height="5.15667" rx="1.785" stroke="#FFFDFB" stroke-width="1.19"/>
<g filter="url(#filter6_d_3948_2085)">
<circle cx="20.0531" cy="33.8871" r="13.4867" fill="#FF6400"/>
</g>
<path d="M21.7372 25.9536L21.3682 37.1765H18.6469L18.2548 25.9536H21.7372ZM20.0767 42.6136C19.4925 42.6136 19.0082 42.4355 18.6238 42.0792C18.2548 41.7074 18.0703 41.2505 18.0703 40.7083C18.0703 40.1661 18.2548 39.7169 18.6238 39.3606C19.0082 38.9888 19.4925 38.803 20.0767 38.803C20.6456 38.803 21.1145 38.9888 21.4835 39.3606C21.8525 39.7169 22.037 40.1661 22.037 40.7083C22.037 41.2505 21.8525 41.7074 21.4835 42.0792C21.1145 42.4355 20.6456 42.6136 20.0767 42.6136Z" fill="white"/>
<defs>
<filter id="filter0_f_3948_2085" x="-80.2754" y="8.62307" width="286.184" height="141.259" filterUnits="userSpaceOnUse" color-interpolation-filters="sRGB">
<feFlood flood-opacity="0" result="BackgroundImageFix"/>
<feBlend mode="normal" in="SourceGraphic" in2="BackgroundImageFix" result="shape"/>
<feGaussianBlur stdDeviation="6.34667" result="effect1_foregroundBlur_3948_2085"/>
</filter>
<filter id="filter1_f_3948_2085" x="-131.439" y="0.969262" width="214.852" height="261.674" filterUnits="userSpaceOnUse" color-interpolation-filters="sRGB">
<feFlood flood-opacity="0" result="BackgroundImageFix"/>
<feBlend mode="normal" in="SourceGraphic" in2="BackgroundImageFix" result="shape"/>
<feGaussianBlur stdDeviation="6.34667" result="effect1_foregroundBlur_3948_2085"/>
</filter>
<filter id="filter2_f_3948_2085" x="-93.123" y="-4.52439" width="315.766" height="143.278" filterUnits="userSpaceOnUse" color-interpolation-filters="sRGB">
<feFlood flood-opacity="0" result="BackgroundImageFix"/>
<feBlend mode="normal" in="SourceGraphic" in2="BackgroundImageFix" result="shape"/>
<feGaussianBlur stdDeviation="6.34667" result="effect1_foregroundBlur_3948_2085"/>
</filter>
<filter id="filter3_f_3948_2085" x="30.4668" y="32.2339" width="102.68" height="64.3916" filterUnits="userSpaceOnUse" color-interpolation-filters="sRGB">
<feFlood flood-opacity="0" result="BackgroundImageFix"/>
<feBlend mode="normal" in="SourceGraphic" in2="BackgroundImageFix" result="shape"/>
<feGaussianBlur stdDeviation="6.34667" result="effect1_foregroundBlur_3948_2085"/>
</filter>
<filter id="filter4_f_3948_2085" x="79.6543" y="16.0977" width="179.816" height="102.293" filterUnits="userSpaceOnUse" color-interpolation-filters="sRGB">
<feFlood flood-opacity="0" result="BackgroundImageFix"/>
<feBlend mode="normal" in="SourceGraphic" in2="BackgroundImageFix" result="shape"/>
<feGaussianBlur stdDeviation="6.34667" result="effect1_foregroundBlur_3948_2085"/>
</filter>
<filter id="filter5_f_3948_2085" x="24.1778" y="68.9224" width="100.117" height="110.192" filterUnits="userSpaceOnUse" color-interpolation-filters="sRGB">
<feFlood flood-opacity="0" result="BackgroundImageFix"/>
<feBlend mode="normal" in="SourceGraphic" in2="BackgroundImageFix" result="shape"/>
<feGaussianBlur stdDeviation="6.34667" result="effect1_foregroundBlur_3948_2085"/>
</filter>
<filter id="filter6_d_3948_2085" x="0.219738" y="15.6404" width="39.666" height="39.6665" filterUnits="userSpaceOnUse" color-interpolation-filters="sRGB">
<feFlood flood-opacity="0" result="BackgroundImageFix"/>
<feColorMatrix in="SourceAlpha" type="matrix" values="0 0 0 0 0 0 0 0 0 0 0 0 0 0 0 0 0 0 127 0" result="hardAlpha"/>
<feOffset dy="1.58667"/>
<feGaussianBlur stdDeviation="3.17333"/>
<feComposite in2="hardAlpha" operator="out"/>
<feColorMatrix type="matrix" values="0 0 0 0 0 0 0 0 0 0 0 0 0 0 0 0 0 0 0.07 0"/>
<feBlend mode="normal" in2="BackgroundImageFix" result="effect1_dropShadow_3948_2085"/>
<feBlend mode="normal" in="SourceGraphic" in2="effect1_dropShadow_3948_2085" result="shape"/>
</filter>
</defs>
</svg>
