<svg width="600" height="104" fill="none" xmlns="http://www.w3.org/2000/svg"><rect width="120" height="104" rx="4" fill="#FAFAFA"/><rect x="160" width="120" height="104" rx="4" fill="#FAFAFA"/><rect x="320" width="120" height="104" rx="4" fill="#FAFAFA"/><rect x="480" width="120" height="104" rx="4" fill="#FAFAFA"/><path d="m36.763 66-.636-2.232h-2.664L32.827 66h-1.368l2.448-8.376h1.836L38.19 66h-1.428zm-1.92-7.02h-.096l-1.032 3.672h2.16l-1.032-3.672zm4.52.828h1.307v1.056h.072a2.21 2.21 0 0 1 .732-.876c.304-.216.684-.324 1.14-.324.728 0 1.308.272 1.74.816.432.544.648 1.352.648 2.424 0 1.072-.216 1.88-.648 2.424-.432.544-1.012.816-1.74.816-.456 0-.836-.104-1.14-.312a2.306 2.306 0 0 1-.732-.888h-.072V68.4h-1.308v-8.592zm2.711 5.268c.496 0 .876-.152 1.14-.456.272-.304.408-.708.408-1.212V62.4c0-.504-.136-.908-.408-1.212-.264-.304-.644-.456-1.14-.456-.192 0-.372.024-.54.072a1.35 1.35 0 0 0-.444.216 1.13 1.13 0 0 0-.312.36 1.04 1.04 0 0 0-.108.492v2.064c0 .192.036.36.108.504.08.136.184.252.312.348.128.096.276.168.444.216.168.048.348.072.54.072zm4.483-5.268h1.308v1.056h.072a2.21 2.21 0 0 1 .732-.876c.304-.216.684-.324 1.14-.324.728 0 1.308.272 1.74.816.432.544.648 1.352.648 2.424 0 1.072-.216 1.88-.648 2.424-.432.544-1.012.816-1.74.816-.456 0-.836-.104-1.14-.312a2.306 2.306 0 0 1-.732-.888h-.072V68.4h-1.308v-8.592zm2.712 5.268c.496 0 .876-.152 1.14-.456.272-.304.408-.708.408-1.212V62.4c0-.504-.136-.908-.408-1.212-.264-.304-.644-.456-1.14-.456-.192 0-.372.024-.54.072a1.35 1.35 0 0 0-.444.216 1.13 1.13 0 0 0-.312.36 1.04 1.04 0 0 0-.108.492v2.064c0 .192.036.36.108.504.08.136.184.252.312.348.128.096.276.168.444.216.168.048.348.072.54.072zm4.448-.132h1.644v-4.08h-1.644v-1.056h2.952v1.644h.072c.056-.216.136-.424.24-.624.104-.2.236-.372.396-.516.16-.152.356-.272.588-.36.232-.096.504-.144.816-.144h.744v1.248H58.3c-.48 0-.872.144-1.176.432-.304.28-.456.66-.456 1.14v2.316h2.244V66h-5.196v-1.056zm9.883 1.2a3.21 3.21 0 0 1-1.236-.228 2.611 2.611 0 0 1-.924-.648c-.248-.28-.44-.62-.576-1.02a4.159 4.159 0 0 1-.204-1.344c0-.496.068-.944.204-1.344.136-.4.328-.74.576-1.02.256-.28.564-.496.924-.648a3.21 3.21 0 0 1 1.236-.228c.456 0 .864.076 1.224.228.368.152.676.368.924.648.256.28.452.62.588 1.02.136.4.204.848.204 1.344 0 .496-.068.944-.204 1.344-.136.4-.332.74-.588 1.02-.248.28-.556.496-.924.648a3.12 3.12 0 0 1-1.224.228zm0-1.032c.48 0 .86-.144 1.14-.432.288-.296.432-.732.432-1.308v-.936c0-.576-.144-1.008-.432-1.296-.28-.296-.66-.444-1.14-.444-.48 0-.864.148-1.152.444-.28.288-.42.72-.42 1.296v.936c0 .576.14 1.012.42 1.308.288.288.672.432 1.152.432zm6.391.888-2.22-6.192h1.356l.852 2.616.804 2.484h.072l.804-2.484.852-2.616h1.308L71.6 66h-1.608zm8.132.144c-.472 0-.896-.076-1.272-.228a2.567 2.567 0 0 1-.948-.648 2.864 2.864 0 0 1-.588-1.008 4.159 4.159 0 0 1-.204-1.344c0-.496.068-.944.204-1.344.144-.4.34-.74.588-1.02.256-.288.564-.508.924-.66.36-.152.76-.228 1.2-.228.432 0 .824.076 1.176.228.352.144.652.352.9.624s.436.596.564.972c.136.376.204.792.204 1.248v.492h-4.44v.204c0 .488.152.888.456 1.2.304.304.724.456 1.26.456.4 0 .74-.084 1.02-.252.288-.176.52-.408.696-.696l.816.72c-.208.36-.528.664-.96.912-.424.248-.956.372-1.596.372zm-.096-5.484c-.232 0-.448.04-.648.12-.192.08-.36.196-.504.348a1.617 1.617 0 0 0-.324.516c-.08.2-.12.42-.12.66v.084h3.108v-.12c0-.488-.14-.876-.42-1.164-.272-.296-.636-.444-1.092-.444zm8.503 4.284h-.072a2.306 2.306 0 0 1-.732.888c-.304.208-.684.312-1.14.312-.728 0-1.308-.272-1.74-.816-.432-.544-.648-1.352-.648-2.424 0-1.072.216-1.88.648-2.424.432-.544 1.012-.816 1.74-.816.456 0 .836.108 1.14.324.304.208.548.5.732.876h.072V57.12h1.308V66H86.53v-1.056zm-1.404.132c.192 0 .372-.024.54-.072a1.35 1.35 0 0 0 .444-.216 1.04 1.04 0 0 0 .42-.852v-2.064a.954.954 0 0 0-.12-.492 1.006 1.006 0 0 0-.3-.36 1.35 1.35 0 0 0-.444-.216 1.958 1.958 0 0 0-.54-.072c-.496 0-.88.152-1.152.456-.264.304-.396.708-.396 1.212v1.008c0 .504.132.908.396 1.212.272.304.656.456 1.152.456zM32.166 75.12h1.309v3.744h.072a2.21 2.21 0 0 1 .732-.876c.304-.216.684-.324 1.14-.324.728 0 1.308.272 1.74.816.432.544.648 1.352.648 2.424 0 1.072-.216 1.88-.648 2.424-.432.544-1.012.816-1.74.816-.456 0-.836-.104-1.14-.312a2.306 2.306 0 0 1-.732-.888h-.072V84h-1.308v-8.88zm2.713 7.956c.496 0 .876-.152 1.14-.456.272-.304.408-.708.408-1.212V80.4c0-.504-.136-.908-.408-1.212-.264-.304-.644-.456-1.14-.456-.192 0-.372.024-.54.072a1.35 1.35 0 0 0-.444.216 1.13 1.13 0 0 0-.312.36 1.04 1.04 0 0 0-.108.492v2.064c0 .192.036.36.108.504.08.136.184.252.312.348.128.096.276.168.444.216.168.048.348.072.54.072zm8.42-.132h-.06a2.42 2.42 0 0 1-.253.468 1.633 1.633 0 0 1-.36.384 1.858 1.858 0 0 1-.504.252 2.127 2.127 0 0 1-.672.096c-.624 0-1.128-.204-1.512-.612-.384-.408-.576-.988-.576-1.74v-3.984h1.308V81.6c0 .984.428 1.476 1.284 1.476.168 0 .332-.02.492-.06.16-.048.304-.116.432-.204a.965.965 0 0 0 .3-.324.93.93 0 0 0 .12-.48v-4.2h1.308V84h-1.308v-1.056zm5.922 1.2c-.672 0-1.252-.108-1.74-.324a3.148 3.148 0 0 1-1.164-.864l.804-.72c.272.296.576.524.912.684.344.152.748.228 1.212.228.424 0 .764-.072 1.02-.216a.715.715 0 0 0 .396-.672.586.586 0 0 0-.276-.54 1.11 1.11 0 0 0-.312-.132 2.388 2.388 0 0 0-.36-.072l-.984-.156a4.991 4.991 0 0 1-.732-.156 2.565 2.565 0 0 1-.672-.3 1.744 1.744 0 0 1-.48-.516c-.12-.208-.18-.472-.18-.792 0-.632.24-1.112.72-1.44.488-.328 1.128-.492 1.92-.492.576 0 1.072.088 1.488.264.424.168.776.404 1.056.708l-.732.768c-.16-.184-.388-.352-.684-.504-.296-.16-.688-.24-1.176-.24-.872 0-1.308.276-1.308.828 0 .264.092.448.276.552.192.096.416.16.672.192l.984.156c.248.04.492.092.732.156.248.064.468.164.66.3.2.128.36.296.48.504.128.208.192.472.192.792 0 .624-.244 1.116-.732 1.476-.48.352-1.144.528-1.992.528zm7.568-7.464c-.336 0-.572-.068-.708-.204a.707.707 0 0 1-.192-.504v-.252c0-.2.064-.368.192-.504.136-.136.368-.204.696-.204.336 0 .568.068.696.204a.685.685 0 0 1 .204.504v.252c0 .2-.068.368-.204.504-.128.136-.356.204-.684.204zm-2.772 6.264h2.112v-4.08h-2.112v-1.056h3.42v5.136h1.98V84h-5.4v-1.056zM61.008 84v-6.192h1.308v1.056h.06c.064-.16.144-.312.24-.456.104-.152.228-.28.372-.384.144-.112.312-.2.504-.264s.416-.096.672-.096c.624 0 1.128.204 1.512.612.384.408.576.988.576 1.74V84h-1.308v-3.792c0-.984-.428-1.476-1.284-1.476-.168 0-.332.024-.492.072a1.32 1.32 0 0 0-.432.192c-.128.088-.232.2-.312.336a.985.985 0 0 0-.108.468V84h-1.308zm9.92.144c-.473 0-.897-.076-1.273-.228a2.567 2.567 0 0 1-.948-.648 2.864 2.864 0 0 1-.588-1.008 4.159 4.159 0 0 1-.204-1.344c0-.496.068-.944.204-1.344.144-.4.34-.74.588-1.02.256-.288.564-.508.924-.66.36-.152.76-.228 1.2-.228.432 0 .824.076 1.176.228.352.144.652.352.9.624s.436.596.564.972c.136.376.204.792.204 1.248v.492h-4.44v.204c0 .488.152.888.456 1.2.304.304.724.456 1.26.456.4 0 .74-.084 1.02-.252.288-.176.52-.408.696-.696l.816.72c-.208.36-.528.664-.96.912-.424.248-.956.372-1.596.372zm-.097-5.484c-.232 0-.448.04-.648.12-.192.08-.36.196-.504.348a1.617 1.617 0 0 0-.324.516c-.08.2-.12.42-.12.66v.084h3.108v-.12c0-.488-.14-.876-.42-1.164-.272-.296-.636-.444-1.092-.444zm7.172 5.484c-.672 0-1.252-.108-1.74-.324a3.148 3.148 0 0 1-1.164-.864l.804-.72c.272.296.576.524.912.684.344.152.748.228 1.212.228.424 0 .764-.072 1.02-.216a.715.715 0 0 0 .396-.672.586.586 0 0 0-.276-.54 1.11 1.11 0 0 0-.312-.132 2.388 2.388 0 0 0-.36-.072l-.984-.156a4.991 4.991 0 0 1-.732-.156 2.565 2.565 0 0 1-.672-.3 1.744 1.744 0 0 1-.48-.516c-.12-.208-.18-.472-.18-.792 0-.632.24-1.112.72-1.44.488-.328 1.128-.492 1.92-.492.576 0 1.072.088 1.488.264.424.168.776.404 1.056.708l-.732.768c-.16-.184-.388-.352-.684-.504-.296-.16-.688-.24-1.176-.24-.872 0-1.308.276-1.308.828 0 .264.092.448.276.552.192.096.416.16.672.192l.984.156c.248.04.492.092.732.156.248.064.468.164.66.3.2.128.36.296.48.504.128.208.192.472.192.792 0 .624-.244 1.116-.732 1.476-.48.352-1.144.528-1.992.528zm7.195 0c-.672 0-1.252-.108-1.74-.324a3.148 3.148 0 0 1-1.164-.864l.804-.72c.272.296.576.524.912.684.344.152.748.228 1.212.228.424 0 .764-.072 1.02-.216a.715.715 0 0 0 .396-.672.586.586 0 0 0-.276-.54 1.11 1.11 0 0 0-.312-.132 2.388 2.388 0 0 0-.36-.072l-.984-.156a4.991 4.991 0 0 1-.732-.156 2.565 2.565 0 0 1-.672-.3 1.744 1.744 0 0 1-.48-.516c-.12-.208-.18-.472-.18-.792 0-.632.24-1.112.72-1.44.488-.328 1.128-.492 1.92-.492.576 0 1.072.088 1.488.264.424.168.776.404 1.056.708l-.732.768c-.16-.184-.388-.352-.684-.504-.296-.16-.688-.24-1.176-.24-.872 0-1.308.276-1.308.828 0 .264.092.448.276.552.192.096.416.16.672.192l.984.156c.248.04.492.092.732.156.248.064.468.164.66.3.2.128.36.296.48.504.128.208.192.472.192.792 0 .624-.244 1.116-.732 1.476-.48.352-1.144.528-1.992.528zM57 43h3v-6.058l-4-3.488-4 3.488V43h3v-4h2v4zm12 2H51a1 1 0 0 1-1-1v-7.513a1 1 0 0 1 .343-.754L54 32.544V28a1 1 0 0 1 1-1h14a1 1 0 0 1 1 1v16a1 1 0 0 1-1 1zm-5-10v2h2v-2h-2zm0 4v2h2v-2h-2zm0-8v2h2v-2h-2zm-4 0v2h2v-2h-2zM185.019 57.624h2.892c.76 0 1.348.196 1.764.588.424.392.636.928.636 1.608 0 .488-.12.876-.36 1.164-.24.288-.564.492-.972.612v.06c.488.112.88.328 1.176.648.296.312.444.756.444 1.332 0 .344-.056.66-.168.948-.112.288-.272.54-.48.756a2.25 2.25 0 0 1-.756.492 2.629 2.629 0 0 1-.96.168h-3.216v-8.376zm2.808 7.344c.448 0 .792-.092 1.032-.276.24-.184.36-.48.36-.888v-.432c0-.408-.12-.704-.36-.888-.24-.184-.584-.276-1.032-.276h-1.488v2.76h1.488zm-.192-3.744c.424 0 .744-.08.96-.24.224-.168.336-.444.336-.828v-.432c0-.384-.112-.656-.336-.816-.216-.168-.536-.252-.96-.252h-1.296v2.568h1.296zm4.496 3.72h1.644v-4.08h-1.644v-1.056h2.952v1.644h.072c.056-.216.136-.424.24-.624.104-.2.236-.372.396-.516.16-.152.356-.272.588-.36.232-.096.504-.144.816-.144h.744v1.248h-1.224c-.48 0-.872.144-1.176.432-.304.28-.456.66-.456 1.14v2.316h2.244V66h-5.196v-1.056zm10.267-6.264c-.336 0-.572-.068-.708-.204a.707.707 0 0 1-.192-.504v-.252c0-.2.064-.368.192-.504.136-.136.368-.204.696-.204.336 0 .568.068.696.204a.685.685 0 0 1 .204.504v.252c0 .2-.068.368-.204.504-.128.136-.356.204-.684.204zm-2.772 6.264h2.112v-4.08h-2.112v-1.056h3.42v5.136h1.98V66h-5.4v-1.056zm12.823 1.728c0 .64-.268 1.112-.804 1.416-.536.304-1.352.456-2.448.456-.536 0-.988-.036-1.356-.108a2.894 2.894 0 0 1-.888-.288 1.266 1.266 0 0 1-.492-.468 1.329 1.329 0 0 1-.144-.624c0-.336.092-.6.276-.792.192-.184.46-.32.804-.408v-.12a1.27 1.27 0 0 1-.504-.336c-.12-.144-.18-.332-.18-.564 0-.304.104-.532.312-.684.208-.16.476-.28.804-.36v-.06a2.055 2.055 0 0 1-.876-.744c-.208-.32-.312-.704-.312-1.152 0-.328.06-.624.18-.888.12-.272.288-.5.504-.684.224-.192.488-.34.792-.444.312-.104.66-.156 1.044-.156.432 0 .82.068 1.164.204v-.204c0-.24.068-.44.204-.6.136-.16.344-.24.624-.24h1.128v1.032h-1.44v.288c.272.184.48.42.624.708.144.28.216.608.216.984 0 .328-.06.628-.18.9a1.96 1.96 0 0 1-.516.684c-.216.184-.48.328-.792.432a3.422 3.422 0 0 1-1.032.144c-.272 0-.528-.024-.768-.072a1.51 1.51 0 0 0-.432.204.452.452 0 0 0-.216.396c0 .192.092.312.276.36.184.048.412.072.684.072h1.392c.832 0 1.432.16 1.8.48.368.312.552.724.552 1.236zm-1.224.084a.604.604 0 0 0-.252-.504c-.168-.12-.472-.18-.912-.18h-2.148c-.304.144-.456.376-.456.696 0 .232.096.432.288.6.2.168.528.252.984.252h.972c.496 0 .872-.076 1.128-.228.264-.144.396-.356.396-.636zm-2.064-3.66c.424 0 .736-.1.936-.3.2-.2.3-.468.3-.804v-.324c0-.336-.1-.604-.3-.804-.2-.2-.512-.3-.936-.3-.424 0-.736.1-.936.3-.2.2-.3.468-.3.804v.324c0 .336.1.604.3.804.2.2.512.3.936.3zm4.652-5.976h1.308v3.744h.06c.064-.16.144-.312.24-.456.104-.152.228-.28.372-.384.144-.112.312-.2.504-.264s.416-.096.672-.096c.624 0 1.128.204 1.512.612.384.408.576.988.576 1.74V66h-1.308v-3.792c0-.984-.428-1.476-1.284-1.476-.168 0-.332.024-.492.072a1.32 1.32 0 0 0-.432.192c-.128.088-.232.2-.312.336a.985.985 0 0 0-.108.468V66h-1.308v-8.88zM223.972 66c-.544 0-.944-.144-1.2-.432-.256-.296-.384-.676-.384-1.14v-3.564h-1.908v-1.056h1.356c.232 0 .396-.044.492-.132.096-.096.144-.264.144-.504v-1.548h1.224v2.184h2.64v1.056h-2.64v4.08h2.64V66h-2.364zm4.207-8.376h2.496c1.072 0 1.864.356 2.376 1.068.52.712.78 1.752.78 3.12s-.26 2.408-.78 3.12c-.512.712-1.304 1.068-2.376 1.068h-2.496v-8.376zm2.412 7.272c.616 0 1.072-.204 1.368-.612.304-.416.456-1.008.456-1.776v-1.392c0-.768-.152-1.356-.456-1.764-.296-.416-.752-.624-1.368-.624h-1.08v6.168h1.08zM240.295 66c-.376 0-.66-.096-.852-.288-.184-.192-.296-.444-.336-.756h-.06c-.12.376-.34.668-.66.876-.312.208-.712.312-1.2.312-.632 0-1.136-.164-1.512-.492-.376-.336-.564-.796-.564-1.38 0-.6.22-1.056.66-1.368.448-.32 1.132-.48 2.052-.48h1.188v-.48c0-.84-.444-1.26-1.332-1.26-.4 0-.724.08-.972.24a1.979 1.979 0 0 0-.624.612l-.78-.636c.176-.336.472-.624.888-.864.416-.248.952-.372 1.608-.372.784 0 1.4.188 1.848.564.448.376.672.92.672 1.632v3.108h.78V66h-.804zm-2.736-.816c.424 0 .772-.096 1.044-.288.272-.192.408-.44.408-.744v-.9h-1.164c-.944 0-1.416.284-1.416.852v.24c0 .28.1.492.3.636.2.136.476.204.828.204zm7.999.816c-.544 0-.944-.144-1.2-.432-.256-.296-.384-.676-.384-1.14v-3.564h-1.908v-1.056h1.356c.232 0 .396-.044.492-.132.096-.096.144-.264.144-.504v-1.548h1.224v2.184h2.64v1.056h-2.64v4.08h2.64V66h-2.364zm9.127 0c-.376 0-.66-.096-.852-.288-.184-.192-.296-.444-.336-.756h-.06c-.12.376-.34.668-.66.876-.312.208-.712.312-1.2.312-.632 0-1.136-.164-1.512-.492-.376-.336-.564-.796-.564-1.38 0-.6.22-1.056.66-1.368.448-.32 1.132-.48 2.052-.48h1.188v-.48c0-.84-.444-1.26-1.332-1.26-.4 0-.724.08-.972.24a1.979 1.979 0 0 0-.624.612l-.78-.636c.176-.336.472-.624.888-.864.416-.248.952-.372 1.608-.372.784 0 1.4.188 1.848.564.448.376.672.92.672 1.632v3.108h.78V66h-.804zm-2.736-.816c.424 0 .772-.096 1.044-.288.272-.192.408-.44.408-.744v-.9h-1.164c-.944 0-1.416.284-1.416.852v.24c0 .28.1.492.3.636.2.136.476.204.828.204zm-78.788 18.96c-.728 0-1.34-.128-1.836-.384a3.545 3.545 0 0 1-1.224-1.02l.864-.828c.32.384.66.668 1.02.852.36.176.768.264 1.224.264.528 0 .932-.12 1.212-.36.288-.24.432-.584.432-1.032 0-.36-.104-.636-.312-.828-.208-.2-.564-.344-1.068-.432l-.912-.144a3.254 3.254 0 0 1-1.008-.312 2.339 2.339 0 0 1-.66-.528 2.114 2.114 0 0 1-.372-.684 2.956 2.956 0 0 1-.108-.804c0-.792.256-1.392.768-1.8.512-.416 1.216-.624 2.112-.624.664 0 1.228.108 1.692.324a2.81 2.81 0 0 1 1.14.888l-.84.84a2.688 2.688 0 0 0-.828-.672c-.312-.176-.7-.264-1.164-.264-.496 0-.876.108-1.14.324-.256.208-.384.516-.384.924 0 .344.1.616.3.816.208.192.572.332 1.092.42l.888.156c.752.136 1.3.412 1.644.828.344.408.516.908.516 1.5 0 .384-.068.736-.204 1.056-.128.32-.324.592-.588.816-.256.224-.576.4-.96.528-.376.12-.808.18-1.296.18zm7.399 0c-.472 0-.896-.076-1.272-.228a2.567 2.567 0 0 1-.948-.648 2.864 2.864 0 0 1-.588-1.008 4.159 4.159 0 0 1-.204-1.344c0-.496.068-.944.204-1.344.144-.4.34-.74.588-1.02.256-.288.564-.508.924-.66.36-.152.76-.228 1.2-.228.432 0 .824.076 1.176.228.352.144.652.352.9.624s.436.596.564.972c.136.376.204.792.204 1.248v.492h-4.44v.204c0 .488.152.888.456 1.2.304.304.724.456 1.26.456.4 0 .74-.084 1.02-.252.288-.176.52-.408.696-.696l.816.72c-.208.36-.528.664-.96.912-.424.248-.956.372-1.596.372zm-.096-5.484c-.232 0-.448.04-.648.12-.192.08-.36.196-.504.348a1.617 1.617 0 0 0-.324.516c-.08.2-.12.42-.12.66v.084h3.108v-.12c0-.488-.14-.876-.42-1.164-.272-.296-.636-.444-1.092-.444zm7.387 5.484c-.464 0-.88-.076-1.248-.228a2.611 2.611 0 0 1-.924-.648c-.248-.28-.44-.62-.576-1.02a4.398 4.398 0 0 1-.192-1.344c0-.496.064-.944.192-1.344.136-.4.328-.74.576-1.02.256-.28.564-.496.924-.648a3.21 3.21 0 0 1 1.236-.228c.64 0 1.152.136 1.536.408.392.272.684.624.876 1.056l-1.02.552a1.487 1.487 0 0 0-.516-.684c-.224-.168-.516-.252-.876-.252-.496 0-.88.152-1.152.456-.272.296-.408.692-.408 1.188v1.032c0 .488.136.884.408 1.188.272.304.664.456 1.176.456.384 0 .696-.088.936-.264.248-.176.444-.416.588-.72l.96.588c-.2.432-.504.788-.912 1.068-.408.272-.936.408-1.584.408zm8.252-1.2h-.06a2.42 2.42 0 0 1-.252.468 1.633 1.633 0 0 1-.36.384 1.858 1.858 0 0 1-.504.252 2.127 2.127 0 0 1-.672.096c-.624 0-1.128-.204-1.512-.612-.384-.408-.576-.988-.576-1.74v-3.984h1.308V81.6c0 .984.428 1.476 1.284 1.476.168 0 .332-.02.492-.06.16-.048.304-.116.432-.204a.965.965 0 0 0 .3-.324.93.93 0 0 0 .12-.48v-4.2h1.308V84h-1.308v-1.056zm3.223 0h1.644v-4.08h-1.644v-1.056h2.952v1.644h.072c.056-.216.136-.424.24-.624.104-.2.236-.372.396-.516.16-.152.356-.272.588-.36.232-.096.504-.144.816-.144h.744v1.248h-1.224c-.48 0-.872.144-1.176.432-.304.28-.456.66-.456 1.14v2.316h2.244V84h-5.196v-1.056zm10.015 1.2c-.472 0-.896-.076-1.272-.228a2.567 2.567 0 0 1-.948-.648 2.864 2.864 0 0 1-.588-1.008 4.159 4.159 0 0 1-.204-1.344c0-.496.068-.944.204-1.344.144-.4.34-.74.588-1.02.256-.288.564-.508.924-.66.36-.152.76-.228 1.2-.228.432 0 .824.076 1.176.228.352.144.652.352.9.624s.436.596.564.972c.136.376.204.792.204 1.248v.492h-4.44v.204c0 .488.152.888.456 1.2.304.304.724.456 1.26.456.4 0 .74-.084 1.02-.252.288-.176.52-.408.696-.696l.816.72c-.208.36-.528.664-.96.912-.424.248-.956.372-1.596.372zm-.096-5.484c-.232 0-.448.04-.648.12-.192.08-.36.196-.504.348a1.617 1.617 0 0 0-.324.516c-.08.2-.12.42-.12.66v.084h3.108v-.12c0-.488-.14-.876-.42-1.164-.272-.296-.636-.444-1.092-.444zm12.903-1.104h-.108V84h-1.176v-8.376h1.728l2.46 6.444h.108v-6.444h1.176V84h-1.728l-2.46-6.444zm8.779 6.588c-.472 0-.896-.076-1.272-.228a2.567 2.567 0 0 1-.948-.648 2.864 2.864 0 0 1-.588-1.008 4.159 4.159 0 0 1-.204-1.344c0-.496.068-.944.204-1.344.144-.4.34-.74.588-1.02.256-.288.564-.508.924-.66.36-.152.76-.228 1.2-.228.432 0 .824.076 1.176.228.352.144.652.352.9.624s.436.596.564.972c.136.376.204.792.204 1.248v.492h-4.44v.204c0 .488.152.888.456 1.2.304.304.724.456 1.26.456.4 0 .74-.084 1.02-.252.288-.176.52-.408.696-.696l.816.72c-.208.36-.528.664-.96.912-.424.248-.956.372-1.596.372zm-.096-5.484c-.232 0-.448.04-.648.12-.192.08-.36.196-.504.348a1.617 1.617 0 0 0-.324.516c-.08.2-.12.42-.12.66v.084h3.108v-.12c0-.488-.14-.876-.42-1.164-.272-.296-.636-.444-1.092-.444zm7.532 5.34c-.544 0-.944-.144-1.2-.432-.256-.296-.384-.676-.384-1.14v-3.564h-1.908v-1.056h1.356c.232 0 .396-.044.492-.132.096-.096.144-.264.144-.504v-1.548h1.224v2.184h2.64v1.056h-2.64v4.08h2.64V84h-2.364zm3.463-6.192h1.116l.6 5.208h.108l.924-5.208h1.272l.912 5.208h.108l.612-5.208h1.068L247.682 84h-1.608l-.828-4.8h-.108l-.84 4.8h-1.608l-.864-6.192zm10.555 6.336a3.21 3.21 0 0 1-1.236-.228 2.611 2.611 0 0 1-.924-.648c-.248-.28-.44-.62-.576-1.02a4.159 4.159 0 0 1-.204-1.344c0-.496.068-.944.204-1.344.136-.4.328-.74.576-1.02.256-.28.564-.496.924-.648a3.21 3.21 0 0 1 1.236-.228c.456 0 .864.076 1.224.228.368.152.676.368.924.648.256.28.452.62.588 1.02.136.4.204.848.204 1.344 0 .496-.068.944-.204 1.344-.136.4-.332.74-.588 1.02-.248.28-.556.496-.924.648a3.12 3.12 0 0 1-1.224.228zm0-1.032c.48 0 .86-.144 1.14-.432.288-.296.432-.732.432-1.308v-.936c0-.576-.144-1.008-.432-1.296-.28-.296-.66-.444-1.14-.444-.48 0-.864.148-1.152.444-.28.288-.42.72-.42 1.296v.936c0 .576.14 1.012.42 1.308.288.288.672.432 1.152.432zm4.508-.168h1.644v-4.08h-1.644v-1.056h2.952v1.644h.072c.056-.216.136-.424.24-.624.104-.2.236-.372.396-.516.16-.152.356-.272.588-.36.232-.096.504-.144.816-.144h.744v1.248h-1.224c-.48 0-.872.144-1.176.432-.304.28-.456.66-.456 1.14v2.316h2.244V84h-5.196v-1.056zm7.339-7.824h1.308v5.364h.06l.972-.996 1.74-1.68h1.548l-2.508 2.436L270.132 84h-1.572l-2.16-3.012-.864.804V84h-1.308v-8.88zM225 31a8.005 8.005 0 0 0-7.493 5.19l1.874.703A6.002 6.002 0 0 1 231 39a6 6 0 0 1-6 6h-10a5.999 5.999 0 0 1-5.175-9.043 6 6 0 0 1 3.183-2.618 6.998 6.998 0 0 1 10.818-6.208 7.002 7.002 0 0 1 2.939 4.065A8.027 8.027 0 0 0 225 31zM368.537 66v-3.156l-2.784-5.22h1.5l1.068 2.088.864 1.788h.072l.876-1.788 1.068-2.088h1.464l-2.784 5.22V66h-1.344zm7.868.144a3.21 3.21 0 0 1-1.236-.228 2.611 2.611 0 0 1-.924-.648c-.248-.28-.44-.62-.576-1.02a4.159 4.159 0 0 1-.204-1.344c0-.496.068-.944.204-1.344.136-.4.328-.74.576-1.02.256-.28.564-.496.924-.648a3.21 3.21 0 0 1 1.236-.228c.456 0 .864.076 1.224.228.368.152.676.368.924.648.256.28.452.62.588 1.02.136.4.204.848.204 1.344 0 .496-.068.944-.204 1.344-.136.4-.332.74-.588 1.02-.248.28-.556.496-.924.648a3.12 3.12 0 0 1-1.224.228zm0-1.032c.48 0 .86-.144 1.14-.432.288-.296.432-.732.432-1.308v-.936c0-.576-.144-1.008-.432-1.296-.28-.296-.66-.444-1.14-.444-.48 0-.864.148-1.152.444-.28.288-.42.72-.42 1.296v.936c0 .576.14 1.012.42 1.308.288.288.672.432 1.152.432zm8.479-.168h-.06a2.42 2.42 0 0 1-.252.468 1.633 1.633 0 0 1-.36.384 1.858 1.858 0 0 1-.504.252 2.127 2.127 0 0 1-.672.096c-.624 0-1.128-.204-1.512-.612-.384-.408-.576-.988-.576-1.74v-3.984h1.308V63.6c0 .984.428 1.476 1.284 1.476.168 0 .332-.02.492-.06.16-.048.304-.116.432-.204a.965.965 0 0 0 .3-.324.93.93 0 0 0 .12-.48v-4.2h1.308V66h-1.308v-1.056zm3.223 0h1.644v-4.08h-1.644v-1.056h2.952v1.644h.072c.056-.216.136-.424.24-.624.104-.2.236-.372.396-.516.16-.152.356-.272.588-.36.232-.096.504-.144.816-.144h.744v1.248h-1.224c-.48 0-.872.144-1.176.432-.304.28-.456.66-.456 1.14v2.316h2.244V66h-5.196v-1.056zm-24.749 18h-.072a2.306 2.306 0 0 1-.732.888c-.304.208-.684.312-1.14.312-.728 0-1.308-.272-1.74-.816-.432-.544-.648-1.352-.648-2.424 0-1.072.216-1.88.648-2.424.432-.544 1.012-.816 1.74-.816.456 0 .836.108 1.14.324.304.208.548.5.732.876h.072V75.12h1.308V84h-1.308v-1.056zm-1.404.132c.192 0 .372-.024.54-.072a1.35 1.35 0 0 0 .444-.216 1.04 1.04 0 0 0 .42-.852v-2.064a.954.954 0 0 0-.12-.492 1.006 1.006 0 0 0-.3-.36 1.35 1.35 0 0 0-.444-.216 1.958 1.958 0 0 0-.54-.072c-.496 0-.88.152-1.152.456-.264.304-.396.708-.396 1.212v1.008c0 .504.132.908.396 1.212.272.304.656.456 1.152.456zm7.387 1.068c-.472 0-.896-.076-1.272-.228a2.567 2.567 0 0 1-.948-.648 2.864 2.864 0 0 1-.588-1.008 4.159 4.159 0 0 1-.204-1.344c0-.496.068-.944.204-1.344.144-.4.34-.74.588-1.02.256-.288.564-.508.924-.66.36-.152.76-.228 1.2-.228.432 0 .824.076 1.176.228.352.144.652.352.9.624s.436.596.564.972c.136.376.204.792.204 1.248v.492h-4.44v.204c0 .488.152.888.456 1.2.304.304.724.456 1.26.456.4 0 .74-.084 1.02-.252.288-.176.52-.408.696-.696l.816.72c-.208.36-.528.664-.96.912-.424.248-.956.372-1.596.372zm-.096-5.484c-.232 0-.448.04-.648.12-.192.08-.36.196-.504.348a1.617 1.617 0 0 0-.324.516c-.08.2-.12.42-.12.66v.084h3.108v-.12c0-.488-.14-.876-.42-1.164-.272-.296-.636-.444-1.092-.444zm6.356 5.34-2.22-6.192h1.356l.852 2.616.804 2.484h.072l.804-2.484.852-2.616h1.308L377.209 84h-1.608zm8.383-7.32c-.336 0-.572-.068-.708-.204a.707.707 0 0 1-.192-.504v-.252c0-.2.064-.368.192-.504.136-.136.368-.204.696-.204.336 0 .568.068.696.204a.685.685 0 0 1 .204.504v.252c0 .2-.068.368-.204.504-.128.136-.356.204-.684.204zm-2.772 6.264h2.112v-4.08h-2.112v-1.056h3.42v5.136h1.98V84h-5.4v-1.056zm9.811 1.2c-.464 0-.88-.076-1.248-.228a2.611 2.611 0 0 1-.924-.648c-.248-.28-.44-.62-.576-1.02a4.398 4.398 0 0 1-.192-1.344c0-.496.064-.944.192-1.344.136-.4.328-.74.576-1.02.256-.28.564-.496.924-.648a3.21 3.21 0 0 1 1.236-.228c.64 0 1.152.136 1.536.408.392.272.684.624.876 1.056l-1.02.552a1.487 1.487 0 0 0-.516-.684c-.224-.168-.516-.252-.876-.252-.496 0-.88.152-1.152.456-.272.296-.408.692-.408 1.188v1.032c0 .488.136.884.408 1.188.272.304.664.456 1.176.456.384 0 .696-.088.936-.264.248-.176.444-.416.588-.72l.96.588c-.2.432-.504.788-.912 1.068-.408.272-.936.408-1.584.408zm7.1 0c-.472 0-.896-.076-1.272-.228a2.567 2.567 0 0 1-.948-.648 2.864 2.864 0 0 1-.588-1.008 4.159 4.159 0 0 1-.204-1.344c0-.496.068-.944.204-1.344.144-.4.34-.74.588-1.02.256-.288.564-.508.924-.66.36-.152.76-.228 1.2-.228.432 0 .824.076 1.176.228.352.144.652.352.9.624s.436.596.564.972c.136.376.204.792.204 1.248v.492h-4.44v.204c0 .488.152.888.456 1.2.304.304.724.456 1.26.456.4 0 .74-.084 1.02-.252.288-.176.52-.408.696-.696l.816.72c-.208.36-.528.664-.96.912-.424.248-.956.372-1.596.372zm-.096-5.484c-.232 0-.448.04-.648.12-.192.08-.36.196-.504.348a1.617 1.617 0 0 0-.324.516c-.08.2-.12.42-.12.66v.084h3.108v-.12c0-.488-.14-.876-.42-1.164-.272-.296-.636-.444-1.092-.444zM382 42v2l2 1v1h-8l-.004-.996L378 44v-2h-7.008a1 1 0 0 1-.992-1.007V28.007c0-.556.455-1.007.992-1.007h18.016c.548 0 .992.449.992 1.007v12.986c0 .556-.455 1.007-.992 1.007H382zm-10-4v2h16v-2h-16zM519.422 66v-8.376h3.132c.8 0 1.408.224 1.824.672.424.448.636 1.064.636 1.848s-.212 1.4-.636 1.848c-.416.448-1.024.672-1.824.672h-1.788V66h-1.344zm1.344-4.452h1.584c.832 0 1.248-.384 1.248-1.152v-.516c0-.76-.416-1.14-1.248-1.14h-1.584v2.808zm9.727 3.396h-.06a2.42 2.42 0 0 1-.252.468 1.633 1.633 0 0 1-.36.384 1.858 1.858 0 0 1-.504.252 2.127 2.127 0 0 1-.672.096c-.624 0-1.128-.204-1.512-.612-.384-.408-.576-.988-.576-1.74v-3.984h1.308V63.6c0 .984.428 1.476 1.284 1.476.168 0 .332-.02.492-.06.16-.048.304-.116.432-.204a.965.965 0 0 0 .3-.324.93.93 0 0 0 .12-.48v-4.2h1.308V66h-1.308v-1.056zm3.26-7.824h1.308v3.744h.072a2.21 2.21 0 0 1 .732-.876c.304-.216.684-.324 1.14-.324.728 0 1.308.272 1.74.816.432.544.648 1.352.648 2.424 0 1.072-.216 1.88-.648 2.424-.432.544-1.012.816-1.74.816-.456 0-.836-.104-1.14-.312a2.306 2.306 0 0 1-.732-.888h-.072V66h-1.308v-8.88zm2.712 7.956c.496 0 .876-.152 1.14-.456.272-.304.408-.708.408-1.212V62.4c0-.504-.136-.908-.408-1.212-.264-.304-.644-.456-1.14-.456-.192 0-.372.024-.54.072a1.35 1.35 0 0 0-.444.216 1.13 1.13 0 0 0-.312.36 1.04 1.04 0 0 0-.108.492v2.064c0 .192.036.36.108.504.08.136.184.252.312.348.128.096.276.168.444.216.168.048.348.072.54.072zm4.435-.132h2.052v-6.768H540.9V57.12h3.36v7.824h2.052V66H540.9v-1.056zm10.279-6.264c-.336 0-.572-.068-.708-.204a.707.707 0 0 1-.192-.504v-.252c0-.2.064-.368.192-.504.136-.136.368-.204.696-.204.336 0 .568.068.696.204a.685.685 0 0 1 .204.504v.252c0 .2-.068.368-.204.504-.128.136-.356.204-.684.204zm-2.772 6.264h2.112v-4.08h-2.112v-1.056h3.42v5.136h1.98V66h-5.4v-1.056zm9.812 1.2c-.464 0-.88-.076-1.248-.228a2.611 2.611 0 0 1-.924-.648c-.248-.28-.44-.62-.576-1.02a4.398 4.398 0 0 1-.192-1.344c0-.496.064-.944.192-1.344.136-.4.328-.74.576-1.02.256-.28.564-.496.924-.648a3.21 3.21 0 0 1 1.236-.228c.64 0 1.152.136 1.536.408.392.272.684.624.876 1.056l-1.02.552a1.487 1.487 0 0 0-.516-.684c-.224-.168-.516-.252-.876-.252-.496 0-.88.152-1.152.456-.272.296-.408.692-.408 1.188v1.032c0 .488.136.884.408 1.188.272.304.664.456 1.176.456.384 0 .696-.088.936-.264.248-.176.444-.416.588-.72l.96.588c-.2.432-.504.788-.912 1.068-.408.272-.936.408-1.584.408zm-43.163 11.664h1.116l.6 5.208h.108l.924-5.208h1.272l.912 5.208h.108l.612-5.208h1.068L520.912 84h-1.608l-.828-4.8h-.108l-.84 4.8h-1.608l-.864-6.192zm10.688 6.336c-.472 0-.896-.076-1.272-.228a2.567 2.567 0 0 1-.948-.648 2.864 2.864 0 0 1-.588-1.008 4.159 4.159 0 0 1-.204-1.344c0-.496.068-.944.204-1.344.144-.4.34-.74.588-1.02.256-.288.564-.508.924-.66.36-.152.76-.228 1.2-.228.432 0 .824.076 1.176.228.352.144.652.352.9.624s.436.596.564.972c.136.376.204.792.204 1.248v.492h-4.44v.204c0 .488.152.888.456 1.2.304.304.724.456 1.26.456.4 0 .74-.084 1.02-.252.288-.176.52-.408.696-.696l.816.72c-.208.36-.528.664-.96.912-.424.248-.956.372-1.596.372zm-.096-5.484c-.232 0-.448.04-.648.12-.192.08-.36.196-.504.348a1.617 1.617 0 0 0-.324.516c-.08.2-.12.42-.12.66v.084h3.108v-.12c0-.488-.14-.876-.42-1.164-.272-.296-.636-.444-1.092-.444zm4.507-3.54h1.308v3.744h.072a2.21 2.21 0 0 1 .732-.876c.304-.216.684-.324 1.14-.324.728 0 1.308.272 1.74.816.432.544.648 1.352.648 2.424 0 1.072-.216 1.88-.648 2.424-.432.544-1.012.816-1.74.816-.456 0-.836-.104-1.14-.312a2.306 2.306 0 0 1-.732-.888h-.072V84h-1.308v-8.88zm2.712 7.956c.496 0 .876-.152 1.14-.456.272-.304.408-.708.408-1.212V80.4c0-.504-.136-.908-.408-1.212-.264-.304-.644-.456-1.14-.456-.192 0-.372.024-.54.072a1.35 1.35 0 0 0-.444.216 1.13 1.13 0 0 0-.312.36 1.04 1.04 0 0 0-.108.492v2.064c0 .192.036.36.108.504.08.136.184.252.312.348.128.096.276.168.444.216.168.048.348.072.54.072zm7.147 1.068c-.672 0-1.252-.108-1.74-.324a3.148 3.148 0 0 1-1.164-.864l.804-.72c.272.296.576.524.912.684.344.152.748.228 1.212.228.424 0 .764-.072 1.02-.216a.715.715 0 0 0 .396-.672.586.586 0 0 0-.276-.54 1.11 1.11 0 0 0-.312-.132 2.388 2.388 0 0 0-.36-.072l-.984-.156a4.991 4.991 0 0 1-.732-.156 2.565 2.565 0 0 1-.672-.3 1.744 1.744 0 0 1-.48-.516c-.12-.208-.18-.472-.18-.792 0-.632.24-1.112.72-1.44.488-.328 1.128-.492 1.92-.492.576 0 1.072.088 1.488.264.424.168.776.404 1.056.708l-.732.768c-.16-.184-.388-.352-.684-.504-.296-.16-.688-.24-1.176-.24-.872 0-1.308.276-1.308.828 0 .264.092.448.276.552.192.096.416.16.672.192l.984.156c.248.04.492.092.732.156.248.064.468.164.66.3.2.128.36.296.48.504.128.208.192.472.192.792 0 .624-.244 1.116-.732 1.476-.48.352-1.144.528-1.992.528zm7.568-7.464c-.336 0-.572-.068-.708-.204a.707.707 0 0 1-.192-.504v-.252c0-.2.064-.368.192-.504.136-.136.368-.204.696-.204.336 0 .568.068.696.204a.685.685 0 0 1 .204.504v.252c0 .2-.068.368-.204.504-.128.136-.356.204-.684.204zm-2.772 6.264h2.112v-4.08h-2.112v-1.056h3.42v5.136h1.98V84h-5.4v-1.056zM554.765 84c-.544 0-.944-.144-1.2-.432-.256-.296-.384-.676-.384-1.14v-3.564h-1.908v-1.056h1.356c.232 0 .396-.044.492-.132.096-.096.144-.264.144-.504v-1.548h1.224v2.184h2.64v1.056h-2.64v4.08h2.64V84h-2.364zm6.955.144c-.472 0-.896-.076-1.272-.228a2.567 2.567 0 0 1-.948-.648 2.864 2.864 0 0 1-.588-1.008 4.159 4.159 0 0 1-.204-1.344c0-.496.068-.944.204-1.344.144-.4.34-.74.588-1.02.256-.288.564-.508.924-.66.36-.152.76-.228 1.2-.228.432 0 .824.076 1.176.228.352.144.652.352.9.624s.436.596.564.972c.136.376.204.792.204 1.248v.492h-4.44v.204c0 .488.152.888.456 1.2.304.304.724.456 1.26.456.4 0 .74-.084 1.02-.252.288-.176.52-.408.696-.696l.816.72c-.208.36-.528.664-.96.912-.424.248-.956.372-1.596.372zm-.096-5.484c-.232 0-.448.04-.648.12-.192.08-.36.196-.504.348a1.617 1.617 0 0 0-.324.516c-.08.2-.12.42-.12.66v.084h3.108v-.12c0-.488-.14-.876-.42-1.164-.272-.296-.636-.444-1.092-.444zM540 46c-5.523 0-10-4.477-10-10s4.477-10 10-10 10 4.477 10 10-4.477 10-10 10zm6.355-6.048v-.105c0-.922 0-1.343-.652-1.716a7.453 7.453 0 0 0-.645-.325c-.367-.167-.61-.276-.938-.756a11.755 11.755 0 0 1-.116-.172c-.345-.525-.594-.903-1.542-.753-1.865.296-2.003.624-2.085 1.178l-.013.091c-.121.81-.143 1.082.195 1.437 1.265 1.327 2.023 2.284 2.253 2.844.112.273.4 1.1.202 1.918a8.186 8.186 0 0 0 3.151-2.237c.11-.374.19-.84.19-1.404zM540 27.833c-2.317 0-4.41.966-5.896 2.516.177.123.331.296.437.534.204.457.204.928.204 1.345 0 .328 0 .64.105.865.144.308.766.44 1.315.554.197.042.399.084.583.135.506.14.898.595 1.211.96.13.151.323.374.42.43.05-.036.211-.211.29-.498.062-.22.044-.414-.045-.52-.56-.66-.529-1.93-.356-2.399.272-.739 1.122-.684 1.744-.644.232.015.45.03.614.009.622-.078.814-1.025.949-1.21.292-.4 1.186-1.003 1.74-1.375a8.14 8.14 0 0 0-3.315-.702z" fill="#787878"/><path d="M131 52h18M144 47l5 5-5 5M291 52h18M304 47l5 5-5 5M451 52h18M464 47l5 5-5 5" stroke="#D4D4D4" stroke-width="1.5" stroke-linecap="round" stroke-linejoin="round"/></svg>
