<svg width="103" height="76" viewBox="0 0 103 76" fill="none" xmlns="http://www.w3.org/2000/svg">
<rect x="53.5" y="42.0041" width="7" height="7" fill="#FFE665"/>
<path d="M60.0273 19.7167L61 19.5019L56.5 69.0067L55.1853 73.6854L54.9772 73.9171C54.6572 74.2744 54.2517 74.5976 53.7734 74.876C52.3153 75.7254 50.2081 76.1312 48.1347 75.9624C46.056 75.7918 44.2778 75.0789 43.2517 74.0033L43.0348 73.7752L42.7272 73.9655C42.6792 73.9961 42.6294 74.0266 42.5796 74.0553C40.8547 75.0609 38.4186 75.4291 36.0625 75.0412C33.7081 74.6533 31.9637 73.5938 31.3964 72.2057L31.2933 71.9525L30.9092 72.0872C28.7771 72.836 26.2254 72.8432 24.0809 72.1052C21.9382 71.3671 20.7165 70.0598 20.8126 68.6089L20.8303 68.3485L20.3982 68.4185C17.9994 68.8064 15.5384 68.4114 13.8153 67.3627C12.8124 66.7521 12.2025 66.0051 12.0158 65.215V65.2114C11.9375 64.872 11.9358 64.5272 12.0158 64.1806V63.2325H11.9749C9.48539 63.2271 7.2982 62.4603 6.12458 61.18C5.60535 60.6143 5.34217 60.0056 5.32795 59.4004C5.32795 59.3501 5.32617 59.2999 5.32795 59.2496V56.714C3.50351 56.2364 2.15385 55.3152 1.63817 54.1587C1.46746 53.7762 1.40167 53.3901 1.42834 53.0094H1.42301V50.2099C1.39278 49.752 1.49947 49.3031 1.73775 48.8757C1.09937 48.3549 0.686828 47.7426 0.553463 47.0871V43.9859C0.315183 42.8043 1.01935 41.6048 2.44014 40.777C2.513 40.7357 2.58942 40.6962 2.66584 40.6567L2.66597 40.6566V40.3945C2.64997 40.2472 2.65175 40.1 2.66597 39.9527V37.2879H2.66775C2.5575 36.2158 3.20832 35.1258 4.61844 34.3034C5.47376 33.8042 6.54246 33.463 7.72675 33.2942V31.2812C7.67873 30.2379 8.35267 29.2017 9.68633 28.4242C11.1089 27.5946 13.0809 27.1923 15.0974 27.318L15.3215 27.3324V26.4094C15.3197 26.3537 15.3215 26.2962 15.3215 26.2406V26.237C15.3517 25.2457 16.031 24.2886 17.2615 23.5721C19.1517 22.4696 21.9755 22.1302 24.4526 22.7084L24.8687 22.8054L24.9007 22.545C25.018 21.5968 25.6795 20.7457 26.814 20.0848C29.2146 18.6842 32.9079 18.5405 35.5966 19.7401L35.9522 19.8981L36.1034 19.6521C36.443 19.1008 36.9676 18.6177 37.6593 18.2137C39.0196 17.42 40.917 17.0105 42.8641 17.0914C44.8041 17.1704 46.5219 17.7181 47.699 18.6339L47.9675 18.8422L48.2272 18.6303C48.4512 18.4489 48.6984 18.2783 48.9651 18.1221C50.5495 17.1991 52.8185 16.8094 55.0377 17.0824C57.2409 17.3517 59.0475 18.246 59.8655 19.4743L60.0273 19.7167Z" fill="#FFB9F8"/>
<path d="M55.1798 70.5917L56.5 69.0067L61 19.5019L60.0201 19.7242L59.8582 19.4818C59.0403 18.2553 57.2354 17.361 55.0304 17.0899C52.8112 16.8187 50.5404 17.2066 48.9578 18.1296C48.6893 18.284 48.4422 18.4546 48.2199 18.6378L47.9603 18.8497L47.6918 18.6414C46.5146 17.7273 44.7968 17.1796 42.8568 17.0988C40.9114 17.018 39.0141 17.4274 37.652 18.2212C36.9585 18.6252 36.4357 19.1082 36.0961 19.6595L35.9449 19.9055L35.5893 19.7475C32.9006 18.548 29.2073 18.6916 26.8067 20.0923C25.6722 20.7531 25.0107 21.6043 24.8934 22.5524L24.8614 22.8128L24.4453 22.7159C21.9682 22.1376 19.1444 22.477 17.2542 23.5796C15.6734 24.5026 14.9977 25.8171 15.4458 27.0992L15.5347 27.3542L15.0901 27.3255C13.0754 27.198 11.1034 27.602 9.67904 28.4316C7.6181 29.633 7.12376 31.4539 8.45208 32.9605L8.65657 33.1921L8.21557 33.2352C6.83213 33.3699 5.58561 33.7416 4.61293 34.3091C2.06298 35.7959 1.98296 38.1681 4.43155 39.707L4.73562 39.8991L4.33019 40.0105C3.61536 40.2062 2.97698 40.4666 2.43285 40.7844C1.01206 41.6123 0.306113 42.8118 0.546171 43.9934C0.786229 45.175 1.92784 46.2111 3.67937 46.8378L4.06169 46.9743L3.72205 47.1449C3.59224 47.2095 3.46776 47.2778 3.3504 47.346C1.67178 48.3247 1.02807 49.7146 1.6291 51.0632C2.22835 52.4082 3.95677 53.4389 6.25421 53.8196L6.68454 53.8914L6.43737 54.1087C5.06281 55.319 4.9419 56.8059 6.11551 58.0862C7.28913 59.3666 9.47632 60.1352 11.9658 60.1406H12.4139L12.277 60.3884C11.5124 61.7711 12.0832 63.2202 13.8063 64.2689C15.5293 65.3158 17.9904 65.7109 20.391 65.3248L20.8231 65.2548L20.8053 65.5152C20.7075 66.9661 21.9291 68.2734 24.0736 69.0114C26.2181 69.7495 28.7699 69.7423 30.9019 68.9935L31.286 68.8588L31.3892 69.112C31.9582 70.5001 33.7008 71.5596 36.0552 71.9474C38.4095 72.3371 40.8474 71.9672 42.5723 70.9616C42.6239 70.9311 42.6719 70.9023 42.7217 70.8718L43.0293 70.6815L43.2462 70.9095C44.2723 71.9852 46.0505 72.6998 48.1292 72.8686C50.2026 73.0392 52.3098 72.6316 53.7679 71.7822C54.2462 71.5039 54.6517 71.1807 54.9717 70.8233L55.1798 70.5917Z" fill="#FFC5F9"/>
<path d="M59.3251 20.3129L61.3718 19.3486L56.624 69.1908L54.7729 68.1008L53.5548 69.4601C51.6877 71.5432 46.5967 71.5809 44.6371 69.5266L43.3586 68.1852L41.5555 69.3021C38.7921 71.0152 33.8718 70.2502 32.9365 67.9643L32.3266 66.472L30.0736 67.2639C26.6221 68.4779 22.2388 66.9677 22.3953 64.6188L22.4984 63.0871L19.9627 63.4947C16.0773 64.1196 12.5547 61.9773 13.7923 59.7399L14.5996 58.2799L11.9697 58.2745C7.93847 58.2656 5.53789 55.6474 7.76599 53.6883L9.21878 52.4097L6.68839 51.9913C2.81012 51.3502 1.71119 48.4519 4.76259 46.9148L6.75419 45.9128L4.51187 45.1119C1.07459 43.8836 1.35733 40.9207 5.00621 39.9204L7.38723 39.2686L5.59835 38.1445C2.85814 36.4206 4.5012 33.6103 8.47727 33.2224L11.0717 32.9692L9.8696 31.6044C8.02916 29.5124 10.9116 27.0667 14.9197 27.3181L17.5354 27.4815L17.0091 25.9784C16.2036 23.6745 20.1121 21.7729 23.8552 22.6456L26.2985 23.2148L26.4869 21.6849C26.7768 19.3396 31.4197 18.1221 34.6205 19.5515L36.7081 20.4835L37.5972 19.0398C38.9611 16.8274 43.9969 16.3857 46.4171 18.2658L47.9961 19.4923L49.5218 18.2425C51.8584 16.3264 56.9103 16.6928 58.372 18.8835L59.3251 20.3129Z" fill="#FFE665"/>
<path opacity="0.5" d="M38.3727 25.1668C37.7219 25.1668 37.0711 25.3122 36.5732 25.6013C36.0771 25.8904 35.8281 26.2711 35.8281 26.6499C35.8281 27.0288 36.0771 27.4095 36.5732 27.6985C37.0693 27.9876 37.7219 28.1331 38.3727 28.1331C39.0236 28.1331 39.6744 27.9876 40.1723 27.6985C40.6684 27.4095 40.9173 27.0288 40.9173 26.6499C40.9173 26.2711 40.6684 25.8904 40.1723 25.6013C39.6762 25.3122 39.0236 25.1668 38.3727 25.1668Z" fill="#FFB9F8"/>
<path d="M38.3736 26.4813C38.0607 26.4813 37.7459 26.5513 37.5076 26.6913C37.2676 26.8314 37.1484 27.0145 37.1484 27.1959C37.1484 27.379 37.2676 27.5622 37.5076 27.7004C37.7477 27.8405 38.0607 27.9105 38.3736 27.9105C38.6866 27.9105 39.0013 27.8405 39.2396 27.7004C39.4797 27.5604 39.5988 27.3772 39.5988 27.1959C39.5988 27.0127 39.4797 26.8296 39.2396 26.6913C38.9995 26.5513 38.6866 26.4813 38.3736 26.4813Z" fill="#71BBFF"/>
<path opacity="0.5" d="M38.3727 36.9521C37.7219 36.9521 37.0711 37.0976 36.5732 37.3867C36.0771 37.6758 35.8281 38.0564 35.8281 38.4353C35.8281 38.8141 36.0771 39.1948 36.5732 39.4839C37.0693 39.773 37.7219 39.9184 38.3727 39.9184C39.0236 39.9184 39.6744 39.773 40.1723 39.4839C40.6684 39.1948 40.9173 38.8141 40.9173 38.4353C40.9173 38.0564 40.6684 37.6758 40.1723 37.3867C39.6762 37.0976 39.0236 36.9521 38.3727 36.9521Z" fill="#FFB9F8"/>
<path d="M38.3736 38.2666C38.0607 38.2666 37.7459 38.3366 37.5076 38.4767C37.2676 38.6167 37.1484 38.7999 37.1484 38.9812C37.1484 39.1644 37.2676 39.3475 37.5076 39.4858C37.7477 39.6258 38.0607 39.6959 38.3736 39.6959C38.6866 39.6959 39.0013 39.6258 39.2396 39.4858C39.4797 39.3457 39.5988 39.1626 39.5988 38.9812C39.5988 38.7981 39.4797 38.6149 39.2396 38.4767C38.9995 38.3366 38.6866 38.2666 38.3736 38.2666Z" fill="#71BBFF"/>
<path opacity="0.5" d="M38.3727 48.7375C37.7219 48.7375 37.0711 48.8829 36.5732 49.172C36.0771 49.4611 35.8281 49.8418 35.8281 50.2206C35.8281 50.5995 36.0771 50.9801 36.5732 51.2692C37.0693 51.5583 37.7219 51.7037 38.3727 51.7037C39.0236 51.7037 39.6744 51.5583 40.1723 51.2692C40.6684 50.9801 40.9173 50.5995 40.9173 50.2206C40.9173 49.8418 40.6684 49.4611 40.1723 49.172C39.6762 48.8829 39.0236 48.7375 38.3727 48.7375Z" fill="#FFB9F8"/>
<path d="M38.3736 50.0519C38.0607 50.0519 37.7459 50.122 37.5076 50.262C37.2676 50.4021 37.1484 50.5852 37.1484 50.7666C37.1484 50.9497 37.2676 51.1329 37.5076 51.2711C37.7477 51.4112 38.0607 51.4812 38.3736 51.4812C38.6866 51.4812 39.0013 51.4112 39.2396 51.2711C39.4797 51.1311 39.5988 50.9479 39.5988 50.7666C39.5988 50.5834 39.4797 50.4003 39.2396 50.262C38.9995 50.122 38.6866 50.0519 38.3736 50.0519Z" fill="#71BBFF"/>
<path opacity="0.5" d="M38.3727 60.5246C37.7219 60.5246 37.0711 60.67 36.5732 60.9591C36.0771 61.2482 35.8281 61.6289 35.8281 62.0077C35.8281 62.3866 36.0771 62.7672 36.5732 63.0563C37.0693 63.3454 37.7219 63.4909 38.3727 63.4909C39.0236 63.4909 39.6744 63.3454 40.1723 63.0563C40.6684 62.7672 40.9173 62.3866 40.9173 62.0077C40.9173 61.6289 40.6684 61.2482 40.1723 60.9591C39.6762 60.67 39.0236 60.5246 38.3727 60.5246Z" fill="#FFB9F8"/>
<path d="M38.3736 61.8373C38.0607 61.8373 37.7459 61.9073 37.5076 62.0474C37.2676 62.1874 37.1484 62.3706 37.1484 62.5519C37.1484 62.7351 37.2676 62.9182 37.5076 63.0565C37.7477 63.1965 38.0607 63.2665 38.3736 63.2665C38.6866 63.2665 39.0013 63.1965 39.2396 63.0565C39.4797 62.9164 39.5988 62.7333 39.5988 62.5519C39.5988 62.3688 39.4797 62.1856 39.2396 62.0474C38.9995 61.9073 38.6866 61.8373 38.3736 61.8373Z" fill="#71BBFF"/>
<path opacity="0.5" d="M48.4977 31.0604C47.8469 31.0604 47.1961 31.2058 46.6982 31.4949C46.2021 31.784 45.9531 32.1646 45.9531 32.5435C45.9531 32.9224 46.2021 33.303 46.6982 33.5921C47.1943 33.8812 47.8469 34.0266 48.4977 34.0266C49.1486 34.0266 49.7994 33.8812 50.2973 33.5921C50.7934 33.303 51.0423 32.9224 51.0423 32.5435C51.0423 32.1646 50.7934 31.784 50.2973 31.4949C49.8012 31.2058 49.1486 31.0604 48.4977 31.0604Z" fill="#FFB9F8"/>
<path d="M48.4986 32.373C48.1857 32.373 47.8709 32.4431 47.6326 32.5831C47.3926 32.7232 47.2734 32.9063 47.2734 33.0877C47.2734 33.2708 47.3926 33.454 47.6326 33.5922C47.8727 33.7323 48.1857 33.8023 48.4986 33.8023C48.8116 33.8023 49.1263 33.7323 49.3646 33.5922C49.6047 33.4522 49.7238 33.269 49.7238 33.0877C49.7238 32.9045 49.6047 32.7214 49.3646 32.5831C49.1246 32.4431 48.8116 32.373 48.4986 32.373Z" fill="#71BBFF"/>
<path opacity="0.5" d="M48.4977 42.8457C47.8469 42.8457 47.1961 42.9911 46.6982 43.2802C46.2021 43.5693 45.9531 43.95 45.9531 44.3288C45.9531 44.7077 46.2021 45.0883 46.6982 45.3774C47.1943 45.6665 47.8469 45.812 48.4977 45.812C49.1486 45.812 49.7994 45.6665 50.2973 45.3774C50.7934 45.0883 51.0423 44.7077 51.0423 44.3288C51.0423 43.95 50.7934 43.5693 50.2973 43.2802C49.8012 42.9911 49.1486 42.8457 48.4977 42.8457Z" fill="#FFB9F8"/>
<path d="M48.4986 44.1584C48.1857 44.1584 47.8709 44.2284 47.6326 44.3685C47.3926 44.5085 47.2734 44.6917 47.2734 44.873C47.2734 45.0562 47.3926 45.2393 47.6326 45.3776C47.8727 45.5176 48.1857 45.5876 48.4986 45.5876C48.8116 45.5876 49.1263 45.5176 49.3646 45.3776C49.6047 45.2375 49.7238 45.0544 49.7238 44.873C49.7238 44.6899 49.6047 44.5067 49.3646 44.3685C49.1246 44.2284 48.8116 44.1584 48.4986 44.1584Z" fill="#71BBFF"/>
<path opacity="0.5" d="M48.4977 54.631C47.8469 54.631 47.1961 54.7765 46.6982 55.0656C46.2021 55.3546 45.9531 55.7353 45.9531 56.1142C45.9531 56.493 46.2021 56.8737 46.6982 57.1628C47.1943 57.4519 47.8469 57.5973 48.4977 57.5973C49.1486 57.5973 49.7994 57.4519 50.2973 57.1628C50.7934 56.8737 51.0423 56.493 51.0423 56.1142C51.0423 55.7353 50.7934 55.3546 50.2973 55.0656C49.8012 54.7765 49.1486 54.631 48.4977 54.631Z" fill="#FFB9F8"/>
<path d="M48.4986 55.9437C48.1857 55.9437 47.8709 56.0138 47.6326 56.1538C47.3926 56.2939 47.2734 56.477 47.2734 56.6584C47.2734 56.8415 47.3926 57.0246 47.6326 57.1629C47.8727 57.303 48.1857 57.373 48.4986 57.373C48.8116 57.373 49.1263 57.303 49.3646 57.1629C49.6047 57.0229 49.7238 56.8397 49.7238 56.6584C49.7238 56.4752 49.6047 56.2921 49.3646 56.1538C49.1246 56.0138 48.8116 55.9437 48.4986 55.9437Z" fill="#71BBFF"/>
<path opacity="0.5" d="M56.7919 25.6013C57.2898 25.3122 57.9407 25.1668 58.5915 25.1668C59.2423 25.1668 59.8949 25.3122 60.391 25.6013C60.5317 25.6833 60.6526 25.7727 60.7535 25.8673L60.5836 27.5729C60.5242 27.6164 60.46 27.6583 60.391 27.6985C59.8931 27.9876 59.2423 28.1331 58.5915 28.1331C57.9389 28.1331 57.2881 27.9876 56.7919 27.6985C56.2958 27.4095 56.0469 27.0288 56.0469 26.6499C56.0469 26.2711 56.2958 25.8904 56.7919 25.6013Z" fill="#FFB9F8"/>
<path d="M58.5924 26.4813C58.2794 26.4813 57.9647 26.5513 57.7264 26.6913C57.4863 26.8314 57.3672 27.0145 57.3672 27.1959C57.3672 27.379 57.4863 27.5622 57.7264 27.7004C57.9664 27.8387 58.2794 27.9105 58.5924 27.9105C58.9053 27.9105 59.2201 27.8405 59.4584 27.7004C59.6984 27.5604 59.8176 27.3772 59.8176 27.1959C59.8176 27.0145 59.6984 26.8296 59.4584 26.6913C59.2183 26.5513 58.9053 26.4813 58.5924 26.4813Z" fill="#71BBFF"/>
<path opacity="0.5" d="M56.7919 37.3867C57.2898 37.0976 57.9407 36.9521 58.5915 36.9521C58.9644 36.9521 59.3378 36.9999 59.6821 37.095L59.4186 39.8379C59.151 39.8915 58.8712 39.9184 58.5915 39.9184C57.9389 39.9184 57.2881 39.773 56.7919 39.4839C56.2958 39.1948 56.0469 38.8141 56.0469 38.4353C56.0469 38.0564 56.2958 37.6758 56.7919 37.3867Z" fill="#FFB9F8"/>
<path d="M57.7264 38.4767C57.9647 38.3366 58.2794 38.2666 58.5924 38.2666C58.9053 38.2666 59.2183 38.3366 59.4584 38.4767C59.4892 38.4945 59.5181 38.513 59.5449 38.5322L59.4584 39.4858C59.2201 39.6258 58.9053 39.6959 58.5924 39.6959C58.2794 39.6959 57.9664 39.624 57.7264 39.4858C57.4863 39.3475 57.3672 39.1644 57.3672 38.9812C57.3672 38.7999 57.4863 38.6167 57.7264 38.4767Z" fill="#71BBFF"/>
<path opacity="0.5" d="M56.7919 49.172C57.2898 48.8829 57.9407 48.7375 58.5915 48.7375L58.2895 51.6933C57.7414 51.6553 57.2114 51.5136 56.7919 51.2692C56.2958 50.9801 56.0469 50.5995 56.0469 50.2206C56.0469 49.8418 56.2958 49.4611 56.7919 49.172Z" fill="#FFB9F8"/>
<path d="M57.3672 50.7666C57.3672 50.5852 57.4863 50.4021 57.7264 50.262C57.9274 50.1439 58.1828 50.0755 58.4457 50.0571L58.3163 51.4628C58.1005 51.4336 57.8954 51.3697 57.7264 51.2711C57.4863 51.1328 57.3672 50.9497 57.3672 50.7666Z" fill="#71BBFF"/>
<path opacity="0.5" d="M56.0469 62.0077C56.0469 61.6289 56.2958 61.2482 56.7919 60.9591C56.9863 60.8463 57.204 60.7553 57.4359 60.6863L57.1904 63.2461C57.0495 63.1918 56.9159 63.1286 56.7919 63.0563C56.2958 62.7672 56.0469 62.3866 56.0469 62.0077Z" fill="#FFB9F8"/>
<path opacity="0.5" d="M28.2712 31.0604C27.6204 31.0604 26.9695 31.2058 26.4716 31.4949C25.9755 31.784 25.7266 32.1646 25.7266 32.5435C25.7266 32.9224 25.9755 33.303 26.4716 33.5921C26.9678 33.8812 27.6186 34.0266 28.2712 34.0266C28.922 34.0266 29.5728 33.8812 30.0707 33.5921C30.5668 33.303 30.8158 32.9224 30.8158 32.5435C30.8158 32.1646 30.5668 31.784 30.0707 31.4949C29.5746 31.2058 28.922 31.0604 28.2712 31.0604Z" fill="#FFB9F8"/>
<path d="M28.2721 32.373C27.9591 32.373 27.6444 32.4431 27.4061 32.5831C27.166 32.7232 27.0469 32.9063 27.0469 33.0877C27.0469 33.2708 27.166 33.454 27.4061 33.5922C27.6461 33.7323 27.9591 33.8023 28.2721 33.8023C28.585 33.8023 28.8998 33.7323 29.138 33.5922C29.3781 33.4522 29.4972 33.269 29.4972 33.0877C29.4972 32.9063 29.3781 32.7214 29.138 32.5831C28.898 32.4431 28.585 32.373 28.2721 32.373Z" fill="#71BBFF"/>
<path opacity="0.5" d="M28.2712 42.8457C27.6204 42.8457 26.9695 42.9911 26.4716 43.2802C25.9755 43.5693 25.7266 43.95 25.7266 44.3288C25.7266 44.7077 25.9755 45.0883 26.4716 45.3774C26.9678 45.6665 27.6186 45.812 28.2712 45.812C28.922 45.812 29.5728 45.6665 30.0707 45.3774C30.5668 45.0883 30.8158 44.7077 30.8158 44.3288C30.8158 43.95 30.5668 43.5693 30.0707 43.2802C29.5746 42.9911 28.922 42.8457 28.2712 42.8457Z" fill="#FFB9F8"/>
<path d="M28.2721 44.1584C27.9591 44.1584 27.6444 44.2284 27.4061 44.3685C27.166 44.5085 27.0469 44.6917 27.0469 44.873C27.0469 45.0562 27.166 45.2393 27.4061 45.3776C27.6461 45.5176 27.9591 45.5876 28.2721 45.5876C28.585 45.5876 28.8998 45.5176 29.138 45.3776C29.3781 45.2375 29.4972 45.0544 29.4972 44.873C29.4972 44.6917 29.3781 44.5067 29.138 44.3685C28.898 44.2284 28.585 44.1584 28.2721 44.1584Z" fill="#71BBFF"/>
<path opacity="0.5" d="M28.2712 54.631C27.6204 54.631 26.9695 54.7765 26.4716 55.0656C25.9755 55.3546 25.7266 55.7353 25.7266 56.1142C25.7266 56.493 25.9755 56.8737 26.4716 57.1628C26.9678 57.4519 27.6186 57.5973 28.2712 57.5973C28.9238 57.5973 29.5728 57.4519 30.0707 57.1628C30.5668 56.8737 30.8158 56.493 30.8158 56.1142C30.8158 55.7353 30.5668 55.3546 30.0707 55.0656C29.5746 54.7765 28.922 54.631 28.2712 54.631Z" fill="#FFB9F8"/>
<path d="M28.2721 55.9437C27.9591 55.9437 27.6444 56.0138 27.4061 56.1538C27.166 56.2939 27.0469 56.477 27.0469 56.6584C27.0469 56.8415 27.166 57.0246 27.4061 57.1629C27.6461 57.303 27.9591 57.373 28.2721 57.373C28.585 57.373 28.8998 57.303 29.138 57.1629C29.3781 57.0229 29.4972 56.8397 29.4972 56.6584C29.4972 56.477 29.3781 56.2921 29.138 56.1538C28.898 56.0138 28.585 55.9437 28.2721 55.9437Z" fill="#71BBFF"/>
<path opacity="0.5" d="M18.1618 36.9521C17.511 36.9521 16.8602 37.0976 16.3623 37.3867C15.8661 37.6758 15.6172 38.0564 15.6172 38.4353C15.6172 38.8141 15.8661 39.1948 16.3623 39.4839C16.8584 39.773 17.5092 39.9184 18.1618 39.9184C18.8126 39.9184 19.4634 39.773 19.9613 39.4839C20.4575 39.1948 20.7064 38.8141 20.7064 38.4353C20.7064 38.0564 20.4575 37.6758 19.9613 37.3867C19.4652 37.0976 18.8126 36.9521 18.1618 36.9521Z" fill="#FFB9F8"/>
<path d="M18.1627 38.2666C17.8497 38.2666 17.535 38.3366 17.2967 38.4767C17.0566 38.6167 16.9375 38.7999 16.9375 38.9812C16.9375 39.1644 17.0566 39.3475 17.2967 39.4858C17.5368 39.6258 17.8497 39.6959 18.1627 39.6959C18.4756 39.6959 18.7904 39.6258 19.0287 39.4858C19.2687 39.3457 19.3879 39.1626 19.3879 38.9812C19.3879 38.7981 19.2687 38.6149 19.0287 38.4767C18.7886 38.3366 18.4756 38.2666 18.1627 38.2666Z" fill="#71BBFF"/>
<path opacity="0.5" d="M18.1618 48.7375C17.511 48.7375 16.8602 48.8829 16.3623 49.172C15.8661 49.4611 15.6172 49.8418 15.6172 50.2206C15.6172 50.5995 15.8661 50.9801 16.3623 51.2692C16.8584 51.5583 17.5092 51.7037 18.1618 51.7037C18.8144 51.7037 19.4634 51.5583 19.9613 51.2692C20.4575 50.9801 20.7064 50.5995 20.7064 50.2206C20.7064 49.8418 20.4575 49.4611 19.9613 49.172C19.4652 48.8829 18.8126 48.7375 18.1618 48.7375Z" fill="#FFB9F8"/>
<path d="M18.1627 50.0519C17.8497 50.0519 17.535 50.122 17.2967 50.262C17.0566 50.4021 16.9375 50.5852 16.9375 50.7666C16.9375 50.9497 17.0566 51.1329 17.2967 51.2711C17.5368 51.4112 17.8497 51.4812 18.1627 51.4812C18.4756 51.4812 18.7904 51.4112 19.0287 51.2711C19.2687 51.1311 19.3879 50.9479 19.3879 50.7666C19.3879 50.5834 19.2687 50.4003 19.0287 50.262C18.7886 50.122 18.4756 50.0519 18.1627 50.0519Z" fill="#71BBFF"/>
<rect x="60.5" y="28.0027" width="7" height="7" fill="#FFE665"/>
<rect x="74.5" y="28.0027" width="7" height="7" fill="#FFE665"/>
<rect x="88.5" y="42.0041" width="7" height="7" fill="#71BBFF"/>
<rect x="60.5" y="42.0041" width="7" height="7" fill="#FFE665"/>
<rect x="67.5" y="49.0048" width="7" height="7" fill="#FFE665"/>
<rect x="81.5" y="21.002" width="7" height="7" fill="#FFE665"/>
<rect x="67.5" y="21.002" width="7" height="7" fill="#FFB9F8"/>
<rect x="74.5" y="14.0013" width="7" height="7" fill="#FFB9F8"/>
<rect x="81.5" y="7.00067" width="7" height="7" fill="#FFB9F8"/>
<rect x="95.5" width="7" height="7" fill="#FFB9F8"/>
<rect x="67.5" y="35.0034" width="7" height="7" fill="#FFE665"/>
<rect x="60.5" y="14.0013" width="7" height="7" fill="#71BBFF"/>
<rect x="53.5" y="7.00067" width="7" height="7" fill="#71BBFF"/>
<rect x="67.5" width="7" height="7" fill="#71BBFF"/>
<rect x="88.5" y="14.0013" width="7" height="7" fill="#71BBFF"/>
</svg>
