<svg width="255" height="134" fill="none" xmlns="http://www.w3.org/2000/svg"><rect width="255" height="134" rx="4" fill="#F5F5F5"/><mask id="a" style="mask-type:alpha" maskUnits="userSpaceOnUse" x="7" y="0" width="223" height="122"><path fill="#D9D9D9" d="M7 0h223v122H7z"/></mask><g mask="url(#a)"><g filter="url(#b)"><path d="m203.972 107.18-67.722 10.824 1.162-10.824h66.56z" fill="url(#c)"/></g><mask id="d" style="mask-type:alpha" maskUnits="userSpaceOnUse" x="-23" y="-119" width="183" height="227"><path fill-rule="evenodd" clip-rule="evenodd" d="m-3.51-2.973-19.046-22.61L87.68-118.512l49.457 58.71c-.38 6.207-.155 12.204 2.121 17.56 1.106 2.602 2.671 4.963 4.231 7.316 2.359 3.558 4.706 7.098 5.438 11.426.859 5.093-.641 10.51-2.145 15.942-1.406 5.075-2.814 10.161-2.303 15.005.575 5.462 3.541 10.01 6.416 14.4.898 1.375 1.8 2.77 2.63 4.207h1.978a4 4 0 0 1 4 4v73.413a4 4 0 0 1-4 4h-47.805a4 4 0 0 1-4-4V79.414c-1.746-.752-3.257-1.768-4.278-3.351-1.783-2.762-1.603-6.61-1.427-10.36.22-4.676.431-9.198-3.181-11.266-2.309-1.321-5.278-.944-8.274-.563-2.628.333-5.277.67-7.52-.135-4.019-1.438-5.14-5.643-6.284-9.926-.582-2.183-1.17-4.386-2.15-6.254-3.498-6.68-11.534-8.447-19.647-10.23-7.52-1.654-15.105-3.322-19.207-8.928-.99-1.358-1.72-2.891-2.453-4.426-.52-1.092-1.04-2.184-1.655-3.215C22.268 1.758 10.641-1.452-.527-2.676c-.985-.108-1.983-.206-2.983-.297z" fill="#2C2A26"/></mask><g mask="url(#d)"><g filter="url(#e)"><path d="M-131.325 109.379c.189-16.594.558-33.226.656-49.8.175-15.79 10.226-20.57 42.583-27.186C-13.638 17.249 60.926.56 135.482-15.687c12.892-2.796 23.271-.409 23.175 5.33-.685 40.81-1.37 81.66-1.875 122.431l-288.107-2.695z" fill="#FFB9F8"/></g><g filter="url(#f)"><path d="M-143.501-36.706c-.008-.004-.013.007-.006.013 32.46 27.003 76.077 55.772 126.082 82.72 1.462.788 2.929 1.573 4.4 2.356C.733 55.707 8.927 72.609 5.6 87.549c-4.117 18.497-23.566 25.116-39.582 13.571l-101.123-72.894c-11.36-8.19-17.319-23.15-14.504-36.313 2.039-9.534 4.067-19.073 6.112-28.609.001-.004-.001-.009-.005-.01z" fill="#FFE665"/></g><g filter="url(#g)"><path d="M-52.37 69.486c-17.784-21.568-35.585-43.12-53.395-64.7 19.48 13.306 39.567 29.097 58.981 45.344C-29.354 64.725-11.61 80.164 5.34 90.23c14.322 8.508 27.045 12.632 39.088 14.93 21.243 14.135 41.12 23.111 59.428 26.417 13.687 2.467 10.196-5.639 19.139-10.025-17.157-11.906 3.065-14.474 20.338-3.164 7.075 4.632 3.782 4.583 10.535 7.897 4.719 2.298 9.807 9.983 13.943 10.879 18.864 4.032 52.579 39.487 69.985 40.699-3.413 19.537-55.254-17.916-67.873-8.882-40.318-26.609-47.091-17.451-81.115-25.464a255.38 255.38 0 0 0-8.323-1.781L-36.46 87.745a464.275 464.275 0 0 1-15.909-18.26z" fill="#71BBFF"/></g><g filter="url(#h)"><path d="M155.462 73.157c-.678-1.192-1.602-1.538-2.702-2.854-2.619-.626-.809-2.592 1.331-2.862 3.015-.382 3.072 1.127 4.704 2.184 2.863 1.852 4.479 3.31 8.068 4.79 2.637 1.088 9.86 1.226 12.964 1.084 4.624-.213 6.396 4.755 8.316 6.828 2.767 2.988 3.596 6.019 8.083 8.222 4.446 2.183 9.884 3.06 14.931 4.345 5.583 1.423 9.715 2.536 13.159 6.254 2.922 3.156-.949 5.859-2.88 8.147-1.903 2.253-8.375 2.446-11.808 2.745-4.44.386-7.332-.607-11.404-1.754-4.533-1.277-7.092-5.325-11.459-6.555-3.469-.977-10.479-1.422-12.281-4.118-3.554-5.319-4.543-10.281-12.642-13.623-3.089-1.274-3.848-5.913-4.375-8.201-.413-1.796-1.081-3.005-2.005-4.632z" fill="#71BBFF"/></g><g filter="url(#i)"><path d="M-77.007 63.74c26.81 7.173 68.695 23.018 83.616 44.225-16.601 16.356-26.015-22.274-42.617-5.918l-40.157-14.885C-84.68 75.81-91.45 77.97-77.007 63.74z" fill="#0A9F68"/></g><g filter="url(#j)"><path d="M-56.984-14.004c-1.185-1.43-1.107-2.65-2.333-4.145-1.227-1.496-4.707-5.49-4.404-6.092.438-.87-.614-2.959 2.384-2.579 2.899.367 7.162 2.396 10.319 3.733 11.587 4.909 22.918 10.94 34.191 16.31C-11.126-4.062-5.145-1.973.696.657c2.847 1.282 4.206 2.469 7.377 3.55 3.045 1.038 5.929 2.442 8.865 3.764 7.106 3.2 13.688 5.029 20.964 7.386 8.033 2.602 18.715 7.908 26.2 11.67 23.921 12.026 39.346 26.121 58.44 39.556 7.406 5.212 13.439 10.588 21.456 15.7 8.445 5.383 17.898 9.682 27.625 14.062 16.586 7.469 34.945 15.465 50.192 24.174 7.065 4.036 13.224 8.069 17.358 12.636 4.455 4.922-.033 9.805-6.164 10.363-3.404.31-11.701-1.889-16.264-3.113-4.841-1.299-9.704-2.867-14.574-4.483-18.184-6.034-36.432-15.115-52.035-24.37-19.588-11.618-39.382-17.715-60.733-26.69-10.244-4.305-20.09-9.13-29.864-13.878-6.479-3.147-11.404-8.117-16.348-11.724C29.299 49.124 21.264 38.898 4.97 29.265-2.594 24.794-10.582 20.3-19.005 16.44c-4.581-2.1-11.467-5.169-15.07-7.928-6.698-5.129-15.313-11.13-18.298-16.23-1.089-1.859-3.028-4.377-4.611-6.286z" fill="#FFE665"/></g><g filter="url(#k)"><path d="M144.37 86.518c.194.482.044.966.243 1.472s.79 1.842.639 2.099c-.218.37-.131 1.121-.96 1.173-.801.05-1.824-.46-2.599-.774-2.843-1.15-5.495-2.76-8.2-4.113-1.367-.685-2.882-1.104-4.299-1.745-.691-.313-.96-.688-1.766-.9-.773-.203-1.462-.561-2.175-.883-1.723-.78-3.439-1.057-5.3-1.495-2.055-.483-4.595-1.851-6.37-2.827-5.673-3.12-8.668-7.623-12.795-11.62-1.601-1.552-2.787-3.259-4.576-4.73-1.883-1.548-4.172-2.603-6.532-3.67-4.024-1.822-8.507-3.731-12.013-6.13-1.625-1.112-2.988-2.283-3.708-3.8-.776-1.635 1.034-3.856 2.868-4.487 1.018-.35 3.192-.043 4.386.131 1.266.185 2.511.475 3.753.783 4.637 1.15 8.974 3.493 12.526 6.083 4.46 3.25 9.557 4.316 14.804 6.41 2.517 1.004 4.865 2.239 7.201 3.448 1.547.802 2.455 2.424 3.51 3.51 2.965 3.05 4.224 6.53 7.938 9.22 1.724 1.25 3.568 2.48 5.605 3.43 1.107.518 2.781 1.262 3.537 2.104 1.404 1.566 3.273 3.346 3.604 5.15.121.657.42 1.517.679 2.16z" fill="#0A9F68"/></g><g filter="url(#l)"><path d="M172.274 73.144c.193.482.043.967.242 1.472.199.506.79 1.842.639 2.099-.217.371-.131 1.121-.96 1.174-.801.05-1.824-.461-2.598-.774-2.844-1.151-5.496-2.76-8.2-4.114-1.368-.684-2.882-1.103-4.3-1.745-.69-.312-.96-.687-1.765-.9-.774-.203-1.463-.56-2.175-.883-1.724-.78-3.44-1.057-5.301-1.495-2.055-.483-4.595-1.85-6.37-2.827-5.673-3.119-8.668-7.622-12.795-11.62-1.601-1.551-2.787-3.258-4.575-4.729-1.884-1.549-4.173-2.603-6.533-3.671-4.024-1.821-8.506-3.73-12.013-6.13-1.625-1.111-2.988-2.282-3.708-3.8-.776-1.635 1.034-3.855 2.868-4.486 1.018-.35 3.192-.044 4.386.13 1.266.186 2.511.476 3.753.784 4.637 1.15 8.974 3.493 12.527 6.082 4.46 3.25 9.557 4.317 14.804 6.41 2.517 1.004 4.865 2.24 7.2 3.449 1.548.801 2.455 2.424 3.511 3.51 2.965 3.05 4.224 6.529 7.937 9.22 1.724 1.25 3.568 2.48 5.605 3.43 1.108.518 2.782 1.261 3.537 2.104 1.404 1.566 3.273 3.345 3.605 5.15.121.657.42 1.516.679 2.16z" fill="#FFE665"/></g><g filter="url(#m)"><path d="M167.004 99.99c-.678-1.192-1.602-1.538-2.702-2.854-2.619-.626-.809-2.592 1.331-2.862 3.015-.382 3.072 1.127 4.704 2.184 2.863 1.852 4.479 3.31 8.068 4.79 2.637 1.088 9.86 1.227 12.964 1.084 4.624-.213 6.395 4.755 8.316 6.828 2.767 2.988 3.596 6.019 8.083 8.222 4.446 2.183 9.884 3.059 14.931 4.345 5.583 1.423 9.715 2.536 13.159 6.254 2.922 3.156-.949 5.859-2.88 8.147-1.903 2.253-8.375 2.446-11.808 2.745-4.44.386-7.332-.607-11.404-1.754-4.533-1.277-7.092-5.325-11.459-6.555-3.469-.977-10.479-1.422-12.281-4.118-3.554-5.319-4.543-10.282-12.642-13.623-3.089-1.274-3.848-5.913-4.375-8.201-.413-1.796-1.081-3.005-2.005-4.632z" fill="#0A9F68"/></g><g filter="url(#n)"><path d="M167.298 41.489c1.679 2.304 3.678 2.792 6.263 5.249 5.578.649 2.273 5.172-2.107 6.264-6.169 1.536-6.633-1.578-10.264-3.364-6.367-3.132-10.055-5.753-17.844-7.934-5.723-1.603-20.746-.102-27.156.963-9.548 1.586-14.364-8.276-18.825-12.099-6.428-5.509-8.845-11.588-18.663-15.044-9.728-3.425-21.217-3.896-31.986-5.313C34.802 8.644 25.97 7.36 17.97.503c-6.79-5.82.625-12.381 4.109-17.603 3.431-5.143 16.821-7.144 23.876-8.613 9.128-1.9 15.358-.558 24.073.812 9.7 1.525 15.94 9.284 25.287 10.753 7.423 1.166 22.075.355 26.433 5.498 8.597 10.147 11.788 20.19 29.365 25.113 6.702 1.877 9.343 11.306 10.961 15.92 1.269 3.622 2.933 5.962 5.224 9.106z" fill="#71BBFF"/></g></g><path opacity=".5" d="M159.503 30.053a4 4 0 0 0-4-4h-47.805a4 4 0 0 0-4 4v73.412a4 4 0 0 0 4 4h47.805a4 4 0 0 0 4-4V30.053z" fill="url(#o)"/><path d="m159.503 26.051-23.834-11.049v103.51l23.834-11.049V26.051z" fill="url(#p)"/><path d="m133.345 15.584 2.325-.582v103.51l-2.325-.581V15.584z" fill="#fff"/><path d="M140.503 79.155c.24-.243.398-.666.398-1.146 0-.754-.39-1.365-.872-1.365-.481 0-.872.61-.872 1.365 0 .487.163.914.408 1.156l-.408 2.712 1.744-.227-.398-2.495z" fill="#7D7D7D"/><ellipse cx="8.02" cy="4.902" rx="8.02" ry="4.902" transform="rotate(26.138 -43.583 135.229) skewX(.017)" fill="#FFE665"/><ellipse cx="10.215" cy="4.473" rx="10.215" ry="4.473" transform="rotate(46.918 23.336 88.264) skewX(.021)" fill="#F5F5F5"/><ellipse cx="3.418" cy="2.996" rx="3.418" ry="2.996" transform="rotate(26.138 -73.42 222.795) skewX(.017)" fill="#0A9F68"/><ellipse cx="3.115" cy="2.074" rx="3.115" ry="2.074" transform="matrix(-.89774 -.44053 -.44027 .89787 47.174 34.61)" fill="#FFB9F8"/></g><defs><filter id="k" x="65.774" y="35.928" width="87.502" height="63.338" filterUnits="userSpaceOnUse" color-interpolation-filters="sRGB"><feFlood flood-opacity="0" result="BackgroundImageFix"/><feBlend in="SourceGraphic" in2="BackgroundImageFix" result="shape"/><feGaussianBlur stdDeviation="4" result="effect1_foregroundBlur_9940_4328"/></filter><filter id="b" x="132.25" y="103.18" width="75.722" height="18.824" filterUnits="userSpaceOnUse" color-interpolation-filters="sRGB"><feFlood flood-opacity="0" result="BackgroundImageFix"/><feBlend in="SourceGraphic" in2="BackgroundImageFix" result="shape"/><feGaussianBlur stdDeviation="2" result="effect1_foregroundBlur_9940_4328"/></filter><filter id="f" x="-158.3" y="-44.707" width="172.64" height="159.551" filterUnits="userSpaceOnUse" color-interpolation-filters="sRGB"><feFlood flood-opacity="0" result="BackgroundImageFix"/><feBlend in="SourceGraphic" in2="BackgroundImageFix" result="shape"/><feGaussianBlur stdDeviation="4" result="effect1_foregroundBlur_9940_4328"/></filter><filter id="g" x="-113.765" y="-3.213" width="359.561" height="194.803" filterUnits="userSpaceOnUse" color-interpolation-filters="sRGB"><feFlood flood-opacity="0" result="BackgroundImageFix"/><feBlend in="SourceGraphic" in2="BackgroundImageFix" result="shape"/><feGaussianBlur stdDeviation="4" result="effect1_foregroundBlur_9940_4328"/></filter><filter id="h" x="143.462" y="59.38" width="89.909" height="60.744" filterUnits="userSpaceOnUse" color-interpolation-filters="sRGB"><feFlood flood-opacity="0" result="BackgroundImageFix"/><feBlend in="SourceGraphic" in2="BackgroundImageFix" result="shape"/><feGaussianBlur stdDeviation="4" result="effect1_foregroundBlur_9940_4328"/></filter><filter id="i" x="-93.422" y="55.739" width="108.031" height="64.355" filterUnits="userSpaceOnUse" color-interpolation-filters="sRGB"><feFlood flood-opacity="0" result="BackgroundImageFix"/><feBlend in="SourceGraphic" in2="BackgroundImageFix" result="shape"/><feGaussianBlur stdDeviation="4" result="effect1_foregroundBlur_9940_4328"/></filter><filter id="j" x="-71.739" y="-34.866" width="320.711" height="186.414" filterUnits="userSpaceOnUse" color-interpolation-filters="sRGB"><feFlood flood-opacity="0" result="BackgroundImageFix"/><feBlend in="SourceGraphic" in2="BackgroundImageFix" result="shape"/><feGaussianBlur stdDeviation="4" result="effect1_foregroundBlur_9940_4328"/></filter><filter id="e" x="-139.325" y="-24.857" width="305.983" height="144.931" filterUnits="userSpaceOnUse" color-interpolation-filters="sRGB"><feFlood flood-opacity="0" result="BackgroundImageFix"/><feBlend in="SourceGraphic" in2="BackgroundImageFix" result="shape"/><feGaussianBlur stdDeviation="4" result="effect1_foregroundBlur_9940_4328"/></filter><filter id="l" x="93.678" y="22.554" width="87.502" height="63.338" filterUnits="userSpaceOnUse" color-interpolation-filters="sRGB"><feFlood flood-opacity="0" result="BackgroundImageFix"/><feBlend in="SourceGraphic" in2="BackgroundImageFix" result="shape"/><feGaussianBlur stdDeviation="4" result="effect1_foregroundBlur_9940_4328"/></filter><filter id="m" x="155.004" y="86.213" width="89.909" height="60.744" filterUnits="userSpaceOnUse" color-interpolation-filters="sRGB"><feFlood flood-opacity="0" result="BackgroundImageFix"/><feBlend in="SourceGraphic" in2="BackgroundImageFix" result="shape"/><feGaussianBlur stdDeviation="4" result="effect1_foregroundBlur_9940_4328"/></filter><filter id="n" x="7.204" y="-34.655" width="177.297" height="96.07" filterUnits="userSpaceOnUse" color-interpolation-filters="sRGB"><feFlood flood-opacity="0" result="BackgroundImageFix"/><feBlend in="SourceGraphic" in2="BackgroundImageFix" result="shape"/><feGaussianBlur stdDeviation="4" result="effect1_foregroundBlur_9940_4328"/></filter><linearGradient id="c" x1="156.886" y1="103.975" x2="194.158" y2="92.356" gradientUnits="userSpaceOnUse"><stop stop-color="#32302F" stop-opacity=".23"/><stop offset="1" stop-color="#BCBCBC" stop-opacity="0"/></linearGradient><linearGradient id="o" x1="91.49" y1="5.7" x2="115.338" y2="55.994" gradientUnits="userSpaceOnUse"><stop stop-color="#fff"/><stop offset="1" stop-color="#fff" stop-opacity="0"/></linearGradient><linearGradient id="p" x1="147.586" y1="15.002" x2="147.586" y2="118.512" gradientUnits="userSpaceOnUse"><stop stop-color="#C9C9C9"/><stop offset="1" stop-color="#DFDFDF"/></linearGradient></defs></svg>
