<svg width="144" height="112" viewBox="0 0 144 112" fill="none" xmlns="http://www.w3.org/2000/svg">
<g filter="url(#filter0_f_2597_23888)">
<path d="M142 97.7157L61.5576 103L84.4456 97.7158L142 97.7157Z" fill="url(#paint0_linear_2597_23888)"/>
</g>
<mask id="mask0_2597_23888" style="mask-type:alpha" maskUnits="userSpaceOnUse" x="20" y="0" width="84" height="98">
<path fill-rule="evenodd" clip-rule="evenodd" d="M55.2916 73.296V93.967C55.2916 96.1762 57.0825 97.967 59.2916 97.967H99.5469C101.756 97.967 103.547 96.1762 103.547 93.967V31.4727C103.547 29.2635 101.756 27.4727 99.5469 27.4727H87.8403C88.0257 27.2464 88.2578 27.0146 88.5174 26.7553C89.9168 25.3572 92.1151 23.161 92.1151 16.7457C91.9566 16.2694 91.8285 15.7838 91.7005 15.2983C91.5219 14.6215 91.3435 13.945 91.0827 13.2943C89.1012 8.28439 82.6026 6.11775 78.093 9.05222C77.7157 9.29732 77.346 9.55777 76.9765 9.81812C75.9707 10.5268 74.9661 11.2346 73.8112 11.6294C70.0305 12.9218 65.6652 10.7475 63.4256 7.70662C62.9208 7.01956 62.4606 6.26891 61.9974 5.51327C60.6769 3.35929 59.3315 1.16478 56.8586 0.28682C53.0779 -1.05878 51.2786 2.60551 50.3676 5.55518C49.1225 9.59958 44.1347 11.713 40.1414 10.8616C39.8945 10.809 39.6502 10.7563 39.4081 10.7041C35.9067 9.94891 32.8791 9.29593 29.3002 10.5119C26.2331 11.5534 23.1736 13.644 22.0045 16.7989C20.7594 20.1667 20.6531 24.1047 21.4503 27.5941C21.9537 29.792 23.1044 31.5342 24.2667 33.2938C25.0502 34.4799 25.839 35.674 26.4381 37.0209C27 38.2819 27.3975 39.8343 27.8104 41.4469C28.8091 45.347 29.8979 49.5992 33.62 50.9331C35.561 51.6295 37.8519 51.3378 40.1246 51.0484C42.7143 50.7186 45.2803 50.3918 47.2777 51.5336C50.3986 53.3218 50.2156 57.2344 50.0264 61.2817C49.8746 64.5299 49.7187 67.8649 51.2634 70.258C52.2108 71.7269 53.643 72.6317 55.2916 73.296Z" fill="#2C2A26"/>
</mask>
<g mask="url(#mask0_2597_23888)">
<g filter="url(#filter1_f_2597_23888)">
<path d="M-201.497 131.208C-201.282 112.283 -200.862 93.3123 -200.75 74.4088C-200.55 56.3984 -189.103 50.9485 -152.247 43.4016C-67.4515 26.1285 17.4762 7.09404 102.396 -11.437C117.079 -14.6255 128.901 -11.9028 128.792 -5.35796C128.012 41.1884 127.231 87.7805 126.656 134.282L-201.497 131.208Z" fill="#FFB9F8"/>
</g>
<g filter="url(#filter2_f_2597_23888)">
<path d="M-111.567 85.7081C-131.823 61.1093 -152.099 36.5284 -172.384 11.9149C-150.196 27.09 -127.318 45.1012 -105.204 63.6322C-85.3526 80.2779 -65.1429 97.8877 -45.8356 109.367C-29.523 119.071 -15.0313 123.774 -1.31513 126.396C22.8812 142.518 45.5202 152.755 66.3736 156.526C81.9634 159.339 77.9867 150.094 88.1727 145.091C68.6312 131.512 91.6637 128.583 111.338 141.483C119.396 146.766 115.645 146.71 123.337 150.489C128.712 153.111 134.507 161.876 139.218 162.897C160.704 167.496 199.106 207.935 218.931 209.318C215.044 231.601 155.997 188.883 141.623 199.187C95.7022 168.838 87.9866 179.283 49.2338 170.144C46.0444 169.397 42.8945 168.738 39.7546 168.113L-93.4473 106.534C-99.6662 99.7487 -105.716 92.8019 -111.567 85.7081Z" fill="#71BBFF"/>
</g>
<g filter="url(#filter3_f_2597_23888)">
<path d="M-116.824 -9.51854C-118.174 -11.1494 -118.084 -12.5401 -119.481 -14.2462C-120.878 -15.9524 -124.842 -20.508 -124.497 -21.1946C-123.998 -22.1868 -125.196 -24.569 -121.781 -24.1357C-118.48 -23.717 -113.624 -21.4031 -110.029 -19.8779C-96.8312 -14.2796 -83.9248 -7.3998 -71.0845 -1.27562C-64.5911 1.82141 -57.7796 4.20312 -51.126 7.20334C-47.8837 8.66537 -46.3358 10.0192 -42.7241 11.2523C-39.2557 12.4365 -35.9707 14.0372 -32.6263 15.5453C-24.5331 19.1947 -17.0364 21.2806 -8.74833 23.9691C0.401166 26.9369 12.5671 32.9887 21.0931 37.2805C48.339 50.9957 65.9084 67.0723 87.6554 82.3961C96.0914 88.3405 102.963 94.4715 112.095 100.302C121.713 106.442 132.48 111.345 143.558 116.341C162.45 124.86 183.361 133.98 200.727 143.913C208.775 148.516 215.79 153.116 220.498 158.325C225.572 163.939 220.46 169.508 213.478 170.145C209.601 170.498 200.15 167.99 194.952 166.593C189.439 165.112 183.9 163.324 178.352 161.48C157.641 154.598 136.857 144.241 119.085 133.685C96.7751 120.434 74.2291 113.481 49.9102 103.245C38.2433 98.3342 27.0289 92.8306 15.8959 87.4153C8.5165 83.8258 2.90652 78.1572 -2.72472 74.043C-18.548 62.4823 -27.6992 50.8188 -46.2572 39.8327C-54.8731 34.7322 -63.9716 29.6064 -73.5653 25.2046C-78.7834 22.8104 -86.6268 19.3095 -90.7308 16.1624C-98.3598 10.3123 -108.172 3.46824 -111.572 -2.3481C-112.812 -4.46905 -115.021 -7.34067 -116.824 -9.51854Z" fill="#FFE665"/>
</g>
<g filter="url(#filter4_f_2597_23888)">
<path d="M112.519 105.132C112.74 105.682 112.569 106.234 112.795 106.811C113.022 107.387 113.695 108.911 113.523 109.204C113.275 109.628 113.374 110.483 112.43 110.543C111.517 110.6 110.352 110.017 109.47 109.66C106.231 108.347 103.21 106.512 100.13 104.968C98.572 104.188 96.8475 103.71 95.2332 102.978C94.4465 102.622 94.1394 102.194 93.2219 101.952C92.3408 101.72 91.5562 101.312 90.7448 100.944C88.7813 100.054 86.8274 99.7388 84.7071 99.2397C82.3665 98.6887 79.4739 97.1285 77.452 96.0153C70.9908 92.4576 67.5788 87.3211 62.8782 82.7613C61.0548 80.9925 59.7039 79.0452 57.6672 77.3681C55.5218 75.6016 52.9143 74.3989 50.2266 73.1808C45.6431 71.1035 40.5377 68.9256 36.5436 66.1898C34.6927 64.922 33.1406 63.586 32.3203 61.8556C31.4361 59.9905 33.498 57.4579 35.5869 56.738C36.7468 56.3384 39.2225 56.6885 40.5825 56.8877C42.0249 57.0989 43.4429 57.4293 44.8574 57.7806C50.1386 59.0923 55.0784 61.765 59.125 64.7181C64.2049 68.4255 70.0102 69.6417 75.9866 72.0288C78.8537 73.1741 81.5279 74.5827 84.1877 75.9622C85.9508 76.8766 86.9844 78.7271 88.1863 79.9653C91.5636 83.4445 92.9976 87.4128 97.227 90.4823C99.1905 91.9073 101.291 93.3099 103.611 94.3945C104.873 94.9845 106.779 95.8328 107.64 96.7936C109.239 98.5797 111.368 100.609 111.746 102.667C111.883 103.417 112.224 104.397 112.519 105.132Z" fill="#0A9F68"/>
</g>
<g filter="url(#filter5_f_2597_23888)">
<path d="M144.3 89.8796C144.521 90.4297 144.35 90.9823 144.576 91.5589C144.803 92.1355 145.476 93.6592 145.304 93.9523C145.056 94.3758 145.155 95.2314 144.211 95.2909C143.298 95.3483 142.133 94.7655 141.251 94.4079C138.012 93.0954 134.991 91.2597 131.911 89.7164C130.353 88.936 128.629 88.4581 127.014 87.7265C126.228 87.37 125.921 86.942 125.003 86.7003C124.122 86.4682 123.337 86.0601 122.526 85.6923C120.563 84.8024 118.609 84.4869 116.488 83.9877C114.148 83.4367 111.255 81.8766 109.233 80.7633C102.772 77.2057 99.3601 72.0691 94.6595 67.5094C92.8361 65.7406 91.4852 63.7932 89.4484 62.1161C87.3031 60.3496 84.6956 59.1469 82.0079 57.9288C77.4243 55.8515 72.3189 53.6736 68.3249 50.9378C66.474 49.67 64.9219 48.334 64.1015 46.6036C63.2174 44.7385 65.2792 42.2059 67.3682 41.4861C68.5281 41.0864 71.0037 41.4365 72.3637 41.6357C73.8061 41.847 75.2242 42.1774 76.6386 42.5287C81.9198 43.8404 86.8597 46.513 90.9062 49.4662C95.9862 53.1735 101.791 54.3897 107.768 56.7769C110.635 57.9221 113.309 59.3308 115.969 60.7103C117.732 61.6246 118.766 63.4751 119.968 64.7133C123.345 68.1925 124.779 72.1609 129.008 75.2303C130.972 76.6553 133.072 78.0579 135.392 79.1426C136.654 79.7326 138.561 80.5809 139.421 81.5417C141.021 83.3277 143.149 85.3575 143.527 87.4148C143.665 88.1649 144.005 89.1449 144.3 89.8796Z" fill="#FFE665"/>
</g>
<g filter="url(#filter6_f_2597_23888)">
<path d="M138.633 53.7736C140.546 56.4017 142.822 56.9579 145.767 59.7602C152.12 60.5003 148.356 65.6597 143.367 66.9045C136.34 68.6574 135.811 65.1048 131.676 63.0678C124.424 59.4962 120.224 56.5062 111.352 54.0186C104.833 52.1906 87.722 53.9024 80.4213 55.1169C69.5458 56.926 64.0606 45.6786 58.9794 41.318C51.6574 35.0345 48.905 28.1009 37.7224 24.1587C26.6418 20.2524 13.5566 19.7152 1.29035 18.0996C-12.2796 16.3123 -22.3387 14.8463 -31.4512 7.02622C-39.185 0.389237 -30.7396 -7.09456 -26.7712 -13.0505C-22.8629 -18.9163 -7.61174 -21.1983 0.423898 -22.8741C10.8206 -25.0422 17.9162 -23.5105 27.8426 -21.9482C38.8921 -20.2091 45.9993 -11.3595 56.6441 -9.68407C65.0997 -8.35323 81.7883 -9.27883 86.7511 -3.41321C96.5435 8.16062 100.178 19.616 120.198 25.2298C127.832 27.3705 130.84 38.1249 132.682 43.388C134.129 47.5187 136.023 50.1873 138.633 53.7736Z" fill="#71BBFF"/>
</g>
</g>
<path opacity="0.5" d="M103.547 31.4688C103.547 29.2596 101.756 27.4688 99.5469 27.4688H59.2916C57.0825 27.4688 55.2916 29.2596 55.2916 31.4688V93.9631C55.2916 96.1723 57.0825 97.9631 59.2916 97.9631H99.5469C101.756 97.9631 103.547 96.1723 103.547 93.9631V31.4688Z" fill="url(#paint1_linear_2597_23888)"/>
<path d="M103.547 27.4658L63.4558 22.7949V102.619L103.547 97.9602V27.4658Z" fill="url(#paint2_linear_2597_23888)"/>
<path d="M61.9375 23.2453L63.4559 22.7969V102.621L61.9375 102.172V23.2453Z" fill="white"/>
<path d="M70.3149 65.3193C70.7272 64.9009 71 64.1742 71 63.3478C71 62.0512 70.3284 61 69.5 61C68.6716 61 68 62.0512 68 63.3478C68 64.1849 68.2799 64.9197 68.7012 65.3354L68 70L71 69.6087L70.3149 65.3193Z" fill="#7D7D7D"/>
<ellipse cx="9.23391" cy="5.64894" rx="9.23391" ry="5.64894" transform="matrix(0.8975 0.441015 -0.439783 0.898104 7.84473 30.4492)" fill="#FFE665"/>
<ellipse cx="7.48413" cy="3.87026" rx="7.48413" ry="3.87026" transform="matrix(0.682548 0.73084 -0.729658 0.683812 31.6484 16)" fill="#F5F5F5"/>
<ellipse cx="2.95618" cy="2.59322" rx="2.95618" ry="2.59322" transform="matrix(0.8975 0.441015 -0.439783 0.898104 44.002 52.6426)" fill="#0A9F68"/>
<ellipse cx="2.69447" cy="1.79561" rx="2.69447" ry="1.79561" transform="matrix(-0.8975 -0.441015 -0.439783 0.898104 72.1494 6.16797)" fill="#71BBFF"/>
<defs>
<filter id="filter0_f_2597_23888" x="59.5576" y="95.7158" width="84.4424" height="9.28418" filterUnits="userSpaceOnUse" color-interpolation-filters="sRGB">
<feFlood flood-opacity="0" result="BackgroundImageFix"/>
<feBlend mode="normal" in="SourceGraphic" in2="BackgroundImageFix" result="shape"/>
<feGaussianBlur stdDeviation="1" result="effect1_foregroundBlur_2597_23888"/>
</filter>
<filter id="filter1_f_2597_23888" x="-209.497" y="-20.771" width="346.289" height="163.053" filterUnits="userSpaceOnUse" color-interpolation-filters="sRGB">
<feFlood flood-opacity="0" result="BackgroundImageFix"/>
<feBlend mode="normal" in="SourceGraphic" in2="BackgroundImageFix" result="shape"/>
<feGaussianBlur stdDeviation="4" result="effect1_foregroundBlur_2597_23888"/>
</filter>
<filter id="filter2_f_2597_23888" x="-180.384" y="3.91504" width="407.314" height="219.935" filterUnits="userSpaceOnUse" color-interpolation-filters="sRGB">
<feFlood flood-opacity="0" result="BackgroundImageFix"/>
<feBlend mode="normal" in="SourceGraphic" in2="BackgroundImageFix" result="shape"/>
<feGaussianBlur stdDeviation="4" result="effect1_foregroundBlur_2597_23888"/>
</filter>
<filter id="filter3_f_2597_23888" x="-132.519" y="-32.188" width="363.065" height="210.366" filterUnits="userSpaceOnUse" color-interpolation-filters="sRGB">
<feFlood flood-opacity="0" result="BackgroundImageFix"/>
<feBlend mode="normal" in="SourceGraphic" in2="BackgroundImageFix" result="shape"/>
<feGaussianBlur stdDeviation="4" result="effect1_foregroundBlur_2597_23888"/>
</filter>
<filter id="filter4_f_2597_23888" x="24.1104" y="48.5552" width="97.4404" height="69.9917" filterUnits="userSpaceOnUse" color-interpolation-filters="sRGB">
<feFlood flood-opacity="0" result="BackgroundImageFix"/>
<feBlend mode="normal" in="SourceGraphic" in2="BackgroundImageFix" result="shape"/>
<feGaussianBlur stdDeviation="4" result="effect1_foregroundBlur_2597_23888"/>
</filter>
<filter id="filter5_f_2597_23888" x="55.8916" y="33.3032" width="97.4404" height="69.9917" filterUnits="userSpaceOnUse" color-interpolation-filters="sRGB">
<feFlood flood-opacity="0" result="BackgroundImageFix"/>
<feBlend mode="normal" in="SourceGraphic" in2="BackgroundImageFix" result="shape"/>
<feGaussianBlur stdDeviation="4" result="effect1_foregroundBlur_2597_23888"/>
</filter>
<filter id="filter6_f_2597_23888" x="-42.6016" y="-31.9482" width="199.716" height="107.324" filterUnits="userSpaceOnUse" color-interpolation-filters="sRGB">
<feFlood flood-opacity="0" result="BackgroundImageFix"/>
<feBlend mode="normal" in="SourceGraphic" in2="BackgroundImageFix" result="shape"/>
<feGaussianBlur stdDeviation="4" result="effect1_foregroundBlur_2597_23888"/>
</filter>
<linearGradient id="paint0_linear_2597_23888" x1="101.285" y1="94.9408" x2="133.522" y2="84.9048" gradientUnits="userSpaceOnUse">
<stop stop-color="#32302F" stop-opacity="0.23"/>
<stop offset="1" stop-color="#BCBCBC" stop-opacity="0"/>
</linearGradient>
<linearGradient id="paint1_linear_2597_23888" x1="44.7358" y1="9.84515" x2="65.4033" y2="53.3729" gradientUnits="userSpaceOnUse">
<stop stop-color="white"/>
<stop offset="1" stop-color="white" stop-opacity="0"/>
</linearGradient>
<linearGradient id="paint2_linear_2597_23888" x1="93.2424" y1="17.8987" x2="93.2424" y2="107.527" gradientUnits="userSpaceOnUse">
<stop stop-color="#C9C9C9"/>
<stop offset="1" stop-color="#DFDFDF"/>
</linearGradient>
</defs>
</svg>
