<svg width="268" height="90" fill="none" xmlns="http://www.w3.org/2000/svg"><path fill="#444" d="M0 38h67v52H0z"/><path fill-rule="evenodd" clip-rule="evenodd" d="M32.565 49.148a1.432 1.432 0 0 1 1.872 0l5.775 4.996c.31.269.489.657.489 1.068v6.972a1.42 1.42 0 0 1-1.425 1.416H36.1c-.79 0-1.4-.62-1.4-1.4V59a.2.2 0 0 0-.055-.146.197.197 0 0 0-.145-.054h-2a.198.198 0 0 0-.146.054.2.2 0 0 0-.054.146v3.2c0 .78-.61 1.4-1.4 1.4h-3.175a1.42 1.42 0 0 1-1.425-1.416v-6.972c0-.41.18-.8.489-1.068l5.775-4.996zm1.087.907a.232.232 0 0 0-.302 0l-5.775 4.997a.212.212 0 0 0-.074.16v6.972a.22.22 0 0 0 .225.216H30.9c.07 0 .116-.025.145-.055a.2.2 0 0 0 .055-.145V59c0-.78.61-1.4 1.4-1.4h2c.79 0 1.4.62 1.4 1.4v3.2a.2.2 0 0 0 .054.145c.03.03.076.055.146.055h3.175a.22.22 0 0 0 .225-.216v-6.972a.212.212 0 0 0-.075-.16l-5.775-4.997z" fill="#7D7D7D"/><path d="M25.648 72.067V78.2h-.8v-2.78h-3.124v2.78h-.801v-6.133h.8v2.692h3.125v-2.692h.8zm3.56 6.212c-.453 0-.863-.102-1.233-.308a2.238 2.238 0 0 1-.862-.87c-.206-.382-.308-.822-.308-1.32 0-.494.105-.928.317-1.303.217-.381.51-.672.88-.871.37-.206.783-.308 1.24-.308.458 0 .871.102 1.241.308.37.2.66.487.871.862.217.376.326.813.326 1.311 0 .499-.112.939-.334 1.32a2.265 2.265 0 0 1-.89.871 2.562 2.562 0 0 1-1.249.308zm0-.704c.287 0 .556-.067.809-.202a1.51 1.51 0 0 0 .607-.607c.158-.27.238-.599.238-.986s-.077-.716-.23-.985a1.468 1.468 0 0 0-.598-.599 1.64 1.64 0 0 0-.8-.202c-.294 0-.564.067-.81.202-.24.13-.434.329-.58.599-.148.27-.22.598-.22.985 0 .393.07.725.21.995.147.27.34.472.581.607.24.129.505.193.792.193zm9.412-4.285c.376 0 .71.079 1.003.237.294.153.525.385.695.696.17.31.256.689.256 1.135V78.2h-.792v-2.728c0-.48-.12-.847-.361-1.1-.235-.258-.555-.387-.96-.387-.416 0-.747.135-.994.405-.246.264-.37.648-.37 1.153V78.2h-.791v-2.728c0-.48-.12-.847-.361-1.1-.235-.258-.555-.387-.96-.387-.416 0-.747.135-.994.405-.246.264-.37.648-.37 1.153V78.2h-.8v-4.822h.8v.695a1.59 1.59 0 0 1 .634-.58 1.96 1.96 0 0 1 .889-.203c.405 0 .763.09 1.074.273.31.181.542.448.695.8.135-.34.358-.604.669-.792a1.97 1.97 0 0 1 1.038-.281zm7.755 2.314c0 .153-.009.314-.026.484h-3.855c.03.475.191.848.484 1.118.3.264.66.396 1.083.396.346 0 .633-.08.862-.238.235-.164.4-.381.493-.651h.862a2.094 2.094 0 0 1-.774 1.135c-.387.288-.868.431-1.443.431-.458 0-.868-.102-1.232-.308a2.197 2.197 0 0 1-.845-.87c-.205-.382-.308-.822-.308-1.32 0-.5.1-.937.3-1.312.199-.375.477-.663.835-.862.364-.206.78-.308 1.25-.308.457 0 .862.1 1.214.299.352.2.622.475.81.827.193.346.29.74.29 1.18zm-.827-.167c0-.305-.067-.566-.202-.783a1.274 1.274 0 0 0-.555-.502 1.653 1.653 0 0 0-.765-.176 1.5 1.5 0 0 0-1.039.387c-.281.258-.443.616-.484 1.074h3.045z" fill="#7D7D7D"/><path fill="#32302F" d="M67 38h67v52H67z"/><path fill-rule="evenodd" clip-rule="evenodd" d="M99.591 48.581a1 1 0 0 1 1.816 0l1.979 4.29 4.692.557a1 1 0 0 1 .561 1.727l-3.468 3.208.92 4.634c.167.837-.724 1.484-1.469 1.067l-4.123-2.307-4.122 2.307a1 1 0 0 1-1.47-1.067l.921-4.634-3.469-3.208a1 1 0 0 1 .562-1.727l4.691-.557 1.98-4.29zm-2.025 4.392zm7.583 5.28zm-4.65-8.776-1.844 3.999a1 1 0 0 1-.79.574l-4.372.518 3.232 2.99a1 1 0 0 1 .302.929l-.858 4.318 3.842-2.15a1 1 0 0 1 .977 0l3.842 2.15-.858-4.318a.998.998 0 0 1 .302-.93l3.232-2.989-4.372-.518a1 1 0 0 1-.79-.574l-1.845-3.998zm4.415 13.754z" fill="#FFFDFB"/><path d="M84.467 72.067v.65h-2.666v2.069h2.164v.651h-2.164V78.2H81v-6.133h3.467zm.756 3.704c0-.492.1-.924.3-1.293.199-.376.472-.666.818-.871a2.28 2.28 0 0 1 1.17-.308c.422 0 .79.09 1.1.272.31.182.543.411.695.687v-.88h.81V78.2h-.81v-.897a1.91 1.91 0 0 1-.713.704c-.31.181-.674.272-1.09.272-.43 0-.816-.105-1.162-.316a2.223 2.223 0 0 1-.819-.89c-.2-.38-.299-.815-.299-1.302zm4.083.01c0-.365-.073-.681-.22-.951a1.514 1.514 0 0 0-.598-.616 1.57 1.57 0 0 0-.819-.22c-.299 0-.572.07-.818.211-.246.14-.443.346-.59.616a1.96 1.96 0 0 0-.22.95c0 .37.074.693.22.968.147.27.344.478.59.625.246.141.52.211.818.211.3 0 .572-.07.819-.21.252-.147.451-.356.598-.626.147-.275.22-.595.22-.959zm4.046 1.68 1.496-4.083h.854L93.81 78.2h-.933l-1.892-4.822h.862l1.505 4.083zm5.33.818c-.453 0-.863-.102-1.233-.308a2.238 2.238 0 0 1-.862-.87c-.206-.382-.308-.822-.308-1.32 0-.494.105-.928.317-1.303.216-.381.51-.672.88-.871.37-.206.783-.308 1.24-.308.458 0 .872.102 1.241.308.37.2.66.487.871.862.217.376.326.813.326 1.311 0 .499-.112.939-.335 1.32a2.264 2.264 0 0 1-.888.871 2.562 2.562 0 0 1-1.25.308zm0-.704c.287 0 .556-.067.809-.202.252-.135.454-.337.607-.607.158-.27.237-.599.237-.986s-.076-.716-.228-.985a1.471 1.471 0 0 0-.599-.599 1.641 1.641 0 0 0-.8-.202c-.294 0-.564.067-.81.202a1.43 1.43 0 0 0-.58.599c-.148.27-.22.598-.22.985 0 .393.07.725.21.995.147.27.34.472.581.607.24.129.505.193.792.193zm4.414-3.414c.14-.276.34-.49.598-.642.264-.153.584-.23.959-.23v.828h-.211c-.898 0-1.346.487-1.346 1.46V78.2h-.801v-4.822h.801v.783zm2.983-1.566a.528.528 0 0 1-.387-.159.525.525 0 0 1-.158-.387c0-.153.052-.282.158-.387a.528.528 0 0 1 .387-.159c.147 0 .27.053.37.159a.529.529 0 0 1 .158.387.529.529 0 0 1-.158.387.489.489 0 0 1-.37.159zm.387.783V78.2h-.8v-4.822h.8zm2.43.66v2.842c0 .235.05.402.15.502.099.094.272.14.519.14h.589v.678h-.721c-.446 0-.78-.103-1.003-.308-.223-.205-.335-.542-.335-1.012v-2.842h-.625v-.66h.625v-1.215h.801v1.215h1.258v.66h-1.258zm6.717 1.566c0 .153-.009.314-.027.484h-3.854c.029.475.191.848.484 1.118.299.264.66.396 1.082.396.346 0 .634-.08.863-.238.234-.164.399-.381.492-.651h.863a2.09 2.09 0 0 1-.775 1.135c-.387.288-.868.431-1.443.431-.457 0-.868-.102-1.232-.308a2.2 2.2 0 0 1-.845-.87c-.205-.382-.308-.822-.308-1.32 0-.5.1-.937.3-1.312.199-.375.478-.663.836-.862.363-.206.78-.308 1.249-.308.458 0 .863.1 1.215.299.352.2.622.475.809.827.194.346.291.74.291 1.18zm-.828-.167c0-.305-.067-.566-.202-.783a1.277 1.277 0 0 0-.554-.502 1.654 1.654 0 0 0-.766-.176c-.405 0-.751.13-1.038.387-.282.258-.443.616-.484 1.074h3.044zm3.68 2.842c-.37 0-.701-.061-.994-.184a1.726 1.726 0 0 1-.696-.528 1.423 1.423 0 0 1-.281-.784h.827c.023.24.135.438.334.59.206.152.473.229.801.229.305 0 .546-.068.722-.203a.618.618 0 0 0 .264-.51.494.494 0 0 0-.282-.466c-.188-.106-.478-.209-.871-.308a7.173 7.173 0 0 1-.88-.282 1.669 1.669 0 0 1-.581-.431c-.158-.194-.237-.446-.237-.757 0-.246.073-.472.22-.678.146-.205.354-.366.624-.484.27-.123.578-.184.924-.184.534 0 .965.134 1.294.404.328.27.504.64.528 1.11h-.801a.819.819 0 0 0-.308-.608c-.182-.153-.428-.229-.739-.229-.288 0-.516.062-.686.185a.57.57 0 0 0-.256.484c0 .158.05.29.15.396.106.1.235.182.387.246.159.06.376.126.651.203.346.094.628.188.845.281.217.088.402.223.555.405.158.182.24.42.246.713 0 .264-.073.502-.22.713a1.495 1.495 0 0 1-.625.501 2.234 2.234 0 0 1-.915.176z" fill="#FFFDFB"/><path fill="#444" d="M134 38h67v52h-67z"/><path fill-rule="evenodd" clip-rule="evenodd" d="M174.829 50.82c.33-1.074-.676-2.08-1.75-1.75l-12.647 3.892c-1.207.372-1.344 2.026-.215 2.59l5.361 2.68c.038.02.07.051.089.09l2.68 5.36c.565 1.13 2.219.993 2.59-.214l3.892-12.647zm-1.397-.602a.2.2 0 0 1 .25.25l-3.891 12.647a.2.2 0 0 1-.371.03l-2.606-5.211 3.633-3.633a.6.6 0 0 0-.849-.848l-3.632 3.632-5.212-2.606a.2.2 0 0 1 .031-.37l12.647-3.891z" fill="#7D7D7D"/><path d="M155.653 77.549h2.147v.651h-2.948v-6.133h.801v5.482zm2.786-1.778c0-.492.1-.924.3-1.293a2.17 2.17 0 0 1 .818-.871 2.28 2.28 0 0 1 1.17-.308c.423 0 .789.09 1.1.272.311.182.543.411.696.687v-.88h.809V78.2h-.809v-.897a1.913 1.913 0 0 1-.713.704 2.122 2.122 0 0 1-1.091.272c-.429 0-.816-.105-1.162-.316a2.219 2.219 0 0 1-.818-.89c-.2-.38-.3-.815-.3-1.302zm4.084.01c0-.365-.074-.681-.22-.951a1.52 1.52 0 0 0-.599-.616 1.568 1.568 0 0 0-.818-.22c-.299 0-.572.07-.819.211-.246.14-.443.346-.589.616-.147.27-.22.587-.22.95 0 .37.073.693.22.968.146.27.343.478.589.625.247.141.52.211.819.211.299 0 .572-.07.818-.21a1.58 1.58 0 0 0 .599-.626 2.02 2.02 0 0 0 .22-.959zm3.227-1.743v2.842c0 .235.05.402.15.502.1.094.273.14.519.14h.59v.678h-.722c-.446 0-.78-.103-1.003-.308-.223-.205-.335-.542-.335-1.012v-2.842h-.624v-.66h.624v-1.215h.801v1.215h1.259v.66h-1.259zm6.717 1.566c0 .153-.009.314-.026.484h-3.855c.029.475.191.848.484 1.118.299.264.66.396 1.083.396.346 0 .633-.08.862-.238.235-.164.399-.381.493-.651h.862a2.094 2.094 0 0 1-.774 1.135c-.387.288-.869.431-1.443.431a2.46 2.46 0 0 1-1.232-.308 2.193 2.193 0 0 1-.845-.87c-.206-.382-.308-.822-.308-1.32 0-.5.099-.937.299-1.312.199-.375.478-.663.836-.862.364-.206.78-.308 1.25-.308.457 0 .862.1 1.214.299.352.2.622.475.81.827.193.346.29.74.29 1.18zm-.827-.167c0-.305-.068-.566-.203-.783a1.272 1.272 0 0 0-.554-.502 1.654 1.654 0 0 0-.766-.176 1.5 1.5 0 0 0-1.038.387c-.282.258-.443.616-.484 1.074h3.045zm3.679 2.842c-.369 0-.701-.061-.994-.184a1.722 1.722 0 0 1-.695-.528 1.424 1.424 0 0 1-.282-.784h.827c.024.24.135.438.335.59.205.152.472.229.8.229.305 0 .546-.068.722-.203a.618.618 0 0 0 .264-.51.494.494 0 0 0-.282-.466c-.187-.106-.478-.209-.871-.308a7.173 7.173 0 0 1-.88-.282 1.678 1.678 0 0 1-.581-.431c-.158-.194-.237-.446-.237-.757 0-.246.073-.472.22-.678.146-.205.355-.366.625-.484.269-.123.577-.184.924-.184.533 0 .965.134 1.293.404.329.27.505.64.528 1.11h-.801a.819.819 0 0 0-.308-.608c-.182-.153-.428-.229-.739-.229-.287 0-.516.062-.686.185a.571.571 0 0 0-.255.484c0 .158.049.29.149.396.106.1.235.182.387.246.159.06.376.126.652.203.346.094.627.188.844.281.217.088.402.223.555.405.158.182.24.42.246.713 0 .264-.073.502-.22.713a1.495 1.495 0 0 1-.625.501 2.234 2.234 0 0 1-.915.176zm3.955-4.241v2.842c0 .235.05.402.15.502.1.094.273.14.519.14h.59v.678h-.722c-.446 0-.78-.103-1.003-.308-.223-.205-.334-.542-.334-1.012v-2.842h-.625v-.66h.625v-1.215h.8v1.215h1.259v.66h-1.259z" fill="#7D7D7D"/><path fill="#444" d="M201 38h67v52h-67z"/><path fill-rule="evenodd" clip-rule="evenodd" d="M233.801 48.111a1.4 1.4 0 0 1 1.4 0l6.128 3.539c.433.25.7.712.7 1.212v7.076c0 .5-.267.962-.7 1.213l-6.128 3.538a1.4 1.4 0 0 1-1.4 0l-6.128-3.538c-.434-.25-.7-.713-.7-1.213v-7.076c0-.5.266-.962.7-1.212l6.128-3.539.3.52-.3-.52zm.8 1.04a.2.2 0 0 0-.2 0l-6.128 3.538a.2.2 0 0 0-.1.173v7.076a.2.2 0 0 0 .1.173l6.128 3.539a.2.2 0 0 0 .2 0l6.128-3.539a.2.2 0 0 0 .1-.173v-7.076a.2.2 0 0 0-.1-.173l-6.128-3.538zm-.1 5.45a1.8 1.8 0 1 0 0 3.6 1.8 1.8 0 0 0 0-3.6zm-3 1.8a3 3 0 1 1 6-.001 3 3 0 0 1-6 0z" fill="#7D7D7D"/><path d="M220.183 76.836h-2.675l-.493 1.364h-.845l2.218-6.098h.924l2.209 6.098h-.845l-.493-1.364zm-.229-.651-1.109-3.098-1.108 3.098h2.217zm2.322-.405c0-.499.1-.933.299-1.302.2-.376.475-.666.827-.871a2.415 2.415 0 0 1 1.223-.308c.593 0 1.08.143 1.461.43.387.288.643.687.766 1.198h-.863a1.228 1.228 0 0 0-.484-.696c-.234-.17-.528-.255-.88-.255-.457 0-.827.159-1.108.475-.282.311-.423.754-.423 1.33 0 .58.141 1.029.423 1.346.281.316.651.475 1.108.475.352 0 .646-.082.88-.247.235-.164.396-.398.484-.704h.863a2.139 2.139 0 0 1-.775 1.188c-.387.294-.871.44-1.452.44-.457 0-.865-.102-1.223-.308a2.157 2.157 0 0 1-.827-.87c-.199-.376-.299-.816-.299-1.32zm5.433 0c0-.499.1-.933.299-1.302.2-.376.476-.666.828-.871a2.41 2.41 0 0 1 1.223-.308c.592 0 1.079.143 1.461.43.387.288.642.687.765 1.198h-.862a1.233 1.233 0 0 0-.484-.696c-.235-.17-.528-.255-.88-.255-.458 0-.827.159-1.109.475-.282.311-.422.754-.422 1.33 0 .58.14 1.029.422 1.346.282.316.651.475 1.109.475.352 0 .645-.082.88-.247.234-.164.396-.398.484-.704h.862a2.142 2.142 0 0 1-.774 1.188c-.387.294-.871.44-1.452.44a2.41 2.41 0 0 1-1.223-.308 2.16 2.16 0 0 1-.828-.87c-.199-.376-.299-.816-.299-1.32zm7.836 2.5c-.452 0-.863-.103-1.232-.309a2.243 2.243 0 0 1-.863-.87c-.205-.382-.308-.822-.308-1.32 0-.494.106-.928.317-1.303.217-.381.511-.672.88-.871.37-.206.783-.308 1.241-.308.458 0 .871.102 1.241.308.369.2.66.487.871.862.217.376.326.813.326 1.311 0 .499-.112.939-.335 1.32a2.262 2.262 0 0 1-.889.871 2.56 2.56 0 0 1-1.249.308zm0-.705c.287 0 .557-.067.809-.202.253-.135.455-.337.608-.607.158-.27.237-.599.237-.986s-.076-.716-.229-.985a1.467 1.467 0 0 0-.598-.599 1.64 1.64 0 0 0-.801-.202c-.293 0-.563.067-.809.202a1.43 1.43 0 0 0-.581.599c-.147.27-.22.598-.22.985 0 .393.07.725.211.995.147.27.34.472.581.607.24.129.504.193.792.193zm7.89-4.197V78.2h-.8v-.713c-.153.247-.367.44-.643.581-.27.135-.569.203-.897.203-.376 0-.713-.077-1.012-.23a1.747 1.747 0 0 1-.713-.703c-.17-.311-.255-.69-.255-1.135v-2.825h.792v2.719c0 .475.12.842.36 1.1.241.252.569.378.986.378.428 0 .766-.132 1.012-.396s.37-.648.37-1.152v-2.65h.8zm3.79-.088c.587 0 1.062.179 1.426.537.363.352.545.862.545 1.53V78.2h-.792v-2.728c0-.48-.12-.847-.361-1.1-.24-.258-.569-.387-.985-.387-.423 0-.76.132-1.012.396-.247.264-.37.648-.37 1.153V78.2h-.801v-4.822h.801v.686c.159-.246.373-.437.643-.572.275-.135.578-.202.906-.202zm4.344.748v2.842c0 .235.05.402.15.502.1.094.273.14.519.14h.59v.678h-.722c-.446 0-.78-.103-1.003-.308-.223-.205-.335-.542-.335-1.012v-2.842h-.624v-.66h.624v-1.215h.801v1.215h1.259v.66h-1.259z" fill="#7D7D7D"/><path d="M99.715 42.665C82.9 43.01 63.511 51.817 65.7 68.02c2.127 15.747 19.649 19.073 34.919 18.76 18.759-.383 36.525-10.23 34.708-27.996-2.138-20.913-30.307-25.19-49.214-24.803" stroke="url(#a)" stroke-width="2" stroke-linecap="round"/><path d="M177.093 1.996a1 1 0 0 0-.186-1.992l.186 1.992zm-60.09 27.58a1 1 0 0 0 1.072.921l8.975-.675a1 1 0 0 0-.15-1.995l-7.978.6-.6-7.977a1 1 0 0 0-1.995.15l.676 8.975zM176.907.003c-6.347.593-16.892 2.741-28.021 7.257-11.126 4.515-22.906 11.426-31.644 21.587l1.516 1.304c8.462-9.84 19.932-16.595 30.881-21.038 10.946-4.442 21.301-6.544 27.454-7.118l-.186-1.992z" fill="url(#b)"/><defs><linearGradient id="a" x1="86.669" y1="31.631" x2="123.324" y2="86.112" gradientUnits="userSpaceOnUse"><stop stop-color="#0A9F68"/><stop offset=".105" stop-color="#0A9F68"/><stop offset=".242" stop-color="#71BBFF"/><stop offset=".373" stop-color="#71BBFF"/><stop offset=".504" stop-color="#FFB9F8"/><stop offset=".76" stop-color="#FFB9F8"/><stop offset="1" stop-color="#FFE665"/></linearGradient><linearGradient id="b" x1="136.4" y1="-.255" x2="151.112" y2="35.636" gradientUnits="userSpaceOnUse"><stop stop-color="#0A9F68"/><stop offset=".105" stop-color="#0A9F68"/><stop offset=".242" stop-color="#71BBFF"/><stop offset=".373" stop-color="#71BBFF"/><stop offset=".504" stop-color="#FFB9F8"/><stop offset=".76" stop-color="#FFB9F8"/><stop offset="1" stop-color="#FFE665"/></linearGradient></defs></svg>
