<svg width="31" height="40" viewBox="0 0 31 40" fill="none" xmlns="http://www.w3.org/2000/svg">
<path opacity="0.9" fill-rule="evenodd" clip-rule="evenodd" d="M23.3351 15.227C24.0533 13.4145 25.1621 11.5895 26.4221 10.227L26.4473 10.2395C26.9891 9.6395 27.9718 10.0645 27.9718 10.8645C27.7321 13.5967 28.2888 15.6941 28.8811 17.9252C29.4404 20.0324 30.0314 22.2588 30.013 25.252C29.9626 33.4145 23.2343 39.9895 15.0067 39.9895C6.77907 39.9895 0.0382006 33.4145 0.000401372 25.252C-0.0172058 22.3815 0.547496 20.4385 1.09853 18.5425C1.73047 16.3682 2.34444 14.2558 2.04156 10.877C2.02896 10.0645 3.02434 9.652 3.56613 10.252C4.9647 11.7645 6.16168 13.852 6.87986 15.8395C7.15706 16.577 8.19024 16.6395 8.51783 15.927C9.76677 14.1816 10.0726 11.8255 10.3914 9.36913C10.8124 6.12593 11.256 2.70786 13.9231 0.2895C14.4901 -0.3105 15.4729 0.127 15.4477 0.9395C15.3749 3.38125 16.5251 5.19225 17.9367 7.415C19.2134 9.42519 20.7039 11.7722 21.6972 15.227C21.9996 15.952 23.0327 15.977 23.3351 15.227ZM11.9616 22.3223C11.9616 23.6097 11.1348 24.6557 10.1136 24.6557C9.09235 24.6557 8.26562 23.6097 8.26562 22.3223C8.26562 21.035 9.09235 19.989 10.1136 19.989C11.1348 19.989 11.9616 21.035 11.9616 22.3223ZM21.6998 22.3223C21.6998 23.6097 20.8731 24.6557 19.8519 24.6557C18.8306 24.6557 18.0039 23.6097 18.0039 22.3223C18.0039 21.035 18.8306 19.989 19.8519 19.989C20.8731 19.989 21.6998 21.035 21.6998 22.3223ZM6.50622 25.6407C9.30599 33.7431 20.7404 33.7518 23.5321 25.6407C23.6944 25.1157 24.4735 25.2995 24.4248 25.8507C23.4022 37.1293 6.66852 37.1206 5.61354 25.8507C5.56484 25.2995 6.3358 25.1157 6.50622 25.6407Z" fill="#E9E8E8"/>
</svg>
