<svg width="30" height="49" viewBox="0 0 30 49" fill="none" xmlns="http://www.w3.org/2000/svg">
<path id="Union" opacity="0.9" fill-rule="evenodd" clip-rule="evenodd" d="M26.4103 10.2219C25.1509 11.5851 24.0426 13.411 23.3247 15.2245C23.0224 15.9749 21.9897 15.9499 21.6875 15.2245C20.6946 11.7678 19.2048 9.41963 17.9287 7.40838C16.5177 5.18446 15.368 3.37251 15.4408 0.929481C15.466 0.116554 14.4836 -0.321176 13.9169 0.27914C11.251 2.69877 10.8075 6.11863 10.3868 9.36354C10.0681 11.8212 9.76241 14.1785 8.51403 15.9249C8.18658 16.6377 7.15386 16.5752 6.87679 15.8373C6.15893 13.8488 4.96249 11.7602 3.56454 10.2469C3.02299 9.64656 2.02806 10.0593 2.04065 10.8722C2.3434 14.2527 1.7297 16.3663 1.09805 18.5418C0.547255 20.4387 -0.0171946 22.3827 0.000404722 25.2547C0.0381871 33.4215 6.77604 40 15 40C23.224 40 29.9492 33.4215 29.9996 25.2547C30.0179 22.26 29.4272 20.0324 28.8681 17.9241C28.2762 15.6918 27.7197 13.5933 27.9593 10.8597C27.9593 10.0593 26.977 9.63405 26.4354 10.2344L26.4103 10.2219ZM10.1091 24.6584C11.1299 24.6584 11.9563 23.6118 11.9563 22.3238C11.9563 21.0358 11.1299 19.9892 10.1091 19.9892C9.08835 19.9892 8.262 21.0358 8.262 22.3238C8.262 23.6118 9.08835 24.6584 10.1091 24.6584ZM19.8431 24.6584C20.8638 24.6584 21.6902 23.6118 21.6902 22.3238C21.6902 21.0358 20.8638 19.9892 19.8431 19.9892C18.8223 19.9892 17.9959 21.0358 17.9959 22.3238C17.9959 23.6118 18.8223 24.6584 19.8431 24.6584ZM23.5216 25.6439C20.7312 33.7593 9.3019 33.7506 6.50338 25.6439C6.33303 25.1186 5.56243 25.3025 5.6111 25.854C6.66561 37.1298 23.3918 37.1385 24.4139 25.854C24.4626 25.3025 23.6839 25.1186 23.5216 25.6439ZM9.46965 45.8534V44.7311H11.155V44H8.5793V48.4827H11.155V47.7516H9.46965V46.5652H10.9642V45.8534H9.46965ZM3.23706 45.3916C3.23706 45.631 3.17982 45.8555 3.06535 46.065C2.95512 46.2745 2.77917 46.4434 2.5375 46.5716C2.30007 46.6999 1.99905 46.764 1.63443 46.764H0.890353V48.4827H3.53e-06V44.0064H1.63443C1.97785 44.0064 2.27039 44.0663 2.51206 44.186C2.75373 44.3057 2.93392 44.4703 3.05263 44.6798C3.17558 44.8893 3.23706 45.1265 3.23706 45.3916ZM1.59627 46.0393C1.84218 46.0393 2.02449 45.9838 2.1432 45.8726C2.26191 45.7572 2.32127 45.5968 2.32127 45.3916C2.32127 44.9555 2.07961 44.7375 1.59627 44.7375H0.890353V46.0393H1.59627ZM6.47665 48.4827L5.49726 46.7384H5.07753V48.4827H4.18718V44.0064H5.8534C6.19682 44.0064 6.48937 44.0684 6.73103 44.1924C6.9727 44.3121 7.15289 44.4767 7.2716 44.6862C7.39456 44.8914 7.45603 45.1223 7.45603 45.3788C7.45603 45.6738 7.37124 45.941 7.20165 46.1804C7.03206 46.4156 6.77979 46.578 6.44485 46.6678L7.50691 48.4827H6.47665ZM5.07753 46.065H5.82161C6.06327 46.065 6.24346 46.0073 6.36217 45.8918C6.48089 45.7721 6.54024 45.6075 6.54024 45.398C6.54024 45.1928 6.48089 45.0346 6.36217 44.9235C6.24346 44.808 6.06327 44.7503 5.82161 44.7503H5.07753V46.065ZM17.1217 44.0064V48.4827H16.2314V45.5712L15.0421 48.4827H14.368L13.1724 45.5712V48.4827H12.2821V44.0064H13.2932L14.7051 47.3348L16.1169 44.0064H17.1217ZM19.2103 48.4827V44.0064H18.32V48.4827H19.2103ZM21.2856 46.7768C21.2856 47.0804 21.364 47.3134 21.5209 47.4759C21.6778 47.634 21.8983 47.7131 22.1823 47.7131C22.4706 47.7131 22.6932 47.634 22.8501 47.4759C23.007 47.3134 23.0854 47.0804 23.0854 46.7768V44.0064H23.9821V46.7704C23.9821 47.1509 23.8994 47.4737 23.7341 47.7388C23.573 47.9996 23.3546 48.1963 23.079 48.3288C22.8077 48.4613 22.5045 48.5276 22.1696 48.5276C21.8389 48.5276 21.5379 48.4613 21.2665 48.3288C20.9994 48.1963 20.7874 47.9996 20.6306 47.7388C20.4737 47.4737 20.3953 47.1509 20.3953 46.7704V44.0064H21.2856V46.7768ZM30 48.4827V44.0064H28.9952L27.5833 47.3348L26.1715 44.0064H25.1603V48.4827H26.0507V45.5712L27.2463 48.4827H27.9204L29.1097 45.5712V48.4827H30Z" fill="#EFEFEF"/>
</svg>
