<svg width="335" height="134" viewBox="0 0 335 134" fill="none" xmlns="http://www.w3.org/2000/svg">
<mask id="mask0_17676_5305" style="mask-type:alpha" maskUnits="userSpaceOnUse" x="0" y="0" width="335" height="134">
<rect width="335" height="134" fill="#D9D9D9"/>
</mask>
<g mask="url(#mask0_17676_5305)">
<mask id="mask1_17676_5305" style="mask-type:alpha" maskUnits="userSpaceOnUse" x="-20" y="-6" width="259" height="142">
<path d="M23.213 119.214C0.239256 121.847 -16.2655 132.699 -20 135.267V-6C48.8207 10.6952 31.087 43.2158 82.4454 57.2119C124.858 68.7701 149.13 57.2119 183.54 57.2119C211.068 57.2119 232.609 80.6866 238.478 85.1814C176.059 81.9708 140.848 128.204 96.8351 131.414C66.5509 133.623 40.018 117.288 23.213 119.214Z" fill="#32302F"/>
</mask>
<g mask="url(#mask1_17676_5305)">
<g filter="url(#filter0_f_17676_5305)">
<path d="M-10.9066 55.4826C-15.1293 58.2663 -15.8674 63.2961 -12.6951 67.7233C8.49069 97.2903 29.9214 126.775 50.8956 156.413C72.7093 186.955 96.2113 185.321 159.93 162.998C306.424 111.485 455.218 62.8509 603.398 13.366C629.001 4.7826 643.295 -11.1544 635.313 -22.2174C581.574 -96.6978 527.785 -171.248 474.345 -245.837C469.774 -252.217 459.365 -254.532 453.28 -250.521L-10.9066 55.4826Z" fill="#FFE665"/>
</g>
<g filter="url(#filter1_f_17676_5305)">
<path d="M39.726 31.7105L-111.645 129.579L-119.277 190.135L104.546 163.294L185.382 64.9181L137.632 15.0967L39.726 31.7105Z" fill="#FFB9F8"/>
</g>
<g filter="url(#filter2_f_17676_5305)">
<path d="M-21.1594 9.00524L-136.016 94.7336L-130.795 135.076L62.3724 84.6479L114.58 9.00524L62.3724 -16.209L-21.1594 9.00524Z" fill="#71BBFF"/>
</g>
<g filter="url(#filter3_f_17676_5305)">
<path d="M-25.4465 24.6286L-82.4492 68.8076L-79.8582 89.5978L16.01 63.6101L41.9203 24.6286L16.01 11.6348L-25.4465 24.6286Z" fill="#0A9F68"/>
</g>
</g>
<g filter="url(#filter4_f_17676_5305)">
<ellipse cx="235.291" cy="131.07" rx="11.7911" ry="1.07192" fill="url(#paint0_linear_17676_5305)"/>
</g>
<g filter="url(#filter5_f_17676_5305)">
<ellipse cx="198.846" cy="131.07" rx="11.7911" ry="1.07192" fill="url(#paint1_linear_17676_5305)"/>
</g>
<path d="M236.241 88.4627C236.659 87.9053 236.68 87.8303 236.927 87.1764C237.12 86.6619 236.809 85.322 237.184 84.9254C237.763 84.3144 238.878 84.4644 239.435 85.0969C239.993 85.7293 240.078 86.6833 239.853 87.498C239.628 88.3126 239.146 89.0308 238.663 89.7276C238.01 90.6923 237.356 91.6463 236.691 92.611C236.327 93.147 235.951 93.6936 235.448 94.1117C234.944 94.5297 234.29 94.8084 233.647 94.712C233.282 94.6584 232.95 94.4976 232.629 94.3154C231.085 93.4578 229.67 92.1179 229.306 90.3921C229.059 89.2238 229.927 85.2041 231.385 85.4077C232.661 85.59 232.982 89.7276 233.583 90.6172C234.279 89.9098 235.63 89.2666 236.241 88.4627Z" fill="#2A2A2D"/>
<path d="M231.404 106.664C231.94 106.856 232.561 107.124 232.679 107.682C232.733 107.918 232.679 108.164 232.626 108.389C231.79 112.205 232.776 114.263 232.379 118.144C232.326 118.626 231.682 120.116 231.972 120.502C232.175 120.77 233.355 121.016 233.687 121.006C235.745 120.952 236.045 121.756 238.028 121.863C238.318 121.874 238.65 121.863 238.854 121.649C239.089 121.381 238.982 120.941 238.725 120.684C238.468 120.427 238.125 120.298 237.814 120.127C236.474 119.376 235.67 118.991 235.648 117.447C235.627 115.903 236.109 114.413 236.474 112.913C236.999 110.758 237.31 108.561 237.385 106.342C237.406 105.581 237.396 104.788 237.021 104.134C236.688 103.555 236.109 103.169 235.541 102.805C232.797 101.015 230.032 99.278 227.234 97.5844C226.462 97.1127 225.658 96.6411 224.769 96.4696C223.879 96.2981 222.861 96.5017 222.282 97.1985C221.703 97.8952 221.681 98.935 222.003 99.7818C223.311 103.233 228.177 105.463 231.382 106.653L231.404 106.664Z" fill="#3C3C41"/>
<path d="M225.08 108.088C225.573 108.378 226.141 108.753 226.151 109.321C226.151 109.557 226.066 109.793 225.969 110.007C224.458 113.609 225.058 115.817 223.986 119.568C223.847 120.04 222.946 121.38 223.172 121.809C223.322 122.109 224.436 122.559 224.769 122.613C226.795 122.934 226.955 123.77 228.885 124.231C229.174 124.296 229.496 124.349 229.732 124.167C230.01 123.953 229.978 123.492 229.775 123.191C229.571 122.891 229.249 122.709 228.981 122.484C227.791 121.498 227.073 120.983 227.331 119.461C227.588 117.939 228.327 116.556 228.96 115.152C229.86 113.126 230.557 111.015 231.029 108.849C231.189 108.11 231.318 107.316 231.061 106.609C230.836 105.977 230.332 105.494 229.85 105.033C227.47 102.782 225.058 100.574 222.614 98.4088C221.939 97.8085 221.231 97.1975 220.385 96.8759C219.538 96.5544 218.498 96.5651 217.801 97.1439C217.104 97.7227 216.901 98.7411 217.062 99.6308C217.726 103.265 222.121 106.33 225.058 108.067L225.08 108.088Z" fill="#2A2A2D"/>
<path d="M223.844 101.197C224.059 100.993 224.252 100.757 224.423 100.521C225.527 99.0634 226.342 97.4341 227.35 95.912C229.343 92.8999 232.666 90.8633 232.377 86.8007C232.366 86.5863 232.355 86.3719 232.345 86.1683C232.302 85.032 231.369 84.196 230.233 84.0888C230.233 84.0888 230.222 84.0888 230.212 84.0888C229.129 83.9816 227.36 83.9708 226.278 83.8851C225.506 83.8315 223.266 84.2924 222.622 84.9356C221.465 86.0932 221.304 87.8726 221.004 89.4805C220.586 91.7315 219.75 93.9075 218.56 95.8584C218.099 96.6195 217.552 97.4556 217.724 98.3238C217.895 99.2349 218.785 99.8138 219.642 100.168C220.747 100.618 221.947 102.204 223.244 101.604C223.469 101.497 223.673 101.347 223.855 101.175L223.844 101.197Z" fill="#2C2A26"/>
<path d="M226.558 78.2252C226.611 77.8821 226.697 77.5177 226.911 77.2604C227.072 77.0782 227.297 76.9603 227.522 76.8638C228.605 76.3815 229.966 76.1028 230.877 76.9281C231.37 77.3676 231.628 78.0429 231.778 78.7075C231.992 79.6615 232.024 80.6691 231.864 81.6339C231.81 81.934 231.735 82.2556 231.51 82.4378C231.317 82.5986 231.06 82.6307 230.856 82.7701C230.331 83.1238 230.374 83.9385 230.384 84.6138C230.384 84.7853 230.384 84.9568 230.299 85.1069C230.202 85.2677 230.041 85.3427 229.87 85.407C228.669 85.8465 226.161 85.5142 226.493 83.7884C226.643 82.9845 227.008 82.7272 226.89 81.8054C226.729 80.5512 226.365 79.5329 226.558 78.2359V78.2252Z" fill="#3C3C41"/>
<path d="M229.128 77.7646C229.171 78.2255 229.342 78.665 229.332 79.1259C229.321 79.7154 229.01 80.2407 228.785 80.7874C228.453 81.5806 228.303 82.4488 228.335 83.3171C228.345 83.703 228.399 84.0996 228.313 84.4748C228.227 84.8499 227.949 85.2251 227.563 85.2787C227.07 85.3537 226.641 84.8821 226.534 84.3997C226.427 83.9174 226.534 83.4136 226.555 82.9205C226.598 81.9986 226.341 81.0982 226.234 80.1871C226.127 79.276 226.18 78.2791 226.738 77.5502C227.102 77.0678 227.917 76.5104 228.549 76.5318C229.664 76.564 229.064 76.8749 229.128 77.7646Z" fill="#2C2A26"/>
<path d="M229.817 98.5173C228.198 97.574 226.612 96.5128 225.454 95.0336C224.918 94.3368 224.479 93.565 224.05 92.7933C223.578 91.9572 223.117 91.1103 222.86 90.1778C222.71 89.6418 222.646 89.0844 222.463 88.5592C222.27 88.0018 221.949 87.4444 222.002 86.8548C222.035 86.5118 222.195 86.1795 222.42 85.9115C223.128 85.0755 224.5 84.9039 225.39 85.5364C225.754 85.8044 226.033 86.1688 226.301 86.5333C227.416 88.0339 227.566 91.314 228.391 92.9969C228.852 93.9295 230.556 94.4011 231.564 95.4838C232.786 96.8022 235.358 98.3351 235.809 98.453C236.366 98.603 236.977 98.4744 237.534 98.6352C238.446 98.9032 239.121 100.072 239.067 101.004C238.992 102.205 238.253 101.776 237.352 101.508C234.683 100.693 232.239 99.9322 229.806 98.5173H229.817Z" fill="#3C3C41"/>
<path d="M246.806 130.802C241.176 130.802 236.612 126.238 236.612 120.608C236.612 114.978 241.176 110.414 246.806 110.414C252.436 110.414 257 114.978 257 120.608C257 126.238 252.436 130.802 246.806 130.802Z" stroke="#2A2A2D" stroke-width="2" stroke-miterlimit="10"/>
<path d="M209.044 130.802C203.414 130.802 198.85 126.238 198.85 120.608C198.85 114.978 203.414 110.414 209.044 110.414C214.674 110.414 219.238 114.978 219.238 120.608C219.238 126.238 214.674 130.802 209.044 130.802Z" stroke="#2A2A2D" stroke-width="2" stroke-miterlimit="10"/>
<path d="M219.035 105.109C216.909 105.109 215.186 104.619 215.186 104.015C215.186 103.411 216.909 102.922 219.035 102.922C221.16 102.922 222.883 103.411 222.883 104.015C222.883 104.619 221.16 105.109 219.035 105.109Z" fill="#2A2A2D"/>
<path d="M247.316 121.444L239.106 98.9766" stroke="#2A2A2D" stroke-width="2" stroke-miterlimit="10" stroke-linecap="round"/>
<path d="M241.082 105.215H220.276" stroke="#2A2A2D" stroke-width="2" stroke-miterlimit="10" stroke-linecap="round"/>
<path d="M241.082 105.215L225.582 119.053" stroke="#2A2A2D" stroke-width="2" stroke-miterlimit="10" stroke-linecap="round"/>
<path d="M220.276 105.215L226.418 117.595" stroke="#2A2A2D" stroke-width="2" stroke-miterlimit="10" stroke-linecap="round"/>
<path d="M224.121 120.92L208.418 120.609" stroke="#2A2A2D" stroke-width="2" stroke-miterlimit="10" stroke-linecap="round"/>
<path d="M220.273 105.217L208.418 120.61" stroke="#2A2A2D" stroke-width="2" stroke-miterlimit="10" stroke-linecap="round"/>
<path d="M239.219 98.5586L238.801 101.571" stroke="#2A2A2D" stroke-width="2" stroke-miterlimit="10" stroke-linecap="round"/>
</g>
<defs>
<filter id="filter0_f_17676_5305" x="-20.6543" y="-258.508" width="664.18" height="444.081" filterUnits="userSpaceOnUse" color-interpolation-filters="sRGB">
<feFlood flood-opacity="0" result="BackgroundImageFix"/>
<feBlend mode="normal" in="SourceGraphic" in2="BackgroundImageFix" result="shape"/>
<feGaussianBlur stdDeviation="3" result="effect1_foregroundBlur_17676_5305"/>
</filter>
<filter id="filter1_f_17676_5305" x="-143.277" y="-8.90332" width="352.659" height="223.039" filterUnits="userSpaceOnUse" color-interpolation-filters="sRGB">
<feFlood flood-opacity="0" result="BackgroundImageFix"/>
<feBlend mode="normal" in="SourceGraphic" in2="BackgroundImageFix" result="shape"/>
<feGaussianBlur stdDeviation="12" result="effect1_foregroundBlur_17676_5305"/>
</filter>
<filter id="filter2_f_17676_5305" x="-160.016" y="-40.209" width="298.596" height="199.285" filterUnits="userSpaceOnUse" color-interpolation-filters="sRGB">
<feFlood flood-opacity="0" result="BackgroundImageFix"/>
<feBlend mode="normal" in="SourceGraphic" in2="BackgroundImageFix" result="shape"/>
<feGaussianBlur stdDeviation="12" result="effect1_foregroundBlur_17676_5305"/>
</filter>
<filter id="filter3_f_17676_5305" x="-106.449" y="-12.3652" width="172.369" height="125.963" filterUnits="userSpaceOnUse" color-interpolation-filters="sRGB">
<feFlood flood-opacity="0" result="BackgroundImageFix"/>
<feBlend mode="normal" in="SourceGraphic" in2="BackgroundImageFix" result="shape"/>
<feGaussianBlur stdDeviation="12" result="effect1_foregroundBlur_17676_5305"/>
</filter>
<filter id="filter4_f_17676_5305" x="221.5" y="127.998" width="27.582" height="6.1438" filterUnits="userSpaceOnUse" color-interpolation-filters="sRGB">
<feFlood flood-opacity="0" result="BackgroundImageFix"/>
<feBlend mode="normal" in="SourceGraphic" in2="BackgroundImageFix" result="shape"/>
<feGaussianBlur stdDeviation="1" result="effect1_foregroundBlur_17676_5305"/>
</filter>
<filter id="filter5_f_17676_5305" x="185.055" y="127.998" width="27.582" height="6.1438" filterUnits="userSpaceOnUse" color-interpolation-filters="sRGB">
<feFlood flood-opacity="0" result="BackgroundImageFix"/>
<feBlend mode="normal" in="SourceGraphic" in2="BackgroundImageFix" result="shape"/>
<feGaussianBlur stdDeviation="1" result="effect1_foregroundBlur_17676_5305"/>
</filter>
<linearGradient id="paint0_linear_17676_5305" x1="247.082" y1="132.142" x2="243.581" y2="141.798" gradientUnits="userSpaceOnUse">
<stop stop-color="#32302F" stop-opacity="0.7"/>
<stop offset="1" stop-color="#C9D1DB" stop-opacity="0"/>
</linearGradient>
<linearGradient id="paint1_linear_17676_5305" x1="210.637" y1="132.142" x2="207.136" y2="141.798" gradientUnits="userSpaceOnUse">
<stop stop-color="#32302F" stop-opacity="0.7"/>
<stop offset="1" stop-color="#C9D1DB" stop-opacity="0"/>
</linearGradient>
</defs>
</svg>
