<svg width="255" height="120" fill="none" xmlns="http://www.w3.org/2000/svg"><rect width="255" height="120" rx="4" fill="#F5F5F5"/><path d="M107.539 28.832c-.067-.003-.166.008-.246.008a.405.405 0 0 1-.079-.006l-1.159-.238-2.536-.524-2.1-.434-2.439-.504-.181-.037c-.257-.052-.593-.114-.805-.152l-.092-.017-.105-.02a1.212 1.212 0 0 0-.149-.022l-.144-.01c-.234-.014-.576-.031-.94-.05-.345-.019-.709-.038-1.014-.059-.492-.032-1.087-.084-1.577-.121a23.26 23.26 0 0 0-.562-.038c-.31-.017-.72-.009-.93 0-.105.004-.217.004-.313.043a4.395 4.395 0 0 1 .797.004c.212.023.494.075.74.121l.604.116a198.846 198.846 0 0 1 3.05.61 970.777 970.777 0 0 1 5.239 1.109c.724.156 1.446.311 1.966.42l.447.091c.189.038.401.047.574.058a6.225 6.225 0 0 0 .463.009c.104-.002.208-.008.311-.022.009 0 .017-.002.025-.003a5.761 5.761 0 0 0 .583-.118 4.037 4.037 0 0 0 .396-.127c.061-.024.119-.054.176-.086zM159.181 82.84a2.413 2.413 0 0 1-.548.19 5.484 5.484 0 0 1-.806.112.286.286 0 0 0 .043.005c.127.007.425.012.658 0a24.46 24.46 0 0 0 1.065-.1c.069-.007.14-.017.21-.025.106-.013.228-.029.345-.037l.719-.048a38.718 38.718 0 0 0 .603-.045l.294-.025c.193-.017.392-.036.569-.056.141-.016.268-.032.366-.049.133-.022.261-.069.387-.12l.105-.042c.169-.07.365-.144.52-.258l.073-.055a6.785 6.785 0 0 0 .618-.553l.076-.08c.2-.214.368-.457.529-.702l.031-.047c.227-.35.619-.99.924-1.488l.271-.444c.195-.32.392-.642.571-.972.107-.196.223-.421.34-.653l.329-.658c.177-.357.396-.808.584-1.198l.181-.38c.172-.36.387-.809.503-1.089.078-.192.146-.394.189-.594a3.962 3.962 0 0 0 .068-.783 3.837 3.837 0 0 0-.019-.3 2.45 2.45 0 0 0-.064-.38 2.998 2.998 0 0 0-.137-.408 2.97 2.97 0 0 0-.205-.415 10.71 10.71 0 0 0-.486-.718 32.409 32.409 0 0 0-.81-1.016c-.347-.423-.985-1.176-1.371-1.644l-.109-.133c-.237-.291-.457-.596-.693-.889-.253-.315-.567-.687-.825-1.001-.242-.294-.486-.588-.726-.883l-.292-.362-.456-.566-.553-.679-.611-.746-.106-.131c-.183-.226-.384-.476-.531-.654-.138-.167-.284-.326-.421-.493-.164-.2-.396-.494-.561-.703-.101-.127-.214-.268-.312-.396a3.984 3.984 0 0 1-.367-.547 4.593 4.593 0 0 1-.363-.814 5.08 5.08 0 0 1-.106-.327c-.037-.133-.046-.271-.061-.408a4.484 4.484 0 0 1-.03-.648c.002-.18.007-.391.015-.573.012-.304.044-.683.057-1.025l.003-.095a56.532 56.532 0 0 0 .018-2.086c-.007-.292-.024-.623-.035-.859-.01-.196-.027-.392-.037-.589l-.016-.362a8.301 8.301 0 0 1-.008-.256c-.004-.16-.01-.332 0-.483.01-.142.03-.284.061-.423.036-.16.093-.367.153-.542a4.677 4.677 0 0 1 .206-.506c.069-.15.138-.301.235-.434a12.8 12.8 0 0 1 .355-.456c.183-.227.391-.48.564-.695.349-.43.871-1.075 1.369-1.687.156-.19.309-.38.455-.557.626-.766 1.308-1.587 1.934-2.355l.14-.172c.57-.701 1.167-1.45 1.683-2.082l.405-.494c.419-.508.862-1.04 1.125-1.36l.098-.119c.163-.198.329-.4.478-.594.173-.225.381-.495.502-.687a2.674 2.674 0 0 0 .229-.465c.065-.177.13-.405.16-.591.021-.128.024-.261.024-.39l-.001-.14a3.38 3.38 0 0 0-.029-.482 4.152 4.152 0 0 0-.125-.558 6.324 6.324 0 0 0-.257-.682 28.245 28.245 0 0 0-.747-1.575l-.496-.971-.349-.7a18.448 18.448 0 0 0-.258-.495 44.683 44.683 0 0 0-1.123-1.918 108.688 108.688 0 0 0-.927-1.471 5.168 5.168 0 0 0-.275-.383 2.52 2.52 0 0 0-.367-.353l-.067-.052a3.536 3.536 0 0 0-.399-.265 2.168 2.168 0 0 0-.205-.104 3.1 3.1 0 0 0-.474-.157 5.547 5.547 0 0 0-.249-.056 4.518 4.518 0 0 0-.549-.068l-.163-.013-.166-.012a109.807 109.807 0 0 0-1.895-.121 64.7 64.7 0 0 0-1.744-.075c-.087-.002-.178-.005-.261.02a.199.199 0 0 1-.019.005c.072 0 .143.003.215.012.18.023.404.072.596.142.083.03.176.07.27.114.142.067.283.141.389.199.138.074.27.16.395.256.038.029.077.058.116.09.101.078.203.165.288.262.091.105.194.245.295.39.058.084.116.17.169.252l.363.553c.241.367.529.81.795 1.242a22.228 22.228 0 0 1 .512.87c.189.338.401.726.614 1.125.293.547.588 1.114.828 1.596.099.198.189.383.266.545.194.413.39.928.541 1.364.081.232.149.441.198.6a3 3 0 0 1 .109.778 2.502 2.502 0 0 1-.1.67c-.058.19-.156.368-.265.534-.039.061-.087.127-.139.197-.134.178-.299.38-.439.561-.18.235-.44.583-.724.958-.295.389-.616.806-.904 1.157l-.316.385c-.554.67-1.346 1.62-2.196 2.637-.857 1.025-1.77 2.117-2.552 3.056-.714.857-1.319 1.587-1.671 2.023a2.46 2.46 0 0 0-.163.23c-.123.197-.227.41-.313.592a3.624 3.624 0 0 0-.255.725 7.26 7.26 0 0 0-.136.93c-.024.263-.027.526-.032.79a203.785 203.785 0 0 0-.042 1.812l-.004.153c-.011.554-.019 1.127-.03 1.666l-.004.155c-.012.558-.043 1.228-.045 1.674v.443c.003.206.011.405.034.562.032.216.136.416.204.623l.09.278c.052.16.106.327.158.476.079.227.137.472.25.678.05.092.11.177.175.26.081.102.169.201.251.302.315.387.888 1.08 1.51 1.834a417.294 417.294 0 0 1 1.887 2.3c.811.998 1.717 2.13 2.488 3.08a76.606 76.606 0 0 0 1.365 1.651c.423.501.849 1.002 1.17 1.395.133.163.248.308.337.427.175.231.296.527.376.784a2.348 2.348 0 0 1 .107.757c-.005.248-.046.5-.129.734-.143.399-.418 1.139-.715 1.79a9.369 9.369 0 0 1-.233.48c-.218.418-.536.977-.877 1.559-.417.713-.867 1.46-1.209 2.03l-.183.305c-.178.297-.385.637-.586.963-.272.438-.535.85-.708 1.102a3.26 3.26 0 0 1-.592.631 2.617 2.617 0 0 1-.429.28zM105.69 79.69a6.2 6.2 0 0 1 .431-.011c.112.001.22.007.314.017.04.005.079.012.119.02.141.028.28.074.417.119l.025.008c.106.035.216.072.325.116l-.402.102-.052.01-.832.173-1.646.342-2.355.488-2.393.496-1.328.276c-.118.024-.236.052-.355.072l-.037.006c-.116.02-.258.043-.395.06a21.838 21.838 0 0 1-.377.032c-.263.02-.598.041-.92.062l-.486.032c-.349.022-.756.05-1.11.071l-.504.03c-.264.013-.594.026-.793.023-.08 0-.239-.001-.323-.011-.057-.007-.048-.024-.075-.027-.003 0-.01-.003-.008-.003.088-.007.366-.013.533-.04a37.32 37.32 0 0 0 1.663-.33c.275-.06.549-.117.799-.169a2114.095 2114.095 0 0 0 4.998-1.039l.106-.023c.652-.14 1.39-.308 1.96-.435l.228-.05c.269-.059.559-.128.834-.188.207-.046.407-.088.584-.118l.182-.028c.302-.042.625-.07.874-.084h-.001zM146.036 80.59a24.851 24.851 0 0 1-.357-.083c-.22-.05-.44-.103-.636-.144a6.749 6.749 0 0 0-.769-.11 5.825 5.825 0 0 0-.235-.017c-.199-.01-.4.01-.598.031-.091.01-.189.02-.291.033a4.66 4.66 0 0 0-.427.072c-.233.054-.471.108-.684.218-.069.035-.149.08-.235.13-.291.169-.664.406-1.008.62l-.265.162c-.255.153-.545.335-.836.514-.337.206-.674.41-.957.564-.446.241-1.067.48-1.38.64-.178.091-.359.204-.506.323a2.06 2.06 0 0 0-.23.223c-.049.054-.096.11-.143.166-.138.163-.323.38-.454.592-.059.096-.129.211-.203.336-.157.266-.33.58-.454.865a34.483 34.483 0 0 0-.891 2.249c-.052.148-.101.293-.145.433-.267.84-.691 2.277-1.128 3.773-.308 1.055-.623 2.14-.895 3.066-.202.69-.38 1.291-.513 1.726a51.906 51.906 0 0 1-.616 1.906c-.085.239-.163.448-.229.601-.101.238-.313.433-.485.604-.136.136-.31.26-.46.363l-.091.063a2.691 2.691 0 0 1-.434.256.57.57 0 0 1-.116.033c.01 0 .019.001.026.003.066.009.133-.004.199-.011.159-.017.504-.056.756-.087l.165-.02 1.05-.129 1.06-.133c.343-.043.774-.089 1.046-.135l.051-.009c.169-.031.343-.09.496-.149a2.764 2.764 0 0 0 .42-.203c.124-.075.236-.17.345-.265l.02-.018c.107-.095.218-.205.307-.308a2.04 2.04 0 0 0 .244-.334c.072-.129.141-.29.191-.443l.01-.034c.212-.65.616-1.922 1.042-3.264l.863-2.72.229-.72 1.276-4.03.654-2.058c.089-.277.195-.601.285-.826.072-.18.148-.361.253-.524l.013-.02a5.471 5.471 0 0 1 .88-.961c.086-.072.179-.136.277-.19.196-.107.592-.29.886-.44.194-.099.44-.221.691-.35.234-.119.472-.243.678-.36.332-.19.698-.43.999-.624l.187-.12c.239-.151.54-.34.728-.464l.039-.027c.105-.07.213-.173.305-.236zM122.351 39.21a13.646 13.646 0 0 1 1.921-.157l.161-.001a14.748 14.748 0 0 1 3.136.338c-.035.008-.073.003-.109.009-.102.014-.331.045-.495.077-.08.016-.179.034-.29.054-.304.057-.694.131-1.004.22-.482.14-1.119.368-1.597.563-.435.177-.881.386-1.272.606a10.83 10.83 0 0 0-.959.632l-.118.084c-.322.23-.642.464-.943.72-.312.266-.635.57-.931.876a15.72 15.72 0 0 0-.859.972c-.258.314-.508.645-.735.971-.201.288-.391.585-.569.887l-.058.1c-.214.374-.473.87-.659 1.257-.166.348-.316.705-.451 1.067-.151.403-.324.896-.453 1.354a21.77 21.77 0 0 0-.338 1.46c-.082.417-.151.836-.195 1.258-.041.402-.063.826-.073 1.242l-.002.095c-.009.483-.002 1.142.02 1.563.016.323.067.643.107.965.045.363.089.834.163 1.216.031.158.069.316.111.472.053.2.113.4.171.599.112.379.247.81.386 1.202.138.39.293.798.449 1.155.148.335.316.661.489.983.132.244.279.514.436.777.068.115.138.229.209.338.241.372.517.759.803 1.118a21.932 21.932 0 0 0 1.171 1.323 14.425 14.425 0 0 0 1.533 1.34c.375.278.874.606 1.264.844a12.846 12.846 0 0 0 1.078.584c.397.187.913.4 1.306.543a12.318 12.318 0 0 0 1.046.308 20.11 20.11 0 0 0 1.269.272c.186.03.442.015.576.028a15.593 15.593 0 0 1-.638.158 13.599 13.599 0 0 1-3.236.323 13.724 13.724 0 0 1-3.64-.565 13.837 13.837 0 0 1-2.433-.984 14.542 14.542 0 0 1-3.388-2.442 15.344 15.344 0 0 1-2.309-2.838 15.91 15.91 0 0 1-2.036-4.851 16.498 16.498 0 0 1-.427-4.454 16.41 16.41 0 0 1 .596-3.788 15.907 15.907 0 0 1 1.635-3.822 15.153 15.153 0 0 1 4.23-4.619 14.03 14.03 0 0 1 4.228-2.051 13.624 13.624 0 0 1 1.723-.381zM129.726 8.221c.125.032.246.083.362.142a2.326 2.326 0 0 1 .542.374 1.89 1.89 0 0 1 .328.395c.105.173.208.419.297.635.066.164.138.35.204.537.03.088.059.177.085.263l.523 1.778.515 1.767.49 1.68c.327 1.121.657 2.252.946 3.234.282.96.524 1.777.685 2.303.064.209.14.429.221.647.159.43.334.853.464 1.172.073.18.151.37.232.552.081.182.165.357.252.51a4.732 4.732 0 0 0 .561.781c.173.198.379.39.582.533l.015.01c.198.139.432.218.648.327.155.078.341.167.527.26.112.057.224.115.33.173a22.258 22.258 0 0 1 1.083.65c.216.136.429.275.643.414.195.126.41.28.626.423a5.877 5.877 0 0 0 .921.504c.169.077.333.145.47.197.056.02.114.04.173.057a5.584 5.584 0 0 0 .743.15c.115.013.232.021.348.027.194.008.451.024.689.01.044-.002.086-.006.128-.01.214-.026.474-.086.735-.145.136-.031.272-.062.402-.088l.096-.02.472-.094c-.077-.047-.173-.105-.253-.156l-.033-.022c-.162-.107-.382-.26-.573-.392a5.676 5.676 0 0 0-.053-.037c-.177-.122-.356-.251-.538-.37a11.056 11.056 0 0 0-.267-.166c-.129-.079-.261-.157-.39-.234-.226-.135-.469-.282-.701-.41a16.194 16.194 0 0 0-.463-.245l-.225-.116c-.229-.118-.502-.245-.688-.35a4.407 4.407 0 0 1-.43-.28l-.06-.045a4.22 4.22 0 0 1-.36-.294 4.807 4.807 0 0 1-.498-.55 4.855 4.855 0 0 1-.165-.252c-.08-.13-.17-.273-.237-.42l-.007-.017c-.073-.165-.133-.37-.194-.556-.066-.197-.132-.42-.199-.63l-.236-.75-.962-3.052-.934-2.959-.032-.1a1349.911 1349.911 0 0 0-1.139-3.585l-.077-.243c-.124-.39-.274-.895-.367-1.174a6.164 6.164 0 0 0-.2-.523 3.582 3.582 0 0 0-.212-.42 2.775 2.775 0 0 0-.37-.481 3.853 3.853 0 0 0-.309-.299 3.153 3.153 0 0 0-.656-.395l-.08-.037c-.073-.034-.145-.069-.219-.1a1.433 1.433 0 0 0-.257-.083c-.131-.032-.287-.06-.287-.06l-.352-.041-1.026-.119-1.194-.137-.015-.002-1.73-.19-.19.016-.191.009c.132.007.249.014.346.021.23.015.491.046.685.096v.002z" fill="#E9E8E8"/><mask id="a" style="mask-type:alpha" maskUnits="userSpaceOnUse" x="85" y="7" width="80" height="95"><path d="M164.84 72.621a2.533 2.533 0 0 0-.088-.411 3.464 3.464 0 0 0-.122-.333 2.216 2.216 0 0 0-.258-.462c-.455-.603-1.573-1.88-2.349-2.829-.581-.71-1.298-1.601-2.012-2.487a321.775 321.775 0 0 0-2.27-2.79c-.838-1.017-1.709-2.069-2.127-2.581-.147-.181-.311-.352-.423-.558a1.899 1.899 0 0 1-.124-.291c-.043-.127-.08-.257-.124-.383-.082-.238-.174-.524-.248-.752-.067-.206-.171-.404-.202-.618l-.001-.003c-.039-.27-.033-.665-.033-.997.002-.446.033-1.116.045-1.674.013-.583.021-1.213.034-1.82.013-.608.029-1.368.042-1.827.009-.309.008-.618.036-.926.025-.311.071-.62.136-.926a3.57 3.57 0 0 1 .193-.587c.019-.044.038-.088.059-.132.117-.249.267-.554.457-.795l.015-.02c.752-.931 2.657-3.205 4.318-5.192a445.982 445.982 0 0 0 2.418-2.909c.515-.629 1.139-1.475 1.525-1.98l.103-.136c.194-.253.439-.542.58-.76.115-.166.205-.35.268-.542.067-.22.101-.45.102-.68v-.015a2.83 2.83 0 0 0-.11-.771 17.173 17.173 0 0 0-.137-.421 15.62 15.62 0 0 0-.604-1.548 31.794 31.794 0 0 0-.313-.642c-.422-.84-.992-1.91-1.429-2.687-.034-.06-.067-.12-.1-.176-.474-.833-1.202-1.916-1.537-2.43a6.366 6.366 0 0 0-.467-.646c-.017-.02-.036-.04-.054-.058-.11-.112-.24-.21-.354-.298a3.07 3.07 0 0 0-.399-.26l-.046-.024a5.757 5.757 0 0 0-.617-.29 3 3 0 0 0-.568-.138l-.035-.006a2.115 2.115 0 0 0-.487.005c-.197.02-.466.069-.696.115-.338.07-.884.198-1.326.298l-1.439.327-.65.152c-.23.054-.459.108-.682.158-.418.094-.843.182-1.257.273-.413.092-.826.189-1.24.282a901.948 901.948 0 0 1-2.206.5c-.412.093-.832.188-1.231.272-.442.094-.916.184-1.326.267-.378.077-.81.194-1.135.233-.267.032-.581.01-.81 0a3.998 3.998 0 0 1-.558-.058c-.01-.002-.021-.005-.032-.006a4.069 4.069 0 0 1-.664-.168 8.19 8.19 0 0 1-.908-.413l-.107-.057c-.333-.187-.688-.453-.994-.651-.279-.181-.553-.36-.841-.538a21.731 21.731 0 0 0-.887-.527 11.706 11.706 0 0 0-.477-.245c-.135-.067-.267-.13-.381-.189-.215-.108-.447-.186-.644-.324a3.423 3.423 0 0 1-.592-.538 5.075 5.075 0 0 1-.54-.746l-.017-.029c-.173-.306-.335-.7-.483-1.06l-.111-.273a19.618 19.618 0 0 1-.572-1.542c-.21-.687-.56-1.873-.956-3.224-.595-2.032-1.294-4.438-1.777-6.089-.176-.6-.323-1.103-.426-1.449a8.996 8.996 0 0 0-.29-.802 5.006 5.006 0 0 0-.298-.64 1.934 1.934 0 0 0-.335-.404 2.342 2.342 0 0 0-.917-.523 4.06 4.06 0 0 0-.687-.1l-.321-.019a48.894 48.894 0 0 0-1.818-.073 38.997 38.997 0 0 0-.61-.005c-.676-.001-1.431.01-1.95.02-.409.007-.85.029-1.245.05l-.297.015c-.408.022-.904.057-1.226.078-.235.015-.5.027-.705.052a3.29 3.29 0 0 0-.523.096 4.578 4.578 0 0 0-.626.241 4.264 4.264 0 0 0-.524.308 1.76 1.76 0 0 0-.268.237l-.01.01a2.58 2.58 0 0 0-.267.341c-.116.18-.222.367-.316.56a5.197 5.197 0 0 0-.216.567l-.04.123c-.111.353-.272.899-.408 1.328-.174.545-.407 1.232-.589 1.822-.086.279-.167.562-.248.844-.086.297-.17.591-.256.878-.165.546-.348 1.128-.506 1.634-.147.468-.308.973-.442 1.402l-.116.368a194.327 194.327 0 0 0-.6 1.938c-.096.316-.19.647-.282.948-.044.146-.09.29-.136.434-.044.14-.089.28-.133.424-.089.29-.168.611-.273.888a4.758 4.758 0 0 1-.354.777c-.139.233-.304.45-.491.646a4.834 4.834 0 0 1-.679.588c-.158.113-.329.21-.502.306l-.279.153c-.276.154-.608.31-.876.462-.252.142-.489.296-.737.454l-.138.088a28.17 28.17 0 0 0-.817.542c-.172.12-.346.244-.47.332-.125.089-.255.186-.371.27-.116.085-.228.173-.345.257-.117.085-.245.179-.359.25a2.193 2.193 0 0 1-.324.174c-.153.059-.31.108-.469.147a4.897 4.897 0 0 1-.505.099c-.114.014-.229.02-.344.02a5.93 5.93 0 0 1-.433-.007l-.028-.002a4.49 4.49 0 0 1-.571-.057 286.818 286.818 0 0 1-2.018-.426c-.617-.133-1.261-.272-1.807-.388l-.977-.206c-.862-.182-1.809-.383-2.635-.556l-1.034-.215a194.158 194.158 0 0 0-2.835-.555 9.847 9.847 0 0 0-.742-.122 4.386 4.386 0 0 0-.534-.018c-.142 0-.283.013-.423.037l-.02.005a3.3 3.3 0 0 0-.413.123 1.872 1.872 0 0 0-.305.13 2.7 2.7 0 0 0-.465.316c-.14.12-.306.276-.427.437a4.564 4.564 0 0 0-.212.315c-.125.201-.257.429-.38.629l-.121.2c-.154.252-.308.506-.454.763-.117.206-.259.455-.405.717a35 35 0 0 0-.423.78 141.859 141.859 0 0 0-1.304 2.572c-.224.456-.475.995-.636 1.383-.127.31-.263.673-.331.948-.017.068-.03.14-.04.212-.023.171-.031.347-.038.486-.008.163 0 .325.023.486.026.159.068.315.123.466l.024.063c.049.132.107.26.174.383.103.19.218.371.345.545.222.296.662.817.99 1.229.36.45.894 1.128 1.416 1.785l.589.74c.414.516.876 1.083 1.308 1.615.28.344.547.674.78.965.493.616 1.093 1.39 1.467 1.86.255.323.532.661.773.961.224.28.478.59.67.838.166.213.359.452.485.65.107.17.199.35.274.537.084.2.152.405.205.615l.007.035c.047.197.079.398.097.601.014.203.015.407.003.61-.016.38-.085 1.111-.1 1.669a46.559 46.559 0 0 0-.003 2.064c.012.498.063 1.103.084 1.52l.005.114c.011.284.023.61.007.852a3.327 3.327 0 0 1-.107.604 4.815 4.815 0 0 1-.426 1.063 4.804 4.804 0 0 1-.066.116c-.09.141-.19.276-.298.404l-.228.287-1.857 2.324-3.164 3.96a5984.02 5984.02 0 0 0-2.08 2.602l-.04.05c-.243.305-.54.674-.711.892-.11.142-.237.28-.332.436a3.656 3.656 0 0 0-.3.607 2.98 2.98 0 0 0-.142.625c-.016.17-.018.343-.007.514l.003.054c.002.148.023.297.06.44.07.23.224.63.357.938a87.742 87.742 0 0 0 1.036 2.286c.279.58.578 1.152.886 1.718a96.98 96.98 0 0 0 1.288 2.285c.188.319.404.676.599.933.171.224.364.43.575.618a2.297 2.297 0 0 0 .517.329c.192.089.392.158.598.206.177.039.36.059.541.06.255.005.66.013.985-.037.575-.09 1.643-.33 2.464-.5a2190.35 2190.35 0 0 0 4.998-1.039c.766-.162 1.676-.372 2.294-.508.42-.092.89-.207 1.278-.28l.139-.025c.349-.054.7-.091 1.053-.11a4.77 4.77 0 0 1 .739.007c.164.019.322.069.479.12l.051.017c.189.056.373.129.55.216.232.131.456.276.672.433.288.203.723.55 1.061.789l.057.039a35.652 35.652 0 0 0 1.766 1.121l.119.07c.208.12.427.22.637.335.223.123.487.247.702.399.21.153.407.324.589.51a3.72 3.72 0 0 1 .423.495c.119.167.221.345.303.532.107.243.23.61.328.92.212.664.631 2.019 1.019 3.272.155.504.306.991.437 1.41.338 1.09.703 2.261 1.03 3.318l.241.779c.34 1.104.793 2.591 1.014 3.315l.039.129c.093.314.19.661.283.9a2.984 2.984 0 0 0 .347.643c.134.19.288.367.46.524.187.164.394.304.618.415.224.106.459.184.702.233.267.057.594.077.893.105.372.035.895.08 1.344.104.452.025 1.153.061 1.815.088.343.014.675.025.956.03.722.014 1.534-.003 2.166-.025.544-.02 1.303-.082 1.629-.11.111-.01.228-.016.332-.059.029-.013.057-.028.086-.042a2.82 2.82 0 0 0 .356-.217c.081-.057.176-.121.271-.191.099-.074.199-.154.284-.239.175-.173.389-.372.492-.614.224-.52.589-1.665.847-2.51.449-1.47 1.412-4.84 2.088-7.099.172-.578.326-1.084.447-1.466.29-.912.754-2.033 1.036-2.68.182-.416.47-.898.654-1.195.108-.172.25-.348.374-.496l.078-.092a2.88 2.88 0 0 1 .368-.385 2.881 2.881 0 0 1 .5-.319c.312-.16.934-.399 1.38-.64l.147-.082c.349-.197.759-.45 1.144-.689.176-.108.347-.214.504-.308.35-.211.767-.48 1.111-.686.149-.09.285-.168.395-.225.211-.109.447-.162.677-.215a6.445 6.445 0 0 1 .714-.105c.197-.025.395-.035.593-.031.278.015.555.046.829.094.333.06.78.175 1.17.261l.149.033 5.277 1.167 2.385.527 1.732.381c.336.073.642.14.877.189.377.079.87.18 1.134.216a2.122 2.122 0 0 0 .455.01 4.38 4.38 0 0 0 .622-.089 2.258 2.258 0 0 0 .527-.186c.186-.097.36-.215.518-.353a3.32 3.32 0 0 0 .515-.567c.136-.198.326-.494.534-.824.253-.404.531-.859.761-1.243.379-.633.98-1.625 1.505-2.526.298-.513.571-.997.766-1.37.248-.474.499-1.083.694-1.588.104-.27.192-.51.254-.685.084-.24.128-.491.131-.744a2.478 2.478 0 0 0-.02-.356zm-26.103-15.54a16.106 16.106 0 0 1-1.155 3.98 11.295 11.295 0 0 1-.229.5 15.345 15.345 0 0 1-1.443 2.428 15.736 15.736 0 0 1-1.524 1.795 16.015 16.015 0 0 1-.84.786 14.443 14.443 0 0 1-2.399 1.684 13.985 13.985 0 0 1-2.937 1.229 13.671 13.671 0 0 1-9.287-.62 13.857 13.857 0 0 1-1.592-.823 14.364 14.364 0 0 1-1.765-1.247 14.996 14.996 0 0 1-2.749-2.972 15.747 15.747 0 0 1-2.161-4.395 21.175 21.175 0 0 1-.177-.607 15.86 15.86 0 0 1-.253-1.086 16.504 16.504 0 0 1-.258-4.516 16.314 16.314 0 0 1 1.071-4.657l.124-.307a15.644 15.644 0 0 1 .843-1.72c.039-.068.078-.137.118-.204l.114-.19a17.069 17.069 0 0 1 .522-.804 15.362 15.362 0 0 1 2.534-2.824 14.695 14.695 0 0 1 1.07-.843 14.35 14.35 0 0 1 2.577-1.464 14.543 14.543 0 0 1 1.152-.442 13.905 13.905 0 0 1 2.266-.547 14.281 14.281 0 0 1 1.284-.133c.196-.011.392-.019.59-.021l.19-.002c.092 0 .183.002.275.003a14.8 14.8 0 0 1 2.585.279 14.39 14.39 0 0 1 4.036 1.459 14.068 14.068 0 0 1 3.184 2.37 14.05 14.05 0 0 1 1.479 1.737 14.07 14.07 0 0 1 .939 1.493 14.85 14.85 0 0 1 .631 1.295 15.006 15.006 0 0 1 .447 1.157l.097.292c.108.333.205.672.293 1.015.355 1.4.541 2.874.541 4.379 0 .866-.067 1.716-.195 2.544h.002z" fill="#000" stroke="#000" stroke-width=".25"/></mask><g mask="url(#a)"><g filter="url(#b)"><path d="M117.837 375.959c18.625-4.72 37.234-9.674 55.866-14.278 17.726-4.487 19.8-18.16 16.603-59.807-7.445-95.799-13.188-192.159-19.426-288.39-1.094-16.636-7.198-28.775-13.629-27.104C111.518-1.738 65.74 10.156 19.991 21.806l97.846 354.153z" fill="#FFB9F8"/></g><g filter="url(#c)"><path d="M51.63-9.854c-.397-2.45-1.748-3.693-2.785-6.655-4.047-2.942.262-4.837 4.064-3.712 5.355 1.584 4.5 4.098 6.604 7.024 3.69 5.13 5.512 8.701 10.668 13.756C73.97 4.273 86.138 9.79 91.494 11.832c7.98 3.039 7.853 12.473 9.804 17.275 2.811 6.92 2.307 12.492 8.53 19.387 6.168 6.833 14.842 12.252 22.594 18.056 8.575 6.42 14.884 11.27 18.383 19.883 2.969 7.31-5.303 8.9-10.023 11.232-4.649 2.297 6.012 23.866 0 21.841-7.778-2.62-31.098-12.64-37.284-17.502-6.886-5.412-5.37-32.79-12.004-38.003-5.27-4.142-25.498-2.5-29.998-17.002-2.677-11.315 4.503-19.756-7.133-31.162-4.437-4.35-2.8-12.503-2.25-16.637.43-3.245.06-5.713-.483-9.054z" fill="#71BBFF"/></g><g filter="url(#d)"><path d="M152.349 106.906c-12.735-20.759-35.982-53.005-55.504-63.86-4.563 8.761 5.829 17.671 12.046 26.54 4.916 7.014 7.503 19.788 13.006 25.886L149 125.507c10.599 6.225-2.859-6.683 3.349-18.601z" fill="#0A9F68"/></g><g filter="url(#e)"><path d="M188.388 114.547c-.015 1.056-.73 2.078-.755 3.185-.024 1.106.044 4.036-.48 4.571-.756.773-1.216 2.392-2.942 2.413-1.668.021-3.311-1.187-4.618-1.944-4.795-2.78-8.814-6.522-13.156-9.72-2.196-1.617-4.914-2.681-7.247-4.212-1.137-.746-1.366-1.58-2.821-2.123-1.398-.521-2.492-1.364-3.665-2.133-2.837-1.862-6.084-2.643-9.491-3.785-3.761-1.261-7.756-4.473-10.532-6.76-8.87-7.312-11.135-17.3-16.124-26.327-1.935-3.502-2.896-7.294-5.279-10.644-2.511-3.528-6.263-6.04-10.147-8.589-6.624-4.346-14.103-8.932-19.187-14.46-2.356-2.563-4.13-5.224-4.306-8.558-.19-3.592 5.363-8.158 9.62-9.312 2.363-.64 6.513.255 8.788.76 2.413.536 4.694 1.293 6.954 2.09 8.435 2.973 15.251 8.474 20.268 14.416 6.298 7.46 15.737 10.304 24.612 15.367 4.258 2.429 7.977 5.335 11.691 8.185 2.462 1.888 2.93 5.468 4.152 7.912 3.434 6.868 3.042 14.47 8.298 20.648 2.44 2.869 5.141 5.708 8.469 7.97 1.81 1.231 4.577 3.01 5.396 4.9 1.524 3.512 3.808 7.534 2.954 11.439-.311 1.425-.432 3.3-.452 4.711z" fill="#FFE665"/></g></g><mask id="f" style="mask-type:alpha" maskUnits="userSpaceOnUse" x="0" y="0" width="255" height="120"><rect width="255" height="120" rx="4" fill="#F5F5F5"/></mask><g filter="url(#g)" mask="url(#f)"><path fill-rule="evenodd" clip-rule="evenodd" d="M164.752 165.21a2.506 2.506 0 0 1 .108.767 2.336 2.336 0 0 1-.131.745c-.062.175-.15.415-.254.685a16.555 16.555 0 0 1-.694 1.589c-.195.372-.468.856-.766 1.368-.411.707-.869 1.468-1.23 2.069l-.275.458c-.23.384-.508.839-.761 1.243-.208.33-.398.626-.534.824a3.3 3.3 0 0 1-.515.567 2.647 2.647 0 0 1-.599.391 2.182 2.182 0 0 1-.446.148 4.352 4.352 0 0 1-.622.088l-.007.001c-.15.012-.3.009-.448-.01a21.956 21.956 0 0 1-1.134-.216 84.227 84.227 0 0 1-.877-.189c-.384-.083-.808-.177-1.213-.266l-.519-.115-2.385-.527-2.912-.644-2.365-.523-.115-.026-.034-.007c-.135-.03-.276-.063-.418-.097a15.393 15.393 0 0 0-.752-.164 6.986 6.986 0 0 0-.829-.094 4.057 4.057 0 0 0-.593.031l-.157.016a6.71 6.71 0 0 0-.402.06c-.051.009-.103.018-.155.029l-.012.003c-.227.052-.458.105-.665.212-.11.057-.246.135-.395.225-.173.104-.364.223-.555.343-.191.119-.381.238-.556.343-.157.094-.328.2-.504.308l-.069.043c-.365.225-.747.461-1.075.646l-.147.082c-.26.141-.58.281-.864.405-.202.088-.386.169-.516.235a2.81 2.81 0 0 0-.281.163 2.881 2.881 0 0 0-.219.156 3.121 3.121 0 0 0-.368.385l-.078.092a4.73 4.73 0 0 0-.374.496c-.184.297-.472.779-.654 1.196-.282.646-.746 1.767-1.036 2.679-.121.382-.275.888-.447 1.466a543.398 543.398 0 0 0-1.074 3.657 338.188 338.188 0 0 1-1.014 3.442c-.258.846-.623 1.99-.847 2.51-.095.224-.286.412-.453.576l-.039.038a2.638 2.638 0 0 1-.284.239c-.076.056-.152.108-.221.156l-.05.035a2.82 2.82 0 0 1-.356.217c-.029.014-.057.029-.086.042a.984.984 0 0 1-.3.056l-.032.003c-.326.028-1.085.09-1.629.11-.632.022-1.444.039-2.166.025a43.147 43.147 0 0 1-.956-.03c-.662-.027-1.363-.063-1.815-.088a35.764 35.764 0 0 1-1.524-.12c-.246-.022-.499-.044-.713-.089a3.046 3.046 0 0 1-.702-.233 2.87 2.87 0 0 1-.618-.415 3.188 3.188 0 0 1-.46-.524l-.028-.04a2.973 2.973 0 0 1-.319-.603c-.075-.191-.151-.452-.227-.709l-.056-.191a10.459 10.459 0 0 0-.039-.129l-.126-.414c-.241-.789-.604-1.979-.888-2.901l-.241-.779-.614-1.977-.416-1.34c-.131-.42-.282-.907-.437-1.411l-.058-.187c-.371-1.199-.759-2.453-.961-3.086a10.335 10.335 0 0 0-.328-.919 2.98 2.98 0 0 0-.384-.64 4.759 4.759 0 0 0-.931-.897c-.157-.111-.34-.207-.514-.299l-.188-.1c-.092-.05-.185-.098-.278-.145a8.201 8.201 0 0 1-.359-.19l-.032-.019-.087-.051c-.254-.15-.575-.348-.85-.522-.301-.19-.615-.391-.916-.599l-.057-.039c-.179-.126-.385-.283-.583-.433-.175-.133-.343-.261-.478-.356a6.985 6.985 0 0 0-.672-.433 3.507 3.507 0 0 0-.55-.216l-.051-.017a2.489 2.489 0 0 0-.479-.12 4.722 4.722 0 0 0-.739-.007c-.353.019-.704.056-1.053.11l-.139.025c-.26.049-.556.117-.85.184-.145.033-.289.066-.428.096l-.786.176c-.487.109-1.026.23-1.508.332a1600.7 1600.7 0 0 1-4.998 1.039l-.747.158c-.644.137-1.307.278-1.717.342-.325.05-.73.042-.985.036a2.53 2.53 0 0 1-.541-.059 3.08 3.08 0 0 1-.795-.309 2.322 2.322 0 0 1-.32-.226 4.377 4.377 0 0 1-.575-.618 10.161 10.161 0 0 1-.599-.933 92.645 92.645 0 0 1-1.289-2.285 38.462 38.462 0 0 1-.885-1.718 88.763 88.763 0 0 1-1.036-2.286 10.58 10.58 0 0 1-.357-.937 1.89 1.89 0 0 1-.061-.469l-.002-.026a3.292 3.292 0 0 1 .007-.514 2.976 2.976 0 0 1 .142-.625 3.718 3.718 0 0 1 .3-.607c.067-.11.15-.21.23-.31l.102-.126c.128-.163.326-.409.519-.651l.192-.241a.466.466 0 0 1 .02-.023l.02-.027 2.08-2.603 1.18-1.477 1.984-2.482.825-1.032 1.031-1.292.088-.11.14-.177c.109-.128.209-.263.3-.404l.065-.116c.08-.141.15-.286.213-.435l.046-.116c.065-.168.12-.338.167-.512.054-.198.09-.4.107-.604a8.826 8.826 0 0 0-.007-.852c0-.03-.002-.062-.004-.095v-.02c-.008-.149-.02-.321-.032-.504a25.22 25.22 0 0 1-.053-1.015 46.518 46.518 0 0 1 .002-2.064c.01-.334.038-.73.063-1.076.017-.232.032-.441.038-.593a4.686 4.686 0 0 0-.003-.61 4.297 4.297 0 0 0-.097-.601l-.005-.025-.002-.01a4.364 4.364 0 0 0-.205-.615 3.465 3.465 0 0 0-.274-.538 7.594 7.594 0 0 0-.389-.527 39.142 39.142 0 0 0-.568-.714 110.3 110.3 0 0 1-.198-.246l-.273-.338a112.644 112.644 0 0 1-1.043-1.313c-.3-.381-.63-.804-.924-1.17-.233-.291-.5-.621-.78-.965l-.202-.249a244.718 244.718 0 0 1-1.695-2.106c-.232-.291-.465-.587-.685-.865l-.73-.92c-.129-.162-.275-.34-.418-.515-.222-.271-.438-.534-.573-.714a4.717 4.717 0 0 1-.345-.545 2.927 2.927 0 0 1-.174-.383l-.006-.015a2.572 2.572 0 0 1-.141-.514 2.46 2.46 0 0 1-.023-.486l.001-.016c.006-.137.014-.306.037-.47.01-.072.023-.144.04-.212.068-.275.204-.639.331-.948.161-.388.412-.927.636-1.383l.2-.404c.339-.68.812-1.612 1.104-2.168.131-.252.28-.522.423-.78.146-.262.288-.511.405-.717.146-.257.3-.511.454-.764l.076-.124.046-.075.157-.261c.074-.124.15-.251.222-.368.074-.118.146-.227.212-.315.12-.161.287-.316.427-.437.02-.017.038-.034.057-.049.128-.101.264-.191.408-.268.098-.052.2-.095.305-.129.134-.05.273-.091.413-.123l.01-.003.01-.002c.14-.024.281-.037.423-.037.178-.005.356.001.534.018.212.023.495.074.742.122l.752.143a191.774 191.774 0 0 1 3.117.627c.778.163 1.664.35 2.484.524l.151.032.977.206c.51.108 1.107.237 1.687.361l.12.026c.595.128 1.164.25 1.592.339l.426.088c.189.031.379.05.571.057l.013.001.015.001c.147.008.309.009.433.007a2.637 2.637 0 0 0 .541-.054 4.391 4.391 0 0 0 .777-.212l.088-.04c.082-.04.16-.085.236-.135a5.6 5.6 0 0 0 .329-.227l.03-.022c.063-.045.125-.092.187-.139l.158-.118.078-.057.293-.213.061-.043c.117-.083.264-.188.409-.289l.201-.139c.194-.131.408-.27.616-.403l.138-.088.115-.073c.207-.132.409-.261.622-.381.141-.08.299-.161.458-.243.143-.073.287-.146.418-.219l.158-.087.121-.066c.173-.095.344-.193.502-.306a5.141 5.141 0 0 0 .679-.588 3.67 3.67 0 0 0 .491-.646c.072-.13.14-.263.201-.398.056-.124.108-.25.153-.379.071-.187.13-.394.189-.598l.084-.29.133-.424a20.32 20.32 0 0 0 .136-.434c.049-.159.098-.327.148-.496a158.172 158.172 0 0 1 .85-2.758l.27-.858.172-.544.089-.285c.135-.434.282-.903.417-1.349.082-.274.163-.555.244-.838l.012-.04c.081-.282.162-.565.248-.844.113-.367.246-.771.372-1.155l.217-.667c.071-.223.148-.477.221-.719l.187-.609.036-.112.004-.011c.061-.193.133-.383.216-.567a5.4 5.4 0 0 1 .316-.56c.079-.121.169-.235.267-.34l.005-.006.005-.005c.081-.088.171-.168.268-.237a4.46 4.46 0 0 1 .524-.308c.202-.095.411-.176.626-.241a3.291 3.291 0 0 1 .523-.096c.158-.019.352-.03.541-.042a7.62 7.62 0 0 0 .164-.01l.163-.011c.312-.021.718-.049 1.063-.067l.297-.015a38.16 38.16 0 0 1 1.245-.051c.519-.01 1.274-.02 1.95-.019.215.001.422.002.61.005a50.787 50.787 0 0 1 2.019.085l.156-.013 1.729.19.008.001.007.001 1.194.137.513.059.514.06.352.04s.155.029.287.061a1.56 1.56 0 0 1 .257.083c.052.022.103.046.154.07l.064.03.046.021.035.016c.093.043.189.088.278.141.123.072.261.156.377.254a3.723 3.723 0 0 1 .404.403c.102.117.195.244.276.378.078.129.148.276.211.419l.011.025c.069.156.133.33.189.498.055.165.13.408.207.659l.16.515.077.243.555 1.744.585 1.842.031.099.934 2.959.963 3.052.236.75.07.226c.043.138.086.276.128.404l.041.127c.048.149.097.301.154.429l.002.006.005.01c.065.144.152.285.23.412l.006.009c.053.085.107.17.165.252.029.039.058.078.089.116a4.734 4.734 0 0 0 .41.434c.113.105.237.203.359.294l.061.045c.138.1.281.195.43.279.115.065.262.139.413.213l.275.138.225.116c.155.08.31.16.463.245.208.115.426.246.632.369l.068.041.1.059a27.856 27.856 0 0 1 .557.341c.13.084.258.174.384.263l.154.107.054.038.169.116c.143.099.288.199.403.275l.034.022c.069.044.149.093.22.136.256-.05.52-.103.774-.156.377-.08.772-.169 1.162-.257l.069-.016.111-.024.06-.014 2.035-.461.471-.108a64.463 64.463 0 0 1 1.349-.3c.226-.049.453-.097.677-.148.223-.05.452-.104.682-.158a9.69 9.69 0 0 0 .182-.043l.468-.109c.46-.106.974-.222 1.434-.326l.005-.001.426-.097c.331-.076.666-.153.9-.2a7.47 7.47 0 0 1 .696-.116c.162-.02.325-.022.487-.005l.023.004.012.002c.193.027.383.073.568.138.211.084.417.181.617.29l.015.008.031.017c.139.075.273.162.399.259l.001.001c.114.087.243.185.353.297l.034.035.02.023c.169.205.325.421.467.646l.228.348c.373.567.925 1.407 1.309 2.082l.072.126.028.05a71.307 71.307 0 0 1 1.429 2.687c.118.236.224.454.313.642.223.473.446 1.079.604 1.548.054.16.101.304.137.421.072.25.109.51.11.771v.015a2.373 2.373 0 0 1-.102.68 2.146 2.146 0 0 1-.268.543c-.096.148-.241.33-.385.511l-.195.248-.067.088-.036.047c-.092.12-.196.259-.31.41a52.16 52.16 0 0 1-1.215 1.571c-.521.637-1.426 1.722-2.418 2.909l-.604.722c-1.496 1.79-3.052 3.65-3.714 4.469l-.009.012-.006.009c-.19.241-.34.546-.457.795a3.568 3.568 0 0 0-.252.719 7.253 7.253 0 0 0-.136.926c-.02.226-.025.453-.03.679l-.006.247c-.013.459-.029 1.219-.042 1.826-.007.293-.012.59-.017.885a67.08 67.08 0 0 1-.038 1.649c-.012.352-.023.696-.024.961v.11c-.001.306-.001.646.033.887l.001.003c.021.142.073.277.126.413.027.068.054.136.076.205l.015.045c.071.22.156.484.233.707.022.064.043.129.063.194l.061.189c.035.101.074.2.124.291.085.157.201.293.316.429l.107.129c.251.307.665.809 1.137 1.381a721.06 721.06 0 0 1 1.957 2.38c.411.504.857 1.056 1.303 1.61l.386.479c.583.723 1.15 1.426 1.626 2.008.318.389.693.833 1.057 1.264.524.619 1.023 1.209 1.292 1.565.104.139.189.3.258.462.048.113.089.226.122.333zm-26.391-13.361a16.5 16.5 0 0 0 .376-1.768l-.002.001c.128-.828.195-1.678.195-2.544 0-1.504-.186-2.978-.541-4.379a16.923 16.923 0 0 0-.837-2.464 15.805 15.805 0 0 0-.631-1.295 14.23 14.23 0 0 0-1.742-2.507 14 14 0 0 0-6.536-4.212 14.698 14.698 0 0 0-2.142-.474 14.975 14.975 0 0 0-1.803-.145c-.092-.001-.183-.003-.275-.003l-.19.002a12.817 12.817 0 0 0-1.092.058 13.522 13.522 0 0 0-1.426.21 14.253 14.253 0 0 0-1.622.433 13.113 13.113 0 0 0-1.152.442 14.39 14.39 0 0 0-3.94 2.567 15.66 15.66 0 0 0-1.067 1.077 15.509 15.509 0 0 0-1.174 1.487c-.07.102-.14.204-.208.307-.107.163-.212.328-.314.496l-.114.191c-.04.067-.079.136-.118.204a16.335 16.335 0 0 0-.696 1.379 20.589 20.589 0 0 0-.271.647 16.116 16.116 0 0 0-1.123 5.978 16.511 16.511 0 0 0 .668 4.653c.023.079.047.158.072.236.034.111.07.22.106.33a17.38 17.38 0 0 0 .605 1.533 15.827 15.827 0 0 0 .552 1.096 15.864 15.864 0 0 0 1.276 1.949 15.174 15.174 0 0 0 2.371 2.459 14.854 14.854 0 0 0 1.765 1.247 13.78 13.78 0 0 0 3.505 1.498 13.785 13.785 0 0 0 2.558.439 13.517 13.517 0 0 0 1.38.035 13.529 13.529 0 0 0 2.601-.317 13.596 13.596 0 0 0 2.341-.743 13.9 13.9 0 0 0 1.431-.697 14.445 14.445 0 0 0 2.856-2.097 14.951 14.951 0 0 0 1.049-1.089 16.078 16.078 0 0 0 .858-1.079 14.868 14.868 0 0 0 .827-1.267 15.609 15.609 0 0 0 .845-1.661c.31-.71.571-1.449.779-2.213z" fill="url(#h)"/></g><defs><filter id="b" x="13.99" y="-19.774" width="183.562" height="401.734" filterUnits="userSpaceOnUse" color-interpolation-filters="sRGB"><feFlood flood-opacity="0" result="BackgroundImageFix"/><feBlend in="SourceGraphic" in2="BackgroundImageFix" result="shape"/><feGaussianBlur stdDeviation="3" result="effect1_foregroundBlur_5294_8989"/></filter><filter id="c" x="41.215" y="-26.549" width="116.217" height="152.189" filterUnits="userSpaceOnUse" color-interpolation-filters="sRGB"><feFlood flood-opacity="0" result="BackgroundImageFix"/><feBlend in="SourceGraphic" in2="BackgroundImageFix" result="shape"/><feGaussianBlur stdDeviation="3" result="effect1_foregroundBlur_5294_8989"/></filter><filter id="d" x="89.721" y="37.045" width="69.504" height="96.081" filterUnits="userSpaceOnUse" color-interpolation-filters="sRGB"><feFlood flood-opacity="0" result="BackgroundImageFix"/><feBlend in="SourceGraphic" in2="BackgroundImageFix" result="shape"/><feGaussianBlur stdDeviation="3" result="effect1_foregroundBlur_5294_8989"/></filter><filter id="e" x="71.633" y="9.927" width="123.393" height="120.79" filterUnits="userSpaceOnUse" color-interpolation-filters="sRGB"><feFlood flood-opacity="0" result="BackgroundImageFix"/><feBlend in="SourceGraphic" in2="BackgroundImageFix" result="shape"/><feGaussianBlur stdDeviation="3" result="effect1_foregroundBlur_5294_8989"/></filter><filter id="g" x="85" y="100" width="80.861" height="95" filterUnits="userSpaceOnUse" color-interpolation-filters="sRGB"><feFlood flood-opacity="0" result="BackgroundImageFix"/><feBlend in="SourceGraphic" in2="BackgroundImageFix" result="shape"/><feGaussianBlur stdDeviation=".5" result="effect1_foregroundBlur_5294_8989"/></filter><linearGradient id="h" x1="125.43" y1="101" x2="125.5" y2="119.5" gradientUnits="userSpaceOnUse"><stop stop-color="#ABABAB" stop-opacity=".64"/><stop offset="1" stop-color="#E9E8E8" stop-opacity="0"/></linearGradient></defs></svg>
