<svg width="46" height="51" fill="none" xmlns="http://www.w3.org/2000/svg"><path d="M12.487 12.11c-.036-.001-.089.004-.131.004-.017 0-.031 0-.043-.003l-.618-.127-1.352-.279-1.12-.232-1.3-.268-.097-.02c-.137-.028-.317-.06-.43-.081l-.049-.01-.056-.01a.63.63 0 0 0-.08-.012 5.999 5.999 0 0 0-.076-.005l-.501-.027a45.79 45.79 0 0 1-.541-.03c-.263-.018-.58-.046-.841-.066a6.306 6.306 0 0 0-.795-.02c-.057.002-.117.003-.168.023.047-.005.095-.006.142-.007.085-.002.19-.001.283.01.113.011.264.04.395.064l.322.061a105.775 105.775 0 0 1 1.626.325l1.462.309.58.122.753.162c.386.082.77.165 1.048.223l.239.05c.1.02.214.024.306.03l.029.002c.075.004.155.004.218.003.055-.002.11-.004.166-.012l.013-.001c.075-.011.183-.031.27-.053l.041-.01a2.19 2.19 0 0 0 .211-.068.844.844 0 0 0 .094-.046zM40.029 40.915a1.292 1.292 0 0 1-.292.101 2.914 2.914 0 0 1-.43.06 3.884 3.884 0 0 0 .374.002c.135-.008.338-.029.568-.053l.112-.014c.056-.007.121-.015.184-.02l.383-.025.306-.022.015-.002.158-.013.303-.03a3.6 3.6 0 0 0 .195-.026c.071-.012.14-.037.206-.064l.056-.023c.09-.037.195-.076.278-.137l.039-.03a3.315 3.315 0 0 0 .37-.337 2.763 2.763 0 0 0 .299-.4c.12-.186.33-.527.492-.793l.145-.237c.104-.171.209-.342.305-.518.056-.105.118-.225.18-.349a60.959 60.959 0 0 0 .583-1.192c.093-.193.208-.431.27-.58.041-.103.078-.211.1-.318a2.052 2.052 0 0 0 .027-.578 1.341 1.341 0 0 0-.108-.42 1.61 1.61 0 0 0-.19-.349 5.566 5.566 0 0 0-.178-.255c-.11-.146-.269-.342-.41-.515l-.022-.027c-.185-.225-.526-.627-.731-.877a12.3 12.3 0 0 1-.059-.07c-.126-.156-.244-.318-.369-.474-.135-.169-.303-.367-.44-.535-.13-.157-.26-.313-.387-.47l-.156-.194-.243-.301-.296-.362-.325-.398a11.8 11.8 0 0 1-.057-.07c-.098-.121-.204-.254-.283-.35-.073-.088-.151-.173-.224-.262a25.892 25.892 0 0 1-.3-.375c-.053-.068-.114-.143-.166-.211a2.177 2.177 0 0 1-.196-.292 2.464 2.464 0 0 1-.194-.434 2.837 2.837 0 0 1-.056-.175c-.02-.07-.025-.144-.033-.217a2.368 2.368 0 0 1-.016-.345l.008-.306c.007-.163.024-.364.03-.547l.003-.05a27.283 27.283 0 0 0 .01-1.084v-.029c-.004-.156-.014-.332-.02-.458-.005-.105-.014-.21-.02-.314l-.008-.193a6.9 6.9 0 0 1-.004-.137c-.002-.086-.005-.177 0-.257.005-.076.016-.152.033-.226a2.92 2.92 0 0 1 .16-.492l.03-.067c.038-.08.075-.16.126-.231.045-.063.114-.149.19-.244l.3-.37.73-.9.243-.297c.334-.409.698-.846 1.032-1.256l.074-.092c.304-.374.623-.773.898-1.11l.216-.264c.223-.27.46-.554.6-.725l.052-.064c.087-.105.176-.213.255-.317a5.68 5.68 0 0 0 .268-.366c.014-.021.026-.044.039-.066.032-.059.06-.12.083-.182a1.268 1.268 0 0 0 .098-.523v-.075a1.828 1.828 0 0 0-.082-.554 3.618 3.618 0 0 0-.108-.295l-.03-.07a14.986 14.986 0 0 0-.398-.839l-.264-.518-.187-.373a9.181 9.181 0 0 0-.137-.264 17.648 17.648 0 0 0-.423-.734c-.05-.085-.112-.185-.176-.289a54.226 54.226 0 0 0-.405-.647l-.09-.138a2.76 2.76 0 0 0-.146-.204 1.342 1.342 0 0 0-.196-.188c-.012-.01-.024-.02-.036-.028a2.685 2.685 0 0 0-.212-.142 1.192 1.192 0 0 0-.11-.055 1.645 1.645 0 0 0-.253-.083 2.412 2.412 0 0 0-.425-.067 13.285 13.285 0 0 1-.087-.006l-.089-.007-.286-.02-.262-.017a61.052 61.052 0 0 0-.86-.047c-.213-.01-.424-.018-.532-.02-.047-.002-.095-.003-.14.01a.098.098 0 0 1-.01.003c.038 0 .077.001.115.006a1.572 1.572 0 0 1 .462.137c.075.036.15.075.207.106.074.04.144.086.21.136l.063.048c.053.042.108.089.153.14.049.056.104.13.157.208.032.045.063.091.09.135l.194.295c.129.195.282.432.424.662a10.927 10.927 0 0 1 .273.464 34.957 34.957 0 0 1 .911 1.742 9.652 9.652 0 0 1 .394 1.048 1.582 1.582 0 0 1 .058.415 1.28 1.28 0 0 1-.053.358c-.03.1-.083.195-.141.284a2.025 2.025 0 0 1-.074.104c-.072.096-.16.203-.234.3-.097.125-.235.31-.387.51-.157.208-.328.43-.481.618l-.17.205c-.294.357-.717.864-1.17 1.406l-1.361 1.63c-.381.457-.704.847-.892 1.079a1.28 1.28 0 0 0-.086.123 2.994 2.994 0 0 0-.168.316 2.028 2.028 0 0 0-.135.386c-.035.147-.057.331-.073.497-.013.14-.014.28-.017.42l-.002.075-.02.892-.002.082c-.007.295-.01.6-.017.888 0 .028 0 .055-.002.082-.006.298-.023.656-.023.894v.236c0 .11.005.216.017.3.017.115.073.221.11.332l.047.148.084.254c.043.121.074.252.134.362a.98.98 0 0 0 .093.138c.044.055.09.107.134.162.168.206.474.575.805.977.287.347.592.718.846 1.029l.16.198c.433.532.917 1.136 1.328 1.643a41.887 41.887 0 0 0 .728.88c.225.267.453.535.624.744.07.087.132.164.18.228a1.414 1.414 0 0 1 .257.822 1.229 1.229 0 0 1-.069.391c-.076.213-.222.608-.381.955-.04.09-.083.177-.124.256-.117.223-.286.521-.468.831-.222.38-.462.78-.645 1.083l-.098.163c-.094.158-.205.34-.312.513a16.68 16.68 0 0 1-.377.588 1.756 1.756 0 0 1-.316.337c-.073.058-.153.11-.23.149zM11.5 39.234c.075-.004.154-.006.23-.005a1.699 1.699 0 0 1 .231.02c.076.014.15.04.223.063l.013.004c.057.019.116.039.174.062l-.215.054-.027.006-.444.092-.878.182-1.256.26-1.276.265-.708.147c-.063.013-.126.028-.19.039a1.038 1.038 0 0 0-.02.003c-.061.01-.137.023-.21.032a71.226 71.226 0 0 1-.692.05l-.259.017c-.186.012-.404.027-.592.038l-.269.016a7.87 7.87 0 0 1-.423.013c-.042 0-.127-.001-.172-.006-.03-.004-.026-.013-.04-.015l-.004-.001c.046-.004.195-.008.284-.022.213-.033.552-.105.887-.176l.426-.09a1190.416 1190.416 0 0 0 2.665-.554l.057-.012c.348-.075.741-.165 1.045-.232l.122-.027c.143-.031.298-.068.445-.1a6.618 6.618 0 0 1 .408-.078c.161-.022.334-.037.466-.045zM33.018 39.715a16.787 16.787 0 0 1-.19-.044c-.117-.027-.235-.055-.34-.077a3.79 3.79 0 0 0-.535-.068 2.138 2.138 0 0 0-.319.017c-.048.005-.101.01-.155.017a2.5 2.5 0 0 0-.228.039c-.124.029-.251.057-.365.116-.037.019-.079.043-.125.07-.155.09-.354.216-.538.33l-.14.086c-.137.082-.292.179-.447.274-.18.11-.36.22-.51.301-.238.129-.57.256-.736.342a1.572 1.572 0 0 0-.27.172 1.077 1.077 0 0 0-.123.119 3.716 3.716 0 0 0-.076.088c-.073.087-.172.203-.242.316-.032.051-.069.113-.108.18-.084.141-.177.309-.243.46-.127.292-.324.766-.475 1.2a8.943 8.943 0 0 0-.077.231c-.142.448-.369 1.214-.602 2.012-.164.563-.332 1.142-.477 1.635-.108.368-.203.69-.273.921a27.2 27.2 0 0 1-.33 1.017 5.547 5.547 0 0 1-.121.32c-.054.127-.167.23-.259.322a1.805 1.805 0 0 1-.245.194l-.049.033a1.447 1.447 0 0 1-.232.137.318.318 0 0 1-.061.018h.014c.035.006.07-.001.106-.005a27.919 27.919 0 0 0 .491-.057l.56-.069.565-.07c.183-.023.413-.048.558-.072l.027-.005a1.532 1.532 0 0 0 .41-.145l.08-.043c.065-.04.125-.09.183-.141l.01-.01c.058-.05.117-.11.165-.164.047-.056.094-.114.13-.178.038-.07.075-.155.101-.237l.006-.017c.112-.347.328-1.026.556-1.742l.46-1.45.122-.384.68-2.15c.146-.457.27-.851.35-1.097.047-.148.103-.32.151-.44.038-.097.079-.193.135-.28l.007-.01a2.89 2.89 0 0 1 .46-.506l.01-.007a.921.921 0 0 1 .147-.102c.105-.057.316-.154.472-.234l.37-.187c.124-.063.25-.13.36-.192.178-.101.373-.23.533-.333l.1-.064c.128-.08.288-.18.389-.247l.02-.014c.056-.038.114-.093.163-.127zM20.386 17.645a7.269 7.269 0 0 1 1.025-.083l.086-.001a7.777 7.777 0 0 1 1.672.18c-.018.005-.038.002-.058.005-.054.008-.176.024-.264.041l-.154.03c-.163.03-.37.07-.536.117a9.562 9.562 0 0 0-.852.3c-.232.094-.47.205-.678.323-.177.1-.35.222-.511.337l-.063.045a7.255 7.255 0 0 0-.503.384 7.324 7.324 0 0 0-.955.985 8.18 8.18 0 0 0-.695.992l-.031.053c-.114.2-.253.464-.352.67a6.928 6.928 0 0 0-.24.569 9.37 9.37 0 0 0-.284.88c-.053.209-.1.43-.138.621a7.52 7.52 0 0 0-.104.67c-.022.215-.034.441-.04.663v.051c-.005.258-.001.609.01.834.009.172.036.343.058.514.024.194.047.445.087.649.016.084.036.168.059.252.028.107.06.213.091.319.06.202.132.431.206.641.073.208.156.426.24.616.078.179.168.353.26.525.07.13.149.273.232.414a7.618 7.618 0 0 0 .54.776 11.535 11.535 0 0 0 .625.706 7.71 7.71 0 0 0 .817.715 9.988 9.988 0 0 0 .896.578c.116.065.234.126.353.183a8.79 8.79 0 0 0 .82.332c.144.046.289.086.435.122a10.507 10.507 0 0 0 .677.145c.099.016.235.008.307.015a7.343 7.343 0 0 1-2.779.208 7.276 7.276 0 0 1-2.526-.778 7.753 7.753 0 0 1-1.807-1.302 8.179 8.179 0 0 1-1.232-1.514 8.49 8.49 0 0 1-1.085-2.587 8.781 8.781 0 0 1-.228-2.375c.027-.7.137-1.376.318-2.02.204-.727.499-1.412.871-2.039a8.086 8.086 0 0 1 2.257-2.463 7.481 7.481 0 0 1 2.255-1.095c.3-.086.606-.155.919-.203zM24.32 1.118a.96.96 0 0 1 .255.11c.08.045.16.102.226.165a1.024 1.024 0 0 1 .176.211c.055.092.11.223.158.339a5.885 5.885 0 0 1 .154.426 211.308 211.308 0 0 1 .553 1.89l.262.897.504 1.725c.15.512.28.948.366 1.228.034.111.075.228.117.345.085.23.179.455.248.625.039.096.08.197.123.295a2.55 2.55 0 0 0 .434.689c.092.105.203.207.31.283l.009.006c.105.073.23.116.345.174l.281.139c.06.03.12.061.176.092a11.736 11.736 0 0 1 .578.346l.343.221c.104.068.218.15.334.226a3.079 3.079 0 0 0 .49.269c.091.04.179.077.252.105.03.01.06.021.092.03a2.923 2.923 0 0 0 .396.08c.062.007.124.012.186.014.103.005.24.014.367.006a1.13 1.13 0 0 0 .069-.006c.114-.013.252-.045.391-.077.073-.016.145-.033.215-.047l.05-.01.253-.05c-.041-.025-.092-.056-.135-.084a.505.505 0 0 1-.018-.011c-.086-.057-.203-.14-.305-.21a1.323 1.323 0 0 1-.029-.019c-.094-.065-.19-.134-.287-.197a5.873 5.873 0 0 0-.142-.09l-.208-.124a8.816 8.816 0 0 0-.62-.35l-.12-.06c-.123-.064-.268-.132-.368-.188a2.392 2.392 0 0 1-.261-.173 2.24 2.24 0 0 1-.41-.388 2.45 2.45 0 0 1-.135-.196c-.043-.07-.091-.146-.127-.225 0-.003-.002-.006-.004-.008-.039-.089-.07-.198-.103-.297-.035-.105-.07-.224-.106-.336l-.126-.4-.513-1.628a3344.142 3344.142 0 0 0-.827-2.613 1259.87 1259.87 0 0 1-.337-1.06c-.066-.208-.146-.477-.196-.626a3.183 3.183 0 0 0-.1-.266 1.98 1.98 0 0 0-.119-.237 1.448 1.448 0 0 0-.198-.257 2.083 2.083 0 0 0-.165-.159 1.469 1.469 0 0 0-.35-.21l-.042-.02-.117-.054a.792.792 0 0 0-.137-.044c-.07-.017-.153-.032-.153-.032l-.188-.022-.547-.063-.637-.074h-.008l-.922-.102-.101.009-.102.004.184.012c.123.008.262.024.366.051v.001z" fill="#E9E8E8"/><mask id="a" style="mask-type:alpha" maskUnits="userSpaceOnUse" x="0" y="0" width="44" height="51"><path d="M43.048 35.465a1.334 1.334 0 0 0-.112-.397 1.184 1.184 0 0 0-.138-.246c-.242-.322-.839-1.003-1.253-1.51-.31-.378-.691-.853-1.072-1.326a188.34 188.34 0 0 0-1.211-1.488c-.447-.542-.912-1.103-1.134-1.377-.079-.096-.166-.187-.226-.297a1.02 1.02 0 0 1-.066-.155c-.023-.068-.043-.137-.066-.204-.044-.127-.093-.28-.133-.402-.035-.11-.09-.215-.108-.33-.02-.145-.018-.355-.018-.533.002-.237.018-.595.024-.892.007-.311.012-.647.018-.971.007-.324.016-.73.023-.974.005-.165.004-.33.02-.494.013-.166.037-.331.072-.494a1.975 1.975 0 0 1 .134-.384c.063-.132.142-.295.244-.424l.008-.01c.401-.497 1.417-1.71 2.303-2.77.529-.632 1.011-1.211 1.29-1.55.274-.336.607-.787.813-1.057l.055-.072c.103-.135.234-.29.309-.405.061-.09.11-.187.143-.29.036-.117.054-.24.054-.362v-.008c0-.14-.02-.278-.059-.412a8.295 8.295 0 0 0-.562-1.392 37.63 37.63 0 0 0-.761-1.433l-.054-.094c-.253-.444-.641-1.022-.82-1.296a3.397 3.397 0 0 0-.278-.376 1.77 1.77 0 0 0-.189-.159 1.623 1.623 0 0 0-.212-.138l-.025-.013a3.026 3.026 0 0 0-.329-.155 1.594 1.594 0 0 0-.303-.073l-.018-.003a1.123 1.123 0 0 0-.26.002 4.26 4.26 0 0 0-.371.062c-.18.037-.472.105-.708.159l-.767.174-.346.081-.364.085c-.223.05-.45.096-.67.145l-.662.15-1.085.247-.091.02c-.22.05-.444.1-.657.145-.236.05-.489.098-.707.143-.202.04-.432.103-.605.123-.143.018-.31.006-.433 0-.1-.003-.199-.013-.297-.03L31.37 12a2.157 2.157 0 0 1-.354-.089 4.38 4.38 0 0 1-.542-.25c-.178-.1-.367-.242-.53-.348-.149-.097-.295-.192-.448-.287a11.515 11.515 0 0 0-.474-.28 6.326 6.326 0 0 0-.254-.132l-.203-.1c-.115-.058-.239-.1-.344-.173a1.817 1.817 0 0 1-.38-.363 2.658 2.658 0 0 1-.223-.322l-.01-.015a5.243 5.243 0 0 1-.257-.565l-.06-.146c-.098-.243-.221-.551-.304-.823a181.11 181.11 0 0 1-.51-1.72l-.948-3.247-.227-.772a4.825 4.825 0 0 0-.314-.77 1.03 1.03 0 0 0-.178-.215 1.251 1.251 0 0 0-.49-.28 2.16 2.16 0 0 0-.366-.052A26.105 26.105 0 0 0 22.49 1c-.36 0-.763.005-1.04.01a20.08 20.08 0 0 0-.822.036c-.218.01-.482.03-.654.041-.125.008-.267.015-.376.028a1.735 1.735 0 0 0-.613.18 2.205 2.205 0 0 0-.28.163.928.928 0 0 0-.142.127l-.006.006c-.052.056-.1.117-.142.181a2.852 2.852 0 0 0-.169.299 2.638 2.638 0 0 0-.136.368c-.06.188-.145.48-.218.708-.093.291-.217.657-.314.972-.046.149-.09.3-.133.45-.045.158-.09.315-.136.468-.088.291-.185.602-.27.872l-.235.748a66.092 66.092 0 0 0-.197.624c-.062.202-.13.42-.185.605-.051.169-.101.346-.15.506l-.073.231-.07.227c-.048.155-.09.325-.147.473a2.56 2.56 0 0 1-.189.415 1.946 1.946 0 0 1-.433.507 2.64 2.64 0 0 1-.19.15c-.085.06-.176.113-.268.164l-.15.082c-.146.082-.323.165-.466.246-.134.076-.26.158-.393.242l-.074.047a16.346 16.346 0 0 0-.436.289l-.25.177-.198.144c-.062.045-.121.092-.184.137-.063.046-.13.095-.191.133a1.212 1.212 0 0 1-.173.093 2.046 2.046 0 0 1-.415.114 1.389 1.389 0 0 1-.288.028c-.067.001-.153 0-.231-.004h-.015a2.394 2.394 0 0 1-.305-.031l-.227-.047c-.228-.047-.532-.112-.849-.18l-.964-.207-.52-.11-1.406-.296a102.346 102.346 0 0 0-2.064-.41 5.196 5.196 0 0 0-.395-.066 2.334 2.334 0 0 0-.51.01l-.011.002a1.762 1.762 0 0 0-.383.135 1.436 1.436 0 0 0-.248.169 1.599 1.599 0 0 0-.228.233 2.432 2.432 0 0 0-.113.168c-.067.107-.137.229-.202.336l-.065.106c-.083.134-.165.27-.242.407-.063.11-.139.243-.216.382-.077.138-.156.282-.226.416a76.06 76.06 0 0 0-.696 1.372c-.119.243-.253.53-.339.738a4.07 4.07 0 0 0-.177.505 1.058 1.058 0 0 0-.02.114c-.013.09-.017.185-.02.259-.005.086-.001.173.011.26.015.084.037.167.066.248l.013.033c.026.07.057.139.093.205.054.1.116.197.184.29.118.158.353.436.528.655.192.24.476.602.755.953l.314.394c.22.275.467.578.697.861.15.184.292.36.416.515.264.329.584.741.783.992.136.172.284.353.412.513.12.149.255.315.358.447.088.113.19.24.258.346.057.091.106.187.147.287.044.106.08.215.109.327l.004.02c.024.105.042.212.05.32.009.108.01.217.003.325-.009.203-.046.593-.054.89a24.67 24.67 0 0 0-.001 1.1c.006.267.034.59.045.811l.002.061c.006.152.013.326.004.455a1.774 1.774 0 0 1-.057.322 2.58 2.58 0 0 1-.09.273 2.314 2.314 0 0 1-.173.356 2.088 2.088 0 0 1-.158.216l-.122.152-.99 1.24-1.688 2.112a2716.1 2716.1 0 0 0-1.11 1.388l-.02.026-.38.476c-.059.076-.126.15-.177.233a1.91 1.91 0 0 0-.16.324 1.585 1.585 0 0 0-.076.333 1.75 1.75 0 0 0-.003.274l.001.028c.002.08.012.159.032.236.037.122.12.336.19.5a46.31 46.31 0 0 0 .553 1.219c.149.31.309.614.473.916a51.382 51.382 0 0 0 .687 1.219c.1.17.215.36.32.497.09.12.193.23.306.33a1.213 1.213 0 0 0 .276.175 1.369 1.369 0 0 0 .608.142c.135.003.351.007.524-.02.307-.047.877-.176 1.315-.266a1218.089 1218.089 0 0 0 2.665-.554c.409-.087.894-.199 1.224-.271.224-.05.474-.11.681-.15l.074-.013a5.62 5.62 0 0 1 .562-.059 2.512 2.512 0 0 1 .394.004c.087.01.172.037.256.064l.027.01c.1.03.199.068.293.114.124.07.243.148.358.231.154.109.386.294.566.42l.03.022a17.93 17.93 0 0 0 .942.598l.064.037c.111.064.228.117.34.179.119.065.26.132.374.212a2.517 2.517 0 0 1 .54.537c.064.089.118.184.162.284.057.13.122.325.174.49.114.354.337 1.077.544 1.745l.233.753.55 1.769.128.415c.181.589.423 1.382.54 1.768l.021.069c.05.167.102.353.152.48.044.113.1.221.17.322l.014.02a1.517 1.517 0 0 0 .575.5c.12.058.245.1.375.126.142.03.317.04.476.056.199.018.478.043.717.056.241.013.615.032.968.046.183.008.36.014.51.016.385.008.818-.001 1.155-.013.29-.01.695-.044.869-.059.059-.005.122-.008.177-.03l.045-.024a1.47 1.47 0 0 0 .19-.115l.145-.102c.053-.04.106-.082.152-.128.093-.092.207-.198.262-.327.12-.277.314-.888.452-1.338.239-.784.753-2.582 1.113-3.787a49.6 49.6 0 0 1 .239-.782c.154-.486.402-1.084.552-1.429.097-.222.251-.479.35-.637.056-.092.133-.186.199-.265l.04-.049a1.435 1.435 0 0 1 .197-.205 1.56 1.56 0 0 1 .267-.17c.166-.086.498-.213.736-.342l.078-.043c.187-.105.405-.24.61-.368.094-.058.185-.114.27-.164.186-.113.408-.256.592-.366.08-.048.152-.09.21-.12.113-.058.239-.086.362-.115a2.992 2.992 0 0 1 .296-.047 3.86 3.86 0 0 1 .085-.009c.104-.013.21-.019.316-.016.148.008.296.024.442.05.178.031.416.093.624.139l.079.017 2.815.623 1.272.281.924.204.467.1c.201.042.464.096.605.115a1.13 1.13 0 0 0 .243.005c.111-.008.222-.023.331-.047a1.202 1.202 0 0 0 .281-.1c.1-.05.192-.114.277-.187.103-.09.195-.192.275-.303.072-.105.173-.263.284-.44.135-.215.284-.457.406-.662.202-.338.523-.867.803-1.348.158-.273.304-.53.408-.73.132-.253.266-.578.37-.847.056-.144.103-.272.136-.366a1.239 1.239 0 0 0 .06-.586h-.001zm-13.922-8.288a8.631 8.631 0 0 1-1.066 3.009 8.835 8.835 0 0 1-.441.675 8.377 8.377 0 0 1-.813.958 8.499 8.499 0 0 1-.703.63 7.682 7.682 0 0 1-1.788 1.059 7.362 7.362 0 0 1-1.82.498 7.318 7.318 0 0 1-4.785-.984 7.747 7.747 0 0 1-1.519-1.191 8.043 8.043 0 0 1-.889-1.06 8.327 8.327 0 0 1-.994-1.884 8.38 8.38 0 0 1-.388-1.363 8.78 8.78 0 0 1-.137-2.408 8.69 8.69 0 0 1 .716-2.83 8.31 8.31 0 0 1 2.124-2.88 7.836 7.836 0 0 1 .571-.45 7.607 7.607 0 0 1 1.989-1.017 7.501 7.501 0 0 1 1.209-.29 7.472 7.472 0 0 1 2.625.066 7.296 7.296 0 0 1 .726.182 7.496 7.496 0 0 1 1.427.596 7.49 7.49 0 0 1 2.316 1.962 7.722 7.722 0 0 1 1.112 1.966 8.223 8.223 0 0 1 .343 1.064c.19.747.289 1.533.289 2.335 0 .462-.036.916-.105 1.357h.001z" fill="#000" stroke="#000" stroke-width=".25"/></mask><g mask="url(#a)"><g filter="url(#b)"><path d="M17.98 197.245c9.933-2.518 19.858-5.159 29.795-7.615 9.453-2.393 10.56-9.685 8.855-31.897C52.66 106.64 49.596 55.248 46.27 3.925c-.585-8.872-3.84-15.347-7.27-14.456C14.61-4.193-9.806 2.15-34.205 8.363l52.184 188.882z" fill="#FFB9F8"/></g><g filter="url(#c)"><path d="M-17.33-8.522c-.213-1.306-.933-1.97-1.486-3.55-2.159-1.569.14-2.579 2.167-1.979 2.856.845 2.4 2.185 3.523 3.746 1.967 2.736 2.94 4.64 5.69 7.336 2.02 1.981 8.51 4.925 11.366 6.013 4.256 1.62 4.188 6.652 5.229 9.213 1.499 3.691 1.23 6.663 4.55 10.34 3.288 3.644 7.915 6.535 12.049 9.63 4.574 3.424 7.938 6.01 9.804 10.604 1.584 3.899-2.828 4.747-5.345 5.99-2.48 1.225 3.206 12.73 0 11.65-4.149-1.398-16.586-6.742-19.885-9.335C6.66 48.249 7.468 33.648 3.93 30.867c-2.81-2.209-13.599-1.333-16-9.067-1.427-6.035 2.402-10.537-3.803-16.62-2.367-2.32-1.494-6.668-1.2-8.873.23-1.73.031-3.047-.258-4.83z" fill="#71BBFF"/></g><g filter="url(#d)"><path d="M36.386 53.75c-6.792-11.072-19.19-28.27-29.602-34.06-1.474 2.831-.022 5.69 2.089 8.556 5.04 6.843 10.389 18.427 15.891 24.525l9.836 10.9c5.653 3.32-1.525-3.565 1.786-9.921z" fill="#0A9F68"/></g><g filter="url(#e)"><path d="M55.606 57.825c-.008.563-.39 1.109-.402 1.699-.013.59.023 2.153-.256 2.438-.404.412-.649 1.275-1.57 1.287-.89.01-1.766-.633-2.462-1.037-2.558-1.483-4.701-3.478-7.017-5.184-1.171-.862-2.62-1.43-3.865-2.246-.606-.398-.728-.843-1.505-1.133-.745-.278-1.329-.727-1.954-1.138-1.514-.993-3.245-1.41-5.062-2.018-2.006-.673-4.137-2.386-5.617-3.606-4.73-3.899-5.939-9.226-8.6-14.04-1.031-1.868-1.544-3.89-2.815-5.677-1.34-1.882-3.34-3.222-5.412-4.58-3.533-2.319-7.521-4.765-10.233-7.713-1.257-1.367-2.202-2.786-2.297-4.564C-3.562 8.397-.6 5.962 1.67 5.346c1.261-.341 3.475.137 4.688.406 1.287.286 2.504.69 3.709 1.114 4.498 1.586 8.134 4.52 10.81 7.689 3.358 3.979 8.393 5.495 13.126 8.196 2.271 1.295 4.254 2.845 6.235 4.365 1.313 1.007 1.563 2.916 2.215 4.22 1.83 3.663 1.622 7.717 4.425 11.012 1.302 1.53 2.742 3.044 4.517 4.25.965.657 2.44 1.606 2.878 2.614.813 1.873 2.031 4.018 1.575 6.101-.166.76-.23 1.76-.24 2.512z" fill="#FFE665"/></g></g><defs><filter id="b" x="-40.205" y="-16.613" width="103.5" height="219.858" filterUnits="userSpaceOnUse" color-interpolation-filters="sRGB"><feFlood flood-opacity="0" result="BackgroundImageFix"/><feBlend in="SourceGraphic" in2="BackgroundImageFix" result="shape"/><feGaussianBlur stdDeviation="3" result="effect1_foregroundBlur_13837_15953"/></filter><filter id="c" x="-25.686" y="-20.226" width="67.582" height="86.768" filterUnits="userSpaceOnUse" color-interpolation-filters="sRGB"><feFlood flood-opacity="0" result="BackgroundImageFix"/><feBlend in="SourceGraphic" in2="BackgroundImageFix" result="shape"/><feGaussianBlur stdDeviation="3" result="effect1_foregroundBlur_13837_15953"/></filter><filter id="d" x=".184" y="13.691" width="42.67" height="56.843" filterUnits="userSpaceOnUse" color-interpolation-filters="sRGB"><feFlood flood-opacity="0" result="BackgroundImageFix"/><feBlend in="SourceGraphic" in2="BackgroundImageFix" result="shape"/><feGaussianBlur stdDeviation="3" result="effect1_foregroundBlur_13837_15953"/></filter><filter id="e" x="-9.463" y="-.772" width="71.41" height="70.022" filterUnits="userSpaceOnUse" color-interpolation-filters="sRGB"><feFlood flood-opacity="0" result="BackgroundImageFix"/><feBlend in="SourceGraphic" in2="BackgroundImageFix" result="shape"/><feGaussianBlur stdDeviation="3" result="effect1_foregroundBlur_13837_15953"/></filter></defs></svg>
