<svg xmlns="http://www.w3.org/2000/svg" width="24" height="24" viewBox="0 0 24 24">
    <defs>
        <filter id="prefix__a" width="133.3%" height="140%" x="-16.7%" y="-20%" filterUnits="objectBoundingBox">
            <feOffset in="SourceAlpha" result="shadowOffsetOuter1"/>
            <feGaussianBlur in="shadowOffsetOuter1" result="shadowBlurOuter1" stdDeviation="4"/>
            <feColorMatrix in="shadowBlurOuter1" result="shadowMatrixOuter1" values="0 0 0 0 0.639215686 0 0 0 0 0.709803922 0 0 0 0 0.792156863 0 0 0 0.74494646 0"/>
            <feMerge>
                <feMergeNode in="shadowMatrixOuter1"/>
                <feMergeNode in="SourceGraphic"/>
            </feMerge>
        </filter>
    </defs>
    <g fill="#D4E0EC" fill-rule="evenodd" filter="url(#prefix__a)" transform="translate(-36 -16)">
        <path d="M48 40c6.632 0 12-5.373 12-12.01C60 21.352 54.611 16 48 16s-12 5.373-12 12.01C36 34.648 41.368 40 48 40zm-7.109-4.895c-.456-.457-.85-.934-1.202-1.452h2.238c.27.767.601 1.472.995 2.115.311.54.663 1.017 1.037 1.432-1.12-.498-2.156-1.203-3.068-2.095zm1.803-6.265h4.477v3.153h-4c-.27-.996-.435-2.054-.477-3.153zm.436-4.709h4.041v3.029h-4.477c.042-1.058.187-2.074.436-3.029zm10.176 3.029h-4.477V24.13h4.02c.25.955.395 1.971.457 3.029zm4.684 1.68c-.083 1.1-.353 2.157-.788 3.153h-2.674c.228-.996.374-2.074.436-3.153h3.026zM47.17 37.428c-1.036-.311-2.01-1.162-2.798-2.51-.228-.394-.435-.81-.622-1.265h3.44v3.775h-.02zm1.658 0v-3.775h3.44c-.186.456-.393.87-.621 1.265-.809 1.348-1.783 2.22-2.819 2.51zm0-5.435V28.84h4.477c-.062 1.1-.208 2.157-.477 3.153h-4zm0-9.521v-3.9c1.036.311 2.01 1.162 2.798 2.51.249.436.477.892.684 1.39h-3.482zm-1.658-3.9v3.9h-3.503c.208-.498.436-.954.684-1.39.809-1.348 1.783-2.199 2.819-2.51zm7.917 16.533c-.891.892-1.927 1.597-3.047 2.095.374-.415.726-.892 1.037-1.432.373-.643.704-1.348.995-2.115h2.238c-.373.518-.767.995-1.223 1.452zm-.124-7.945c-.042-1.037-.187-2.054-.394-3.029h2.694c.394.955.643 1.971.726 3.029h-3.026zm.124-6.265c.477.478.912 1.017 1.285 1.577h-2.28c-.29-.81-.621-1.556-1.036-2.24-.31-.54-.663-1.017-1.036-1.432 1.14.498 2.176 1.203 3.067 2.095zm-14.197 0c.891-.892 1.928-1.597 3.047-2.095-.373.415-.726.892-1.036 1.432-.415.684-.747 1.43-1.037 2.24h-2.28c.394-.56.83-1.079 1.306-1.577zm-2.155 3.236h2.694c-.207.975-.352 1.992-.394 3.029H38.01c.063-1.037.311-2.054.726-3.029zm2.28 4.71c.041 1.098.186 2.156.435 3.152h-2.674c-.435-.996-.704-2.054-.787-3.153h3.026z"/>
    </g>
</svg>
