<svg width="212" height="91" viewBox="0 0 212 91" fill="none" xmlns="http://www.w3.org/2000/svg">
<mask id="mask0_16735_5668" style="mask-type:alpha" maskUnits="userSpaceOnUse" x="0" y="0" width="212" height="91">
<rect width="212" height="91" fill="#D9D9D9"/>
</mask>
<g mask="url(#mask0_16735_5668)">
<g filter="url(#filter0_f_16735_5668)">
<path d="M107.082 28.4015C57.0038 26.4631 14.9207 63.1518 13.0936 110.358C11.2664 157.563 50.3877 197.395 100.466 199.333C150.544 201.272 192.627 164.576 194.454 117.377C196.281 70.1787 157.16 30.3398 107.082 28.4015Z" fill="#E9E8E8"/>
</g>
<path d="M108.082 33.4015C60.8833 31.5747 21.1351 68.3537 19.3079 115.559C17.4808 162.765 54.2673 202.507 101.466 204.333C148.664 206.16 188.413 169.374 190.24 122.175C192.067 74.9769 155.28 35.2284 108.082 33.4015Z" fill="url(#paint0_linear_16735_5668)"/>
<mask id="mask1_16735_5668" style="mask-type:luminance" maskUnits="userSpaceOnUse" x="19" y="33" width="172" height="172">
<path d="M190.24 122.175C188.413 169.374 148.664 206.16 101.466 204.333C54.267 202.507 17.4808 162.758 19.3077 115.559C21.1346 68.3609 60.8831 31.5747 108.082 33.4015C155.28 35.2284 192.067 74.9698 190.24 122.175Z" fill="white"/>
</mask>
<g mask="url(#mask1_16735_5668)">
<path fill-rule="evenodd" clip-rule="evenodd" d="M115.912 43.5837L112.756 40.1662L109.465 40.0389L106.182 39.9118L102.899 39.7847L99.6084 39.6573L97.8998 41.2317L94.6164 41.1047L91.326 40.9773L88.0427 40.8502L84.7523 40.7229L81.4689 40.5958L78.0509 43.766L81.3413 43.8933L84.6246 44.0204L87.788 47.4311L91.0713 47.5582L94.2346 50.9689L94.1073 54.2593L93.9799 57.5497L93.8528 60.8331L97.0088 64.2506L100.299 64.3779L100.363 62.7256L103.781 59.5696L105.419 59.633L108.702 59.7601L112.12 56.597L113.765 56.6607L117.176 53.5045L117.303 50.2212L120.72 47.0581L120.848 43.7748L117.557 43.6474L115.912 43.5837ZM42.4473 113.16L42.3199 116.45L42.1928 119.734L42.0655 123.024L38.775 122.897L35.6191 119.479L35.7462 116.196L32.5831 112.778L32.7102 109.495L29.5539 106.084L26.3911 102.659L26.5182 99.3761L29.936 96.213L30.572 79.7822L27.4086 76.3715L27.536 73.0811L27.7267 68.1526L31.1445 64.9895L34.4278 65.1166L36.0731 65.1803L39.4906 62.0243L42.9013 58.8609L44.5465 58.9246L47.9569 55.7684L49.6021 55.8321L53.0199 52.669L56.3032 52.7961L59.4663 56.2139L61.1755 54.6252L64.5859 51.469L67.8692 51.5961L71.2867 48.4401L74.5771 48.5675L77.7334 51.9779L81.0238 52.1052L84.1801 55.5156L84.0527 58.8061L82.4075 58.7424L80.7057 60.3242L79.1241 58.6153L75.9611 55.1975L74.323 55.1341L71.0325 55.0067L67.6147 58.1698L64.2043 61.3261L60.7934 64.4965L57.3759 67.6525L60.5392 71.0632L70.3963 71.4447L73.8138 68.2887L83.6709 68.6703L86.8342 72.0809L88.4723 72.1443L91.7628 72.2717L88.345 75.4348L84.9343 78.5981L81.5168 81.7541L79.8787 81.6907L76.4609 84.8537L74.8157 84.7901L71.4053 87.9463L67.9875 91.1094L66.2788 92.6838L66.2152 94.329L62.8048 97.4853L59.3941 100.649L59.267 103.932L55.8489 107.102L50.9204 106.911L47.5029 110.067L45.8577 110.004L42.4473 113.16ZM48.5127 126.569L45.3496 123.152L42.0663 123.025L45.2223 126.442L48.5127 126.569ZM90.4821 147.937L87.3188 144.526L84.1628 141.109L80.9995 137.698L77.7161 137.571L74.5528 134.16L71.3968 130.743L68.1064 130.615L64.816 130.488L61.5326 130.361L58.122 133.524L57.9949 136.808L57.8678 140.091L54.45 143.254L54.3229 146.537L54.1953 149.835L57.3586 153.246L57.2316 156.529L60.3875 159.946L63.5437 163.357L63.0346 176.511L62.9075 179.795L62.6531 186.368L65.8164 189.779L65.6888 193.077L69.1068 189.907L69.2339 186.623L72.6446 183.46L72.7717 180.177L76.1892 177.021L79.5999 173.857L81.2451 173.921L84.6555 170.765L88.0733 167.602L89.7185 167.665L93.1292 164.502L93.2563 161.219L96.6741 158.056L96.8012 154.772L96.9283 151.489L93.7654 148.064L90.4821 147.937ZM185.575 72.6148L184.939 89.0528L184.924 89.0665L191.498 89.3209L190.48 115.616L183.907 115.361L180.496 118.518L177.078 121.681L176.951 124.964L173.541 128.12L173.287 134.694L169.869 137.857L169.742 141.14L166.331 144.297L165.949 154.161L162.532 157.317L162.405 160.607L158.994 163.764L158.867 167.047L157.229 166.983L153.811 170.139L152.173 170.076L148.763 173.239L148.953 168.311L145.798 164.893L146.052 158.32L147.754 156.738L148.008 150.164L144.852 146.754L145.234 136.889L142.078 133.472L137.149 133.281L133.731 136.444L127.158 136.19L123.995 132.772L124.122 129.489L120.966 126.071L121.348 116.207L124.758 113.051L124.885 109.767L128.303 106.604L131.72 103.448L138.294 103.703L141.705 100.547L144.995 100.674L148.151 104.084L151.307 107.495L153.016 105.92L162.873 106.302L164.575 104.72L161.419 101.31L158.255 97.8989L154.972 97.7718L151.816 94.3614L148.66 90.9439L142.086 90.6895L138.675 93.8528L138.548 97.1361L135.131 100.292L131.847 100.165L128.684 96.7543L128.811 93.471L132.229 90.3079L135.639 87.1517L135.894 80.578L132.738 77.1604L139.312 77.4149L142.722 74.2515L139.566 70.8411L139.693 67.5578L141.395 65.976L141.522 62.6856L144.933 59.5293L148.216 59.6564L149.798 61.3582L153.088 61.4855L156.244 64.8959L159.4 68.3135L162.691 68.4408L165.847 71.8512L185.575 72.6148ZM149.289 74.4986L149.162 77.789L152.573 74.6256L152.7 71.3423L149.289 74.4986ZM158.51 91.318L158.383 94.6085L161.546 98.0191L164.956 94.8629L161.8 91.4454L161.928 88.1621L158.51 91.318Z" fill="url(#paint1_linear_16735_5668)"/>
</g>
<path d="M157.171 38.541C151.483 37.0394 145.648 40.4374 144.146 46.1259C142.644 51.8144 149.009 69.4627 149.009 69.4627C149.009 69.4627 163.259 57.263 164.763 51.5679C166.266 45.8728 162.866 40.0442 157.171 38.541ZM153.316 53.1469C150.942 52.5203 149.528 50.0931 150.155 47.7191C150.782 45.345 153.209 43.9316 155.583 44.5583C157.957 45.1849 159.37 47.6121 158.744 49.9861C158.117 52.3602 155.69 53.7736 153.316 53.1469Z" fill="url(#paint2_linear_16735_5668)"/>
<path d="M51.5781 47.3601C45.2888 48.9365 41.4957 55.3908 43.095 61.7712C44.6943 68.1517 60.2717 82.0432 60.2717 82.0432C60.2717 82.0432 67.4569 62.4539 65.8558 56.0661C64.2546 49.6783 57.8602 45.7854 51.5781 47.3601ZM55.6827 63.7354C53.0609 64.3925 50.4004 62.7702 49.7329 60.1074C49.0655 57.4446 50.6463 54.7591 53.268 54.102C55.8898 53.4448 58.5504 55.0671 59.2178 57.73C59.8853 60.3928 58.2972 63.08 55.6827 63.7354Z" fill="url(#paint3_linear_16735_5668)"/>
<path d="M101.348 8.91166C94.009 9.12538 88.2279 15.3238 88.4441 22.7475C88.6603 30.1712 102.523 49.2577 102.523 49.2577C102.523 49.2577 115.252 29.4036 115.036 21.9732C114.819 14.5428 108.688 8.69795 101.348 8.91166ZM101.903 27.9617C98.845 28.0508 96.2923 25.6148 96.2022 22.5216C96.1122 19.4284 98.5188 16.848 101.577 16.759C104.635 16.6699 107.194 19.1057 107.284 22.1989C107.374 25.2921 104.968 27.8725 101.903 27.9617Z" fill="url(#paint4_linear_16735_5668)"/>
</g>
<defs>
<filter id="filter0_f_16735_5668" x="-10.968" y="4.32812" width="229.484" height="219.079" filterUnits="userSpaceOnUse" color-interpolation-filters="sRGB">
<feFlood flood-opacity="0" result="BackgroundImageFix"/>
<feBlend mode="normal" in="SourceGraphic" in2="BackgroundImageFix" result="shape"/>
<feGaussianBlur stdDeviation="12" result="effect1_foregroundBlur_16735_5668"/>
</filter>
<linearGradient id="paint0_linear_16735_5668" x1="108.082" y1="33.4015" x2="116.532" y2="129.663" gradientUnits="userSpaceOnUse">
<stop stop-color="#FFFDFB"/>
<stop offset="1" stop-color="#F5F5F5"/>
</linearGradient>
<linearGradient id="paint1_linear_16735_5668" x1="68" y1="28.0001" x2="161.999" y2="246.001" gradientUnits="userSpaceOnUse">
<stop stop-color="#E9E8E8"/>
<stop offset="1" stop-color="#ABABAB" stop-opacity="0.29"/>
</linearGradient>
<linearGradient id="paint2_linear_16735_5668" x1="142.831" y1="51.0827" x2="149.012" y2="69.4636" gradientUnits="userSpaceOnUse">
<stop stop-color="#71BBFF"/>
<stop offset="1" stop-color="#0A9F68"/>
</linearGradient>
<linearGradient id="paint3_linear_16735_5668" x1="51.5781" y1="47.3601" x2="60.3917" y2="63.2158" gradientUnits="userSpaceOnUse">
<stop stop-color="#71BBFF"/>
<stop offset="1" stop-color="#FFB9F8"/>
</linearGradient>
<linearGradient id="paint4_linear_16735_5668" x1="102" y1="36" x2="109.739" y2="8.92542" gradientUnits="userSpaceOnUse">
<stop stop-color="#FFB9F8"/>
<stop offset="0.646652" stop-color="#FFE665"/>
</linearGradient>
</defs>
</svg>
