<svg width="260" height="160" fill="none" xmlns="http://www.w3.org/2000/svg"><g filter="url(#a)"><circle cx="162.137" cy="45.022" r="18.355" fill="url(#b)"/></g><path d="M138.975 44.944c0 12.835 10.371 23.24 23.163 23.24 0-19.578-12.372-32.923-18.558-37.148a23.186 23.186 0 0 0-4.605 13.908z" fill="url(#c)"/><path d="M106.994 117.538c-.286.389-.274.895-.261 1.363.014.553.016 1.108.006 1.661.468-.312.771-.788 1.019-1.27.113-.223.218-.452.283-.691a3.76 3.76 0 0 0 .1-.731c.014-.223.022-.446.026-.671.002-.164 0-.354-.233-.285-.349.103-.733.342-.938.624h-.002z" fill="#252525"/><path d="M106.254 126.971c.665-.397 1.291.154 1.979.093.906-.079 1.724-.494 2.624-.496l.612 1.029-.195.191c-.96-.353-1.037.383-1.217.992l-3.995.014c-.002-.202-.004-.405-.008-.607.131-.021.283-.041.279-.207-.004-.166-.158-.18-.288-.2.108-.487.248-.511.207-.809h.002z" fill="#32302F"/><path d="M108.432 118.492c-.525-.37-1.054-.176-1.58-.006-.15-.52.194-.778.549-1.029.613.274 1.229.545 1.843.819l.367-.191v.602c-.391-.087-.764-.282-1.181-.195h.002z" fill="#44413F"/><path fill-rule="evenodd" clip-rule="evenodd" d="M108.508 117.286c.535.099.756.464.738.992l.002-.002.183-.095.184-.095c-.096-.744-.367-1.236-1.585-1.187.031.292.231.34.478.387zm-.253 22.837-.004.09c-.014.31-.029.658-.418.68l-.173.01c-.434.026-.693.042-.864-.087-.094-.071-.077-.249-.063-.399.006-.07.012-.134.006-.179-.029-.228 0-.371.033-.532.024-.113.049-.236.057-.404l.273.16c-.169.918.243.814.655.709.184-.047.367-.094.5-.05l-.002.002zm.86-.272c.098-.003.236.056.373.115.137.058.274.117.373.114.233.037.518-.211.658-.48l.049.002c.048.002.083.003.118.002.089-.004.178-.025.497-.101l.025-.006c0 .007.037.004.074.001.034-.003.068-.006.076-.001.411.221.421.798.002.998l-.214.102c-.14.067-.285.136-.436.21-.325.124-.88.128-1.023.124-.556.024-.76-.638-.574-1.078l.002-.002z" fill="#555250"/><path fill-rule="evenodd" clip-rule="evenodd" d="m109.241 118.278.002.001h-.002v-.001zm-.737-.992c.536.099.755.466.737.992-.306-.137-.613-.272-.919-.408h-.001l-.921-.41c.158-.245.324-.48.626-.561.03.292.23.341.478.387zm2.508 16.97c-1.026.331-1.086 1.242-1.139 2.061l-.003.054c-.058.873-.041 1.75-.024 2.627.007.361.014.722.015 1.083l-.589.018c-.164-.213-.276-.432-.219-.721.108-.558.076-.992.037-1.518a12.46 12.46 0 0 1-.045-1.385c.012-.376.096-.69.183-1.017l.054-.207c.334-.06.446-.309.558-.559.077-.173.155-.346.305-.458.088-.065.166-.145.244-.225.174-.179.348-.357.635-.373l-.012.62zm-2.867 6.484c.107-.145.135-.214.173-.304.032-.074.069-.164.161-.324.031-.054.144-.557.13-.613l-.006-.02c-.013-.051-.038-.143-.073-.171-.117-.09-.195-.099-.359-.117h-.004a.14.14 0 0 0-.071.006c-.014.007-.022.019-.03.031l-.002.003a1.394 1.394 0 0 0-.159.408l-.806-.175v.002c-.17.918.242.813.655.708l.103-.025c-.001.08.002.16.004.239.004.119.015.249.112.344.038.039.117.031.172.008zm1.966-12.149c.15-.559.301-1.118 1.164-.802-.34.387-.231.798-.063 1.211l-1.154-.218.053-.191zm-.818-9.99c-.279-.084-.559-.169-.863-.106l-.002-.002c.166 1.566.576 1.833.879 1.604.237-.178.272-.332.304-.694v-.714c-.107-.023-.213-.056-.318-.088zm-1.576 15.683c-.45-.312-.944-.654-1.469-.636 0-.137.002-.277.004-.415.434-.075.788.112 1.141.299.26.138.52.275.812.309l.009.202c.008.167.017.352.017.574a5.971 5.971 0 0 1-.514-.333z" fill="#484543"/><path d="M106.045 127.779c.13.02.286.037.288.201.004.166-.148.188-.279.206l-.009-.409v.002z" fill="#1E1E1E"/><path fill-rule="evenodd" clip-rule="evenodd" d="M106.767 120.344c.076-.104.067-.249.058-.389a1.554 1.554 0 0 1-.006-.15l.031-1.319.073-.023c.503-.162 1.007-.324 1.507.029.238.168.271.466.303.756.041.373.081.733.554.784.02.742.581.771.995.793.162.008.301.015.376.064v.017c-.006.48-.008.67-.735.741l-.21.02c-.825.079-1.635.157-2.455.095.822.062 1.633-.016 2.459-.095l.21-.02c.727-.07.729-.261.735-.741v-.017c.75.197 1.102.772 1.364 1.434l.002-.004c.071.304.17.605.268.906.295.9.589 1.801.167 2.775-.054.125-.101.255-.149.385-.171.47-.344.945-.843 1.21l-.612-1.03.005-.41.005-.41c.388-.274.335-.656.282-1.038-.03-.216-.06-.432-.011-.629-.568.265-.501.685-.434 1.104.037.227.073.454.009.656a1.09 1.09 0 0 0 .152-.091l-.005.41-.005.411c-.493.001-.961.126-1.432.251-.39.104-.782.209-1.192.245-.273.024-.536-.048-.795-.119-.396-.108-.783-.214-1.184.026-.028-.072-.046-.138-.063-.2-.052-.191-.098-.356-.401-.599 1.72-.526 2.071-2.056.742-3.279a3.836 3.836 0 0 0-.095-.085c-.248-.22-.491-.436-.377-.817.085-.291.305-.281.524-.271.082.004.164.008.238-.004l-.003-.001v-.001c-.074.012-.156.008-.238.004-.219-.01-.439-.021-.524.271-.114.381.129.596.377.817h.001l.094.085c1.329 1.223.978 2.753-.742 3.279-.099-.129-.132-.389-.168-.664a4.05 4.05 0 0 0-.091-.531c-.247-.912-.261-1.414-.229-2.362.038-1.163.427-1.608 1.311-2.133v.001l.157-.137zm2.515 14.908c-.043-.615-.092-.828-.155-1.102a8.213 8.213 0 0 1-.09-.421l-.01-.057c-.034-.196-.075-.433-.412-.413-.303.018-.399.294-.411.579-.292-.033-.551-.17-.811-.308-.354-.187-.707-.374-1.142-.299-.198-1.473-.322-2.95-.19-4.439l1.993-.007h.004l1.998-.007 1.154.219c.111.869.021 1.731-.07 2.592-.072.681-.144 1.361-.116 2.045-.288.015-.463.195-.638.374-.077.079-.154.158-.241.223-.15.113-.228.286-.305.458-.113.25-.224.499-.558.559v.004zm-1.065 3.747-.014-.707h.002l.025-.288c.104-1.155.192-2.129.003-3.387a5.971 5.971 0 0 1-.514-.333c-.451-.312-.945-.654-1.469-.635l.006.041c.216 1.527.433 3.053.401 4.601h-.002l.085.506.086.506c.091.055.182.108.273.16v-.002c.32.071.641.14.962.209l.17.037-.014-.708zm2.796-4.741v-.002.002zm0 0c-.026.308-.044.617-.062.925-.048.829-.096 1.658-.297 2.472-.082.332-.069.671-.057 1.011.016.414.031.827-.125 1.228-.136.262-.362.227-.591.191l-.019-.003c-.001-.374-.008-.747-.015-1.121-.017-.865-.033-1.728.023-2.588l.004-.055c.053-.819.113-1.729 1.139-2.06z" fill="url(#d)"/><g filter="url(#e)"><path d="m50 144.867 33.433-17.263h11.264c1.013 0 1.384 1.333.516 1.857l-40.406 24.365L50 144.867z" fill="url(#f)"/></g><g filter="url(#g)"><path d="m116.211 154.918 46.762-27.314 11.707-.339c.995-.029 1.416 1.255.598 1.821l-39.838 27.581-19.229-1.749z" fill="url(#h)"/></g><path d="M83 126.307c0 1.723.482 2.004 2.048 1.961 3.61-.109 7.224-.052 10.838-.042.624 0 1.134-.505 1.134-1.134 0-14.424.033-28.847 0-43.271L83.348 96.31c-.095.11-.2.215-.295.329 0 9.89-.024 19.786-.052 29.676v-.009zM176.462 85.287c0-12.329.405-24.105-5.209-35.458-3.5-7.076-8.729-13.223-15.177-17.68a39.483 39.483 0 0 1-6.023 3.704c-.386.19-.772.381-1.162.562l-6.076 5.553a31.328 31.328 0 0 1 7.9 4.866c8.09 6.795 11.69 15.781 11.742 26.176.096 18.024.029 36.053.029 54.077 0 .623.51 1.138 1.138 1.133 3.772-.01 7.543-.057 11.31.038 1.304.033 1.566-.267 1.566-1.567-.033-13.804-.038-27.61-.038-41.414v.01z" fill="#0A9F68"/><path d="M147.405 27.487a46.926 46.926 0 0 0-15.624-3.195l.029-.029c-16.819-.567-33.576 7.686-42.453 22.7-2.918 4.933-5.195 10.671-6.014 16.467l.029-.029a32.395 32.395 0 0 0-.343 4.638c.019 9.51.029 19.02.024 28.529l.295-.272c3.8-4.4 6.367-9.971 8.557-15.438 1.667-4.162 3.248-8.438 5.262-12.443.295-2.919.938-5.747 2.048-8.524 2.947-7.39 7.852-13.09 14.871-16.823 5.919-3.157 12.243-4.215 18.981-3.557 1.643.161 3.238.428 4.786.8 3.795-1.024 7.519-2.243 11.071-3.9l5.734-5.234a43.026 43.026 0 0 0-7.248-3.69h-.01.005z" fill="#71BBFF"/><path d="M83.035 68.816c.023 10.38.028 20.757.019 31.138a97.172 97.172 0 0 1 2.266-1.7c3.786-2.753 7.715-5.281 11.715-7.696-.01-6.062-.02-12.119-.053-18.18-.023-4.339.638-8.448 2.238-12.458 2.948-7.39 7.853-13.09 14.872-16.824 5.919-3.157 12.243-4.214 18.981-3.557 6.7.653 12.6 3.053 17.676 7.315a35.75 35.75 0 0 1 1.657 1.485l11.71-9.1c-4.572-5.11-10.243-9.2-16.7-11.728a46.642 46.642 0 0 0-13.543-3.076l-50.838 44.38zM83.025 117.472a102.966 102.966 0 0 1 14.014-9.114V91.196l-13.986 10.867c0 5.133-.019 10.276-.028 15.409zM176.373 73.264l-11.081 5.628c-.933.586-1.867 1.181-2.795 1.781.048 15.415 0 30.834 0 46.248 0 .624.509 1.138 1.138 1.133 3.771-.009 7.543-.057 11.31.038 1.304.034 1.566-.266 1.566-1.566-.033-13.805-.038-27.61-.038-41.415 0-4.01.043-7.957-.09-11.852l-.01.005zM83.01 120.881c0 1.81 0 3.619-.01 5.429 0 1.724.482 2.005 2.048 1.962 3.61-.11 7.224-.053 10.838-.043.624 0 1.134-.51 1.134-1.133 0-4.443 0-8.896.01-13.338l-14.02 7.123z" fill="#FFB9F8"/><path d="M140.163 40.953c3.705-4.033 7.391-8.076 11.548-11.476a44.402 44.402 0 0 0-2.79-1.357l-14.043 11.604c1.824.277 3.59.677 5.285 1.229zM90.619 81.787c2.057-1.867 4.205-3.634 6.386-5.353 0-1.38-.01-2.766-.015-4.147 0-.424.01-.843.02-1.262L83.051 82.558v6.92c2.395-2.682 4.895-5.267 7.562-7.686l.005-.005z" fill="#71BBFF"/><path d="M176.463 85.277c0-7.781.162-15.343-1.133-22.72l-13.028 6.92c.1 1.157.157 2.333.161 3.528.034 6.79.048 13.576.048 20.372l13.952-6.534v-1.566z" fill="#FFE665"/><path d="M174.943 60.672a48.085 48.085 0 0 0-1.133-4.381l-7.176 4.7c2.771-.086 5.557-.086 8.309-.314v-.005zM88.21 128.214c2.562-.023 5.129 0 7.686.015.623 0 1.133-.505 1.133-1.134v-3.014l-8.824 4.133h.005zM163.973 99.572c-.496.324-.986.648-1.486.967 0 8.852-.024 17.7-.024 26.552 0 .624.51 1.138 1.138 1.134 3.772-.01 7.543-.057 11.31.038 1.304.033 1.566-.267 1.566-1.567-.028-11.914-.033-23.824-.033-35.738a329.207 329.207 0 0 1-12.462 8.61l-.009.004z" fill="#71BBFF"/><path d="M83.038 107.597c3.047-3.638 7.01-6.509 11.452-8.18a31.91 31.91 0 0 1 2.553-.83c0-6.114-.01-12.228-.034-18.347L83.057 92.72c0 4.963-.01 9.915-.014 14.877h-.005z" fill="#FFE665"/><path d="M83.038 68.024c.01 4.558.01 9.12.014 13.681 2.514-3.771 4.595-7.904 6.372-12.019 1.59-3.69 3.066-7.519 5.623-10.624 2.158-2.623 4.915-4.542 7.919-6.176 2.834-4.066 6.52-7.371 11.134-9.828a31.484 31.484 0 0 1 10.757-3.448c.052-.071.105-.133.157-.205.962-1.347 1.738-2.843 2.929-4 .833-.805 1.838-1.41 2.847-1.98 4.596-2.605 9.467-4.677 14.319-6.782-5.785-1.928-11.823-2.662-17.771-2.31a66.959 66.959 0 0 1-20.61 19.006c-.666.395-1.347.771-2.028 1.147L83.285 64.067a32.452 32.452 0 0 0-.242 3.957h-.005z" fill="#71BBFF"/><path d="M162.405 112.916v3.929l13.976-10.162v-.634c-1.776.757-3.686 1.357-5.657 1.643-3.967.581-6.605 2.867-8.315 5.224h-.009.005z" fill="#FFE665"/><path d="M176.477 110.616c-.524.567-1.1 1.076-1.786 1.419-1.29.648-2.848.657-4.067 1.419-1.604.991-2.314 3.062-3.957 3.991-1.066.604-2.371.633-3.481 1.157-.195.09-.428.238-.681.423v4.048c.805-.167 1.648-.209 2.5-.176 1.867.076 3.791.371 5.558-.229 1.347-.457 2.48-1.404 3.804-1.928.676-.267 1.4-.41 2.124-.448 0-3.228-.009-6.457-.014-9.686v.01z" fill="#FFB9F8"/><path d="M125.954 24.43c-14.772 1.271-28.79 9.262-36.638 22.543-2.724 4.595-4.881 9.895-5.824 15.28 3.224.444 5.671-3.885 7.195-6.218 1.362-2.095 2.68-4.248 4.476-6.014a15.568 15.568 0 0 1 5.557-3.524c1.634-.6 3.367-.929 4.943-1.662 3.081-1.438 5.253-4.286 7.038-7.181 1.781-2.895 3.343-5.986 5.743-8.4 2.119-2.129 4.757-3.59 7.514-4.829l-.004.005z" fill="#0A9F68"/><g filter="url(#i)"><path fill-rule="evenodd" clip-rule="evenodd" d="M106.26 139.393c.102-.103.209-.243.323-.392.28-.366.6-.786.989-.836 1.242.413.557 1.249-.07 2.015-.249.304-.489.597-.596.848-.179.419-.309.586-.646.877-.211.182-.784.506-1.281.786-.298.169-.569.322-.718.419-.446.293-.755.54-1.087.805-.234.187-.479.382-.792.609-.471.343-.975.725-1.503 1.124-1.08.817-2.254 1.706-3.425 2.474.071.029.178.078.305.143l.337-.17c.252-.126.522-.256.791-.385.747-.358 1.492-.716 1.865-1.004.151-.116.306-.245.465-.377.487-.403 1.013-.84 1.567-1.056.312-.122.92-.506 1.174-.706.172-.135.349-.249.524-.363.243-.157.484-.313.711-.523.315-.292.759-.463 1.201-.633.461-.178.919-.355 1.226-.667.601-.614.861-.945 1.357-1.577l.071-.09c.32-.407 1.578-1.034 2.141-1.19 1.229.196.695.737.091 1.348-.328.333-.677.686-.773 1.016-.095.327-.5.717-.831 1.036-.117.113-.225.217-.307.306-.331.362-.764.784-1.141 1.102a16.01 16.01 0 0 1-.979.746c-.427.309-.854.618-1.257.991-1.756 1.628-3.534 2.869-5.78 4.381-2.342 1.577-4.509 2.583-5.544 2.96a2.794 2.794 0 0 1-.629.488l-.207.11a5.306 5.306 0 0 1-1.059.463c-.128.04-.257.08-.376.128-.082.034-.178.037-.274.041-.094.004-.187.007-.264.039-.854.348-1.952-.468-2.426-1.028a4.985 4.985 0 0 0-.408-.39c-.406-.367-.93-.841-.93-1.118 0-.222.117-.331.247-.454.079-.073.162-.151.228-.26.185-.306.418-.554.654-.805.109-.116.218-.232.323-.354a.574.574 0 0 1-.028-.117c-.032-.246 2.31-1.559 3.735-2.358.552-.309.965-.541 1.052-.605.167-.123.354-.242.545-.364.386-.247.787-.502 1.07-.821.387-.438 1.134-.937 1.66-1.25.156-.093.318-.198.485-.305.508-.328 1.058-.682 1.604-.814.309-.075.928-.366 1.192-.526.179-.109.359-.195.538-.282.248-.119.494-.238.734-.413.306-.222.636-.42.965-.618.405-.242.808-.484 1.162-.769.206-.166.416-.326.626-.487h.001c.478-.364.955-.728 1.372-1.148z" fill="url(#j)"/></g><defs><linearGradient id="b" x1="165.953" y1="69.762" x2="175.238" y2="30" gradientUnits="userSpaceOnUse"><stop stop-color="#FF6400"/><stop offset="1" stop-color="#FFB9F8"/></linearGradient><linearGradient id="c" x1="139.048" y1="34.286" x2="150.476" y2="65.238" gradientUnits="userSpaceOnUse"><stop stop-color="#FFB9F8"/><stop offset="1" stop-color="#FF6400"/></linearGradient><linearGradient id="d" x1="110.968" y1="121.047" x2="107.253" y2="139.402" gradientUnits="userSpaceOnUse"><stop stop-color="#32302F"/><stop offset=".062" stop-color="#454342"/><stop offset="1" stop-color="#32302F"/></linearGradient><linearGradient id="f" x1="89.551" y1="127.823" x2="61.009" y2="151.609" gradientUnits="userSpaceOnUse"><stop stop-color="#32302F" stop-opacity=".7"/><stop offset="1" stop-color="#C9D1DB" stop-opacity="0"/></linearGradient><linearGradient id="h" x1="171.714" y1="125.2" x2="142.264" y2="161.015" gradientUnits="userSpaceOnUse"><stop stop-color="#32302F" stop-opacity=".7"/><stop offset="1" stop-color="#C9D1DB" stop-opacity="0"/></linearGradient><linearGradient id="j" x1="111.119" y1="139.048" x2="88.604" y2="150.485" gradientUnits="userSpaceOnUse"><stop stop-color="#32302F" stop-opacity=".7"/><stop offset="1" stop-color="#C9D1DB" stop-opacity="0"/></linearGradient><filter id="a" x="119.782" y="2.667" width="84.71" height="84.71" filterUnits="userSpaceOnUse" color-interpolation-filters="sRGB"><feFlood flood-opacity="0" result="BackgroundImageFix"/><feBlend in="SourceGraphic" in2="BackgroundImageFix" result="shape"/><feGaussianBlur stdDeviation="12" result="effect1_foregroundBlur_13488_17986"/></filter><filter id="e" x="48" y="125.604" width="49.699" height="30.222" filterUnits="userSpaceOnUse" color-interpolation-filters="sRGB"><feFlood flood-opacity="0" result="BackgroundImageFix"/><feBlend in="SourceGraphic" in2="BackgroundImageFix" result="shape"/><feGaussianBlur stdDeviation="1" result="effect1_foregroundBlur_13488_17986"/></filter><filter id="g" x="114.211" y="125.264" width="63.5" height="33.402" filterUnits="userSpaceOnUse" color-interpolation-filters="sRGB"><feFlood flood-opacity="0" result="BackgroundImageFix"/><feBlend in="SourceGraphic" in2="BackgroundImageFix" result="shape"/><feGaussianBlur stdDeviation="1" result="effect1_foregroundBlur_13488_17986"/></filter><filter id="i" x="86.095" y="136.165" width="27.837" height="20.598" filterUnits="userSpaceOnUse" color-interpolation-filters="sRGB"><feFlood flood-opacity="0" result="BackgroundImageFix"/><feBlend in="SourceGraphic" in2="BackgroundImageFix" result="shape"/><feGaussianBlur stdDeviation="1" result="effect1_foregroundBlur_13488_17986"/></filter></defs></svg>
