<svg width="44" height="27" viewBox="0 0 44 27" fill="none" xmlns="http://www.w3.org/2000/svg">
<path fill-rule="evenodd" clip-rule="evenodd" d="M14.7692 10.139C15.7867 7.90749 18.0742 6.05097 20.8366 6.05097C23.5528 6.05097 25.0487 7.46919 25.0487 9.71068C25.0487 11.2022 24.4038 12.6404 23.4258 13.737C22.3786 14.9119 20.9339 15.7185 19.3787 15.9285C17.8334 16.1368 15.9797 15.8485 14.9968 14.4936C14.8065 14.2337 14.6827 13.9396 14.558 13.6436C14.5292 13.5753 14.5004 13.5069 14.4707 13.4387C14.4163 13.3121 14.319 13.2137 14.2085 13.3604C13.0326 14.9036 12.0035 15.9852 10.2355 15.9852C9.12727 15.9852 8.31421 15.2202 8.31421 14.1187C8.31421 13.6154 8.46264 13.1104 8.75784 12.5505L10.384 9.41404C10.3981 9.38785 10.4134 9.36015 10.4294 9.33123C10.5386 9.13375 10.6792 8.87967 10.6792 8.66743C10.6792 8.48078 10.5505 8.29413 10.3097 8.29413C9.66326 8.29413 8.55499 9.43237 7.28016 11.0572L4.399 14.7169C3.77066 15.5019 3.08789 15.9868 2.25669 15.9868C1.62835 15.9868 1 15.6135 1 14.7169C1 13.944 1.37099 13.1937 1.72118 12.4854C1.81644 12.2928 1.91017 12.1032 1.99447 11.9172C2.34405 11.1236 2.70944 10.3377 3.07485 9.55175C3.57656 8.47267 4.0783 7.39352 4.53919 6.29429C4.66511 5.99429 4.79103 5.7106 4.91391 5.43375C5.27707 4.61557 5.61369 3.85717 5.84535 2.91456C5.9542 2.47459 6.0548 1.96797 5.58148 1.70299C5.56214 1.69217 5.54268 1.68137 5.52317 1.67054C5.16995 1.47452 4.79984 1.26913 4.8311 0.776394C4.85913 0.33143 5.17743 0.0447865 5.60457 0.00978934C6.54627 -0.0668712 7.57867 0.306432 8.10311 1.1397C8.14599 1.20636 8.17897 1.27635 8.20866 1.34968C8.69907 2.55064 8.17686 3.97353 7.73652 5.17334C7.68375 5.31713 7.63215 5.45772 7.58361 5.59434C7.04814 7.10202 6.41146 8.44178 5.75318 9.82698C5.49099 10.3787 5.22539 10.9376 4.96138 11.5172C4.93335 11.5772 4.9152 11.7155 4.95808 11.7638C5.05209 11.8722 5.19392 11.8588 5.29782 11.7205C5.48932 11.4735 5.6466 11.2846 5.80347 11.0963C5.96408 10.9034 6.12426 10.7111 6.32032 10.4573C7.83594 8.49744 10.0525 6.12597 11.9359 6.12597C13.1728 6.12597 13.783 6.81758 13.783 7.76917C13.783 8.25413 13.5983 8.83242 13.3393 9.33737L11.418 13.0721C11.4039 13.0983 11.3886 13.126 11.3726 13.1549C11.2633 13.3524 11.1228 13.6064 11.1228 13.8187C11.1228 14.0803 11.2712 14.192 11.4922 14.192C12.2179 14.192 12.9353 13.2587 13.3228 12.7338C13.9116 11.9355 14.2579 11.2606 14.7692 10.139ZM17.1424 12.9971C17.1424 13.8937 17.4755 14.7153 18.3991 14.7153H18.4007C20.2841 14.7153 22.2417 11.3172 22.2417 8.96407C22.2417 8.10414 21.9086 7.32087 20.985 7.32087C19.1 7.32087 17.1424 10.6823 17.1424 12.9971ZM42.0595 12.6573C42.4042 12.294 42.7901 12.369 42.9369 12.6356L42.9385 12.6273C43.0342 12.8006 43.0293 13.0573 42.8445 13.3256C41.921 14.6638 40.5736 15.9754 38.8551 15.9754C37.8936 15.9754 37.229 15.3038 37.229 14.4822C37.229 14.2289 37.2999 13.9522 37.384 13.6989C37.384 13.6961 37.3846 13.6937 37.3853 13.6904C37.3859 13.6879 37.3866 13.6849 37.3873 13.6806C37.3884 13.6746 37.3902 13.667 37.3921 13.6589C37.396 13.6421 37.4005 13.6229 37.4005 13.6106C37.4022 13.5556 37.3626 13.5239 37.3049 13.5472C37.2803 13.5574 37.2618 13.576 37.2457 13.5921C37.2381 13.5998 37.231 13.6069 37.2241 13.6122C36.0911 15.1005 34.681 15.977 33.1637 15.977C32.5568 15.977 31.8526 15.7987 31.4387 15.3188C31.1731 15.0121 30.962 14.6472 30.8334 14.2589C30.8248 14.2329 30.8173 14.2061 30.8097 14.1793C30.7866 14.0973 30.7631 14.0141 30.7097 13.9489C30.6602 13.8889 30.5679 13.8806 30.4953 13.9655L30.4508 14.0205C29.8142 14.8038 29.1017 15.5154 28.1304 15.8421C27.3288 16.112 26.2668 16.0754 25.6516 15.4188C25.2195 14.9571 25.0958 14.2672 25.1832 13.6372C25.2706 13.0073 25.5395 12.4207 25.805 11.844C26.115 11.1724 26.4861 10.5083 26.8572 9.8442C27.2282 9.18009 27.5993 8.51598 27.9094 7.84437C28.0311 7.58073 28.143 7.34812 28.2494 7.12701C28.4935 6.61992 28.7085 6.17325 28.9451 5.55122C28.9842 5.44822 29.0524 5.28939 29.1356 5.09537C29.5159 4.20948 30.211 2.59005 29.8917 2.20315C29.7679 2.05398 29.5478 1.91784 29.3519 1.7966C29.2764 1.74988 29.2044 1.70538 29.143 1.6632C28.922 1.51154 28.8313 1.23656 28.8692 0.959918C28.9055 0.686607 29.0754 0.43996 29.3277 0.336635C29.5817 0.23331 29.8637 0.239976 30.1358 0.261641C30.8449 0.318303 31.5805 0.644943 32.0324 1.2449C32.4232 1.76652 32.509 2.60645 32.4067 3.2164C32.29 3.91381 32.1242 4.4338 31.9208 5.07184C31.8943 5.15497 31.8672 5.24011 31.8394 5.3279C31.6459 5.93927 31.4984 6.28365 31.2736 6.80881C31.2398 6.88776 31.2043 6.97079 31.1665 7.05943C30.8405 7.82451 30.4853 8.5753 30.13 9.32619C30.0001 9.60083 29.8702 9.87548 29.7416 10.1508C29.5389 10.5858 29.2902 11.02 29.0398 11.4572C28.6627 12.1155 28.2818 12.7806 28.0479 13.4656C28.0067 13.5872 27.9687 13.7139 27.9836 13.8422C28.0463 14.3938 28.7092 14.0739 28.9632 13.8889C29.4877 13.5089 29.9131 12.974 30.3123 12.4673C30.7897 11.8616 31.1323 11.1808 31.4749 10.5002C31.8826 9.69022 32.2901 8.88047 32.9246 8.19767C34.0329 7.0061 35.565 6.04784 37.2274 6.04784C37.7089 6.04784 38.207 6.11451 38.6341 6.35449C38.9508 6.5328 39.2163 6.80778 39.3878 7.13109C39.3974 7.14913 39.4071 7.17209 39.4177 7.19697C39.4618 7.30081 39.5201 7.43812 39.6385 7.39107C39.7243 7.35753 39.7824 7.17551 39.8291 7.02881C39.8498 6.96412 39.8682 6.9063 39.8859 6.87111C40.1811 6.27449 40.5307 6.04951 41.2151 6.04951C41.8995 6.04951 42.4718 6.42281 42.4718 7.0211C42.4718 7.24159 42.3406 7.54137 42.2333 7.78681C42.2132 7.83262 42.194 7.87654 42.1766 7.91769L40.0343 12.8473C39.8875 13.1656 39.7391 13.5389 39.7391 13.8189C39.7391 14.0805 39.8677 14.1922 40.1085 14.1922C40.7501 14.1922 41.2936 13.5498 41.7373 13.0253C41.8513 12.8905 41.9587 12.7636 42.0595 12.6573ZM33.609 12.849C33.609 13.5772 33.9405 13.9689 34.5688 13.9689H34.5705C36.1768 13.9689 38.7809 10.4025 38.7809 8.59097C38.7809 7.8077 38.3191 7.47106 37.5984 7.47106C35.8255 7.47106 33.609 11.0008 33.609 12.849Z" fill="#32302F"/>
<path d="M5.20197 21.662C5.20197 21.998 5.12097 22.313 4.95897 22.607C4.80297 22.901 4.55397 23.138 4.21197 23.318C3.87597 23.498 3.44997 23.588 2.93397 23.588H1.88097V26H0.620972V19.718H2.93397C3.41997 19.718 3.83397 19.802 4.17597 19.97C4.51797 20.138 4.77297 20.369 4.94097 20.663C5.11497 20.957 5.20197 21.29 5.20197 21.662ZM2.87997 22.571C3.22797 22.571 3.48597 22.493 3.65397 22.337C3.82197 22.175 3.90597 21.95 3.90597 21.662C3.90597 21.05 3.56397 20.744 2.87997 20.744H1.88097V22.571H2.87997Z" fill="#32302F"/>
<path d="M9.78656 26L8.40056 23.552H7.80656V26H6.54656V19.718H8.90456C9.39056 19.718 9.80456 19.805 10.1466 19.979C10.4886 20.147 10.7436 20.378 10.9116 20.672C11.0856 20.96 11.1726 21.284 11.1726 21.644C11.1726 22.058 11.0526 22.433 10.8126 22.769C10.5726 23.099 10.2156 23.327 9.74156 23.453L11.2446 26H9.78656ZM7.80656 22.607H8.85956C9.20156 22.607 9.45656 22.526 9.62456 22.364C9.79256 22.196 9.87656 21.965 9.87656 21.671C9.87656 21.383 9.79256 21.161 9.62456 21.005C9.45656 20.843 9.20156 20.762 8.85956 20.762H7.80656V22.607Z" fill="#32302F"/>
<path d="M14.0222 20.735V22.31H16.1372V23.309H14.0222V24.974H16.4072V26H12.7622V19.709H16.4072V20.735H14.0222Z" fill="#32302F"/>
<path d="M24.8512 19.718V26H23.5912V21.914L21.9082 26H20.9542L19.2622 21.914V26H18.0022V19.718H19.4332L21.4312 24.389L23.4292 19.718H24.8512Z" fill="#32302F"/>
<path d="M27.8069 19.718V26H26.5469V19.718H27.8069Z" fill="#32302F"/>
<path d="M30.7438 19.718V23.606C30.7438 24.032 30.8548 24.359 31.0768 24.587C31.2988 24.809 31.6108 24.92 32.0128 24.92C32.4208 24.92 32.7358 24.809 32.9578 24.587C33.1798 24.359 33.2908 24.032 33.2908 23.606V19.718H34.5598V23.597C34.5598 24.131 34.4428 24.584 34.2088 24.956C33.9808 25.322 33.6718 25.598 33.2818 25.784C32.8978 25.97 32.4688 26.063 31.9948 26.063C31.5268 26.063 31.1008 25.97 30.7168 25.784C30.3388 25.598 30.0388 25.322 29.8168 24.956C29.5948 24.584 29.4838 24.131 29.4838 23.597V19.718H30.7438Z" fill="#32302F"/>
<path d="M43.0762 19.718V26H41.8162V21.914L40.1332 26H39.1792L37.4872 21.914V26H36.2272V19.718H37.6582L39.6562 24.389L41.6542 19.718H43.0762Z" fill="#32302F"/>
</svg>
