<svg width="42" height="16" viewBox="0 0 42 16" fill="none" xmlns="http://www.w3.org/2000/svg">
<g id="logo/s">
<path id="logo/s_2" fill-rule="evenodd" clip-rule="evenodd" d="M13.7692 10.139C14.7867 7.90749 17.0742 6.05097 19.8366 6.05097C22.5528 6.05097 24.0487 7.46919 24.0487 9.71068C24.0487 11.2022 23.4038 12.6404 22.4258 13.737C21.3786 14.9119 19.9339 15.7185 18.3787 15.9285C16.8334 16.1368 14.9797 15.8485 13.9968 14.4936C13.8065 14.2337 13.6827 13.9396 13.558 13.6436C13.5292 13.5753 13.5004 13.5069 13.4707 13.4387C13.4163 13.3121 13.319 13.2137 13.2085 13.3604C12.0326 14.9036 11.0035 15.9852 9.23553 15.9852C8.12727 15.9852 7.31421 15.2202 7.31421 14.1187C7.31421 13.6154 7.46264 13.1104 7.75784 12.5505L9.38396 9.41404C9.39807 9.38785 9.41339 9.36015 9.42939 9.33123C9.53862 9.13375 9.67916 8.87967 9.67916 8.66743C9.67916 8.48078 9.55053 8.29413 9.30974 8.29413C8.66326 8.29413 7.55499 9.43237 6.28016 11.0572L3.399 14.7169C2.77066 15.5019 2.08789 15.9868 1.25669 15.9868C0.628346 15.9868 0 15.6135 0 14.7169C0 13.944 0.370994 13.1937 0.721177 12.4854C0.816444 12.2928 0.910171 12.1032 0.994469 11.9172C1.34405 11.1236 1.70944 10.3377 2.07485 9.55175C2.57656 8.47267 3.0783 7.39352 3.53919 6.29429C3.66511 5.99429 3.79103 5.7106 3.91391 5.43375C4.27707 4.61557 4.61369 3.85717 4.84535 2.91456C4.9542 2.47459 5.0548 1.96797 4.58148 1.70299C4.56214 1.69217 4.54268 1.68137 4.52317 1.67054C4.16995 1.47452 3.79984 1.26913 3.8311 0.776394C3.85913 0.33143 4.17743 0.0447865 4.60457 0.00978934C5.54627 -0.0668712 6.57867 0.306432 7.10311 1.1397C7.14599 1.20636 7.17897 1.27635 7.20866 1.34968C7.69907 2.55064 7.17686 3.97353 6.73652 5.17334C6.68375 5.31713 6.63215 5.45772 6.58361 5.59434C6.04814 7.10202 5.41146 8.44178 4.75318 9.82698C4.49099 10.3787 4.22539 10.9376 3.96138 11.5172C3.93335 11.5772 3.9152 11.7155 3.95808 11.7638C4.05209 11.8722 4.19392 11.8588 4.29782 11.7205C4.48932 11.4735 4.6466 11.2846 4.80347 11.0963C4.96408 10.9034 5.12426 10.7111 5.32032 10.4573C6.83594 8.49744 9.05247 6.12597 10.9359 6.12597C12.1728 6.12597 12.783 6.81758 12.783 7.76917C12.783 8.25413 12.5983 8.83242 12.3393 9.33737L10.418 13.0721C10.4039 13.0983 10.3886 13.126 10.3726 13.1549C10.2633 13.3524 10.1228 13.6064 10.1228 13.8187C10.1228 14.0803 10.2712 14.192 10.4922 14.192C11.2179 14.192 11.9353 13.2587 12.3228 12.7338C12.9116 11.9355 13.2579 11.2606 13.7692 10.139ZM16.1424 12.9971C16.1424 13.8937 16.4755 14.7153 17.3991 14.7153H17.4007C19.2841 14.7153 21.2417 11.3172 21.2417 8.96407C21.2417 8.10414 20.9086 7.32087 19.985 7.32087C18.1 7.32087 16.1424 10.6823 16.1424 12.9971ZM41.0595 12.6573C41.4042 12.294 41.7901 12.369 41.9369 12.6356L41.9385 12.6273C42.0342 12.8006 42.0293 13.0573 41.8445 13.3256C40.921 14.6638 39.5736 15.9754 37.8551 15.9754C36.8936 15.9754 36.229 15.3038 36.229 14.4822C36.229 14.2289 36.2999 13.9522 36.384 13.6989C36.384 13.6961 36.3846 13.6937 36.3853 13.6904C36.3859 13.6879 36.3866 13.6849 36.3873 13.6806C36.3884 13.6746 36.3902 13.667 36.3921 13.6589C36.396 13.6421 36.4005 13.6229 36.4005 13.6106C36.4022 13.5556 36.3626 13.5239 36.3049 13.5472C36.2803 13.5574 36.2618 13.576 36.2457 13.5921C36.2381 13.5998 36.231 13.6069 36.2241 13.6122C35.0911 15.1005 33.681 15.977 32.1637 15.977C31.5568 15.977 30.8526 15.7987 30.4387 15.3188C30.1731 15.0121 29.962 14.6472 29.8334 14.2589C29.8248 14.2329 29.8173 14.2061 29.8097 14.1793C29.7866 14.0973 29.7631 14.0141 29.7097 13.9489C29.6602 13.8889 29.5679 13.8806 29.4953 13.9655L29.4508 14.0205C28.8142 14.8038 28.1017 15.5154 27.1304 15.8421C26.3288 16.112 25.2668 16.0754 24.6516 15.4188C24.2195 14.9571 24.0958 14.2672 24.1832 13.6372C24.2706 13.0073 24.5395 12.4207 24.805 11.844C25.115 11.1724 25.4861 10.5083 25.8572 9.8442C26.2282 9.18009 26.5993 8.51598 26.9094 7.84437C27.0311 7.58073 27.143 7.34812 27.2494 7.12701C27.4935 6.61992 27.7085 6.17325 27.9451 5.55122C27.9842 5.44822 28.0524 5.28939 28.1356 5.09537C28.5159 4.20948 29.211 2.59005 28.8917 2.20315C28.7679 2.05398 28.5478 1.91784 28.3519 1.7966C28.2764 1.74988 28.2044 1.70538 28.143 1.6632C27.922 1.51154 27.8313 1.23656 27.8692 0.959918C27.9055 0.686607 28.0754 0.43996 28.3277 0.336635C28.5817 0.23331 28.8637 0.239976 29.1358 0.261641C29.8449 0.318303 30.5805 0.644943 31.0324 1.2449C31.4232 1.76652 31.509 2.60645 31.4067 3.2164C31.29 3.91381 31.1242 4.4338 30.9208 5.07184C30.8943 5.15497 30.8672 5.24011 30.8394 5.3279C30.6459 5.93927 30.4984 6.28365 30.2736 6.80881C30.2398 6.88776 30.2043 6.97079 30.1665 7.05943C29.8405 7.82451 29.4853 8.5753 29.13 9.32619C29.0001 9.60083 28.8702 9.87548 28.7416 10.1508C28.5389 10.5858 28.2902 11.02 28.0398 11.4572C27.6627 12.1155 27.2818 12.7806 27.0479 13.4656C27.0067 13.5872 26.9687 13.7139 26.9836 13.8422C27.0463 14.3938 27.7092 14.0739 27.9632 13.8889C28.4877 13.5089 28.9131 12.974 29.3123 12.4673C29.7897 11.8616 30.1323 11.1808 30.4749 10.5002C30.8826 9.69022 31.2901 8.88047 31.9246 8.19767C33.0329 7.0061 34.565 6.04784 36.2274 6.04784C36.7089 6.04784 37.207 6.11451 37.6341 6.35449C37.9508 6.5328 38.2163 6.80778 38.3878 7.13109C38.3974 7.14913 38.4071 7.17209 38.4177 7.19697C38.4618 7.30081 38.5201 7.43812 38.6385 7.39107C38.7243 7.35753 38.7824 7.17551 38.8291 7.02881C38.8498 6.96412 38.8682 6.9063 38.8859 6.87111C39.1811 6.27449 39.5307 6.04951 40.2151 6.04951C40.8995 6.04951 41.4718 6.42281 41.4718 7.0211C41.4718 7.24159 41.3406 7.54137 41.2333 7.78681C41.2132 7.83262 41.194 7.87654 41.1766 7.91769L39.0343 12.8473C38.8875 13.1656 38.7391 13.5389 38.7391 13.8189C38.7391 14.0805 38.8677 14.1922 39.1085 14.1922C39.7501 14.1922 40.2936 13.5498 40.7373 13.0253C40.8513 12.8905 40.9587 12.7636 41.0595 12.6573ZM32.609 12.849C32.609 13.5772 32.9405 13.9689 33.5688 13.9689H33.5705C35.1768 13.9689 37.7809 10.4025 37.7809 8.59097C37.7809 7.8077 37.3191 7.47106 36.5984 7.47106C34.8255 7.47106 32.609 11.0008 32.609 12.849Z" fill="#32302F"/>
</g>
</svg>
