<svg width="24" height="24" viewBox="0 0 24 24" fill="none" xmlns="http://www.w3.org/2000/svg">
<path d="M19.8978 9.74809L12.6791 3.5023C12.2903 3.1659 11.7097 3.1659 11.3209 3.5023L4.10217 9.74809C3.87837 9.94172 3.75 10.2215 3.75 10.5155V19.2303C3.75 19.7935 4.21171 20.25 4.78125 20.25H8.75C9.31954 20.25 9.75 19.8132 9.75 19.25V15.25C9.75 14.6868 10.1805 14.25 10.75 14.25H13.25C13.8195 14.25 14.25 14.6868 14.25 15.25V19.25C14.25 19.8132 14.6805 20.25 15.25 20.25H19.2188C19.7883 20.25 20.25 19.7935 20.25 19.2303V10.5155C20.25 10.2215 20.1216 9.94173 19.8978 9.74809Z" stroke="#FFFDFB" stroke-width="1.5" stroke-linecap="round" stroke-linejoin="round"/>
</svg>
