<svg width="40" height="172" viewBox="0 0 40 172" fill="none" xmlns="http://www.w3.org/2000/svg">
<rect x="18" y="37" width="4" height="135" fill="url(#paint0_linear_17676_5349)"/>
<path fill-rule="evenodd" clip-rule="evenodd" d="M40 20C40 31.0457 31.0457 40 20 40C8.9543 40 0 31.0457 0 20C0 8.9543 8.9543 0 20 0C31.0457 0 40 8.9543 40 20ZM40 78C40 89.0457 31.0457 98 20 98C8.9543 98 0 89.0457 0 78C0 66.9543 8.9543 58 20 58C31.0457 58 40 66.9543 40 78ZM20 156C31.0457 156 40 147.046 40 136C40 124.954 31.0457 116 20 116C8.9543 116 0 124.954 0 136C0 147.046 8.9543 156 20 156Z" fill="url(#paint1_linear_17676_5349)"/>
<path d="M17.72 15V13.336H21.048V25H19.208V15H17.72Z" fill="#32302F"/>
<path d="M19.16 79.536C20.056 78.6613 20.6853 77.9413 21.048 77.376C21.4107 76.8107 21.592 76.2507 21.592 75.696C21.592 75.1413 21.4373 74.704 21.128 74.384C20.8187 74.0533 20.3333 73.888 19.672 73.888C19.0533 73.888 18.5733 74.096 18.232 74.512C17.8907 74.9173 17.7093 75.4773 17.688 76.192H15.928C15.96 74.9333 16.3227 73.9787 17.016 73.328C17.72 72.6667 18.6107 72.336 19.688 72.336C20.8613 72.336 21.7787 72.6453 22.44 73.264C23.1013 73.872 23.432 74.6827 23.432 75.696C23.432 76.432 23.2133 77.168 22.776 77.904C22.3493 78.6293 21.6027 79.5147 20.536 80.56L18.584 82.48H23.72V84H15.944V82.672L19.16 79.536Z" fill="#32302F"/>
<path d="M12.5574 136C12.5574 132.437 15.4626 129.548 19.0464 129.548C21.9324 129.548 24.3797 131.422 25.2222 134.013L21.3744 132.688L20.8648 134.152L27.2202 136.34L28.9985 130.171L27.5014 129.744L26.5398 133.08C25.3665 130.106 22.4545 128 19.0464 128C14.6025 128 11 131.582 11 136C11 140.418 14.6025 144 19.0464 144C21.0865 144 22.951 143.244 24.369 142L23.3384 140.839C22.194 141.843 20.6926 142.452 19.0464 142.452C15.4626 142.452 12.5574 139.563 12.5574 136Z" fill="#32302F"/>
<defs>
<linearGradient id="paint0_linear_17676_5349" x1="20" y1="37" x2="20" y2="221.5" gradientUnits="userSpaceOnUse">
<stop offset="0.0816945" stop-color="#E9E8E8"/>
<stop offset="0.616542" stop-color="#F5F5F5"/>
<stop offset="1" stop-color="#FFFDFB"/>
</linearGradient>
<linearGradient id="paint1_linear_17676_5349" x1="20" y1="0" x2="20" y2="143.5" gradientUnits="userSpaceOnUse">
<stop stop-color="#71BBFF"/>
<stop offset="0.554192" stop-color="#FFB9F8"/>
<stop offset="1" stop-color="#FFE665"/>
</linearGradient>
</defs>
</svg>
