<svg width="12" height="12" viewBox="0 0 12 12" fill="none" xmlns="http://www.w3.org/2000/svg">
<g id="Group 40035">
<circle id="Ellipse 1722" cx="6" cy="6" r="6" fill="#ABABAB"/>
<path id="i" d="M6 4C5.71318 4 5.47287 3.92177 5.27907 3.76531C5.09302 3.60204 5 3.2381 5 3C5 2.7619 5.09302 2.40136 5.27907 2.2449C5.47287 2.08163 5.71318 2 6 2C6.28682 2 6.52326 2.08163 6.7093 2.2449C6.9031 2.40136 7 2.7619 7 3C7 3.2381 6.9031 3.60204 6.7093 3.76531C6.52326 3.92177 6.28682 4 6 4ZM6.80233 5V10H5.17442V5H6.80233Z" fill="#FAFAFA"/>
</g>
</svg>
