<svg width="212" height="71" viewBox="0 0 212 71" fill="none" xmlns="http://www.w3.org/2000/svg">
<mask id="mask0_13488_18283" style="mask-type:alpha" maskUnits="userSpaceOnUse" x="0" y="0" width="212" height="71">
<rect width="212" height="71" fill="#D9D9D9"/>
</mask>
<g mask="url(#mask0_13488_18283)">
<path d="M59.6975 122.488L24.5272 125.258C22.1012 125.449 20.0632 123.459 20.2927 121.036C24.171 80.0859 47.9305 14.3199 154.119 17.4166C76.4631 23.5318 61.3598 84.6188 63.4636 118.061C63.6056 120.318 61.9522 122.311 59.6975 122.488Z" fill="url(#paint0_linear_13488_18283)"/>
<mask id="mask1_13488_18283" style="mask-type:alpha" maskUnits="userSpaceOnUse" x="133" y="2" width="34" height="33">
<path d="M142.721 2.50604L150.035 11.2684L157.32 2.49535L155.063 13.6943L166.441 13.95L156.313 19.1525L163.216 28.2444L152.843 23.5328L150.073 34.6146L147.267 23.5369L136.91 28.2637L143.783 19.1616L133.638 13.974L145.015 13.7016L142.721 2.50604Z" fill="#D9D9D9"/>
</mask>
<g mask="url(#mask1_13488_18283)">
<g filter="url(#filter0_f_13488_18283)">
<path d="M-24.2634 -0.51872C-24.479 9.53445 -24.5749 19.6123 -24.8505 29.6531C-25.0586 39.22 -18.4366 42.1689 3.06327 46.3517C52.5317 55.9272 102.046 66.439 151.564 76.6833C160.126 78.4463 167.116 77.0561 167.17 73.5794C167.552 48.8533 167.935 24.1028 168.438 -0.598674L-24.2634 -0.51872Z" fill="#FFB9F8"/>
</g>
<g filter="url(#filter1_f_13488_18283)">
<path d="M93.1629 54.6067C92.4722 55.6775 91.5831 55.9852 90.4872 57.1662C87.9842 57.7195 89.6136 59.4961 91.6271 59.748C94.4628 60.1027 94.5798 58.7442 96.1685 57.7994C98.9543 56.1426 100.544 54.8367 104.001 53.5173C106.542 52.5478 113.38 52.4503 116.311 52.5907C120.676 52.7998 122.56 48.334 124.463 46.4746C127.206 43.7954 128.117 41.0696 132.454 39.1033C136.751 37.1549 141.932 36.3863 146.76 35.2477C152.101 33.9881 153.876 35.8027 157.289 32.4683C160.186 29.6383 157.494 25.7593 155.763 23.6921C154.057 21.6562 149.266 20.0888 146.032 19.8068C141.847 19.442 139.07 20.3251 135.17 21.3423C130.828 22.4746 128.238 26.1093 124.055 27.2001C120.733 28.0666 114.083 28.4414 112.266 30.8614C108.681 35.6364 107.537 40.1003 99.7355 43.0777C96.7604 44.2131 95.8477 48.3863 95.2538 50.4447C94.7877 52.0602 94.1053 53.1454 93.1629 54.6067Z" fill="#71BBFF"/>
</g>
<g filter="url(#filter2_f_13488_18283)">
<path d="M26.3895 79.1173C25.9671 79.8849 26.1729 80.6451 25.738 81.4494C25.3031 82.2537 24.035 84.3813 24.274 84.7823C24.6194 85.3617 24.3553 86.5488 25.862 86.6052C27.3181 86.6598 29.2588 85.8212 30.7181 85.3021C36.0747 83.3967 41.1464 80.773 46.2776 78.5526C48.8725 77.4297 51.6973 76.721 54.3767 75.6642C55.6824 75.1492 56.2279 74.5484 57.7293 74.1887C59.1711 73.8433 60.4798 73.2569 61.8266 72.7257C65.0858 71.4402 68.2582 70.9499 71.7203 70.201C75.5422 69.3742 80.3743 67.1356 83.7547 65.5393C94.5572 60.438 100.665 53.2346 108.768 46.7944C111.911 44.2961 114.319 41.5636 117.793 39.1865C121.452 36.6826 125.783 34.9464 130.244 33.1868C137.852 30.186 144.516 24.5729 151.26 20.6767C154.385 18.8712 156.026 22.9032 157.556 20.4856C159.205 17.8797 156.218 15.2639 152.957 14.3247C149.809 14.4203 149.218 15.6986 146.032 14.535C143.423 11.6421 138.18 11.3465 135.868 11.8715C127.236 13.8316 123.877 17.5177 117.022 21.7162C108.416 26.9869 98.9557 28.8291 89.0759 32.2969C84.336 33.9606 79.873 35.9837 75.4365 37.9659C72.4959 39.2798 70.6091 41.8695 68.5282 43.6163C62.6812 48.5247 59.89 54.0569 52.7271 58.4214C49.4017 60.4476 45.8591 62.4465 42.0047 64.0114C39.9082 64.8626 36.7454 66.089 35.2465 67.4425C32.4602 69.9585 28.7957 72.8264 27.9347 75.6843C27.6207 76.7265 26.9535 78.0923 26.3895 79.1173Z" fill="#FFE665"/>
</g>
<g filter="url(#filter3_f_13488_18283)">
<path d="M120.617 77.8211C120.625 78.3737 120.999 78.9094 121.011 79.4883C121.023 80.0672 120.985 81.6009 121.259 81.881C121.655 82.2858 121.895 83.1332 122.8 83.1452C123.675 83.1568 124.538 82.5255 125.224 82.1299C127.741 80.6779 129.852 78.7215 132.132 77.0501C133.285 76.2049 134.711 75.6493 135.935 74.8494C136.532 74.4596 136.653 74.023 137.417 73.7398C138.15 73.4679 138.725 73.0273 139.341 72.6252C140.83 71.6522 142.534 71.2452 144.321 70.6493C146.295 69.9914 148.393 68.3126 149.85 67.1168C154.508 63.2952 155.703 58.0692 158.327 53.3477C159.345 51.5161 159.851 49.532 161.104 47.7803C162.423 45.9351 164.393 44.6223 166.433 43.2905C169.91 41.0192 173.836 38.6231 176.507 35.7324C177.744 34.3928 178.677 33.0008 178.772 31.2565C178.874 29.3764 175.965 26.9841 173.733 26.3782C172.494 26.0418 170.317 26.5085 169.123 26.7717C167.857 27.0507 166.66 27.4459 165.475 27.8616C161.048 29.4134 157.469 32.2885 154.833 35.3958C151.525 39.2966 146.571 40.7802 141.913 43.4253C139.678 44.6943 137.725 46.2131 135.775 47.7025C134.482 48.6898 134.234 50.5628 133.591 51.8413C131.785 55.4336 131.985 59.4119 129.224 62.6427C127.942 64.1427 126.523 65.6273 124.776 66.8096C123.826 67.4527 122.373 68.382 121.942 69.3705C121.14 71.208 119.939 73.3116 120.384 75.3559C120.546 76.1014 120.608 77.0832 120.617 77.8211Z" fill="#FFE665"/>
</g>
<g filter="url(#filter4_f_13488_18283)">
<path d="M128.996 90.3856C129.904 95.776 130.806 101.168 131.713 106.564C132.944 101.712 133.767 96.4967 134.35 91.3561C134.872 86.7402 135.277 81.9818 136.675 77.9135C137.856 74.4758 139.646 71.7719 141.687 69.3763C143.111 64.1227 146.326 64.0223 149.469 60.3994C151.82 57.6914 152.645 58.7936 155.476 57.6356C154.431 61.9285 158.469 54.5297 159.667 50.2766C160.157 48.5347 159.474 49.1307 160.182 47.5809C160.68 46.4998 160.093 44.8032 160.771 43.9695C163.874 40.1728 163.324 30.5075 166.729 27.26C161.793 25.881 161.369 32.5396 156.76 33.8836C154.011 43.832 148.194 50.5779 142.757 57.5011C142.308 58.0705 141.85 58.6257 141.388 59.1764L128.406 85.6692C128.539 87.2555 128.735 88.8296 128.996 90.3856Z" fill="#71BBFF"/>
</g>
<g filter="url(#filter5_f_13488_18283)">
<ellipse cx="154.821" cy="40.4883" rx="6.92993" ry="5.72558" transform="rotate(-6.24156 154.821 40.4883)" fill="#71BBFF"/>
</g>
</g>
</g>
<defs>
<filter id="filter0_f_13488_18283" x="-26.8552" y="-2.59863" width="197.293" height="82.0464" filterUnits="userSpaceOnUse" color-interpolation-filters="sRGB">
<feFlood flood-opacity="0" result="BackgroundImageFix"/>
<feBlend mode="normal" in="SourceGraphic" in2="BackgroundImageFix" result="shape"/>
<feGaussianBlur stdDeviation="1" result="effect1_foregroundBlur_13488_18283"/>
</filter>
<filter id="filter1_f_13488_18283" x="87.2158" y="17.7229" width="73.3523" height="44.0828" filterUnits="userSpaceOnUse" color-interpolation-filters="sRGB">
<feFlood flood-opacity="0" result="BackgroundImageFix"/>
<feBlend mode="normal" in="SourceGraphic" in2="BackgroundImageFix" result="shape"/>
<feGaussianBlur stdDeviation="1" result="effect1_foregroundBlur_13488_18283"/>
</filter>
<filter id="filter2_f_13488_18283" x="22.2444" y="9.65942" width="137.78" height="78.9482" filterUnits="userSpaceOnUse" color-interpolation-filters="sRGB">
<feFlood flood-opacity="0" result="BackgroundImageFix"/>
<feBlend mode="normal" in="SourceGraphic" in2="BackgroundImageFix" result="shape"/>
<feGaussianBlur stdDeviation="1" result="effect1_foregroundBlur_13488_18283"/>
</filter>
<filter id="filter3_f_13488_18283" x="118.288" y="24.2607" width="62.4868" height="60.8845" filterUnits="userSpaceOnUse" color-interpolation-filters="sRGB">
<feFlood flood-opacity="0" result="BackgroundImageFix"/>
<feBlend mode="normal" in="SourceGraphic" in2="BackgroundImageFix" result="shape"/>
<feGaussianBlur stdDeviation="1" result="effect1_foregroundBlur_13488_18283"/>
</filter>
<filter id="filter4_f_13488_18283" x="126.406" y="25.073" width="42.3232" height="83.491" filterUnits="userSpaceOnUse" color-interpolation-filters="sRGB">
<feFlood flood-opacity="0" result="BackgroundImageFix"/>
<feBlend mode="normal" in="SourceGraphic" in2="BackgroundImageFix" result="shape"/>
<feGaussianBlur stdDeviation="1" result="effect1_foregroundBlur_13488_18283"/>
</filter>
<filter id="filter5_f_13488_18283" x="145.904" y="32.7463" width="17.8347" height="15.4839" filterUnits="userSpaceOnUse" color-interpolation-filters="sRGB">
<feFlood flood-opacity="0" result="BackgroundImageFix"/>
<feBlend mode="normal" in="SourceGraphic" in2="BackgroundImageFix" result="shape"/>
<feGaussianBlur stdDeviation="1" result="effect1_foregroundBlur_13488_18283"/>
</filter>
<linearGradient id="paint0_linear_13488_18283" x1="128.08" y1="17.9509" x2="27.3" y2="124.344" gradientUnits="userSpaceOnUse">
<stop stop-color="#FFFDFB" stop-opacity="0.96"/>
<stop offset="0.336585" stop-color="#F5F5F5" stop-opacity="0.86"/>
<stop offset="0.911068" stop-color="#ABABAB" stop-opacity="0.19"/>
</linearGradient>
</defs>
</svg>
