<svg width="199" height="152" fill="none" xmlns="http://www.w3.org/2000/svg"><g filter="url(#a)"><mask id="c" fill="#fff"><path fill-rule="evenodd" clip-rule="evenodd" d="M139.496 118.667c19.456 0 35.229-15.72 35.229-35.111 0-19.392-15.773-35.111-35.229-35.111s-35.228 15.72-35.228 35.11c0 12.768 6.838 23.945 17.063 30.09-.694 4.164-3.081 8.332-4.577 10.355 5.03-1.432 8.465-4.681 10.494-7.513a35.282 35.282 0 0 0 12.248 2.18z"/></mask><path fill-rule="evenodd" clip-rule="evenodd" d="M139.496 118.667c19.456 0 35.229-15.72 35.229-35.111 0-19.392-15.773-35.111-35.229-35.111s-35.228 15.72-35.228 35.11c0 12.768 6.838 23.945 17.063 30.09-.694 4.164-3.081 8.332-4.577 10.355 5.03-1.432 8.465-4.681 10.494-7.513a35.282 35.282 0 0 0 12.248 2.18z" fill="url(#b)"/><path d="m121.331 113.645 1.972.329.224-1.342-1.166-.701-1.03 1.714zM116.754 124l-1.608-1.189-3.49 4.72 5.646-1.607-.548-1.924zm10.494-7.513.694-1.876-1.431-.529-.888 1.24 1.625 1.165zm45.477-32.931c0 18.28-14.871 33.111-33.229 33.111v4c20.555 0 37.229-16.609 37.229-37.111h-4zm-33.229-33.111c18.358 0 33.229 14.83 33.229 33.11h4c0-20.502-16.674-37.11-37.229-37.11v4zm-33.228 33.11c0-18.28 14.87-33.11 33.228-33.11v-4c-20.554 0-37.228 16.608-37.228 37.11h4zm16.093 28.376c-9.65-5.8-16.093-16.34-16.093-28.375h-4c0 13.5 7.233 25.313 18.032 31.803l2.061-3.428zm-3.003 1.385c-.623 3.74-2.821 7.614-4.212 9.495l3.216 2.378c1.601-2.166 4.177-6.626 4.941-11.215l-3.945-.658zm-2.056 12.608c5.578-1.589 9.357-5.182 11.572-8.273l-3.251-2.329c-1.845 2.573-4.935 5.478-9.417 6.754l1.096 3.848zm22.194-9.257c-4.067 0-7.958-.727-11.554-2.056l-1.387 3.752a37.274 37.274 0 0 0 12.941 2.304v-4z" fill="#FFFDFB" mask="url(#c)"/><mask id="e" fill="#fff"><path fill-rule="evenodd" clip-rule="evenodd" d="M75.055 86.488C86.563 80.71 94.457 68.83 94.457 55.11 94.457 35.72 78.685 20 59.23 20 39.771 20 24 35.72 24 55.111s15.772 35.111 35.228 35.111a35.44 35.44 0 0 0 8.128-.939l-.1.05c1.04 2.815 4.994 8.978 12.486 11.111-1.934-2.615-5.357-8.813-4.687-13.956z"/></mask><path fill-rule="evenodd" clip-rule="evenodd" d="M75.055 86.488C86.563 80.71 94.457 68.83 94.457 55.11 94.457 35.72 78.685 20 59.23 20 39.771 20 24 35.72 24 55.111s15.772 35.111 35.228 35.111a35.44 35.44 0 0 0 8.128-.939l-.1.05c1.04 2.815 4.994 8.978 12.486 11.111-1.934-2.615-5.357-8.813-4.687-13.956z" fill="url(#d)"/><path d="m75.055 86.488-.897-1.787-.949.476-.137 1.052 1.983.259zm-7.699 2.795.892 1.79-1.35-3.737.458 1.947zm-.1.05-.893-1.79-1.606.8.622 1.684 1.876-.694zm12.486 11.111-.548 1.924 5.645 1.608-3.49-4.72-1.608 1.188zm12.715-45.333c0 12.93-7.439 24.137-18.299 29.59l1.795 3.574c12.155-6.102 20.504-18.657 20.504-33.164h-4zM59.23 22c18.358 0 33.228 14.83 33.228 33.111h4C96.457 34.61 79.783 18 59.23 18v4zM26 55.111C26 36.831 40.87 22 59.228 22v-4C38.674 18 22 34.609 22 55.111h4zm33.228 33.111C40.871 88.222 26 73.392 26 55.112h-4c0 20.501 16.674 37.11 37.228 37.11v-4zm7.67-.886a33.44 33.44 0 0 1-7.67.886v4a37.44 37.44 0 0 0 8.586-.992l-.916-3.894zm1.25 3.787.1-.05-1.784-3.58-.1.05 1.783 3.58zm12.141 7.398c-6.708-1.91-10.269-7.477-11.158-9.881l-3.752 1.387c1.193 3.225 5.54 9.985 13.815 12.341l1.095-3.847zm-7.217-12.292c-.399 3.062.424 6.272 1.495 8.932 1.082 2.69 2.507 5.04 3.566 6.472l3.217-2.377c-.875-1.184-2.127-3.24-3.073-5.588-.957-2.38-1.51-4.84-1.238-6.922l-3.967-.517z" fill="#FFFDFB" mask="url(#e)"/><mask id="f" style="mask-type:alpha" maskUnits="userSpaceOnUse" x="64" y="48" width="71" height="46"><path fill-rule="evenodd" clip-rule="evenodd" d="M67.511 56.632c.97.17 2.07-1.454 2.456-3.63.386-2.175-.087-4.077-1.057-4.248-.97-.17-2.07 1.454-2.456 3.63-.386 2.175.087 4.077 1.057 4.248zm49.108 19.122c.945.278 2.219-1.215 2.847-3.333.628-2.119.371-4.062-.574-4.34-.945-.278-2.22 1.214-2.847 3.333-.628 2.119-.371 4.062.574 4.34zM84.897 55.635c-.386 2.175-1.486 3.8-2.456 3.63-.97-.172-1.443-2.074-1.057-4.25.386-2.175 1.486-3.8 2.456-3.629.97.171 1.443 2.074 1.057 4.249zm46.264 24.398c.944.278 2.219-1.214 2.847-3.333.627-2.119.37-4.062-.575-4.34-.944-.278-2.219 1.214-2.847 3.333-.627 2.119-.37 4.062.575 4.34zM66.501 62.32c.728.128 1.214.82 1.085 1.545-.545 3.069 1.666 6.162 5.138 6.774 3.471.612 6.613-1.537 7.157-4.606a1.337 1.337 0 0 1 2.635.465c-.828 4.666-5.484 7.608-10.258 6.767-4.774-.842-8.135-5.198-7.307-9.864a1.338 1.338 0 0 1 1.55-1.08zm49.381 20.63a1.338 1.338 0 0 0-2.566-.755c-1.347 4.545 1.504 9.248 6.154 10.616 4.65 1.368 9.606-1.037 10.953-5.582a1.338 1.338 0 0 0-2.566-.755c-.886 2.989-4.248 4.775-7.629 3.78-3.381-.996-5.231-4.315-4.346-7.304z" fill="#ABABAB"/></mask><g mask="url(#f)"><g filter="url(#g)"><path d="M-29.144 29.604c-1.209 9.186-2.31 18.407-3.572 27.576-1.153 8.741 4.636 12.105 23.971 18.09 44.494 13.726 88.935 28.313 133.407 42.657 7.691 2.472 14.254 1.899 14.652-1.28 2.837-22.609 5.676-45.24 8.62-67.813l-177.078-19.23z" fill="#FFB9F8"/></g><g filter="url(#h)"><path d="M-50.79 151.508c2.905 1.888 5.906 3.744 8.76 5.649 2.761 1.798 8.632.314 26.048-5.479 40.058-13.337 80.435-26.519 120.734-39.751 6.966-2.29 11.789-4.671 10.769-5.318-7.252-4.6-14.512-9.203-21.667-13.835l-144.643 58.734z" fill="#FFB9F8"/></g><path d="M-13.103 205.819c-1.635 13.583-3.285 27.16-4.929 40.753 5.728-9.876 10.843-21.064 15.412-32.354 4.098-10.141 8.048-20.746 13.61-28.606 4.696-6.644 10.18-10.881 15.982-14.114 6.389-10.589 13.988-18.436 22.88-23.26 6.65-3.603 7.807.939 14.44 1.492-4.972 8.789 7.222 6.475 12.487-2.045 2.157-3.49.35-2.887 2.83-5.681 1.74-1.944 1.63-6.564 3.583-7.726 8.924-5.273 14.095-28.39 23.286-32.04-9.347-8.868-22.114 11.597-32.56 9.439-12.209 19.99-21.154 23.552-36.967 33.422a117.8 117.8 0 0 1-3.936 2.328l-44.261 46.744c-.759 3.844-1.38 7.73-1.857 11.648z" fill="#71BBFF"/><g filter="url(#i)"><path d="M58.405 52.717C44.272 61.294 30.133 69.86 15.984 78.44c13.784-3.885 28.339-8.997 42.568-14.464 12.775-4.912 25.877-10.224 37.623-12.797 9.926-2.176 18.179-2.275 25.727-1.512 14.971-4.037 28.281-5.545 39.726-4.284 8.555.945 5.145 4.696 9.75 8.516-12.172 3.522-.553 8.234 11.59 5.05 4.974-1.304 3.005-1.822 7.571-2.476 3.187-.447 7.479-3.71 10.089-3.504 11.895.964 37.794-12.395 48.357-10.166 1.177-10.996-35.844.435-41.874-6.474-28.377 7.545-30.907 1.536-52.482.192a175.068 175.068 0 0 1-5.249-.425l-78.504 9.502a280.59 280.59 0 0 0-12.471 7.12z" fill="#71BBFF"/></g><g filter="url(#j)"><path d="M124.718 65.937c-.511.61-1.106.735-1.887 1.383-1.657.158-.703 1.375.59 1.679 1.82.427 1.975-.403 3.062-.87 1.905-.818 3.013-1.507 5.334-2.067 1.706-.412 6.151.03 8.045.333 2.822.45 4.306-2.169 5.65-3.177 1.937-1.452 2.688-3.068 5.618-3.963 2.904-.887 6.312-.98 9.513-1.329 3.541-.384 6.166-.703 8.577-2.51 2.046-1.535-.115-3.307-1.118-4.71-.988-1.383-4.946-1.955-7.029-2.367-2.695-.533-4.55-.192-7.141.149-2.885.38-4.779 2.433-7.558 2.8-2.207.29-6.546.032-7.867 1.393-2.606 2.684-3.61 5.356-8.848 6.62-1.998.483-2.834 2.993-3.34 4.22-.397.963-.904 1.583-1.601 2.416z" fill="#71BBFF"/></g><g filter="url(#k)"><path d="M109.482 52.747c11.633-2.01 30.324-6.683 38.711-13.497-4.894-5.637-12.99 7.016-17.884 1.38l-17.885 4.379c-4.703 3.64-7.2 2.834-2.942 7.738z" fill="#0A9F68"/></g><g filter="url(#l)"><path d="M-17.112 111.965c-.465.66-.353 1.377-.833 2.07-.48.693-1.86 2.515-1.68 2.906.259.566-.103 1.626 1.276 1.829 1.332.196 3.2-.378 4.593-.707 5.114-1.209 10.038-3.104 14.976-4.623 2.497-.769 5.164-1.135 7.732-1.835 1.252-.341 1.813-.836 3.23-1.015 1.359-.172 2.62-.578 3.911-.93 3.124-.851 6.089-.982 9.345-1.321 3.595-.374 8.26-1.941 11.527-3.064 10.439-3.59 16.775-9.576 24.868-14.663 3.14-1.973 5.627-4.235 9.058-6.064 3.614-1.927 7.768-3.083 12.044-4.248 7.292-1.986 15.38-4.028 21.969-6.921 3.053-1.341 5.683-2.808 7.331-4.869 1.777-2.221-.626-5.68-3.528-6.867-1.611-.66-5.355-.555-7.413-.49-2.183.07-4.36.292-6.537.542-8.129.93-16.098 3.616-22.819 6.774-8.438 3.966-17.316 4.705-26.743 6.892-4.522 1.049-8.827 2.455-13.103 3.826-2.834.909-4.828 3.092-6.915 4.483-5.866 3.91-8.987 8.697-16.008 11.977-3.26 1.523-6.715 2.999-10.414 4.046-2.012.57-5.042 1.376-6.555 2.466-2.813 2.025-6.469 4.285-7.547 6.816-.393.923-1.144 2.107-1.765 2.99z" fill="#FFE665"/></g><g filter="url(#m)"><path d="M96.965 107.289c-.05.507.24 1.035.193 1.566-.047.532-.236 1.932-.012 2.216.323.411.459 1.211 1.29 1.313.802.098 1.658-.394 2.328-.687 2.459-1.078 4.595-2.659 6.858-3.961 1.145-.659 2.511-1.025 3.717-1.635.587-.297.742-.685 1.472-.867.702-.176 1.274-.522 1.88-.829 1.467-.742 3.073-.944 4.776-1.311 1.879-.404 3.975-1.732 5.435-2.681 4.664-3.034 6.288-7.7 9.173-11.762 1.119-1.576 1.784-3.342 3.111-4.821 1.398-1.558 3.34-2.563 5.348-3.579 3.423-1.732 7.272-3.533 10.016-5.913 1.272-1.103 2.269-2.285 2.531-3.873.284-1.711-2.149-4.194-4.139-4.972-1.105-.433-3.153-.223-4.276-.102-1.191.129-2.331.371-3.462.633-4.223.978-7.801 3.253-10.535 5.835-3.433 3.241-8.133 4.104-12.68 6.06-2.181.938-4.128 2.134-6.07 3.302-1.287.775-1.703 2.466-2.422 3.572-2.021 3.11-2.237 6.773-5.099 9.456-1.329 1.245-2.782 2.463-4.506 3.37-.938.495-2.366 1.2-2.861 2.063-.922 1.602-2.237 3.408-2.034 5.325.075.7.033 1.605-.032 2.282z" fill="#FFE665"/></g><g filter="url(#n)"><path d="M103.4 119.636c.293 5.028.58 10.057.87 15.09 1.62-4.321 2.9-9.015 3.952-13.665.943-4.175 1.794-8.493 3.488-12.079 1.43-3.03 3.347-5.328 5.463-7.317 1.836-4.67 4.801-4.44 8.053-7.443 2.433-2.244 3.08-1.152 5.797-1.93-1.391 3.828 3.063-2.544 4.591-6.32.626-1.546-.062-1.069.744-2.417.566-.94.197-2.553.904-3.249 3.234-3.166 3.699-12.074 7.154-14.707-4.397-1.758-5.455 4.298-9.825 5.068-3.527 8.836-9.549 14.432-15.242 20.228-.469.477-.946.94-1.426 1.398l-14.591 22.964a53.204 53.204 0 0 0 .068 4.379z" fill="#71BBFF"/></g><g filter="url(#o)"><ellipse cx="132.145" cy="76.522" rx="6.406" ry="5.275" fill="#71BBFF"/></g></g></g><defs><filter id="l" x="-23.641" y="57.105" width="140.484" height="65.705" filterUnits="userSpaceOnUse" color-interpolation-filters="sRGB"><feFlood flood-opacity="0" result="BackgroundImageFix"/><feBlend in="SourceGraphic" in2="BackgroundImageFix" result="shape"/><feGaussianBlur stdDeviation="2" result="effect1_foregroundBlur_1677_17294"/></filter><filter id="a" x="0" y="0" width="198.725" height="152" filterUnits="userSpaceOnUse" color-interpolation-filters="sRGB"><feFlood flood-opacity="0" result="BackgroundImageFix"/><feColorMatrix in="SourceAlpha" values="0 0 0 0 0 0 0 0 0 0 0 0 0 0 0 0 0 0 127 0" result="hardAlpha"/><feOffset dy="4"/><feGaussianBlur stdDeviation="12"/><feComposite in2="hardAlpha" operator="out"/><feColorMatrix values="0 0 0 0 0.9375 0 0 0 0 0.9375 0 0 0 0 0.9375 0 0 0 1 0"/><feBlend in2="BackgroundImageFix" result="effect1_dropShadow_1677_17294"/><feBlend in="SourceGraphic" in2="effect1_dropShadow_1677_17294" result="shape"/></filter><filter id="h" x="-54.789" y="88.774" width="174.446" height="73.102" filterUnits="userSpaceOnUse" color-interpolation-filters="sRGB"><feFlood flood-opacity="0" result="BackgroundImageFix"/><feBlend in="SourceGraphic" in2="BackgroundImageFix" result="shape"/><feGaussianBlur stdDeviation="2" result="effect1_foregroundBlur_1677_17294"/></filter><filter id="i" x="11.984" y="32.095" width="241.029" height="50.344" filterUnits="userSpaceOnUse" color-interpolation-filters="sRGB"><feFlood flood-opacity="0" result="BackgroundImageFix"/><feBlend in="SourceGraphic" in2="BackgroundImageFix" result="shape"/><feGaussianBlur stdDeviation="2" result="effect1_foregroundBlur_1677_17294"/></filter><filter id="j" x="117.949" y="44.062" width="56.122" height="29.055" filterUnits="userSpaceOnUse" color-interpolation-filters="sRGB"><feFlood flood-opacity="0" result="BackgroundImageFix"/><feBlend in="SourceGraphic" in2="BackgroundImageFix" result="shape"/><feGaussianBlur stdDeviation="2" result="effect1_foregroundBlur_1677_17294"/></filter><filter id="k" x="103.297" y="33.767" width="48.895" height="22.98" filterUnits="userSpaceOnUse" color-interpolation-filters="sRGB"><feFlood flood-opacity="0" result="BackgroundImageFix"/><feBlend in="SourceGraphic" in2="BackgroundImageFix" result="shape"/><feGaussianBlur stdDeviation="2" result="effect1_foregroundBlur_1677_17294"/></filter><filter id="g" x="-36.856" y="25.604" width="188.79" height="97.859" filterUnits="userSpaceOnUse" color-interpolation-filters="sRGB"><feFlood flood-opacity="0" result="BackgroundImageFix"/><feBlend in="SourceGraphic" in2="BackgroundImageFix" result="shape"/><feGaussianBlur stdDeviation="2" result="effect1_foregroundBlur_1677_17294"/></filter><filter id="m" x="92.959" y="61.232" width="66.145" height="55.164" filterUnits="userSpaceOnUse" color-interpolation-filters="sRGB"><feFlood flood-opacity="0" result="BackgroundImageFix"/><feBlend in="SourceGraphic" in2="BackgroundImageFix" result="shape"/><feGaussianBlur stdDeviation="2" result="effect1_foregroundBlur_1677_17294"/></filter><filter id="n" x="100.314" y="62.28" width="47.102" height="75.446" filterUnits="userSpaceOnUse" color-interpolation-filters="sRGB"><feFlood flood-opacity="0" result="BackgroundImageFix"/><feBlend in="SourceGraphic" in2="BackgroundImageFix" result="shape"/><feGaussianBlur stdDeviation="1.5" result="effect1_foregroundBlur_1677_17294"/></filter><filter id="o" x="121.739" y="67.246" width="20.811" height="18.551" filterUnits="userSpaceOnUse" color-interpolation-filters="sRGB"><feFlood flood-opacity="0" result="BackgroundImageFix"/><feBlend in="SourceGraphic" in2="BackgroundImageFix" result="shape"/><feGaussianBlur stdDeviation="2" result="effect1_foregroundBlur_1677_17294"/></filter><linearGradient id="b" x1="126.564" y1="124" x2="166.72" y2="39.918" gradientUnits="userSpaceOnUse"><stop stop-color="#fff"/><stop offset="1" stop-color="#FFFDFB" stop-opacity=".53"/></linearGradient><linearGradient id="d" x1="71.39" y1="98.125" x2="90.751" y2="33.992" gradientUnits="userSpaceOnUse"><stop stop-color="#fff"/><stop offset="1" stop-color="#FFFDFB" stop-opacity=".78"/></linearGradient></defs></svg>
