<svg width="80" height="30" viewBox="0 0 80 30" fill="none" xmlns="http://www.w3.org/2000/svg">
<path d="M0.138215 8.69507C0.138215 8.69507 6.02336 7.48697 10.0033 8.49266C14.6618 9.6704 18.5648 8.54453 20.3365 7.8475C21.871 7.24409 23.5657 6.93542 25.2699 7.01132C27.1232 7.09481 29.4886 7.53631 32.0377 8.8494C37.8537 11.845 48.0565 17.067 55.6851 16.0689C63.3136 15.0708 73.9923 12.3054 80 15.2238V30H0L0.138215 8.69507Z" fill="url(#paint0_radial_13736_52648)"/>
<g filter="url(#filter0_i_13736_52648)">
<path d="M39.5048 0.141602C27.8877 0.141602 18.4707 6.40928 18.4707 14.1416C18.4707 21.8739 27.8877 28.1416 39.5048 28.1416C51.122 28.1416 60.539 21.8739 60.539 14.1416C60.539 6.40928 51.122 0.141602 39.5048 0.141602ZM39.4245 18.4296C32.6307 18.4296 27.1235 16.0814 27.1235 13.1844C27.1235 10.2873 32.6307 7.93917 39.4245 7.93917C46.2184 7.93917 51.7256 10.2873 51.7256 13.1844C51.7256 16.0814 46.2184 18.4296 39.4245 18.4296Z" fill="#FAFAFA"/>
</g>
<mask id="mask0_13736_52648" style="mask-type:alpha" maskUnits="userSpaceOnUse" x="18" y="0" width="43" height="29">
<path fill-rule="evenodd" clip-rule="evenodd" d="M37.4164 7.99603C37.4516 7.95619 37.4677 7.9332 37.4677 7.9332H37.4685C37.6892 3.23749 37.0486 1.12564 36.6348 0.272017C37.5719 0.186961 38.5282 0.142517 39.5006 0.142517C44.3435 0.142517 48.8039 1.22679 52.361 3.04898C51.741 3.0804 50.4345 3.42369 49.1066 5.50182C47.9434 7.32325 48.2721 8.83893 48.6683 9.70405C46.4109 8.61441 43.1044 7.92707 39.4194 7.92707C38.7374 7.92707 38.0685 7.95082 37.4164 7.99603ZM23.6768 10.6829C21.0055 10.5235 19.0125 11.8392 18.5742 13.8721V13.8729C18.5075 14.1802 18.4723 14.5419 18.4692 14.9411C18.4454 14.6683 18.4316 14.394 18.4316 14.1173C18.4316 8.97719 22.6162 4.48608 28.8491 2.05853C30.5173 2.61101 31.3862 4.32209 32.0874 6.25846C32.5617 7.56725 32.3962 8.42931 32.164 8.93045C29.2345 9.83925 27.2844 11.2837 27.1127 12.925C26.7181 12.2224 25.6798 10.8024 23.6768 10.6829ZM43.6275 23.7722C43.483 23.0764 43.3718 22.447 43.2702 21.8723C43.0031 20.3614 42.8027 19.2281 42.2421 18.2589C41.3356 18.3493 40.3915 18.3968 39.4206 18.3968C34.1318 18.3968 29.6216 16.9808 27.8745 14.9923C26.9894 14.8184 25.4316 14.8888 23.5964 16.6222C21.3681 18.7271 21.7351 20.9999 22.0102 21.911C25.794 25.6396 32.2154 28.0925 39.5011 28.0925C40.6758 28.0925 41.8275 28.0273 42.9501 27.9047C43.3869 27.15 44.0183 25.6565 43.6275 23.7722ZM53.2546 7.85403C55.7235 6.31613 57.5496 7.25021 58.4744 8.03411L58.4752 8.03487C59.8185 9.87392 60.5717 11.9383 60.5717 14.1191C60.5717 18.2485 57.8714 21.9588 53.578 24.5174C53.7925 24.0001 54.0339 23.3304 54.2155 22.5802C54.6308 20.8676 53.437 18.6883 51.6209 16.9757C51.0209 16.4102 50.4156 16.0999 49.873 15.9374C51.0577 15.1328 51.7435 14.1827 51.7435 13.1635C51.7435 12.5996 51.5328 12.0563 51.1443 11.5475C51.0937 10.7168 51.2853 9.0816 53.2546 7.85403Z" fill="white"/>
</mask>
<g mask="url(#mask0_13736_52648)">
<g filter="url(#filter1_f_13736_52648)">
<g filter="url(#filter2_f_13736_52648)">
<path d="M15.4791 12.9165C14.6511 13.5358 14.5357 14.581 15.1963 15.4999C16.9995 18.0083 18.8137 20.5131 20.5993 23.0274C22.6596 25.9067 24.5367 25.8663 29.4482 24.1291C40.7384 20.1176 52.2424 16.3787 63.6885 12.5596C65.6659 11.8966 66.6593 10.5126 65.9065 9.46922C61.2461 3.00999 56.5816 -3.45478 51.9384 -9.92156C50.9128 -11.3499 48.5551 -11.8256 47.2683 -10.8631L15.4791 12.9165Z" fill="#FFE665"/>
</g>
<g filter="url(#filter3_f_13736_52648)">
<path d="M64.4489 15.628L64.449 11.2279C58.3834 10.4493 52.2385 11.6862 46.958 14.7486L40.964 18.2249C35.8829 21.1718 30.3804 23.3245 24.6458 24.6092L21.4973 25.3146L24.0788 32.2204L53.7374 28.6636L64.4489 15.628Z" fill="#FFB9F8"/>
</g>
<g filter="url(#filter4_f_13736_52648)">
<path d="M30.7149 26.3913L30.472 26.4347L38.0729 31.7908L59.4884 27.749L66.6473 17.7351L61.718 13.2393L59.8403 14.5178C51.0803 20.4821 41.1567 24.5277 30.7149 26.3913Z" fill="#0A9F68"/>
</g>
<g filter="url(#filter5_f_13736_52648)">
<path d="M22.7587 -6.33262L-3.80613 3.0471L-6.02684 11.4519L31.3854 14.3916L37.5251 9.62346C42.3253 5.89559 43.0847 -1.06652 39.201 -5.74157L22.7587 -6.33262Z" fill="#71BBFF"/>
</g>
</g>
</g>
<defs>
<filter id="filter0_i_13736_52648" x="18.4707" y="0.141602" width="42.0684" height="28" filterUnits="userSpaceOnUse" color-interpolation-filters="sRGB">
<feFlood flood-opacity="0" result="BackgroundImageFix"/>
<feBlend mode="normal" in="SourceGraphic" in2="BackgroundImageFix" result="shape"/>
<feColorMatrix in="SourceAlpha" type="matrix" values="0 0 0 0 0 0 0 0 0 0 0 0 0 0 0 0 0 0 127 0" result="hardAlpha"/>
<feOffset/>
<feGaussianBlur stdDeviation="0.867324"/>
<feComposite in2="hardAlpha" operator="arithmetic" k2="-1" k3="1"/>
<feColorMatrix type="matrix" values="0 0 0 0 0.9125 0 0 0 0 0.908698 0 0 0 0 0.908698 0 0 0 1 0"/>
<feBlend mode="normal" in2="shape" result="effect1_innerShadow_13736_52648"/>
</filter>
<filter id="filter1_f_13736_52648" x="-8.62932" y="-13.9681" width="77.8778" height="48.7905" filterUnits="userSpaceOnUse" color-interpolation-filters="sRGB">
<feFlood flood-opacity="0" result="BackgroundImageFix"/>
<feBlend mode="normal" in="SourceGraphic" in2="BackgroundImageFix" result="shape"/>
<feGaussianBlur stdDeviation="1.30099" result="effect1_foregroundBlur_13736_52648"/>
</filter>
<filter id="filter2_f_13736_52648" x="13.4685" y="-12.6671" width="53.9906" height="39.3007" filterUnits="userSpaceOnUse" color-interpolation-filters="sRGB">
<feFlood flood-opacity="0" result="BackgroundImageFix"/>
<feBlend mode="normal" in="SourceGraphic" in2="BackgroundImageFix" result="shape"/>
<feGaussianBlur stdDeviation="0.650493" result="effect1_foregroundBlur_13736_52648"/>
</filter>
<filter id="filter3_f_13736_52648" x="20.6307" y="10.1336" width="44.6858" height="22.9541" filterUnits="userSpaceOnUse" color-interpolation-filters="sRGB">
<feFlood flood-opacity="0" result="BackgroundImageFix"/>
<feBlend mode="normal" in="SourceGraphic" in2="BackgroundImageFix" result="shape"/>
<feGaussianBlur stdDeviation="0.433662" result="effect1_foregroundBlur_13736_52648"/>
</filter>
<filter id="filter4_f_13736_52648" x="29.6053" y="12.3719" width="37.9085" height="20.2862" filterUnits="userSpaceOnUse" color-interpolation-filters="sRGB">
<feFlood flood-opacity="0" result="BackgroundImageFix"/>
<feBlend mode="normal" in="SourceGraphic" in2="BackgroundImageFix" result="shape"/>
<feGaussianBlur stdDeviation="0.433662" result="effect1_foregroundBlur_13736_52648"/>
</filter>
<filter id="filter5_f_13736_52648" x="-6.89467" y="-7.19994" width="49.4456" height="22.4588" filterUnits="userSpaceOnUse" color-interpolation-filters="sRGB">
<feFlood flood-opacity="0" result="BackgroundImageFix"/>
<feBlend mode="normal" in="SourceGraphic" in2="BackgroundImageFix" result="shape"/>
<feGaussianBlur stdDeviation="0.433662" result="effect1_foregroundBlur_13736_52648"/>
</filter>
<radialGradient id="paint0_radial_13736_52648" cx="0" cy="0" r="1" gradientUnits="userSpaceOnUse" gradientTransform="translate(36.6563 10.2144) rotate(88.5631) scale(19.7548 42.9188)">
<stop stop-color="#E9E8E8"/>
<stop offset="1" stop-color="#FAFAFA" stop-opacity="0.35"/>
</radialGradient>
</defs>
</svg>
