<svg width="16" height="16" viewBox="0 0 16 16" fill="none" xmlns="http://www.w3.org/2000/svg">
<g id="16/question">
<g id="Union">
<path d="M8.00033 5.30162C7.33848 5.30162 6.80195 5.83815 6.80195 6.49999H5.50195C5.50195 5.12018 6.62051 4.00162 8.00033 4.00162C9.38014 4.00162 10.4987 5.12018 10.4987 6.49999C10.4987 7.4099 10.0119 8.20548 9.2876 8.64153C9.08449 8.76382 8.91125 8.89889 8.79501 9.03621C8.6814 9.17041 8.65033 9.27164 8.65033 9.34837V9.75524H7.35033V9.34837C7.35033 8.87281 7.55868 8.48462 7.8028 8.19626C8.04427 7.91101 8.34704 7.69038 8.61708 7.5278C8.967 7.31713 9.1987 6.9353 9.1987 6.49999C9.1987 5.83815 8.66217 5.30162 8.00033 5.30162Z" fill="currentColor"/>
<path d="M8.0002 11.9993C8.44202 11.9993 8.8002 11.6412 8.8002 11.1993C8.8002 10.7575 8.44202 10.3993 8.0002 10.3993C7.55837 10.3993 7.2002 10.7575 7.2002 11.1993C7.2002 11.6412 7.55837 11.9993 8.0002 11.9993Z" fill="currentColor"/>
<path fill-rule="evenodd" clip-rule="evenodd" d="M14.3002 8C14.3002 11.4794 11.4796 14.3 8.0002 14.3C4.5208 14.3 1.7002 11.4794 1.7002 8C1.7002 4.5206 4.5208 1.7 8.0002 1.7C11.4796 1.7 14.3002 4.5206 14.3002 8ZM8.0002 13C10.7616 13 13.0002 10.7614 13.0002 8C13.0002 5.23857 10.7616 3 8.0002 3C5.23877 3 3.0002 5.23857 3.0002 8C3.0002 10.7614 5.23877 13 8.0002 13Z" fill="currentColor"/>
</g>
</g>
</svg>
