<svg width="16" height="16" viewBox="0 0 16 16" fill="none" xmlns="http://www.w3.org/2000/svg">
<path fill-rule="evenodd" clip-rule="evenodd" d="M7.99961 1.34998C4.32692 1.34998 1.34961 4.32728 1.34961 7.99998C1.34961 11.6727 4.32692 14.65 7.99961 14.65C11.6723 14.65 14.6496 11.6727 14.6496 7.99998C14.6496 4.32728 11.6723 1.34998 7.99961 1.34998ZM4.70441 3.78492C5.6127 3.07385 6.75665 2.64998 7.99961 2.64998C10.9543 2.64998 13.3496 5.04525 13.3496 7.99998C13.3496 9.24293 12.9257 10.3869 12.2147 11.2952L4.70441 3.78492ZM3.78509 4.70409C3.07369 5.61249 2.64961 6.75671 2.64961 7.99998C2.64961 10.9547 5.04489 13.35 7.99961 13.35C9.24288 13.35 10.3871 12.9259 11.2955 12.2145L3.78509 4.70409Z" fill="#7D7D7D"/>
</svg>
