<svg width="16" height="16" viewBox="0 0 16 16" fill="none" xmlns="http://www.w3.org/2000/svg">
<g id="16/lock">
<rect id="Rectangle 2697" x="2.5" y="6.5" width="11" height="7" rx="1" stroke="currentColor" stroke-width="1.3" stroke-linecap="round" stroke-linejoin="round"/>
<path id="Ellipse 1642" d="M11.3336 6.16667V4.50001C11.3336 2.65906 9.84126 1.16667 8.00031 1.16667C6.63343 1.16667 5.45871 1.9894 4.94434 3.16667" stroke="currentColor" stroke-width="1.3" stroke-linecap="round" stroke-linejoin="round"/>
<path id="Union" fill-rule="evenodd" clip-rule="evenodd" d="M6.03353 10.1667C6.03353 10.5349 5.73505 10.8333 5.36686 10.8333C4.99867 10.8333 4.7002 10.5349 4.7002 10.1667C4.7002 9.79848 4.99867 9.5 5.36686 9.5C5.73505 9.5 6.03353 9.79848 6.03353 10.1667ZM8.66634 10.1667C8.66634 10.5349 8.36786 10.8333 7.99967 10.8333C7.63148 10.8333 7.33301 10.5349 7.33301 10.1667C7.33301 9.79848 7.63148 9.5 7.99967 9.5C8.36786 9.5 8.66634 9.79848 8.66634 10.1667ZM10.6325 10.8333C11.0007 10.8333 11.2992 10.5349 11.2992 10.1667C11.2992 9.79848 11.0007 9.5 10.6325 9.5C10.2643 9.5 9.96582 9.79848 9.96582 10.1667C9.96582 10.5349 10.2643 10.8333 10.6325 10.8333Z" fill="currentColor"/>
</g>
</svg>
