<svg width="17" height="16" viewBox="0 0 17 16" fill="none" xmlns="http://www.w3.org/2000/svg">
<g id="16/Menu_More">
<g id="Union">
<path d="M8.01393 2.68335C7.28676 2.68335 6.69727 3.27284 6.69727 4.00002C6.69727 4.72719 7.28676 5.31668 8.01393 5.31668C8.74111 5.31668 9.3306 4.72719 9.3306 4.00002C9.3306 3.27284 8.74111 2.68335 8.01393 2.68335Z" fill="currentColor"/>
<path d="M8.01393 6.68335C7.28676 6.68335 6.69727 7.27284 6.69727 8.00002C6.69727 8.72719 7.28676 9.31668 8.01393 9.31668C8.74111 9.31668 9.3306 8.72719 9.3306 8.00002C9.3306 7.27284 8.74111 6.68335 8.01393 6.68335Z" fill="currentColor"/>
<path d="M8.01393 10.6833C7.28676 10.6833 6.69727 11.2728 6.69727 12C6.69727 12.7272 7.28676 13.3167 8.01393 13.3167C8.74111 13.3167 9.3306 12.7272 9.3306 12C9.3306 11.2728 8.74111 10.6833 8.01393 10.6833Z" fill="currentColor"/>
</g>
</g>
</svg>
