<svg width="16" height="16" viewBox="0 0 16 16" fill="none" xmlns="http://www.w3.org/2000/svg">
<g id="16/Crown">
<path id="Vector" d="M2.86692 4.66289L5.5 6.5L7.5458 2.98045C7.59741 2.90917 7.66555 2.85108 7.74455 2.811C7.82354 2.77091 7.91111 2.75 7.99996 2.75C8.08882 2.75 8.17639 2.77091 8.25538 2.811C8.33438 2.85108 8.40252 2.90917 8.45413 2.98045L10.5 6.5L13.133 4.66289C13.2217 4.60474 13.3254 4.57283 13.4319 4.57092C13.5384 4.56902 13.6433 4.59719 13.734 4.65212C13.8248 4.70705 13.8977 4.78644 13.9442 4.88091C13.9906 4.97538 14.0086 5.08097 13.9961 5.18521L13.0794 12.8645C13.0635 12.9983 12.9982 13.1216 12.8961 13.2111C12.794 13.3005 12.6621 13.35 12.5254 13.35H3.47452C3.33786 13.35 3.20596 13.3005 3.10384 13.2111C3.00172 13.1216 2.93647 12.9983 2.92048 12.8645L2.00379 5.18467C1.9914 5.08047 2.00953 4.97495 2.05602 4.88057C2.10252 4.78619 2.17545 4.70689 2.26619 4.65204C2.35694 4.59718 2.46172 4.56905 2.56817 4.57097C2.67461 4.5729 2.77828 4.60479 2.86692 4.66289Z" stroke="#7D7D7D" stroke-width="1.3" stroke-linecap="round" stroke-linejoin="round"/>
<circle id="Ellipse 1640" cx="8" cy="9" r="1" fill="#7D7D7D"/>
</g>
</svg>
