<svg width="16" height="16" viewBox="0 0 16 16" fill="none" xmlns="http://www.w3.org/2000/svg">
<g id="16/sad">
<g id="Union">
<path d="M5.99967 7.33333C6.36786 7.33333 6.66634 7.03486 6.66634 6.66667C6.66634 6.29848 6.36786 6 5.99967 6C5.63148 6 5.33301 6.29848 5.33301 6.66667C5.33301 7.03486 5.63148 7.33333 5.99967 7.33333Z" fill="#7D7D7D"/>
<path d="M9.99967 7.33333C10.3679 7.33333 10.6663 7.03486 10.6663 6.66667C10.6663 6.29848 10.3679 6 9.99967 6C9.63148 6 9.33301 6.29848 9.33301 6.66667C9.33301 7.03486 9.63148 7.33333 9.99967 7.33333Z" fill="#7D7D7D"/>
<path d="M4.44941 9.91283C4.21718 10.1866 4.25083 10.5968 4.52458 10.829C4.79833 11.0612 5.20851 11.0276 5.44074 10.7538C6.73633 9.22664 9.26437 9.22631 10.5615 10.754C10.7939 11.0277 11.2041 11.0612 11.4777 10.8288C11.7514 10.5965 11.7849 10.1863 11.5525 9.91262C9.73639 7.77371 6.26443 7.77338 4.44941 9.91283Z" fill="#7D7D7D"/>
<path fill-rule="evenodd" clip-rule="evenodd" d="M1.34961 7.99998C1.34961 4.32728 4.32692 1.34998 7.99961 1.34998C11.6723 1.34998 14.6496 4.32728 14.6496 7.99998C14.6496 11.6727 11.6723 14.65 7.99961 14.65C4.32692 14.65 1.34961 11.6727 1.34961 7.99998ZM7.99961 2.64998C5.04489 2.64998 2.64961 5.04525 2.64961 7.99998C2.64961 10.9547 5.04489 13.35 7.99961 13.35C10.9543 13.35 13.3496 10.9547 13.3496 7.99998C13.3496 5.04525 10.9543 2.64998 7.99961 2.64998Z" fill="#7D7D7D"/>
</g>
</g>
</svg>
