<svg width="16" height="16" viewBox="0 0 16 16" fill="none" xmlns="http://www.w3.org/2000/svg">
<g id="16/signin">
<path id="Vector" d="M8 14C11.3137 14 14 11.3137 14 8C14 4.68629 11.3137 2 8 2C4.68629 2 2 4.68629 2 8C2 11.3137 4.68629 14 8 14Z" stroke="currentColor" stroke-width="1.3" stroke-linecap="round" stroke-linejoin="round"/>
<path id="Vector_2" d="M11.478 12.8882C10.6235 11.9339 9.38199 11.3334 8.00022 11.3334C6.61845 11.3334 5.37694 11.9339 4.52246 12.8882" stroke="currentColor" stroke-width="1.3" stroke-linecap="round" stroke-linejoin="round"/>
<path id="Vector_3" d="M8 9.33337C9.10457 9.33337 10 8.43794 10 7.33337C10 6.2288 9.10457 5.33337 8 5.33337C6.89543 5.33337 6 6.2288 6 7.33337C6 8.43794 6.89543 9.33337 8 9.33337Z" stroke="currentColor" stroke-width="1.3" stroke-linecap="round" stroke-linejoin="round"/>
</g>
</svg>
