<svg width="16" height="16" viewBox="0 0 16 16" fill="none" xmlns="http://www.w3.org/2000/svg">
<g id="16/Users_Group">
<path id="Vector" d="M4.66699 13.3333C4.66699 12.2288 6.15938 11.3333 8.00033 11.3333C9.84127 11.3333 11.3337 12.2288 11.3337 13.3333" stroke="currentColor" stroke-width="1.3" stroke-linecap="round" stroke-linejoin="round"/>
<path id="Vector_2" d="M12 9.49966C13.1773 9.80829 14 10.5131 14 11.3332" stroke="currentColor" stroke-width="1.3" stroke-linecap="round" stroke-linejoin="round"/>
<path id="Vector_3" d="M4 9.49966C2.82273 9.80829 2 10.5131 2 11.3332" stroke="currentColor" stroke-width="1.3" stroke-linecap="round" stroke-linejoin="round"/>
<path id="Vector_4" d="M8 9.33334C9.10457 9.33334 10 8.43791 10 7.33334C10 6.22877 9.10457 5.33334 8 5.33334C6.89543 5.33334 6 6.22877 6 7.33334C6 8.43791 6.89543 9.33334 8 9.33334Z" stroke="currentColor" stroke-width="1.3" stroke-linecap="round" stroke-linejoin="round"/>
<path id="Vector_5" d="M11.9997 6.82408C12.4088 6.45787 12.6663 5.92568 12.6663 5.33334C12.6663 4.22877 11.7709 3.33334 10.6663 3.33334C10.1541 3.33334 9.68685 3.52591 9.33301 3.84261" stroke="currentColor" stroke-width="1.3" stroke-linecap="round" stroke-linejoin="round"/>
<path id="Vector_6" d="M3.99967 6.82408C3.59051 6.45787 3.33301 5.92568 3.33301 5.33334C3.33301 4.22877 4.22844 3.33334 5.33301 3.33334C5.84524 3.33334 6.3125 3.52591 6.66634 3.84261" stroke="currentColor" stroke-width="1.3" stroke-linecap="round" stroke-linejoin="round"/>
</g>
</svg>
