<svg width="16" height="16" viewBox="0 0 16 16" fill="none" xmlns="http://www.w3.org/2000/svg">
<g id="16/Smile">
<g id="Union">
<path d="M5.99967 7.33333C6.36786 7.33333 6.66634 7.03486 6.66634 6.66667C6.66634 6.29848 6.36786 6 5.99967 6C5.63148 6 5.33301 6.29848 5.33301 6.66667C5.33301 7.03486 5.63148 7.33333 5.99967 7.33333Z" fill="#7D7D7D"/>
<path d="M9.99967 7.33333C10.3679 7.33333 10.6663 7.03486 10.6663 6.66667C10.6663 6.29848 10.3679 6 9.99967 6C9.63148 6 9.33301 6.29848 9.33301 6.66667C9.33301 7.03486 9.63148 7.33333 9.99967 7.33333Z" fill="#7D7D7D"/>
<path d="M5.53974 9.07309C5.39601 8.74413 5.01283 8.59397 4.68387 8.7377C4.35491 8.88143 4.20475 9.26462 4.34848 9.59357C4.96256 10.9991 6.36565 11.9833 8.00008 11.9833C9.63451 11.9833 11.0376 10.9991 11.6517 9.59357C11.7954 9.26462 11.6452 8.88143 11.3163 8.7377C10.9873 8.59397 10.6041 8.74413 10.4604 9.07309C10.0458 10.0222 9.09941 10.6833 8.00008 10.6833C6.90075 10.6833 5.9544 10.0222 5.53974 9.07309Z" fill="#7D7D7D"/>
<path fill-rule="evenodd" clip-rule="evenodd" d="M1.34961 7.99998C1.34961 4.32728 4.32692 1.34998 7.99961 1.34998C11.6723 1.34998 14.6496 4.32728 14.6496 7.99998C14.6496 11.6727 11.6723 14.65 7.99961 14.65C4.32692 14.65 1.34961 11.6727 1.34961 7.99998ZM7.99961 2.64998C5.04489 2.64998 2.64961 5.04525 2.64961 7.99998C2.64961 10.9547 5.04489 13.35 7.99961 13.35C10.9543 13.35 13.3496 10.9547 13.3496 7.99998C13.3496 5.04525 10.9543 2.64998 7.99961 2.64998Z" fill="#7D7D7D"/>
</g>
</g>
</svg>
