<svg width="147" height="88" viewBox="0 0 147 88" fill="none" xmlns="http://www.w3.org/2000/svg">
<g id="devices_img">
<g id="Group 7392">
<g id="Group 7388">
<rect id="Rectangle 2832" x="113.797" y="39.1602" width="14.9194" height="28.6" rx="4" fill="url(#paint0_linear_2597_23271)"/>
<rect id="Rectangle 2833" x="77.8086" y="14.0801" width="31.1552" height="40.48" rx="4" fill="url(#paint1_linear_2597_23271)"/>
<rect id="Rectangle 2831" x="19.0117" y="29.4805" width="68.0149" height="44.44" rx="4" fill="#F6F6F6"/>
</g>
<g id="Mask group">
<mask id="mask0_2597_23271" style="mask-type:alpha" maskUnits="userSpaceOnUse" x="19" y="14" width="110" height="60">
<path id="Union" fill-rule="evenodd" clip-rule="evenodd" d="M77.8088 18.0801C77.8088 15.8709 79.5996 14.0801 81.8088 14.0801H104.964C107.173 14.0801 108.964 15.8709 108.964 18.0801V50.5601C108.964 52.7692 107.173 54.5601 104.964 54.5601H87.0266V69.9205C87.0266 72.1296 85.2358 73.9205 83.0266 73.9205H23.0117C20.8026 73.9205 19.0117 72.1296 19.0117 69.9205V33.4805C19.0117 31.2713 20.8026 29.4805 23.0117 29.4805H77.8088V18.0801ZM113.797 43.1602C113.797 40.951 115.588 39.1602 117.797 39.1602H124.716C126.925 39.1602 128.716 40.951 128.716 43.1602V63.7602C128.716 65.9693 126.925 67.7602 124.716 67.7602H117.797C115.588 67.7602 113.797 65.9693 113.797 63.7602V43.1602Z" fill="#F6F6F6"/>
</mask>
<g mask="url(#mask0_2597_23271)">
<g id="Mask group_2">
<mask id="mask1_2597_23271" style="mask-type:alpha" maskUnits="userSpaceOnUse" x="41" y="35" width="90" height="43">
<path id="Ellipse 107 (Stroke)" fill-rule="evenodd" clip-rule="evenodd" d="M86.2224 38.2462C63.5444 38.2462 45.0876 55.4427 43.8975 77.0004L41.3633 76.8597C42.6318 53.8829 62.2685 35.7012 86.2224 35.7012C107.56 35.7012 125.463 50.1223 130.024 69.5119L127.554 70.0962C123.271 51.8866 106.415 38.2462 86.2224 38.2462Z" fill="black"/>
</mask>
<g mask="url(#mask1_2597_23271)">
<g id="Group 7391">
<g id="Vector" filter="url(#filter0_f_2597_23271)">
<path d="M-6.52347 27.1277C-7.66029 35.8482 -8.70929 44.5971 -9.89002 53.3035C-10.974 61.6021 -6.27149 64.5447 9.51905 69.4153C45.8557 80.5799 82.136 92.5604 118.445 104.309C124.725 106.333 130.125 105.528 130.502 102.51C133.187 81.0535 135.874 59.5753 138.647 38.1466L-6.52347 27.1277Z" fill="#FFB9F8"/>
</g>
<g id="Vector_2" filter="url(#filter1_f_2597_23271)">
<path d="M62.074 104.308C62.0694 104.31 62.0677 104.303 62.0719 104.301C82.9299 92.3739 110.39 80.2822 141.418 69.579C142.695 69.1392 143.977 68.702 145.263 68.2674C153.152 65.602 158.69 57.331 157.875 49.1558V49.1558C156.885 39.2333 147.161 34.1486 137.916 38.6575L70.926 71.3286C64.289 74.5654 60.0589 81.9207 60.7038 89.0599C61.1628 94.1402 61.6153 99.2217 62.0776 104.303C62.0779 104.306 62.0762 104.308 62.074 104.308V104.308Z" fill="#FFE665"/>
</g>
<g id="Vector_3" filter="url(#filter2_f_2597_23271)">
<path d="M39.6727 46.7372C30.1537 52.53 20.6298 58.3153 11.0992 64.1099C20.3841 61.486 30.1875 58.0331 39.7718 54.3408C48.3769 51.023 57.2015 47.4355 65.1138 45.6978C71.7993 44.228 77.3584 44.1611 82.4426 44.6764C92.5267 41.9499 101.492 40.9314 109.201 41.7826C114.963 42.421 112.666 44.9544 115.768 47.5343C107.569 49.9131 115.396 53.096 123.575 50.9453C126.925 50.0645 125.599 49.7146 128.674 49.2735C130.821 48.9713 133.712 46.7679 135.47 46.9064C143.482 47.5578 160.927 38.5347 168.042 40.0403C168.834 32.6138 143.898 40.3344 139.837 35.6678C120.722 40.7637 119.019 36.7052 104.486 35.7973C103.291 35.7209 101.092 32.2476 99.9251 32.1378L56.7777 35.7973C53.9297 37.3332 42.4212 45.0676 39.6727 46.7372Z" fill="#71BBFF"/>
</g>
<g id="Vector_4" filter="url(#filter3_f_2597_23271)">
<path d="M69.3131 53.9355C80.3403 46.8724 96.6606 33.9109 99.4266 22.8307C88.5248 18.5678 91.7249 36.0441 80.8231 31.7811L65.1164 44.0801C63.391 50.0917 59.8281 50.2266 69.3131 53.9355Z" fill="#0A9F68"/>
</g>
<g id="Vector 75" filter="url(#filter4_f_2597_23271)">
<path d="M1.06458 86.7523C0.751191 87.1986 0.827115 87.6827 0.503504 88.1509C0.179892 88.619 -0.748986 89.8494 -0.628207 90.1136C-0.453662 90.4954 -0.697495 91.2118 0.231214 91.3487C1.1288 91.4809 2.3867 91.0935 3.32508 90.8711C6.7694 90.0548 10.0861 88.7749 13.4122 87.7485C15.0943 87.2295 16.8907 86.9822 18.6206 86.5097C19.4636 86.2795 19.8419 85.9447 20.7955 85.8238C21.7112 85.7077 22.5609 85.4335 23.4305 85.196C25.5347 84.6212 27.5315 84.5326 29.7249 84.3036C32.1464 84.0507 35.2887 82.9928 37.489 82.234C44.5203 79.8092 48.7884 75.7664 54.2396 72.3306C56.3542 70.9979 58.0293 69.4704 60.3404 68.2349C62.7748 66.9336 65.5726 66.1526 68.4529 65.3659C73.3648 64.0243 78.8128 62.6452 83.2507 60.6913C85.3072 59.7858 87.0783 58.7952 88.1889 57.4031C89.3859 55.9027 87.767 53.5665 85.8123 52.7648C84.7269 52.3197 82.2054 52.3899 80.8191 52.4342C79.3487 52.4813 77.8823 52.6315 76.4158 52.7999C70.9406 53.4284 65.573 55.2422 61.0458 57.3756C55.3626 60.0538 49.3824 60.5534 43.0327 62.0301C39.9864 62.7386 37.0871 63.6881 34.2071 64.6142C32.2981 65.2281 30.955 66.7024 29.5488 67.6422C25.5976 70.2829 23.4956 73.5164 18.7668 75.7316C16.5714 76.7601 14.2435 77.7569 11.7519 78.4642C10.3967 78.8489 8.35611 79.3936 7.33677 80.1294C5.44192 81.4974 2.97972 83.0235 2.25335 84.7332C1.98848 85.3566 1.48309 86.1564 1.06458 86.7523Z" fill="#FFE665"/>
</g>
</g>
</g>
</g>
</g>
</g>
<rect id="Rectangle 2848" x="85.2695" y="33" width="1.75522" height="11.88" fill="#F6F6F6"/>
<rect id="Rectangle 2849" x="113.793" y="42.2402" width="1.75522" height="14.08" fill="#F6F6F6"/>
<rect id="Rectangle 2850" x="107.211" y="37.4004" width="1.75522" height="12.76" fill="#ECECEC"/>
</g>
</g>
<defs>
<filter id="filter0_f_2597_23271" x="-14.0381" y="23.1277" width="156.685" height="86.2971" filterUnits="userSpaceOnUse" color-interpolation-filters="sRGB">
<feFlood flood-opacity="0" result="BackgroundImageFix"/>
<feBlend mode="normal" in="SourceGraphic" in2="BackgroundImageFix" result="shape"/>
<feGaussianBlur stdDeviation="2" result="effect1_foregroundBlur_2597_23271"/>
</filter>
<filter id="filter1_f_2597_23271" x="56.6387" y="33.0002" width="105.315" height="75.3083" filterUnits="userSpaceOnUse" color-interpolation-filters="sRGB">
<feFlood flood-opacity="0" result="BackgroundImageFix"/>
<feBlend mode="normal" in="SourceGraphic" in2="BackgroundImageFix" result="shape"/>
<feGaussianBlur stdDeviation="2" result="effect1_foregroundBlur_2597_23271"/>
</filter>
<filter id="filter2_f_2597_23271" x="7.09961" y="28.1379" width="164.961" height="39.9719" filterUnits="userSpaceOnUse" color-interpolation-filters="sRGB">
<feFlood flood-opacity="0" result="BackgroundImageFix"/>
<feBlend mode="normal" in="SourceGraphic" in2="BackgroundImageFix" result="shape"/>
<feGaussianBlur stdDeviation="2" result="effect1_foregroundBlur_2597_23271"/>
</filter>
<filter id="filter3_f_2597_23271" x="59.0078" y="18.1553" width="44.4189" height="39.7803" filterUnits="userSpaceOnUse" color-interpolation-filters="sRGB">
<feFlood flood-opacity="0" result="BackgroundImageFix"/>
<feBlend mode="normal" in="SourceGraphic" in2="BackgroundImageFix" result="shape"/>
<feGaussianBlur stdDeviation="2" result="effect1_foregroundBlur_2597_23271"/>
</filter>
<filter id="filter4_f_2597_23271" x="-4.63867" y="48.4014" width="97.2373" height="46.9741" filterUnits="userSpaceOnUse" color-interpolation-filters="sRGB">
<feFlood flood-opacity="0" result="BackgroundImageFix"/>
<feBlend mode="normal" in="SourceGraphic" in2="BackgroundImageFix" result="shape"/>
<feGaussianBlur stdDeviation="2" result="effect1_foregroundBlur_2597_23271"/>
</filter>
<linearGradient id="paint0_linear_2597_23271" x1="135.647" y1="88.4479" x2="137.276" y2="33.7109" gradientUnits="userSpaceOnUse">
<stop stop-color="#E8E8E8"/>
<stop offset="1" stop-color="#FAFAFA"/>
</linearGradient>
<linearGradient id="paint1_linear_2597_23271" x1="88.1262" y1="48.3478" x2="102.659" y2="13.9805" gradientUnits="userSpaceOnUse">
<stop stop-color="#E8E8E8"/>
<stop offset="1" stop-color="#FAFAFA"/>
</linearGradient>
</defs>
</svg>
