<svg width="147" height="88" viewBox="0 0 147 88" fill="none" xmlns="http://www.w3.org/2000/svg">
<g id="Frame 7149">
<g id="watch_img">
<path id="Rectangle 2842" d="M25 14C25 11.7909 26.7909 10 29 10H118.143C120.352 10 122.143 11.7909 122.143 14V74C122.143 76.2091 120.352 78 118.143 78H29C26.7909 78 25 76.2091 25 74V14Z" fill="url(#paint0_linear_2597_23253)"/>
<path id="Rectangle 2843" d="M122.145 74.1143C122.145 76.2603 120.405 78 118.259 78L28.8874 78C26.7414 78 25.0017 76.2603 25.0017 74.1143V74.1143L122.145 74.1143V74.1143Z" fill="#F6F6F6"/>
<g id="Mask group">
<mask id="mask0_2597_23253" style="mask-type:alpha" maskUnits="userSpaceOnUse" x="25" y="74" width="27" height="4">
<path id="Rectangle 2844" d="M51.7148 78L28.8863 78C26.7402 78 25.0006 76.2603 25.0006 74.1143V74.1143L51.7148 74.1143L51.7148 78Z" fill="#ABABAB"/>
</mask>
<g mask="url(#mask0_2597_23253)">
<g id="Group 7383">
<g id="Vector" filter="url(#filter0_f_2597_23253)">
<path d="M12.7866 70.7587C8.80982 71.2819 7.71399 74.331 10.0898 77.9318V77.9318C11.4205 79.9186 14.0653 80.2377 21.8632 80.1592C39.798 79.9685 57.8851 79.9693 75.9344 79.9146C79.0542 79.9034 81.1867 79.3094 80.6958 78.5883C79.815 77.2945 78.9341 76.0004 78.0537 74.7061C73.9315 68.6461 64.2456 63.9894 57.5532 64.8698L12.7866 70.7587Z" fill="#FFB9F8"/>
</g>
<g id="Vector_2" filter="url(#filter1_f_2597_23253)">
<path d="M29.8446 90.4554C29.8435 90.4559 29.8419 90.4548 29.8428 90.4541C35.6329 86.3683 43.7911 81.6268 53.4477 76.7921C54.1999 76.4158 54.9598 76.0397 55.7262 75.6635C57.5786 74.7544 57.8228 72.927 56.2456 71.4985V71.4985C54.4417 69.8646 51.0904 69.4811 49.1765 70.6756L27.3414 84.3031C25.9174 85.1918 25.8476 86.7414 27.1671 87.9667C28.0598 88.7957 28.9506 89.6254 29.8448 90.4543C29.8453 90.4547 29.8452 90.4552 29.8446 90.4554V90.4554Z" fill="#FFE665"/>
</g>
<g id="Vector 84" filter="url(#filter2_f_2597_23253)">
<path d="M32.9257 74.2574L25.0039 78.4978H28.7813L34.9255 76.1077L36.1753 74.2574L34.9255 73.6406L32.9257 74.2574Z" fill="#0A9F68"/>
</g>
<g id="Vector_3" filter="url(#filter3_f_2597_23253)">
<path d="M5.41802 84.758C16.099 79.482 30.3223 72.9221 46.5238 65.8276C48.9402 64.7698 51.3917 63.7039 53.8688 62.6319C54.9732 62.1539 55.1559 61.1023 54.2426 60.2817V60.2817C53.3226 59.4552 51.676 59.2138 50.5965 59.7243L4.43245 81.5555C3.56729 81.9646 3.44718 82.8127 4.14366 83.4921C4.56971 83.9077 4.99357 84.3242 5.4217 84.7392C5.42866 84.7459 5.42703 84.7543 5.41802 84.758V84.758Z" fill="#71BBFF"/>
</g>
</g>
</g>
</g>
<circle id="Ellipse 98" cx="73.5718" cy="43.9995" r="18.4429" fill="url(#paint1_linear_2597_23253)" stroke="#ABABAB"/>
<g id="Mask group_2">
<mask id="mask1_2597_23253" style="mask-type:alpha" maskUnits="userSpaceOnUse" x="68" y="32" width="16" height="24">
<path id="Polygon 2" d="M82.8701 42.4565C83.8415 43.2565 83.8415 44.7442 82.8701 45.5443L71.5019 54.9063C70.1971 55.9808 68.2305 55.0527 68.2305 53.3624L68.2305 34.6384C68.2305 32.9481 70.1971 32.02 71.5019 33.0945L82.8701 42.4565Z" fill="#EFEFEF"/>
</mask>
<g mask="url(#mask1_2597_23253)">
<g id="Group 7383_2">
<g id="Vector_4" filter="url(#filter4_f_2597_23253)">
<path d="M55.019 34.6974C50.1086 35.9893 47.9074 40.531 49.6575 45.7258C50.0723 46.9572 50.4843 48.1887 50.8906 49.4202C52.2213 53.3939 54.8661 54.0321 62.664 53.875C80.5988 53.4936 98.6858 53.4952 116.735 53.3859C119.855 53.3635 121.988 52.1754 121.497 50.7332C119.66 45.3363 117.822 39.9366 115.99 34.537C113.48 27.137 104.272 21.7392 97.2771 23.5795L55.019 34.6974Z" fill="#FFB9F8"/>
</g>
<g id="Vector_5" filter="url(#filter5_f_2597_23253)">
<path d="M49.2971 57.1794C49.2953 57.1793 49.2956 57.1768 49.2975 57.1764C59.3113 55.0897 71.9773 53.6248 85.8642 53.0203C86.6145 52.988 87.3674 52.9582 88.1226 52.9306C91.3341 52.8133 94.5109 50.4018 95.3719 47.366V47.366C96.3952 43.758 93.7202 40.9569 89.8404 41.5386L57.0868 46.4492C54.2659 46.8721 51.694 49.0591 50.9209 51.6812C50.3808 53.5132 49.8381 55.345 49.2991 57.1779C49.2989 57.1787 49.298 57.1794 49.2971 57.1794V57.1794Z" fill="#FFE665"/>
</g>
<g id="Vector_6" filter="url(#filter6_f_2597_23253)">
<path d="M23.9415 87.9673C34.6224 77.4151 48.8457 64.2955 65.0473 50.1064C67.2872 48.1453 69.5573 46.1702 71.85 44.1844C73.2571 42.9656 73.6926 40.6811 72.7943 39.0656V39.0656C71.8674 37.3985 69.9121 37.1505 68.5039 38.4824L23.39 81.1515C22.2767 82.2044 21.9623 84.0604 22.655 85.4117C23.0861 86.2526 23.5149 87.0954 23.948 87.935C23.9534 87.9455 23.9505 87.9598 23.9415 87.9673V87.9673Z" fill="#71BBFF"/>
</g>
</g>
</g>
</g>
</g>
</g>
<defs>
<filter id="filter0_f_2597_23253" x="0.845703" y="56.7627" width="87.9199" height="31.4072" filterUnits="userSpaceOnUse" color-interpolation-filters="sRGB">
<feFlood flood-opacity="0" result="BackgroundImageFix"/>
<feBlend mode="normal" in="SourceGraphic" in2="BackgroundImageFix" result="shape"/>
<feGaussianBlur stdDeviation="4" result="effect1_foregroundBlur_2597_23253"/>
</filter>
<filter id="filter1_f_2597_23253" x="18.2236" y="61.9785" width="47.0645" height="36.4771" filterUnits="userSpaceOnUse" color-interpolation-filters="sRGB">
<feFlood flood-opacity="0" result="BackgroundImageFix"/>
<feBlend mode="normal" in="SourceGraphic" in2="BackgroundImageFix" result="shape"/>
<feGaussianBlur stdDeviation="4" result="effect1_foregroundBlur_2597_23253"/>
</filter>
<filter id="filter2_f_2597_23253" x="21.0039" y="69.6406" width="19.1719" height="12.8572" filterUnits="userSpaceOnUse" color-interpolation-filters="sRGB">
<feFlood flood-opacity="0" result="BackgroundImageFix"/>
<feBlend mode="normal" in="SourceGraphic" in2="BackgroundImageFix" result="shape"/>
<feGaussianBlur stdDeviation="2" result="effect1_foregroundBlur_2597_23253"/>
</filter>
<filter id="filter3_f_2597_23253" x="-4.30762" y="51.4575" width="67.1338" height="41.3005" filterUnits="userSpaceOnUse" color-interpolation-filters="sRGB">
<feFlood flood-opacity="0" result="BackgroundImageFix"/>
<feBlend mode="normal" in="SourceGraphic" in2="BackgroundImageFix" result="shape"/>
<feGaussianBlur stdDeviation="4" result="effect1_foregroundBlur_2597_23253"/>
</filter>
<filter id="filter4_f_2597_23253" x="41.0615" y="15.217" width="88.5059" height="46.6792" filterUnits="userSpaceOnUse" color-interpolation-filters="sRGB">
<feFlood flood-opacity="0" result="BackgroundImageFix"/>
<feBlend mode="normal" in="SourceGraphic" in2="BackgroundImageFix" result="shape"/>
<feGaussianBlur stdDeviation="4" result="effect1_foregroundBlur_2597_23253"/>
</filter>
<filter id="filter5_f_2597_23253" x="41.2959" y="33.4619" width="62.2959" height="31.7175" filterUnits="userSpaceOnUse" color-interpolation-filters="sRGB">
<feFlood flood-opacity="0" result="BackgroundImageFix"/>
<feBlend mode="normal" in="SourceGraphic" in2="BackgroundImageFix" result="shape"/>
<feGaussianBlur stdDeviation="4" result="effect1_foregroundBlur_2597_23253"/>
</filter>
<filter id="filter6_f_2597_23253" x="14.2891" y="29.6279" width="66.9736" height="66.3394" filterUnits="userSpaceOnUse" color-interpolation-filters="sRGB">
<feFlood flood-opacity="0" result="BackgroundImageFix"/>
<feBlend mode="normal" in="SourceGraphic" in2="BackgroundImageFix" result="shape"/>
<feGaussianBlur stdDeviation="4" result="effect1_foregroundBlur_2597_23253"/>
</filter>
<linearGradient id="paint0_linear_2597_23253" x1="40.7857" y1="10" x2="89.5157" y2="70.2055" gradientUnits="userSpaceOnUse">
<stop stop-color="#F6F6F6"/>
<stop offset="1" stop-color="#EFEFEF"/>
</linearGradient>
<linearGradient id="paint1_linear_2597_23253" x1="88.8552" y1="26.994" x2="62.5935" y2="55.4083" gradientUnits="userSpaceOnUse">
<stop stop-color="#FAFAFA"/>
<stop offset="1" stop-color="#FAFAFA" stop-opacity="0.62"/>
</linearGradient>
</defs>
</svg>
