<svg width="147" height="88" viewBox="0 0 147 88" fill="none" xmlns="http://www.w3.org/2000/svg">
<g id="fastwatch_img">
<g id="Group 7396">
<path id="Vector 87" d="M51.1529 77.6583H36.204C33.7704 77.6583 31.8924 75.5056 32.3771 73.1208C36.8114 51.3006 53.1099 19.3468 108.165 25.2983C67.6836 25.2983 56.3279 55.2459 55.338 73.5328C55.2158 75.7912 53.4146 77.6583 51.1529 77.6583Z" fill="url(#paint0_linear_2597_23294)"/>
<g id="Mask group">
<mask id="mask0_2597_23294" style="mask-type:alpha" maskUnits="userSpaceOnUse" x="97" y="16" width="18" height="19">
<path id="Star 6" d="M102.945 16.7188L106.345 21.8322L110.757 17.5668L108.894 23.4235L114.966 24.2256L109.243 26.4153L112.404 31.6809L107.13 28.5548L105 34.3188L104.147 28.2308L98.3285 30.1527L102.539 25.6874L97.4141 22.32L103.517 22.8397L102.945 16.7188Z" fill="#D9D9D9"/>
</mask>
<g mask="url(#mask0_2597_23294)">
<g id="Group 7393">
<g id="Vector" filter="url(#filter0_f_2597_23294)">
<path d="M13.7829 5.3346C13.0793 10.6979 12.4383 16.0814 11.7033 21.4346C11.0321 26.5383 14.4025 28.5025 25.6609 31.9966C51.5679 40.0103 77.4444 48.5272 103.339 56.9014C107.817 58.345 111.638 58.0104 111.87 56.1543C113.522 42.9545 115.175 29.7416 116.889 16.5619L13.7829 5.3346Z" fill="#FFB9F8"/>
</g>
<g id="Vector 78" filter="url(#filter1_f_2597_23294)">
<path d="M92.7141 37.0493C92.3728 37.4684 91.982 37.5567 91.4639 38.0034C90.3781 38.1201 90.9879 38.9445 91.8297 39.1443C93.0152 39.4257 93.1266 38.8588 93.8427 38.5345C95.0985 37.966 95.8315 37.4897 97.3565 37.0946C98.4771 36.8042 101.38 37.0813 102.615 37.2768C104.455 37.5681 105.457 35.7739 106.348 35.079C107.632 34.0776 108.142 32.9714 110.069 32.3446C111.978 31.7235 114.209 31.6407 116.307 31.3856C118.627 31.1033 120.348 30.8716 121.946 29.6253C123.303 28.5676 121.91 27.3711 121.27 26.4194C120.64 25.4822 118.057 25.1145 116.7 24.8452C114.943 24.4968 113.726 24.7397 112.027 24.9868C110.135 25.262 108.873 26.673 107.051 26.9381C105.603 27.1486 102.768 26.9971 101.888 27.9323C100.152 29.7776 99.4646 31.6054 96.0232 32.4971C94.7108 32.8371 94.1345 34.5531 93.7893 35.3928C93.5183 36.0519 93.1799 36.4775 92.7141 37.0493Z" fill="#71BBFF"/>
</g>
<g id="Vector_2" filter="url(#filter2_f_2597_23294)">
<path d="M107.796 27.3378C114.569 26.1647 125.452 23.4359 130.335 19.4577C127.486 16.1669 122.772 23.5541 119.922 20.2632L109.509 22.82C106.77 24.9454 105.316 24.4746 107.796 27.3378Z" fill="#0A9F68"/>
</g>
<g id="Vector 75" filter="url(#filter3_f_2597_23294)">
<path d="M32.0357 53.4549C31.7648 53.8407 31.8305 54.2592 31.5507 54.6639C31.271 55.0686 30.468 56.1321 30.5724 56.3605C30.7233 56.6906 30.5125 57.3099 31.3153 57.4282C32.0912 57.5426 33.1786 57.2077 33.9898 57.0154C36.9672 56.3098 39.8343 55.2034 42.7096 54.3161C44.1636 53.8674 45.7165 53.6537 47.2119 53.2452C47.9406 53.0462 48.2677 52.7568 49.092 52.6523C49.8836 52.5519 50.6181 52.3149 51.3698 52.1096C53.1888 51.6127 54.9148 51.5361 56.811 51.3381C58.9042 51.1195 61.6205 50.205 63.5226 49.5491C69.6008 47.453 73.2902 43.9582 78.0025 40.9882C79.8304 39.8361 81.2785 38.5157 83.2763 37.4477C85.3807 36.3228 87.7993 35.6476 90.2891 34.9676C94.5351 33.8079 99.2446 32.6157 103.081 30.9267C104.859 30.144 106.39 29.2876 107.35 28.0842C108.384 26.7872 106.985 24.7677 105.295 24.0747C104.357 23.6899 102.177 23.7506 100.979 23.7889C99.7079 23.8296 98.4403 23.9595 97.1726 24.105C92.4396 24.6483 87.7995 26.2162 83.8861 28.0604C78.9733 30.3756 73.8037 30.8074 68.3148 32.084C65.6814 32.6965 63.1752 33.5173 60.6855 34.3178C59.0353 34.8484 57.8743 36.1229 56.6587 36.9353C53.2431 39.2181 51.4261 42.0132 47.3383 43.9282C45.4405 44.8172 43.4281 45.6789 41.2743 46.2903C40.1028 46.6229 38.3388 47.0937 37.4577 47.7298C35.8197 48.9123 33.6913 50.2316 33.0634 51.7095C32.8344 52.2485 32.3975 52.9398 32.0357 53.4549Z" fill="#FFE665"/>
</g>
<g id="Vector 79" filter="url(#filter4_f_2597_23294)">
<path d="M86.7185 55.7005C86.6899 55.9964 86.8588 56.3048 86.8313 56.6151C86.8038 56.9253 86.6939 57.7432 86.8241 57.909C87.0124 58.1487 87.0911 58.6159 87.5748 58.6752C88.0423 58.7326 88.5408 58.4455 88.9309 58.2741C90.3627 57.6448 91.6064 56.7221 92.9241 55.9616C93.5904 55.5771 94.3859 55.3634 95.088 55.0073C95.4301 54.8337 95.5204 54.6074 95.9455 54.5006C96.3538 54.398 96.6871 54.1961 97.04 54.017C97.8939 53.5838 98.8292 53.4658 99.8205 53.2517C100.915 53.0153 102.136 52.2403 102.985 51.6861C105.701 49.9149 106.646 47.1902 108.326 44.8188C108.978 43.8989 109.365 42.8676 110.138 42.0041C110.952 41.0946 112.083 40.5078 113.252 39.9148C115.245 38.9036 117.486 37.8519 119.084 36.4623C119.825 35.8184 120.405 35.1285 120.558 34.2013C120.723 33.2019 119.306 31.7525 118.148 31.298C117.504 31.0456 116.312 31.1679 115.658 31.2388C114.964 31.314 114.301 31.4553 113.642 31.6082C111.183 32.1792 109.1 33.5073 107.508 35.0148C105.509 36.9072 102.772 37.4109 100.125 38.5529C98.8548 39.1007 97.7213 39.7988 96.5907 40.4812C95.8412 40.9335 95.599 41.9206 95.1802 42.5666C94.0037 44.382 93.8777 46.521 92.2112 48.0872C91.4375 48.8144 90.5915 49.5252 89.5877 50.0553C89.0417 50.3437 88.2101 50.7556 87.9215 51.259C87.385 52.1947 86.6192 53.2494 86.7376 54.3686C86.7808 54.7767 86.7566 55.3054 86.7185 55.7005Z" fill="#FFE665"/>
</g>
<g id="Vector_3" filter="url(#filter5_f_2597_23294)">
<path d="M90.4659 62.9083C90.6368 65.8439 90.8038 68.7799 90.9729 71.7186C91.9159 69.1958 92.6613 66.4553 93.274 63.7404C93.8231 61.3026 94.3184 58.7817 95.3047 56.688C96.1374 54.9187 97.2535 53.5775 98.4855 52.4158C99.5549 49.6898 101.281 49.8241 103.175 48.0706C104.591 46.76 104.968 47.3976 106.55 46.944C105.74 49.1785 108.334 45.4581 109.223 43.2539C109.587 42.3511 109.187 42.6298 109.656 41.8425C109.986 41.2934 109.771 40.3519 110.183 39.9457C112.065 38.097 112.336 32.8963 114.348 31.3588C111.788 30.3327 111.172 33.8686 108.627 34.3177C106.574 39.4768 103.067 42.744 99.7528 46.1282C99.4796 46.4064 99.202 46.6765 98.9225 46.944L90.4263 60.3517C90.4051 61.2078 90.4177 62.061 90.4659 62.9083Z" fill="#71BBFF"/>
</g>
<g id="Ellipse 108" filter="url(#filter6_f_2597_23294)">
<ellipse cx="107.199" cy="37.7363" rx="3.72985" ry="3.08" fill="#71BBFF"/>
</g>
</g>
</g>
</g>
</g>
</g>
<defs>
<filter id="filter0_f_2597_23294" x="7.62207" y="1.33472" width="113.267" height="60.4636" filterUnits="userSpaceOnUse" color-interpolation-filters="sRGB">
<feFlood flood-opacity="0" result="BackgroundImageFix"/>
<feBlend mode="normal" in="SourceGraphic" in2="BackgroundImageFix" result="shape"/>
<feGaussianBlur stdDeviation="2" result="effect1_foregroundBlur_2597_23294"/>
</filter>
<filter id="filter1_f_2597_23294" x="86.8799" y="20.6714" width="39.6396" height="22.5491" filterUnits="userSpaceOnUse" color-interpolation-filters="sRGB">
<feFlood flood-opacity="0" result="BackgroundImageFix"/>
<feBlend mode="normal" in="SourceGraphic" in2="BackgroundImageFix" result="shape"/>
<feGaussianBlur stdDeviation="2" result="effect1_foregroundBlur_2597_23294"/>
</filter>
<filter id="filter2_f_2597_23294" x="102.523" y="14.5918" width="31.8115" height="16.7461" filterUnits="userSpaceOnUse" color-interpolation-filters="sRGB">
<feFlood flood-opacity="0" result="BackgroundImageFix"/>
<feBlend mode="normal" in="SourceGraphic" in2="BackgroundImageFix" result="shape"/>
<feGaussianBlur stdDeviation="2" result="effect1_foregroundBlur_2597_23294"/>
</filter>
<filter id="filter3_f_2597_23294" x="26.5635" y="19.7605" width="85.1406" height="41.6909" filterUnits="userSpaceOnUse" color-interpolation-filters="sRGB">
<feFlood flood-opacity="0" result="BackgroundImageFix"/>
<feBlend mode="normal" in="SourceGraphic" in2="BackgroundImageFix" result="shape"/>
<feGaussianBlur stdDeviation="2" result="effect1_foregroundBlur_2597_23294"/>
</filter>
<filter id="filter4_f_2597_23294" x="82.7148" y="27.146" width="41.8564" height="35.5366" filterUnits="userSpaceOnUse" color-interpolation-filters="sRGB">
<feFlood flood-opacity="0" result="BackgroundImageFix"/>
<feBlend mode="normal" in="SourceGraphic" in2="BackgroundImageFix" result="shape"/>
<feGaussianBlur stdDeviation="2" result="effect1_foregroundBlur_2597_23294"/>
</filter>
<filter id="filter5_f_2597_23294" x="87.416" y="28.1729" width="29.9326" height="46.5457" filterUnits="userSpaceOnUse" color-interpolation-filters="sRGB">
<feFlood flood-opacity="0" result="BackgroundImageFix"/>
<feBlend mode="normal" in="SourceGraphic" in2="BackgroundImageFix" result="shape"/>
<feGaussianBlur stdDeviation="1.5" result="effect1_foregroundBlur_2597_23294"/>
</filter>
<filter id="filter6_f_2597_23294" x="99.4688" y="30.6562" width="15.46" height="14.1599" filterUnits="userSpaceOnUse" color-interpolation-filters="sRGB">
<feFlood flood-opacity="0" result="BackgroundImageFix"/>
<feBlend mode="normal" in="SourceGraphic" in2="BackgroundImageFix" result="shape"/>
<feGaussianBlur stdDeviation="2" result="effect1_foregroundBlur_2597_23294"/>
</filter>
<linearGradient id="paint0_linear_2597_23294" x1="94.343" y1="24.6382" x2="71.1243" y2="82.2585" gradientUnits="userSpaceOnUse">
<stop stop-color="#E8E8E8"/>
<stop offset="1" stop-color="#FAFAFA"/>
</linearGradient>
</defs>
</svg>
