<svg width="12" height="12" viewBox="0 0 12 12" fill="none" xmlns="http://www.w3.org/2000/svg">
<path fill-rule="evenodd" clip-rule="evenodd" d="M6.48711 2.24998C6.48711 1.98074 6.26885 1.76248 5.99961 1.76248C5.73037 1.76248 5.51211 1.98074 5.51211 2.24998V5.51248H2.2502C1.98096 5.51248 1.7627 5.73074 1.7627 5.99998C1.7627 6.26922 1.98096 6.48748 2.2502 6.48748H5.51211V9.74998C5.51211 10.0192 5.73037 10.2375 5.99961 10.2375C6.26885 10.2375 6.48711 10.0192 6.48711 9.74998V6.48748H9.7502C10.0194 6.48748 10.2377 6.26922 10.2377 5.99998C10.2377 5.73074 10.0194 5.51248 9.7502 5.51248H6.48711V2.24998Z" fill="white"/>
</svg>
