<svg width="20" height="20" viewBox="0 0 20 20" fill="none" xmlns="http://www.w3.org/2000/svg">
<circle cx="10" cy="10" r="10" fill="#EFEFEF"/>
<path fill-rule="evenodd" clip-rule="evenodd" d="M10.7998 3.75C10.7998 3.33579 10.464 3 10.0498 3C9.63559 3 9.2998 3.33579 9.2998 3.75L9.2998 9.25C9.2998 9.66421 9.63559 10 10.0498 10C10.464 10 10.7998 9.66421 10.7998 9.25L10.7998 3.75ZM7.38089 5.31486C7.73887 5.10647 7.86013 4.64735 7.65175 4.28937C7.44336 3.93139 6.98423 3.81013 6.62625 4.01851C5.631 4.59788 4.76973 5.44159 4.1559 6.51566C2.29511 9.77161 3.3911 13.9418 6.61751 15.8305C9.84929 17.7223 13.9803 16.6007 15.8441 13.3396C17.7049 10.0837 16.6089 5.91346 13.3825 4.02479C13.025 3.81554 12.5656 3.93569 12.3563 4.29316C12.1471 4.65063 12.2672 5.11005 12.6247 5.31931C15.1342 6.78834 15.9986 10.0461 14.5418 12.5953C13.0878 15.1394 9.87946 16.0018 7.37529 14.536C4.86575 13.0669 4.00133 9.80916 5.45822 7.25994C5.93855 6.41948 6.60889 5.76426 7.38089 5.31486Z" fill="#ABABAB"/>
</svg>
