<svg width="287" height="120" fill="none" xmlns="http://www.w3.org/2000/svg"><mask id="a" style="mask-type:alpha" maskUnits="userSpaceOnUse" x="0" y="0" width="287" height="120"><path transform="matrix(1 0 0 -1 0 120)" fill="#fff" d="M0 0h287v120H0z"/></mask><g mask="url(#a)"><mask id="b" style="mask-type:alpha" maskUnits="userSpaceOnUse" x="46" y="8" width="126" height="54"><path d="M46 8h125.889v53.778H46V8z" fill="#D9D9D9"/></mask><g mask="url(#b)"><mask id="c" style="mask-type:alpha" maskUnits="userSpaceOnUse" x="73" y="32" width="72" height="72"><ellipse cx="108.967" cy="67.974" rx="35.365" ry="35.36" fill="#D9D9D9"/></mask><g mask="url(#c)"><g filter="url(#d)"><path d="M34.788 10.256c-.856 9.153-1.635 18.34-2.528 27.476-.816 8.71 3.281 12.061 16.968 18.024 31.496 13.676 62.955 28.21 94.436 42.501 5.444 2.463 10.09 1.892 10.372-1.275 2.008-22.526 4.018-45.074 6.102-67.566l-125.35-19.16z" fill="#FFB9F8"/></g><g filter="url(#e)"><path d="M77.19 103.959c-.005.002-.006-.004-.003-.007 15.632-12.547 36.211-25.267 59.464-36.526 7.573-3.662 12.975-12.413 12.4-20.531-.749-10.58-11.008-14.747-20.389-8.325L86.172 67.66c-6.453 4.417-10.515 12.391-10.046 19.684.357 5.536.708 11.073 1.067 16.611 0 .002-.001.004-.004.005z" fill="#FFE665"/></g><g filter="url(#f)"><path d="M13.243 135.341c-1.157 13.533-2.325 27.061-3.49 40.604 4.055-9.84 7.676-20.987 10.91-32.236 2.902-10.103 5.698-20.67 9.634-28.502 3.325-6.619 7.207-10.841 11.314-14.062 4.523-10.55 9.902-18.369 16.197-23.175 4.707-3.59 5.526.936 10.221 1.486-3.52 8.758 5.113 6.452 8.84-2.037 1.526-3.477.247-2.876 2.003-5.66 1.232-1.937 1.154-6.54 2.536-7.698 6.317-5.254 9.978-28.287 16.484-31.923-6.617-8.836-16.854 18.338-24.248 16.188C65 68.243 59.869 65.008 48.675 74.842a83.02 83.02 0 0 1-2.786 2.32l-31.332 46.573c-.537 3.83-.977 7.702-1.314 11.606z" fill="#71BBFF"/></g><g filter="url(#g)"><path d="M81.582 67.454c-8.947 10.604-17.9 21.198-26.858 31.808 9.169-6.008 18.75-13.328 28.07-20.939 8.368-6.836 16.923-14.113 24.809-18.518 6.663-3.724 12.372-5.166 17.678-5.659 9.976-6.347 19.05-9.977 27.105-10.624 6.021-.48 4.028 3.705 7.595 6.65-8.086 5.394.43 8.059 8.53 2.997 3.318-2.073 1.902-2.253 5.001-3.63 2.165-.952 4.817-4.809 6.646-5.036 8.337-1.006 24.967-18.157 32.506-17.723-.269-10.832-24.794 6.267-29.654.564-18.92 11.929-21.265 6.527-36.348 8.744-1.241.18-2.463.32-3.679.445L89.522 58.53a235.168 235.168 0 0 0-7.94 8.924z" fill="#71BBFF"/></g><path d="M84.527 106.173c14.81-4.208 36.754-14.54 40.563-30.827-14.529-14.241-10.427 16.488-24.956 2.247l-21.117 9.656c-2.367 8.687-7.13 6.533 5.51 18.924z" fill="#0A9F68"/><g filter="url(#h)"><path d="M116.104 45.256c8.235-2.002 21.465-6.659 27.402-13.448-3.464-5.616-9.195 6.99-12.659 1.375l-12.66 4.363c-3.33 3.627-5.097 2.824-2.083 7.71z" fill="#0A9F68"/></g><g filter="url(#i)"><path d="M90.58 131.898c-.004.002-.006-.004-.002-.007 15.631-12.547 36.211-25.267 59.464-36.526 7.573-3.662 12.975-12.413 12.4-20.531-.749-10.58-11.008-14.747-20.389-8.325l-42.49 29.089c-6.454 4.417-10.516 12.391-10.046 19.684.357 5.536.708 11.073 1.067 16.611 0 .002-.002.004-.004.005z" fill="#FFE665"/></g></g></g><path d="M-88.722 69.965c43.198 16.706 84.665-6.569 137.785 2.052 23.666 3.84 35.867 13.177 59.836 13.742 17.804.42 30.819-9.785 48.601-10.759 30.627-1.678 36.796 4.57 60.5 5.024 41.963.804 67.5-10.06 107-10.06v-9.926H-88.599l-.123 9.927z" fill="url(#j)"/><path d="M178.262 86.824c-2.089.245-1.18.927-.155 1.696.559.418 1.479.837 1.923 1.25.161.411 5.113 3.742 5.676 4.043.725.388 1.452.778 2.136 1.247 2.986 2.048 6.008 3.61 9.827 5.513 3.981 1.984 7.664 3.25 9.425 3.724.329.237.676.461 1.069.614l.353.139c.492.196.952.379 1.523.517l.276.065c.218.05.436.101.64.162.139.042.303.047.466.051.159.005.317.009.449.049.241.073.495.105.752.105 1.291 0 2.699-.811 3.373-1.399.135-.118.395-.291.692-.491.691-.461 1.581-1.057 1.581-1.406 0-.28-.198-.417-.42-.571a1.818 1.818 0 0 1-.387-.327c-.315-.387-.712-.698-1.112-1.014a15.19 15.19 0 0 1-.548-.444l.049-.149c.054-.309-3.928-1.961-6.351-2.966-.937-.388-1.64-.681-1.787-.76a18.323 18.323 0 0 0-.927-.46c-.657-.31-1.339-.631-1.818-1.033-.659-.551-1.928-1.18-2.823-1.573a28.436 28.436 0 0 1-.824-.384c-.865-.412-1.799-.858-2.728-1.024-.525-.094-1.576-.46-2.026-.662-.304-.137-.61-.245-.915-.354-.421-.15-.84-.3-1.248-.52-.52-.28-1.081-.53-1.64-.777-.689-.306-4.317-1.68-7.574-2.601.423.382-1.972 1.189-1.79 1.505 1.873.757 8.673 3.427 9.237 3.76.397.235.814.48 1.345.767.801.431 1.659.912 2.556 1.414 1.835 1.028 3.832 2.147 5.822 3.113a8.421 8.421 0 0 0-.52.18c-.179-.068-.369-.14-.572-.214-.429-.159-.888-.322-1.346-.484-1.269-.451-2.536-.9-3.17-1.263-.256-.147-.52-.308-.79-.475-.828-.507-1.722-1.056-2.664-1.328-.532-.153-1.564-.637-1.996-.89-.293-.17-.593-.313-.891-.456-.413-.197-.823-.394-1.209-.658-.536-.367-1.291-.583-2.041-.797-.784-.225-1.563-.446-2.084-.84-1.023-.771-4.554-2.535-4.554-2.535s-1.302-.862-2.26-1.06z" fill="url(#k)"/><path d="M184.132 50.074c.264.077.466.208.693.35l.067.043c.457.339.843.89.958 1.452.027.135.027.273.027.41l-.003 2.451c0 .115 0 .23.02.343.035.179.124.365.053.532-.059.139-.211.21-.35.272l-.298.128c-.055.025-.113.05-.154.096-.198.217.181.196.283.218.107.022.213.06.317.096.393.133.782.313 1.068.623.218.239.375.526.522.814.52 1.02.517 2.331.652 3.452.159 1.32.231 2.663.014 3.982-.079.483-.485.797-.741 1.188-.392.599-.297 1.168-.189 1.85.363 2.307-.318 4.445-.653 6.7-.082.555-.089 1.117-.094 1.676-.012 1.26-.123 2.553-.079 3.8.046 1.29.068 2.585-.049 3.872-.057.625-.101 1.318-.303 1.915-.084.25-.123.334-.112.61.01.256.024.357-.117.582-.112.177-.125.397-.125.606 0 .143.005.285.015.429.006.08.014.164-.004.244a.462.462 0 0 1-.086.176.695.695 0 0 1-.446.242 2.085 2.085 0 0 1-.52-.003c-.105-.01-.214-.02-.304-.073-.127-.076-.194-.218-.266-.348-.184-.333-.442-.618-.697-.9a1.517 1.517 0 0 1-.269-.367c-.076-.168-.089-.36-.093-.546-.005-.166.004-.352.125-.464a.389.389 0 0 1 .202-.086c.026-.004.06 0 .094.002.043.005.088.01.117-.002.116-.044.074-.239.076-.345.008-.383.016-.766.021-1.15l-.042-.468c-.157-1.845-.172-3.632-.159-5.48.004-.508-.026-1.02-.015-1.527.009-.386-.117-.781-.579-.822a.24.24 0 0 0-.128.016c-.132.063-.119.354-.14.483-.051.308-.109.612-.146.923-.034.285-.055.574-.133.851-.085.305-.239.596-.26.912-.05.741.215 1.43.236 2.163.027.923-.025 1.627-.072 2.252-.063.855-.116 1.559.059 2.466.068.349-.079.589-.145.91-.086.405-.058.856-.118 1.27-.011.07-.023.145-.07.198a.363.363 0 0 1-.182.095 3.034 3.034 0 0 1-.928.11c-.096-.003-.198-.013-.273-.075-.04-.032-.068-.077-.106-.111-.101-.088-.246-.087-.384-.087l-.051-.001c-.481-.006-.943-.224-1.31-.534-.367-.311-.65-.71-.896-1.124a.59.59 0 0 1-.1-.264c-.006-.178.156-.325.329-.365.173-.039.353.005.524.054.207.061 1.032.509 1.223.32.104-.102-.022-.526-.029-.666-.014-.296-.004-.594.008-.89.02-.552.04-1.104-.093-1.642-.206-.834-.371-1.69-.354-2.546.018-.815-.439-1.58-.545-2.394-.063-.48-.042-.967-.021-1.452l.226-5.21c.026-.613.241-1.432.092-2.02-.152-.598-.614-1.066-.754-1.671-.058-.246-.027-.476-.05-.72-.024-.268-.134-.544-.215-.798-.235-.745-.471-1.488-.707-2.231a3.594 3.594 0 0 1-.172-.698c-.03-.273.001-.548.041-.818.133-.889.438-1.704.703-2.538.076-.236.147-.473.212-.715l.425-1.605c.072-.269.145-.542.288-.781.173-.29.447-.517.762-.636.207-.077.428-.108.638-.175.368-.12.69-.35 1.052-.484.136-.051.281-.09.39-.185.202-.176.123-.663.099-.908-.011-.063-.016-.122-.034-.19l-.008-.022a4.535 4.535 0 0 1-.601-.307c-.316-.19-.084-1.3.144-1.732.21-.4.106-.496.102-.663-.005-.261.112-.524.225-.754.09-.186.227-.346.31-.535.037-.082.047-.17.092-.25.048-.084.116-.155.185-.223.133-.13.271-.255.408-.38a.588.588 0 0 1 .334-.173c.15-.022.297-.061.448-.078.107-.012.217-.019.326-.019.191 0 .383.02.567.074z" fill="url(#l)"/><path d="M177.766 60.814c.075-.236.147-.473.21-.714l.428-1.605c.071-.27.143-.543.286-.782.172-.29.446-.518.762-.635.207-.078.428-.109.638-.177.367-.118.692-.348 1.054-.483.135-.05.28-.09.388-.184.024-.021.032-.057.048-.086.14.198.215.42.481.547.37.178.777.22 1.119.469-.107.114-.271.15-.424.18-1.28.267-2.627.72-3.389 1.783-.95 1.326-.746 3.27-1.821 4.497a.194.194 0 0 1-.073.06c-.079.033-.161-.035-.21-.104-.278-.382-.092-.797.019-1.21.143-.525.319-1.04.484-1.556zM185.154 56.39a.076.076 0 0 1 .041-.022c.264-.07.629.114.867.216.279.12.545.278.752.503.219.239.3.434.275.758-.002.027-.004.056-.02.077-.018.024-.049.035-.079.041-.258.057-.519-.091-.706-.278-.187-.187-.331-.416-.533-.588-.165-.143-.333-.274-.488-.431-.063-.065-.129-.144-.109-.275zM177.657 87.364a.57.57 0 0 1-.101-.265c-.006-.177.156-.325.329-.364.173-.039.353.005.524.055.207.06 1.033.508 1.223.32.012-.01.011-.036.018-.054.002.004.006.005.009.01.09.19.095.414.196.61.116.226.258.442.322.688.016.064.026.137-.009.193a.247.247 0 0 1-.091.078c-.215.127-.472.18-.72.147-.183-.025-.373-.086-.556-.111a2.486 2.486 0 0 1-.249-.183c-.367-.31-.649-.711-.895-1.124zM182.964 87.536c-.077-.17-.087-.36-.092-.547-.005-.165.002-.351.124-.463a.384.384 0 0 1 .202-.087c.06-.01.158.02.211 0 .052-.02.072-.072.078-.132.027.14.001.301.024.45.03.188.101.376.234.513.076.078.171.14.232.231a.772.772 0 0 1 .092.262l.188.852c.024.11.048.223.018.33a.378.378 0 0 1-.113.171c-.102-.079-.168-.198-.232-.313-.184-.333-.442-.618-.697-.901-.102-.113-.206-.228-.269-.366zM179.809 82.055c.19.687.279 1.434.033 2.104a.398.398 0 0 1-.104.173.291.291 0 0 1-.139.057 3.55 3.55 0 0 0-.079-.478c-.206-.833-.372-1.69-.354-2.545.017-.815-.44-1.581-.546-2.395-.061-.48-.041-.967-.02-1.451l.225-5.21c.026-.598.226-1.388.098-1.972.384.168.672.665.919.956.123.144.25.296.297.48.091.357-.136.706-.293 1.038-.278.586-.356 1.246-.431 1.89-.069.607-.14 1.212-.21 1.819-.134 1.16-.267 2.348-.022 3.49.149.697.436 1.357.626 2.044zM185.213 50.758c.05.066.091.134.101.204.027.178-.037.446-.187.555-.261.19-.789.109-1.09.089-.372-.025-.533-.041-.84.213a.781.781 0 0 0-.203.216.774.774 0 0 0-.075.308 9.494 9.494 0 0 0 .051 2.21c.032.236.131.755-.173.87-.19.07-.617-.111-.792-.173-.062-.022-.126-.048-.163-.102-.039-.056-.039-.131-.038-.2.007-.314.013-.597-.051-.905a.555.555 0 0 0-.054-.165.188.188 0 0 0-.139-.096c-.06-.004-.118.032-.154.08-.037.049-.056.108-.075.166l-.156.475c-.084.256-.249.36-.316.04-.057-.271.003-.584.064-.85.017-.072.035-.143.055-.21.01-.039.023-.072.035-.108.013-.038.026-.08.039-.115.027-.07.054-.132.082-.185.21-.4.107-.496.103-.662-.002-.085.013-.18.039-.28a2.68 2.68 0 0 1 .318-.698c.062-.1.126-.2.178-.312.013-.028.021-.057.03-.087.004-.015.012-.03.016-.048a.554.554 0 0 1 .046-.114 1.07 1.07 0 0 1 .185-.223c.133-.131.27-.256.408-.381a.658.658 0 0 1 .229-.14c.125-.028.211-.049.207-.051.09-.017.181-.034.272-.047.065-.009.129-.013.193-.017a2.94 2.94 0 0 1 .395-.001c.117.01.233.025.346.055l.076.024c.242.078.437.198.649.33l.069.044c.112.088.219.187.32.291zM183.629 86.316a.31.31 0 0 1-.143-.114 1.09 1.09 0 0 1-.004-.11l.021-1.149-.042-.468c-.128-1.498-.16-2.96-.162-4.445.005-.038.013-.075.017-.113.027-.312-.017-.61-.015-.92.005-.676-.016-1.351-.014-2.026.165-.038.339.046.455.169.425.453.195 1.526.197 2.106.001.37.002.745.083 1.108.092.414.036.853.17 1.26.132.402.175.639.161 1.08-.03.972-.08 1.946-.131 2.918-.01.197-.02.395-.05.59a.23.23 0 0 1-.042.116c-.1.117-.381.04-.501-.002z" fill="#605B58"/></g><defs><filter id="d" x="24.827" y="2.923" width="142.643" height="104.198" filterUnits="userSpaceOnUse" color-interpolation-filters="sRGB"><feFlood flood-opacity="0" result="BackgroundImageFix"/><feBlend in="SourceGraphic" in2="BackgroundImageFix" result="shape"/><feGaussianBlur stdDeviation="3.667" result="effect1_foregroundBlur_3948_1917"/></filter><filter id="e" x="68.757" y="28.188" width="87.671" height="83.105" filterUnits="userSpaceOnUse" color-interpolation-filters="sRGB"><feFlood flood-opacity="0" result="BackgroundImageFix"/><feBlend in="SourceGraphic" in2="BackgroundImageFix" result="shape"/><feGaussianBlur stdDeviation="3.667" result="effect1_foregroundBlur_3948_1917"/></filter><filter id="f" x="2.421" y="23.031" width="102.803" height="160.247" filterUnits="userSpaceOnUse" color-interpolation-filters="sRGB"><feFlood flood-opacity="0" result="BackgroundImageFix"/><feBlend in="SourceGraphic" in2="BackgroundImageFix" result="shape"/><feGaussianBlur stdDeviation="3.667" result="effect1_foregroundBlur_3948_1917"/></filter><filter id="g" x="47.389" y="15.767" width="172.608" height="90.828" filterUnits="userSpaceOnUse" color-interpolation-filters="sRGB"><feFlood flood-opacity="0" result="BackgroundImageFix"/><feBlend in="SourceGraphic" in2="BackgroundImageFix" result="shape"/><feGaussianBlur stdDeviation="3.667" result="effect1_foregroundBlur_3948_1917"/></filter><filter id="h" x="107.225" y="22.997" width="43.616" height="29.592" filterUnits="userSpaceOnUse" color-interpolation-filters="sRGB"><feFlood flood-opacity="0" result="BackgroundImageFix"/><feBlend in="SourceGraphic" in2="BackgroundImageFix" result="shape"/><feGaussianBlur stdDeviation="3.667" result="effect1_foregroundBlur_3948_1917"/></filter><filter id="i" x="82.147" y="56.127" width="87.671" height="83.105" filterUnits="userSpaceOnUse" color-interpolation-filters="sRGB"><feFlood flood-opacity="0" result="BackgroundImageFix"/><feBlend in="SourceGraphic" in2="BackgroundImageFix" result="shape"/><feGaussianBlur stdDeviation="3.667" result="effect1_foregroundBlur_3948_1917"/></filter><linearGradient id="j" x1="285.5" y1="60" x2="-.5" y2="60.042" gradientUnits="userSpaceOnUse"><stop stop-color="#FFFDFB"/><stop offset=".469" stop-color="#E2E2E2"/><stop offset="1" stop-color="#FFFDFB"/></linearGradient><linearGradient id="k" x1="180.803" y1="86.519" x2="213.23" y2="111.245" gradientUnits="userSpaceOnUse"><stop stop-color="#32302F" stop-opacity=".7"/><stop offset=".5" stop-color="#7D8185" stop-opacity=".35"/><stop offset="1" stop-color="#C9D1DB" stop-opacity="0"/></linearGradient><linearGradient id="l" x1="184.833" y1="51.636" x2="183.172" y2="88.634" gradientUnits="userSpaceOnUse"><stop stop-color="#32302F"/><stop offset=".09" stop-color="#3B3937"/><stop offset=".17" stop-color="#44413F"/><stop offset=".28" stop-color="#3B3937"/><stop offset=".39" stop-color="#32302F"/><stop offset=".44" stop-color="#2E2E2E"/><stop offset=".5" stop-color="#2B2C2D"/><stop offset=".75" stop-color="#2E2E2E"/><stop offset="1" stop-color="#32302F"/></linearGradient></defs></svg>
