<svg width="255" height="120" viewBox="0 0 255 120" fill="none" xmlns="http://www.w3.org/2000/svg">
<rect width="255" height="120" rx="4" fill="#F5F5F5"/>
<g filter="url(#filter0_d_5294_8881)">
<path d="M177.337 86.712C177.337 87.789 176.574 88.229 175.642 87.6911L118.701 54.8221C117.768 54.2842 117.006 52.963 117.006 51.8871V8.94649C117.006 7.87059 117.768 7.42948 118.701 7.96744L175.641 40.8364C176.573 41.3743 177.336 42.6955 177.336 43.7725V86.712H177.337Z" fill="url(#paint0_linear_5294_8881)"/>
<path d="M176.921 40.0983L119.98 7.22939C119.508 6.95673 119.08 6.93568 118.772 7.12096L117.555 7.8263H117.558C117.86 7.68102 118.261 7.71366 118.702 7.96842L175.642 40.8374C176.574 41.3753 177.338 42.6965 177.338 43.7735V86.713C177.338 87.2467 177.149 87.6247 176.846 87.8036L178.062 87.0983H178.059C178.4 86.9362 178.616 86.5467 178.616 85.975V43.0344C178.616 41.9585 177.852 40.6373 176.921 40.0994V40.0983Z" fill="#7D7D7D"/>
<path d="M137.03 110.723C136.099 111.261 134.573 111.261 133.64 110.723L76.6989 77.8542C75.767 77.3162 75.767 76.4361 76.6989 75.8971L115.511 53.4936C116.443 52.9556 117.969 52.9556 118.901 53.4936L175.842 86.3625C176.774 86.9005 176.774 87.7806 175.842 88.3185L137.03 110.722V110.723Z" fill="#FAFAFA"/>
<path d="M118.961 58.1552L116.176 56.5476L117.569 55.7444L120.353 57.3509L118.961 58.1552Z" fill="#E9E8E8"/>
<path d="M123.65 60.863L120.865 59.2554L122.257 58.4511L125.042 60.0587L123.65 60.863Z" fill="#E9E8E8"/>
<path d="M128.341 63.5695L125.557 61.9619L126.949 61.1587L129.734 62.7662L128.341 63.5695Z" fill="#E9E8E8"/>
<path d="M133.03 66.2773L130.246 64.6697L131.639 63.8665L134.423 65.473L133.03 66.2773Z" fill="#E9E8E8"/>
<path d="M137.72 68.9838L134.936 67.3762L136.328 66.573L139.113 68.1805L137.72 68.9838Z" fill="#E9E8E8"/>
<path d="M142.412 71.6928L139.627 70.0842L141.019 69.2809L143.804 70.8874L142.412 71.6928Z" fill="#E9E8E8"/>
<path d="M147.1 74.3993L144.316 72.7917L145.709 71.9885L148.492 73.595L147.1 74.3993Z" fill="#E9E8E8"/>
<path d="M151.791 77.1058L149.006 75.4993L150.398 74.695L153.183 76.3026L151.791 77.1058Z" fill="#E9E8E8"/>
<path d="M156.481 79.8136L153.697 78.2071L155.089 77.4028L157.874 79.0103L156.481 79.8136Z" fill="#E9E8E8"/>
<path d="M161.172 82.5211L158.387 80.9136L159.78 80.1104L162.564 81.7168L161.172 82.5211Z" fill="#E9E8E8"/>
<path d="M165.863 85.2289L163.078 83.6203L164.47 82.817L167.255 84.4246L165.863 85.2289Z" fill="#E9E8E8"/>
<path d="M170.553 87.9365L167.768 86.3279L169.16 85.5246L171.945 87.1322L170.553 87.9365Z" fill="#E9E8E8"/>
<path d="M116.493 62.1452L111.486 59.2554L114.27 57.6479L119.277 60.5377L116.493 62.1452Z" fill="#E9E8E8"/>
<path d="M113.902 65.8391L106.99 61.8492L109.776 60.2417L116.687 64.2326L113.902 65.8391Z" fill="#E9E8E8"/>
<path d="M111.118 69.647L102.301 64.557L105.086 62.9494L113.902 68.0395L111.118 69.647Z" fill="#E9E8E8"/>
<path d="M101.632 70.723L96.625 67.8332L100.395 65.6572L105.401 68.547L101.632 70.723Z" fill="#E9E8E8"/>
<path d="M108.544 74.7129L103.537 71.8231L107.308 69.6471L112.314 72.5369L108.544 74.7129Z" fill="#E9E8E8"/>
<path d="M115.455 78.7028L110.449 75.813L114.219 73.6369L119.225 76.5267L115.455 78.7028Z" fill="#E9E8E8"/>
<path d="M139.287 92.4601L134.281 89.5692L138.052 87.3932L143.059 90.283L139.287 92.4601Z" fill="#E9E8E8"/>
<path d="M151.001 99.2219L141.182 93.5529L144.951 91.3768L154.771 97.0448L151.001 99.2219Z" fill="#E9E8E8"/>
<path d="M132.386 88.4766L117.361 79.803L121.131 77.627L136.156 86.3006L132.386 88.4766Z" fill="#E9E8E8"/>
<path d="M122.496 65.6097L118.398 63.2453L121.182 61.6377L125.28 64.0022L122.496 65.6097Z" fill="#E9E8E8"/>
<path d="M119.907 69.3048L115.809 66.9392L118.594 65.3317L122.691 67.6962L119.907 69.3048Z" fill="#E9E8E8"/>
<path d="M117.247 73.0381L113.15 70.6725L115.935 69.066L120.033 71.4305L117.247 73.0381Z" fill="#E9E8E8"/>
<path d="M123.251 76.5025L119.154 74.138L121.939 72.5294L126.036 74.8949L123.251 76.5025Z" fill="#E9E8E8"/>
<path d="M129.255 79.9672L125.158 77.6027L127.942 75.9951L132.04 78.3607L129.255 79.9672Z" fill="#E9E8E8"/>
<path d="M135.257 83.4329L131.16 81.0684L133.944 79.4598L138.041 81.8253L135.257 83.4329Z" fill="#E9E8E8"/>
<path d="M141.259 86.8973L137.162 84.5318L139.946 82.9253L144.043 85.2908L141.259 86.8973Z" fill="#E9E8E8"/>
<path d="M147.261 90.362L143.164 87.9975L145.949 86.3889L150.046 88.7544L147.261 90.362Z" fill="#E9E8E8"/>
<path d="M156.806 95.8711L149.168 91.4622L151.952 89.8546L159.59 94.2635L156.806 95.8711Z" fill="#E9E8E8"/>
<path d="M125.908 72.7696L121.811 70.4051L124.596 68.7965L128.693 71.162L125.908 72.7696Z" fill="#E9E8E8"/>
<path d="M131.911 76.2341L127.814 73.8685L130.599 72.261L134.696 74.6276L131.911 76.2341Z" fill="#E9E8E8"/>
<path d="M137.911 79.6998L133.814 77.3342L136.599 75.7267L140.698 78.0922L137.911 79.6998Z" fill="#E9E8E8"/>
<path d="M143.915 83.1644L139.818 80.7999L142.603 79.1913L146.7 81.5569L143.915 83.1644Z" fill="#E9E8E8"/>
<path d="M149.918 86.6299L145.82 84.2644L148.605 82.6558L152.702 85.0213L149.918 86.6299Z" fill="#E9E8E8"/>
<path d="M161.367 93.2381L151.824 87.7291L154.608 86.1215L164.152 91.6306L161.367 93.2381Z" fill="#E9E8E8"/>
<path d="M128.497 69.0744L124.4 66.7099L127.184 65.1024L131.281 67.4679L128.497 69.0744Z" fill="#E9E8E8"/>
<path d="M134.5 72.5389L130.402 70.1744L133.187 68.5668L137.284 70.9313L134.5 72.5389Z" fill="#E9E8E8"/>
<path d="M140.502 76.0046L136.406 73.6391L139.19 72.0336L143.287 74.3971L140.502 76.0046Z" fill="#E9E8E8"/>
<path d="M146.506 79.4703L142.408 77.1047L145.193 75.4961L149.29 77.8616L146.506 79.4703Z" fill="#E9E8E8"/>
<path d="M152.508 82.9339L148.41 80.5694L151.195 78.9629L155.293 81.3274L152.508 82.9339Z" fill="#E9E8E8"/>
<path d="M158.51 86.3992L154.412 84.0337L157.197 82.4272L161.294 84.7917L158.51 86.3992Z" fill="#E9E8E8"/>
<path d="M165.863 90.6431L160.416 87.4996L163.201 85.892L168.647 89.0355L165.863 90.6431Z" fill="#E9E8E8"/>
<path d="M168.517 83.6948L123.521 57.7214L124.873 56.9413L169.869 82.9147L168.517 83.6948Z" fill="#ABABAB"/>
<path d="M132.385 91.8326L109.424 78.5785L95.1562 86.8141L118.117 100.068L132.385 91.8326Z" fill="#E9E8E8"/>
<path d="M175.843 88.3196L137.032 110.723C136.291 111.151 135.178 111.238 134.283 110.986C134.277 110.984 133.727 110.773 133.642 110.723L76.7001 77.8542C76.6348 77.8173 76.5758 77.7773 76.52 77.7373C76.5168 77.7342 76.5147 77.7331 76.5116 77.731C76.4968 77.7194 76.4831 77.7089 76.4695 77.6973C76.4368 77.6721 76.4052 77.6447 76.3757 77.6184C76.361 77.6047 76.3463 77.591 76.3326 77.5773C76.2968 77.5426 76.2641 77.5068 76.2357 77.471C76.2315 77.4668 76.2273 77.4615 76.2241 77.4573C76.222 77.4541 76.2199 77.451 76.2178 77.4489C76.1841 77.4047 76.1557 77.3615 76.1294 77.3173C76.0525 77.1857 76.0104 77.0488 76.0051 76.9109H76.002V77.731H76.0083C76.003 78.0889 76.2304 78.4479 76.7001 78.7195L133.641 111.588C135 112.262 136.941 112.131 137.519 112.004C138.097 111.878 138.616 111.733 139.222 111.601L175.843 90.4619C176.315 90.1892 176.546 89.8303 176.541 89.4702V87.3521C176.537 87.7026 176.304 88.0532 175.843 88.3196Z" fill="#7D7D7D"/>
</g>
<mask id="mask0_5294_8881" style="mask-type:alpha" maskUnits="userSpaceOnUse" x="65" y="0" width="113" height="87">
<path d="M175.997 86.5L118.516 52.8039C118.197 52.6169 118.009 52.2474 118.02 51.8777C118.665 28.7264 99.8578 41.4562 83.9969 36.5C64.9034 30.5337 64.5005 11.5 67.0005 0H122.998C127.499 11.5 132.498 5 148.498 9C160.988 12.1225 153.389 29.1466 175.775 40.6539C176.81 41.1857 177.498 42.2329 177.495 43.396C177.454 57.3904 176.997 83.8541 176.997 85C176.997 86.2 176.33 86.5 175.997 86.5Z" fill="#D9D9D9"/>
</mask>
<g mask="url(#mask0_5294_8881)">
<g filter="url(#filter1_f_5294_8881)">
<path d="M145.838 342.929C164.462 338.209 183.07 333.256 201.701 328.652C219.426 324.165 221.499 310.494 218.303 268.851C210.859 173.061 205.116 76.7101 198.878 -19.5119C197.784 -36.146 191.68 -48.2843 185.25 -46.6137C139.52 -34.7323 93.7441 -22.8392 47.9982 -11.1905L145.838 342.929Z" fill="#FFB9F8"/>
</g>
<g filter="url(#filter2_f_5294_8881)">
<path d="M79.6349 -42.8481C79.2375 -45.2967 77.8867 -46.54 76.8501 -49.5018C72.8026 -52.4443 77.1117 -54.3381 80.9139 -53.2135C86.2685 -51.6297 85.4136 -49.1166 87.5176 -46.1906C91.2067 -41.0602 93.0292 -37.4899 98.1849 -32.436C101.973 -28.7224 114.14 -23.2041 119.497 -21.1642C127.476 -18.1254 127.349 -8.69241 129.299 -3.8904C132.11 3.02924 131.606 8.60059 137.83 15.495C143.996 22.3266 152.67 27.7461 160.422 33.5488C168.997 39.9683 175.305 44.8186 178.803 53.4304C181.772 60.7393 173.501 62.329 168.781 64.6609C164.133 66.9575 174.792 88.5251 168.781 86.5001C161.003 83.8801 137.686 73.8614 131.5 68.9999C124.614 63.5884 126.13 36.2134 119.497 31.0001C114.228 26.859 94 28.5001 89.5 14.0001C86.8231 2.686 94.0026 -5.75463 82.3681 -17.1594C77.9314 -21.5085 79.5674 -29.6611 80.117 -33.7946C80.5484 -37.0387 80.1771 -39.5067 79.6349 -42.8481Z" fill="#71BBFF"/>
</g>
<g filter="url(#filter3_f_5294_8881)">
<path d="M180.349 73.9014C167.615 53.1442 144.369 20.9018 124.849 10.0467C120.286 18.8071 130.677 27.7161 136.892 36.5835C141.809 43.5973 144.397 56.3716 149.899 62.469L177 92.5C187.598 98.7252 174.142 85.8182 180.349 73.9014Z" fill="#0A9F68"/>
</g>
<g filter="url(#filter4_f_5294_8881)">
<path d="M216.386 81.5411C216.371 82.5969 215.656 83.6197 215.631 84.7258C215.607 85.8319 215.675 88.7622 215.151 89.2969C214.395 90.0697 213.935 91.6883 212.209 91.7096C210.541 91.7301 208.898 90.5224 207.592 89.7653C202.796 86.9864 198.778 83.2444 194.436 80.0467C192.24 78.4297 189.523 77.3656 187.19 75.8349C186.053 75.089 185.824 74.2547 184.369 73.7122C182.971 73.1912 181.877 72.3484 180.704 71.579C177.867 69.7171 174.62 68.9364 171.214 67.7944C167.453 66.5337 163.458 63.3223 160.683 61.0348C151.813 53.7245 149.549 43.7371 144.56 34.711C142.625 31.2097 141.664 27.4178 139.281 24.0684C136.77 20.5405 133.018 18.0286 129.134 15.4801C122.511 11.1339 115.033 6.54861 109.948 1.02049C107.592 -1.54128 105.819 -4.20267 105.642 -7.53564C105.452 -11.1281 111.006 -15.6936 115.262 -16.8471C117.625 -17.4876 121.775 -16.5919 124.05 -16.0869C126.463 -15.5513 128.744 -14.794 131.003 -13.9977C139.437 -11.0246 146.253 -5.52458 151.27 0.417285C157.567 7.87661 167.006 10.7204 175.881 15.7828C180.138 18.2115 183.857 21.1171 187.571 23.9665C190.033 25.8551 190.5 29.4344 191.722 31.8783C195.156 38.7454 194.764 46.3461 200.02 52.5243C202.46 55.3926 205.161 58.2317 208.488 60.4941C210.298 61.7246 213.065 63.5028 213.884 65.3923C215.408 68.9046 217.692 72.9261 216.838 76.8313C216.527 78.2554 216.406 80.1311 216.386 81.5411Z" fill="#FFE665"/>
</g>
</g>
<defs>
<filter id="filter0_d_5294_8881" x="74" y="5" width="110.615" height="113.107" filterUnits="userSpaceOnUse" color-interpolation-filters="sRGB">
<feFlood flood-opacity="0" result="BackgroundImageFix"/>
<feColorMatrix in="SourceAlpha" type="matrix" values="0 0 0 0 0 0 0 0 0 0 0 0 0 0 0 0 0 0 127 0" result="hardAlpha"/>
<feOffset dx="2" dy="2"/>
<feGaussianBlur stdDeviation="2"/>
<feComposite in2="hardAlpha" operator="out"/>
<feColorMatrix type="matrix" values="0 0 0 0 0.196078 0 0 0 0 0.188235 0 0 0 0 0.184314 0 0 0 0.11 0"/>
<feBlend mode="normal" in2="BackgroundImageFix" result="effect1_dropShadow_5294_8881"/>
<feBlend mode="normal" in="SourceGraphic" in2="effect1_dropShadow_5294_8881" result="shape"/>
</filter>
<filter id="filter1_f_5294_8881" x="41.998" y="-52.7674" width="183.553" height="401.696" filterUnits="userSpaceOnUse" color-interpolation-filters="sRGB">
<feFlood flood-opacity="0" result="BackgroundImageFix"/>
<feBlend mode="normal" in="SourceGraphic" in2="BackgroundImageFix" result="shape"/>
<feGaussianBlur stdDeviation="3" result="effect1_foregroundBlur_5294_8881"/>
</filter>
<filter id="filter2_f_5294_8881" x="69.2207" y="-59.5418" width="116.211" height="152.176" filterUnits="userSpaceOnUse" color-interpolation-filters="sRGB">
<feFlood flood-opacity="0" result="BackgroundImageFix"/>
<feBlend mode="normal" in="SourceGraphic" in2="BackgroundImageFix" result="shape"/>
<feGaussianBlur stdDeviation="3" result="effect1_foregroundBlur_5294_8881"/>
</filter>
<filter id="filter3_f_5294_8881" x="117.725" y="4.04663" width="69.5" height="96.0727" filterUnits="userSpaceOnUse" color-interpolation-filters="sRGB">
<feFlood flood-opacity="0" result="BackgroundImageFix"/>
<feBlend mode="normal" in="SourceGraphic" in2="BackgroundImageFix" result="shape"/>
<feGaussianBlur stdDeviation="3" result="effect1_foregroundBlur_5294_8881"/>
</filter>
<filter id="filter4_f_5294_8881" x="99.6387" y="-23.0696" width="123.385" height="120.779" filterUnits="userSpaceOnUse" color-interpolation-filters="sRGB">
<feFlood flood-opacity="0" result="BackgroundImageFix"/>
<feBlend mode="normal" in="SourceGraphic" in2="BackgroundImageFix" result="shape"/>
<feGaussianBlur stdDeviation="3" result="effect1_foregroundBlur_5294_8881"/>
</filter>
<linearGradient id="paint0_linear_5294_8881" x1="94.9995" y1="73.5" x2="158.5" y2="17" gradientUnits="userSpaceOnUse">
<stop stop-color="#ABABAB"/>
<stop offset="1" stop-color="#F5F5F5"/>
</linearGradient>
</defs>
</svg>
