<svg width="225" height="64" fill="none" xmlns="http://www.w3.org/2000/svg"><g opacity=".2" filter="url(#a)"><ellipse cx="135.872" cy="47.275" rx="13.333" ry="1.111" fill="url(#b)"/></g><g opacity=".2" filter="url(#c)"><ellipse cx="101.208" cy="45.494" rx="13.333" ry="1.111" fill="url(#d)"/></g><g opacity=".2" filter="url(#e)"><ellipse cx="66.098" cy="48.166" rx="13.778" ry="1.111" fill="url(#f)"/></g><g opacity=".2" filter="url(#g)"><ellipse cx="31.872" cy="46.385" rx="13.333" ry="1.111" fill="url(#h)"/></g><mask id="i" style="mask-type:alpha" maskUnits="userSpaceOnUse" x="20" y="16" width="135" height="33"><path d="M138.252 19.056c.342-.843 1.548-.843 1.89 0l3.471 8.553c.146.36.486.604.876.63l9.292.624c.916.061 1.289 1.197.584 1.78l-7.147 5.909a1 1 0 0 0-.334 1.02l2.272 8.938c.224.881-.752 1.583-1.53 1.1l-7.887-4.901a1.027 1.027 0 0 0-1.083 0l-7.888 4.9c-.777.484-1.753-.218-1.529-1.1l2.272-8.938a1.003 1.003 0 0 0-.335-1.02l-7.146-5.909c-.705-.582-.332-1.718.584-1.779l9.291-.624c.39-.026.731-.27.877-.63l3.47-8.553zM103.73 17.465c.343-.844 1.549-.844 1.891 0l3.47 8.552c.146.36.487.604.877.63l9.291.624c.916.062 1.289 1.197.584 1.78l-7.146 5.91c-.3.247-.43.643-.335 1.019l2.272 8.938c.224.881-.752 1.583-1.529 1.1l-7.888-4.9a1.027 1.027 0 0 0-1.083 0l-7.887 4.9c-.778.483-1.754-.219-1.53-1.1l2.272-8.938a1.002 1.002 0 0 0-.334-1.02l-7.147-5.91c-.705-.582-.332-1.717.584-1.779l9.292-.623c.39-.027.73-.271.876-.63l3.47-8.553zM71.1 19.852c-.343-.843-1.55-.843-1.891 0l-3.47 8.553c-.146.36-.487.604-.877.63l-9.291.624c-.917.061-1.29 1.197-.585 1.78l7.147 5.909c.3.248.43.644.335 1.02l-2.272 8.938c-.224.881.752 1.583 1.53 1.1l7.886-4.901a1.028 1.028 0 0 1 1.084 0l7.887 4.9c.778.484 1.753-.218 1.53-1.1l-2.273-8.938a1.002 1.002 0 0 1 .335-1.02l7.147-5.909c.704-.582.332-1.718-.585-1.78l-9.291-.623a1.018 1.018 0 0 1-.876-.63l-3.47-8.553zM34.687 18.26c.342-.843 1.549-.843 1.89 0l3.471 8.553c.146.36.486.604.876.63l9.292.624c.916.061 1.289 1.197.584 1.78l-7.147 5.909c-.3.248-.43.644-.334 1.02l2.272 8.938c.224.881-.752 1.583-1.53 1.1l-7.887-4.901a1.027 1.027 0 0 0-1.083 0l-7.888 4.9c-.777.484-1.753-.218-1.529-1.099l2.272-8.938a1.002 1.002 0 0 0-.335-1.02l-7.146-5.91c-.705-.582-.332-1.718.584-1.779l9.291-.623c.39-.027.731-.271.877-.63l3.47-8.554z" fill="#D9D9D9"/></mask><g mask="url(#i)"><g filter="url(#j)"><path d="M-25.372 45.582c-.004.003 0 .008.006.007 22.36-5.322 48.276-15 74.668-28.123 8.594-4.28 20.374-3.049 27.361 3.046 9.314 8.124 5.993 20.61-6.666 24.668L14.715 62.903c-8.677 2.782-18.922.9-25.352-4.638-4.907-4.228-9.82-8.452-14.727-12.682a.007.007 0 0 0-.008 0z" fill="#FFE665"/></g><g filter="url(#k)"><path d="M120.268 156.78c-12.098-7.543-24.17-15.21-36.281-22.691-11.514-7.176-11.916-15.256-6.787-37.342C89.06 45.965 99.824-5.576 110.91-56.916c1.927-8.87 6.876-13.936 11.05-11.309 29.686 18.682 59.401 37.383 89.114 55.941L120.268 156.78z" fill="#FFB9F8"/></g><g filter="url(#l)"><path d="M-22.926 84.978c-.337-3.182-.597-6.405-.973-9.568C-24.22 72.382-20 69.66-6.19 62.563c31.774-16.314 63.56-32.942 95.353-49.485 5.498-2.858 10.041-4.279 10.144-3.173.733 7.868 1.467 15.744 2.278 23.572l-124.51 51.501z" fill="#FFB9F8"/></g><g filter="url(#m)"><path d="M-54.869 22.787C-68.222 14.32-81.577 5.863-94.945-2.607c11.912 3.25 24.74 7.812 37.398 12.796 11.366 4.479 23.09 9.379 33.057 11.324 8.423 1.646 15.002 1.102 20.807-.35C9.21 24.49 20.154 25.12 28.93 22.803c6.56-1.735 2.92-5.658 5.629-10.294-10.54-2.973-2.483-9.163 7.951-6.566 4.274 1.064 2.839 1.8 6.627 2.168 2.642.247 6.86 3.554 8.882 3.118 9.208-2.022 33.093 10.861 40.929 7.531 3.664 12.201-21.457 6.04-24.53 14.244-24.41-6.185-32.045-2.951-48.846.263a94.971 94.971 0 0 0-4.063.89l-64.705-4.397a262.25 262.25 0 0 1-11.673-6.973z" fill="#71BBFF"/></g><g filter="url(#n)"><path d="M146.106 59.578c-15.976.639-31.946 1.29-47.935 1.936 11.825-4.168 25.157-7.77 38.584-10.921 12.059-2.826 24.656-5.506 34.113-9.643 7.994-3.493 13.206-7.75 17.256-12.32 12.69-4.672 22.225-10.472 28.281-17.482 4.523-5.243-.742-6.419-1.084-11.86-10.518 3.608-7.25-6.226 2.967-10.086 4.185-1.581 3.396-.137 6.78-2.02 2.356-1.32 7.76-.993 9.209-2.527 6.583-7.013 33.883-10.05 38.578-17.364 9.953 8.082-22.64 18.488-20.593 27.123-23.962 8.94-20.494 15.024-32.775 27.423a98.627 98.627 0 0 0-2.905 3.093L159.828 58.66c-4.535.422-9.113.73-13.722.919z" fill="#71BBFF"/></g><g filter="url(#o)"><path d="M141.377 32.512c-.812-.1-1.216.194-2.195.24-.95.95-1.612-.513-1.266-1.554.488-1.465 1.331-.983 2.29-1.352 1.681-.648 2.857-.874 4.501-1.969 1.209-.804 2.957-3.962 3.597-5.387.953-2.122 4.094-1.238 5.679-1.393 2.283-.223 4.142.428 6.392-.822 2.229-1.238 3.97-3.356 5.845-5.162 2.074-1.999 3.642-3.458 6.484-3.735 2.412-.236 3.002 2.39 3.813 4.016.799 1.601-.593 4.537-1.223 6.16-.815 2.1-2.031 3.05-3.604 4.47-1.751 1.582-4.569 1.356-6.256 2.88-1.34 1.21-3.208 4.17-5.107 4.063-3.747-.211-6.705-1.44-10.417 1.029-1.415.942-4.142-.28-5.522-.817-1.083-.42-1.902-.53-3.011-.667z" fill="#71BBFF"/></g><g filter="url(#p)"><path d="M146.172 51.517c7.504-6.044 20.897-14.742 31.268-15.34 2.837 7.083-12.792 3.404-9.955 10.488l-12.73 8.388c-5.648.462-6.114 2.627-8.583-3.536z" fill="#0A9F68"/></g><g filter="url(#q)"><path d="M58.228 60.61c-.823-.08-1.383-.553-2.243-.641-.859-.089-3.18-.25-3.422-.581-.35-.48-1.464-.85-.895-1.826.55-.945 2.054-1.792 3.09-2.479 3.806-2.522 8.104-4.54 12.084-6.778 2.013-1.132 3.769-2.596 5.76-3.81.971-.593 1.703-.666 2.622-1.451.883-.755 1.915-1.317 2.916-1.927 2.422-1.478 4.135-3.26 6.186-5.109 2.264-2.04 6.138-4.08 8.873-5.495 8.741-4.518 17.343-5.122 26.114-7.33 3.403-.857 6.703-1.144 10.138-2.264 3.618-1.18 6.861-3.13 10.177-5.154 5.655-3.45 11.787-7.366 17.847-9.865 2.808-1.159 5.497-1.98 8.171-1.855 2.882.136 4.58 3.584 4.042 6.068-.299 1.379-2.409 3.664-3.576 4.916-1.238 1.327-2.606 2.565-3.996 3.788-5.192 4.567-11.817 8.047-18.179 10.48-7.986 3.055-13.417 8.198-20.397 12.87-3.348 2.243-6.888 4.148-10.382 6.054-2.316 1.264-5.282 1.286-7.614 1.811-6.55 1.476-12.38.74-19.007 3.293-3.077 1.185-6.22 2.52-9.123 4.247-1.579.94-3.912 2.383-5.671 2.718-3.272.623-7.201 1.642-9.975.895-1.011-.272-2.441-.468-3.54-.574z" fill="#FFE665"/></g><g filter="url(#r)"><path d="M103.494 33.25c-.812-.1-1.216.194-2.195.24-.95.95-1.612-.513-1.265-1.554.487-1.465 1.331-.983 2.289-1.352 1.681-.647 2.857-.874 4.502-1.968 1.208-.805 2.956-3.962 3.596-5.387.953-2.123 4.095-1.239 5.679-1.394 2.283-.223 4.142.428 6.392-.821 2.229-1.239 3.97-3.357 5.845-5.163 2.074-1.999 3.643-3.457 6.484-3.735 2.412-.236 3.002 2.39 3.813 4.016.799 1.602-.593 4.538-1.223 6.16-.815 2.1-2.03 3.05-3.603 4.47-1.752 1.582-4.57 1.356-6.257 2.88-1.34 1.21-3.207 4.17-5.107 4.063-3.747-.211-6.705-1.44-10.416 1.03-1.416.941-4.142-.282-5.523-.817-1.083-.42-1.902-.53-3.011-.668z" fill="#0A9F68"/></g><g filter="url(#s)"><path d="M92.085 55.76c-.838-.114-1.249.17-2.255.197-.96.923-1.67-.537-1.332-1.56.476-1.442 1.352-.95 2.333-1.297 1.719-.61 2.925-.813 4.598-1.866 1.23-.773 2.972-3.866 3.605-5.265.942-2.083 4.193-1.15 5.821-1.275 2.347-.179 4.273.5 6.566-.696 2.273-1.185 4.026-3.249 5.924-5.002 2.099-1.94 3.687-3.355 6.608-3.578 2.479-.19 3.134 2.42 3.999 4.044.852 1.6-.528 4.48-1.147 6.074-.801 2.063-2.035 2.98-3.628 4.358-1.774 1.533-4.68 1.258-6.389 2.735-1.358 1.173-3.226 4.068-5.184 3.928-3.862-.278-6.93-1.549-10.706.827-1.44.907-4.27-.353-5.7-.909-1.124-.436-1.969-.56-3.113-.715z" fill="#71BBFF"/></g></g><g opacity=".3" filter="url(#t)"><ellipse cx="180.936" cy="53.334" rx="12.889" ry=".889" fill="url(#u)"/></g><g opacity=".3" filter="url(#v)"><path d="M203.152 55.11c0 .49-6.215 1.776-13.333 1.776-7.119 0-12.889-.398-12.889-.89 0-.49 5.77-.888 12.889-.888 7.118 0 13.333-.49 13.333.001z" fill="url(#w)"/></g><path d="M189.608 51.1c.435-.884-.34-8.637-.259-9.672.037-.461.238-.99.363-1.44a.477.477 0 0 1 .033-.084c.028-.17.061-.324.102-.472.435-1.575 3.157-6.718 4.017-10.453.139.052.309.1.519.124.119.014.252.021.399.018.485-.012.924.144 1.29.406.078.054.151.114.222.177a2.768 2.768 0 0 1 .753 1.149c.337.972.183 3.812.163 3.879-.337 1.144-4.369 6.586-4.419 6.67.047 1.854.164 3.94-.222 5.681-.223 1.006-.561 1.996-.642 3.026-.039.504.057 1.021.143 1.522.073.425.656 1.623-.274 1.74-.726.09-.93-.076-1.686.043-.464.144-.86.346-1.15.365-.778.052-3.112-.11-3.031-1.175.043-.553 3.344-.824 3.678-1.505h.001z" fill="#3C3C41"/><path d="M195.702 32.633c.03-.438-.303-.252-.27-.689-.222-.325.096-.348.27-.973.087-.31.226-.473.397-.567a91.826 91.826 0 0 1 .292-2.841c.007-.054.093-.035.086.019-.104.849-.19 1.7-.267 2.551l-.019.228c.27-.11.604-.098.943-.222.199-.071.399-.19.588-.407.748-.861 1.856-1.596 3.078-1.389.318.054-.309.3-.054.479.181.127.409.349.533.533.309.458.768 2.22.61 3.185l.001.002a68.136 68.136 0 0 1-.226 1.304 69.137 69.137 0 0 0-.537 3.372c-.078.589-.934 4.134-1.062 5.527.429 1.963 1.2 2.497 2.074 4.914.216.597.518 3.505 1.908 5.91.1.173.874 1.333.346 1.569-.376.168-1.021.217-1.543.4-.522.185-1.34.69-1.982.788-1.437.22-2.464.092-2.795-.022l-.034-.012a.499.499 0 0 1-.337-.434c-.043-.677 3.394-1.578 3.473-2.672.058-.793-4.9-8.895-5.096-9.494-.17-.52-.299-9.093-.227-10.146l-.15-.913z" fill="#2C2A26"/><path d="M193.078 26.57c-.185-1.345-.097-2.744-.257-4.212-.242-2.225-.872-5.287.257-7.39.45-.837 1.264-1.556 2.046-1.93a2.8 2.8 0 0 1 .478-.175c.745-.203 1.596-.154 2.24-.081.091.01.173.024.247.043.592.147.711 1.062 1.801 1.822 1.37.955 2.149 2.027 2.236 3.663.114 2.138-1.227 6.953-1.304 7.431-.403 2.463 1.337 3.02.425 7.724-.098.504-.759.596-1.261.63l-.091.006c-.921.058-1.842.082-2.763.036-.462-.023-.349-.354-.812-.415.576-.291-.326 1.797-.444 1.778 0-5.569-2.344-5.628-2.798-8.93z" fill="#2C2A26"/><path d="M198.093 8.475c-.095-.322-.206-.655-.457-.875-.174-.16-.409-.242-.642-.311-1.107-.339-2.451-.44-3.24.446-.418.48-.588 1.154-.662 1.801a7.422 7.422 0 0 0 .261 2.815c.076.282.196.573.425.726.198.129.466.138.675.238.553.28.607 1.065.672 1.71.02.164.04.329.14.455.101.14.277.203.45.238 1.212.284 3.592-.322 3.071-1.94-.246-.747-.622-.952-.605-1.843.005-1.222.231-2.235-.101-3.458l.013-.002z" fill="#3C3C41"/><path d="M198.633 7.816c-.208-.153-.481-.443-1.499-.72a1.595 1.595 0 0 0-.824.156c-.154.074-.207.262-.247.39-.067.213-.191.398-.144.628.036.177.102.384.1.562-.002.256.215.52.266.775.083.411.309.965.506 1.349.069.134.078.423.076.563-.003.29.096.552.155.834.095.447.533.7 1.034.724 1.101.052 2.468-.17 2.48-1.275.004-.376.062-.735.066-1.11.003-.24-.008-.696-.295-.849-.281-.15-.477-.351-.756-.5-.375-.2-.309-.504-.487-.788-.158-.251-.145-.531-.431-.74z" fill="#2C2A26"/><path d="M195.632 8.205c.015.449-.108.898-.033 1.34.093.566.479 1.044.792 1.544.452.739.73 1.552.798 2.388.035.376-.35 2.104-.196 2.453.155.348.871-.333 1.285-.322.522.014.897-.8.954-1.285.056-.484-.13-.956-.209-1.425-.166-.882-.012-1.785-.027-2.683-.015-.898-.192-1.863-.874-2.492-.454-.415-1.373-.877-2.048-.775-1.173.156-.498.392-.457 1.259l.015-.002z" fill="#2C2A26"/><mask id="x" style="mask-type:alpha" maskUnits="userSpaceOnUse" x="166" y="6" width="34" height="36"><path d="M178.657 7.327c-.71-.728-1.957-.218-1.955.798l.026 10.309c.001.432-.248.83-.64 1.021l-9.343 4.57c-.921.45-.826 1.782.148 2.086l9.885 3.09c.415.13.717.485.777.913l1.427 10.201c.141 1.006 1.446 1.319 2.046.491l6.083-8.398c.256-.353.691-.53 1.12-.458l10.225 1.735c1.008.17 1.72-.967 1.116-1.783l-6.124-8.282a1.116 1.116 0 0 1-.085-1.195l4.892-9.129c.482-.9-.383-1.916-1.356-1.592l-9.869 3.28c-.414.138-.87.029-1.172-.281l-7.201-7.376z" fill="#D9D9D9"/></mask><g mask="url(#x)"><g filter="url(#y)"><path d="M133.082 175.799c-13.511-8.424-26.992-16.987-40.519-25.342-12.86-8.014-13.308-17.037-7.58-41.704C98.23 52.04 110.25-5.522 122.63-62.859c2.152-9.907 7.679-15.564 12.341-12.63 33.154 20.864 66.34 41.75 99.524 62.475L133.082 175.8z" fill="#FFB9F8"/></g><g filter="url(#z)"><path d="M156.682 37.013c-.908-.112-1.359.216-2.452.267-1.061 1.062-1.8-.572-1.413-1.734.545-1.637 1.486-1.098 2.557-1.51 1.877-.724 3.19-.977 5.027-2.2 1.35-.897 3.302-4.424 4.016-6.015 1.064-2.371 4.573-1.383 6.343-1.556 2.55-.25 4.626.478 7.138-.918 2.49-1.383 4.434-3.748 6.528-5.766 2.317-2.232 4.068-3.86 7.242-4.171 2.693-.263 3.353 2.67 4.259 4.485.892 1.789-.663 5.068-1.367 6.88-.91 2.346-2.267 3.405-4.024 4.992-1.956 1.767-5.103 1.515-6.987 3.216-1.497 1.352-3.583 4.658-5.704 4.538-4.185-.236-7.488-1.609-11.633 1.15-1.581 1.051-4.626-.314-6.168-.913-1.21-.47-2.124-.592-3.362-.745z" fill="#71BBFF"/></g><g filter="url(#A)"><path d="M63.807 68.394c-.92-.089-1.544-.617-2.504-.716-.96-.1-3.552-.278-3.823-.65-.39-.535-1.634-.948-1-2.039.614-1.054 2.295-2 3.453-2.768 4.25-2.817 9.05-5.07 13.495-7.57 2.248-1.264 4.209-2.899 6.433-4.255 1.084-.661 1.902-.743 2.928-1.62.985-.843 2.138-1.47 3.256-2.153 2.706-1.65 4.619-3.64 6.91-5.705 2.528-2.278 6.854-4.557 9.908-6.136 9.763-5.046 19.369-5.721 29.165-8.188 3.8-.957 7.486-1.276 11.322-2.528 4.041-1.318 7.663-3.496 11.366-5.755 6.315-3.853 13.164-8.227 19.931-11.018 3.137-1.294 6.14-2.212 9.126-2.072 3.219.152 5.116 4.003 4.515 6.777-.334 1.54-2.691 4.092-3.994 5.49-1.383 1.483-2.91 2.865-4.463 4.231-5.799 5.1-13.198 8.987-20.302 11.704-8.919 3.411-14.985 9.155-22.78 14.374-3.74 2.505-7.693 4.632-11.595 6.761-2.587 1.412-5.9 1.436-8.503 2.023-7.316 1.648-13.826.826-21.228 3.676-3.437 1.324-6.947 2.814-10.188 4.744-1.763 1.049-4.369 2.661-6.335 3.036-3.653.696-8.041 1.834-11.139 1-1.13-.305-2.726-.523-3.954-.643z" fill="#FFE665"/></g></g><path d="M187.733 32.282c.038-.064.105-.071.174-.076.04-.002.447.042.599.066.323.05.776.013 1.007-.236.217-.234.292-.363.383-.514-.155.066-.333.138-.546.216-.712.264-.888-.198-.26-.443.194-.075.682-.439 1.114-.622l.004-.003a.602.602 0 0 1 .219-.085.917.917 0 0 1 .099-.012H190.552a.513.513 0 0 1 .134-.003h.006l.078.004c.034.002.068.004.101.008a.887.887 0 0 1 .054-.034c.324-.183 2.867-3.917 2.992-4.138.414-.733 1.805-2.411 1.988-2.699.123-.306 1.659-4.812 1.719-5.03.163-.585.952-2.598 2.622-1.992 1.671.605.875 2.583.721 2.953a38.478 38.478 0 0 1-1.821 3.735c-.116.207-.238.413-.361.607-.161.254-.327.49-.494.684 0 .006 0 .009-.002.012-.886 1.3-1.921 2.494-2.988 3.66l-.399.434-.047.05a42.11 42.11 0 0 1-1.744 1.76c-.064.06-.133.128-.209.203a9.363 9.363 0 0 1-.175.17l-.046.045a41.063 41.063 0 0 1-.796.764c-.153.256-.248.458-.354.644-.114.204-.24.387-.464.596-.337.315-1.015.538-1.41.334a2.057 2.057 0 0 1-.866-.233 2.074 2.074 0 0 1-.604-.204.026.026 0 0 0-.006-.006l-.033-.044a.267.267 0 0 0-.013-.022l-.009-.016a.223.223 0 0 1-.024-.108 1.826 1.826 0 0 1-.083-.029c-.065-.024-.132-.044-.19-.082a.278.278 0 0 1-.036-.028c-.078-.071-.115-.19-.06-.284v-.002z" fill="#3C3C41"/><defs><filter id="r" x="94.592" y="6.754" width="49.63" height="33.674" filterUnits="userSpaceOnUse" color-interpolation-filters="sRGB"><feFlood flood-opacity="0" result="BackgroundImageFix"/><feBlend in="SourceGraphic" in2="BackgroundImageFix" result="shape"/><feGaussianBlur stdDeviation="2.674" result="effect1_foregroundBlur_5070_14362"/></filter><filter id="a" x="121.65" y="45.275" width="28.444" height="4" filterUnits="userSpaceOnUse" color-interpolation-filters="sRGB"><feFlood flood-opacity="0" result="BackgroundImageFix"/><feBlend in="SourceGraphic" in2="BackgroundImageFix" result="shape"/><feGaussianBlur stdDeviation=".444" result="effect1_foregroundBlur_5070_14362"/></filter><filter id="e" x="51.431" y="46.166" width="29.332" height="4" filterUnits="userSpaceOnUse" color-interpolation-filters="sRGB"><feFlood flood-opacity="0" result="BackgroundImageFix"/><feBlend in="SourceGraphic" in2="BackgroundImageFix" result="shape"/><feGaussianBlur stdDeviation=".444" result="effect1_foregroundBlur_5070_14362"/></filter><filter id="g" x="17.65" y="44.385" width="28.444" height="4" filterUnits="userSpaceOnUse" color-interpolation-filters="sRGB"><feFlood flood-opacity="0" result="BackgroundImageFix"/><feBlend in="SourceGraphic" in2="BackgroundImageFix" result="shape"/><feGaussianBlur stdDeviation=".444" result="effect1_foregroundBlur_5070_14362"/></filter><filter id="j" x="-30.721" y="9.586" width="118.058" height="59.937" filterUnits="userSpaceOnUse" color-interpolation-filters="sRGB"><feFlood flood-opacity="0" result="BackgroundImageFix"/><feBlend in="SourceGraphic" in2="BackgroundImageFix" result="shape"/><feGaussianBlur stdDeviation="2.674" result="effect1_foregroundBlur_5070_14362"/></filter><filter id="k" x="66.93" y="-76.043" width="151.268" height="239.947" filterUnits="userSpaceOnUse" color-interpolation-filters="sRGB"><feFlood flood-opacity="0" result="BackgroundImageFix"/><feBlend in="SourceGraphic" in2="BackgroundImageFix" result="shape"/><feGaussianBlur stdDeviation="3.562" result="effect1_foregroundBlur_5070_14362"/></filter><filter id="l" x="-29.264" y="4.182" width="136.195" height="86.143" filterUnits="userSpaceOnUse" color-interpolation-filters="sRGB"><feFlood flood-opacity="0" result="BackgroundImageFix"/><feBlend in="SourceGraphic" in2="BackgroundImageFix" result="shape"/><feGaussianBlur stdDeviation="2.674" result="effect1_foregroundBlur_5070_14362"/></filter><filter id="m" x="-100.293" y="-7.955" width="204.953" height="47.46" filterUnits="userSpaceOnUse" color-interpolation-filters="sRGB"><feFlood flood-opacity="0" result="BackgroundImageFix"/><feBlend in="SourceGraphic" in2="BackgroundImageFix" result="shape"/><feGaussianBlur stdDeviation="2.674" result="effect1_foregroundBlur_5070_14362"/></filter><filter id="n" x="92.824" y="-38.057" width="187.273" height="104.918" filterUnits="userSpaceOnUse" color-interpolation-filters="sRGB"><feFlood flood-opacity="0" result="BackgroundImageFix"/><feBlend in="SourceGraphic" in2="BackgroundImageFix" result="shape"/><feGaussianBlur stdDeviation="2.674" result="effect1_foregroundBlur_5070_14362"/></filter><filter id="o" x="132.475" y="6.015" width="49.63" height="33.674" filterUnits="userSpaceOnUse" color-interpolation-filters="sRGB"><feFlood flood-opacity="0" result="BackgroundImageFix"/><feBlend in="SourceGraphic" in2="BackgroundImageFix" result="shape"/><feGaussianBlur stdDeviation="2.674" result="effect1_foregroundBlur_5070_14362"/></filter><filter id="p" x="140.824" y="30.829" width="42.308" height="30.316" filterUnits="userSpaceOnUse" color-interpolation-filters="sRGB"><feFlood flood-opacity="0" result="BackgroundImageFix"/><feBlend in="SourceGraphic" in2="BackgroundImageFix" result="shape"/><feGaussianBlur stdDeviation="2.674" result="effect1_foregroundBlur_5070_14362"/></filter><filter id="q" x="45.885" y="-1.592" width="129.527" height="68.665" filterUnits="userSpaceOnUse" color-interpolation-filters="sRGB"><feFlood flood-opacity="0" result="BackgroundImageFix"/><feBlend in="SourceGraphic" in2="BackgroundImageFix" result="shape"/><feGaussianBlur stdDeviation="2.812" result="effect1_foregroundBlur_5070_14362"/></filter><filter id="c" x="86.986" y="43.494" width="28.444" height="4" filterUnits="userSpaceOnUse" color-interpolation-filters="sRGB"><feFlood flood-opacity="0" result="BackgroundImageFix"/><feBlend in="SourceGraphic" in2="BackgroundImageFix" result="shape"/><feGaussianBlur stdDeviation=".444" result="effect1_foregroundBlur_5070_14362"/></filter><filter id="s" x="83.065" y="30.061" width="50.505" height="32.989" filterUnits="userSpaceOnUse" color-interpolation-filters="sRGB"><feFlood flood-opacity="0" result="BackgroundImageFix"/><feBlend in="SourceGraphic" in2="BackgroundImageFix" result="shape"/><feGaussianBlur stdDeviation="2.674" result="effect1_foregroundBlur_5070_14362"/></filter><filter id="t" x="167.158" y="51.556" width="27.555" height="3.556" filterUnits="userSpaceOnUse" color-interpolation-filters="sRGB"><feFlood flood-opacity="0" result="BackgroundImageFix"/><feBlend in="SourceGraphic" in2="BackgroundImageFix" result="shape"/><feGaussianBlur stdDeviation=".444" result="effect1_foregroundBlur_5070_14362"/></filter><filter id="v" x="176.041" y="54.002" width="28" height="3.773" filterUnits="userSpaceOnUse" color-interpolation-filters="sRGB"><feFlood flood-opacity="0" result="BackgroundImageFix"/><feBlend in="SourceGraphic" in2="BackgroundImageFix" result="shape"/><feGaussianBlur stdDeviation=".444" result="effect1_foregroundBlur_5070_14362"/></filter><filter id="y" x="74.344" y="-83.388" width="167.276" height="266.312" filterUnits="userSpaceOnUse" color-interpolation-filters="sRGB"><feFlood flood-opacity="0" result="BackgroundImageFix"/><feBlend in="SourceGraphic" in2="BackgroundImageFix" result="shape"/><feGaussianBlur stdDeviation="3.562" result="effect1_foregroundBlur_5070_14362"/></filter><filter id="z" x="147.365" y="8.046" width="54.177" height="36.358" filterUnits="userSpaceOnUse" color-interpolation-filters="sRGB"><feFlood flood-opacity="0" result="BackgroundImageFix"/><feBlend in="SourceGraphic" in2="BackgroundImageFix" result="shape"/><feGaussianBlur stdDeviation="2.674" result="effect1_foregroundBlur_5070_14362"/></filter><filter id="A" x="50.678" y="-.417" width="143.345" height="75.372" filterUnits="userSpaceOnUse" color-interpolation-filters="sRGB"><feFlood flood-opacity="0" result="BackgroundImageFix"/><feBlend in="SourceGraphic" in2="BackgroundImageFix" result="shape"/><feGaussianBlur stdDeviation="2.812" result="effect1_foregroundBlur_5070_14362"/></filter><linearGradient id="b" x1="145.757" y1="46.608" x2="122.542" y2="47.56" gradientUnits="userSpaceOnUse"><stop stop-color="#322F2F" stop-opacity=".7"/><stop offset="1" stop-color="#C9D1DB" stop-opacity="0"/></linearGradient><linearGradient id="d" x1="111.093" y1="44.827" x2="87.878" y2="45.778" gradientUnits="userSpaceOnUse"><stop stop-color="#322F2F" stop-opacity=".7"/><stop offset="1" stop-color="#C9D1DB" stop-opacity="0"/></linearGradient><linearGradient id="f" x1="76.313" y1="47.499" x2="52.326" y2="48.515" gradientUnits="userSpaceOnUse"><stop stop-color="#322F2F" stop-opacity=".7"/><stop offset="1" stop-color="#C9D1DB" stop-opacity="0"/></linearGradient><linearGradient id="h" x1="41.758" y1="45.718" x2="18.542" y2="46.669" gradientUnits="userSpaceOnUse"><stop stop-color="#322F2F" stop-opacity=".7"/><stop offset="1" stop-color="#C9D1DB" stop-opacity="0"/></linearGradient><linearGradient id="u" x1="190.491" y1="52.801" x2="168.067" y2="53.911" gradientUnits="userSpaceOnUse"><stop stop-color="#322F2F" stop-opacity=".7"/><stop offset="1" stop-color="#C9D1DB" stop-opacity="0"/></linearGradient><linearGradient id="w" x1="199.374" y1="55.465" x2="176.949" y2="56.575" gradientUnits="userSpaceOnUse"><stop stop-color="#322F2F" stop-opacity=".7"/><stop offset="1" stop-color="#C9D1DB" stop-opacity="0"/></linearGradient></defs></svg>
