<svg width="40" height="40" viewBox="0 0 40 40" fill="none" xmlns="http://www.w3.org/2000/svg">
<path fill-rule="evenodd" clip-rule="evenodd" d="M6 20C6 12.268 12.268 6 20 6C27.732 6 34 12.268 34 20C34 27.7321 27.732 34.0001 20 34.0001C12.268 34.0001 6 27.7321 6 20ZM20 4C11.1634 4 4 11.1635 4 20C4 28.8366 11.1634 36.0001 20 36.0001C28.8366 36.0001 36 28.8366 36 20C36 11.1635 28.8366 4 20 4ZM27.3625 24.25C27.6389 23.7719 27.4754 23.1602 26.9973 22.8838C26.5191 22.6073 25.9075 22.7708 25.631 23.249C25.0599 24.2368 24.2389 25.057 23.2506 25.6273C22.2622 26.1975 21.1413 26.4977 20.0002 26.4977C18.8591 26.4977 17.7381 26.1975 16.7498 25.6273C15.7614 25.0571 14.9404 24.2369 14.3693 23.2491C14.0929 22.7709 13.4812 22.6075 13.003 22.8839C12.5249 23.1603 12.3614 23.772 12.6379 24.2501C13.3846 25.5417 14.458 26.6141 15.7503 27.3597C17.0426 28.1052 18.5083 28.4977 20.0002 28.4977C21.4921 28.4977 22.9578 28.1052 24.2501 27.3596C25.5423 26.614 26.6157 25.5416 27.3625 24.25ZM14.375 18.7501C15.4105 18.7501 16.25 17.9106 16.25 16.8751C16.25 15.8395 15.4105 15.0001 14.375 15.0001C13.3395 15.0001 12.5 15.8395 12.5 16.8751C12.5 17.9106 13.3395 18.7501 14.375 18.7501ZM27.5 16.8751C27.5 17.9106 26.6605 18.7501 25.625 18.7501C24.5895 18.7501 23.75 17.9106 23.75 16.8751C23.75 15.8395 24.5895 15.0001 25.625 15.0001C26.6605 15.0001 27.5 15.8395 27.5 16.8751Z" fill="url(#paint0_linear_33407_2751)"/>
<defs>
<linearGradient id="paint0_linear_33407_2751" x1="36" y1="36.0001" x2="4" y2="4.00006" gradientUnits="userSpaceOnUse">
<stop stop-color="#FF6400"/>
<stop offset="1" stop-color="#FFC39C"/>
</linearGradient>
</defs>
</svg>
