<svg width="24" height="24" viewBox="0 0 24 24" fill="none" xmlns="http://www.w3.org/2000/svg">
<path fill-rule="evenodd" clip-rule="evenodd" d="M10.8646 2.67029C11.3114 1.7017 12.688 1.7017 13.1348 2.67029L15.6084 8.03313L21.4732 8.72849C22.5324 8.85408 22.9578 10.1633 22.1747 10.8875L17.8387 14.8973L18.9897 20.6899C19.1976 21.7361 18.0839 22.5453 17.1531 22.0243L11.9997 19.1396L6.84628 22.0243C5.91551 22.5453 4.80181 21.7361 5.00969 20.6899L6.16067 14.8973L1.82471 10.8875C1.04158 10.1633 1.46698 8.85408 2.52622 8.72849L8.39098 8.03313L10.8646 2.67029ZM8.33237 8.1602C8.33241 8.1601 8.33246 8.16 8.33251 8.15989L8.33237 8.1602ZM17.8114 14.76C17.8115 14.7601 17.8115 14.7602 17.8115 14.7603L17.8114 14.76ZM11.9997 3.79072L9.69445 8.78847C9.51237 9.18323 9.13826 9.45503 8.70656 9.50622L3.24106 10.1542L7.28184 13.891C7.60101 14.1862 7.74391 14.626 7.65918 15.0524L6.58656 20.4506L11.3891 17.7623C11.7685 17.55 12.2309 17.55 12.6102 17.7623L17.4128 20.4506L16.3402 15.0524C16.2555 14.626 16.3984 14.1862 16.7175 13.891L20.7583 10.1542L15.2928 9.50622C14.8611 9.45503 14.487 9.18323 14.3049 8.78847L11.9997 3.79072ZM17.5184 20.9822C17.5184 20.9821 17.5184 20.9819 17.5184 20.9818L17.5184 20.9822Z" fill="#D6D6D6"/>
</svg>
