<svg width="24" height="24" viewBox="0 0 24 24" fill="none" xmlns="http://www.w3.org/2000/svg">
<circle cx="12" cy="12" r="12" fill="#EFEFEF"/>
<path fill-rule="evenodd" clip-rule="evenodd" d="M11.9996 5.34998C8.32692 5.34998 5.34961 8.32728 5.34961 12C5.34961 15.6727 8.32692 18.65 11.9996 18.65C15.6723 18.65 18.6496 15.6727 18.6496 12C18.6496 8.32728 15.6723 5.34998 11.9996 5.34998ZM8.70441 7.78492C9.6127 7.07385 10.7567 6.64998 11.9996 6.64998C14.9543 6.64998 17.3496 9.04525 17.3496 12C17.3496 13.2429 16.9257 14.3869 16.2147 15.2952L8.70441 7.78492ZM7.78509 8.70409C7.07369 9.61249 6.64961 10.7567 6.64961 12C6.64961 14.9547 9.04489 17.35 11.9996 17.35C13.2429 17.35 14.3871 16.9259 15.2955 16.2145L7.78509 8.70409Z" fill="#7D7D7D"/>
</svg>
