<svg width="170" height="136" fill="none" xmlns="http://www.w3.org/2000/svg"><path d="m47.135 3.19 78.715 84.965c.668.721.003 1.873-.955 1.655L15.042 64.886a1 1 0 0 1-.667-1.436L45.514 3.409a1 1 0 0 1 1.621-.22z" fill="#F6F6F6"/><mask id="a" style="mask-type:alpha" maskUnits="userSpaceOnUse" x="5" y="0" width="47" height="66"><path d="M44.694 41.024C35.62 58.36 20.998 68.61 12.034 63.919c-8.965-4.692-8.876-22.55.198-39.886C21.306 6.697 35.93-3.554 44.893 1.138c8.964 4.692 8.875 22.55-.199 39.886z" fill="#D9D9D9"/></mask><g mask="url(#a)"><g filter="url(#b)"><path d="M-87.844-9.762c-1.712 7.204-3.272 14.435-5.06 21.626-1.633 6.855 6.568 9.493 33.963 14.187C4.097 36.815 67.062 48.255 130.07 59.504c10.896 1.939 20.194 1.49 20.759-1.004 4.019-17.73 8.041-35.478 12.213-53.181L-87.844-9.762z" fill="#FFB9F8"/></g><g filter="url(#c)"><path d="M-2.972 63.992c-.004 0-.006-.006-.002-.007C28.31 54.11 69.498 44.098 116.035 35.237c4.578-.87 9.197-1.728 13.849-2.576 7.23-1.316 11.977-8.046 10.662-15.291-1.456-8.019-9.647-13.152-17.477-11.044L3.676 38.469c-5.942 1.6-9.61 7.358-8.614 13.458.657 4.02 1.306 8.04 1.97 12.06a.003.003 0 0 1-.004.005z" fill="#FFE665"/></g><g filter="url(#d)"><path d="M54.488 120.449c-.005.001-.007-.006-.003-.008 22.794-9.93 53.037-19.416 87.4-27.194a771.41 771.41 0 0 1 5.199-1.155c8.202-1.794 13.507-9.519 12.038-17.812-1.756-9.917-12.23-16.003-21.643-12.639l-75.89 27.123c-6.817 2.437-10.816 9.325-9.618 16.518.84 5.053 1.675 10.107 2.52 15.162.001.002 0 .005-.003.005z" fill="#FFE665"/></g><g filter="url(#e)"><path d="M-152.318 89.896c2.363.866 4.863 1.707 7.156 2.585 2.245.825 10.288-.434 35.005-4.963 56.86-10.422 114.011-20.78 171.098-31.16 9.87-1.795 17.194-3.49 16.354-3.785-5.973-2.097-11.951-4.196-17.786-6.318l-211.827 43.64z" fill="#FFB9F8"/></g><g filter="url(#f)"><path d="M-72.912 95.609c5.038 1.805 10.214 3.585 15.182 5.403 4.791 1.719 13.254.606 37.907-3.945C36.874 86.587 94.11 76.26 151.21 65.885c9.869-1.796 16.444-3.754 14.68-4.374-12.545-4.403-25.102-8.811-37.508-13.24L-72.912 95.609z" fill="#FFB9F8"/></g><g filter="url(#g)"><path d="M-59.209 103.529c5.038 1.805 10.214 3.585 15.183 5.403 4.79 1.719 13.253.606 37.906-3.945 56.698-10.48 113.933-20.807 171.033-31.182 9.869-1.796 16.444-3.755 14.68-4.374-12.544-4.403-25.102-8.811-37.508-13.24l-201.294 47.338z" fill="#FFB9F8"/></g><g filter="url(#h)"><path d="M-130.961 88.69c-2.316 10.652-4.654 21.3-6.983 31.96 8.114-7.745 15.362-16.519 21.835-25.373 5.806-7.953 11.403-16.27 19.282-22.434 6.655-5.21 14.423-8.533 22.644-11.069 9.052-8.304 19.818-14.458 32.417-18.241 9.422-2.826 11.06.737 20.459 1.17-7.046 6.893 10.232 5.078 17.691-1.604 3.055-2.737.495-2.264 4.01-4.455 2.465-1.525 2.31-5.148 5.075-6.06C18.113 28.45 25.44 10.32 38.462 7.459 25.219.503 4.729 21.892-10.071 20.2-27.368 35.877-37.64 33.33-60.044 41.07a223.551 223.551 0 0 1-5.577 1.826l-62.71 36.658a75.283 75.283 0 0 0-2.63 9.135z" fill="#71BBFF"/></g><g filter="url(#i)"><path d="M5.822 35.258c-17.907 8.346-35.826 16.685-53.756 25.036 18.35-4.728 37.527-10.49 56.182-16.48 16.749-5.382 33.87-11.11 49.654-14.577 13.336-2.931 24.763-4.066 35.382-4.454 19.967-4.996 38.128-7.853 54.25-8.362 12.052-.379 8.062 2.916 15.202 5.234-16.185 4.245.86 6.343 17.073 2.36 6.64-1.633 3.807-1.774 10.01-2.858 4.332-.75 9.64-3.785 13.301-3.964 16.687-.792 49.97-14.292 65.06-13.95-.538-8.526-49.626 4.932-59.353.444-37.867 9.389-42.561 5.137-72.75 6.882-2.484.142-4.928.252-7.362.35L21.714 28.234a459.13 459.13 0 0 0-15.892 7.025z" fill="#71BBFF"/></g><g filter="url(#j)"><path d="M59.142 85.562C41.236 93.91 23.316 102.248 5.386 110.6c18.351-4.729 37.527-10.491 56.182-16.481 16.75-5.381 33.87-11.109 49.654-14.576 13.337-2.931 24.763-4.066 35.382-4.454 19.967-4.996 38.129-7.853 54.25-8.363 12.052-.378 8.063 2.917 15.203 5.235-16.186 4.245.859 6.343 17.072 2.359 6.64-1.632 3.807-1.774 10.01-2.857 4.332-.75 9.641-3.786 13.301-3.965 16.687-.792 49.97-14.291 65.061-13.95-.539-8.525-49.626 4.933-59.354.445-37.867 9.389-42.561 5.137-72.749 6.882-2.484.142-4.929.252-7.363.35L75.034 78.538a459.178 459.178 0 0 0-15.892 7.024z" fill="#71BBFF"/></g><g filter="url(#k)"><path d="M-2.839 60.126c14.482-2.087 36.352-6.697 41.606-12.871-12.36-4.765-11.557 6.483-23.916 1.72l-21.017 4.33c-3.12 3.305-7.426 2.675 3.327 6.82z" fill="#0A9F68"/></g><g filter="url(#l)"><path d="M1.617 89.22c-.005.001-.007-.006-.003-.008 22.794-9.93 53.037-19.416 87.4-27.193 1.725-.39 3.458-.775 5.2-1.155 8.201-1.794 13.506-9.519 12.037-17.812-1.756-9.918-12.23-16.003-21.643-12.639L8.718 57.536C1.902 59.972-2.097 66.86-.9 74.054-.06 79.107.775 84.16 1.62 89.216a.004.004 0 0 1-.003.004z" fill="#FFE665"/></g></g><path d="M139.431 85.96c.349.475.334 1.093.319 1.663-.017.675-.02 1.352-.008 2.027-.57-.38-.941-.962-1.242-1.55a4.4 4.4 0 0 1-.346-.842 4.556 4.556 0 0 1-.122-.892 18.477 18.477 0 0 1-.032-.818c-.002-.2 0-.433.285-.349.425.126.894.418 1.144.761h.002z" fill="#252525"/><path d="M140.333 97.468c-.81-.484-1.574.188-2.414.114-1.104-.096-2.103-.603-3.2-.605-.249.417-.499.837-.746 1.255l.237.232c1.171-.43 1.265.467 1.485 1.21l4.873.018c.003-.247.005-.494.01-.741-.161-.025-.346-.05-.341-.252.005-.203.193-.22.351-.245-.131-.593-.302-.622-.252-.986h-.003z" fill="#32302F"/><path d="M137.677 87.128c.64-.452 1.285-.215 1.928-.007.182-.635-.238-.95-.67-1.256-.749.334-1.5.665-2.249.999l-.447-.233v.734c.477-.106.932-.343 1.441-.237h-.003z" fill="#44413F"/><path fill-rule="evenodd" clip-rule="evenodd" d="M137.583 85.654c-.653.12-.922.566-.9 1.21l-.002-.002-.224-.116a39.59 39.59 0 0 0-.223-.116c.116-.907.447-1.507 1.932-1.448-.037.356-.282.415-.583.472zm.314 27.965c.016.378.034.802.509.829l.212.012c.529.032.845.052 1.053-.106.115-.087.095-.303.077-.487a1.132 1.132 0 0 1-.008-.218c.036-.278 0-.452-.04-.648a2.948 2.948 0 0 1-.069-.493c-.111.064-.222.128-.333.195.207 1.12-.296.992-.799.864-.224-.057-.448-.114-.61-.061l.003.003.005.11zm-1.054-.441c-.12-.004-.287.068-.454.139-.168.072-.335.144-.455.14-.284.044-.633-.257-.803-.586a6.008 6.008 0 0 0-.06.003c-.059.002-.101.004-.143.002-.11-.004-.218-.03-.607-.124l-.03-.007c0 .009-.045.006-.091.002a.285.285 0 0 0-.092-.002c-.502.27-.514.974-.003 1.219l.261.124c.172.081.348.165.533.256.395.151 1.072.156 1.247.151.678.029.927-.779.7-1.315l-.003-.002z" fill="#555250"/><path fill-rule="evenodd" clip-rule="evenodd" d="m136.691 86.863-.002.001h.002zm.9-1.21c-.655.122-.922.568-.9 1.21l1.122-.498 1.124-.499c-.192-.299-.395-.585-.763-.684-.037.355-.282.415-.583.472zm-3.06 20.701c1.252.403 1.324 1.514 1.389 2.513l.004.066c.07 1.065.05 2.135.029 3.205-.008.44-.017.88-.019 1.32l.719.022c.201-.259.336-.526.267-.88-.131-.68-.092-1.209-.044-1.85.035-.469.074-.998.054-1.691-.014-.457-.116-.841-.223-1.239a90.278 90.278 0 0 1-.066-.253c-.407-.073-.543-.377-.68-.683-.095-.21-.189-.421-.373-.558-.107-.08-.202-.177-.297-.274-.213-.218-.425-.436-.775-.454l.015.756zm3.496 7.909a1.5 1.5 0 0 1-.211-.371 2.997 2.997 0 0 0-.197-.395c-.037-.066-.175-.679-.158-.748l.007-.025c.017-.062.047-.173.09-.208.142-.11.238-.121.438-.143H138c.03-.002.062-.005.086.007a.096.096 0 0 1 .037.038l.003.004c.095.16.155.327.194.498l.985-.213v.002c.207 1.12-.296.992-.799.864l-.127-.031c0 .097-.002.195-.006.291-.005.146-.017.304-.136.42-.047.047-.143.038-.21.01zm-2.332-14.589c-.022-.076-.043-.155-.064-.233-.184-.681-.368-1.364-1.421-.978.415.472.282.974.077 1.478l1.408-.267zm.933-12.416c.341-.103.681-.207 1.052-.13l.003-.002c-.203 1.91-.702 2.236-1.073 1.957-.289-.218-.331-.406-.37-.848v-.87c.13-.029.259-.068.388-.107zm1.295 19.534c.2-.11.409-.255.627-.406.549-.381 1.151-.798 1.792-.775 0-.168-.003-.339-.005-.507-.53-.091-.961.137-1.393.366-.316.167-.633.335-.989.376l-.011.246v.001c-.01.204-.021.429-.021.699z" fill="#484543"/><path d="M140.588 98.454c-.158.024-.349.044-.351.244-.005.203.18.23.341.252.002-.165.007-.333.01-.499v.003z" fill="#1E1E1E"/><path fill-rule="evenodd" clip-rule="evenodd" d="M139.708 89.385c-.094-.126-.082-.304-.071-.475.004-.062.008-.124.007-.182l-.038-1.609-.089-.029c-.613-.197-1.228-.395-1.838.037-.291.204-.331.568-.37.922-.05.454-.098.893-.675.956-.025.905-.709.94-1.214.967-.197.01-.367.019-.459.078v.02c.007.586.01.819.897.904l.256.025c1.185.114 2.345.225 3.53.059v-.004c.091.014.19.01.29.005.267-.012.536-.025.64.33.086.289.004.5-.142.682a.69.69 0 0 0 .138-.676c-.104-.356-.373-.343-.64-.33-.101.004-.201.009-.292-.006-1.185.166-2.344.055-3.53-.06l-.255-.024c-.887-.086-.89-.318-.897-.904v-.02c-.915.24-1.345.941-1.663 1.75l-.003-.006c-.404 1.741-1.437.89-2.277.196a7.309 7.309 0 0 0-.544-.422c-.291 0-.85.513-.071.926.071.526 3.725 4.01 3.974 3.593-.002-.166.081-.113.165-.058.009.154.046.327.082.5.041.195.082.39.085.557.617.001 1.208.127 1.804.255.462.099.928.198 1.41.24.333.03.654-.058.971-.144.482-.132.954-.262 1.444.03.034-.087.056-.166.077-.243.063-.232.118-.434.488-.73-1.9-.582-2.43-2.167-1.308-3.57-1.116 1.401-.585 2.984 1.313 3.565.12-.158.161-.475.204-.81.029-.221.058-.45.112-.648.301-1.112.319-1.725.279-2.881-.047-1.418-.521-1.962-1.599-2.602v.003l-.191-.167zm-5.008 6.646a.302.302 0 0 0 .004-.057c.039-.92-.037-1.356-.332-2.034.324.513.359.948.394 1.372.021.257.042.51.125.776a1.038 1.038 0 0 0-.16-.05l-.031-.007zm1.939 11.538c.052-.75.112-1.011.19-1.344a11.559 11.559 0 0 0 .122-.584c.041-.238.09-.528.501-.503.371.022.487.358.502.707.356-.041.673-.209.99-.377.431-.228.862-.456 1.392-.365.242-1.796.393-3.598.232-5.414l-2.436-.008h-.004l-2.433-.01-1.408.268c-.135 1.06-.025 2.111.086 3.162.088.83.175 1.66.141 2.494.352.019.565.238.779.457.094.096.188.193.294.272.183.137.278.348.372.558.137.305.273.609.68.682v.005zm1.3 4.57.017-.861h-.002l-.031-.352c-.127-1.407-.234-2.596-.003-4.131.2-.109.409-.254.627-.405.55-.381 1.153-.799 1.792-.776l-.007.051c-.265 1.863-.529 3.723-.49 5.61h.002l-.104.618-.104.618c-.111.067-.222.131-.333.195v-.002c-.391.086-.783.17-1.173.254h-.001l-.208.045.018-.864zm-3.41-5.781v-.003.003zm0 0c.032.375.054.752.076 1.129.058 1.01.117 2.022.362 3.015.1.404.085.818.069 1.233-.018.504-.037 1.009.153 1.497.166.32.442.277.721.234l.023-.004c.001-.456.01-.912.019-1.368.02-1.054.04-2.108-.029-3.156l-.005-.067c-.065-.999-.137-2.109-1.389-2.513z" fill="url(#m)"/><g filter="url(#n)"><path fill-rule="evenodd" clip-rule="evenodd" d="M139.934 112.147c-.341-.447-.733-.959-1.207-1.021-1.515.504-.679 1.524.086 2.459.304.37.596.727.727 1.033.218.511.377.716.788 1.071.257.222.956.616 1.562.958.364.206.695.393.876.511.544.358.922.659 1.327.982.285.228.584.466.965.743.574.418 1.19.884 1.834 1.371 1.316.996 2.747 2.079 4.174 3.015a5.726 5.726 0 0 0-.371.174 50.054 50.054 0 0 0-.409-.206c-.308-.154-.637-.312-.966-.47-.911-.437-1.82-.873-2.275-1.224-.183-.142-.372-.299-.567-.46-.593-.492-1.235-1.024-1.911-1.288-.381-.149-1.122-.617-1.432-.861-.21-.165-.425-.304-.639-.443-.296-.191-.591-.381-.867-.638-.385-.356-.926-.565-1.465-.773-.562-.217-1.121-.432-1.495-.813-.734-.749-1.051-1.152-1.656-1.923l-.087-.11c-.39-.497-1.925-1.261-2.611-1.451-1.499.238-.848.898-.112 1.644.401.406.827.837.944 1.239.115.399.61.875 1.014 1.264.143.138.275.265.374.373.404.442.932.956 1.392 1.344.387.327.79.618 1.194.91.52.377 1.042.754 1.533 1.209 2.142 1.985 4.311 3.499 7.05 5.343 2.859 1.925 5.504 3.153 6.766 3.612.235.229.483.445.764.593l.253.134c.353.19.684.368 1.093.502l.198.063c.157.048.313.097.459.156.1.041.218.046.334.05a.978.978 0 0 1 .323.047c1.04.425 2.38-.57 2.959-1.254.097-.115.284-.283.497-.476.495-.447 1.134-1.025 1.134-1.363 0-.271-.142-.404-.301-.553-.096-.09-.197-.184-.278-.318-.226-.374-.51-.676-.798-.982-.132-.14-.264-.281-.392-.43a.658.658 0 0 0 .033-.141c.039-.3-2.818-1.902-4.556-2.876-.673-.377-1.177-.66-1.283-.738-.204-.15-.432-.296-.665-.444-.471-.301-.96-.613-1.304-1.002-.473-.534-1.384-1.143-2.026-1.525-.19-.113-.388-.24-.591-.371-.62-.4-1.291-.832-1.957-.993-.376-.091-1.131-.446-1.453-.642a7.804 7.804 0 0 0-.657-.343c-.302-.146-.603-.291-.895-.504a15.95 15.95 0 0 0-1.178-.754c-.493-.296-.985-.591-1.417-.939-.251-.202-.508-.397-.764-.593-.584-.445-1.165-.889-1.674-1.401-.124-.125-.255-.296-.394-.477z" fill="url(#o)"/></g><path d="M127.462 89.755c-.266.42-.489.385-.579.931.039.215.516.613.617.66.124.06.343.25.446.031.074-.155.115-.31.255-.154.274.303.712.492 1.052.76.206.164.366.332.653.38.191.03.339-.388.402-.521.237-.502-.334-.65-.58-.957-.135-.17-.534-.282-.649-.464-.132-.208-.272-.301-.424-.47-.108-.12.011-.066.03-.184.03-.185-.355-.21-.488-.312-.243-.184-.587.137-.735.3z" fill="url(#p)"/><path d="M136.876 85.965c0-.344.476-.701.809-.701.27.007.372.105.743.31.258.144.437.302.647.513.299.298.6.487.689.933.036.183.071.378.109.551.046.207.025.434.025.65 0 .385-.026.76-.026 1.145 0 .115.016.196-.054.284-.071.088-.201.062-.284.108-.145.08-.509.013-.675.013-.105 0-.204-.006-.283-.08-.075-.072-.238-.162-.27-.259a7.175 7.175 0 0 1-.21-.74c-.02-.093 0-.184-.027-.276a.954.954 0 0 1-.033-.183c-.007-.152-.075-.284-.081-.438-.008-.21-.134-.386-.222-.561-.073-.146-.248-.25-.366-.357-.15-.135-.352-.146-.383-.399-.009-.066-.089-.144-.129-.195-.052-.064.021-.243.021-.318z" fill="#413F3E"/><defs><filter id="i" x="-53.935" y="-5.654" width="328.115" height="71.948" filterUnits="userSpaceOnUse" color-interpolation-filters="sRGB"><feFlood flood-opacity="0" result="BackgroundImageFix"/><feBlend in="SourceGraphic" in2="BackgroundImageFix" result="shape"/><feGaussianBlur stdDeviation="3" result="effect1_foregroundBlur_2597_23423"/></filter><filter id="b" x="-99.103" y="-15.762" width="268.145" height="82.471" filterUnits="userSpaceOnUse" color-interpolation-filters="sRGB"><feFlood flood-opacity="0" result="BackgroundImageFix"/><feBlend in="SourceGraphic" in2="BackgroundImageFix" result="shape"/><feGaussianBlur stdDeviation="3" result="effect1_foregroundBlur_2597_23423"/></filter><filter id="d" x="45.76" y="54.709" width="119.606" height="71.74" filterUnits="userSpaceOnUse" color-interpolation-filters="sRGB"><feFlood flood-opacity="0" result="BackgroundImageFix"/><feBlend in="SourceGraphic" in2="BackgroundImageFix" result="shape"/><feGaussianBlur stdDeviation="3" result="effect1_foregroundBlur_2597_23423"/></filter><filter id="e" x="-158.317" y="40.255" width="241.678" height="58.463" filterUnits="userSpaceOnUse" color-interpolation-filters="sRGB"><feFlood flood-opacity="0" result="BackgroundImageFix"/><feBlend in="SourceGraphic" in2="BackgroundImageFix" result="shape"/><feGaussianBlur stdDeviation="3" result="effect1_foregroundBlur_2597_23423"/></filter><filter id="f" x="-78.912" y="42.271" width="251.088" height="65.507" filterUnits="userSpaceOnUse" color-interpolation-filters="sRGB"><feFlood flood-opacity="0" result="BackgroundImageFix"/><feBlend in="SourceGraphic" in2="BackgroundImageFix" result="shape"/><feGaussianBlur stdDeviation="3" result="effect1_foregroundBlur_2597_23423"/></filter><filter id="g" x="-65.209" y="50.191" width="251.088" height="65.507" filterUnits="userSpaceOnUse" color-interpolation-filters="sRGB"><feFlood flood-opacity="0" result="BackgroundImageFix"/><feBlend in="SourceGraphic" in2="BackgroundImageFix" result="shape"/><feGaussianBlur stdDeviation="3" result="effect1_foregroundBlur_2597_23423"/></filter><filter id="h" x="-143.944" y=".062" width="188.406" height="126.588" filterUnits="userSpaceOnUse" color-interpolation-filters="sRGB"><feFlood flood-opacity="0" result="BackgroundImageFix"/><feBlend in="SourceGraphic" in2="BackgroundImageFix" result="shape"/><feGaussianBlur stdDeviation="3" result="effect1_foregroundBlur_2597_23423"/></filter><filter id="c" x="-11.101" y="-.149" width="157.865" height="70.141" filterUnits="userSpaceOnUse" color-interpolation-filters="sRGB"><feFlood flood-opacity="0" result="BackgroundImageFix"/><feBlend in="SourceGraphic" in2="BackgroundImageFix" result="shape"/><feGaussianBlur stdDeviation="3" result="effect1_foregroundBlur_2597_23423"/></filter><filter id="j" x="-.614" y="44.651" width="328.115" height="71.948" filterUnits="userSpaceOnUse" color-interpolation-filters="sRGB"><feFlood flood-opacity="0" result="BackgroundImageFix"/><feBlend in="SourceGraphic" in2="BackgroundImageFix" result="shape"/><feGaussianBlur stdDeviation="3" result="effect1_foregroundBlur_2597_23423"/></filter><filter id="k" x="-15.711" y="40.051" width="60.477" height="26.074" filterUnits="userSpaceOnUse" color-interpolation-filters="sRGB"><feFlood flood-opacity="0" result="BackgroundImageFix"/><feBlend in="SourceGraphic" in2="BackgroundImageFix" result="shape"/><feGaussianBlur stdDeviation="3" result="effect1_foregroundBlur_2597_23423"/></filter><filter id="l" x="-7.111" y="23.48" width="119.606" height="71.74" filterUnits="userSpaceOnUse" color-interpolation-filters="sRGB"><feFlood flood-opacity="0" result="BackgroundImageFix"/><feBlend in="SourceGraphic" in2="BackgroundImageFix" result="shape"/><feGaussianBlur stdDeviation="3" result="effect1_foregroundBlur_2597_23423"/></filter><filter id="n" x="131.409" y="109.126" width="33.075" height="24.242" filterUnits="userSpaceOnUse" color-interpolation-filters="sRGB"><feFlood flood-opacity="0" result="BackgroundImageFix"/><feBlend in="SourceGraphic" in2="BackgroundImageFix" result="shape"/><feGaussianBlur stdDeviation="1" result="effect1_foregroundBlur_2597_23423"/></filter><linearGradient id="m" x1="129.378" y1="91.263" x2="138.449" y2="112.633" gradientUnits="userSpaceOnUse"><stop stop-color="#7B7877"/><stop offset=".197" stop-color="#454342"/><stop offset="1" stop-color="#32302F"/></linearGradient><linearGradient id="o" x1="134.401" y1="112.203" x2="161.861" y2="126.155" gradientUnits="userSpaceOnUse"><stop stop-color="#32302F" stop-opacity=".7"/><stop offset="1" stop-color="#C9D1DB" stop-opacity="0"/></linearGradient><linearGradient id="p" x1="130.094" y1="91.98" x2="126.872" y2="92.674" gradientUnits="userSpaceOnUse"><stop stop-color="#0D0C0C"/><stop offset="1" stop-color="#32302F"/></linearGradient></defs></svg>
