<svg width="95" height="216" viewBox="0 0 95 216" fill="none" xmlns="http://www.w3.org/2000/svg">
<path fill-rule="evenodd" clip-rule="evenodd" d="M95 12C95 18.6274 89.6274 24 83 24C76.3726 24 71 18.6274 71 12C71 5.37258 76.3726 0 83 0C89.6274 0 95 5.37258 95 12ZM95 60C95 66.6274 89.6274 72 83 72C76.3726 72 71 66.6274 71 60C71 53.3726 76.3726 48 83 48C89.6274 48 95 53.3726 95 60ZM83 120C89.6274 120 95 114.627 95 108C95 101.373 89.6274 96 83 96C76.3726 96 71 101.373 71 108C71 114.627 76.3726 120 83 120ZM95 156C95 162.627 89.6274 168 83 168C76.3726 168 71 162.627 71 156C71 149.373 76.3726 144 83 144C89.6274 144 95 149.373 95 156ZM83 216C89.6274 216 95 210.627 95 204C95 197.373 89.6274 192 83 192C76.3726 192 71 197.373 71 204C71 210.627 76.3726 216 83 216Z" fill="url(#paint0_linear_45_61)"/>
<path fill-rule="evenodd" clip-rule="evenodd" d="M79.7084 203.293C79.3179 202.903 78.6844 202.902 78.2934 203.293C77.9025 203.683 77.9021 204.316 78.2927 204.707L81.2909 207.707C81.7069 208.123 82.3908 208.092 82.7675 207.64L87.7682 201.64C88.1219 201.216 88.0644 200.585 87.6398 200.232C87.2153 199.878 86.5844 199.936 86.2307 200.36L81.9318 205.518L79.7084 203.293Z" fill="#FFFDFB"/>
<path fill-rule="evenodd" clip-rule="evenodd" d="M79.7084 155.293C79.3179 154.903 78.6844 154.902 78.2934 155.293C77.9025 155.683 77.9021 156.316 78.2927 156.707L81.2909 159.707C81.7069 160.123 82.3908 160.092 82.7675 159.64L87.7682 153.64C88.1219 153.216 88.0644 152.585 87.6398 152.232C87.2153 151.878 86.5844 151.936 86.2307 152.36L81.9318 157.518L79.7084 155.293Z" fill="#FFFDFB"/>
<path fill-rule="evenodd" clip-rule="evenodd" d="M79.7084 107.293C79.3179 106.903 78.6844 106.902 78.2934 107.293C77.9025 107.683 77.9021 108.316 78.2927 108.707L81.2909 111.707C81.7069 112.123 82.3908 112.092 82.7675 111.64L87.7682 105.64C88.1219 105.216 88.0644 104.585 87.6398 104.232C87.2153 103.878 86.5844 103.936 86.2307 104.36L81.9318 109.518L79.7084 107.293Z" fill="#FFFDFB"/>
<path fill-rule="evenodd" clip-rule="evenodd" d="M79.7084 59.2933C79.3179 58.9026 78.6844 58.9022 78.2934 59.2925C77.9025 59.6828 77.9021 60.316 78.2927 60.7067L81.2909 63.7067C81.7069 64.1229 82.3908 64.0921 82.7675 63.64L87.7682 57.6401C88.1219 57.2157 88.0644 56.5852 87.6398 56.2317C87.2153 55.8782 86.5844 55.9356 86.2307 56.36L81.9318 61.518L79.7084 59.2933Z" fill="#FFFDFB"/>
<path fill-rule="evenodd" clip-rule="evenodd" d="M79.7084 11.2933C79.3179 10.9026 78.6844 10.9022 78.2934 11.2925C77.9025 11.6828 77.9021 12.316 78.2927 12.7067L81.2909 15.7067C81.7069 16.1229 82.3908 16.0921 82.7675 15.64L87.7682 9.64006C88.1219 9.21572 88.0644 8.58517 87.6398 8.23168C87.2153 7.8782 86.5844 7.93564 86.2307 8.35998L81.9318 13.518L79.7084 11.2933Z" fill="#FFFDFB"/>
<circle cx="10" cy="12" r="10" fill="#D6D6D6"/>
<path fill-rule="evenodd" clip-rule="evenodd" d="M6.16379 8.16377C6.38214 7.94541 6.73617 7.94541 6.95453 8.16377L10 11.2092L13.0455 8.16377C13.2638 7.94541 13.6179 7.94541 13.8362 8.16377C14.0546 8.38212 14.0546 8.73615 13.8362 8.95451L10.7908 12L13.8362 15.0455C14.0546 15.2638 14.0546 15.6178 13.8362 15.8362C13.6179 16.0546 13.2638 16.0546 13.0455 15.8362L10 12.7907L6.95451 15.8362C6.73615 16.0546 6.38212 16.0546 6.16377 15.8362C5.94541 15.6179 5.94541 15.2638 6.16377 15.0455L9.20927 12L6.16379 8.95451C5.94543 8.73615 5.94543 8.38212 6.16379 8.16377Z" fill="#FFFDFB"/>
<circle cx="10" cy="60" r="10" fill="#D6D6D6"/>
<path fill-rule="evenodd" clip-rule="evenodd" d="M6.16379 56.1638C6.38214 55.9454 6.73617 55.9454 6.95453 56.1638L10 59.2092L13.0455 56.1638C13.2638 55.9454 13.6179 55.9454 13.8362 56.1638C14.0546 56.3821 14.0546 56.7362 13.8362 56.9545L10.7908 60L13.8362 63.0455C14.0546 63.2638 14.0546 63.6178 13.8362 63.8362C13.6179 64.0546 13.2638 64.0546 13.0455 63.8362L10 60.7907L6.95451 63.8362C6.73615 64.0546 6.38212 64.0546 6.16377 63.8362C5.94541 63.6179 5.94541 63.2638 6.16377 63.0455L9.20927 60L6.16379 56.9545C5.94543 56.7362 5.94543 56.3821 6.16379 56.1638Z" fill="#FFFDFB"/>
<circle cx="10" cy="108" r="10" fill="#D6D6D6"/>
<path fill-rule="evenodd" clip-rule="evenodd" d="M6.16379 104.164C6.38214 103.945 6.73617 103.945 6.95453 104.164L10 107.209L13.0455 104.164C13.2638 103.945 13.6179 103.945 13.8362 104.164C14.0546 104.382 14.0546 104.736 13.8362 104.955L10.7908 108L13.8362 111.045C14.0546 111.264 14.0546 111.618 13.8362 111.836C13.6179 112.055 13.2638 112.055 13.0455 111.836L10 108.791L6.95451 111.836C6.73615 112.055 6.38212 112.055 6.16377 111.836C5.94541 111.618 5.94541 111.264 6.16377 111.045L9.20927 108L6.16379 104.955C5.94543 104.736 5.94543 104.382 6.16379 104.164Z" fill="#FFFDFB"/>
<circle cx="10" cy="156" r="10" fill="#D6D6D6"/>
<path fill-rule="evenodd" clip-rule="evenodd" d="M6.16379 152.164C6.38214 151.945 6.73617 151.945 6.95453 152.164L10 155.209L13.0455 152.164C13.2638 151.945 13.6179 151.945 13.8362 152.164C14.0546 152.382 14.0546 152.736 13.8362 152.955L10.7908 156L13.8362 159.045C14.0546 159.264 14.0546 159.618 13.8362 159.836C13.6179 160.055 13.2638 160.055 13.0455 159.836L10 156.791L6.95451 159.836C6.73615 160.055 6.38212 160.055 6.16377 159.836C5.94541 159.618 5.94541 159.264 6.16377 159.045L9.20927 156L6.16379 152.955C5.94543 152.736 5.94543 152.382 6.16379 152.164Z" fill="#FFFDFB"/>
<circle cx="10" cy="204" r="10" fill="#D6D6D6"/>
<path fill-rule="evenodd" clip-rule="evenodd" d="M6.16379 200.164C6.38214 199.945 6.73617 199.945 6.95453 200.164L10 203.209L13.0455 200.164C13.2638 199.945 13.6179 199.945 13.8362 200.164C14.0546 200.382 14.0546 200.736 13.8362 200.955L10.7908 204L13.8362 207.045C14.0546 207.264 14.0546 207.618 13.8362 207.836C13.6179 208.055 13.2638 208.055 13.0455 207.836L10 204.791L6.95451 207.836C6.73615 208.055 6.38212 208.055 6.16377 207.836C5.94541 207.618 5.94541 207.264 6.16377 207.045L9.20927 204L6.16379 200.955C5.94543 200.736 5.94543 200.382 6.16379 200.164Z" fill="#FFFDFB"/>
<defs>
<linearGradient id="paint0_linear_45_61" x1="83" y1="-2.54561e-08" x2="71" y2="232" gradientUnits="userSpaceOnUse">
<stop stop-color="#71BBFF"/>
<stop offset="0.682191" stop-color="#FFB9F8"/>
<stop offset="1" stop-color="#FFE665"/>
</linearGradient>
</defs>
</svg>
