<svg width="62" height="48" viewBox="0 0 62 48" fill="none" xmlns="http://www.w3.org/2000/svg">
<g id="Frame 7670">
<g id="Group 7545">
<path id="Rectangle 2842" d="M10 17.2768C10 16.0194 11.0194 15 12.2768 15H49.7232C50.9806 15 52 16.0194 52 17.2768V40.7232C52 41.9806 50.9806 43 49.7232 43H12.2768C11.0194 43 10 41.9806 10 40.7232V17.2768Z" fill="url(#paint0_linear_13531_19512)"/>
<g id="Mask group">
<mask id="mask0_13531_19512" style="mask-type:alpha" maskUnits="userSpaceOnUse" x="19" y="1" width="22" height="23">
<path id="Union" d="M20.1544 13.2557C19.5673 13.0217 19.5673 12.1969 20.1544 11.9629L26.1093 9.58962C26.3593 9.48998 26.5298 9.25712 26.548 8.99035L26.9821 2.63627C27.0249 2.00983 27.8153 1.75494 28.221 2.23678L32.3354 7.1241C32.5082 7.32928 32.784 7.41824 33.0453 7.35301L39.2685 5.79923C39.882 5.64605 40.3705 6.31335 40.0341 6.84511L36.6221 12.2389C36.4788 12.4654 36.4788 12.7532 36.6221 12.9797L40.0341 18.3735C40.3705 18.9052 39.882 19.5725 39.2685 19.4193L33.0453 17.8656C32.784 17.8003 32.5082 17.8893 32.3354 18.0945L28.221 22.9818C27.8153 23.4636 27.0249 23.2087 26.9821 22.5823L26.548 16.2282C26.5298 15.9615 26.3593 15.7286 26.1093 15.629L20.1544 13.2557Z" fill="#D9D9D9"/>
</mask>
<g mask="url(#mask0_13531_19512)">
<g id="Mask group_2">
<g id="Vector" filter="url(#filter0_f_13531_19512)">
<path d="M38.5397 44.7822C39.2388 46.0381 40.6454 46.3438 41.9614 45.5211C44.4415 43.9706 46.9194 42.4113 49.4053 40.8834C52.4774 38.9767 52.4825 36.6949 50.7844 30.3907C46.8618 15.8954 43.2306 1.19688 39.5137 -13.448C38.8683 -15.9786 37.4416 -17.4648 36.3283 -16.7664C29.6572 -12.5813 22.9805 -8.39278 16.3023 -4.2278C14.4078 -3.04629 13.5398 -0.130239 14.5459 1.67718L38.5397 44.7822Z" fill="#FFB9F8"/>
</g>
<g id="Vector_2" filter="url(#filter1_f_13531_19512)">
<path d="M56.2093 16.4865C59.1337 15.3949 59.2606 12.1001 56.4845 10.909C48.0453 7.28805 38.6051 2.50061 28.8197 -3.17628C27.3559 -4.02632 25.8885 -4.89375 24.4177 -5.77467C22.8519 -6.71257 20.392 -6.3706 20.7635 -4.83094C21.2049 -3.00119 23.1618 -1.10081 22.9004 0.71164C22.7448 1.79039 22.2585 2.92207 22.7835 3.90917C24.5541 7.23867 29.0441 14.4043 34.0048 12.3876C39.9032 9.9896 42.9752 20.7407 45.627 20.5024C46.1446 20.4559 46.5442 20.0941 47.0192 19.9168L56.2093 16.4865Z" fill="#FFE665"/>
</g>
<g id="Vector_3" filter="url(#filter2_f_13531_19512)">
<path d="M3.53933 18.5732C23.5973 21.6607 2.34755 20.0018 30.5087 26.4948C34.8662 27.5003 42.2934 27.503 47.8263 28.1863C49.7201 28.4203 51.0037 27.414 49.3507 26.7263C44.5461 24.7276 32.2483 22.9278 29.5152 16.5282C26.745 10.0419 15.3633 9.9489 10.3991 10.2332C8.97722 10.3147 7.66234 11.178 7.02091 12.3456C5.88245 14.4179 4.72388 16.484 3.58024 18.5557C3.57266 18.5695 3.55441 18.5773 3.53933 18.5732Z" fill="#71BBFF"/>
</g>
<g id="Vector 84" filter="url(#filter3_f_13531_19512)">
<path d="M38.8503 8.29069L49.7193 12.7537L51.8572 10.6756L39.1552 -0.804131L32.0328 -1.27821L19.3215 -2.00951L38.8503 8.29069Z" fill="#0A9F68"/>
</g>
</g>
</g>
</g>
<path id="Rectangle 2843" d="M10 17.1271C10 16.2179 11.0133 15.6756 11.7699 16.1799L30.3685 28.579C30.7509 28.8339 31.2491 28.8339 31.6315 28.579L50.2301 16.1799C50.9867 15.6756 52 16.2179 52 17.1271V40.7232C52 41.9806 50.9806 43 49.7232 43H12.2768C11.0194 43 10 41.9806 10 40.7232V17.1271Z" fill="#F5F5F5"/>
<path id="Rectangle 2844" d="M31 29L51 42.4317C51 42.4317 50.3757 43 49.3962 43C34.0956 43 26.9498 43 12.5672 43C11.5877 43 11 42.4729 11 42.4729L31 29Z" fill="url(#paint1_linear_13531_19512)"/>
</g>
</g>
<defs>
<filter id="filter0_f_13531_19512" x="11.8463" y="-19.2156" width="42.3524" height="67.4724" filterUnits="userSpaceOnUse" color-interpolation-filters="sRGB">
<feFlood flood-opacity="0" result="BackgroundImageFix"/>
<feBlend mode="normal" in="SourceGraphic" in2="BackgroundImageFix" result="shape"/>
<feGaussianBlur stdDeviation="1.13839" result="effect1_foregroundBlur_13531_19512"/>
</filter>
<filter id="filter1_f_13531_19512" x="18.4498" y="-8.57104" width="42.3133" height="31.3542" filterUnits="userSpaceOnUse" color-interpolation-filters="sRGB">
<feFlood flood-opacity="0" result="BackgroundImageFix"/>
<feBlend mode="normal" in="SourceGraphic" in2="BackgroundImageFix" result="shape"/>
<feGaussianBlur stdDeviation="1.13839" result="effect1_foregroundBlur_13531_19512"/>
</filter>
<filter id="filter2_f_13531_19512" x="1.26228" y="7.87354" width="51.1258" height="22.6241" filterUnits="userSpaceOnUse" color-interpolation-filters="sRGB">
<feFlood flood-opacity="0" result="BackgroundImageFix"/>
<feBlend mode="normal" in="SourceGraphic" in2="BackgroundImageFix" result="shape"/>
<feGaussianBlur stdDeviation="1.13839" result="effect1_foregroundBlur_13531_19512"/>
</filter>
<filter id="filter3_f_13531_19512" x="17.0455" y="-4.28631" width="37.0887" height="19.3168" filterUnits="userSpaceOnUse" color-interpolation-filters="sRGB">
<feFlood flood-opacity="0" result="BackgroundImageFix"/>
<feBlend mode="normal" in="SourceGraphic" in2="BackgroundImageFix" result="shape"/>
<feGaussianBlur stdDeviation="1.13839" result="effect1_foregroundBlur_13531_19512"/>
</filter>
<linearGradient id="paint0_linear_13531_19512" x1="31" y1="15" x2="31" y2="43" gradientUnits="userSpaceOnUse">
<stop stop-color="#E9E8E8"/>
<stop offset="1" stop-color="#D6D6D6"/>
</linearGradient>
<linearGradient id="paint1_linear_13531_19512" x1="31" y1="21.96" x2="31" y2="43" gradientUnits="userSpaceOnUse">
<stop stop-color="#E9E8E8"/>
<stop offset="1" stop-color="#E9E8E8" stop-opacity="0"/>
</linearGradient>
</defs>
</svg>
