<svg width="125" height="136" viewBox="0 0 125 136" fill="none" xmlns="http://www.w3.org/2000/svg">
<mask id="mask0_3484_2203" style="mask-type:alpha" maskUnits="userSpaceOnUse" x="21" y="33" width="87" height="87">
<circle cx="64.625" cy="76.875" r="43.125" fill="#D9D9D9"/>
</mask>
<g mask="url(#mask0_3484_2203)">
<g filter="url(#filter0_f_3484_2203)">
<path d="M173.897 255.108C186.568 240.989 199.158 226.721 211.869 212.676C223.929 199.243 221.452 188.767 206.72 162.436C172.764 101.922 139.928 40.0309 106.756 -21.4832C101.009 -32.108 92.8088 -36.7498 88.4462 -31.8472C57.4195 3.01953 26.3624 37.9207 -4.74465 72.6388L173.897 255.108Z" fill="#FFB9F8"/>
<path d="M19.4905 34.202C16.854 31.3794 14.5018 31.2203 10.8223 28.4229C4.50492 28.9896 6.5382 21.6878 10.9422 18.9704C17.1442 15.1436 18.7361 19.4406 23.3236 21.0069C31.3675 23.7532 36.3083 26.4902 45.5744 27.5083C52.3832 28.2564 68.2677 22.119 74.8972 18.898C84.7729 14.0997 93.4668 26.8115 99.6705 31.0479C108.61 37.1524 113.366 45.136 125.293 47.4228C137.11 49.6889 149.821 47.2931 162.076 46.4309C175.633 45.4771 185.726 44.9458 196.852 52.543C206.294 58.9909 200.481 70.2816 198.495 78.6225C196.538 86.8371 182.612 93.2486 175.418 97.2157C166.111 102.348 158.84 102.104 148.845 102.485C137.719 102.908 128.202 93.5601 117.483 93.968C108.969 94.2921 93.2499 99.3522 86.7002 93.2152C73.7766 81.106 66.7935 67.7021 45.8832 65.4047C37.9094 64.5286 31.7417 51.8501 28.3677 45.7322C25.7197 40.9306 23.0882 38.0535 19.4905 34.202Z" fill="#FFE665"/>
<path d="M84.6637 126.77C86.8146 126.683 87.8097 127.541 90.3644 127.872C92.6479 130.571 94.7008 126.879 94.0183 124.076C93.0572 120.13 90.7432 121.211 88.3105 120.036C84.045 117.975 81.0137 117.126 76.9402 113.901C73.947 111.531 70.0506 102.877 68.6827 99.0037C66.645 93.2335 58.2193 94.8705 54.1001 94.1213C48.1644 93.0418 43.1518 94.3454 37.5264 90.5822C31.9523 86.8533 27.8495 80.9258 23.3269 75.785C18.3237 70.0978 14.529 65.9348 7.14174 64.5913C0.87209 63.451 -1.24388 70.2049 -3.72228 74.2908C-6.16313 78.3147 -3.15049 86.311 -1.85115 90.7011C-0.170026 96.3812 2.80941 99.1317 6.62439 103.196C10.871 107.721 18.3059 107.741 22.397 112.1C25.6467 115.562 29.8994 123.724 34.9001 123.855C44.7673 124.114 52.7856 121.532 61.978 128.809C65.4834 131.584 72.8942 128.971 76.628 127.866C79.5584 126.999 81.7287 126.888 84.6637 126.77Z" fill="#71BBFF"/>
<path d="M112.59 40.6009C114.661 40.0137 115.829 40.6154 118.391 40.3407C121.241 42.431 122.375 38.3615 121.056 35.7963C119.2 32.1838 117.202 33.7754 114.562 33.2011C109.933 32.1941 106.788 32.0767 102.073 29.8931C98.6093 28.2885 92.7987 20.7843 90.5636 17.3378C87.234 12.2035 79.4241 15.7639 75.2438 15.998C69.2202 16.3353 64.651 18.7742 58.302 16.4296C52.0109 14.1064 46.6366 9.30161 41.0379 5.3599C34.8443 0.999261 30.1819 -2.16181 22.6853 -1.74204C16.3227 -1.38577 15.8435 5.67566 14.3884 10.2275C12.9554 14.7103 17.7531 21.7813 20.0423 25.7463C23.0041 30.8764 26.5437 32.8545 31.2029 35.9154C36.3892 39.3225 43.6229 37.6041 48.6193 40.8865C52.5881 43.4939 58.6303 50.4365 63.5231 49.3953C73.1776 47.3408 80.3706 42.9573 91.009 47.8849C95.0658 49.764 101.661 45.4917 105.033 43.5448C107.68 42.0167 109.764 41.4021 112.59 40.6009Z" fill="#FFB9F8"/>
<path d="M87.0179 69.4097C86.0428 68.335 85.16 68.2624 83.793 67.1914C81.4167 67.3698 82.2204 64.6378 83.8897 63.641C86.2405 62.2373 86.8151 63.8602 88.5299 64.4737C91.5367 65.5493 93.3779 66.6045 96.8533 67.0376C99.4071 67.3558 105.408 65.1369 107.916 63.9631C111.652 62.2145 114.849 67.0374 117.156 68.6628C120.481 71.0048 122.224 74.03 126.692 74.9543C131.119 75.8701 135.907 75.0395 140.516 74.7825C145.614 74.4983 149.409 74.3538 153.547 77.2686C157.059 79.7424 154.813 83.9522 154.021 87.0748C153.242 90.1501 147.975 92.4826 145.251 93.9336C141.726 95.811 138.996 95.6795 135.239 95.7678C131.057 95.8662 127.533 92.3024 123.504 92.3972C120.304 92.4724 114.371 94.2875 111.944 91.9462C107.155 87.3266 104.605 82.253 96.7623 81.2757C93.7716 80.9031 91.5239 76.1065 90.2898 73.7898C89.3212 71.9715 88.3484 70.8763 87.0179 69.4097Z" fill="#0A9F68"/>
</g>
</g>
<path fill-rule="evenodd" clip-rule="evenodd" d="M66.5 0C67.5355 0 68.375 0.987607 68.375 2.20588V35.2941C68.375 36.5124 67.5355 37.5 66.5 37.5C65.4645 37.5 64.625 36.5124 64.625 35.2941V2.20588C64.625 0.987607 65.4645 0 66.5 0Z" fill="url(#paint0_linear_3484_2203)"/>
<path fill-rule="evenodd" clip-rule="evenodd" d="M70.4162 23.0564C73.6185 22.321 77.1205 21.2573 79.5393 19.9779C80.3242 19.5627 80.9379 19.1539 81.3743 18.7669C81.8184 18.373 81.9939 18.0773 82.0527 17.9019C82.0926 17.7828 82.1059 17.6592 81.9943 17.4376C81.8567 17.1646 81.5145 16.7324 80.7402 16.1807C79.2536 15.1215 78.0673 14.9609 77.1111 15.1531C76.0885 15.3587 75.0297 16.0288 73.9748 17.1624C72.5087 18.7377 71.2924 20.9478 70.4162 23.0564ZM76.4492 11.8079C78.5353 11.3885 80.6942 11.9012 82.8125 13.4105C83.8406 14.1431 84.6522 14.9606 85.1239 15.8968C85.6215 16.8844 85.6996 17.9293 85.3637 18.9321C85.0466 19.8785 84.4057 20.658 83.6969 21.2866C82.9803 21.9221 82.1045 22.483 81.1673 22.9787C77.4732 24.9328 71.9475 26.3225 68.0615 27.0182C67.4699 27.1242 66.8679 26.9251 66.468 26.4912C66.0681 26.0574 65.9267 25.4499 66.0936 24.8832C66.9605 21.9394 68.7568 17.7301 71.4113 14.8778C72.7491 13.4403 74.4295 12.2139 76.4492 11.8079Z" fill="url(#paint1_linear_3484_2203)"/>
<path fill-rule="evenodd" clip-rule="evenodd" d="M58.039 20.9707C54.1534 19.3387 49.3637 19.2288 46.1278 19.6701L45.6211 15.9545C49.2602 15.4582 54.7829 15.5358 59.4911 17.5132C61.8709 18.5127 64.1108 20.0275 65.7548 22.2658C67.4115 24.5215 68.3744 27.3928 68.3744 30.9373H64.6244C64.6244 28.1067 63.8686 26.0327 62.7324 24.4857C61.5834 22.9213 59.9561 21.7759 58.039 20.9707Z" fill="url(#paint2_linear_3484_2203)"/>
<rect x="57.125" y="26.25" width="18.75" height="15" rx="3.75" fill="#FFB9F8"/>
<path fill-rule="evenodd" clip-rule="evenodd" d="M70.6178 67.4808C68.9351 67.8895 67.9023 69.5848 68.3109 71.2675L70.4828 80.2106L61.6464 77.6183C59.9848 77.1309 58.2427 78.0827 57.7553 79.7442C57.2678 81.4058 58.2196 83.1479 59.8812 83.6354L68.7162 86.2273L62.0582 92.5787C60.8052 93.774 60.7585 95.7586 61.9537 97.0115C63.1489 98.2644 65.1335 98.3112 66.3865 97.116L73.0455 90.7635L75.2167 99.7039C75.6253 101.387 77.3207 102.419 79.0033 102.011C80.686 101.602 81.7188 99.9068 81.3102 98.2241L79.1394 89.2851L87.9607 91.873C89.6223 92.3604 91.3644 91.4086 91.8518 89.7471C92.3393 88.0855 91.3875 86.3434 89.7259 85.8559L80.9032 83.2677L87.5602 76.9172C88.8131 75.722 88.8599 73.7374 87.6647 72.4844C86.4695 71.2315 84.4848 71.1848 83.2319 72.38L76.5759 78.7295L74.4044 69.7877C73.9958 68.105 72.3005 67.0722 70.6178 67.4808Z" fill="white"/>
<path fill-rule="evenodd" clip-rule="evenodd" d="M36.764 56.2542C36.1181 56.8703 36.094 57.8933 36.7101 58.5392L39.9872 61.9744L35.391 63.0906C34.5236 63.3012 33.9912 64.1751 34.2019 65.0425C34.4125 65.9099 35.2864 66.4423 36.1538 66.2316L40.7542 65.1144L39.4196 69.6635C39.1684 70.52 39.659 71.418 40.5155 71.6693C41.372 71.9205 42.27 71.4299 42.5213 70.5734L43.8546 66.0285L47.1221 69.4537C47.7382 70.0996 48.7613 70.1237 49.4071 69.5076C50.053 68.8915 50.0771 67.8685 49.461 67.2226L46.1905 63.7942L50.8121 62.6719C51.6795 62.4612 52.2119 61.5873 52.0012 60.7199C51.7906 59.8526 50.9167 59.3202 50.0493 59.5308L45.4318 60.6522L46.7676 56.0991C47.0188 55.2426 46.5282 54.3446 45.6717 54.0933C44.8152 53.842 43.9172 54.3326 43.6659 55.1891L42.329 59.7464L39.049 56.308C38.4329 55.6622 37.4098 55.6381 36.764 56.2542Z" fill="white"/>
<defs>
<filter id="filter0_f_3484_2203" x="-15.9961" y="-45.0513" width="246.789" height="311.41" filterUnits="userSpaceOnUse" color-interpolation-filters="sRGB">
<feFlood flood-opacity="0" result="BackgroundImageFix"/>
<feBlend mode="normal" in="SourceGraphic" in2="BackgroundImageFix" result="shape"/>
<feGaussianBlur stdDeviation="5.625" result="effect1_foregroundBlur_3484_2203"/>
</filter>
<linearGradient id="paint0_linear_3484_2203" x1="62.1692" y1="-20.3061" x2="98.2303" y2="-11.5559" gradientUnits="userSpaceOnUse">
<stop stop-color="#71BBFF"/>
<stop offset="0.320121" stop-color="#FFB9F8"/>
<stop offset="0.742974" stop-color="#FFE665"/>
<stop offset="1" stop-color="#0A9F68"/>
</linearGradient>
<linearGradient id="paint1_linear_3484_2203" x1="71.6344" y1="-5.05204" x2="70.866" y2="66.0287" gradientUnits="userSpaceOnUse">
<stop stop-color="#71BBFF"/>
<stop offset="0.320121" stop-color="#FFB9F8"/>
<stop offset="0.742974" stop-color="#FFE665"/>
<stop offset="1" stop-color="#0A9F68"/>
</linearGradient>
<linearGradient id="paint2_linear_3484_2203" x1="30.7202" y1="7.44561" x2="47.1226" y2="66.8691" gradientUnits="userSpaceOnUse">
<stop stop-color="#71BBFF"/>
<stop offset="0.320121" stop-color="#FFB9F8"/>
<stop offset="0.742974" stop-color="#FFE665"/>
<stop offset="1" stop-color="#0A9F68"/>
</linearGradient>
</defs>
</svg>
