<svg width="200" height="128" viewBox="0 0 200 128" fill="none" xmlns="http://www.w3.org/2000/svg">
<mask id="mask0_4071_24076" style="mask-type:alpha" maskUnits="userSpaceOnUse" x="0" y="0" width="200" height="128">
<rect width="200" height="128" fill="#D9D9D9"/>
</mask>
<g mask="url(#mask0_4071_24076)">
<path d="M55.9554 113.271C72.8827 118.353 88.7154 111.778 100.713 99.5209L137.307 62.8017C141.588 58.5673 152.89 47.7059 158.664 52.0914C161.254 53.983 161.154 58.8166 160.656 61.5556C159.062 71.0728 153.985 75.2578 147.762 73.6131C161.702 80.3895 177.634 77.4494 178.43 57.7693C178.281 23.3934 146.866 28.8738 129.789 45.9624L88.5643 87.2147C63.8205 112.076 35.99 86.3686 38.431 60.3614C40.8202 34.8522 64.7678 17.4649 86.0758 39.0366C75.7709 27.2291 59.2419 23.1941 44.6538 28.8238C30.614 34.3042 21.3039 47.7059 21.0048 62.6523C20.7062 84.5245 34.4975 106.844 55.9554 113.271Z" fill="url(#paint0_linear_4071_24076)"/>
<path d="M128.594 71.5708L137.307 62.8016C138.203 61.9055 139.448 60.7094 140.843 59.4134L128.694 47.1084L116.447 59.3134L128.594 71.5702V71.5708Z" fill="url(#paint1_linear_4071_24076)"/>
<path d="M117.689 82.4815L133.871 66.2391L121.773 53.9823L105.592 70.2247L117.689 82.4815Z" fill="url(#paint2_linear_4071_24076)"/>
<mask id="mask1_4071_24076" style="mask-type:alpha" maskUnits="userSpaceOnUse" x="21" y="12" width="158" height="80">
<path d="M44.653 28.8236C59.2411 23.1938 75.0719 27.9274 86.0749 39.0364L124.66 77.9966C145.619 99.222 172.505 95.087 177.682 64.4455C178.131 62.0547 178.33 59.8625 178.43 57.7685C177.483 81.4342 151.645 80.7374 136.908 65.8409L98.3232 26.8808C67.0075 -4.80617 25.0373 18.0121 21.2031 58.7164C21.1038 60.0618 21.0539 61.3561 21.0039 62.6521C21.303 47.7057 30.6131 34.304 44.653 28.8236Z" fill="black"/>
</mask>
<g mask="url(#mask1_4071_24076)">
<g filter="url(#filter0_f_4071_24076)">
<path d="M15.5282 147.181C26.4878 146.432 37.474 145.588 48.4204 144.886C58.8499 144.176 62.0496 138.819 66.5609 121.919C76.8881 83.0364 88.2357 44.0342 99.2918 5.05303C101.194 -1.6867 99.6632 -6.93084 95.8731 -6.65584C68.9178 -4.70011 41.936 -2.74242 15.0074 -0.880942L15.5282 147.181Z" fill="#FFB9F8"/>
</g>
<g filter="url(#filter1_f_4071_24076)">
<path d="M154.054 138.64C155.895 135.915 157.686 133.117 159.552 130.429C161.306 127.837 158.795 123.329 149.708 110.218C128.791 80.0645 108.016 49.621 87.193 19.2508C83.5909 14.0016 80.16 10.5173 79.5327 11.4712C75.0719 18.2551 70.6066 25.0456 66.0953 31.7561L154.054 138.64Z" fill="#FFB9F8"/>
</g>
<g filter="url(#filter2_f_4071_24076)">
<path d="M203.861 129.201C206.525 125.225 209.139 121.176 211.828 117.237C214.364 113.455 211.982 108.75 202.875 95.6694C181.909 65.5915 161.16 35.1087 140.34 4.73246C136.738 -0.516669 133.077 -3.65045 132.166 -2.26446C125.684 7.59255 119.196 17.4593 112.664 27.2429L203.861 129.201Z" fill="#FFB9F8"/>
</g>
<g filter="url(#filter3_f_4071_24076)">
<path d="M166.176 122.627C181.747 127.215 197.31 131.814 212.892 136.412C202.325 129.403 190.125 122.575 177.715 116.164C166.569 110.41 154.856 104.665 146.612 98.2755C139.643 92.878 135.613 87.423 132.807 81.9514C121.518 74.2366 113.628 66.2017 109.481 57.8469C106.383 51.5999 111.875 51.7566 113.622 46.5224C123.047 52.6588 122.377 42.2359 113.313 35.9277C109.601 33.344 110.004 34.9514 107.158 32.2721C105.18 30.3969 99.7724 29.3753 98.7417 27.5165C94.0747 19.0284 67.9707 9.28682 65.2418 0.972843C53.3425 6.40327 75.0915 21.6537 70.8365 29.5865C92.1237 44.27 94.7906 52.3637 103.673 67.5305C104.402 68.7797 105.077 70.0267 105.734 71.2749L152.897 118.324C157.255 119.862 161.684 121.299 166.176 122.627Z" fill="#71BBFF"/>
</g>
<g filter="url(#filter4_f_4071_24076)">
<path d="M221.472 112.248C221.476 112.254 221.468 112.259 221.462 112.254C197.675 96.0544 173.569 73.4117 152.243 46.7511C145.239 37.9789 132.749 33.0731 122.329 35.4722C120.378 35.9216 118.426 36.3716 116.474 36.822C96.1644 41.5097 93.1413 63.6528 110.761 78.2814L148.199 109.363C159.462 118.714 174.948 122.785 187.956 119.835C199.122 117.302 210.292 114.779 221.462 112.243C221.466 112.243 221.47 112.245 221.472 112.248Z" fill="#FFE665"/>
</g>
<g filter="url(#filter5_f_4071_24076)">
<path d="M131.801 50.795C132.641 50.8206 133.004 51.1827 133.99 51.3825C134.804 52.4978 135.706 51.1152 135.518 50.0038C135.252 48.4386 134.321 48.7959 133.407 48.2704C131.803 47.3489 130.646 46.9339 129.149 45.564C128.049 44.5573 126.771 41.0753 126.346 39.5273C125.712 37.2212 122.386 37.6263 120.802 37.2203C118.521 36.6351 116.533 37.0047 114.447 35.3818C112.38 33.7738 110.946 31.3492 109.327 29.2197C107.536 26.864 106.174 25.1359 103.334 24.4076C100.925 23.7896 99.9142 26.3643 98.8363 27.8887C97.7747 29.39 98.7268 32.591 99.1114 34.3386C99.609 36.5997 100.693 37.7545 102.066 39.4449C103.595 41.3265 106.489 41.5398 107.962 43.3525C109.131 44.7924 110.561 48.0924 112.505 48.2818C116.34 48.6555 119.533 47.871 122.911 50.9625C124.2 52.1414 127.157 51.3277 128.642 51.0002C129.807 50.7431 130.655 50.76 131.801 50.795Z" fill="#0A9F68"/>
</g>
</g>
</g>
<defs>
<filter id="filter0_f_4071_24076" x="-8.99219" y="-30.666" width="133.102" height="201.847" filterUnits="userSpaceOnUse" color-interpolation-filters="sRGB">
<feFlood flood-opacity="0" result="BackgroundImageFix"/>
<feBlend mode="normal" in="SourceGraphic" in2="BackgroundImageFix" result="shape"/>
<feGaussianBlur stdDeviation="12" result="effect1_foregroundBlur_4071_24076"/>
</filter>
<filter id="filter1_f_4071_24076" x="42.0957" y="-12.686" width="141.979" height="175.326" filterUnits="userSpaceOnUse" color-interpolation-filters="sRGB">
<feFlood flood-opacity="0" result="BackgroundImageFix"/>
<feBlend mode="normal" in="SourceGraphic" in2="BackgroundImageFix" result="shape"/>
<feGaussianBlur stdDeviation="12" result="effect1_foregroundBlur_4071_24076"/>
</filter>
<filter id="filter2_f_4071_24076" x="88.6641" y="-26.5923" width="148.115" height="179.793" filterUnits="userSpaceOnUse" color-interpolation-filters="sRGB">
<feFlood flood-opacity="0" result="BackgroundImageFix"/>
<feBlend mode="normal" in="SourceGraphic" in2="BackgroundImageFix" result="shape"/>
<feGaussianBlur stdDeviation="12" result="effect1_foregroundBlur_4071_24076"/>
</filter>
<filter id="filter3_f_4071_24076" x="45.6387" y="-15.0273" width="183.253" height="167.439" filterUnits="userSpaceOnUse" color-interpolation-filters="sRGB">
<feFlood flood-opacity="0" result="BackgroundImageFix"/>
<feBlend mode="normal" in="SourceGraphic" in2="BackgroundImageFix" result="shape"/>
<feGaussianBlur stdDeviation="8" result="effect1_foregroundBlur_4071_24076"/>
</filter>
<filter id="filter4_f_4071_24076" x="75.2061" y="10.8652" width="170.267" height="133.916" filterUnits="userSpaceOnUse" color-interpolation-filters="sRGB">
<feFlood flood-opacity="0" result="BackgroundImageFix"/>
<feBlend mode="normal" in="SourceGraphic" in2="BackgroundImageFix" result="shape"/>
<feGaussianBlur stdDeviation="12" result="effect1_foregroundBlur_4071_24076"/>
</filter>
<filter id="filter5_f_4071_24076" x="82.3506" y="8.31348" width="69.1924" height="59.481" filterUnits="userSpaceOnUse" color-interpolation-filters="sRGB">
<feFlood flood-opacity="0" result="BackgroundImageFix"/>
<feBlend mode="normal" in="SourceGraphic" in2="BackgroundImageFix" result="shape"/>
<feGaussianBlur stdDeviation="8" result="effect1_foregroundBlur_4071_24076"/>
</filter>
<linearGradient id="paint0_linear_4071_24076" x1="46.5824" y1="26.3154" x2="106.016" y2="117.561" gradientUnits="userSpaceOnUse">
<stop stop-color="#F6F6F6"/>
<stop offset="1" stop-color="#EFEFEF"/>
</linearGradient>
<linearGradient id="paint1_linear_4071_24076" x1="124.39" y1="61.8493" x2="134.997" y2="54.7981" gradientUnits="userSpaceOnUse">
<stop stop-color="#C8C8C8"/>
<stop offset="1" stop-color="#F1F1F1"/>
</linearGradient>
<linearGradient id="paint2_linear_4071_24076" x1="122.737" y1="63.5028" x2="111.16" y2="76.2199" gradientUnits="userSpaceOnUse">
<stop stop-color="#C8C8C8"/>
<stop offset="1" stop-color="#F1F1F1"/>
</linearGradient>
</defs>
</svg>
