<svg width="17" height="16" viewBox="0 0 17 16" fill="none" xmlns="http://www.w3.org/2000/svg">
<path d="M16.5 8C16.5 12.4183 12.9183 16 8.5 16C4.08172 16 0.5 12.4183 0.5 8C0.5 3.58172 4.08172 0 8.5 0C12.9183 0 16.5 3.58172 16.5 8Z" fill="#71BBFF"/>
<path fill-rule="evenodd" clip-rule="evenodd" d="M6.06039 7.47659C5.77112 7.18715 5.30187 7.18689 5.01228 7.47601C4.72269 7.76513 4.72244 8.23414 5.0117 8.52357L7.23263 10.7458C7.54078 11.0541 8.04734 11.0312 8.32641 10.6964L12.0306 6.25197C12.2926 5.93764 12.25 5.47057 11.9355 5.20873C11.621 4.94689 11.1537 4.98944 10.8918 5.30376L7.70735 9.1245L6.06039 7.47659Z" fill="#FFFDFB"/>
</svg>
