<svg width="207" height="136" viewBox="0 0 207 136" fill="none" xmlns="http://www.w3.org/2000/svg">
<path d="M50.0215 45.3337C50.0215 42.204 52.5585 39.667 55.6882 39.667H150.605C153.734 39.667 156.271 42.204 156.271 45.3337V104.834C156.271 107.963 153.734 110.5 150.605 110.5H55.6881C52.5585 110.5 50.0215 107.963 50.0215 104.834V45.3337Z" fill="#E9E8E8"/>
<mask id="mask0_4461_24846" style="mask-type:alpha" maskUnits="userSpaceOnUse" x="67" y="25" width="72" height="72">
<path d="M67.7295 31.1672C67.7295 28.0375 70.2665 25.5005 73.3962 25.5005H132.896C136.026 25.5005 138.563 28.0375 138.563 31.1672V90.6672C138.563 93.7968 136.026 96.3338 132.896 96.3338H73.3962C70.2665 96.3338 67.7295 93.7968 67.7295 90.6672V31.1672Z" fill="url(#paint0_linear_4461_24846)"/>
</mask>
<g mask="url(#mask0_4461_24846)">
<g filter="url(#filter0_f_4461_24846)">
<path d="M17.9241 36.6104C14.4544 37.4821 12.8133 40.6668 13.9431 44.3605C16.2076 51.7642 18.4982 59.1682 20.7018 66.5712C23.434 75.6061 29.1844 77.1607 46.2286 77.1382C85.4303 77.041 124.948 77.8157 164.388 78.3382C171.205 78.4206 175.917 75.8273 174.908 72.5479C168.81 52.7271 162.706 32.8897 156.665 13.0646C155.045 7.74902 148.594 3.78379 143.6 5.03819L17.9241 36.6104Z" fill="#FFB9F8"/>
</g>
<g filter="url(#filter1_f_4461_24846)">
<path d="M79.7768 112.241C79.7729 112.245 79.7687 112.239 79.7719 112.234C96.0721 89.4131 118.927 63.0065 145.894 36.1521C149.118 32.9437 152.392 29.738 155.704 26.5332C158.968 23.3742 159.96 17.834 157.944 13.8417C155.24 8.48829 152.521 3.1473 149.783 -2.17931C147.343 -6.92572 141.796 -7.28031 138.29 -2.93288L71.1943 80.2674C68.5599 83.5342 67.9651 88.443 69.7585 92.0436C73.1072 98.7666 76.4334 105.505 79.7783 112.234C79.7793 112.237 79.7787 112.24 79.7768 112.241Z" fill="#FFE665"/>
</g>
<g filter="url(#filter2_f_4461_24846)">
<path d="M29.282 86.0657C66.3064 48.1711 34.0817 78.8513 90.6455 28.9262C99.3029 21.2877 108.093 13.5993 116.978 5.87216C120.47 2.83554 120.507 -1.88139 116.515 -0.328208C105.564 3.9323 84.6446 21.7986 70.6637 21.7986C56.5231 21.7986 33.1264 47.2767 23.3633 58.6794C20.6893 61.8024 20.0971 66.5976 21.8077 70.1711C24.3205 75.4206 26.7984 80.6968 29.307 85.9523C29.3246 85.9892 29.3134 86.0399 29.282 86.0657Z" fill="#71BBFF"/>
</g>
<g filter="url(#filter3_f_4461_24846)">
<path d="M110.017 61.9813L91.4188 86.3731L95.2143 93.1681L132.744 68.895L138.752 51.2555L126.018 50.8761L110.017 61.9813Z" fill="#0A9F68"/>
</g>
<path d="M99.1607 53.8342L113.505 39.6675L115.896 41.7924L99.1615 58.0841L90.3955 50.2922L92.7861 48.1673L99.1607 53.8342Z" fill="white"/>
</g>
<path d="M50.0215 44.9611C50.0215 42.6982 52.5436 41.3484 54.4265 42.6036L101.575 74.0359C102.527 74.6704 103.766 74.6704 104.718 74.0359L151.867 42.6036C153.749 41.3484 156.271 42.6982 156.271 44.9611V104.834C156.271 107.963 153.734 110.5 150.605 110.5H55.6881C52.5585 110.5 50.0215 107.963 50.0215 104.834V44.9611Z" fill="#F5F5F5"/>
<path d="M98.4315 78.2268C101.287 76.3234 105.006 76.3234 107.861 78.2268L152.378 107.905C153.545 108.682 152.994 110.5 151.593 110.5H54.7004C53.2988 110.5 52.7483 108.682 53.9146 107.905L98.4315 78.2268Z" fill="#E9E8E8"/>
<defs>
<filter id="filter0_f_4461_24846" x="7.9222" y="-0.861979" width="172.788" height="84.869" filterUnits="userSpaceOnUse" color-interpolation-filters="sRGB">
<feFlood flood-opacity="0" result="BackgroundImageFix"/>
<feBlend mode="normal" in="SourceGraphic" in2="BackgroundImageFix" result="shape"/>
<feGaussianBlur stdDeviation="2.83333" result="effect1_foregroundBlur_4461_24846"/>
</filter>
<filter id="filter1_f_4461_24846" x="63.0628" y="-11.6457" width="101.591" height="129.555" filterUnits="userSpaceOnUse" color-interpolation-filters="sRGB">
<feFlood flood-opacity="0" result="BackgroundImageFix"/>
<feBlend mode="normal" in="SourceGraphic" in2="BackgroundImageFix" result="shape"/>
<feGaussianBlur stdDeviation="2.83333" result="effect1_foregroundBlur_4461_24846"/>
</filter>
<filter id="filter2_f_4461_24846" x="15.1761" y="-6.30046" width="110.045" height="98.033" filterUnits="userSpaceOnUse" color-interpolation-filters="sRGB">
<feFlood flood-opacity="0" result="BackgroundImageFix"/>
<feBlend mode="normal" in="SourceGraphic" in2="BackgroundImageFix" result="shape"/>
<feGaussianBlur stdDeviation="2.83333" result="effect1_foregroundBlur_4461_24846"/>
</filter>
<filter id="filter3_f_4461_24846" x="85.7523" y="45.2093" width="58.6663" height="53.6253" filterUnits="userSpaceOnUse" color-interpolation-filters="sRGB">
<feFlood flood-opacity="0" result="BackgroundImageFix"/>
<feBlend mode="normal" in="SourceGraphic" in2="BackgroundImageFix" result="shape"/>
<feGaussianBlur stdDeviation="2.83333" result="effect1_foregroundBlur_4461_24846"/>
</filter>
<linearGradient id="paint0_linear_4461_24846" x1="103.146" y1="25.5005" x2="103.146" y2="96.3338" gradientUnits="userSpaceOnUse">
<stop stop-color="#EFEFEF"/>
<stop offset="1" stop-color="#ABABAB"/>
</linearGradient>
</defs>
</svg>
