<svg width="148" height="102" fill="none" xmlns="http://www.w3.org/2000/svg"><mask id="b" fill="#fff"><path fill-rule="evenodd" clip-rule="evenodd" d="M113.006 96.54c19.037 0 34.469-15.381 34.469-34.355 0-18.973-15.432-34.354-34.469-34.354S78.537 43.212 78.537 62.185c0 12.493 6.69 23.428 16.695 29.44-.679 4.076-3.014 8.153-4.478 10.133 4.921-1.402 8.283-4.58 10.268-7.352a34.503 34.503 0 0 0 11.984 2.133z"/></mask><path fill-rule="evenodd" clip-rule="evenodd" d="M113.006 96.54c19.037 0 34.469-15.381 34.469-34.355 0-18.973-15.432-34.354-34.469-34.354S78.537 43.212 78.537 62.185c0 12.493 6.69 23.428 16.695 29.44-.679 4.076-3.014 8.153-4.478 10.133 4.921-1.402 8.283-4.58 10.268-7.352a34.503 34.503 0 0 0 11.984 2.133z" fill="url(#a)"/><path d="m95.232 91.626 1.973.329.224-1.343-1.167-.7-1.03 1.714zm-4.478 10.132-1.608-1.189-3.49 4.72 5.646-1.608-.548-1.923zm10.268-7.352.694-1.876-1.431-.529-.888 1.24 1.625 1.165zm44.453-32.22c0 17.862-14.53 32.354-32.469 32.354v4c20.135 0 36.469-16.27 36.469-36.355h-4zM113.006 29.83c17.939 0 32.469 14.492 32.469 32.354h4c0-20.084-16.334-36.354-36.469-36.354v4zM80.537 62.185c0-17.862 14.53-32.354 32.469-32.354v-4c-20.135 0-36.469 16.27-36.469 36.354h4zm15.725 27.727c-9.43-5.668-15.725-15.967-15.725-27.727h-4c0 13.226 7.085 24.797 17.665 31.155l2.06-3.428zm-3.003 1.385c-.608 3.65-2.755 7.434-4.113 9.272l3.216 2.378c1.569-2.122 4.093-6.493 4.843-10.992l-3.946-.658zm-1.957 12.384c5.47-1.557 9.175-5.08 11.346-8.11l-3.251-2.33c-1.8 2.513-4.817 5.348-9.19 6.593l1.095 3.847zm21.704-9.141c-3.974 0-7.777-.711-11.29-2.01l-1.387 3.752a36.5 36.5 0 0 0 12.677 2.258v-4z" fill="#FFFDFB" mask="url(#b)"/><mask id="d" fill="#fff"><path fill-rule="evenodd" clip-rule="evenodd" d="M49.955 65.055c11.26-5.653 18.983-17.278 18.983-30.7C68.938 15.38 53.506 0 34.47 0S0 15.38 0 34.354c0 18.974 15.432 34.354 34.47 34.354 2.736 0 5.399-.318 7.952-.918l-.099.049c1.018 2.754 4.887 8.784 12.217 10.871-1.892-2.559-5.241-8.623-4.585-13.655z"/></mask><path fill-rule="evenodd" clip-rule="evenodd" d="M49.955 65.055c11.26-5.653 18.983-17.278 18.983-30.7C68.938 15.38 53.506 0 34.47 0S0 15.38 0 34.354c0 18.974 15.432 34.354 34.47 34.354 2.736 0 5.399-.318 7.952-.918l-.099.049c1.018 2.754 4.887 8.784 12.217 10.871-1.892-2.559-5.241-8.623-4.585-13.655z" fill="url(#c)"/><path d="m49.955 65.055-.898-1.788-.948.476-.137 1.053 1.983.258zm-7.533 2.735.892 1.79-1.35-3.737.458 1.947zm-.099.049-.892-1.79-1.606.8.622 1.683 1.876-.693zM54.54 78.71l-.548 1.924 5.646 1.608-3.49-4.72-1.608 1.188zm12.398-44.356c0 12.635-7.268 23.585-17.88 28.913l1.794 3.575c11.907-5.978 20.086-18.277 20.086-32.488h-4zM34.47 2c17.939 0 32.47 14.492 32.47 32.354h4C70.938 14.27 54.603-2 34.468-2v4zM2 34.354C2 16.492 16.53 2 34.47 2v-4C14.333-2-2 14.27-2 34.354h4zm32.47 32.354C16.53 66.708 2 52.217 2 34.354h-4c0 20.084 16.334 36.354 36.47 36.354v-4zm7.493-.865a32.675 32.675 0 0 1-7.494.865v4a36.68 36.68 0 0 0 8.41-.972l-.916-3.893zm1.252 3.786.099-.05L41.529 66l-.098.05 1.784 3.58zm11.873 7.158c-6.547-1.865-10.023-7.298-10.889-9.642l-3.752 1.387c1.17 3.165 5.431 9.791 13.545 12.102l1.096-3.847zm-7.116-11.99c-.392 3.005.416 6.154 1.465 8.76 1.06 2.635 2.457 4.938 3.495 6.342l3.216-2.378c-.854-1.155-2.077-3.163-3-5.458-.936-2.324-1.474-4.724-1.21-6.75l-3.966-.517z" fill="#FFFDFB" mask="url(#d)"/><mask id="e" style="mask-type:alpha" maskUnits="userSpaceOnUse" x="39" y="28" width="69" height="44"><path fill-rule="evenodd" clip-rule="evenodd" d="M42.572 35.842c.95.167 2.025-1.423 2.403-3.551.377-2.129-.086-3.99-1.035-4.157-.949-.168-2.025 1.422-2.402 3.55-.378 2.13.085 3.99 1.034 4.158zm48.049 18.71c.924.272 2.171-1.188 2.786-3.262.614-2.073.362-3.974-.562-4.246-.925-.272-2.172 1.188-2.786 3.261-.614 2.073-.363 3.974.562 4.246zM59.583 34.865c-.378 2.129-1.453 3.719-2.402 3.551-.95-.167-1.413-2.028-1.035-4.157.378-2.128 1.453-3.718 2.403-3.55.949.167 1.412 2.028 1.034 4.156zm45.266 23.872c.925.272 2.172-1.188 2.786-3.26.614-2.074.363-3.975-.562-4.247-.924-.272-2.172 1.188-2.786 3.26-.614 2.074-.362 3.975.562 4.247zm-63.265-17.33a1.305 1.305 0 0 1 1.06 1.512c-.532 3.002 1.631 6.029 5.028 6.628 3.397.599 6.47-1.504 7.003-4.507a1.309 1.309 0 0 1 2.578.455c-.81 4.566-5.366 7.444-10.037 6.62-4.671-.823-7.96-5.084-7.149-9.65a1.309 1.309 0 0 1 1.517-1.058zM89.9 61.594a1.31 1.31 0 0 0-2.51-.739c-1.318 4.447 1.472 9.048 6.02 10.387 4.55 1.339 9.4-1.015 10.718-5.461a1.31 1.31 0 0 0-2.511-.739c-.866 2.924-4.156 4.671-7.465 3.698-3.308-.974-5.118-4.222-4.252-7.146z" fill="#ABABAB"/></mask><g mask="url(#e)"><g filter="url(#f)"><path d="M-52 9.396c-1.182 8.988-2.259 18.01-3.494 26.982-1.128 8.553 4.536 11.844 23.455 17.7 43.534 13.43 87.018 27.703 130.531 41.737 7.525 2.42 13.946 1.858 14.336-1.252 2.775-22.121 5.554-44.264 8.434-66.351L-51.999 9.396z" fill="#FFB9F8"/></g><g filter="url(#g)"><path d="M-73.177 128.673c2.84 1.847 5.777 3.664 8.57 5.527 2.702 1.759 8.446.308 25.487-5.36 39.194-13.051 78.7-25.949 118.13-38.895 6.816-2.24 11.536-4.57 10.538-5.203-7.096-4.5-14.2-9.005-21.2-13.537l-141.525 57.468z" fill="#FFB9F8"/></g><path d="M-36.303 181.813c-1.6 13.29-3.214 26.574-4.823 39.874 5.604-9.663 10.61-20.61 15.08-31.657 4.01-9.921 7.874-20.298 13.316-27.989 4.596-6.5 9.96-10.646 15.637-13.809 6.252-10.361 13.687-18.039 22.388-22.759 6.507-3.526 7.638.919 14.128 1.46-4.865 8.6 7.067 6.336 12.218-2.001 2.11-3.415.342-2.825 2.77-5.559 1.702-1.902 1.594-6.422 3.504-7.559 8.732-5.16 13.792-27.778 22.785-31.35-9.145-8.677-21.638 11.348-31.859 9.236-11.945 19.56-20.697 23.045-36.17 32.702-1.274.792-2.56 1.542-3.85 2.277l-43.308 45.736a156.358 156.358 0 0 0-1.816 11.398z" fill="#71BBFF"/><g filter="url(#h)"><path d="M33.662 32.011C19.834 40.403 6 48.784-7.845 57.18c13.488-3.801 27.728-8.803 41.65-14.152 12.5-4.807 25.32-10.004 36.813-12.521 9.712-2.13 17.787-2.227 25.172-1.48 14.649-3.95 27.672-5.425 38.87-4.192 8.371.925 5.034 4.595 9.539 8.332-11.909 3.446-.54 8.057 11.341 4.942 4.866-1.276 2.94-1.783 7.407-2.422 3.118-.438 7.318-3.63 9.872-3.43 11.638.944 36.979-12.127 47.315-9.946 1.151-10.759-35.071.426-40.972-6.334-27.765 7.382-30.24 1.502-51.351.187-1.736-.11-3.44-.256-5.135-.415l-76.811 9.296a274.483 274.483 0 0 0-12.203 6.967z" fill="#71BBFF"/></g><g filter="url(#i)"><path d="M98.546 44.946c-.5.598-1.082.72-1.846 1.354-1.621.154-.688 1.345.576 1.642 1.781.418 1.933-.394 2.997-.85 1.864-.8 2.948-1.475 5.219-2.024 1.669-.402 6.019.03 7.872.327 2.761.44 4.213-2.122 5.528-3.109 1.895-1.42 2.63-3.002 5.497-3.878 2.841-.867 6.176-.959 9.308-1.3 3.464-.376 6.033-.687 8.392-2.456 2.002-1.501-.112-3.236-1.094-4.609-.967-1.353-4.839-1.912-6.878-2.315-2.637-.522-4.451-.188-6.987.146-2.822.371-4.675 2.38-7.394 2.739-2.16.284-6.406.032-7.698 1.363-2.55 2.627-3.532 5.241-8.658 6.478-1.954.472-2.773 2.928-3.268 4.129-.388.942-.884 1.549-1.566 2.363z" fill="#71BBFF"/></g><g filter="url(#j)"><path d="M83.64 32.04c11.382-1.965 29.669-6.538 37.876-13.205-4.789-5.515-12.71 6.864-17.498 1.35l-17.5 4.284c-4.601 3.562-7.045 2.773-2.879 7.572z" fill="#0A9F68"/></g><g filter="url(#k)"><path d="M-40.226 89.982c-.455.646-.345 1.348-.815 2.026-.47.678-1.82 2.46-1.644 2.843.254.553-.1 1.591 1.249 1.79 1.303.191 3.13-.37 4.494-.692 5.003-1.183 9.821-3.037 14.653-4.524 2.443-.752 5.053-1.11 7.565-1.795 1.225-.333 1.774-.818 3.16-.993 1.33-.168 2.564-.566 3.827-.91 3.057-.832 5.958-.96 9.144-1.293 3.517-.366 8.082-1.899 11.278-2.998C22.9 79.923 29.1 74.066 37.017 69.09c3.072-1.93 5.505-4.143 8.863-5.933 3.536-1.885 7.6-3.017 11.784-4.156 7.135-1.944 15.05-3.942 21.496-6.772 2.987-1.312 5.56-2.747 7.173-4.764 1.739-2.173-.613-5.558-3.452-6.72-1.577-.644-5.24-.542-7.254-.478-2.135.068-4.266.286-6.396.53-7.953.91-15.75 3.538-22.327 6.628-8.255 3.88-16.942 4.604-26.166 6.743-4.425 1.027-8.637 2.402-12.82 3.744-2.773.889-4.724 3.025-6.767 4.386-5.74 3.826-8.793 8.51-15.662 11.72-3.19 1.49-6.57 2.933-10.19 3.958-1.969.557-4.933 1.346-6.414 2.412-2.752 1.982-6.329 4.193-7.384 6.67-.385.903-1.119 2.061-1.727 2.925z" fill="#FFE665"/></g><g filter="url(#l)"><path d="M71.392 85.407c-.048.496.236 1.012.19 1.532-.047.52-.232 1.89-.013 2.169.317.401.449 1.184 1.262 1.284.785.096 1.623-.385 2.278-.673 2.407-1.054 4.497-2.6 6.71-3.875 1.12-.644 2.457-1.002 3.637-1.6.575-.29.727-.67 1.441-.848.686-.172 1.246-.51 1.84-.81 1.434-.727 3.006-.924 4.672-1.283 1.839-.397 3.89-1.695 5.318-2.624 4.563-2.968 6.152-7.535 8.975-11.509 1.095-1.541 1.746-3.27 3.044-4.717 1.368-1.524 3.268-2.507 5.233-3.501 3.349-1.695 7.115-3.457 9.8-5.786 1.245-1.08 2.22-2.235 2.477-3.79.277-1.674-2.104-4.103-4.05-4.865-1.081-.422-3.085-.218-4.184-.099-1.166.126-2.281.363-3.387.62-4.133.956-7.633 3.182-10.309 5.708-3.358 3.172-7.957 4.016-12.406 5.93-2.134.918-4.039 2.087-5.939 3.231-1.26.758-1.666 2.412-2.37 3.495-1.977 3.042-2.189 6.627-4.99 9.252-1.3 1.218-2.721 2.41-4.408 3.298-.917.483-2.315 1.174-2.8 2.017-.901 1.568-2.188 3.336-1.99 5.211.073.684.033 1.57-.031 2.233z" fill="#FFE665"/></g><g filter="url(#m)"><path d="M77.688 97.488c.287 4.919.568 9.84.852 14.764 1.584-4.228 2.837-8.82 3.867-13.37.922-4.085 1.755-8.31 3.412-11.819 1.4-2.965 3.275-5.212 5.345-7.16 1.797-4.568 4.697-4.343 7.88-7.281 2.38-2.197 3.013-1.128 5.672-1.888-1.361 3.744 2.997-2.49 4.492-6.184.612-1.513-.061-1.046.728-2.366.554-.92.193-2.498.884-3.178 3.164-3.099 3.62-11.814 7-14.39-4.302-1.72-5.338 4.205-9.613 4.958-3.451 8.646-9.343 14.121-14.913 19.793-.46.466-.926.918-1.396 1.367L77.621 93.203a52.418 52.418 0 0 0 .067 4.285z" fill="#71BBFF"/></g><g filter="url(#n)"><ellipse cx="105.814" cy="55.303" rx="6.268" ry="5.162" fill="#71BBFF"/></g></g><defs><filter id="k" x="-46.7" y="36.218" width="137.628" height="64.461" filterUnits="userSpaceOnUse" color-interpolation-filters="sRGB"><feFlood flood-opacity="0" result="BackgroundImageFix"/><feBlend in="SourceGraphic" in2="BackgroundImageFix" result="shape"/><feGaussianBlur stdDeviation="2" result="effect1_foregroundBlur_14280_16193"/></filter><filter id="f" x="-59.631" y="5.396" width="184.893" height="95.921" filterUnits="userSpaceOnUse" color-interpolation-filters="sRGB"><feFlood flood-opacity="0" result="BackgroundImageFix"/><feBlend in="SourceGraphic" in2="BackgroundImageFix" result="shape"/><feGaussianBlur stdDeviation="2" result="effect1_foregroundBlur_14280_16193"/></filter><filter id="h" x="-11.845" y="11.748" width="236.005" height="49.432" filterUnits="userSpaceOnUse" color-interpolation-filters="sRGB"><feFlood flood-opacity="0" result="BackgroundImageFix"/><feBlend in="SourceGraphic" in2="BackgroundImageFix" result="shape"/><feGaussianBlur stdDeviation="2" result="effect1_foregroundBlur_14280_16193"/></filter><filter id="i" x="91.836" y="23.456" width="55.084" height="28.602" filterUnits="userSpaceOnUse" color-interpolation-filters="sRGB"><feFlood flood-opacity="0" result="BackgroundImageFix"/><feBlend in="SourceGraphic" in2="BackgroundImageFix" result="shape"/><feGaussianBlur stdDeviation="2" result="effect1_foregroundBlur_14280_16193"/></filter><filter id="j" x="77.502" y="13.384" width="48.014" height="22.657" filterUnits="userSpaceOnUse" color-interpolation-filters="sRGB"><feFlood flood-opacity="0" result="BackgroundImageFix"/><feBlend in="SourceGraphic" in2="BackgroundImageFix" result="shape"/><feGaussianBlur stdDeviation="2" result="effect1_foregroundBlur_14280_16193"/></filter><filter id="g" x="-77.177" y="67.205" width="170.858" height="71.698" filterUnits="userSpaceOnUse" color-interpolation-filters="sRGB"><feFlood flood-opacity="0" result="BackgroundImageFix"/><feBlend in="SourceGraphic" in2="BackgroundImageFix" result="shape"/><feGaussianBlur stdDeviation="2" result="effect1_foregroundBlur_14280_16193"/></filter><filter id="l" x="67.386" y="40.257" width="64.892" height="54.148" filterUnits="userSpaceOnUse" color-interpolation-filters="sRGB"><feFlood flood-opacity="0" result="BackgroundImageFix"/><feBlend in="SourceGraphic" in2="BackgroundImageFix" result="shape"/><feGaussianBlur stdDeviation="2" result="effect1_foregroundBlur_14280_16193"/></filter><filter id="m" x="74.605" y="41.304" width="46.216" height="73.949" filterUnits="userSpaceOnUse" color-interpolation-filters="sRGB"><feFlood flood-opacity="0" result="BackgroundImageFix"/><feBlend in="SourceGraphic" in2="BackgroundImageFix" result="shape"/><feGaussianBlur stdDeviation="1.5" result="effect1_foregroundBlur_14280_16193"/></filter><filter id="n" x="95.546" y="46.141" width="20.535" height="18.323" filterUnits="userSpaceOnUse" color-interpolation-filters="sRGB"><feFlood flood-opacity="0" result="BackgroundImageFix"/><feBlend in="SourceGraphic" in2="BackgroundImageFix" result="shape"/><feGaussianBlur stdDeviation="2" result="effect1_foregroundBlur_14280_16193"/></filter><linearGradient id="a" x1="113" y1="75.5" x2="140.793" y2="32.481" gradientUnits="userSpaceOnUse"><stop stop-color="#fff"/><stop offset="1" stop-color="#FFFDFB" stop-opacity=".53"/></linearGradient><linearGradient id="c" x1="28" y1="58" x2="17.683" y2=".596" gradientUnits="userSpaceOnUse"><stop stop-color="#fff"/><stop offset="1" stop-color="#FFFDFB" stop-opacity=".54"/></linearGradient></defs></svg>
