<svg width="219" height="104" fill="none" xmlns="http://www.w3.org/2000/svg"><path d="M0 8a8 8 0 0 1 8-8h211v96a8 8 0 0 1-8 8H0V8z" fill="url(#a)"/><path d="M127.103 74.345c0-7.923 6.423-14.345 14.345-14.345h50.207C199.578 60 206 66.422 206 74.345c0 7.922-6.422 14.345-14.345 14.345h-50.207c-7.922 0-14.345-6.423-14.345-14.345z" fill="#FFFDFB"/><path opacity=".9" fill-rule="evenodd" clip-rule="evenodd" d="M118.729 70.92c.515-1.301 1.31-2.61 2.214-3.588l.018.009c.388-.431 1.093-.126 1.093.448-.172 1.96.227 3.466.651 5.067.401 1.512.825 3.11.812 5.258-.036 5.857-4.86 10.576-10.758 10.576-5.899 0-10.732-4.719-10.759-10.576-.012-2.06.393-3.455.788-4.815.453-1.56.893-3.076.676-5.501-.009-.583.704-.88 1.093-.448 1.002 1.085 1.86 2.583 2.375 4.01.199.528.94.573 1.175.062.895-1.253 1.114-2.943 1.343-4.706.302-2.328.62-4.78 2.532-6.516.406-.43 1.111-.116 1.093.467-.052 1.752.772 3.051 1.784 4.647.915 1.442 1.984 3.126 2.696 5.606.217.52.958.538 1.174 0zm-8.154 5.091c0 .924-.592 1.675-1.324 1.675-.733 0-1.325-.75-1.325-1.675 0-.923.592-1.674 1.325-1.674.732 0 1.324.75 1.324 1.674zm6.982 0c0 .924-.593 1.675-1.325 1.675s-1.325-.75-1.325-1.675c0-.923.593-1.674 1.325-1.674s1.325.75 1.325 1.674zm-10.893 2.382c2.008 5.814 10.205 5.82 12.207 0 .116-.377.675-.245.64.15-.733 8.094-12.73 8.088-13.487 0-.034-.395.518-.527.64-.15z" fill="#E9E8E8"/><circle cx="189.862" cy="74.345" r="7.172" fill="#D9D9D9"/><path fill-rule="evenodd" clip-rule="evenodd" d="M133.379 75.241a2.69 2.69 0 0 1 2.69-2.69h41.241a2.69 2.69 0 1 1 0 5.38h-41.241a2.69 2.69 0 0 1-2.69-2.69z" fill="#E9E8E8"/><path fill-rule="evenodd" clip-rule="evenodd" d="M133.379 75.241a2.69 2.69 0 0 1 2.69-2.69h14.345a2.69 2.69 0 0 1 0 5.38h-14.345a2.69 2.69 0 0 1-2.69-2.69z" fill="#D6D6D6"/><mask id="b" style="mask-type:alpha" maskUnits="userSpaceOnUse" x="152" y="8" width="15" height="47"><path fill-rule="evenodd" clip-rule="evenodd" d="M155.36 27.161c-.187.636-.809 1.126-1.562 1.016-.643-.14-1.159-.875-.972-1.51 1.717-5.873 3.384-11.756 5.052-17.638.311-.974 1.767-1.492 2.318-.436 1.03 1.965 2.046 3.94 3.061 5.915 1.015 1.975 2.03 3.95 3.061 5.915.339.594.23 1.35-.371 1.74-.541.352-1.392.22-1.732-.373-1.03-1.965-2.045-3.94-3.061-5.915l-.443-.862c.062 1.448.127 2.896.193 4.345.12 2.835.238 5.683.356 8.53.117 2.848.235 5.696.356 8.531.212 5.56.315 11.15-.702 16.652-.29 1.602-2.764 1.068-2.424-.523.547-3.056.738-6.136.769-9.198.025-3.983-.168-7.958-.361-11.938a533.955 533.955 0 0 1-.209-4.573c-.113-3.346-.248-6.68-.388-10.017a3768.31 3768.31 0 0 0-2.941 10.34z" fill="#000"/></mask><g mask="url(#b)"><g filter="url(#c)"><path d="M154.893 84.494c5.956-.582 11.918-1.227 17.871-1.778 5.669-.552 6.896-4.149 7.696-15.453 1.811-26.006 4.171-52.1 6.373-78.178.376-4.509-.989-7.994-3.047-7.782-14.638 1.508-29.29 3.017-43.923 4.462l15.03 98.73z" fill="#FFB9F8"/></g><g filter="url(#d)"><path d="M185.59 75.941c7.805 1.688 15.609 3.388 23.421 5.084-5.841-4.805-12.407-9.165-19.013-13.098-5.932-3.529-12.123-6.954-16.809-11.568-3.959-3.897-6.575-8.343-8.63-13.011-6.271-5.347-11.023-11.567-14.097-18.717-2.297-5.347.252-6.125.326-11.337 5.194 4.178 3.431-5.5-1.62-9.9-2.068-1.803-1.659-.36-3.342-2.398-1.172-1.429-3.803-1.478-4.537-3.05C137.957-9.245 124.586-14 122.17-21.35c-4.718 7.105 11.362 19.306 10.511 27.475 11.844 10.21 10.256 15.828 16.46 28.581.509 1.051-.507 6.462-.03 7.524l22.141 31.232c2.22.71 12.086 1.989 14.338 2.48z" fill="#71BBFF"/></g><g filter="url(#e)"><path d="M164.775 38.571c-6.379-6.283-17.483-15.197-25.254-15.341-1.149 7.943 9.945 3.114 8.796 11.057l10.57 8.606c4.251.228 4.889 2.589 5.888-4.322z" fill="#0A9F68"/></g><g filter="url(#f)"><path d="M192.319 59.59c.344.14.653.015 1.014.16.36.144 1.318.575 1.475.454.226-.176.739-.123.686-.765-.05-.62-.5-1.401-.792-1.994-1.071-2.177-2.43-4.197-3.622-6.262-.603-1.044-1.043-2.207-1.623-3.29-.282-.529-.562-.73-.789-1.349-.218-.594-.531-1.12-.822-1.665-.705-1.318-1.071-2.639-1.56-4.07-.54-1.58-1.725-3.517-2.566-4.87-2.69-4.327-6.027-6.558-9.143-9.673-1.209-1.208-2.479-2.093-3.654-3.447-1.237-1.427-2.185-3.177-3.15-4.981-1.645-3.077-3.398-6.506-5.376-9.172-.917-1.235-1.846-2.267-2.939-2.795-1.179-.569-2.479.873-2.71 2.303-.128.794.307 2.468.549 3.388.258.976.583 1.933.92 2.887 1.259 3.563 3.287 6.872 5.398 9.57 2.65 3.386 3.902 7.306 5.857 11.323.939 1.927 2.014 3.72 3.071 5.502.701 1.181 1.885 1.852 2.725 2.647 2.358 2.235 4.825 3.142 7.021 5.962 1.02 1.31 2.039 2.712 2.891 4.269.464.846 1.139 2.126 1.783 2.694 1.199 1.056 2.589 2.467 3.835 2.69.454.08 1.062.296 1.521.484z" fill="#FFE665"/></g></g><mask id="g" style="mask-type:alpha" maskUnits="userSpaceOnUse" x="45" y="69" width="46" height="13"><path fill-rule="evenodd" clip-rule="evenodd" d="M53.79 76.666c3.428.978 6.859 1.946 10.29 2.915.632.185 1.113.778.991 1.485-.148.603-.89 1.079-1.523.893-5.842-1.699-11.696-3.352-17.55-5.004-.968-.307-1.464-1.685-.401-2.189a847.6 847.6 0 0 1 5.954-2.798c1.988-.928 3.977-1.856 5.955-2.799.598-.31 1.353-.197 1.734.374.343.514.2 1.314-.399 1.625-1.978.942-3.966 1.87-5.955 2.798l-.866.405c1.447-.037 2.895-.079 4.343-.12 2.835-.074 5.682-.144 8.53-.215 2.846-.07 5.693-.141 8.528-.215 5.559-.122 11.145-.14 16.628.895 1.597.296 1.027 2.617-.558 2.276-3.045-.559-6.12-.782-9.18-.855-3.978-.08-7.953.046-11.932.172a603.99 603.99 0 0 1-4.573.133c-3.346.06-6.678.139-10.016.224z" fill="#000"/></mask><g mask="url(#g)"><g filter="url(#h)"><path d="M49.359 124.121c10.914-.263 21.843-.585 32.75-.818 10.386-.249 12.956-3.555 15.456-14.09 5.7-24.239 12.41-48.534 18.83-72.82 1.101-4.2-1.066-7.525-4.839-7.424-26.83.718-53.686 1.437-80.5 2.096l18.303 93.056z" fill="#FFB9F8"/></g><g filter="url(#i)"><path d="M109.897 110.551c14.077 1.948 28.149 3.907 42.238 5.863-10.207-4.77-21.779-9.16-33.46-13.151-10.491-3.58-21.466-7.077-29.583-11.614-6.861-3.833-11.22-8.115-14.537-12.578-10.941-5.298-19.032-11.34-23.978-18.173-3.695-5.11 1.024-5.717 1.64-10.588 9.084 4.153 6.763-4.983-2.041-9.338-3.606-1.783-2.992-.415-5.875-2.4-2.005-1.392-6.797-1.562-7.99-3.068-5.412-6.881-29.356-11.962-33.083-18.952-9.258 6.423 18.938 18.595 16.632 26.195 20.656 10.11 17.242 15.29 27.378 27.512.832 1.007-1.52 6.02-.749 7.035l37.494 30.26c3.982.77 21.853 2.432 25.914 2.997z" fill="#71BBFF"/></g><g filter="url(#j)"><path d="M51.704 73.794C40.652 67.615 21.227 58.753 7.071 58.251c-2.827 7.375 17.846 3.383 15.019 10.758l18.48 8.55c7.73.414 8.675 2.652 11.134-3.765z" fill="#0A9F68"/></g><g filter="url(#k)"><path d="M121.294 103.384c.614.148 1.19.045 1.833.197.644.152 2.352.601 2.649.495.428-.153 1.358-.08 1.322-.683-.035-.582-.784-1.334-1.261-1.903-1.753-2.086-4.044-4.04-6.027-6.028-1.004-1.005-1.699-2.114-2.656-3.154-.466-.508-.958-.71-1.315-1.299-.342-.566-.864-1.072-1.344-1.596-1.164-1.266-1.709-2.519-2.47-3.88-.839-1.503-2.821-3.371-4.23-4.678-4.505-4.174-10.384-6.418-15.78-9.479-2.092-1.187-4.327-2.075-6.344-3.397-2.124-1.393-3.692-3.075-5.285-4.808-2.715-2.955-5.595-6.246-8.956-8.833-1.558-1.198-3.157-2.207-5.102-2.753-2.097-.588-4.6.7-5.153 2.026-.307.736.331 2.323.689 3.195.38.925.884 1.835 1.411 2.744 1.967 3.392 5.36 6.582 8.96 9.206 4.52 3.292 6.44 7.018 9.637 10.868 1.533 1.847 3.329 3.574 5.092 5.291 1.168 1.138 3.266 1.822 4.723 2.605 4.094 2.202 8.509 3.167 12.254 5.909 1.738 1.272 3.467 2.632 4.877 4.129.767.813 1.88 2.043 3.003 2.605 2.088 1.044 4.494 2.429 6.744 2.696.82.098 1.909.327 2.729.525z" fill="#FFE665"/></g></g><defs><filter id="c" x="137.863" y="-20.706" width="51.032" height="107.2" filterUnits="userSpaceOnUse" color-interpolation-filters="sRGB"><feFlood flood-opacity="0" result="BackgroundImageFix"/><feBlend in="SourceGraphic" in2="BackgroundImageFix" result="shape"/><feGaussianBlur stdDeviation="1" result="effect1_foregroundBlur_14270_8706"/></filter><filter id="d" x="119.301" y="-23.35" width="91.71" height="106.375" filterUnits="userSpaceOnUse" color-interpolation-filters="sRGB"><feFlood flood-opacity="0" result="BackgroundImageFix"/><feBlend in="SourceGraphic" in2="BackgroundImageFix" result="shape"/><feGaussianBlur stdDeviation="1" result="effect1_foregroundBlur_14270_8706"/></filter><filter id="e" x="137.438" y="21.23" width="29.337" height="24.234" filterUnits="userSpaceOnUse" color-interpolation-filters="sRGB"><feFlood flood-opacity="0" result="BackgroundImageFix"/><feBlend in="SourceGraphic" in2="BackgroundImageFix" result="shape"/><feGaussianBlur stdDeviation="1" result="effect1_foregroundBlur_14270_8706"/></filter><filter id="f" x="154.725" y="3.744" width="42.773" height="58.481" filterUnits="userSpaceOnUse" color-interpolation-filters="sRGB"><feFlood flood-opacity="0" result="BackgroundImageFix"/><feBlend in="SourceGraphic" in2="BackgroundImageFix" result="shape"/><feGaussianBlur stdDeviation="1" result="effect1_foregroundBlur_14270_8706"/></filter><filter id="h" x="29.056" y="26.967" width="89.626" height="99.153" filterUnits="userSpaceOnUse" color-interpolation-filters="sRGB"><feFlood flood-opacity="0" result="BackgroundImageFix"/><feBlend in="SourceGraphic" in2="BackgroundImageFix" result="shape"/><feGaussianBlur stdDeviation="1" result="effect1_foregroundBlur_14270_8706"/></filter><filter id="i" x="-.645" y="14.552" width="154.779" height="103.861" filterUnits="userSpaceOnUse" color-interpolation-filters="sRGB"><feFlood flood-opacity="0" result="BackgroundImageFix"/><feBlend in="SourceGraphic" in2="BackgroundImageFix" result="shape"/><feGaussianBlur stdDeviation="1" result="effect1_foregroundBlur_14270_8706"/></filter><filter id="j" x="4.805" y="56.251" width="48.9" height="24.021" filterUnits="userSpaceOnUse" color-interpolation-filters="sRGB"><feFlood flood-opacity="0" result="BackgroundImageFix"/><feBlend in="SourceGraphic" in2="BackgroundImageFix" result="shape"/><feGaussianBlur stdDeviation="1" result="effect1_foregroundBlur_14270_8706"/></filter><filter id="k" x="59.094" y="49.439" width="70.005" height="56.653" filterUnits="userSpaceOnUse" color-interpolation-filters="sRGB"><feFlood flood-opacity="0" result="BackgroundImageFix"/><feBlend in="SourceGraphic" in2="BackgroundImageFix" result="shape"/><feGaussianBlur stdDeviation="1" result="effect1_foregroundBlur_14270_8706"/></filter><linearGradient id="a" x1="57" y1="-37.5" x2="103" y2="68.5" gradientUnits="userSpaceOnUse"><stop stop-color="#7D7D7D"/><stop offset="1" stop-color="#23201F"/></linearGradient></defs></svg>
