<svg width="16" height="16" viewBox="0 0 16 16" fill="none" xmlns="http://www.w3.org/2000/svg">
<path fill-rule="evenodd" clip-rule="evenodd" d="M3.5405 3.54039C3.79434 3.28655 4.2059 3.28655 4.45974 3.54039L8.00012 7.08077L11.5405 3.54039C11.7943 3.28655 12.2059 3.28655 12.4597 3.54039C12.7136 3.79423 12.7136 4.20578 12.4597 4.45963L8.91936 8.00001L12.4597 11.5404C12.7136 11.7942 12.7136 12.2058 12.4597 12.4596C12.2059 12.7134 11.7943 12.7134 11.5405 12.4596L8.00012 8.91925L4.45972 12.4596C4.20588 12.7135 3.79432 12.7135 3.54048 12.4596C3.28664 12.2058 3.28664 11.7943 3.54048 11.5404L7.08088 8.00001L3.5405 4.45963C3.28666 4.20578 3.28666 3.79423 3.5405 3.54039Z" fill="currentColor"/>
</svg>
