<svg xmlns="http://www.w3.org/2000/svg" viewBox="0 0 512 512"><circle cx="256" cy="256" r="256" fill="#fff"/><path fill="#DC171D" fill-rule="evenodd" d="M342.263 14.898v482.204C315.31 506.747 286.269 512 256 512c-30.545 0-59.84-5.349-87-15.163V15.163C196.16 5.349 225.455 0 256 0c30.269 0 59.31 5.253 86.263 14.898Z" clip-rule="evenodd"/><path fill="#012A87" fill-rule="evenodd" d="M496.981 342.601C506.703 315.553 512 286.395 512 256c0-30.545-5.349-59.84-15.162-87H15.163C5.404 196.008.06 225.128 0 255.488v1.021c.058 30.212 5.35 59.195 15.018 86.092H496.98Z" clip-rule="evenodd"/><path fill="#fff" d="M260.969 191.994 256.106 177l-4.861 14.994h-15.736l12.73 9.268-4.861 14.993 12.728-9.267 12.731 9.267-4.863-14.993 12.73-9.268M379.482 249.2l12.731-9.267H376.48l-4.864-14.991-4.863 14.994H351.02l12.728 9.268-4.861 14.994 12.73-9.267 12.73 9.267m-75.533 43.532-4.861-14.996-4.864 14.995h-15.735l12.73 9.264-4.861 14.994 12.73-9.268 12.729 9.269-4.861-14.994 12.73-9.267m-179.09-67.796-4.863-14.994-4.863 14.995H120l12.73 9.27-4.863 14.995 12.731-9.267 12.73 9.268-4.861-14.994 12.728-9.267m51.929 67.796-4.863-14.996-4.863 14.995h-15.734l12.73 9.265-4.863 14.994 12.73-9.269 12.731 9.269-4.862-14.994 12.729-9.267"/></svg>
