<svg xmlns="http://www.w3.org/2000/svg" xmlns:xlink="http://www.w3.org/1999/xlink" version="1.1" width="256" height="256" viewBox="0 0 256 256" xml:space="preserve">

<defs>
</defs>
<g style="stroke: none; stroke-width: 0; stroke-dasharray: none; stroke-linecap: butt; stroke-linejoin: miter; stroke-miterlimit: 10; fill: none; fill-rule: nonzero; opacity: 1;" transform="translate(1.4065934065934016 1.4065934065934016) scale(2.81 2.81)" >
	<path d="M 65.648 90 H 24.352 c -3.783 0 -6.92 -2.959 -7.141 -6.735 l -4.116 -70.283 c -0.016 -0.275 0.082 -0.544 0.271 -0.745 s 0.452 -0.314 0.728 -0.314 h 61.813 c 0.275 0 0.538 0.114 0.728 0.314 c 0.188 0.2 0.287 0.47 0.271 0.745 l -4.115 70.283 C 72.568 87.041 69.432 90 65.648 90 z M 15.154 13.923 l 4.053 69.224 C 19.367 85.868 21.626 88 24.352 88 h 41.297 c 2.726 0 4.985 -2.132 5.145 -4.853 l 4.053 -69.224 H 15.154 z" style="stroke: none; stroke-width: 1; stroke-dasharray: none; stroke-linecap: butt; stroke-linejoin: miter; stroke-miterlimit: 10; fill: rgb(0,0,0); fill-rule: nonzero; opacity: 1;" transform=" matrix(1 0 0 1 0 0) " stroke-linecap="round" />
	<path d="M 82.396 13.923 H 7.604 c -0.552 0 -1 -0.448 -1 -1 s 0.448 -1 1 -1 h 74.792 c 0.553 0 1 0.448 1 1 S 82.949 13.923 82.396 13.923 z" style="stroke: none; stroke-width: 1; stroke-dasharray: none; stroke-linecap: butt; stroke-linejoin: miter; stroke-miterlimit: 10; fill: rgb(0,0,0); fill-rule: nonzero; opacity: 1;" transform=" matrix(1 0 0 1 0 0) " stroke-linecap="round" />
	<path d="M 59.382 13.923 H 30.618 c -0.552 0 -1 -0.448 -1 -1 V 7.065 C 29.618 3.169 32.787 0 36.683 0 h 16.635 c 3.896 0 7.064 3.169 7.064 7.065 v 5.858 C 60.382 13.476 59.935 13.923 59.382 13.923 z M 31.618 11.923 h 26.764 V 7.065 C 58.382 4.272 56.11 2 53.317 2 H 36.683 c -2.793 0 -5.065 2.272 -5.065 5.065 V 11.923 z" style="stroke: none; stroke-width: 1; stroke-dasharray: none; stroke-linecap: butt; stroke-linejoin: miter; stroke-miterlimit: 10; fill: rgb(0,0,0); fill-rule: nonzero; opacity: 1;" transform=" matrix(1 0 0 1 0 0) " stroke-linecap="round" />
	<path d="M 58.963 74.276 c -0.02 0 -0.039 -0.001 -0.06 -0.002 c -0.551 -0.032 -0.972 -0.505 -0.939 -1.057 l 2.591 -44.255 c 0.032 -0.551 0.483 -0.987 1.057 -0.939 c 0.551 0.032 0.972 0.505 0.939 1.057 L 59.96 73.335 C 59.929 73.866 59.488 74.276 58.963 74.276 z" style="stroke: none; stroke-width: 1; stroke-dasharray: none; stroke-linecap: butt; stroke-linejoin: miter; stroke-miterlimit: 10; fill: rgb(0,0,0); fill-rule: nonzero; opacity: 1;" transform=" matrix(1 0 0 1 0 0) " stroke-linecap="round" />
	<path d="M 31.037 74.276 c -0.525 0 -0.966 -0.41 -0.997 -0.941 L 27.449 29.08 c -0.033 -0.551 0.388 -1.024 0.939 -1.057 c 0.557 -0.045 1.024 0.389 1.057 0.939 l 2.592 44.255 c 0.032 0.552 -0.389 1.024 -0.94 1.057 C 31.077 74.275 31.057 74.276 31.037 74.276 z" style="stroke: none; stroke-width: 1; stroke-dasharray: none; stroke-linecap: butt; stroke-linejoin: miter; stroke-miterlimit: 10; fill: rgb(0,0,0); fill-rule: nonzero; opacity: 1;" transform=" matrix(1 0 0 1 0 0) " stroke-linecap="round" />
	<path d="M 45 74.276 c -0.552 0 -1 -0.447 -1 -1 V 29.021 c 0 -0.552 0.448 -1 1 -1 s 1 0.448 1 1 v 44.255 C 46 73.829 45.552 74.276 45 74.276 z" style="stroke: none; stroke-width: 1; stroke-dasharray: none; stroke-linecap: butt; stroke-linejoin: miter; stroke-miterlimit: 10; fill: rgb(0,0,0); fill-rule: nonzero; opacity: 1;" transform=" matrix(1 0 0 1 0 0) " stroke-linecap="round" />
</g>
</svg>