<svg width="20" height="20" viewBox="0 0 20 20" fill="none" xmlns="http://www.w3.org/2000/svg">
<path d="M11.3278 8.16777C11.7305 7.0795 13.2697 7.0795 13.6724 8.16777L14.3263 9.9349C14.4529 10.2771 14.7227 10.5468 15.0649 10.6734L16.832 11.3273C17.9203 11.73 17.9203 13.2693 16.832 13.672L15.0649 14.3258C14.7227 14.4525 14.4529 14.7222 14.3263 15.0644L13.6724 16.8315C13.2697 17.9198 11.7305 17.9198 11.3278 16.8315L10.6739 15.0644C10.5473 14.7222 10.2775 14.4525 9.93539 14.3258L8.16826 13.672C7.07998 13.2693 7.07998 11.73 8.16826 11.3273L9.93539 10.6734C10.2775 10.5468 10.5473 10.2771 10.6739 9.9349L11.3278 8.16777Z" stroke="#FED230" stroke-width="1.25"/>
<path d="M4.66114 3.16777C5.06384 2.07949 6.60307 2.0795 7.00577 3.16777L7.20952 3.71839C7.33613 4.06054 7.60589 4.3303 7.94804 4.45691L8.49866 4.66066C9.58693 5.06335 9.58693 6.60259 8.49866 7.00528L7.94804 7.20903C7.60589 7.33564 7.33613 7.6054 7.20952 7.94755L7.00577 8.49817C6.60307 9.58644 5.06384 9.58644 4.66114 8.49817L4.45739 7.94755C4.33079 7.6054 4.06103 7.33564 3.71888 7.20903L3.16825 7.00528C2.07998 6.60259 2.07998 5.06335 3.16826 4.66065L3.71888 4.45691C4.06103 4.3303 4.33079 4.06054 4.4574 3.71839L4.66114 3.16777Z" stroke="#FED230" stroke-width="1.25"/>
</svg>
