<svg xmlns="http://www.w3.org/2000/svg" xmlns:xlink="http://www.w3.org/1999/xlink" width="81" height="81" viewBox="0 0 81 81">
    <defs>
        <path id="a" d="M73.636 14.727V7.364H7.364v7.363h66.272zm0 7.364H7.364v51.545h66.272V22.091zM7.364 0h66.272A7.364 7.364 0 0 1 81 7.364v66.272A7.364 7.364 0 0 1 73.636 81H7.364A7.364 7.364 0 0 1 0 73.636V7.364A7.364 7.364 0 0 1 7.364 0zm46.022 44.182a5.523 5.523 0 1 1 0-11.046 5.523 5.523 0 0 1 0 11.046zm-25.772 0a5.523 5.523 0 1 1 0-11.046 5.523 5.523 0 0 1 0 11.046zm13.328 7.363c8.578 0 15.905 5.34 18.85 12.887h-6.148c-2.577-4.382-7.253-7.364-12.702-7.364-5.45 0-10.162 2.982-12.702 7.364h-6.15c2.946-7.548 10.273-12.887 18.852-12.887z"/>
    </defs>
    <use fill="#CAE4FE" fill-rule="evenodd" xlink:href="#a"/>
</svg>
