<svg width="38" height="38" viewBox="0 0 38 38" fill="none" xmlns="http://www.w3.org/2000/svg">
    <path d="M17.2065 3.63397C17.9402 2.14748 20.0598 2.14748 20.7935 3.63397L24.1186 10.3715C24.4099 10.9617 24.9731 11.3709 25.6245 11.4655L33.0597 12.5459C34.7002 12.7843 35.3552 14.8003 34.1682 15.9573L28.788 21.2017C28.3166 21.6612 28.1015 22.3232 28.2128 22.972L29.4829 30.3772C29.7631 32.011 28.0482 33.2569 26.581 32.4856L19.9307 28.9893C19.348 28.683 18.652 28.683 18.0693 28.9893L11.419 32.4856C9.95177 33.2569 8.23691 32.011 8.51713 30.3772L9.78722 22.972C9.89849 22.3232 9.6834 21.6612 9.21202 21.2017L3.83182 15.9573C2.64479 14.8003 3.29981 12.7843 4.94025 12.5459L12.3755 11.4655C13.0269 11.3709 13.5901 10.9617 13.8814 10.3715L17.2065 3.63397Z" fill="#FFC100"/>
</svg>
