<svg xmlns="http://www.w3.org/2000/svg" width="24" height="24" viewBox="0 0 24 24">
    <g fill="none" fill-rule="evenodd">
        <path d="M0 0h24v24H0z"/>
        <path fill="#2A3E52" fill-opacity=".4" d="M15.107 3.458c.907.282 1.76.689 2.536 1.199l1.792-1.778L23 6.414l-1.976 1.96A9.893 9.893 0 0 1 22.164 13c0 5.523-4.512 10-10.082 10C6.514 23 2 18.524 2 13c0-4.838 3.463-8.874 8.066-9.8V1h5.041v2.458zM4 13a8 8 0 0 0 8 8 8 8 0 0 0 8-8 8 8 0 0 0-8-8 8 8 0 0 0-8 8zm9.023 0H17v2h-6V8h2.023v5z"/>
    </g>
</svg>
